<svg width="1500" height="1500" viewBox="0 0 1500 1500" fill="none" xmlns="http://www.w3.org/2000/svg">
<g clip-path="url(#clip0_1071_43720)">
<ellipse cx="942" cy="875.5" rx="131" ry="69.5" fill="#AABBFF"/>
<path d="M836.334 918.926C834.86 951.814 870.565 978.477 916.075 978.483C961.585 978.488 999.694 951.836 1001.17 918.947C1002.64 886.059 966.946 859.397 921.428 859.39C875.91 859.384 837.809 886.037 836.334 918.926Z" stroke="black" stroke-width="22" stroke-miterlimit="10" stroke-linecap="round"/>
<path fill-rule="evenodd" clip-rule="evenodd" d="M885.5 877.469C889.634 871.693 914.932 868.109 925 869.001L926.117 871.88C930.95 867.08 950.02 873.185 961.772 876.947C965.262 878.064 968.106 878.975 969.741 879.332L992.917 935.531L1001.89 990.184L987.415 1034.53L974.891 1098.34L995.43 1167.67L998.046 1215.36L977.423 1284.75C974.148 1298.03 971.355 1332.13 986.389 1362.27C1001.42 1392.4 993.937 1433.54 988.315 1450.34L958.997 1502.5L924.497 1504.5L944.515 1454.04L920.999 1505.5H877.499L903.105 1452.27L911.809 1411.26L897.643 1348.13L888.785 1286.62C895.191 1268.57 908.877 1225.99 912.367 1200.13C916.414 1170.16 903.494 1135.64 895.495 1114.26C894.869 1112.59 894.272 1110.99 893.717 1109.49C886.067 1088.78 898.588 1047.45 908.8 1029.71C916.969 1015.52 916.387 972.294 915.074 952.454C912.932 947.572 910.181 941.532 907.213 935.018C906.321 933.059 905.409 931.057 904.488 929.03L913.101 952.418L912.47 989.375L897.992 1033.72L885.469 1097.53L906.008 1166.86L908.623 1214.55L888.001 1283.94C884.725 1297.22 881.932 1331.32 896.966 1361.46C912.001 1391.59 904.514 1432.73 898.892 1449.53L877.499 1504.5H833.999L855.793 1451.46L864.497 1410.45L850.331 1347.32L841.473 1285.81C847.879 1267.76 861.564 1225.18 865.055 1199.32C869.101 1169.35 856.182 1134.83 848.183 1113.45C847.556 1111.78 846.96 1110.18 846.405 1108.68C838.755 1087.97 851.276 1046.64 861.488 1028.9C869.657 1014.71 869.074 971.484 867.762 951.644C858.102 929.628 852.388 908.579 852.5 901.999C852.598 896.284 871 879.999 885.055 876.261L885.5 877.469ZM957.954 979.053L951.517 939.856C953.694 944.639 955.646 948.946 957.185 952.452C957.636 959.268 958 968.843 957.954 979.053ZM945.304 1034.53L957.359 997.608C956.498 1011.01 954.594 1023.31 950.91 1029.71C948.162 1034.48 945.247 1040.96 942.603 1048.29L945.304 1034.53ZM932.781 1098.34L933.476 1094.8C933.521 1097.69 933.743 1100.45 934.167 1103.02L932.781 1098.34ZM953.32 1167.67L937.078 1112.85C937.166 1113.08 937.255 1113.32 937.345 1113.56L937.606 1114.26C945.274 1134.75 957.463 1167.32 954.894 1196.39L953.32 1167.67ZM941.632 1356.5C933.367 1336.85 932.027 1316.21 932.993 1301.18L939.754 1348.13L941.632 1356.5ZM952.592 1417.51C952.863 1414.29 953.041 1410.98 953.1 1407.6L953.92 1411.26L952.592 1417.51Z" fill="#FFBF44"/>
<path d="M901.5 909C919.9 891 956.167 890.5 972 892.5L969.5 879.5L950.5 865L929 862H905.5L876 865L849 889L866 927L873 999L857 1041L849 1107.5C851.667 1116.17 857 1133.9 857 1135.5C857 1137.1 866.333 1174.17 871 1192.5C868.833 1208.67 863.7 1242.8 860.5 1250C857.3 1257.2 850.167 1272 847 1278.5C846.667 1290.17 846.2 1313.8 847 1315C847.8 1316.2 854 1347.17 857 1362.5L864.5 1410.5L843.5 1478.5L833.5 1506H874.5L889 1483L912 1410.5L902.5 1375L889 1329.5V1287C894.334 1266.67 905.2 1225.3 906 1222.5C907 1219 916.5 1196 916.5 1192.5C916.5 1189.7 907.167 1161.67 902.5 1148L891.5 1097L894.5 1055C899.834 1041.83 911.7 1009.3 916.5 984.5C921.3 959.7 908.5 923.834 901.5 909Z" fill="#001647" fill-opacity="0.2"/>
<path d="M923.553 864.763L949.777 926.78C964.261 961.035 963.608 999.814 947.979 1033.56V1033.56C932.359 1067.29 931.7 1106.05 946.159 1140.29V1140.29C960.623 1174.54 959.964 1213.32 944.339 1247.06V1247.06C928.714 1280.8 928.052 1319.56 942.515 1353.81V1353.81C956.979 1388.07 956.317 1426.83 940.691 1460.57L916.157 1513.55" stroke="black" stroke-width="22"/>
<path d="M966.056 866.762L991.655 926.734C1006.28 961.004 1005.69 999.87 990.035 1033.68V1033.68C974.45 1067.33 973.82 1106.07 988.245 1140.23V1140.23C1002.71 1174.48 1002.08 1213.32 986.451 1247.06V1247.06C970.826 1280.79 970.164 1319.56 984.627 1353.81V1353.81C999.091 1388.07 998.429 1426.83 982.804 1460.57L958.27 1513.54" stroke="black" stroke-width="22"/>
<path d="M883.67 872.262L906.761 926.05C921.447 960.26 920.783 999.12 904.937 1032.81V1032.81C889.091 1066.49 888.427 1105.35 903.113 1139.56V1139.56C917.799 1173.77 917.135 1212.63 901.289 1246.32V1246.32C885.443 1280.01 884.779 1318.87 899.465 1353.08V1353.08C914.151 1387.29 913.487 1426.15 897.642 1459.83L872.726 1512.8" stroke="black" stroke-width="22"/>
<path d="M846.696 894.879L860.833 924.854C877.047 959.232 877.186 999.029 861.213 1033.52V1033.52C846.015 1066.34 845.37 1104.04 859.439 1137.36L860.059 1138.83C874.523 1173.08 873.86 1211.85 858.235 1245.59V1245.59C842.61 1279.32 841.948 1318.09 856.411 1352.34V1352.34C870.875 1386.6 870.213 1425.36 854.588 1459.1L830.054 1512.07" stroke="black" stroke-width="22"/>
<path d="M842 909.5C842.167 923.5 846.3 953.6 859.5 960C876 968 850.5 906 842 909.5Z" fill="black"/>
</g>
<defs>
<clipPath id="clip0_1071_43720">
<rect width="1500" height="1500" fill="white"/>
</clipPath>
</defs>
</svg>
