<svg width="1500" height="1500" viewBox="0 0 1500 1500" fill="none" xmlns="http://www.w3.org/2000/svg">
<g clip-path="url(#clip0_983_4339)">
<path d="M771 423.5C655.4 423.5 554.167 484.167 518 514.5C546.5 530 659.5 550.5 778.5 550.5C873.7 550.5 994.167 529.833 1042.5 519.5C999 476 915.5 423.5 771 423.5Z" fill="#53B6F9"/>
<path d="M785 424.5C654.6 424.5 556.333 484.167 523.5 514L499.5 496.5C531.5 464.166 632.5 394.5 785 394.5C949 394.5 1036.5 460.168 1067.5 494.001L1070.5 514H1047C1014 484.167 915.4 424.5 785 424.5Z" fill="#889ADA"/>
<path d="M509 472C445 524 631.18 552 782.127 552C933.073 552 1128.5 526.5 1062 473.5M525.5 512C561.5 480.5 659 422.5 782.127 422.5C948.5 422.5 1010.5 487 1045.5 515.5" stroke="black" stroke-width="22" stroke-miterlimit="10"/>
<path d="M969.008 197.094L876.17 491.081C874.712 495.697 877.157 500.669 881.669 502.424C887.857 504.83 893.86 507.128 900.5 508.339C907.045 509.533 914.208 510.241 922.777 509.094C928.292 508.355 932.545 504.107 934.164 498.783L1016.84 226.944C1020.09 216.255 1033.02 212.104 1041.88 218.902L1243.62 373.59C1258.62 385.091 1280.38 380.117 1288.89 363.242C1295.58 349.993 1291.63 333.85 1279.58 325.182L1059.73 166.972C1027.12 143.505 981.106 158.783 969.008 197.094Z" fill="#65DCBA" stroke="black" stroke-width="22"/>
<path d="M973.5 263.5L902 504.233L871 494.733L929 325.233C947.5 263.5 957.1 183.7 991.5 164.5C1025.9 145.3 1055.83 167.166 1066.5 180.5C1011.3 153.3 989 210.5 973.5 263.5Z" fill="#001647" fill-opacity="0.2"/>
<path d="M859.555 485.352C871.021 500.067 898.997 518.734 949.555 505.01" stroke="black" stroke-width="22" stroke-linecap="round"/>
<ellipse cx="1270.53" cy="357.577" rx="19.1214" ry="26.4437" transform="rotate(39.2155 1270.53 357.577)" fill="#53B499" stroke="black" stroke-width="22"/>
</g>
<defs>
<clipPath id="clip0_983_4339">
<rect width="1500" height="1500" fill="white"/>
</clipPath>
</defs>
</svg>
