<svg width="1500" height="1500" viewBox="0 0 1500 1500" fill="none" xmlns="http://www.w3.org/2000/svg">
<g clip-path="url(#clip0_602_2010)">
<path d="M576.5 421V536.5L684.5 543V489V444V403C684.5 381.5 683.5 382 681 370C678.5 358 676 358 674 355C672 352 669 355 662.5 355C656 355 651.5 336 650.5 333C649.7 330.6 648.167 299.333 647.5 284H617L611 346L585 355L576.5 421Z" fill="#4AEEB9"/>
<path d="M722 171V455L724 480H758.5V518.5H793.5V473.5H823V374V171H722Z" fill="#4AEEB9"/>
<path d="M863.5 173.5V549.5L970.5 539.5V173.5H863.5Z" fill="#FF6247"/>
<path d="M1070.5 495.5C1042.5 468.7 993.833 440.667 973 430.5L970.5 444L971.5 535.5L1038 526L1070.5 495.5Z" fill="#7985B4"/>
<path d="M858.5 400C853.7 398.4 839.833 397.333 834.5 397L829 470.5L796 479L789.5 506L772.5 523.5L755 506L747.5 479L720.5 470.5L715.5 399L688.5 403.5L685.5 547H863.5L858.5 400Z" fill="#7985B4"/>
<path d="M522.5 519L575.5 530.5V444C545.1 458 514 481 502 492.5L522.5 519Z" fill="#7985B4"/>
<path d="M971.089 535.31V186.21C971.087 181.912 969.378 177.79 966.339 174.751C963.299 171.712 959.178 170.003 954.879 170H879.089C875.881 170 872.745 170.95 870.076 172.729C867.406 174.509 865.323 177.039 864.089 180C863.278 181.97 862.86 184.08 862.859 186.21V552.31" stroke="black" stroke-width="20" stroke-miterlimit="10"/>
<path d="M736.25 478.5H752.37C752.845 478.499 753.316 478.591 753.756 478.772C754.196 478.952 754.595 479.218 754.932 479.553C755.27 479.888 755.537 480.287 755.72 480.725C755.904 481.164 755.999 481.635 756 482.11V504.75C756.002 509.05 757.713 513.173 760.754 516.213C763.796 519.252 767.92 520.96 772.22 520.96H776.11C778.241 520.963 780.351 520.545 782.321 519.732C784.29 518.919 786.08 517.725 787.589 516.22C789.097 514.715 790.293 512.927 791.11 510.959C791.927 508.991 792.348 506.881 792.35 504.75V482.15C792.35 481.19 792.731 480.269 793.41 479.59C794.089 478.911 795.01 478.53 795.97 478.53H812.11C814.239 478.531 816.347 478.113 818.315 477.299C820.282 476.485 822.069 475.291 823.575 473.785C825.08 472.28 826.274 470.492 827.089 468.525C827.903 466.558 828.321 464.449 828.32 462.32V186.21C828.321 184.081 827.903 181.972 827.089 180.005C826.274 178.038 825.08 176.25 823.575 174.745C822.069 173.239 820.282 172.045 818.315 171.231C816.347 170.417 814.239 169.999 812.11 170H736.25C731.96 170.016 727.851 171.73 724.823 174.768C721.794 177.806 720.092 181.92 720.09 186.21V462.29C720.092 466.58 721.794 470.694 724.823 473.732C727.851 476.77 731.96 478.484 736.25 478.5V478.5Z" stroke="black" stroke-width="20" stroke-miterlimit="10"/>
<path d="M577.22 534.34V367.58C577.222 363.282 578.931 359.16 581.97 356.121C585.01 353.081 589.131 351.373 593.43 351.37H606.59C607.55 351.37 608.471 350.989 609.149 350.31C609.828 349.631 610.21 348.71 610.21 347.75V297.47C610.21 293.17 611.917 289.046 614.957 286.004C617.997 282.963 622.12 281.253 626.42 281.25H635.34C639.637 281.258 643.757 282.965 646.8 286C648.309 287.504 649.505 289.292 650.32 291.261C651.135 293.229 651.553 295.339 651.55 297.47V347.76C651.55 348.72 651.931 349.641 652.61 350.32C653.289 350.999 654.21 351.38 655.17 351.38H669.25C673.547 351.385 677.667 353.095 680.706 356.134C683.745 359.172 685.454 363.292 685.46 367.59V546.76" stroke="black" stroke-width="20" stroke-miterlimit="10"/>
<path d="M632.5 369.396V284.61L618.5 280.11L610 347.11L577 350.61L580 535.5L682.5 540.11V520.11C651.5 520.11 632.5 517.5 612 514.61V381.825C612 378.625 614.511 375.988 617.708 375.832L626.792 375.389C629.989 375.233 632.5 372.596 632.5 369.396Z" fill="#001647" fill-opacity="0.2"/>
<path d="M776 460.61V517.11H756.5V477.61H724V173.61H756.5V448.61C756.5 451.924 759.186 454.61 762.5 454.61H770C773.314 454.61 776 457.297 776 460.61Z" fill="#001647" fill-opacity="0.2"/>
<path d="M900.5 517.61V173.61H866L862 546.11L970 536.61V510.61C947.5 515.5 927.5 514.5 900.5 517.61Z" fill="#001647" fill-opacity="0.2"/>
<path d="M509 472C445 524 631.18 552 782.127 552C933.073 552 1128.5 526.5 1062 473.5" stroke="black" stroke-width="21" stroke-miterlimit="10"/>
</g>
<defs>
<clipPath id="clip0_602_2010">
<rect width="1500" height="1500" fill="white"/>
</clipPath>
</defs>
</svg>
