<svg width="1500" height="1500" viewBox="0 0 1500 1500" fill="none" xmlns="http://www.w3.org/2000/svg">
<g clip-path="url(#clip0_708_162)">
<path d="M300.372 667.686L253.609 748.241L454.3 680.321L738.585 628.639C984.683 604.662 1210.53 624.315 1292.69 637.132C1280.65 582.383 1179.61 523.84 1130.59 501.406C1113.68 430.836 1031.42 348.1 992.409 315.548C971.462 295.939 891.936 255.415 741.414 250.145C590.891 244.875 484.992 352.562 450.853 407.063L389.206 540.053L391.612 600.159L300.372 667.686Z" fill="#FFBF44"/>
<path d="M404.788 511.118L379.215 601.746L514.498 559.193L704.36 524.766L854.623 512.616L1130.06 508.135L1104.76 433.647L953.374 421.221L780.012 421.578L582.833 458.009L404.788 511.118Z" fill="#FF6247"/>
<path d="M354.862 795.884C354.862 795.884 350.938 743.246 356.825 717.001L252.005 767.453L261.561 785.693L354.862 795.884Z" fill="#F8C25A"/>
<path d="M1186.18 619.442C1186.18 619.442 1208.44 666.084 1214.92 706.177L1275.33 666.35L1296.3 640.096L1186.18 619.442Z" fill="#CF9B37"/>
<path d="M359.887 716.851C352.213 746.644 356.751 781.024 357.902 794.489L278.053 788.276L243.54 765.647L278.915 699.786L381.672 602.99L407.655 507.185C466.308 334.462 611.08 271.051 676.135 260.936C555.524 348.14 530.412 491.561 532.932 552.371L538.374 561.153C488.016 608.28 453.733 663.777 443.099 686.173L359.887 716.851Z" fill="#001647" fill-opacity="0.2"/>
<path d="M364.028 801.813C354.076 800.496 344.144 799.025 334.23 797.399C306.552 792.824 279.493 787.009 258.929 779.757C255.669 778.61 252.71 776.716 250.281 774.221C247.851 771.727 246.016 768.698 244.915 765.367C243.815 762.037 243.478 758.494 243.932 755.01C244.386 751.527 245.618 748.196 247.533 745.273C268.878 712.643 314.762 650.968 383.157 602.831C383.157 602.831 402.36 310.699 701.675 253.239C1000.99 195.778 1121.72 458.388 1134.58 509.714C1134.58 509.714 1236 540.898 1294.32 623.492C1297.32 627.715 1298.83 632.853 1298.58 638.063C1298.34 643.273 1296.37 648.244 1292.99 652.16C1281.88 664.897 1257.92 683.904 1206.41 704.608" stroke="black" stroke-width="22" stroke-miterlimit="10"/>
<path d="M383.144 602.819C383.144 602.819 625 483.756 1134.57 509.703" stroke="black" stroke-width="22" stroke-miterlimit="10"/>
<path d="M245.071 765.774C245.071 765.774 286.039 722.428 507.075 672.557C706.679 627.495 911.21 609.222 1115.47 618.2C1180.56 621.084 1245.28 626.907 1298.55 637.603" stroke="black" stroke-width="22" stroke-miterlimit="10"/>
<path d="M404.141 511.46C404.141 511.46 721.312 375.084 1101.06 436.771" stroke="black" stroke-width="22" stroke-miterlimit="10"/>
</g>
<defs>
<clipPath id="clip0_708_162">
<rect width="1500" height="1500" fill="white"/>
</clipPath>
</defs>
</svg>
