<svg width="1500" height="1500" viewBox="0 0 1500 1500" fill="none" xmlns="http://www.w3.org/2000/svg">
<g clip-path="url(#clip0_708_417)">
<path d="M1377.21 587.741C1366.89 605.147 1333.55 644.654 1204.03 668.725C1193.23 641.984 1183.95 614.166 1173.38 595.116L1116.67 593.374L1010.34 601.806L618.321 631.333L417.393 649.626L368.366 657.883L361.606 689.05C360.625 692.46 356.623 725.275 356.623 725.275C303.799 722.875 200.744 705.988 173.461 670.428C166.872 661.849 169.533 634.491 172.666 623.379C175.387 613.711 199.713 592.164 260.755 568.288C300.606 552.711 349.278 543.135 415.671 529.155C443.66 523.266 469.794 517.911 495.996 513.405L525.012 504.159L776.824 480.587L1053.71 478.92L1097.22 482.844C1168.45 485.847 1211.6 492.269 1258.23 501.179C1348.07 518.277 1376.89 555.266 1380.9 572.381L1381.06 573.067L1381.3 573.746C1381.3 573.746 1382.23 579.349 1377.21 587.741Z" fill="#3A3A3A"/>
<path d="M445.628 454.583L443.893 511.583L676.25 486.551L1077.31 480.358L1066.36 416.303L834.622 420.846L710.338 425.927L445.628 454.583Z" fill="#FF6247"/>
<path d="M447.276 176.084L447.146 456.434L631.207 432.418L858.117 415.858L1069.92 412.277L999.885 90.1079L966.892 69.5179L796.699 52.1211L642.279 68.7481L507.191 106.08L448.611 132.237L447.276 176.084Z" fill="#3A3A3A"/>
<path d="M556.12 500.427C529.245 389.354 535.647 183.674 542.207 94.7182C537.771 96.6529 522.76 101.994 498.207 107.881C473.653 113.767 453.095 140.286 445.884 152.809L443.641 519.837L353.681 541.457C281.25 556.709 143.201 601.561 170.451 658.949C197.7 716.338 306.275 725.14 357.5 722L362 690L369 658.5L408.5 651.5L471.189 650.24C527.281 574.65 740.697 505.512 840.394 480.391L556.12 500.427Z" fill="black" fill-opacity="0.2"/>
<path d="M1260.22 649.179C1258.55 607.413 1204.43 591.967 1171 591.5C1183.5 613 1189.5 633.5 1204 667.5L1260.22 649.179Z" fill="black" fill-opacity="0.2"/>
<path d="M381.313 666.142C381.313 666.142 776.622 583.801 1169.83 605.691" stroke="black" stroke-width="22" stroke-miterlimit="10"/>
<path d="M371.429 728.366C371.429 728.366 142.025 726.782 168.414 633.002C194.802 539.222 644.39 488.733 644.39 488.733C644.39 488.733 1347.59 432.216 1378.86 565.372C1378.86 565.372 1414.01 631.46 1193.67 671.107" stroke="black" stroke-width="22" stroke-miterlimit="10"/>
<path d="M439.771 515.85L445.084 168.791C445.398 158.474 446.971 148.556 452.527 139.983C458.084 131.407 466.294 124.812 475.95 121.166L508.333 108.994C660.774 51.7477 805.533 37.3665 965.523 68.6616C975.104 70.541 983.881 75.2319 990.694 82.1151C997.507 88.9984 1002.04 97.7505 1003.68 107.216L1082.86 479.22" stroke="black" stroke-width="22" stroke-miterlimit="10"/>
<path d="M445.463 459.999C445.463 459.999 720.142 399.646 1076.19 413.629" stroke="black" stroke-width="22" stroke-miterlimit="10"/>
</g>
<defs>
<clipPath id="clip0_708_417">
<rect width="1500" height="1500" fill="white"/>
</clipPath>
</defs>
</svg>
