<svg
      xmlns="http://www.w3.org/2000/svg"
      preserveAspectRatio="xMidYMin meet"
      fill="none"
      viewBox="0 0 1500 1500"
    >
      <g>
      <path fill="url(#prefix__paint0_linear_53_30459)" d="M0 0h1500v1500H0z"/><defs><linearGradient id="prefix__paint0_linear_53_30459" x1="0" y1="0" x2="1500" y2="1500" gradientUnits="userSpaceOnUse"><stop stop-color="#FFCB9F"/><stop offset="1" stop-color="#FF7F11"/></linearGradient></defs>
      <g clip-path="url(#prefix__clip0_53_27836)"><path d="M295.802 1500s-47.94-91.54 28.64-134.76c0 0-62-101.54 67.13-159.88 0 0-37.4-104.09 81.15-137.65 0 0 113.278-13.21 336.278-19.21 0 0 195-18.5 274.57 12.04 0 0 45.53 20.87 73.44 127 0 0 102.26 45.87 83.4 145.87 0 0 95.08 77.12 34 166.56l-978.608.03z" fill="#A760FF"/><path d="M413.5 1436.5c-54 14.8-41.833 56.83-29 76H309c-8.833-12.83-26.5-48.1-26.5-86.5s29.667-63.33 44.5-71l-18-50c3.833-14.67 16.4-49.7 36-72.5 18.829-21.9 42.242-22.8 52.773-20.32-4.833-2.49-11.288-20.19-5.773-77.18 6-62 116.5-77.5 171-77.5l241.5-11 7 36c-17.167-2.17-61.1-4.2-99.5 5-48 11.5-80.5 77.5-76 125s48.5 68 69 76c16.4 6.4 11.5 13.67 7 16.5-49.667-3.83-159.1-14.1-199.5-24.5-50.5-13-74.5 13.5-92 47s3 79 17.5 92c11.6 10.4 7.5 15.67 4 17h-28.5zM678.5 1465.5c-20-4.8-18.667-17-15.5-22.5l169.5 1.5 157-10.5c19 28-73 38.5-157 41s-129-3.5-154-9.5zM913 1321.5c-15.2-3.6-15-12.83-13-17l49-6.5c2.333-3.33 20.5-12.3 74.5-21.5s109.83-61.5 131-86.5l25.5 11.5c-14.33 17-57.5 58.1-115.5 86.5-72.5 35.5-132.5 38-151.5 33.5zM1179.5 1422.5c-23.2 0-24-9.67-21.5-14.5 37.6-11.6 66.67-41.83 76.5-55.5 8.5-9.83 24.8-22.5 22 5.5-3.5 35-48 64.5-77 64.5z" fill="#001647" fill-opacity=".2"/><path d="M844.66 1500h-20.53l-3.2-51.29-16.43-263.08 20.45-1.27 5.2 83.24 14.51 232.4z" fill="#000"/><path d="M391.57 1205.36s113.92 99.14 315.74 99.14M909.141 1304.5S1033 1306.4 1157 1187.57M324.441 1357.16s36.7 65.24 111 80.93M1240.39 1333.44s0 48.45-73.06 70.34M834.691 1448.75c43.06-1.7 107.46-6.84 146-15M673.09 1443.87s71.64 5.43 147.84 4.84" stroke="#000" stroke-width="20" stroke-miterlimit="10" stroke-linecap="round"/><path d="M1084.5 1337c12.33 37 29.5 110.3 43.5 175.5m-646.5 0c.333-32.83 7.7-107.6 20.5-157M301.5 1508.5c-25.5-42-37.6-117.3 23-149.5m0 0c-22-46-25-128.1 67-152.5m-67 152.5c11.333 20.83 47.5 64.6 110.5 79m-43.5-231.5c-10.5-36.17-17.4-111.6 71-136 53.112-14.66 199.972-21.87 344-24.82m-415 160.82c38.167 32.17 156.3 99.1 315.5 97.5m450-116c-10.37-60.53-39.49-100.92-65.94-123.9-17.73-15.41-41.66-19.79-65.15-19.96-61.49-.42-140.02-.09-219.41 1.54M1157 1188c35.17 12.5 94.3 55.9 83.5 145.5M1157 1188c-97.6 94-206 116.5-248 116m331.5 29.5c35.83 26.17 81.7 104.2 28.5 180m-28.5-180c-4.8 43.2-51.67 65.33-74.5 71m-330.5 109l-29-467.82M672 1444c61.333 6.17 208.7 12.7 307.5-10.5" stroke="#000" stroke-width="20" stroke-linecap="round"/></g><defs><clipPath id="prefix__clip0_53_27836"><path fill="#fff" d="M0 0h1500v1500H0z"/></clipPath></defs>
      <g clip-path="url(#prefix__clip0_299_662)"><path d="M775 1185c231.41 0 419-168.12 419-375.5 0-207.383-187.59-375.5-419-375.5-231.407 0-419 168.117-419 375.5 0 207.38 187.593 375.5 419 375.5z" fill="#ABF"/><path d="M457.5 796c7.6 194 131.833 327.5 193 370l-130-55.5L438 1034l-57.5-89.5-27-106 11-104L394 662l45-82.5 83.5-69.5 109-54.182 28.5-1C569.452 513.314 451.119 633.132 457.5 796z" fill="#001647" fill-opacity=".2"/><path d="M775 1185c231.41 0 419-168.12 419-375.5 0-207.383-187.59-375.5-419-375.5-231.407 0-419 168.117-419 375.5 0 207.38 187.593 375.5 419 375.5z" stroke="#000" stroke-width="20"/></g><defs><clipPath id="prefix__clip0_299_662"><path fill="#fff" d="M0 0h1500v1500H0z"/></clipPath></defs>
      <g clip-path="url(#prefix__clip0_53_29082)" stroke="#000" stroke-width="20" stroke-linecap="round"><path d="M844.63 1012.87h141.62M827.45 803.95l-27.11-16.78-29.02-17.97-36.82-22.79"/><path d="M802.81 799.069a29.91 29.91 0 11-31.49-29.87l29 18a29.701 29.701 0 012.49 11.87z" fill="#000"/><path d="M1067.45 746.41l-36.82 22.79-29.02 17.97-27.11 16.78"/><path d="M999.14 799.069c0 5.848 1.71 11.568 4.93 16.452a29.947 29.947 0 0013.17 11.027 29.898 29.898 0 0017.06 1.964 29.883 29.883 0 0015.33-7.744 29.875 29.875 0 007.48-32.043 29.859 29.859 0 00-10.31-13.732 29.918 29.918 0 00-16.17-5.794l-29 18a29.701 29.701 0 00-2.49 11.87z" fill="#000"/></g><defs><clipPath id="prefix__clip0_53_29082"><path fill="#fff" d="M0 0h1500v1500H0z"/></clipPath></defs>
      <g clip-path="url(#prefix__clip0_53_26381)"><path d="M782.161 900.399a109.43 109.43 0 10.015-218.86 109.43 109.43 0 00-.015 218.86z" fill="#3A3A3A"/><path d="M686.995 740.005l34.151-44.094 126.928 188.178L788 903 686.995 740.005zM743.336 695.507l16.58-11.184 114.06 169.1-16.58 11.184z" fill="#fff" fill-opacity=".7"/><path d="M1079.07 895.077a109.42 109.42 0 0073.49-28.343 109.413 109.413 0 0035.42-70.355 109.405 109.405 0 00-21-75.915 109.438 109.438 0 00-144.16-28.68 109.435 109.435 0 00-42.666 140.649 109.423 109.423 0 0098.916 62.644z" fill="#3A3A3A"/><path d="M983.905 734.682l34.155-44.094 126.92 188.178-60.07 18.911-101.005-162.995zM1040.25 690.184L1056.83 679l114.06 169.1-16.58 11.184z" fill="#fff" fill-opacity=".7"/><path d="M1077.58 899.4c25.32-.01 49.85-8.799 69.41-24.869a109.412 109.412 0 0037.88-63.261 109.452 109.452 0 00-10.85-72.932 109.435 109.435 0 00-128.31-53.068 109.433 109.433 0 00-77.071 115.495 109.427 109.427 0 0031.571 66.635 109.447 109.447 0 0077.37 32v0zM782.161 899.399a109.43 109.43 0 10.015-218.86 109.43 109.43 0 00-.015 218.86zM671 790.5l-294-96.359M891.578 790h76.58" stroke="#000" stroke-width="20" stroke-miterlimit="10"/></g><defs><clipPath id="prefix__clip0_53_26381"><path fill="#fff" d="M0 0h1500v1500H0z"/></clipPath></defs>
      <g clip-path="url(#prefix__clip0_53_25644)"><path d="M854.36 572.592c26.698 5.591 89.208 15.825 113.675-4.549l37.015-89.771 58.51-109.598 51.83-71.708s27.11-23.586-86.97-38.648c-114.071-15.063-170.054-25.713-170.054-25.713s-185.227-21.021-318.27 89.004C407.053 431.633 359.545 587.162 359.545 587.162s-23.042 149.5-11.179 211.287c0 0-10.755-150.239 138.794-274.279l10.378 3.162 96.814-44.404 93.997 3.593 112.83 44.07 32.177 30.882a43.208 43.208 0 0021.004 11.119z" fill="#4AEEB9"/><path d="M734.5 244.999c-65.599 65.6-81 186.667-80.501 239L617 480.5 571 498l-78 27c-100.4 76-139.5 198.667-146.5 250.5l-11-72 16.5-99 36-94c25.166-50 96.4-161.801 180-209.001 83.6-47.2 145.833-57.333 166.5-56.5z" fill="#001647" fill-opacity=".2"/><path d="M359.937 865.087s-98.853-257.118 132.341-500.526C701.099 144.722 1047 259.727 1111.97 284.073a8.365 8.365 0 013.19 2.166 8.41 8.41 0 011.83 3.382c.33 1.258.36 2.577.08 3.848a8.182 8.182 0 01-1.69 3.457c-89.04 108.116-130.609 228.338-140.84 261.126a22 22 0 01-4.551 8.032 21.826 21.826 0 01-7.454 5.429c-17.926 7.942-59.84 21.109-111.962 1.678-7.062-3.641-10.241-5.677-15.479-10.467-24.839-26.919-183.88-146.59-341.931-30.552M839.381 566.594s-16.989-206.18 59.948-329.198M932.165 573.065s2.953-85 57.03-179.432M746.268 503.826s-13.544-77.051 5.211-143.867M587.363 290.497s-21.764 52.356-1.61 128.612M912.07 312.738s7.567-33.449 33.317-62.912M467.245 549.853s-11.802-18.139-13.388-55.171" stroke="#000" stroke-width="20" stroke-miterlimit="10" stroke-linecap="round"/></g><defs><clipPath id="prefix__clip0_53_25644"><path fill="#fff" d="M0 0h1500v1500H0z"/></clipPath></defs>
      
    </g>
    </svg>