<svg
      xmlns="http://www.w3.org/2000/svg"
      preserveAspectRatio="xMidYMin meet"
      fill="none"
      viewBox="0 0 1500 1500"
    >
      <g>
      <path fill="url(#prefix__paint0_linear_53_30461)" d="M0 0h1500v1500H0z"/><defs><linearGradient id="prefix__paint0_linear_53_30461" x1="0" y1="0" x2="1500" y2="1533.5" gradientUnits="userSpaceOnUse"><stop stop-color="#EEB0FC"/><stop offset="1" stop-color="#AF55F5"/></linearGradient></defs>
      <g clip-path="url(#prefix__clip0_53_28367)"><path d="M1263 1508H289.33l3.73-74.49 18.17-107.35L355 1203l59.5-84s47.3-14.19 111.98-42.32c64.68-28.13 216.02-34.18 216.02-34.18s178.5-2.98 331.66 56.61C1227.32 1158.7 1263 1508 1263 1508z" fill="#53B6F9"/><path d="M1063.08 1519.81l-15.64-29.46-33.36 1.19c-.59.02-1.18-.14-1.68-.46s-.9-.77-1.14-1.31c-.24-.55-.32-1.15-.22-1.73.1-.59.37-1.13.78-1.56l23.19-24-11.17-31.18a2.95 2.95 0 01-.08-1.74c.15-.58.46-1.09.9-1.49.44-.4.99-.66 1.58-.74.59-.09 1.18 0 1.72.26l29.7 14.51 26.27-20.56c1.92-1.5 5.13.36 4.8 2.78l-4.67 33 27.41 18.48c.49.34.87.81 1.09 1.36.23.56.28 1.16.15 1.74a2.97 2.97 0 01-.84 1.53c-.43.42-.97.7-1.56.8l-32.59 5.92-9.17 32.07c-.17.57-.5 1.07-.96 1.45-.46.38-1.01.61-1.6.67-.59.06-1.19-.05-1.71-.33-.53-.27-.96-.7-1.24-1.22l.04.02zM799.713 1339.42l-5.125-32.96-31.908-9.8a3.036 3.036 0 01-1.436-.99 3.004 3.004 0 01-.287-3.32c.286-.52.719-.94 1.245-1.21l29.773-15.08-.338-33.12c-.004-.59.168-1.18.494-1.67a2.977 2.977 0 013.072-1.3c.583.11 1.12.4 1.542.81l23.307 23.44 31.556-10.82c2.305-.78 4.729 2.03 3.624 4.2l-15.224 29.65 19.843 26.44a3 3 0 01.157 3.34c-.308.51-.761.92-1.301 1.17-.54.25-1.142.33-1.731.24l-32.73-5.08-19.171 27.29c-.347.48-.828.85-1.383 1.06-.555.21-1.159.25-1.736.11a3.05 3.05 0 01-1.505-.87 3.008 3.008 0 01-.769-1.56l.031.03zM591.394 1520.56l20.786-26.09-14.388-30.12a2.998 2.998 0 01.505-3.29c.4-.44.921-.75 1.497-.89a3.029 3.029 0 011.738.09l31.254 11.7 24.145-22.67c.434-.4.978-.67 1.564-.76.586-.1 1.187-.02 1.727.23.54.24.995.64 1.307 1.15.312.5.468 1.09.446 1.68l-1.47 33.03 29.327 15.89c2.141 1.17 1.714 4.85-.637 5.51l-32.127 8.87-6.024 32.51a2.986 2.986 0 01-.814 1.54c-.419.43-.954.72-1.538.83a3.04 3.04 0 01-1.739-.16 3.056 3.056 0 01-1.351-1.11l-18.419-27.53-33.067 4.37a3.069 3.069 0 01-1.713-.3 3.008 3.008 0 01-1.256-1.21 2.967 2.967 0 01-.378-1.69 3.04 3.04 0 01.628-1.63l-.003.05zM316.722 1462.45l7.427-31.02-21.812-14.39c-.385-.26-.66-.66-.792-1.14-.131-.49-.114-1.04.052-1.59.165-.55.471-1.07.877-1.5.407-.43.897-.74 1.408-.9l28.79-8.74 11.268-30.36a3.75 3.75 0 01.972-1.44c.431-.4.935-.68 1.447-.8.513-.11 1.012-.07 1.434.13.421.2.747.55.936 1.01l10.263 25.4 28.716-4.54c2.097-.33 3.035 2.65 1.403 4.45l-22.362 24.55 6.479 27.56c.114.49.075 1.05-.11 1.6a3.836 3.836 0 01-.93 1.48c-.421.41-.92.71-1.435.84-.514.14-1.02.12-1.453-.07l-24.106-10.2-24.663 21.71c-.442.38-.95.64-1.461.73-.511.1-1.002.03-1.411-.19a1.927 1.927 0 01-.886-1.05c-.169-.47-.192-1.01-.064-1.56l.013.03zM441.887 1167.38l21.606-22.91-11.468-20.81c-.199-.37-.237-.81-.11-1.27.128-.46.416-.92.827-1.31s.928-.7 1.484-.89c.557-.2 1.128-.26 1.643-.19l28.801 4.31 24.545-20.81c.441-.37.977-.65 1.539-.81.563-.16 1.127-.19 1.622-.08.494.11.897.35 1.156.69.26.34.365.76.302 1.21l-3.785 25.35 26.669 7.79c1.947.57 1.275 3.43-1.003 4.28l-31.118 11.48-8.067 25.62c-.149.46-.457.92-.885 1.3s-.956.68-1.519.86c-.562.17-1.132.22-1.638.13-.505-.1-.923-.32-1.201-.65l-15.479-18.24-31.686 8.19c-.563.14-1.12.15-1.602.02s-.866-.38-1.105-.73c-.238-.35-.32-.78-.235-1.24.085-.45.333-.92.713-1.32l-.006.03zM1106.95 1238.63l12.04-23.84-16.11-29.23c-.28-.52-.45-1.09-.47-1.65-.03-.55.09-1.06.33-1.45.24-.4.6-.67 1.03-.78.43-.11.9-.05 1.37.16l26.32 12.49 15.22-20.45c.27-.36.66-.59 1.1-.66.44-.06.92.04 1.39.3.46.26.88.66 1.2 1.15.33.49.55 1.06.62 1.62l4.18 31.28 25.49 16.39c1.87 1.2 2.13 4.67.4 5.2l-23.69 7 .54 30.58c0 .55-.13 1.05-.39 1.43-.26.39-.63.64-1.07.72-.44.09-.92.01-1.39-.23-.46-.24-.89-.63-1.23-1.12l-18.84-26.94-25.15 2.68c-.44.04-.93-.08-1.38-.36-.46-.28-.87-.69-1.18-1.2-.31-.5-.51-1.07-.57-1.62-.06-.56.02-1.09.23-1.52l.01.05z" fill="#fff"/><path d="M500.001 1213.5c-101.2 100-117.833 249-113.5 311l-99.501-13c-1.6-110.8 39-247.5 59.5-302L386 1157l15.5-20.5L468 1094c149.6-59.6 294-54.83 347.5-45-63 13.17-214.299 64.5-315.499 164.5z" fill="#001647" fill-opacity=".2"/><path d="M289.5 1512.5c-6-101.5 31-323.03 140.5-398 158.5-108.51 616.5-87 706.5 26 64.91 81.5 99.5 222.5 132.5 371M1084.5 1337c12.33 37 29.5 110.3 43.5 175.5m-646.5 0c.333-32.83 7.7-107.6 20.5-157" stroke="#000" stroke-width="20" stroke-linecap="round"/></g><defs><clipPath id="prefix__clip0_53_28367"><path fill="#fff" d="M0 0h1500v1500H0z"/></clipPath></defs>
      <g clip-path="url(#prefix__clip0_299_662)"><path d="M775 1185c231.41 0 419-168.12 419-375.5 0-207.383-187.59-375.5-419-375.5-231.407 0-419 168.117-419 375.5 0 207.38 187.593 375.5 419 375.5z" fill="#ABF"/><path d="M457.5 796c7.6 194 131.833 327.5 193 370l-130-55.5L438 1034l-57.5-89.5-27-106 11-104L394 662l45-82.5 83.5-69.5 109-54.182 28.5-1C569.452 513.314 451.119 633.132 457.5 796z" fill="#001647" fill-opacity=".2"/><path d="M775 1185c231.41 0 419-168.12 419-375.5 0-207.383-187.59-375.5-419-375.5-231.407 0-419 168.117-419 375.5 0 207.38 187.593 375.5 419 375.5z" stroke="#000" stroke-width="20"/></g><defs><clipPath id="prefix__clip0_299_662"><path fill="#fff" d="M0 0h1500v1500H0z"/></clipPath></defs>
      <g clip-path="url(#prefix__clip0_53_29449)"><path d="M844.63 1012.87h141.62" stroke="#000" stroke-width="20" stroke-linecap="round"/><path d="M764.05 841.24c31.336 0 56.74-25.404 56.74-56.74 0-31.337-25.404-56.74-56.74-56.74-31.337 0-56.74 25.403-56.74 56.74 0 31.336 25.403 56.74 56.74 56.74zM1048.19 841.24c31.34 0 56.74-25.404 56.74-56.74 0-31.337-25.4-56.74-56.74-56.74-31.34 0-56.74 25.403-56.74 56.74 0 31.336 25.4 56.74 56.74 56.74z" fill="#fff" stroke="#000" stroke-width="20" stroke-miterlimit="10"/><path d="M764.05 770.5c7.18 0 13-5.82 13-13s-5.82-13-13-13-13 5.82-13 13 5.82 13 13 13zM1048.19 770.5c7.18 0 13-5.82 13-13s-5.82-13-13-13-13 5.82-13 13 5.82 13 13 13z" fill="#000"/></g><defs><clipPath id="prefix__clip0_53_29449"><path fill="#fff" d="M0 0h1500v1500H0z"/></clipPath></defs>
      <g clip-path="url(#a)"><path fill="#ABF" d="M1086 1007c0 43.08-75.66 78-169 78-93.336 0-169-34.89-169-78s75.664-98 169-98c93.34 0 169 54.922 169 98Z"/><path fill="#9E6740" d="m1076 1151.93 33.18-23.07 12.54-9.38 33.85 19.09 5.99 15.71 2.2-9.48 20.83-34.8s27.61 27.46 73.03 22.98c45.43-4.48 40.73-17.59 40.73-17.59l13.65 63.17s1.86 93.04-75.43 95.36c-77.3 2.33-121.92-47.19-121.92-47.19l-38.65-74.8Z"/><path fill="#72411F" d="M1297.3 1111.76c1.48-11.32-21.62-23.69-51.61-27.63-29.99-3.94-55.51 2.05-57 13.37-1.48 11.33 21.62 23.7 51.61 27.64 29.99 3.93 55.51-2.05 57-13.38Z"/><path fill="#3A3A3A" d="M920.5 1012s63.443 3.62 86 33c22.56 29.38 37.64 41.69 37.64 41.69l14.47 21.31s34.8-8.44 36.39-20.51l-44.45-47.01-37.86-25.09-48.2-13.21-27.507-2.18-16.483 12Z"/><path fill="#FFBF44" d="m1058 1108.21 38.93-24.21 27.07 34.76-49.9 34.24-16.1-44.79Z"/><path stroke="#000" stroke-linecap="round" stroke-miterlimit="10" stroke-width="20" d="M1160.1 1152.41c2.87-27.52 29.89-55.03 29.89-55.03 15.81-18.64 43.4-18.64 43.4-18.64 17.6-.4 31.12 2.57 41.23 6.52a50.061 50.061 0 0 1 19.09 13.48 49.885 49.885 0 0 1 10.87 20.65c41.73 161.5-85.23 154.57-85.23 154.57-116.7-7.45-119.06-81.11-158.15-161.35-39.08-80.24-127.2-98.26-127.2-98.26l24.865-8.35s63.965 3.57 119.235 57.48c24 23.42 36.87 61.5 69.09 70.78 4.83 1.39 10.27 2.53 16.42 3.32"/><path fill="#001647" fill-opacity=".2" d="M1182.42 1151.2c-8.08 7.43-17.96 3.09-21.89 0l2.95-9.29 10.1-13 13.89-23.03c7.29 4.08 19.7 13 14.99 15.97-5.89 3.71-9.94 20.06-20.04 29.35Z"/><path fill="#001647" fill-opacity=".2" d="M1070.57 1097c2.57 1.5 4.15 2.56 5.04 3.22-1.06-1.17-2.61-3.49-2.61-6.72 0-3.83 2.16-1.29 4.36 2 39.18 58.54 60.44 152.32 140.93 149.51 68.01-2.38 82-26.73 87.63-41.57 2.11 27.86-33.66 76.22-108.41 71.17-74.75-5.05-95.44-77.71-118.86-120.18l-5.65-26.27-15.5-22.28 1.5-3.38h4.5l7.07-5.5ZM1243.44 1128.16c-26.6-2.08-46.15-20.43-52.61-29.34l1.27-4.83 37.45-11.61 37.53 2.23 33.73 22.53c-5.62 5.45-30.77 23.11-57.37 21.02Z"/><path fill="#120701" fill-opacity=".2" d="M954 1008.5c60.4 12.8 104.83 61 119.5 83.5l-10.5 16-6.5-16-69-56-33.5-27.5Z"/><path stroke="#000" stroke-linecap="round" stroke-miterlimit="10" stroke-width="20" d="M1061 1108s20.72-6.16 30-24M1084 1145s25.15-8.2 35-27M827.5 1005s57.16 25.28 115-4.5c33.57-22.61 73-21.1 73-21.1M1299.01 1110.23c-1.53 13.97-28.09 26.64-58.12 23.37-30.03-3.27-53.14-21.27-50.61-35.21"/></g><defs><clipPath id="a"><path fill="#fff" d="M0 0h1500v1500H0z"/></clipPath></defs>
      <g clip-path="url(#prefix__clip0_53_25330)"><path d="M452.064 482.151c-104.889 112.873-101.3 246.773-101.3 246.773-.418 14.067 14.974 20.397 14.974 20.397l128.995-56.526 35.639-18.862 22.432 26.917c19.108 7.81 57.922 23.728 60.315 24.924 2.392 1.196 62.807 13.791 92.715 19.939 40.543-1.828 141.267-12.861 219.826-42.37 78.56-29.51 139.07-28.579 159.51-24.425 20.77 5.815 72.58 18.044 113.65 20.437 41.08 2.393 26.42-33.896 13.96-52.339l-23.93-13.958-46.35-19.421-43.06-91.459s-14.26-48.053-134.689-124.169c-120.43-76.117-240.911-57.175-240.911-57.175s-166.888 28.443-271.776 141.317z" fill="#53B6F9"/><path d="M539.057 669.816c-90.931 33.368-140.28 60.355-165.592 77.034a14.877 14.877 0 01-21.267-5.398 14.877 14.877 0 01-1.743-7.931c4.167-68.221 30.198-205.29 154.526-300.249 153.121-116.981 298.086-91.968 311.046-89.416.758.15 1.506.289 2.273.419 20.009 3.579 261.46 51.203 326.18 276.153" stroke="#000" stroke-width="20" stroke-miterlimit="10"/><path d="M538.667 671.046c.23-.788.634-1.409 1.312-1.871 13.787-9.381 183.305-117.499 585.401-53.422 0 0 48.7 9.6 90.07 32.062a30.695 30.695 0 0114.53 17.606 30.714 30.714 0 01-1.62 22.769 30.738 30.738 0 01-16.88 15.365 30.744 30.744 0 01-22.83-.52c-33.33-14.266-83.32-29.41-137.41-32.5-42.02-2.403-134.701 36.887-203.629 55.998A416.341 416.341 0 01676.515 737.3c-69.469-10.096-148.504-29.738-137.848-66.254z" stroke="#000" stroke-width="20" stroke-miterlimit="10"/><path d="M837.919 527.819c10.204-20.716 21.478-41.205 33.821-61.467 32.555 28.361 62.041 59.587 88.038 93.233a726.38 726.38 0 0147.242 7.193c-38.626-59.081-90.292-115.277-154.195-164.771-32.006 50.312-58.066 103.674-77.735 159.169a729.529 729.529 0 01161.895-3.939c-17.795-21.523-37.085-41.955-57.748-61.166a762.702 762.702 0 00-17.622 31.257 769.25 769.25 0 00-23.696.491z" fill="url(#prefix__paint0_linear_53_25330)"/><path d="M351.5 745.997c1.5-26 11-95.4 37-165 8.167-23.833 47.8-89.7 141-162.5S734 339.83 778 345.997c-204 104-266.667 267-272.5 335.501L398 731.997l-46.5 14zM747.5 579.497c-137.6 22.4-202.667 67-218 86.5l63-22.5 100-33 187.5-20 261 23.5-4-14.5c-49.5-17-217.5-48-389.5-20z" fill="#001647" fill-opacity=".2"/></g><defs><linearGradient id="prefix__paint0_linear_53_25330" x1="952.995" y1="446" x2="894.621" y2="617.577" gradientUnits="userSpaceOnUse"><stop stop-color="#fff"/><stop offset="1" stop-color="#fff"/></linearGradient><clipPath id="prefix__clip0_53_25330"><path fill="#fff" d="M0 0h1500v1500H0z"/></clipPath></defs>
      
    </g>
    </svg>