<svg
      xmlns="http://www.w3.org/2000/svg"
      preserveAspectRatio="xMidYMin meet"
      fill="none"
      viewBox="0 0 1500 1500"
    >
      <g>
      <path fill="url(#prefix__paint0_linear_53_30459)" d="M0 0h1500v1500H0z"/><defs><linearGradient id="prefix__paint0_linear_53_30459" x1="0" y1="0" x2="1500" y2="1500" gradientUnits="userSpaceOnUse"><stop stop-color="#FFCB9F"/><stop offset="1" stop-color="#FF7F11"/></linearGradient></defs>
      <g clip-path="url(#prefix__clip0_53_27489)"><path d="M460.5 1094.5c-138.4 66.4-174 309.33-174.5 422.5h983.5c-12.5-72.17-53.2-244.1-116-354.5-78.5-138-520-151-693-68z" fill="#99C4CB"/><path d="M814.5 1339c-132.8-90.8-222.333-220.83-250.5-274.5 220.8-38.8 400.333-4.17 462.5 18-27.2 103.6-152.667 214.17-212 256.5z" fill="#ABF"/><path d="M884 1393l153 107.5H884l-134-99-121-113-68-76.5-87.5-118 16.5-4 31.5-13 39.5-12.5 95 136.5 159.5 139L923 1237.5l52.5-51.5 56.5-105 29 11.5 33 17 2.5 14-37 81.5-71 92.5L884 1393z" fill="#fff"/><path d="M499.998 1213.5c-101.2 100-117.834 249-113.5 311l-99.502-13c-1.6-110.8 39-247.5 59.5-302l39.501-52.5 15.5-20.5 66.5-42.5c149.6-59.6 294-54.83 347.5-45-39.584 8.27-114.025 31.61-188.997 72.62a710.622 710.622 0 00-19 10.78c-24.668 14.51-49.078 30.97-72 49.47L690 1351.5 880 1500l8 21.5c-127.8-59.4-298.795-240.83-366.942-328-5.822 5.19-15.516 14.52-21.06 20z" fill="#001647" fill-opacity=".2"/><path d="M289.5 1512.5c-6-101.5 31-323.03 140.5-398 158.5-108.51 616.5-87 706.5 26 64.91 81.5 99.5 222.5 132.5 371M1084.5 1337c12.33 37 29.5 110.3 43.5 175.5m-646.5 0c.333-32.83 7.7-107.6 20.5-157" stroke="#000" stroke-width="20" stroke-linecap="round"/><path d="M813.56 1341.57S967.5 1242.5 1026.5 1083m-212.94 258.57C725.5 1270 627 1177.5 563 1060m250.56 281.57C866.706 1384.05 991.7 1478 1066.5 1514m-589-421.5c47.333 82.17 199 281.5 427 421.5m-25-121.76s174.01-131.44 217.5-283.74" stroke="#000" stroke-width="20" stroke-miterlimit="10"/></g><defs><clipPath id="prefix__clip0_53_27489"><path fill="#fff" d="M0 0h1500v1500H0z"/></clipPath></defs>
      <g clip-path="url(#prefix__clip0_299_662)"><path d="M775 1185c231.41 0 419-168.12 419-375.5 0-207.383-187.59-375.5-419-375.5-231.407 0-419 168.117-419 375.5 0 207.38 187.593 375.5 419 375.5z" fill="#ABF"/><path d="M457.5 796c7.6 194 131.833 327.5 193 370l-130-55.5L438 1034l-57.5-89.5-27-106 11-104L394 662l45-82.5 83.5-69.5 109-54.182 28.5-1C569.452 513.314 451.119 633.132 457.5 796z" fill="#001647" fill-opacity=".2"/><path d="M775 1185c231.41 0 419-168.12 419-375.5 0-207.383-187.59-375.5-419-375.5-231.407 0-419 168.117-419 375.5 0 207.38 187.593 375.5 419 375.5z" stroke="#000" stroke-width="20"/></g><defs><clipPath id="prefix__clip0_299_662"><path fill="#fff" d="M0 0h1500v1500H0z"/></clipPath></defs>
      <g clip-path="url(#prefix__clip0_53_29369)" stroke="#000" stroke-width="20" stroke-miterlimit="10"><path d="M729.63 808.821l88.08-16a7.737 7.737 0 006.23-6.4 7.757 7.757 0 00-.73-4.64 7.674 7.674 0 00-3.27-3.35l-82.39-43.72M1087 808.821l-87.999-16a7.71 7.71 0 01-6.23-6.4 7.784 7.784 0 01.72-4.63 7.65 7.65 0 013.28-3.36l82.389-43.72" stroke-linecap="round"/><path d="M1000 1001.64c0 35-39.4 63.36-88 63.36s-88-28.36-88-63.36a47.358 47.358 0 014.59-20.231c6.41-13.7 21-19 33.42-12.86 14.2 7.07 31.42 11.21 50 11.21s35.79-4.14 50-11.21c12.4-6.18 27-.84 33.42 12.86a47.337 47.337 0 014.57 20.231z" fill="#fff"/></g><defs><clipPath id="prefix__clip0_53_29369"><path fill="#fff" d="M0 0h1500v1500H0z"/></clipPath></defs>
      <g clip-path="url(#prefix__clip0_53_26787)"><path d="M367.752 776.001s-3.28 28.45-1 45.76c2.44 18.17 1-1 1-1l33.42-7 66.7-6.4 126.25-16-16.45-38.56-209.92 23.2z" fill="#CCD0DA"/><path d="M606.318 716.472c95.222-8.873 410.972-33.645 575.062 10.575 1.66.448 2.89 1.625 3.3 3.297 4.9 19.994 29.97 149.958-140.21 173.418-28.09 3.88-56.602-5.94-75.622-27-10.05-11.11-24.47-21-44-21-21.81 0-38.66 12.64-50.2 25.56a87.103 87.103 0 01-68.66 29c-69-2.89-188.31-28-221.92-162.37a25.404 25.404 0 0122.25-31.48z" fill="#F56CDB" stroke="#000" stroke-width="20" stroke-miterlimit="10"/><path d="M656 708.999l89-7 116.798 190.464L827 907.999l-45 6-126-205zM766.638 704.27h23.144L891 865l-14 11-110.362-171.73zM1076.5 715h18l82 115-11 16-89-131zM961.076 699.264L1053 705l102.75 149.657L1130.5 881l-43.61 17.205-125.814-198.941z" fill="#fff" fill-opacity=".9"/><path d="M606.318 716.472c95.222-8.873 410.972-33.645 575.062 10.575 1.66.448 2.89 1.625 3.3 3.297 4.9 19.994 29.97 149.958-140.21 173.418-28.09 3.88-56.602-5.94-75.622-27-10.05-11.11-24.47-21-44-21-21.81 0-38.66 12.64-50.2 25.56a87.103 87.103 0 01-68.66 29c-69-2.89-188.31-28-221.92-162.37a25.404 25.404 0 0122.25-31.48zM584.08 748.012L356 777.042M598.32 795L356 822" stroke="#000" stroke-width="20" stroke-miterlimit="10"/></g><defs><clipPath id="prefix__clip0_53_26787"><path fill="#fff" d="M0 0h1500v1500H0z"/></clipPath></defs>
      <g clip-path="url(#prefix__clip0_53_25108)"><path d="M661.719 466.274s.681-50.314 11.212-50.049c10.53.266 30.241-4.165 30.241-4.165l31.002 15.989 25.638-5.424 28.99-24.747 27.071-1.791 27.883 14.121 15.446 18.681 23.411.145 50.96-13.954 24.276 23.68-19.232 52.574-44.507-21.369-17.617-6.041-23.175-7.036-28.05-1.943-32.388-.112-55.638 3.68-50.45 8.949-25.073-1.188z" fill="#97A5DE"/><path d="M718.506 479.214s19.322 40.453 64.014 34.31c44.692-6.143 83.522-32.583 83.522-32.583l10.406-17.065-81.463-14.775-84.096 14.041s-8.664 11.898 7.617 16.072z" fill="#7985B4"/><path d="M662.843 469.488s-13.534-58.554 30.087-60.287c15.493-.614 25.434 4.992 32.226 12.21 13.894 14.755 29.392 7.707 38.346-2.386 11.842-13.391 27.482-26.021 44.854-27.17 20.226-1.338 34.215 14.393 42.889 29.474 6.094 10.621 21.799 13.651 33.204 6.683 11.953-7.315 28.35-12.9 48.081-8.683 42.964 9.245 6.064 69.091 6.064 69.091" stroke="#000" stroke-width="18.1" stroke-miterlimit="10" stroke-linecap="round"/><path d="M630.048 507.636s25.276-45.068 51.452-39.634c40.502 8.395 74.399 69.733 74.399 69.733M800.818 537.27s38.761-65.501 93.251-67.301c54.49-1.801 48.429 57.93 48.429 57.93M682 468s137.209-40.275 226.409 2.982M736.796 506.5s35.103 14.655 86.489 1.675" stroke="#000" stroke-width="20" stroke-miterlimit="10" stroke-linecap="round"/><path d="M633.444 684.097l-56.674-35.609c65 69.011 27.083 111.342 0 123.88-78.641 22.469-92.284-37.113-89.275-69.713l17.554-48.65-31.597 30.092c-28.755 20.898-89.474 43.033-102.314-35.609-12.839-78.642 62.86-79.243 102.314-69.713l-24.073-12.539c-31.764-22.235-79.644-75.932-17.052-112.845 62.592-36.913 93.286 29.758 100.809 67.708l11.034 17.051v-17.051c10.866-47.646 47.044-127.893 104.821-67.708s-1.337 102.982-38.117 116.857h64.197c18.557-.501 54.066 11.937 47.646 65.702-6.419 53.764-62.19 54.5-89.273 48.147z" fill="#53B6F9"/><path d="M550.448 546.877s-14.555-56.172 21.065-90.929c54.577-53.343 138.093 26.682 88.27 84.53-15.206 17.674-33.763 19.239-75.381 37.294M509.964 634.445s-19.921 54.587-68.831 63.876c-75.01 14.253-102.093-101.13-28.668-121.804 22.449-6.309 39.752 1.766 84.409 9.74M591.735 593.431s49.632-40.665 95.563-21.346c70.346 29.581 29.089 137.622-43.594 114.221-22.198-7.152-34.435-18.186-67.206-49.582M567.741 646.231s48.308 26.602 43.594 76.154c-7.232 75.973-122.666 68.801-122.024-7.513.2-23.312 2.477-33.413 32.559-70.216M492.721 571.754s-60.816-1.816-80.517-47.526c-30.223-70.065 74.428-116.979 110.579-49.773 11.034 20.533 9.028 31.346 10.924 76.675" stroke="#000" stroke-width="20" stroke-miterlimit="10"/><path d="M542.815 652.773a57.176 57.176 0 10-.003-114.352 57.176 57.176 0 00.003 114.352z" fill="#FFBF44" stroke="#000" stroke-width="20" stroke-miterlimit="10"/><path d="M585 497c8-34.8 36-45.833 49-47-10.5-3.333-31.9-10-33.5-10-1.6 0-20.667 6.667-30 10L549 491l-10.5 45c.167-7.167.1-23.6-1.5-32-1.6-8.4-8.667-23.833-12-30.5L508.5 455l-26-10-24 5-37 9.5c-3.833 16.667-11.4 50.4-11 52 .4 1.6 23.833 40 35.5 59L379 593c-6.333 15.5-14.6 54.2 3 85 17.6 30.8 76.667 15.167 104 3.5 2 6.5 7.6 27.3 14 58.5s35.334 34.667 49 32.5c-2.833-2.667-9.3-16.7-12.5-51.5-3.2-34.8 7-55.167 12.5-61v-8.5c-10.166-2.333-30.899-15.6-32.499-50-1.6-34.4 24-51 37-55l39.499 19c-6-8.333-16-33.7-8-68.5z" fill="#001647" fill-opacity=".2"/></g><defs><clipPath id="prefix__clip0_53_25108"><path fill="#fff" d="M0 0h1500v1500H0z"/></clipPath></defs>
      
    </g>
    </svg>