<svg
      xmlns="http://www.w3.org/2000/svg"
      preserveAspectRatio="xMidYMin meet"
      fill="none"
      viewBox="0 0 1500 1500"
    >
      <g>
      <path fill="url(#prefix__paint0_linear_53_30463)" d="M0 0h1500v1500H0z"/><defs><linearGradient id="prefix__paint0_linear_53_30463" x1="1500" y1="1500" x2="0" y2="0" gradientUnits="userSpaceOnUse"><stop stop-color="#FF5A5A"/><stop offset="1" stop-color="#FFBDBD"/></linearGradient></defs>
      <g clip-path="url(#a)"> <path fill="#fff" d="M1263 1505H288.3l10.8-105.6 40-155.8 35.9-75.1 44.5-48.5 46.8-17.9 3.3-40 40 38 77.8 44.2 83.8 32L787 1185l98-11 109.9-41.4 49.7-33.3 46.3 6.2 36.5 27.1 34 41.3 36.7 86.3 28.6 82.3L1263 1505Z"/> <path fill="#000" d="M693 1500h-19.8l-8.2-245.3 19.8-.7 8.2 246Zm105 0a29.5 29.5 0 0 0-57 0h23a9.3 9.3 0 0 1 5.2-1.9h.4c2 0 4 .7 5.6 1.9h23Zm106 0a29.5 29.5 0 0 0-57 0h23a9.3 9.3 0 0 1 5.2-1.9h.4c2 0 4 .7 5.6 1.9h23Z"/> <path stroke="#000" stroke-miterlimit="10" stroke-width="20" d="M765.7 1439.8a19.5 19.5 0 1 0 0-39 19.5 19.5 0 0 0 0 39Zm106 0a19.5 19.5 0 1 0 0-39 19.5 19.5 0 0 0 0 39Zm-109.8-87.3a19.5 19.5 0 1 0 0-39 19.5 19.5 0 0 0 0 39Zm106 0a19.5 19.5 0 1 0 0-39 19.5 19.5 0 0 0 0 39Z"/> <path stroke="#000" stroke-linecap="round" stroke-width="20" d="M289.5 1512.5c-6-101.5 31-323 140.5-398 158.5-108.5 616.5-87 706.5 26 65 81.5 99.5 222.5 132.5 371M1084.5 1337c12.3 37 29.5 110.3 43.5 175.5m-646.5 0c.3-32.8 7.7-107.6 20.5-157"/> <path stroke="#000" stroke-miterlimit="10" stroke-width="20" d="M472.7 1069.5s-4.8 7.5-7.7 21.8a99.8 99.8 0 0 0 49.6 107.9c41.8 23.7 178.5 88.8 373.1 56.5 39-6.5 148.1-31.8 186.1-123.6a32 32 0 0 0 1.7-5.3c1.6-7.5 4.6-27-.8-54.9"/> <path fill="#fff" d="m467.6 1110.5 7.4-39 62.5-15.5 72-5.5 53-8h147l104.5 8 107 8.1 53.6 19-3.8 40.8-21.3 55-90.7 68.1-76.5 24.3-77.8 2.7-60.7-2.7-58.8 2.7-143.7-46.2-68.6-65.1-5.1-46.7Z"/> <path stroke="#000" stroke-width="20" d="M535 1214c-83.6-40.4-76.5-113.2-62.5-144.5 266-49.2 513.5-20.2 604 .5 22 122.8-114.2 176.5-193 192-.3 0-33.7 6.5-77.5 8a472.5 472.5 0 0 1-75.4-3 549.7 549.7 0 0 1-195.6-53Z"/> <path fill="#001647" fill-opacity=".2" d="M488 1226.5c-89.6 98.8-104.7 230.8-101 284.5h-98c2.3-44.8 14.5-159.8 44.5-261 30-101.2 96.8-141.8 126.5-149.5l15-26h42l56.5-15.5 124.5-10h121c-150.4 32.8-264 112.7-302 148.5l56.5 29 95 23.5 127 20c-27.2 13.2-89.3 14.5-117 13.5l4 227.5H652l-7-227.5c-80.8-6-138.3-40.5-157-57Z"/> </g> <defs> <clipPath id="a"> <path fill="#fff" d="M0 0h1500v1500H0z"/> </clipPath> </defs>
      <g clip-path="url(#prefix__clip0_299_662)"><path d="M775 1185c231.41 0 419-168.12 419-375.5 0-207.383-187.59-375.5-419-375.5-231.407 0-419 168.117-419 375.5 0 207.38 187.593 375.5 419 375.5z" fill="#ABF"/><path d="M457.5 796c7.6 194 131.833 327.5 193 370l-130-55.5L438 1034l-57.5-89.5-27-106 11-104L394 662l45-82.5 83.5-69.5 109-54.182 28.5-1C569.452 513.314 451.119 633.132 457.5 796z" fill="#001647" fill-opacity=".2"/><path d="M775 1185c231.41 0 419-168.12 419-375.5 0-207.383-187.59-375.5-419-375.5-231.407 0-419 168.117-419 375.5 0 207.38 187.593 375.5 419 375.5z" stroke="#000" stroke-width="20"/></g><defs><clipPath id="prefix__clip0_299_662"><path fill="#fff" d="M0 0h1500v1500H0z"/></clipPath></defs>
      <g clip-path="url(#prefix__clip0_53_29261)"><path d="M761.369 722.219a74.743 74.743 0 00-74.67 74.67 10.671 10.671 0 0021.33 0 53.344 53.344 0 0191.31-38.188 53.341 53.341 0 0115.36 38.188 31.999 31.999 0 01-54.627 22.627 32 32 0 01-9.373-22.627c-.041-1.427.2-2.847.71-4.18a10.68 10.68 0 012.3-3.58 10.659 10.659 0 0117.6 3.58 10.64 10.64 0 01.72 4.18 10.67 10.67 0 1021.34 0 32.003 32.003 0 00-9.372-22.628 32.003 32.003 0 00-45.255 0 32.004 32.004 0 00-9.373 22.628 53.333 53.333 0 0053.33 53.33 53.33 53.33 0 0053.33-53.33 74.738 74.738 0 00-74.66-74.67zM1048.37 722.219a74.743 74.743 0 00-74.671 74.67 10.671 10.671 0 0021.33 0 53.354 53.354 0 013.848-20.636 53.313 53.313 0 0111.513-17.552 53.28 53.28 0 0117.39-11.752 53.352 53.352 0 0141.17 0 53.385 53.385 0 0117.39 11.752 53.414 53.414 0 0111.51 17.552 53.227 53.227 0 013.85 20.636 32 32 0 01-32 32 32 32 0 01-32-32c-.06-1.789.34-3.563 1.15-5.159.81-1.596 2-2.963 3.48-3.974a10.664 10.664 0 0110.19-1.017c1.32.557 2.51 1.376 3.51 2.407a10.68 10.68 0 012.28 3.593c.52 1.331.76 2.752.72 4.18 0 2.83 1.12 5.544 3.12 7.545a10.697 10.697 0 007.55 3.125c2.83 0 5.54-1.124 7.54-3.125a10.637 10.637 0 003.13-7.545 31.999 31.999 0 00-32-32 31.999 31.999 0 00-32 32 53.337 53.337 0 0015.62 37.71 53.336 53.336 0 0037.71 15.62c14.14 0 27.71-5.619 37.71-15.62a53.337 53.337 0 0015.62-37.71 74.736 74.736 0 00-21.89-52.776 74.731 74.731 0 00-52.77-21.894v-.03z" fill="#000"/><path d="M912.5 1068.5c32.585 0 59-26.42 59-59 0-32.585-26.415-59-59-59s-59 26.415-59 59c0 32.58 26.415 59 59 59z" fill="#fff" stroke="#000" stroke-width="20" stroke-miterlimit="10"/></g><defs><clipPath id="prefix__clip0_53_29261"><path fill="#fff" d="M0 0h1500v1500H0z"/></clipPath></defs>
      <g clip-path="url(#prefix__clip0_53_27310)"><path opacity=".5" d="M650.33 766.53s-2.59-63.6 77.41-64.6c80-1 105.45 2.24 105.45 2.24l29.55 17.76 13 59.31s1 26 0 31.36c-1 5.36-25.33 41.83-25.33 41.83s-41.37 47.5-90.52 42-92.15-45.5-92.15-45.5-21-51.25-21.51-51.62c-.51-.37 4.1-32.78 4.1-32.78zM971.33 725.75s24.62-35.82 106.52-28.32c81.9 7.5 88.3 28.32 88.3 28.32s3.59-3.82 6.59 23.18 6 40 6 40-3 17-4 21-2.41 19-5.21 24-9 15.59-11.4 18.29c-2.4 2.7-11.94 13.84-20.67 20.77-8.73 6.93-28.37 15.28-30 16.61-1.63 1.33-10 8.21-17.32 7.26-7.32-.95-16.4 1.13-32.4.07-16-1.06-56.74-16.431-58.738-20.431-2-4-19-8.5-24-24.5s-7.902-19.909-9.582-23.489c-1.68-3.58-8.68-9.82-8.68-26.2s5-29.38 6-35.38c1-6 8.59-41.18 8.59-41.18z" fill="#FF6247"/><path d="M681.5 720.5S687 709.23 739 703l97 169.89s-18 18.68-56.07 18.1L681.5 720.5zM756.58 700.12s-4.78 3.73 13-7.12L856 850.55s5.57 6.48-9 9.45l-90.42-159.88zM991.001 719.382s-1-21.754 50.999-28.382l97 180.731s-18 19.872-56.07 19.255l-91.929-171.604zM1059.58 700.12s-4.78 3.73 13.05-7.12L1159 850.55s5.57 6.48-9 9.45l-90.42-159.88z" fill="#fff" fill-opacity=".3"/><path d="M722.89 697.43h79.71a72.65 72.65 0 0172.65 72.65v13.85a112.499 112.499 0 01-112.5 112.5 112.499 112.499 0 01-112.5-112.5v-13.86a72.653 72.653 0 0172.64-72.64v0zM1028.89 697.43h79.71c19.27 0 37.75 7.654 51.37 21.278a72.63 72.63 0 0121.28 51.372v13.85a112.5 112.5 0 11-225 0v-13.86a72.653 72.653 0 0172.64-72.64zM874.6 792.43a68.918 68.918 0 0181.64 0M866 736h97M650.24 755.43l-266.5-60.5" stroke="#000" stroke-width="20" stroke-miterlimit="10"/></g><defs><clipPath id="prefix__clip0_53_27310"><path fill="#fff" d="M0 0h1500v1500H0z"/></clipPath></defs>
      <g clip-path="url(#prefix__clip0_53_26063)"><path d="M287 736.5l-39.5 81 191-81 274-72c238.8-42.4 461.17-41.33 542.5-35.5-16-51.6-119.33-99.83-169-117.5-22-66.4-108.83-139.33-149.5-167.5-22-17.17-102.9-49.8-250.5-43-147.6 6.8-242.83 118.5-272 173.5L364 607l7 57.5-84 72z" fill="#FFBF44"/><path d="M377 578l-18 89 129-51.5 183-48L817 544l269-26-30.5-69.5h-149l-169.5 14L547 513l-170 65z" fill="#FF6247"/><path d="M349.24 858.211s-6.78-49.71-1-75l-100.87 48.86 9.37 17.54 92.5 8.6z" fill="#F8C25A"/><path d="M1148.39 620.5s27.32 40.85 36.76 78.82l55.14-40.91 18.47-26.85-110.37-11.06z" fill="#CF9B37"/><path d="M349 779c-5.2 29.2-2.167 62.167 0 75h-74.5L239 835l29.5-66 93-101 18-94c44-170.4 180.667-242.667 243.5-257.5-111.2 93.2-124.667 232.833-117.5 291l6 8C465.9 664.7 436.667 720.667 428 743l-79 36z" fill="#001647" fill-opacity=".2"/><path d="M359.62 860.22c-9.834-.48-19.66-1.11-29.48-1.89-27.42-2.21-54.33-5.66-75-11a22.127 22.127 0 01-16.578-22.57 22.12 22.12 0 012.768-9.63c18.35-33 58.45-95.81 121.61-147.4 0 0-3.81-281.9 284.44-360.63 288.25-78.73 426.62 163.81 443.16 212.06 0 0 101.59 21.94 165 96.62a22.132 22.132 0 01.92 27.62c-9.88 13.1-31.84 33.23-80.61 57.16M362.92 667.72s227.3-133.33 727.6-148.57" stroke="#000" stroke-width="20" stroke-miterlimit="10"/><path d="M240.51 835s36.71-44.83 249-110.11a2300.643 2300.643 0 01590.73-100.1c63.88-2.36 127.62-1.87 180.53 4.2M376.39 578.38S676 422.5 1052.12 451.79" stroke="#000" stroke-width="20" stroke-miterlimit="10"/></g><defs><clipPath id="prefix__clip0_53_26063"><path fill="#fff" d="M0 0h1500v1500H0z"/></clipPath></defs>
      
    </g>
    </svg>