<svg
      xmlns="http://www.w3.org/2000/svg"
      preserveAspectRatio="xMidYMin meet"
      fill="none"
      viewBox="0 0 1500 1500"
    >
      <g>
      <path fill="url(#prefix__paint0_linear_53_30463)" d="M0 0h1500v1500H0z"/><defs><linearGradient id="prefix__paint0_linear_53_30463" x1="1500" y1="1500" x2="0" y2="0" gradientUnits="userSpaceOnUse"><stop stop-color="#FF5A5A"/><stop offset="1" stop-color="#FFBDBD"/></linearGradient></defs>
      <g clip-path="url(#prefix__prefix__clip0_53_27930)"><path d="M460.5 1094.5c-138.4 66.4-174 309.33-174.5 422.5h983.5c-12.5-72.17-53.2-244.1-116-354.5-78.5-138-520-151-693-68z" fill="#ABF"/><path d="M1122 1500H482.719s14.6-102.81 14.89-104.16c.16-.75 5.35-20.38 9.88-37.48 3.54-13.39 2.68-25.22 2.68-25.22l-3-41.2-13.59-80.17s-35.41-62.15-46.49-85.15c-1.163-2.27-3.185-8.61-4.06-11-.24-.75-.3-1.21-.16-1.35a56.197 56.197 0 017.23-4.17c4.75-2.53 11.27-5.85 17.94-9.21 14-7 29.51-13.16 29.51-13.16l.82.49L526 1080.5l85-22.5 22 68.5 27.999 47.96 5.58 5.39s-7.079 1.65 0 .09c.09.44.55 2.47 1.49 5.71l.18.63c.12.43.26.88.4 1.35 0 .12.07.23.11.35-6.759 1.13.19.64.29 1a.565.565 0 000 .13c3.006 9.48 15.138 18.57 20.31 27.07 13 21.59 36.75 47.51 81.14 73.38 1.44.84 2.904 1.68 4.39 2.52.468.49.811 1.08 1 1.73 1.46 3.51 3.32 11 4.65 11.2 0 0 40.23 23 40.26 23l.61.06c4.465.53 8.98.44 13.42-.26 32.63-5.36 34.42-46.34 49.23-59.56.21-.18.41-.37.61-.56 14.4-13.07 19.65-26.22 19.65-26.22l4-23.61 3.93-23 12.251-45.36 11.5-88 54.5 10.5 42 12.5 16.74 2.21.5-.32 1.59 1 .35.23 17.57 11.28 8.36 5.37-.11 4.47v.74l-6.93 171.5-.49 19.75 11.26 39.08 17.84 61.93L1122 1500z" fill="#4AEEB9"/><path d="M958.16 1333.32l12.2-23.4 30.36 34h17l-52-58.93-30.72 58.93h57.64l-20.12-22.55-6.24 12-8.12-.05z" fill="#fff"/><path d="M951 1066.5v18c-4 170.5-79.99 232.42-107.82 259.53a20.288 20.288 0 01-25.25 2.51C614 1227.5 601 1076 601 1076l-1.5-15" stroke="#fff" stroke-width="20" stroke-miterlimit="10" stroke-linecap="round"/><path d="M531.14 1371.41c-9.12 44.92-14.91 82.08-18.23 116.94L511.8 1500h-20.05c0-.31 0-.63.05-1l1.2-12.59c3.39-35.59 9.28-73.41 18.54-119 .08-.37.15-.75.22-1.13 9.84-49.47 15-145.34-55.75-245.36a399.48 399.48 0 00-4.19-5.81 9.682 9.682 0 01-.67-1 9.994 9.994 0 01-.944-7.28 10.03 10.03 0 014.284-5.97 9.98 9.98 0 017.203-1.42 9.958 9.958 0 016.237 3.87l1.16 1.59.5.69c1.35 1.85 2.66 3.7 3.95 5.55 74.31 106.23 68.17 208.23 57.6 260.27zM1111.83 1500h-20.25l-10.86-48.68c-7.71-34.55-15.38-65.35-23.46-94.17-16.34-58.81-20.97-119.9-17.63-180.85 1.88-33.39 6.34-57.43 8.73-68.45.89-4.09 1.49-6.38 1.58-6.7.18-.69.45-1.36.78-2a.139.139 0 010-.09 10.02 10.02 0 015.24-4.65c2.25-.87 4.74-.89 7-.07 2.27.82 4.16 2.44 5.34 4.54a10.01 10.01 0 011.04 6.93l-.12.5c0 .06-.39 1.48-1 4.12-.32 1.42-.7 3.2-1.13 5.32-.56 2.79-1.19 6.16-1.86 10.07a467.162 467.162 0 00-5.74 52.24c-3.02 56.71.89 113.54 15.51 168.41.47 1.76.96 3.53 1.45 5.3 6.65 23.69 13 48.7 19.34 76 0 .18.08.36.13.54 1.41 6.12 2.83 12.35 4.25 18.7l8.19 36.68c.06.3.13.6.19.89l3 13.29c.17.7.26 1.41.28 2.13zm-352.245 56.96c-10.237-9.39-16.514-22.76-18.832-40.12l-11.826-88.7c-2.465-18.59-.014-32.76 7.352-42.51 7.366-9.75 19.686-14.63 36.96-14.63 17.372 0 31.05 4.88 41.035 14.63 9.985 9.75 16.217 23.92 18.695 42.51l11.827 88.7c2.331 17.5-.378 30.91-8.13 40.23-7.751 9.32-20.004 13.97-36.76 13.94-16.609 0-30.049-4.69-40.321-14.05zm42.012-26.06a15.126 15.126 0 001.481-9.45l-12.919-96.92c-.756-5.63-1.985-9.95-3.665-12.92-1.681-2.97-4.527-4.45-8.487-4.45-3.959 0-6.302 1.48-7.173 4.45-.872 2.97-.862 7.29-.105 12.92l12.918 96.92c.406 3.44 1.75 6.71 3.886 9.45a9.315 9.315 0 003.274 2.9 9.228 9.228 0 004.236 1.1c1.37.04 2.724-.31 3.896-1.02a7.117 7.117 0 002.711-2.98h-.053zm100.239 35.65a47.845 47.845 0 01-18.779-13.13 39.217 39.217 0 01-9.211-21.01l-2.805-21h37.685l.515 3.88a57.03 57.03 0 003.896 15.55 8.915 8.915 0 003.46 4.26 8.96 8.96 0 005.3 1.45c4.274 0 7.121-1.18 8.56-3.55 1.438-2.37 1.848-5.9 1.218-10.63l-5.252-39.31a16.96 16.96 0 01-7.352 8.4 24.849 24.849 0 01-13.065 3.15c-10.671 0-19.221-2.13-25.649-6.4-6.427-4.27-11.325-10.58-14.693-18.92-3.403-8.4-6.018-19.45-7.846-33.14-2.801-20.88-.98-36.96 5.462-48.23 6.441-11.27 18.789-16.91 37.044-16.92 13.401 0 24.296 2.29 32.685 6.86a44.999 44.999 0 0119.199 20.57c4.426 9.1 7.611 21.01 9.558 35.71l7.069 53.04c2.702 20.27 3.609 36.23 2.72 47.88-.89 11.65-4.804 20.57-11.743 26.75-6.952 6.17-18.278 9.26-33.977 9.25a64.43 64.43 0 01-23.999-4.51zm19.704-120.57l-3.267-24.46c-1.267-9.6-5.181-14.4-11.742-14.4-4.117 0-6.53 1.64-7.237 4.91-.707 3.28-.57 8.58.41 15.89l2.101 16c1.4 10.67 5.156 16 11.269 16 6.904 0 9.726-4.65 8.466-13.94z" fill="#fff"/><path d="M485.5 1201.5c-85.6 92.8-105.334 241.67-104.5 304.5h-92.5l5-77.5 16.5-87 34-110 53-89.5 66.5-44 70-31 80-9.5 12 18c-11.839 5.79 10.003 11.89-2 18.86-41.935 24.34-81.989 53.15-100 67.14 31.5 56 43 144.5 23 243.5-9.101 45.05-11.5 101.17-10.5 125.5l-57-24.5c6-21.17 19.6-82.4 26-158 6.4-75.6-10.334-129.17-19.5-146.5z" fill="#001647" fill-opacity=".2"/><path d="M931.5 1061v10c0 163.5-67.83 223.11-97.03 257.41a7.965 7.965 0 01-5.183 2.75 7.977 7.977 0 01-5.667-1.52C783 1299.29 645 1217 620 1071l-2-13.5" stroke="#000" stroke-width="20" stroke-miterlimit="10" stroke-linecap="round"/><path d="M511.761 1366.3c0 .32 0 .66-.05 1-.22 2.89-14 61.77-19 132.69h-20v-.69a924.796 924.796 0 0119.51-134.6c.57-2.4 2.009-4.51 4.04-5.92a10.042 10.042 0 017.96-1.51c1.105.24 2.181.61 3.21 1.08 3 1.4 4.44 3.71 4.33 7.95zM1132 1500h-20.2c-.55-2.72-1.65-8.14-3.2-15.47-.06-.29-.13-.59-.19-.89-2.91-13.76-7.3-33.87-12.44-55.38 0-.18-.09-.36-.13-.54-6.23-26-13.56-54-20.69-75.23a9.999 9.999 0 016.19-12.63h.1l.39-.11c2.48-.72 5.13-.46 7.42.74a9.996 9.996 0 014.85 5.66c18.25 54.24 36.92 148 37.71 151.94.12.63.19 1.27.19 1.91z" fill="#000"/><path d="M443.891 1118.21s87.82 94.17 57 252.68m583.569-22.07c-32.76-108.75-9.81-228.49-9.81-228.49l4.35-17.83" stroke="#000" stroke-width="20" stroke-miterlimit="10" stroke-linecap="round"/><path d="M289.5 1512.5c-6-101.5 31-323.03 140.5-398 158.5-108.51 616.5-87 706.5 26 64.91 81.5 99.5 222.5 132.5 371" stroke="#000" stroke-width="20" stroke-linecap="round"/></g><defs><clipPath id="prefix__prefix__clip0_53_27930"><path fill="#fff" d="M0 0h1500v1500H0z"/></clipPath></defs>
      <g clip-path="url(#prefix__clip0_299_662)"><path d="M775 1185c231.41 0 419-168.12 419-375.5 0-207.383-187.59-375.5-419-375.5-231.407 0-419 168.117-419 375.5 0 207.38 187.593 375.5 419 375.5z" fill="#ABF"/><path d="M457.5 796c7.6 194 131.833 327.5 193 370l-130-55.5L438 1034l-57.5-89.5-27-106 11-104L394 662l45-82.5 83.5-69.5 109-54.182 28.5-1C569.452 513.314 451.119 633.132 457.5 796z" fill="#001647" fill-opacity=".2"/><path d="M775 1185c231.41 0 419-168.12 419-375.5 0-207.383-187.59-375.5-419-375.5-231.407 0-419 168.117-419 375.5 0 207.38 187.593 375.5 419 375.5z" stroke="#000" stroke-width="20"/></g><defs><clipPath id="prefix__clip0_299_662"><path fill="#fff" d="M0 0h1500v1500H0z"/></clipPath></defs>
      <g clip-path="url(#prefix__clip0_53_29421)"><path d="M914.5 1067.2a53.704 53.704 0 0049.612-33.15 53.7 53.7 0 00-39.136-73.217 53.701 53.701 0 00-55.126 22.834 53.696 53.696 0 00-4.962 50.383 53.569 53.569 0 0011.64 17.42 53.673 53.673 0 0017.422 11.64 53.676 53.676 0 0020.55 4.09z" fill="#fff" stroke="#000" stroke-width="20" stroke-miterlimit="10" stroke-linecap="round"/><path d="M764.05 841.24c31.336 0 56.74-25.404 56.74-56.74 0-31.337-25.404-56.74-56.74-56.74-31.337 0-56.74 25.403-56.74 56.74 0 31.336 25.403 56.74 56.74 56.74zM1048.19 841.24c31.34 0 56.74-25.404 56.74-56.74 0-31.337-25.4-56.74-56.74-56.74-31.34 0-56.74 25.403-56.74 56.74 0 31.336 25.4 56.74 56.74 56.74z" fill="#fff" stroke="#000" stroke-width="20" stroke-miterlimit="10"/><path d="M764.05 797.5c7.18 0 13-5.82 13-13s-5.82-13-13-13-13 5.82-13 13 5.82 13 13 13zM1048.19 797.5c7.18 0 13-5.82 13-13s-5.82-13-13-13-13 5.82-13 13 5.82 13 13 13z" fill="#000"/></g><defs><clipPath id="prefix__clip0_53_29421"><path fill="#fff" d="M0 0h1500v1500H0z"/></clipPath></defs>
      <g clip-path="url(#prefix__clip0_53_26664)"><path d="M1086 1014c0 39.21-75.66 71-169 71-93.336 0-169-31.76-169-71 0-39.241 75.664-101 169-101 93.34 0 169 61.788 169 101z" fill="#ABF"/><path d="M797.83 990.76s-2.26-46.71 35.63-47.76l12.4-.07 3.7 53.67-51.73-5.84zM796.078 999.77h59.58l3.78 54.84-37.21-2.24-13.26-25.18-12.89-27.42z" fill="gold"/><path d="M845.859 942.93l34.49 8.62 26.47-3.52 5.08 50.29-56.24 1.45-9.8-56.84z" fill="gold"/><path d="M910.488 947.172h68.54l.03 51.15h-67.16l-1.41-51.15zM983.589 944.871l17.001 2.3 24.03 9.66 9.05 28.5-.91 12.99h-53.701l4.53-53.45z" fill="gold"/><path d="M849.559 996.602l62.34 1.72 7.38 54.048-59.84 2.24-9.88-58.008zM918.461 999.77h64.2l-8.03 54.84-55.35-2.24-.82-52.6z" fill="gold"/><path d="M975.289 994.512l63.171 5.26-6.4 30.408-34.761 26.48-17.86-2.05-4.15-60.098z" fill="gold"/><path d="M797.489 985.841c-1.87-27.17 21.28-47.59 48.37-42.91 20 3.45 43.93 5.16 69 5.16s48.63-1.84 68.06-5.36c26.511-4.82 52.631 15.6 54.521 42.87l1.08 15.709c2 29.44-20.17 53.3-49.601 53.3h-133.4c-29.43 0-54.94-23.86-57-53.3l-1.03-15.469zM798.352 998.309h234.408M912.512 954.172l6.78 98.198M845.031 947.172l14.26 105.198M979.031 947.172l.26 105.198" stroke="#000" stroke-width="20" stroke-miterlimit="10"/><path d="M830.5 966l2 14m63-13l1 14m-59 37l2 14m60-15l1 14m61-65v15m0 36v18m56-59v6m0 35v7" stroke="#fff" stroke-width="8" stroke-linecap="round"/></g><defs><clipPath id="prefix__clip0_53_26664"><path fill="#fff" d="M0 0h1500v1500H0z"/></clipPath></defs>
      <g clip-path="url(#prefix__clip0_53_24997)"><path d="M113.53 587.151l160.3-15.6 52.77 40.8-9.28 14.82-65.85 11.93 13.32 57.37 77.08-1.75-56 61.6-161.77 10.19 25.9-86.36-42.38-84.43 5.91-8.57z" fill="#D9D9D9"/><path d="M1137.73 604.329c-10.35-15.47-29.13-36.46-35.73-44l-7-13 99.51-3.79 5.42 59.89c-16.09 6.73-51.85 16.37-62.2.9zM529.12 606.559l-271.71 26.44 6 61.71 271.72-26.44-6.01-61.71z" fill="#9E6740"/><path d="M523.15 607.141l-260.08 25.31a9.687 9.687 0 00-8.71 10.55l4.42 45.41a9.689 9.689 0 0010.58 8.7l260.09-25.3M1197.52 542l-115.46 11.24M1126.18 614.269l77.63-7.55" stroke="#000" stroke-width="20" stroke-miterlimit="10"/><path d="M339.41 625l-57-46.88a27.288 27.288 0 00-20-6.09l-145.33 14.16a10.44 10.44 0 00-8.28 15.14l38.36 75 109.41-10.65M345.73 690l-46.88 57a27.339 27.339 0 01-18.47 9.84L135.07 771a10.44 10.44 0 01-11-13.27l23.17-81L256.6 666" stroke="#000" stroke-width="20" stroke-miterlimit="10"/><path d="M516.69 587.17a160.853 160.853 0 0112.7 106.1l-1.66 7.44" stroke="#000" stroke-width="20" stroke-miterlimit="10" stroke-linecap="round"/><path d="M1207 573.5l-25-61 130 49.5-114 83 9-71.5z" fill="#D9D9D9"/><path d="M107 591l40 91.5-25.5 86.5 164-9.5 53-68 187-15v-71l-187 20-62.5-49h-27L107 591zM1128 592l10 14h59.5l-3.5 37 107-75.5-10.5-7.5c-14.33 9-46.4 28.9-60 36.5-13.6 7.6-21.67 5.167-24 3l-6-14-72.5 6.5z" fill="#001647" fill-opacity=".2"/><path d="M1180.28 505.869l25.8 68.24c.07.206.09.426.05.64l-12.48 68.09c-.04.233-.02.473.07.691a1.191 1.191 0 001.78.509l116-79.45c.17-.121.31-.286.4-.478.09-.193.13-.406.11-.617a1.144 1.144 0 00-.22-.587c-.12-.173-.29-.31-.48-.398l-129.46-58.16a1.19 1.19 0 00-.67-.06c-.23.045-.44.154-.6.314-.17.161-.29.365-.34.59-.05.224-.04.459.04.676z" stroke="#000" stroke-width="20" stroke-miterlimit="10"/><path d="M661.719 466.274s.681-50.314 11.211-50.049c10.531.266 30.241-4.165 30.241-4.165l31.003 15.989 25.638-5.424 28.99-24.747 27.071-1.791 27.883 14.121 15.446 18.681 23.411.145 50.96-13.954 24.276 23.68-19.232 52.574-44.507-21.369-17.618-6.041-23.175-7.036-28.049-1.943-32.388-.112-55.638 3.68-50.45 8.949-25.073-1.188z" fill="#97A5DE"/><path d="M718.506 479.214s19.322 40.453 64.014 34.31c44.692-6.143 83.522-32.583 83.522-32.583l10.406-17.065-81.463-14.775-84.096 14.041s-8.664 11.898 7.617 16.072z" fill="#7985B4"/><path d="M662.843 469.488s-13.534-58.554 30.087-60.287c15.493-.614 25.434 4.992 32.226 12.21 13.894 14.755 29.392 7.707 38.346-2.386 11.842-13.391 27.482-26.021 44.854-27.17 20.226-1.338 34.215 14.393 42.889 29.474 6.094 10.621 21.799 13.651 33.204 6.683 11.953-7.315 28.35-12.9 48.081-8.683 42.964 9.245 6.064 69.091 6.064 69.091" stroke="#000" stroke-width="18.1" stroke-miterlimit="10" stroke-linecap="round"/><path d="M630.048 507.636s25.276-45.068 51.452-39.634c40.502 8.395 74.399 69.733 74.399 69.733M800.818 537.27s38.761-65.501 93.251-67.301c54.49-1.801 48.429 57.93 48.429 57.93M682 468s137.209-40.275 226.408 2.982M736.796 506.5s35.103 14.655 86.489 1.675" stroke="#000" stroke-width="20" stroke-miterlimit="10" stroke-linecap="round"/></g><defs><clipPath id="prefix__clip0_53_24997"><path fill="#fff" d="M0 0h1500v1500H0z"/></clipPath></defs>
      
    </g>
    </svg>