<svg
      xmlns="http://www.w3.org/2000/svg"
      preserveAspectRatio="xMidYMin meet"
      fill="none"
      viewBox="0 0 1500 1500"
    >
      <g>
      <path fill="url(#prefix__paint0_linear_53_30459)" d="M0 0h1500v1500H0z"/><defs><linearGradient id="prefix__paint0_linear_53_30459" x1="0" y1="0" x2="1500" y2="1500" gradientUnits="userSpaceOnUse"><stop stop-color="#FFCB9F"/><stop offset="1" stop-color="#FF7F11"/></linearGradient></defs>
      <g clip-path="url(#prefix__clip0_53_28824)"><path d="M303.47 1380.79L330.5 1246l47.5-86.5s65.91-62.22 111.5-78c0 0 195-61.5 392-27.5 31-4 38.96 8.51 79 8 42.72-.55 27.45 23 59 17 22.5 0 44.5 12.5 44.5 12.5l57 34.5 33.87 53.21 39.13 77.98 38.22 130.85-124.13 38.32 14.41 79.47-643.66 1.15 7.27-73.62-182.64-52.57z" fill="#53B6F9"/><path d="M542 1070s112 131 246.95 172.85C823.46 1245.8 903.5 1166 903.5 1166l81.5-83.5 10.5-12.5-69.5-13.5-84.5-8.5-142-3.5-118 15.5-39.5 10zM288.69 1505.57l13.36-115.94 184.06 50.77-2.67 65.17H288.69zM1107 1426l15.5 78.85h142.41l-32.7-116.79L1107 1426z" fill="#ABF"/><path d="M967.16 1314.33l12.2-23.4 30.36 34h17l-52-58.93-30.72 58.93h57.64l-20.12-22.55-6.24 12-8.12-.05zM499 1087l77.305 97.3 84.195 58.17L745 1278s32.003 19.71 59 11.5 67.044-39.16 67.044-39.16L950.5 1191l101-105-53-15.5-68.5 74-58.956 39.8-81.711 58.17-121.378-58.17L626 1153.5l-81-78-46 11.5zM298.52 1405.61l3.98-25.61 185 53.97-7.92 45.74-111.55-27.23-69.51-18.51v-28.36zM1106.06 1447.46l-3.3-22.14L1234 1387.5l12.13 43.43-98.27 24.27-37.66 11.93-4.14-19.67z" fill="#fff"/><path d="M499.998 1213.5c-101.2 100-117.834 249-113.5 311l-99.502-13c-1.6-110.8 39-247.5 59.5-302l39.501-52.5 15.5-20.5 66.5-42.5c149.6-59.6 294-54.83 347.5-45-63 13.17-214.299 64.5-315.499 164.5z" fill="#001647" fill-opacity=".2"/><path d="M486.11 1481.21l-193.26-44.42M1113.35 1472.52l133.13-39.83M492.5 1084.5s89.937 150.47 286.741 208.82a40.82 40.82 0 0024.553-.43c34.883-11.74 151.706-86.39 241.706-205.39" stroke="#000" stroke-width="20" stroke-miterlimit="10"/><path d="M990.5 1072.5c-28.8 37.6-73.707 80.68-87.81 92.27-48.15 38.34-82.19 60.85-97 69.77a38.356 38.356 0 01-15.676 5.27 38.355 38.355 0 01-16.434-1.84c-82.55-28.02-139.29-79.2-139.29-79.2-23.597-19.92-70.59-65.97-85.79-86.77" stroke="#000" stroke-width="20" stroke-miterlimit="10"/><path d="M289.5 1512.5c-2.103-35.58 1.077-85.91 10.812-139.5M1269 1511.5c-9.61-43.23-19.35-85.82-29.93-126.5m-154.57-48c6.84 20.52 15.17 52.22 23.62 87.5m19.88 88c-6.23-29.03-13.1-59.67-19.88-88m-626.62 88c.187-18.42 2.589-50.06 6.923-83m13.577-74c-5.617 21.68-10.187 48.24-13.577 74m619.697-5l130.95-39.5m0 0c-25.78-99.05-56.56-186.72-102.57-244.5-90-113-548-134.51-706.5-26-71.116 48.69-111.652 159.2-129.688 258.5m188.111 56.5L300.312 1373" stroke="#000" stroke-width="20" stroke-linecap="round"/></g><defs><clipPath id="prefix__clip0_53_28824"><path fill="#fff" d="M0 0h1500v1500H0z"/></clipPath></defs>
      <g clip-path="url(#prefix__clip0_299_662)"><path d="M775 1185c231.41 0 419-168.12 419-375.5 0-207.383-187.59-375.5-419-375.5-231.407 0-419 168.117-419 375.5 0 207.38 187.593 375.5 419 375.5z" fill="#ABF"/><path d="M457.5 796c7.6 194 131.833 327.5 193 370l-130-55.5L438 1034l-57.5-89.5-27-106 11-104L394 662l45-82.5 83.5-69.5 109-54.182 28.5-1C569.452 513.314 451.119 633.132 457.5 796z" fill="#001647" fill-opacity=".2"/><path d="M775 1185c231.41 0 419-168.12 419-375.5 0-207.383-187.59-375.5-419-375.5-231.407 0-419 168.117-419 375.5 0 207.38 187.593 375.5 419 375.5z" stroke="#000" stroke-width="20"/></g><defs><clipPath id="prefix__clip0_299_662"><path fill="#fff" d="M0 0h1500v1500H0z"/></clipPath></defs>
      <g clip-path="url(#prefix__clip0_53_29343)" stroke="#000" stroke-width="20" stroke-miterlimit="10" stroke-linecap="round"><path d="M821.63 792.381a76.418 76.418 0 00-93.773-21.665 76.405 76.405 0 00-26.727 21.665M836.82 991.439c38.57 39.211 113.35 39.211 151.93 0M1109.25 792.381a76.451 76.451 0 00-26.73-21.665 76.39 76.39 0 00-33.52-7.745 76.425 76.425 0 00-60.25 29.41"/></g><defs><clipPath id="prefix__clip0_53_29343"><path fill="#fff" d="M0 0h1500v1500H0z"/></clipPath></defs>
      <g clip-path="url(#prefix__clip0_53_27310)"><path opacity=".5" d="M650.33 766.53s-2.59-63.6 77.41-64.6c80-1 105.45 2.24 105.45 2.24l29.55 17.76 13 59.31s1 26 0 31.36c-1 5.36-25.33 41.83-25.33 41.83s-41.37 47.5-90.52 42-92.15-45.5-92.15-45.5-21-51.25-21.51-51.62c-.51-.37 4.1-32.78 4.1-32.78zM971.33 725.75s24.62-35.82 106.52-28.32c81.9 7.5 88.3 28.32 88.3 28.32s3.59-3.82 6.59 23.18 6 40 6 40-3 17-4 21-2.41 19-5.21 24-9 15.59-11.4 18.29c-2.4 2.7-11.94 13.84-20.67 20.77-8.73 6.93-28.37 15.28-30 16.61-1.63 1.33-10 8.21-17.32 7.26-7.32-.95-16.4 1.13-32.4.07-16-1.06-56.74-16.431-58.738-20.431-2-4-19-8.5-24-24.5s-7.902-19.909-9.582-23.489c-1.68-3.58-8.68-9.82-8.68-26.2s5-29.38 6-35.38c1-6 8.59-41.18 8.59-41.18z" fill="#FF6247"/><path d="M681.5 720.5S687 709.23 739 703l97 169.89s-18 18.68-56.07 18.1L681.5 720.5zM756.58 700.12s-4.78 3.73 13-7.12L856 850.55s5.57 6.48-9 9.45l-90.42-159.88zM991.001 719.382s-1-21.754 50.999-28.382l97 180.731s-18 19.872-56.07 19.255l-91.929-171.604zM1059.58 700.12s-4.78 3.73 13.05-7.12L1159 850.55s5.57 6.48-9 9.45l-90.42-159.88z" fill="#fff" fill-opacity=".3"/><path d="M722.89 697.43h79.71a72.65 72.65 0 0172.65 72.65v13.85a112.499 112.499 0 01-112.5 112.5 112.499 112.499 0 01-112.5-112.5v-13.86a72.653 72.653 0 0172.64-72.64v0zM1028.89 697.43h79.71c19.27 0 37.75 7.654 51.37 21.278a72.63 72.63 0 0121.28 51.372v13.85a112.5 112.5 0 11-225 0v-13.86a72.653 72.653 0 0172.64-72.64zM874.6 792.43a68.918 68.918 0 0181.64 0M866 736h97M650.24 755.43l-266.5-60.5" stroke="#000" stroke-width="20" stroke-miterlimit="10"/></g><defs><clipPath id="prefix__clip0_53_27310"><path fill="#fff" d="M0 0h1500v1500H0z"/></clipPath></defs>
      <g clip-path="url(#prefix__clip0_53_26266)"><path d="M661.719 466.274s.681-50.314 11.212-50.049c10.53.266 30.241-4.165 30.241-4.165l31.002 15.989 25.638-5.424 28.99-24.747 27.071-1.791 27.883 14.121 15.446 18.681 23.411.145 50.96-13.954 24.276 23.68-19.232 52.574-44.507-21.369-17.617-6.041-23.175-7.036-28.05-1.943-32.388-.112-55.638 3.68-50.45 8.949-25.073-1.188z" fill="#97A5DE"/><path d="M718.506 479.214s19.322 40.453 64.014 34.31c44.692-6.143 83.522-32.583 83.522-32.583l10.406-17.065-81.463-14.775-84.096 14.041s-8.664 11.898 7.617 16.072z" fill="#7985B4"/><path d="M662.843 469.488s-13.534-58.554 30.087-60.287c15.493-.614 25.434 4.992 32.226 12.21 13.894 14.755 29.392 7.707 38.346-2.386 11.842-13.391 27.482-26.021 44.854-27.17 20.226-1.338 34.215 14.393 42.889 29.474 6.094 10.621 21.799 13.651 33.204 6.683 11.953-7.315 28.35-12.9 48.081-8.683 42.964 9.245 6.064 69.091 6.064 69.091" stroke="#000" stroke-width="18.1" stroke-miterlimit="10" stroke-linecap="round"/><path d="M630.048 507.636s25.276-45.068 51.452-39.634c40.502 8.395 74.399 69.733 74.399 69.733M800.818 537.27s38.761-65.501 93.251-67.301c54.49-1.801 48.429 57.93 48.429 57.93M682 468s137.209-40.275 226.409 2.982M736.796 506.5s35.103 14.655 86.489 1.675" stroke="#000" stroke-width="20" stroke-miterlimit="10" stroke-linecap="round"/><path d="M1074 522.5l-37.5-24-141-15.5L703 494.5 555.5 521 469 541.5l-39.5 21c-4.834 9.667-20.801 36.1-46.001 64.5s-17.833 54.167-11 63.5l115 6 250-6 182.5-13.5 282.501-11.5 22.5-4.5v-20.5h-6l-20-7.5c-8.67-2.833-28.1-9.3-36.5-12.5-10.5-4-16.5-5-21.5-7.5-4-2-8.67-7.5-10.5-10l-32.5-44-24-36.5z" fill="#4AEEB9"/><path d="M611 511c-60.8 66.8-86.667 149.5-92 182.5l-147.5-2c-1-5.667.4-25.7 14-60.5s52.666-68.167 70.5-80.5l63-25 92-14.5zM810.5 596.5c151-13.38 262.33-4.667 314.5 0l16 19.5c-29.17-1.833-111.2-5.3-206-4.5-94.8.8-246.167 24-310 35.5-25 9.667-73.5 25.9-67.5 13.5 7.5-15.5 95-50 253-64z" fill="#001647" fill-opacity=".2"/><path d="M814.61 561.632a4.841 4.841 0 01-.32 4.08 4.34 4.34 0 01-3.23 2.21c-.75.16-1.49.28-2.23.38-.74.1-1.46.17-2.18.21a15.73 15.73 0 01-.82 6.68 19.381 19.381 0 01-9.28 10.59 17.368 17.368 0 01-7 1.86h-.41c-2.759.092-5.5-.47-8-1.64a21.456 21.456 0 01-7-5.32c-4.24-4.78-7.21-11.64-8.91-20.58a54.564 54.564 0 01-1.17-13.47 24.65 24.65 0 012.42-9.7 15.081 15.081 0 012.44-3.39 13.972 13.972 0 013.21-2.51 15.468 15.468 0 013.32-1.37 13.758 13.758 0 013.74-.54 21.73 21.73 0 0110.52 2.12 16.803 16.803 0 014.12 2.47 9.44 9.44 0 012.56 2.82 9.287 9.287 0 011 2.4 4.672 4.672 0 01-.77 3.93 4.34 4.34 0 01-3.4 1.79 5.74 5.74 0 01-3.28-.83 7.894 7.894 0 01-2.51-2.4 13.142 13.142 0 00-1.53-.68 14.33 14.33 0 00-2.1-.6 10.832 10.832 0 00-2.39-.2 6.656 6.656 0 00-2.41.51c-1.57.76-2.65 2.29-3.24 4.57-1.013 3.44-.913 8.333.3 14.68a37.92 37.92 0 002.82 9.65 21.44 21.44 0 003.08 4.89 6.765 6.765 0 005.24 2.59 9 9 0 006.34-3.37 8.486 8.486 0 002.17-4.47H792.36a6.003 6.003 0 01-4.16-1.42 6.112 6.112 0 01-2.31-3.81 4.71 4.71 0 01.89-3.81 4.365 4.365 0 013.4-1.76h.09c.88-.05 1.73-.08 2.54-.1.81-.02 1.6 0 2.39 0 2 0 3.89 0 5.8-.11a56.274 56.274 0 006.69-.75 5.719 5.719 0 014.22.95 6.396 6.396 0 012.7 3.45zM845.249 584.568c-2.21.13-4.07.19-5.58.19-1.51 0-2.75 0-3.72-.09-.97-.09-1.73-.13-2.28-.22-.55-.09-.95-.14-1.18-.19a7.643 7.643 0 01-2.14-.72 9.013 9.013 0 01-2.57-2c-.859-.89-1.583-1.9-2.15-3-.502-.95-.95-1.928-1.34-2.93-.42-1.08-.83-2.31-1.23-3.7a74.155 74.155 0 01-1.87-7.34c-.59-2.79-1.19-5.91-1.8-9.38-.553-2.9-1.017-5.723-1.39-8.47l-1-7.35c-.28-2.15-.49-3.92-.64-5.29-.15-1.37-.23-2.12-.25-2.23a4.279 4.279 0 01.14-1.991 4.285 4.285 0 011.03-1.709 4.806 4.806 0 013.75-1.48 6.29 6.29 0 014.09 1.8 5.999 5.999 0 012 3.87c0 .06.07.63.19 1.73s.29 2.55.53 4.37c.24 1.82.53 3.92.86 6.3.33 2.38.7 4.82 1.12 7.34.51 3 1 5.75 1.46 8.21.46 2.46 1 4.66 1.47 6.6.47 1.94.91 3.31 1.26 4.42.35 1.11.62 1.94.85 2.49 1.555.089 3.115.089 4.67 0 1.85-.08 3.8-.18 5.84-.33 2.04-.15 4.08-.31 6.11-.5 2.03-.19 3.88-.4 5.58-.61a5.689 5.689 0 014.18 1.13 6.657 6.657 0 012.61 3.66 4.693 4.693 0 01-.51 4 4.389 4.389 0 01-3.26 2.05l-1 .09-2.38.26-3.37.36c-1.26.12-2.6.23-4 .31-.77.09-1.48.16-2.14.2l-1.94.15zM875.96 582.959a6.583 6.583 0 01-4.15-1.59 5.808 5.808 0 01-2.18-3.81 600.262 600.262 0 00-4.65-23.61 469.791 469.791 0 00-5.68-23.38 4.548 4.548 0 01.48-3.94 4.406 4.406 0 013.27-2c4.546-.666 9.154-.8 13.73-.4a45.291 45.291 0 0112.07 2.76 32.288 32.288 0 019.37 5.49 19.751 19.751 0 015.88 8.48c.271 1.015.475 2.047.61 3.09a12.08 12.08 0 01-.17 4 16.096 16.096 0 01-1.76 4.63 19.027 19.027 0 01-4 4.87c-4.52 4.093-11.236 7.286-20.15 9.58.31 1.73.62 3.45.95 5.15.33 1.7.61 3.39.85 5.07a4.755 4.755 0 01-.84 3.81 4.252 4.252 0 01-3.36 1.76l-.27.04zm-4.58-48c1.767 6.84 3.4 13.84 4.9 21a45.963 45.963 0 009.37-3.56 25.652 25.652 0 005-3.41 10.54 10.54 0 002.62-3.28 3.926 3.926 0 00.35-3 6.661 6.661 0 00-2.45-3.08 19.134 19.134 0 00-4.87-2.61 38.14 38.14 0 00-14.92-2.04v-.02z" fill="#000"/><path d="M1148.14 619.091s-38.14-50.32-65.28-84.09a96.571 96.571 0 00-61-35c-85.13-12.78-294.76-39.4-549.6 40.11-20.25 6.33-39.62 21.92-53.48 40-16.93 24.21-49.63 61.79-51.22 97.1a15.375 15.375 0 004.31 11.311 15.385 15.385 0 0011.16 4.689l176.16-.72" stroke="#000" stroke-width="20" stroke-miterlimit="10"/><path d="M1221.53 637.511c-105.4-53.61-631.53-25-681 46.39 17 11.1 11 8.52 54.26 8.52 57 1 115.3 5.35 232-8.52 146.08-17.37 295.53-19 390.88-17.6 17.25.26 19.33-20.95 3.86-28.79z" stroke="#000" stroke-width="20" stroke-miterlimit="10"/></g><defs><clipPath id="prefix__clip0_53_26266"><path fill="#fff" d="M0 0h1500v1500H0z"/></clipPath></defs>
      
    </g>
    </svg>