<svg
      xmlns="http://www.w3.org/2000/svg"
      preserveAspectRatio="xMidYMin meet"
      fill="none"
      viewBox="0 0 1500 1500"
    >
      <g>
      <path fill="url(#prefix__paint0_linear_53_28789)" d="M0 0h1500v1500H0z"/><defs><linearGradient id="prefix__paint0_linear_53_28789" x1="1500" y1="1500" x2="0" y2="0" gradientUnits="userSpaceOnUse"><stop stop-color="#FFD130"/><stop offset="1" stop-color="#FFEEDB"/></linearGradient></defs>
      <g clip-path="url(#prefix__clip0_53_28824)"><path d="M303.47 1380.79L330.5 1246l47.5-86.5s65.91-62.22 111.5-78c0 0 195-61.5 392-27.5 31-4 38.96 8.51 79 8 42.72-.55 27.45 23 59 17 22.5 0 44.5 12.5 44.5 12.5l57 34.5 33.87 53.21 39.13 77.98 38.22 130.85-124.13 38.32 14.41 79.47-643.66 1.15 7.27-73.62-182.64-52.57z" fill="#53B6F9"/><path d="M542 1070s112 131 246.95 172.85C823.46 1245.8 903.5 1166 903.5 1166l81.5-83.5 10.5-12.5-69.5-13.5-84.5-8.5-142-3.5-118 15.5-39.5 10zM288.69 1505.57l13.36-115.94 184.06 50.77-2.67 65.17H288.69zM1107 1426l15.5 78.85h142.41l-32.7-116.79L1107 1426z" fill="#ABF"/><path d="M967.16 1314.33l12.2-23.4 30.36 34h17l-52-58.93-30.72 58.93h57.64l-20.12-22.55-6.24 12-8.12-.05zM499 1087l77.305 97.3 84.195 58.17L745 1278s32.003 19.71 59 11.5 67.044-39.16 67.044-39.16L950.5 1191l101-105-53-15.5-68.5 74-58.956 39.8-81.711 58.17-121.378-58.17L626 1153.5l-81-78-46 11.5zM298.52 1405.61l3.98-25.61 185 53.97-7.92 45.74-111.55-27.23-69.51-18.51v-28.36zM1106.06 1447.46l-3.3-22.14L1234 1387.5l12.13 43.43-98.27 24.27-37.66 11.93-4.14-19.67z" fill="#fff"/><path d="M499.998 1213.5c-101.2 100-117.834 249-113.5 311l-99.502-13c-1.6-110.8 39-247.5 59.5-302l39.501-52.5 15.5-20.5 66.5-42.5c149.6-59.6 294-54.83 347.5-45-63 13.17-214.299 64.5-315.499 164.5z" fill="#001647" fill-opacity=".2"/><path d="M486.11 1481.21l-193.26-44.42M1113.35 1472.52l133.13-39.83M492.5 1084.5s89.937 150.47 286.741 208.82a40.82 40.82 0 0024.553-.43c34.883-11.74 151.706-86.39 241.706-205.39" stroke="#000" stroke-width="20" stroke-miterlimit="10"/><path d="M990.5 1072.5c-28.8 37.6-73.707 80.68-87.81 92.27-48.15 38.34-82.19 60.85-97 69.77a38.356 38.356 0 01-15.676 5.27 38.355 38.355 0 01-16.434-1.84c-82.55-28.02-139.29-79.2-139.29-79.2-23.597-19.92-70.59-65.97-85.79-86.77" stroke="#000" stroke-width="20" stroke-miterlimit="10"/><path d="M289.5 1512.5c-2.103-35.58 1.077-85.91 10.812-139.5M1269 1511.5c-9.61-43.23-19.35-85.82-29.93-126.5m-154.57-48c6.84 20.52 15.17 52.22 23.62 87.5m19.88 88c-6.23-29.03-13.1-59.67-19.88-88m-626.62 88c.187-18.42 2.589-50.06 6.923-83m13.577-74c-5.617 21.68-10.187 48.24-13.577 74m619.697-5l130.95-39.5m0 0c-25.78-99.05-56.56-186.72-102.57-244.5-90-113-548-134.51-706.5-26-71.116 48.69-111.652 159.2-129.688 258.5m188.111 56.5L300.312 1373" stroke="#000" stroke-width="20" stroke-linecap="round"/></g><defs><clipPath id="prefix__clip0_53_28824"><path fill="#fff" d="M0 0h1500v1500H0z"/></clipPath></defs>
      <g clip-path="url(#prefix__clip0_299_662)"><path d="M775 1185c231.41 0 419-168.12 419-375.5 0-207.383-187.59-375.5-419-375.5-231.407 0-419 168.117-419 375.5 0 207.38 187.593 375.5 419 375.5z" fill="#ABF"/><path d="M457.5 796c7.6 194 131.833 327.5 193 370l-130-55.5L438 1034l-57.5-89.5-27-106 11-104L394 662l45-82.5 83.5-69.5 109-54.182 28.5-1C569.452 513.314 451.119 633.132 457.5 796z" fill="#001647" fill-opacity=".2"/><path d="M775 1185c231.41 0 419-168.12 419-375.5 0-207.383-187.59-375.5-419-375.5-231.407 0-419 168.117-419 375.5 0 207.38 187.593 375.5 419 375.5z" stroke="#000" stroke-width="20"/></g><defs><clipPath id="prefix__clip0_299_662"><path fill="#fff" d="M0 0h1500v1500H0z"/></clipPath></defs>
      <g clip-path="url(#prefix__clip0_53_29395)" stroke="#000" stroke-width="20" stroke-miterlimit="10" stroke-linecap="round"><path d="M701.129 783a76.42 76.42 0 00120.5 0M988.75 783a76.436 76.436 0 0060.25 29.41c11.62 0 23.08-2.649 33.52-7.745A76.462 76.462 0 001109.25 783"/><path d="M914.5 1058.5c8.9 0 17.6-2.64 25.001-7.58a45.056 45.056 0 0016.574-20.2 45.004 45.004 0 00-32.796-61.355 44.995 44.995 0 00-46.195 19.134A45 45 0 00914.5 1058.5z" fill="#000"/></g><defs><clipPath id="prefix__clip0_53_29395"><path fill="#fff" d="M0 0h1500v1500H0z"/></clipPath></defs>
      <g clip-path="url(#prefix__clip0_53_27310)"><path opacity=".5" d="M650.33 766.53s-2.59-63.6 77.41-64.6c80-1 105.45 2.24 105.45 2.24l29.55 17.76 13 59.31s1 26 0 31.36c-1 5.36-25.33 41.83-25.33 41.83s-41.37 47.5-90.52 42-92.15-45.5-92.15-45.5-21-51.25-21.51-51.62c-.51-.37 4.1-32.78 4.1-32.78zM971.33 725.75s24.62-35.82 106.52-28.32c81.9 7.5 88.3 28.32 88.3 28.32s3.59-3.82 6.59 23.18 6 40 6 40-3 17-4 21-2.41 19-5.21 24-9 15.59-11.4 18.29c-2.4 2.7-11.94 13.84-20.67 20.77-8.73 6.93-28.37 15.28-30 16.61-1.63 1.33-10 8.21-17.32 7.26-7.32-.95-16.4 1.13-32.4.07-16-1.06-56.74-16.431-58.738-20.431-2-4-19-8.5-24-24.5s-7.902-19.909-9.582-23.489c-1.68-3.58-8.68-9.82-8.68-26.2s5-29.38 6-35.38c1-6 8.59-41.18 8.59-41.18z" fill="#FF6247"/><path d="M681.5 720.5S687 709.23 739 703l97 169.89s-18 18.68-56.07 18.1L681.5 720.5zM756.58 700.12s-4.78 3.73 13-7.12L856 850.55s5.57 6.48-9 9.45l-90.42-159.88zM991.001 719.382s-1-21.754 50.999-28.382l97 180.731s-18 19.872-56.07 19.255l-91.929-171.604zM1059.58 700.12s-4.78 3.73 13.05-7.12L1159 850.55s5.57 6.48-9 9.45l-90.42-159.88z" fill="#fff" fill-opacity=".3"/><path d="M722.89 697.43h79.71a72.65 72.65 0 0172.65 72.65v13.85a112.499 112.499 0 01-112.5 112.5 112.499 112.499 0 01-112.5-112.5v-13.86a72.653 72.653 0 0172.64-72.64v0zM1028.89 697.43h79.71c19.27 0 37.75 7.654 51.37 21.278a72.63 72.63 0 0121.28 51.372v13.85a112.5 112.5 0 11-225 0v-13.86a72.653 72.653 0 0172.64-72.64zM874.6 792.43a68.918 68.918 0 0181.64 0M866 736h97M650.24 755.43l-266.5-60.5" stroke="#000" stroke-width="20" stroke-miterlimit="10"/></g><defs><clipPath id="prefix__clip0_53_27310"><path fill="#fff" d="M0 0h1500v1500H0z"/></clipPath></defs>
      <g clip-path="url(#prefix__clip0_53_25075)"><path d="M358.07 724.24c-2.91 11.13-5.22 22.96-6.67 31.13a4.352 4.352 0 01-8.1 1.33 49.392 49.392 0 01-3.34-7.37c-3.4-9.62-6.2-21.84-8.84-26.76-2.64-4.92-1.51-14.46 0-22.09a151.869 151.869 0 002.43-18.36c.06-2.04-1.18-14.28 0-17.9.99-3.01 6.16-15.64 7.88-19.83a4.33 4.33 0 011.84-2.1l18.378-9.79 16.353-50.5 69-94.5 63-51.5c34.166-22.001 133.5-66.702 257.5-69.502 124-2.8 229.666 68.167 266.999 104l41.29 42.442c15.8 1.5 23.79 6.45 29.57 10.19 5.78 3.74 26.14 7.88 33.18 15.1 7.04 7.22 33.98 37.24 34.6 38.17.62.93 16.76 36.51 19.47 42.51.26.561.39 1.172.39 1.79v28.52c0 1.043-.38 2.05-1.06 2.84l-13.59 15.75c-.47.553-1.08.979-1.76 1.237a4.32 4.32 0 01-4.12-.569 4.35 4.35 0 01-1.36-1.668 339.426 339.426 0 00-21.14-38.48 16.32 16.32 0 00-5.9-5.549 16.263 16.263 0 00-7.84-2.021h-14.49L1002.8 627l-209.23 16.57h-.39l-277.24 47.09h-.23l-115.08 25.85a4.241 4.241 0 01-2.31-.11l-14.27-4.69a4.294 4.294 0 00-2.33-.11l-13.84 3.16a13.141 13.141 0 00-9.81 9.48z" fill="#99C4CB"/><path d="M546.5 566.502c-3.2 4-8.333 83.333-10.5 122.5l-103 18c-12.5 2-41.3 6.9-56.5 10.5-15.2 3.6-22.667 26.833-24.5 38l-22.5-66.5 24-51c8-35.666 46.9-123.899 138.5-191.499s191.833-74.167 230.5-69c-88.8 56.8-145.667 132.667-163 163.5 148.8-49.6 387-55.667 487.5-52.5l18.5 20.499c-13.5.5-41.7 1.2-46.5 0-4.8-1.2-166 8.833-246 14-74.167 12.833-223.3 39.5-226.5 43.5z" fill="#001647" fill-opacity=".2"/><path d="M1167 681.259l15-14.51a49.215 49.215 0 0014.3-26.901 49.21 49.21 0 00-4.3-30.159c-13.24-26.85-46.46-57.08-62.15-71.35-15.69-14.27-35.56-24.08-56.77-25.16-310.93-15.72-565.58 56.9-686 99.09-51.8 18.15-81.49 78.999-30.2 162.159" stroke="#000" stroke-width="20"/><path d="M361.58 627.682s53.84-186.8 241.47-235.29c187.63-48.49 327.34-27.08 476.25 119.61M367.76 725.401s312.51-78.77 497.45-86.9c0 0 164.52-11.68 272.65-7.57M994.41 512s62.27 71.5 82.83 118M433.65 600.449s-24.72 70.15-15.18 119.17M542.64 569.789s-15.23 78-3.89 120.53M643.55 550c12.26 57.53 10.25 57.46 22 117.12M748.51 529.762s31.14 50 55 116.5M872.32 514.391s41.57 54.35 68.2 120.72" stroke="#000" stroke-width="20"/></g><defs><clipPath id="prefix__clip0_53_25075"><path fill="#fff" d="M0 0h1500v1500H0z"/></clipPath></defs>
      
    </g>
    </svg>