<svg
      xmlns="http://www.w3.org/2000/svg"
      preserveAspectRatio="xMidYMin meet"
      fill="none"
      viewBox="0 0 1500 1500"
    >
      <g>
      <path fill="url(#prefix__paint0_linear_53_30461)" d="M0 0h1500v1500H0z"/><defs><linearGradient id="prefix__paint0_linear_53_30461" x1="0" y1="0" x2="1500" y2="1533.5" gradientUnits="userSpaceOnUse"><stop stop-color="#EEB0FC"/><stop offset="1" stop-color="#AF55F5"/></linearGradient></defs>
      <g clip-path="url(#prefix__clip0_53_28307)"><path d="M460.5 1094.5c-138.4 66.4-174 309.33-174.5 422.5h983.5c-12.5-72.17-53.2-244.1-116-354.5-78.5-138-520-151-693-68z" fill="#A760FF"/><path d="M367 1440c-17.2-1.2-22.167 49.83-22.5 75.5l47.5-4.5c-1.167-23.17-7.8-69.8-25-71zM674 1276c-29.6 1.2-47 22.83-52 33.5l4.5 14 56 10.5c14.833-5 44.8-18.8 46-34 1.5-19-17.5-25.5-54.5-24zM554.5 1131.5c-49.2-6.8-55.167 21.17-52 36-2 6.83 1.9 23.3 33.5 34.5 39.5 14 138 33.5 166.5 31 22.8-2 24.833-33.83 23-49.5-36.5-14.5-121.8-45.2-171-52zM842 1417c-38.8 30.4-22.5 74.67-9.5 93l140.5 3.5c7.167-4 20-20.9 14-56.5-7.5-44.5-96.5-78-145-40zM1114.5 1293c-46.4-6.8-12.67-111.83 10-163.5l49 71.5c-.33 33.5-12.6 98.8-59 92z" fill="#ABF"/><path d="M386 1459l-1 47.5H284c2.833-48.17 12.8-156.6 30-205 17.2-48.4 43.5-97.5 54.5-116 29.667-31.67 93.9-93.8 113.5-89 19.6 4.8 28.5 23.67 30.5 32.5l-16.5 22.5 7.5 21 9 19c-95.2 77.2-124 210.5-126.5 267.5z" fill="#001647" fill-opacity=".2"/><path d="M705.5 1163c27.2 82.4-120.333 42.67-197.5 12.5l23.5 29.5c29.333 8.33 95.4 25.7 125 28.5 37 3.5 71-12 71.5-33 .4-16.8-14.833-32-22.5-37.5zM659.5 1315.5c-19.2.4-34.667-6.5-40-10l6.5 17c6.5 2.33 27.7 7.3 60.5 8.5 32.8 1.2 37.667-26.83 36-41-12.833-6-35.4-15.5-23-5.5 15.5 12.5-16 30.5-40 31zM960.5 1463.5c-4-32.4-41.667-52.83-60-59H920c14.667 5.83 47.3 23.2 60.5 46 13.2 22.8 1.5 49.5-6 60h-22c4.333-2.17 12-14.6 8-47zM1143 1161c16 61.6-21.67 112.67-40 126.5 53.5 10.5 70.33-58.33 68.5-87L1143 1161z" fill="#001647" fill-opacity=".2"/><path d="M289.501 1512.5c-6-101.5 31-323.03 140.5-398 158.5-108.51 616.499-87 706.499 26 64.91 81.5 99.5 222.5 132.5 371M1084.5 1337c12.33 37 29.5 110.3 43.5 175.5m-646.499 0c.333-32.83 7.7-107.6 20.5-157" stroke="#000" stroke-width="20" stroke-linecap="round"/><ellipse cx="675.502" cy="1303.28" rx="53.591" ry="29" transform="rotate(-4.687 675.502 1303.28)" stroke="#000" stroke-width="20"/><path d="M515.271 1188.27c-36.061-24.71-9.368-73.42 39.746-60.07l145.257 41.58c16.768 4.8 32.505 18.71 28.297 35.64-5.969 24.01-33.117 28.75-56 27.53-67.132-3.59-121.239-19.97-157.3-44.68zM393 1490c0 27.06-10.969 49-24.5 49s-24.5-21.94-24.5-49 10.969-49 24.5-49 24.5 21.94 24.5 49zM1173 1198.09c0 35.54-15.89 101.53-57.73 93.09-54.77-11.04-11.86-107.12 7.51-159.18" stroke="#000" stroke-width="20"/><ellipse cx="906" cy="1473" rx="87" ry="71" stroke="#000" stroke-width="20"/></g><defs><clipPath id="prefix__clip0_53_28307"><path fill="#fff" d="M0 0h1500v1500H0z"/></clipPath></defs>
      <g clip-path="url(#prefix__clip0_299_662)"><path d="M775 1185c231.41 0 419-168.12 419-375.5 0-207.383-187.59-375.5-419-375.5-231.407 0-419 168.117-419 375.5 0 207.38 187.593 375.5 419 375.5z" fill="#ABF"/><path d="M457.5 796c7.6 194 131.833 327.5 193 370l-130-55.5L438 1034l-57.5-89.5-27-106 11-104L394 662l45-82.5 83.5-69.5 109-54.182 28.5-1C569.452 513.314 451.119 633.132 457.5 796z" fill="#001647" fill-opacity=".2"/><path d="M775 1185c231.41 0 419-168.12 419-375.5 0-207.383-187.59-375.5-419-375.5-231.407 0-419 168.117-419 375.5 0 207.38 187.593 375.5 419 375.5z" stroke="#000" stroke-width="20"/></g><defs><clipPath id="prefix__clip0_299_662"><path fill="#fff" d="M0 0h1500v1500H0z"/></clipPath></defs>
      <g clip-path="url(#prefix__clip0_53_29343)" stroke="#000" stroke-width="20" stroke-miterlimit="10" stroke-linecap="round"><path d="M821.63 792.381a76.418 76.418 0 00-93.773-21.665 76.405 76.405 0 00-26.727 21.665M836.82 991.439c38.57 39.211 113.35 39.211 151.93 0M1109.25 792.381a76.451 76.451 0 00-26.73-21.665 76.39 76.39 0 00-33.52-7.745 76.425 76.425 0 00-60.25 29.41"/></g><defs><clipPath id="prefix__clip0_53_29343"><path fill="#fff" d="M0 0h1500v1500H0z"/></clipPath></defs>
      <g clip-path="url(#prefix__clip0_53_26381)"><path d="M782.161 900.399a109.43 109.43 0 10.015-218.86 109.43 109.43 0 00-.015 218.86z" fill="#3A3A3A"/><path d="M686.995 740.005l34.151-44.094 126.928 188.178L788 903 686.995 740.005zM743.336 695.507l16.58-11.184 114.06 169.1-16.58 11.184z" fill="#fff" fill-opacity=".7"/><path d="M1079.07 895.077a109.42 109.42 0 0073.49-28.343 109.413 109.413 0 0035.42-70.355 109.405 109.405 0 00-21-75.915 109.438 109.438 0 00-144.16-28.68 109.435 109.435 0 00-42.666 140.649 109.423 109.423 0 0098.916 62.644z" fill="#3A3A3A"/><path d="M983.905 734.682l34.155-44.094 126.92 188.178-60.07 18.911-101.005-162.995zM1040.25 690.184L1056.83 679l114.06 169.1-16.58 11.184z" fill="#fff" fill-opacity=".7"/><path d="M1077.58 899.4c25.32-.01 49.85-8.799 69.41-24.869a109.412 109.412 0 0037.88-63.261 109.452 109.452 0 00-10.85-72.932 109.435 109.435 0 00-128.31-53.068 109.433 109.433 0 00-77.071 115.495 109.427 109.427 0 0031.571 66.635 109.447 109.447 0 0077.37 32v0zM782.161 899.399a109.43 109.43 0 10.015-218.86 109.43 109.43 0 00-.015 218.86zM671 790.5l-294-96.359M891.578 790h76.58" stroke="#000" stroke-width="20" stroke-miterlimit="10"/></g><defs><clipPath id="prefix__clip0_53_26381"><path fill="#fff" d="M0 0h1500v1500H0z"/></clipPath></defs>
      <g clip-path="url(#prefix__clip0_53_25676)"><path d="M223.27 595.001l52 78.75 90.11 65.25 204.81-96.83L768 602.841l157 1.29 223.59 29.64 74.77-102.77 37.71-90-9.46-40.31-135.5-18.88-83.5-56.12-81.201-105.94-56.649-44.66h-31.601l-35.849 61.76-24.43 25.66-43.69-69.51-17.91-21.63-49 11.79-80 56.54-67 90.65-64.671 104.42L354 521.371l-113 43.03-17.73 30.6z" fill="#3A3A3A"/><path d="M227.5 604.131s193.109-43.36 287.609-152.86c30.881-35.78 53.001-71.48 65.091-96.11 22.82-46.64 45-77.54 86.83-108.37 13.87-10.24 28.76-19.54 44-26.39a11.319 11.319 0 0114.769 5.17l29.941 51c21.5 36.64 74.25 37.3 96.65 1.2l28.26-45.53a11.38 11.38 0 013.24-3.76 11.523 11.523 0 014.54-2 11.374 11.374 0 015 .13 11.167 11.167 0 014.429 2.23c18.92 15.57 58 49.89 77.25 82.41 32.001 54 71.001 78 71.001 78s72.91 60.63 215 51.82l-4.87-29.29-21.11-13.39-94.6-9.93-66-30.13-52.53-56.88-55.281-69.58-71.92-56.7H863.2l-35.851 61.76-24.43 25.66-25.769-23.32-35.83-67.9-49 11.79-80 56.54-66.94 90.65-61.38 92.42-64.38 55-52.24 32-107.6 46-38.26 17.69 5.98 30.67z" fill="#FFBF44"/><path d="M624.5 304.499c-11 87.5-55 118-93.5 189.5-20.159 37.439-18.428 76.917-7.847 111.5 28.282-12.833 116.247-44.1 237.847-56.5 121.6-12.4 238.333.333 283 7.5l101 18.5 42.5 16-37 39c-73.83-14.167-249.4-40.2-361-31-111.6 9.2-209.5 40.834-244.5 55.5-40.4 12.401-136.833 62.834-180 86.5l-32-14.5-81.5-83-31-66.5 18.5-14.5c35.833-13.5 126.1-51.7 200.5-96.5s105.333-118.667 111.5-150c14.5-21 55.7-72.8 104.5-112s76.667-35.333 84.5-28.5c-34.833 13.834-106.7 59-115.5 129z" fill="#000" fill-opacity=".2"/><path d="M318 710.746c21.114 15.683 43.66 31.024 43.66 31.024s293.45-229.5 786.95-108c0 0 21.97-27.016 35.39-43.77M318 710.746c-33.102-24.589-72.889-60.224-94.9-117.056a23.814 23.814 0 016.9-26.77 23.605 23.605 0 018.6-4.61c62.24-18.2 231.89-78.84 297.46-214 62.22-128.23 151.55-166.86 189.64-177.89a23.209 23.209 0 0126.79 11.1l40.82 74.25a13.472 13.472 0 0018.663 5.107 13.47 13.47 0 004.947-5.107l40.69-73.9a23.192 23.192 0 0128.93-10.34c26.61 10.64 77.58 42.84 142.42 140.24 53.11 79.78 150.38 88 200.85 86.32 18.8-.62 33.8 15.91 30.9 34.45-10.4 67.474-47.06 120.427-76.71 157.46M318 710.746c58.838-47.375 242.864-154.787 480.258-165.436C1035.65 534.662 1144.06 573 1184 590" stroke="#000" stroke-width="20" stroke-miterlimit="10"/><path d="M782.577 430.606c1.081 2.502 2.197 5.091 2.941 7.698.304 1.061 1.996 8.79 2.92 13.037.19.811.601 1.546 1.183 2.113a3.96 3.96 0 002.088 1.079l5.458.853c.396.069.768.249 1.075.522.308.272.541.626.675 1.026l1.24 3.799c.54 1.653 2.079 2.838 3.671 2.838l41.379-.026c1.564 0 2.752-1.153 2.858-2.768l.252-3.913c.027-.367.172-.713.412-.98.241-.267.561-.438.906-.485l6.355-.997c1.527-.241 2.523-1.605 2.383-3.275-.37-4.367-1.033-12.323-1.033-13.412-.023-2.572.336-5.116.679-7.589.484-3.463.986-7.037.459-10.753-3.358-23.721-23.943-43.019-45.892-43.019s-37.075 19.315-33.718 43.054c.549 3.886 2.155 7.598 3.709 11.198zm42.557-2.183c-.701-6.742 4.782-8.437 11.201-8.17 6.419.266 11.343 2.401 12.044 9.135.7 6.733-3.927 11.99-10.354 11.724s-12.19-5.954-12.891-12.696v.007zm-1.883 13.228l5.057 6.48c.218.26.369.574.442.913.072.338.062.69-.028 1.024l-.414 1.299c-.107.328-.311.61-.582.807a1.48 1.48 0 01-.922.284h-7.095a2.107 2.107 0 01-1.037-.304 2.253 2.253 0 01-.777-.787l-.779-1.299a2.04 2.04 0 01-.141-1.937l3.226-6.48c.564-1.15 2.158-1.15 3.05-.006v.006zm-22-21.396c6.342-.266 12.304 1.428 13.509 8.17s-2.959 12.423-9.3 12.689c-6.34.266-12.463-4.982-13.668-11.724s3.114-8.877 9.459-9.152v.017zM863.615 370.15c.041-3.221-1.37-6.637-4.08-9.118-4.339-3.98-10.539-4.052-13.846-.157-3.467 4.074-2.566 10.84 1.947 14.991l-3.071 3.814c-1.227 1.528-.878 3.993.781 5.519l7.078 6.506c1.654 1.529 3.997 1.529 5.225 0l3.071-3.814c4.515 4.148 10.909 4.089 14.162-.181 3.104-4.085 2.112-10.613-2.228-14.613-2.687-2.491-6.065-3.471-9.039-2.947zM768.058 387.891l4.16 3.814c1.653 1.529 3.997 1.529 5.224 0l5.239-6.508c1.228-1.528.878-3.993-.781-5.519l-4.15-3.815c3.342-4.148 2.329-10.916-2.29-14.988-4.416-3.895-10.585-3.823-13.808.157-2.007 2.481-2.454 5.895-1.501 9.118-3.122-.524-6.218.456-8.212 2.947-3.204 4-2.35 10.528 1.915 14.613 4.45 4.27 10.862 4.329 14.204.181zM885.187 460.626c-4.46-4.27-10.872-4.329-14.214-.181l-4.15-3.814c-1.653-1.529-3.996-1.529-5.222 0l-5.239 6.508c-1.227 1.528-.878 3.995.779 5.519l4.15 3.806c-3.342 4.148-2.327 10.916 2.29 14.988 4.416 3.895 10.585 3.823 13.811-.157 2.006-2.48 2.451-5.895 1.5-9.118 3.123.524 6.218-.456 8.213-2.947 3.201-4 2.347-10.528-1.918-14.604zM775.41 478.178c-.039 3.221 1.373 6.637 4.08 9.118 4.34 3.98 10.539 4.052 13.846.157 3.466-4.074 2.567-10.84-1.949-14.988l3.071-3.815c1.228-1.528.878-3.995-.779-5.519l-7.08-6.508c-1.653-1.529-3.997-1.529-5.224 0l-3.071 3.814c-4.514-4.148-10.91-4.089-14.163.181-3.11 4.085-2.118 10.611 2.216 14.613 2.707 2.491 6.08 3.471 9.053 2.947z" fill="#fff"/></g><defs><clipPath id="prefix__clip0_53_25676"><path fill="#fff" d="M0 0h1500v1500H0z"/></clipPath></defs>
      
    </g>
    </svg>