<svg
      xmlns="http://www.w3.org/2000/svg"
      preserveAspectRatio="xMidYMin meet"
      fill="none"
      viewBox="0 0 1500 1500"
    >
      <g>
      <path fill="url(#prefix__paint0_linear_53_30460)" d="M0 0h1500v1500H0z"/><defs><linearGradient id="prefix__paint0_linear_53_30460" x1="0" y1="0" x2="1500" y2="1500" gradientUnits="userSpaceOnUse"><stop stop-color="#F1FFBA"/><stop offset="1" stop-color="#65DCBA"/></linearGradient></defs>
      <g clip-path="url(#prefix__clip0_53_27766)"><path d="M511.71 1369.26a922.097 922.097 0 00-19 130.68h-20v-.69a924.662 924.662 0 0119.51-134.59 10.023 10.023 0 014.513-6.08 10.031 10.031 0 017.473-1.17 9.979 9.979 0 016.157 4.4 10.002 10.002 0 011.317 7.45h.03zM1132 1499.94h-20.2c-2.81-13.91-20.24-98.71-36.65-147.5-.45-1.26-.65-2.59-.58-3.92a9.997 9.997 0 013.37-6.98c1-.88 2.16-1.55 3.42-1.98 1.27-.42 2.6-.59 3.93-.49 1.33.09 2.62.45 3.81 1.06a9.988 9.988 0 015 5.93c18.25 54.23 36.92 147.99 37.71 151.93.13.64.19 1.3.19 1.95z" fill="#000"/><path d="M1266 1504.94l-976.67-1 3.73-70.49 22.17-107.34L355 1202.95l53.62-77.7s48.18-22.48 112.86-50.61 195.37-27.16 195.37-27.16 198.15-14 351.31 45.59c153.16 59.58 197.84 411.87 197.84 411.87z" fill="#3A3A3A"/><path d="M739.499 1500l-19.859-143.04V1211l39.86-169 83.5 6.5 40 108 9.34 28.45 23.35 117.75 6.45 197.3H739.499z" fill="#ABF"/><path d="M740.41 1499.98l-15.32-158.63-5.88-102.43L739 1109.5l17-64.5 80.5 3 51.69 124.63 26.66 114.71 7 165.68-2.26 46.96H740.41z" fill="#fff"/><path d="M769.13 1499.92l18.12-231.45-27.78-13.87 53.15-64.43 53.96 68.22-23.79 12.81 21.3 105.71 23.04 123.07-118-.06z" fill="#3A3A3A"/><path d="M724.06 1281.21h-6.76v-20h15.35a5.038 5.038 0 002.49-.85 5.058 5.058 0 001.71-2.01l.42-.79 56.4-71.55a17.604 17.604 0 015.964-4.86 17.47 17.47 0 017.466-1.86c2.595-.07 5.172.44 7.547 1.49a17.667 17.667 0 016.193 4.57l58.48 67.19.47.79a5.394 5.394 0 002.474 2.21c1.036.45 2.189.57 3.296.33 4.74-1 12.37-2.84 21.82-5.63l5.68 19.17c-8 2.36-16 4.43-23.26 6a25.33 25.33 0 01-15.069-1.33 25.339 25.339 0 01-11.631-9.67l-55.48-63.75-53.6 67.99a24.793 24.793 0 01-8.988 9.15 24.755 24.755 0 01-12.352 3.44l-8.62-.03z" fill="#000"/><path d="M808.88 1283.14a121.279 121.279 0 01-48.31-10l-9.93-4.31 8-18.34 9.93 4.3a101.638 101.638 0 0040.35 8.35c13.878 0 27.61-2.84 40.35-8.35l9.93-4.3 8 18.34-9.93 4.31a121.313 121.313 0 01-48.39 10z" fill="#000"/><path d="M784.18 1500l-20-.16 8.27-226.74 20 .16-8.27 226.74zM882.82 1499.92L835 1275.79l19.3-5.23 49.24 229.36h-20.72zM934.26 1406.6c1.28 36.42 1.09 69.17.56 93.38h-20a.067.067 0 01-.008-.03c0-.01.003-.02.008-.03.22-10.44.38-22.51.38-35.84 0-52.53-2.47-124.45-13-191.61-1-6.65-2.17-13.26-3.38-19.79-5.25-28.36-12.1-55.39-21-79.19l9.36-3.5 9.35-3.49.27.74c21.28 57.35 33.89 137.89 37.46 239.36z" fill="#000"/><path d="M741 1514c-20.834-79.33-46.8-283.4 16-465m165 465c7-105.5 5.7-294.2-83.5-465" stroke="#000" stroke-width="20"/><path d="M659.15 1338.95a17.374 17.374 0 01-3.179 8.8 17.353 17.353 0 01-7.281 5.86l-43.43 18.72a10.181 10.181 0 00-5.7 12.39l35.82 115.29h-20.94l-34-109.36a30.141 30.141 0 0116.9-36.7l38.87-16.76-60.54-37.75a32.748 32.748 0 01-9.85-9.52 32.804 32.804 0 01-4.558-26.41 32.763 32.763 0 016.088-12.27L743.5 1039l7.82 6.22 7.83 6.23L583 1263.7a12.8 12.8 0 00-2.577 10.13c.306 1.77.984 3.46 1.988 4.95a12.66 12.66 0 003.839 3.71l64.75 40.38a17.413 17.413 0 016.326 6.9 17.366 17.366 0 011.824 9.18zM1063.62 1362.35L1042 1500h-20.25l22.15-140.76c.39-2.48-.15-5.03-1.52-7.14a10.192 10.192 0 00-5.91-4.29l-45.68-12.24a17.38 17.38 0 01-8.052-4.75 17.455 17.455 0 01-4.422-8.25 17.378 17.378 0 015.744-17.07l58.23-49.32c1.37-1.17 2.49-2.61 3.26-4.23a12.7 12.7 0 001.25-5.2 12.765 12.765 0 00-4.02-9.64l-195.63-183.32 6.85-7.29 6.85-7.28 195.63 183.32c3.37 3.16 6.03 7 7.8 11.26 1.78 4.26 2.64 8.85 2.52 13.47-.12 4.62-1.21 9.16-3.21 13.32a32.757 32.757 0 01-8.37 10.85l-54.44 46.11 40.88 10.99a30.148 30.148 0 0117.47 12.7 30.146 30.146 0 014.49 21.11z" fill="#000"/><path d="M289.5 1512.5c-6-101.5 31-323.03 140.5-398 158.5-108.51 616.5-87 706.5 26 64.91 81.5 99.5 222.5 132.5 371M1084.5 1337c12.33 37 29.5 110.3 43.5 175.5m-646.5 0c.333-32.83 7.7-107.6 20.5-157" stroke="#000" stroke-width="20" stroke-linecap="round"/><path d="M499.998 1213.5c-101.2 100-117.834 249-113.5 311l-99.502-13c-1.6-110.8 39-247.5 59.5-302l39.501-52.5 15.5-20.5 66.5-42.5c148.171-59.03 291.242-54.92 345.943-45.28-.665-1.27-1.312-2.51-1.94-3.72h29l16.5 49 34.5 88.5 32.5 164.5v162.5l-25 9.5c10.4-118.4-4.333-217-13-251.5-28.202-135.75-55.642-186.51-72.273-218.23-63.742 13.58-213.703 64.89-314.229 164.23z" fill="#000" fill-opacity=".2"/><path d="M850 1267.5l-59.5-64 19-17.5 58 66.5-17.5 15zM808 1293.5c15.2-.4 30.333-4.17 36-6l-3-14.5h-53l-11 129 5.5-127-29.5-11.5-12.5 11.5 19 9c3.6 57.2-4.5 170.5-9 220l55 8 2.5-218.5zM569 1373.5c-13.2 17.2 20.5 100.5 38 139.5l24-3-44.5-136.5 30.5-23c-10.5.5-34.8 5.8-48 23zM551 1279.5c-2.033 19.11 49.333 52.5 76.5 67l19.5-5.5-76-66 2.5-24c-5.833 1.67-20.5 9.7-22.5 28.5z" fill="#000" fill-opacity=".2"/></g><defs><clipPath id="prefix__clip0_53_27766"><path fill="#fff" d="M0 0h1500v1500H0z"/></clipPath></defs>
      <g clip-path="url(#prefix__clip0_299_662)"><path d="M775 1185c231.41 0 419-168.12 419-375.5 0-207.383-187.59-375.5-419-375.5-231.407 0-419 168.117-419 375.5 0 207.38 187.593 375.5 419 375.5z" fill="#ABF"/><path d="M457.5 796c7.6 194 131.833 327.5 193 370l-130-55.5L438 1034l-57.5-89.5-27-106 11-104L394 662l45-82.5 83.5-69.5 109-54.182 28.5-1C569.452 513.314 451.119 633.132 457.5 796z" fill="#001647" fill-opacity=".2"/><path d="M775 1185c231.41 0 419-168.12 419-375.5 0-207.383-187.59-375.5-419-375.5-231.407 0-419 168.117-419 375.5 0 207.38 187.593 375.5 419 375.5z" stroke="#000" stroke-width="20"/></g><defs><clipPath id="prefix__clip0_299_662"><path fill="#fff" d="M0 0h1500v1500H0z"/></clipPath></defs>
      <g clip-path="url(#prefix__clip0_53_29315)"><path d="M764.05 841.24c31.336 0 56.74-25.404 56.74-56.74 0-31.337-25.404-56.74-56.74-56.74-31.337 0-56.74 25.403-56.74 56.74 0 31.336 25.403 56.74 56.74 56.74zM1048.19 841.24c31.34 0 56.74-25.404 56.74-56.74 0-31.337-25.4-56.74-56.74-56.74-31.34 0-56.74 25.403-56.74 56.74 0 31.336 25.4 56.74 56.74 56.74z" fill="#fff" stroke="#000" stroke-width="20" stroke-miterlimit="10"/><path d="M787.05 797.5c7.18 0 13-5.82 13-13s-5.82-13-13-13-13 5.82-13 13 5.82 13 13 13zM1071.19 797.5c7.18 0 13-5.82 13-13s-5.82-13-13-13-13 5.82-13 13 5.82 13 13 13z" fill="#000"/><path d="M1000.1 1063.55H831.28a5.495 5.495 0 01-5.5-5.5 89.318 89.318 0 0189.32-89.319h1.18a89.316 89.316 0 0163.158 26.161 89.312 89.312 0 0126.162 63.158c0 1.46-.58 2.86-1.61 3.89a5.503 5.503 0 01-3.89 1.61z" fill="#fff" stroke="#000" stroke-width="20" stroke-miterlimit="10"/></g><defs><clipPath id="prefix__clip0_53_29315"><path fill="#fff" d="M0 0h1500v1500H0z"/></clipPath></defs>
      <g clip-path="url(#prefix__clip0_53_26454)"><path d="M922.5 1068.5a59.023 59.023 0 0032.779-9.94 59.051 59.051 0 0021.73-26.48 59.008 59.008 0 00-12.79-64.299 58.999 58.999 0 10-83.438 83.439 59.017 59.017 0 0041.719 17.28z" fill="#F9F9F9"/><path d="M1086 1007.5c0 42.8-75.66 77.5-169 77.5-93.336 0-169-34.67-169-77.5 0-42.834 75.664-97.5 169-97.5 93.34 0 169 54.698 169 97.5z" fill="#ABF"/><path d="M926.2 975.91l163-63 42-14 13 22-12 22-141.45 51.39s-20.55-26.39-64.55-18.39z" fill="#fff"/><path d="M1000.26 944.55l19.16 45.34-31.09 4.4s-30.33-21.45-60.51-18.67c-30.18 2.78 72.44-31.07 72.44-31.07z" fill="#FF9C07"/><path d="M918.51 973.8l192.62-77.674c13.03-5.255 27.82 1.372 32.57 14.597v0c4.46 12.398-1.57 26.115-13.72 31.214L995.49 998.4" stroke="#000" stroke-width="20" stroke-miterlimit="10"/><path d="M1143.26 909.834c4.97 11.693.66 24.254-8.39 28.094s-20.4-2.527-25.37-14.219c-4.96-11.693-1.65-24.285 7.4-28.125 9.04-3.839 21.4 2.557 26.36 14.25z" fill="#FF6247" stroke="#000" stroke-width="20"/><path d="M819.26 1008s115.5-84.37 192.56 12.49" stroke="#000" stroke-width="20" stroke-miterlimit="10" stroke-linecap="round"/></g><defs><clipPath id="prefix__clip0_53_26454"><path fill="#fff" d="M0 0h1500v1500H0z"/></clipPath></defs>
      <g clip-path="url(#prefix__clip0_53_25357)"><path d="M350.5 673.5L367 736l65-17 358.5-64.5L1115 639l35.5-9.5-22.5-95-34.5-56.5 47.5-32.5c16.83-3 50-33.7 48-152.5s-113.83-152.17-166-152.5l-124.5 19c-22.669-23.17-95.099-68.8-203.5-66C586.6 96.3 537.171 185 526 229h-94l-65 9-74.5 49c-82.8 103.2-43.83 199.33-14 234.5L311 546l48.5 35.5v16l-9 76z" fill="#fff"/><path d="M542.5 544c-38.8 46-47.5 126.5-47 161-21.833 7.833-74.3 24.9-109.5 30.5-35.2 5.6-37.333-40.667-34-64.5l15.5-89.5-68.499-37.5c-35.5-36.167-92.2-131.9-35-225.5s196.833-98.667 259.5-89.5l50.5-86.5 64.5-42c20.833-3.667 78.3-9.4 141.5-3s110.333 44.333 126 62.5l25.5-6.5 51-9 49.999-2 44 15.5c9 8.5-.85 7.614-37.5 15.5-39.499 8.5-73.499 46-78.999 62.5-4.4 13.2-9.834 16.167-12 16l-52.5-97.5-68.5-39c-167.5-27.5-257 155.5-270 179s-14 60.5-33.5 58.5c-15.6-1.6-18.167-27-18.5-39.5l3-29.5c-39.2 2.4-67.001 57.667-75.501 83.5-22 70.8 9.167 129.167 27.5 149.5l17.5 13.5 65 13.5z" fill="#001647" fill-opacity=".2"/><path d="M739.5 436c4.4-.8 7.5 3 8.5 5l6.5 60-23.5 1.5c-.667-12.667-2-40.7-2-51.5 0-13.5 5-14 10.5-15zM999.5 423c.8-8.8 14.67-6.667 21.5-4.5-1 3.667-3 11.2-3 12 0 1-5 28-5.5 28.5s-19 22.5-19.5 23-47 2-47-2 23-7 40-21 12.5-25 13.5-36z" fill="#001647" fill-opacity=".2"/><path d="M382.59 737c85-25.64 413.43-116.38 747.51-98.23 2.53.142 5.06-.273 7.42-1.217a17.323 17.323 0 006.2-4.245 17.317 17.317 0 003.83-6.474c.78-2.412 1.03-4.966.72-7.484l-.78-6.24a252.725 252.725 0 00-37-103.69l-9-14.28a27.727 27.727 0 00-24.31-12.92c-79.46 2.44-439.92 17.49-692.24 94a27.004 27.004 0 00-18 17.85l-2.39 7.78a252.771 252.771 0 00-7.06 119.76 19.788 19.788 0 0025.1 15.39v0z" stroke="#000" stroke-width="20" stroke-miterlimit="10"/><path d="M518.49 229.919s-230.15-52.61-271.82 148.37c-26.38 127.23 60.18 181.57 127.25 204.33" stroke="#000" stroke-width="20" stroke-miterlimit="10"/><path d="M506.69 306.289s12.23-200.85 193.62-213.54C881.7 80.06 934.59 200 943.21 243.94" stroke="#000" stroke-width="20" stroke-miterlimit="10" stroke-linecap="round"/><path d="M1086.37 482.21c61.61-26.67 146.92-93 87.57-248.68 0 0-56.38-147.15-271.18-69.63" stroke="#000" stroke-width="20" stroke-miterlimit="10"/><path d="M749 447l6 59M943.21 488.94s88.35 2.83 77.29-61.94M556.82 534.94s-87 25.75-93.32-37.44" stroke="#000" stroke-width="20" stroke-miterlimit="10" stroke-linecap="round"/></g><defs><clipPath id="prefix__clip0_53_25357"><path fill="#fff" d="M0 0h1500v1500H0z"/></clipPath></defs>
      
    </g>
    </svg>