<svg
      xmlns="http://www.w3.org/2000/svg"
      preserveAspectRatio="xMidYMin meet"
      fill="none"
      viewBox="0 0 1500 1500"
    >
      <g>
      <path fill="url(#prefix__paint0_linear_53_30460)" d="M0 0h1500v1500H0z"/><defs><linearGradient id="prefix__paint0_linear_53_30460" x1="0" y1="0" x2="1500" y2="1500" gradientUnits="userSpaceOnUse"><stop stop-color="#F1FFBA"/><stop offset="1" stop-color="#65DCBA"/></linearGradient></defs>
      <g clip-path="url(#a)"><path fill="#9E6740" d="M232.4 1025.3s23.5 56.5 48.8 70.7c25.4 14.2 99.4 62.6 99.4 62.6s-29 36.5-34.6 50.8l-74-38.5-51.6-57-36.2-58s35.2-10.8 48.2-30.6Z"/><path fill="#72411F" d="m95.4 971 43.2 54.3 25 21.3s46 25 75-37.8c29-62.9-4.4-115-4.4-115l-7.7-10.8-18.5 19.8-17.8-39.2-34.7-23-3 47.1-41-20.5-53.7 5-26.6 14.1L68 898.8l21.6 12.8 12.8 10.7-17.2 5.8-19.2 14.4L95.4 971Z"/><path fill="#9E6740" d="M460.5 1094.5c-138.4 66.4-174 309.3-174.5 422.5h983.5c-12.5-72.2-53.2-244.1-116-354.5-78.5-138-520-151-693-68Z"/><path fill="#001647" fill-opacity=".2" d="M500 1213.5c-101.2 100-117.8 249-113.5 311l-99.5-13c-1.6-110.8 39-247.5 59.5-302l-32.5-15-79-60.5-49-77.5-34-12.5-30.5-29c-13-17.2-40.5-54.5-46.5-66.5s17.2-18 29.5-19.5L94 915.5 30.5 888C39 880.8 62 865.3 86 860.5c24-4.8 52.7 16.3 64 27.5l4.5-18c-6.8-7.3-16.4-22.4 0-24 16.4-1.6 44.5 39.3 56.5 60l11-32.5c4.3 5.7 16.1 26.1 28.5 62.5 12.4 36.4-6.8 78.2-18 94.5 1.3 6.8 11.2 27.7 40 56.5s87.7 58.7 113.5 70l15.5-20.5L468 1094c149.6-59.6 294-54.8 347.5-45-63 13.2-214.3 64.5-315.5 164.5Z"/><path stroke="#000" stroke-linecap="round" stroke-width="20" d="M289.5 1512.5c-6-101.5 31-323 140.5-398 158.5-108.5 616.5-87 706.5 26 65 81.5 99.5 222.5 132.5 371M1084.5 1337c12.3 37 29.5 110.3 43.5 175.5m-646.5 0c.3-32.8 7.7-107.6 20.5-157"/><path stroke="#000" stroke-miterlimit="10" stroke-width="20" d="M186.7 1056.2c7.7 16.8 61.3 133 173 153.2M391.3 1158.8s-124.7-39.2-157.2-129"/><path stroke="#000" stroke-miterlimit="10" stroke-width="18.7" d="M21.2 890.2c10.6-8.8 74.9-57.8 133.1.6a.8.8 0 0 0 1.3-.1l.2-.5c.1-7 .2-31.7-7.9-48.4a.8.8 0 0 1 0-.7c0-.2.2-.3.3-.3l.4-.2c7.2-.4 44.1 1 62.2 68.2a.8.8 0 0 0 .8.6.8.8 0 0 0 .8-.5 141.9 141.9 0 0 0 9.3-39 .8.8 0 0 1 1.3 0c8.9 13 55.6 88 11.7 156.4a59 59 0 0 1-70.8 23.6c-15.5-6-32-19.4-46.5-46.2A186.6 186.6 0 0 0 84 958.6c-5.8-5.7-11.8-11-18-16.1a2.9 2.9 0 0 1 .7-5 88 88 0 0 1 41.7-6.1.8.8 0 0 0 .4-1.2c-4.2-6.5-24.5-32.7-87-38.5a.8.8 0 0 1-.7-1l.2-.5Z"/><path fill="#72411F" d="M998.9 1500H658.5c-6.6-142.4 34-241.3 152.2-241.3 119.7 0 171.6 98.9 188.2 241.3Z"/><path stroke="#000" stroke-width="20" d="M660 1512c-9.8-84.7.8-254 150-254 155.2 0 185.5 176 190.5 264"/></g><defs><clipPath id="a"><path fill="#fff" d="M0 0h1500v1500H0z"/></clipPath></defs>
      <g clip-path="url(#prefix__clip0_299_662)"><path d="M775 1185c231.41 0 419-168.12 419-375.5 0-207.383-187.59-375.5-419-375.5-231.407 0-419 168.117-419 375.5 0 207.38 187.593 375.5 419 375.5z" fill="#ABF"/><path d="M457.5 796c7.6 194 131.833 327.5 193 370l-130-55.5L438 1034l-57.5-89.5-27-106 11-104L394 662l45-82.5 83.5-69.5 109-54.182 28.5-1C569.452 513.314 451.119 633.132 457.5 796z" fill="#001647" fill-opacity=".2"/><path d="M775 1185c231.41 0 419-168.12 419-375.5 0-207.383-187.59-375.5-419-375.5-231.407 0-419 168.117-419 375.5 0 207.38 187.593 375.5 419 375.5z" stroke="#000" stroke-width="20"/></g><defs><clipPath id="prefix__clip0_299_662"><path fill="#fff" d="M0 0h1500v1500H0z"/></clipPath></defs>
      <g clip-path="url(#prefix__clip0_53_29315)"><path d="M764.05 841.24c31.336 0 56.74-25.404 56.74-56.74 0-31.337-25.404-56.74-56.74-56.74-31.337 0-56.74 25.403-56.74 56.74 0 31.336 25.403 56.74 56.74 56.74zM1048.19 841.24c31.34 0 56.74-25.404 56.74-56.74 0-31.337-25.4-56.74-56.74-56.74-31.34 0-56.74 25.403-56.74 56.74 0 31.336 25.4 56.74 56.74 56.74z" fill="#fff" stroke="#000" stroke-width="20" stroke-miterlimit="10"/><path d="M787.05 797.5c7.18 0 13-5.82 13-13s-5.82-13-13-13-13 5.82-13 13 5.82 13 13 13zM1071.19 797.5c7.18 0 13-5.82 13-13s-5.82-13-13-13-13 5.82-13 13 5.82 13 13 13z" fill="#000"/><path d="M1000.1 1063.55H831.28a5.495 5.495 0 01-5.5-5.5 89.318 89.318 0 0189.32-89.319h1.18a89.316 89.316 0 0163.158 26.161 89.312 89.312 0 0126.162 63.158c0 1.46-.58 2.86-1.61 3.89a5.503 5.503 0 01-3.89 1.61z" fill="#fff" stroke="#000" stroke-width="20" stroke-miterlimit="10"/></g><defs><clipPath id="prefix__clip0_53_29315"><path fill="#fff" d="M0 0h1500v1500H0z"/></clipPath></defs>
      <g clip-path="url(#prefix__clip0_53_27079)"><path opacity=".4" d="M770.85 897.86a109.421 109.421 0 0021.346-216.738A109.42 109.42 0 10770.85 897.86zM1066.56 897.86a109.414 109.414 0 00101.09-67.547 109.453 109.453 0 006.23-63.22 109.43 109.43 0 00-85.97-85.971 109.411 109.411 0 00-63.22 6.227 109.391 109.391 0 00-49.11 40.3 109.42 109.42 0 0090.98 170.211z" fill="#fff"/><path d="M1145.89 765c5.43-3.83 2.77-16.94-5.94-29.29-8.71-12.35-20.17-19.25-25.6-15.42s-2.77 16.94 5.94 29.29c8.71 12.35 20.17 19.2 25.6 15.42zM848.18 764.999c5.43-3.83 2.77-16.94-5.94-29.29-8.71-12.35-20.17-19.26-25.6-15.43-5.43 3.83-2.77 17 5.94 29.3s20.17 19.21 25.6 15.42z" fill="#fff"/><path d="M1066.27 897.86a109.414 109.414 0 00101.09-67.547 109.453 109.453 0 006.23-63.22 109.43 109.43 0 00-85.97-85.971 109.411 109.411 0 00-63.22 6.227 109.391 109.391 0 00-49.11 40.3 109.42 109.42 0 0090.98 170.211zM770.85 897.86a109.421 109.421 0 0021.346-216.738A109.42 109.42 0 10770.85 897.86v0zM658.002 782.498L377.65 692.6M880.27 788.439h76.579" stroke="#000" stroke-width="20" stroke-miterlimit="10"/></g><defs><clipPath id="prefix__clip0_53_27079"><path fill="#fff" d="M0 0h1500v1500H0z"/></clipPath></defs>
      <g clip-path="url(#prefix__clip0_53_26093)"><path d="M1324.57 565.17c-9.32 17.15-37.98 54.33-160.57 81.33-14-25.5-30.5-51-46-68l-142.22 10.74L603.5 629l-173.12 32.64-50-1.87L366.7 692c-4.54 9.61-7 22.58-10.66 32.43-50.35-.82-147.84-11.24-174.84-44.9-6.52-8.12-4.78-34.69-2.12-45.54 2.31-9.44 24.84-31 82.25-55.86 37.48-16.22 83.53-26.88 146.32-42.31 26.47-6.5 51.19-12.43 76-17.54L511 508.5l239-30 263.5-9.5 41.53 2.56c67.89.88 109.14 5.87 153.79 13.17 86 14 114.51 49 118.82 65.46l.17.66.25.65s1.05 5.4-3.49 13.67z" fill="#3A3A3A"/><path d="M434 462.75V518l220.44-30.86L1036 469.72 1023.72 408l-220.44 11-118.15 8.46L434 462.75z" fill="#FF6247"/><path d="M427.5 193l8 271.5L610 436l215.5-22.5L1027 404 951 94l-32-19-162.5-12L610 83.5l-127.5 40-55 27V193z" fill="#3A3A3A"/><path d="M540.5 504c-28.8-106.8-28.667-306.167-25-392.5-4.167 2-18.3 7.6-41.5 14s-42 32.667-48.5 45L434 526l-85 23.5c-68.5 16.833-198.6 64.2-171 119 27.6 54.8 131.833 59.5 180.5 55l23.5-63 82-9c51.2-74.8 252.333-147.833 346.5-175l-270 27.5zM1215 628c-2.8-40.4-67.17-49.5-99-49 13.2 12 33.83 49.333 42.5 66.5L1215 628z" fill="#000" fill-opacity=".2"/><path d="M382.87 669.459s367-91 735-81M371.311 730s-218.4 5-196-86.57c22.4-91.57 448.87-153.27 448.87-153.27s667.689-74.76 701.309 53.3c0 0 35.38 63-173.2 107.67" stroke="#000" stroke-width="20" stroke-miterlimit="10"/><path d="M430.2 522.25l-5-336.25c0-10 1.21-19.65 6.25-28.11A46.002 46.002 0 01453.2 139l30.47-12.71c143.44-59.78 280.81-77.83 434-52.08a46.003 46.003 0 0137.44 36.25l86.14 358M434 468s259.7-66.27 599-62.87" stroke="#000" stroke-width="20" stroke-miterlimit="10"/></g><defs><clipPath id="prefix__clip0_53_26093"><path fill="#fff" d="M0 0h1500v1500H0z"/></clipPath></defs>
      
    </g>
    </svg>