<svg
      xmlns="http://www.w3.org/2000/svg"
      preserveAspectRatio="xMidYMin meet"
      fill="none"
      viewBox="0 0 1500 1500"
    >
      <g>
      <path fill="url(#prefix__paint0_linear_53_30460)" d="M0 0h1500v1500H0z"/><defs><linearGradient id="prefix__paint0_linear_53_30460" x1="0" y1="0" x2="1500" y2="1500" gradientUnits="userSpaceOnUse"><stop stop-color="#F1FFBA"/><stop offset="1" stop-color="#65DCBA"/></linearGradient></defs>
      <g clip-path="url(#a)"> <path fill="#53B6F9" d="M1262.8 1506.5H289.2l3.7-72.5 22.2-107.3L351 1204l56.5-72.5s33.8-23.9 98.5-52 225-35.5 225-35.5 187.3-9 340.5 50.5c153.2 59.6 191.3 412 191.3 412Z"/> <path fill="#000" fill-rule="evenodd" d="m973.8 1356.7 18 2.6 11.2-18-4-2.8 3.2-4.6-4-2.8-3 4.9-4-2.8-7 11-11.4-1.8-8.9-26.4-3.6 1 3.4 9.5-5.3 1.5-3.5-9.4-3.9 1 7.7 21.3-17.5-2.6-11.2 18 4 2.8-3 4.8 4 2.8 2.8-5 3.8 2.5 7-11.3 11.2 1.5.8 7.7-17.3 9 2 20.5h4.6l.6 6.4h4.5l-.6-6.2h4.5l-1.2-11.7 11-5.7 12 5.7 1.2 11.8h4.5l.6 6.1h4.5l-.6-6.2h4.7l-2-20.5-19.2-9.2-.6-5.4Zm-1-10 13.5 2.1 6.2-10 .5.3 4 2.8.6.2-8 12.9-16.2-2.4-.6-5.8Zm-26.3 2.1-6.2 10-4.9-3.3 8-12.8 15.5 2.3.6 5.8-13-2Zm43.8 24.9 1.4 14H986l-1-10.2-16.4-7.7-14.7 7.7 1 10.3h-6l-1.3-13.9 17.3-9-2.2-23.5-3.4-9.5 5.3-1.6 3.7 11.6 2.3 22.8 19.7 9Z" clip-rule="evenodd"/> <path stroke="#000" stroke-linecap="round" stroke-miterlimit="10" stroke-width="20" d="m807.8 1194.5 10 141.8m-41.8-16.8c0-.6.5-1.1 1-1.1m1.2 1a1 1 0 1 1-2.2 0 1 1 0 0 1 2.2 0Zm-2.2-37.1c0-.6.5-1.1 1-1.1m1.2 1a1 1 0 1 1-2.2 0 1 1 0 0 1 2.2 0Zm-2.2-37.1c0-.6.5-1 1-1m1.2 1a1 1 0 1 1-2.2 0 1 1 0 0 1 2.2 0Z"/> <path stroke="#000" stroke-linecap="round" stroke-width="20" d="M289.5 1512.5c-6-101.5 31-323 140.5-398 158.5-108.5 616.5-87 706.5 26 65 81.5 99.5 222.5 132.5 371M1084.5 1337c12.3 37 29.5 110.3 43.5 175.5m-646.5 0c.3-32.8 7.7-107.6 20.5-157"/> <path fill="#F56CDB" d="m467.6 1110.5 7.4-39 62.5-15.5 72-5.5 53-8h147l104.5 8 107 8.1 53.6 19-3.8 40.8-21.3 55-90.7 68.1-76.5 24.3-62.8-69.8a20 20 0 0 0-31.6 2.5l-44 67.3-58.9 2.7-143.7-46.2-68.6-65.1-5.1-46.7Z"/> <path stroke="#000" stroke-width="20" d="M535 1214c-83.6-40.4-76.5-113.2-62.5-144.5 266-49.2 513.5-20.2 604 .5 21.5 119.7-113.1 181.3-188.3 198.7-3.5.9-7.2-.4-9.6-3.2l-54.1-62.5a21 21 0 0 0-32.3.6l-50 62.4c-2 2.5-5 4-8.3 3.7A610.8 610.8 0 0 1 535 1214Z"/> <path fill="#001647" fill-opacity=".2" d="M489 1227.5c-82.4 87.6-103 222.5-103 279h-97l5.5-106.5c6.7-44.8 30.2-150.7 71-215.5 40.8-64.8 83-83 99-84l9-27h22l52.5-13 150-15h113.5c-160.4 46.4-265.5 121.3-298 153l120 56.5 103 23.5c-123.6 19.6-216.5-25.8-247.5-51Zm370.2 48.3-44.2-46.3-3-28.5 74.5 69c-.4 2.8-4.2 6-8.5 8.8-6 4-13.8 2.2-18.8-3Z"/> </g> <defs> <clipPath id="a"> <path fill="#fff" d="M0 0h1500v1500H0z"/> </clipPath> </defs>
      <g clip-path="url(#prefix__clip0_299_662)"><path d="M775 1185c231.41 0 419-168.12 419-375.5 0-207.383-187.59-375.5-419-375.5-231.407 0-419 168.117-419 375.5 0 207.38 187.593 375.5 419 375.5z" fill="#ABF"/><path d="M457.5 796c7.6 194 131.833 327.5 193 370l-130-55.5L438 1034l-57.5-89.5-27-106 11-104L394 662l45-82.5 83.5-69.5 109-54.182 28.5-1C569.452 513.314 451.119 633.132 457.5 796z" fill="#001647" fill-opacity=".2"/><path d="M775 1185c231.41 0 419-168.12 419-375.5 0-207.383-187.59-375.5-419-375.5-231.407 0-419 168.117-419 375.5 0 207.38 187.593 375.5 419 375.5z" stroke="#000" stroke-width="20"/></g><defs><clipPath id="prefix__clip0_299_662"><path fill="#fff" d="M0 0h1500v1500H0z"/></clipPath></defs>
      <g clip-path="url(#prefix__clip0_53_29287)"><path d="M764.05 841.24c31.336 0 56.74-25.404 56.74-56.74 0-31.337-25.404-56.74-56.74-56.74-31.337 0-56.74 25.403-56.74 56.74 0 31.336 25.403 56.74 56.74 56.74zM1048.19 841.24c31.34 0 56.74-25.404 56.74-56.74 0-31.337-25.4-56.74-56.74-56.74-31.34 0-56.74 25.403-56.74 56.74 0 31.336 25.4 56.74 56.74 56.74z" fill="#fff" stroke="#000" stroke-width="20" stroke-miterlimit="10"/><path d="M746.05 779.5c7.18 0 13-5.82 13-13s-5.82-13-13-13-13 5.82-13 13 5.82 13 13 13zM1066.19 779.5c7.18 0 13-5.82 13-13s-5.82-13-13-13-13 5.82-13 13 5.82 13 13 13z" fill="#000"/><path d="M831.28 968.721h168.82a5.495 5.495 0 015.5 5.5 89.318 89.318 0 01-89.32 89.319h-1.18a89.323 89.323 0 01-63.159-26.16 89.322 89.322 0 01-26.161-63.159 5.5 5.5 0 015.5-5.5z" fill="#fff" stroke="#000" stroke-width="20" stroke-miterlimit="10"/></g><defs><clipPath id="prefix__clip0_53_29287"><path fill="#fff" d="M0 0h1500v1500H0z"/></clipPath></defs>
      <g clip-path="url(#prefix__clip0_53_26787)"><path d="M367.752 776.001s-3.28 28.45-1 45.76c2.44 18.17 1-1 1-1l33.42-7 66.7-6.4 126.25-16-16.45-38.56-209.92 23.2z" fill="#CCD0DA"/><path d="M606.318 716.472c95.222-8.873 410.972-33.645 575.062 10.575 1.66.448 2.89 1.625 3.3 3.297 4.9 19.994 29.97 149.958-140.21 173.418-28.09 3.88-56.602-5.94-75.622-27-10.05-11.11-24.47-21-44-21-21.81 0-38.66 12.64-50.2 25.56a87.103 87.103 0 01-68.66 29c-69-2.89-188.31-28-221.92-162.37a25.404 25.404 0 0122.25-31.48z" fill="#F56CDB" stroke="#000" stroke-width="20" stroke-miterlimit="10"/><path d="M656 708.999l89-7 116.798 190.464L827 907.999l-45 6-126-205zM766.638 704.27h23.144L891 865l-14 11-110.362-171.73zM1076.5 715h18l82 115-11 16-89-131zM961.076 699.264L1053 705l102.75 149.657L1130.5 881l-43.61 17.205-125.814-198.941z" fill="#fff" fill-opacity=".9"/><path d="M606.318 716.472c95.222-8.873 410.972-33.645 575.062 10.575 1.66.448 2.89 1.625 3.3 3.297 4.9 19.994 29.97 149.958-140.21 173.418-28.09 3.88-56.602-5.94-75.622-27-10.05-11.11-24.47-21-44-21-21.81 0-38.66 12.64-50.2 25.56a87.103 87.103 0 01-68.66 29c-69-2.89-188.31-28-221.92-162.37a25.404 25.404 0 0122.25-31.48zM584.08 748.012L356 777.042M598.32 795L356 822" stroke="#000" stroke-width="20" stroke-miterlimit="10"/></g><defs><clipPath id="prefix__clip0_53_26787"><path fill="#fff" d="M0 0h1500v1500H0z"/></clipPath></defs>
      <g clip-path="url(#prefix__clip0_53_26339)"><path d="M1294.36 589.74c21.14 26.76 22.63 46.39 25.92 73.14 3.56 28.84-.01 57.69-25.92 85.99-21.28 23.26-51.52 36.3-91.11 55.87.99-14.52-1-35.25-3.88-50.75 26.43-18.93 47.28-17.44 42.91-53.12-4.19-33.96-36.25-46.42-98.91-61.87l-201.05-19.15-232 20.5-294.5 59.5-64.5 33 .46-7c-53.43 29.1-70.64 50.43-66.57 83.65 3.43 27.8 19.18 22.03 63.18 39.38 3.67 25.62 9.9 53.19 13.81 62-109.44-27.14-143.21-51.93-149.88-106-3.3-26.75 1.42-71.2 26.5-100 25.63-29.36 43.06-40.24 93.63-66.91a733.43 733.43 0 0125.83-13L399.501 593l61-107.5 117.5-209.5-233.5 85c-20.167 3.667-55.9.9-37.5-39.5s160.333-133.5 229-175l98.5-92c22-15.833 72.8-36.3 100 8.5 27.2 44.8 84 153.667 109 202.5 7.333-4.167 27.5-2.7 49.5 36.5s77.167 91.333 102 112.5l91.999 86-12.72 7.34 7.91 12.55a826.4 826.4 0 0120.61 3.13c.94.274 1.91.436 2.89.48 19.74 3.333 38.7 7.22 56.88 11.66 55.53 13.61 99.87 31.81 131.79 54.08z" fill="#53B6F9"/><path d="M572.28 524.39L544 506.7l-28.28 17.69a2.995 2.995 0 01-3.321-.134 2.997 2.997 0 01-1.159-3.116l8.09-32.36-25.26-21.42a3.004 3.004 0 01-.914-3.213 3.002 3.002 0 012.624-2.067l33-2.3 12.47-30.94a3.126 3.126 0 012.77-1.684 3.118 3.118 0 012.77 1.684l12.47 30.94 33 2.3a3.005 3.005 0 012.625 2.067 3.002 3.002 0 01-.915 3.213l-25.26 21.42 8.09 32.36a2.999 2.999 0 01-4.52 3.25zM734 411.709l-15.64-29.46-33.36 1.19a3 3 0 01-2.26-5.06l23.19-24-11.17-31.18a3.001 3.001 0 014.12-3.71l29.7 14.51 26.27-20.56c1.92-1.5 5.13.36 4.8 2.78l-4.67 33 27.41 18.48a3.004 3.004 0 011.242 3.104 2.993 2.993 0 01-2.402 2.326l-32.59 5.92-9.17 32.07a3.002 3.002 0 01-4.273 1.792 2.997 2.997 0 01-1.237-1.222l.04.02zM890.1 490.36l9.9-31.85-24.33-22.82a2.996 2.996 0 012-5.17l33.35-.44 14.26-29.9a2.996 2.996 0 012.873-1.701 3.007 3.007 0 012.667 2.011l10.64 31.29 33.1 4.16a3.121 3.121 0 011.44 5.36l-26.73 20 6.2 32.47a3.007 3.007 0 01-1.329 3.056 2.997 2.997 0 01-3.331-.056l-27.17-19-29.22 16.08a3.002 3.002 0 01-4.29-3.5l-.03.01zM733 211.709l-15.64-29.46-33.36 1.19a3 3 0 01-2.26-5.06l23.19-24-11.17-31.18a3.001 3.001 0 014.12-3.71l29.7 14.51 26.27-20.56c1.92-1.5 5.13.36 4.8 2.78l-4.67 33 27.41 18.48a3.004 3.004 0 011.242 3.104 2.993 2.993 0 01-2.402 2.326l-32.59 5.92-9.17 32.07a3.002 3.002 0 01-4.273 1.792 2.997 2.997 0 01-1.237-1.222l.04.02zM427 333.709l-15.64-29.46-33.36 1.19a3 3 0 01-2.26-5.06l23.19-24-11.17-31.18a3.001 3.001 0 014.12-3.71l29.7 14.51 26.27-20.56c1.92-1.5 5.13.36 4.8 2.78l-4.67 33 27.41 18.48a3.004 3.004 0 011.242 3.104 2.993 2.993 0 01-2.402 2.326l-32.59 5.92-9.17 32.07a3.002 3.002 0 01-4.273 1.792 2.997 2.997 0 01-1.237-1.222l.04.02z" fill="#fff"/><path d="M348.42 846.281c-25.82-10.39-61.32-31-63.07-43.16-.89-6.19 1.63-13.14 7.48-20.65 5.68-7.28 38.42-30.19 60.64-43.17 0 0-11.96 53.49-5.05 106.98zM1198.06 746.151c-4.93-27.29-14.85-57.46-26-82.85 34.65 12.3 55.07 12.7 56.76 24.46 16.91 38.14-11.23 44.1-30.76 58.39z" fill="#4296D5"/><path d="M585 540.001c-24.8 49.2-22.666 106.833-18.5 129.5-95.999 16.001-181 50.666-211.5 65.999l-55 36-6.5 38.5 23 21.5 31 11.5 4 11.5 10.5 50-45.5-12.5-58.5-26-38.5-56-9.5-33.5 9.5-35.5 33.5-52 135-84.5 134.5-220 53-110.5c-67.667 27.667-208.9 85.2-232.5 94-23.6 8.8-38.5-21.667-43-38l43-34.5c28.333-8.666 95.6-32.499 138-58.499 53-32.5 104-57 147.5-42.5s24.5 96.5-35 196.5c-47.6 80-54.5 138-52 157l43.5-8zM725 301c-12.8 1.2-15.667 5.5-15.5 7.5l15.5 4c6.333-.333 24-2.5 44-8.5 25-7.5 72.5-34 73.5-33.5S824 240 820.5 241c-3.405.973-14.381 9.99-27.865 21.067L791.5 263c-14 11.5-50.5 36.5-66.5 38z" fill="#001647" fill-opacity=".2"/><path d="M357.36 851.001c-41.74-13-65-25.49-68.05-46.62-9.31-65.15 196-140.45 458.69-168.13 262.69-27.68 483.27 2.62 492.64 67.76 3 21-13.55 30.71-49.42 47.09M1109 516.591s-167.34-116.29-222.73-237.36a26.983 26.983 0 00-7.543-9.775 26.99 26.99 0 00-23.452-5.283 27.005 27.005 0 00-11.005 5.598c-25.9 21.87-69.49 47.74-128.86 44.9" stroke="#000" stroke-width="20" stroke-miterlimit="10" stroke-linecap="round"/><path d="M844.27 269.77L731.57 66.18a55.588 55.588 0 00-85.12-15L311.51 316.06c-22.8 19.83-2.67 56.79 26.36 48.38l240.24-90.12M387.05 604s188-291.12 208.11-366.93" stroke="#000" stroke-width="20" stroke-miterlimit="10" stroke-linecap="round"/><path d="M370.5 912.5C276 893 221.2 849.67 213.62 788.11c-14.27-115.64 221.25-239.75 526-277.3 304.75-37.55 563.41 25.85 577.67 141.48 7.6 61.7-12.64 102.12-119.81 154.21" stroke="#000" stroke-width="20" stroke-miterlimit="10"/></g><defs><clipPath id="prefix__clip0_53_26339"><path fill="#fff" d="M0 0h1500v1500H0z"/></clipPath></defs>
      
    </g>
    </svg>