<svg
      xmlns="http://www.w3.org/2000/svg"
      preserveAspectRatio="xMidYMin meet"
      fill="none"
      viewBox="0 0 1500 1500"
    >
      <g>
      <path fill="url(#prefix__paint0_linear_53_30463)" d="M0 0h1500v1500H0z"/><defs><linearGradient id="prefix__paint0_linear_53_30463" x1="1500" y1="1500" x2="0" y2="0" gradientUnits="userSpaceOnUse"><stop stop-color="#FF5A5A"/><stop offset="1" stop-color="#FFBDBD"/></linearGradient></defs>
      <g clip-path="url(#a)"> <path fill="#53B6F9" d="M1262.8 1506.5H289.2l3.7-72.5 22.2-107.3L351 1204l56.5-72.5s33.8-23.9 98.5-52 225-35.5 225-35.5 187.3-9 340.5 50.5c153.2 59.6 191.3 412 191.3 412Z"/> <path fill="#000" fill-rule="evenodd" d="m973.8 1356.7 18 2.6 11.2-18-4-2.8 3.2-4.6-4-2.8-3 4.9-4-2.8-7 11-11.4-1.8-8.9-26.4-3.6 1 3.4 9.5-5.3 1.5-3.5-9.4-3.9 1 7.7 21.3-17.5-2.6-11.2 18 4 2.8-3 4.8 4 2.8 2.8-5 3.8 2.5 7-11.3 11.2 1.5.8 7.7-17.3 9 2 20.5h4.6l.6 6.4h4.5l-.6-6.2h4.5l-1.2-11.7 11-5.7 12 5.7 1.2 11.8h4.5l.6 6.1h4.5l-.6-6.2h4.7l-2-20.5-19.2-9.2-.6-5.4Zm-1-10 13.5 2.1 6.2-10 .5.3 4 2.8.6.2-8 12.9-16.2-2.4-.6-5.8Zm-26.3 2.1-6.2 10-4.9-3.3 8-12.8 15.5 2.3.6 5.8-13-2Zm43.8 24.9 1.4 14H986l-1-10.2-16.4-7.7-14.7 7.7 1 10.3h-6l-1.3-13.9 17.3-9-2.2-23.5-3.4-9.5 5.3-1.6 3.7 11.6 2.3 22.8 19.7 9Z" clip-rule="evenodd"/> <path stroke="#000" stroke-linecap="round" stroke-miterlimit="10" stroke-width="20" d="m807.8 1194.5 10 141.8m-41.8-16.8c0-.6.5-1.1 1-1.1m1.2 1a1 1 0 1 1-2.2 0 1 1 0 0 1 2.2 0Zm-2.2-37.1c0-.6.5-1.1 1-1.1m1.2 1a1 1 0 1 1-2.2 0 1 1 0 0 1 2.2 0Zm-2.2-37.1c0-.6.5-1 1-1m1.2 1a1 1 0 1 1-2.2 0 1 1 0 0 1 2.2 0Z"/> <path stroke="#000" stroke-linecap="round" stroke-width="20" d="M289.5 1512.5c-6-101.5 31-323 140.5-398 158.5-108.5 616.5-87 706.5 26 65 81.5 99.5 222.5 132.5 371M1084.5 1337c12.3 37 29.5 110.3 43.5 175.5m-646.5 0c.3-32.8 7.7-107.6 20.5-157"/> <path fill="#F56CDB" d="m467.6 1110.5 7.4-39 62.5-15.5 72-5.5 53-8h147l104.5 8 107 8.1 53.6 19-3.8 40.8-21.3 55-90.7 68.1-76.5 24.3-62.8-69.8a20 20 0 0 0-31.6 2.5l-44 67.3-58.9 2.7-143.7-46.2-68.6-65.1-5.1-46.7Z"/> <path stroke="#000" stroke-width="20" d="M535 1214c-83.6-40.4-76.5-113.2-62.5-144.5 266-49.2 513.5-20.2 604 .5 21.5 119.7-113.1 181.3-188.3 198.7-3.5.9-7.2-.4-9.6-3.2l-54.1-62.5a21 21 0 0 0-32.3.6l-50 62.4c-2 2.5-5 4-8.3 3.7A610.8 610.8 0 0 1 535 1214Z"/> <path fill="#001647" fill-opacity=".2" d="M489 1227.5c-82.4 87.6-103 222.5-103 279h-97l5.5-106.5c6.7-44.8 30.2-150.7 71-215.5 40.8-64.8 83-83 99-84l9-27h22l52.5-13 150-15h113.5c-160.4 46.4-265.5 121.3-298 153l120 56.5 103 23.5c-123.6 19.6-216.5-25.8-247.5-51Zm370.2 48.3-44.2-46.3-3-28.5 74.5 69c-.4 2.8-4.2 6-8.5 8.8-6 4-13.8 2.2-18.8-3Z"/> </g> <defs> <clipPath id="a"> <path fill="#fff" d="M0 0h1500v1500H0z"/> </clipPath> </defs>
      <g clip-path="url(#prefix__clip0_299_662)"><path d="M775 1185c231.41 0 419-168.12 419-375.5 0-207.383-187.59-375.5-419-375.5-231.407 0-419 168.117-419 375.5 0 207.38 187.593 375.5 419 375.5z" fill="#ABF"/><path d="M457.5 796c7.6 194 131.833 327.5 193 370l-130-55.5L438 1034l-57.5-89.5-27-106 11-104L394 662l45-82.5 83.5-69.5 109-54.182 28.5-1C569.452 513.314 451.119 633.132 457.5 796z" fill="#001647" fill-opacity=".2"/><path d="M775 1185c231.41 0 419-168.12 419-375.5 0-207.383-187.59-375.5-419-375.5-231.407 0-419 168.117-419 375.5 0 207.38 187.593 375.5 419 375.5z" stroke="#000" stroke-width="20"/></g><defs><clipPath id="prefix__clip0_299_662"><path fill="#fff" d="M0 0h1500v1500H0z"/></clipPath></defs>
      <g clip-path="url(#prefix__clip0_53_29110)" stroke="#000" stroke-width="20" stroke-linecap="round"><path d="M837 1021c38.588-40 113.402-40 152 0" stroke-miterlimit="10"/><path d="M824.154 764.036l-30.611 8.918-32.772 9.542-41.574 12.113"/><path d="M804.04 779.081a29.907 29.907 0 018.308 31.838 29.906 29.906 0 01-25.97 20.205 29.912 29.912 0 01-25.607-48.628l32.781-9.507a29.715 29.715 0 0110.488 6.092z" fill="#000"/><path d="M1082.75 794.607l-41.57-12.114-32.77-9.541-30.615-8.919"/><path d="M997.916 778.954a29.91 29.91 0 0034.454 48.422 29.957 29.957 0 0012.03-12.26 29.902 29.902 0 00-3.22-32.748l-32.78-9.506a29.788 29.788 0 00-10.484 6.092z" fill="#000"/></g><defs><clipPath id="prefix__clip0_53_29110"><path fill="#fff" d="M0 0h1500v1500H0z"/></clipPath></defs>
      <path fill-rule="evenodd" clip-rule="evenodd" d="M873.72 749.551a77.974 77.974 0 01-2.12 28.009c-12 46-43.43 116-123.08 116-78.08-.01-109.77-67.3-122.34-113.32a76.54 76.54 0 01-1.491-6.613 575.778 575.778 0 01-19.519-2.647c-19.733-3.014-46.514-8.099-74.574-16.389-28-8.273-57.66-19.85-82.929-36.01-25.242-16.143-46.806-37.321-57.335-65.028l18.696-7.105c8.471 22.292 26.282 40.49 49.415 55.284 23.106 14.778 50.821 25.701 77.82 33.678 26.941 7.96 52.785 12.875 71.927 15.799a560.937 560.937 0 0015.613 2.165c2.272-25.235 17.045-48.105 39.927-58.564C682.92 686 710 679.25 748 678.56c2.1-.04 4.24-.06 6.42-.06 31.85 0 55.55 4.17 73.18 10.32 19.495 6.785 34.154 22.272 41.436 41.234 20.561-6.57 46.94-16.704 73.236-31.517C998.125 667.074 1051.68 615.752 1051.68 534h20c0 92.248-60.95 148.926-119.592 181.963-28.405 16-56.722 26.749-78.368 33.588z" fill="#000"/>
      <g clip-path="url(#a)"> <path fill="#3A3A3A" d="m500.5 506.5-86.7 95.8-7.6 25.9-16.5-13v21.3l-14.2 29-6.5 26-5.9 13.5v27.4l137.4-36 281.9-43.8 203.1-20.4 163.5 6.4-33.6-56.8-44.6-50.8-54.2-42.4-85.2-40.4-124-19L652 439.8l-151.5 66.8Z"/> <path fill="#000" fill-opacity=".2" d="M692 440c-99.6 64.8-158.8 200-176 259.5L358.5 723c5.8-27.8 34.4-102.3 102-177.5S643 443.8 692 440Z"/> <path stroke="#000" stroke-linecap="round" stroke-miterlimit="10" stroke-width="20" d="M365.8 728.5C438.7 708.9 866 599.4 1145 639a6.9 6.9 0 0 0 7.8-6.6c0-1.3-.3-2.6-1-3.7-30.3-49.7-159.9-231.8-425.3-200-291 35-357.4 241.3-369.3 291.5a6.7 6.7 0 0 0 1.9 6.5 6.9 6.9 0 0 0 6.5 1.7h0Z"/> </g> <defs> <clipPath id="a"> <path fill="#fff" d="M0 0h1500v1500H0z"/> </clipPath> </defs>
      
    </g>
    </svg>