<svg
      xmlns="http://www.w3.org/2000/svg"
      preserveAspectRatio="xMidYMin meet"
      fill="none"
      viewBox="0 0 1500 1500"
    >
      <g>
      <path fill="url(#prefix__paint0_linear_53_28789)" d="M0 0h1500v1500H0z"/><defs><linearGradient id="prefix__paint0_linear_53_28789" x1="1500" y1="1500" x2="0" y2="0" gradientUnits="userSpaceOnUse"><stop stop-color="#FFD130"/><stop offset="1" stop-color="#FFEEDB"/></linearGradient></defs>
      <g clip-path="url(#prefix__prefix__clip0_53_27930)"><path d="M460.5 1094.5c-138.4 66.4-174 309.33-174.5 422.5h983.5c-12.5-72.17-53.2-244.1-116-354.5-78.5-138-520-151-693-68z" fill="#ABF"/><path d="M1122 1500H482.719s14.6-102.81 14.89-104.16c.16-.75 5.35-20.38 9.88-37.48 3.54-13.39 2.68-25.22 2.68-25.22l-3-41.2-13.59-80.17s-35.41-62.15-46.49-85.15c-1.163-2.27-3.185-8.61-4.06-11-.24-.75-.3-1.21-.16-1.35a56.197 56.197 0 017.23-4.17c4.75-2.53 11.27-5.85 17.94-9.21 14-7 29.51-13.16 29.51-13.16l.82.49L526 1080.5l85-22.5 22 68.5 27.999 47.96 5.58 5.39s-7.079 1.65 0 .09c.09.44.55 2.47 1.49 5.71l.18.63c.12.43.26.88.4 1.35 0 .12.07.23.11.35-6.759 1.13.19.64.29 1a.565.565 0 000 .13c3.006 9.48 15.138 18.57 20.31 27.07 13 21.59 36.75 47.51 81.14 73.38 1.44.84 2.904 1.68 4.39 2.52.468.49.811 1.08 1 1.73 1.46 3.51 3.32 11 4.65 11.2 0 0 40.23 23 40.26 23l.61.06c4.465.53 8.98.44 13.42-.26 32.63-5.36 34.42-46.34 49.23-59.56.21-.18.41-.37.61-.56 14.4-13.07 19.65-26.22 19.65-26.22l4-23.61 3.93-23 12.251-45.36 11.5-88 54.5 10.5 42 12.5 16.74 2.21.5-.32 1.59 1 .35.23 17.57 11.28 8.36 5.37-.11 4.47v.74l-6.93 171.5-.49 19.75 11.26 39.08 17.84 61.93L1122 1500z" fill="#4AEEB9"/><path d="M958.16 1333.32l12.2-23.4 30.36 34h17l-52-58.93-30.72 58.93h57.64l-20.12-22.55-6.24 12-8.12-.05z" fill="#fff"/><path d="M951 1066.5v18c-4 170.5-79.99 232.42-107.82 259.53a20.288 20.288 0 01-25.25 2.51C614 1227.5 601 1076 601 1076l-1.5-15" stroke="#fff" stroke-width="20" stroke-miterlimit="10" stroke-linecap="round"/><path d="M531.14 1371.41c-9.12 44.92-14.91 82.08-18.23 116.94L511.8 1500h-20.05c0-.31 0-.63.05-1l1.2-12.59c3.39-35.59 9.28-73.41 18.54-119 .08-.37.15-.75.22-1.13 9.84-49.47 15-145.34-55.75-245.36a399.48 399.48 0 00-4.19-5.81 9.682 9.682 0 01-.67-1 9.994 9.994 0 01-.944-7.28 10.03 10.03 0 014.284-5.97 9.98 9.98 0 017.203-1.42 9.958 9.958 0 016.237 3.87l1.16 1.59.5.69c1.35 1.85 2.66 3.7 3.95 5.55 74.31 106.23 68.17 208.23 57.6 260.27zM1111.83 1500h-20.25l-10.86-48.68c-7.71-34.55-15.38-65.35-23.46-94.17-16.34-58.81-20.97-119.9-17.63-180.85 1.88-33.39 6.34-57.43 8.73-68.45.89-4.09 1.49-6.38 1.58-6.7.18-.69.45-1.36.78-2a.139.139 0 010-.09 10.02 10.02 0 015.24-4.65c2.25-.87 4.74-.89 7-.07 2.27.82 4.16 2.44 5.34 4.54a10.01 10.01 0 011.04 6.93l-.12.5c0 .06-.39 1.48-1 4.12-.32 1.42-.7 3.2-1.13 5.32-.56 2.79-1.19 6.16-1.86 10.07a467.162 467.162 0 00-5.74 52.24c-3.02 56.71.89 113.54 15.51 168.41.47 1.76.96 3.53 1.45 5.3 6.65 23.69 13 48.7 19.34 76 0 .18.08.36.13.54 1.41 6.12 2.83 12.35 4.25 18.7l8.19 36.68c.06.3.13.6.19.89l3 13.29c.17.7.26 1.41.28 2.13zm-352.245 56.96c-10.237-9.39-16.514-22.76-18.832-40.12l-11.826-88.7c-2.465-18.59-.014-32.76 7.352-42.51 7.366-9.75 19.686-14.63 36.96-14.63 17.372 0 31.05 4.88 41.035 14.63 9.985 9.75 16.217 23.92 18.695 42.51l11.827 88.7c2.331 17.5-.378 30.91-8.13 40.23-7.751 9.32-20.004 13.97-36.76 13.94-16.609 0-30.049-4.69-40.321-14.05zm42.012-26.06a15.126 15.126 0 001.481-9.45l-12.919-96.92c-.756-5.63-1.985-9.95-3.665-12.92-1.681-2.97-4.527-4.45-8.487-4.45-3.959 0-6.302 1.48-7.173 4.45-.872 2.97-.862 7.29-.105 12.92l12.918 96.92c.406 3.44 1.75 6.71 3.886 9.45a9.315 9.315 0 003.274 2.9 9.228 9.228 0 004.236 1.1c1.37.04 2.724-.31 3.896-1.02a7.117 7.117 0 002.711-2.98h-.053zm100.239 35.65a47.845 47.845 0 01-18.779-13.13 39.217 39.217 0 01-9.211-21.01l-2.805-21h37.685l.515 3.88a57.03 57.03 0 003.896 15.55 8.915 8.915 0 003.46 4.26 8.96 8.96 0 005.3 1.45c4.274 0 7.121-1.18 8.56-3.55 1.438-2.37 1.848-5.9 1.218-10.63l-5.252-39.31a16.96 16.96 0 01-7.352 8.4 24.849 24.849 0 01-13.065 3.15c-10.671 0-19.221-2.13-25.649-6.4-6.427-4.27-11.325-10.58-14.693-18.92-3.403-8.4-6.018-19.45-7.846-33.14-2.801-20.88-.98-36.96 5.462-48.23 6.441-11.27 18.789-16.91 37.044-16.92 13.401 0 24.296 2.29 32.685 6.86a44.999 44.999 0 0119.199 20.57c4.426 9.1 7.611 21.01 9.558 35.71l7.069 53.04c2.702 20.27 3.609 36.23 2.72 47.88-.89 11.65-4.804 20.57-11.743 26.75-6.952 6.17-18.278 9.26-33.977 9.25a64.43 64.43 0 01-23.999-4.51zm19.704-120.57l-3.267-24.46c-1.267-9.6-5.181-14.4-11.742-14.4-4.117 0-6.53 1.64-7.237 4.91-.707 3.28-.57 8.58.41 15.89l2.101 16c1.4 10.67 5.156 16 11.269 16 6.904 0 9.726-4.65 8.466-13.94z" fill="#fff"/><path d="M485.5 1201.5c-85.6 92.8-105.334 241.67-104.5 304.5h-92.5l5-77.5 16.5-87 34-110 53-89.5 66.5-44 70-31 80-9.5 12 18c-11.839 5.79 10.003 11.89-2 18.86-41.935 24.34-81.989 53.15-100 67.14 31.5 56 43 144.5 23 243.5-9.101 45.05-11.5 101.17-10.5 125.5l-57-24.5c6-21.17 19.6-82.4 26-158 6.4-75.6-10.334-129.17-19.5-146.5z" fill="#001647" fill-opacity=".2"/><path d="M931.5 1061v10c0 163.5-67.83 223.11-97.03 257.41a7.965 7.965 0 01-5.183 2.75 7.977 7.977 0 01-5.667-1.52C783 1299.29 645 1217 620 1071l-2-13.5" stroke="#000" stroke-width="20" stroke-miterlimit="10" stroke-linecap="round"/><path d="M511.761 1366.3c0 .32 0 .66-.05 1-.22 2.89-14 61.77-19 132.69h-20v-.69a924.796 924.796 0 0119.51-134.6c.57-2.4 2.009-4.51 4.04-5.92a10.042 10.042 0 017.96-1.51c1.105.24 2.181.61 3.21 1.08 3 1.4 4.44 3.71 4.33 7.95zM1132 1500h-20.2c-.55-2.72-1.65-8.14-3.2-15.47-.06-.29-.13-.59-.19-.89-2.91-13.76-7.3-33.87-12.44-55.38 0-.18-.09-.36-.13-.54-6.23-26-13.56-54-20.69-75.23a9.999 9.999 0 016.19-12.63h.1l.39-.11c2.48-.72 5.13-.46 7.42.74a9.996 9.996 0 014.85 5.66c18.25 54.24 36.92 148 37.71 151.94.12.63.19 1.27.19 1.91z" fill="#000"/><path d="M443.891 1118.21s87.82 94.17 57 252.68m583.569-22.07c-32.76-108.75-9.81-228.49-9.81-228.49l4.35-17.83" stroke="#000" stroke-width="20" stroke-miterlimit="10" stroke-linecap="round"/><path d="M289.5 1512.5c-6-101.5 31-323.03 140.5-398 158.5-108.51 616.5-87 706.5 26 64.91 81.5 99.5 222.5 132.5 371" stroke="#000" stroke-width="20" stroke-linecap="round"/></g><defs><clipPath id="prefix__prefix__clip0_53_27930"><path fill="#fff" d="M0 0h1500v1500H0z"/></clipPath></defs>
      <g clip-path="url(#prefix__clip0_299_662)"><path d="M775 1185c231.41 0 419-168.12 419-375.5 0-207.383-187.59-375.5-419-375.5-231.407 0-419 168.117-419 375.5 0 207.38 187.593 375.5 419 375.5z" fill="#ABF"/><path d="M457.5 796c7.6 194 131.833 327.5 193 370l-130-55.5L438 1034l-57.5-89.5-27-106 11-104L394 662l45-82.5 83.5-69.5 109-54.182 28.5-1C569.452 513.314 451.119 633.132 457.5 796z" fill="#001647" fill-opacity=".2"/><path d="M775 1185c231.41 0 419-168.12 419-375.5 0-207.383-187.59-375.5-419-375.5-231.407 0-419 168.117-419 375.5 0 207.38 187.593 375.5 419 375.5z" stroke="#000" stroke-width="20"/></g><defs><clipPath id="prefix__clip0_299_662"><path fill="#fff" d="M0 0h1500v1500H0z"/></clipPath></defs>
      <g clip-path="url(#prefix__clip0_53_29369)" stroke="#000" stroke-width="20" stroke-miterlimit="10"><path d="M729.63 808.821l88.08-16a7.737 7.737 0 006.23-6.4 7.757 7.757 0 00-.73-4.64 7.674 7.674 0 00-3.27-3.35l-82.39-43.72M1087 808.821l-87.999-16a7.71 7.71 0 01-6.23-6.4 7.784 7.784 0 01.72-4.63 7.65 7.65 0 013.28-3.36l82.389-43.72" stroke-linecap="round"/><path d="M1000 1001.64c0 35-39.4 63.36-88 63.36s-88-28.36-88-63.36a47.358 47.358 0 014.59-20.231c6.41-13.7 21-19 33.42-12.86 14.2 7.07 31.42 11.21 50 11.21s35.79-4.14 50-11.21c12.4-6.18 27-.84 33.42 12.86a47.337 47.337 0 014.57 20.231z" fill="#fff"/></g><defs><clipPath id="prefix__clip0_53_29369"><path fill="#fff" d="M0 0h1500v1500H0z"/></clipPath></defs>
      <g clip-path="url(#prefix__clip0_53_27350)"><path d="M695 882.421v6.14a7.746 7.746 0 01-.67 3.22c-1.26 2.86-3.34 3-3.34 3a7.817 7.817 0 01-6.39-1.32c-2.64-2.11-9.24-20.21-9.24-20.21l-12.71 20.21H654l17.8-28.21-5.59-11.59a4.654 4.654 0 00-4.07-2.64H662a4.724 4.724 0 00-4.13 1.7c-.89.89-1.21 3.78-1.21 3.78l-1.78.13a22.972 22.972 0 01-.13-5.28 7.776 7.776 0 011.34-3.76 5.694 5.694 0 014.83-2.61 7.816 7.816 0 014.51 1.43 8.67 8.67 0 013 3.74l5.26 13.05 11.44-17.4H693l-15.8 24.51 3.94 9.32s3 9 7.31 9 4.71-6.22 4.71-6.22l1.84.01z" fill="#000"/></g><defs><clipPath id="prefix__clip0_53_27350"><path fill="#fff" d="M0 0h1500v1500H0z"/></clipPath></defs>
      <g clip-path="url(#prefix__clip0_53_26033)"><path d="M181.5 727.5L92 618l10-25 124.5-66 217-60.5 229-48 340-20.5 347.5 10.5 16 27-45 127.5-105.5-15H908c-109 15.67-349.7 51.6-440.5 70-90.8 18.4-228.5 80.67-286 109.5z" fill="#FF6247"/><path d="M309.008 666.717l-135.654 53.652 22.52-168.239 113.134 114.587zm28.828-8.013l-8.106-1.979 22.532-157.782L471.69 618.441l-133.854 40.263zm153.629-45.511l44.562-162.274 125.132 128.853-67.982 10.002-.239.035-.236.054-101.237 23.33zm464.238-67.473l-99.407 5.763 82.316-151.379 102.518 148.241-84.894-2.632-.267-.008-.266.015zm193.907 3.99l-85.95-.888 94.81-148.188 80.27 154.056-88.86-4.971-.13-.007-.14-.002zm179.89 10.057l-76.78-4.295c.7-.817 1.53-1.785 2.48-2.89 3.28-3.814 7.98-9.265 13.65-15.805 11.35-13.083 26.56-30.521 42.07-47.954 15.52-17.444 31.29-34.837 43.75-47.85 6.24-6.518 11.58-11.86 15.61-15.544.26-.237.51-.466.76-.687-.13 4.233-.99 9.997-2.48 16.974-3.07 14.314-8.58 32.614-14.63 50.784-6.03 18.128-12.53 35.952-17.53 49.256-2.5 6.648-4.62 12.161-6.12 16.008-.28.729-.54 1.398-.78 2.003zm41.03-140.378c-.01-.016-.01-.024-.01-.025 0-.001 0 .007.01.025zM673.795 577.913l55.742-162.117 105.051 138.462-160.793 23.655z" fill="#87C848" stroke="#fff" stroke-width="12"/><path d="M457.56 306.169l-62.25 172.57 277.19-60.24 358.5-29.83c-3.16-12.17-28.7-47-82.7-138.17-143.43-124.29-261.3-91.75-330.3-79.41l-91.47 50.91-68.97 84.17zM1135.5 551.72l-1-4.72h-215l-289 33.5-280 70-2.83 8.19c-38.71 12.84-66.22 23.36-90.81 33.53-30.37 12.53-61.7 25.58-74.56 32 11.32 12.69 31.25 40.16 44.55 50.76 24.57 19.58 70.31 43.26 119.61 53.61 0-2.24-.59-14.78-.54-17 .88-39 3.73-61.39 13.41-91.19L534.5 674 699 637l217.37-20.67 225.78-6a313.3 313.3 0 0125 43.25c9.56 17.72 17.13 40.75 20.69 50.33 44.73-16.27 74.33-38.5 100.13-73.87 9.36-12.77 35.27-52.64 41.25-67.3-57.66-5.64-130.66-9.21-193.72-11.02z" fill="#FFBF44"/><path d="M1141.47 620.319c-426-29-778.47 109.39-778.47 109.39M1173 706.461c133-40 158-147 158-147-722-75-1155.92 166.54-1155.92 166.54S242 818.461 359 834.461" stroke="#000" stroke-width="20" stroke-miterlimit="10"/><path d="M175.08 726L97 620.69a22.873 22.873 0 01-.06-27.198 22.87 22.87 0 017.22-6.382c92.21-51.85 477.09-234.48 1247.25-181.78a23.03 23.03 0 019.95 3.039 22.999 22.999 0 017.61 7.102 22.965 22.965 0 013.72 9.722c.48 3.482.17 7.027-.93 10.367L1331 559.46" stroke="#000" stroke-width="20" stroke-miterlimit="10"/><path d="M395.31 478.74l37.8-117.19C521.92 100 857.42 87.91 990.25 309l45.5 89" stroke="#000" stroke-width="20" stroke-miterlimit="10"/><path d="M636 169.5c-34.167 30.833-105.4 123-117 245C580 397 764 363 1012 367l20.5 27.5L828 403l-40.5 13.5c-65.667 18.667-222.2 85.1-323 201.5l-32.665 11.27c34.77-10.972 66.486-20.622 90.665-27.77L803 556l267.5-11 254.5 16-30.5 63-50.5 41-59 32.5c-24.4-58.4-39.83-81.333-44.5-85.5-24.83 2-75.3 6-78.5 6H903.5l-220 25-253 56.5-69 20.5c-12.8 26.8-15.333 83.833-15 109-60.4 3.6-144.5-67.167-179-103a251.943 251.943 0 016.403-3.314L91.5 609.5c2.667-11.333 18.4-36.9 60-48.5 41.6-11.6 183.333-62.167 249-86 12-61.833 52.5-197.5 118.5-245.5s105.5-60 117-60z" fill="#001647" fill-opacity=".2"/></g><defs><clipPath id="prefix__clip0_53_26033"><path fill="#fff" d="M0 0h1500v1500H0z"/></clipPath></defs>
      
    </g>
    </svg>