<svg
      xmlns="http://www.w3.org/2000/svg"
      preserveAspectRatio="xMidYMin meet"
      fill="none"
      viewBox="0 0 1500 1500"
    >
      <g>
      <path fill="url(#prefix__paint0_linear_53_30459)" d="M0 0h1500v1500H0z"/><defs><linearGradient id="prefix__paint0_linear_53_30459" x1="0" y1="0" x2="1500" y2="1500" gradientUnits="userSpaceOnUse"><stop stop-color="#FFCB9F"/><stop offset="1" stop-color="#FF7F11"/></linearGradient></defs>
      <g clip-path="url(#prefix__clip0_53_27893)"><path d="M460.5 1094.5c-138.4 66.4-174 309.33-174.5 422.5h983.5c-12.5-72.17-53.2-244.1-116-354.5-78.5-138-520-151-693-68z" fill="#ABF"/><path d="M1122 1500H482.719s14.6-102.81 14.89-104.16c.16-.75 5.35-20.38 9.88-37.48 3.54-13.39 2.68-25.22 2.68-25.22l-3-41.2-13.59-80.17s-35.41-62.15-46.49-85.15c-1.163-2.27-3.185-8.61-4.06-11-.24-.75-.3-1.21-.16-1.35a56.197 56.197 0 017.23-4.17c4.75-2.53 11.27-5.85 17.94-9.21 14-7 29.51-13.16 29.51-13.16l.82.49L526 1080.5l85-22.5 22 68.5 27.999 47.96 5.58 5.39s-7.079 1.65 0 .09c.09.44.55 2.47 1.49 5.71l.18.63c.12.43.26.88.4 1.35 0 .12.07.23.11.35-6.759 1.13.19.64.29 1a.565.565 0 000 .13c3.006 9.48 15.138 18.57 20.31 27.07 13 21.59 36.75 47.51 81.14 73.38 1.44.84 2.904 1.68 4.39 2.52.468.49.811 1.08 1 1.73 1.46 3.51 3.32 11 4.65 11.2 0 0 40.23 23 40.26 23l.61.06c4.465.53 8.98.44 13.42-.26 32.63-5.36 34.42-46.34 49.23-59.56.21-.18.41-.37.61-.56 14.4-13.07 19.65-26.22 19.65-26.22l4-23.61 3.93-23 12.251-45.36 11.5-88 54.5 10.5 42 12.5 16.74 2.21.5-.32 1.59 1 .35.23 17.57 11.28 8.36 5.37-.11 4.47v.74l-6.93 171.5-.49 19.75 11.26 39.08 17.84 61.93L1122 1500z" fill="#FF6247"/><path d="M763.124 1587.71c-11.057-10.18-17.837-24.68-20.341-43.52l-12.773-96.2c-2.678-20.17-.031-35.54 7.941-46.12 7.971-10.58 21.263-15.87 39.875-15.87 18.764 0 33.538 5.29 44.322 15.87 10.785 10.58 17.516 25.95 20.193 46.12l12.785 96.25c2.519 18.99-.408 33.53-8.78 43.64s-21.607 15.15-39.705 15.12c-17.955-.03-32.46-5.13-43.517-15.29zm45.377-28.26a16.412 16.412 0 001.588-10.26l-13.942-105.2c-.805-6.11-2.133-10.79-3.948-14.02-1.815-3.22-4.889-4.83-9.166-4.83s-6.863 1.61-7.748 4.83c-.885 3.23-.93 7.91-.125 14.02l13.954 105.12a20.75 20.75 0 004.208 10.26 10.232 10.232 0 003.536 3.15c1.41.75 2.978 1.16 4.576 1.19a7.702 7.702 0 004.16-1.09 7.744 7.744 0 002.919-3.17h-.012zM890.216 1437.04a24.615 24.615 0 01-10.625 8.42 33.793 33.793 0 01-14.046 3.22L861 1414.74a48.764 48.764 0 0020.455-8.67A32.634 32.634 0 00894.5 1388h34.091L957 1601h-44.955l-21.829-163.96zM958.16 1333.32l12.2-23.4 30.36 34h17l-52-58.93-30.72 58.93h57.64l-20.12-22.55-6.24 12-8.12-.05z" fill="#fff"/><path d="M951 1066.5v18c-4 170.5-79.99 232.42-107.82 259.53a20.288 20.288 0 01-25.25 2.51C614 1227.5 601 1076 601 1076l-1.5-15" stroke="#fff" stroke-width="20" stroke-miterlimit="10" stroke-linecap="round"/><path d="M531.14 1371.41c-9.12 44.92-14.91 82.08-18.23 116.94L511.8 1500h-20.05c0-.31 0-.63.05-1l1.2-12.59c3.39-35.59 9.28-73.41 18.54-119 .08-.37.15-.75.22-1.13 9.84-49.47 15-145.34-55.75-245.36a399.48 399.48 0 00-4.19-5.81 9.682 9.682 0 01-.67-1 9.994 9.994 0 01-.944-7.28 10.03 10.03 0 014.284-5.97 9.98 9.98 0 017.203-1.42 9.958 9.958 0 016.237 3.87l1.16 1.59.5.69c1.35 1.85 2.66 3.7 3.95 5.55 74.31 106.23 68.17 208.23 57.6 260.27zM1111.83 1500h-20.25l-10.86-48.68c-7.71-34.55-15.38-65.35-23.46-94.17-16.34-58.81-20.97-119.9-17.63-180.85 1.88-33.39 6.34-57.43 8.73-68.45.89-4.09 1.49-6.38 1.58-6.7.18-.69.45-1.36.78-2a.139.139 0 010-.09 10.02 10.02 0 015.24-4.65c2.25-.87 4.74-.89 7-.07 2.27.82 4.16 2.44 5.34 4.54a10.01 10.01 0 011.04 6.93l-.12.5c0 .06-.39 1.48-1 4.12-.32 1.42-.7 3.2-1.13 5.32-.56 2.79-1.19 6.16-1.86 10.07a467.162 467.162 0 00-5.74 52.24c-3.02 56.71.89 113.54 15.51 168.41.47 1.76.96 3.53 1.45 5.3 6.65 23.69 13 48.7 19.34 76 0 .18.08.36.13.54 1.41 6.12 2.83 12.35 4.25 18.7l8.19 36.68c.06.3.13.6.19.89l3 13.29c.17.7.26 1.41.28 2.13z" fill="#fff"/><path d="M485.5 1201.5c-85.6 92.8-105.334 241.67-104.5 304.5h-92.5l5-77.5 16.5-87 34-110 53-89.5 66.5-44 70-31 80-9.5 12 18c-11.839 5.79 10.003 11.89-2 18.86-41.935 24.34-81.989 53.15-100 67.14 31.5 56 43 144.5 23 243.5-9.101 45.05-11.5 101.17-10.5 125.5l-57-24.5c6-21.17 19.6-82.4 26-158 6.4-75.6-10.334-129.17-19.5-146.5z" fill="#001647" fill-opacity=".2"/><path d="M931.5 1061v10c0 163.5-67.83 223.11-97.03 257.41a7.965 7.965 0 01-5.183 2.75 7.977 7.977 0 01-5.667-1.52C783 1299.29 645 1217 620 1071l-2-13.5" stroke="#000" stroke-width="20" stroke-miterlimit="10" stroke-linecap="round"/><path d="M511.761 1366.3c0 .32 0 .66-.05 1-.22 2.89-14 61.77-19 132.69h-20v-.69a924.796 924.796 0 0119.51-134.6c.57-2.4 2.009-4.51 4.04-5.92a10.042 10.042 0 017.96-1.51c1.105.24 2.181.61 3.21 1.08 3 1.4 4.44 3.71 4.33 7.95zM1132 1500h-20.2c-.55-2.72-1.65-8.14-3.2-15.47-.06-.29-.13-.59-.19-.89-2.91-13.76-7.3-33.87-12.44-55.38 0-.18-.09-.36-.13-.54-6.23-26-13.56-54-20.69-75.23a9.999 9.999 0 016.19-12.63h.1l.39-.11c2.48-.72 5.13-.46 7.42.74a9.996 9.996 0 014.85 5.66c18.25 54.24 36.92 148 37.71 151.94.12.63.19 1.27.19 1.91z" fill="#000"/><path d="M443.891 1118.21s87.82 94.17 57 252.68M1084.46 1348.82c-32.76-108.75-9.81-228.49-9.81-228.49l4.35-17.83" stroke="#000" stroke-width="20" stroke-miterlimit="10" stroke-linecap="round"/><path d="M289.5 1512.5c-6-101.5 31-323.03 140.5-398 158.5-108.51 616.5-87 706.5 26 64.91 81.5 99.5 222.5 132.5 371" stroke="#000" stroke-width="20" stroke-linecap="round"/></g><defs><clipPath id="prefix__clip0_53_27893"><path fill="#fff" d="M0 0h1500v1500H0z"/></clipPath></defs>
      <g clip-path="url(#prefix__clip0_299_662)"><path d="M775 1185c231.41 0 419-168.12 419-375.5 0-207.383-187.59-375.5-419-375.5-231.407 0-419 168.117-419 375.5 0 207.38 187.593 375.5 419 375.5z" fill="#ABF"/><path d="M457.5 796c7.6 194 131.833 327.5 193 370l-130-55.5L438 1034l-57.5-89.5-27-106 11-104L394 662l45-82.5 83.5-69.5 109-54.182 28.5-1C569.452 513.314 451.119 633.132 457.5 796z" fill="#001647" fill-opacity=".2"/><path d="M775 1185c231.41 0 419-168.12 419-375.5 0-207.383-187.59-375.5-419-375.5-231.407 0-419 168.117-419 375.5 0 207.38 187.593 375.5 419 375.5z" stroke="#000" stroke-width="20"/></g><defs><clipPath id="prefix__clip0_299_662"><path fill="#fff" d="M0 0h1500v1500H0z"/></clipPath></defs>
      <g clip-path="url(#prefix__clip0_53_29369)" stroke="#000" stroke-width="20" stroke-miterlimit="10"><path d="M729.63 808.821l88.08-16a7.737 7.737 0 006.23-6.4 7.757 7.757 0 00-.73-4.64 7.674 7.674 0 00-3.27-3.35l-82.39-43.72M1087 808.821l-87.999-16a7.71 7.71 0 01-6.23-6.4 7.784 7.784 0 01.72-4.63 7.65 7.65 0 013.28-3.36l82.389-43.72" stroke-linecap="round"/><path d="M1000 1001.64c0 35-39.4 63.36-88 63.36s-88-28.36-88-63.36a47.358 47.358 0 014.59-20.231c6.41-13.7 21-19 33.42-12.86 14.2 7.07 31.42 11.21 50 11.21s35.79-4.14 50-11.21c12.4-6.18 27-.84 33.42 12.86a47.337 47.337 0 014.57 20.231z" fill="#fff"/></g><defs><clipPath id="prefix__clip0_53_29369"><path fill="#fff" d="M0 0h1500v1500H0z"/></clipPath></defs>
      <g clip-path="url(#clip0_53_27216)"> <path d="M1086 1008C1086 1050.53 1010.34 1085 917 1085C823.664 1085 748 1050.56 748 1008C748 965.443 823.664 931 917 931C1010.34 931 1086 965.474 1086 1008Z" fill="#AABBFF"/> <path opacity="0.4" d="M763.61 879.811C787.326 879.797 810.188 870.964 827.752 855.029C845.316 839.093 856.326 817.195 858.64 793.593C860.954 769.991 854.407 746.371 840.272 727.328C826.138 708.285 805.426 695.18 782.165 690.561C758.903 685.941 734.756 690.139 714.417 702.336C694.079 714.533 679.004 733.859 672.124 756.555C665.244 779.25 667.051 803.694 677.194 825.131C687.336 846.568 705.089 863.467 727 872.541C738.607 877.349 751.047 879.819 763.61 879.811Z" fill="white"/> <path d="M624.5 770L667.5 768.5L669.5 804.5L626.5 802.5L624.5 770Z" fill="#FFBF44"/> <path d="M763.589 879.811C816.36 879.811 859.139 837.032 859.139 784.261C859.139 731.49 816.36 688.711 763.589 688.711C710.818 688.711 668.039 731.49 668.039 784.261C668.039 837.032 710.818 879.811 763.589 879.811Z" stroke="black" stroke-width="20" stroke-miterlimit="10"/> <path d="M667.999 768.289H638.999C634.188 768.289 629.574 770.2 626.172 773.602C622.771 777.004 620.859 781.618 620.859 786.429C620.859 788.811 621.329 791.17 622.24 793.371C623.152 795.572 624.488 797.572 626.172 799.256C627.857 800.94 629.857 802.277 632.057 803.188C634.258 804.1 636.617 804.569 638.999 804.569H667.999" stroke="black" stroke-width="20" stroke-miterlimit="10"/> <path d="M568 978.311L610 935.311C614.376 930.829 617.76 925.475 619.931 919.599C622.101 913.723 623.011 907.455 622.599 901.204C622.188 894.953 620.465 888.859 617.544 883.317C614.622 877.776 610.566 872.912 605.64 869.041V869.041C600.186 864.759 595.806 859.263 592.847 852.992C589.888 846.721 588.431 839.846 588.594 832.913C588.756 825.981 590.532 819.181 593.781 813.055C597.03 806.929 601.662 801.645 607.31 797.621L619.14 789.191" stroke="black" stroke-width="20" stroke-miterlimit="10" stroke-linecap="round"/> <path d="M829 959L789.5 985L804 997H829C834.5 997 853 1000.5 864.5 1001C876 1001.5 877 997 883 997C889 997 896 990 898.5 989C900.5 988.2 904.667 982.667 906.5 980L918.5 971.5C919.667 972.833 922.6 975.5 925 975.5C928 975.5 929 981.5 933 985C937 988.5 958.5 994.5 967 997C973.8 999 978.5 997.833 980 997H1012C1014.5 997 1023 997.5 1023 997C1023 996.5 1031 994.5 1035.5 994.5H1046V985C1043.5 982.5 1037.9 977.1 1035.5 975.5C1032.5 973.5 1027.5 969 1023 965.5C1018.5 962 1012 955.5 1007 951.5C1003 948.3 1000.67 945.833 1000 945L989 933.5L977.5 921.5L971 916.5L955 913.5L929 927.5L906.5 930L892 916.5H877L853 927.5L829 959Z" fill="white"/> <path d="M859.5 954.5C848.7 973.3 829.667 989.333 821.5 995L784 986.5L793 978L833.5 952C836 944.167 845.4 926.9 863 920.5C880.6 914.1 894.667 923.167 899.5 928.5C884 924 873 931 859.5 954.5Z" fill="#001647" fill-opacity="0.2"/> <path d="M943 960C939.4 936.8 956.833 923 966 919L958 913.5C942.833 915.833 914 927.8 920 957C926 986.2 968.5 997.5 989 999.5C975.167 996 946.6 983.2 943 960Z" fill="#001647" fill-opacity="0.2"/> <path d="M1086 1008C1086 1050.53 1010.34 1085 917 1085C823.664 1085 748 1050.56 748 1008C748 965.443 823.664 931 917 931C1010.34 931 1086 965.474 1086 1008Z" fill="#AABBFF"/> <path opacity="0.5" d="M689.63 721.059C689.63 721.059 688.76 700.969 734.18 694.859L818.91 861.699C818.91 861.699 803.19 880.039 769.91 879.469L689.63 721.059Z" fill="white"/> <path opacity="0.5" d="M749.001 692.238C749.001 692.238 750.831 691.898 766.361 681.238L841.481 835.848C841.481 835.848 840.331 846.208 827.621 849.128L749.001 692.238Z" fill="white"/> <path d="M829 959L789.5 985L804 997H829C834.5 997 853 1000.5 864.5 1001C876 1001.5 877 997 883 997C889 997 896 990 898.5 989C900.5 988.2 904.667 982.667 906.5 980L918.5 971.5C919.667 972.833 922.6 975.5 925 975.5C928 975.5 929 981.5 933 985C937 988.5 958.5 994.5 967 997C973.8 999 978.5 997.833 980 997H1012C1014.5 997 1023 997.5 1023 997C1023 996.5 1031 994.5 1035.5 994.5H1046V985C1043.5 982.5 1037.9 977.1 1035.5 975.5C1032.5 973.5 1027.5 969 1023 965.5C1018.5 962 1012 955.5 1007 951.5C1003 948.3 1000.67 945.833 1000 945L989 933.5L977.5 921.5L971 916.5L955 913.5L929 927.5L906.5 930L892 916.5H877L853 927.5L829 959Z" fill="white"/> <path d="M859.5 954.5C848.7 973.3 829.667 989.333 821.5 995L784 986.5L793 978L833.5 952C836 944.167 845.4 926.9 863 920.5C880.6 914.1 894.667 923.167 899.5 928.5C884 924 873 931 859.5 954.5Z" fill="#001647" fill-opacity="0.2"/> <path d="M943 960C939.4 936.8 956.833 923 966 919L958 913.5C942.833 915.833 914 927.8 920 957C926 986.2 968.5 997.5 989 999.5C975.167 996 946.6 983.2 943 960Z" fill="#001647" fill-opacity="0.2"/> <path d="M1052.26 992.431C1025.86 1000.33 958.48 1015.62 927.1 977.73C912.19 959.73 916.1 932.58 936.1 920.41C943.021 916.179 950.988 913.969 959.1 914.031C974.5 914.031 984.92 924.351 991.69 935.531C1003.52 955.352 1021.3 970.937 1042.5 980.071L1052.7 984.391C1053.51 984.734 1054.2 985.319 1054.66 986.066C1055.13 986.813 1055.35 987.686 1055.3 988.565C1055.26 989.444 1054.94 990.287 1054.39 990.979C1053.85 991.67 1053.1 992.177 1052.26 992.431V992.431Z" stroke="black" stroke-width="20" stroke-miterlimit="10" stroke-linecap="round"/> <path d="M783.87 992.43C810.27 1000.33 877.65 1015.62 909.04 977.73C923.94 959.73 920.04 932.58 900.04 920.41C893.111 916.161 885.129 913.94 877 914C861.6 914 851.18 924.32 844.41 935.5C832.578 955.319 814.798 970.905 793.6 980.04L783.39 984.36C782.57 984.702 781.876 985.29 781.405 986.044C780.934 986.797 780.71 987.679 780.762 988.566C780.815 989.453 781.143 990.302 781.7 990.994C782.257 991.686 783.015 992.188 783.87 992.43Z" stroke="black" stroke-width="20" stroke-miterlimit="10" stroke-linecap="round"/> <path d="M624.5 770L667.5 768.5L669.5 804.5L626.5 802.5L624.5 770Z" fill="#FFBF44"/> <path d="M646 802C640.8 791.6 643.833 777.667 646 772C638 768.167 622.1 764.8 622.5 782C622.9 799.2 638.333 802.5 646 802Z" fill="#001647" fill-opacity="0.2"/> <path d="M763.589 879.811C816.36 879.811 859.139 837.032 859.139 784.261C859.139 731.49 816.36 688.711 763.589 688.711C710.818 688.711 668.039 731.49 668.039 784.261C668.039 837.032 710.818 879.811 763.589 879.811Z" stroke="black" stroke-width="20" stroke-miterlimit="10"/> <path d="M667.999 768.289H638.999C634.188 768.289 629.574 770.2 626.172 773.602C622.771 777.004 620.859 781.618 620.859 786.429C620.859 788.811 621.329 791.17 622.24 793.371C623.152 795.572 624.488 797.572 626.172 799.256C627.857 800.94 629.857 802.277 632.057 803.188C634.258 804.1 636.617 804.569 638.999 804.569H667.999" stroke="black" stroke-width="20" stroke-miterlimit="10"/> <path d="M568 978.311L610 935.311C614.376 930.829 617.76 925.475 619.931 919.599C622.101 913.723 623.011 907.455 622.599 901.204C622.188 894.953 620.465 888.859 617.544 883.317C614.622 877.776 610.566 872.912 605.64 869.041V869.041C600.186 864.759 595.806 859.263 592.847 852.992C589.888 846.721 588.431 839.846 588.594 832.913C588.756 825.981 590.532 819.181 593.781 813.055C597.03 806.929 601.662 801.645 607.31 797.621L619.14 789.191" stroke="black" stroke-width="20" stroke-miterlimit="10" stroke-linecap="round"/> </g> <defs> <clipPath id="clip0_53_27216"> <rect width="1500" height="1500" fill="white"/> </clipPath> </defs>
      <g clip-path="url(#prefix__clip0_53_25602)"><path d="M365.32 719.27L347 619.12 264.5 384l20.57-6.1L332 414.84l88.86 26.3 57 2.59 56.82-19.5L594.83 389l47.09-45 22.91-46.4L693 216l18.81 6.18L768 325.5l72.43 45.6 68.14 17.24 67.3-1.57 59.54-18.87 86.59-59.4 22.17-22.57 7.58 19.47-24.39 229.29 16.42 84.43-167.56-10.55-177 10.55-256.83 44.36L392.05 709l-26.73 10.27zM693 207.5a38.004 38.004 0 0035.107-23.458 37.994 37.994 0 00-8.237-41.412A37.998 37.998 0 00655 169.5a38.001 38.001 0 0038 38zM1160 285.5c8.31 0 16.43-2.463 23.33-7.078a41.992 41.992 0 0017.86-43.116 42.012 42.012 0 00-11.49-21.504 42.032 42.032 0 00-21.51-11.495 41.976 41.976 0 00-24.26 2.39 41.947 41.947 0 00-18.85 15.469A41.962 41.962 0 001118 243.5a41.986 41.986 0 0012.3 29.699A42.01 42.01 0 001160 285.5z" fill="#FFBF44"/><path d="M255 384.5a41 41 0 10-.001-81.998A41 41 0 00255 384.5z" fill="#FFBF44"/><path d="M719 478.5c17.67 0 32-26 32-58s-14.33-58-32-58-32 26-32 58 14.33 58 32 58z" fill="#53B6F9"/><path d="M453 280.5a45 45 0 100-90.002 45 45 0 000 90.002zM949 223.5a45 45 0 100-90.002 45 45 0 000 90.002z" fill="#FFBF44"/><path d="M409.61 437.809l34.39-75.3 15-64.91 1.52-22.099 34.98 26.999 43.8 34.7 59.7 33.9 1.25 13.4-65.68 39.73-74.05 19.5-50.91-5.92zM815.71 355.85L884 297.6l61.499-80.1 21.181 39.6 40.14 68.51 28.59 42.29L956 391.5l-69.93-7.65-70.36-28z" fill="#FFBF44"/><path d="M593 451.499c-25.6 61.6 4.333 155.667 22.5 195L484 682l-119 39.5-11-89-55.5-150L269 394c-17 .5-52.4-8.7-58-49.5-5.6-40.8 36.333-42 58-37.5-8.833-.167-27.3 6.3-30.5 33.5-3.2 27.2 16 39.666 26 42.5l16.5-2.5 61.5 44.5 68 10 39-74 13-77c-17.333 2.833-52.5-2.201-54.5-45.001s35.5-44.5 54.5-40c-8.333.5-25.3 8.3-26.5 35.5-1.2 27.2 17.167 36.667 26.5 38l10.5 14.5c-6.4 41.2 40 107.5 64 135.5l71-46c13.333-17.166 40-48.3 40-35.5 0 16-23 33.5-55 110.5zM709.5 419.5c-3.6-38 11.5-46.167 19.5-45.5v-4c-4.5-1.667-13.9-5.1-15.5-5.5-1.6-.4-15.333 1.833-22 3-4.333 14-11.5 49.8-5.5 81 6 31.2 36.833 26.666 51.5 20.5-7.833-.667-24.4-11.5-28-49.5zM675.5 173.5c-.4-32.8 19.833-40.667 30-40.5-16.5-3.5-60.5 1.499-54 46.999 5.2 36.4 49.833 33.167 71.5 27-15.667 2.5-47.1-.699-47.5-33.499zM930 181.999c-2.4-25.2 16.333-36.833 26-39.5-19.333-3.333-57-.8-53 36s41 41.333 59 39c-9.667-1.333-29.6-10.3-32-35.5zM941.5 316.999c-6.8-52-1.167-79.333 2.5-86.5-9.167 5.333-27.8 16.6-29 19-1.2 2.4-25.5 39.667-37.5 58l-60 48.5 48 23 108 10c-7.833-2.333-25.2-20-32-72zM1143 244.499c1.6-28.8 21-35.333 30.5-35-21-6.333-61.5-8.8-55.5 32s40.5 45.333 57 42.5c-11.33-1.167-33.6-10.7-32-39.5z" fill="#001647" fill-opacity=".2"/><path d="M365.32 719.279s337-143.17 774.3-103.93l-12.26-80.66s-344.86-73.69-775.74 97.86l13.7 86.73z" stroke="#000" stroke-width="20" stroke-miterlimit="10"/><path d="M1127.36 534.691l25.06-235.54c.26-2.45-.25-4.921-1.45-7.07a11.856 11.856 0 00-5.27-4.932 11.895 11.895 0 00-13.55 2.352l-32.5 32.72c-106.14 106.83-284.65 84.41-361.05-45.34l-28.77-48.88a11.904 11.904 0 00-11.504-5.79 11.897 11.897 0 00-10.036 8.07l-15.43 46.36c-50.81 152.62-233.72 214-366.28 122.82l-16.78-11.46c-9.46-6.5-21.74 2.84-18 13.69l79.81 230.88" stroke="#000" stroke-width="20" stroke-miterlimit="10"/><path d="M405.85 443.731s44.35-65 53.85-151.8a11.894 11.894 0 017.865-9.945 11.896 11.896 0 0112.365 2.805c26.7 26.69 73.67 73 136.62 92.58M1043.52 370.1s-57.83-55.49-86.87-138a11.889 11.889 0 00-21.29-2.4C915 262.16 872.79 320.91 815.71 355M693 214.5a45 45 0 100-90.002 45 45 0 000 90.002v0zM255.5 389a45 45 0 100-90.002 45 45 0 000 90.002zM453.5 280a45 45 0 100-90.002 45 45 0 000 90.002z" stroke="#000" stroke-width="20" stroke-miterlimit="10"/><path d="M948.5 224a45 45 0 100-90.002 45 45 0 000 90.002v0zM1160.5 289a44.995 44.995 0 0041.57-27.779 45.023 45.023 0 002.57-26 45.063 45.063 0 00-12.32-23.041 44.98 44.98 0 00-23.04-12.315 44.991 44.991 0 00-26 2.56 45.056 45.056 0 00-20.2 16.574A45.037 45.037 0 001115.5 244a44.996 44.996 0 0045 45zM724.83 480.74c19.15-2 31.86-30.42 28.37-63.44-3.49-33.02-21.84-58.13-41-56.11-19.16 2.02-31.86 30.43-28.37 63.44 3.49 33.01 21.84 58.14 41 56.11z" stroke="#000" stroke-width="20" stroke-miterlimit="10"/></g><defs><clipPath id="prefix__clip0_53_25602"><path fill="#fff" d="M0 0h1500v1500H0z"/></clipPath></defs>
      
    </g>
    </svg>