<svg
      xmlns="http://www.w3.org/2000/svg"
      preserveAspectRatio="xMidYMin meet"
      fill="none"
      viewBox="0 0 1500 1500"
    >
      <g>
      <path fill="url(#prefix__paint0_linear_53_28789)" d="M0 0h1500v1500H0z"/><defs><linearGradient id="prefix__paint0_linear_53_28789" x1="1500" y1="1500" x2="0" y2="0" gradientUnits="userSpaceOnUse"><stop stop-color="#FFD130"/><stop offset="1" stop-color="#FFEEDB"/></linearGradient></defs>
      <g clip-path="url(#prefix__clip0_53_28250)"><path d="M460.5 1094.5c-138.4 66.4-174 309.33-174.5 422.5h983.5c-12.5-72.17-53.2-244.1-116-354.5-78.5-138-520-151-693-68z" fill="#3A3A3A"/><path d="M500.002 1213.5c-101.2 100-117.834 249-113.5 311l-99.502-13c-1.6-110.8 39-247.5 59.5-302l39.501-52.5 15.5-20.5 66.5-42.5c149.6-59.6 294-54.83 347.5-45-63 13.17-214.299 64.5-315.499 164.5z" fill="#000" fill-opacity=".2"/><path d="M289.5 1512.5c-6-101.5 31-323.03 140.5-398 158.5-108.51 616.5-87 706.5 26 64.91 81.5 99.5 222.5 132.5 371M1084.5 1337c12.33 37 29.5 110.3 43.5 175.5m-646.5 0c.333-32.83 7.7-107.6 20.5-157" stroke="#000" stroke-width="20" stroke-linecap="round"/></g><defs><clipPath id="prefix__clip0_53_28250"><path fill="#fff" d="M0 0h1500v1500H0z"/></clipPath></defs>
      <g clip-path="url(#prefix__clip0_299_662)"><path d="M775 1185c231.41 0 419-168.12 419-375.5 0-207.383-187.59-375.5-419-375.5-231.407 0-419 168.117-419 375.5 0 207.38 187.593 375.5 419 375.5z" fill="#ABF"/><path d="M457.5 796c7.6 194 131.833 327.5 193 370l-130-55.5L438 1034l-57.5-89.5-27-106 11-104L394 662l45-82.5 83.5-69.5 109-54.182 28.5-1C569.452 513.314 451.119 633.132 457.5 796z" fill="#001647" fill-opacity=".2"/><path d="M775 1185c231.41 0 419-168.12 419-375.5 0-207.383-187.59-375.5-419-375.5-231.407 0-419 168.117-419 375.5 0 207.38 187.593 375.5 419 375.5z" stroke="#000" stroke-width="20"/></g><defs><clipPath id="prefix__clip0_299_662"><path fill="#fff" d="M0 0h1500v1500H0z"/></clipPath></defs>
      <g clip-path="url(#prefix__clip0_53_29421)"><path d="M914.5 1067.2a53.704 53.704 0 0049.612-33.15 53.7 53.7 0 00-39.136-73.217 53.701 53.701 0 00-55.126 22.834 53.696 53.696 0 00-4.962 50.383 53.569 53.569 0 0011.64 17.42 53.673 53.673 0 0017.422 11.64 53.676 53.676 0 0020.55 4.09z" fill="#fff" stroke="#000" stroke-width="20" stroke-miterlimit="10" stroke-linecap="round"/><path d="M764.05 841.24c31.336 0 56.74-25.404 56.74-56.74 0-31.337-25.404-56.74-56.74-56.74-31.337 0-56.74 25.403-56.74 56.74 0 31.336 25.403 56.74 56.74 56.74zM1048.19 841.24c31.34 0 56.74-25.404 56.74-56.74 0-31.337-25.4-56.74-56.74-56.74-31.34 0-56.74 25.403-56.74 56.74 0 31.336 25.4 56.74 56.74 56.74z" fill="#fff" stroke="#000" stroke-width="20" stroke-miterlimit="10"/><path d="M764.05 797.5c7.18 0 13-5.82 13-13s-5.82-13-13-13-13 5.82-13 13 5.82 13 13 13zM1048.19 797.5c7.18 0 13-5.82 13-13s-5.82-13-13-13-13 5.82-13 13 5.82 13 13 13z" fill="#000"/></g><defs><clipPath id="prefix__clip0_53_29421"><path fill="#fff" d="M0 0h1500v1500H0z"/></clipPath></defs>
      <g clip-path="url(#prefix__clip0_53_26590)"><path d="M1086 1014c0 39.21-75.66 71-169 71-93.336 0-169-31.76-169-71 0-39.241 75.664-71 169-71 93.34 0 169 31.788 169 71z" fill="#ABF"/><path d="M921 967c40.869 0 74-33.131 74-74s-33.131-74-74-74-74 33.131-74 74 33.131 74 74 74z" fill="#FF6247" stroke="#000" stroke-width="20"/><path d="M1045 1016.27c0 42.37-55.325 76.73-123.509 76.73S798 1058.63 798 1016.27v-1.64c.892-25.725 25.066-41.87 45.973-31.384 21.194 10.616 48.187 16.974 77.482 16.974 29.296 0 56.307-6.358 77.5-16.984 20.905-10.476 45.115 5.669 45.975 31.394.05.54.07 1.09.07 1.64z" fill="#fff" stroke="#000" stroke-width="20"/><ellipse cx="952.292" cy="871.799" rx="15.861" ry="31.193" transform="rotate(-31.564 952.292 871.799)" fill="#fff"/></g><defs><clipPath id="prefix__clip0_53_26590"><path fill="#fff" d="M0 0h1500v1500H0z"/></clipPath></defs>
      <g clip-path="url(#prefix__clip0_53_25760)"><path d="M661.719 466.272s.681-50.314 11.211-50.049c10.531.266 30.241-4.165 30.241-4.165l31.003 15.989 25.638-5.424 28.99-24.747 27.071-1.791 27.883 14.121 15.446 18.681 23.411.145 50.96-13.954 24.276 23.68-19.232 52.574-44.507-21.369-17.618-6.041-23.175-7.036-28.049-1.943-32.388-.112-55.638 3.68-50.45 8.949-25.073-1.188z" fill="#97A5DE"/><path d="M718.506 479.214s19.322 40.453 64.014 34.31c44.692-6.143 83.522-32.583 83.522-32.583l10.406-17.065-81.463-14.775-84.096 14.041s-8.664 11.898 7.617 16.072z" fill="#7985B4"/><path d="M662.843 469.488s-13.534-58.554 30.087-60.287c15.493-.614 25.434 4.992 32.226 12.21 13.894 14.755 29.392 7.707 38.346-2.386 11.842-13.391 27.482-26.021 44.854-27.17 20.226-1.338 34.215 14.393 42.889 29.474 6.094 10.621 21.799 13.651 33.204 6.683 11.953-7.315 28.35-12.9 48.081-8.683 42.964 9.245 6.064 69.091 6.064 69.091" stroke="#000" stroke-width="18.1" stroke-miterlimit="10" stroke-linecap="round"/><path d="M630.048 507.634S655.324 462.566 681.5 468c40.502 8.395 74.399 69.733 74.399 69.733M800.818 537.268s38.761-65.501 93.251-67.301c54.49-1.801 48.429 57.93 48.429 57.93M682 468s137.209-40.275 226.408 2.982M736.796 506.5s35.103 14.655 86.489 1.675" stroke="#000" stroke-width="20" stroke-miterlimit="10" stroke-linecap="round"/><path d="M705.351 553.292a15.47 15.47 0 00-6.12 14c2.61 23.14 14.52 81.46 68.22 76.42 66.85-6.24 82.55-96.07 82.55-96.07s27.42-113.45-68.81-217.34a3.755 3.755 0 00-4.177-.932 3.76 3.76 0 00-2.343 3.582c.94 37.05-.73 168.17-69.32 220.34zM956.381 560.231a15.453 15.453 0 00-4.61 14.58c5 22.73 23 79.48 75.869 68.83 65.82-13.26 72-104.23 72-104.23s13.83-124-91.45-209.53a3.735 3.735 0 00-2.04-.831 3.76 3.76 0 00-2.16.461c-.66.366-1.19.922-1.52 1.594a3.726 3.726 0 00-.37 2.176c4.77 35.98 17.32 167.56-45.719 226.95z" fill="#FF6247" stroke="#000" stroke-width="20" stroke-miterlimit="10"/><path d="M756.5 578.5c-4 44.8 21.667 53.333 35 52l-17 14-39.5-9-27-27-8.5-44.5 47.5-63 21-70.5 14-87c16.333 14.5 44.4 55.4 26 103-23 59.5-46.5 76-51.5 132zM1041.5 482.5c14-61.2-3.5-109.167-14-125.5l-4-13.5-15-11v106l-15.5 70-38.5 55.5c1.667 16.167 13.2 53.8 46 75 32.8 21.2 62.67-6.5 73.5-23-15.95 17.5-49.5 21.5-57.5-18.5-9.74-48.685 10.59-52 25-115z" fill="#001647" fill-opacity=".2"/><path d="M705.351 553.292a15.47 15.47 0 00-6.12 14c2.61 23.14 14.52 81.46 68.22 76.42 66.85-6.24 82.55-96.07 82.55-96.07s27.42-113.45-68.81-217.34a3.755 3.755 0 00-4.177-.932 3.76 3.76 0 00-2.343 3.582c.94 37.05-.73 168.17-69.32 220.34zM956.381 560.231a15.458 15.458 0 00-4.61 14.58c5 22.73 23 79.48 75.869 68.83 65.82-13.26 72-104.23 72-104.23s13.83-124-91.45-209.53a3.735 3.735 0 00-2.04-.831 3.76 3.76 0 00-2.16.461c-.66.366-1.19.922-1.52 1.594a3.726 3.726 0 00-.37 2.176c4.77 35.98 17.32 167.56-45.719 226.95z" stroke="#000" stroke-width="20" stroke-miterlimit="10"/></g><defs><clipPath id="prefix__clip0_53_25760"><path fill="#fff" d="M0 0h1500v1500H0z"/></clipPath></defs>
      
    </g>
    </svg>