<svg
      xmlns="http://www.w3.org/2000/svg"
      preserveAspectRatio="xMidYMin meet"
      fill="none"
      viewBox="0 0 1500 1500"
    >
      <g>
      <path fill="url(#prefix__paint0_linear_53_30460)" d="M0 0h1500v1500H0z"/><defs><linearGradient id="prefix__paint0_linear_53_30460" x1="0" y1="0" x2="1500" y2="1500" gradientUnits="userSpaceOnUse"><stop stop-color="#F1FFBA"/><stop offset="1" stop-color="#65DCBA"/></linearGradient></defs>
      <g clip-path="url(#prefix__clip0_53_27966)"><path d="M460.5 1094.5c-138.4 66.4-174 309.33-174.5 422.5h983.5c-12.5-72.17-53.2-244.1-116-354.5-78.5-138-520-151-693-68z" fill="#FF6247"/><path d="M147.86 901.54l92.91 58.36s54.73 33 19.43 59-27.84 6.39-27.84 6.39 23.52 56.57 48.88 70.77c25.36 14.2 99.38 62.52 99.38 62.52s-28.95 36.49-34.57 50.87l-74.13-38.56s-51.06-56.42-51.47-57c-.41-.58-36.27-58-36.27-58s-47.3 36.41-51.41-16.88c-4.11-53.29 3.32-119.46 3.32-119.46s-5.72-18.8 11.77-18.01z" fill="#FF6247"/><path d="M391.26 1159.82s-124.61-40.23-157.11-130a3.31 3.31 0 012.41-4.38l14.95-3.23c21.489-5.71 30.489-38.71 8.62-54.36l-110-70.14a8.124 8.124 0 00-8.128-.314 8.122 8.122 0 00-4.332 6.884L124 1034c-3.001 31 30.501 47.5 60.22 21.9.16-.2.367-.35.602-.44.235-.1.49-.13.742-.1a1.497 1.497 0 011.166.86c7.76 16.82 60.35 133 172 153.25" stroke="#000" stroke-width="20" stroke-miterlimit="10"/><path d="M289.5 1512.5c-6-101.5 31-323.03 140.5-398 158.5-108.51 616.5-87 706.5 26 64.91 81.5 99.5 222.5 132.5 371M1084.5 1337c12.33 37 29.5 110.3 43.5 175.5m-646.5 0c.333-32.83 7.7-107.6 20.5-157" stroke="#000" stroke-width="20" stroke-linecap="round"/><path d="M500.002 1213.5c-101.2 100-117.834 249-113.5 311l-99.502-13c-1.6-110.8 39-247.5 59.5-302l6.414-8.53c-5.892 2.91-13.406 3.55-22.914.53-34-10.8-98.833-73.83-127-104l-19-38.5c-18.833 7.67-56.5 15.1-56.5-16.5S135.833 933 140 898l114 65c10 8.833 27 29.8 15 43s-30 21.5-37.5 24l45.5 57 95.5 70c0 6.45-.947 14.76-3.472 22.56l16.973-22.56 15.5-20.5 66.5-42.5c149.6-59.6 294-54.83 347.5-45-63 13.17-214.299 64.5-315.499 164.5z" fill="#001647" fill-opacity=".2"/></g><defs><clipPath id="prefix__clip0_53_27966"><path fill="#fff" d="M0 0h1500v1500H0z"/></clipPath></defs>
      <g clip-path="url(#prefix__clip0_299_662)"><path d="M775 1185c231.41 0 419-168.12 419-375.5 0-207.383-187.59-375.5-419-375.5-231.407 0-419 168.117-419 375.5 0 207.38 187.593 375.5 419 375.5z" fill="#ABF"/><path d="M457.5 796c7.6 194 131.833 327.5 193 370l-130-55.5L438 1034l-57.5-89.5-27-106 11-104L394 662l45-82.5 83.5-69.5 109-54.182 28.5-1C569.452 513.314 451.119 633.132 457.5 796z" fill="#001647" fill-opacity=".2"/><path d="M775 1185c231.41 0 419-168.12 419-375.5 0-207.383-187.59-375.5-419-375.5-231.407 0-419 168.117-419 375.5 0 207.38 187.593 375.5 419 375.5z" stroke="#000" stroke-width="20"/></g><defs><clipPath id="prefix__clip0_299_662"><path fill="#fff" d="M0 0h1500v1500H0z"/></clipPath></defs>
      <g clip-path="url(#prefix__clip0_53_29200)"><path d="M764.05 848.209c35.186 0 63.71-28.524 63.71-63.71s-28.524-63.71-63.71-63.71-63.71 28.524-63.71 63.71 28.524 63.71 63.71 63.71z" fill="#000" stroke="#000" stroke-width="20" stroke-miterlimit="10"/><path d="M781.551 780c14.083 0 25.5-11.417 25.5-25.5s-11.417-25.5-25.5-25.5-25.5 11.417-25.5 25.5 11.417 25.5 25.5 25.5zM740.552 791.381c6.009 0 10.88-4.871 10.88-10.88s-4.871-10.88-10.88-10.88-10.88 4.871-10.88 10.88 4.871 10.88 10.88 10.88zM772.151 826.571c10.548 0 19.1-8.551 19.1-19.1 0-10.549-8.552-19.1-19.1-19.1-10.549 0-19.1 8.551-19.1 19.1 0 10.549 8.551 19.1 19.1 19.1z" fill="#fff"/><path d="M1051.05 848.209c35.19 0 63.71-28.524 63.71-63.71s-28.52-63.71-63.71-63.71-63.71 28.524-63.71 63.71 28.52 63.71 63.71 63.71z" fill="#000" stroke="#000" stroke-width="20" stroke-miterlimit="10"/><path d="M1068.55 780c14.08 0 25.5-11.417 25.5-25.5s-11.42-25.5-25.5-25.5-25.5 11.417-25.5 25.5 11.42 25.5 25.5 25.5zM1027.55 791.381c6.01 0 10.88-4.871 10.88-10.88s-4.87-10.88-10.88-10.88c-6.01 0-10.88 4.871-10.88 10.88s4.87 10.88 10.88 10.88zM1059.15 826.571c10.55 0 19.1-8.551 19.1-19.1 0-10.549-8.55-19.1-19.1-19.1s-19.1 8.551-19.1 19.1c0 10.549 8.55 19.1 19.1 19.1z" fill="#fff"/><path d="M905 1002.88L923.13 991a26.135 26.135 0 0010.308-30.616 26.144 26.144 0 00-6.148-9.734v0a26.143 26.143 0 00-19.36-7.629 26.155 26.155 0 00-18.8 8.919L873 970.38M905 1003l18.13 11.88a26.115 26.115 0 0110.312 30.61 26.15 26.15 0 01-6.152 9.73v0a26.233 26.233 0 01-8.883 5.84 26.052 26.052 0 01-10.475 1.81 26.056 26.056 0 01-10.33-2.51 26.14 26.14 0 01-8.472-6.42L873 1035.5" stroke="#000" stroke-width="20" stroke-miterlimit="10" stroke-linecap="round"/></g><defs><clipPath id="prefix__clip0_53_29200"><path fill="#fff" d="M0 0h1500v1500H0z"/></clipPath></defs>
      <g clip-path="url(#prefix__clip0_53_27350)"><path d="M695 882.421v6.14a7.746 7.746 0 01-.67 3.22c-1.26 2.86-3.34 3-3.34 3a7.817 7.817 0 01-6.39-1.32c-2.64-2.11-9.24-20.21-9.24-20.21l-12.71 20.21H654l17.8-28.21-5.59-11.59a4.654 4.654 0 00-4.07-2.64H662a4.724 4.724 0 00-4.13 1.7c-.89.89-1.21 3.78-1.21 3.78l-1.78.13a22.972 22.972 0 01-.13-5.28 7.776 7.776 0 011.34-3.76 5.694 5.694 0 014.83-2.61 7.816 7.816 0 014.51 1.43 8.67 8.67 0 013 3.74l5.26 13.05 11.44-17.4H693l-15.8 24.51 3.94 9.32s3 9 7.31 9 4.71-6.22 4.71-6.22l1.84.01z" fill="#000"/></g><defs><clipPath id="prefix__clip0_53_27350"><path fill="#fff" d="M0 0h1500v1500H0z"/></clipPath></defs>
      <g clip-path="url(#prefix__clip0_53_25796)"><path d="M661.719 466.272s.681-50.314 11.211-50.049c10.531.266 30.241-4.165 30.241-4.165l31.003 15.989 25.638-5.424 28.99-24.747 27.071-1.791 27.883 14.121 15.446 18.681 23.411.145 50.96-13.954 24.276 23.68-19.232 52.574-44.507-21.369-17.618-6.041-23.175-7.036-28.049-1.943-32.388-.112-55.638 3.68-50.45 8.949-25.073-1.188z" fill="#97A5DE"/><path d="M718.506 479.214s19.322 40.453 64.014 34.31c44.692-6.143 83.522-32.583 83.522-32.583l10.406-17.065-81.463-14.775-84.096 14.041s-8.664 11.898 7.617 16.072z" fill="#7985B4"/><path d="M662.843 469.488s-13.534-58.554 30.087-60.287c15.493-.614 25.434 4.992 32.226 12.21 13.894 14.755 29.392 7.707 38.346-2.386 11.842-13.391 27.482-26.021 44.854-27.17 20.226-1.338 34.215 14.393 42.889 29.474 6.094 10.621 21.799 13.651 33.204 6.683 11.953-7.315 28.35-12.9 48.081-8.683 42.964 9.245 6.064 69.091 6.064 69.091" stroke="#000" stroke-width="18.1" stroke-miterlimit="10" stroke-linecap="round"/><path d="M630.048 507.634S655.324 462.566 681.5 468c40.502 8.395 74.399 69.733 74.399 69.733M800.818 537.268s38.761-65.501 93.251-67.301c54.49-1.801 48.429 57.93 48.429 57.93M682 468s137.209-40.275 226.408 2.982M736.796 506.5s35.103 14.655 86.489 1.675" stroke="#000" stroke-width="20" stroke-miterlimit="10" stroke-linecap="round"/><path d="M524.05 624.001H372.24l-43.13-19.78s-72.43-23.64-85.41 29.91c-12.98 53.55 34.75 44.6 34.75 44.6s-45.81 43.55-16.62 68.07c29.19 24.52 58.17 3.2 58.17 3.2l55.73-43.57 63.59-21.11 92.15-13-7.42-48.32zM1126.86 589.612c-9.68-10.68 75.59-13.43 75.59-13.43s27.66-4.43 36.69-30.55c9.03-26.12 38.53-30.28 38.53-30.28s38.21 12.31 29 44c-9.21 31.69 10.5 44 10.5 44s12.81 58.24-40.75 55.76c-53.56-2.48-55.2-30.76-55.2-30.76l-66 2.52s-16.71-28.42-28.36-41.26z" fill="#fff"/><path d="M1279.5 634.501c23.6 5.6 31.17-11.333 32-20.5l8 7.5-5 17-24.5 25-36-13.5-33-19-70.5-1.5-7.83.81a6.53 6.53 0 01-7.18-5.999c-.28-3.518 2.29-6.616 5.8-6.971 22.02-2.223 61.62-5.426 83.71-4.34 30.5 1.5 25 14.5 54.5 21.5zM529.5 620.001v57l-58.5 4.501-75 17-53 32c-10.334 13-39 37.1-71 29.5-32-7.6-16.334-55.5-4.5-78.5l-20-18c-3.333-5.667-5.2-23.801 14-51.001s60.333-9.666 78.5 2.5l81.5 14 108-9z" fill="#001647" fill-opacity=".2"/><path d="M526.69 623.94l-145.35 2.66a64.43 64.43 0 01-44.57-16.4c-12.86-11.67-34.73-22.77-65.59-8.84 0 0-65.17 40.65 0 81.94" stroke="#000" stroke-width="20" stroke-miterlimit="10" stroke-linecap="round"/><path d="M295.7 644.59s-.18 19.51-27.86 45.1c-17.07 15.77-20.84 41.45-4.91 58.31 8.75 9.23 22.18 14.55 42.8 8.43a61.192 61.192 0 0030.59-21.24c13.39-17.14 56.48-51.3 190.37-62.84M1117.19 591.529l92.63-16.67a36.005 36.005 0 0026.64-22.47c7.13-18.46 15.42-38.91 44.83-36.9 27.68 1.88 32.59 21.2 26.68 40.14a96.017 96.017 0 01-15.43 29.29c-4.42 5.82-8.81 11.59-9.64 18.51" stroke="#000" stroke-width="20" stroke-miterlimit="10" stroke-linecap="round"/><path d="M1149 637.142l65.26-4.68c4.76-.234 9.53.475 14.02 2.089a36.21 36.21 0 0112.14 7.311c12.37 11.19 34.93 25.72 58.22 11.3 34.81-21.55 19.89-63 0-75.15M516.69 600.172c16.2 32.89 16.56 48.32 12.7 86.1l-1.66 7.44" stroke="#000" stroke-width="20" stroke-miterlimit="10" stroke-linecap="round"/></g><defs><clipPath id="prefix__clip0_53_25796"><path fill="#fff" d="M0 0h1500v1500H0z"/></clipPath></defs>
      
    </g>
    </svg>