<svg
      xmlns="http://www.w3.org/2000/svg"
      preserveAspectRatio="xMidYMin meet"
      fill="none"
      viewBox="0 0 1500 1500"
    >
      <g>
      <path fill="url(#prefix__a1)" d="M0 0h1500v1500H0z"/><defs><linearGradient id="prefix__a1" x1="0" y1="0" x2="1500" y2="1500" gradientUnits="userSpaceOnUse"><stop stop-color="#57ECFF"/><stop offset="1" stop-color="#4E41EE"/></linearGradient></defs>
      <g clip-path="url(#prefix__clip0_53_28662)"><path d="M288.689 1505.57l13.36-113.94 184.06 50.77-2.67 63.17h-194.75zM1108.09 1432.16l14.41 71.69h142.41l-32.7-113.79-124.12 42.1z" fill="#ABF"/><path d="M303.471 1382.79L325 1260l56-105.5s64.91-55.22 110.5-71c0 0 87.12-38.32 292.5-41 205.38-2.68 276 52.5 276 52.5l58.65 30.23 39.22 52.98 39.13 78.97 38.22 131.86-127.13 39.32 14.41 72.47-643.659 1.15 7.27-66.62-182.64-52.57z" fill="#4AEEB9"/><path d="M500.002 1213.5c-101.2 100-117.834 249-113.5 311l-99.502-13c-1.6-110.8 39-247.5 59.5-302l39.501-52.5 15.5-20.5 66.5-42.5c149.6-59.6 294-54.83 347.5-45-63 13.17-214.299 64.5-315.499 164.5z" fill="#001647" fill-opacity=".2"/><path d="M927.95 1283l14.09 100.13-45.14-36.92-87.47 94.78-62.53-51.13-64 69.42-30.9-25.34 87.69-95.16 62.55 51.19 63.66-69.17-45.18-36.92 107.23-.88z" fill="#fff"/><path d="M289.5 1512.5c-1.965-33.24.683-79.37 8.981-129m970.519 128c-9.49-42.7-19.11-84.78-29.54-125M1084.5 1337c7.13 21.39 15.88 54.92 24.69 92m18.81 83.5c-5.91-27.5-12.37-56.45-18.81-83.5m-627.69 83.5c.172-16.93 2.213-45 5.905-75m14.595-82c-6.201 23.93-11.126 53.81-14.595 82m-188.924-54c17.035-101.9 57.885-218.59 131.519-269 158.5-108.51 616.5-87 706.5 26 46.24 58.07 77.1 146.33 102.96 246m-940.979-3l188.924 54m621.785-8.5l130.27-42.5" stroke="#000" stroke-width="20" stroke-linecap="round"/></g><defs><clipPath id="prefix__clip0_53_28662"><path fill="#fff" d="M0 0h1500v1500H0z"/></clipPath></defs>
      <g clip-path="url(#prefix__clip0_299_662)"><path d="M775 1185c231.41 0 419-168.12 419-375.5 0-207.383-187.59-375.5-419-375.5-231.407 0-419 168.117-419 375.5 0 207.38 187.593 375.5 419 375.5z" fill="#ABF"/><path d="M457.5 796c7.6 194 131.833 327.5 193 370l-130-55.5L438 1034l-57.5-89.5-27-106 11-104L394 662l45-82.5 83.5-69.5 109-54.182 28.5-1C569.452 513.314 451.119 633.132 457.5 796z" fill="#001647" fill-opacity=".2"/><path d="M775 1185c231.41 0 419-168.12 419-375.5 0-207.383-187.59-375.5-419-375.5-231.407 0-419 168.117-419 375.5 0 207.38 187.593 375.5 419 375.5z" stroke="#000" stroke-width="20"/></g><defs><clipPath id="prefix__clip0_299_662"><path fill="#fff" d="M0 0h1500v1500H0z"/></clipPath></defs>
      <g clip-path="url(#prefix__clip0_53_29200)"><path d="M764.05 848.209c35.186 0 63.71-28.524 63.71-63.71s-28.524-63.71-63.71-63.71-63.71 28.524-63.71 63.71 28.524 63.71 63.71 63.71z" fill="#000" stroke="#000" stroke-width="20" stroke-miterlimit="10"/><path d="M781.551 780c14.083 0 25.5-11.417 25.5-25.5s-11.417-25.5-25.5-25.5-25.5 11.417-25.5 25.5 11.417 25.5 25.5 25.5zM740.552 791.381c6.009 0 10.88-4.871 10.88-10.88s-4.871-10.88-10.88-10.88-10.88 4.871-10.88 10.88 4.871 10.88 10.88 10.88zM772.151 826.571c10.548 0 19.1-8.551 19.1-19.1 0-10.549-8.552-19.1-19.1-19.1-10.549 0-19.1 8.551-19.1 19.1 0 10.549 8.551 19.1 19.1 19.1z" fill="#fff"/><path d="M1051.05 848.209c35.19 0 63.71-28.524 63.71-63.71s-28.52-63.71-63.71-63.71-63.71 28.524-63.71 63.71 28.52 63.71 63.71 63.71z" fill="#000" stroke="#000" stroke-width="20" stroke-miterlimit="10"/><path d="M1068.55 780c14.08 0 25.5-11.417 25.5-25.5s-11.42-25.5-25.5-25.5-25.5 11.417-25.5 25.5 11.42 25.5 25.5 25.5zM1027.55 791.381c6.01 0 10.88-4.871 10.88-10.88s-4.87-10.88-10.88-10.88c-6.01 0-10.88 4.871-10.88 10.88s4.87 10.88 10.88 10.88zM1059.15 826.571c10.55 0 19.1-8.551 19.1-19.1 0-10.549-8.55-19.1-19.1-19.1s-19.1 8.551-19.1 19.1c0 10.549 8.55 19.1 19.1 19.1z" fill="#fff"/><path d="M905 1002.88L923.13 991a26.135 26.135 0 0010.308-30.616 26.144 26.144 0 00-6.148-9.734v0a26.143 26.143 0 00-19.36-7.629 26.155 26.155 0 00-18.8 8.919L873 970.38M905 1003l18.13 11.88a26.115 26.115 0 0110.312 30.61 26.15 26.15 0 01-6.152 9.73v0a26.233 26.233 0 01-8.883 5.84 26.052 26.052 0 01-10.475 1.81 26.056 26.056 0 01-10.33-2.51 26.14 26.14 0 01-8.472-6.42L873 1035.5" stroke="#000" stroke-width="20" stroke-miterlimit="10" stroke-linecap="round"/></g><defs><clipPath id="prefix__clip0_53_29200"><path fill="#fff" d="M0 0h1500v1500H0z"/></clipPath></defs>
      <g clip-path="url(#prefix__clip0_53_27180)"><path d="M1188 710.07v127.27h-29.81v29.85h-29.8V897H979.27v-29.81h-29.81v-29.85H919.6v-89.46h-31.28v89.46h-29.81v29.85H828.7V897H679.58v-29.81h-29.85v-29.85h-29.81v-89.46H360.81v-37.81H1188z" fill="#000"/><path d="M1038.88 837.35h-29.8v29.81h29.8v-29.81zM1009.06 807.53h-29.8v29.81h29.8v-29.81zM979.26 777.73h-29.8v29.81h29.8v-29.81zM739.18 837.35h-29.8v29.81h29.8v-29.81zM709.39 807.53h-29.81v29.81h29.81v-29.81zM679.52 777.73h-29.8v29.81h29.8v-29.81z" fill="#fff"/></g><defs><clipPath id="prefix__clip0_53_27180"><path fill="#fff" d="M0 0h1500v1500H0z"/></clipPath></defs>
      <g clip-path="url(#a)"> <path stroke="#000" stroke-width="20" d="M1073.7 545.5a85.5 85.5 0 0 1-10.6 16.6c-41 51.2-152.3 87.9-283.1 87.9-135.8 0-250.5-39.5-287.5-93.8a76 76 0 0 1-9.2-18.2"/> <path stroke="#000" stroke-linecap="round" stroke-miterlimit="10" stroke-width="20" d="m525 558.9-30 38.4m93.4-1.2L571 640.4m100.9-21.9-8 49.3m99.4-40.8-.9 47.8m90.8-53.5 8.1 49.2m86.6-67.9 11.5 48.5m60.4-83.1 28.8 40.9"/> <path fill="#97A5DE" d="M661.7 466.3s.7-50.3 11.2-50c10.6.2 30.3-4.2 30.3-4.2l31 16 25.6-5.5 29-24.7 27-1.8 28 14.1 15.4 18.7 23.4.1 51-14 24.2 23.8-19.2 52.5-44.5-21.3-17.6-6-23.2-7.1-28-2h-32.4l-55.7 3.6-50.4 9-25-1.2Z"/> <path fill="#7985B4" d="M718.5 479.2s19.3 40.5 64 34.3A222.5 222.5 0 0 0 866 481l10.4-17-81.4-15-84.1 14s-8.7 12 7.6 16.1Z"/> <path stroke="#000" stroke-linecap="round" stroke-miterlimit="10" stroke-width="18.1" d="M662.8 469.5s-13.5-58.6 30.1-60.3c15.5-.6 25.5 5 32.3 12.2 13.8 14.8 29.3 7.7 38.3-2.4 11.8-13.4 27.5-26 44.9-27.1 20.2-1.4 34.2 14.3 42.8 29.4 6.1 10.6 21.8 13.7 33.2 6.7a64.5 64.5 0 0 1 48.1-8.7c43 9.3 6 69.1 6 69.1"/> <path stroke="#000" stroke-linecap="round" stroke-miterlimit="10" stroke-width="20" d="M630 507.6s25.3-45 51.5-39.6c40.5 8.4 74.4 69.7 74.4 69.7m44.9-.4s38.8-65.5 93.3-67.3c54.5-1.8 48.4 57.9 48.4 57.9"/> <path stroke="#000" stroke-linecap="round" stroke-miterlimit="10" stroke-width="20" d="M682 468s137.2-40.3 226.4 3m-171.6 35.5s35.1 14.7 86.5 1.7"/> </g> <defs> <clipPath id="a"> <path fill="#fff" d="M0 0h1500v1500H0z"/> </clipPath> </defs>
      
    </g>
    </svg>