<svg
      xmlns="http://www.w3.org/2000/svg"
      preserveAspectRatio="xMidYMin meet"
      fill="none"
      viewBox="0 0 1500 1500"
    >
      <g>
      <path fill="url(#prefix__paint0_linear_53_28788)" d="M0 0h1500v1500H0z"/><defs><linearGradient id="prefix__paint0_linear_53_28788" x1="0" y1="0" x2="1500" y2="1500" gradientUnits="userSpaceOnUse"><stop stop-color="#DBE4E4"/><stop offset="1" stop-color="#A7BDBD"/></linearGradient></defs>
      <g clip-path="url(#prefix__clip0_53_28662)"><path d="M288.689 1505.57l13.36-113.94 184.06 50.77-2.67 63.17h-194.75zM1108.09 1432.16l14.41 71.69h142.41l-32.7-113.79-124.12 42.1z" fill="#ABF"/><path d="M303.471 1382.79L325 1260l56-105.5s64.91-55.22 110.5-71c0 0 87.12-38.32 292.5-41 205.38-2.68 276 52.5 276 52.5l58.65 30.23 39.22 52.98 39.13 78.97 38.22 131.86-127.13 39.32 14.41 72.47-643.659 1.15 7.27-66.62-182.64-52.57z" fill="#4AEEB9"/><path d="M500.002 1213.5c-101.2 100-117.834 249-113.5 311l-99.502-13c-1.6-110.8 39-247.5 59.5-302l39.501-52.5 15.5-20.5 66.5-42.5c149.6-59.6 294-54.83 347.5-45-63 13.17-214.299 64.5-315.499 164.5z" fill="#001647" fill-opacity=".2"/><path d="M927.95 1283l14.09 100.13-45.14-36.92-87.47 94.78-62.53-51.13-64 69.42-30.9-25.34 87.69-95.16 62.55 51.19 63.66-69.17-45.18-36.92 107.23-.88z" fill="#fff"/><path d="M289.5 1512.5c-1.965-33.24.683-79.37 8.981-129m970.519 128c-9.49-42.7-19.11-84.78-29.54-125M1084.5 1337c7.13 21.39 15.88 54.92 24.69 92m18.81 83.5c-5.91-27.5-12.37-56.45-18.81-83.5m-627.69 83.5c.172-16.93 2.213-45 5.905-75m14.595-82c-6.201 23.93-11.126 53.81-14.595 82m-188.924-54c17.035-101.9 57.885-218.59 131.519-269 158.5-108.51 616.5-87 706.5 26 46.24 58.07 77.1 146.33 102.96 246m-940.979-3l188.924 54m621.785-8.5l130.27-42.5" stroke="#000" stroke-width="20" stroke-linecap="round"/></g><defs><clipPath id="prefix__clip0_53_28662"><path fill="#fff" d="M0 0h1500v1500H0z"/></clipPath></defs>
      <g clip-path="url(#prefix__clip0_299_662)"><path d="M775 1185c231.41 0 419-168.12 419-375.5 0-207.383-187.59-375.5-419-375.5-231.407 0-419 168.117-419 375.5 0 207.38 187.593 375.5 419 375.5z" fill="#ABF"/><path d="M457.5 796c7.6 194 131.833 327.5 193 370l-130-55.5L438 1034l-57.5-89.5-27-106 11-104L394 662l45-82.5 83.5-69.5 109-54.182 28.5-1C569.452 513.314 451.119 633.132 457.5 796z" fill="#001647" fill-opacity=".2"/><path d="M775 1185c231.41 0 419-168.12 419-375.5 0-207.383-187.59-375.5-419-375.5-231.407 0-419 168.117-419 375.5 0 207.38 187.593 375.5 419 375.5z" stroke="#000" stroke-width="20"/></g><defs><clipPath id="prefix__clip0_299_662"><path fill="#fff" d="M0 0h1500v1500H0z"/></clipPath></defs>
      <g clip-path="url(#prefix__clip0_53_29315)"><path d="M764.05 841.24c31.336 0 56.74-25.404 56.74-56.74 0-31.337-25.404-56.74-56.74-56.74-31.337 0-56.74 25.403-56.74 56.74 0 31.336 25.403 56.74 56.74 56.74zM1048.19 841.24c31.34 0 56.74-25.404 56.74-56.74 0-31.337-25.4-56.74-56.74-56.74-31.34 0-56.74 25.403-56.74 56.74 0 31.336 25.4 56.74 56.74 56.74z" fill="#fff" stroke="#000" stroke-width="20" stroke-miterlimit="10"/><path d="M787.05 797.5c7.18 0 13-5.82 13-13s-5.82-13-13-13-13 5.82-13 13 5.82 13 13 13zM1071.19 797.5c7.18 0 13-5.82 13-13s-5.82-13-13-13-13 5.82-13 13 5.82 13 13 13z" fill="#000"/><path d="M1000.1 1063.55H831.28a5.495 5.495 0 01-5.5-5.5 89.318 89.318 0 0189.32-89.319h1.18a89.316 89.316 0 0163.158 26.161 89.312 89.312 0 0126.162 63.158c0 1.46-.58 2.86-1.61 3.89a5.503 5.503 0 01-3.89 1.61z" fill="#fff" stroke="#000" stroke-width="20" stroke-miterlimit="10"/></g><defs><clipPath id="prefix__clip0_53_29315"><path fill="#fff" d="M0 0h1500v1500H0z"/></clipPath></defs>
      <g clip-path="url(#prefix__clip0_53_26454)"><path d="M922.5 1068.5a59.023 59.023 0 0032.779-9.94 59.051 59.051 0 0021.73-26.48 59.008 59.008 0 00-12.79-64.299 58.999 58.999 0 10-83.438 83.439 59.017 59.017 0 0041.719 17.28z" fill="#F9F9F9"/><path d="M1086 1007.5c0 42.8-75.66 77.5-169 77.5-93.336 0-169-34.67-169-77.5 0-42.834 75.664-97.5 169-97.5 93.34 0 169 54.698 169 97.5z" fill="#ABF"/><path d="M926.2 975.91l163-63 42-14 13 22-12 22-141.45 51.39s-20.55-26.39-64.55-18.39z" fill="#fff"/><path d="M1000.26 944.55l19.16 45.34-31.09 4.4s-30.33-21.45-60.51-18.67c-30.18 2.78 72.44-31.07 72.44-31.07z" fill="#FF9C07"/><path d="M918.51 973.8l192.62-77.674c13.03-5.255 27.82 1.372 32.57 14.597v0c4.46 12.398-1.57 26.115-13.72 31.214L995.49 998.4" stroke="#000" stroke-width="20" stroke-miterlimit="10"/><path d="M1143.26 909.834c4.97 11.693.66 24.254-8.39 28.094s-20.4-2.527-25.37-14.219c-4.96-11.693-1.65-24.285 7.4-28.125 9.04-3.839 21.4 2.557 26.36 14.25z" fill="#FF6247" stroke="#000" stroke-width="20"/><path d="M819.26 1008s115.5-84.37 192.56 12.49" stroke="#000" stroke-width="20" stroke-miterlimit="10" stroke-linecap="round"/></g><defs><clipPath id="prefix__clip0_53_26454"><path fill="#fff" d="M0 0h1500v1500H0z"/></clipPath></defs>
      <g clip-path="url(#prefix__clip0_53_25075)"><path d="M358.07 724.24c-2.91 11.13-5.22 22.96-6.67 31.13a4.352 4.352 0 01-8.1 1.33 49.392 49.392 0 01-3.34-7.37c-3.4-9.62-6.2-21.84-8.84-26.76-2.64-4.92-1.51-14.46 0-22.09a151.869 151.869 0 002.43-18.36c.06-2.04-1.18-14.28 0-17.9.99-3.01 6.16-15.64 7.88-19.83a4.33 4.33 0 011.84-2.1l18.378-9.79 16.353-50.5 69-94.5 63-51.5c34.166-22.001 133.5-66.702 257.5-69.502 124-2.8 229.666 68.167 266.999 104l41.29 42.442c15.8 1.5 23.79 6.45 29.57 10.19 5.78 3.74 26.14 7.88 33.18 15.1 7.04 7.22 33.98 37.24 34.6 38.17.62.93 16.76 36.51 19.47 42.51.26.561.39 1.172.39 1.79v28.52c0 1.043-.38 2.05-1.06 2.84l-13.59 15.75c-.47.553-1.08.979-1.76 1.237a4.32 4.32 0 01-4.12-.569 4.35 4.35 0 01-1.36-1.668 339.426 339.426 0 00-21.14-38.48 16.32 16.32 0 00-5.9-5.549 16.263 16.263 0 00-7.84-2.021h-14.49L1002.8 627l-209.23 16.57h-.39l-277.24 47.09h-.23l-115.08 25.85a4.241 4.241 0 01-2.31-.11l-14.27-4.69a4.294 4.294 0 00-2.33-.11l-13.84 3.16a13.141 13.141 0 00-9.81 9.48z" fill="#99C4CB"/><path d="M546.5 566.502c-3.2 4-8.333 83.333-10.5 122.5l-103 18c-12.5 2-41.3 6.9-56.5 10.5-15.2 3.6-22.667 26.833-24.5 38l-22.5-66.5 24-51c8-35.666 46.9-123.899 138.5-191.499s191.833-74.167 230.5-69c-88.8 56.8-145.667 132.667-163 163.5 148.8-49.6 387-55.667 487.5-52.5l18.5 20.499c-13.5.5-41.7 1.2-46.5 0-4.8-1.2-166 8.833-246 14-74.167 12.833-223.3 39.5-226.5 43.5z" fill="#001647" fill-opacity=".2"/><path d="M1167 681.259l15-14.51a49.215 49.215 0 0014.3-26.901 49.21 49.21 0 00-4.3-30.159c-13.24-26.85-46.46-57.08-62.15-71.35-15.69-14.27-35.56-24.08-56.77-25.16-310.93-15.72-565.58 56.9-686 99.09-51.8 18.15-81.49 78.999-30.2 162.159" stroke="#000" stroke-width="20"/><path d="M361.58 627.682s53.84-186.8 241.47-235.29c187.63-48.49 327.34-27.08 476.25 119.61M367.76 725.401s312.51-78.77 497.45-86.9c0 0 164.52-11.68 272.65-7.57M994.41 512s62.27 71.5 82.83 118M433.65 600.449s-24.72 70.15-15.18 119.17M542.64 569.789s-15.23 78-3.89 120.53M643.55 550c12.26 57.53 10.25 57.46 22 117.12M748.51 529.762s31.14 50 55 116.5M872.32 514.391s41.57 54.35 68.2 120.72" stroke="#000" stroke-width="20"/></g><defs><clipPath id="prefix__clip0_53_25075"><path fill="#fff" d="M0 0h1500v1500H0z"/></clipPath></defs>
      
    </g>
    </svg>