<svg
      xmlns="http://www.w3.org/2000/svg"
      preserveAspectRatio="xMidYMin meet"
      fill="none"
      viewBox="0 0 1500 1500"
    >
      <g>
      <path fill="url(#prefix__paint0_linear_53_30462)" d="M0 0h1500v1500H0z"/><defs><linearGradient id="prefix__paint0_linear_53_30462" x1="0" y1="0" x2="1500" y2="1500" gradientUnits="userSpaceOnUse"><stop stop-color="#FFC4F6"/><stop offset="1" stop-color="#FF3DB1"/></linearGradient></defs>
      <g clip-path="url(#prefix__clip0_53_27836)"><path d="M295.802 1500s-47.94-91.54 28.64-134.76c0 0-62-101.54 67.13-159.88 0 0-37.4-104.09 81.15-137.65 0 0 113.278-13.21 336.278-19.21 0 0 195-18.5 274.57 12.04 0 0 45.53 20.87 73.44 127 0 0 102.26 45.87 83.4 145.87 0 0 95.08 77.12 34 166.56l-978.608.03z" fill="#A760FF"/><path d="M413.5 1436.5c-54 14.8-41.833 56.83-29 76H309c-8.833-12.83-26.5-48.1-26.5-86.5s29.667-63.33 44.5-71l-18-50c3.833-14.67 16.4-49.7 36-72.5 18.829-21.9 42.242-22.8 52.773-20.32-4.833-2.49-11.288-20.19-5.773-77.18 6-62 116.5-77.5 171-77.5l241.5-11 7 36c-17.167-2.17-61.1-4.2-99.5 5-48 11.5-80.5 77.5-76 125s48.5 68 69 76c16.4 6.4 11.5 13.67 7 16.5-49.667-3.83-159.1-14.1-199.5-24.5-50.5-13-74.5 13.5-92 47s3 79 17.5 92c11.6 10.4 7.5 15.67 4 17h-28.5zM678.5 1465.5c-20-4.8-18.667-17-15.5-22.5l169.5 1.5 157-10.5c19 28-73 38.5-157 41s-129-3.5-154-9.5zM913 1321.5c-15.2-3.6-15-12.83-13-17l49-6.5c2.333-3.33 20.5-12.3 74.5-21.5s109.83-61.5 131-86.5l25.5 11.5c-14.33 17-57.5 58.1-115.5 86.5-72.5 35.5-132.5 38-151.5 33.5zM1179.5 1422.5c-23.2 0-24-9.67-21.5-14.5 37.6-11.6 66.67-41.83 76.5-55.5 8.5-9.83 24.8-22.5 22 5.5-3.5 35-48 64.5-77 64.5z" fill="#001647" fill-opacity=".2"/><path d="M844.66 1500h-20.53l-3.2-51.29-16.43-263.08 20.45-1.27 5.2 83.24 14.51 232.4z" fill="#000"/><path d="M391.57 1205.36s113.92 99.14 315.74 99.14M909.141 1304.5S1033 1306.4 1157 1187.57M324.441 1357.16s36.7 65.24 111 80.93M1240.39 1333.44s0 48.45-73.06 70.34M834.691 1448.75c43.06-1.7 107.46-6.84 146-15M673.09 1443.87s71.64 5.43 147.84 4.84" stroke="#000" stroke-width="20" stroke-miterlimit="10" stroke-linecap="round"/><path d="M1084.5 1337c12.33 37 29.5 110.3 43.5 175.5m-646.5 0c.333-32.83 7.7-107.6 20.5-157M301.5 1508.5c-25.5-42-37.6-117.3 23-149.5m0 0c-22-46-25-128.1 67-152.5m-67 152.5c11.333 20.83 47.5 64.6 110.5 79m-43.5-231.5c-10.5-36.17-17.4-111.6 71-136 53.112-14.66 199.972-21.87 344-24.82m-415 160.82c38.167 32.17 156.3 99.1 315.5 97.5m450-116c-10.37-60.53-39.49-100.92-65.94-123.9-17.73-15.41-41.66-19.79-65.15-19.96-61.49-.42-140.02-.09-219.41 1.54M1157 1188c35.17 12.5 94.3 55.9 83.5 145.5M1157 1188c-97.6 94-206 116.5-248 116m331.5 29.5c35.83 26.17 81.7 104.2 28.5 180m-28.5-180c-4.8 43.2-51.67 65.33-74.5 71m-330.5 109l-29-467.82M672 1444c61.333 6.17 208.7 12.7 307.5-10.5" stroke="#000" stroke-width="20" stroke-linecap="round"/></g><defs><clipPath id="prefix__clip0_53_27836"><path fill="#fff" d="M0 0h1500v1500H0z"/></clipPath></defs>
      <g clip-path="url(#prefix__clip0_299_662)"><path d="M775 1185c231.41 0 419-168.12 419-375.5 0-207.383-187.59-375.5-419-375.5-231.407 0-419 168.117-419 375.5 0 207.38 187.593 375.5 419 375.5z" fill="#ABF"/><path d="M457.5 796c7.6 194 131.833 327.5 193 370l-130-55.5L438 1034l-57.5-89.5-27-106 11-104L394 662l45-82.5 83.5-69.5 109-54.182 28.5-1C569.452 513.314 451.119 633.132 457.5 796z" fill="#001647" fill-opacity=".2"/><path d="M775 1185c231.41 0 419-168.12 419-375.5 0-207.383-187.59-375.5-419-375.5-231.407 0-419 168.117-419 375.5 0 207.38 187.593 375.5 419 375.5z" stroke="#000" stroke-width="20"/></g><defs><clipPath id="prefix__clip0_299_662"><path fill="#fff" d="M0 0h1500v1500H0z"/></clipPath></defs>
      <g clip-path="url(#prefix__clip0_53_29287)"><path d="M764.05 841.24c31.336 0 56.74-25.404 56.74-56.74 0-31.337-25.404-56.74-56.74-56.74-31.337 0-56.74 25.403-56.74 56.74 0 31.336 25.403 56.74 56.74 56.74zM1048.19 841.24c31.34 0 56.74-25.404 56.74-56.74 0-31.337-25.4-56.74-56.74-56.74-31.34 0-56.74 25.403-56.74 56.74 0 31.336 25.4 56.74 56.74 56.74z" fill="#fff" stroke="#000" stroke-width="20" stroke-miterlimit="10"/><path d="M746.05 779.5c7.18 0 13-5.82 13-13s-5.82-13-13-13-13 5.82-13 13 5.82 13 13 13zM1066.19 779.5c7.18 0 13-5.82 13-13s-5.82-13-13-13-13 5.82-13 13 5.82 13 13 13z" fill="#000"/><path d="M831.28 968.721h168.82a5.495 5.495 0 015.5 5.5 89.318 89.318 0 01-89.32 89.319h-1.18a89.323 89.323 0 01-63.159-26.16 89.322 89.322 0 01-26.161-63.159 5.5 5.5 0 015.5-5.5z" fill="#fff" stroke="#000" stroke-width="20" stroke-miterlimit="10"/></g><defs><clipPath id="prefix__clip0_53_29287"><path fill="#fff" d="M0 0h1500v1500H0z"/></clipPath></defs>
      <g clip-path="url(#prefix__clip0_53_27350)"><path d="M695 882.421v6.14a7.746 7.746 0 01-.67 3.22c-1.26 2.86-3.34 3-3.34 3a7.817 7.817 0 01-6.39-1.32c-2.64-2.11-9.24-20.21-9.24-20.21l-12.71 20.21H654l17.8-28.21-5.59-11.59a4.654 4.654 0 00-4.07-2.64H662a4.724 4.724 0 00-4.13 1.7c-.89.89-1.21 3.78-1.21 3.78l-1.78.13a22.972 22.972 0 01-.13-5.28 7.776 7.776 0 011.34-3.76 5.694 5.694 0 014.83-2.61 7.816 7.816 0 014.51 1.43 8.67 8.67 0 013 3.74l5.26 13.05 11.44-17.4H693l-15.8 24.51 3.94 9.32s3 9 7.31 9 4.71-6.22 4.71-6.22l1.84.01z" fill="#000"/></g><defs><clipPath id="prefix__clip0_53_27350"><path fill="#fff" d="M0 0h1500v1500H0z"/></clipPath></defs>
      <g clip-path="url(#prefix__clip0_53_26339)"><path d="M1294.36 589.74c21.14 26.76 22.63 46.39 25.92 73.14 3.56 28.84-.01 57.69-25.92 85.99-21.28 23.26-51.52 36.3-91.11 55.87.99-14.52-1-35.25-3.88-50.75 26.43-18.93 47.28-17.44 42.91-53.12-4.19-33.96-36.25-46.42-98.91-61.87l-201.05-19.15-232 20.5-294.5 59.5-64.5 33 .46-7c-53.43 29.1-70.64 50.43-66.57 83.65 3.43 27.8 19.18 22.03 63.18 39.38 3.67 25.62 9.9 53.19 13.81 62-109.44-27.14-143.21-51.93-149.88-106-3.3-26.75 1.42-71.2 26.5-100 25.63-29.36 43.06-40.24 93.63-66.91a733.43 733.43 0 0125.83-13L399.501 593l61-107.5 117.5-209.5-233.5 85c-20.167 3.667-55.9.9-37.5-39.5s160.333-133.5 229-175l98.5-92c22-15.833 72.8-36.3 100 8.5 27.2 44.8 84 153.667 109 202.5 7.333-4.167 27.5-2.7 49.5 36.5s77.167 91.333 102 112.5l91.999 86-12.72 7.34 7.91 12.55a826.4 826.4 0 0120.61 3.13c.94.274 1.91.436 2.89.48 19.74 3.333 38.7 7.22 56.88 11.66 55.53 13.61 99.87 31.81 131.79 54.08z" fill="#53B6F9"/><path d="M572.28 524.39L544 506.7l-28.28 17.69a2.995 2.995 0 01-3.321-.134 2.997 2.997 0 01-1.159-3.116l8.09-32.36-25.26-21.42a3.004 3.004 0 01-.914-3.213 3.002 3.002 0 012.624-2.067l33-2.3 12.47-30.94a3.126 3.126 0 012.77-1.684 3.118 3.118 0 012.77 1.684l12.47 30.94 33 2.3a3.005 3.005 0 012.625 2.067 3.002 3.002 0 01-.915 3.213l-25.26 21.42 8.09 32.36a2.999 2.999 0 01-4.52 3.25zM734 411.709l-15.64-29.46-33.36 1.19a3 3 0 01-2.26-5.06l23.19-24-11.17-31.18a3.001 3.001 0 014.12-3.71l29.7 14.51 26.27-20.56c1.92-1.5 5.13.36 4.8 2.78l-4.67 33 27.41 18.48a3.004 3.004 0 011.242 3.104 2.993 2.993 0 01-2.402 2.326l-32.59 5.92-9.17 32.07a3.002 3.002 0 01-4.273 1.792 2.997 2.997 0 01-1.237-1.222l.04.02zM890.1 490.36l9.9-31.85-24.33-22.82a2.996 2.996 0 012-5.17l33.35-.44 14.26-29.9a2.996 2.996 0 012.873-1.701 3.007 3.007 0 012.667 2.011l10.64 31.29 33.1 4.16a3.121 3.121 0 011.44 5.36l-26.73 20 6.2 32.47a3.007 3.007 0 01-1.329 3.056 2.997 2.997 0 01-3.331-.056l-27.17-19-29.22 16.08a3.002 3.002 0 01-4.29-3.5l-.03.01zM733 211.709l-15.64-29.46-33.36 1.19a3 3 0 01-2.26-5.06l23.19-24-11.17-31.18a3.001 3.001 0 014.12-3.71l29.7 14.51 26.27-20.56c1.92-1.5 5.13.36 4.8 2.78l-4.67 33 27.41 18.48a3.004 3.004 0 011.242 3.104 2.993 2.993 0 01-2.402 2.326l-32.59 5.92-9.17 32.07a3.002 3.002 0 01-4.273 1.792 2.997 2.997 0 01-1.237-1.222l.04.02zM427 333.709l-15.64-29.46-33.36 1.19a3 3 0 01-2.26-5.06l23.19-24-11.17-31.18a3.001 3.001 0 014.12-3.71l29.7 14.51 26.27-20.56c1.92-1.5 5.13.36 4.8 2.78l-4.67 33 27.41 18.48a3.004 3.004 0 011.242 3.104 2.993 2.993 0 01-2.402 2.326l-32.59 5.92-9.17 32.07a3.002 3.002 0 01-4.273 1.792 2.997 2.997 0 01-1.237-1.222l.04.02z" fill="#fff"/><path d="M348.42 846.281c-25.82-10.39-61.32-31-63.07-43.16-.89-6.19 1.63-13.14 7.48-20.65 5.68-7.28 38.42-30.19 60.64-43.17 0 0-11.96 53.49-5.05 106.98zM1198.06 746.151c-4.93-27.29-14.85-57.46-26-82.85 34.65 12.3 55.07 12.7 56.76 24.46 16.91 38.14-11.23 44.1-30.76 58.39z" fill="#4296D5"/><path d="M585 540.001c-24.8 49.2-22.666 106.833-18.5 129.5-95.999 16.001-181 50.666-211.5 65.999l-55 36-6.5 38.5 23 21.5 31 11.5 4 11.5 10.5 50-45.5-12.5-58.5-26-38.5-56-9.5-33.5 9.5-35.5 33.5-52 135-84.5 134.5-220 53-110.5c-67.667 27.667-208.9 85.2-232.5 94-23.6 8.8-38.5-21.667-43-38l43-34.5c28.333-8.666 95.6-32.499 138-58.499 53-32.5 104-57 147.5-42.5s24.5 96.5-35 196.5c-47.6 80-54.5 138-52 157l43.5-8zM725 301c-12.8 1.2-15.667 5.5-15.5 7.5l15.5 4c6.333-.333 24-2.5 44-8.5 25-7.5 72.5-34 73.5-33.5S824 240 820.5 241c-3.405.973-14.381 9.99-27.865 21.067L791.5 263c-14 11.5-50.5 36.5-66.5 38z" fill="#001647" fill-opacity=".2"/><path d="M357.36 851.001c-41.74-13-65-25.49-68.05-46.62-9.31-65.15 196-140.45 458.69-168.13 262.69-27.68 483.27 2.62 492.64 67.76 3 21-13.55 30.71-49.42 47.09M1109 516.591s-167.34-116.29-222.73-237.36a26.983 26.983 0 00-7.543-9.775 26.99 26.99 0 00-23.452-5.283 27.005 27.005 0 00-11.005 5.598c-25.9 21.87-69.49 47.74-128.86 44.9" stroke="#000" stroke-width="20" stroke-miterlimit="10" stroke-linecap="round"/><path d="M844.27 269.77L731.57 66.18a55.588 55.588 0 00-85.12-15L311.51 316.06c-22.8 19.83-2.67 56.79 26.36 48.38l240.24-90.12M387.05 604s188-291.12 208.11-366.93" stroke="#000" stroke-width="20" stroke-miterlimit="10" stroke-linecap="round"/><path d="M370.5 912.5C276 893 221.2 849.67 213.62 788.11c-14.27-115.64 221.25-239.75 526-277.3 304.75-37.55 563.41 25.85 577.67 141.48 7.6 61.7-12.64 102.12-119.81 154.21" stroke="#000" stroke-width="20" stroke-miterlimit="10"/></g><defs><clipPath id="prefix__clip0_53_26339"><path fill="#fff" d="M0 0h1500v1500H0z"/></clipPath></defs>
      
    </g>
    </svg>