<svg
      xmlns="http://www.w3.org/2000/svg"
      preserveAspectRatio="xMidYMin meet"
      fill="none"
      viewBox="0 0 1500 1500"
    >
      <g>
      <path fill="url(#prefix__a1)" d="M0 0h1500v1500H0z"/><defs><linearGradient id="prefix__a1" x1="0" y1="0" x2="1500" y2="1500" gradientUnits="userSpaceOnUse"><stop stop-color="#57ECFF"/><stop offset="1" stop-color="#4E41EE"/></linearGradient></defs>
      <g clip-path="url(#prefix__clip0_53_28724)"><path d="M288.689 1505.57l13.36-113.94 184.06 50.77-2.67 63.17h-194.75zM1108.09 1432.16l14.41 71.69h142.41l-32.7-113.79-124.12 42.1z" fill="#ABF"/><path d="M303.471 1382.79L325 1260l56-105.5s64.91-55.22 110.5-71c0 0 87.12-38.32 292.5-41 205.38-2.68 276 52.5 276 52.5l58.65 30.23 39.22 52.98 39.13 78.97 38.22 131.86-127.13 39.32 14.41 72.47-643.659 1.15 7.27-66.62-182.64-52.57z" fill="#FF6247"/><path d="M500.002 1213.5c-101.2 100-117.834 249-113.5 311l-99.502-13c-1.6-110.8 39-247.5 59.5-302l39.501-52.5 15.5-20.5 66.5-42.5c149.6-59.6 294-54.83 347.5-45-63 13.17-214.299 64.5-315.499 164.5z" fill="#001647" fill-opacity=".2"/><path d="M825.82 1451.4l45.14-36.92-63.72-69.17-62.55 51.19-87.69-95.16 30.9-25.34 64 69.42 62.53-51.13 87.53 94.78 45.18-36.92-14.09 100.13-107.23-.88z" fill="#fff"/><path d="M289.5 1512.5c-1.965-33.24.683-79.37 8.981-129m970.519 128c-9.49-42.7-19.11-84.78-29.54-125M1084.5 1337c7.13 21.39 15.88 54.92 24.69 92m18.81 83.5c-5.91-27.5-12.37-56.45-18.81-83.5m-627.69 83.5c.172-16.93 2.213-45 5.905-75m14.595-82c-6.201 23.93-11.126 53.81-14.595 82m-188.924-54c17.035-101.9 57.885-218.59 131.519-269 158.5-108.51 616.5-87 706.5 26 46.24 58.07 77.1 146.33 102.96 246m-940.979-3l188.924 54m621.785-8.5l130.27-42.5" stroke="#000" stroke-width="20" stroke-linecap="round"/></g><defs><clipPath id="prefix__clip0_53_28724"><path fill="#fff" d="M0 0h1500v1500H0z"/></clipPath></defs>
      <g clip-path="url(#prefix__clip0_299_662)"><path d="M775 1185c231.41 0 419-168.12 419-375.5 0-207.383-187.59-375.5-419-375.5-231.407 0-419 168.117-419 375.5 0 207.38 187.593 375.5 419 375.5z" fill="#ABF"/><path d="M457.5 796c7.6 194 131.833 327.5 193 370l-130-55.5L438 1034l-57.5-89.5-27-106 11-104L394 662l45-82.5 83.5-69.5 109-54.182 28.5-1C569.452 513.314 451.119 633.132 457.5 796z" fill="#001647" fill-opacity=".2"/><path d="M775 1185c231.41 0 419-168.12 419-375.5 0-207.383-187.59-375.5-419-375.5-231.407 0-419 168.117-419 375.5 0 207.38 187.593 375.5 419 375.5z" stroke="#000" stroke-width="20"/></g><defs><clipPath id="prefix__clip0_299_662"><path fill="#fff" d="M0 0h1500v1500H0z"/></clipPath></defs>
      <g clip-path="url(#prefix__clip0_53_29395)" stroke="#000" stroke-width="20" stroke-miterlimit="10" stroke-linecap="round"><path d="M701.129 783a76.42 76.42 0 00120.5 0M988.75 783a76.436 76.436 0 0060.25 29.41c11.62 0 23.08-2.649 33.52-7.745A76.462 76.462 0 001109.25 783"/><path d="M914.5 1058.5c8.9 0 17.6-2.64 25.001-7.58a45.056 45.056 0 0016.574-20.2 45.004 45.004 0 00-32.796-61.355 44.995 44.995 0 00-46.195 19.134A45 45 0 00914.5 1058.5z" fill="#000"/></g><defs><clipPath id="prefix__clip0_53_29395"><path fill="#fff" d="M0 0h1500v1500H0z"/></clipPath></defs>
      <g clip-path="url(#prefix__clip0_53_26750)"><path d="M367.752 776.001s-3.28 28.45-1 45.76c2.44 18.17 1-1 1-1l33.42-7 66.7-6.4 126.25-16-16.45-38.56-209.92 23.2z" fill="#CCD0DA"/><path d="M606.318 716.472c95.222-8.873 410.972-33.645 575.062 10.575 1.66.448 2.89 1.625 3.3 3.297 4.9 19.994 29.97 149.958-140.21 173.418-28.09 3.88-56.602-5.94-75.622-27-10.05-11.11-24.47-21-44-21-21.81 0-38.66 12.64-50.2 25.56a87.103 87.103 0 01-68.66 29c-69-2.89-188.31-28-221.92-162.37a25.404 25.404 0 0122.25-31.48z" fill="#53B6F9" stroke="#000" stroke-width="20" stroke-miterlimit="10"/><path d="M656 709.001l89-7 116.798 190.464-32.298 16.536-47.5 5-126-205zM766.638 704.27h23.144L891 865l-14 11-110.362-171.73zM961.076 699.264L1053 705l102.75 149.657L1127 880l-40.11 18.205-125.814-198.941zM1076.5 715h18l82 115-11 16-89-131z" fill="#fff" fill-opacity=".9"/><path d="M606.318 716.472c95.222-8.873 410.972-33.645 575.062 10.575 1.66.448 2.89 1.625 3.3 3.297 4.9 19.994 29.97 149.958-140.21 173.418-28.09 3.88-56.602-5.94-75.622-27-10.05-11.11-24.47-21-44-21-21.81 0-38.66 12.64-50.2 25.56a87.103 87.103 0 01-68.66 29c-69-2.89-188.31-28-221.92-162.37a25.404 25.404 0 0122.25-31.48zM584.08 748.012L356 777.042M598.32 795L356 822" stroke="#000" stroke-width="20" stroke-miterlimit="10"/></g><defs><clipPath id="prefix__clip0_53_26750"><path fill="#fff" d="M0 0h1500v1500H0z"/></clipPath></defs>
      <g clip-path="url(#a)"> <path fill="#3A3A3A" d="m500.5 506.5-86.7 95.8-7.6 25.9-16.5-13v21.3l-14.2 29-6.5 26-5.9 13.5v27.4l137.4-36 281.9-43.8 203.1-20.4 163.5 6.4-33.6-56.8-44.6-50.8-54.2-42.4-85.2-40.4-124-19L652 439.8l-151.5 66.8Z"/> <path fill="#000" fill-opacity=".2" d="M692 440c-99.6 64.8-158.8 200-176 259.5L358.5 723c5.8-27.8 34.4-102.3 102-177.5S643 443.8 692 440Z"/> <path stroke="#000" stroke-linecap="round" stroke-miterlimit="10" stroke-width="20" d="M365.8 728.5C438.7 708.9 866 599.4 1145 639a6.9 6.9 0 0 0 7.8-6.6c0-1.3-.3-2.6-1-3.7-30.3-49.7-159.9-231.8-425.3-200-291 35-357.4 241.3-369.3 291.5a6.7 6.7 0 0 0 1.9 6.5 6.9 6.9 0 0 0 6.5 1.7h0Z"/> </g> <defs> <clipPath id="a"> <path fill="#fff" d="M0 0h1500v1500H0z"/> </clipPath> </defs>
      
    </g>
    </svg>