<svg
      xmlns="http://www.w3.org/2000/svg"
      preserveAspectRatio="xMidYMin meet"
      fill="none"
      viewBox="0 0 1500 1500"
    >
      <g>
      <path fill="url(#prefix__paint0_linear_53_28788)" d="M0 0h1500v1500H0z"/><defs><linearGradient id="prefix__paint0_linear_53_28788" x1="0" y1="0" x2="1500" y2="1500" gradientUnits="userSpaceOnUse"><stop stop-color="#DBE4E4"/><stop offset="1" stop-color="#A7BDBD"/></linearGradient></defs>
      <g clip-path="url(#a)"> <path fill="#E8CE99" d="m291.7 1501 6-89.4L329 1275l34.1-81.7 54.4-70.4 45.5-16.4 9.8-36s114 126.5 343.2 113.6c0 0 175.5-31.1 254.8-107l9 22 57.2 40.3 41.3 78.4 44.4 116.4 41.5 166.3-972.5.4Z"/> <path fill="#9E6740" d="M623.3 1425.2c-1.8.8-3.7 1.3-5.7 1.5-3.5.5-9.2-2.2-12-3.5-4.2-1.8-9.8-4.8-14.5-3.7-.7.1-1.3.4-1.9.8a2.9 2.9 0 0 0-.8 3.3c.4 1.3 1.1 2.6 2 3.7 3.2 3.7 8.3 6.4 10.6 10.8 2.5 4.9-2.6 7.7-6.6 9l-.6.2H573c-3.8-1.3-7-3.9-10.7-5.4-5.2-2.1-11-1.7-16.6-1.2-6.5.6-13 1.4-19-1-6.9-2.7-7-11.7-3.2-17 2.7-3.7 7-6 10.7-8.4 2.5-1.6 7.2-4.1 5.8-7.7-1.4-3.6-6.1-5.2-7.6-9-2.3-5.6 3.2-10.3 7.4-13 7-4.4 15.3-6.6 23.6-6.2 5.6.5 11 2.3 15.9 5.3 2 1.1 4 2.4 5.8 3.7 9.8 6.9 12 12.3 19 17.8a48 48 0 0 0 7 4.7c5 2.7 12.8 7.4 14.1 11.3.6 1.5.1 3-2 4Z"/> <path fill="#578926" d="M823.2 1414.3c-.6 5-6.1 8.9-11.3 11.6-4 2.2-9.9 4.1-14.1 7.3-2.6 2-4.6 4.4-5.2 7.5-.1 1-.2 2-.1 3 .4 8.6 8.1 18.6 11 25.9 4.2 10.6 6 22.1-1 31.4H598.2a22 22 0 0 1-7-17.2c.1-2.3.4-4.7 1-7 6.4-29.3 38-25.3 61-23.6 18 1.3 41 2.2 48.6-13.8a26.2 26.2 0 0 0 2.5-11.2c.3-10.6.9-19.9 10.2-26.7a58.3 58.3 0 0 1 28.1-9.6c8.8-.9 17.6-1 26.3-.4 15.5 1 39.8 3 51.1 15.4 1.4 1.3 2.3 3 2.9 4.7.2 1 .3 1.8.2 2.8Zm415.9 86.7h-85.4c1.6-2.4 3.4-4.6 5.4-6.6 12.6-13.5-1.3-26.3-12-35.6-2.5-2.1-5.3-4.5-8-7a42.8 42.8 0 0 1-11.4-14.8c-2-5.3-2-11.2 2.2-17.6l.6-.8c6-8.7 13.6-9.1 21-6 5 2.1 10 5.9 14.2 9.7 3.4 3.2 8.6 9 13.6 5.5 4.5-3.3 5.6-11.6 6.5-16.6.5-2.6.6-6.1 1.5-9.1.4-1.6 1.3-3 2.4-4a15 15 0 0 1 8.4-3c1.2-.1 2.4 0 3.5.4 3.7 1.3 6.5 5.4 5.7 15.1a81.8 81.8 0 0 0 2.2 21.4c2 8.4 5 16.5 8.8 24.3a337 337 0 0 0 8.3 15.7c4.8 8.5 11.7 18.7 12.5 29Z"/> <path fill="#3A3A3A" d="M748.1 1257.7c-9.8.4-18.6 15.3-24.2 21.8-7.7 9-18.2 24.4-31 26.2-11.6 1.5-19.6-12.4-26.6-19.3a44 44 0 0 0-44.6-12.2c-35.5 9.7-94.7 49-72.5 77.4 12.5 16 41.8-20.8 59.8 0 11 12.7 27.2 39.8 44 29.9 16.8-10 15-26.7 20.6-43 6-17.6 26-8.7 40.3-10.2a93 93 0 0 0 40.4-14.2c8-5.1 18.7-13 19.4-23.6.5-7.8 7-34.3-25.6-32.8Zm258.9 85c7-3.5 19.3 3.6 25.8 6.1 9 3.5 22.6 10.4 32.4 6.7 9-3.5 9.2-16.5 11.6-24.3a35.9 35.9 0 0 1 27-26.1c29.3-7 87.2-2 82.4 27-2.7 16.4-38.1 1.5-42.9 23.5-2.9 13.3-4 39.1-19.9 38.6-15.9-.5-21.2-13.3-31.5-22.8-11.1-10.2-22 4-32.9 8.6a76 76 0 0 1-34.5 5.6c-7.7-.5-18.5-2.1-23-9.3-3.5-5.5-18.5-22 5.4-33.6Z"/> <path fill="#578926" d="M504.7 1320c6.7-10.7 44.9-50.3 13.7-56-16.5-3-31.2 8.4-40.1 21-4 5.6-7.2 13-13 17-5.8 3.8-13.2 2.3-19.7.7-16.2-4-39.5-12.2-49.1 7.3-10.6 21.5-20.8 61.4-4.6 67 14 4.9 26-33.2 42.5-20 4.3 3.4 3.3 18 6.6 21.7a47.3 47.3 0 0 0 48.6 13.5c17.1-4.4 18.6-16.3 14.3-31.5-4-14-7.5-27.3.8-40.6Z"/> <path fill="#9E6740" d="M948.8 1348c9-6 52.5-23 30.5-38.4-11.7-8.2-27-4.6-38.5 2-5 3-10 7.5-16 8.5-5.8 1-11-2.8-15.4-6.4-11.2-8.8-26.2-23.4-40.5-11.7-15.8 12.8-37.8 40-27.2 50 9 8.7 31.7-16.4 39.8-.4 2.2 4.1-3.8 15-2.6 19 4.4 15 17.5 25 32.7 27.7 14.8 2.6 20.2-6 22.2-19.2 2-12.3 3.9-23.8 15-31.1Z"/> <path fill="#3A3A3A" d="M989 1472.3a48.2 48.2 0 0 1-8.6 17.7 27.7 27.7 0 0 1-14.6 11h-66.1l-.2-3.2c-.1-4.7.1-11.9-4.5-14.8-4.6-2.8-11.2.3-15.6 2-5.7 2-12 4.7-18.2 2.8-6.8-2-11-8.9-13.4-15.1a37.6 37.6 0 0 1 14-45.8c15.7-10 28.4-.6 43 6.4 7 3.4 14 1.4 20.6-2.6a97 97 0 0 0 10.9-8.2c9.6-8 18-16 24.5-10.2 4.5 4 7.6 10.2 10.5 16.8 3.8 8.8 7.1 18 12.5 23.3a20.3 20.3 0 0 1 5.3 20Z"/> <path fill="#578926" d="M1114.5 1209.9c1-11.8 16-60.7-12.2-52.3-15 4.5-22.4 20.1-24.4 34.4-1 6.2-.5 13.7-3.7 19.4-3.1 5.7-9.9 7.6-16 9-15 3.5-37.8 6.5-37.6 26.7.3 22.2 8.6 59.6 24.4 57.4 13.7-1.9 7.5-38.4 26.8-34.5 5 1 10.3 13.5 14.6 15.2 15.8 6.5 33.2 2 46-9.2 12.3-10.9 8.5-21.3-1.4-32.1-9.3-10-17.8-19.5-16.5-34Z"/> <path fill="#3A3A3A" d="M446.6 1487c-3.8 7.7-9.3 12-15.7 14a52.8 52.8 0 0 1-25.6 0c-7-1.4-14-3.4-20.1-4.9-8.2-2-17.2-4-24.7 1-1.6 1.1-3 2.4-4.4 3.9h-64.4c2.4-3.6 5-7 7.4-10.3 5.2-7 10-12.8 12.2-16.3 10.4-16.6 6-33.2 1-50.8-5.4-19-3.5-33.8 17.9-39.4a59.3 59.3 0 0 1 60.8 17c4 4.7 2.8 22.9 8.2 27.1 20.7 16.4 35.6-31.1 53.1-25 20.3 7 7.5 57-5.7 83.7Z"/> <path fill="#9E6740" d="M416.2 1244c3.6 13.2 4.5 26.5 19.7 31 14.8 4.5 29.8-3 37-16.2 2.7-5 4.8-11.5 2.3-17-2.2-5-7.4-7.5-11.9-10-3.4-2-9.1-4.5-9.8-9-.7-4.5 4-8.4 7-11 6.4-6 16.3-15 4.1-20.6-9.5-4.5-21-3.1-28.4-11.8-3.1-3.6-5.3-8-9.2-11.1a23.2 23.2 0 0 0-16.2-4c-11.6.7-25 5.4-26 18.5-.7 11-12.8 25-13 36.9-.3 14.6 39 3.9 44.4 24.3Zm694.8 251.3a36.8 36.8 0 0 1-3.5 5.7h-48.2c-2.6-5.5-3.7-12.1-5.5-18.7-1.7-6.4-6.7-9.7-12.8-11.7-13.2-4.3-31.5-2.5-31.3-12.5.2-10.7 10-22.9 12.4-33.2.3-1.2.5-2.3.6-3.5.8-13 14.2-17.6 25.7-18.4a23 23 0 0 1 16.1 4c3.9 3 6 7.5 9.2 11.2 5.8 6.7 14 7.3 21.9 9.4a38 38 0 0 1 6.3 2.2c10.4 5 4.4 12.2-1.5 17.9l-2.6 2.5c-3 2.7-7.7 6.5-7 11 .7 4.5 6.3 7 9.8 9 1.8 1 3.8 2 5.7 3.3a16 16 0 0 1 6.1 6.6c2.2 4.9.7 10.5-1.5 15.2Z"/> <path stroke="#000" stroke-linecap="round" stroke-miterlimit="10" stroke-width="20" d="m807.8 1195.5 21.5 305.5"/> <path stroke="#000" stroke-miterlimit="10" stroke-width="20" d="M749.5 1367a19.5 19.5 0 1 0 0-39 19.5 19.5 0 0 0 0 39Z"/> <path fill="#E8CE99" stroke="#000" stroke-width="12" d="M881.8 1311.7a5 5 0 0 1 5-5.7h127.9a5 5 0 0 1 4.9 4.3l8.6 62a5 5 0 0 1-5 5.7H895.5a5 5 0 0 1-5-4.3l-8.6-62Z"/> <path fill="#000" d="M939.3 1344a2.6 2.6 0 0 1-.3 2.2 2.3 2.3 0 0 1-1.8 1.1 12.7 12.7 0 0 1-2.3.2c0 1.2-.2 2.5-.7 3.6a10 10 0 0 1-5.3 5.4 10 10 0 0 1-3.8.8h-.2c-1.5 0-3-.4-4.3-1.1-1.4-.8-2.6-1.8-3.6-3.1a22.9 22.9 0 0 1-4.1-11.3c-.4-2.4-.5-4.9-.2-7.3.1-1.8.7-3.6 1.5-5.2l1.4-1.7a7.8 7.8 0 0 1 5.7-2 11.7 11.7 0 0 1 7.7 2.8 5 5 0 0 1 1.8 3 2.5 2.5 0 0 1-.6 2l-.8.7-1 .2a3 3 0 0 1-1.8-.6 4 4 0 0 1-1.3-1.3 7.3 7.3 0 0 0-1.9-.8l-1.2-.2c-.5 0-1 0-1.3.2-1 .4-1.5 1.2-2 2.4-.6 1.8-.7 4.4-.2 7.8.2 1.9.6 3.6 1.2 5.3.4 1 1 1.9 1.5 2.7a3.6 3.6 0 0 0 2.8 1.6 5 5 0 0 0 3.5-1.6 7 7 0 0 0 1.3-2.4h-1.8c-.8 0-1.6-.4-2.2-1-.6-.5-1-1.3-1.1-2a2.5 2.5 0 0 1 1.4-2.7 58.4 58.4 0 0 1 2.4-.2h1.3l3.1.2c1.3 0 2.5 0 3.7-.2.8-.1 1.6.1 2.2.6.7.5 1.1 1.2 1.3 2Zm8.3 13.4a3.4 3.4 0 0 1-3.3-3 333 333 0 0 1-.7-3.6l-.6-3.8-.6-4.5a334.8 334.8 0 0 1-.9-9 31 31 0 0 1 .2-4.6l.3-1.2a3.6 3.6 0 0 1 1.5-1.7l1.2-.3a4.2 4.2 0 0 1 2.8 1.1l.7.7.6.8a124 124 0 0 1 7.2 14.7l.1-1.2.2-1a271.8 271.8 0 0 1 1.6-9.1l.4-1.9a13.8 13.8 0 0 1 1-2.6c.1-.4.4-.8.7-1a3 3 0 0 1 1.2-.6h1.4l1.4.7.9 1 .8 1.3.7 1.9a51 51 0 0 1 1.5 6.5 1972.6 1972.6 0 0 0 2.4 13.5 240 240 0 0 1 .5 5 2.4 2.4 0 0 1-2.5 1.7c-.8 0-1.6-.3-2.2-.9-.6-.5-1-1.3-1.2-2l-.4-3.5-.6-3.5a210.5 210.5 0 0 0-1.3-7.8l-.4 2-.3 2.2a166.5 166.5 0 0 0-1.6 11.5 2.4 2.4 0 0 1-2.4 2.1c-.8 0-1.4-.3-2-.7-.5-.4-1-1-1.2-1.6a164 164 0 0 0-1.3-3.5l-1.4-3.5-1.7-4.2-1.4-3.4-1.2-2.8a42.4 42.4 0 0 0 .7 5.8 213.2 213.2 0 0 0 1.6 11 2.5 2.5 0 0 1-.4 2.1l-.9.7-1 .2h-.1Zm43.3-31.7a3.5 3.5 0 0 1 2.2 2.6v1.2a55.2 55.2 0 0 1-5.2 13.6 229.2 229.2 0 0 0 7.7 9l.3.4c.6.6.9 1.4 1 2.2a2.6 2.6 0 0 1-1 2c-.4.3-1 .5-1.6.5-.4 0-.9 0-1.3-.3-.5-.2-.9-.5-1.2-.8l-.3-.4a1179 1179 0 0 1-6.4-7.4l-.5.8-.4.8a161.3 161.3 0 0 0-3.3 6 2 2 0 0 1-1 1c-.3.3-.8.4-1.2.3-.7 0-1.2-.1-1.7-.5a3.4 3.4 0 0 1-1.7-3 287.6 287.6 0 0 0 2-4.2l1.7-3 1-1.7.9-1.7a65.9 65.9 0 0 1-8.7-14.3v-1.2l.6-1 1-.5a3 3 0 0 1 2.2.2 4 4 0 0 1 1.7 1.7 59.9 59.9 0 0 0 6 9.7 72.8 72.8 0 0 0 4.1-11.4c.2-.2.5-.5.8-.6l1.2-.3c.3 0 .7.1 1 .3Z"/> <path stroke="#000" stroke-linecap="round" stroke-width="20" d="M289.5 1513.5c-6-101.5 31-323 140.5-398 158.5-108.5 616.5-87 706.5 26 65 81.5 99.5 222.5 132.5 371M1084.5 1338c12.3 37 29.5 110.3 43.5 175.5m-646.5 0c.3-32.8 7.7-107.6 20.5-157"/> <path fill="#E2C47F" d="m467.6 1111.5 7.4-39 62.5-15.5 72-5.5 53-8h147l104.5 8 107 8.1 53.6 19-3.8 40.8-21.3 55-90.7 68.1-76.5 24.3-62.8-69.8a20 20 0 0 0-31.6 2.5l-44 67.3-58.9 2.7-143.7-46.2-68.6-65.1-5.1-46.7Z"/> <path stroke="#000" stroke-width="20" d="M535 1215c-83.6-40.4-76.5-113.2-62.5-144.5 266-49.2 513.5-20.2 604 .5 21.4 119.7-113.1 181.3-188.3 198.7-3.5.9-7.2-.4-9.6-3.2l-54.1-62.5a21 21 0 0 0-32.3.6l-50 62.4c-2 2.5-5 4-8.3 3.7A610.8 610.8 0 0 1 535 1215Z"/> <path fill="#001647" fill-opacity=".2" d="M489 1227.5c-82.4 87.6-103 222.5-103 279h-97l5.5-106.5c6.7-44.8 30.2-150.7 71-215.5 40.8-64.8 83-83 99-84l9-27h22l52.5-14 150-14h113.5c-160.4 46.4-265.5 121.3-298 153l120 56.5 103 23.5c-123.6 19.6-216.5-25.8-247.5-51Zm374.4 51.8A467.2 467.2 0 0 1 793 1201l21-6 74.5 78c-8.6 4.5-14.4 7-18 8-2.5.9-5.1 0-7.1-1.7Z"/> </g> <defs> <clipPath id="a"> <path fill="#fff" d="M0 0h1500v1500H0z"/> </clipPath> </defs>
      <g clip-path="url(#prefix__clip0_299_662)"><path d="M775 1185c231.41 0 419-168.12 419-375.5 0-207.383-187.59-375.5-419-375.5-231.407 0-419 168.117-419 375.5 0 207.38 187.593 375.5 419 375.5z" fill="#ABF"/><path d="M457.5 796c7.6 194 131.833 327.5 193 370l-130-55.5L438 1034l-57.5-89.5-27-106 11-104L394 662l45-82.5 83.5-69.5 109-54.182 28.5-1C569.452 513.314 451.119 633.132 457.5 796z" fill="#001647" fill-opacity=".2"/><path d="M775 1185c231.41 0 419-168.12 419-375.5 0-207.383-187.59-375.5-419-375.5-231.407 0-419 168.117-419 375.5 0 207.38 187.593 375.5 419 375.5z" stroke="#000" stroke-width="20"/></g><defs><clipPath id="prefix__clip0_299_662"><path fill="#fff" d="M0 0h1500v1500H0z"/></clipPath></defs>
      <g clip-path="url(#prefix__clip0_53_29315)"><path d="M764.05 841.24c31.336 0 56.74-25.404 56.74-56.74 0-31.337-25.404-56.74-56.74-56.74-31.337 0-56.74 25.403-56.74 56.74 0 31.336 25.403 56.74 56.74 56.74zM1048.19 841.24c31.34 0 56.74-25.404 56.74-56.74 0-31.337-25.4-56.74-56.74-56.74-31.34 0-56.74 25.403-56.74 56.74 0 31.336 25.4 56.74 56.74 56.74z" fill="#fff" stroke="#000" stroke-width="20" stroke-miterlimit="10"/><path d="M787.05 797.5c7.18 0 13-5.82 13-13s-5.82-13-13-13-13 5.82-13 13 5.82 13 13 13zM1071.19 797.5c7.18 0 13-5.82 13-13s-5.82-13-13-13-13 5.82-13 13 5.82 13 13 13z" fill="#000"/><path d="M1000.1 1063.55H831.28a5.495 5.495 0 01-5.5-5.5 89.318 89.318 0 0189.32-89.319h1.18a89.316 89.316 0 0163.158 26.161 89.312 89.312 0 0126.162 63.158c0 1.46-.58 2.86-1.61 3.89a5.503 5.503 0 01-3.89 1.61z" fill="#fff" stroke="#000" stroke-width="20" stroke-miterlimit="10"/></g><defs><clipPath id="prefix__clip0_53_29315"><path fill="#fff" d="M0 0h1500v1500H0z"/></clipPath></defs>
      <g clip-path="url(#prefix__clip0_53_26419)"><path d="M831.281 968.72H1000.1a5.495 5.495 0 015.5 5.5 89.32 89.32 0 01-89.319 89.32h-1.18a89.323 89.323 0 01-63.159-26.16 89.325 89.325 0 01-26.161-63.16 5.5 5.5 0 015.5-5.5z" fill="#fff" stroke="#000" stroke-width="20" stroke-miterlimit="10"/><path d="M1086 1006.5c0 43.35-75.66 78.5-169 78.5-93.336 0-169-35.11-169-78.5 0-43.386 75.664-78.5 169-78.5 93.34 0 169 35.146 169 78.5z" fill="#ABF"/><path d="M905 1002.88L923.13 991a26.135 26.135 0 0010.308-30.616 26.144 26.144 0 00-6.148-9.734v0a26.143 26.143 0 00-19.36-7.629 26.155 26.155 0 00-18.8 8.919L873 970.38M905 1003l18.13 11.88a26.115 26.115 0 0110.312 30.61 26.15 26.15 0 01-6.152 9.73v0a26.233 26.233 0 01-8.883 5.84 26.052 26.052 0 01-10.475 1.81 26.056 26.056 0 01-10.33-2.51 26.14 26.14 0 01-8.472-6.42L873 1035.5" stroke="#000" stroke-width="20" stroke-miterlimit="10" stroke-linecap="round"/><path d="M1099.27 836a156.437 156.437 0 00-153.411 134 26.558 26.558 0 01-16.18 20.75l-10.68 6.87a6.417 6.417 0 00-2.92 4.75c-.097.96.026 1.94.358 2.85.333.9.867 1.73 1.562 2.4 17.18 16.44 31.57 31.63 42 53a156.432 156.432 0 0073.451 72.93 156.47 156.47 0 00102.91 11.12 156.43 156.43 0 0087.32-55.58 156.458 156.458 0 0033.52-97.93c-.7-86.04-71.79-155.92-157.93-155.16z" fill="#F56CDB" fill-opacity=".9" stroke="#000" stroke-width="20" stroke-miterlimit="10"/><path d="M1207.52 931.913c16.03 30.088 16.61 61.085 1.31 69.237-15.31 8.15-12.99-24.393-29.02-54.481-16.02-30.088-44.31-46.329-29.01-54.479 15.3-8.149 40.7 9.635 56.72 39.723z" fill="#fff"/><circle cx="1209" cy="1031" r="13" fill="#fff"/></g><defs><clipPath id="prefix__clip0_53_26419"><path fill="#fff" d="M0 0h1500v1500H0z"/></clipPath></defs>
      <g clip-path="url(#prefix__clip0_53_26266)"><path d="M661.719 466.274s.681-50.314 11.212-50.049c10.53.266 30.241-4.165 30.241-4.165l31.002 15.989 25.638-5.424 28.99-24.747 27.071-1.791 27.883 14.121 15.446 18.681 23.411.145 50.96-13.954 24.276 23.68-19.232 52.574-44.507-21.369-17.617-6.041-23.175-7.036-28.05-1.943-32.388-.112-55.638 3.68-50.45 8.949-25.073-1.188z" fill="#97A5DE"/><path d="M718.506 479.214s19.322 40.453 64.014 34.31c44.692-6.143 83.522-32.583 83.522-32.583l10.406-17.065-81.463-14.775-84.096 14.041s-8.664 11.898 7.617 16.072z" fill="#7985B4"/><path d="M662.843 469.488s-13.534-58.554 30.087-60.287c15.493-.614 25.434 4.992 32.226 12.21 13.894 14.755 29.392 7.707 38.346-2.386 11.842-13.391 27.482-26.021 44.854-27.17 20.226-1.338 34.215 14.393 42.889 29.474 6.094 10.621 21.799 13.651 33.204 6.683 11.953-7.315 28.35-12.9 48.081-8.683 42.964 9.245 6.064 69.091 6.064 69.091" stroke="#000" stroke-width="18.1" stroke-miterlimit="10" stroke-linecap="round"/><path d="M630.048 507.636s25.276-45.068 51.452-39.634c40.502 8.395 74.399 69.733 74.399 69.733M800.818 537.27s38.761-65.501 93.251-67.301c54.49-1.801 48.429 57.93 48.429 57.93M682 468s137.209-40.275 226.409 2.982M736.796 506.5s35.103 14.655 86.489 1.675" stroke="#000" stroke-width="20" stroke-miterlimit="10" stroke-linecap="round"/><path d="M1074 522.5l-37.5-24-141-15.5L703 494.5 555.5 521 469 541.5l-39.5 21c-4.834 9.667-20.801 36.1-46.001 64.5s-17.833 54.167-11 63.5l115 6 250-6 182.5-13.5 282.501-11.5 22.5-4.5v-20.5h-6l-20-7.5c-8.67-2.833-28.1-9.3-36.5-12.5-10.5-4-16.5-5-21.5-7.5-4-2-8.67-7.5-10.5-10l-32.5-44-24-36.5z" fill="#4AEEB9"/><path d="M611 511c-60.8 66.8-86.667 149.5-92 182.5l-147.5-2c-1-5.667.4-25.7 14-60.5s52.666-68.167 70.5-80.5l63-25 92-14.5zM810.5 596.5c151-13.38 262.33-4.667 314.5 0l16 19.5c-29.17-1.833-111.2-5.3-206-4.5-94.8.8-246.167 24-310 35.5-25 9.667-73.5 25.9-67.5 13.5 7.5-15.5 95-50 253-64z" fill="#001647" fill-opacity=".2"/><path d="M814.61 561.632a4.841 4.841 0 01-.32 4.08 4.34 4.34 0 01-3.23 2.21c-.75.16-1.49.28-2.23.38-.74.1-1.46.17-2.18.21a15.73 15.73 0 01-.82 6.68 19.381 19.381 0 01-9.28 10.59 17.368 17.368 0 01-7 1.86h-.41c-2.759.092-5.5-.47-8-1.64a21.456 21.456 0 01-7-5.32c-4.24-4.78-7.21-11.64-8.91-20.58a54.564 54.564 0 01-1.17-13.47 24.65 24.65 0 012.42-9.7 15.081 15.081 0 012.44-3.39 13.972 13.972 0 013.21-2.51 15.468 15.468 0 013.32-1.37 13.758 13.758 0 013.74-.54 21.73 21.73 0 0110.52 2.12 16.803 16.803 0 014.12 2.47 9.44 9.44 0 012.56 2.82 9.287 9.287 0 011 2.4 4.672 4.672 0 01-.77 3.93 4.34 4.34 0 01-3.4 1.79 5.74 5.74 0 01-3.28-.83 7.894 7.894 0 01-2.51-2.4 13.142 13.142 0 00-1.53-.68 14.33 14.33 0 00-2.1-.6 10.832 10.832 0 00-2.39-.2 6.656 6.656 0 00-2.41.51c-1.57.76-2.65 2.29-3.24 4.57-1.013 3.44-.913 8.333.3 14.68a37.92 37.92 0 002.82 9.65 21.44 21.44 0 003.08 4.89 6.765 6.765 0 005.24 2.59 9 9 0 006.34-3.37 8.486 8.486 0 002.17-4.47H792.36a6.003 6.003 0 01-4.16-1.42 6.112 6.112 0 01-2.31-3.81 4.71 4.71 0 01.89-3.81 4.365 4.365 0 013.4-1.76h.09c.88-.05 1.73-.08 2.54-.1.81-.02 1.6 0 2.39 0 2 0 3.89 0 5.8-.11a56.274 56.274 0 006.69-.75 5.719 5.719 0 014.22.95 6.396 6.396 0 012.7 3.45zM845.249 584.568c-2.21.13-4.07.19-5.58.19-1.51 0-2.75 0-3.72-.09-.97-.09-1.73-.13-2.28-.22-.55-.09-.95-.14-1.18-.19a7.643 7.643 0 01-2.14-.72 9.013 9.013 0 01-2.57-2c-.859-.89-1.583-1.9-2.15-3-.502-.95-.95-1.928-1.34-2.93-.42-1.08-.83-2.31-1.23-3.7a74.155 74.155 0 01-1.87-7.34c-.59-2.79-1.19-5.91-1.8-9.38-.553-2.9-1.017-5.723-1.39-8.47l-1-7.35c-.28-2.15-.49-3.92-.64-5.29-.15-1.37-.23-2.12-.25-2.23a4.279 4.279 0 01.14-1.991 4.285 4.285 0 011.03-1.709 4.806 4.806 0 013.75-1.48 6.29 6.29 0 014.09 1.8 5.999 5.999 0 012 3.87c0 .06.07.63.19 1.73s.29 2.55.53 4.37c.24 1.82.53 3.92.86 6.3.33 2.38.7 4.82 1.12 7.34.51 3 1 5.75 1.46 8.21.46 2.46 1 4.66 1.47 6.6.47 1.94.91 3.31 1.26 4.42.35 1.11.62 1.94.85 2.49 1.555.089 3.115.089 4.67 0 1.85-.08 3.8-.18 5.84-.33 2.04-.15 4.08-.31 6.11-.5 2.03-.19 3.88-.4 5.58-.61a5.689 5.689 0 014.18 1.13 6.657 6.657 0 012.61 3.66 4.693 4.693 0 01-.51 4 4.389 4.389 0 01-3.26 2.05l-1 .09-2.38.26-3.37.36c-1.26.12-2.6.23-4 .31-.77.09-1.48.16-2.14.2l-1.94.15zM875.96 582.959a6.583 6.583 0 01-4.15-1.59 5.808 5.808 0 01-2.18-3.81 600.262 600.262 0 00-4.65-23.61 469.791 469.791 0 00-5.68-23.38 4.548 4.548 0 01.48-3.94 4.406 4.406 0 013.27-2c4.546-.666 9.154-.8 13.73-.4a45.291 45.291 0 0112.07 2.76 32.288 32.288 0 019.37 5.49 19.751 19.751 0 015.88 8.48c.271 1.015.475 2.047.61 3.09a12.08 12.08 0 01-.17 4 16.096 16.096 0 01-1.76 4.63 19.027 19.027 0 01-4 4.87c-4.52 4.093-11.236 7.286-20.15 9.58.31 1.73.62 3.45.95 5.15.33 1.7.61 3.39.85 5.07a4.755 4.755 0 01-.84 3.81 4.252 4.252 0 01-3.36 1.76l-.27.04zm-4.58-48c1.767 6.84 3.4 13.84 4.9 21a45.963 45.963 0 009.37-3.56 25.652 25.652 0 005-3.41 10.54 10.54 0 002.62-3.28 3.926 3.926 0 00.35-3 6.661 6.661 0 00-2.45-3.08 19.134 19.134 0 00-4.87-2.61 38.14 38.14 0 00-14.92-2.04v-.02z" fill="#000"/><path d="M1148.14 619.091s-38.14-50.32-65.28-84.09a96.571 96.571 0 00-61-35c-85.13-12.78-294.76-39.4-549.6 40.11-20.25 6.33-39.62 21.92-53.48 40-16.93 24.21-49.63 61.79-51.22 97.1a15.375 15.375 0 004.31 11.311 15.385 15.385 0 0011.16 4.689l176.16-.72" stroke="#000" stroke-width="20" stroke-miterlimit="10"/><path d="M1221.53 637.511c-105.4-53.61-631.53-25-681 46.39 17 11.1 11 8.52 54.26 8.52 57 1 115.3 5.35 232-8.52 146.08-17.37 295.53-19 390.88-17.6 17.25.26 19.33-20.95 3.86-28.79z" stroke="#000" stroke-width="20" stroke-miterlimit="10"/></g><defs><clipPath id="prefix__clip0_53_26266"><path fill="#fff" d="M0 0h1500v1500H0z"/></clipPath></defs>
      
    </g>
    </svg>