<svg
      xmlns="http://www.w3.org/2000/svg"
      preserveAspectRatio="xMidYMin meet"
      fill="none"
      viewBox="0 0 1500 1500"
    >
      <g>
      <path fill="url(#prefix__paint0_linear_53_28788)" d="M0 0h1500v1500H0z"/><defs><linearGradient id="prefix__paint0_linear_53_28788" x1="0" y1="0" x2="1500" y2="1500" gradientUnits="userSpaceOnUse"><stop stop-color="#DBE4E4"/><stop offset="1" stop-color="#A7BDBD"/></linearGradient></defs>
      <g clip-path="url(#prefix__clip0_53_27416)"> <path d="M1088.5 1102l24 16 38 37.5 15.5 31 17 30.5-4.03 11.9 92.07-30.57s11.57-24.44 11.36-24.97c-.21-.53-11.37-20.74-16.79-24.53-5.42-3.78-21.66-8.66-36.82-15.69-15.16-7.03-23.83-10.28-43.87-15.14-20.04-4.86-47.65-6.99-65.53-10.28-17.88-3.28-30.89-5.72-30.89-5.72zM214.78 1176.49s.58-26.2 60.77-43.54c60.19-17.34 178.95-34.45 178.95-34.45L383 1155l-35.95 78.14-101.55-30.83-30.72-25.82z" fill="#72411F" /> <path d="M258.44 1290.58l40.74 214.66h908.34l37.63-217.69-99.09 24.97s-276 34.73-469.78 25.8c-193.78-8.93-278.93-20.66-278.93-20.66l-138.91-27.08z" fill="#9E6740" /> <path d="M220.86 1194.8l15.14 75.13 69.6 30.69 115.67 21.48 181.3 16.51 356.58-.34 166.58-26.97 126.06-25.17 23.57-29.52v-70.92s-74.72 48.64-174.94 58.77c-100.22 10.13-151.42 9.8-151.42 9.8l-128.64 5.99-175-2.63-94.14-3.35-115.49-9.88-121.68-18.26-70.75-25.28-22.44-6.05z" fill="#9E6740" /> <path d="M301.84 1480.4l3.75 20.84H285.6l-5.99-32.71-33.14-175.28-.97-5.11 19.3-3.64 3.18 16.83 11.03 58.32 3.99 21.14 4.4 23.25 5.65 29.9 4.7 24.81 1.99 10.53 2.1 11.12zM1254.41 1289.74l-.65 3.43-13.49 71.34-2.31 12.26-6.21 32.81-17.14 91.66h-19.99l3.75-20.83 4.1-21.66 14.74-77.96 2.73-14.47 1.26-6.67 4.69-24.79 2.11-11.18 4.24-22.42 2.87-15.16 19.3 3.64zM353.34 1224.25c-4.5-.86-8.857-1.71-13.07-2.56-81.65-16.65-110.16-34.69-114.88-45.2l5 30.69c7.254 4.17 14.812 7.8 22.61 10.85 20.29 8.14 46.88 15.65 79.34 22.43 4.53.94 9.17 1.87 13.93 2.78l6 1.14c2.54-6.42 5.31-12.68 8.31-18.8-2.453-.44-4.867-.88-7.24-1.33zm893.66-95.48c-27.62-11.08-66.92-20.98-116.78-29.46-25.3-4.29-52.66-8.11-81.7-11.4-22.13-2.53-45.25-4.75-69.17-6.68-70.83-5.67-148.75-8.67-229.36-8.67-80 0-157.37 3-227.78 8.55-12.78 1.02-25.32 2.12-37.62 3.31-41.51 3.99-80.11 8.99-114.83 14.89-49.87 8.46-89.16 18.38-116.78 29.46-32.53 13.05-48.34 27.66-48.34 44.64V1175.31c.108 1.57.362 3.12.76 4.64v.05c2.51 9.81 10.75 18.8 24.91 27.15a167.165 167.165 0 0022.69 10.88c20.29 8.14 46.88 15.65 79.34 22.43 4.53.94 9.17 1.87 13.93 2.78l6 1.14c5.68 1.06 11.517 2.1 17.51 3.11 101.65 17.25 236.69 26.75 380.23 26.75 143.54 0 278.58-9.5 380.23-26.75 16.14-2.74 31.16-5.63 45.07-8.67 4.06-.88 8.02-1.78 11.88-2.69 2.67-.66 5.31-1.31 7.92-1.93 20.31-5.04 37.66-10.44 51.91-16.17a168.6 168.6 0 0022.59-10.85c14.16-8.35 22.4-17.34 24.91-27.15v-.05c.4-1.52.65-3.07.76-4.64v-.3-1.6c.07-17.01-15.74-31.62-48.28-44.67zm27.6 47.72c-4.16 9.26-26.78 24.36-87.93 39.21-2.92.71-5.92 1.42-9 2.12-3.54.81-7.21 1.61-11 2.42-12 2.55-25.25 5.08-39.82 7.55-100.58 17.07-234.43 26.47-376.88 26.47s-276.3-9.4-376.88-26.47c-4.3-.73-8.483-1.47-12.55-2.21-2.453-.44-4.863-.88-7.23-1.33-4.5-.86-8.857-1.71-13.07-2.56-81.65-16.65-110.16-34.69-114.88-45.2a7.398 7.398 0 01-.74-3.08c.001-.34.028-.67.08-1 1.79-11.24 34.56-34.11 148.39-53.43 20.2-3.43 41.73-6.54 64.41-9.34 10.593-1.33 21.43-2.56 32.51-3.7 6.48-.66 13.037-1.33 19.67-1.99 78.59-7.48 167.62-11.46 260.29-11.46 105.93 0 207.1 5.19 293.37 14.88 12.41 1.4 24.51 2.89 36.28 4.46 8.87 1.18 17.53 2.42 26 3.72 7.22 1.1 14.29 2.24 21.21 3.41 113.83 19.32 146.6 42.19 148.39 53.43.05.33.08.66.08 1 0 1.07-.24 2.13-.69 3.1h-.01zm-921.27 47.76c-4.5-.86-8.857-1.71-13.07-2.56-81.65-16.65-110.16-34.69-114.88-45.2l5 30.69c7.258 4.17 14.819 7.8 22.62 10.85 20.29 8.14 46.88 15.65 79.34 22.43 4.53.94 9.17 1.87 13.93 2.78l6 1.14c2.54-6.42 5.31-12.68 8.31-18.8-2.453-.44-4.867-.88-7.24-1.33h-.01z" fill="#000" /> <path d="M750 1348.71c-210.22 0-399.28-19.54-493.42-50.94a58.66 58.66 0 01-26.18-17.62 58.57 58.57 0 01-13.25-28.62l-12.48-76.49 20-3.24 12.49 76.49a38.406 38.406 0 008.689 18.74A38.515 38.515 0 00263 1278.56c44 14.69 111.74 27.14 196 35.96 86.94 9.14 187.58 13.98 291 13.98 103.42 0 204.35-4.84 291.38-13.98 84.33-8.87 152.1-21.35 196-36.07 6.6-2.23 12.47-6.21 16.97-11.53a38.201 38.201 0 008.54-18.64l12.49-76.49 19.95 3.24-12.48 76.5a58.33 58.33 0 01-13.07 28.46 58.341 58.341 0 01-25.93 17.6c-94.04 31.53-283.26 51.12-493.85 51.12z" fill="#000" /> <path d="M759.769 1338.61v163.37h-19.66v-163.37h19.66zM865.771 1338.78l-.14 7.91-1.14 65.66-.34 19.68-1.17 67.29-.02.92h-19.65l.01-.07 1.16-67.14.35-19.65 1.15-66.05.15-8.89 19.64.34zM656.59 1500.24h-19.64l-.02-.93-1.17-67.3-.34-19.68-1.14-65.64-.14-7.91 19.63-.34.15 8.89 1.15 66.03.35 19.66 1.16 67.14.01.08zM553.41 1500.24h-19.66l-.28-8.09-2.39-68.78-.69-19.8-2.18-62.56-.07-2.06 19.63-.68.14 4.11 2.2 63.25.69 19.79 2.39 68.44.22 6.38zM450.22 1500.24h-19.66l-1.04-19.85-3.71-71.23-1.05-20.05-3.05-58.42-.45-8.59 19.61-1.02.62 11.95 3.1 59.23 1.04 20.01 3.69 70.71.9 17.26zM347.05 1500.24h-19.69l-1.06-15.33-1.47-21.09-5.21-74.75-1.42-20.38-.73-10.5-2.2-31.68-.94-13.42-.27-3.93 7.87-.55 9.06-.63 2.66-.18.65 9.38 3.89 55.79 1.41 20.34 5.16 74.04 1.46 21.05.83 11.84zM971.77 1338.95l-.07 2.07-2.18 62.58-.69 19.8-2.39 68.77-.28 8.07H946.5l.22-6.35 2.39-68.44.68-19.79 2.21-63.28.14-4.11 19.63.68zM1078.65 1322.1l-.45 8.61-.62 11.95-.79 15.16-1.64 31.33v.01l-1.05 20.05-3.72 71.22-1.03 19.81h-19.66l.9-17.22 3.69-70.72 1.04-20 3.1-59.25.62-11.97 19.61 1.02zM1188.52 1304.94l-.58 7.65-4.23 55.73-1.55 20.41-5.68 74.89-1.6 21.12-1.18 15.5H1154l.91-12 1.6-21.08 5.63-74.17 1.54-20.37 4.24-55.88 1.01-13.28 19.59 1.48z" fill="#000" /> <path d="M750.11 1435.24a2032.95 2032.95 0 01-481.91-58.01l4.67-19.06a2013.09 2013.09 0 00477.24 57.45 2012.982 2012.982 0 00477.23-57.45l4.67 19.06a2032.848 2032.848 0 01-481.9 58.01zM658.71 1500.24H423.46a2409.886 2409.886 0 01-77.24-11.84c-6.667-1.14-13.307-2.3-19.92-3.49-8.16-1.46-16.313-2.96-24.46-4.5l-2.62-.5-8.65-1.67-3.13-.61 4-20.11.33.06c2 .4 4 .79 6 1.17l2.72.53c8.107 1.56 16.227 3.07 24.36 4.55 6.627 1.21 13.27 2.38 19.93 3.52 28.153 4.86 56.407 9.18 84.76 12.99 6.593.89 13.193 1.75 19.8 2.59 8.153 1.04 16.313 2.04 24.48 3 6.627.77 13.257 1.51 19.89 2.24 13.253 1.41 26.513 2.75 39.78 3.99 6.567.6 13.14 1.17 19.72 1.71 27.867 2.31 55.78 4.13 83.74 5.45 6.553.32 13.103.6 19.65.85l2.11.07zM1212.77 1477.63c-4.8.94-9.6 1.86-14.4 2.78-7.82 1.48-15.65 2.93-23.49 4.33-6.67 1.19-13.33 2.36-20 3.5-8.09 1.37-16.2 2.71-24.31 3.99-6.59 1.06-13.18 2.09-19.79 3.09-11.33 1.72-22.69 3.35-34.06 4.91H841.5l1.82-.07c6.547-.24 13.1-.53 19.66-.85a2441.67 2441.67 0 0083.74-5.43c6.567-.55 13.14-1.13 19.72-1.72a2396.058 2396.058 0 00103.94-11.74c12.08-1.64 24.15-3.36 36.2-5.18 6.61-1 13.22-2.03 19.81-3.08 10.05-1.6 20.09-3.27 30.12-5 6.67-1.15 13.33-2.33 20-3.53 8.67-1.58 17.33-3.21 26-4.88 2.12-.4 4.23-.82 6.34-1.23l3.92 20.11z" fill="#000" /> <path d="M361 1203.59l-7.73 20.71c37.91 7.9 168.332 29.7 386.73 30.7 218.4 1 367.5-19.5 438-37-3.05-6.21-6.21-26.51-9.5-32.5-25.36-46.42-28.44-53.54-68.88-73.57-3.75-1.86-27.73-15.92-31.62-17.43-28.57-11.11-54.38-24.34-84.5-30.5-131.36-26.89-259.5-22-259.5-22s-136.07 1.81-201 29.5l-20.5 4.5c-19.74 8.58-26.03 10.93-40.5 18.5-32.96 17.19-47.5 30-47.5 30l-53.5 79.09z" fill="#ABF" /> <path d="M1186.18 1225.5c-14.47-32.52-30.79-61.28-49.68-85-90-113-548-134.51-706.5-26-36.895 25.26-65.559 67.16-87.121 115.5" stroke="#000" stroke-width="20" stroke-linecap="round" /> <path d="M470.5 1356.5c-4 48.4 1.667 122.5 5 153.5l-179-5-23-121-20.5-96.5-24-25-10.5-81 15.5-37 62.5-20.5 65.5-12.5 70-10.5c-16.5 12.67-26.6 26.4 65-20s259.5-42.33 332-34.5c-196.4 40.6-320.833 149.83-358.5 201l25 5.5c-14.5 21.5-21.833 52.83-23 70.5l160.5 12.05h331c-28.213 13.2-63.898 23.94-108 28.45-121.2 12.4-307.5.17-385.5-7.5z" fill="#001647" fill-opacity=".2" /> </g> <defs> <clipPath id="prefix__clip0_53_27416"> <path fill="#fff" d="M0 0h1500v1500H0z" /> </clipPath> </defs>
      <g clip-path="url(#prefix__clip0_299_662)"><path d="M775 1185c231.41 0 419-168.12 419-375.5 0-207.383-187.59-375.5-419-375.5-231.407 0-419 168.117-419 375.5 0 207.38 187.593 375.5 419 375.5z" fill="#ABF"/><path d="M457.5 796c7.6 194 131.833 327.5 193 370l-130-55.5L438 1034l-57.5-89.5-27-106 11-104L394 662l45-82.5 83.5-69.5 109-54.182 28.5-1C569.452 513.314 451.119 633.132 457.5 796z" fill="#001647" fill-opacity=".2"/><path d="M775 1185c231.41 0 419-168.12 419-375.5 0-207.383-187.59-375.5-419-375.5-231.407 0-419 168.117-419 375.5 0 207.38 187.593 375.5 419 375.5z" stroke="#000" stroke-width="20"/></g><defs><clipPath id="prefix__clip0_299_662"><path fill="#fff" d="M0 0h1500v1500H0z"/></clipPath></defs>
      <g clip-path="url(#prefix__clip0_53_29200)"><path d="M764.05 848.209c35.186 0 63.71-28.524 63.71-63.71s-28.524-63.71-63.71-63.71-63.71 28.524-63.71 63.71 28.524 63.71 63.71 63.71z" fill="#000" stroke="#000" stroke-width="20" stroke-miterlimit="10"/><path d="M781.551 780c14.083 0 25.5-11.417 25.5-25.5s-11.417-25.5-25.5-25.5-25.5 11.417-25.5 25.5 11.417 25.5 25.5 25.5zM740.552 791.381c6.009 0 10.88-4.871 10.88-10.88s-4.871-10.88-10.88-10.88-10.88 4.871-10.88 10.88 4.871 10.88 10.88 10.88zM772.151 826.571c10.548 0 19.1-8.551 19.1-19.1 0-10.549-8.552-19.1-19.1-19.1-10.549 0-19.1 8.551-19.1 19.1 0 10.549 8.551 19.1 19.1 19.1z" fill="#fff"/><path d="M1051.05 848.209c35.19 0 63.71-28.524 63.71-63.71s-28.52-63.71-63.71-63.71-63.71 28.524-63.71 63.71 28.52 63.71 63.71 63.71z" fill="#000" stroke="#000" stroke-width="20" stroke-miterlimit="10"/><path d="M1068.55 780c14.08 0 25.5-11.417 25.5-25.5s-11.42-25.5-25.5-25.5-25.5 11.417-25.5 25.5 11.42 25.5 25.5 25.5zM1027.55 791.381c6.01 0 10.88-4.871 10.88-10.88s-4.87-10.88-10.88-10.88c-6.01 0-10.88 4.871-10.88 10.88s4.87 10.88 10.88 10.88zM1059.15 826.571c10.55 0 19.1-8.551 19.1-19.1 0-10.549-8.55-19.1-19.1-19.1s-19.1 8.551-19.1 19.1c0 10.549 8.55 19.1 19.1 19.1z" fill="#fff"/><path d="M905 1002.88L923.13 991a26.135 26.135 0 0010.308-30.616 26.144 26.144 0 00-6.148-9.734v0a26.143 26.143 0 00-19.36-7.629 26.155 26.155 0 00-18.8 8.919L873 970.38M905 1003l18.13 11.88a26.115 26.115 0 0110.312 30.61 26.15 26.15 0 01-6.152 9.73v0a26.233 26.233 0 01-8.883 5.84 26.052 26.052 0 01-10.475 1.81 26.056 26.056 0 01-10.33-2.51 26.14 26.14 0 01-8.472-6.42L873 1035.5" stroke="#000" stroke-width="20" stroke-miterlimit="10" stroke-linecap="round"/></g><defs><clipPath id="prefix__clip0_53_29200"><path fill="#fff" d="M0 0h1500v1500H0z"/></clipPath></defs>
      <g clip-path="url(#prefix__clip0_53_27007)"><path d="M732.51 716.382a.135.135 0 00.059.011.129.129 0 00.057-.019.113.113 0 00.04-.044.108.108 0 00.014-.058c-.06-3.15 0-44.08 43-42 0 0 36.07 2.11 40.57 41.22a.12.12 0 00.17.1c2.54-1.13 38.11-16.18 57.7 13.29 19.59 29.47-10.28 56.51-12.25 58.22a.13.13 0 000 .18c2 1.86 33.67 28.35 16.711 57.94-16.96 29.59-54 16.2-56.56 15a.111.111 0 00-.161.09c-.42 2.79-6.86 41.59-40.73 43-33.87 1.41-44.86-36.09-45.57-38.67a.111.111 0 00-.022-.045.117.117 0 00-.04-.03.141.141 0 00-.049-.009.112.112 0 00-.048.014c-2.36 1.15-36.651 17.15-57.701-14.5-21.05-31.65 7.131-55.44 9.141-57.07a.116.116 0 00.034-.039.113.113 0 00-.034-.141c-2.05-1.74-31.9-28-11-61.24 19.98-31.71 53.949-16.48 56.669-15.2zM1031.34 715.128c.02.011.04.018.06.018.02.001.04-.005.06-.015.01-.01.03-.026.04-.044a.117.117 0 00.01-.059c0-3.16 1.3-44.07 44.21-40.72 0 0 36 3.16 39.35 42.39 0 .018.01.036.02.051s.02.028.04.038c.01.01.03.016.05.018.01.002.03-.001.05-.007 2.58-1 38.57-15.06 57.3 15 18.73 30.06-11.93 56.18-14 57.84a.29.29 0 00-.03.041c-.01.015-.01.032-.01.049s0 .034.01.05c.01.015.02.029.03.04 1.92 1.91 32.83 29.31 15 58.41-17.83 29.1-54.44 14.61-57 13.32-.02-.01-.03-.016-.05-.018a.14.14 0 00-.06.01c-.01.008-.03.021-.04.036a.098.098 0 00-.02.052c-.5 2.78-8.07 41.37-42 41.82-33.93.45-43.78-37.39-44.42-40 0-.016-.01-.031-.02-.044-.01-.013-.03-.024-.04-.032-.02-.007-.03-.011-.05-.012a.125.125 0 00-.05.008c-2.39 1.09-37.13 16.08-57.25-16.17-20.12-32.25 8.75-55.21 10.8-56.78a.107.107 0 00.046-.09.116.116 0 00-.012-.051.116.116 0 00-.034-.039c-2-1.8-31.07-28.87-9.18-61.53 21-31.16 54.51-14.94 57.19-13.58z" fill="#4AEEB9" stroke="#000" stroke-width="20" stroke-miterlimit="10"/><circle cx="1072" cy="789" r="54" fill="#FFBF44" stroke="#000" stroke-width="20"/><circle cx="776" cy="789" r="54" fill="#FFBF44" stroke="#000" stroke-width="20"/><path d="M753.5 733.5c-4.8-37.2 17-50.167 28.5-52-14.8-4.4-31.833 3.5-38.5 8-2.333 3.5-7.5 11.3-9.5 14.5-2.5 4-4 8.5-5.5 9s-21.5 2-22.5 2-26 10.5-26.5 11.5-10 25-10 26c0 .8 4.667 29.333 7 43.5-2.833 6.666-9 21.9-11 29.5-2 7.6 20.5 30.5 32 41l38 2.5 37.5 33.5c19 .5 49.4-.3 19-7.5s-33.667-34.667-31.5-47.5c-1.333-2.834-4.4-8.8-6-10-2-1.5-16.5-17-17-18s-7-11.5-7.5-34c-.4-18 15.5-42.167 23.5-52zM1051.13 733.5c-4.8-37.2 17-50.167 28.5-52-14.8-4.4-35.84 3.5-42.51 8-2.33 3.5-7.5 11.3-9.5 14.5-2.5 4-4 8.5-5.5 9s-21.5 2-22.495 2c-1 0-26 10.5-26.5 11.5s-10 25-10 26c0 .8 4.667 29.333 7 43.5-2.833 6.666-9 21.9-11 29.5-2 7.6 20.5 30.5 32 41l37.995 2.5 37.5 33.5c19 .5 54.4-.3 24-7.5s-33.66-34.667-31.5-47.5c-1.33-2.834-9.4-8.8-11-10-2-1.5-16.5-17-17-18s-7-11.5-7.5-34c-.4-18 19.51-42.167 27.51-52z" fill="#001647" fill-opacity=".2"/><path d="M871.488 797.371s52.42-23.07 104.84 0M370.09 692.07L681 789.5" stroke="#000" stroke-width="20" stroke-miterlimit="10"/><path d="M732.51 716.382a.135.135 0 00.059.011.129.129 0 00.057-.019.113.113 0 00.04-.044.108.108 0 00.014-.058c-.06-3.15 0-44.08 43-42 0 0 36.07 2.11 40.57 41.22a.12.12 0 00.17.1c2.54-1.13 38.11-16.18 57.7 13.29 19.59 29.47-10.28 56.51-12.25 58.22a.13.13 0 000 .18c2 1.86 33.671 28.35 16.711 57.94-16.96 29.59-54 16.2-56.56 15a.111.111 0 00-.161.09c-.42 2.79-6.86 41.59-40.73 43-33.87 1.41-44.86-36.09-45.57-38.67a.111.111 0 00-.022-.045.117.117 0 00-.04-.03.141.141 0 00-.049-.009.112.112 0 00-.048.014c-2.36 1.15-36.651 17.15-57.701-14.5-21.05-31.65 7.131-55.44 9.141-57.07a.116.116 0 00.034-.039.113.113 0 00-.034-.141c-2.05-1.74-31.9-28-11-61.24 19.98-31.71 53.949-16.48 56.669-15.2zM1031.34 715.128c.02.011.04.018.06.018.02.001.04-.005.06-.015.01-.01.03-.026.04-.044a.117.117 0 00.01-.059c0-3.16 1.3-44.07 44.21-40.72 0 0 36 3.16 39.35 42.39 0 .018.01.036.02.051s.02.028.04.038c.01.01.03.016.05.018.01.002.03-.001.05-.007 2.58-1 38.57-15.06 57.3 15 18.73 30.06-11.93 56.18-14 57.84a.29.29 0 00-.03.041c-.01.015-.01.032-.01.049s0 .034.01.05c.01.015.02.029.03.04 1.92 1.91 32.83 29.31 15 58.41-17.83 29.1-54.44 14.61-57 13.32-.02-.01-.03-.016-.05-.018a.14.14 0 00-.06.01c-.01.008-.03.021-.04.036a.098.098 0 00-.02.052c-.5 2.78-8.07 41.37-42 41.82-33.93.45-43.78-37.39-44.42-40 0-.016-.01-.031-.02-.044-.01-.013-.03-.024-.04-.032-.02-.007-.03-.011-.05-.012a.125.125 0 00-.05.008c-2.39 1.09-37.13 16.08-57.25-16.17-20.12-32.25 8.75-55.21 10.8-56.78a.107.107 0 00.046-.09.116.116 0 00-.012-.051.116.116 0 00-.034-.039c-2-1.8-31.07-28.87-9.18-61.53 21-31.16 54.51-14.94 57.19-13.58z" stroke="#000" stroke-width="20" stroke-miterlimit="10"/><circle cx="776" cy="789" r="54" stroke="#000" stroke-width="20"/><circle cx="1072" cy="789" r="54" stroke="#000" stroke-width="20"/></g><defs><clipPath id="prefix__clip0_53_27007"><path fill="#fff" d="M0 0h1500v1500H0z"/></clipPath></defs>
      <g clip-path="url(#prefix__clip0_53_25330)"><path d="M452.064 482.151c-104.889 112.873-101.3 246.773-101.3 246.773-.418 14.067 14.974 20.397 14.974 20.397l128.995-56.526 35.639-18.862 22.432 26.917c19.108 7.81 57.922 23.728 60.315 24.924 2.392 1.196 62.807 13.791 92.715 19.939 40.543-1.828 141.267-12.861 219.826-42.37 78.56-29.51 139.07-28.579 159.51-24.425 20.77 5.815 72.58 18.044 113.65 20.437 41.08 2.393 26.42-33.896 13.96-52.339l-23.93-13.958-46.35-19.421-43.06-91.459s-14.26-48.053-134.689-124.169c-120.43-76.117-240.911-57.175-240.911-57.175s-166.888 28.443-271.776 141.317z" fill="#53B6F9"/><path d="M539.057 669.816c-90.931 33.368-140.28 60.355-165.592 77.034a14.877 14.877 0 01-21.267-5.398 14.877 14.877 0 01-1.743-7.931c4.167-68.221 30.198-205.29 154.526-300.249 153.121-116.981 298.086-91.968 311.046-89.416.758.15 1.506.289 2.273.419 20.009 3.579 261.46 51.203 326.18 276.153" stroke="#000" stroke-width="20" stroke-miterlimit="10"/><path d="M538.667 671.046c.23-.788.634-1.409 1.312-1.871 13.787-9.381 183.305-117.499 585.401-53.422 0 0 48.7 9.6 90.07 32.062a30.695 30.695 0 0114.53 17.606 30.714 30.714 0 01-1.62 22.769 30.738 30.738 0 01-16.88 15.365 30.744 30.744 0 01-22.83-.52c-33.33-14.266-83.32-29.41-137.41-32.5-42.02-2.403-134.701 36.887-203.629 55.998A416.341 416.341 0 01676.515 737.3c-69.469-10.096-148.504-29.738-137.848-66.254z" stroke="#000" stroke-width="20" stroke-miterlimit="10"/><path d="M837.919 527.819c10.204-20.716 21.478-41.205 33.821-61.467 32.555 28.361 62.041 59.587 88.038 93.233a726.38 726.38 0 0147.242 7.193c-38.626-59.081-90.292-115.277-154.195-164.771-32.006 50.312-58.066 103.674-77.735 159.169a729.529 729.529 0 01161.895-3.939c-17.795-21.523-37.085-41.955-57.748-61.166a762.702 762.702 0 00-17.622 31.257 769.25 769.25 0 00-23.696.491z" fill="url(#prefix__paint0_linear_53_25330)"/><path d="M351.5 745.997c1.5-26 11-95.4 37-165 8.167-23.833 47.8-89.7 141-162.5S734 339.83 778 345.997c-204 104-266.667 267-272.5 335.501L398 731.997l-46.5 14zM747.5 579.497c-137.6 22.4-202.667 67-218 86.5l63-22.5 100-33 187.5-20 261 23.5-4-14.5c-49.5-17-217.5-48-389.5-20z" fill="#001647" fill-opacity=".2"/></g><defs><linearGradient id="prefix__paint0_linear_53_25330" x1="952.995" y1="446" x2="894.621" y2="617.577" gradientUnits="userSpaceOnUse"><stop stop-color="#fff"/><stop offset="1" stop-color="#fff"/></linearGradient><clipPath id="prefix__clip0_53_25330"><path fill="#fff" d="M0 0h1500v1500H0z"/></clipPath></defs>
      
    </g>
    </svg>