<svg
      xmlns="http://www.w3.org/2000/svg"
      preserveAspectRatio="xMidYMin meet"
      fill="none"
      viewBox="0 0 1500 1500"
    >
      <g>
      <path fill="url(#prefix__paint0_linear_53_28789)" d="M0 0h1500v1500H0z"/><defs><linearGradient id="prefix__paint0_linear_53_28789" x1="1500" y1="1500" x2="0" y2="0" gradientUnits="userSpaceOnUse"><stop stop-color="#FFD130"/><stop offset="1" stop-color="#FFEEDB"/></linearGradient></defs>
      <g clip-path="url(#prefix__clip0_53_27766)"><path d="M511.71 1369.26a922.097 922.097 0 00-19 130.68h-20v-.69a924.662 924.662 0 0119.51-134.59 10.023 10.023 0 014.513-6.08 10.031 10.031 0 017.473-1.17 9.979 9.979 0 016.157 4.4 10.002 10.002 0 011.317 7.45h.03zM1132 1499.94h-20.2c-2.81-13.91-20.24-98.71-36.65-147.5-.45-1.26-.65-2.59-.58-3.92a9.997 9.997 0 013.37-6.98c1-.88 2.16-1.55 3.42-1.98 1.27-.42 2.6-.59 3.93-.49 1.33.09 2.62.45 3.81 1.06a9.988 9.988 0 015 5.93c18.25 54.23 36.92 147.99 37.71 151.93.13.64.19 1.3.19 1.95z" fill="#000"/><path d="M1266 1504.94l-976.67-1 3.73-70.49 22.17-107.34L355 1202.95l53.62-77.7s48.18-22.48 112.86-50.61 195.37-27.16 195.37-27.16 198.15-14 351.31 45.59c153.16 59.58 197.84 411.87 197.84 411.87z" fill="#3A3A3A"/><path d="M739.499 1500l-19.859-143.04V1211l39.86-169 83.5 6.5 40 108 9.34 28.45 23.35 117.75 6.45 197.3H739.499z" fill="#ABF"/><path d="M740.41 1499.98l-15.32-158.63-5.88-102.43L739 1109.5l17-64.5 80.5 3 51.69 124.63 26.66 114.71 7 165.68-2.26 46.96H740.41z" fill="#fff"/><path d="M769.13 1499.92l18.12-231.45-27.78-13.87 53.15-64.43 53.96 68.22-23.79 12.81 21.3 105.71 23.04 123.07-118-.06z" fill="#3A3A3A"/><path d="M724.06 1281.21h-6.76v-20h15.35a5.038 5.038 0 002.49-.85 5.058 5.058 0 001.71-2.01l.42-.79 56.4-71.55a17.604 17.604 0 015.964-4.86 17.47 17.47 0 017.466-1.86c2.595-.07 5.172.44 7.547 1.49a17.667 17.667 0 016.193 4.57l58.48 67.19.47.79a5.394 5.394 0 002.474 2.21c1.036.45 2.189.57 3.296.33 4.74-1 12.37-2.84 21.82-5.63l5.68 19.17c-8 2.36-16 4.43-23.26 6a25.33 25.33 0 01-15.069-1.33 25.339 25.339 0 01-11.631-9.67l-55.48-63.75-53.6 67.99a24.793 24.793 0 01-8.988 9.15 24.755 24.755 0 01-12.352 3.44l-8.62-.03z" fill="#000"/><path d="M808.88 1283.14a121.279 121.279 0 01-48.31-10l-9.93-4.31 8-18.34 9.93 4.3a101.638 101.638 0 0040.35 8.35c13.878 0 27.61-2.84 40.35-8.35l9.93-4.3 8 18.34-9.93 4.31a121.313 121.313 0 01-48.39 10z" fill="#000"/><path d="M784.18 1500l-20-.16 8.27-226.74 20 .16-8.27 226.74zM882.82 1499.92L835 1275.79l19.3-5.23 49.24 229.36h-20.72zM934.26 1406.6c1.28 36.42 1.09 69.17.56 93.38h-20a.067.067 0 01-.008-.03c0-.01.003-.02.008-.03.22-10.44.38-22.51.38-35.84 0-52.53-2.47-124.45-13-191.61-1-6.65-2.17-13.26-3.38-19.79-5.25-28.36-12.1-55.39-21-79.19l9.36-3.5 9.35-3.49.27.74c21.28 57.35 33.89 137.89 37.46 239.36z" fill="#000"/><path d="M741 1514c-20.834-79.33-46.8-283.4 16-465m165 465c7-105.5 5.7-294.2-83.5-465" stroke="#000" stroke-width="20"/><path d="M659.15 1338.95a17.374 17.374 0 01-3.179 8.8 17.353 17.353 0 01-7.281 5.86l-43.43 18.72a10.181 10.181 0 00-5.7 12.39l35.82 115.29h-20.94l-34-109.36a30.141 30.141 0 0116.9-36.7l38.87-16.76-60.54-37.75a32.748 32.748 0 01-9.85-9.52 32.804 32.804 0 01-4.558-26.41 32.763 32.763 0 016.088-12.27L743.5 1039l7.82 6.22 7.83 6.23L583 1263.7a12.8 12.8 0 00-2.577 10.13c.306 1.77.984 3.46 1.988 4.95a12.66 12.66 0 003.839 3.71l64.75 40.38a17.413 17.413 0 016.326 6.9 17.366 17.366 0 011.824 9.18zM1063.62 1362.35L1042 1500h-20.25l22.15-140.76c.39-2.48-.15-5.03-1.52-7.14a10.192 10.192 0 00-5.91-4.29l-45.68-12.24a17.38 17.38 0 01-8.052-4.75 17.455 17.455 0 01-4.422-8.25 17.378 17.378 0 015.744-17.07l58.23-49.32c1.37-1.17 2.49-2.61 3.26-4.23a12.7 12.7 0 001.25-5.2 12.765 12.765 0 00-4.02-9.64l-195.63-183.32 6.85-7.29 6.85-7.28 195.63 183.32c3.37 3.16 6.03 7 7.8 11.26 1.78 4.26 2.64 8.85 2.52 13.47-.12 4.62-1.21 9.16-3.21 13.32a32.757 32.757 0 01-8.37 10.85l-54.44 46.11 40.88 10.99a30.148 30.148 0 0117.47 12.7 30.146 30.146 0 014.49 21.11z" fill="#000"/><path d="M289.5 1512.5c-6-101.5 31-323.03 140.5-398 158.5-108.51 616.5-87 706.5 26 64.91 81.5 99.5 222.5 132.5 371M1084.5 1337c12.33 37 29.5 110.3 43.5 175.5m-646.5 0c.333-32.83 7.7-107.6 20.5-157" stroke="#000" stroke-width="20" stroke-linecap="round"/><path d="M499.998 1213.5c-101.2 100-117.834 249-113.5 311l-99.502-13c-1.6-110.8 39-247.5 59.5-302l39.501-52.5 15.5-20.5 66.5-42.5c148.171-59.03 291.242-54.92 345.943-45.28-.665-1.27-1.312-2.51-1.94-3.72h29l16.5 49 34.5 88.5 32.5 164.5v162.5l-25 9.5c10.4-118.4-4.333-217-13-251.5-28.202-135.75-55.642-186.51-72.273-218.23-63.742 13.58-213.703 64.89-314.229 164.23z" fill="#000" fill-opacity=".2"/><path d="M850 1267.5l-59.5-64 19-17.5 58 66.5-17.5 15zM808 1293.5c15.2-.4 30.333-4.17 36-6l-3-14.5h-53l-11 129 5.5-127-29.5-11.5-12.5 11.5 19 9c3.6 57.2-4.5 170.5-9 220l55 8 2.5-218.5zM569 1373.5c-13.2 17.2 20.5 100.5 38 139.5l24-3-44.5-136.5 30.5-23c-10.5.5-34.8 5.8-48 23zM551 1279.5c-2.033 19.11 49.333 52.5 76.5 67l19.5-5.5-76-66 2.5-24c-5.833 1.67-20.5 9.7-22.5 28.5z" fill="#000" fill-opacity=".2"/></g><defs><clipPath id="prefix__clip0_53_27766"><path fill="#fff" d="M0 0h1500v1500H0z"/></clipPath></defs>
      <g clip-path="url(#prefix__clip0_299_662)"><path d="M775 1185c231.41 0 419-168.12 419-375.5 0-207.383-187.59-375.5-419-375.5-231.407 0-419 168.117-419 375.5 0 207.38 187.593 375.5 419 375.5z" fill="#ABF"/><path d="M457.5 796c7.6 194 131.833 327.5 193 370l-130-55.5L438 1034l-57.5-89.5-27-106 11-104L394 662l45-82.5 83.5-69.5 109-54.182 28.5-1C569.452 513.314 451.119 633.132 457.5 796z" fill="#001647" fill-opacity=".2"/><path d="M775 1185c231.41 0 419-168.12 419-375.5 0-207.383-187.59-375.5-419-375.5-231.407 0-419 168.117-419 375.5 0 207.38 187.593 375.5 419 375.5z" stroke="#000" stroke-width="20"/></g><defs><clipPath id="prefix__clip0_299_662"><path fill="#fff" d="M0 0h1500v1500H0z"/></clipPath></defs>
      <g clip-path="url(#prefix__prefix__clip0_53_29477)"><path d="M1046 825a40.998 40.998 0 0037.88-25.31 41.043 41.043 0 002.33-23.689 40.939 40.939 0 00-11.22-20.992 40.99 40.99 0 00-44.68-8.888 40.977 40.977 0 00-18.4 15.101 40.996 40.996 0 005.1 51.769A41.006 41.006 0 001046 825z" fill="#000"/><path d="M729.63 808.821l88.08-16a7.737 7.737 0 006.23-6.4 7.757 7.757 0 00-.73-4.64 7.674 7.674 0 00-3.27-3.35l-82.39-43.72m99.27 256.728c38.57 39.211 113.35 39.211 151.93 0" stroke="#000" stroke-width="20" stroke-miterlimit="10" stroke-linecap="round"/></g><defs><clipPath id="prefix__prefix__clip0_53_29477"><path fill="#fff" d="M0 0h1500v1500H0z"/></clipPath></defs>
      <g clip-path="url(#prefix__clip0_53_26381)"><path d="M782.161 900.399a109.43 109.43 0 10.015-218.86 109.43 109.43 0 00-.015 218.86z" fill="#3A3A3A"/><path d="M686.995 740.005l34.151-44.094 126.928 188.178L788 903 686.995 740.005zM743.336 695.507l16.58-11.184 114.06 169.1-16.58 11.184z" fill="#fff" fill-opacity=".7"/><path d="M1079.07 895.077a109.42 109.42 0 0073.49-28.343 109.413 109.413 0 0035.42-70.355 109.405 109.405 0 00-21-75.915 109.438 109.438 0 00-144.16-28.68 109.435 109.435 0 00-42.666 140.649 109.423 109.423 0 0098.916 62.644z" fill="#3A3A3A"/><path d="M983.905 734.682l34.155-44.094 126.92 188.178-60.07 18.911-101.005-162.995zM1040.25 690.184L1056.83 679l114.06 169.1-16.58 11.184z" fill="#fff" fill-opacity=".7"/><path d="M1077.58 899.4c25.32-.01 49.85-8.799 69.41-24.869a109.412 109.412 0 0037.88-63.261 109.452 109.452 0 00-10.85-72.932 109.435 109.435 0 00-128.31-53.068 109.433 109.433 0 00-77.071 115.495 109.427 109.427 0 0031.571 66.635 109.447 109.447 0 0077.37 32v0zM782.161 899.399a109.43 109.43 0 10.015-218.86 109.43 109.43 0 00-.015 218.86zM671 790.5l-294-96.359M891.578 790h76.58" stroke="#000" stroke-width="20" stroke-miterlimit="10"/></g><defs><clipPath id="prefix__clip0_53_26381"><path fill="#fff" d="M0 0h1500v1500H0z"/></clipPath></defs>
      <g clip-path="url(#prefix__clip0_53_25796)"><path d="M661.719 466.272s.681-50.314 11.211-50.049c10.531.266 30.241-4.165 30.241-4.165l31.003 15.989 25.638-5.424 28.99-24.747 27.071-1.791 27.883 14.121 15.446 18.681 23.411.145 50.96-13.954 24.276 23.68-19.232 52.574-44.507-21.369-17.618-6.041-23.175-7.036-28.049-1.943-32.388-.112-55.638 3.68-50.45 8.949-25.073-1.188z" fill="#97A5DE"/><path d="M718.506 479.214s19.322 40.453 64.014 34.31c44.692-6.143 83.522-32.583 83.522-32.583l10.406-17.065-81.463-14.775-84.096 14.041s-8.664 11.898 7.617 16.072z" fill="#7985B4"/><path d="M662.843 469.488s-13.534-58.554 30.087-60.287c15.493-.614 25.434 4.992 32.226 12.21 13.894 14.755 29.392 7.707 38.346-2.386 11.842-13.391 27.482-26.021 44.854-27.17 20.226-1.338 34.215 14.393 42.889 29.474 6.094 10.621 21.799 13.651 33.204 6.683 11.953-7.315 28.35-12.9 48.081-8.683 42.964 9.245 6.064 69.091 6.064 69.091" stroke="#000" stroke-width="18.1" stroke-miterlimit="10" stroke-linecap="round"/><path d="M630.048 507.634S655.324 462.566 681.5 468c40.502 8.395 74.399 69.733 74.399 69.733M800.818 537.268s38.761-65.501 93.251-67.301c54.49-1.801 48.429 57.93 48.429 57.93M682 468s137.209-40.275 226.408 2.982M736.796 506.5s35.103 14.655 86.489 1.675" stroke="#000" stroke-width="20" stroke-miterlimit="10" stroke-linecap="round"/><path d="M524.05 624.001H372.24l-43.13-19.78s-72.43-23.64-85.41 29.91c-12.98 53.55 34.75 44.6 34.75 44.6s-45.81 43.55-16.62 68.07c29.19 24.52 58.17 3.2 58.17 3.2l55.73-43.57 63.59-21.11 92.15-13-7.42-48.32zM1126.86 589.612c-9.68-10.68 75.59-13.43 75.59-13.43s27.66-4.43 36.69-30.55c9.03-26.12 38.53-30.28 38.53-30.28s38.21 12.31 29 44c-9.21 31.69 10.5 44 10.5 44s12.81 58.24-40.75 55.76c-53.56-2.48-55.2-30.76-55.2-30.76l-66 2.52s-16.71-28.42-28.36-41.26z" fill="#fff"/><path d="M1279.5 634.501c23.6 5.6 31.17-11.333 32-20.5l8 7.5-5 17-24.5 25-36-13.5-33-19-70.5-1.5-7.83.81a6.53 6.53 0 01-7.18-5.999c-.28-3.518 2.29-6.616 5.8-6.971 22.02-2.223 61.62-5.426 83.71-4.34 30.5 1.5 25 14.5 54.5 21.5zM529.5 620.001v57l-58.5 4.501-75 17-53 32c-10.334 13-39 37.1-71 29.5-32-7.6-16.334-55.5-4.5-78.5l-20-18c-3.333-5.667-5.2-23.801 14-51.001s60.333-9.666 78.5 2.5l81.5 14 108-9z" fill="#001647" fill-opacity=".2"/><path d="M526.69 623.94l-145.35 2.66a64.43 64.43 0 01-44.57-16.4c-12.86-11.67-34.73-22.77-65.59-8.84 0 0-65.17 40.65 0 81.94" stroke="#000" stroke-width="20" stroke-miterlimit="10" stroke-linecap="round"/><path d="M295.7 644.59s-.18 19.51-27.86 45.1c-17.07 15.77-20.84 41.45-4.91 58.31 8.75 9.23 22.18 14.55 42.8 8.43a61.192 61.192 0 0030.59-21.24c13.39-17.14 56.48-51.3 190.37-62.84M1117.19 591.529l92.63-16.67a36.005 36.005 0 0026.64-22.47c7.13-18.46 15.42-38.91 44.83-36.9 27.68 1.88 32.59 21.2 26.68 40.14a96.017 96.017 0 01-15.43 29.29c-4.42 5.82-8.81 11.59-9.64 18.51" stroke="#000" stroke-width="20" stroke-miterlimit="10" stroke-linecap="round"/><path d="M1149 637.142l65.26-4.68c4.76-.234 9.53.475 14.02 2.089a36.21 36.21 0 0112.14 7.311c12.37 11.19 34.93 25.72 58.22 11.3 34.81-21.55 19.89-63 0-75.15M516.69 600.172c16.2 32.89 16.56 48.32 12.7 86.1l-1.66 7.44" stroke="#000" stroke-width="20" stroke-miterlimit="10" stroke-linecap="round"/></g><defs><clipPath id="prefix__clip0_53_25796"><path fill="#fff" d="M0 0h1500v1500H0z"/></clipPath></defs>
      
    </g>
    </svg>