<svg
      xmlns="http://www.w3.org/2000/svg"
      preserveAspectRatio="xMidYMin meet"
      fill="none"
      viewBox="0 0 1500 1500"
    >
      <g>
      <path fill="url(#prefix__a1)" d="M0 0h1500v1500H0z"/><defs><linearGradient id="prefix__a1" x1="0" y1="0" x2="1500" y2="1500" gradientUnits="userSpaceOnUse"><stop stop-color="#57ECFF"/><stop offset="1" stop-color="#4E41EE"/></linearGradient></defs>
      <g clip-path="url(#prefix__clip0_53_27803)"><path d="M295.802 1500s-47.94-91.54 28.64-134.76c0 0-62-101.54 67.13-159.88 0 0-37.4-104.09 81.15-137.65 0 0 113.278-13.21 336.278-19.21 0 0 195-18.5 274.57 12.04 0 0 45.53 20.87 73.44 127 0 0 102.26 45.87 83.4 145.87 0 0 95.08 77.12 34 166.56l-978.608.03z" fill="#F8CF47"/><path d="M413.5 1436.5c-54 14.8-41.833 56.83-29 76H309c-8.833-12.83-26.5-48.1-26.5-86.5s29.667-63.33 44.5-71l-18-50c3.833-14.67 16.4-49.7 36-72.5 18.829-21.9 42.242-22.8 52.773-20.32-4.833-2.49-11.288-20.19-5.773-77.18 6-62 116.5-77.5 171-77.5l241.5-11 7 36c-17.167-2.17-61.1-4.2-99.5 5-48 11.5-80.5 77.5-76 125s48.5 68 69 76c16.4 6.4 11.5 13.67 7 16.5-49.667-3.83-159.1-14.1-199.5-24.5-50.5-13-74.5 13.5-92 47s3 79 17.5 92c11.6 10.4 7.5 15.67 4 17h-28.5zM678.5 1465.5c-20-4.8-18.667-17-15.5-22.5l169.5 1.5 157-10.5c19 28-73 38.5-157 41s-129-3.5-154-9.5zM913 1321.5c-15.2-3.6-15-12.83-13-17l49-6.5c2.333-3.33 20.5-12.3 74.5-21.5s109.83-61.5 131-86.5l25.5 11.5c-14.33 17-57.5 58.1-115.5 86.5-72.5 35.5-132.5 38-151.5 33.5zM1179.5 1422.5c-23.2 0-24-9.67-21.5-14.5 37.6-11.6 66.67-41.83 76.5-55.5 8.5-9.83 24.8-22.5 22 5.5-3.5 35-48 64.5-77 64.5z" fill="#001647" fill-opacity=".2"/><path d="M844.66 1500h-20.53l-3.2-51.29-16.43-263.08 20.45-1.27 5.2 83.24 14.51 232.4z" fill="#000"/><path d="M391.57 1205.36s113.92 99.14 315.74 99.14M909.141 1304.5S1033 1306.4 1157 1187.57M324.441 1357.16s36.7 65.24 111 80.93M1240.39 1333.44s0 48.45-73.06 70.34M834.691 1448.75c43.06-1.7 107.46-6.84 146-15M673.09 1443.87s71.64 5.43 147.84 4.84" stroke="#000" stroke-width="20" stroke-miterlimit="10" stroke-linecap="round"/><path d="M1084.5 1337c12.33 37 29.5 110.3 43.5 175.5m-646.5 0c.333-32.83 7.7-107.6 20.5-157M301.5 1508.5c-25.5-42-37.6-117.3 23-149.5m0 0c-22-46-25-128.1 67-152.5m-67 152.5c11.333 20.83 47.5 64.6 110.5 79m-43.5-231.5c-10.5-36.17-17.4-111.6 71-136 53.112-14.66 199.972-21.87 344-24.82m-415 160.82c38.167 32.17 156.3 99.1 315.5 97.5m450-116c-10.37-60.53-39.49-100.92-65.94-123.9-17.73-15.41-41.66-19.79-65.15-19.96-61.49-.42-140.02-.09-219.41 1.54M1157 1188c35.17 12.5 94.3 55.9 83.5 145.5M1157 1188c-97.6 94-206 116.5-248 116m331.5 29.5c35.83 26.17 81.7 104.2 28.5 180m-28.5-180c-4.8 43.2-51.67 65.33-74.5 71m-330.5 109l-29-467.82M672 1444c61.333 6.17 208.7 12.7 307.5-10.5" stroke="#000" stroke-width="20" stroke-linecap="round"/></g><defs><clipPath id="prefix__clip0_53_27803"><path fill="#fff" d="M0 0h1500v1500H0z"/></clipPath></defs>
      <g clip-path="url(#prefix__clip0_299_662)"><path d="M775 1185c231.41 0 419-168.12 419-375.5 0-207.383-187.59-375.5-419-375.5-231.407 0-419 168.117-419 375.5 0 207.38 187.593 375.5 419 375.5z" fill="#ABF"/><path d="M457.5 796c7.6 194 131.833 327.5 193 370l-130-55.5L438 1034l-57.5-89.5-27-106 11-104L394 662l45-82.5 83.5-69.5 109-54.182 28.5-1C569.452 513.314 451.119 633.132 457.5 796z" fill="#001647" fill-opacity=".2"/><path d="M775 1185c231.41 0 419-168.12 419-375.5 0-207.383-187.59-375.5-419-375.5-231.407 0-419 168.117-419 375.5 0 207.38 187.593 375.5 419 375.5z" stroke="#000" stroke-width="20"/></g><defs><clipPath id="prefix__clip0_299_662"><path fill="#fff" d="M0 0h1500v1500H0z"/></clipPath></defs>
      <g clip-path="url(#prefix__clip0_53_29233)" stroke="#000" stroke-width="20" stroke-miterlimit="10" stroke-linecap="round"><path d="M719.699 827.31l79.06-79.06M719.699 748.25l79.06 79.06M1006.7 827.31l79.06-79.06M1006.7 748.25l79.06 79.06M810.1 1009.23c12.24-8.37 30-8.37 42.21 0l.44.3a37.403 37.403 0 0021.105 6.53c7.531 0 14.888-2.28 21.105-6.53v0a37.403 37.403 0 0121.105-6.53c7.531 0 14.887 2.28 21.105 6.53l1.09.74a37.403 37.403 0 0021.105 6.53c7.531 0 14.887-2.28 21.105-6.53l1.82-1.24c12.24-8.37 30-8.37 42.21 0"/></g><defs><clipPath id="prefix__clip0_53_29233"><path fill="#fff" d="M0 0h1500v1500H0z"/></clipPath></defs>
      <g clip-path="url(#prefix__clip0_53_27350)"><path d="M695 882.421v6.14a7.746 7.746 0 01-.67 3.22c-1.26 2.86-3.34 3-3.34 3a7.817 7.817 0 01-6.39-1.32c-2.64-2.11-9.24-20.21-9.24-20.21l-12.71 20.21H654l17.8-28.21-5.59-11.59a4.654 4.654 0 00-4.07-2.64H662a4.724 4.724 0 00-4.13 1.7c-.89.89-1.21 3.78-1.21 3.78l-1.78.13a22.972 22.972 0 01-.13-5.28 7.776 7.776 0 011.34-3.76 5.694 5.694 0 014.83-2.61 7.816 7.816 0 014.51 1.43 8.67 8.67 0 013 3.74l5.26 13.05 11.44-17.4H693l-15.8 24.51 3.94 9.32s3 9 7.31 9 4.71-6.22 4.71-6.22l1.84.01z" fill="#000"/></g><defs><clipPath id="prefix__clip0_53_27350"><path fill="#fff" d="M0 0h1500v1500H0z"/></clipPath></defs>
      <g clip-path="url(#prefix__clip0_53_25522)"><path d="M496.609 538.541s3.07 10.29 13.57 23.93c14.68 19.1 43.92 44.79 99.63 58.08 95.53 22.79 172.4 22.6 172.4 22.6l108.22-7.34 120.181-28 55.58-41.54 5-17.79-35.22-28.28-23.91-12-11.16-35.68-27.201-17.71-28.95-1.81-11.33-20.5-32.35-21.23-49.42 21.36-22-26.46s-57.65-12.58-81.29 10.29l-49.45-9.46-49.68 22.93-50.58 11.59-36.18 25-18.47 10.67-4.81 34.81-29.55 21.63-13.03 4.91z" fill="#F56CDB"/><path d="M589.5 554.499c-17.6 10.8-17.667 31.5-15.5 40.5l-14.826-31.506L558 585.499l-2.5 7.5-41-14.5-12-26c3.167-6 9.6-18.1 10-18.5.4-.4 15.5-20.833 23-31l9.5-21.5 20-16.5 24-15 60.5-20.5c4.5-3.5 18-12.5 36-20.5s44.167 2.333 55 8.5l27.5-14c17.167-1.666 47.3-3.4 30.5 3-21 8-25.5 35.5-18 42.5 6 5.6 7.833 12.334 8 15l-10.5 11-35-19.5-34.5 1.5c5.833 9.834 13.5 33.6-2.5 50s-27 12.834-30.5 9l11.5-46c-45.6.4-57.333 28.5-57.5 42.5l-7.5-2.5c-8 1.5-24.2 4.5-25 4.5-.8 0-25 22.333-37 33.5l-.573 10.746c8.465-12.804 29.327-35.602 56.073-39.746 28.4-4.4 35.167 32.5 35 51.5-8.5 5.834-25 14-23 0 2.5-17.5-16-29.5-38-16zM731 537.999c4.8-9.2.333-10.833-2.5-10.5l-22.5 4-5.5 20.5 9 35c9.833 5.333 30.1 14.7 32.5 9.5 3-6.5-.5-12-11.5-20s-5.5-27 .5-38.5zM722.5 602.999c3.2 15.6-6.333 26.5-11.5 30h-28.5l20.5-27.5c5.167-7.333 16.3-18.1 19.5-2.5zM774.5 547.999c-15.2 9.2-19.667 5.833-20 3 2.333-5 7.1-15.2 7.5-16 .4-.8 9.167-13.667 13.5-20 4-2.833 12.8-7.1 16-1.5 4 7 2 23-17 34.5zM812 486.999c-15.2-2.4-20-8.333-20.5-11l-20 9c2.333 4.333 7.2 13.2 8 14 .8.8 26.333 11 39 16 11.333 5.5 34 14.7 34 7.5 0-9-21.5-32.5-40.5-35.5zM881.5 462.999c6.4-20.8-6.333-32.333-13.5-35.5l-8 7-2 21c-4.333 7.834-11.9 24.7-7.5 29.5 5.5 6 23 4 31-22zM941.5 494.999c-.8 7.6-8 11.167-11.5 12-3.167-4.5-9.5-13.7-9.5-14.5 0-.8 4.667-16.333 7-24 .833-3 7.1-9.6 25.5-12 18.4-2.4 37 14.333 44 23-3.833-3.5-14.9-10.3-28.5-9.5-17 1-26 15.5-27 25zM865.5 547.999c-7.2-4.8-9-10.667-9-13l-15.5 5 3 24 30 11.5 6-11.5c-1.833-3.333-7.3-11.2-14.5-16zM838.5 602.499c-6.4 10.4-13 10.333-15.5 9-.833-3-2.4-9.8-2-13 .5-4 .5-5.5 2.5-8s12-10 13-10.5c.8-.4 15.333.167 22.5.5 5.667 5.5 15.4 15.9 9 13.5-8-3-21.5-4.5-29.5 8.5zM937.5 553.999c6.8-1.6 3.833-4.667 1.5-6-5.667.333-17.3 1-18.5 1-1.2 0-14.5 3.333-21 5l-14 20-5.5 26-7 35c7.5 1.167 24.1 1 30.5-9 8-12.5 4-40 12-54.5s13.5-15.5 22-17.5zM991 607.499c-5.2-17.2-28.833-18.167-40-16.5.5-4.167 5.2-13.1 20-15.5 14.8-2.4 36.83 14.667 46 23.5l-26 8.5zM1002.5 534.499c-10.4 6.4-16.667 3.333-18.5 1l8-21.5 15-9.5 31 13.5c6.33 8 16.6 21.9 7 13.5-12-10.5-29.5-5-42.5 3z" fill="#001647" fill-opacity=".2"/><path d="M862.2 574.74s-43.48-9.44-41.41 28.91M706.439 588.681s54.87 35.61 77.7-16.38M875.801 591.65s10.73-53.65 61.09-50.65" stroke="#000" stroke-width="20" stroke-miterlimit="10" stroke-linecap="round"/><path d="M508.088 520.15c-58 66 123.13 123 274.12 123s337.432-47.21 277.432-109.21" stroke="#000" stroke-width="20" stroke-miterlimit="10"/><path d="M510.471 573.211s-16.41-39.05 18.09-58.39a19.004 19.004 0 009.71-16.55c0-12.7 4.75-31.74 31.83-36.07a18.489 18.489 0 0010.53-5.49c13.12-13.84 55.19-50.43 101.71-8.85a18.11 18.11 0 0013.66 4.59c19.38-1.68 68.48-1.69 77.57 39.63a18.15 18.15 0 0016.43 14.16c18.61 1.33 47.93 9 48.28 43.85a18.4 18.4 0 0010.42 16.32c17.73 8.61 47.07 30.4 16.56 72.31" stroke="#000" stroke-width="20" stroke-miterlimit="10"/><path d="M1051.69 586.52s26.14-58.36-26.84-77.14a18.723 18.723 0 01-11.74-12.16c-4.79-15.85-18.56-45.85-53.73-43.27a17.806 17.806 0 01-16.57-8.54c-10.36-17.26-36-47.64-78.43-22.22a18.273 18.273 0 01-22.4-2.81c-15-15.28-46.36-36.93-87-8.85a18.01 18.01 0 01-8.97 3.185 17.99 17.99 0 01-9.34-1.835c-17.43-8.77-55.12-21.18-78.83 19.23" stroke="#000" stroke-width="20" stroke-miterlimit="10"/><path d="M576.419 610.05s-37.83-41.78 0-76.4c37.19-34 61.17-10.54 71.05 3.81a31.001 31.001 0 015 24.17c-2.39 10.91-11.15 22.36-39.39 14.48M682.34 447.859s31.85 35.88-6.27 59.91M773.539 492.08s8 28.27-16.34 51.49M957.441 453.631s-50.29 4.79-33.06 46.72" stroke="#000" stroke-width="20" stroke-miterlimit="10" stroke-linecap="round"/><path d="M570.102 462.198S581 460.725 589 465s9.415 5.78 13.384 9.093a35.085 35.085 0 0112.601 27.121 35.092 35.092 0 01-3.423 14.934M755.001 411.529s-31.13 17.06-19 40.66M764.59 472.84s39.11 8.2 39.11-31.68M1024.85 509.38s-40.1-14.48-40.1 17.9M842 420.381s31.9 24.93 8.12 56.61M829.289 522.93s32.53 22.38 53.6-15.16M676.07 633.54l19.87-15.6c14.85-11.67 13-25.06 5.54-47.53-11.05-33.13 20.32-47.48 20.32-47.48M934.461 597.121c32-36.06 58.65-21.7 86.569-2.61l3.82 2.61" stroke="#000" stroke-width="20" stroke-miterlimit="10" stroke-linecap="round"/></g><defs><clipPath id="prefix__clip0_53_25522"><path fill="#fff" d="M0 0h1500v1500H0z"/></clipPath></defs>
      
    </g>
    </svg>