<svg
      xmlns="http://www.w3.org/2000/svg"
      preserveAspectRatio="xMidYMin meet"
      fill="none"
      viewBox="0 0 1500 1500"
    >
      <g>
      <path fill="url(#prefix__paint0_linear_53_30460)" d="M0 0h1500v1500H0z"/><defs><linearGradient id="prefix__paint0_linear_53_30460" x1="0" y1="0" x2="1500" y2="1500" gradientUnits="userSpaceOnUse"><stop stop-color="#F1FFBA"/><stop offset="1" stop-color="#65DCBA"/></linearGradient></defs>
      <g clip-path="url(#prefix__clip0_53_28693)"><path d="M1108.09 1432.16l14.41 71.69h142.41l-32.7-113.79-124.12 42.1zM288.689 1505.57l13.36-113.94 184.06 50.77-2.67 63.17h-194.75z" fill="#ABF"/><path d="M303.471 1382.79L325 1260l56-105.5s64.91-55.22 110.5-71c0 0 87.12-38.32 292.5-41 205.38-2.68 276 52.5 276 52.5l58.65 30.23 39.22 52.98 39.13 78.97 38.22 131.86-127.13 39.32 14.41 72.47-643.659 1.15 7.27-66.62-182.64-52.57z" fill="#A760FF"/><path d="M500.002 1213.5c-101.2 100-117.834 249-113.5 311l-99.502-13c-1.6-110.8 39-247.5 59.5-302l39.501-52.5 15.5-20.5 66.5-42.5c149.6-59.6 294-54.83 347.5-45-63 13.17-214.299 64.5-315.499 164.5z" fill="#001647" fill-opacity=".2"/><path d="M942.58 1333.82L867.34 1275l4.68 40.3h-90l4.29 36.89h90l4.68 40.3 61.59-58.67zm-205.16 55.26l-4.68-40.3L671 1407.6l75.38 58.64-4.66-40.13h90l-4.3-37.05-90 .02z" fill="#fff"/><path d="M289.5 1512.5c-1.965-33.24.683-79.37 8.981-129m970.519 128c-9.49-42.7-19.11-84.78-29.54-125M1084.5 1337c7.13 21.39 15.88 54.92 24.69 92m18.81 83.5c-5.91-27.5-12.37-56.45-18.81-83.5m-627.69 83.5c.172-16.93 2.213-45 5.905-75m14.595-82c-6.201 23.93-11.126 53.81-14.595 82m-188.924-54c17.035-101.9 57.885-218.59 131.519-269 158.5-108.51 616.5-87 706.5 26 46.24 58.07 77.1 146.33 102.96 246m-940.979-3l188.924 54m621.785-8.5l130.27-42.5" stroke="#000" stroke-width="20" stroke-linecap="round"/></g><defs><clipPath id="prefix__clip0_53_28693"><path fill="#fff" d="M0 0h1500v1500H0z"/></clipPath></defs>
      <g clip-path="url(#prefix__clip0_299_662)"><path d="M775 1185c231.41 0 419-168.12 419-375.5 0-207.383-187.59-375.5-419-375.5-231.407 0-419 168.117-419 375.5 0 207.38 187.593 375.5 419 375.5z" fill="#ABF"/><path d="M457.5 796c7.6 194 131.833 327.5 193 370l-130-55.5L438 1034l-57.5-89.5-27-106 11-104L394 662l45-82.5 83.5-69.5 109-54.182 28.5-1C569.452 513.314 451.119 633.132 457.5 796z" fill="#001647" fill-opacity=".2"/><path d="M775 1185c231.41 0 419-168.12 419-375.5 0-207.383-187.59-375.5-419-375.5-231.407 0-419 168.117-419 375.5 0 207.38 187.593 375.5 419 375.5z" stroke="#000" stroke-width="20"/></g><defs><clipPath id="prefix__clip0_299_662"><path fill="#fff" d="M0 0h1500v1500H0z"/></clipPath></defs>
      <g clip-path="url(#prefix__clip0_53_29261)"><path d="M761.369 722.219a74.743 74.743 0 00-74.67 74.67 10.671 10.671 0 0021.33 0 53.344 53.344 0 0191.31-38.188 53.341 53.341 0 0115.36 38.188 31.999 31.999 0 01-54.627 22.627 32 32 0 01-9.373-22.627c-.041-1.427.2-2.847.71-4.18a10.68 10.68 0 012.3-3.58 10.659 10.659 0 0117.6 3.58 10.64 10.64 0 01.72 4.18 10.67 10.67 0 1021.34 0 32.003 32.003 0 00-9.372-22.628 32.003 32.003 0 00-45.255 0 32.004 32.004 0 00-9.373 22.628 53.333 53.333 0 0053.33 53.33 53.33 53.33 0 0053.33-53.33 74.738 74.738 0 00-74.66-74.67zM1048.37 722.219a74.743 74.743 0 00-74.671 74.67 10.671 10.671 0 0021.33 0 53.354 53.354 0 013.848-20.636 53.313 53.313 0 0111.513-17.552 53.28 53.28 0 0117.39-11.752 53.352 53.352 0 0141.17 0 53.385 53.385 0 0117.39 11.752 53.414 53.414 0 0111.51 17.552 53.227 53.227 0 013.85 20.636 32 32 0 01-32 32 32 32 0 01-32-32c-.06-1.789.34-3.563 1.15-5.159.81-1.596 2-2.963 3.48-3.974a10.664 10.664 0 0110.19-1.017c1.32.557 2.51 1.376 3.51 2.407a10.68 10.68 0 012.28 3.593c.52 1.331.76 2.752.72 4.18 0 2.83 1.12 5.544 3.12 7.545a10.697 10.697 0 007.55 3.125c2.83 0 5.54-1.124 7.54-3.125a10.637 10.637 0 003.13-7.545 31.999 31.999 0 00-32-32 31.999 31.999 0 00-32 32 53.337 53.337 0 0015.62 37.71 53.336 53.336 0 0037.71 15.62c14.14 0 27.71-5.619 37.71-15.62a53.337 53.337 0 0015.62-37.71 74.736 74.736 0 00-21.89-52.776 74.731 74.731 0 00-52.77-21.894v-.03z" fill="#000"/><path d="M912.5 1068.5c32.585 0 59-26.42 59-59 0-32.585-26.415-59-59-59s-59 26.415-59 59c0 32.58 26.415 59 59 59z" fill="#fff" stroke="#000" stroke-width="20" stroke-miterlimit="10"/></g><defs><clipPath id="prefix__clip0_53_29261"><path fill="#fff" d="M0 0h1500v1500H0z"/></clipPath></defs>
      <g clip-path="url(#prefix__clip0_53_26419)"><path d="M831.281 968.72H1000.1a5.495 5.495 0 015.5 5.5 89.32 89.32 0 01-89.319 89.32h-1.18a89.323 89.323 0 01-63.159-26.16 89.325 89.325 0 01-26.161-63.16 5.5 5.5 0 015.5-5.5z" fill="#fff" stroke="#000" stroke-width="20" stroke-miterlimit="10"/><path d="M1086 1006.5c0 43.35-75.66 78.5-169 78.5-93.336 0-169-35.11-169-78.5 0-43.386 75.664-78.5 169-78.5 93.34 0 169 35.146 169 78.5z" fill="#ABF"/><path d="M905 1002.88L923.13 991a26.135 26.135 0 0010.308-30.616 26.144 26.144 0 00-6.148-9.734v0a26.143 26.143 0 00-19.36-7.629 26.155 26.155 0 00-18.8 8.919L873 970.38M905 1003l18.13 11.88a26.115 26.115 0 0110.312 30.61 26.15 26.15 0 01-6.152 9.73v0a26.233 26.233 0 01-8.883 5.84 26.052 26.052 0 01-10.475 1.81 26.056 26.056 0 01-10.33-2.51 26.14 26.14 0 01-8.472-6.42L873 1035.5" stroke="#000" stroke-width="20" stroke-miterlimit="10" stroke-linecap="round"/><path d="M1099.27 836a156.437 156.437 0 00-153.411 134 26.558 26.558 0 01-16.18 20.75l-10.68 6.87a6.417 6.417 0 00-2.92 4.75c-.097.96.026 1.94.358 2.85.333.9.867 1.73 1.562 2.4 17.18 16.44 31.57 31.63 42 53a156.432 156.432 0 0073.451 72.93 156.47 156.47 0 00102.91 11.12 156.43 156.43 0 0087.32-55.58 156.458 156.458 0 0033.52-97.93c-.7-86.04-71.79-155.92-157.93-155.16z" fill="#F56CDB" fill-opacity=".9" stroke="#000" stroke-width="20" stroke-miterlimit="10"/><path d="M1207.52 931.913c16.03 30.088 16.61 61.085 1.31 69.237-15.31 8.15-12.99-24.393-29.02-54.481-16.02-30.088-44.31-46.329-29.01-54.479 15.3-8.149 40.7 9.635 56.72 39.723z" fill="#fff"/><circle cx="1209" cy="1031" r="13" fill="#fff"/></g><defs><clipPath id="prefix__clip0_53_26419"><path fill="#fff" d="M0 0h1500v1500H0z"/></clipPath></defs>
      <g clip-path="url(#prefix__clip0_53_25644)"><path d="M854.36 572.592c26.698 5.591 89.208 15.825 113.675-4.549l37.015-89.771 58.51-109.598 51.83-71.708s27.11-23.586-86.97-38.648c-114.071-15.063-170.054-25.713-170.054-25.713s-185.227-21.021-318.27 89.004C407.053 431.633 359.545 587.162 359.545 587.162s-23.042 149.5-11.179 211.287c0 0-10.755-150.239 138.794-274.279l10.378 3.162 96.814-44.404 93.997 3.593 112.83 44.07 32.177 30.882a43.208 43.208 0 0021.004 11.119z" fill="#4AEEB9"/><path d="M734.5 244.999c-65.599 65.6-81 186.667-80.501 239L617 480.5 571 498l-78 27c-100.4 76-139.5 198.667-146.5 250.5l-11-72 16.5-99 36-94c25.166-50 96.4-161.801 180-209.001 83.6-47.2 145.833-57.333 166.5-56.5z" fill="#001647" fill-opacity=".2"/><path d="M359.937 865.087s-98.853-257.118 132.341-500.526C701.099 144.722 1047 259.727 1111.97 284.073a8.365 8.365 0 013.19 2.166 8.41 8.41 0 011.83 3.382c.33 1.258.36 2.577.08 3.848a8.182 8.182 0 01-1.69 3.457c-89.04 108.116-130.609 228.338-140.84 261.126a22 22 0 01-4.551 8.032 21.826 21.826 0 01-7.454 5.429c-17.926 7.942-59.84 21.109-111.962 1.678-7.062-3.641-10.241-5.677-15.479-10.467-24.839-26.919-183.88-146.59-341.931-30.552M839.381 566.594s-16.989-206.18 59.948-329.198M932.165 573.065s2.953-85 57.03-179.432M746.268 503.826s-13.544-77.051 5.211-143.867M587.363 290.497s-21.764 52.356-1.61 128.612M912.07 312.738s7.567-33.449 33.317-62.912M467.245 549.853s-11.802-18.139-13.388-55.171" stroke="#000" stroke-width="20" stroke-miterlimit="10" stroke-linecap="round"/></g><defs><clipPath id="prefix__clip0_53_25644"><path fill="#fff" d="M0 0h1500v1500H0z"/></clipPath></defs>
      
    </g>
    </svg>