<svg
      xmlns="http://www.w3.org/2000/svg"
      preserveAspectRatio="xMidYMin meet"
      fill="none"
      viewBox="0 0 1500 1500"
    >
      <g>
      <path fill="url(#prefix__paint0_linear_53_30460)" d="M0 0h1500v1500H0z"/><defs><linearGradient id="prefix__paint0_linear_53_30460" x1="0" y1="0" x2="1500" y2="1500" gradientUnits="userSpaceOnUse"><stop stop-color="#F1FFBA"/><stop offset="1" stop-color="#65DCBA"/></linearGradient></defs>
      <g clip-path="url(#prefix__clip0_53_29017)"><path d="M289.32 1500l15.53-112.58 30.68-117.3-17.14-45.59s-15-117.74 41.25-161c56.25-43.26 65.45-47.41 65.45-47.41s135.65 171.93 339 168.87c203.35-3.06 328.18-130.19 328.18-130.19l42-46.11 14.44 49.93L1133 1102l-10.73 32.19 38.38 53.64 56.12 125.69 16.09 69.9 16.92 63.54 13.61 53.09-974.07-.05z" fill="#53B6F9"/><path d="M472.001 1229.5c-50 72.4-79.167 217.83-87.5 281.5H290.5c.4-104.8 26.834-210.33 40.001-250-54.778-134.8 39.176-220.83 93-247 64.5 77 147.666 124.67 182 137.5-29.6 26-26.334 67.83-21 85.5l87 24c-82.4 21.6-167.334-12-199.5-31.5z" fill="#001647" fill-opacity=".2"/><path d="M512.15 1369.42a922.37 922.37 0 00-19 130.58h-20.89v-.72a926.03 926.03 0 0119.52-134.67 10.46 10.46 0 014.679-6.49 10.516 10.516 0 017.896-1.28c2.697.64 5.03 2.33 6.487 4.68a10.46 10.46 0 011.278 7.9h.03zM1132.47 1500h-21.11c-2.86-14.16-20.25-98.69-36.62-147.37-.45-1.3-.63-2.68-.55-4.06.09-1.37.45-2.72 1.06-3.95.61-1.24 1.46-2.34 2.49-3.25 1.04-.91 2.25-1.6 3.55-2.04 1.31-.44 2.69-.61 4.06-.52 1.38.1 2.72.47 3.95 1.08 1.24.62 2.33 1.47 3.23 2.52.9 1.04 1.59 2.25 2.02 3.56 18.26 54.27 36.94 148 37.72 152 .14.67.2 1.35.2 2.03zM429 1140.38c-36.78 29.35-63.66 67.4-79.87 113.1-55.72 157-49.44 244.8-49.37 245.66v.86h-20.9c-.68-10.16-4.54-98.23 50.55-253.51 17.54-49.43 46.65-90.63 86.53-122.45a10.661 10.661 0 013.648-2.06 10.469 10.469 0 018.172.75 10.5 10.5 0 013.211 2.69 10.528 10.528 0 011.898 3.74 10.454 10.454 0 01-1.104 8.13 10.449 10.449 0 01-2.825 3.09h.06zM1273.43 1500h-21.09c-2.38-11.9-15.44-75.74-36.39-146.32-30.24-101.86-62.93-171.34-94.54-200.93l-2.5-2.36a45.331 45.331 0 00-5.57-4.69 10.454 10.454 0 0112.68-16.62c2.59 1.88 5.04 3.95 7.33 6.19.61.59 1.35 1.3 2.34 2.22 34.83 32.6 68.59 103.39 100.34 210.41 23.4 78.86 37.08 149.42 37.21 150.12.13.65.19 1.32.19 1.98z" fill="#000"/><path d="M425.09 1016.13S268 1075 329.32 1270.12M425.09 1122.57s52.18 120.38 243.46 131M965.67 1237.2s119-29.84 172-136.28c32.82-65.94-6.64-89.63-6.64-89.63" stroke="#000" stroke-width="20" stroke-miterlimit="10" stroke-linecap="round"/><path d="M932.029 1429.09l-2.533 5.65h22.627l2.471-5.65h-22.565zm7.011-15.56l-2.533 5.63h22.48l2.455-5.63H939.04zm0 0l-2.533 5.63h22.48l2.455-5.63H939.04zm-9.536 21.2h22.627l2.471-5.65h-22.573l-2.533 5.65h.008zm105.296 1.9l-67.137-93.73a11.807 11.807 0 00-4.106-3.59c-1.557-.83-3.269-1.28-4.927-1.31h-.131c-1.674 0-3.277.44-4.625 1.26v.01a7.97 7.97 0 00-3.083 3.45l-.015.04-.016.03-41.954 93.2-.016.04-.015.03c-.674 1.58-.914 3.38-.682 5.19l.016.09c.255 1.83.991 3.64 2.107 5.24l.038.06.039.05a13.012 13.012 0 004.385 3.84c1.766.95 3.702 1.45 5.592 1.45h107.85c1.76 0 3.44-.45 4.86-1.31l.02-.01.03-.02c1.44-.9 2.57-2.21 3.24-3.78l.08-.17c.25-.53.4-1.11.47-1.71.21-1.05.24-2.15.08-3.26-.26-1.79-.98-3.55-2.11-5.1l.01.01zm-78.191-90.67c.24-.52.627-.96 1.115-1.25.496-.3 1.077-.46 1.681-.46.604 0 1.232.18 1.805.48a3.96 3.96 0 011.441 1.27l3.803 5.29-15.655 34.83h28.305l-5.895-8.21-.868 2.74h-12.448l10.597-23.52 28.197 39.52h-64.806l22.728-50.69zm-37.222 99.79c-.774 0-1.572-.21-2.293-.6a5.424 5.424 0 01-1.82-1.59 5.08 5.08 0 01-.891-2.21c-.101-.77 0-1.53.287-2.19l16.484-36.67h47.927l-19.018 43.26h-40.676zm110.983-1.95c-.26.6-.68 1.1-1.23 1.44-.56.33-1.22.51-1.91.51h-60.528l19.025-43.26h17.163l13.01 18.04h-13.02l-4.906-6.68h-4.493l-8.947 20.55h28.276l-5.8-8.16h13.08l9.7 13.51c.44.6.72 1.29.82 1.98.1.69.02 1.47-.25 2.06l.01.01zm-91.338-30.27l-2.533 5.63h22.48l2.456-5.63h-22.403zm-9.536 21.2h22.627l2.471-5.65h-22.565l-2.533 5.65z" fill="#fff"/></g><defs><clipPath id="prefix__clip0_53_29017"><path fill="#fff" d="M0 0h1500v1500H0z"/></clipPath></defs>
      <g clip-path="url(#prefix__clip0_299_662)"><path d="M775 1185c231.41 0 419-168.12 419-375.5 0-207.383-187.59-375.5-419-375.5-231.407 0-419 168.117-419 375.5 0 207.38 187.593 375.5 419 375.5z" fill="#ABF"/><path d="M457.5 796c7.6 194 131.833 327.5 193 370l-130-55.5L438 1034l-57.5-89.5-27-106 11-104L394 662l45-82.5 83.5-69.5 109-54.182 28.5-1C569.452 513.314 451.119 633.132 457.5 796z" fill="#001647" fill-opacity=".2"/><path d="M775 1185c231.41 0 419-168.12 419-375.5 0-207.383-187.59-375.5-419-375.5-231.407 0-419 168.117-419 375.5 0 207.38 187.593 375.5 419 375.5z" stroke="#000" stroke-width="20"/></g><defs><clipPath id="prefix__clip0_299_662"><path fill="#fff" d="M0 0h1500v1500H0z"/></clipPath></defs>
      <g clip-path="url(#prefix__prefix__clip0_53_29477)"><path d="M1046 825a40.998 40.998 0 0037.88-25.31 41.043 41.043 0 002.33-23.689 40.939 40.939 0 00-11.22-20.992 40.99 40.99 0 00-44.68-8.888 40.977 40.977 0 00-18.4 15.101 40.996 40.996 0 005.1 51.769A41.006 41.006 0 001046 825z" fill="#000"/><path d="M729.63 808.821l88.08-16a7.737 7.737 0 006.23-6.4 7.757 7.757 0 00-.73-4.64 7.674 7.674 0 00-3.27-3.35l-82.39-43.72m99.27 256.728c38.57 39.211 113.35 39.211 151.93 0" stroke="#000" stroke-width="20" stroke-miterlimit="10" stroke-linecap="round"/></g><defs><clipPath id="prefix__prefix__clip0_53_29477"><path fill="#fff" d="M0 0h1500v1500H0z"/></clipPath></defs>
      <g clip-path="url(#prefix__clip0_53_27007)"><path d="M732.51 716.382a.135.135 0 00.059.011.129.129 0 00.057-.019.113.113 0 00.04-.044.108.108 0 00.014-.058c-.06-3.15 0-44.08 43-42 0 0 36.07 2.11 40.57 41.22a.12.12 0 00.17.1c2.54-1.13 38.11-16.18 57.7 13.29 19.59 29.47-10.28 56.51-12.25 58.22a.13.13 0 000 .18c2 1.86 33.67 28.35 16.711 57.94-16.96 29.59-54 16.2-56.56 15a.111.111 0 00-.161.09c-.42 2.79-6.86 41.59-40.73 43-33.87 1.41-44.86-36.09-45.57-38.67a.111.111 0 00-.022-.045.117.117 0 00-.04-.03.141.141 0 00-.049-.009.112.112 0 00-.048.014c-2.36 1.15-36.651 17.15-57.701-14.5-21.05-31.65 7.131-55.44 9.141-57.07a.116.116 0 00.034-.039.113.113 0 00-.034-.141c-2.05-1.74-31.9-28-11-61.24 19.98-31.71 53.949-16.48 56.669-15.2zM1031.34 715.128c.02.011.04.018.06.018.02.001.04-.005.06-.015.01-.01.03-.026.04-.044a.117.117 0 00.01-.059c0-3.16 1.3-44.07 44.21-40.72 0 0 36 3.16 39.35 42.39 0 .018.01.036.02.051s.02.028.04.038c.01.01.03.016.05.018.01.002.03-.001.05-.007 2.58-1 38.57-15.06 57.3 15 18.73 30.06-11.93 56.18-14 57.84a.29.29 0 00-.03.041c-.01.015-.01.032-.01.049s0 .034.01.05c.01.015.02.029.03.04 1.92 1.91 32.83 29.31 15 58.41-17.83 29.1-54.44 14.61-57 13.32-.02-.01-.03-.016-.05-.018a.14.14 0 00-.06.01c-.01.008-.03.021-.04.036a.098.098 0 00-.02.052c-.5 2.78-8.07 41.37-42 41.82-33.93.45-43.78-37.39-44.42-40 0-.016-.01-.031-.02-.044-.01-.013-.03-.024-.04-.032-.02-.007-.03-.011-.05-.012a.125.125 0 00-.05.008c-2.39 1.09-37.13 16.08-57.25-16.17-20.12-32.25 8.75-55.21 10.8-56.78a.107.107 0 00.046-.09.116.116 0 00-.012-.051.116.116 0 00-.034-.039c-2-1.8-31.07-28.87-9.18-61.53 21-31.16 54.51-14.94 57.19-13.58z" fill="#4AEEB9" stroke="#000" stroke-width="20" stroke-miterlimit="10"/><circle cx="1072" cy="789" r="54" fill="#FFBF44" stroke="#000" stroke-width="20"/><circle cx="776" cy="789" r="54" fill="#FFBF44" stroke="#000" stroke-width="20"/><path d="M753.5 733.5c-4.8-37.2 17-50.167 28.5-52-14.8-4.4-31.833 3.5-38.5 8-2.333 3.5-7.5 11.3-9.5 14.5-2.5 4-4 8.5-5.5 9s-21.5 2-22.5 2-26 10.5-26.5 11.5-10 25-10 26c0 .8 4.667 29.333 7 43.5-2.833 6.666-9 21.9-11 29.5-2 7.6 20.5 30.5 32 41l38 2.5 37.5 33.5c19 .5 49.4-.3 19-7.5s-33.667-34.667-31.5-47.5c-1.333-2.834-4.4-8.8-6-10-2-1.5-16.5-17-17-18s-7-11.5-7.5-34c-.4-18 15.5-42.167 23.5-52zM1051.13 733.5c-4.8-37.2 17-50.167 28.5-52-14.8-4.4-35.84 3.5-42.51 8-2.33 3.5-7.5 11.3-9.5 14.5-2.5 4-4 8.5-5.5 9s-21.5 2-22.495 2c-1 0-26 10.5-26.5 11.5s-10 25-10 26c0 .8 4.667 29.333 7 43.5-2.833 6.666-9 21.9-11 29.5-2 7.6 20.5 30.5 32 41l37.995 2.5 37.5 33.5c19 .5 54.4-.3 24-7.5s-33.66-34.667-31.5-47.5c-1.33-2.834-9.4-8.8-11-10-2-1.5-16.5-17-17-18s-7-11.5-7.5-34c-.4-18 19.51-42.167 27.51-52z" fill="#001647" fill-opacity=".2"/><path d="M871.488 797.371s52.42-23.07 104.84 0M370.09 692.07L681 789.5" stroke="#000" stroke-width="20" stroke-miterlimit="10"/><path d="M732.51 716.382a.135.135 0 00.059.011.129.129 0 00.057-.019.113.113 0 00.04-.044.108.108 0 00.014-.058c-.06-3.15 0-44.08 43-42 0 0 36.07 2.11 40.57 41.22a.12.12 0 00.17.1c2.54-1.13 38.11-16.18 57.7 13.29 19.59 29.47-10.28 56.51-12.25 58.22a.13.13 0 000 .18c2 1.86 33.671 28.35 16.711 57.94-16.96 29.59-54 16.2-56.56 15a.111.111 0 00-.161.09c-.42 2.79-6.86 41.59-40.73 43-33.87 1.41-44.86-36.09-45.57-38.67a.111.111 0 00-.022-.045.117.117 0 00-.04-.03.141.141 0 00-.049-.009.112.112 0 00-.048.014c-2.36 1.15-36.651 17.15-57.701-14.5-21.05-31.65 7.131-55.44 9.141-57.07a.116.116 0 00.034-.039.113.113 0 00-.034-.141c-2.05-1.74-31.9-28-11-61.24 19.98-31.71 53.949-16.48 56.669-15.2zM1031.34 715.128c.02.011.04.018.06.018.02.001.04-.005.06-.015.01-.01.03-.026.04-.044a.117.117 0 00.01-.059c0-3.16 1.3-44.07 44.21-40.72 0 0 36 3.16 39.35 42.39 0 .018.01.036.02.051s.02.028.04.038c.01.01.03.016.05.018.01.002.03-.001.05-.007 2.58-1 38.57-15.06 57.3 15 18.73 30.06-11.93 56.18-14 57.84a.29.29 0 00-.03.041c-.01.015-.01.032-.01.049s0 .034.01.05c.01.015.02.029.03.04 1.92 1.91 32.83 29.31 15 58.41-17.83 29.1-54.44 14.61-57 13.32-.02-.01-.03-.016-.05-.018a.14.14 0 00-.06.01c-.01.008-.03.021-.04.036a.098.098 0 00-.02.052c-.5 2.78-8.07 41.37-42 41.82-33.93.45-43.78-37.39-44.42-40 0-.016-.01-.031-.02-.044-.01-.013-.03-.024-.04-.032-.02-.007-.03-.011-.05-.012a.125.125 0 00-.05.008c-2.39 1.09-37.13 16.08-57.25-16.17-20.12-32.25 8.75-55.21 10.8-56.78a.107.107 0 00.046-.09.116.116 0 00-.012-.051.116.116 0 00-.034-.039c-2-1.8-31.07-28.87-9.18-61.53 21-31.16 54.51-14.94 57.19-13.58z" stroke="#000" stroke-width="20" stroke-miterlimit="10"/><circle cx="776" cy="789" r="54" stroke="#000" stroke-width="20"/><circle cx="1072" cy="789" r="54" stroke="#000" stroke-width="20"/></g><defs><clipPath id="prefix__clip0_53_27007"><path fill="#fff" d="M0 0h1500v1500H0z"/></clipPath></defs>
      <g clip-path="url(#prefix__clip0_53_25147)"><path d="M1097 507.001l44.5 92V612.5c20.33 5.667 64 18.7 76 25.5 12 6.8 16 16.167 16.5 20l6 24-26.5 22-36.5-9-80-25h-66l-85 25c-24.333 14.5-104.6 43.3-231 42.5-126.4-.8-169-44.667-174.5-66.5-21.5 4.833-78.301 22.7-133.501 55.5s-59.667 10-55-5.5c-2.4-126.4 91.333-242 138.5-284-9.167-30-6.5-102.6 77.5-152.999 84-50.4 158.667 13.333 185.5 51.499l88.5 11.5 32.5-48.499c28-31.667 106.5-78.9 196.501-14.5 90 64.4 54.83 175.5 26 223z" fill="#9E6740"/><path d="M726 425.629c.091 4.643-.086 9.287-.53 13.91-1.95 20.13-17.39 34.74-35.3 34.33h-2.32c-26.36.13-50 12.57-66.85 32.51-12.27 14.56-32.61 15.86-46.59 3.19-21.33-19.31-35.11-48.83-35.41-81.97-.58-58 40.26-105.33 91.41-106.2 51.37-.87 94.45 46.08 95.59 104.23zM1053.8 476.51a96.45 96.45 0 01-9 9.25c-13.89 12.49-35 11.17-48.81-2.41-.59-.58-1.2-1.16-1.81-1.74-20.8-19.47-47.05-28.42-72.48-27.08-18.59 1-35.36-13.21-38.57-32.36-4.89-29.16 2.4-59.84 22.49-83.05 35.16-40.64 96.28-43.11 137-5.75 40.98 37.54 46.01 102.04 11.18 143.14z" fill="#E8CE99"/><path d="M550 557c-26.4 41.6-40.667 100.333-44.5 124.5L398 732l-46.5 14c1.5-26 11-95.4 37-165S465 464.667 487 450l3.5-30.5c-9.2-82 64.833-134.833 103-151 26.833-.333 73.6 0 46 4-34.5 5-96.5 45.5-110 123S565 545 575 554.5c8 7.6 6.333 10.833 4.5 11.5l-29.5-9zM816.5 415.5c-6-24-.167-56.667 3.5-70l18.5-1.5c-1.667 9.833-1 19.1 15-22.5s90-62.333 125-67.5c34.17 5 89.7 14.5 38.5 12.5-64-2.5-108.5 34-135.5 82S859 440 860.5 454c1.2 11.2-4.5 15-7.5 15.5-3.667-2-12-5.8-16-5-5 1-13-19-20.5-49zM747.5 579.5c-137.6 22.4-202.667 67-218 86.5l63-22.5 100-33 187.5-20 261 23.5-4-14.5c-49.5-17-217.5-48-389.5-20z" fill="#001647" fill-opacity=".2"/><path d="M1148 617.71c-12.25-42.572-30.81-78.812-53-109.618M540.72 667.25c-91.21 33.47-140.71 60.54-166.1 77.27a14.918 14.918 0 01-21.332-5.415 14.914 14.914 0 01-1.748-7.955c4.029-65.486 28.113-194.217 139.448-288.65m256.511-105.549c39.527-2.3 65.849 2.317 71.041 3.339l2.28.42c2.79.502 9.874 1.857 20.179 4.426" stroke="#000" stroke-width="20" stroke-miterlimit="10"/><path d="M540.71 667.271s166.74-121.38 588.12-54.27c0 0 48.85 9.63 90.35 32.16a30.797 30.797 0 0114.57 17.66 30.8 30.8 0 01-1.63 22.839 30.773 30.773 0 01-16.93 15.413 30.818 30.818 0 01-22.89-.522c-33.44-14.31-83.58-29.5-137.84-32.6-42.14-2.41-135.11 37-204.25 56.17a417.796 417.796 0 01-171.62 10.88c-70.46-10.28-150.73-30.31-137.88-67.73z" stroke="#000" stroke-width="20" stroke-miterlimit="10"/><path d="M574.2 569.449c-31.5-16.12-58-45.22-72.45-84.1-30.32-81.35 3.25-174.61 74.91-208.35 71.66-33.74 154.39 4.87 184.71 86.21a178.311 178.311 0 012.53 117M846.27 463.55a157.88 157.88 0 01-5.31-112c26.1-78.86 109.71-118.61 186.74-88.78 77.03 29.83 118.3 117.91 92.24 196.78-12.47 37.69-38.07 66.44-69.82 82.94" stroke="#000" stroke-width="20" stroke-miterlimit="10" stroke-linecap="round"/></g><defs><clipPath id="prefix__clip0_53_25147"><path fill="#fff" d="M0 0h1500v1500H0z"/></clipPath></defs>
      
    </g>
    </svg>