<svg
      xmlns="http://www.w3.org/2000/svg"
      preserveAspectRatio="xMidYMin meet"
      fill="none"
      viewBox="0 0 1500 1500"
    >
      <g>
      <path fill="url(#prefix__paint0_linear_53_30463)" d="M0 0h1500v1500H0z"/><defs><linearGradient id="prefix__paint0_linear_53_30463" x1="1500" y1="1500" x2="0" y2="0" gradientUnits="userSpaceOnUse"><stop stop-color="#FF5A5A"/><stop offset="1" stop-color="#FFBDBD"/></linearGradient></defs>
      <g clip-path="url(#prefix__clip0_53_28338)"><path d="M460.5 1094.5c-138.4 66.4-174 309.33-174.5 422.5h983.5c-12.5-72.17-53.2-244.1-116-354.5-78.5-138-520-151-693-68z" fill="#ABF"/><path d="M502.047 1213.45c-101.2 100-117.833 249-113.5 311l-99.501-13c-1.6-110.8 39-247.5 59.5-302l39.501-52.5 15.5-20.5 66.5-42.5c149.6-59.6 294-54.83 347.5-45-52.626 11-166.864 48.63-262.047 119.01l14.5 41.49 57.5 91.55 86 53c-112-7.6-170-112.97-185-164.7-9.116 7.71-17.961 15.76-26.453 24.15z" fill="#001647" fill-opacity=".2"/><path d="M804.304 1304.83C660.776 1310.31 605 1221 593.5 1060.5l-48 8c8.499 145.5 59.312 294.73 254.167 283.14C994.522 1340.04 1017 1198.5 993 1068.5l-44.001-8c-13.53 116.04 36 214-144.695 244.33z" fill="#FFBF44"/><path d="M289.5 1512.5c-6-101.5 31-323.03 140.5-398 158.5-108.51 616.5-87 706.5 26 64.91 81.5 99.5 222.5 132.5 371M1084.5 1337c12.33 37 29.5 110.3 43.5 175.5m-646.5 0c.333-32.83 7.7-107.6 20.5-157" stroke="#000" stroke-width="20" stroke-linecap="round"/><path d="M996 1074.5l4.04 45.04c.29 3.25.74 6.42 1.17 9.66 4.18 31.44 17.72 207.73-201.829 220.79-210.237 12.51-243.51-173.13-248.278-213.99-.621-5.32-1.051-10.52-1.669-15.84L543.5 1069" stroke="#000" stroke-width="23.14" stroke-miterlimit="10"/><path d="M592 1059l12.808 90.01c.17 1.2.326 2.38.515 3.57 2.815 17.7 30.777 161.97 193.252 152.3 152.605-9.08 155.974-128.14 155.26-150.43-.076-2.39-.26-4.78-.398-7.16l-4.937-85.79" stroke="#000" stroke-width="23.14" stroke-miterlimit="10"/></g><defs><clipPath id="prefix__clip0_53_28338"><path fill="#fff" d="M0 0h1500v1500H0z"/></clipPath></defs>
      <g clip-path="url(#prefix__clip0_299_662)"><path d="M775 1185c231.41 0 419-168.12 419-375.5 0-207.383-187.59-375.5-419-375.5-231.407 0-419 168.117-419 375.5 0 207.38 187.593 375.5 419 375.5z" fill="#ABF"/><path d="M457.5 796c7.6 194 131.833 327.5 193 370l-130-55.5L438 1034l-57.5-89.5-27-106 11-104L394 662l45-82.5 83.5-69.5 109-54.182 28.5-1C569.452 513.314 451.119 633.132 457.5 796z" fill="#001647" fill-opacity=".2"/><path d="M775 1185c231.41 0 419-168.12 419-375.5 0-207.383-187.59-375.5-419-375.5-231.407 0-419 168.117-419 375.5 0 207.38 187.593 375.5 419 375.5z" stroke="#000" stroke-width="20"/></g><defs><clipPath id="prefix__clip0_299_662"><path fill="#fff" d="M0 0h1500v1500H0z"/></clipPath></defs>
      <g clip-path="url(#prefix__clip0_53_29233)" stroke="#000" stroke-width="20" stroke-miterlimit="10" stroke-linecap="round"><path d="M719.699 827.31l79.06-79.06M719.699 748.25l79.06 79.06M1006.7 827.31l79.06-79.06M1006.7 748.25l79.06 79.06M810.1 1009.23c12.24-8.37 30-8.37 42.21 0l.44.3a37.403 37.403 0 0021.105 6.53c7.531 0 14.888-2.28 21.105-6.53v0a37.403 37.403 0 0121.105-6.53c7.531 0 14.887 2.28 21.105 6.53l1.09.74a37.403 37.403 0 0021.105 6.53c7.531 0 14.887-2.28 21.105-6.53l1.82-1.24c12.24-8.37 30-8.37 42.21 0"/></g><defs><clipPath id="prefix__clip0_53_29233"><path fill="#fff" d="M0 0h1500v1500H0z"/></clipPath></defs>
      <g clip-path="url(#a)"><path fill="#ABF" d="M1086 1007c0 43.08-75.66 78-169 78-93.336 0-169-34.89-169-78s75.664-98 169-98c93.34 0 169 54.922 169 98Z"/><path fill="#9E6740" d="m1076 1151.93 33.18-23.07 12.54-9.38 33.85 19.09 5.99 15.71 2.2-9.48 20.83-34.8s27.61 27.46 73.03 22.98c45.43-4.48 40.73-17.59 40.73-17.59l13.65 63.17s1.86 93.04-75.43 95.36c-77.3 2.33-121.92-47.19-121.92-47.19l-38.65-74.8Z"/><path fill="#72411F" d="M1297.3 1111.76c1.48-11.32-21.62-23.69-51.61-27.63-29.99-3.94-55.51 2.05-57 13.37-1.48 11.33 21.62 23.7 51.61 27.64 29.99 3.93 55.51-2.05 57-13.38Z"/><path fill="#3A3A3A" d="M920.5 1012s63.443 3.62 86 33c22.56 29.38 37.64 41.69 37.64 41.69l14.47 21.31s34.8-8.44 36.39-20.51l-44.45-47.01-37.86-25.09-48.2-13.21-27.507-2.18-16.483 12Z"/><path fill="#FFBF44" d="m1058 1108.21 38.93-24.21 27.07 34.76-49.9 34.24-16.1-44.79Z"/><path stroke="#000" stroke-linecap="round" stroke-miterlimit="10" stroke-width="20" d="M1160.1 1152.41c2.87-27.52 29.89-55.03 29.89-55.03 15.81-18.64 43.4-18.64 43.4-18.64 17.6-.4 31.12 2.57 41.23 6.52a50.061 50.061 0 0 1 19.09 13.48 49.885 49.885 0 0 1 10.87 20.65c41.73 161.5-85.23 154.57-85.23 154.57-116.7-7.45-119.06-81.11-158.15-161.35-39.08-80.24-127.2-98.26-127.2-98.26l24.865-8.35s63.965 3.57 119.235 57.48c24 23.42 36.87 61.5 69.09 70.78 4.83 1.39 10.27 2.53 16.42 3.32"/><path fill="#001647" fill-opacity=".2" d="M1182.42 1151.2c-8.08 7.43-17.96 3.09-21.89 0l2.95-9.29 10.1-13 13.89-23.03c7.29 4.08 19.7 13 14.99 15.97-5.89 3.71-9.94 20.06-20.04 29.35Z"/><path fill="#001647" fill-opacity=".2" d="M1070.57 1097c2.57 1.5 4.15 2.56 5.04 3.22-1.06-1.17-2.61-3.49-2.61-6.72 0-3.83 2.16-1.29 4.36 2 39.18 58.54 60.44 152.32 140.93 149.51 68.01-2.38 82-26.73 87.63-41.57 2.11 27.86-33.66 76.22-108.41 71.17-74.75-5.05-95.44-77.71-118.86-120.18l-5.65-26.27-15.5-22.28 1.5-3.38h4.5l7.07-5.5ZM1243.44 1128.16c-26.6-2.08-46.15-20.43-52.61-29.34l1.27-4.83 37.45-11.61 37.53 2.23 33.73 22.53c-5.62 5.45-30.77 23.11-57.37 21.02Z"/><path fill="#120701" fill-opacity=".2" d="M954 1008.5c60.4 12.8 104.83 61 119.5 83.5l-10.5 16-6.5-16-69-56-33.5-27.5Z"/><path stroke="#000" stroke-linecap="round" stroke-miterlimit="10" stroke-width="20" d="M1061 1108s20.72-6.16 30-24M1084 1145s25.15-8.2 35-27M827.5 1005s57.16 25.28 115-4.5c33.57-22.61 73-21.1 73-21.1M1299.01 1110.23c-1.53 13.97-28.09 26.64-58.12 23.37-30.03-3.27-53.14-21.27-50.61-35.21"/></g><defs><clipPath id="a"><path fill="#fff" d="M0 0h1500v1500H0z"/></clipPath></defs>
      <g clip-path="url(#prefix__clip0_53_26188)"><path d="M1012 393.09l32.13-41.94 21.36-81.32-1-56.51 48.67 69 25.58 62.53 10.69 49-20 57.47-37.55 45.15-32.3-51-47.58-52.38zM330.08 736l-6.71-75 27.84-29.17 299-95.44 225.93-29.11 185-3.26 61.43 12.08L1175 652l-328.3 18.6-177.28 26.1-162.25 42.71L347 800.94 330.08 736z" fill="#fff"/><path d="M340 641.681s-11.84-38.57 31.53-132c43.37-93.43 154.25-185 328.17-204.14 173.92-19.14 282.3 64.22 282.3 64.22s92.35 75.5 112 138.23c-.08.01-359.3-35.8-754 133.69z" fill="#CCD0DA"/><path d="M290 370.36l22.67 118.7 57 74 65.76 38.1 55.1-21.48L501.5 512l-7.97-32.1L434.5 423l-70.12-56L310 269.16l-20 101.2z" fill="#fff"/><path d="M1090.87 508.091a41.584 41.584 0 0123.33 7.127 41.639 41.639 0 0115.33 18.983v0l44.76 105.21c.41 2.605.23 5.267-.51 7.797a17.874 17.874 0 01-3.78 6.84 17.843 17.843 0 01-6.32 4.585 17.968 17.968 0 01-7.68 1.458c-396.13-13-714.6 106.26-796.1 141a17.89 17.89 0 01-7.917 1.423 17.892 17.892 0 01-13.742-7.541 17.9 17.9 0 01-3.051-7.442l-10.37-122.08a17.92 17.92 0 0110.44-19.25c3.22-1.42 6.437-2.827 9.65-4.22 43.06-18.71 76.53-30.88 117.88-45a1614.05 1614.05 0 0124.31-8.19c221.9-84.79 511.76-80.59 603.77-80.7z" stroke="#000" stroke-width="20" stroke-miterlimit="10"/><path d="M440.09 604.81c-30.07-7.52-84-34.57-117.6-92.46-28.59-49.26-44.08-125.24-22-242.4a3.198 3.198 0 013.06-2.76 3.153 3.153 0 012.09.68 3.183 3.183 0 011.17 1.86c6.77 25 26.19 77.19 77.55 122.92a289.242 289.242 0 0059.19 40.55c37.63 19.58 59.16 64.15 50.54 108.23-2.52 12.87-8.23 36.19-16.92 50.07M1005.81 388.7s63.38-13.85 56.69-168.71c-.29-6.84 9.64-8.73 12.92-2.71 27.46 51 128.43 161 23.15 279.19" stroke="#000" stroke-width="20" stroke-miterlimit="10"/><path d="M740.34 641.68a31.34 31.34 0 100-62.681 31.34 31.34 0 000 62.681zM424.34 723.68a31.34 31.34 0 100-62.681 31.34 31.34 0 000 62.681zM582.34 676.68a31.34 31.34 0 100-62.681 31.34 31.34 0 000 62.681zM898.34 621.68a31.34 31.34 0 100-62.681 31.34 31.34 0 000 62.681zM1056.34 614.68c6.2 0 12.26-1.838 17.41-5.282a31.276 31.276 0 0011.54-14.065c2.38-5.726 3-12.028 1.79-18.107a31.375 31.375 0 00-8.58-16.047 31.334 31.334 0 00-34.15-6.793 31.372 31.372 0 00-14.07 11.542 31.37 31.37 0 00-5.28 17.412c0 8.312 3.3 16.283 9.18 22.161a31.348 31.348 0 0022.16 9.179z" fill="#CCD0DA" stroke="#000" stroke-width="20" stroke-miterlimit="10"/><path d="M430.29 425.91c47.15-49 117.91-92.61 224.11-113.29 338-65.8 443.08 195.68 443.08 195.68M344.91 641.999s-9.1-35.91 8.74-88.89" stroke="#000" stroke-width="20" stroke-miterlimit="10"/><path d="M513 558.5c-8.4-112.8 69.167-202.667 109-233.5-82 12.8-161.5 71.667-191 99.5l-49.5-31-70-96c-5.167-15.167-16.3-23.2-19.5 66-3.2 89.2 36.333 162.833 56.5 188.5l-5.5 84-16.5 12.5c.833 8.667 3.1 42.3 5.5 107.5s29.667 52.5 43 38l182.5-60.5c-22.8-45.6-28.5-126.333-28.5-161L680.5 535l178-20.5 238.5-9-12-17.5c-261.6-12.4-490.333 41.833-572 70.5zM1055 316.5c-1.6 24.4-30.67 60.5-45 75.5l52.5 49.5c45.6-68 30.67-166.333 17.5-207l-14.5-14c-2.83 21.833-8.9 71.6-10.5 96z" fill="#001647" fill-opacity=".2"/></g><defs><clipPath id="prefix__clip0_53_26188"><path fill="#fff" d="M0 0h1500v1500H0z"/></clipPath></defs>
      
    </g>
    </svg>