<svg
      xmlns="http://www.w3.org/2000/svg"
      preserveAspectRatio="xMidYMin meet"
      fill="none"
      viewBox="0 0 1500 1500"
    >
      <g>
      <path fill="url(#prefix__a1)" d="M0 0h1500v1500H0z"/><defs><linearGradient id="prefix__a1" x1="0" y1="0" x2="1500" y2="1500" gradientUnits="userSpaceOnUse"><stop stop-color="#57ECFF"/><stop offset="1" stop-color="#4E41EE"/></linearGradient></defs>
      <g clip-path="url(#prefix__clip0_53_28338)"><path d="M460.5 1094.5c-138.4 66.4-174 309.33-174.5 422.5h983.5c-12.5-72.17-53.2-244.1-116-354.5-78.5-138-520-151-693-68z" fill="#ABF"/><path d="M502.047 1213.45c-101.2 100-117.833 249-113.5 311l-99.501-13c-1.6-110.8 39-247.5 59.5-302l39.501-52.5 15.5-20.5 66.5-42.5c149.6-59.6 294-54.83 347.5-45-52.626 11-166.864 48.63-262.047 119.01l14.5 41.49 57.5 91.55 86 53c-112-7.6-170-112.97-185-164.7-9.116 7.71-17.961 15.76-26.453 24.15z" fill="#001647" fill-opacity=".2"/><path d="M804.304 1304.83C660.776 1310.31 605 1221 593.5 1060.5l-48 8c8.499 145.5 59.312 294.73 254.167 283.14C994.522 1340.04 1017 1198.5 993 1068.5l-44.001-8c-13.53 116.04 36 214-144.695 244.33z" fill="#FFBF44"/><path d="M289.5 1512.5c-6-101.5 31-323.03 140.5-398 158.5-108.51 616.5-87 706.5 26 64.91 81.5 99.5 222.5 132.5 371M1084.5 1337c12.33 37 29.5 110.3 43.5 175.5m-646.5 0c.333-32.83 7.7-107.6 20.5-157" stroke="#000" stroke-width="20" stroke-linecap="round"/><path d="M996 1074.5l4.04 45.04c.29 3.25.74 6.42 1.17 9.66 4.18 31.44 17.72 207.73-201.829 220.79-210.237 12.51-243.51-173.13-248.278-213.99-.621-5.32-1.051-10.52-1.669-15.84L543.5 1069" stroke="#000" stroke-width="23.14" stroke-miterlimit="10"/><path d="M592 1059l12.808 90.01c.17 1.2.326 2.38.515 3.57 2.815 17.7 30.777 161.97 193.252 152.3 152.605-9.08 155.974-128.14 155.26-150.43-.076-2.39-.26-4.78-.398-7.16l-4.937-85.79" stroke="#000" stroke-width="23.14" stroke-miterlimit="10"/></g><defs><clipPath id="prefix__clip0_53_28338"><path fill="#fff" d="M0 0h1500v1500H0z"/></clipPath></defs>
      <g clip-path="url(#prefix__clip0_299_662)"><path d="M775 1185c231.41 0 419-168.12 419-375.5 0-207.383-187.59-375.5-419-375.5-231.407 0-419 168.117-419 375.5 0 207.38 187.593 375.5 419 375.5z" fill="#ABF"/><path d="M457.5 796c7.6 194 131.833 327.5 193 370l-130-55.5L438 1034l-57.5-89.5-27-106 11-104L394 662l45-82.5 83.5-69.5 109-54.182 28.5-1C569.452 513.314 451.119 633.132 457.5 796z" fill="#001647" fill-opacity=".2"/><path d="M775 1185c231.41 0 419-168.12 419-375.5 0-207.383-187.59-375.5-419-375.5-231.407 0-419 168.117-419 375.5 0 207.38 187.593 375.5 419 375.5z" stroke="#000" stroke-width="20"/></g><defs><clipPath id="prefix__clip0_299_662"><path fill="#fff" d="M0 0h1500v1500H0z"/></clipPath></defs>
      <g clip-path="url(#prefix__clip0_53_29233)" stroke="#000" stroke-width="20" stroke-miterlimit="10" stroke-linecap="round"><path d="M719.699 827.31l79.06-79.06M719.699 748.25l79.06 79.06M1006.7 827.31l79.06-79.06M1006.7 748.25l79.06 79.06M810.1 1009.23c12.24-8.37 30-8.37 42.21 0l.44.3a37.403 37.403 0 0021.105 6.53c7.531 0 14.888-2.28 21.105-6.53v0a37.403 37.403 0 0121.105-6.53c7.531 0 14.887 2.28 21.105 6.53l1.09.74a37.403 37.403 0 0021.105 6.53c7.531 0 14.887-2.28 21.105-6.53l1.82-1.24c12.24-8.37 30-8.37 42.21 0"/></g><defs><clipPath id="prefix__clip0_53_29233"><path fill="#fff" d="M0 0h1500v1500H0z"/></clipPath></defs>
      <g clip-path="url(#prefix__clip0_53_26750)"><path d="M367.752 776.001s-3.28 28.45-1 45.76c2.44 18.17 1-1 1-1l33.42-7 66.7-6.4 126.25-16-16.45-38.56-209.92 23.2z" fill="#CCD0DA"/><path d="M606.318 716.472c95.222-8.873 410.972-33.645 575.062 10.575 1.66.448 2.89 1.625 3.3 3.297 4.9 19.994 29.97 149.958-140.21 173.418-28.09 3.88-56.602-5.94-75.622-27-10.05-11.11-24.47-21-44-21-21.81 0-38.66 12.64-50.2 25.56a87.103 87.103 0 01-68.66 29c-69-2.89-188.31-28-221.92-162.37a25.404 25.404 0 0122.25-31.48z" fill="#53B6F9" stroke="#000" stroke-width="20" stroke-miterlimit="10"/><path d="M656 709.001l89-7 116.798 190.464-32.298 16.536-47.5 5-126-205zM766.638 704.27h23.144L891 865l-14 11-110.362-171.73zM961.076 699.264L1053 705l102.75 149.657L1127 880l-40.11 18.205-125.814-198.941zM1076.5 715h18l82 115-11 16-89-131z" fill="#fff" fill-opacity=".9"/><path d="M606.318 716.472c95.222-8.873 410.972-33.645 575.062 10.575 1.66.448 2.89 1.625 3.3 3.297 4.9 19.994 29.97 149.958-140.21 173.418-28.09 3.88-56.602-5.94-75.622-27-10.05-11.11-24.47-21-44-21-21.81 0-38.66 12.64-50.2 25.56a87.103 87.103 0 01-68.66 29c-69-2.89-188.31-28-221.92-162.37a25.404 25.404 0 0122.25-31.48zM584.08 748.012L356 777.042M598.32 795L356 822" stroke="#000" stroke-width="20" stroke-miterlimit="10"/></g><defs><clipPath id="prefix__clip0_53_26750"><path fill="#fff" d="M0 0h1500v1500H0z"/></clipPath></defs>
      <g clip-path="url(#prefix__clip0_53_25974)"><path d="M500.535 506.546l-86.766 95.707-7.523 25.92-16.551-12.96-123.378 40.875-14.044 29.908 38.117 21.434-11.034 19.939-6.018 32.899 69.212 2.493 20.563-6.979v-23.428l137.422-35.89 281.864-43.866 203.123-20.437 163.498 6.48-33.6-56.826-44.64-50.844-54.16-42.37-85.264-40.376-123.88-18.942-155.477 10.468-151.464 66.795z" fill="#53B6F9"/><path d="M694 440.501c-103.2 71.6-160.667 198.166-176.5 252.5L370 722.5l-9.5 37.5-89-3.5 41-55c-25.333 4.833-73.8 8.7-65-14.5 8.8-23.2 106.333-58 154-72.5 21.167-27.666 81.2-92.799 152-131.999 70.8-39.2 123.167-44.334 140.5-42z" fill="#001647" fill-opacity=".2"/><path d="M365.792 728.466c72.884-19.54 500.224-129.064 779.298-89.346a6.808 6.808 0 006.69-2.99 6.798 6.798 0 001.14-3.625 6.771 6.771 0 00-1.01-3.663c-30.29-49.757-159.878-231.859-425.301-199.957-291.003 34.953-357.366 241.26-369.323 291.436a6.742 6.742 0 00.091 3.482 6.779 6.779 0 001.815 2.979 6.882 6.882 0 003.053 1.695 6.918 6.918 0 003.497-.02l.05.009z" stroke="#000" stroke-width="20" stroke-miterlimit="10" stroke-linecap="round"/><path d="M383.466 645.541s-81.54 45.161-109.475 97.86a10.067 10.067 0 00-1.194 4.686 10.238 10.238 0 001.123 4.705 10.135 10.135 0 003.2 3.649 10.069 10.069 0 004.524 1.765c15.417 1.993 52.882 5.981 78.461 1.565l6.018-31.902" stroke="#000" stroke-width="20" stroke-miterlimit="10" stroke-linecap="round"/><path d="M397.098 616.6s-103.267 16.948-146.529 61.012a10.068 10.068 0 00-1.338 12.529 10.14 10.14 0 003.213 3.163 81.476 81.476 0 0051.308 11.744" stroke="#000" stroke-width="20" stroke-miterlimit="10" stroke-linecap="round"/></g><defs><clipPath id="prefix__clip0_53_25974"><path fill="#fff" d="M0 0h1500v1500H0z"/></clipPath></defs>
      
    </g>
    </svg>