<svg
      xmlns="http://www.w3.org/2000/svg"
      preserveAspectRatio="xMidYMin meet"
      fill="none"
      viewBox="0 0 1500 1500"
    >
      <g>
      <path fill="url(#prefix__a1)" d="M0 0h1500v1500H0z"/><defs><linearGradient id="prefix__a1" x1="0" y1="0" x2="1500" y2="1500" gradientUnits="userSpaceOnUse"><stop stop-color="#57ECFF"/><stop offset="1" stop-color="#4E41EE"/></linearGradient></defs>
      <g clip-path="url(#prefix__clip0_53_28624)"><path d="M1263 1500H289.33l3.73-66.49 17.17-107.35L358 1203l53.62-74.7s38.18-26.49 102.86-54.62S725 1044 725 1044s197-4.48 350.16 55.11C1228.32 1158.7 1263 1500 1263 1500z" fill="#ABF"/><path d="M1122 1500H482.72s14.6-102.81 14.89-104.16c.29-1.35 16.56-62.7 16.56-62.7l45.26-67.61s16.251-30.11 21.61-70.63c4.913-37.15-1.081-84.95 0-86.07 2.26-2.34 4.64-50.26 4.64-50.26l5.36 2.13 72.57-6.85v.09c.09.44.55 2.47 1.49 5.71l.18.63c.12.43.26.88.4 1.35 0 .12.07.23.11.35.09.32.19.64.29 1a.472.472 0 000 .13c3.442 10.98-6.036 73.44 9.92 119.89 20.159 58.69 69.608 102.92 111.27 108.84 1.72.24 3.42.46 5.09.65 46.42 5.32 75.09-9.26 91.78-24.17.21-.18.41-.37.61-.56 14.4-13.07 19.65-26.22 19.65-26.22l8-46.64-16.9-141.05 87 18.15 9.99 63.79 28.54 95.42 43 72 35.15 98.54L1122 1500z" fill="#3A3A3A"/><path d="M970.546 1333.16l5.179-10.34 18.683 25.59.442 4.9-3.038-33.78a2.812 2.812 0 00-.449-1.16 2.812 2.812 0 00-.907-.87l-31.07-17a2.598 2.598 0 00-1.129-.26c-.391 0-.777.09-1.129.26-.09.04-.177.09-.26.15l-.096.07-27.231 16.63-.107.05c-.143.07-.279.16-.403.26-.251.19-.459.43-.611.71-.151.28-.243.59-.268.9-.007.1-.007.2 0 .3l2.473 27.54 13.202-23.72c1.65-3.14 5.757-4.16 9.656-4.1l4.581.12-23.12 43.19 3.337 1.82 23.287-44.98 12.045-.05-23.116 46.12 11.909 6.52 1.423.78c.583.23 1.229.25 1.821.04l28.446-17.38-5.432 3.34-18.118-25.65zm5.283 33.48l-13.03-17.95 5.936-11.85 17.117 23.68-10.023 6.12z" fill="#2D374B"/><path d="M962.799 1348.68l13.03 17.95 10.023-6.11-17.122-23.69-5.931 11.85zM994.853 1353.31l-.443-4.9-18.683-25.58-5.184 10.33 18.121 25.65 5.442-3.32a2.326 2.326 0 00.78-1.85l-.033-.33z" fill="#28A0F0"/><path d="M926.44 1357.94l8.506 4.66 23.121-43.2-4.581-.11c-3.902-.06-8.007.95-9.656 4.1l-13.202 23.72-4.446 7.9.26 2.94-.002-.01zM973.625 1319.4l-12.046.05-23.285 44.98 10.013 5.49 2.203-4.4 23.115-46.12z" fill="#fff"/><path d="M996.926 1319.34a8.612 8.612 0 00-1.378-3.56 8.557 8.557 0 00-2.784-2.61l-31.477-17.22a7.727 7.727 0 00-3.436-.8c-1.192 0-2.367.27-3.436.8-.24.12-27.64 16.87-27.64 16.87a6.85 6.85 0 00-3.764 6.51l3.166 35.67 4.446-7.91-2.474-27.52c-.014-.37.06-.73.215-1.07.155-.33.387-.62.677-.84.128-.1 27.998-17.1 28.095-17.15.352-.17.738-.26 1.129-.26s.777.09 1.129.26l31.07 17.01c.362.21.672.51.907.86.234.35.387.75.448 1.16l3.013 34.1a2.259 2.259 0 01-.721 1.85l-5.45 3.32-2.804 1.72-10.031 6.12-10.171 6.21c-.591.21-1.238.19-1.821-.04l-13.329-7.29-2.203 4.39 11.981 6.56c.396.22.747.41 1.041.56.447.24.752.4.858.45.974.42 2.022.63 3.08.63.94 0 1.872-.17 2.745-.52l29.551-18.04a6.97 6.97 0 001.894-2.58c.421-1 .608-2.08.533-3.16l-3.059-34.48z" fill="#8BBFDF"/><path d="M591 1062.25V1172a195.34 195.34 0 01-46.65 126.63 106.083 106.083 0 00-20.67 37.44 721.566 721.566 0 00-30.63 159.2c-.12 1.56-.24 3.12-.34 4.69h-20v-.69a741.634 741.634 0 0131.88-169.14 125.754 125.754 0 0124.55-44.47c27.011-31.71 41.85-72 41.86-113.66v-109.79c0-2.65 1.054-5.2 2.929-7.07a9.981 9.981 0 017.071-2.93 9.981 9.981 0 017.071 2.93 9.994 9.994 0 012.929 7.07v.04zM1132 1499.99h-20.2l-.09-.45c-13.68-67.64-25.68-115.81-49.89-176.59a229.608 229.608 0 00-22.36-42.48 355.4 355.4 0 01-51.359-119.1l-5.1-22.21-11.526-66.69a9.987 9.987 0 011.282-7.54 10.006 10.006 0 0113.789-3.15 10.01 10.01 0 014.429 6.24l1.017 4.45 15.588 84.45a336.018 336.018 0 0048.48 112.43c9.7 14.51 17.86 29.99 24.32 46.2 24.77 62.18 37 111.24 50.91 180l.5 2.47c.14.65.21 1.31.21 1.97z" fill="#000"/><path d="M659.5 1051l15.11 128.85c15.21 64.94 82.8 119.21 147.64 114.37 64.84-4.84 105.05-61.36 89.84-126.36L893.5 1051" stroke="#000" stroke-width="20" stroke-miterlimit="10" stroke-linecap="round"/><path d="M500.002 1213.5c-101.2 100-117.834 249-113.5 311l-99.502-13c-1.6-110.8 39-247.5 59.5-302l39.501-52.5 15.5-20.5 66.5-42.5c149.6-59.6 294-54.83 347.5-45-63 13.17-214.299 64.5-315.499 164.5z" fill="#001647" fill-opacity=".2"/><path d="M289.5 1512.5c-6-101.5 31-323.03 140.5-398 158.5-108.51 616.5-87 706.5 26 64.91 81.5 99.5 222.5 132.5 371" stroke="#000" stroke-width="20" stroke-linecap="round"/></g><defs><clipPath id="prefix__clip0_53_28624"><path fill="#fff" d="M0 0h1500v1500H0z"/></clipPath></defs>
      <g clip-path="url(#prefix__clip0_299_662)"><path d="M775 1185c231.41 0 419-168.12 419-375.5 0-207.383-187.59-375.5-419-375.5-231.407 0-419 168.117-419 375.5 0 207.38 187.593 375.5 419 375.5z" fill="#ABF"/><path d="M457.5 796c7.6 194 131.833 327.5 193 370l-130-55.5L438 1034l-57.5-89.5-27-106 11-104L394 662l45-82.5 83.5-69.5 109-54.182 28.5-1C569.452 513.314 451.119 633.132 457.5 796z" fill="#001647" fill-opacity=".2"/><path d="M775 1185c231.41 0 419-168.12 419-375.5 0-207.383-187.59-375.5-419-375.5-231.407 0-419 168.117-419 375.5 0 207.38 187.593 375.5 419 375.5z" stroke="#000" stroke-width="20"/></g><defs><clipPath id="prefix__clip0_299_662"><path fill="#fff" d="M0 0h1500v1500H0z"/></clipPath></defs>
      <g clip-path="url(#prefix__clip0_53_29233)" stroke="#000" stroke-width="20" stroke-miterlimit="10" stroke-linecap="round"><path d="M719.699 827.31l79.06-79.06M719.699 748.25l79.06 79.06M1006.7 827.31l79.06-79.06M1006.7 748.25l79.06 79.06M810.1 1009.23c12.24-8.37 30-8.37 42.21 0l.44.3a37.403 37.403 0 0021.105 6.53c7.531 0 14.888-2.28 21.105-6.53v0a37.403 37.403 0 0121.105-6.53c7.531 0 14.887 2.28 21.105 6.53l1.09.74a37.403 37.403 0 0021.105 6.53c7.531 0 14.887-2.28 21.105-6.53l1.82-1.24c12.24-8.37 30-8.37 42.21 0"/></g><defs><clipPath id="prefix__clip0_53_29233"><path fill="#fff" d="M0 0h1500v1500H0z"/></clipPath></defs>
      <g clip-path="url(#prefix__clip0_53_26787)"><path d="M367.752 776.001s-3.28 28.45-1 45.76c2.44 18.17 1-1 1-1l33.42-7 66.7-6.4 126.25-16-16.45-38.56-209.92 23.2z" fill="#CCD0DA"/><path d="M606.318 716.472c95.222-8.873 410.972-33.645 575.062 10.575 1.66.448 2.89 1.625 3.3 3.297 4.9 19.994 29.97 149.958-140.21 173.418-28.09 3.88-56.602-5.94-75.622-27-10.05-11.11-24.47-21-44-21-21.81 0-38.66 12.64-50.2 25.56a87.103 87.103 0 01-68.66 29c-69-2.89-188.31-28-221.92-162.37a25.404 25.404 0 0122.25-31.48z" fill="#F56CDB" stroke="#000" stroke-width="20" stroke-miterlimit="10"/><path d="M656 708.999l89-7 116.798 190.464L827 907.999l-45 6-126-205zM766.638 704.27h23.144L891 865l-14 11-110.362-171.73zM1076.5 715h18l82 115-11 16-89-131zM961.076 699.264L1053 705l102.75 149.657L1130.5 881l-43.61 17.205-125.814-198.941z" fill="#fff" fill-opacity=".9"/><path d="M606.318 716.472c95.222-8.873 410.972-33.645 575.062 10.575 1.66.448 2.89 1.625 3.3 3.297 4.9 19.994 29.97 149.958-140.21 173.418-28.09 3.88-56.602-5.94-75.622-27-10.05-11.11-24.47-21-44-21-21.81 0-38.66 12.64-50.2 25.56a87.103 87.103 0 01-68.66 29c-69-2.89-188.31-28-221.92-162.37a25.404 25.404 0 0122.25-31.48zM584.08 748.012L356 777.042M598.32 795L356 822" stroke="#000" stroke-width="20" stroke-miterlimit="10"/></g><defs><clipPath id="prefix__clip0_53_26787"><path fill="#fff" d="M0 0h1500v1500H0z"/></clipPath></defs>
      <g clip-path="url(#prefix__clip0_53_30349)"><path d="M661.719 466.274s.681-50.314 11.212-50.049c10.53.266 30.241-4.165 30.241-4.165l31.002 15.989 25.638-5.424 28.99-24.747 27.071-1.791 27.883 14.121 15.446 18.681 23.411.145 50.96-13.954 24.276 23.68-19.232 52.574-44.507-21.369-17.617-6.041-23.175-7.036-28.05-1.943-32.388-.112-55.638 3.68-50.45 8.949-25.073-1.188z" fill="#97A5DE"/><path d="M718.506 479.214s19.322 40.453 64.014 34.31c44.692-6.143 83.522-32.583 83.522-32.583l10.406-17.065-81.463-14.775-84.096 14.041s-8.664 11.898 7.617 16.072z" fill="#7985B4"/><path d="M662.843 469.488s-13.534-58.554 30.087-60.287c15.493-.614 25.434 4.992 32.226 12.21 13.894 14.755 29.392 7.707 38.346-2.386 11.842-13.391 27.482-26.021 44.854-27.17 20.226-1.338 34.215 14.393 42.889 29.474 6.094 10.621 21.799 13.651 33.204 6.683 11.953-7.315 28.35-12.9 48.081-8.683 42.964 9.245 6.064 69.091 6.064 69.091" stroke="#000" stroke-width="18.1" stroke-miterlimit="10" stroke-linecap="round"/><path d="M630.048 507.636s25.276-45.068 51.452-39.634c40.502 8.395 74.399 69.733 74.399 69.733M800.818 537.27s38.761-65.501 93.251-67.301c54.49-1.801 48.429 57.93 48.429 57.93M682 468s137.209-40.275 226.409 2.982M736.796 506.5s35.103 14.655 86.489 1.675" stroke="#000" stroke-width="20" stroke-miterlimit="10" stroke-linecap="round"/><path d="M351.4 750.771c1.45-8.17 3.76-20 6.67-31.13a13.136 13.136 0 019.81-9.48l13.84-3.16a4.275 4.275 0 012.33.11l14.27 4.69c.745.25 1.545.288 2.31.11l115.08-25.85h.23l277.24-47.09h.39l209.23-16.47 118.94-6.24h14.49a16.295 16.295 0 0113.74 7.56 339.734 339.734 0 0121.14 38.49c.31.658.77 1.23 1.36 1.662.58.431 1.27.71 1.99.809.72.1 1.45.017 2.13-.24.68-.257 1.29-.68 1.76-1.231l13.59-15.75a4.384 4.384 0 001.06-2.85l-5.42-29.45c0-.618-.13-1.229-.39-1.79-2.71-6-28.15-36.5-24-40 .93-.8-17.57-32.49-24.61-39.71-7.04-7.22-27.4-11.36-33.18-15.1-5.78-3.74-13.77-8.69-29.57-10.2-15.8-1.51-48.68-2.29-62.62-1.94-13.42.34-64-1.57-67.72-1.71H945l-162 10.19a4.14 4.14 0 00-.52.06l-125.3 23.27-94.3 15.07a4.78 4.78 0 00-.53.12l-95.73 27.73c-.14 0-.28.09-.41.15l-83 22.6c-.19.08-2.92 12.07-3.11 12.17l-36.86 21.51a4.413 4.413 0 00-1.84 2.1c-1.72 4.2-6.89 16.83-7.88 19.84-1.18 3.62.06 15.86 0 17.9a151.534 151.534 0 01-2.43 18.35c-1.51 7.64-2.64 17.18 0 22.1 2.64 4.92 5.44 17.14 8.84 26.76a49.484 49.484 0 003.34 7.37 4.361 4.361 0 008.13-1.33z" fill="#A760FF"/><path d="M583 553.5c-28 33.2-40.333 98.167-43 126.5-50.667 9.5-154.4 29.1-164 31.5-9.6 2.4-20.333 26.333-24.5 38l-14-31L330 669c2.667-7 13.8-27.1 37-51.5s93-41.167 125-46.5l91-17.5z" fill="#001647" fill-opacity=".2"/><path d="M707.701 594.832a4.686 4.686 0 01-.411 3.811 4.634 4.634 0 01-1.281 1.469 4.644 4.644 0 01-1.773.809c-.7.192-1.399.363-2.079.505-.68.142-1.359.253-1.999.335a15.368 15.368 0 01-.985 6.272 20.698 20.698 0 01-8.894 10.472 17.433 17.433 0 01-6.505 2.206l-.39.001a15.443 15.443 0 01-7.402-.982 17.221 17.221 0 01-6.381-4.474c-3.817-4.157-6.399-10.334-7.746-18.531a50.089 50.089 0 01-.721-12.538 24.802 24.802 0 012.508-9.176 16.338 16.338 0 012.352-3.316 14.815 14.815 0 012.993-2.547 15.848 15.848 0 013.127-1.498 13.532 13.532 0 013.488-.769 19.518 19.518 0 014.89-.012c1.655.195 3.274.618 4.813 1.258a13.467 13.467 0 013.765 1.991 7.536 7.536 0 012.306 2.444c.382.679.664 1.409.835 2.168a4.659 4.659 0 01-.821 3.702 4.57 4.57 0 01-3.205 1.898 4.905 4.905 0 01-3.001-.552 6.336 6.336 0 01-2.275-2.055 11.255 11.255 0 00-1.402-.526 10.613 10.613 0 00-1.931-.415 9.583 9.583 0 00-2.22.005 6.541 6.541 0 00-2.248.646 6.886 6.886 0 00-3.129 4.467c-1.032 3.263-1.068 7.806-.107 13.631a32.373 32.373 0 002.362 8.774 17.728 17.728 0 002.731 4.353 5.64 5.64 0 004.795 2.048 9.395 9.395 0 005.991-3.565 8.755 8.755 0 002.129-4.305c-.52.002-1 .063-1.549.124-.517.071-1.038.112-1.56.124a5.074 5.074 0 01-3.823-.991 4.929 4.929 0 01-1.355-1.484 4.93 4.93 0 01-.653-1.901 4.692 4.692 0 01.911-3.602 4.62 4.62 0 013.216-1.868h.08a58.04 58.04 0 012.359-.256c.75-.062 1.49-.124 2.22-.165 1.819-.135 3.609-.299 5.388-.504a51.403 51.403 0 006.228-1.145 5 5 0 013.901.6 5.223 5.223 0 012.458 3.064zM722.553 615.985a5.11 5.11 0 01-3.732-.991 4.994 4.994 0 01-2.108-3.295 686.72 686.72 0 01-1.266-6.267c-.374-1.889-.78-3.998-1.226-6.467a561.81 561.81 0 01-1.308-7.556 428.246 428.246 0 01-1.181-8.398 132.862 132.862 0 01-.717-6.728 69.44 69.44 0 01-.201-4.719 26.848 26.848 0 01.192-3.281c.091-.76.273-1.506.544-2.221a7.296 7.296 0 01.856-1.562 5.802 5.802 0 013.824-2.45 7.861 7.861 0 012.111.085 6.403 6.403 0 012.723 1.253 6.84 6.84 0 011.152.918c.351.349.732.758 1.133 1.227a35.666 35.666 0 013.673 5.331c2.129 3.594 4.691 8.518 7.687 14.771.321.589.612 1.188.884 1.808.272.619.543 1.228.814 1.818.085-.667.164-1.317.236-1.951a16.3 16.3 0 01.305-2.001c.392-3.334.767-6.335 1.128-9.002.36-2.668.727-4.976 1.103-6.923.246-1.241.474-2.321.672-3.262.162-.841.38-1.67.653-2.481.205-.78.461-1.546.765-2.292a5.603 5.603 0 013.491-3.152 5.592 5.592 0 014.663.622 6.647 6.647 0 011.633 1.356 10.394 10.394 0 011.415 2.136c.51.997.951 2.029 1.318 3.087.433 1.199.876 2.628 1.34 4.297.565 1.908 1.13 4.117 1.687 6.605.556 2.489 1.183 5.278 1.86 8.386.527 2.599 1.013 5.127 1.509 7.606s.902 4.678 1.256 6.617c.355 1.939.72 4.118 1.116 6.527a4.456 4.456 0 01-.841 3.672 4.727 4.727 0 01-3.315 1.879h-.08a5.068 5.068 0 01-3.812-.991 5.361 5.361 0 01-2.089-3.385 177.648 177.648 0 00-1.014-5.747 292.305 292.305 0 01-1.085-5.938 354.637 354.637 0 00-1.357-6.926 205.36 205.36 0 00-1.375-6.257c-.127 1.07-.265 2.221-.431 3.471a323.195 323.195 0 00-.501 3.941c-.32 2.548-.604 5.029-.851 7.443a661.006 661.006 0 01-.685 6.401 318.484 318.484 0 00-.479 4.491c-.107 1.141-.155 1.731-.145 1.781a4.603 4.603 0 01-1.293 2.833 4.78 4.78 0 01-2.907 1.387h-.07a5.434 5.434 0 01-5.508-3.286 194.424 194.424 0 00-2.424-5.694c-.754-1.708-1.629-3.646-2.604-5.824l-3.017-6.812a160.883 160.883 0 00-2.674-5.544 765.316 765.316 0 01-2.231-4.414 72.89 72.89 0 00.621 4.428c.274 1.61.549 3.389.853 5.338.4 2.412.795 4.715 1.187 6.907.406 2.189.761 4.148 1.075 5.858.314 1.709.689 3.608 1.124 5.697a4.571 4.571 0 01-.691 3.732 4.722 4.722 0 01-3.225 2.007l-.16.101zM791.358 613.996l-.5.062c-.195.03-.394.031-.59.001-6.761-.703-12.58-4.219-17.456-10.547a35.867 35.867 0 01-3.061-4.742 54.661 54.661 0 01-2.192-4.615 36.556 36.556 0 01-1.48-4.166 82.068 82.068 0 01-.888-3.298 40.482 40.482 0 01.014-18.58 33.616 33.616 0 013.568-9.009 29.607 29.607 0 015.832-7.214 4.851 4.851 0 013.687-1.22 4.994 4.994 0 013.515 1.712 5.282 5.282 0 011.469 3.686 4.24 4.24 0 01-1.592 3.384 19.058 19.058 0 00-3.988 5.01 25.652 25.652 0 00-2.454 6.196 29.273 29.273 0 00-.893 7.002 31.35 31.35 0 00.788 7.308 37.349 37.349 0 001.794 5.696 31.076 31.076 0 003.205 6.052 21.157 21.157 0 004.572 4.939 11.46 11.46 0 006.006 2.415 5.17 5.17 0 011.948.559 5.169 5.169 0 011.586 1.262 5.006 5.006 0 011.349 3.667 4.38 4.38 0 01-1.262 3.003 4.994 4.994 0 01-2.977 1.437zM823.318 548.819a5.235 5.235 0 013.216 2.292 4.878 4.878 0 01.739 3.788c-.929 4.402-1.982 8.498-3.16 12.288a157.588 157.588 0 01-3.803 10.869 253.265 253.265 0 005.929 7.786 519.571 519.571 0 006.62 8.173 4.643 4.643 0 011.19 3.687 4.822 4.822 0 01-1.782 3.365 4.533 4.533 0 01-2.348 1.005c-.887.111-1.787 0-2.621-.323a5.295 5.295 0 01-2.234-1.635c-1.645-2.046-3.239-3.992-4.804-5.988-1.565-1.996-3.07-3.822-4.524-5.729-.995 2.323-2.119 4.586-3.224 6.758-1.104 2.173-2.229 4.396-3.403 6.639l-.398.831a4.646 4.646 0 01-3.654 2.679 5.497 5.497 0 01-3.191-.612 5.148 5.148 0 01-2.598-2.994 4.783 4.783 0 01.241-3.831l.478-.851c1.499-3.01 2.982-5.971 4.448-8.881a180.55 180.55 0 004.258-9.09c-4.977-6.788-9.517-13.604-13.621-20.447a4.857 4.857 0 01-.649-3.798 4.444 4.444 0 012.332-3.006 4.834 4.834 0 013.819-.459 5.2 5.2 0 013.176 2.462 232.832 232.832 0 004.458 7.069 369.96 369.96 0 004.777 7.118 147.49 147.49 0 002.312-7.436c.724-2.551 1.367-5.243 1.98-8.095a4.76 4.76 0 012.222-3.145 4.668 4.668 0 013.819-.489zM847.9 606.757a5.434 5.434 0 01-3.351-.632 5.004 5.004 0 01-2.287-2.564 4.724 4.724 0 01-.414-1.919 4.724 4.724 0 01.405-1.921 4.57 4.57 0 012.713-2.627 10.001 10.001 0 004.871-3.792 18.607 18.607 0 002.596-5.866c.55-2.148.833-4.355.843-6.572a47.3 47.3 0 00-.284-5.89 32.32 32.32 0 00-1.868-7.165 31.851 31.851 0 00-3.346-6.432 28.437 28.437 0 00-4.603-5.289 24.108 24.108 0 00-5.549-3.766 4.827 4.827 0 01-2.727-2.823 4.995 4.995 0 01.081-3.89 4.371 4.371 0 012.733-2.507 5.08 5.08 0 014.001.24 34.97 34.97 0 018.163 5.42 38.443 38.443 0 016.609 7.664 43.61 43.61 0 014.341 8.539 40.999 40.999 0 012.333 9.184c.112.93.225 2 .328 3.369.114 1.444.141 2.893.081 4.34a51.603 51.603 0 01-.438 5.001 33.308 33.308 0 01-1.217 5.293c-2.382 7.26-6.673 12.07-12.874 14.432a3.395 3.395 0 01-.57.151l-.57.022z" fill="#000"/><path d="M1167 676.66l15-14.51c15.36-14.83 9.49-37.91 0-57.06-13.24-26.85-36.46-57.08-52.15-71.35-15.69-14.27-35.56-24.09-56.77-25.16-310.93-15.72-555.58 46.89-676 89.09-51.8 18.15-91.49 89-40.2 172.16" stroke="#000" stroke-width="20"/><path d="M367.76 720.799S680.27 642 865.21 633.9c0 0 164.52-11.68 272.65-7.57" stroke="#000" stroke-width="20"/></g><defs><clipPath id="prefix__clip0_53_30349"><path fill="#fff" d="M0 0h1500v1500H0z"/></clipPath></defs>
      
    </g>
    </svg>