<svg
      xmlns="http://www.w3.org/2000/svg"
      preserveAspectRatio="xMidYMin meet"
      fill="none"
      viewBox="0 0 1500 1500"
    >
      <g>
      <path fill="url(#prefix__a1)" d="M0 0h1500v1500H0z"/><defs><linearGradient id="prefix__a1" x1="0" y1="0" x2="1500" y2="1500" gradientUnits="userSpaceOnUse"><stop stop-color="#57ECFF"/><stop offset="1" stop-color="#4E41EE"/></linearGradient></defs>
      <g clip-path="url(#a)"> <path fill="#F8CF47" d="M1262.8 1506.5H289.2l3.7-72.5 22.2-107.3L351 1204l56.5-72.5s33.8-23.9 98.5-52 225-35.5 225-35.5 187.3-9 340.5 50.5c153.2 59.6 191.3 412 191.3 412Z"/> <path fill="#000" fill-rule="evenodd" d="m973.8 1356.7 18 2.6 11.2-18-4-2.8 3.2-4.6-4-2.8-3 4.9-4-2.8-7 11-11.4-1.8-8.9-26.4-3.6 1 3.4 9.5-5.3 1.5-3.5-9.4-3.9 1 7.7 21.3-17.5-2.6-11.2 18 4 2.8-3 4.8 4 2.8 2.8-5 3.8 2.5 7-11.3 11.2 1.5.8 7.7-17.3 9 2 20.5h4.6l.6 6.4h4.5l-.6-6.2h4.5l-1.2-11.7 11-5.7 12 5.7 1.2 11.8h4.5l.6 6.1h4.5l-.6-6.2h4.7l-2-20.5-19.2-9.2-.6-5.4Zm-1-10 13.5 2.1 6.2-10 .5.3 4 2.8.6.2-8 12.9-16.2-2.4-.6-5.8Zm-26.3 2.1-6.2 10-4.9-3.3 8-12.8 15.5 2.3.6 5.8-13-2Zm43.8 24.9 1.4 14H986l-1-10.2-16.4-7.7-14.7 7.7 1 10.3h-6l-1.3-13.9 17.3-9-2.2-23.5-3.4-9.5 5.3-1.6 3.7 11.6 2.3 22.8 19.7 9Z" clip-rule="evenodd"/> <path stroke="#000" stroke-linecap="round" stroke-miterlimit="10" stroke-width="20" d="m807.8 1194.5 10 141.8m-41.8-16.8c0-.6.5-1.1 1-1.1m1.2 1a1 1 0 1 1-2.2 0 1 1 0 0 1 2.2 0Zm-2.2-37.1c0-.6.5-1.1 1-1.1m1.2 1a1 1 0 1 1-2.2 0 1 1 0 0 1 2.2 0Zm-2.2-37.1c0-.6.5-1 1-1m1.2 1a1 1 0 1 1-2.2 0 1 1 0 0 1 2.2 0Z"/> <path stroke="#000" stroke-linecap="round" stroke-width="20" d="M289.5 1512.5c-6-101.5 31-323 140.5-398 158.5-108.5 616.5-87 706.5 26 65 81.5 99.5 222.5 132.5 371M1084.5 1337c12.3 37 29.5 110.3 43.5 175.5m-646.5 0c.3-32.8 7.7-107.6 20.5-157"/> <path fill="#4AEEB9" d="m467.6 1110.5 7.4-39 62.5-15.5 72-5.5 53-8h147l104.5 8 107 8.1 53.6 19-3.8 40.8-21.3 55-90.7 68.1-76.5 24.3-62.8-69.8a20 20 0 0 0-31.6 2.5l-44 67.3-58.9 2.7-143.7-46.2-68.6-65.1-5.1-46.7Z"/> <path stroke="#000" stroke-width="20" d="M535 1214c-83.6-40.4-76.5-113.2-62.5-144.5 266-49.2 513.5-20.2 604 .5 21.4 119.7-113.1 181.3-188.3 198.7-3.5.9-7.2-.4-9.6-3.2l-54.1-62.5a21 21 0 0 0-32.3.6l-50 62.4c-2 2.5-5 4-8.3 3.7A610.8 610.8 0 0 1 535 1214Z"/> <path fill="#001647" fill-opacity=".2" d="M489 1227.5c-82.4 87.6-103 222.5-103 279h-97l5.5-106.5c6.7-44.8 30.2-150.7 71-215.5 40.8-64.8 83-83 99-84l9-27h22L547 1062l151-16.5h113.5c-160.4 46.4-265.5 121.3-298 153l120 56.5 103 23.5c-123.6 19.6-216.5-25.8-247.5-51Zm370.2 48.3-44.2-46.3-3-28.5 74.5 69c-.4 2.8-4.2 6-8.5 8.8-6 4-13.8 2.2-18.8-3Z"/> </g> <defs> <clipPath id="a"> <path fill="#fff" d="M0 0h1500v1500H0z"/> </clipPath> </defs>
      <g clip-path="url(#prefix__clip0_299_662)"><path d="M775 1185c231.41 0 419-168.12 419-375.5 0-207.383-187.59-375.5-419-375.5-231.407 0-419 168.117-419 375.5 0 207.38 187.593 375.5 419 375.5z" fill="#ABF"/><path d="M457.5 796c7.6 194 131.833 327.5 193 370l-130-55.5L438 1034l-57.5-89.5-27-106 11-104L394 662l45-82.5 83.5-69.5 109-54.182 28.5-1C569.452 513.314 451.119 633.132 457.5 796z" fill="#001647" fill-opacity=".2"/><path d="M775 1185c231.41 0 419-168.12 419-375.5 0-207.383-187.59-375.5-419-375.5-231.407 0-419 168.117-419 375.5 0 207.38 187.593 375.5 419 375.5z" stroke="#000" stroke-width="20"/></g><defs><clipPath id="prefix__clip0_299_662"><path fill="#fff" d="M0 0h1500v1500H0z"/></clipPath></defs>
      <g clip-path="url(#prefix__clip0_53_29315)"><path d="M764.05 841.24c31.336 0 56.74-25.404 56.74-56.74 0-31.337-25.404-56.74-56.74-56.74-31.337 0-56.74 25.403-56.74 56.74 0 31.336 25.403 56.74 56.74 56.74zM1048.19 841.24c31.34 0 56.74-25.404 56.74-56.74 0-31.337-25.4-56.74-56.74-56.74-31.34 0-56.74 25.403-56.74 56.74 0 31.336 25.4 56.74 56.74 56.74z" fill="#fff" stroke="#000" stroke-width="20" stroke-miterlimit="10"/><path d="M787.05 797.5c7.18 0 13-5.82 13-13s-5.82-13-13-13-13 5.82-13 13 5.82 13 13 13zM1071.19 797.5c7.18 0 13-5.82 13-13s-5.82-13-13-13-13 5.82-13 13 5.82 13 13 13z" fill="#000"/><path d="M1000.1 1063.55H831.28a5.495 5.495 0 01-5.5-5.5 89.318 89.318 0 0189.32-89.319h1.18a89.316 89.316 0 0163.158 26.161 89.312 89.312 0 0126.162 63.158c0 1.46-.58 2.86-1.61 3.89a5.503 5.503 0 01-3.89 1.61z" fill="#fff" stroke="#000" stroke-width="20" stroke-miterlimit="10"/></g><defs><clipPath id="prefix__clip0_53_29315"><path fill="#fff" d="M0 0h1500v1500H0z"/></clipPath></defs>
      <g clip-path="url(#prefix__clip0_53_27310)"><path opacity=".5" d="M650.33 766.53s-2.59-63.6 77.41-64.6c80-1 105.45 2.24 105.45 2.24l29.55 17.76 13 59.31s1 26 0 31.36c-1 5.36-25.33 41.83-25.33 41.83s-41.37 47.5-90.52 42-92.15-45.5-92.15-45.5-21-51.25-21.51-51.62c-.51-.37 4.1-32.78 4.1-32.78zM971.33 725.75s24.62-35.82 106.52-28.32c81.9 7.5 88.3 28.32 88.3 28.32s3.59-3.82 6.59 23.18 6 40 6 40-3 17-4 21-2.41 19-5.21 24-9 15.59-11.4 18.29c-2.4 2.7-11.94 13.84-20.67 20.77-8.73 6.93-28.37 15.28-30 16.61-1.63 1.33-10 8.21-17.32 7.26-7.32-.95-16.4 1.13-32.4.07-16-1.06-56.74-16.431-58.738-20.431-2-4-19-8.5-24-24.5s-7.902-19.909-9.582-23.489c-1.68-3.58-8.68-9.82-8.68-26.2s5-29.38 6-35.38c1-6 8.59-41.18 8.59-41.18z" fill="#FF6247"/><path d="M681.5 720.5S687 709.23 739 703l97 169.89s-18 18.68-56.07 18.1L681.5 720.5zM756.58 700.12s-4.78 3.73 13-7.12L856 850.55s5.57 6.48-9 9.45l-90.42-159.88zM991.001 719.382s-1-21.754 50.999-28.382l97 180.731s-18 19.872-56.07 19.255l-91.929-171.604zM1059.58 700.12s-4.78 3.73 13.05-7.12L1159 850.55s5.57 6.48-9 9.45l-90.42-159.88z" fill="#fff" fill-opacity=".3"/><path d="M722.89 697.43h79.71a72.65 72.65 0 0172.65 72.65v13.85a112.499 112.499 0 01-112.5 112.5 112.499 112.499 0 01-112.5-112.5v-13.86a72.653 72.653 0 0172.64-72.64v0zM1028.89 697.43h79.71c19.27 0 37.75 7.654 51.37 21.278a72.63 72.63 0 0121.28 51.372v13.85a112.5 112.5 0 11-225 0v-13.86a72.653 72.653 0 0172.64-72.64zM874.6 792.43a68.918 68.918 0 0181.64 0M866 736h97M650.24 755.43l-266.5-60.5" stroke="#000" stroke-width="20" stroke-miterlimit="10"/></g><defs><clipPath id="prefix__clip0_53_27310"><path fill="#fff" d="M0 0h1500v1500H0z"/></clipPath></defs>
      <g clip-path="url(#prefix__clip0_53_25676)"><path d="M223.27 595.001l52 78.75 90.11 65.25 204.81-96.83L768 602.841l157 1.29 223.59 29.64 74.77-102.77 37.71-90-9.46-40.31-135.5-18.88-83.5-56.12-81.201-105.94-56.649-44.66h-31.601l-35.849 61.76-24.43 25.66-43.69-69.51-17.91-21.63-49 11.79-80 56.54-67 90.65-64.671 104.42L354 521.371l-113 43.03-17.73 30.6z" fill="#3A3A3A"/><path d="M227.5 604.131s193.109-43.36 287.609-152.86c30.881-35.78 53.001-71.48 65.091-96.11 22.82-46.64 45-77.54 86.83-108.37 13.87-10.24 28.76-19.54 44-26.39a11.319 11.319 0 0114.769 5.17l29.941 51c21.5 36.64 74.25 37.3 96.65 1.2l28.26-45.53a11.38 11.38 0 013.24-3.76 11.523 11.523 0 014.54-2 11.374 11.374 0 015 .13 11.167 11.167 0 014.429 2.23c18.92 15.57 58 49.89 77.25 82.41 32.001 54 71.001 78 71.001 78s72.91 60.63 215 51.82l-4.87-29.29-21.11-13.39-94.6-9.93-66-30.13-52.53-56.88-55.281-69.58-71.92-56.7H863.2l-35.851 61.76-24.43 25.66-25.769-23.32-35.83-67.9-49 11.79-80 56.54-66.94 90.65-61.38 92.42-64.38 55-52.24 32-107.6 46-38.26 17.69 5.98 30.67z" fill="#FFBF44"/><path d="M624.5 304.499c-11 87.5-55 118-93.5 189.5-20.159 37.439-18.428 76.917-7.847 111.5 28.282-12.833 116.247-44.1 237.847-56.5 121.6-12.4 238.333.333 283 7.5l101 18.5 42.5 16-37 39c-73.83-14.167-249.4-40.2-361-31-111.6 9.2-209.5 40.834-244.5 55.5-40.4 12.401-136.833 62.834-180 86.5l-32-14.5-81.5-83-31-66.5 18.5-14.5c35.833-13.5 126.1-51.7 200.5-96.5s105.333-118.667 111.5-150c14.5-21 55.7-72.8 104.5-112s76.667-35.333 84.5-28.5c-34.833 13.834-106.7 59-115.5 129z" fill="#000" fill-opacity=".2"/><path d="M318 710.746c21.114 15.683 43.66 31.024 43.66 31.024s293.45-229.5 786.95-108c0 0 21.97-27.016 35.39-43.77M318 710.746c-33.102-24.589-72.889-60.224-94.9-117.056a23.814 23.814 0 016.9-26.77 23.605 23.605 0 018.6-4.61c62.24-18.2 231.89-78.84 297.46-214 62.22-128.23 151.55-166.86 189.64-177.89a23.209 23.209 0 0126.79 11.1l40.82 74.25a13.472 13.472 0 0018.663 5.107 13.47 13.47 0 004.947-5.107l40.69-73.9a23.192 23.192 0 0128.93-10.34c26.61 10.64 77.58 42.84 142.42 140.24 53.11 79.78 150.38 88 200.85 86.32 18.8-.62 33.8 15.91 30.9 34.45-10.4 67.474-47.06 120.427-76.71 157.46M318 710.746c58.838-47.375 242.864-154.787 480.258-165.436C1035.65 534.662 1144.06 573 1184 590" stroke="#000" stroke-width="20" stroke-miterlimit="10"/><path d="M782.577 430.606c1.081 2.502 2.197 5.091 2.941 7.698.304 1.061 1.996 8.79 2.92 13.037.19.811.601 1.546 1.183 2.113a3.96 3.96 0 002.088 1.079l5.458.853c.396.069.768.249 1.075.522.308.272.541.626.675 1.026l1.24 3.799c.54 1.653 2.079 2.838 3.671 2.838l41.379-.026c1.564 0 2.752-1.153 2.858-2.768l.252-3.913c.027-.367.172-.713.412-.98.241-.267.561-.438.906-.485l6.355-.997c1.527-.241 2.523-1.605 2.383-3.275-.37-4.367-1.033-12.323-1.033-13.412-.023-2.572.336-5.116.679-7.589.484-3.463.986-7.037.459-10.753-3.358-23.721-23.943-43.019-45.892-43.019s-37.075 19.315-33.718 43.054c.549 3.886 2.155 7.598 3.709 11.198zm42.557-2.183c-.701-6.742 4.782-8.437 11.201-8.17 6.419.266 11.343 2.401 12.044 9.135.7 6.733-3.927 11.99-10.354 11.724s-12.19-5.954-12.891-12.696v.007zm-1.883 13.228l5.057 6.48c.218.26.369.574.442.913.072.338.062.69-.028 1.024l-.414 1.299c-.107.328-.311.61-.582.807a1.48 1.48 0 01-.922.284h-7.095a2.107 2.107 0 01-1.037-.304 2.253 2.253 0 01-.777-.787l-.779-1.299a2.04 2.04 0 01-.141-1.937l3.226-6.48c.564-1.15 2.158-1.15 3.05-.006v.006zm-22-21.396c6.342-.266 12.304 1.428 13.509 8.17s-2.959 12.423-9.3 12.689c-6.34.266-12.463-4.982-13.668-11.724s3.114-8.877 9.459-9.152v.017zM863.615 370.15c.041-3.221-1.37-6.637-4.08-9.118-4.339-3.98-10.539-4.052-13.846-.157-3.467 4.074-2.566 10.84 1.947 14.991l-3.071 3.814c-1.227 1.528-.878 3.993.781 5.519l7.078 6.506c1.654 1.529 3.997 1.529 5.225 0l3.071-3.814c4.515 4.148 10.909 4.089 14.162-.181 3.104-4.085 2.112-10.613-2.228-14.613-2.687-2.491-6.065-3.471-9.039-2.947zM768.058 387.891l4.16 3.814c1.653 1.529 3.997 1.529 5.224 0l5.239-6.508c1.228-1.528.878-3.993-.781-5.519l-4.15-3.815c3.342-4.148 2.329-10.916-2.29-14.988-4.416-3.895-10.585-3.823-13.808.157-2.007 2.481-2.454 5.895-1.501 9.118-3.122-.524-6.218.456-8.212 2.947-3.204 4-2.35 10.528 1.915 14.613 4.45 4.27 10.862 4.329 14.204.181zM885.187 460.626c-4.46-4.27-10.872-4.329-14.214-.181l-4.15-3.814c-1.653-1.529-3.996-1.529-5.222 0l-5.239 6.508c-1.227 1.528-.878 3.995.779 5.519l4.15 3.806c-3.342 4.148-2.327 10.916 2.29 14.988 4.416 3.895 10.585 3.823 13.811-.157 2.006-2.48 2.451-5.895 1.5-9.118 3.123.524 6.218-.456 8.213-2.947 3.201-4 2.347-10.528-1.918-14.604zM775.41 478.178c-.039 3.221 1.373 6.637 4.08 9.118 4.34 3.98 10.539 4.052 13.846.157 3.466-4.074 2.567-10.84-1.949-14.988l3.071-3.815c1.228-1.528.878-3.995-.779-5.519l-7.08-6.508c-1.653-1.529-3.997-1.529-5.224 0l-3.071 3.814c-4.514-4.148-10.91-4.089-14.163.181-3.11 4.085-2.118 10.611 2.216 14.613 2.707 2.491 6.08 3.471 9.053 2.947z" fill="#fff"/></g><defs><clipPath id="prefix__clip0_53_25676"><path fill="#fff" d="M0 0h1500v1500H0z"/></clipPath></defs>
      
    </g>
    </svg>