<svg
      xmlns="http://www.w3.org/2000/svg"
      preserveAspectRatio="xMidYMin meet"
      fill="none"
      viewBox="0 0 1500 1500"
    >
      <g>
      <path fill="url(#prefix__paint0_linear_53_30462)" d="M0 0h1500v1500H0z"/><defs><linearGradient id="prefix__paint0_linear_53_30462" x1="0" y1="0" x2="1500" y2="1500" gradientUnits="userSpaceOnUse"><stop stop-color="#FFC4F6"/><stop offset="1" stop-color="#FF3DB1"/></linearGradient></defs>
      <g clip-path="url(#a)"> <path fill="#000" d="M511.7 1369.3c-9.4 43-15.8 86.7-19 130.6h-20v-.7c3.2-45.2 9.7-90.2 19.5-134.5a10 10 0 0 1 19.5 4.6ZM1132 1500h-20.2c-2.8-14-20.2-98.8-36.6-147.6a10 10 0 0 1 2.7-10.9 10.1 10.1 0 0 1 7.4-2.4 9.8 9.8 0 0 1 6.9 3.5 10 10 0 0 1 1.9 3.5c18.3 54.2 37 148 37.7 151.9l.2 2Z"/> <path fill="#fff" d="M1263 1504H289.3l3.8-70.5 22.1-107.4 14.3-62.1 31.5-61 41.5-71s41.3-28.9 106-57 255-32.5 255-32.5 155.8-7 309 52.5c153.2 59.6 190.5 409 190.5 409Z"/> <path fill="#ABF" d="m739.5 1500-19.9-143v-146l39.9-169 83.5 6.5 40 108 9.3 28.5 23.4 117.7L922 1500H739.5Z"/> <path stroke="#000" stroke-width="20" d="M741 1514c-20.8-79.3-46.8-283.4 16-465m165 465c7-105.5 5.7-294.2-83.5-465"/> <path fill="#000" d="M659.1 1339a17.4 17.4 0 0 1-10.4 14.6l-43.4 18.7a10.2 10.2 0 0 0-5.7 12.4l35.8 115.3h-21l-34-109.3a30.1 30.1 0 0 1 17-36.8l38.8-16.7-60.5-37.8a32.7 32.7 0 0 1-8.4-48.2L743.5 1039l7.8 6.2 7.9 6.3L583 1263.7a12.8 12.8 0 0 0 3.3 18.8l64.7 40.4a17.4 17.4 0 0 1 8.1 16Zm404.5 23.3L1042 1500h-20.3l22.2-140.8a10.2 10.2 0 0 0-7.4-11.4l-45.7-12.2a17.4 17.4 0 0 1-6.7-30.1l58.2-49.3a12.8 12.8 0 0 0 .5-19l-195.6-183.4 6.8-7.3 6.9-7.3 195.6 183.3a32.6 32.6 0 0 1 7 38c-1.9 4.3-4.8 8-8.3 11l-54.4 46 40.9 11a30 30 0 0 1 22 33.8Z"/> <path fill="#001647" fill-opacity=".2" d="M500 1213.5c-101.2 100-117.8 249-113.5 311l-99.5-13c-1.6-110.8 39-247.5 59.5-302L386 1157l15.5-20.5L468 1094c149.6-59.6 294-54.8 347.5-45-63 13.2-214.3 64.5-315.5 164.5Z"/> <path fill="#001647" fill-opacity=".2" d="M559 1297c-18-16.4-1.5-37.2 9.5-45l-3 16.5 13.5 11 68.5 60-13.5 9.5c-27.5-12-52.5-31.5-75-52Zm6.5 97c-4-22.8 19.7-35.5 32-39l-4 14v25l30 111.5h-20c-11-27.7-34-88.7-38-111.5Zm328-82.5c-19-119-56.5-216-80-270h24l37 86 39 152 10 156.5v75.5l-23 13c4.5-36.7 7.8-120.6-7-213Z"/> <path stroke="#000" stroke-linecap="round" stroke-width="20" d="M289.5 1512.5c-6-101.5 31-323 140.5-398 158.5-108.5 616.5-87 706.5 26 65 81.5 99.5 222.5 132.5 371M1084.5 1337c12.3 37 29.5 110.3 43.5 175.5m-646.5 0c.3-32.8 7.7-107.6 20.5-157"/> </g> <defs> <clipPath id="a"> <path fill="#fff" d="M0 0h1500v1500H0z"/> </clipPath> </defs>
      <g clip-path="url(#prefix__clip0_299_662)"><path d="M775 1185c231.41 0 419-168.12 419-375.5 0-207.383-187.59-375.5-419-375.5-231.407 0-419 168.117-419 375.5 0 207.38 187.593 375.5 419 375.5z" fill="#ABF"/><path d="M457.5 796c7.6 194 131.833 327.5 193 370l-130-55.5L438 1034l-57.5-89.5-27-106 11-104L394 662l45-82.5 83.5-69.5 109-54.182 28.5-1C569.452 513.314 451.119 633.132 457.5 796z" fill="#001647" fill-opacity=".2"/><path d="M775 1185c231.41 0 419-168.12 419-375.5 0-207.383-187.59-375.5-419-375.5-231.407 0-419 168.117-419 375.5 0 207.38 187.593 375.5 419 375.5z" stroke="#000" stroke-width="20"/></g><defs><clipPath id="prefix__clip0_299_662"><path fill="#fff" d="M0 0h1500v1500H0z"/></clipPath></defs>
      <g clip-path="url(#prefix__clip0_53_29421)"><path d="M914.5 1067.2a53.704 53.704 0 0049.612-33.15 53.7 53.7 0 00-39.136-73.217 53.701 53.701 0 00-55.126 22.834 53.696 53.696 0 00-4.962 50.383 53.569 53.569 0 0011.64 17.42 53.673 53.673 0 0017.422 11.64 53.676 53.676 0 0020.55 4.09z" fill="#fff" stroke="#000" stroke-width="20" stroke-miterlimit="10" stroke-linecap="round"/><path d="M764.05 841.24c31.336 0 56.74-25.404 56.74-56.74 0-31.337-25.404-56.74-56.74-56.74-31.337 0-56.74 25.403-56.74 56.74 0 31.336 25.403 56.74 56.74 56.74zM1048.19 841.24c31.34 0 56.74-25.404 56.74-56.74 0-31.337-25.4-56.74-56.74-56.74-31.34 0-56.74 25.403-56.74 56.74 0 31.336 25.4 56.74 56.74 56.74z" fill="#fff" stroke="#000" stroke-width="20" stroke-miterlimit="10"/><path d="M764.05 797.5c7.18 0 13-5.82 13-13s-5.82-13-13-13-13 5.82-13 13 5.82 13 13 13zM1048.19 797.5c7.18 0 13-5.82 13-13s-5.82-13-13-13-13 5.82-13 13 5.82 13 13 13z" fill="#000"/></g><defs><clipPath id="prefix__clip0_53_29421"><path fill="#fff" d="M0 0h1500v1500H0z"/></clipPath></defs>
      <g clip-path="url(#prefix__clip0_53_27079)"><path opacity=".4" d="M770.85 897.86a109.421 109.421 0 0021.346-216.738A109.42 109.42 0 10770.85 897.86zM1066.56 897.86a109.414 109.414 0 00101.09-67.547 109.453 109.453 0 006.23-63.22 109.43 109.43 0 00-85.97-85.971 109.411 109.411 0 00-63.22 6.227 109.391 109.391 0 00-49.11 40.3 109.42 109.42 0 0090.98 170.211z" fill="#fff"/><path d="M1145.89 765c5.43-3.83 2.77-16.94-5.94-29.29-8.71-12.35-20.17-19.25-25.6-15.42s-2.77 16.94 5.94 29.29c8.71 12.35 20.17 19.2 25.6 15.42zM848.18 764.999c5.43-3.83 2.77-16.94-5.94-29.29-8.71-12.35-20.17-19.26-25.6-15.43-5.43 3.83-2.77 17 5.94 29.3s20.17 19.21 25.6 15.42z" fill="#fff"/><path d="M1066.27 897.86a109.414 109.414 0 00101.09-67.547 109.453 109.453 0 006.23-63.22 109.43 109.43 0 00-85.97-85.971 109.411 109.411 0 00-63.22 6.227 109.391 109.391 0 00-49.11 40.3 109.42 109.42 0 0090.98 170.211zM770.85 897.86a109.421 109.421 0 0021.346-216.738A109.42 109.42 0 10770.85 897.86v0zM658.002 782.498L377.65 692.6M880.27 788.439h76.579" stroke="#000" stroke-width="20" stroke-miterlimit="10"/></g><defs><clipPath id="prefix__clip0_53_27079"><path fill="#fff" d="M0 0h1500v1500H0z"/></clipPath></defs>
      <g clip-path="url(#prefix__clip0_53_25042)"><path d="M358.07 724.24c-2.91 11.13-5.22 22.96-6.67 31.13a4.35 4.35 0 01-8.1 1.33 49.392 49.392 0 01-3.34-7.37c-3.4-9.62-6.2-21.84-8.84-26.76-2.64-4.92-1.51-14.46 0-22.09a151.869 151.869 0 002.43-18.36c.06-2.04-1.18-14.28 0-17.9.99-3.01 6.16-15.64 7.88-19.83a4.33 4.33 0 011.84-2.1l18.379-9.79 16.352-50.5 69-94.5 63-51.5c34.167-22.001 133.5-66.702 257.5-69.502 124-2.8 229.667 68.167 266.999 104l41.29 42.442c15.8 1.5 23.79 6.45 29.57 10.19 5.78 3.74 26.14 7.88 33.18 15.1 7.04 7.22 33.98 37.24 34.6 38.17.62.93 16.76 36.51 19.47 42.51.26.561.39 1.172.39 1.79v28.52c0 1.043-.38 2.05-1.06 2.84l-13.59 15.75c-.47.553-1.08.979-1.76 1.237a4.32 4.32 0 01-4.12-.569 4.35 4.35 0 01-1.36-1.668 339.426 339.426 0 00-21.14-38.48 16.32 16.32 0 00-5.9-5.549 16.263 16.263 0 00-7.84-2.021h-14.49L1002.8 627l-209.23 16.57h-.39l-277.24 47.09h-.23l-115.08 25.85a4.241 4.241 0 01-2.31-.11l-14.27-4.69a4.294 4.294 0 00-2.33-.11l-13.84 3.16a13.134 13.134 0 00-9.81 9.48z" fill="#FF6247"/><path d="M546.5 566.498c-3.2 4-8.333 83.333-10.5 122.5l-103 18c-12.5 2-41.3 6.9-56.5 10.5-15.2 3.6-22.667 26.833-24.5 38l-22.5-66.5 24-51c8-35.666 46.9-123.899 138.5-191.499s191.833-74.167 230.5-69c-88.8 56.8-145.667 132.667-163 163.5 148.8-49.6 387-55.667 487.5-52.5l18.5 20.499c-13.5.5-41.7 1.2-46.5 0-4.8-1.2-166 8.833-246 14-74.167 12.833-223.3 39.5-226.5 43.5z" fill="#001647" fill-opacity=".2"/><path d="M1167 681.262l15-14.51a49.208 49.208 0 0014.3-26.901 49.211 49.211 0 00-4.3-30.159c-13.24-26.85-46.46-57.08-62.15-71.35-15.69-14.27-35.56-24.08-56.77-25.16-310.93-15.72-565.58 56.9-686 99.09-51.8 18.15-81.49 79-30.2 162.16" stroke="#000" stroke-width="20"/><path d="M361.58 627.678s53.84-186.8 241.47-235.29c187.63-48.49 327.34-27.08 476.25 119.61M367.76 725.401s312.51-78.77 497.45-86.9c0 0 164.52-11.68 272.65-7.57M994.41 512s62.27 71.5 82.83 118M433.65 600.449s-24.72 70.15-15.18 119.17M542.64 569.789s-15.23 78-3.89 120.53M643.55 550c12.26 57.53 10.25 57.46 22 117.12M748.51 529.758s31.14 50 55 116.5M872.32 514.391s41.57 54.35 68.2 120.72" stroke="#000" stroke-width="20"/></g><defs><clipPath id="prefix__clip0_53_25042"><path fill="#fff" d="M0 0h1500v1500H0z"/></clipPath></defs>
      
    </g>
    </svg>