<svg
      xmlns="http://www.w3.org/2000/svg"
      preserveAspectRatio="xMidYMin meet"
      fill="none"
      viewBox="0 0 1500 1500"
    >
      <g>
      <path fill="url(#prefix__paint0_linear_53_30463)" d="M0 0h1500v1500H0z"/><defs><linearGradient id="prefix__paint0_linear_53_30463" x1="1500" y1="1500" x2="0" y2="0" gradientUnits="userSpaceOnUse"><stop stop-color="#FF5A5A"/><stop offset="1" stop-color="#FFBDBD"/></linearGradient></defs>
      <g clip-path="url(#prefix__clip0_53_28027)"><path d="M1263.01 1499.96H289.359l3.73-66.49 19.17-110.35 44.75-122.16 57.62-74.7s8.91-6.18 25.4-15.74l.69-.4c2.23-1.28 4.59-2.63 7.08-4 5.32-3 11.25-6.21 17.74-9.61 8.63-4.53 18.26-9.36 28.83-14.36a846.463 846.463 0 0123.12-10.48C582.179 1043.54 729.5 1044 729.5 1044s172.289-4.59 321.76 45.2l2.09.7.4.14c6.27 2.12 12.47 4.37 18.62 6.75l.8.31c153.18 59.64 189.84 402.86 189.84 402.86z" fill="#fff"/><path d="M1122.49 1500.15H481.749v-.15l14.26-99.61 5.49-43.36 5.83-46.12.08-.62s0-.35-.05-1c-.34-6.9-2.63-47.85-11.23-88.85-5.76-27.45-21.34-61.93-34-79.23a64.05 64.05 0 01-7.18-5.52c-4.61-4.06-10-10-11.26-16.21-.141-.66-.231-1.33-.27-2-.25-3.92 1.24-7.92 5.6-11.65 3-2.6 7.42-5.06 13.57-7.29 13.54-4.91 34.74-21.75 49.37-14.95 16.54-.44 17.92-6.23 17.92-6.23s51.48-42.92 103.31-21.86c9.67 3.93 132.501-14.64 143.811-11 43.185 13.79 85.69 9.59 131 11 0 0 7 13.96 52.02 6.72h.1c2.2-.35 4.22-.69 6-1l1.71-1 20.17 1.28 50.37 24.43 10.37-.86c4.11.15 15.08 6.54 18.38 9 3.77 2.73.59 16.3 2.92 24a58.808 58.808 0 012.29 16.68c.34 34.95-5.11 82.86-5.51 86.42v.76l3.43 56.54v.27l14 60.42 12.76 55 25.34 105.67.14.32z" fill="#3A3A3A"/><path d="M931.729 1453.59l-250.3 15.73-6.24 30.61 272.54.12-16-46.46z" fill="#3A3A3A"/><path d="M978.109 1248.18c.567 1.23 1.153 2.51 1.543 3.79.16.53 1.048 4.34 1.533 6.43.1.4.316.77.621 1.05.306.28.687.46 1.097.53l2.865.42c.208.03.403.12.565.26.161.13.284.31.354.5l.651 1.88c.283.81 1.091 1.4 1.927 1.4l21.725-.02c.82 0 1.44-.57 1.5-1.36l.13-1.93c.01-.18.09-.35.22-.49.12-.13.29-.21.47-.23l3.34-.5c.8-.12 1.32-.79 1.25-1.61-.19-2.16-.54-6.08-.54-6.62-.01-1.27.17-2.52.35-3.74.26-1.71.52-3.47.24-5.3-1.76-11.7-12.56-21.22-24.088-21.22-11.522 0-19.463 9.52-17.701 21.23.289 1.92 1.132 3.75 1.948 5.53zm22.341-1.08c-.37-3.33 2.51-4.16 5.88-4.03 3.37.13 5.96 1.18 6.32 4.51.37 3.32-2.06 5.91-5.43 5.78-3.38-.13-6.4-2.94-6.77-6.26zm-.988 6.52l2.658 3.2c.11.13.19.28.23.45.04.17.03.34-.02.51l-.21.64c-.06.16-.17.3-.31.39-.14.1-.31.15-.48.14h-3.728a1.05 1.05 0 01-.544-.15 1.095 1.095 0 01-.408-.38l-.409-.64a.955.955 0 01-.074-.96l1.693-3.2c.297-.56 1.133-.56 1.602 0zm-11.55-10.55c3.329-.13 6.459.71 7.092 4.03.632 3.33-1.554 6.13-4.882 6.26-3.329.13-6.543-2.46-7.176-5.78-.632-3.33 1.635-4.38 4.966-4.52v.01zM1020.65 1218.36c.02-1.59-.72-3.27-2.14-4.5-2.28-1.96-5.53-2-7.27-.08-1.82 2.01-1.35 5.35 1.02 7.4l-1.61 1.88c-.64.75-.46 1.97.41 2.72l3.72 3.21c.87.75 2.1.75 2.74 0l1.61-1.88c2.37 2.05 5.73 2.02 7.44-.09 1.63-2.01 1.11-5.23-1.17-7.21-1.41-1.23-3.19-1.71-4.75-1.45zM970.488 1227.11l2.184 1.88c.868.75 2.098.75 2.742 0l2.75-3.21c.645-.75.462-1.97-.41-2.72l-2.178-1.88c1.754-2.05 1.223-5.39-1.202-7.4-2.319-1.92-5.557-1.88-7.249.08-1.054 1.23-1.288 2.91-.788 4.5-1.639-.26-3.265.22-4.311 1.45-1.682 1.98-1.234 5.2 1.005 7.21 2.336 2.11 5.702 2.14 7.457.09zM1031.98 1262.98c-2.35-2.1-5.71-2.13-7.47-.09l-2.17-1.88c-.87-.75-2.1-.75-2.75 0l-2.75 3.21c-.64.76-.46 1.97.41 2.73l2.18 1.87c-1.75 2.05-1.22 5.39 1.2 7.4 2.32 1.92 5.56 1.88 7.25-.08 1.06-1.22 1.29-2.91.79-4.5 1.64.26 3.27-.22 4.31-1.45 1.68-1.98 1.24-5.2-1-7.21zM974.348 1271.64c-.021 1.59.72 3.28 2.141 4.5 2.279 1.96 5.533 2 7.269.08 1.82-2.01 1.348-5.35-1.023-7.4l1.612-1.88c.645-.75.461-1.97-.409-2.72l-3.716-3.21c-.868-.75-2.099-.75-2.743 0l-1.612 1.88c-2.37-2.05-5.727-2.02-7.435.09-1.633 2.02-1.112 5.23 1.163 7.21 1.421 1.23 3.192 1.71 4.753 1.45z" fill="#fff"/><path d="M921.73 1406.5l-250.3 15.72v48.46l260.3-16.36-10-47.82z" fill="#FF6247"/><path d="M911.73 1357.94l-233.3 14.66v48.45l243.3-15.28-10-47.83z" fill="#3A3A3A"/><path d="M913.73 1309.82l-242.3 15.22v48.46l242.3-15.23v-48.45z" fill="#FF6247"/><path d="M921.73 1260.4l-256.3 16.1 8 47.96 241.3-15.16 7-48.9z" fill="#3A3A3A"/><path d="M931.73 1211.32l-276.3 17.8 12 47.7 254.3-16.42 10-49.08z" fill="#FF6247"/><path d="M654.5 1228.73l-20.35-61.3 38.49 11.35L750 1191.1l64.93-4.18 53.32-8.14 76.6-19.51-20.64 52.52-269.71 16.94z" fill="#3A3A3A"/><path d="M511.761 1366.3c0 .32 0 .66-.05 1-.22 2.89-14 61.77-19 132.69h-20v-.69a924.796 924.796 0 0119.51-134.6c.57-2.4 2.01-4.51 4.04-5.92a10.042 10.042 0 017.96-1.51c1.105.24 2.181.61 3.21 1.08 3 1.4 4.44 3.71 4.33 7.95zM1132.01 1499.96h-20.2c-.55-2.72-1.65-8.14-3.2-15.47-.06-.29-.13-.59-.19-.89-2.91-13.76-7.3-33.87-12.44-55.38 0-.18-.09-.36-.13-.54-6.23-26-13.56-54-20.69-75.23a9.836 9.836 0 01-.1-6 9.963 9.963 0 012.34-4.07c1.1-1.14 2.45-2.01 3.95-2.53h.1l.39-.11c2.47-.72 5.13-.46 7.42.73 2.29 1.2 4.02 3.23 4.85 5.67 18.25 54.24 36.92 148 37.71 151.94.12.62.18 1.25.19 1.88z" fill="#000"/><path d="M1084.46 1348.82C1051.7 1240.08 1076 1102 1076 1102" stroke="#000" stroke-width="20" stroke-miterlimit="10" stroke-linecap="round"/><path d="M933.472 1507.03c1.675 5.27 7.299 8.17 12.562 6.5 5.263-1.68 8.17-7.3 6.495-12.56l-19.057 6.06zm19.057-6.06c-11.368-35.71-21.558-115.89-20.705-201.85.856-86.15 12.813-175.35 43.877-230.19l-17.402-9.86c-33.737 59.56-45.613 153.2-46.474 239.86-.862 86.86 9.347 169.47 21.647 208.1l19.057-6.06z" fill="#000"/><path d="M443.891 1118.21s87.82 94.18 57 252.68M669 1508.5c10.333-52.57 22.9-180.97-9.5-274s-116.167-142.43-148-157" stroke="#000" stroke-width="20" stroke-miterlimit="10" stroke-linecap="round"/><path d="M289.5 1512.5c-6-101.5 31-323.03 140.5-398 158.5-108.51 616.5-87 706.5 26 64.91 81.5 99.5 222.5 132.5 371" stroke="#000" stroke-width="20" stroke-linecap="round"/><path d="M500.002 1213.5c-101.2 100-117.834 249-113.5 311l-99.502-13c-1.6-110.8 39-247.5 59.5-302l39.501-52.5 15.5-20.5 66.5-42.5c149.6-59.6 294-54.83 347.5-45-63 13.17-214.299 64.5-315.499 164.5zM890.5 1321c-5.307-145.23 33.5-233.5 54-259.5h24l-24 50-18.5 111-4.5 137 16 137.5-2 93.5c-13.167-29.33-39-105.3-45-269.5z" fill="#001647" fill-opacity=".2"/></g><defs><clipPath id="prefix__clip0_53_28027"><path fill="#fff" d="M0 0h1500v1500H0z"/></clipPath></defs>
      <g clip-path="url(#prefix__clip0_299_662)"><path d="M775 1185c231.41 0 419-168.12 419-375.5 0-207.383-187.59-375.5-419-375.5-231.407 0-419 168.117-419 375.5 0 207.38 187.593 375.5 419 375.5z" fill="#ABF"/><path d="M457.5 796c7.6 194 131.833 327.5 193 370l-130-55.5L438 1034l-57.5-89.5-27-106 11-104L394 662l45-82.5 83.5-69.5 109-54.182 28.5-1C569.452 513.314 451.119 633.132 457.5 796z" fill="#001647" fill-opacity=".2"/><path d="M775 1185c231.41 0 419-168.12 419-375.5 0-207.383-187.59-375.5-419-375.5-231.407 0-419 168.117-419 375.5 0 207.38 187.593 375.5 419 375.5z" stroke="#000" stroke-width="20"/></g><defs><clipPath id="prefix__clip0_299_662"><path fill="#fff" d="M0 0h1500v1500H0z"/></clipPath></defs>
      <g clip-path="url(#prefix__clip0_53_29082)" stroke="#000" stroke-width="20" stroke-linecap="round"><path d="M844.63 1012.87h141.62M827.45 803.95l-27.11-16.78-29.02-17.97-36.82-22.79"/><path d="M802.81 799.069a29.91 29.91 0 11-31.49-29.87l29 18a29.701 29.701 0 012.49 11.87z" fill="#000"/><path d="M1067.45 746.41l-36.82 22.79-29.02 17.97-27.11 16.78"/><path d="M999.14 799.069c0 5.848 1.71 11.568 4.93 16.452a29.947 29.947 0 0013.17 11.027 29.898 29.898 0 0017.06 1.964 29.883 29.883 0 0015.33-7.744 29.875 29.875 0 007.48-32.043 29.859 29.859 0 00-10.31-13.732 29.918 29.918 0 00-16.17-5.794l-29 18a29.701 29.701 0 00-2.49 11.87z" fill="#000"/></g><defs><clipPath id="prefix__clip0_53_29082"><path fill="#fff" d="M0 0h1500v1500H0z"/></clipPath></defs>
      <g clip-path="url(#prefix__clip0_53_26967)"><path d="M732.51 716.382a.135.135 0 00.059.011.129.129 0 00.057-.019.113.113 0 00.04-.044.108.108 0 00.014-.058c-.06-3.15 0-44.08 43-42 0 0 36.07 2.11 40.57 41.22a.12.12 0 00.17.1c2.54-1.13 38.11-16.18 57.7 13.29 19.59 29.47-10.28 56.51-12.25 58.22a.13.13 0 000 .18c2 1.86 33.67 28.35 16.711 57.94-16.96 29.59-54 16.2-56.56 15a.111.111 0 00-.161.09c-.42 2.79-6.86 41.59-40.73 43-33.87 1.41-44.86-36.09-45.57-38.67a.111.111 0 00-.022-.045.117.117 0 00-.04-.03.141.141 0 00-.049-.009.112.112 0 00-.048.014c-2.36 1.15-36.651 17.15-57.701-14.5-21.05-31.65 7.131-55.44 9.141-57.07a.116.116 0 00.034-.039.113.113 0 00-.034-.141c-2.05-1.74-31.9-28-11-61.24 19.98-31.71 53.949-16.48 56.669-15.2zM1031.34 715.128c.02.011.04.018.06.018.02.001.04-.005.06-.015.01-.01.03-.026.04-.044a.117.117 0 00.01-.059c0-3.16 1.3-44.07 44.21-40.72 0 0 36 3.16 39.35 42.39 0 .018.01.036.02.051s.02.028.04.038c.01.01.03.016.05.018.01.002.03-.001.05-.007 2.58-1 38.57-15.06 57.3 15 18.73 30.06-11.93 56.18-14 57.84a.29.29 0 00-.03.041c-.01.015-.01.032-.01.049s0 .034.01.05c.01.015.02.029.03.04 1.92 1.91 32.83 29.31 15 58.41-17.83 29.1-54.44 14.61-57 13.32-.02-.01-.03-.016-.05-.018a.14.14 0 00-.06.01c-.01.008-.03.021-.04.036a.098.098 0 00-.02.052c-.5 2.78-8.07 41.37-42 41.82-33.93.45-43.78-37.39-44.42-40 0-.016-.01-.031-.02-.044-.01-.013-.03-.024-.04-.032-.02-.007-.03-.011-.05-.012a.125.125 0 00-.05.008c-2.39 1.09-37.13 16.08-57.25-16.17-20.12-32.25 8.75-55.21 10.8-56.78a.107.107 0 00.046-.09.116.116 0 00-.012-.051.116.116 0 00-.034-.039c-2-1.8-31.07-28.87-9.18-61.53 21-31.16 54.51-14.94 57.19-13.58z" fill="#53B6F9" stroke="#000" stroke-width="20" stroke-miterlimit="10"/><circle cx="1072" cy="789" r="54" fill="#FFBF44" stroke="#000" stroke-width="20"/><circle cx="776" cy="789" r="54" fill="#FFBF44" stroke="#000" stroke-width="20"/><path d="M753.5 733.5c-4.8-37.2 17-50.167 28.5-52-14.8-4.4-31.833 3.5-38.5 8-2.333 3.5-7.5 11.3-9.5 14.5-2.5 4-4 8.5-5.5 9s-21.5 2-22.5 2-26 10.5-26.5 11.5-10 25-10 26c0 .8 4.667 29.333 7 43.5-2.833 6.666-9 21.9-11 29.5-2 7.6 20.5 30.5 32 41l38 2.5 37.5 33.5c19 .5 49.4-.3 19-7.5s-33.667-34.667-31.5-47.5c-1.333-2.834-4.4-8.8-6-10-2-1.5-16.5-17-17-18s-7-11.5-7.5-34c-.4-18 15.5-42.167 23.5-52zM1051.13 733.5c-4.8-37.2 17-50.167 28.5-52-14.8-4.4-35.84 3.5-42.51 8-2.33 3.5-7.5 11.3-9.5 14.5-2.5 4-4 8.5-5.5 9s-21.5 2-22.495 2c-1 0-26 10.5-26.5 11.5s-10 25-10 26c0 .8 4.667 29.333 7 43.5-2.833 6.666-9 21.9-11 29.5-2 7.6 20.5 30.5 32 41l37.995 2.5 37.5 33.5c19 .5 54.4-.3 24-7.5s-33.66-34.667-31.5-47.5c-1.33-2.834-9.4-8.8-11-10-2-1.5-16.5-17-17-18s-7-11.5-7.5-34c-.4-18 19.51-42.167 27.51-52z" fill="#001647" fill-opacity=".2"/><path d="M871.488 797.371s52.42-23.07 104.84 0M370.09 692.07L681 789.5" stroke="#000" stroke-width="20" stroke-miterlimit="10"/><path d="M732.51 716.382a.135.135 0 00.059.011.129.129 0 00.057-.019.113.113 0 00.04-.044.108.108 0 00.014-.058c-.06-3.15 0-44.08 43-42 0 0 36.07 2.11 40.57 41.22a.12.12 0 00.17.1c2.54-1.13 38.11-16.18 57.7 13.29 19.59 29.47-10.28 56.51-12.25 58.22a.13.13 0 000 .18c2 1.86 33.671 28.35 16.711 57.94-16.96 29.59-54 16.2-56.56 15a.111.111 0 00-.161.09c-.42 2.79-6.86 41.59-40.73 43-33.87 1.41-44.86-36.09-45.57-38.67a.111.111 0 00-.022-.045.117.117 0 00-.04-.03.141.141 0 00-.049-.009.112.112 0 00-.048.014c-2.36 1.15-36.651 17.15-57.701-14.5-21.05-31.65 7.131-55.44 9.141-57.07a.116.116 0 00.034-.039.113.113 0 00-.034-.141c-2.05-1.74-31.9-28-11-61.24 19.98-31.71 53.949-16.48 56.669-15.2zM1031.34 715.128c.02.011.04.018.06.018.02.001.04-.005.06-.015.01-.01.03-.026.04-.044a.117.117 0 00.01-.059c0-3.16 1.3-44.07 44.21-40.72 0 0 36 3.16 39.35 42.39 0 .018.01.036.02.051s.02.028.04.038c.01.01.03.016.05.018.01.002.03-.001.05-.007 2.58-1 38.57-15.06 57.3 15 18.73 30.06-11.93 56.18-14 57.84a.29.29 0 00-.03.041c-.01.015-.01.032-.01.049s0 .034.01.05c.01.015.02.029.03.04 1.92 1.91 32.83 29.31 15 58.41-17.83 29.1-54.44 14.61-57 13.32-.02-.01-.03-.016-.05-.018a.14.14 0 00-.06.01c-.01.008-.03.021-.04.036a.098.098 0 00-.02.052c-.5 2.78-8.07 41.37-42 41.82-33.93.45-43.78-37.39-44.42-40 0-.016-.01-.031-.02-.044-.01-.013-.03-.024-.04-.032-.02-.007-.03-.011-.05-.012a.125.125 0 00-.05.008c-2.39 1.09-37.13 16.08-57.25-16.17-20.12-32.25 8.75-55.21 10.8-56.78a.107.107 0 00.046-.09.116.116 0 00-.012-.051.116.116 0 00-.034-.039c-2-1.8-31.07-28.87-9.18-61.53 21-31.16 54.51-14.94 57.19-13.58z" stroke="#000" stroke-width="20" stroke-miterlimit="10"/><circle cx="776" cy="789" r="54" stroke="#000" stroke-width="20"/><circle cx="1072" cy="789" r="54" stroke="#000" stroke-width="20"/></g><defs><clipPath id="prefix__clip0_53_26967"><path fill="#fff" d="M0 0h1500v1500H0z"/></clipPath></defs>
      <g clip-path="url(#prefix__clip0_53_25357)"><path d="M350.5 673.5L367 736l65-17 358.5-64.5L1115 639l35.5-9.5-22.5-95-34.5-56.5 47.5-32.5c16.83-3 50-33.7 48-152.5s-113.83-152.17-166-152.5l-124.5 19c-22.669-23.17-95.099-68.8-203.5-66C586.6 96.3 537.171 185 526 229h-94l-65 9-74.5 49c-82.8 103.2-43.83 199.33-14 234.5L311 546l48.5 35.5v16l-9 76z" fill="#fff"/><path d="M542.5 544c-38.8 46-47.5 126.5-47 161-21.833 7.833-74.3 24.9-109.5 30.5-35.2 5.6-37.333-40.667-34-64.5l15.5-89.5-68.499-37.5c-35.5-36.167-92.2-131.9-35-225.5s196.833-98.667 259.5-89.5l50.5-86.5 64.5-42c20.833-3.667 78.3-9.4 141.5-3s110.333 44.333 126 62.5l25.5-6.5 51-9 49.999-2 44 15.5c9 8.5-.85 7.614-37.5 15.5-39.499 8.5-73.499 46-78.999 62.5-4.4 13.2-9.834 16.167-12 16l-52.5-97.5-68.5-39c-167.5-27.5-257 155.5-270 179s-14 60.5-33.5 58.5c-15.6-1.6-18.167-27-18.5-39.5l3-29.5c-39.2 2.4-67.001 57.667-75.501 83.5-22 70.8 9.167 129.167 27.5 149.5l17.5 13.5 65 13.5z" fill="#001647" fill-opacity=".2"/><path d="M739.5 436c4.4-.8 7.5 3 8.5 5l6.5 60-23.5 1.5c-.667-12.667-2-40.7-2-51.5 0-13.5 5-14 10.5-15zM999.5 423c.8-8.8 14.67-6.667 21.5-4.5-1 3.667-3 11.2-3 12 0 1-5 28-5.5 28.5s-19 22.5-19.5 23-47 2-47-2 23-7 40-21 12.5-25 13.5-36z" fill="#001647" fill-opacity=".2"/><path d="M382.59 737c85-25.64 413.43-116.38 747.51-98.23 2.53.142 5.06-.273 7.42-1.217a17.323 17.323 0 006.2-4.245 17.317 17.317 0 003.83-6.474c.78-2.412 1.03-4.966.72-7.484l-.78-6.24a252.725 252.725 0 00-37-103.69l-9-14.28a27.727 27.727 0 00-24.31-12.92c-79.46 2.44-439.92 17.49-692.24 94a27.004 27.004 0 00-18 17.85l-2.39 7.78a252.771 252.771 0 00-7.06 119.76 19.788 19.788 0 0025.1 15.39v0z" stroke="#000" stroke-width="20" stroke-miterlimit="10"/><path d="M518.49 229.919s-230.15-52.61-271.82 148.37c-26.38 127.23 60.18 181.57 127.25 204.33" stroke="#000" stroke-width="20" stroke-miterlimit="10"/><path d="M506.69 306.289s12.23-200.85 193.62-213.54C881.7 80.06 934.59 200 943.21 243.94" stroke="#000" stroke-width="20" stroke-miterlimit="10" stroke-linecap="round"/><path d="M1086.37 482.21c61.61-26.67 146.92-93 87.57-248.68 0 0-56.38-147.15-271.18-69.63" stroke="#000" stroke-width="20" stroke-miterlimit="10"/><path d="M749 447l6 59M943.21 488.94s88.35 2.83 77.29-61.94M556.82 534.94s-87 25.75-93.32-37.44" stroke="#000" stroke-width="20" stroke-miterlimit="10" stroke-linecap="round"/></g><defs><clipPath id="prefix__clip0_53_25357"><path fill="#fff" d="M0 0h1500v1500H0z"/></clipPath></defs>
      
    </g>
    </svg>