<svg
      xmlns="http://www.w3.org/2000/svg"
      preserveAspectRatio="xMidYMin meet"
      fill="none"
      viewBox="0 0 1500 1500"
    >
      <g>
      <path fill="url(#prefix__paint0_linear_53_30462)" d="M0 0h1500v1500H0z"/><defs><linearGradient id="prefix__paint0_linear_53_30462" x1="0" y1="0" x2="1500" y2="1500" gradientUnits="userSpaceOnUse"><stop stop-color="#FFC4F6"/><stop offset="1" stop-color="#FF3DB1"/></linearGradient></defs>
      <g clip-path="url(#prefix__clip0_53_28507)"><path d="M1263 1500H289.33l3.73-66.49 19.17-110.35L357 1199l54.62-70.7s17.75-12.31 49.54-29.07a.243.243 0 00.11-.06c9.18-4.83 19.53-10 31-15.42l.17-.07c6.96-3.29 21.32-4.62 29.08-8C586.21 1047.55 724 1042 724 1042s177.6-2.88 327.74 48.38c6.21 2.12 12.37 4.36 18.46 6.73C1223.35 1156.74 1263 1500 1263 1500z" fill="#fff"/><path d="M1120.22 1500H492.75l63.3-66.84 42-80.49.34-.65L509 1201.57l-38-89.15-2.66-6.25-.73-1.69c-.002-.04-3.113-4.44-3.11-4.48l31-14 10-2.5 24.5-9 28.59 59.88v.08l86.22 157.7c.06.1.13.19.18.28l24.2 34.72h246.5l21-28.57 10-13.56 17.21-55.83 22.47-72.91v-.09l21.63-69.7 25-10.44 36.5 20.94-5.33 7.99-1.69 9.53-10.23 57.79-8.9 50.24-13.5 33.18-40.28 99.07-.9 2.21-1.4 3.44 52.71 77.83 70.33 54 4.43 3.39 5.48 4.33z" fill="#FF6247"/><path d="M468.001 1095c149.6-59.6 294-54.83 347.5-45-60.865 12.72-204.146 61.06-305.043 154.5L593.5 1346l-5.5 25.5c-40.4-37.2-77.581-111.33-94.871-150-95.084 99.83-110.861 243.43-106.627 304l-99.502-13c-1.6-110.8 39-247.5 59.5-302l39.501-52.5 15.5-20.5 66.5-42.5z" fill="#001647" fill-opacity=".2"/><path d="M769.26 1435.51c.206.67.264 1.38.17 2.08-.094.7-.337 1.37-.714 1.97a4.293 4.293 0 01-1.433 1.41c-.581.35-1.236.57-1.914.62-.757.12-1.503.2-2.247.26-.745.06-1.467.08-2.188.08.082 2.27-.322 4.53-1.188 6.63a18.639 18.639 0 01-3.815 5.8 18.346 18.346 0 01-6.045 4.27 17.482 17.482 0 01-7.092 1.47l-.409-.02c-2.76-.05-5.468-.76-7.898-2.07a21.343 21.343 0 01-6.696-5.69c-3.97-5.01-6.561-12.02-7.772-21.05a54.533 54.533 0 01-.401-13.6c.317-3.35 1.321-6.6 2.95-9.54.719-1.2 1.599-2.3 2.614-3.26.998-.93 2.124-1.71 3.343-2.32 1.084-.52 2.225-.92 3.401-1.18 1.233-.29 2.5-.4 3.764-.34 3.63.02 7.197.95 10.377 2.7 1.454.7 2.798 1.6 3.987 2.69.99.82 1.807 1.82 2.401 2.96.4.77.692 1.59.867 2.44a4.651 4.651 0 01-.986 3.88 4.35 4.35 0 01-1.559 1.22 4.3 4.3 0 01-1.935.39 5.575 5.575 0 01-3.228-1.02 7.817 7.817 0 01-2.385-2.52c-.476-.29-.97-.54-1.48-.77-.669-.28-1.359-.52-2.064-.71-.777-.2-1.573-.31-2.375-.34a6.524 6.524 0 00-2.435.39c-1.619.67-2.782 2.13-3.487 4.38-1.208 3.38-1.377 8.27-.509 14.67a37.915 37.915 0 002.274 9.79 21.77 21.77 0 002.805 5.06 6.92 6.92 0 002.22 2.01c.881.5 1.861.79 2.87.86a9.032 9.032 0 006.526-3.01 8.509 8.509 0 002.413-4.35l-1.678-.09-1.677-.09a5.927 5.927 0 01-4.065-1.65 6.1 6.1 0 01-2.097-3.93 4.726 4.726 0 01.136-2c.188-.64.513-1.24.953-1.76.427-.51.964-.91 1.571-1.18a4.427 4.427 0 011.931-.39l.079.01c.892 0 1.732.01 2.542.04.81.02 1.608.09 2.386.13 1.997.11 3.895.22 5.807.22 2.243.01 4.485-.12 6.712-.39a5.8 5.8 0 014.168 1.23 6.448 6.448 0 012.505 3.61zM784.584 1460.35a6.011 6.011 0 01-3.97-1.56 6.26 6.26 0 01-2.172-3.85 640.96 640.96 0 01-1.17-6.92c-.345-2.1-.755-4.47-1.128-7.15-.373-2.67-.8-5.45-1.183-8.32-.404-3.38-.746-6.45-1.034-9.21-.288-2.76-.473-5.21-.595-7.35a57.832 57.832 0 01-.069-5.11c.02-1.18.121-2.35.304-3.51.108-.8.323-1.58.639-2.32.252-.56.577-1.09.968-1.57a5.587 5.587 0 011.828-1.51 5.556 5.556 0 012.295-.6c.768.02 1.529.15 2.262.38a7.56 7.56 0 012.909 1.73c.441.34.846.72 1.209 1.14.367.42.771.92 1.18 1.48a45.06 45.06 0 013.783 6.22c2.194 4.17 4.802 9.83 7.826 16.99.323.67.625 1.36.888 2.05.263.68.544 1.39.818 2.05.118-.68.226-1.37.305-2.08.091-.7.223-1.38.395-2.06.516-3.56 1.005-6.73 1.466-9.52.465-2.78.929-5.21 1.405-7.3.302-1.29.575-2.43.81-3.42.211-.87.469-1.74.773-2.58.25-.81.548-1.6.892-2.37a5.3 5.3 0 011.497-1.84c.631-.5 1.364-.85 2.147-1.03a6.433 6.433 0 012.727.09c.892.22 1.728.63 2.45 1.2a8.656 8.656 0 011.719 1.69c.572.77 1.06 1.61 1.455 2.49.522 1.16.968 2.34 1.336 3.56.426 1.35.839 2.95 1.316 4.82.55 2.13 1.083 4.58 1.598 7.35.515 2.76 1.095 5.86 1.74 9.29a787.067 787.067 0 012.558 15.71c.322 2.14.661 4.54 1.016 7.18a4.533 4.533 0 01-.999 3.83c-.445.52-1.003.93-1.631 1.21-.628.27-1.311.4-1.996.37h-.08a5.8 5.8 0 01-4.055-1.65 6.497 6.497 0 01-2.147-3.92c-.3-2.32-.594-4.43-.882-6.34l-1.001-6.55c-.372-2.45-.785-5-1.24-7.65-.43-2.48-.867-4.79-1.31-6.93-.162 1.13-.34 2.36-.564 3.69-.223 1.33-.43 2.71-.651 4.18-.416 2.7-.789 5.33-1.117 7.9-.329 2.56-.634 4.83-.917 6.8-.29 1.98-.496 3.56-.644 4.77-.147 1.21-.222 1.85-.215 1.9a4.429 4.429 0 01-1.47 2.87 4.557 4.557 0 01-3.156 1.1h-.089a6.395 6.395 0 01-3.516-1.27 6.582 6.582 0 01-2.285-3.05 304.41 304.41 0 00-2.438-6.45c-.765-1.94-1.644-4.16-2.639-6.64-.994-2.48-2.013-5.07-3.096-7.77-.971-2.37-1.866-4.48-2.655-6.34-.788-1.85-1.596-3.55-2.263-5.07.109 1.47.29 3.09.533 4.86.243 1.76.495 3.73.767 5.88.348 2.64.705 5.17 1.072 7.6.367 2.42.696 4.58.985 6.46.287 1.89.632 3.98 1.035 6.3.162.68.169 1.39.021 2.08-.149.68-.45 1.32-.881 1.88-.414.53-.946.97-1.554 1.27a4.43 4.43 0 01-1.956.46l-.159-.02zM865.113 1401.28a6.507 6.507 0 013.395 2.91 5.25 5.25 0 01.59 4.19 101.37 101.37 0 01-4.311 13.68 148.617 148.617 0 01-5.274 11.73c2.309 2.8 4.657 5.57 7.042 8.32s4.848 5.56 7.387 8.42l.594.67a6.11 6.11 0 011.617 4.1c.018.68-.108 1.35-.37 1.98a4.725 4.725 0 01-1.153 1.65 5.105 5.105 0 01-3.065 1.1c-.861 0-1.71-.19-2.494-.54a5.875 5.875 0 01-2.162-1.66l-.609-.76c-2.006-2.24-4.012-4.49-6.017-6.75a293.77 293.77 0 01-5.957-6.93c-.262.5-.53 1.01-.805 1.52-.288.5-.554.97-.82 1.43a280.659 280.659 0 00-3.15 5.54 209.874 209.874 0 00-3.029 5.7 4.318 4.318 0 01-1.7 1.85c-.737.44-1.586.65-2.442.61a5.52 5.52 0 01-3.139-1.02 6.405 6.405 0 01-2.813-3.46 5.235 5.235 0 01.229-4.14c1.088-1.95 2.16-3.89 3.216-5.84 1.059-1.94 2.115-3.83 3.159-5.7.624-.97 1.214-2.04 1.782-3.08.569-1.04 1.116-2.07 1.683-3.09-2.91-3.88-5.695-7.85-8.356-11.91a121.687 121.687 0 01-7.202-12.67 5.457 5.457 0 01-.648-2.07 5.408 5.408 0 01.21-2.15 4.205 4.205 0 012.688-2.8 5.613 5.613 0 014.2.3 6.507 6.507 0 013.219 3.18c1.592 3.22 3.311 6.32 5.156 9.3a137.9 137.9 0 005.904 8.79c1.334-2.93 2.597-5.86 3.775-9.04a84.215 84.215 0 003.082-10.31c.16-.65.463-1.26.886-1.78.424-.51.958-.93 1.563-1.22.647-.3 1.35-.46 2.064-.47.714-.01 1.422.13 2.075.42zM1122.41 1495.71l-2.72 4-2.86 4.25h-17.5c-39.37-28.33-90.91-75.45-111.93-131.12a55.169 55.169 0 00-3.61-7.72c-.66-1.18-1.36-2.32-2.1-3.44l6.48-4.3.45-.3 9.73-6.46a75.56 75.56 0 017.76 15.16c11.29 29.89 43.29 78.46 107.78 124 2.74 2 5.58 3.98 8.52 5.93z" fill="#000"/><path d="M669.16 1327.18h252.95" stroke="#000" stroke-width="20" stroke-miterlimit="10"/><path d="M605.91 1358.65c-.44.57-.86 1.15-1.27 1.74a53.595 53.595 0 00-6.74 13.12c-23 65.59-68.45 109.28-89 126.49l-21.15 3-5.79-8.16c.12-.09 2.66-1.91 6.85-5.38 17.35-14.29 68.14-59.52 90.22-122.56a73.51 73.51 0 0111-20.38l8.06 6.15 1.88 1.43 5.94 4.55z" fill="#000"/><path d="M465.53 1102.37s54.7 154.47 153.72 276.69a35.46 35.46 0 0020.062 12.32c7.895 1.7 16.135.66 23.358-2.95a35.416 35.416 0 0011.903-9.66 35.46 35.46 0 006.988-29.11 35.456 35.456 0 00-6.221-14.01c-32.71-44.41-111.58-175.36-143.84-260.15M1010.94 1078.69c-26.5 97.87-68.13 216.54-94.92 258.09a35.487 35.487 0 00-4.498 28.38 35.485 35.485 0 0017.988 22.4l1.37.71c7.688 3.98 16.565 5 24.959 2.89a35.516 35.516 0 0020.611-14.37c31.17-45.55 77.27-163 92.71-277.8" stroke="#000" stroke-width="20" stroke-miterlimit="10"/><path d="M645.26 1371.64c9.157 0 16.58-7.42 16.58-16.58 0-9.16-7.423-16.58-16.58-16.58-9.157 0-16.58 7.42-16.58 16.58 0 9.16 7.423 16.58 16.58 16.58zM947.6 1371.64c9.157 0 16.58-7.42 16.58-16.58 0-9.16-7.423-16.58-16.58-16.58-9.157 0-16.58 7.42-16.58 16.58 0 9.16 7.423 16.58 16.58 16.58z" fill="#000"/><path d="M289.5 1512.5c-6-101.5 31-323.03 140.5-398 158.5-108.51 616.5-87 706.5 26 64.91 81.5 99.5 222.5 132.5 371M1084.5 1337c12.33 37 29.5 110.3 43.5 175.5m-646.5 0c.333-32.83 7.7-107.6 20.5-157" stroke="#000" stroke-width="20" stroke-linecap="round"/></g><defs><clipPath id="prefix__clip0_53_28507"><path fill="#fff" d="M0 0h1500v1500H0z"/></clipPath></defs>
      <g clip-path="url(#prefix__clip0_299_662)"><path d="M775 1185c231.41 0 419-168.12 419-375.5 0-207.383-187.59-375.5-419-375.5-231.407 0-419 168.117-419 375.5 0 207.38 187.593 375.5 419 375.5z" fill="#ABF"/><path d="M457.5 796c7.6 194 131.833 327.5 193 370l-130-55.5L438 1034l-57.5-89.5-27-106 11-104L394 662l45-82.5 83.5-69.5 109-54.182 28.5-1C569.452 513.314 451.119 633.132 457.5 796z" fill="#001647" fill-opacity=".2"/><path d="M775 1185c231.41 0 419-168.12 419-375.5 0-207.383-187.59-375.5-419-375.5-231.407 0-419 168.117-419 375.5 0 207.38 187.593 375.5 419 375.5z" stroke="#000" stroke-width="20"/></g><defs><clipPath id="prefix__clip0_299_662"><path fill="#fff" d="M0 0h1500v1500H0z"/></clipPath></defs>
      <g clip-path="url(#prefix__prefix__clip0_53_29477)"><path d="M1046 825a40.998 40.998 0 0037.88-25.31 41.043 41.043 0 002.33-23.689 40.939 40.939 0 00-11.22-20.992 40.99 40.99 0 00-44.68-8.888 40.977 40.977 0 00-18.4 15.101 40.996 40.996 0 005.1 51.769A41.006 41.006 0 001046 825z" fill="#000"/><path d="M729.63 808.821l88.08-16a7.737 7.737 0 006.23-6.4 7.757 7.757 0 00-.73-4.64 7.674 7.674 0 00-3.27-3.35l-82.39-43.72m99.27 256.728c38.57 39.211 113.35 39.211 151.93 0" stroke="#000" stroke-width="20" stroke-miterlimit="10" stroke-linecap="round"/></g><defs><clipPath id="prefix__prefix__clip0_53_29477"><path fill="#fff" d="M0 0h1500v1500H0z"/></clipPath></defs>
      <g clip-path="url(#prefix__clip0_53_26750)"><path d="M367.752 776.001s-3.28 28.45-1 45.76c2.44 18.17 1-1 1-1l33.42-7 66.7-6.4 126.25-16-16.45-38.56-209.92 23.2z" fill="#CCD0DA"/><path d="M606.318 716.472c95.222-8.873 410.972-33.645 575.062 10.575 1.66.448 2.89 1.625 3.3 3.297 4.9 19.994 29.97 149.958-140.21 173.418-28.09 3.88-56.602-5.94-75.622-27-10.05-11.11-24.47-21-44-21-21.81 0-38.66 12.64-50.2 25.56a87.103 87.103 0 01-68.66 29c-69-2.89-188.31-28-221.92-162.37a25.404 25.404 0 0122.25-31.48z" fill="#53B6F9" stroke="#000" stroke-width="20" stroke-miterlimit="10"/><path d="M656 709.001l89-7 116.798 190.464-32.298 16.536-47.5 5-126-205zM766.638 704.27h23.144L891 865l-14 11-110.362-171.73zM961.076 699.264L1053 705l102.75 149.657L1127 880l-40.11 18.205-125.814-198.941zM1076.5 715h18l82 115-11 16-89-131z" fill="#fff" fill-opacity=".9"/><path d="M606.318 716.472c95.222-8.873 410.972-33.645 575.062 10.575 1.66.448 2.89 1.625 3.3 3.297 4.9 19.994 29.97 149.958-140.21 173.418-28.09 3.88-56.602-5.94-75.622-27-10.05-11.11-24.47-21-44-21-21.81 0-38.66 12.64-50.2 25.56a87.103 87.103 0 01-68.66 29c-69-2.89-188.31-28-221.92-162.37a25.404 25.404 0 0122.25-31.48zM584.08 748.012L356 777.042M598.32 795L356 822" stroke="#000" stroke-width="20" stroke-miterlimit="10"/></g><defs><clipPath id="prefix__clip0_53_26750"><path fill="#fff" d="M0 0h1500v1500H0z"/></clipPath></defs>
      <g clip-path="url(#prefix__clip0_53_25676)"><path d="M223.27 595.001l52 78.75 90.11 65.25 204.81-96.83L768 602.841l157 1.29 223.59 29.64 74.77-102.77 37.71-90-9.46-40.31-135.5-18.88-83.5-56.12-81.201-105.94-56.649-44.66h-31.601l-35.849 61.76-24.43 25.66-43.69-69.51-17.91-21.63-49 11.79-80 56.54-67 90.65-64.671 104.42L354 521.371l-113 43.03-17.73 30.6z" fill="#3A3A3A"/><path d="M227.5 604.131s193.109-43.36 287.609-152.86c30.881-35.78 53.001-71.48 65.091-96.11 22.82-46.64 45-77.54 86.83-108.37 13.87-10.24 28.76-19.54 44-26.39a11.319 11.319 0 0114.769 5.17l29.941 51c21.5 36.64 74.25 37.3 96.65 1.2l28.26-45.53a11.38 11.38 0 013.24-3.76 11.523 11.523 0 014.54-2 11.374 11.374 0 015 .13 11.167 11.167 0 014.429 2.23c18.92 15.57 58 49.89 77.25 82.41 32.001 54 71.001 78 71.001 78s72.91 60.63 215 51.82l-4.87-29.29-21.11-13.39-94.6-9.93-66-30.13-52.53-56.88-55.281-69.58-71.92-56.7H863.2l-35.851 61.76-24.43 25.66-25.769-23.32-35.83-67.9-49 11.79-80 56.54-66.94 90.65-61.38 92.42-64.38 55-52.24 32-107.6 46-38.26 17.69 5.98 30.67z" fill="#FFBF44"/><path d="M624.5 304.499c-11 87.5-55 118-93.5 189.5-20.159 37.439-18.428 76.917-7.847 111.5 28.282-12.833 116.247-44.1 237.847-56.5 121.6-12.4 238.333.333 283 7.5l101 18.5 42.5 16-37 39c-73.83-14.167-249.4-40.2-361-31-111.6 9.2-209.5 40.834-244.5 55.5-40.4 12.401-136.833 62.834-180 86.5l-32-14.5-81.5-83-31-66.5 18.5-14.5c35.833-13.5 126.1-51.7 200.5-96.5s105.333-118.667 111.5-150c14.5-21 55.7-72.8 104.5-112s76.667-35.333 84.5-28.5c-34.833 13.834-106.7 59-115.5 129z" fill="#000" fill-opacity=".2"/><path d="M318 710.746c21.114 15.683 43.66 31.024 43.66 31.024s293.45-229.5 786.95-108c0 0 21.97-27.016 35.39-43.77M318 710.746c-33.102-24.589-72.889-60.224-94.9-117.056a23.814 23.814 0 016.9-26.77 23.605 23.605 0 018.6-4.61c62.24-18.2 231.89-78.84 297.46-214 62.22-128.23 151.55-166.86 189.64-177.89a23.209 23.209 0 0126.79 11.1l40.82 74.25a13.472 13.472 0 0018.663 5.107 13.47 13.47 0 004.947-5.107l40.69-73.9a23.192 23.192 0 0128.93-10.34c26.61 10.64 77.58 42.84 142.42 140.24 53.11 79.78 150.38 88 200.85 86.32 18.8-.62 33.8 15.91 30.9 34.45-10.4 67.474-47.06 120.427-76.71 157.46M318 710.746c58.838-47.375 242.864-154.787 480.258-165.436C1035.65 534.662 1144.06 573 1184 590" stroke="#000" stroke-width="20" stroke-miterlimit="10"/><path d="M782.577 430.606c1.081 2.502 2.197 5.091 2.941 7.698.304 1.061 1.996 8.79 2.92 13.037.19.811.601 1.546 1.183 2.113a3.96 3.96 0 002.088 1.079l5.458.853c.396.069.768.249 1.075.522.308.272.541.626.675 1.026l1.24 3.799c.54 1.653 2.079 2.838 3.671 2.838l41.379-.026c1.564 0 2.752-1.153 2.858-2.768l.252-3.913c.027-.367.172-.713.412-.98.241-.267.561-.438.906-.485l6.355-.997c1.527-.241 2.523-1.605 2.383-3.275-.37-4.367-1.033-12.323-1.033-13.412-.023-2.572.336-5.116.679-7.589.484-3.463.986-7.037.459-10.753-3.358-23.721-23.943-43.019-45.892-43.019s-37.075 19.315-33.718 43.054c.549 3.886 2.155 7.598 3.709 11.198zm42.557-2.183c-.701-6.742 4.782-8.437 11.201-8.17 6.419.266 11.343 2.401 12.044 9.135.7 6.733-3.927 11.99-10.354 11.724s-12.19-5.954-12.891-12.696v.007zm-1.883 13.228l5.057 6.48c.218.26.369.574.442.913.072.338.062.69-.028 1.024l-.414 1.299c-.107.328-.311.61-.582.807a1.48 1.48 0 01-.922.284h-7.095a2.107 2.107 0 01-1.037-.304 2.253 2.253 0 01-.777-.787l-.779-1.299a2.04 2.04 0 01-.141-1.937l3.226-6.48c.564-1.15 2.158-1.15 3.05-.006v.006zm-22-21.396c6.342-.266 12.304 1.428 13.509 8.17s-2.959 12.423-9.3 12.689c-6.34.266-12.463-4.982-13.668-11.724s3.114-8.877 9.459-9.152v.017zM863.615 370.15c.041-3.221-1.37-6.637-4.08-9.118-4.339-3.98-10.539-4.052-13.846-.157-3.467 4.074-2.566 10.84 1.947 14.991l-3.071 3.814c-1.227 1.528-.878 3.993.781 5.519l7.078 6.506c1.654 1.529 3.997 1.529 5.225 0l3.071-3.814c4.515 4.148 10.909 4.089 14.162-.181 3.104-4.085 2.112-10.613-2.228-14.613-2.687-2.491-6.065-3.471-9.039-2.947zM768.058 387.891l4.16 3.814c1.653 1.529 3.997 1.529 5.224 0l5.239-6.508c1.228-1.528.878-3.993-.781-5.519l-4.15-3.815c3.342-4.148 2.329-10.916-2.29-14.988-4.416-3.895-10.585-3.823-13.808.157-2.007 2.481-2.454 5.895-1.501 9.118-3.122-.524-6.218.456-8.212 2.947-3.204 4-2.35 10.528 1.915 14.613 4.45 4.27 10.862 4.329 14.204.181zM885.187 460.626c-4.46-4.27-10.872-4.329-14.214-.181l-4.15-3.814c-1.653-1.529-3.996-1.529-5.222 0l-5.239 6.508c-1.227 1.528-.878 3.995.779 5.519l4.15 3.806c-3.342 4.148-2.327 10.916 2.29 14.988 4.416 3.895 10.585 3.823 13.811-.157 2.006-2.48 2.451-5.895 1.5-9.118 3.123.524 6.218-.456 8.213-2.947 3.201-4 2.347-10.528-1.918-14.604zM775.41 478.178c-.039 3.221 1.373 6.637 4.08 9.118 4.34 3.98 10.539 4.052 13.846.157 3.466-4.074 2.567-10.84-1.949-14.988l3.071-3.815c1.228-1.528.878-3.995-.779-5.519l-7.08-6.508c-1.653-1.529-3.997-1.529-5.224 0l-3.071 3.814c-4.514-4.148-10.91-4.089-14.163.181-3.11 4.085-2.118 10.611 2.216 14.613 2.707 2.491 6.08 3.471 9.053 2.947z" fill="#fff"/></g><defs><clipPath id="prefix__clip0_53_25676"><path fill="#fff" d="M0 0h1500v1500H0z"/></clipPath></defs>
      
    </g>
    </svg>