<svg
      xmlns="http://www.w3.org/2000/svg"
      preserveAspectRatio="xMidYMin meet"
      fill="none"
      viewBox="0 0 1500 1500"
    >
      <g>
      <path fill="url(#prefix__paint0_linear_53_30462)" d="M0 0h1500v1500H0z"/><defs><linearGradient id="prefix__paint0_linear_53_30462" x1="0" y1="0" x2="1500" y2="1500" gradientUnits="userSpaceOnUse"><stop stop-color="#FFC4F6"/><stop offset="1" stop-color="#FF3DB1"/></linearGradient></defs>
      <g clip-path="url(#prefix__clip0_53_28662)"><path d="M288.689 1505.57l13.36-113.94 184.06 50.77-2.67 63.17h-194.75zM1108.09 1432.16l14.41 71.69h142.41l-32.7-113.79-124.12 42.1z" fill="#ABF"/><path d="M303.471 1382.79L325 1260l56-105.5s64.91-55.22 110.5-71c0 0 87.12-38.32 292.5-41 205.38-2.68 276 52.5 276 52.5l58.65 30.23 39.22 52.98 39.13 78.97 38.22 131.86-127.13 39.32 14.41 72.47-643.659 1.15 7.27-66.62-182.64-52.57z" fill="#4AEEB9"/><path d="M500.002 1213.5c-101.2 100-117.834 249-113.5 311l-99.502-13c-1.6-110.8 39-247.5 59.5-302l39.501-52.5 15.5-20.5 66.5-42.5c149.6-59.6 294-54.83 347.5-45-63 13.17-214.299 64.5-315.499 164.5z" fill="#001647" fill-opacity=".2"/><path d="M927.95 1283l14.09 100.13-45.14-36.92-87.47 94.78-62.53-51.13-64 69.42-30.9-25.34 87.69-95.16 62.55 51.19 63.66-69.17-45.18-36.92 107.23-.88z" fill="#fff"/><path d="M289.5 1512.5c-1.965-33.24.683-79.37 8.981-129m970.519 128c-9.49-42.7-19.11-84.78-29.54-125M1084.5 1337c7.13 21.39 15.88 54.92 24.69 92m18.81 83.5c-5.91-27.5-12.37-56.45-18.81-83.5m-627.69 83.5c.172-16.93 2.213-45 5.905-75m14.595-82c-6.201 23.93-11.126 53.81-14.595 82m-188.924-54c17.035-101.9 57.885-218.59 131.519-269 158.5-108.51 616.5-87 706.5 26 46.24 58.07 77.1 146.33 102.96 246m-940.979-3l188.924 54m621.785-8.5l130.27-42.5" stroke="#000" stroke-width="20" stroke-linecap="round"/></g><defs><clipPath id="prefix__clip0_53_28662"><path fill="#fff" d="M0 0h1500v1500H0z"/></clipPath></defs>
      <g clip-path="url(#prefix__clip0_299_662)"><path d="M775 1185c231.41 0 419-168.12 419-375.5 0-207.383-187.59-375.5-419-375.5-231.407 0-419 168.117-419 375.5 0 207.38 187.593 375.5 419 375.5z" fill="#ABF"/><path d="M457.5 796c7.6 194 131.833 327.5 193 370l-130-55.5L438 1034l-57.5-89.5-27-106 11-104L394 662l45-82.5 83.5-69.5 109-54.182 28.5-1C569.452 513.314 451.119 633.132 457.5 796z" fill="#001647" fill-opacity=".2"/><path d="M775 1185c231.41 0 419-168.12 419-375.5 0-207.383-187.59-375.5-419-375.5-231.407 0-419 168.117-419 375.5 0 207.38 187.593 375.5 419 375.5z" stroke="#000" stroke-width="20"/></g><defs><clipPath id="prefix__clip0_299_662"><path fill="#fff" d="M0 0h1500v1500H0z"/></clipPath></defs>
      <g clip-path="url(#prefix__clip0_53_29369)" stroke="#000" stroke-width="20" stroke-miterlimit="10"><path d="M729.63 808.821l88.08-16a7.737 7.737 0 006.23-6.4 7.757 7.757 0 00-.73-4.64 7.674 7.674 0 00-3.27-3.35l-82.39-43.72M1087 808.821l-87.999-16a7.71 7.71 0 01-6.23-6.4 7.784 7.784 0 01.72-4.63 7.65 7.65 0 013.28-3.36l82.389-43.72" stroke-linecap="round"/><path d="M1000 1001.64c0 35-39.4 63.36-88 63.36s-88-28.36-88-63.36a47.358 47.358 0 014.59-20.231c6.41-13.7 21-19 33.42-12.86 14.2 7.07 31.42 11.21 50 11.21s35.79-4.14 50-11.21c12.4-6.18 27-.84 33.42 12.86a47.337 47.337 0 014.57 20.231z" fill="#fff"/></g><defs><clipPath id="prefix__clip0_53_29369"><path fill="#fff" d="M0 0h1500v1500H0z"/></clipPath></defs>
      <g clip-path="url(#prefix__clip0_53_26454)"><path d="M922.5 1068.5a59.023 59.023 0 0032.779-9.94 59.051 59.051 0 0021.73-26.48 59.008 59.008 0 00-12.79-64.299 58.999 58.999 0 10-83.438 83.439 59.017 59.017 0 0041.719 17.28z" fill="#F9F9F9"/><path d="M1086 1007.5c0 42.8-75.66 77.5-169 77.5-93.336 0-169-34.67-169-77.5 0-42.834 75.664-97.5 169-97.5 93.34 0 169 54.698 169 97.5z" fill="#ABF"/><path d="M926.2 975.91l163-63 42-14 13 22-12 22-141.45 51.39s-20.55-26.39-64.55-18.39z" fill="#fff"/><path d="M1000.26 944.55l19.16 45.34-31.09 4.4s-30.33-21.45-60.51-18.67c-30.18 2.78 72.44-31.07 72.44-31.07z" fill="#FF9C07"/><path d="M918.51 973.8l192.62-77.674c13.03-5.255 27.82 1.372 32.57 14.597v0c4.46 12.398-1.57 26.115-13.72 31.214L995.49 998.4" stroke="#000" stroke-width="20" stroke-miterlimit="10"/><path d="M1143.26 909.834c4.97 11.693.66 24.254-8.39 28.094s-20.4-2.527-25.37-14.219c-4.96-11.693-1.65-24.285 7.4-28.125 9.04-3.839 21.4 2.557 26.36 14.25z" fill="#FF6247" stroke="#000" stroke-width="20"/><path d="M819.26 1008s115.5-84.37 192.56 12.49" stroke="#000" stroke-width="20" stroke-miterlimit="10" stroke-linecap="round"/></g><defs><clipPath id="prefix__clip0_53_26454"><path fill="#fff" d="M0 0h1500v1500H0z"/></clipPath></defs>
      <g clip-path="url(#prefix__clip0_53_25357)"><path d="M350.5 673.5L367 736l65-17 358.5-64.5L1115 639l35.5-9.5-22.5-95-34.5-56.5 47.5-32.5c16.83-3 50-33.7 48-152.5s-113.83-152.17-166-152.5l-124.5 19c-22.669-23.17-95.099-68.8-203.5-66C586.6 96.3 537.171 185 526 229h-94l-65 9-74.5 49c-82.8 103.2-43.83 199.33-14 234.5L311 546l48.5 35.5v16l-9 76z" fill="#fff"/><path d="M542.5 544c-38.8 46-47.5 126.5-47 161-21.833 7.833-74.3 24.9-109.5 30.5-35.2 5.6-37.333-40.667-34-64.5l15.5-89.5-68.499-37.5c-35.5-36.167-92.2-131.9-35-225.5s196.833-98.667 259.5-89.5l50.5-86.5 64.5-42c20.833-3.667 78.3-9.4 141.5-3s110.333 44.333 126 62.5l25.5-6.5 51-9 49.999-2 44 15.5c9 8.5-.85 7.614-37.5 15.5-39.499 8.5-73.499 46-78.999 62.5-4.4 13.2-9.834 16.167-12 16l-52.5-97.5-68.5-39c-167.5-27.5-257 155.5-270 179s-14 60.5-33.5 58.5c-15.6-1.6-18.167-27-18.5-39.5l3-29.5c-39.2 2.4-67.001 57.667-75.501 83.5-22 70.8 9.167 129.167 27.5 149.5l17.5 13.5 65 13.5z" fill="#001647" fill-opacity=".2"/><path d="M739.5 436c4.4-.8 7.5 3 8.5 5l6.5 60-23.5 1.5c-.667-12.667-2-40.7-2-51.5 0-13.5 5-14 10.5-15zM999.5 423c.8-8.8 14.67-6.667 21.5-4.5-1 3.667-3 11.2-3 12 0 1-5 28-5.5 28.5s-19 22.5-19.5 23-47 2-47-2 23-7 40-21 12.5-25 13.5-36z" fill="#001647" fill-opacity=".2"/><path d="M382.59 737c85-25.64 413.43-116.38 747.51-98.23 2.53.142 5.06-.273 7.42-1.217a17.323 17.323 0 006.2-4.245 17.317 17.317 0 003.83-6.474c.78-2.412 1.03-4.966.72-7.484l-.78-6.24a252.725 252.725 0 00-37-103.69l-9-14.28a27.727 27.727 0 00-24.31-12.92c-79.46 2.44-439.92 17.49-692.24 94a27.004 27.004 0 00-18 17.85l-2.39 7.78a252.771 252.771 0 00-7.06 119.76 19.788 19.788 0 0025.1 15.39v0z" stroke="#000" stroke-width="20" stroke-miterlimit="10"/><path d="M518.49 229.919s-230.15-52.61-271.82 148.37c-26.38 127.23 60.18 181.57 127.25 204.33" stroke="#000" stroke-width="20" stroke-miterlimit="10"/><path d="M506.69 306.289s12.23-200.85 193.62-213.54C881.7 80.06 934.59 200 943.21 243.94" stroke="#000" stroke-width="20" stroke-miterlimit="10" stroke-linecap="round"/><path d="M1086.37 482.21c61.61-26.67 146.92-93 87.57-248.68 0 0-56.38-147.15-271.18-69.63" stroke="#000" stroke-width="20" stroke-miterlimit="10"/><path d="M749 447l6 59M943.21 488.94s88.35 2.83 77.29-61.94M556.82 534.94s-87 25.75-93.32-37.44" stroke="#000" stroke-width="20" stroke-miterlimit="10" stroke-linecap="round"/></g><defs><clipPath id="prefix__clip0_53_25357"><path fill="#fff" d="M0 0h1500v1500H0z"/></clipPath></defs>
      
    </g>
    </svg>