<svg
      xmlns="http://www.w3.org/2000/svg"
      preserveAspectRatio="xMidYMin meet"
      fill="none"
      viewBox="0 0 1500 1500"
    >
      <g>
      <path fill="url(#prefix__paint0_linear_53_28789)" d="M0 0h1500v1500H0z"/><defs><linearGradient id="prefix__paint0_linear_53_28789" x1="1500" y1="1500" x2="0" y2="0" gradientUnits="userSpaceOnUse"><stop stop-color="#FFD130"/><stop offset="1" stop-color="#FFEEDB"/></linearGradient></defs>
      <g clip-path="url(#prefix__clip0_53_28507)"><path d="M1263 1500H289.33l3.73-66.49 19.17-110.35L357 1199l54.62-70.7s17.75-12.31 49.54-29.07a.243.243 0 00.11-.06c9.18-4.83 19.53-10 31-15.42l.17-.07c6.96-3.29 21.32-4.62 29.08-8C586.21 1047.55 724 1042 724 1042s177.6-2.88 327.74 48.38c6.21 2.12 12.37 4.36 18.46 6.73C1223.35 1156.74 1263 1500 1263 1500z" fill="#fff"/><path d="M1120.22 1500H492.75l63.3-66.84 42-80.49.34-.65L509 1201.57l-38-89.15-2.66-6.25-.73-1.69c-.002-.04-3.113-4.44-3.11-4.48l31-14 10-2.5 24.5-9 28.59 59.88v.08l86.22 157.7c.06.1.13.19.18.28l24.2 34.72h246.5l21-28.57 10-13.56 17.21-55.83 22.47-72.91v-.09l21.63-69.7 25-10.44 36.5 20.94-5.33 7.99-1.69 9.53-10.23 57.79-8.9 50.24-13.5 33.18-40.28 99.07-.9 2.21-1.4 3.44 52.71 77.83 70.33 54 4.43 3.39 5.48 4.33z" fill="#FF6247"/><path d="M468.001 1095c149.6-59.6 294-54.83 347.5-45-60.865 12.72-204.146 61.06-305.043 154.5L593.5 1346l-5.5 25.5c-40.4-37.2-77.581-111.33-94.871-150-95.084 99.83-110.861 243.43-106.627 304l-99.502-13c-1.6-110.8 39-247.5 59.5-302l39.501-52.5 15.5-20.5 66.5-42.5z" fill="#001647" fill-opacity=".2"/><path d="M769.26 1435.51c.206.67.264 1.38.17 2.08-.094.7-.337 1.37-.714 1.97a4.293 4.293 0 01-1.433 1.41c-.581.35-1.236.57-1.914.62-.757.12-1.503.2-2.247.26-.745.06-1.467.08-2.188.08.082 2.27-.322 4.53-1.188 6.63a18.639 18.639 0 01-3.815 5.8 18.346 18.346 0 01-6.045 4.27 17.482 17.482 0 01-7.092 1.47l-.409-.02c-2.76-.05-5.468-.76-7.898-2.07a21.343 21.343 0 01-6.696-5.69c-3.97-5.01-6.561-12.02-7.772-21.05a54.533 54.533 0 01-.401-13.6c.317-3.35 1.321-6.6 2.95-9.54.719-1.2 1.599-2.3 2.614-3.26.998-.93 2.124-1.71 3.343-2.32 1.084-.52 2.225-.92 3.401-1.18 1.233-.29 2.5-.4 3.764-.34 3.63.02 7.197.95 10.377 2.7 1.454.7 2.798 1.6 3.987 2.69.99.82 1.807 1.82 2.401 2.96.4.77.692 1.59.867 2.44a4.651 4.651 0 01-.986 3.88 4.35 4.35 0 01-1.559 1.22 4.3 4.3 0 01-1.935.39 5.575 5.575 0 01-3.228-1.02 7.817 7.817 0 01-2.385-2.52c-.476-.29-.97-.54-1.48-.77-.669-.28-1.359-.52-2.064-.71-.777-.2-1.573-.31-2.375-.34a6.524 6.524 0 00-2.435.39c-1.619.67-2.782 2.13-3.487 4.38-1.208 3.38-1.377 8.27-.509 14.67a37.915 37.915 0 002.274 9.79 21.77 21.77 0 002.805 5.06 6.92 6.92 0 002.22 2.01c.881.5 1.861.79 2.87.86a9.032 9.032 0 006.526-3.01 8.509 8.509 0 002.413-4.35l-1.678-.09-1.677-.09a5.927 5.927 0 01-4.065-1.65 6.1 6.1 0 01-2.097-3.93 4.726 4.726 0 01.136-2c.188-.64.513-1.24.953-1.76.427-.51.964-.91 1.571-1.18a4.427 4.427 0 011.931-.39l.079.01c.892 0 1.732.01 2.542.04.81.02 1.608.09 2.386.13 1.997.11 3.895.22 5.807.22 2.243.01 4.485-.12 6.712-.39a5.8 5.8 0 014.168 1.23 6.448 6.448 0 012.505 3.61zM784.584 1460.35a6.011 6.011 0 01-3.97-1.56 6.26 6.26 0 01-2.172-3.85 640.96 640.96 0 01-1.17-6.92c-.345-2.1-.755-4.47-1.128-7.15-.373-2.67-.8-5.45-1.183-8.32-.404-3.38-.746-6.45-1.034-9.21-.288-2.76-.473-5.21-.595-7.35a57.832 57.832 0 01-.069-5.11c.02-1.18.121-2.35.304-3.51.108-.8.323-1.58.639-2.32.252-.56.577-1.09.968-1.57a5.587 5.587 0 011.828-1.51 5.556 5.556 0 012.295-.6c.768.02 1.529.15 2.262.38a7.56 7.56 0 012.909 1.73c.441.34.846.72 1.209 1.14.367.42.771.92 1.18 1.48a45.06 45.06 0 013.783 6.22c2.194 4.17 4.802 9.83 7.826 16.99.323.67.625 1.36.888 2.05.263.68.544 1.39.818 2.05.118-.68.226-1.37.305-2.08.091-.7.223-1.38.395-2.06.516-3.56 1.005-6.73 1.466-9.52.465-2.78.929-5.21 1.405-7.3.302-1.29.575-2.43.81-3.42.211-.87.469-1.74.773-2.58.25-.81.548-1.6.892-2.37a5.3 5.3 0 011.497-1.84c.631-.5 1.364-.85 2.147-1.03a6.433 6.433 0 012.727.09c.892.22 1.728.63 2.45 1.2a8.656 8.656 0 011.719 1.69c.572.77 1.06 1.61 1.455 2.49.522 1.16.968 2.34 1.336 3.56.426 1.35.839 2.95 1.316 4.82.55 2.13 1.083 4.58 1.598 7.35.515 2.76 1.095 5.86 1.74 9.29a787.067 787.067 0 012.558 15.71c.322 2.14.661 4.54 1.016 7.18a4.533 4.533 0 01-.999 3.83c-.445.52-1.003.93-1.631 1.21-.628.27-1.311.4-1.996.37h-.08a5.8 5.8 0 01-4.055-1.65 6.497 6.497 0 01-2.147-3.92c-.3-2.32-.594-4.43-.882-6.34l-1.001-6.55c-.372-2.45-.785-5-1.24-7.65-.43-2.48-.867-4.79-1.31-6.93-.162 1.13-.34 2.36-.564 3.69-.223 1.33-.43 2.71-.651 4.18-.416 2.7-.789 5.33-1.117 7.9-.329 2.56-.634 4.83-.917 6.8-.29 1.98-.496 3.56-.644 4.77-.147 1.21-.222 1.85-.215 1.9a4.429 4.429 0 01-1.47 2.87 4.557 4.557 0 01-3.156 1.1h-.089a6.395 6.395 0 01-3.516-1.27 6.582 6.582 0 01-2.285-3.05 304.41 304.41 0 00-2.438-6.45c-.765-1.94-1.644-4.16-2.639-6.64-.994-2.48-2.013-5.07-3.096-7.77-.971-2.37-1.866-4.48-2.655-6.34-.788-1.85-1.596-3.55-2.263-5.07.109 1.47.29 3.09.533 4.86.243 1.76.495 3.73.767 5.88.348 2.64.705 5.17 1.072 7.6.367 2.42.696 4.58.985 6.46.287 1.89.632 3.98 1.035 6.3.162.68.169 1.39.021 2.08-.149.68-.45 1.32-.881 1.88-.414.53-.946.97-1.554 1.27a4.43 4.43 0 01-1.956.46l-.159-.02zM865.113 1401.28a6.507 6.507 0 013.395 2.91 5.25 5.25 0 01.59 4.19 101.37 101.37 0 01-4.311 13.68 148.617 148.617 0 01-5.274 11.73c2.309 2.8 4.657 5.57 7.042 8.32s4.848 5.56 7.387 8.42l.594.67a6.11 6.11 0 011.617 4.1c.018.68-.108 1.35-.37 1.98a4.725 4.725 0 01-1.153 1.65 5.105 5.105 0 01-3.065 1.1c-.861 0-1.71-.19-2.494-.54a5.875 5.875 0 01-2.162-1.66l-.609-.76c-2.006-2.24-4.012-4.49-6.017-6.75a293.77 293.77 0 01-5.957-6.93c-.262.5-.53 1.01-.805 1.52-.288.5-.554.97-.82 1.43a280.659 280.659 0 00-3.15 5.54 209.874 209.874 0 00-3.029 5.7 4.318 4.318 0 01-1.7 1.85c-.737.44-1.586.65-2.442.61a5.52 5.52 0 01-3.139-1.02 6.405 6.405 0 01-2.813-3.46 5.235 5.235 0 01.229-4.14c1.088-1.95 2.16-3.89 3.216-5.84 1.059-1.94 2.115-3.83 3.159-5.7.624-.97 1.214-2.04 1.782-3.08.569-1.04 1.116-2.07 1.683-3.09-2.91-3.88-5.695-7.85-8.356-11.91a121.687 121.687 0 01-7.202-12.67 5.457 5.457 0 01-.648-2.07 5.408 5.408 0 01.21-2.15 4.205 4.205 0 012.688-2.8 5.613 5.613 0 014.2.3 6.507 6.507 0 013.219 3.18c1.592 3.22 3.311 6.32 5.156 9.3a137.9 137.9 0 005.904 8.79c1.334-2.93 2.597-5.86 3.775-9.04a84.215 84.215 0 003.082-10.31c.16-.65.463-1.26.886-1.78.424-.51.958-.93 1.563-1.22.647-.3 1.35-.46 2.064-.47.714-.01 1.422.13 2.075.42zM1122.41 1495.71l-2.72 4-2.86 4.25h-17.5c-39.37-28.33-90.91-75.45-111.93-131.12a55.169 55.169 0 00-3.61-7.72c-.66-1.18-1.36-2.32-2.1-3.44l6.48-4.3.45-.3 9.73-6.46a75.56 75.56 0 017.76 15.16c11.29 29.89 43.29 78.46 107.78 124 2.74 2 5.58 3.98 8.52 5.93z" fill="#000"/><path d="M669.16 1327.18h252.95" stroke="#000" stroke-width="20" stroke-miterlimit="10"/><path d="M605.91 1358.65c-.44.57-.86 1.15-1.27 1.74a53.595 53.595 0 00-6.74 13.12c-23 65.59-68.45 109.28-89 126.49l-21.15 3-5.79-8.16c.12-.09 2.66-1.91 6.85-5.38 17.35-14.29 68.14-59.52 90.22-122.56a73.51 73.51 0 0111-20.38l8.06 6.15 1.88 1.43 5.94 4.55z" fill="#000"/><path d="M465.53 1102.37s54.7 154.47 153.72 276.69a35.46 35.46 0 0020.062 12.32c7.895 1.7 16.135.66 23.358-2.95a35.416 35.416 0 0011.903-9.66 35.46 35.46 0 006.988-29.11 35.456 35.456 0 00-6.221-14.01c-32.71-44.41-111.58-175.36-143.84-260.15M1010.94 1078.69c-26.5 97.87-68.13 216.54-94.92 258.09a35.487 35.487 0 00-4.498 28.38 35.485 35.485 0 0017.988 22.4l1.37.71c7.688 3.98 16.565 5 24.959 2.89a35.516 35.516 0 0020.611-14.37c31.17-45.55 77.27-163 92.71-277.8" stroke="#000" stroke-width="20" stroke-miterlimit="10"/><path d="M645.26 1371.64c9.157 0 16.58-7.42 16.58-16.58 0-9.16-7.423-16.58-16.58-16.58-9.157 0-16.58 7.42-16.58 16.58 0 9.16 7.423 16.58 16.58 16.58zM947.6 1371.64c9.157 0 16.58-7.42 16.58-16.58 0-9.16-7.423-16.58-16.58-16.58-9.157 0-16.58 7.42-16.58 16.58 0 9.16 7.423 16.58 16.58 16.58z" fill="#000"/><path d="M289.5 1512.5c-6-101.5 31-323.03 140.5-398 158.5-108.51 616.5-87 706.5 26 64.91 81.5 99.5 222.5 132.5 371M1084.5 1337c12.33 37 29.5 110.3 43.5 175.5m-646.5 0c.333-32.83 7.7-107.6 20.5-157" stroke="#000" stroke-width="20" stroke-linecap="round"/></g><defs><clipPath id="prefix__clip0_53_28507"><path fill="#fff" d="M0 0h1500v1500H0z"/></clipPath></defs>
      <g clip-path="url(#prefix__clip0_299_662)"><path d="M775 1185c231.41 0 419-168.12 419-375.5 0-207.383-187.59-375.5-419-375.5-231.407 0-419 168.117-419 375.5 0 207.38 187.593 375.5 419 375.5z" fill="#ABF"/><path d="M457.5 796c7.6 194 131.833 327.5 193 370l-130-55.5L438 1034l-57.5-89.5-27-106 11-104L394 662l45-82.5 83.5-69.5 109-54.182 28.5-1C569.452 513.314 451.119 633.132 457.5 796z" fill="#001647" fill-opacity=".2"/><path d="M775 1185c231.41 0 419-168.12 419-375.5 0-207.383-187.59-375.5-419-375.5-231.407 0-419 168.117-419 375.5 0 207.38 187.593 375.5 419 375.5z" stroke="#000" stroke-width="20"/></g><defs><clipPath id="prefix__clip0_299_662"><path fill="#fff" d="M0 0h1500v1500H0z"/></clipPath></defs>
      <g clip-path="url(#prefix__clip0_53_29395)" stroke="#000" stroke-width="20" stroke-miterlimit="10" stroke-linecap="round"><path d="M701.129 783a76.42 76.42 0 00120.5 0M988.75 783a76.436 76.436 0 0060.25 29.41c11.62 0 23.08-2.649 33.52-7.745A76.462 76.462 0 001109.25 783"/><path d="M914.5 1058.5c8.9 0 17.6-2.64 25.001-7.58a45.056 45.056 0 0016.574-20.2 45.004 45.004 0 00-32.796-61.355 44.995 44.995 0 00-46.195 19.134A45 45 0 00914.5 1058.5z" fill="#000"/></g><defs><clipPath id="prefix__clip0_53_29395"><path fill="#fff" d="M0 0h1500v1500H0z"/></clipPath></defs>
      <g clip-path="url(#a)"><path fill="#ABF" d="M1086 1007c0 43.08-75.66 78-169 78-93.336 0-169-34.89-169-78s75.664-98 169-98c93.34 0 169 54.922 169 98Z"/><path fill="#9E6740" d="m1076 1151.93 33.18-23.07 12.54-9.38 33.85 19.09 5.99 15.71 2.2-9.48 20.83-34.8s27.61 27.46 73.03 22.98c45.43-4.48 40.73-17.59 40.73-17.59l13.65 63.17s1.86 93.04-75.43 95.36c-77.3 2.33-121.92-47.19-121.92-47.19l-38.65-74.8Z"/><path fill="#72411F" d="M1297.3 1111.76c1.48-11.32-21.62-23.69-51.61-27.63-29.99-3.94-55.51 2.05-57 13.37-1.48 11.33 21.62 23.7 51.61 27.64 29.99 3.93 55.51-2.05 57-13.38Z"/><path fill="#3A3A3A" d="M920.5 1012s63.443 3.62 86 33c22.56 29.38 37.64 41.69 37.64 41.69l14.47 21.31s34.8-8.44 36.39-20.51l-44.45-47.01-37.86-25.09-48.2-13.21-27.507-2.18-16.483 12Z"/><path fill="#FFBF44" d="m1058 1108.21 38.93-24.21 27.07 34.76-49.9 34.24-16.1-44.79Z"/><path stroke="#000" stroke-linecap="round" stroke-miterlimit="10" stroke-width="20" d="M1160.1 1152.41c2.87-27.52 29.89-55.03 29.89-55.03 15.81-18.64 43.4-18.64 43.4-18.64 17.6-.4 31.12 2.57 41.23 6.52a50.061 50.061 0 0 1 19.09 13.48 49.885 49.885 0 0 1 10.87 20.65c41.73 161.5-85.23 154.57-85.23 154.57-116.7-7.45-119.06-81.11-158.15-161.35-39.08-80.24-127.2-98.26-127.2-98.26l24.865-8.35s63.965 3.57 119.235 57.48c24 23.42 36.87 61.5 69.09 70.78 4.83 1.39 10.27 2.53 16.42 3.32"/><path fill="#001647" fill-opacity=".2" d="M1182.42 1151.2c-8.08 7.43-17.96 3.09-21.89 0l2.95-9.29 10.1-13 13.89-23.03c7.29 4.08 19.7 13 14.99 15.97-5.89 3.71-9.94 20.06-20.04 29.35Z"/><path fill="#001647" fill-opacity=".2" d="M1070.57 1097c2.57 1.5 4.15 2.56 5.04 3.22-1.06-1.17-2.61-3.49-2.61-6.72 0-3.83 2.16-1.29 4.36 2 39.18 58.54 60.44 152.32 140.93 149.51 68.01-2.38 82-26.73 87.63-41.57 2.11 27.86-33.66 76.22-108.41 71.17-74.75-5.05-95.44-77.71-118.86-120.18l-5.65-26.27-15.5-22.28 1.5-3.38h4.5l7.07-5.5ZM1243.44 1128.16c-26.6-2.08-46.15-20.43-52.61-29.34l1.27-4.83 37.45-11.61 37.53 2.23 33.73 22.53c-5.62 5.45-30.77 23.11-57.37 21.02Z"/><path fill="#120701" fill-opacity=".2" d="M954 1008.5c60.4 12.8 104.83 61 119.5 83.5l-10.5 16-6.5-16-69-56-33.5-27.5Z"/><path stroke="#000" stroke-linecap="round" stroke-miterlimit="10" stroke-width="20" d="M1061 1108s20.72-6.16 30-24M1084 1145s25.15-8.2 35-27M827.5 1005s57.16 25.28 115-4.5c33.57-22.61 73-21.1 73-21.1M1299.01 1110.23c-1.53 13.97-28.09 26.64-58.12 23.37-30.03-3.27-53.14-21.27-50.61-35.21"/></g><defs><clipPath id="a"><path fill="#fff" d="M0 0h1500v1500H0z"/></clipPath></defs>
      <g clip-path="url(#prefix__clip0_53_25878)"><path d="M358.007 603.505l-35.094-66.474s14.559-77.798 61.586-98.155c47.284-20.477 100.011-44.032 100.011-44.032l125.765-51.621 140.978-44.655 107.015-13.297 60.517-11.761 64.444-1.319 68.311 2.442s-5.87-21.168 49.57 20.824c69.89 52.898 17.73 171.573 17.73 171.573l-26.67 15.714-149.833 58.17-143.667 36.011-218.556 28.191-189.255 2.917-32.852-4.528z" fill="#265CC2"/><path d="M358.054 602.428l16.232 48.253 17.081 19.493 202.9-8.586 240.32-27.99 238.913-72.436 49.06-27.654-15.41-53.759-218.011 75.678-113.521 23.596-195.413 25.08-222.151-1.675z" fill="#FFBF44"/><path d="M551.379 669.503s217.022 55.725 380.917 44.215c163.894-11.51 232.174-52.101 232.174-52.101s47.7-25.484 4.93-82.055c-42.77-56.571-75.09-35.68-75.09-35.68S967.095 605.161 760.635 646.12l-209.256 23.383z" fill="#265CC2"/><path d="M1020.05 452.516l-38.165-15.776-36.54 29.122a4.78 4.78 0 01-2.212.949 3.746 3.746 0 01-2.196-.338 3.108 3.108 0 01-1.45-1.509 3.621 3.621 0 01-.223-2.179l9.095-42.955-34.401-21.209a3.096 3.096 0 01-1.318-1.636 3.698 3.698 0 01-.043-2.218 4.697 4.697 0 011.232-2.046 4.776 4.776 0 012.084-1.188l43.437-10.699 14.949-42.171a4.956 4.956 0 011.453-1.84 4.85 4.85 0 012.14-.964 4.109 4.109 0 012.174.192c.649.256 1.2.708 1.577 1.291l17.986 36.335 43.641-4.8c.76-.09 1.52.053 2.19.409.63.355 1.12.912 1.39 1.578.27.707.32 1.481.13 2.214a4.58 4.58 0 01-1.17 2.084l-32.33 33.107 12.28 39.126c.21.733.19 1.512-.05 2.234a4.717 4.717 0 01-1.32 2.01c-.6.547-1.34.93-2.14 1.112-.75.177-1.53.13-2.25-.135l.05-.1z" fill="#FFBF44"/><path d="M599 600c-20-119.6 23.666-222.167 48-258.5-36 0-190.334 65.333-263 98-18.5 13.833-55.6 49.9-56 83.5-.4 33.6 21.833 69 33 82.5l20 58 65.5 7.5L576 659c-2-20-.834-40.667 0-48.5l23-10.5z" fill="#001647" fill-opacity=".2"/><path d="M1134.2 399.661a361.454 361.454 0 01-29.9 76.354c18.64 24.238 13.33 60.514 13.33 60.514-324.026 154.93-732.062 128.287-732.062 128.287-23.525-21.767-24.781-59.762-24.781-59.762-15.508-13.993-27.059-31.85-34.394-58.91-10.164-37.484 8.917-68.861 44.59-92.054 117.541-76.475 414.81-183.638 648.267-182.717 78.03.326 134.86 52.764 114.95 128.288zM360.837 606.128S773.303 641.122 1105 475.614" stroke="#000" stroke-width="20" stroke-miterlimit="10"/><path d="M523.543 665.942s307.957 94.558 630.907.949c39.05-11.32 43.66-53.188 21.17-79.902-16.44-19.591-36.73-39.413-57.57-49.481" stroke="#000" stroke-width="20" stroke-miterlimit="10"/></g><defs><clipPath id="prefix__clip0_53_25878"><path fill="#fff" d="M0 0h1500v1500H0z"/></clipPath></defs>
      
    </g>
    </svg>