<svg
      xmlns="http://www.w3.org/2000/svg"
      preserveAspectRatio="xMidYMin meet"
      fill="none"
      viewBox="0 0 1500 1500"
    >
      <g>
      <path fill="url(#prefix__paint0_linear_53_30463)" d="M0 0h1500v1500H0z"/><defs><linearGradient id="prefix__paint0_linear_53_30463" x1="1500" y1="1500" x2="0" y2="0" gradientUnits="userSpaceOnUse"><stop stop-color="#FF5A5A"/><stop offset="1" stop-color="#FFBDBD"/></linearGradient></defs>
      <g clip-path="url(#prefix__clip0_53_27489)"><path d="M460.5 1094.5c-138.4 66.4-174 309.33-174.5 422.5h983.5c-12.5-72.17-53.2-244.1-116-354.5-78.5-138-520-151-693-68z" fill="#99C4CB"/><path d="M814.5 1339c-132.8-90.8-222.333-220.83-250.5-274.5 220.8-38.8 400.333-4.17 462.5 18-27.2 103.6-152.667 214.17-212 256.5z" fill="#ABF"/><path d="M884 1393l153 107.5H884l-134-99-121-113-68-76.5-87.5-118 16.5-4 31.5-13 39.5-12.5 95 136.5 159.5 139L923 1237.5l52.5-51.5 56.5-105 29 11.5 33 17 2.5 14-37 81.5-71 92.5L884 1393z" fill="#fff"/><path d="M499.998 1213.5c-101.2 100-117.834 249-113.5 311l-99.502-13c-1.6-110.8 39-247.5 59.5-302l39.501-52.5 15.5-20.5 66.5-42.5c149.6-59.6 294-54.83 347.5-45-39.584 8.27-114.025 31.61-188.997 72.62a710.622 710.622 0 00-19 10.78c-24.668 14.51-49.078 30.97-72 49.47L690 1351.5 880 1500l8 21.5c-127.8-59.4-298.795-240.83-366.942-328-5.822 5.19-15.516 14.52-21.06 20z" fill="#001647" fill-opacity=".2"/><path d="M289.5 1512.5c-6-101.5 31-323.03 140.5-398 158.5-108.51 616.5-87 706.5 26 64.91 81.5 99.5 222.5 132.5 371M1084.5 1337c12.33 37 29.5 110.3 43.5 175.5m-646.5 0c.333-32.83 7.7-107.6 20.5-157" stroke="#000" stroke-width="20" stroke-linecap="round"/><path d="M813.56 1341.57S967.5 1242.5 1026.5 1083m-212.94 258.57C725.5 1270 627 1177.5 563 1060m250.56 281.57C866.706 1384.05 991.7 1478 1066.5 1514m-589-421.5c47.333 82.17 199 281.5 427 421.5m-25-121.76s174.01-131.44 217.5-283.74" stroke="#000" stroke-width="20" stroke-miterlimit="10"/></g><defs><clipPath id="prefix__clip0_53_27489"><path fill="#fff" d="M0 0h1500v1500H0z"/></clipPath></defs>
      <g clip-path="url(#prefix__clip0_299_662)"><path d="M775 1185c231.41 0 419-168.12 419-375.5 0-207.383-187.59-375.5-419-375.5-231.407 0-419 168.117-419 375.5 0 207.38 187.593 375.5 419 375.5z" fill="#ABF"/><path d="M457.5 796c7.6 194 131.833 327.5 193 370l-130-55.5L438 1034l-57.5-89.5-27-106 11-104L394 662l45-82.5 83.5-69.5 109-54.182 28.5-1C569.452 513.314 451.119 633.132 457.5 796z" fill="#001647" fill-opacity=".2"/><path d="M775 1185c231.41 0 419-168.12 419-375.5 0-207.383-187.59-375.5-419-375.5-231.407 0-419 168.117-419 375.5 0 207.38 187.593 375.5 419 375.5z" stroke="#000" stroke-width="20"/></g><defs><clipPath id="prefix__clip0_299_662"><path fill="#fff" d="M0 0h1500v1500H0z"/></clipPath></defs>
      <g clip-path="url(#prefix__clip0_53_29395)" stroke="#000" stroke-width="20" stroke-miterlimit="10" stroke-linecap="round"><path d="M701.129 783a76.42 76.42 0 00120.5 0M988.75 783a76.436 76.436 0 0060.25 29.41c11.62 0 23.08-2.649 33.52-7.745A76.462 76.462 0 001109.25 783"/><path d="M914.5 1058.5c8.9 0 17.6-2.64 25.001-7.58a45.056 45.056 0 0016.574-20.2 45.004 45.004 0 00-32.796-61.355 44.995 44.995 0 00-46.195 19.134A45 45 0 00914.5 1058.5z" fill="#000"/></g><defs><clipPath id="prefix__clip0_53_29395"><path fill="#fff" d="M0 0h1500v1500H0z"/></clipPath></defs>
      <g clip-path="url(#prefix__clip0_53_27350)"><path d="M695 882.421v6.14a7.746 7.746 0 01-.67 3.22c-1.26 2.86-3.34 3-3.34 3a7.817 7.817 0 01-6.39-1.32c-2.64-2.11-9.24-20.21-9.24-20.21l-12.71 20.21H654l17.8-28.21-5.59-11.59a4.654 4.654 0 00-4.07-2.64H662a4.724 4.724 0 00-4.13 1.7c-.89.89-1.21 3.78-1.21 3.78l-1.78.13a22.972 22.972 0 01-.13-5.28 7.776 7.776 0 011.34-3.76 5.694 5.694 0 014.83-2.61 7.816 7.816 0 014.51 1.43 8.67 8.67 0 013 3.74l5.26 13.05 11.44-17.4H693l-15.8 24.51 3.94 9.32s3 9 7.31 9 4.71-6.22 4.71-6.22l1.84.01z" fill="#000"/></g><defs><clipPath id="prefix__clip0_53_27350"><path fill="#fff" d="M0 0h1500v1500H0z"/></clipPath></defs>
      <g clip-path="url(#prefix__clip0_53_29601)"><path d="M276.36 892.872l5.15-57.711s19.71-62.819 22.75-74.129c3.04-11.31 8.7-32.2 15.23-44.81 6.53-12.61 12.18-23.93 19.58-37.85 7.4-13.92 13.42-31.37 16.93-35.68 3.51-4.31 8.3-19.14 8.3-19.14V434.5l10.201-35 197.319-84.408 188.38-35.24h212.31L990.501 303 1073 493.902l94.73 84.68s15.77 29.26 17.08 31c1.31 1.74 9.22 10.47 9.18 13.51-.04 3.04 4.31 7.84 6 10.45 1.69 2.61 8.7 10 10.44 12.61 1.74 2.61 8.7 10 11.31 14.8 2.61 4.8 3.48 4.78 6.09 11.74s3.92 9.57 7 17.4c3.08 7.83 5.22 12.62 5.22 12.62s-8.26 2.61-13.49 0-64.82-17.4-77-20.88c-12.18-3.48-12.18-3.92-34.37-3.48-22.19.44-48.29.87-53.51.43-5.22-.44-50.47-.87-67-1.3-16.53-.43-36.55-.44-36.55-.44l-96.58 6.53s-54 4.35-76.57 6.52c-22.57 2.17-47.86 7-57 10s-2.61 3.92-43.94 10-159.23 46.11-159.23 46.11l-109.61 43.98-83.53 39.59-29.58 23.5-25.73 29.6z" fill="#4AEEB9"/><path d="M362.69 914.781l-1.91-6.78s-9.39-28.19-13.14-64.29l-16.37 1s-16.93 9.73-24.8 17.26c-7.87 7.53-26.69 25.32-27.89 26.18-1.2.86-3.59 1.88 0 6s7 11.12 14.54 12.83c7.54 1.71 20.53 4.79 28.74 5 8.21.21 25.32-.85 28.91-.34s11.92 3.14 11.92 3.14zM1186 699.12s9.64 29.47 12.46 49.78l5.49 5.53s10.52-4.45 17-7.86a139.23 139.23 0 0017.2-10.53c3.7-2.82 11.12-8 11.41-9.27.29-1.27 1.44-12.95.83-14.34-.61-1.39-.68-2-11.88-7.83a206.613 206.613 0 00-23-9.78c-1.63-.74-26.39-3.41-26.39-3.41l-3.12 7.71z" fill="#4AE4B9"/><path d="M347.5 839c4 46 12.333 70.833 16.5 77.5l-72-4.5-14-16.5 3.5-74.5 25.5-90.5 57-101-3.5-40 4-174.5 30.5-21.5 103-43c-20.8 90.4 2.333 194.667 16.5 235.5L742 525.5l129-8c31.5-2 97.7-5.2 110.5-2 9.221 2.305 9.308 6.998 7.141 10.75-1.583 2.741-4.867 3.739-8.033 3.749-47.475.142-158.531 4.629-261.608 22.001-106.8 18-197.167 53.833-229 69.5-30 43.2-60.167 133-71.5 172.5l-71 45zM1238 737l-37 23c-10.14-51.813-16.66-65.682-19.08-66.5l2.58-7.5 53.5 20.5 12 14.5-12 16z" fill="#001647" fill-opacity=".2"/><path d="M373.46 917.089h-4.68c-56.19-.07-90.26-6.42-92.68-19.56-6.33-34.45 190.66-148.001 460.41-197.561s510.1-16.39 516.43 18.06c2.19 11.92-22 27.87-65.63 45.69" stroke="#000" stroke-width="20" stroke-miterlimit="10"/><path d="M276.1 897.541l1-17.88a499.377 499.377 0 0181.09-246.72 24.218 24.218 0 003.89-15.35l3.69-190.4a30.898 30.898 0 0116.44-28.53l22.51-11.9c179.675-83.744 337.78-120.151 535.49-105.76l25.27 3.12a30.913 30.913 0 0125.52 20.88l81.9 182.72a24.306 24.306 0 008.74 11.85 499.295 499.295 0 01164 202.15l7.27 16.37" stroke="#000" stroke-width="20" stroke-miterlimit="10"/><path d="M452.22 609.6c169.083-69.754 347.945-103.167 530.779-98.07" stroke="#000" stroke-width="20" stroke-miterlimit="10" stroke-linecap="round"/><path d="M709.006 375.499l25.671 20.944-36.237 39.239-35.571-29.039L613 460.625 630.573 475l36.396-39.381 35.56 29.005 49.778-53.766L778 431.802 769.987 375l-60.981.499z" fill="#fff"/></g><defs><clipPath id="prefix__clip0_53_29601"><path fill="#fff" d="M0 0h1500v1500H0z"/></clipPath></defs>
      
    </g>
    </svg>