<svg
      xmlns="http://www.w3.org/2000/svg"
      preserveAspectRatio="xMidYMin meet"
      fill="none"
      viewBox="0 0 1500 1500"
    >
      <g>
      <path fill="url(#prefix__paint0_linear_53_28789)" d="M0 0h1500v1500H0z"/><defs><linearGradient id="prefix__paint0_linear_53_28789" x1="1500" y1="1500" x2="0" y2="0" gradientUnits="userSpaceOnUse"><stop stop-color="#FFD130"/><stop offset="1" stop-color="#FFEEDB"/></linearGradient></defs>
      <g clip-path="url(#prefix__clip0_53_28586)"><path d="M1263 1500H289.33l3.73-66.49 17.17-107.35L358 1203l53.62-74.7s38.18-26.49 102.86-54.62S725 1044 725 1044s197-4.48 350.16 55.11C1228.32 1158.7 1263 1500 1263 1500z" fill="#ABF"/><path d="M1122 1500H482.72s14.6-102.81 14.89-104.16c.29-1.35 16.56-62.7 16.56-62.7l45.26-67.61s16.251-30.11 21.61-70.63c4.913-37.15-1.081-84.95 0-86.07 2.26-2.34 4.64-50.26 4.64-50.26l5.36 2.13 72.57-6.85v.09c.09.44.55 2.47 1.49 5.71l.18.63c.12.43.26.88.4 1.35 0 .12.07.23.11.35.09.32.19.64.29 1a.472.472 0 000 .13c3.442 10.98-6.036 73.44 9.92 119.89 20.159 58.69 69.608 102.92 111.27 108.84 1.72.24 3.42.46 5.09.65 46.42 5.32 75.09-9.26 91.78-24.17.21-.18.41-.37.61-.56 14.4-13.07 19.65-26.22 19.65-26.22l8-46.64-16.9-141.05 87 18.15 9.99 63.79 28.54 95.42 43 72 35.15 98.54L1122 1500z" fill="url(#prefix__paint0_linear_53_28586)"/><path d="M970.546 1333.16l5.179-10.34 18.683 25.59.442 4.9-3.038-33.78a2.8 2.8 0 00-.45-1.16 2.799 2.799 0 00-.906-.87l-31.07-17a2.598 2.598 0 00-1.129-.26c-.391 0-.777.09-1.129.26-.09.04-.177.09-.26.15l-.096.07-27.231 16.63-.107.05c-.144.07-.279.16-.403.26-.251.19-.459.43-.611.71-.151.28-.243.59-.269.9-.006.1-.006.2 0 .3l2.474 27.54 13.202-23.72c1.649-3.14 5.757-4.16 9.656-4.1l4.581.12-23.12 43.19 3.337 1.82 23.287-44.98 12.045-.05-23.116 46.12 11.909 6.52 1.423.78c.583.23 1.229.25 1.821.04l28.446-17.38-5.432 3.34-18.118-25.65zm5.283 33.48l-13.03-17.95 5.936-11.85 17.117 23.68-10.023 6.12z" fill="#2D374B"/><path d="M962.799 1348.68l13.03 17.95 10.023-6.11-17.122-23.69-5.931 11.85zM994.853 1353.31l-.443-4.9-18.683-25.58-5.184 10.33 18.121 25.65 5.442-3.32a2.326 2.326 0 00.78-1.85l-.033-.33z" fill="#28A0F0"/><path d="M926.44 1357.94l8.506 4.66 23.121-43.2-4.581-.11c-3.902-.06-8.007.95-9.656 4.1l-13.202 23.72-4.446 7.9.26 2.94-.002-.01zM973.625 1319.4l-12.046.05-23.285 44.98 10.013 5.49 2.203-4.4 23.115-46.12z" fill="#fff"/><path d="M996.926 1319.34a8.612 8.612 0 00-1.378-3.56 8.557 8.557 0 00-2.784-2.61l-31.477-17.22a7.727 7.727 0 00-3.436-.8c-1.192 0-2.367.27-3.436.8-.24.12-27.64 16.87-27.64 16.87a6.85 6.85 0 00-3.764 6.51l3.166 35.67 4.446-7.91-2.474-27.52c-.014-.37.06-.73.215-1.07.155-.33.387-.62.677-.84.128-.1 27.998-17.1 28.095-17.15.352-.17.738-.26 1.129-.26s.776.09 1.129.26l31.07 17.01c.362.21.672.51.907.86.234.35.387.75.448 1.16l3.013 34.1a2.259 2.259 0 01-.721 1.85l-5.45 3.32-2.804 1.72-10.031 6.12-10.171 6.21c-.591.21-1.238.19-1.821-.04l-13.329-7.29-2.203 4.39 11.981 6.56c.396.22.747.41 1.041.56.447.24.752.4.858.45.974.42 2.022.63 3.08.63.94 0 1.872-.17 2.745-.52l29.551-18.04a6.97 6.97 0 001.894-2.58c.421-1 .608-2.08.533-3.16l-3.059-34.48z" fill="#8BBFDF"/><path d="M591 1062.25V1172a195.34 195.34 0 01-46.65 126.63 106.083 106.083 0 00-20.67 37.44 721.566 721.566 0 00-30.63 159.2c-.12 1.56-.24 3.12-.34 4.69h-20v-.69a741.634 741.634 0 0131.88-169.14 125.754 125.754 0 0124.55-44.47c27.011-31.71 41.85-72 41.86-113.66v-109.79c0-2.65 1.054-5.2 2.929-7.07a9.981 9.981 0 017.071-2.93 9.981 9.981 0 017.071 2.93 9.994 9.994 0 012.929 7.07v.04zM1132 1499.99h-20.2l-.09-.45c-13.68-67.64-25.68-115.81-49.89-176.59a229.608 229.608 0 00-22.36-42.48 355.4 355.4 0 01-51.359-119.1l-5.1-22.21-11.526-66.69a9.987 9.987 0 011.282-7.54 10.006 10.006 0 0113.789-3.15 10.006 10.006 0 014.429 6.24l1.017 4.45 15.588 84.45a336.018 336.018 0 0048.48 112.43c9.7 14.51 17.86 29.99 24.32 46.2 24.77 62.18 37 111.24 50.91 180l.5 2.47c.14.65.21 1.31.21 1.97z" fill="#000"/><path d="M659.5 1051l15.11 128.85c15.21 64.94 82.8 119.21 147.64 114.37 64.84-4.84 105.05-61.36 89.84-126.36L893.5 1051" stroke="#000" stroke-width="20" stroke-miterlimit="10" stroke-linecap="round"/><path d="M500.002 1213.5c-101.2 100-117.834 249-113.5 311l-99.502-13c-1.6-110.8 39-247.5 59.5-302l39.501-52.5 15.5-20.5 66.5-42.5c149.6-59.6 294-54.83 347.5-45-63 13.17-214.299 64.5-315.499 164.5z" fill="#001647" fill-opacity=".2"/><path d="M289.5 1512.5c-6-101.5 31-323.03 140.5-398 158.5-108.51 616.5-87 706.5 26 64.91 81.5 99.5 222.5 132.5 371" stroke="#000" stroke-width="20" stroke-linecap="round"/></g><defs><linearGradient id="prefix__paint0_linear_53_28586" x1="595.499" y1="1136" x2="921.5" y2="1534" gradientUnits="userSpaceOnUse"><stop stop-color="#fff"/><stop offset="1" stop-color="#ECECEC"/></linearGradient><clipPath id="prefix__clip0_53_28586"><path fill="#fff" d="M0 0h1500v1500H0z"/></clipPath></defs>
      <g clip-path="url(#prefix__clip0_299_662)"><path d="M775 1185c231.41 0 419-168.12 419-375.5 0-207.383-187.59-375.5-419-375.5-231.407 0-419 168.117-419 375.5 0 207.38 187.593 375.5 419 375.5z" fill="#ABF"/><path d="M457.5 796c7.6 194 131.833 327.5 193 370l-130-55.5L438 1034l-57.5-89.5-27-106 11-104L394 662l45-82.5 83.5-69.5 109-54.182 28.5-1C569.452 513.314 451.119 633.132 457.5 796z" fill="#001647" fill-opacity=".2"/><path d="M775 1185c231.41 0 419-168.12 419-375.5 0-207.383-187.59-375.5-419-375.5-231.407 0-419 168.117-419 375.5 0 207.38 187.593 375.5 419 375.5z" stroke="#000" stroke-width="20"/></g><defs><clipPath id="prefix__clip0_299_662"><path fill="#fff" d="M0 0h1500v1500H0z"/></clipPath></defs>
      <g clip-path="url(#prefix__prefix__clip0_53_29477)"><path d="M1046 825a40.998 40.998 0 0037.88-25.31 41.043 41.043 0 002.33-23.689 40.939 40.939 0 00-11.22-20.992 40.99 40.99 0 00-44.68-8.888 40.977 40.977 0 00-18.4 15.101 40.996 40.996 0 005.1 51.769A41.006 41.006 0 001046 825z" fill="#000"/><path d="M729.63 808.821l88.08-16a7.737 7.737 0 006.23-6.4 7.757 7.757 0 00-.73-4.64 7.674 7.674 0 00-3.27-3.35l-82.39-43.72m99.27 256.728c38.57 39.211 113.35 39.211 151.93 0" stroke="#000" stroke-width="20" stroke-miterlimit="10" stroke-linecap="round"/></g><defs><clipPath id="prefix__prefix__clip0_53_29477"><path fill="#fff" d="M0 0h1500v1500H0z"/></clipPath></defs>
      <g clip-path="url(#prefix__clip0_53_26707)"><path d="M1086 1014c0 39.21-75.66 71-169 71-93.336 0-169-31.76-169-71 0-39.241 75.664-101 169-101 93.34 0 169 61.788 169 101z" fill="#ABF"/><path d="M797.83 990.76s-2.26-46.71 35.63-47.76l12.4-.07 3.7 53.67-51.73-5.84zM796.078 999.77h59.58l3.78 54.84-37.21-2.24-13.26-25.18-12.89-27.42z" fill="#C6C6C6"/><path d="M845.859 942.93l34.49 8.62 26.47-3.52 5.08 50.29-56.24 1.45-9.8-56.84z" fill="#C6C6C6"/><path d="M910.488 947.172h68.54l.03 51.15h-67.16l-1.41-51.15zM983.589 944.871l17.001 2.3 24.03 9.66 9.05 28.5-.91 12.99h-53.701l4.53-53.45z" fill="#C6C6C6"/><path d="M849.559 996.602l62.34 1.72 7.38 54.048-59.84 2.24-9.88-58.008zM918.461 999.77h64.2l-8.03 54.84-55.35-2.24-.82-52.6z" fill="#C6C6C6"/><path d="M975.289 994.512l63.171 5.26-6.4 30.408-34.761 26.48-17.86-2.05-4.15-60.098z" fill="#C6C6C6"/><path d="M797.489 985.841c-1.87-27.17 21.28-47.59 48.37-42.91 20 3.45 43.93 5.16 69 5.16s48.63-1.84 68.06-5.36c26.511-4.82 52.631 15.6 54.521 42.87l1.08 15.709c2 29.44-20.17 53.3-49.601 53.3h-133.4c-29.43 0-54.94-23.86-57-53.3l-1.03-15.469zM798.352 998.309h234.408M912.512 954.172l6.78 98.198M845.031 947.172l14.26 105.198M979.031 947.172l.26 105.198" stroke="#000" stroke-width="20" stroke-miterlimit="10"/><path d="M830.5 966l2 14m63-13l1 14m-59 37l2 14m60-15l1 14m61-65v15m0 36v18m56-59v6m0 35v7" stroke="#fff" stroke-width="8" stroke-linecap="round"/></g><defs><clipPath id="prefix__clip0_53_26707"><path fill="#fff" d="M0 0h1500v1500H0z"/></clipPath></defs>
      <g clip-path="url(#prefix__clip0_53_25108)"><path d="M661.719 466.274s.681-50.314 11.212-50.049c10.53.266 30.241-4.165 30.241-4.165l31.002 15.989 25.638-5.424 28.99-24.747 27.071-1.791 27.883 14.121 15.446 18.681 23.411.145 50.96-13.954 24.276 23.68-19.232 52.574-44.507-21.369-17.617-6.041-23.175-7.036-28.05-1.943-32.388-.112-55.638 3.68-50.45 8.949-25.073-1.188z" fill="#97A5DE"/><path d="M718.506 479.214s19.322 40.453 64.014 34.31c44.692-6.143 83.522-32.583 83.522-32.583l10.406-17.065-81.463-14.775-84.096 14.041s-8.664 11.898 7.617 16.072z" fill="#7985B4"/><path d="M662.843 469.488s-13.534-58.554 30.087-60.287c15.493-.614 25.434 4.992 32.226 12.21 13.894 14.755 29.392 7.707 38.346-2.386 11.842-13.391 27.482-26.021 44.854-27.17 20.226-1.338 34.215 14.393 42.889 29.474 6.094 10.621 21.799 13.651 33.204 6.683 11.953-7.315 28.35-12.9 48.081-8.683 42.964 9.245 6.064 69.091 6.064 69.091" stroke="#000" stroke-width="18.1" stroke-miterlimit="10" stroke-linecap="round"/><path d="M630.048 507.636s25.276-45.068 51.452-39.634c40.502 8.395 74.399 69.733 74.399 69.733M800.818 537.27s38.761-65.501 93.251-67.301c54.49-1.801 48.429 57.93 48.429 57.93M682 468s137.209-40.275 226.409 2.982M736.796 506.5s35.103 14.655 86.489 1.675" stroke="#000" stroke-width="20" stroke-miterlimit="10" stroke-linecap="round"/><path d="M633.444 684.097l-56.674-35.609c65 69.011 27.083 111.342 0 123.88-78.641 22.469-92.284-37.113-89.275-69.713l17.554-48.65-31.597 30.092c-28.755 20.898-89.474 43.033-102.314-35.609-12.839-78.642 62.86-79.243 102.314-69.713l-24.073-12.539c-31.764-22.235-79.644-75.932-17.052-112.845 62.592-36.913 93.286 29.758 100.809 67.708l11.034 17.051v-17.051c10.866-47.646 47.044-127.893 104.821-67.708s-1.337 102.982-38.117 116.857h64.197c18.557-.501 54.066 11.937 47.646 65.702-6.419 53.764-62.19 54.5-89.273 48.147z" fill="#53B6F9"/><path d="M550.448 546.877s-14.555-56.172 21.065-90.929c54.577-53.343 138.093 26.682 88.27 84.53-15.206 17.674-33.763 19.239-75.381 37.294M509.964 634.445s-19.921 54.587-68.831 63.876c-75.01 14.253-102.093-101.13-28.668-121.804 22.449-6.309 39.752 1.766 84.409 9.74M591.735 593.431s49.632-40.665 95.563-21.346c70.346 29.581 29.089 137.622-43.594 114.221-22.198-7.152-34.435-18.186-67.206-49.582M567.741 646.231s48.308 26.602 43.594 76.154c-7.232 75.973-122.666 68.801-122.024-7.513.2-23.312 2.477-33.413 32.559-70.216M492.721 571.754s-60.816-1.816-80.517-47.526c-30.223-70.065 74.428-116.979 110.579-49.773 11.034 20.533 9.028 31.346 10.924 76.675" stroke="#000" stroke-width="20" stroke-miterlimit="10"/><path d="M542.815 652.773a57.176 57.176 0 10-.003-114.352 57.176 57.176 0 00.003 114.352z" fill="#FFBF44" stroke="#000" stroke-width="20" stroke-miterlimit="10"/><path d="M585 497c8-34.8 36-45.833 49-47-10.5-3.333-31.9-10-33.5-10-1.6 0-20.667 6.667-30 10L549 491l-10.5 45c.167-7.167.1-23.6-1.5-32-1.6-8.4-8.667-23.833-12-30.5L508.5 455l-26-10-24 5-37 9.5c-3.833 16.667-11.4 50.4-11 52 .4 1.6 23.833 40 35.5 59L379 593c-6.333 15.5-14.6 54.2 3 85 17.6 30.8 76.667 15.167 104 3.5 2 6.5 7.6 27.3 14 58.5s35.334 34.667 49 32.5c-2.833-2.667-9.3-16.7-12.5-51.5-3.2-34.8 7-55.167 12.5-61v-8.5c-10.166-2.333-30.899-15.6-32.499-50-1.6-34.4 24-51 37-55l39.499 19c-6-8.333-16-33.7-8-68.5z" fill="#001647" fill-opacity=".2"/></g><defs><clipPath id="prefix__clip0_53_25108"><path fill="#fff" d="M0 0h1500v1500H0z"/></clipPath></defs>
      
    </g>
    </svg>