<svg
      xmlns="http://www.w3.org/2000/svg"
      preserveAspectRatio="xMidYMin meet"
      fill="none"
      viewBox="0 0 1500 1500"
    >
      <g>
      <path fill="url(#prefix__paint0_linear_53_28789)" d="M0 0h1500v1500H0z"/><defs><linearGradient id="prefix__paint0_linear_53_28789" x1="1500" y1="1500" x2="0" y2="0" gradientUnits="userSpaceOnUse"><stop stop-color="#FFD130"/><stop offset="1" stop-color="#FFEEDB"/></linearGradient></defs>
      <g clip-path="url(#a)"> <path fill="#F8CF47" d="M1262.8 1506.5H289.2l3.7-72.5 22.2-107.3L351 1204l56.5-72.5s33.8-23.9 98.5-52 225-35.5 225-35.5 187.3-9 340.5 50.5c153.2 59.6 191.3 412 191.3 412Z"/> <path fill="#000" fill-rule="evenodd" d="m973.8 1356.7 18 2.6 11.2-18-4-2.8 3.2-4.6-4-2.8-3 4.9-4-2.8-7 11-11.4-1.8-8.9-26.4-3.6 1 3.4 9.5-5.3 1.5-3.5-9.4-3.9 1 7.7 21.3-17.5-2.6-11.2 18 4 2.8-3 4.8 4 2.8 2.8-5 3.8 2.5 7-11.3 11.2 1.5.8 7.7-17.3 9 2 20.5h4.6l.6 6.4h4.5l-.6-6.2h4.5l-1.2-11.7 11-5.7 12 5.7 1.2 11.8h4.5l.6 6.1h4.5l-.6-6.2h4.7l-2-20.5-19.2-9.2-.6-5.4Zm-1-10 13.5 2.1 6.2-10 .5.3 4 2.8.6.2-8 12.9-16.2-2.4-.6-5.8Zm-26.3 2.1-6.2 10-4.9-3.3 8-12.8 15.5 2.3.6 5.8-13-2Zm43.8 24.9 1.4 14H986l-1-10.2-16.4-7.7-14.7 7.7 1 10.3h-6l-1.3-13.9 17.3-9-2.2-23.5-3.4-9.5 5.3-1.6 3.7 11.6 2.3 22.8 19.7 9Z" clip-rule="evenodd"/> <path stroke="#000" stroke-linecap="round" stroke-miterlimit="10" stroke-width="20" d="m807.8 1194.5 10 141.8m-41.8-16.8c0-.6.5-1.1 1-1.1m1.2 1a1 1 0 1 1-2.2 0 1 1 0 0 1 2.2 0Zm-2.2-37.1c0-.6.5-1.1 1-1.1m1.2 1a1 1 0 1 1-2.2 0 1 1 0 0 1 2.2 0Zm-2.2-37.1c0-.6.5-1 1-1m1.2 1a1 1 0 1 1-2.2 0 1 1 0 0 1 2.2 0Z"/> <path stroke="#000" stroke-linecap="round" stroke-width="20" d="M289.5 1512.5c-6-101.5 31-323 140.5-398 158.5-108.5 616.5-87 706.5 26 65 81.5 99.5 222.5 132.5 371M1084.5 1337c12.3 37 29.5 110.3 43.5 175.5m-646.5 0c.3-32.8 7.7-107.6 20.5-157"/> <path fill="#4AEEB9" d="m467.6 1110.5 7.4-39 62.5-15.5 72-5.5 53-8h147l104.5 8 107 8.1 53.6 19-3.8 40.8-21.3 55-90.7 68.1-76.5 24.3-62.8-69.8a20 20 0 0 0-31.6 2.5l-44 67.3-58.9 2.7-143.7-46.2-68.6-65.1-5.1-46.7Z"/> <path stroke="#000" stroke-width="20" d="M535 1214c-83.6-40.4-76.5-113.2-62.5-144.5 266-49.2 513.5-20.2 604 .5 21.4 119.7-113.1 181.3-188.3 198.7-3.5.9-7.2-.4-9.6-3.2l-54.1-62.5a21 21 0 0 0-32.3.6l-50 62.4c-2 2.5-5 4-8.3 3.7A610.8 610.8 0 0 1 535 1214Z"/> <path fill="#001647" fill-opacity=".2" d="M489 1227.5c-82.4 87.6-103 222.5-103 279h-97l5.5-106.5c6.7-44.8 30.2-150.7 71-215.5 40.8-64.8 83-83 99-84l9-27h22L547 1062l151-16.5h113.5c-160.4 46.4-265.5 121.3-298 153l120 56.5 103 23.5c-123.6 19.6-216.5-25.8-247.5-51Zm370.2 48.3-44.2-46.3-3-28.5 74.5 69c-.4 2.8-4.2 6-8.5 8.8-6 4-13.8 2.2-18.8-3Z"/> </g> <defs> <clipPath id="a"> <path fill="#fff" d="M0 0h1500v1500H0z"/> </clipPath> </defs>
      <g clip-path="url(#prefix__clip0_299_662)"><path d="M775 1185c231.41 0 419-168.12 419-375.5 0-207.383-187.59-375.5-419-375.5-231.407 0-419 168.117-419 375.5 0 207.38 187.593 375.5 419 375.5z" fill="#ABF"/><path d="M457.5 796c7.6 194 131.833 327.5 193 370l-130-55.5L438 1034l-57.5-89.5-27-106 11-104L394 662l45-82.5 83.5-69.5 109-54.182 28.5-1C569.452 513.314 451.119 633.132 457.5 796z" fill="#001647" fill-opacity=".2"/><path d="M775 1185c231.41 0 419-168.12 419-375.5 0-207.383-187.59-375.5-419-375.5-231.407 0-419 168.117-419 375.5 0 207.38 187.593 375.5 419 375.5z" stroke="#000" stroke-width="20"/></g><defs><clipPath id="prefix__clip0_299_662"><path fill="#fff" d="M0 0h1500v1500H0z"/></clipPath></defs>
      <g clip-path="url(#prefix__clip0_53_29200)"><path d="M764.05 848.209c35.186 0 63.71-28.524 63.71-63.71s-28.524-63.71-63.71-63.71-63.71 28.524-63.71 63.71 28.524 63.71 63.71 63.71z" fill="#000" stroke="#000" stroke-width="20" stroke-miterlimit="10"/><path d="M781.551 780c14.083 0 25.5-11.417 25.5-25.5s-11.417-25.5-25.5-25.5-25.5 11.417-25.5 25.5 11.417 25.5 25.5 25.5zM740.552 791.381c6.009 0 10.88-4.871 10.88-10.88s-4.871-10.88-10.88-10.88-10.88 4.871-10.88 10.88 4.871 10.88 10.88 10.88zM772.151 826.571c10.548 0 19.1-8.551 19.1-19.1 0-10.549-8.552-19.1-19.1-19.1-10.549 0-19.1 8.551-19.1 19.1 0 10.549 8.551 19.1 19.1 19.1z" fill="#fff"/><path d="M1051.05 848.209c35.19 0 63.71-28.524 63.71-63.71s-28.52-63.71-63.71-63.71-63.71 28.524-63.71 63.71 28.52 63.71 63.71 63.71z" fill="#000" stroke="#000" stroke-width="20" stroke-miterlimit="10"/><path d="M1068.55 780c14.08 0 25.5-11.417 25.5-25.5s-11.42-25.5-25.5-25.5-25.5 11.417-25.5 25.5 11.42 25.5 25.5 25.5zM1027.55 791.381c6.01 0 10.88-4.871 10.88-10.88s-4.87-10.88-10.88-10.88c-6.01 0-10.88 4.871-10.88 10.88s4.87 10.88 10.88 10.88zM1059.15 826.571c10.55 0 19.1-8.551 19.1-19.1 0-10.549-8.55-19.1-19.1-19.1s-19.1 8.551-19.1 19.1c0 10.549 8.55 19.1 19.1 19.1z" fill="#fff"/><path d="M905 1002.88L923.13 991a26.135 26.135 0 0010.308-30.616 26.144 26.144 0 00-6.148-9.734v0a26.143 26.143 0 00-19.36-7.629 26.155 26.155 0 00-18.8 8.919L873 970.38M905 1003l18.13 11.88a26.115 26.115 0 0110.312 30.61 26.15 26.15 0 01-6.152 9.73v0a26.233 26.233 0 01-8.883 5.84 26.052 26.052 0 01-10.475 1.81 26.056 26.056 0 01-10.33-2.51 26.14 26.14 0 01-8.472-6.42L873 1035.5" stroke="#000" stroke-width="20" stroke-miterlimit="10" stroke-linecap="round"/></g><defs><clipPath id="prefix__clip0_53_29200"><path fill="#fff" d="M0 0h1500v1500H0z"/></clipPath></defs>
      <g clip-path="url(#prefix__clip0_53_27270)"><path opacity=".5" d="M650.33 766.53s-2.59-63.6 77.41-64.6c80-1 105.45 2.24 105.45 2.24l29.55 17.76 13 59.31s1 26 0 31.36c-1 5.36-25.33 41.83-25.33 41.83s-41.37 47.5-90.52 42S666.499 849 666.499 849s-19.759-49.32-20.269-49.69c-.51-.37 4.1-32.78 4.1-32.78zM971.33 725.75s24.62-35.82 106.52-28.32c81.9 7.5 88.3 28.32 88.3 28.32s3.59-3.82 6.59 23.18 6 40 6 40-3 17-4 21-2.41 19-5.21 24-9 15.59-11.4 18.29c-2.4 2.7-11.94 13.84-20.67 20.77-8.73 6.93-28.37 15.28-30 16.61-1.63 1.33-10 8.21-17.32 7.26-7.32-.95-16.4 1.13-32.4.07-16-1.06-58.738-22.431-60.738-26.431s-15-2-20-18-9.902-20.409-11.582-23.989c-1.68-3.58-8.68-9.82-8.68-26.2s5-29.38 6-35.38c1-6 8.59-41.18 8.59-41.18z" fill="#A5F15C"/><path d="M681.5 720.5S687 709.23 739 703l97 169.89s-18 18.68-56.07 18.1L681.5 720.5zM756.58 700.12s-4.78 3.73 13-7.12L856 850.55s5.57 6.48-9 9.45l-90.42-159.88zM991.001 719.382s-1-21.754 50.999-28.382l97 180.731s-18 19.872-56.07 19.255l-91.929-171.604zM1059.58 700.12s-4.78 3.73 13.05-7.12L1159 850.55s5.57 6.48-9 9.45l-90.42-159.88z" fill="#fff" fill-opacity=".3"/><path d="M722.89 697.43h79.71a72.65 72.65 0 0172.65 72.65v13.85a112.499 112.499 0 01-112.5 112.5 112.499 112.499 0 01-112.5-112.5v-13.86a72.653 72.653 0 0172.64-72.64v0zM1028.89 697.43h79.71c19.27 0 37.75 7.654 51.37 21.278a72.63 72.63 0 0121.28 51.372v13.85a112.5 112.5 0 11-225 0v-13.86a72.653 72.653 0 0172.64-72.64v0zM874.6 792.43a68.918 68.918 0 0181.64 0M866 736h98M650.24 755.43l-266.5-60.5" stroke="#000" stroke-width="20" stroke-miterlimit="10"/></g><defs><clipPath id="prefix__clip0_53_27270"><path fill="#fff" d="M0 0h1500v1500H0z"/></clipPath></defs>
      <g clip-path="url(#prefix__clip0_53_25708)"><path d="M500.535 506.546l-86.766 95.707-7.523 25.92-16.551-12.96-123.378 40.875-14.043 29.908 38.117 21.434-11.034 19.939-6.019 32.899 69.213 2.493 20.563-6.979v-23.428l137.421-35.89 281.864-43.866 203.123-20.437 163.498 6.48-33.6-56.826-44.64-50.844-54.16-42.37-85.264-40.376-123.88-18.942L652 439.751l-151.465 66.795z" fill="#99C4CB"/><path d="M694 440.501c-103.2 71.6-160.666 198.166-176.5 252.5L370 722.5l-9.5 37.5-89-3.5 41-55c-25.333 4.833-73.8 8.7-65-14.5 8.8-23.2 106.334-58 154-72.5 21.167-27.666 81.2-92.799 152-131.999 70.8-39.2 123.167-44.334 140.5-42z" fill="#001647" fill-opacity=".2"/><path d="M365.792 728.466c72.883-19.54 500.224-129.064 779.298-89.346a6.808 6.808 0 006.69-2.99 6.798 6.798 0 001.14-3.625 6.771 6.771 0 00-1.01-3.663c-30.29-49.757-159.878-231.859-425.302-199.957-291.002 34.953-357.366 241.26-369.322 291.436a6.753 6.753 0 00.09 3.482 6.788 6.788 0 001.815 2.979 6.887 6.887 0 006.55 1.675l.051.009z" stroke="#000" stroke-width="20" stroke-miterlimit="10" stroke-linecap="round"/><path d="M383.466 645.541s-81.54 45.161-109.476 97.86a10.079 10.079 0 00-1.194 4.686 10.226 10.226 0 001.124 4.705 10.135 10.135 0 003.2 3.649 10.065 10.065 0 004.524 1.765c15.417 1.993 52.882 5.981 78.46 1.565l6.019-31.902" stroke="#000" stroke-width="20" stroke-miterlimit="10" stroke-linecap="round"/><path d="M397.098 616.6s-103.267 16.948-146.53 61.012a10.112 10.112 0 00-2.378 3.824 10.068 10.068 0 001.04 8.705 10.143 10.143 0 003.214 3.163 81.474 81.474 0 0051.307 11.744" stroke="#000" stroke-width="20" stroke-miterlimit="10" stroke-linecap="round"/></g><defs><clipPath id="prefix__clip0_53_25708"><path fill="#fff" d="M0 0h1500v1500H0z"/></clipPath></defs>
      
    </g>
    </svg>