<svg
      xmlns="http://www.w3.org/2000/svg"
      preserveAspectRatio="xMidYMin meet"
      fill="none"
      viewBox="0 0 1500 1500"
    >
      <g>
      <path fill="url(#prefix__paint0_linear_53_30459)" d="M0 0h1500v1500H0z"/><defs><linearGradient id="prefix__paint0_linear_53_30459" x1="0" y1="0" x2="1500" y2="1500" gradientUnits="userSpaceOnUse"><stop stop-color="#FFCB9F"/><stop offset="1" stop-color="#FF7F11"/></linearGradient></defs>
      <g clip-path="url(#prefix__clip0_53_28693)"><path d="M1108.09 1432.16l14.41 71.69h142.41l-32.7-113.79-124.12 42.1zM288.689 1505.57l13.36-113.94 184.06 50.77-2.67 63.17h-194.75z" fill="#ABF"/><path d="M303.471 1382.79L325 1260l56-105.5s64.91-55.22 110.5-71c0 0 87.12-38.32 292.5-41 205.38-2.68 276 52.5 276 52.5l58.65 30.23 39.22 52.98 39.13 78.97 38.22 131.86-127.13 39.32 14.41 72.47-643.659 1.15 7.27-66.62-182.64-52.57z" fill="#A760FF"/><path d="M500.002 1213.5c-101.2 100-117.834 249-113.5 311l-99.502-13c-1.6-110.8 39-247.5 59.5-302l39.501-52.5 15.5-20.5 66.5-42.5c149.6-59.6 294-54.83 347.5-45-63 13.17-214.299 64.5-315.499 164.5z" fill="#001647" fill-opacity=".2"/><path d="M942.58 1333.82L867.34 1275l4.68 40.3h-90l4.29 36.89h90l4.68 40.3 61.59-58.67zm-205.16 55.26l-4.68-40.3L671 1407.6l75.38 58.64-4.66-40.13h90l-4.3-37.05-90 .02z" fill="#fff"/><path d="M289.5 1512.5c-1.965-33.24.683-79.37 8.981-129m970.519 128c-9.49-42.7-19.11-84.78-29.54-125M1084.5 1337c7.13 21.39 15.88 54.92 24.69 92m18.81 83.5c-5.91-27.5-12.37-56.45-18.81-83.5m-627.69 83.5c.172-16.93 2.213-45 5.905-75m14.595-82c-6.201 23.93-11.126 53.81-14.595 82m-188.924-54c17.035-101.9 57.885-218.59 131.519-269 158.5-108.51 616.5-87 706.5 26 46.24 58.07 77.1 146.33 102.96 246m-940.979-3l188.924 54m621.785-8.5l130.27-42.5" stroke="#000" stroke-width="20" stroke-linecap="round"/></g><defs><clipPath id="prefix__clip0_53_28693"><path fill="#fff" d="M0 0h1500v1500H0z"/></clipPath></defs>
      <g clip-path="url(#prefix__clip0_299_662)"><path d="M775 1185c231.41 0 419-168.12 419-375.5 0-207.383-187.59-375.5-419-375.5-231.407 0-419 168.117-419 375.5 0 207.38 187.593 375.5 419 375.5z" fill="#ABF"/><path d="M457.5 796c7.6 194 131.833 327.5 193 370l-130-55.5L438 1034l-57.5-89.5-27-106 11-104L394 662l45-82.5 83.5-69.5 109-54.182 28.5-1C569.452 513.314 451.119 633.132 457.5 796z" fill="#001647" fill-opacity=".2"/><path d="M775 1185c231.41 0 419-168.12 419-375.5 0-207.383-187.59-375.5-419-375.5-231.407 0-419 168.117-419 375.5 0 207.38 187.593 375.5 419 375.5z" stroke="#000" stroke-width="20"/></g><defs><clipPath id="prefix__clip0_299_662"><path fill="#fff" d="M0 0h1500v1500H0z"/></clipPath></defs>
      <g clip-path="url(#prefix__clip0_53_29261)"><path d="M761.369 722.219a74.743 74.743 0 00-74.67 74.67 10.671 10.671 0 0021.33 0 53.344 53.344 0 0191.31-38.188 53.341 53.341 0 0115.36 38.188 31.999 31.999 0 01-54.627 22.627 32 32 0 01-9.373-22.627c-.041-1.427.2-2.847.71-4.18a10.68 10.68 0 012.3-3.58 10.659 10.659 0 0117.6 3.58 10.64 10.64 0 01.72 4.18 10.67 10.67 0 1021.34 0 32.003 32.003 0 00-9.372-22.628 32.003 32.003 0 00-45.255 0 32.004 32.004 0 00-9.373 22.628 53.333 53.333 0 0053.33 53.33 53.33 53.33 0 0053.33-53.33 74.738 74.738 0 00-74.66-74.67zM1048.37 722.219a74.743 74.743 0 00-74.671 74.67 10.671 10.671 0 0021.33 0 53.354 53.354 0 013.848-20.636 53.313 53.313 0 0111.513-17.552 53.28 53.28 0 0117.39-11.752 53.352 53.352 0 0141.17 0 53.385 53.385 0 0117.39 11.752 53.414 53.414 0 0111.51 17.552 53.227 53.227 0 013.85 20.636 32 32 0 01-32 32 32 32 0 01-32-32c-.06-1.789.34-3.563 1.15-5.159.81-1.596 2-2.963 3.48-3.974a10.664 10.664 0 0110.19-1.017c1.32.557 2.51 1.376 3.51 2.407a10.68 10.68 0 012.28 3.593c.52 1.331.76 2.752.72 4.18 0 2.83 1.12 5.544 3.12 7.545a10.697 10.697 0 007.55 3.125c2.83 0 5.54-1.124 7.54-3.125a10.637 10.637 0 003.13-7.545 31.999 31.999 0 00-32-32 31.999 31.999 0 00-32 32 53.337 53.337 0 0015.62 37.71 53.336 53.336 0 0037.71 15.62c14.14 0 27.71-5.619 37.71-15.62a53.337 53.337 0 0015.62-37.71 74.736 74.736 0 00-21.89-52.776 74.731 74.731 0 00-52.77-21.894v-.03z" fill="#000"/><path d="M912.5 1068.5c32.585 0 59-26.42 59-59 0-32.585-26.415-59-59-59s-59 26.415-59 59c0 32.58 26.415 59 59 59z" fill="#fff" stroke="#000" stroke-width="20" stroke-miterlimit="10"/></g><defs><clipPath id="prefix__clip0_53_29261"><path fill="#fff" d="M0 0h1500v1500H0z"/></clipPath></defs>
      <g clip-path="url(#prefix__clip0_53_27270)"><path opacity=".5" d="M650.33 766.53s-2.59-63.6 77.41-64.6c80-1 105.45 2.24 105.45 2.24l29.55 17.76 13 59.31s1 26 0 31.36c-1 5.36-25.33 41.83-25.33 41.83s-41.37 47.5-90.52 42S666.499 849 666.499 849s-19.759-49.32-20.269-49.69c-.51-.37 4.1-32.78 4.1-32.78zM971.33 725.75s24.62-35.82 106.52-28.32c81.9 7.5 88.3 28.32 88.3 28.32s3.59-3.82 6.59 23.18 6 40 6 40-3 17-4 21-2.41 19-5.21 24-9 15.59-11.4 18.29c-2.4 2.7-11.94 13.84-20.67 20.77-8.73 6.93-28.37 15.28-30 16.61-1.63 1.33-10 8.21-17.32 7.26-7.32-.95-16.4 1.13-32.4.07-16-1.06-58.738-22.431-60.738-26.431s-15-2-20-18-9.902-20.409-11.582-23.989c-1.68-3.58-8.68-9.82-8.68-26.2s5-29.38 6-35.38c1-6 8.59-41.18 8.59-41.18z" fill="#A5F15C"/><path d="M681.5 720.5S687 709.23 739 703l97 169.89s-18 18.68-56.07 18.1L681.5 720.5zM756.58 700.12s-4.78 3.73 13-7.12L856 850.55s5.57 6.48-9 9.45l-90.42-159.88zM991.001 719.382s-1-21.754 50.999-28.382l97 180.731s-18 19.872-56.07 19.255l-91.929-171.604zM1059.58 700.12s-4.78 3.73 13.05-7.12L1159 850.55s5.57 6.48-9 9.45l-90.42-159.88z" fill="#fff" fill-opacity=".3"/><path d="M722.89 697.43h79.71a72.65 72.65 0 0172.65 72.65v13.85a112.499 112.499 0 01-112.5 112.5 112.499 112.499 0 01-112.5-112.5v-13.86a72.653 72.653 0 0172.64-72.64v0zM1028.89 697.43h79.71c19.27 0 37.75 7.654 51.37 21.278a72.63 72.63 0 0121.28 51.372v13.85a112.5 112.5 0 11-225 0v-13.86a72.653 72.653 0 0172.64-72.64v0zM874.6 792.43a68.918 68.918 0 0181.64 0M866 736h98M650.24 755.43l-266.5-60.5" stroke="#000" stroke-width="20" stroke-miterlimit="10"/></g><defs><clipPath id="prefix__clip0_53_27270"><path fill="#fff" d="M0 0h1500v1500H0z"/></clipPath></defs>
      <g clip-path="url(#prefix__clip0_53_26033)"><path d="M181.5 727.5L92 618l10-25 124.5-66 217-60.5 229-48 340-20.5 347.5 10.5 16 27-45 127.5-105.5-15H908c-109 15.67-349.7 51.6-440.5 70-90.8 18.4-228.5 80.67-286 109.5z" fill="#FF6247"/><path d="M309.008 666.717l-135.654 53.652 22.52-168.239 113.134 114.587zm28.828-8.013l-8.106-1.979 22.532-157.782L471.69 618.441l-133.854 40.263zm153.629-45.511l44.562-162.274 125.132 128.853-67.982 10.002-.239.035-.236.054-101.237 23.33zm464.238-67.473l-99.407 5.763 82.316-151.379 102.518 148.241-84.894-2.632-.267-.008-.266.015zm193.907 3.99l-85.95-.888 94.81-148.188 80.27 154.056-88.86-4.971-.13-.007-.14-.002zm179.89 10.057l-76.78-4.295c.7-.817 1.53-1.785 2.48-2.89 3.28-3.814 7.98-9.265 13.65-15.805 11.35-13.083 26.56-30.521 42.07-47.954 15.52-17.444 31.29-34.837 43.75-47.85 6.24-6.518 11.58-11.86 15.61-15.544.26-.237.51-.466.76-.687-.13 4.233-.99 9.997-2.48 16.974-3.07 14.314-8.58 32.614-14.63 50.784-6.03 18.128-12.53 35.952-17.53 49.256-2.5 6.648-4.62 12.161-6.12 16.008-.28.729-.54 1.398-.78 2.003zm41.03-140.378c-.01-.016-.01-.024-.01-.025 0-.001 0 .007.01.025zM673.795 577.913l55.742-162.117 105.051 138.462-160.793 23.655z" fill="#87C848" stroke="#fff" stroke-width="12"/><path d="M457.56 306.169l-62.25 172.57 277.19-60.24 358.5-29.83c-3.16-12.17-28.7-47-82.7-138.17-143.43-124.29-261.3-91.75-330.3-79.41l-91.47 50.91-68.97 84.17zM1135.5 551.72l-1-4.72h-215l-289 33.5-280 70-2.83 8.19c-38.71 12.84-66.22 23.36-90.81 33.53-30.37 12.53-61.7 25.58-74.56 32 11.32 12.69 31.25 40.16 44.55 50.76 24.57 19.58 70.31 43.26 119.61 53.61 0-2.24-.59-14.78-.54-17 .88-39 3.73-61.39 13.41-91.19L534.5 674 699 637l217.37-20.67 225.78-6a313.3 313.3 0 0125 43.25c9.56 17.72 17.13 40.75 20.69 50.33 44.73-16.27 74.33-38.5 100.13-73.87 9.36-12.77 35.27-52.64 41.25-67.3-57.66-5.64-130.66-9.21-193.72-11.02z" fill="#FFBF44"/><path d="M1141.47 620.319c-426-29-778.47 109.39-778.47 109.39M1173 706.461c133-40 158-147 158-147-722-75-1155.92 166.54-1155.92 166.54S242 818.461 359 834.461" stroke="#000" stroke-width="20" stroke-miterlimit="10"/><path d="M175.08 726L97 620.69a22.873 22.873 0 01-.06-27.198 22.87 22.87 0 017.22-6.382c92.21-51.85 477.09-234.48 1247.25-181.78a23.03 23.03 0 019.95 3.039 22.999 22.999 0 017.61 7.102 22.965 22.965 0 013.72 9.722c.48 3.482.17 7.027-.93 10.367L1331 559.46" stroke="#000" stroke-width="20" stroke-miterlimit="10"/><path d="M395.31 478.74l37.8-117.19C521.92 100 857.42 87.91 990.25 309l45.5 89" stroke="#000" stroke-width="20" stroke-miterlimit="10"/><path d="M636 169.5c-34.167 30.833-105.4 123-117 245C580 397 764 363 1012 367l20.5 27.5L828 403l-40.5 13.5c-65.667 18.667-222.2 85.1-323 201.5l-32.665 11.27c34.77-10.972 66.486-20.622 90.665-27.77L803 556l267.5-11 254.5 16-30.5 63-50.5 41-59 32.5c-24.4-58.4-39.83-81.333-44.5-85.5-24.83 2-75.3 6-78.5 6H903.5l-220 25-253 56.5-69 20.5c-12.8 26.8-15.333 83.833-15 109-60.4 3.6-144.5-67.167-179-103a251.943 251.943 0 016.403-3.314L91.5 609.5c2.667-11.333 18.4-36.9 60-48.5 41.6-11.6 183.333-62.167 249-86 12-61.833 52.5-197.5 118.5-245.5s105.5-60 117-60z" fill="#001647" fill-opacity=".2"/></g><defs><clipPath id="prefix__clip0_53_26033"><path fill="#fff" d="M0 0h1500v1500H0z"/></clipPath></defs>
      
    </g>
    </svg>