<svg
      xmlns="http://www.w3.org/2000/svg"
      preserveAspectRatio="xMidYMin meet"
      fill="none"
      viewBox="0 0 1500 1500"
    >
      <g>
      <path fill="url(#prefix__a1)" d="M0 0h1500v1500H0z"/><defs><linearGradient id="prefix__a1" x1="0" y1="0" x2="1500" y2="1500" gradientUnits="userSpaceOnUse"><stop stop-color="#57ECFF"/><stop offset="1" stop-color="#4E41EE"/></linearGradient></defs>
      <g clip-path="url(#phrefix__clip0_53_27461)"><path d="M460.5 1094.5c-138.4 66.4-174 309.33-174.5 422.5h983.5c-12.5-72.17-53.2-244.1-116-354.5-78.5-138-520-151-693-68z" fill="#FF9C07"/><path d="M814.5 1339c-132.8-90.8-222.333-220.83-250.5-274.5 220.8-38.8 400.333-4.17 462.5 18-27.2 103.6-152.667 214.17-212 256.5z" fill="#ABF"/><path d="M884 1393l153 107.5H884l-134-99-121-113-68-76.5-87.5-118 16.5-4 31.5-13 39.5-12.5 95 136.5 159.5 139L923 1237.5l52.5-51.5 56.5-105 29 11.5 33 17 2.5 14-37 81.5-71 92.5L884 1393z" fill="#fff"/><path d="M499.998 1213.5c-101.2 100-117.834 249-113.5 311l-99.502-13c-1.6-110.8 39-247.5 59.5-302l39.501-52.5 15.5-20.5 66.5-42.5c149.6-59.6 294-54.83 347.5-45-39.584 8.27-114.025 31.61-188.997 72.62a710.622 710.622 0 00-19 10.78c-24.668 14.51-49.078 30.97-72 49.47L690 1351.5 880 1500l8 21.5c-127.8-59.4-298.795-240.83-366.942-328-5.822 5.19-15.516 14.52-21.06 20z" fill="#001647" fill-opacity=".2"/><path d="M289.5 1512.5c-6-101.5 31-323.03 140.5-398 158.5-108.51 616.5-87 706.5 26 64.91 81.5 99.5 222.5 132.5 371M1084.5 1337c12.33 37 29.5 110.3 43.5 175.5m-646.5 0c.333-32.83 7.7-107.6 20.5-157" stroke="#000" stroke-width="20" stroke-linecap="round"/><path d="M813.56 1341.57S967.5 1242.5 1026.5 1083m-212.94 258.57C725.5 1270 627 1177.5 563 1060m250.56 281.57C866.706 1384.05 991.7 1478 1066.5 1514m-589-421.5c47.333 82.17 199 281.5 427 421.5m-25-121.76s174.01-131.44 217.5-283.74" stroke="#000" stroke-width="20" stroke-miterlimit="10"/></g><defs><clipPath id="prefix__clip0_53_27461"><path fill="#fff" d="M0 0h1500v1500H0z"/></clipPath></defs>
      <g clip-path="url(#prefix__clip0_299_662)"><path d="M775 1185c231.41 0 419-168.12 419-375.5 0-207.383-187.59-375.5-419-375.5-231.407 0-419 168.117-419 375.5 0 207.38 187.593 375.5 419 375.5z" fill="#ABF"/><path d="M457.5 796c7.6 194 131.833 327.5 193 370l-130-55.5L438 1034l-57.5-89.5-27-106 11-104L394 662l45-82.5 83.5-69.5 109-54.182 28.5-1C569.452 513.314 451.119 633.132 457.5 796z" fill="#001647" fill-opacity=".2"/><path d="M775 1185c231.41 0 419-168.12 419-375.5 0-207.383-187.59-375.5-419-375.5-231.407 0-419 168.117-419 375.5 0 207.38 187.593 375.5 419 375.5z" stroke="#000" stroke-width="20"/></g><defs><clipPath id="prefix__clip0_299_662"><path fill="#fff" d="M0 0h1500v1500H0z"/></clipPath></defs>
      <g clip-path="url(#prefix__clip0_53_29082)" stroke="#000" stroke-width="20" stroke-linecap="round"><path d="M844.63 1012.87h141.62M827.45 803.95l-27.11-16.78-29.02-17.97-36.82-22.79"/><path d="M802.81 799.069a29.91 29.91 0 11-31.49-29.87l29 18a29.701 29.701 0 012.49 11.87z" fill="#000"/><path d="M1067.45 746.41l-36.82 22.79-29.02 17.97-27.11 16.78"/><path d="M999.14 799.069c0 5.848 1.71 11.568 4.93 16.452a29.947 29.947 0 0013.17 11.027 29.898 29.898 0 0017.06 1.964 29.883 29.883 0 0015.33-7.744 29.875 29.875 0 007.48-32.043 29.859 29.859 0 00-10.31-13.732 29.918 29.918 0 00-16.17-5.794l-29 18a29.701 29.701 0 00-2.49 11.87z" fill="#000"/></g><defs><clipPath id="prefix__clip0_53_29082"><path fill="#fff" d="M0 0h1500v1500H0z"/></clipPath></defs>
      <g clip-path="url(#prefix__clip0_53_26521)"><path d="M645.5 817.501l-6-36 2.5-19c1.167-2.167 3.5-7.1 3.5-9.5 0-3 0-5 3-10.5s7-12 12.5-18.5c4.4-5.2 10.5-10.833 13-13 3.333-1.5 11.2-4.8 16-6 4.8-1.2 19-3.833 25.5-5 3.333 1.667 10.9 5 14.5 5 4.5 0 17.5 2.5 20 6 2 2.8 7.833 9.833 10.5 13l5.5-6.5c5.5-6.5 14.5-12.5 18.5-12.5s21-5 25-5h16c8 0 13.5 2 19.5 5s11.5 6.5 15.5 9.5 8.5 12 11.5 18.5 7 10.5 7.5 20 2.5 24 3 28.5c.4 3.6 4.167 10.167 6 13l5.923-.494c7.382-2.693 15.809-2.984 23.951-1.996l6.126-.51 21.5 3v-41.5c1.167-20.667 15-61.6 61-60 46 1.6 56.5 17 56 24.5 11.33-16.833 44.8-43.9 88-17.5S1181.67 792 1170 821.5c-14.67 27.5-55.9 82.4-103.5 82-47.6-.4-95.5-52.167-113.5-78l-7-25.5c-6.701-3.174-16.917-6.688-27.626-7.989l-23.951 1.996c-5.851 2.135-11.046 5.78-14.923 11.493-15.2 22.4-26.333 47.333-30 57-13.5 16.167-49.4 49.1-85 51.5-35.6 2.4-88.5-51.333-110.5-78.5l-8.5-17.999z" fill="#FF6247"/><path d="M673 710s14-.77 66-7l97 169.89s-10.93 29.69-49 29.11L673 710zM765.58 714.5s.64.35 18.42-10.5l75.5 139.5s2.07 13.53-12.5 16.5l-81.42-145.5zM972 701.999s28-18.5 66-7l97 169.89s-10.93 29.69-49 29.11l-114-192zM1066.58 706.5s.64.35 18.42-10.5l73.5 139.5s2.07 13.53-12.5 16.5l-79.42-145.5z" fill="#fff" fill-opacity=".9"/><path d="M1192.94 755.47v-.09c-.14-4.17-2.27-41.41-34.9-63.45a75.432 75.432 0 00-71.21-6.94 67.672 67.672 0 00-23.69 16.16l-1.71 1.8-1.81-1.69a67.16 67.16 0 00-24.62-14.69 75.399 75.399 0 00-70.679 11.32c-31.08 23.94-31 61.28-30.9 65.45-.03 5.009.197 10.015.68 15l.36 3.76-3.6-1.13a56.453 56.453 0 00-35.44.41l-3.4 1.16.09-3.6c.13-4.66 0-9.45-.3-14.24-.15-4.27-2.37-41.58-34.91-63.55a75.45 75.45 0 00-71.22-6.94 67.598 67.598 0 00-23.68 16.21l-1.7 1.8-1.81-1.69a67.466 67.466 0 00-24.59-14.67 75.396 75.396 0 00-70.68 11.28c-19.23 14.8-26.54 34.7-29.28 48.8l-.53 2.69-252.13-54.36a9.117 9.117 0 00-12.05 4.57 9.1 9.1 0 00-.211 6.972 9.103 9.103 0 004.781 5.078l258.56 57.39.07 1.78c1.85 45.25 24.65 84.31 65.93 112.94 21.13 14.62 44.38 22.92 60.15 27.31a24.404 24.404 0 0014.21-.34c23.59-7.77 44.49-18.53 60.45-31.1 29.3-23.1 47.92-50.84 55.36-82.45l.2-.85.68-.54a39.163 39.163 0 0145.81-2l2.33 1.48c.293.193.597.37.91.53l.94.48.31 1c9.61 30.37 29.73 56.34 59.83 77.19 22.429 15.53 46.889 25 59.479 29.25a24.659 24.659 0 0017.08-.46c12.54-5 36.78-16 58.24-32.92 41.73-32.85 61.99-75.76 58.6-124.11zM822.451 874.13a212.661 212.661 0 01-51 29.49 15.255 15.255 0 01-10.53.33 212.032 212.032 0 01-52.7-26.29c-38.68-27-58.1-62.41-57.72-105.08V772c-.05-5.41.85-32.83 23.77-50.45a57.174 57.174 0 0153.6-8.55c10.61 3.71 18.88 9.9 24.56 18.41l.16.27a8.917 8.917 0 005.86 4.74h.32l.54.1a9.07 9.07 0 0010-5.49l.16-.32c5.14-8.76 13-15.4 23.31-19.74a57.235 57.235 0 0154 5.22c25.74 17.4 26.82 47.68 26.85 49v.63c2.98 42.51-14.22 78.95-51.18 108.31zm301.149-9.26a212.562 212.562 0 01-51 29.48 15.137 15.137 0 01-10.51.34 212.04 212.04 0 01-52.18-25.88c-39.099-27.1-58.709-62.55-58.279-105.4v-.56c0-5.41.86-32.83 23.78-50.47a57.16 57.16 0 0153.579-8.57c10.59 3.69 18.83 9.84 24.52 18.3l.17.3a8.992 8.992 0 003.81 4 9.04 9.04 0 004.91 1.09h.68a9.016 9.016 0 004.37-1.73 9.088 9.088 0 002.94-3.79l.15-.31c5.16-8.79 13-15.45 23.36-19.79a57.225 57.225 0 0154 5.22c25.07 16.95 26.75 45.77 26.86 49v.64c3.02 42.4-14.18 78.77-51.16 108.13z" fill="#000"/></g><defs><clipPath id="prefix__clip0_53_26521"><path fill="#fff" d="M0 0h1500v1500H0z"/></clipPath></defs>
      <g clip-path="url(#prefix__clip0_53_25522)"><path d="M496.609 538.541s3.07 10.29 13.57 23.93c14.68 19.1 43.92 44.79 99.63 58.08 95.53 22.79 172.4 22.6 172.4 22.6l108.22-7.34 120.181-28 55.58-41.54 5-17.79-35.22-28.28-23.91-12-11.16-35.68-27.201-17.71-28.95-1.81-11.33-20.5-32.35-21.23-49.42 21.36-22-26.46s-57.65-12.58-81.29 10.29l-49.45-9.46-49.68 22.93-50.58 11.59-36.18 25-18.47 10.67-4.81 34.81-29.55 21.63-13.03 4.91z" fill="#F56CDB"/><path d="M589.5 554.499c-17.6 10.8-17.667 31.5-15.5 40.5l-14.826-31.506L558 585.499l-2.5 7.5-41-14.5-12-26c3.167-6 9.6-18.1 10-18.5.4-.4 15.5-20.833 23-31l9.5-21.5 20-16.5 24-15 60.5-20.5c4.5-3.5 18-12.5 36-20.5s44.167 2.333 55 8.5l27.5-14c17.167-1.666 47.3-3.4 30.5 3-21 8-25.5 35.5-18 42.5 6 5.6 7.833 12.334 8 15l-10.5 11-35-19.5-34.5 1.5c5.833 9.834 13.5 33.6-2.5 50s-27 12.834-30.5 9l11.5-46c-45.6.4-57.333 28.5-57.5 42.5l-7.5-2.5c-8 1.5-24.2 4.5-25 4.5-.8 0-25 22.333-37 33.5l-.573 10.746c8.465-12.804 29.327-35.602 56.073-39.746 28.4-4.4 35.167 32.5 35 51.5-8.5 5.834-25 14-23 0 2.5-17.5-16-29.5-38-16zM731 537.999c4.8-9.2.333-10.833-2.5-10.5l-22.5 4-5.5 20.5 9 35c9.833 5.333 30.1 14.7 32.5 9.5 3-6.5-.5-12-11.5-20s-5.5-27 .5-38.5zM722.5 602.999c3.2 15.6-6.333 26.5-11.5 30h-28.5l20.5-27.5c5.167-7.333 16.3-18.1 19.5-2.5zM774.5 547.999c-15.2 9.2-19.667 5.833-20 3 2.333-5 7.1-15.2 7.5-16 .4-.8 9.167-13.667 13.5-20 4-2.833 12.8-7.1 16-1.5 4 7 2 23-17 34.5zM812 486.999c-15.2-2.4-20-8.333-20.5-11l-20 9c2.333 4.333 7.2 13.2 8 14 .8.8 26.333 11 39 16 11.333 5.5 34 14.7 34 7.5 0-9-21.5-32.5-40.5-35.5zM881.5 462.999c6.4-20.8-6.333-32.333-13.5-35.5l-8 7-2 21c-4.333 7.834-11.9 24.7-7.5 29.5 5.5 6 23 4 31-22zM941.5 494.999c-.8 7.6-8 11.167-11.5 12-3.167-4.5-9.5-13.7-9.5-14.5 0-.8 4.667-16.333 7-24 .833-3 7.1-9.6 25.5-12 18.4-2.4 37 14.333 44 23-3.833-3.5-14.9-10.3-28.5-9.5-17 1-26 15.5-27 25zM865.5 547.999c-7.2-4.8-9-10.667-9-13l-15.5 5 3 24 30 11.5 6-11.5c-1.833-3.333-7.3-11.2-14.5-16zM838.5 602.499c-6.4 10.4-13 10.333-15.5 9-.833-3-2.4-9.8-2-13 .5-4 .5-5.5 2.5-8s12-10 13-10.5c.8-.4 15.333.167 22.5.5 5.667 5.5 15.4 15.9 9 13.5-8-3-21.5-4.5-29.5 8.5zM937.5 553.999c6.8-1.6 3.833-4.667 1.5-6-5.667.333-17.3 1-18.5 1-1.2 0-14.5 3.333-21 5l-14 20-5.5 26-7 35c7.5 1.167 24.1 1 30.5-9 8-12.5 4-40 12-54.5s13.5-15.5 22-17.5zM991 607.499c-5.2-17.2-28.833-18.167-40-16.5.5-4.167 5.2-13.1 20-15.5 14.8-2.4 36.83 14.667 46 23.5l-26 8.5zM1002.5 534.499c-10.4 6.4-16.667 3.333-18.5 1l8-21.5 15-9.5 31 13.5c6.33 8 16.6 21.9 7 13.5-12-10.5-29.5-5-42.5 3z" fill="#001647" fill-opacity=".2"/><path d="M862.2 574.74s-43.48-9.44-41.41 28.91M706.439 588.681s54.87 35.61 77.7-16.38M875.801 591.65s10.73-53.65 61.09-50.65" stroke="#000" stroke-width="20" stroke-miterlimit="10" stroke-linecap="round"/><path d="M508.088 520.15c-58 66 123.13 123 274.12 123s337.432-47.21 277.432-109.21" stroke="#000" stroke-width="20" stroke-miterlimit="10"/><path d="M510.471 573.211s-16.41-39.05 18.09-58.39a19.004 19.004 0 009.71-16.55c0-12.7 4.75-31.74 31.83-36.07a18.489 18.489 0 0010.53-5.49c13.12-13.84 55.19-50.43 101.71-8.85a18.11 18.11 0 0013.66 4.59c19.38-1.68 68.48-1.69 77.57 39.63a18.15 18.15 0 0016.43 14.16c18.61 1.33 47.93 9 48.28 43.85a18.4 18.4 0 0010.42 16.32c17.73 8.61 47.07 30.4 16.56 72.31" stroke="#000" stroke-width="20" stroke-miterlimit="10"/><path d="M1051.69 586.52s26.14-58.36-26.84-77.14a18.723 18.723 0 01-11.74-12.16c-4.79-15.85-18.56-45.85-53.73-43.27a17.806 17.806 0 01-16.57-8.54c-10.36-17.26-36-47.64-78.43-22.22a18.273 18.273 0 01-22.4-2.81c-15-15.28-46.36-36.93-87-8.85a18.01 18.01 0 01-8.97 3.185 17.99 17.99 0 01-9.34-1.835c-17.43-8.77-55.12-21.18-78.83 19.23" stroke="#000" stroke-width="20" stroke-miterlimit="10"/><path d="M576.419 610.05s-37.83-41.78 0-76.4c37.19-34 61.17-10.54 71.05 3.81a31.001 31.001 0 015 24.17c-2.39 10.91-11.15 22.36-39.39 14.48M682.34 447.859s31.85 35.88-6.27 59.91M773.539 492.08s8 28.27-16.34 51.49M957.441 453.631s-50.29 4.79-33.06 46.72" stroke="#000" stroke-width="20" stroke-miterlimit="10" stroke-linecap="round"/><path d="M570.102 462.198S581 460.725 589 465s9.415 5.78 13.384 9.093a35.085 35.085 0 0112.601 27.121 35.092 35.092 0 01-3.423 14.934M755.001 411.529s-31.13 17.06-19 40.66M764.59 472.84s39.11 8.2 39.11-31.68M1024.85 509.38s-40.1-14.48-40.1 17.9M842 420.381s31.9 24.93 8.12 56.61M829.289 522.93s32.53 22.38 53.6-15.16M676.07 633.54l19.87-15.6c14.85-11.67 13-25.06 5.54-47.53-11.05-33.13 20.32-47.48 20.32-47.48M934.461 597.121c32-36.06 58.65-21.7 86.569-2.61l3.82 2.61" stroke="#000" stroke-width="20" stroke-miterlimit="10" stroke-linecap="round"/></g><defs><clipPath id="prefix__clip0_53_25522"><path fill="#fff" d="M0 0h1500v1500H0z"/></clipPath></defs>
      
    </g>
    </svg>