<svg
      xmlns="http://www.w3.org/2000/svg"
      preserveAspectRatio="xMidYMin meet"
      fill="none"
      viewBox="0 0 1500 1500"
    >
      <g>
      <path fill="url(#prefix__paint0_linear_53_30463)" d="M0 0h1500v1500H0z"/><defs><linearGradient id="prefix__paint0_linear_53_30463" x1="1500" y1="1500" x2="0" y2="0" gradientUnits="userSpaceOnUse"><stop stop-color="#FF5A5A"/><stop offset="1" stop-color="#FFBDBD"/></linearGradient></defs>
      <g clip-path="url(#prefix__clip0_53_28027)"><path d="M1263.01 1499.96H289.359l3.73-66.49 19.17-110.35 44.75-122.16 57.62-74.7s8.91-6.18 25.4-15.74l.69-.4c2.23-1.28 4.59-2.63 7.08-4 5.32-3 11.25-6.21 17.74-9.61 8.63-4.53 18.26-9.36 28.83-14.36a846.463 846.463 0 0123.12-10.48C582.179 1043.54 729.5 1044 729.5 1044s172.289-4.59 321.76 45.2l2.09.7.4.14c6.27 2.12 12.47 4.37 18.62 6.75l.8.31c153.18 59.64 189.84 402.86 189.84 402.86z" fill="#fff"/><path d="M1122.49 1500.15H481.749v-.15l14.26-99.61 5.49-43.36 5.83-46.12.08-.62s0-.35-.05-1c-.34-6.9-2.63-47.85-11.23-88.85-5.76-27.45-21.34-61.93-34-79.23a64.05 64.05 0 01-7.18-5.52c-4.61-4.06-10-10-11.26-16.21-.141-.66-.231-1.33-.27-2-.25-3.92 1.24-7.92 5.6-11.65 3-2.6 7.42-5.06 13.57-7.29 13.54-4.91 34.74-21.75 49.37-14.95 16.54-.44 17.92-6.23 17.92-6.23s51.48-42.92 103.31-21.86c9.67 3.93 132.501-14.64 143.811-11 43.185 13.79 85.69 9.59 131 11 0 0 7 13.96 52.02 6.72h.1c2.2-.35 4.22-.69 6-1l1.71-1 20.17 1.28 50.37 24.43 10.37-.86c4.11.15 15.08 6.54 18.38 9 3.77 2.73.59 16.3 2.92 24a58.808 58.808 0 012.29 16.68c.34 34.95-5.11 82.86-5.51 86.42v.76l3.43 56.54v.27l14 60.42 12.76 55 25.34 105.67.14.32z" fill="#3A3A3A"/><path d="M931.729 1453.59l-250.3 15.73-6.24 30.61 272.54.12-16-46.46z" fill="#3A3A3A"/><path d="M978.109 1248.18c.567 1.23 1.153 2.51 1.543 3.79.16.53 1.048 4.34 1.533 6.43.1.4.316.77.621 1.05.306.28.687.46 1.097.53l2.865.42c.208.03.403.12.565.26.161.13.284.31.354.5l.651 1.88c.283.81 1.091 1.4 1.927 1.4l21.725-.02c.82 0 1.44-.57 1.5-1.36l.13-1.93c.01-.18.09-.35.22-.49.12-.13.29-.21.47-.23l3.34-.5c.8-.12 1.32-.79 1.25-1.61-.19-2.16-.54-6.08-.54-6.62-.01-1.27.17-2.52.35-3.74.26-1.71.52-3.47.24-5.3-1.76-11.7-12.56-21.22-24.088-21.22-11.522 0-19.463 9.52-17.701 21.23.289 1.92 1.132 3.75 1.948 5.53zm22.341-1.08c-.37-3.33 2.51-4.16 5.88-4.03 3.37.13 5.96 1.18 6.32 4.51.37 3.32-2.06 5.91-5.43 5.78-3.38-.13-6.4-2.94-6.77-6.26zm-.988 6.52l2.658 3.2c.11.13.19.28.23.45.04.17.03.34-.02.51l-.21.64c-.06.16-.17.3-.31.39-.14.1-.31.15-.48.14h-3.728a1.05 1.05 0 01-.544-.15 1.095 1.095 0 01-.408-.38l-.409-.64a.955.955 0 01-.074-.96l1.693-3.2c.297-.56 1.133-.56 1.602 0zm-11.55-10.55c3.329-.13 6.459.71 7.092 4.03.632 3.33-1.554 6.13-4.882 6.26-3.329.13-6.543-2.46-7.176-5.78-.632-3.33 1.635-4.38 4.966-4.52v.01zM1020.65 1218.36c.02-1.59-.72-3.27-2.14-4.5-2.28-1.96-5.53-2-7.27-.08-1.82 2.01-1.35 5.35 1.02 7.4l-1.61 1.88c-.64.75-.46 1.97.41 2.72l3.72 3.21c.87.75 2.1.75 2.74 0l1.61-1.88c2.37 2.05 5.73 2.02 7.44-.09 1.63-2.01 1.11-5.23-1.17-7.21-1.41-1.23-3.19-1.71-4.75-1.45zM970.488 1227.11l2.184 1.88c.868.75 2.098.75 2.742 0l2.75-3.21c.645-.75.462-1.97-.41-2.72l-2.178-1.88c1.754-2.05 1.223-5.39-1.202-7.4-2.319-1.92-5.557-1.88-7.249.08-1.054 1.23-1.288 2.91-.788 4.5-1.639-.26-3.265.22-4.311 1.45-1.682 1.98-1.234 5.2 1.005 7.21 2.336 2.11 5.702 2.14 7.457.09zM1031.98 1262.98c-2.35-2.1-5.71-2.13-7.47-.09l-2.17-1.88c-.87-.75-2.1-.75-2.75 0l-2.75 3.21c-.64.76-.46 1.97.41 2.73l2.18 1.87c-1.75 2.05-1.22 5.39 1.2 7.4 2.32 1.92 5.56 1.88 7.25-.08 1.06-1.22 1.29-2.91.79-4.5 1.64.26 3.27-.22 4.31-1.45 1.68-1.98 1.24-5.2-1-7.21zM974.348 1271.64c-.021 1.59.72 3.28 2.141 4.5 2.279 1.96 5.533 2 7.269.08 1.82-2.01 1.348-5.35-1.023-7.4l1.612-1.88c.645-.75.461-1.97-.409-2.72l-3.716-3.21c-.868-.75-2.099-.75-2.743 0l-1.612 1.88c-2.37-2.05-5.727-2.02-7.435.09-1.633 2.02-1.112 5.23 1.163 7.21 1.421 1.23 3.192 1.71 4.753 1.45z" fill="#fff"/><path d="M921.73 1406.5l-250.3 15.72v48.46l260.3-16.36-10-47.82z" fill="#FF6247"/><path d="M911.73 1357.94l-233.3 14.66v48.45l243.3-15.28-10-47.83z" fill="#3A3A3A"/><path d="M913.73 1309.82l-242.3 15.22v48.46l242.3-15.23v-48.45z" fill="#FF6247"/><path d="M921.73 1260.4l-256.3 16.1 8 47.96 241.3-15.16 7-48.9z" fill="#3A3A3A"/><path d="M931.73 1211.32l-276.3 17.8 12 47.7 254.3-16.42 10-49.08z" fill="#FF6247"/><path d="M654.5 1228.73l-20.35-61.3 38.49 11.35L750 1191.1l64.93-4.18 53.32-8.14 76.6-19.51-20.64 52.52-269.71 16.94z" fill="#3A3A3A"/><path d="M511.761 1366.3c0 .32 0 .66-.05 1-.22 2.89-14 61.77-19 132.69h-20v-.69a924.796 924.796 0 0119.51-134.6c.57-2.4 2.01-4.51 4.04-5.92a10.042 10.042 0 017.96-1.51c1.105.24 2.181.61 3.21 1.08 3 1.4 4.44 3.71 4.33 7.95zM1132.01 1499.96h-20.2c-.55-2.72-1.65-8.14-3.2-15.47-.06-.29-.13-.59-.19-.89-2.91-13.76-7.3-33.87-12.44-55.38 0-.18-.09-.36-.13-.54-6.23-26-13.56-54-20.69-75.23a9.836 9.836 0 01-.1-6 9.963 9.963 0 012.34-4.07c1.1-1.14 2.45-2.01 3.95-2.53h.1l.39-.11c2.47-.72 5.13-.46 7.42.73 2.29 1.2 4.02 3.23 4.85 5.67 18.25 54.24 36.92 148 37.71 151.94.12.62.18 1.25.19 1.88z" fill="#000"/><path d="M1084.46 1348.82C1051.7 1240.08 1076 1102 1076 1102" stroke="#000" stroke-width="20" stroke-miterlimit="10" stroke-linecap="round"/><path d="M933.472 1507.03c1.675 5.27 7.299 8.17 12.562 6.5 5.263-1.68 8.17-7.3 6.495-12.56l-19.057 6.06zm19.057-6.06c-11.368-35.71-21.558-115.89-20.705-201.85.856-86.15 12.813-175.35 43.877-230.19l-17.402-9.86c-33.737 59.56-45.613 153.2-46.474 239.86-.862 86.86 9.347 169.47 21.647 208.1l19.057-6.06z" fill="#000"/><path d="M443.891 1118.21s87.82 94.18 57 252.68M669 1508.5c10.333-52.57 22.9-180.97-9.5-274s-116.167-142.43-148-157" stroke="#000" stroke-width="20" stroke-miterlimit="10" stroke-linecap="round"/><path d="M289.5 1512.5c-6-101.5 31-323.03 140.5-398 158.5-108.51 616.5-87 706.5 26 64.91 81.5 99.5 222.5 132.5 371" stroke="#000" stroke-width="20" stroke-linecap="round"/><path d="M500.002 1213.5c-101.2 100-117.834 249-113.5 311l-99.502-13c-1.6-110.8 39-247.5 59.5-302l39.501-52.5 15.5-20.5 66.5-42.5c149.6-59.6 294-54.83 347.5-45-63 13.17-214.299 64.5-315.499 164.5zM890.5 1321c-5.307-145.23 33.5-233.5 54-259.5h24l-24 50-18.5 111-4.5 137 16 137.5-2 93.5c-13.167-29.33-39-105.3-45-269.5z" fill="#001647" fill-opacity=".2"/></g><defs><clipPath id="prefix__clip0_53_28027"><path fill="#fff" d="M0 0h1500v1500H0z"/></clipPath></defs>
      <g clip-path="url(#prefix__clip0_299_662)"><path d="M775 1185c231.41 0 419-168.12 419-375.5 0-207.383-187.59-375.5-419-375.5-231.407 0-419 168.117-419 375.5 0 207.38 187.593 375.5 419 375.5z" fill="#ABF"/><path d="M457.5 796c7.6 194 131.833 327.5 193 370l-130-55.5L438 1034l-57.5-89.5-27-106 11-104L394 662l45-82.5 83.5-69.5 109-54.182 28.5-1C569.452 513.314 451.119 633.132 457.5 796z" fill="#001647" fill-opacity=".2"/><path d="M775 1185c231.41 0 419-168.12 419-375.5 0-207.383-187.59-375.5-419-375.5-231.407 0-419 168.117-419 375.5 0 207.38 187.593 375.5 419 375.5z" stroke="#000" stroke-width="20"/></g><defs><clipPath id="prefix__clip0_299_662"><path fill="#fff" d="M0 0h1500v1500H0z"/></clipPath></defs>
      <g clip-path="url(#prefix__clip0_53_29082)" stroke="#000" stroke-width="20" stroke-linecap="round"><path d="M844.63 1012.87h141.62M827.45 803.95l-27.11-16.78-29.02-17.97-36.82-22.79"/><path d="M802.81 799.069a29.91 29.91 0 11-31.49-29.87l29 18a29.701 29.701 0 012.49 11.87z" fill="#000"/><path d="M1067.45 746.41l-36.82 22.79-29.02 17.97-27.11 16.78"/><path d="M999.14 799.069c0 5.848 1.71 11.568 4.93 16.452a29.947 29.947 0 0013.17 11.027 29.898 29.898 0 0017.06 1.964 29.883 29.883 0 0015.33-7.744 29.875 29.875 0 007.48-32.043 29.859 29.859 0 00-10.31-13.732 29.918 29.918 0 00-16.17-5.794l-29 18a29.701 29.701 0 00-2.49 11.87z" fill="#000"/></g><defs><clipPath id="prefix__clip0_53_29082"><path fill="#fff" d="M0 0h1500v1500H0z"/></clipPath></defs>
      <g clip-path="url(#prefix__clip0_53_27079)"><path opacity=".4" d="M770.85 897.86a109.421 109.421 0 0021.346-216.738A109.42 109.42 0 10770.85 897.86zM1066.56 897.86a109.414 109.414 0 00101.09-67.547 109.453 109.453 0 006.23-63.22 109.43 109.43 0 00-85.97-85.971 109.411 109.411 0 00-63.22 6.227 109.391 109.391 0 00-49.11 40.3 109.42 109.42 0 0090.98 170.211z" fill="#fff"/><path d="M1145.89 765c5.43-3.83 2.77-16.94-5.94-29.29-8.71-12.35-20.17-19.25-25.6-15.42s-2.77 16.94 5.94 29.29c8.71 12.35 20.17 19.2 25.6 15.42zM848.18 764.999c5.43-3.83 2.77-16.94-5.94-29.29-8.71-12.35-20.17-19.26-25.6-15.43-5.43 3.83-2.77 17 5.94 29.3s20.17 19.21 25.6 15.42z" fill="#fff"/><path d="M1066.27 897.86a109.414 109.414 0 00101.09-67.547 109.453 109.453 0 006.23-63.22 109.43 109.43 0 00-85.97-85.971 109.411 109.411 0 00-63.22 6.227 109.391 109.391 0 00-49.11 40.3 109.42 109.42 0 0090.98 170.211zM770.85 897.86a109.421 109.421 0 0021.346-216.738A109.42 109.42 0 10770.85 897.86v0zM658.002 782.498L377.65 692.6M880.27 788.439h76.579" stroke="#000" stroke-width="20" stroke-miterlimit="10"/></g><defs><clipPath id="prefix__clip0_53_27079"><path fill="#fff" d="M0 0h1500v1500H0z"/></clipPath></defs>
      <g clip-path="url(#prefix__clip0_53_30349)"><path d="M661.719 466.274s.681-50.314 11.212-50.049c10.53.266 30.241-4.165 30.241-4.165l31.002 15.989 25.638-5.424 28.99-24.747 27.071-1.791 27.883 14.121 15.446 18.681 23.411.145 50.96-13.954 24.276 23.68-19.232 52.574-44.507-21.369-17.617-6.041-23.175-7.036-28.05-1.943-32.388-.112-55.638 3.68-50.45 8.949-25.073-1.188z" fill="#97A5DE"/><path d="M718.506 479.214s19.322 40.453 64.014 34.31c44.692-6.143 83.522-32.583 83.522-32.583l10.406-17.065-81.463-14.775-84.096 14.041s-8.664 11.898 7.617 16.072z" fill="#7985B4"/><path d="M662.843 469.488s-13.534-58.554 30.087-60.287c15.493-.614 25.434 4.992 32.226 12.21 13.894 14.755 29.392 7.707 38.346-2.386 11.842-13.391 27.482-26.021 44.854-27.17 20.226-1.338 34.215 14.393 42.889 29.474 6.094 10.621 21.799 13.651 33.204 6.683 11.953-7.315 28.35-12.9 48.081-8.683 42.964 9.245 6.064 69.091 6.064 69.091" stroke="#000" stroke-width="18.1" stroke-miterlimit="10" stroke-linecap="round"/><path d="M630.048 507.636s25.276-45.068 51.452-39.634c40.502 8.395 74.399 69.733 74.399 69.733M800.818 537.27s38.761-65.501 93.251-67.301c54.49-1.801 48.429 57.93 48.429 57.93M682 468s137.209-40.275 226.409 2.982M736.796 506.5s35.103 14.655 86.489 1.675" stroke="#000" stroke-width="20" stroke-miterlimit="10" stroke-linecap="round"/><path d="M351.4 750.771c1.45-8.17 3.76-20 6.67-31.13a13.136 13.136 0 019.81-9.48l13.84-3.16a4.275 4.275 0 012.33.11l14.27 4.69c.745.25 1.545.288 2.31.11l115.08-25.85h.23l277.24-47.09h.39l209.23-16.47 118.94-6.24h14.49a16.295 16.295 0 0113.74 7.56 339.734 339.734 0 0121.14 38.49c.31.658.77 1.23 1.36 1.662.58.431 1.27.71 1.99.809.72.1 1.45.017 2.13-.24.68-.257 1.29-.68 1.76-1.231l13.59-15.75a4.384 4.384 0 001.06-2.85l-5.42-29.45c0-.618-.13-1.229-.39-1.79-2.71-6-28.15-36.5-24-40 .93-.8-17.57-32.49-24.61-39.71-7.04-7.22-27.4-11.36-33.18-15.1-5.78-3.74-13.77-8.69-29.57-10.2-15.8-1.51-48.68-2.29-62.62-1.94-13.42.34-64-1.57-67.72-1.71H945l-162 10.19a4.14 4.14 0 00-.52.06l-125.3 23.27-94.3 15.07a4.78 4.78 0 00-.53.12l-95.73 27.73c-.14 0-.28.09-.41.15l-83 22.6c-.19.08-2.92 12.07-3.11 12.17l-36.86 21.51a4.413 4.413 0 00-1.84 2.1c-1.72 4.2-6.89 16.83-7.88 19.84-1.18 3.62.06 15.86 0 17.9a151.534 151.534 0 01-2.43 18.35c-1.51 7.64-2.64 17.18 0 22.1 2.64 4.92 5.44 17.14 8.84 26.76a49.484 49.484 0 003.34 7.37 4.361 4.361 0 008.13-1.33z" fill="#A760FF"/><path d="M583 553.5c-28 33.2-40.333 98.167-43 126.5-50.667 9.5-154.4 29.1-164 31.5-9.6 2.4-20.333 26.333-24.5 38l-14-31L330 669c2.667-7 13.8-27.1 37-51.5s93-41.167 125-46.5l91-17.5z" fill="#001647" fill-opacity=".2"/><path d="M707.701 594.832a4.686 4.686 0 01-.411 3.811 4.634 4.634 0 01-1.281 1.469 4.644 4.644 0 01-1.773.809c-.7.192-1.399.363-2.079.505-.68.142-1.359.253-1.999.335a15.368 15.368 0 01-.985 6.272 20.698 20.698 0 01-8.894 10.472 17.433 17.433 0 01-6.505 2.206l-.39.001a15.443 15.443 0 01-7.402-.982 17.221 17.221 0 01-6.381-4.474c-3.817-4.157-6.399-10.334-7.746-18.531a50.089 50.089 0 01-.721-12.538 24.802 24.802 0 012.508-9.176 16.338 16.338 0 012.352-3.316 14.815 14.815 0 012.993-2.547 15.848 15.848 0 013.127-1.498 13.532 13.532 0 013.488-.769 19.518 19.518 0 014.89-.012c1.655.195 3.274.618 4.813 1.258a13.467 13.467 0 013.765 1.991 7.536 7.536 0 012.306 2.444c.382.679.664 1.409.835 2.168a4.659 4.659 0 01-.821 3.702 4.57 4.57 0 01-3.205 1.898 4.905 4.905 0 01-3.001-.552 6.336 6.336 0 01-2.275-2.055 11.255 11.255 0 00-1.402-.526 10.613 10.613 0 00-1.931-.415 9.583 9.583 0 00-2.22.005 6.541 6.541 0 00-2.248.646 6.886 6.886 0 00-3.129 4.467c-1.032 3.263-1.068 7.806-.107 13.631a32.373 32.373 0 002.362 8.774 17.728 17.728 0 002.731 4.353 5.64 5.64 0 004.795 2.048 9.395 9.395 0 005.991-3.565 8.755 8.755 0 002.129-4.305c-.52.002-1 .063-1.549.124-.517.071-1.038.112-1.56.124a5.074 5.074 0 01-3.823-.991 4.929 4.929 0 01-1.355-1.484 4.93 4.93 0 01-.653-1.901 4.692 4.692 0 01.911-3.602 4.62 4.62 0 013.216-1.868h.08a58.04 58.04 0 012.359-.256c.75-.062 1.49-.124 2.22-.165 1.819-.135 3.609-.299 5.388-.504a51.403 51.403 0 006.228-1.145 5 5 0 013.901.6 5.223 5.223 0 012.458 3.064zM722.553 615.985a5.11 5.11 0 01-3.732-.991 4.994 4.994 0 01-2.108-3.295 686.72 686.72 0 01-1.266-6.267c-.374-1.889-.78-3.998-1.226-6.467a561.81 561.81 0 01-1.308-7.556 428.246 428.246 0 01-1.181-8.398 132.862 132.862 0 01-.717-6.728 69.44 69.44 0 01-.201-4.719 26.848 26.848 0 01.192-3.281c.091-.76.273-1.506.544-2.221a7.296 7.296 0 01.856-1.562 5.802 5.802 0 013.824-2.45 7.861 7.861 0 012.111.085 6.403 6.403 0 012.723 1.253 6.84 6.84 0 011.152.918c.351.349.732.758 1.133 1.227a35.666 35.666 0 013.673 5.331c2.129 3.594 4.691 8.518 7.687 14.771.321.589.612 1.188.884 1.808.272.619.543 1.228.814 1.818.085-.667.164-1.317.236-1.951a16.3 16.3 0 01.305-2.001c.392-3.334.767-6.335 1.128-9.002.36-2.668.727-4.976 1.103-6.923.246-1.241.474-2.321.672-3.262.162-.841.38-1.67.653-2.481.205-.78.461-1.546.765-2.292a5.603 5.603 0 013.491-3.152 5.592 5.592 0 014.663.622 6.647 6.647 0 011.633 1.356 10.394 10.394 0 011.415 2.136c.51.997.951 2.029 1.318 3.087.433 1.199.876 2.628 1.34 4.297.565 1.908 1.13 4.117 1.687 6.605.556 2.489 1.183 5.278 1.86 8.386.527 2.599 1.013 5.127 1.509 7.606s.902 4.678 1.256 6.617c.355 1.939.72 4.118 1.116 6.527a4.456 4.456 0 01-.841 3.672 4.727 4.727 0 01-3.315 1.879h-.08a5.068 5.068 0 01-3.812-.991 5.361 5.361 0 01-2.089-3.385 177.648 177.648 0 00-1.014-5.747 292.305 292.305 0 01-1.085-5.938 354.637 354.637 0 00-1.357-6.926 205.36 205.36 0 00-1.375-6.257c-.127 1.07-.265 2.221-.431 3.471a323.195 323.195 0 00-.501 3.941c-.32 2.548-.604 5.029-.851 7.443a661.006 661.006 0 01-.685 6.401 318.484 318.484 0 00-.479 4.491c-.107 1.141-.155 1.731-.145 1.781a4.603 4.603 0 01-1.293 2.833 4.78 4.78 0 01-2.907 1.387h-.07a5.434 5.434 0 01-5.508-3.286 194.424 194.424 0 00-2.424-5.694c-.754-1.708-1.629-3.646-2.604-5.824l-3.017-6.812a160.883 160.883 0 00-2.674-5.544 765.316 765.316 0 01-2.231-4.414 72.89 72.89 0 00.621 4.428c.274 1.61.549 3.389.853 5.338.4 2.412.795 4.715 1.187 6.907.406 2.189.761 4.148 1.075 5.858.314 1.709.689 3.608 1.124 5.697a4.571 4.571 0 01-.691 3.732 4.722 4.722 0 01-3.225 2.007l-.16.101zM791.358 613.996l-.5.062c-.195.03-.394.031-.59.001-6.761-.703-12.58-4.219-17.456-10.547a35.867 35.867 0 01-3.061-4.742 54.661 54.661 0 01-2.192-4.615 36.556 36.556 0 01-1.48-4.166 82.068 82.068 0 01-.888-3.298 40.482 40.482 0 01.014-18.58 33.616 33.616 0 013.568-9.009 29.607 29.607 0 015.832-7.214 4.851 4.851 0 013.687-1.22 4.994 4.994 0 013.515 1.712 5.282 5.282 0 011.469 3.686 4.24 4.24 0 01-1.592 3.384 19.058 19.058 0 00-3.988 5.01 25.652 25.652 0 00-2.454 6.196 29.273 29.273 0 00-.893 7.002 31.35 31.35 0 00.788 7.308 37.349 37.349 0 001.794 5.696 31.076 31.076 0 003.205 6.052 21.157 21.157 0 004.572 4.939 11.46 11.46 0 006.006 2.415 5.17 5.17 0 011.948.559 5.169 5.169 0 011.586 1.262 5.006 5.006 0 011.349 3.667 4.38 4.38 0 01-1.262 3.003 4.994 4.994 0 01-2.977 1.437zM823.318 548.819a5.235 5.235 0 013.216 2.292 4.878 4.878 0 01.739 3.788c-.929 4.402-1.982 8.498-3.16 12.288a157.588 157.588 0 01-3.803 10.869 253.265 253.265 0 005.929 7.786 519.571 519.571 0 006.62 8.173 4.643 4.643 0 011.19 3.687 4.822 4.822 0 01-1.782 3.365 4.533 4.533 0 01-2.348 1.005c-.887.111-1.787 0-2.621-.323a5.295 5.295 0 01-2.234-1.635c-1.645-2.046-3.239-3.992-4.804-5.988-1.565-1.996-3.07-3.822-4.524-5.729-.995 2.323-2.119 4.586-3.224 6.758-1.104 2.173-2.229 4.396-3.403 6.639l-.398.831a4.646 4.646 0 01-3.654 2.679 5.497 5.497 0 01-3.191-.612 5.148 5.148 0 01-2.598-2.994 4.783 4.783 0 01.241-3.831l.478-.851c1.499-3.01 2.982-5.971 4.448-8.881a180.55 180.55 0 004.258-9.09c-4.977-6.788-9.517-13.604-13.621-20.447a4.857 4.857 0 01-.649-3.798 4.444 4.444 0 012.332-3.006 4.834 4.834 0 013.819-.459 5.2 5.2 0 013.176 2.462 232.832 232.832 0 004.458 7.069 369.96 369.96 0 004.777 7.118 147.49 147.49 0 002.312-7.436c.724-2.551 1.367-5.243 1.98-8.095a4.76 4.76 0 012.222-3.145 4.668 4.668 0 013.819-.489zM847.9 606.757a5.434 5.434 0 01-3.351-.632 5.004 5.004 0 01-2.287-2.564 4.724 4.724 0 01-.414-1.919 4.724 4.724 0 01.405-1.921 4.57 4.57 0 012.713-2.627 10.001 10.001 0 004.871-3.792 18.607 18.607 0 002.596-5.866c.55-2.148.833-4.355.843-6.572a47.3 47.3 0 00-.284-5.89 32.32 32.32 0 00-1.868-7.165 31.851 31.851 0 00-3.346-6.432 28.437 28.437 0 00-4.603-5.289 24.108 24.108 0 00-5.549-3.766 4.827 4.827 0 01-2.727-2.823 4.995 4.995 0 01.081-3.89 4.371 4.371 0 012.733-2.507 5.08 5.08 0 014.001.24 34.97 34.97 0 018.163 5.42 38.443 38.443 0 016.609 7.664 43.61 43.61 0 014.341 8.539 40.999 40.999 0 012.333 9.184c.112.93.225 2 .328 3.369.114 1.444.141 2.893.081 4.34a51.603 51.603 0 01-.438 5.001 33.308 33.308 0 01-1.217 5.293c-2.382 7.26-6.673 12.07-12.874 14.432a3.395 3.395 0 01-.57.151l-.57.022z" fill="#000"/><path d="M1167 676.66l15-14.51c15.36-14.83 9.49-37.91 0-57.06-13.24-26.85-36.46-57.08-52.15-71.35-15.69-14.27-35.56-24.09-56.77-25.16-310.93-15.72-555.58 46.89-676 89.09-51.8 18.15-91.49 89-40.2 172.16" stroke="#000" stroke-width="20"/><path d="M367.76 720.799S680.27 642 865.21 633.9c0 0 164.52-11.68 272.65-7.57" stroke="#000" stroke-width="20"/></g><defs><clipPath id="prefix__clip0_53_30349"><path fill="#fff" d="M0 0h1500v1500H0z"/></clipPath></defs>
      
    </g>
    </svg>