<svg
      xmlns="http://www.w3.org/2000/svg"
      preserveAspectRatio="xMidYMin meet"
      fill="none"
      viewBox="0 0 1500 1500"
    >
      <g>
      <path fill="url(#prefix__paint0_linear_53_28788)" d="M0 0h1500v1500H0z"/><defs><linearGradient id="prefix__paint0_linear_53_28788" x1="0" y1="0" x2="1500" y2="1500" gradientUnits="userSpaceOnUse"><stop stop-color="#DBE4E4"/><stop offset="1" stop-color="#A7BDBD"/></linearGradient></defs>
      <g clip-path="url(#prefix__clip0_53_28440)"><path d="M1263 1500H289.33l3.73-66.49 19.17-107.35L354 1197l57.62-67.7s34.7-23.67 99.38-51.8c64.68-28.13 246.37-32.16 246.37-32.16s164.97-8.43 318.13 51.16C1228.66 1156.09 1263 1500 1263 1500z" fill="#99C4CB"/><path d="M466 1099s-.521 38.21 72.469 75.64 99.8 45.62 99.8 45.62 74.66 17.52 117.89 17.09c43.23-.43 122-9.29 122-9.29s82.32-21.7 109.62-40.47c27.301-18.77 99.721-76.09 99.721-76.09s-88.501-61-209.341-61c0 0-94.19-15.43-209.66 0s-140 25.5-140 25.5l-28 9s-23.389-.21-34.499 14z" fill="#fff"/><path d="M502.047 1215.45c-101.2 100-117.833 249-113.5 311l-99.501-13c-1.6-110.8 39-247.5 59.5-302l39.501-52.5 15.5-20.5 66.5-42.5c149.6-59.6 294-54.83 347.5-45-54.857 11.46-176.664 51.87-274.047 128.14 21.333 10.79 72.7 34.67 107.5 43.91 34.8 9.24 144.833 15.18 195.5 17-134.4 46-275.333-6.91-329-39.11a452.112 452.112 0 00-15.453 14.56z" fill="#001647" fill-opacity=".2"/><path d="M457 1103s81.38 134.36 319.15 134.36C1013.92 1237.36 1087 1109 1087 1109m-570-30c38.5 44.5 125.7 97.6 286.5 90 160.8-7.6 212-62.83 217-89.5M496.359 1145.43l50.11-36.14M578.51 1198.9l32.58-56.52M687.039 1230.64l11.64-66M809.939 1236.42l-3.41-64.42M927.521 1215.06l-28.97-59.27M1030.14 1155.88l-35.54-43.82" stroke="#000" stroke-width="20" stroke-miterlimit="10"/><path d="M289.5 1512.5c-6-101.5 31-323.03 140.5-398 158.5-108.51 616.5-87 706.5 26 64.91 81.5 99.5 222.5 132.5 371M1084.5 1337c12.33 37 29.5 110.3 43.5 175.5m-646.5 0c.333-32.83 7.7-107.6 20.5-157" stroke="#000" stroke-width="20" stroke-linecap="round"/></g><defs><clipPath id="prefix__clip0_53_28440"><path fill="#fff" d="M0 0h1500v1500H0z"/></clipPath></defs>
      <g clip-path="url(#prefix__clip0_299_662)"><path d="M775 1185c231.41 0 419-168.12 419-375.5 0-207.383-187.59-375.5-419-375.5-231.407 0-419 168.117-419 375.5 0 207.38 187.593 375.5 419 375.5z" fill="#ABF"/><path d="M457.5 796c7.6 194 131.833 327.5 193 370l-130-55.5L438 1034l-57.5-89.5-27-106 11-104L394 662l45-82.5 83.5-69.5 109-54.182 28.5-1C569.452 513.314 451.119 633.132 457.5 796z" fill="#001647" fill-opacity=".2"/><path d="M775 1185c231.41 0 419-168.12 419-375.5 0-207.383-187.59-375.5-419-375.5-231.407 0-419 168.117-419 375.5 0 207.38 187.593 375.5 419 375.5z" stroke="#000" stroke-width="20"/></g><defs><clipPath id="prefix__clip0_299_662"><path fill="#fff" d="M0 0h1500v1500H0z"/></clipPath></defs>
      <g clip-path="url(#prefix__prefix__clip0_53_29477)"><path d="M1046 825a40.998 40.998 0 0037.88-25.31 41.043 41.043 0 002.33-23.689 40.939 40.939 0 00-11.22-20.992 40.99 40.99 0 00-44.68-8.888 40.977 40.977 0 00-18.4 15.101 40.996 40.996 0 005.1 51.769A41.006 41.006 0 001046 825z" fill="#000"/><path d="M729.63 808.821l88.08-16a7.737 7.737 0 006.23-6.4 7.757 7.757 0 00-.73-4.64 7.674 7.674 0 00-3.27-3.35l-82.39-43.72m99.27 256.728c38.57 39.211 113.35 39.211 151.93 0" stroke="#000" stroke-width="20" stroke-miterlimit="10" stroke-linecap="round"/></g><defs><clipPath id="prefix__prefix__clip0_53_29477"><path fill="#fff" d="M0 0h1500v1500H0z"/></clipPath></defs>
      <g clip-path="url(#prefix__clip0_53_26381)"><path d="M782.161 900.399a109.43 109.43 0 10.015-218.86 109.43 109.43 0 00-.015 218.86z" fill="#3A3A3A"/><path d="M686.995 740.005l34.151-44.094 126.928 188.178L788 903 686.995 740.005zM743.336 695.507l16.58-11.184 114.06 169.1-16.58 11.184z" fill="#fff" fill-opacity=".7"/><path d="M1079.07 895.077a109.42 109.42 0 0073.49-28.343 109.413 109.413 0 0035.42-70.355 109.405 109.405 0 00-21-75.915 109.438 109.438 0 00-144.16-28.68 109.435 109.435 0 00-42.666 140.649 109.423 109.423 0 0098.916 62.644z" fill="#3A3A3A"/><path d="M983.905 734.682l34.155-44.094 126.92 188.178-60.07 18.911-101.005-162.995zM1040.25 690.184L1056.83 679l114.06 169.1-16.58 11.184z" fill="#fff" fill-opacity=".7"/><path d="M1077.58 899.4c25.32-.01 49.85-8.799 69.41-24.869a109.412 109.412 0 0037.88-63.261 109.452 109.452 0 00-10.85-72.932 109.435 109.435 0 00-128.31-53.068 109.433 109.433 0 00-77.071 115.495 109.427 109.427 0 0031.571 66.635 109.447 109.447 0 0077.37 32v0zM782.161 899.399a109.43 109.43 0 10.015-218.86 109.43 109.43 0 00-.015 218.86zM671 790.5l-294-96.359M891.578 790h76.58" stroke="#000" stroke-width="20" stroke-miterlimit="10"/></g><defs><clipPath id="prefix__clip0_53_26381"><path fill="#fff" d="M0 0h1500v1500H0z"/></clipPath></defs>
      <g clip-path="url(#prefix__clip0_53_25522)"><path d="M496.609 538.541s3.07 10.29 13.57 23.93c14.68 19.1 43.92 44.79 99.63 58.08 95.53 22.79 172.4 22.6 172.4 22.6l108.22-7.34 120.181-28 55.58-41.54 5-17.79-35.22-28.28-23.91-12-11.16-35.68-27.201-17.71-28.95-1.81-11.33-20.5-32.35-21.23-49.42 21.36-22-26.46s-57.65-12.58-81.29 10.29l-49.45-9.46-49.68 22.93-50.58 11.59-36.18 25-18.47 10.67-4.81 34.81-29.55 21.63-13.03 4.91z" fill="#F56CDB"/><path d="M589.5 554.499c-17.6 10.8-17.667 31.5-15.5 40.5l-14.826-31.506L558 585.499l-2.5 7.5-41-14.5-12-26c3.167-6 9.6-18.1 10-18.5.4-.4 15.5-20.833 23-31l9.5-21.5 20-16.5 24-15 60.5-20.5c4.5-3.5 18-12.5 36-20.5s44.167 2.333 55 8.5l27.5-14c17.167-1.666 47.3-3.4 30.5 3-21 8-25.5 35.5-18 42.5 6 5.6 7.833 12.334 8 15l-10.5 11-35-19.5-34.5 1.5c5.833 9.834 13.5 33.6-2.5 50s-27 12.834-30.5 9l11.5-46c-45.6.4-57.333 28.5-57.5 42.5l-7.5-2.5c-8 1.5-24.2 4.5-25 4.5-.8 0-25 22.333-37 33.5l-.573 10.746c8.465-12.804 29.327-35.602 56.073-39.746 28.4-4.4 35.167 32.5 35 51.5-8.5 5.834-25 14-23 0 2.5-17.5-16-29.5-38-16zM731 537.999c4.8-9.2.333-10.833-2.5-10.5l-22.5 4-5.5 20.5 9 35c9.833 5.333 30.1 14.7 32.5 9.5 3-6.5-.5-12-11.5-20s-5.5-27 .5-38.5zM722.5 602.999c3.2 15.6-6.333 26.5-11.5 30h-28.5l20.5-27.5c5.167-7.333 16.3-18.1 19.5-2.5zM774.5 547.999c-15.2 9.2-19.667 5.833-20 3 2.333-5 7.1-15.2 7.5-16 .4-.8 9.167-13.667 13.5-20 4-2.833 12.8-7.1 16-1.5 4 7 2 23-17 34.5zM812 486.999c-15.2-2.4-20-8.333-20.5-11l-20 9c2.333 4.333 7.2 13.2 8 14 .8.8 26.333 11 39 16 11.333 5.5 34 14.7 34 7.5 0-9-21.5-32.5-40.5-35.5zM881.5 462.999c6.4-20.8-6.333-32.333-13.5-35.5l-8 7-2 21c-4.333 7.834-11.9 24.7-7.5 29.5 5.5 6 23 4 31-22zM941.5 494.999c-.8 7.6-8 11.167-11.5 12-3.167-4.5-9.5-13.7-9.5-14.5 0-.8 4.667-16.333 7-24 .833-3 7.1-9.6 25.5-12 18.4-2.4 37 14.333 44 23-3.833-3.5-14.9-10.3-28.5-9.5-17 1-26 15.5-27 25zM865.5 547.999c-7.2-4.8-9-10.667-9-13l-15.5 5 3 24 30 11.5 6-11.5c-1.833-3.333-7.3-11.2-14.5-16zM838.5 602.499c-6.4 10.4-13 10.333-15.5 9-.833-3-2.4-9.8-2-13 .5-4 .5-5.5 2.5-8s12-10 13-10.5c.8-.4 15.333.167 22.5.5 5.667 5.5 15.4 15.9 9 13.5-8-3-21.5-4.5-29.5 8.5zM937.5 553.999c6.8-1.6 3.833-4.667 1.5-6-5.667.333-17.3 1-18.5 1-1.2 0-14.5 3.333-21 5l-14 20-5.5 26-7 35c7.5 1.167 24.1 1 30.5-9 8-12.5 4-40 12-54.5s13.5-15.5 22-17.5zM991 607.499c-5.2-17.2-28.833-18.167-40-16.5.5-4.167 5.2-13.1 20-15.5 14.8-2.4 36.83 14.667 46 23.5l-26 8.5zM1002.5 534.499c-10.4 6.4-16.667 3.333-18.5 1l8-21.5 15-9.5 31 13.5c6.33 8 16.6 21.9 7 13.5-12-10.5-29.5-5-42.5 3z" fill="#001647" fill-opacity=".2"/><path d="M862.2 574.74s-43.48-9.44-41.41 28.91M706.439 588.681s54.87 35.61 77.7-16.38M875.801 591.65s10.73-53.65 61.09-50.65" stroke="#000" stroke-width="20" stroke-miterlimit="10" stroke-linecap="round"/><path d="M508.088 520.15c-58 66 123.13 123 274.12 123s337.432-47.21 277.432-109.21" stroke="#000" stroke-width="20" stroke-miterlimit="10"/><path d="M510.471 573.211s-16.41-39.05 18.09-58.39a19.004 19.004 0 009.71-16.55c0-12.7 4.75-31.74 31.83-36.07a18.489 18.489 0 0010.53-5.49c13.12-13.84 55.19-50.43 101.71-8.85a18.11 18.11 0 0013.66 4.59c19.38-1.68 68.48-1.69 77.57 39.63a18.15 18.15 0 0016.43 14.16c18.61 1.33 47.93 9 48.28 43.85a18.4 18.4 0 0010.42 16.32c17.73 8.61 47.07 30.4 16.56 72.31" stroke="#000" stroke-width="20" stroke-miterlimit="10"/><path d="M1051.69 586.52s26.14-58.36-26.84-77.14a18.723 18.723 0 01-11.74-12.16c-4.79-15.85-18.56-45.85-53.73-43.27a17.806 17.806 0 01-16.57-8.54c-10.36-17.26-36-47.64-78.43-22.22a18.273 18.273 0 01-22.4-2.81c-15-15.28-46.36-36.93-87-8.85a18.01 18.01 0 01-8.97 3.185 17.99 17.99 0 01-9.34-1.835c-17.43-8.77-55.12-21.18-78.83 19.23" stroke="#000" stroke-width="20" stroke-miterlimit="10"/><path d="M576.419 610.05s-37.83-41.78 0-76.4c37.19-34 61.17-10.54 71.05 3.81a31.001 31.001 0 015 24.17c-2.39 10.91-11.15 22.36-39.39 14.48M682.34 447.859s31.85 35.88-6.27 59.91M773.539 492.08s8 28.27-16.34 51.49M957.441 453.631s-50.29 4.79-33.06 46.72" stroke="#000" stroke-width="20" stroke-miterlimit="10" stroke-linecap="round"/><path d="M570.102 462.198S581 460.725 589 465s9.415 5.78 13.384 9.093a35.085 35.085 0 0112.601 27.121 35.092 35.092 0 01-3.423 14.934M755.001 411.529s-31.13 17.06-19 40.66M764.59 472.84s39.11 8.2 39.11-31.68M1024.85 509.38s-40.1-14.48-40.1 17.9M842 420.381s31.9 24.93 8.12 56.61M829.289 522.93s32.53 22.38 53.6-15.16M676.07 633.54l19.87-15.6c14.85-11.67 13-25.06 5.54-47.53-11.05-33.13 20.32-47.48 20.32-47.48M934.461 597.121c32-36.06 58.65-21.7 86.569-2.61l3.82 2.61" stroke="#000" stroke-width="20" stroke-miterlimit="10" stroke-linecap="round"/></g><defs><clipPath id="prefix__clip0_53_25522"><path fill="#fff" d="M0 0h1500v1500H0z"/></clipPath></defs>
      
    </g>
    </svg>