<svg
      xmlns="http://www.w3.org/2000/svg"
      preserveAspectRatio="xMidYMin meet"
      fill="none"
      viewBox="0 0 1500 1500"
    >
      <g>
      <path fill="url(#prefix__paint0_linear_53_30463)" d="M0 0h1500v1500H0z"/><defs><linearGradient id="prefix__paint0_linear_53_30463" x1="1500" y1="1500" x2="0" y2="0" gradientUnits="userSpaceOnUse"><stop stop-color="#FF5A5A"/><stop offset="1" stop-color="#FFBDBD"/></linearGradient></defs>
      <g clip-path="url(#prefix__clip0_53_27659)"><path d="M1270 1510H289.328l3.73-76.49 19.17-107.35 44.77-126.16 57.62-69.7s16.68-13.8 39.81-26.64c2.98-1.65 6.13-1.37 9.45-3.15l.27-.14a755.252 755.252 0 0133.91-17.06c7.333-7.49 15.14-3.04 23.42-6.63 64.69-28.13 195.37-31.16 195.37-31.16s177.58-8.86 326.462 39.72c6 1.95 11.92 4.01 17.78 6.19 2.36.87 4.72 1.77 7.06 2.68 11.17 4.4 21.77 10.13 31.58 17.07.26.17.49.35.75.53C1227.31 1201.61 1270 1510 1270 1510z" fill="#FF6247"/><path d="M591.29 1502.91l-5.94-181.35 9.9-75.13-78-36.21-30.81-42.7-24.53-66.01L504 1080.5l114-27.5 157-9.5h26l18.5 5 108 4.5 113 31.5 56.5 25.5-26.3 60.76-16.22 27.03-41.98 28.71-26.12 16.14 18.92 126.48-3.17 133.79H882.11l6.58-174.09L859.47 1185l-136.63 4.04-12.43 117.85 8.34 196.02H591.29z" fill="#fff"/><path d="M718.751 1502.91l-8.56-129.02 7.78-138.64 16.529-89.75 37-105 41.831 3.5L855 1141l28.271 112.3.58 201.47-1.74 48.14h-163.36z" fill="#ABF"/><path d="M289.5 1512.5c-6-101.5 31-323.03 140.5-398 158.5-108.51 616.5-87 706.5 26 64.91 81.5 99.5 222.5 132.5 371M1084.5 1337c12.33 37 29.5 110.3 43.5 175.5m-646.5 0c.333-32.83 7.7-107.6 20.5-157" stroke="#000" stroke-width="20" stroke-linecap="round"/><path d="M944.701 1500c9.284 0 16.81-7.53 16.81-16.81 0-9.29-7.526-16.81-16.81-16.81-9.284 0-16.81 7.52-16.81 16.81 0 9.28 7.526 16.81 16.81 16.81zM655.56 1500c9.284 0 16.81-7.53 16.81-16.81 0-9.29-7.526-16.81-16.81-16.81-9.284 0-16.81 7.52-16.81 16.81 0 9.28 7.526 16.81 16.81 16.81zM944.701 1414.23c9.284 0 16.81-7.53 16.81-16.81 0-9.28-7.526-16.81-16.81-16.81-9.284 0-16.81 7.53-16.81 16.81 0 9.28 7.526 16.81 16.81 16.81zM649.072 1414.23c9.284 0 16.81-7.53 16.81-16.81 0-9.28-7.526-16.81-16.81-16.81-9.284 0-16.81 7.53-16.81 16.81 0 9.28 7.526 16.81 16.81 16.81zM939.271 1323.7c9.284 0 16.81-7.53 16.81-16.81 0-9.29-7.526-16.81-16.81-16.81-9.284 0-16.81 7.52-16.81 16.81 0 9.28 7.526 16.81 16.81 16.81zM649.072 1323.7c9.284 0 16.81-7.53 16.81-16.81 0-9.29-7.526-16.81-16.81-16.81-9.284 0-16.81 7.52-16.81 16.81 0 9.28 7.526 16.81 16.81 16.81zM927.888 1229.86c9.284 0 16.81-7.53 16.81-16.81 0-9.29-7.526-16.81-16.81-16.81-9.284 0-16.81 7.52-16.81 16.81 0 9.28 7.526 16.81 16.81 16.81zM652.072 1229.86c9.284 0 16.81-7.53 16.81-16.81 0-9.29-7.526-16.81-16.81-16.81-9.284 0-16.81 7.52-16.81 16.81 0 9.28 7.526 16.81 16.81 16.81zM1015.43 1172.77c9.28 0 16.81-7.53 16.81-16.81 0-9.29-7.53-16.81-16.81-16.81-9.28 0-16.809 7.52-16.809 16.81 0 9.28 7.529 16.81 16.809 16.81zM559.322 1172.77c9.284 0 16.81-7.53 16.81-16.81 0-9.29-7.526-16.81-16.81-16.81-9.284 0-16.81 7.52-16.81 16.81 0 9.28 7.526 16.81 16.81 16.81zM603.64 1254.81c-5.34 28.51-20.93 129.2-1.19 245.1a.272.272 0 000 .09h-20.27c-19.12-115.78-4.17-216.29 1.52-247.31-66.68-21.51-98.4-59.83-113.29-88.3a150.094 150.094 0 01-14.85-43.17c-.5-2.86-.85-5.4-1.1-7.56-.331-2.74-1.515-13.49-1.55-16.25h20c0 .06 1 9.94 1.36 13.21a127.404 127.404 0 0014.35 45.38c19.39 36.4 53.93 62.68 102.67 78.08a18.192 18.192 0 0110.113 8.02 18.165 18.165 0 012.237 12.71zM1103.57 1112.6c0 .13 0 .27-.07.4-.58 3.55-3.21 17.76-3.96 21.17-7.34 32.37-24.28 58.7-48.45 78.39a148.947 148.947 0 01-55.222 27.92c23.402 101.59 18.242 225.1 16.202 259.52h-20.072v-.09c1.86-31.92 7.2-157.43-16-256.59a18.237 18.237 0 012.213-13.62 18.266 18.266 0 0111.117-8.19 128.672 128.672 0 0049.132-24.46c22.16-18 37.24-42.86 42.9-73.76.2-1 2.34-12.83 2.51-13.89l9.87 1.6 9 1.46.83.14z" fill="#000"/><path d="M722.5 1512.5C713.5 1418 681 1241 774 1044m106 468.5c13.5-81.83 22.8-276.1-62-467.5" stroke="#000" stroke-width="20" stroke-linecap="round"/><path d="M401.501 1135.5l66.5-42.5L607 1058l156.5-13v18.5C634.7 1103.1 544.167 1171.67 515 1201l78.5 49.5-5 67-3 85 12 106-30 2c-24.6-96.2-10.667-205.33 0-248.5-28.8-9.2-60.943-32.5-73.415-43.5-95.934 99.87-111.831 244.23-107.583 305l-99.502-13c-1.6-110.8 39-247.5 59.5-302l39.501-52.5 15.5-20.5zM857.5 1289.5c-12-112.4-47.667-206.5-64-239.5l26-5 19.5 56 35.5 136.5 13 117L882 1503l-29 19.5c6.5-30.83 16.5-120.6 4.5-233z" fill="#001647" fill-opacity=".2"/></g><defs><clipPath id="prefix__clip0_53_27659"><path fill="#fff" d="M0 0h1500v1500H0z"/></clipPath></defs>
      <g clip-path="url(#prefix__clip0_299_662)"><path d="M775 1185c231.41 0 419-168.12 419-375.5 0-207.383-187.59-375.5-419-375.5-231.407 0-419 168.117-419 375.5 0 207.38 187.593 375.5 419 375.5z" fill="#ABF"/><path d="M457.5 796c7.6 194 131.833 327.5 193 370l-130-55.5L438 1034l-57.5-89.5-27-106 11-104L394 662l45-82.5 83.5-69.5 109-54.182 28.5-1C569.452 513.314 451.119 633.132 457.5 796z" fill="#001647" fill-opacity=".2"/><path d="M775 1185c231.41 0 419-168.12 419-375.5 0-207.383-187.59-375.5-419-375.5-231.407 0-419 168.117-419 375.5 0 207.38 187.593 375.5 419 375.5z" stroke="#000" stroke-width="20"/></g><defs><clipPath id="prefix__clip0_299_662"><path fill="#fff" d="M0 0h1500v1500H0z"/></clipPath></defs>
      <g clip-path="url(#prefix__clip0_53_29144)" stroke="#000" stroke-width="20" stroke-linecap="round"><path d="M844.63 1012.87h141.62M829.06 777.09l-31.89-.02-34.13-.03-43.3-.04"/><path d="M805.53 785.89A29.91 29.91 0 11763 777h34.13a29.774 29.774 0 018.4 8.89z" fill="#000"/><path d="M1081.06 777l-43.31.04-34.13.03-31.88.02"/><path d="M995.26 785.889a29.915 29.915 0 00-4.456 16.588 29.915 29.915 0 0018.886 26.947 29.916 29.916 0 0017.11 1.473 29.872 29.872 0 0015.1-8.183 29.836 29.836 0 008.11-15.14 29.887 29.887 0 00-12.26-30.535h-34.13a29.957 29.957 0 00-8.36 8.85z" fill="#000"/></g><defs><clipPath id="prefix__clip0_53_29144"><path fill="#fff" d="M0 0h1500v1500H0z"/></clipPath></defs>
      <g clip-path="url(#prefix__clip0_53_27350)"><path d="M695 882.421v6.14a7.746 7.746 0 01-.67 3.22c-1.26 2.86-3.34 3-3.34 3a7.817 7.817 0 01-6.39-1.32c-2.64-2.11-9.24-20.21-9.24-20.21l-12.71 20.21H654l17.8-28.21-5.59-11.59a4.654 4.654 0 00-4.07-2.64H662a4.724 4.724 0 00-4.13 1.7c-.89.89-1.21 3.78-1.21 3.78l-1.78.13a22.972 22.972 0 01-.13-5.28 7.776 7.776 0 011.34-3.76 5.694 5.694 0 014.83-2.61 7.816 7.816 0 014.51 1.43 8.67 8.67 0 013 3.74l5.26 13.05 11.44-17.4H693l-15.8 24.51 3.94 9.32s3 9 7.31 9 4.71-6.22 4.71-6.22l1.84.01z" fill="#000"/></g><defs><clipPath id="prefix__clip0_53_27350"><path fill="#fff" d="M0 0h1500v1500H0z"/></clipPath></defs>
      <g clip-path="url(#prefix__clip0_53_25453)"><path d="M661.719 466.274s.681-50.314 11.211-50.049c10.531.266 30.241-4.165 30.241-4.165l31.003 15.989 25.638-5.424 28.99-24.747 27.071-1.791 27.883 14.121 15.446 18.681 23.411.145 50.96-13.954 24.276 23.68-19.232 52.574-44.507-21.369-17.618-6.041-23.175-7.036-28.049-1.943-32.388-.112-55.638 3.68-50.45 8.949-25.073-1.188z" fill="#97A5DE"/><path d="M718.506 479.214s19.322 40.453 64.014 34.31c44.692-6.143 83.522-32.583 83.522-32.583l10.406-17.065-81.463-14.775-84.096 14.041s-8.664 11.898 7.617 16.072z" fill="#7985B4"/><path d="M662.843 469.488s-13.534-58.554 30.087-60.287c15.493-.614 25.434 4.992 32.226 12.21 13.894 14.755 29.392 7.707 38.346-2.386 11.842-13.391 27.482-26.021 44.854-27.17 20.226-1.338 34.215 14.393 42.889 29.474 6.094 10.621 21.799 13.651 33.204 6.683 11.953-7.315 28.35-12.9 48.081-8.683 42.964 9.245 6.064 69.091 6.064 69.091" stroke="#000" stroke-width="18.1" stroke-miterlimit="10" stroke-linecap="round"/><path d="M630.048 507.636s25.276-45.068 51.452-39.634c40.502 8.395 74.399 69.733 74.399 69.733M800.818 537.27s38.761-65.501 93.251-67.301c54.49-1.801 48.429 57.93 48.429 57.93M682 468s137.209-40.275 226.408 2.982M736.796 506.5s35.103 14.655 86.489 1.675" stroke="#000" stroke-width="20" stroke-miterlimit="10" stroke-linecap="round"/><path d="M633.444 684.097l-56.674-35.609c65 69.011 27.083 111.342 0 123.88-78.641 22.469-92.284-37.113-89.275-69.713l17.554-48.65-31.597 30.092c-28.755 20.898-89.474 43.033-102.314-35.609-12.839-78.642 62.86-79.243 102.314-69.713l-24.073-12.539c-31.764-22.235-79.644-75.932-17.052-112.845 62.592-36.913 93.286 29.758 100.809 67.708l11.034 17.051v-17.051c10.866-47.646 47.044-127.893 104.821-67.708s-1.337 102.982-38.117 116.857h64.197c18.557-.501 54.066 11.937 47.646 65.702-6.419 53.764-62.19 54.5-89.273 48.147z" fill="#4AEEB9"/><path d="M550.448 546.877s-14.554-56.172 21.065-90.929c54.577-53.343 138.094 26.682 88.271 84.53-15.207 17.674-33.764 19.239-75.381 37.294M509.964 634.447s-19.921 54.587-68.831 63.876c-75.01 14.253-102.093-101.13-28.668-121.804 22.449-6.309 39.752 1.766 84.409 9.74M591.735 593.431s49.632-40.665 95.563-21.346c70.346 29.581 29.089 137.622-43.594 114.221-22.198-7.152-34.435-18.186-67.206-49.582M567.741 646.231s48.308 26.602 43.594 76.154c-7.233 75.973-122.667 68.801-122.025-7.513.201-23.312 2.478-33.413 32.56-70.216M492.721 571.754s-60.816-1.816-80.517-47.526c-30.223-70.065 74.428-116.979 110.579-49.773 11.034 20.533 9.028 31.346 10.924 76.675" stroke="#000" stroke-width="20" stroke-miterlimit="10"/><path d="M542.815 652.773a57.182 57.182 0 0052.823-35.296 57.17 57.17 0 00-12.394-62.309 57.174 57.174 0 00-62.309-12.394 57.187 57.187 0 00-25.66 21.058 57.18 57.18 0 007.111 72.194 57.173 57.173 0 0040.429 16.747z" fill="#FFBF44" stroke="#000" stroke-width="20" stroke-miterlimit="10"/><path d="M585 497c8-34.8 36-45.833 49-47-10.5-3.333-31.9-10-33.5-10-1.6 0-20.667 6.667-30 10L549 491l-10.5 45c.166-7.167.1-23.6-1.5-32-1.6-8.4-8.667-23.833-12-30.5L508.5 455l-26-10-24 5-37 9.5c-3.834 16.667-11.4 50.4-11 52 .4 1.6 23.833 40 35.5 59L379 593c-6.333 15.5-14.6 54.2 3 85 17.6 30.8 76.667 15.167 104 3.5 2 6.5 7.6 27.3 14 58.5s35.333 34.667 49 32.5c-2.833-2.667-9.3-16.7-12.5-51.5-3.2-34.8 7-55.167 12.5-61v-8.5c-10.167-2.333-30.9-15.6-32.5-50-1.6-34.4 24-51 37-55l39.5 19c-6-8.333-16-33.7-8-68.5z" fill="#001647" fill-opacity=".2"/></g><defs><clipPath id="prefix__clip0_53_25453"><path fill="#fff" d="M0 0h1500v1500H0z"/></clipPath></defs>
      
    </g>
    </svg>