<svg
      xmlns="http://www.w3.org/2000/svg"
      preserveAspectRatio="xMidYMin meet"
      fill="none"
      viewBox="0 0 1500 1500"
    >
      <g>
      <path fill="url(#prefix__paint0_linear_53_30461)" d="M0 0h1500v1500H0z"/><defs><linearGradient id="prefix__paint0_linear_53_30461" x1="0" y1="0" x2="1500" y2="1533.5" gradientUnits="userSpaceOnUse"><stop stop-color="#EEB0FC"/><stop offset="1" stop-color="#AF55F5"/></linearGradient></defs>
      <g clip-path="url(#a)"><path fill="#9E6740" d="M232.4 1025.3s23.5 56.5 48.8 70.7c25.4 14.2 99.4 62.6 99.4 62.6s-29 36.5-34.6 50.8l-74-38.5-51.6-57-36.2-58s35.2-10.8 48.2-30.6Z"/><path fill="#72411F" d="m95.4 971 43.2 54.3 25 21.3s46 25 75-37.8c29-62.9-4.4-115-4.4-115l-7.7-10.8-18.5 19.8-17.8-39.2-34.7-23-3 47.1-41-20.5-53.7 5-26.6 14.1L68 898.8l21.6 12.8 12.8 10.7-17.2 5.8-19.2 14.4L95.4 971Z"/><path fill="#9E6740" d="M460.5 1094.5c-138.4 66.4-174 309.3-174.5 422.5h983.5c-12.5-72.2-53.2-244.1-116-354.5-78.5-138-520-151-693-68Z"/><path fill="#001647" fill-opacity=".2" d="M500 1213.5c-101.2 100-117.8 249-113.5 311l-99.5-13c-1.6-110.8 39-247.5 59.5-302l-32.5-15-79-60.5-49-77.5-34-12.5-30.5-29c-13-17.2-40.5-54.5-46.5-66.5s17.2-18 29.5-19.5L94 915.5 30.5 888C39 880.8 62 865.3 86 860.5c24-4.8 52.7 16.3 64 27.5l4.5-18c-6.8-7.3-16.4-22.4 0-24 16.4-1.6 44.5 39.3 56.5 60l11-32.5c4.3 5.7 16.1 26.1 28.5 62.5 12.4 36.4-6.8 78.2-18 94.5 1.3 6.8 11.2 27.7 40 56.5s87.7 58.7 113.5 70l15.5-20.5L468 1094c149.6-59.6 294-54.8 347.5-45-63 13.2-214.3 64.5-315.5 164.5Z"/><path stroke="#000" stroke-linecap="round" stroke-width="20" d="M289.5 1512.5c-6-101.5 31-323 140.5-398 158.5-108.5 616.5-87 706.5 26 65 81.5 99.5 222.5 132.5 371M1084.5 1337c12.3 37 29.5 110.3 43.5 175.5m-646.5 0c.3-32.8 7.7-107.6 20.5-157"/><path stroke="#000" stroke-miterlimit="10" stroke-width="20" d="M186.7 1056.2c7.7 16.8 61.3 133 173 153.2M391.3 1158.8s-124.7-39.2-157.2-129"/><path stroke="#000" stroke-miterlimit="10" stroke-width="18.7" d="M21.2 890.2c10.6-8.8 74.9-57.8 133.1.6a.8.8 0 0 0 1.3-.1l.2-.5c.1-7 .2-31.7-7.9-48.4a.8.8 0 0 1 0-.7c0-.2.2-.3.3-.3l.4-.2c7.2-.4 44.1 1 62.2 68.2a.8.8 0 0 0 .8.6.8.8 0 0 0 .8-.5 141.9 141.9 0 0 0 9.3-39 .8.8 0 0 1 1.3 0c8.9 13 55.6 88 11.7 156.4a59 59 0 0 1-70.8 23.6c-15.5-6-32-19.4-46.5-46.2A186.6 186.6 0 0 0 84 958.6c-5.8-5.7-11.8-11-18-16.1a2.9 2.9 0 0 1 .7-5 88 88 0 0 1 41.7-6.1.8.8 0 0 0 .4-1.2c-4.2-6.5-24.5-32.7-87-38.5a.8.8 0 0 1-.7-1l.2-.5Z"/><path fill="#72411F" d="M998.9 1500H658.5c-6.6-142.4 34-241.3 152.2-241.3 119.7 0 171.6 98.9 188.2 241.3Z"/><path stroke="#000" stroke-width="20" d="M660 1512c-9.8-84.7.8-254 150-254 155.2 0 185.5 176 190.5 264"/></g><defs><clipPath id="a"><path fill="#fff" d="M0 0h1500v1500H0z"/></clipPath></defs>
      <g clip-path="url(#prefix__clip0_299_662)"><path d="M775 1185c231.41 0 419-168.12 419-375.5 0-207.383-187.59-375.5-419-375.5-231.407 0-419 168.117-419 375.5 0 207.38 187.593 375.5 419 375.5z" fill="#ABF"/><path d="M457.5 796c7.6 194 131.833 327.5 193 370l-130-55.5L438 1034l-57.5-89.5-27-106 11-104L394 662l45-82.5 83.5-69.5 109-54.182 28.5-1C569.452 513.314 451.119 633.132 457.5 796z" fill="#001647" fill-opacity=".2"/><path d="M775 1185c231.41 0 419-168.12 419-375.5 0-207.383-187.59-375.5-419-375.5-231.407 0-419 168.117-419 375.5 0 207.38 187.593 375.5 419 375.5z" stroke="#000" stroke-width="20"/></g><defs><clipPath id="prefix__clip0_299_662"><path fill="#fff" d="M0 0h1500v1500H0z"/></clipPath></defs>
      <g clip-path="url(#prefix__clip0_53_29144)" stroke="#000" stroke-width="20" stroke-linecap="round"><path d="M844.63 1012.87h141.62M829.06 777.09l-31.89-.02-34.13-.03-43.3-.04"/><path d="M805.53 785.89A29.91 29.91 0 11763 777h34.13a29.774 29.774 0 018.4 8.89z" fill="#000"/><path d="M1081.06 777l-43.31.04-34.13.03-31.88.02"/><path d="M995.26 785.889a29.915 29.915 0 00-4.456 16.588 29.915 29.915 0 0018.886 26.947 29.916 29.916 0 0017.11 1.473 29.872 29.872 0 0015.1-8.183 29.836 29.836 0 008.11-15.14 29.887 29.887 0 00-12.26-30.535h-34.13a29.957 29.957 0 00-8.36 8.85z" fill="#000"/></g><defs><clipPath id="prefix__clip0_53_29144"><path fill="#fff" d="M0 0h1500v1500H0z"/></clipPath></defs>
      <g clip-path="url(#prefix__clip0_53_27047)"><path d="M366 832l16.5 16c15 22.5 75.8 72.4 199 92 123.2 19.6 226.667-14.167 263-33.5l61-40.5 49 22c53.6 26 127.67 23.167 158 18.5L1178 888c-53.5 175.5-191 240.5-256 263.5-63.5 22.47-210 48.5-348.5-23.5C418.003 1047.16 374 922 366 832z" fill="#3A3A3A"/><path d="M380.5 944.501l-27-106c0-11.2 108.5 85.499 192.593 85.5C583.434 1059.9 673.338 1152.84 722.5 1187L617 1157.5l-96.5-47L438 1034l-57.5-89.499z" fill="#000" fill-opacity=".2"/><path d="M1182.5 885c-160.5 56.32-224.81 6.02-257.92-13.42a32.51 32.51 0 00-38.35 4.06c-28.08 25.49-93.46 67.68-218.65 67.68-65.693 3.727-219.578-15.02-309.578-119.82" stroke="#000" stroke-width="20" stroke-miterlimit="10"/></g><defs><clipPath id="prefix__clip0_53_27047"><path fill="#fff" d="M0 0h1500v1500H0z"/></clipPath></defs>
      <g clip-path="url(#a)"> <path fill="#3A3A3A" d="m500.5 506.5-86.7 95.8-7.6 25.9-16.5-13v21.3l-14.2 29-6.5 26-5.9 13.5v27.4l137.4-36 281.9-43.8 203.1-20.4 163.5 6.4-33.6-56.8-44.6-50.8-54.2-42.4-85.2-40.4-124-19L652 439.8l-151.5 66.8Z"/> <path fill="#000" fill-opacity=".2" d="M692 440c-99.6 64.8-158.8 200-176 259.5L358.5 723c5.8-27.8 34.4-102.3 102-177.5S643 443.8 692 440Z"/> <path stroke="#000" stroke-linecap="round" stroke-miterlimit="10" stroke-width="20" d="M365.8 728.5C438.7 708.9 866 599.4 1145 639a6.9 6.9 0 0 0 7.8-6.6c0-1.3-.3-2.6-1-3.7-30.3-49.7-159.9-231.8-425.3-200-291 35-357.4 241.3-369.3 291.5a6.7 6.7 0 0 0 1.9 6.5 6.9 6.9 0 0 0 6.5 1.7h0Z"/> </g> <defs> <clipPath id="a"> <path fill="#fff" d="M0 0h1500v1500H0z"/> </clipPath> </defs>
      
    </g>
    </svg>