<svg
      xmlns="http://www.w3.org/2000/svg"
      preserveAspectRatio="xMidYMin meet"
      fill="none"
      viewBox="0 0 1500 1500"
    >
      <g>
      <path fill="url(#prefix__paint0_linear_53_28788)" d="M0 0h1500v1500H0z"/><defs><linearGradient id="prefix__paint0_linear_53_28788" x1="0" y1="0" x2="1500" y2="1500" gradientUnits="userSpaceOnUse"><stop stop-color="#DBE4E4"/><stop offset="1" stop-color="#A7BDBD"/></linearGradient></defs>
      <g clip-path="url(#prefix__clip0_53_27489)"><path d="M460.5 1094.5c-138.4 66.4-174 309.33-174.5 422.5h983.5c-12.5-72.17-53.2-244.1-116-354.5-78.5-138-520-151-693-68z" fill="#99C4CB"/><path d="M814.5 1339c-132.8-90.8-222.333-220.83-250.5-274.5 220.8-38.8 400.333-4.17 462.5 18-27.2 103.6-152.667 214.17-212 256.5z" fill="#ABF"/><path d="M884 1393l153 107.5H884l-134-99-121-113-68-76.5-87.5-118 16.5-4 31.5-13 39.5-12.5 95 136.5 159.5 139L923 1237.5l52.5-51.5 56.5-105 29 11.5 33 17 2.5 14-37 81.5-71 92.5L884 1393z" fill="#fff"/><path d="M499.998 1213.5c-101.2 100-117.834 249-113.5 311l-99.502-13c-1.6-110.8 39-247.5 59.5-302l39.501-52.5 15.5-20.5 66.5-42.5c149.6-59.6 294-54.83 347.5-45-39.584 8.27-114.025 31.61-188.997 72.62a710.622 710.622 0 00-19 10.78c-24.668 14.51-49.078 30.97-72 49.47L690 1351.5 880 1500l8 21.5c-127.8-59.4-298.795-240.83-366.942-328-5.822 5.19-15.516 14.52-21.06 20z" fill="#001647" fill-opacity=".2"/><path d="M289.5 1512.5c-6-101.5 31-323.03 140.5-398 158.5-108.51 616.5-87 706.5 26 64.91 81.5 99.5 222.5 132.5 371M1084.5 1337c12.33 37 29.5 110.3 43.5 175.5m-646.5 0c.333-32.83 7.7-107.6 20.5-157" stroke="#000" stroke-width="20" stroke-linecap="round"/><path d="M813.56 1341.57S967.5 1242.5 1026.5 1083m-212.94 258.57C725.5 1270 627 1177.5 563 1060m250.56 281.57C866.706 1384.05 991.7 1478 1066.5 1514m-589-421.5c47.333 82.17 199 281.5 427 421.5m-25-121.76s174.01-131.44 217.5-283.74" stroke="#000" stroke-width="20" stroke-miterlimit="10"/></g><defs><clipPath id="prefix__clip0_53_27489"><path fill="#fff" d="M0 0h1500v1500H0z"/></clipPath></defs>
      <g clip-path="url(#prefix__clip0_299_662)"><path d="M775 1185c231.41 0 419-168.12 419-375.5 0-207.383-187.59-375.5-419-375.5-231.407 0-419 168.117-419 375.5 0 207.38 187.593 375.5 419 375.5z" fill="#ABF"/><path d="M457.5 796c7.6 194 131.833 327.5 193 370l-130-55.5L438 1034l-57.5-89.5-27-106 11-104L394 662l45-82.5 83.5-69.5 109-54.182 28.5-1C569.452 513.314 451.119 633.132 457.5 796z" fill="#001647" fill-opacity=".2"/><path d="M775 1185c231.41 0 419-168.12 419-375.5 0-207.383-187.59-375.5-419-375.5-231.407 0-419 168.117-419 375.5 0 207.38 187.593 375.5 419 375.5z" stroke="#000" stroke-width="20"/></g><defs><clipPath id="prefix__clip0_299_662"><path fill="#fff" d="M0 0h1500v1500H0z"/></clipPath></defs>
      <g clip-path="url(#prefix__clip0_53_29421)"><path d="M914.5 1067.2a53.704 53.704 0 0049.612-33.15 53.7 53.7 0 00-39.136-73.217 53.701 53.701 0 00-55.126 22.834 53.696 53.696 0 00-4.962 50.383 53.569 53.569 0 0011.64 17.42 53.673 53.673 0 0017.422 11.64 53.676 53.676 0 0020.55 4.09z" fill="#fff" stroke="#000" stroke-width="20" stroke-miterlimit="10" stroke-linecap="round"/><path d="M764.05 841.24c31.336 0 56.74-25.404 56.74-56.74 0-31.337-25.404-56.74-56.74-56.74-31.337 0-56.74 25.403-56.74 56.74 0 31.336 25.403 56.74 56.74 56.74zM1048.19 841.24c31.34 0 56.74-25.404 56.74-56.74 0-31.337-25.4-56.74-56.74-56.74-31.34 0-56.74 25.403-56.74 56.74 0 31.336 25.4 56.74 56.74 56.74z" fill="#fff" stroke="#000" stroke-width="20" stroke-miterlimit="10"/><path d="M764.05 797.5c7.18 0 13-5.82 13-13s-5.82-13-13-13-13 5.82-13 13 5.82 13 13 13zM1048.19 797.5c7.18 0 13-5.82 13-13s-5.82-13-13-13-13 5.82-13 13 5.82 13 13 13z" fill="#000"/></g><defs><clipPath id="prefix__clip0_53_29421"><path fill="#fff" d="M0 0h1500v1500H0z"/></clipPath></defs>
      <g clip-path="url(#prefix__clip0_53_26707)"><path d="M1086 1014c0 39.21-75.66 71-169 71-93.336 0-169-31.76-169-71 0-39.241 75.664-101 169-101 93.34 0 169 61.788 169 101z" fill="#ABF"/><path d="M797.83 990.76s-2.26-46.71 35.63-47.76l12.4-.07 3.7 53.67-51.73-5.84zM796.078 999.77h59.58l3.78 54.84-37.21-2.24-13.26-25.18-12.89-27.42z" fill="#C6C6C6"/><path d="M845.859 942.93l34.49 8.62 26.47-3.52 5.08 50.29-56.24 1.45-9.8-56.84z" fill="#C6C6C6"/><path d="M910.488 947.172h68.54l.03 51.15h-67.16l-1.41-51.15zM983.589 944.871l17.001 2.3 24.03 9.66 9.05 28.5-.91 12.99h-53.701l4.53-53.45z" fill="#C6C6C6"/><path d="M849.559 996.602l62.34 1.72 7.38 54.048-59.84 2.24-9.88-58.008zM918.461 999.77h64.2l-8.03 54.84-55.35-2.24-.82-52.6z" fill="#C6C6C6"/><path d="M975.289 994.512l63.171 5.26-6.4 30.408-34.761 26.48-17.86-2.05-4.15-60.098z" fill="#C6C6C6"/><path d="M797.489 985.841c-1.87-27.17 21.28-47.59 48.37-42.91 20 3.45 43.93 5.16 69 5.16s48.63-1.84 68.06-5.36c26.511-4.82 52.631 15.6 54.521 42.87l1.08 15.709c2 29.44-20.17 53.3-49.601 53.3h-133.4c-29.43 0-54.94-23.86-57-53.3l-1.03-15.469zM798.352 998.309h234.408M912.512 954.172l6.78 98.198M845.031 947.172l14.26 105.198M979.031 947.172l.26 105.198" stroke="#000" stroke-width="20" stroke-miterlimit="10"/><path d="M830.5 966l2 14m63-13l1 14m-59 37l2 14m60-15l1 14m61-65v15m0 36v18m56-59v6m0 35v7" stroke="#fff" stroke-width="8" stroke-linecap="round"/></g><defs><clipPath id="prefix__clip0_53_26707"><path fill="#fff" d="M0 0h1500v1500H0z"/></clipPath></defs>
      <g clip-path="url(#prefix__clip0_53_25878)"><path d="M358.007 603.505l-35.094-66.474s14.559-77.798 61.586-98.155c47.284-20.477 100.011-44.032 100.011-44.032l125.765-51.621 140.978-44.655 107.015-13.297 60.517-11.761 64.444-1.319 68.311 2.442s-5.87-21.168 49.57 20.824c69.89 52.898 17.73 171.573 17.73 171.573l-26.67 15.714-149.833 58.17-143.667 36.011-218.556 28.191-189.255 2.917-32.852-4.528z" fill="#265CC2"/><path d="M358.054 602.428l16.232 48.253 17.081 19.493 202.9-8.586 240.32-27.99 238.913-72.436 49.06-27.654-15.41-53.759-218.011 75.678-113.521 23.596-195.413 25.08-222.151-1.675z" fill="#FFBF44"/><path d="M551.379 669.503s217.022 55.725 380.917 44.215c163.894-11.51 232.174-52.101 232.174-52.101s47.7-25.484 4.93-82.055c-42.77-56.571-75.09-35.68-75.09-35.68S967.095 605.161 760.635 646.12l-209.256 23.383z" fill="#265CC2"/><path d="M1020.05 452.516l-38.165-15.776-36.54 29.122a4.78 4.78 0 01-2.212.949 3.746 3.746 0 01-2.196-.338 3.108 3.108 0 01-1.45-1.509 3.621 3.621 0 01-.223-2.179l9.095-42.955-34.401-21.209a3.096 3.096 0 01-1.318-1.636 3.698 3.698 0 01-.043-2.218 4.697 4.697 0 011.232-2.046 4.776 4.776 0 012.084-1.188l43.437-10.699 14.949-42.171a4.956 4.956 0 011.453-1.84 4.85 4.85 0 012.14-.964 4.109 4.109 0 012.174.192c.649.256 1.2.708 1.577 1.291l17.986 36.335 43.641-4.8c.76-.09 1.52.053 2.19.409.63.355 1.12.912 1.39 1.578.27.707.32 1.481.13 2.214a4.58 4.58 0 01-1.17 2.084l-32.33 33.107 12.28 39.126c.21.733.19 1.512-.05 2.234a4.717 4.717 0 01-1.32 2.01c-.6.547-1.34.93-2.14 1.112-.75.177-1.53.13-2.25-.135l.05-.1z" fill="#FFBF44"/><path d="M599 600c-20-119.6 23.666-222.167 48-258.5-36 0-190.334 65.333-263 98-18.5 13.833-55.6 49.9-56 83.5-.4 33.6 21.833 69 33 82.5l20 58 65.5 7.5L576 659c-2-20-.834-40.667 0-48.5l23-10.5z" fill="#001647" fill-opacity=".2"/><path d="M1134.2 399.661a361.454 361.454 0 01-29.9 76.354c18.64 24.238 13.33 60.514 13.33 60.514-324.026 154.93-732.062 128.287-732.062 128.287-23.525-21.767-24.781-59.762-24.781-59.762-15.508-13.993-27.059-31.85-34.394-58.91-10.164-37.484 8.917-68.861 44.59-92.054 117.541-76.475 414.81-183.638 648.267-182.717 78.03.326 134.86 52.764 114.95 128.288zM360.837 606.128S773.303 641.122 1105 475.614" stroke="#000" stroke-width="20" stroke-miterlimit="10"/><path d="M523.543 665.942s307.957 94.558 630.907.949c39.05-11.32 43.66-53.188 21.17-79.902-16.44-19.591-36.73-39.413-57.57-49.481" stroke="#000" stroke-width="20" stroke-miterlimit="10"/></g><defs><clipPath id="prefix__clip0_53_25878"><path fill="#fff" d="M0 0h1500v1500H0z"/></clipPath></defs>
      
    </g>
    </svg>