<svg
      xmlns="http://www.w3.org/2000/svg"
      preserveAspectRatio="xMidYMin meet"
      fill="none"
      viewBox="0 0 1500 1500"
    >
      <g>
      <path fill="url(#prefix__paint0_linear_53_30460)" d="M0 0h1500v1500H0z"/><defs><linearGradient id="prefix__paint0_linear_53_30460" x1="0" y1="0" x2="1500" y2="1500" gradientUnits="userSpaceOnUse"><stop stop-color="#F1FFBA"/><stop offset="1" stop-color="#65DCBA"/></linearGradient></defs>
      <g clip-path="url(#a)"><path fill="#99C4CB" d="M1263 1509H289l4-75 22-108 15-60 31-63 50-79s46-15 111-43c64-28 204-38 204-38s196-6 350 54c153 59 187 412 187 412Z"/><path fill="#001647" fill-opacity=".2" d="M500 1214a430 430 0 0 0-113 311l-100-13c-2-111 39-248 60-302l39-53 16-20 66-43c150-60 294-55 348-45-63 13-215 65-316 165Z"/><path fill="#000" d="M681 1405v-1 18-17Z"/><path fill="#97A5DE" d="M762 1362h-1 1Z"/><path stroke="#000" stroke-linecap="round" stroke-width="20" d="M290 1513c-6-102 31-323 140-398 159-109 617-87 707 26 64 81 99 222 132 371m-184-175c12 37 29 110 43 176m-646 0c0-33 7-108 20-157"/><path fill="#000" d="M949 1410c2 67-72 102-125 64l-13-11h-1c-9 11-21 20-35 24-48 15-101-29-94-80 3-30 26-53 53-60-11-64 54-104 110-71a80 80 0 0 1 32 50c39 9 70 33 73 84Z"/><path fill="#97A5DE" fill-rule="evenodd" d="m815 1279 1 1 8 2a60 60 0 0 1 27 23 58 58 0 0 1 9 20l-1 1h-2l-5 1a67 67 0 0 0-18 4 74 74 0 0 0-35 29l-1 3-1 1-1-1a61 61 0 0 0-12-8 84 84 0 0 0-26-9h-6v-1h-1v-4h-1v-17a47 47 0 0 1 6-18 51 51 0 0 1 41-28h6l6 1a38 38 0 0 1 6 1v-1Zm65 65h1a74 74 0 0 1 32 18 63 63 0 0 1 12 16 69 69 0 0 1 9 25v16a60 60 0 0 1-55 54h-11a51 51 0 0 1-13-2 72 72 0 0 1-34-21v-1h-1v-1l-1-1-1-1h1v-1a72 72 0 0 0 4-19v-13l-1-2a66 66 0 0 0-3-15 77 77 0 0 0-7-14l-3-5c-1 0-1 0 0 0v-2l1-2a52 52 0 0 1 11-14 65 65 0 0 1 22-13 62 62 0 0 1 23-4h6a58 58 0 0 1 8 2Zm-107 23 12 8a59 59 0 0 1 18 24 49 49 0 0 1 4 14v14l-2 7a51 51 0 0 1-43 39h-13l-5-1a55 55 0 0 1-19-7l-8-6-5-4a59 59 0 0 1-14-24l-1-2v-1l-1-7a60 60 0 0 1 0-18 58 58 0 0 1 6-16 55 55 0 0 1 19-19 49 49 0 0 1 16-6h5a66 66 0 0 1 11 0l11 1 9 4Z" clip-rule="evenodd"/><path fill="#000" d="M874 1415a22 22 0 0 1 17 8 22 22 0 0 1 6 12v5l-1 6-5 7-9 5-3 1h-2c-4 0-8-1-11-3a23 23 0 0 1-12-18c-1-4 0-7 1-10 2-5 5-8 10-11l7-2h2ZM749 1418c0 4-1 8-3 11s-5 6-8 7c-3 2-5 3-8 3a23 23 0 0 1-22-11l-2-6-1-5a20 20 0 0 1 18-21l5-1 6 2a23 23 0 0 1 15 21Z"/><path fill="#7985B4" d="M876 1446c-3 0-5-1-7-3s-3-3-3-6a8 8 0 0 1 7-9c3 0 5 0 7 2 2 1 3 3 3 5 2 4 0 8-3 10l-4 1ZM735 1418c0 3-1 5-3 7l-6 1c-3 0-5-2-6-4l-2-5a8 8 0 0 1 6-8c4 0 6 1 9 3l2 4v2Z"/></g><defs><clipPath id="a"><path fill="#fff" d="M0 0h1500v1500H0z"/></clipPath></defs>
      <g clip-path="url(#prefix__clip0_299_662)"><path d="M775 1185c231.41 0 419-168.12 419-375.5 0-207.383-187.59-375.5-419-375.5-231.407 0-419 168.117-419 375.5 0 207.38 187.593 375.5 419 375.5z" fill="#ABF"/><path d="M457.5 796c7.6 194 131.833 327.5 193 370l-130-55.5L438 1034l-57.5-89.5-27-106 11-104L394 662l45-82.5 83.5-69.5 109-54.182 28.5-1C569.452 513.314 451.119 633.132 457.5 796z" fill="#001647" fill-opacity=".2"/><path d="M775 1185c231.41 0 419-168.12 419-375.5 0-207.383-187.59-375.5-419-375.5-231.407 0-419 168.117-419 375.5 0 207.38 187.593 375.5 419 375.5z" stroke="#000" stroke-width="20"/></g><defs><clipPath id="prefix__clip0_299_662"><path fill="#fff" d="M0 0h1500v1500H0z"/></clipPath></defs>
      <g clip-path="url(#prefix__clip0_53_29369)" stroke="#000" stroke-width="20" stroke-miterlimit="10"><path d="M729.63 808.821l88.08-16a7.737 7.737 0 006.23-6.4 7.757 7.757 0 00-.73-4.64 7.674 7.674 0 00-3.27-3.35l-82.39-43.72M1087 808.821l-87.999-16a7.71 7.71 0 01-6.23-6.4 7.784 7.784 0 01.72-4.63 7.65 7.65 0 013.28-3.36l82.389-43.72" stroke-linecap="round"/><path d="M1000 1001.64c0 35-39.4 63.36-88 63.36s-88-28.36-88-63.36a47.358 47.358 0 014.59-20.231c6.41-13.7 21-19 33.42-12.86 14.2 7.07 31.42 11.21 50 11.21s35.79-4.14 50-11.21c12.4-6.18 27-.84 33.42 12.86a47.337 47.337 0 014.57 20.231z" fill="#fff"/></g><defs><clipPath id="prefix__clip0_53_29369"><path fill="#fff" d="M0 0h1500v1500H0z"/></clipPath></defs>
      <g clip-path="url(#prefix__clip0_53_27007)"><path d="M732.51 716.382a.135.135 0 00.059.011.129.129 0 00.057-.019.113.113 0 00.04-.044.108.108 0 00.014-.058c-.06-3.15 0-44.08 43-42 0 0 36.07 2.11 40.57 41.22a.12.12 0 00.17.1c2.54-1.13 38.11-16.18 57.7 13.29 19.59 29.47-10.28 56.51-12.25 58.22a.13.13 0 000 .18c2 1.86 33.67 28.35 16.711 57.94-16.96 29.59-54 16.2-56.56 15a.111.111 0 00-.161.09c-.42 2.79-6.86 41.59-40.73 43-33.87 1.41-44.86-36.09-45.57-38.67a.111.111 0 00-.022-.045.117.117 0 00-.04-.03.141.141 0 00-.049-.009.112.112 0 00-.048.014c-2.36 1.15-36.651 17.15-57.701-14.5-21.05-31.65 7.131-55.44 9.141-57.07a.116.116 0 00.034-.039.113.113 0 00-.034-.141c-2.05-1.74-31.9-28-11-61.24 19.98-31.71 53.949-16.48 56.669-15.2zM1031.34 715.128c.02.011.04.018.06.018.02.001.04-.005.06-.015.01-.01.03-.026.04-.044a.117.117 0 00.01-.059c0-3.16 1.3-44.07 44.21-40.72 0 0 36 3.16 39.35 42.39 0 .018.01.036.02.051s.02.028.04.038c.01.01.03.016.05.018.01.002.03-.001.05-.007 2.58-1 38.57-15.06 57.3 15 18.73 30.06-11.93 56.18-14 57.84a.29.29 0 00-.03.041c-.01.015-.01.032-.01.049s0 .034.01.05c.01.015.02.029.03.04 1.92 1.91 32.83 29.31 15 58.41-17.83 29.1-54.44 14.61-57 13.32-.02-.01-.03-.016-.05-.018a.14.14 0 00-.06.01c-.01.008-.03.021-.04.036a.098.098 0 00-.02.052c-.5 2.78-8.07 41.37-42 41.82-33.93.45-43.78-37.39-44.42-40 0-.016-.01-.031-.02-.044-.01-.013-.03-.024-.04-.032-.02-.007-.03-.011-.05-.012a.125.125 0 00-.05.008c-2.39 1.09-37.13 16.08-57.25-16.17-20.12-32.25 8.75-55.21 10.8-56.78a.107.107 0 00.046-.09.116.116 0 00-.012-.051.116.116 0 00-.034-.039c-2-1.8-31.07-28.87-9.18-61.53 21-31.16 54.51-14.94 57.19-13.58z" fill="#4AEEB9" stroke="#000" stroke-width="20" stroke-miterlimit="10"/><circle cx="1072" cy="789" r="54" fill="#FFBF44" stroke="#000" stroke-width="20"/><circle cx="776" cy="789" r="54" fill="#FFBF44" stroke="#000" stroke-width="20"/><path d="M753.5 733.5c-4.8-37.2 17-50.167 28.5-52-14.8-4.4-31.833 3.5-38.5 8-2.333 3.5-7.5 11.3-9.5 14.5-2.5 4-4 8.5-5.5 9s-21.5 2-22.5 2-26 10.5-26.5 11.5-10 25-10 26c0 .8 4.667 29.333 7 43.5-2.833 6.666-9 21.9-11 29.5-2 7.6 20.5 30.5 32 41l38 2.5 37.5 33.5c19 .5 49.4-.3 19-7.5s-33.667-34.667-31.5-47.5c-1.333-2.834-4.4-8.8-6-10-2-1.5-16.5-17-17-18s-7-11.5-7.5-34c-.4-18 15.5-42.167 23.5-52zM1051.13 733.5c-4.8-37.2 17-50.167 28.5-52-14.8-4.4-35.84 3.5-42.51 8-2.33 3.5-7.5 11.3-9.5 14.5-2.5 4-4 8.5-5.5 9s-21.5 2-22.495 2c-1 0-26 10.5-26.5 11.5s-10 25-10 26c0 .8 4.667 29.333 7 43.5-2.833 6.666-9 21.9-11 29.5-2 7.6 20.5 30.5 32 41l37.995 2.5 37.5 33.5c19 .5 54.4-.3 24-7.5s-33.66-34.667-31.5-47.5c-1.33-2.834-9.4-8.8-11-10-2-1.5-16.5-17-17-18s-7-11.5-7.5-34c-.4-18 19.51-42.167 27.51-52z" fill="#001647" fill-opacity=".2"/><path d="M871.488 797.371s52.42-23.07 104.84 0M370.09 692.07L681 789.5" stroke="#000" stroke-width="20" stroke-miterlimit="10"/><path d="M732.51 716.382a.135.135 0 00.059.011.129.129 0 00.057-.019.113.113 0 00.04-.044.108.108 0 00.014-.058c-.06-3.15 0-44.08 43-42 0 0 36.07 2.11 40.57 41.22a.12.12 0 00.17.1c2.54-1.13 38.11-16.18 57.7 13.29 19.59 29.47-10.28 56.51-12.25 58.22a.13.13 0 000 .18c2 1.86 33.671 28.35 16.711 57.94-16.96 29.59-54 16.2-56.56 15a.111.111 0 00-.161.09c-.42 2.79-6.86 41.59-40.73 43-33.87 1.41-44.86-36.09-45.57-38.67a.111.111 0 00-.022-.045.117.117 0 00-.04-.03.141.141 0 00-.049-.009.112.112 0 00-.048.014c-2.36 1.15-36.651 17.15-57.701-14.5-21.05-31.65 7.131-55.44 9.141-57.07a.116.116 0 00.034-.039.113.113 0 00-.034-.141c-2.05-1.74-31.9-28-11-61.24 19.98-31.71 53.949-16.48 56.669-15.2zM1031.34 715.128c.02.011.04.018.06.018.02.001.04-.005.06-.015.01-.01.03-.026.04-.044a.117.117 0 00.01-.059c0-3.16 1.3-44.07 44.21-40.72 0 0 36 3.16 39.35 42.39 0 .018.01.036.02.051s.02.028.04.038c.01.01.03.016.05.018.01.002.03-.001.05-.007 2.58-1 38.57-15.06 57.3 15 18.73 30.06-11.93 56.18-14 57.84a.29.29 0 00-.03.041c-.01.015-.01.032-.01.049s0 .034.01.05c.01.015.02.029.03.04 1.92 1.91 32.83 29.31 15 58.41-17.83 29.1-54.44 14.61-57 13.32-.02-.01-.03-.016-.05-.018a.14.14 0 00-.06.01c-.01.008-.03.021-.04.036a.098.098 0 00-.02.052c-.5 2.78-8.07 41.37-42 41.82-33.93.45-43.78-37.39-44.42-40 0-.016-.01-.031-.02-.044-.01-.013-.03-.024-.04-.032-.02-.007-.03-.011-.05-.012a.125.125 0 00-.05.008c-2.39 1.09-37.13 16.08-57.25-16.17-20.12-32.25 8.75-55.21 10.8-56.78a.107.107 0 00.046-.09.116.116 0 00-.012-.051.116.116 0 00-.034-.039c-2-1.8-31.07-28.87-9.18-61.53 21-31.16 54.51-14.94 57.19-13.58z" stroke="#000" stroke-width="20" stroke-miterlimit="10"/><circle cx="776" cy="789" r="54" stroke="#000" stroke-width="20"/><circle cx="1072" cy="789" r="54" stroke="#000" stroke-width="20"/></g><defs><clipPath id="prefix__clip0_53_27007"><path fill="#fff" d="M0 0h1500v1500H0z"/></clipPath></defs>
      <g clip-path="url(#prefix__clip0_53_26225)"><path d="M661.719 466.274s.681-50.314 11.211-50.049c10.531.266 30.241-4.165 30.241-4.165l31.003 15.989 25.638-5.424 28.99-24.747 27.071-1.791 27.883 14.121 15.446 18.681 23.411.145 50.96-13.954 24.276 23.68-19.232 52.574-44.507-21.369-17.618-6.041-23.175-7.036-28.049-1.943-32.388-.112-55.638 3.68-50.45 8.949-25.073-1.188z" fill="#97A5DE"/><path d="M718.506 479.214s19.322 40.453 64.014 34.31c44.692-6.143 83.522-32.583 83.522-32.583l10.406-17.065-81.463-14.775-84.096 14.041s-8.664 11.898 7.617 16.072z" fill="#7985B4"/><path d="M662.843 469.488s-13.534-58.554 30.087-60.287c15.493-.614 25.434 4.992 32.226 12.21 13.894 14.755 29.392 7.707 38.346-2.386 11.842-13.391 27.482-26.021 44.854-27.17 20.226-1.338 34.215 14.393 42.889 29.474 6.094 10.621 21.799 13.651 33.204 6.683 11.953-7.315 28.35-12.9 48.081-8.683 42.964 9.245 6.064 69.091 6.064 69.091" stroke="#000" stroke-width="18.1" stroke-miterlimit="10" stroke-linecap="round"/><path d="M630.048 507.636s25.276-45.068 51.452-39.634c40.502 8.395 74.399 69.733 74.399 69.733M800.818 537.27s38.761-65.501 93.251-67.301c54.49-1.801 48.429 57.93 48.429 57.93M682 468s137.209-40.275 226.408 2.982M736.796 506.5s35.103 14.655 86.489 1.675" stroke="#000" stroke-width="20" stroke-miterlimit="10" stroke-linecap="round"/><path d="M1074 522.5l-37.5-24-141-15.5L703 494.5 555.5 521 469 541.5l-39.5 21c-4.834 9.667-20.801 36.1-46.001 64.5s-17.833 54.167-11 63.5l115 6 250-6 182.5-13.5 282.501-11.5 22.5-4.5v-20.5h-6l-20-7.5c-8.67-2.833-28.1-9.3-36.5-12.5-10.5-4-16.5-5-21.5-7.5-4-2-8.67-7.5-10.5-10l-32.5-44-24-36.5z" fill="#FF6247"/><path d="M794.594 562.777a4.918 4.918 0 01-.32 4.08 4.348 4.348 0 01-3.23 2.21c-.75.16-1.49.28-2.23.38-.74.1-1.46.16-2.18.2a15.903 15.903 0 01-.82 6.69 18.628 18.628 0 01-3.49 6 18.3 18.3 0 01-5.8 4.6 17.502 17.502 0 01-7 1.86h-.41a17.347 17.347 0 01-8-1.63 21.453 21.453 0 01-7-5.32c-4.24-4.78-7.213-11.64-8.92-20.58a54.647 54.647 0 01-1.15-13.56 24.475 24.475 0 012.42-9.69 15.428 15.428 0 012.43-3.4 14.33 14.33 0 013.21-2.5 15.62 15.62 0 013.33-1.37 13.802 13.802 0 013.74-.54 21.736 21.736 0 0110.51 2.12 16.385 16.385 0 014.13 2.47 9.569 9.569 0 012.56 2.82 9.356 9.356 0 011 2.39 4.66 4.66 0 01-.77 3.93 4.341 4.341 0 01-3.4 1.8 5.64 5.64 0 01-3.28-.84 7.894 7.894 0 01-2.52-2.39c-.49-.26-.998-.488-1.52-.68a14.382 14.382 0 00-2.1-.6 11.612 11.612 0 00-2.39-.21 6.642 6.642 0 00-2.41.52c-1.58.76-2.66 2.29-3.24 4.57-1.02 3.44-.92 8.333.3 14.68a38.06 38.06 0 002.81 9.65 21.787 21.787 0 003.08 4.89 6.809 6.809 0 005.24 2.59 9.005 9.005 0 006.35-3.37 8.471 8.471 0 002.17-4.47h-3.36a5.93 5.93 0 01-4.15-1.42 6.11 6.11 0 01-2.31-3.81 4.713 4.713 0 01.88-3.81 4.409 4.409 0 013.41-1.76h.08c.89-.05 1.73-.08 2.54-.1.81-.02 1.61 0 2.39 0 2 0 3.9 0 5.81-.1a54.256 54.256 0 006.68-.76 5.787 5.787 0 014.23 1 6.446 6.446 0 012.7 3.46zM811.264 586.736a5.995 5.995 0 01-4.05-1.34 6.213 6.213 0 01-2.38-3.72c-.58-2.506-1.097-4.79-1.55-6.85-.46-2.07-1-4.42-1.52-7.07-.52-2.65-1.1-5.4-1.64-8.24-.59-3.36-1.1-6.4-1.54-9.14-.44-2.74-.76-5.18-1-7.31s-.31-3.72-.35-5.1a25.08 25.08 0 01.11-3.52 8.975 8.975 0 01.51-2.35c.22-.576.516-1.121.88-1.62a5.518 5.518 0 014-2.34 8.548 8.548 0 012.28.26 7.59 7.59 0 013 1.57c.458.312.884.671 1.27 1.07.39.4.82.87 1.26 1.41a44.968 44.968 0 014.12 6c2.42 4.047 5.336 9.557 8.75 16.53.36.66.7 1.33 1 2 .3.67.62 1.36.93 2 .08-.68.15-1.38.19-2.09a17.79 17.79 0 01.28-2.08c.32-3.58.633-6.773.94-9.58.31-2.81.64-5.26 1-7.37.23-1.31.44-2.46.62-3.46.162-.884.372-1.758.63-2.62.205-.817.459-1.622.76-2.41a5.396 5.396 0 013.48-3.07 6.496 6.496 0 015.24 1 8.68 8.68 0 011.81 1.59 13.632 13.632 0 011.59 2.41 29.59 29.59 0 011.53 3.48c.5 1.33 1 2.9 1.58 4.74.666 2.1 1.333 4.517 2 7.25.666 2.734 1.416 5.794 2.25 9.18a807.014 807.014 0 013.42 15.55c.44 2.12.91 4.49 1.41 7.11a4.533 4.533 0 01-2.348 5.176 4.526 4.526 0 01-1.972.484h-.08a5.795 5.795 0 01-4.14-1.42 6.512 6.512 0 01-2.36-3.8 314.394 314.394 0 00-1.23-6.28l-1.36-6.48c-.507-2.426-1.06-4.95-1.66-7.57a222.744 222.744 0 00-1.69-6.85c-.1 1.14-.21 2.37-.36 3.71-.15 1.34-.28 2.73-.42 4.21-.267 2.72-.494 5.37-.68 7.95-.187 2.58-.367 4.86-.54 6.84-.18 2-.3 3.58-.38 4.8-.08 1.22-.12 1.86-.11 1.91a4.44 4.44 0 01-1.31 2.95 4.577 4.577 0 01-3.09 1.27h-.09a6.357 6.357 0 01-3.58-1.07 6.572 6.572 0 01-2.45-2.92c-1-2.31-1.92-4.42-2.79-6.31-.87-1.89-1.87-4.06-3-6.48-1.13-2.42-2.29-4.95-3.52-7.59-1.1-2.31-2.11-4.37-3-6.18-.89-1.81-1.79-3.46-2.54-4.94.19 1.46.46 3.07.8 4.82.34 1.75.7 3.7 1.09 5.83.493 2.62.99 5.13 1.49 7.53.5 2.4.946 4.534 1.34 6.4.39 1.87.85 3.94 1.38 6.23a4.689 4.689 0 01-.64 4 4.436 4.436 0 01-3.41 1.92l-.16-.01zM888.415 523.319a6.497 6.497 0 013.55 2.72 5.246 5.246 0 01.82 4.15 101.765 101.765 0 01-3.55 13.9c-1.42 4.2-2.96 8.2-4.62 12a439.42 439.42 0 007.49 7.92 1061.8 1061.8 0 007.84 8l.63.64a6.088 6.088 0 011.84 4 4.774 4.774 0 01-1.32 3.71 5.151 5.151 0 01-3 1.27 6.23 6.23 0 01-2.52-.41 5.861 5.861 0 01-2.25-1.53l-.65-.73a1932.406 1932.406 0 01-6.38-6.41 296.751 296.751 0 01-6.33-6.59c-.233.52-.473 1.04-.72 1.56l-.74 1.48c-.953 1.86-1.9 3.76-2.84 5.7-.93 1.94-1.84 3.9-2.71 5.86a4.355 4.355 0 01-4 2.68 5.468 5.468 0 01-3.19-.84 6.383 6.383 0 01-3-3.3 5.25 5.25 0 010-4.15c.98-2 1.943-4 2.89-6 .95-2 1.9-3.95 2.84-5.87.57-1 1.1-2.1 1.61-3.17.51-1.07 1-2.13 1.51-3.18-3.12-3.72-6.12-7.53-9-11.43a122.031 122.031 0 01-7.89-12.26 5.432 5.432 0 01-.67-4.19 4.224 4.224 0 012.53-2.94 5.63 5.63 0 014.21.07 6.517 6.517 0 013.39 3c1.767 3.12 3.653 6.12 5.66 9a139.453 139.453 0 006.38 8.45c1.17-3 2.27-6 3.27-9.24a84.003 84.003 0 002.51-10.46 4.517 4.517 0 012.28-3.13 5.002 5.002 0 014.13-.28z" fill="#000"/><path d="M1148.14 619.091s-38.14-50.32-65.28-84.09a96.571 96.571 0 00-61-35c-85.13-12.78-294.76-39.4-549.6 40.11-20.25 6.33-39.62 21.92-53.48 40-16.93 24.21-49.63 61.79-51.22 97.1a15.375 15.375 0 004.311 11.311 15.374 15.374 0 0011.159 4.689l176.16-.72" stroke="#000" stroke-width="20" stroke-miterlimit="10"/><path d="M1221.53 637.511c-105.4-53.61-631.53-25-681 46.39 17 11.1 11 8.52 54.26 8.52 57 1 115.3 5.35 232-8.52 146.08-17.37 295.53-19 390.88-17.6 17.25.26 19.33-20.95 3.86-28.79z" stroke="#000" stroke-width="20" stroke-miterlimit="10"/><path d="M611 511c-60.8 66.8-86.667 149.5-92 182.5l-147.5-2c-1-5.667.4-25.7 14-60.5s52.667-68.167 70.5-80.5l63-25 92-14.5zM810.5 596.5c151-13.38 262.33-4.667 314.5 0l16 19.5c-29.17-1.833-111.2-5.3-206-4.5-94.8.8-246.166 24-310 35.5-25 9.667-73.5 25.9-67.5 13.5 7.5-15.5 95-50 253-64z" fill="#001647" fill-opacity=".2"/></g><defs><clipPath id="prefix__clip0_53_26225"><path fill="#fff" d="M0 0h1500v1500H0z"/></clipPath></defs>
      
    </g>
    </svg>