<svg
      xmlns="http://www.w3.org/2000/svg"
      preserveAspectRatio="xMidYMin meet"
      fill="none"
      viewBox="0 0 1500 1500"
    >
      <g>
      <path fill="url(#prefix__paint0_linear_53_30460)" d="M0 0h1500v1500H0z"/><defs><linearGradient id="prefix__paint0_linear_53_30460" x1="0" y1="0" x2="1500" y2="1500" gradientUnits="userSpaceOnUse"><stop stop-color="#F1FFBA"/><stop offset="1" stop-color="#65DCBA"/></linearGradient></defs>
      <g clip-path="url(#prefix__clip0_53_27416)"> <path d="M1088.5 1102l24 16 38 37.5 15.5 31 17 30.5-4.03 11.9 92.07-30.57s11.57-24.44 11.36-24.97c-.21-.53-11.37-20.74-16.79-24.53-5.42-3.78-21.66-8.66-36.82-15.69-15.16-7.03-23.83-10.28-43.87-15.14-20.04-4.86-47.65-6.99-65.53-10.28-17.88-3.28-30.89-5.72-30.89-5.72zM214.78 1176.49s.58-26.2 60.77-43.54c60.19-17.34 178.95-34.45 178.95-34.45L383 1155l-35.95 78.14-101.55-30.83-30.72-25.82z" fill="#72411F" /> <path d="M258.44 1290.58l40.74 214.66h908.34l37.63-217.69-99.09 24.97s-276 34.73-469.78 25.8c-193.78-8.93-278.93-20.66-278.93-20.66l-138.91-27.08z" fill="#9E6740" /> <path d="M220.86 1194.8l15.14 75.13 69.6 30.69 115.67 21.48 181.3 16.51 356.58-.34 166.58-26.97 126.06-25.17 23.57-29.52v-70.92s-74.72 48.64-174.94 58.77c-100.22 10.13-151.42 9.8-151.42 9.8l-128.64 5.99-175-2.63-94.14-3.35-115.49-9.88-121.68-18.26-70.75-25.28-22.44-6.05z" fill="#9E6740" /> <path d="M301.84 1480.4l3.75 20.84H285.6l-5.99-32.71-33.14-175.28-.97-5.11 19.3-3.64 3.18 16.83 11.03 58.32 3.99 21.14 4.4 23.25 5.65 29.9 4.7 24.81 1.99 10.53 2.1 11.12zM1254.41 1289.74l-.65 3.43-13.49 71.34-2.31 12.26-6.21 32.81-17.14 91.66h-19.99l3.75-20.83 4.1-21.66 14.74-77.96 2.73-14.47 1.26-6.67 4.69-24.79 2.11-11.18 4.24-22.42 2.87-15.16 19.3 3.64zM353.34 1224.25c-4.5-.86-8.857-1.71-13.07-2.56-81.65-16.65-110.16-34.69-114.88-45.2l5 30.69c7.254 4.17 14.812 7.8 22.61 10.85 20.29 8.14 46.88 15.65 79.34 22.43 4.53.94 9.17 1.87 13.93 2.78l6 1.14c2.54-6.42 5.31-12.68 8.31-18.8-2.453-.44-4.867-.88-7.24-1.33zm893.66-95.48c-27.62-11.08-66.92-20.98-116.78-29.46-25.3-4.29-52.66-8.11-81.7-11.4-22.13-2.53-45.25-4.75-69.17-6.68-70.83-5.67-148.75-8.67-229.36-8.67-80 0-157.37 3-227.78 8.55-12.78 1.02-25.32 2.12-37.62 3.31-41.51 3.99-80.11 8.99-114.83 14.89-49.87 8.46-89.16 18.38-116.78 29.46-32.53 13.05-48.34 27.66-48.34 44.64V1175.31c.108 1.57.362 3.12.76 4.64v.05c2.51 9.81 10.75 18.8 24.91 27.15a167.165 167.165 0 0022.69 10.88c20.29 8.14 46.88 15.65 79.34 22.43 4.53.94 9.17 1.87 13.93 2.78l6 1.14c5.68 1.06 11.517 2.1 17.51 3.11 101.65 17.25 236.69 26.75 380.23 26.75 143.54 0 278.58-9.5 380.23-26.75 16.14-2.74 31.16-5.63 45.07-8.67 4.06-.88 8.02-1.78 11.88-2.69 2.67-.66 5.31-1.31 7.92-1.93 20.31-5.04 37.66-10.44 51.91-16.17a168.6 168.6 0 0022.59-10.85c14.16-8.35 22.4-17.34 24.91-27.15v-.05c.4-1.52.65-3.07.76-4.64v-.3-1.6c.07-17.01-15.74-31.62-48.28-44.67zm27.6 47.72c-4.16 9.26-26.78 24.36-87.93 39.21-2.92.71-5.92 1.42-9 2.12-3.54.81-7.21 1.61-11 2.42-12 2.55-25.25 5.08-39.82 7.55-100.58 17.07-234.43 26.47-376.88 26.47s-276.3-9.4-376.88-26.47c-4.3-.73-8.483-1.47-12.55-2.21-2.453-.44-4.863-.88-7.23-1.33-4.5-.86-8.857-1.71-13.07-2.56-81.65-16.65-110.16-34.69-114.88-45.2a7.398 7.398 0 01-.74-3.08c.001-.34.028-.67.08-1 1.79-11.24 34.56-34.11 148.39-53.43 20.2-3.43 41.73-6.54 64.41-9.34 10.593-1.33 21.43-2.56 32.51-3.7 6.48-.66 13.037-1.33 19.67-1.99 78.59-7.48 167.62-11.46 260.29-11.46 105.93 0 207.1 5.19 293.37 14.88 12.41 1.4 24.51 2.89 36.28 4.46 8.87 1.18 17.53 2.42 26 3.72 7.22 1.1 14.29 2.24 21.21 3.41 113.83 19.32 146.6 42.19 148.39 53.43.05.33.08.66.08 1 0 1.07-.24 2.13-.69 3.1h-.01zm-921.27 47.76c-4.5-.86-8.857-1.71-13.07-2.56-81.65-16.65-110.16-34.69-114.88-45.2l5 30.69c7.258 4.17 14.819 7.8 22.62 10.85 20.29 8.14 46.88 15.65 79.34 22.43 4.53.94 9.17 1.87 13.93 2.78l6 1.14c2.54-6.42 5.31-12.68 8.31-18.8-2.453-.44-4.867-.88-7.24-1.33h-.01z" fill="#000" /> <path d="M750 1348.71c-210.22 0-399.28-19.54-493.42-50.94a58.66 58.66 0 01-26.18-17.62 58.57 58.57 0 01-13.25-28.62l-12.48-76.49 20-3.24 12.49 76.49a38.406 38.406 0 008.689 18.74A38.515 38.515 0 00263 1278.56c44 14.69 111.74 27.14 196 35.96 86.94 9.14 187.58 13.98 291 13.98 103.42 0 204.35-4.84 291.38-13.98 84.33-8.87 152.1-21.35 196-36.07 6.6-2.23 12.47-6.21 16.97-11.53a38.201 38.201 0 008.54-18.64l12.49-76.49 19.95 3.24-12.48 76.5a58.33 58.33 0 01-13.07 28.46 58.341 58.341 0 01-25.93 17.6c-94.04 31.53-283.26 51.12-493.85 51.12z" fill="#000" /> <path d="M759.769 1338.61v163.37h-19.66v-163.37h19.66zM865.771 1338.78l-.14 7.91-1.14 65.66-.34 19.68-1.17 67.29-.02.92h-19.65l.01-.07 1.16-67.14.35-19.65 1.15-66.05.15-8.89 19.64.34zM656.59 1500.24h-19.64l-.02-.93-1.17-67.3-.34-19.68-1.14-65.64-.14-7.91 19.63-.34.15 8.89 1.15 66.03.35 19.66 1.16 67.14.01.08zM553.41 1500.24h-19.66l-.28-8.09-2.39-68.78-.69-19.8-2.18-62.56-.07-2.06 19.63-.68.14 4.11 2.2 63.25.69 19.79 2.39 68.44.22 6.38zM450.22 1500.24h-19.66l-1.04-19.85-3.71-71.23-1.05-20.05-3.05-58.42-.45-8.59 19.61-1.02.62 11.95 3.1 59.23 1.04 20.01 3.69 70.71.9 17.26zM347.05 1500.24h-19.69l-1.06-15.33-1.47-21.09-5.21-74.75-1.42-20.38-.73-10.5-2.2-31.68-.94-13.42-.27-3.93 7.87-.55 9.06-.63 2.66-.18.65 9.38 3.89 55.79 1.41 20.34 5.16 74.04 1.46 21.05.83 11.84zM971.77 1338.95l-.07 2.07-2.18 62.58-.69 19.8-2.39 68.77-.28 8.07H946.5l.22-6.35 2.39-68.44.68-19.79 2.21-63.28.14-4.11 19.63.68zM1078.65 1322.1l-.45 8.61-.62 11.95-.79 15.16-1.64 31.33v.01l-1.05 20.05-3.72 71.22-1.03 19.81h-19.66l.9-17.22 3.69-70.72 1.04-20 3.1-59.25.62-11.97 19.61 1.02zM1188.52 1304.94l-.58 7.65-4.23 55.73-1.55 20.41-5.68 74.89-1.6 21.12-1.18 15.5H1154l.91-12 1.6-21.08 5.63-74.17 1.54-20.37 4.24-55.88 1.01-13.28 19.59 1.48z" fill="#000" /> <path d="M750.11 1435.24a2032.95 2032.95 0 01-481.91-58.01l4.67-19.06a2013.09 2013.09 0 00477.24 57.45 2012.982 2012.982 0 00477.23-57.45l4.67 19.06a2032.848 2032.848 0 01-481.9 58.01zM658.71 1500.24H423.46a2409.886 2409.886 0 01-77.24-11.84c-6.667-1.14-13.307-2.3-19.92-3.49-8.16-1.46-16.313-2.96-24.46-4.5l-2.62-.5-8.65-1.67-3.13-.61 4-20.11.33.06c2 .4 4 .79 6 1.17l2.72.53c8.107 1.56 16.227 3.07 24.36 4.55 6.627 1.21 13.27 2.38 19.93 3.52 28.153 4.86 56.407 9.18 84.76 12.99 6.593.89 13.193 1.75 19.8 2.59 8.153 1.04 16.313 2.04 24.48 3 6.627.77 13.257 1.51 19.89 2.24 13.253 1.41 26.513 2.75 39.78 3.99 6.567.6 13.14 1.17 19.72 1.71 27.867 2.31 55.78 4.13 83.74 5.45 6.553.32 13.103.6 19.65.85l2.11.07zM1212.77 1477.63c-4.8.94-9.6 1.86-14.4 2.78-7.82 1.48-15.65 2.93-23.49 4.33-6.67 1.19-13.33 2.36-20 3.5-8.09 1.37-16.2 2.71-24.31 3.99-6.59 1.06-13.18 2.09-19.79 3.09-11.33 1.72-22.69 3.35-34.06 4.91H841.5l1.82-.07c6.547-.24 13.1-.53 19.66-.85a2441.67 2441.67 0 0083.74-5.43c6.567-.55 13.14-1.13 19.72-1.72a2396.058 2396.058 0 00103.94-11.74c12.08-1.64 24.15-3.36 36.2-5.18 6.61-1 13.22-2.03 19.81-3.08 10.05-1.6 20.09-3.27 30.12-5 6.67-1.15 13.33-2.33 20-3.53 8.67-1.58 17.33-3.21 26-4.88 2.12-.4 4.23-.82 6.34-1.23l3.92 20.11z" fill="#000" /> <path d="M361 1203.59l-7.73 20.71c37.91 7.9 168.332 29.7 386.73 30.7 218.4 1 367.5-19.5 438-37-3.05-6.21-6.21-26.51-9.5-32.5-25.36-46.42-28.44-53.54-68.88-73.57-3.75-1.86-27.73-15.92-31.62-17.43-28.57-11.11-54.38-24.34-84.5-30.5-131.36-26.89-259.5-22-259.5-22s-136.07 1.81-201 29.5l-20.5 4.5c-19.74 8.58-26.03 10.93-40.5 18.5-32.96 17.19-47.5 30-47.5 30l-53.5 79.09z" fill="#ABF" /> <path d="M1186.18 1225.5c-14.47-32.52-30.79-61.28-49.68-85-90-113-548-134.51-706.5-26-36.895 25.26-65.559 67.16-87.121 115.5" stroke="#000" stroke-width="20" stroke-linecap="round" /> <path d="M470.5 1356.5c-4 48.4 1.667 122.5 5 153.5l-179-5-23-121-20.5-96.5-24-25-10.5-81 15.5-37 62.5-20.5 65.5-12.5 70-10.5c-16.5 12.67-26.6 26.4 65-20s259.5-42.33 332-34.5c-196.4 40.6-320.833 149.83-358.5 201l25 5.5c-14.5 21.5-21.833 52.83-23 70.5l160.5 12.05h331c-28.213 13.2-63.898 23.94-108 28.45-121.2 12.4-307.5.17-385.5-7.5z" fill="#001647" fill-opacity=".2" /> </g> <defs> <clipPath id="prefix__clip0_53_27416"> <path fill="#fff" d="M0 0h1500v1500H0z" /> </clipPath> </defs>
      <g clip-path="url(#prefix__clip0_299_662)"><path d="M775 1185c231.41 0 419-168.12 419-375.5 0-207.383-187.59-375.5-419-375.5-231.407 0-419 168.117-419 375.5 0 207.38 187.593 375.5 419 375.5z" fill="#ABF"/><path d="M457.5 796c7.6 194 131.833 327.5 193 370l-130-55.5L438 1034l-57.5-89.5-27-106 11-104L394 662l45-82.5 83.5-69.5 109-54.182 28.5-1C569.452 513.314 451.119 633.132 457.5 796z" fill="#001647" fill-opacity=".2"/><path d="M775 1185c231.41 0 419-168.12 419-375.5 0-207.383-187.59-375.5-419-375.5-231.407 0-419 168.117-419 375.5 0 207.38 187.593 375.5 419 375.5z" stroke="#000" stroke-width="20"/></g><defs><clipPath id="prefix__clip0_299_662"><path fill="#fff" d="M0 0h1500v1500H0z"/></clipPath></defs>
      <g clip-path="url(#prefix__clip0_53_29261)"><path d="M761.369 722.219a74.743 74.743 0 00-74.67 74.67 10.671 10.671 0 0021.33 0 53.344 53.344 0 0191.31-38.188 53.341 53.341 0 0115.36 38.188 31.999 31.999 0 01-54.627 22.627 32 32 0 01-9.373-22.627c-.041-1.427.2-2.847.71-4.18a10.68 10.68 0 012.3-3.58 10.659 10.659 0 0117.6 3.58 10.64 10.64 0 01.72 4.18 10.67 10.67 0 1021.34 0 32.003 32.003 0 00-9.372-22.628 32.003 32.003 0 00-45.255 0 32.004 32.004 0 00-9.373 22.628 53.333 53.333 0 0053.33 53.33 53.33 53.33 0 0053.33-53.33 74.738 74.738 0 00-74.66-74.67zM1048.37 722.219a74.743 74.743 0 00-74.671 74.67 10.671 10.671 0 0021.33 0 53.354 53.354 0 013.848-20.636 53.313 53.313 0 0111.513-17.552 53.28 53.28 0 0117.39-11.752 53.352 53.352 0 0141.17 0 53.385 53.385 0 0117.39 11.752 53.414 53.414 0 0111.51 17.552 53.227 53.227 0 013.85 20.636 32 32 0 01-32 32 32 32 0 01-32-32c-.06-1.789.34-3.563 1.15-5.159.81-1.596 2-2.963 3.48-3.974a10.664 10.664 0 0110.19-1.017c1.32.557 2.51 1.376 3.51 2.407a10.68 10.68 0 012.28 3.593c.52 1.331.76 2.752.72 4.18 0 2.83 1.12 5.544 3.12 7.545a10.697 10.697 0 007.55 3.125c2.83 0 5.54-1.124 7.54-3.125a10.637 10.637 0 003.13-7.545 31.999 31.999 0 00-32-32 31.999 31.999 0 00-32 32 53.337 53.337 0 0015.62 37.71 53.336 53.336 0 0037.71 15.62c14.14 0 27.71-5.619 37.71-15.62a53.337 53.337 0 0015.62-37.71 74.736 74.736 0 00-21.89-52.776 74.731 74.731 0 00-52.77-21.894v-.03z" fill="#000"/><path d="M912.5 1068.5c32.585 0 59-26.42 59-59 0-32.585-26.415-59-59-59s-59 26.415-59 59c0 32.58 26.415 59 59 59z" fill="#fff" stroke="#000" stroke-width="20" stroke-miterlimit="10"/></g><defs><clipPath id="prefix__clip0_53_29261"><path fill="#fff" d="M0 0h1500v1500H0z"/></clipPath></defs>
      <g clip-path="url(#prefix__clip0_53_26861)"><path d="M447.622 867.389c15.29-8.12 40.61-15.39 63.47 6.76a33.285 33.285 0 0031.7 8c16.76-4.43 40.91-6.38 58.48 10.76a33.885 33.885 0 0033.5 8.24c17.27-5.22 42-7.38 63.2 12.11a33.3 33.3 0 0033.44 7.09c14.19-4.88 35.588-3.815 51.52 10.07C811 952 830.89 936.6 840.91 927.17c14-13.14 36.29-24.88 66.09-11.41 4.293 1.899-11.781.784-7.087.774a33.524 33.524 0 0013.619-2.925c14.32-6.29 37.75-11.94 60.15 3.23a33.376 33.376 0 0034.668 2c9.95-5.4 23.51-19.6 39.42-16.41a33.679 33.679 0 0017.06-.968 33.677 33.677 0 0014.38-9.212c7-7.64 18.31-14.45 35.72-13 5.99.455 11.99-.733 17.35-3.434a33.016 33.016 0 0013.08-11.896c7.25-11.41 21.15-23.19 47.32-24.45 0 0 21.85 14.24 13.5 47.19a34.058 34.058 0 002.18 22.77c4.23 9.05 7.4 22.51-2.2 34.45a33.045 33.045 0 00-6.18 11.917 33.093 33.093 0 00-.92 13.393c2.21 15.3-5.19 26.51-12.43 33.581a34.154 34.154 0 00-10.41 23.88c-.29 17.29-9.6 26.42-18.41 31.18a33.37 33.37 0 00-10.36 9.1c-2.77 3.73-4.74 8-5.77 12.53-3.65 15-20.18 22.04-27.56 25.24-7.38 3.2-16.18 8.7-22.9 21-6.72 12.3-22.93 26.06-35.43 28.91a34.029 34.029 0 00-21.49 15.54c-11.47 18.77-32.74 23-47.858 23.35-4.704.06-9.34 1.13-13.597 3.13a33.05 33.05 0 00-11.093 8.47c-12.12 14.56-30.74 16.05-43.55 15a33.336 33.336 0 00-23.89 7.64c-17.44 14.25-37.18 11-50.6 5.83a32.94 32.94 0 00-14.902-2.1c-5.063.46-9.95 2.09-14.278 4.76-18.33 11.34-35.85 7-47.47 1.2a33.313 33.313 0 00-14.338-3.37 33.43 33.43 0 00-14.392 3.13c-24.87 11.39-45 .12-56.4-9.75-3.478-3-7.534-5.24-11.918-6.61-4.383-1.36-9-1.8-13.562-1.3-27.45 3-44-11.51-52.84-23.4a33.495 33.495 0 00-25.5-13.54c-23.54-1-37.07-11.43-44.45-20.42a34.028 34.028 0 00-11.197-8.96 34.076 34.076 0 00-13.893-3.54c-26.87-1-37.3-14.44-41.29-25.93a32.354 32.354 0 00-7.698-12.45 32.25 32.25 0 00-12.402-7.76c-25.47-8.54-32.87-28.62-34.63-43.8a33.819 33.819 0 00-5.359-15.01 33.843 33.843 0 00-11.641-10.88c-20.25-11.11-22.89-27.54-21.85-38.711a32.438 32.438 0 00-6.08-21.85c-6.35-8.87-12.26-23.12-3.06-39.69a33.266 33.266 0 001.59-29.13c-5.08-12-8.66-27.83 2-36.83 14.47-12.27 35.52-6.23 49.81.41a33.369 33.369 0 0029.66-.65z" fill="#F56CDB" stroke="#000" stroke-width="20" stroke-miterlimit="10"/><path d="M548.318 940.84c-15.419-17.547-3.699-44.055 5.182-56.34-5.5-1.834-17.4-5.5-21-5.5-4.5 0-18-3.5-26.5-9.5s-6-2-13-4-24.5-2.5-26.5-2.5-37 6.5-38.5 6.5-37.5-11.5-39-12c-1.2-.4-16.167 9.833-23.5 15V903c0 .8-.667 18-1 26.5l1 51.5 25 45.5 23.5 36 31.5 45 27.5 27 32 14.5 64.5 28.5 41 27.5 38.5 13 50 17h80.5c-7.927-1.83-16.163-9.58-21.477-15.83-2.583-3.03-6.567-4.61-10.516-4.09-40.652 5.43-61.301-18.35-68.509-35.4-1.446-3.42-4.297-6.11-7.838-7.23-24.761-7.8-34.1-27.41-36.492-41.24-.779-4.5-3.806-8.46-8.046-10.15-22.735-9.09-27.321-27.17-26.242-40.16.408-4.92-1.696-9.97-5.861-12.61-24.112-15.31-26.877-36.02-24.202-49.24.871-4.31-.146-8.97-3.199-12.13-18.059-18.687-18.677-38.469-15.182-51.173 1.41-5.125-.11-10.915-3.618-14.907z" fill="#001647" fill-opacity=".2"/><path d="M447.622 867.389c15.29-8.12 40.61-15.39 63.47 6.76a33.285 33.285 0 0031.7 8c16.76-4.43 40.91-6.38 58.48 10.76a33.885 33.885 0 0033.5 8.24c17.27-5.22 42-7.38 63.2 12.11a33.3 33.3 0 0033.44 7.09c14.19-4.88 35.588-3.815 51.52 10.07C811 952 830.89 936.6 840.91 927.17c14-13.14 36.29-24.88 66.09-11.41 4.293 1.899-11.781.784-7.087.774a33.524 33.524 0 0013.619-2.925c14.32-6.29 37.75-11.94 60.15 3.23a33.376 33.376 0 0034.668 2c9.95-5.4 23.51-19.6 39.42-16.41a33.679 33.679 0 0017.06-.968 33.677 33.677 0 0014.38-9.212c7-7.64 18.31-14.45 35.72-13 5.99.455 11.99-.733 17.35-3.434a33.016 33.016 0 0013.08-11.896c7.25-11.41 21.15-23.19 47.32-24.45 0 0 21.85 14.24 13.5 47.19a34.058 34.058 0 002.18 22.77c4.23 9.05 7.4 22.51-2.2 34.45a33.045 33.045 0 00-6.18 11.917 33.093 33.093 0 00-.92 13.393c2.21 15.3-5.19 26.51-12.43 33.581a34.154 34.154 0 00-10.41 23.88c-.29 17.29-9.6 26.42-18.41 31.18a33.37 33.37 0 00-10.36 9.1c-2.77 3.73-4.74 8-5.77 12.53-3.65 15-20.18 22.04-27.56 25.24-7.38 3.2-16.18 8.7-22.9 21-6.72 12.3-22.93 26.06-35.43 28.91a34.029 34.029 0 00-21.49 15.54c-11.47 18.77-32.74 23-47.858 23.35-4.704.06-9.34 1.13-13.597 3.13a33.05 33.05 0 00-11.093 8.47c-12.12 14.56-30.74 16.05-43.55 15a33.336 33.336 0 00-23.89 7.64c-17.44 14.25-37.18 11-50.6 5.83a32.94 32.94 0 00-14.902-2.1c-5.063.46-9.95 2.09-14.278 4.76-18.33 11.34-35.85 7-47.47 1.2a33.313 33.313 0 00-14.338-3.37 33.43 33.43 0 00-14.392 3.13c-24.87 11.39-45 .12-56.4-9.75-3.478-3-7.534-5.24-11.918-6.61-4.383-1.36-9-1.8-13.562-1.3-27.45 3-44-11.51-52.84-23.4a33.495 33.495 0 00-25.5-13.54c-23.54-1-37.07-11.43-44.45-20.42a34.028 34.028 0 00-11.197-8.96 34.076 34.076 0 00-13.893-3.54c-26.87-1-37.3-14.44-41.29-25.93a32.354 32.354 0 00-7.698-12.45 32.25 32.25 0 00-12.402-7.76c-25.47-8.54-32.87-28.62-34.63-43.8a33.819 33.819 0 00-5.359-15.01 33.843 33.843 0 00-11.641-10.88c-20.25-11.11-22.89-27.54-21.85-38.711a32.438 32.438 0 00-6.08-21.85c-6.35-8.87-12.26-23.12-3.06-39.69a33.266 33.266 0 001.59-29.13c-5.08-12-8.66-27.83 2-36.83 14.47-12.27 35.52-6.23 49.81.41a33.369 33.369 0 0029.66-.65z" stroke="#000" stroke-width="20" stroke-miterlimit="10"/><path d="M831.246 937.5l-39.5 26 14.5 12h25c5.5 0 24 3.5 35.5 4s12.5-4 18.5-4 13-7 15.5-8c2-.8 6.167-6.333 8-9l12-8.5c1.167 1.333 4.1 4 6.5 4 3 0 4 6 8 9.5s25.5 9.5 34 12c6.8 2 11.5.833 13 0h32.004c2.5 0 11 .5 11 0s8-2.5 12.5-2.5h10.5v-9.5c-2.5-2.5-8.1-7.9-10.5-9.5-3-2-8-6.5-12.5-10s-11-10-16-14c-4-3.2-6.34-5.667-7-6.5L991.246 912l-11.5-12-6.5-5-16-3-26 14-22.5 2.5-14.5-13.5h-15l-24 11-24 31.5z" fill="#F56CDB"/><path d="M859.5 935.5c-10.8 18.8-29.833 34.833-38 40.5l-37.5-8.5 9-8.5 40.5-26c2.5-7.833 11.9-25.1 29.5-31.5 17.6-6.4 31.667 2.667 36.5 8-15.5-4.5-26.5 2.5-40 26zM943 941c-3.6-23.2 13.833-37 23-41l-8-5.5c-15.167 2.333-44 14.3-38 43.5s48.5 40.5 69 42.5c-13.833-3.5-42.4-16.3-46-39.5z" fill="#001647" fill-opacity=".2"/><path fill-rule="evenodd" clip-rule="evenodd" d="M961.269 902.528a33.46 33.46 0 00-17.707 4.912l-.01.006-.009.005c-14.538 8.847-17.706 28.866-6.497 42.398 12.86 15.528 33.801 20.971 56.716 20.901 15.068-.046 30.018-2.491 42.108-5.251a119.743 119.743 0 01-50.504-46.316c-6.043-9.968-13.81-16.654-24.021-16.654h-.038l-.038-.001zm.114-19.999a53.457 53.457 0 00-28.245 7.842c-25.453 15.496-30.102 49.772-11.494 72.236 18.52 22.363 46.96 28.22 72.179 28.143 25.457-.078 49.957-6.175 63.547-10.241l.01-.002c2.81-.845 5.3-2.536 7.11-4.844a14.256 14.256 0 003.04-8.053c.16-2.934-.58-5.845-2.14-8.337a14.273 14.273 0 00-6.54-5.592l-10.15-4.296c-.01-.004-.02-.008-.02-.012a99.747 99.747 0 01-46.16-40.47l-.01-.027-.02-.027c-7.492-12.37-20.548-26.303-41.107-26.32z" fill="#000"/><path d="M786.116 970.931c26.4 7.9 93.78 23.19 125.17-14.7 14.9-18 11-45.15-9-57.32a43.465 43.465 0 00-23.04-6.41c-15.4 0-25.82 10.32-32.59 21.5a109.784 109.784 0 01-50.81 44.54l-10.21 4.32a4.282 4.282 0 00-1.691 6.634 4.281 4.281 0 002.171 1.436z" stroke="#000" stroke-width="20" stroke-miterlimit="10" stroke-linecap="round"/></g><defs><clipPath id="prefix__clip0_53_26861"><path fill="#fff" d="M0 0h1500v1500H0z"/></clipPath></defs>
      <g clip-path="url(#prefix__clip0_53_24937)"><path d="M1189.38 568.001a10.407 10.407 0 00-1.98 4.502c-.29 1.637-.18 3.32.31 4.908 23.49 64.7-16.84 79.42-16.84 79.42-17.85 7.34-31.27 2.64-38.16-1.24a10.512 10.512 0 00-10.62.13c-27.22 16.44-55.56 1.29-67.16-6.55a10.383 10.383 0 00-5.55-1.766c-1.98-.048-3.93.471-5.63 1.496-32.85 19.84-57.26 6.36-67.67-1.92a10.53 10.53 0 00-12.05-.74c-32.52 19.74-59.81 4.64-71.37-4.09a10.489 10.489 0 00-12.37-.12c-29.69 20.81-53.63 8.37-64.18.37a10.491 10.491 0 00-12.34-.11c-31.71 22.15-63.62 7.45-76.9-.71a10.489 10.489 0 00-12.24 1c-26.85 22.5-57.29 17.5-70 14a10.467 10.467 0 00-10.48 3c-26.07 28-51.91 28.25-64.16 26.29a10.378 10.378 0 00-10.64 4.9c-13.53 23.17-40.52 28.09-53.48 29.09a10.497 10.497 0 00-9 6.76c-8 20.93-37.11 30.28-49 33.28a10.468 10.468 0 00-7 5.94c-17.51 39.88-52 34.16-62.87 31.16a10.712 10.712 0 00-6.8.41c-42.71 17.18-53-18.53-55.42-33.83a10.568 10.568 0 00-2.349-5.128 10.569 10.569 0 00-4.651-3.192c-27.18-9.49-21.71-33-16.44-45.55a10.549 10.549 0 00-3.85-12.84c-26.85-18.17-18.73-43.06-12.5-55a10.38 10.38 0 00-2.09-12.3c-25.49-24.15-8.28-49.19.52-59a10.5 10.5 0 002.447-4.886 10.497 10.497 0 00-.337-5.454c-15-45.36-1.2-75 15.37-79.67a10.443 10.443 0 007.38-12.32c-7.9-34.74 18.12-56.24 33.22-60.1a10.48 10.48 0 007.94-10.14c-.26-44.36 39.11-48.82 56.69-48.6a10.425 10.425 0 0010.17-7.49c12.15-42.17 52.24-42.15 69.95-39.93a10.474 10.474 0 0011.09-6.75c13.32-35.63 45.83-32.24 60.79-28.51a10.459 10.459 0 0011.42-4.63c17.35-27.85 54-24.3 69.76-21.25a10.517 10.517 0 0011.05-5c23.28-39.29 62.4-25.7 78.15-18a10.44 10.44 0 0012-2.15c26.1-26.84 58.88-15.61 70.88-6.86 3.76 2.74 8.3 1.63 12.56-.24 53.29-23.45 63.52 11.41 75.49 22.41a10.523 10.523 0 005.442 2.625 10.52 10.52 0 005.988-.805c55.13-24.44 66 11.82 74.17 24.56a10.345 10.345 0 009.07 4.74c15-.51 59.53-12.4 68.82 36 .91 4.74 4.13 8.67 8.9 9.44 14.88 2.39 46.89 9.68 48.24 42.63.1 2.113.84 4.145 2.12 5.833a10.5 10.5 0 005.03 3.627c14 4.78 50 32.66 36.09 66.63a10.34 10.34 0 00-.34 6.767c.65 2.23 2.02 4.178 3.91 5.533 12.36 8.92 34.63 30 17.61 57.42a10.446 10.446 0 00-1.36 7.364 10.437 10.437 0 003.91 6.386c12.51 9.74 32.24 31.07 11.34 58.25z" fill="url(#prefix__paint0_linear_53_24937)" stroke="#000" stroke-width="20" stroke-miterlimit="10"/><path d="M486 316c8-7.2 6.333-12.333 4.5-14l-8.501-4c-14.833 2.5-44.699 7.7-45.499 8.5-.8.8-18.333 16.333-27 24l-16 19-28 5.5-22 32c-14 15.333-42 46.3-42 47.5 0 1.2-2.667 24.833-4 36.5l-25 26 4 61.5-13 29.5 7.5 39v32l19.5 43 2.5 42c7.333 7.5 23.9 25.4 31.5 37 9.5 14.5 10 12.5 54.5 16 35.6 2.8 57.167-19.167 63.5-30.5l59-43.5 42.5-17c6-6.167 23.9-19.2 47.5-22 23.6-2.8 32.5-20.167 34-28.5-37.919 25.554-65.646 17.812-74.217 5.341-2.881-4.193-6.633-8.688-11.588-9.84-33.654-7.826-40.534-35.863-37.426-55.162.893-5.544-1.656-11.452-6.538-14.227-31.884-18.125-23.086-50.549-11.002-71.318 2.878-4.947 1.684-11.403-2.66-15.13-25.625-21.988-18.853-46.575-7.959-61.497 3.633-4.976 3.422-12.186-.233-17.146-12.486-16.942-4.409-34.241 5.626-45.608 4.207-4.766 4.255-12.311 1.134-17.849-7.877-13.978-2.731-29.779 5.363-37.064z" fill="#001647" fill-opacity=".2"/><path d="M1189.38 568.001a10.407 10.407 0 00-1.98 4.502c-.29 1.637-.18 3.32.31 4.908 23.49 64.7-16.84 79.42-16.84 79.42-17.85 7.34-31.27 2.64-38.16-1.24a10.512 10.512 0 00-10.62.13c-27.22 16.44-55.56 1.29-67.16-6.55a10.383 10.383 0 00-5.55-1.766c-1.98-.048-3.93.471-5.63 1.496-32.85 19.84-57.26 6.36-67.67-1.92a10.53 10.53 0 00-12.05-.74c-32.52 19.74-59.81 4.64-71.37-4.09a10.489 10.489 0 00-12.37-.12c-29.69 20.81-53.63 8.37-64.18.37a10.491 10.491 0 00-12.34-.11c-31.71 22.15-63.62 7.45-76.9-.71a10.489 10.489 0 00-12.24 1c-26.85 22.5-57.29 17.5-70 14a10.467 10.467 0 00-10.48 3c-26.07 28-51.91 28.25-64.16 26.29a10.378 10.378 0 00-10.64 4.9c-13.53 23.17-40.52 28.09-53.48 29.09a10.497 10.497 0 00-9 6.76c-8 20.93-37.11 30.28-49 33.28a10.468 10.468 0 00-7 5.94c-17.51 39.88-52 34.16-62.87 31.16a10.712 10.712 0 00-6.8.41c-42.71 17.18-53-18.53-55.42-33.83a10.568 10.568 0 00-2.349-5.128 10.569 10.569 0 00-4.651-3.192c-27.18-9.49-21.71-33-16.44-45.55a10.549 10.549 0 00-3.85-12.84c-26.85-18.17-18.73-43.06-12.5-55a10.38 10.38 0 00-2.09-12.3c-25.49-24.15-8.28-49.19.52-59a10.5 10.5 0 002.447-4.886 10.497 10.497 0 00-.337-5.454c-15-45.36-1.2-75 15.37-79.67a10.443 10.443 0 007.38-12.32c-7.9-34.74 18.12-56.24 33.22-60.1a10.48 10.48 0 007.94-10.14c-.26-44.36 39.11-48.82 56.69-48.6a10.425 10.425 0 0010.17-7.49c12.15-42.17 52.24-42.15 69.95-39.93a10.474 10.474 0 0011.09-6.75c13.32-35.63 45.83-32.24 60.79-28.51a10.459 10.459 0 0011.42-4.63c17.35-27.85 54-24.3 69.76-21.25a10.517 10.517 0 0011.05-5c23.28-39.29 62.4-25.7 78.15-18a10.44 10.44 0 0012-2.15c26.1-26.84 58.88-15.61 70.88-6.86 3.76 2.74 8.3 1.63 12.56-.24 53.29-23.45 63.52 11.41 75.49 22.41a10.523 10.523 0 005.442 2.625 10.52 10.52 0 005.988-.805c55.13-24.44 66 11.82 74.17 24.56a10.345 10.345 0 009.07 4.74c15-.51 59.53-12.4 68.82 36 .91 4.74 4.13 8.67 8.9 9.44 14.88 2.39 46.89 9.68 48.24 42.63.1 2.113.84 4.145 2.12 5.833a10.5 10.5 0 005.03 3.627c14 4.78 50 32.66 36.09 66.63a10.34 10.34 0 00-.34 6.767c.65 2.23 2.02 4.178 3.91 5.533 12.36 8.92 34.63 30 17.61 57.42a10.446 10.446 0 00-1.36 7.364 10.437 10.437 0 003.91 6.386c12.51 9.74 32.24 31.07 11.34 58.25z" stroke="#000" stroke-width="20" stroke-miterlimit="10"/></g><defs><linearGradient id="prefix__paint0_linear_53_24937" x1="370.5" y1="379.002" x2="1125" y2="678.502" gradientUnits="userSpaceOnUse"><stop stop-color="#FFEB37"/><stop offset=".5" stop-color="#FF60ED"/><stop offset="1" stop-color="#33E5FF"/></linearGradient><clipPath id="prefix__clip0_53_24937"><path fill="#fff" d="M0 0h1500v1500H0z"/></clipPath></defs>
      
    </g>
    </svg>