<svg
      xmlns="http://www.w3.org/2000/svg"
      preserveAspectRatio="xMidYMin meet"
      fill="none"
      viewBox="0 0 1500 1500"
    >
      <g>
      <path fill="url(#prefix__paint0_linear_53_30462)" d="M0 0h1500v1500H0z"/><defs><linearGradient id="prefix__paint0_linear_53_30462" x1="0" y1="0" x2="1500" y2="1500" gradientUnits="userSpaceOnUse"><stop stop-color="#FFC4F6"/><stop offset="1" stop-color="#FF3DB1"/></linearGradient></defs>
      <g clip-path="url(#prefix__clip0_53_27836)"><path d="M295.802 1500s-47.94-91.54 28.64-134.76c0 0-62-101.54 67.13-159.88 0 0-37.4-104.09 81.15-137.65 0 0 113.278-13.21 336.278-19.21 0 0 195-18.5 274.57 12.04 0 0 45.53 20.87 73.44 127 0 0 102.26 45.87 83.4 145.87 0 0 95.08 77.12 34 166.56l-978.608.03z" fill="#A760FF"/><path d="M413.5 1436.5c-54 14.8-41.833 56.83-29 76H309c-8.833-12.83-26.5-48.1-26.5-86.5s29.667-63.33 44.5-71l-18-50c3.833-14.67 16.4-49.7 36-72.5 18.829-21.9 42.242-22.8 52.773-20.32-4.833-2.49-11.288-20.19-5.773-77.18 6-62 116.5-77.5 171-77.5l241.5-11 7 36c-17.167-2.17-61.1-4.2-99.5 5-48 11.5-80.5 77.5-76 125s48.5 68 69 76c16.4 6.4 11.5 13.67 7 16.5-49.667-3.83-159.1-14.1-199.5-24.5-50.5-13-74.5 13.5-92 47s3 79 17.5 92c11.6 10.4 7.5 15.67 4 17h-28.5zM678.5 1465.5c-20-4.8-18.667-17-15.5-22.5l169.5 1.5 157-10.5c19 28-73 38.5-157 41s-129-3.5-154-9.5zM913 1321.5c-15.2-3.6-15-12.83-13-17l49-6.5c2.333-3.33 20.5-12.3 74.5-21.5s109.83-61.5 131-86.5l25.5 11.5c-14.33 17-57.5 58.1-115.5 86.5-72.5 35.5-132.5 38-151.5 33.5zM1179.5 1422.5c-23.2 0-24-9.67-21.5-14.5 37.6-11.6 66.67-41.83 76.5-55.5 8.5-9.83 24.8-22.5 22 5.5-3.5 35-48 64.5-77 64.5z" fill="#001647" fill-opacity=".2"/><path d="M844.66 1500h-20.53l-3.2-51.29-16.43-263.08 20.45-1.27 5.2 83.24 14.51 232.4z" fill="#000"/><path d="M391.57 1205.36s113.92 99.14 315.74 99.14M909.141 1304.5S1033 1306.4 1157 1187.57M324.441 1357.16s36.7 65.24 111 80.93M1240.39 1333.44s0 48.45-73.06 70.34M834.691 1448.75c43.06-1.7 107.46-6.84 146-15M673.09 1443.87s71.64 5.43 147.84 4.84" stroke="#000" stroke-width="20" stroke-miterlimit="10" stroke-linecap="round"/><path d="M1084.5 1337c12.33 37 29.5 110.3 43.5 175.5m-646.5 0c.333-32.83 7.7-107.6 20.5-157M301.5 1508.5c-25.5-42-37.6-117.3 23-149.5m0 0c-22-46-25-128.1 67-152.5m-67 152.5c11.333 20.83 47.5 64.6 110.5 79m-43.5-231.5c-10.5-36.17-17.4-111.6 71-136 53.112-14.66 199.972-21.87 344-24.82m-415 160.82c38.167 32.17 156.3 99.1 315.5 97.5m450-116c-10.37-60.53-39.49-100.92-65.94-123.9-17.73-15.41-41.66-19.79-65.15-19.96-61.49-.42-140.02-.09-219.41 1.54M1157 1188c35.17 12.5 94.3 55.9 83.5 145.5M1157 1188c-97.6 94-206 116.5-248 116m331.5 29.5c35.83 26.17 81.7 104.2 28.5 180m-28.5-180c-4.8 43.2-51.67 65.33-74.5 71m-330.5 109l-29-467.82M672 1444c61.333 6.17 208.7 12.7 307.5-10.5" stroke="#000" stroke-width="20" stroke-linecap="round"/></g><defs><clipPath id="prefix__clip0_53_27836"><path fill="#fff" d="M0 0h1500v1500H0z"/></clipPath></defs>
      <g clip-path="url(#prefix__clip0_299_662)"><path d="M775 1185c231.41 0 419-168.12 419-375.5 0-207.383-187.59-375.5-419-375.5-231.407 0-419 168.117-419 375.5 0 207.38 187.593 375.5 419 375.5z" fill="#ABF"/><path d="M457.5 796c7.6 194 131.833 327.5 193 370l-130-55.5L438 1034l-57.5-89.5-27-106 11-104L394 662l45-82.5 83.5-69.5 109-54.182 28.5-1C569.452 513.314 451.119 633.132 457.5 796z" fill="#001647" fill-opacity=".2"/><path d="M775 1185c231.41 0 419-168.12 419-375.5 0-207.383-187.59-375.5-419-375.5-231.407 0-419 168.117-419 375.5 0 207.38 187.593 375.5 419 375.5z" stroke="#000" stroke-width="20"/></g><defs><clipPath id="prefix__clip0_299_662"><path fill="#fff" d="M0 0h1500v1500H0z"/></clipPath></defs>
      <g clip-path="url(#prefix__clip0_53_29200)"><path d="M764.05 848.209c35.186 0 63.71-28.524 63.71-63.71s-28.524-63.71-63.71-63.71-63.71 28.524-63.71 63.71 28.524 63.71 63.71 63.71z" fill="#000" stroke="#000" stroke-width="20" stroke-miterlimit="10"/><path d="M781.551 780c14.083 0 25.5-11.417 25.5-25.5s-11.417-25.5-25.5-25.5-25.5 11.417-25.5 25.5 11.417 25.5 25.5 25.5zM740.552 791.381c6.009 0 10.88-4.871 10.88-10.88s-4.871-10.88-10.88-10.88-10.88 4.871-10.88 10.88 4.871 10.88 10.88 10.88zM772.151 826.571c10.548 0 19.1-8.551 19.1-19.1 0-10.549-8.552-19.1-19.1-19.1-10.549 0-19.1 8.551-19.1 19.1 0 10.549 8.551 19.1 19.1 19.1z" fill="#fff"/><path d="M1051.05 848.209c35.19 0 63.71-28.524 63.71-63.71s-28.52-63.71-63.71-63.71-63.71 28.524-63.71 63.71 28.52 63.71 63.71 63.71z" fill="#000" stroke="#000" stroke-width="20" stroke-miterlimit="10"/><path d="M1068.55 780c14.08 0 25.5-11.417 25.5-25.5s-11.42-25.5-25.5-25.5-25.5 11.417-25.5 25.5 11.42 25.5 25.5 25.5zM1027.55 791.381c6.01 0 10.88-4.871 10.88-10.88s-4.87-10.88-10.88-10.88c-6.01 0-10.88 4.871-10.88 10.88s4.87 10.88 10.88 10.88zM1059.15 826.571c10.55 0 19.1-8.551 19.1-19.1 0-10.549-8.55-19.1-19.1-19.1s-19.1 8.551-19.1 19.1c0 10.549 8.55 19.1 19.1 19.1z" fill="#fff"/><path d="M905 1002.88L923.13 991a26.135 26.135 0 0010.308-30.616 26.144 26.144 0 00-6.148-9.734v0a26.143 26.143 0 00-19.36-7.629 26.155 26.155 0 00-18.8 8.919L873 970.38M905 1003l18.13 11.88a26.115 26.115 0 0110.312 30.61 26.15 26.15 0 01-6.152 9.73v0a26.233 26.233 0 01-8.883 5.84 26.052 26.052 0 01-10.475 1.81 26.056 26.056 0 01-10.33-2.51 26.14 26.14 0 01-8.472-6.42L873 1035.5" stroke="#000" stroke-width="20" stroke-miterlimit="10" stroke-linecap="round"/></g><defs><clipPath id="prefix__clip0_53_29200"><path fill="#fff" d="M0 0h1500v1500H0z"/></clipPath></defs>
      <g clip-path="url(#prefix__clip0_53_27350)"><path d="M695 882.421v6.14a7.746 7.746 0 01-.67 3.22c-1.26 2.86-3.34 3-3.34 3a7.817 7.817 0 01-6.39-1.32c-2.64-2.11-9.24-20.21-9.24-20.21l-12.71 20.21H654l17.8-28.21-5.59-11.59a4.654 4.654 0 00-4.07-2.64H662a4.724 4.724 0 00-4.13 1.7c-.89.89-1.21 3.78-1.21 3.78l-1.78.13a22.972 22.972 0 01-.13-5.28 7.776 7.776 0 011.34-3.76 5.694 5.694 0 014.83-2.61 7.816 7.816 0 014.51 1.43 8.67 8.67 0 013 3.74l5.26 13.05 11.44-17.4H693l-15.8 24.51 3.94 9.32s3 9 7.31 9 4.71-6.22 4.71-6.22l1.84.01z" fill="#000"/></g><defs><clipPath id="prefix__clip0_53_27350"><path fill="#fff" d="M0 0h1500v1500H0z"/></clipPath></defs>
      <path d="M661.719 466.274s.681-50.314 11.211-50.049c10.531.266 30.241-4.165 30.241-4.165l31.003 15.989 25.638-5.424 28.99-24.747 27.071-1.791 27.883 14.121 15.446 18.681 23.411.145 50.96-13.954 24.276 23.68-19.232 52.574-44.507-21.369-17.618-6.041-23.175-7.036-28.049-1.943-32.388-.112-55.638 3.68-50.45 8.949-25.073-1.188z" fill="#97A5DE"/><path d="M718.506 479.214s19.322 40.453 64.014 34.31c44.692-6.143 83.522-32.583 83.522-32.583l10.406-17.065-81.463-14.775-84.096 14.041s-8.664 11.898 7.617 16.072z" fill="#7985B4"/><path d="M662.843 469.488s-13.534-58.554 30.087-60.287c15.493-.614 25.434 4.992 32.226 12.21 13.894 14.755 29.392 7.707 38.346-2.386 11.842-13.391 27.482-26.021 44.854-27.17 20.226-1.338 34.215 14.393 42.889 29.474 6.094 10.621 21.799 13.651 33.204 6.683 11.953-7.315 28.35-12.9 48.081-8.683 42.964 9.245 6.064 69.091 6.064 69.091" stroke="#000" stroke-width="18.1" stroke-miterlimit="10" stroke-linecap="round"/><path d="M630.048 507.636s25.276-45.068 51.452-39.634c40.502 8.395 74.399 69.733 74.399 69.733M800.818 537.27s38.761-65.501 93.251-67.301c54.49-1.801 48.429 57.93 48.429 57.93M682 468s137.209-40.275 226.408 2.982M736.796 506.5s35.103 14.655 86.489 1.675" stroke="#000" stroke-width="20" stroke-miterlimit="10" stroke-linecap="round"/><path d="M644.603 542.516l56.89-77.109 53.1-31.06 21.634-1.404 37.197 81.112 21.415 63.676s27.843 59.499-15.545 65.537c-43.387 6.039-91.435-3.37-91.435-3.37L674.535 627.1l-65.745 19.231s-46.205 82.674-91.956 100.812c-45.751 18.138-42.916-1.403-42.916-1.403l-42.859-81.774-19.901-91.615s-13.797-31.572 51.611-31.441c65.408.131 113.385 23.476 113.385 23.476l68.449-21.87z" fill="#4AEEB9"/><path d="M505 591c-.4-20.4 9.167-33.5 14-37.5l-7-8-62.5-1-38.5 9 12 63 41 113 26 31.5 72.5-48.5 46.5-63-16.5-43.5-50 18.5c0 8.333-2.7 23.9-13.5 19.5-13.5-5.5-23.5-27.5-24-53zM643 630.5c-30-26.8-29.833-61.167-26-75l-32 6.5 24 78.5 34-10zM747.5 575c7.6-20.8-7.167-31-15.5-33.5-6.5 8-19.6 24.2-20 25-.4.8-26.833 13-40 19-.167 7.5 1.1 22.7 7.5 23.5 8 1 58.5-8 68-34z" fill="#001647" fill-opacity=".2"/><path d="M647.51 541.553l-67.569 24.232 28.887 80.545 67.568-24.233-28.886-80.544z" stroke="#000" stroke-width="20" stroke-miterlimit="10"/><path d="M676.427 621.507s80.65 40.951 156.098 17.871a17.706 17.706 0 009.624-7.279 17.61 17.61 0 002.702-11.737 437.997 437.997 0 00-66.957-184.734l-.109-.158a17.698 17.698 0 00-9.558-7.301 17.761 17.761 0 00-12.032.483C683.202 458.578 647.06 541.311 647.06 541.311M579.903 566.274s-80.652-40.957-156.122-17.874a17.702 17.702 0 00-9.625 7.275 17.604 17.604 0 00-2.703 11.735v0a438.016 438.016 0 0066.938 184.744l.108.168a17.698 17.698 0 009.564 7.29 17.762 17.762 0 0012.03-.491c73.004-29.921 109.151-112.668 109.151-112.668" stroke="#000" stroke-width="20" stroke-miterlimit="10"/><path d="M662.153 582.107s45.412 4.609 61.137-39.852M594.148 606.978s-52.056-3.509-59.752 39.921" stroke="#000" stroke-width="20" stroke-miterlimit="10" stroke-linecap="round"/>
      
    </g>
    </svg>