<svg
      xmlns="http://www.w3.org/2000/svg"
      preserveAspectRatio="xMidYMin meet"
      fill="none"
      viewBox="0 0 1500 1500"
    >
      <g>
      <path fill="url(#prefix__paint0_linear_53_30461)" d="M0 0h1500v1500H0z"/><defs><linearGradient id="prefix__paint0_linear_53_30461" x1="0" y1="0" x2="1500" y2="1533.5" gradientUnits="userSpaceOnUse"><stop stop-color="#EEB0FC"/><stop offset="1" stop-color="#AF55F5"/></linearGradient></defs>
      <g clip-path="url(#a)"> <path fill="#000" d="M511.7 1369.3c-9.4 43-15.8 86.7-19 130.6h-20v-.7c3.2-45.2 9.7-90.2 19.5-134.5a10 10 0 0 1 19.5 4.6ZM1132 1500h-20.2c-2.8-14-20.2-98.8-36.6-147.6a10 10 0 0 1 2.7-10.9 10.1 10.1 0 0 1 7.4-2.4 9.8 9.8 0 0 1 6.9 3.5 10 10 0 0 1 1.9 3.5c18.3 54.2 37 148 37.7 151.9l.2 2Z"/> <path fill="#fff" d="M1263 1504H289.3l3.8-70.5 22.1-107.4 14.3-62.1 31.5-61 41.5-71s41.3-28.9 106-57 255-32.5 255-32.5 155.8-7 309 52.5c153.2 59.6 190.5 409 190.5 409Z"/> <path fill="#ABF" d="m739.5 1500-19.9-143v-146l39.9-169 83.5 6.5 40 108 9.3 28.5 23.4 117.7L922 1500H739.5Z"/> <path stroke="#000" stroke-width="20" d="M741 1514c-20.8-79.3-46.8-283.4 16-465m165 465c7-105.5 5.7-294.2-83.5-465"/> <path fill="#000" d="M659.1 1339a17.4 17.4 0 0 1-10.4 14.6l-43.4 18.7a10.2 10.2 0 0 0-5.7 12.4l35.8 115.3h-21l-34-109.3a30.1 30.1 0 0 1 17-36.8l38.8-16.7-60.5-37.8a32.7 32.7 0 0 1-8.4-48.2L743.5 1039l7.8 6.2 7.9 6.3L583 1263.7a12.8 12.8 0 0 0 3.3 18.8l64.7 40.4a17.4 17.4 0 0 1 8.1 16Zm404.5 23.3L1042 1500h-20.3l22.2-140.8a10.2 10.2 0 0 0-7.4-11.4l-45.7-12.2a17.4 17.4 0 0 1-6.7-30.1l58.2-49.3a12.8 12.8 0 0 0 .5-19l-195.6-183.4 6.8-7.3 6.9-7.3 195.6 183.3a32.6 32.6 0 0 1 7 38c-1.9 4.3-4.8 8-8.3 11l-54.4 46 40.9 11a30 30 0 0 1 22 33.8Z"/> <path fill="#001647" fill-opacity=".2" d="M500 1213.5c-101.2 100-117.8 249-113.5 311l-99.5-13c-1.6-110.8 39-247.5 59.5-302L386 1157l15.5-20.5L468 1094c149.6-59.6 294-54.8 347.5-45-63 13.2-214.3 64.5-315.5 164.5Z"/> <path fill="#001647" fill-opacity=".2" d="M559 1297c-18-16.4-1.5-37.2 9.5-45l-3 16.5 13.5 11 68.5 60-13.5 9.5c-27.5-12-52.5-31.5-75-52Zm6.5 97c-4-22.8 19.7-35.5 32-39l-4 14v25l30 111.5h-20c-11-27.7-34-88.7-38-111.5Zm328-82.5c-19-119-56.5-216-80-270h24l37 86 39 152 10 156.5v75.5l-23 13c4.5-36.7 7.8-120.6-7-213Z"/> <path stroke="#000" stroke-linecap="round" stroke-width="20" d="M289.5 1512.5c-6-101.5 31-323 140.5-398 158.5-108.5 616.5-87 706.5 26 65 81.5 99.5 222.5 132.5 371M1084.5 1337c12.3 37 29.5 110.3 43.5 175.5m-646.5 0c.3-32.8 7.7-107.6 20.5-157"/> </g> <defs> <clipPath id="a"> <path fill="#fff" d="M0 0h1500v1500H0z"/> </clipPath> </defs>
      <g clip-path="url(#prefix__clip0_299_662)"><path d="M775 1185c231.41 0 419-168.12 419-375.5 0-207.383-187.59-375.5-419-375.5-231.407 0-419 168.117-419 375.5 0 207.38 187.593 375.5 419 375.5z" fill="#ABF"/><path d="M457.5 796c7.6 194 131.833 327.5 193 370l-130-55.5L438 1034l-57.5-89.5-27-106 11-104L394 662l45-82.5 83.5-69.5 109-54.182 28.5-1C569.452 513.314 451.119 633.132 457.5 796z" fill="#001647" fill-opacity=".2"/><path d="M775 1185c231.41 0 419-168.12 419-375.5 0-207.383-187.59-375.5-419-375.5-231.407 0-419 168.117-419 375.5 0 207.38 187.593 375.5 419 375.5z" stroke="#000" stroke-width="20"/></g><defs><clipPath id="prefix__clip0_299_662"><path fill="#fff" d="M0 0h1500v1500H0z"/></clipPath></defs>
      <g clip-path="url(#prefix__clip0_53_29144)" stroke="#000" stroke-width="20" stroke-linecap="round"><path d="M844.63 1012.87h141.62M829.06 777.09l-31.89-.02-34.13-.03-43.3-.04"/><path d="M805.53 785.89A29.91 29.91 0 11763 777h34.13a29.774 29.774 0 018.4 8.89z" fill="#000"/><path d="M1081.06 777l-43.31.04-34.13.03-31.88.02"/><path d="M995.26 785.889a29.915 29.915 0 00-4.456 16.588 29.915 29.915 0 0018.886 26.947 29.916 29.916 0 0017.11 1.473 29.872 29.872 0 0015.1-8.183 29.836 29.836 0 008.11-15.14 29.887 29.887 0 00-12.26-30.535h-34.13a29.957 29.957 0 00-8.36 8.85z" fill="#000"/></g><defs><clipPath id="prefix__clip0_53_29144"><path fill="#fff" d="M0 0h1500v1500H0z"/></clipPath></defs>
      <g clip-path="url(#prefix__clip0_53_27350)"><path d="M695 882.421v6.14a7.746 7.746 0 01-.67 3.22c-1.26 2.86-3.34 3-3.34 3a7.817 7.817 0 01-6.39-1.32c-2.64-2.11-9.24-20.21-9.24-20.21l-12.71 20.21H654l17.8-28.21-5.59-11.59a4.654 4.654 0 00-4.07-2.64H662a4.724 4.724 0 00-4.13 1.7c-.89.89-1.21 3.78-1.21 3.78l-1.78.13a22.972 22.972 0 01-.13-5.28 7.776 7.776 0 011.34-3.76 5.694 5.694 0 014.83-2.61 7.816 7.816 0 014.51 1.43 8.67 8.67 0 013 3.74l5.26 13.05 11.44-17.4H693l-15.8 24.51 3.94 9.32s3 9 7.31 9 4.71-6.22 4.71-6.22l1.84.01z" fill="#000"/></g><defs><clipPath id="prefix__clip0_53_27350"><path fill="#fff" d="M0 0h1500v1500H0z"/></clipPath></defs>
      <g clip-path="url(#prefix__clip0_53_26308)"><path d="M854.362 572.597c26.698 5.591 89.208 15.824 113.676-4.55l37.022-89.77 58.51-109.597 51.82-71.708s27.11-23.586-86.96-38.648c-114.081-15.063-170.063-25.713-170.063-25.713s-185.228-21.022-318.271 89.002C407.053 431.636 359.545 587.164 359.545 587.164s-23.041 149.5-11.177 211.286c0 0-10.756-150.238 138.793-274.277l10.378 3.162 96.814-44.403 93.997 3.593 112.831 44.07 32.177 30.882a43.213 43.213 0 0021.004 11.12z" fill="#FF6247"/><path d="M734.501 244.999c-65.6 65.6-81.001 186.667-80.501 239l-37-3.499-46 17.5-78 27c-100.4 76-139.5 198.667-146.5 250.5l-11-72 16.5-99 36-94c25.167-50 96.4-161.801 180-209.001 83.6-47.2 145.834-57.333 166.501-56.5z" fill="#001647" fill-opacity=".2"/><path d="M359.937 865.087s-98.854-257.118 132.339-500.524C701.097 144.725 1047 259.731 1111.97 284.077a8.368 8.368 0 013.19 2.167 8.404 8.404 0 011.83 3.382 8.18 8.18 0 01-1.61 7.305c-89.04 108.115-130.608 228.336-140.839 261.124a22 22 0 01-4.551 8.032 21.816 21.816 0 01-7.454 5.429c-17.926 7.942-59.839 21.108-111.963 1.677-7.062-3.64-10.24-5.677-15.479-10.467-24.838-26.919-183.88-146.589-341.932-30.552M839.383 566.594s-16.991-206.181 59.946-329.197M932.166 573.065s2.952-85 57.03-179.431M746.269 503.828s-13.544-77.051 5.211-143.867M587.364 290.497s-21.765 52.356-1.61 128.612M912.071 312.74s7.567-33.449 33.317-62.912M467.245 549.855s-11.802-18.139-13.388-55.171" stroke="#000" stroke-width="20" stroke-miterlimit="10" stroke-linecap="round"/></g><defs><clipPath id="prefix__clip0_53_26308"><path fill="#fff" d="M0 0h1500v1500H0z"/></clipPath></defs>
      
    </g>
    </svg>