<svg
      xmlns="http://www.w3.org/2000/svg"
      preserveAspectRatio="xMidYMin meet"
      fill="none"
      viewBox="0 0 1500 1500"
    >
      <g>
      <path fill="url(#prefix__paint0_linear_53_30462)" d="M0 0h1500v1500H0z"/><defs><linearGradient id="prefix__paint0_linear_53_30462" x1="0" y1="0" x2="1500" y2="1500" gradientUnits="userSpaceOnUse"><stop stop-color="#FFC4F6"/><stop offset="1" stop-color="#FF3DB1"/></linearGradient></defs>
      <g clip-path="url(#prefix__clip0_53_28440)"><path d="M1263 1500H289.33l3.73-66.49 19.17-107.35L354 1197l57.62-67.7s34.7-23.67 99.38-51.8c64.68-28.13 246.37-32.16 246.37-32.16s164.97-8.43 318.13 51.16C1228.66 1156.09 1263 1500 1263 1500z" fill="#99C4CB"/><path d="M466 1099s-.521 38.21 72.469 75.64 99.8 45.62 99.8 45.62 74.66 17.52 117.89 17.09c43.23-.43 122-9.29 122-9.29s82.32-21.7 109.62-40.47c27.301-18.77 99.721-76.09 99.721-76.09s-88.501-61-209.341-61c0 0-94.19-15.43-209.66 0s-140 25.5-140 25.5l-28 9s-23.389-.21-34.499 14z" fill="#fff"/><path d="M502.047 1215.45c-101.2 100-117.833 249-113.5 311l-99.501-13c-1.6-110.8 39-247.5 59.5-302l39.501-52.5 15.5-20.5 66.5-42.5c149.6-59.6 294-54.83 347.5-45-54.857 11.46-176.664 51.87-274.047 128.14 21.333 10.79 72.7 34.67 107.5 43.91 34.8 9.24 144.833 15.18 195.5 17-134.4 46-275.333-6.91-329-39.11a452.112 452.112 0 00-15.453 14.56z" fill="#001647" fill-opacity=".2"/><path d="M457 1103s81.38 134.36 319.15 134.36C1013.92 1237.36 1087 1109 1087 1109m-570-30c38.5 44.5 125.7 97.6 286.5 90 160.8-7.6 212-62.83 217-89.5M496.359 1145.43l50.11-36.14M578.51 1198.9l32.58-56.52M687.039 1230.64l11.64-66M809.939 1236.42l-3.41-64.42M927.521 1215.06l-28.97-59.27M1030.14 1155.88l-35.54-43.82" stroke="#000" stroke-width="20" stroke-miterlimit="10"/><path d="M289.5 1512.5c-6-101.5 31-323.03 140.5-398 158.5-108.51 616.5-87 706.5 26 64.91 81.5 99.5 222.5 132.5 371M1084.5 1337c12.33 37 29.5 110.3 43.5 175.5m-646.5 0c.333-32.83 7.7-107.6 20.5-157" stroke="#000" stroke-width="20" stroke-linecap="round"/></g><defs><clipPath id="prefix__clip0_53_28440"><path fill="#fff" d="M0 0h1500v1500H0z"/></clipPath></defs>
      <g clip-path="url(#prefix__clip0_299_662)"><path d="M775 1185c231.41 0 419-168.12 419-375.5 0-207.383-187.59-375.5-419-375.5-231.407 0-419 168.117-419 375.5 0 207.38 187.593 375.5 419 375.5z" fill="#ABF"/><path d="M457.5 796c7.6 194 131.833 327.5 193 370l-130-55.5L438 1034l-57.5-89.5-27-106 11-104L394 662l45-82.5 83.5-69.5 109-54.182 28.5-1C569.452 513.314 451.119 633.132 457.5 796z" fill="#001647" fill-opacity=".2"/><path d="M775 1185c231.41 0 419-168.12 419-375.5 0-207.383-187.59-375.5-419-375.5-231.407 0-419 168.117-419 375.5 0 207.38 187.593 375.5 419 375.5z" stroke="#000" stroke-width="20"/></g><defs><clipPath id="prefix__clip0_299_662"><path fill="#fff" d="M0 0h1500v1500H0z"/></clipPath></defs>
      <g clip-path="url(#prefix__clip0_53_29110)" stroke="#000" stroke-width="20" stroke-linecap="round"><path d="M837 1021c38.588-40 113.402-40 152 0" stroke-miterlimit="10"/><path d="M824.154 764.036l-30.611 8.918-32.772 9.542-41.574 12.113"/><path d="M804.04 779.081a29.907 29.907 0 018.308 31.838 29.906 29.906 0 01-25.97 20.205 29.912 29.912 0 01-25.607-48.628l32.781-9.507a29.715 29.715 0 0110.488 6.092z" fill="#000"/><path d="M1082.75 794.607l-41.57-12.114-32.77-9.541-30.615-8.919"/><path d="M997.916 778.954a29.91 29.91 0 0034.454 48.422 29.957 29.957 0 0012.03-12.26 29.902 29.902 0 00-3.22-32.748l-32.78-9.506a29.788 29.788 0 00-10.484 6.092z" fill="#000"/></g><defs><clipPath id="prefix__clip0_53_29110"><path fill="#fff" d="M0 0h1500v1500H0z"/></clipPath></defs>
      <g clip-path="url(#prefix__clip0_53_27079)"><path opacity=".4" d="M770.85 897.86a109.421 109.421 0 0021.346-216.738A109.42 109.42 0 10770.85 897.86zM1066.56 897.86a109.414 109.414 0 00101.09-67.547 109.453 109.453 0 006.23-63.22 109.43 109.43 0 00-85.97-85.971 109.411 109.411 0 00-63.22 6.227 109.391 109.391 0 00-49.11 40.3 109.42 109.42 0 0090.98 170.211z" fill="#fff"/><path d="M1145.89 765c5.43-3.83 2.77-16.94-5.94-29.29-8.71-12.35-20.17-19.25-25.6-15.42s-2.77 16.94 5.94 29.29c8.71 12.35 20.17 19.2 25.6 15.42zM848.18 764.999c5.43-3.83 2.77-16.94-5.94-29.29-8.71-12.35-20.17-19.26-25.6-15.43-5.43 3.83-2.77 17 5.94 29.3s20.17 19.21 25.6 15.42z" fill="#fff"/><path d="M1066.27 897.86a109.414 109.414 0 00101.09-67.547 109.453 109.453 0 006.23-63.22 109.43 109.43 0 00-85.97-85.971 109.411 109.411 0 00-63.22 6.227 109.391 109.391 0 00-49.11 40.3 109.42 109.42 0 0090.98 170.211zM770.85 897.86a109.421 109.421 0 0021.346-216.738A109.42 109.42 0 10770.85 897.86v0zM658.002 782.498L377.65 692.6M880.27 788.439h76.579" stroke="#000" stroke-width="20" stroke-miterlimit="10"/></g><defs><clipPath id="prefix__clip0_53_27079"><path fill="#fff" d="M0 0h1500v1500H0z"/></clipPath></defs>
      <g clip-path="url(#prefix__clip0_53_26093)"><path d="M1324.57 565.17c-9.32 17.15-37.98 54.33-160.57 81.33-14-25.5-30.5-51-46-68l-142.22 10.74L603.5 629l-173.12 32.64-50-1.87L366.7 692c-4.54 9.61-7 22.58-10.66 32.43-50.35-.82-147.84-11.24-174.84-44.9-6.52-8.12-4.78-34.69-2.12-45.54 2.31-9.44 24.84-31 82.25-55.86 37.48-16.22 83.53-26.88 146.32-42.31 26.47-6.5 51.19-12.43 76-17.54L511 508.5l239-30 263.5-9.5 41.53 2.56c67.89.88 109.14 5.87 153.79 13.17 86 14 114.51 49 118.82 65.46l.17.66.25.65s1.05 5.4-3.49 13.67z" fill="#3A3A3A"/><path d="M434 462.75V518l220.44-30.86L1036 469.72 1023.72 408l-220.44 11-118.15 8.46L434 462.75z" fill="#FF6247"/><path d="M427.5 193l8 271.5L610 436l215.5-22.5L1027 404 951 94l-32-19-162.5-12L610 83.5l-127.5 40-55 27V193z" fill="#3A3A3A"/><path d="M540.5 504c-28.8-106.8-28.667-306.167-25-392.5-4.167 2-18.3 7.6-41.5 14s-42 32.667-48.5 45L434 526l-85 23.5c-68.5 16.833-198.6 64.2-171 119 27.6 54.8 131.833 59.5 180.5 55l23.5-63 82-9c51.2-74.8 252.333-147.833 346.5-175l-270 27.5zM1215 628c-2.8-40.4-67.17-49.5-99-49 13.2 12 33.83 49.333 42.5 66.5L1215 628z" fill="#000" fill-opacity=".2"/><path d="M382.87 669.459s367-91 735-81M371.311 730s-218.4 5-196-86.57c22.4-91.57 448.87-153.27 448.87-153.27s667.689-74.76 701.309 53.3c0 0 35.38 63-173.2 107.67" stroke="#000" stroke-width="20" stroke-miterlimit="10"/><path d="M430.2 522.25l-5-336.25c0-10 1.21-19.65 6.25-28.11A46.002 46.002 0 01453.2 139l30.47-12.71c143.44-59.78 280.81-77.83 434-52.08a46.003 46.003 0 0137.44 36.25l86.14 358M434 468s259.7-66.27 599-62.87" stroke="#000" stroke-width="20" stroke-miterlimit="10"/></g><defs><clipPath id="prefix__clip0_53_26093"><path fill="#fff" d="M0 0h1500v1500H0z"/></clipPath></defs>
      
    </g>
    </svg>