<svg
      xmlns="http://www.w3.org/2000/svg"
      preserveAspectRatio="xMidYMin meet"
      fill="none"
      viewBox="0 0 1500 1500"
    >
      <g>
      <path fill="url(#prefix__paint0_linear_53_30463)" d="M0 0h1500v1500H0z"/><defs><linearGradient id="prefix__paint0_linear_53_30463" x1="1500" y1="1500" x2="0" y2="0" gradientUnits="userSpaceOnUse"><stop stop-color="#FF5A5A"/><stop offset="1" stop-color="#FFBDBD"/></linearGradient></defs>
      <g clip-path="url(#prefix__clip0_53_28693)"><path d="M1108.09 1432.16l14.41 71.69h142.41l-32.7-113.79-124.12 42.1zM288.689 1505.57l13.36-113.94 184.06 50.77-2.67 63.17h-194.75z" fill="#ABF"/><path d="M303.471 1382.79L325 1260l56-105.5s64.91-55.22 110.5-71c0 0 87.12-38.32 292.5-41 205.38-2.68 276 52.5 276 52.5l58.65 30.23 39.22 52.98 39.13 78.97 38.22 131.86-127.13 39.32 14.41 72.47-643.659 1.15 7.27-66.62-182.64-52.57z" fill="#A760FF"/><path d="M500.002 1213.5c-101.2 100-117.834 249-113.5 311l-99.502-13c-1.6-110.8 39-247.5 59.5-302l39.501-52.5 15.5-20.5 66.5-42.5c149.6-59.6 294-54.83 347.5-45-63 13.17-214.299 64.5-315.499 164.5z" fill="#001647" fill-opacity=".2"/><path d="M942.58 1333.82L867.34 1275l4.68 40.3h-90l4.29 36.89h90l4.68 40.3 61.59-58.67zm-205.16 55.26l-4.68-40.3L671 1407.6l75.38 58.64-4.66-40.13h90l-4.3-37.05-90 .02z" fill="#fff"/><path d="M289.5 1512.5c-1.965-33.24.683-79.37 8.981-129m970.519 128c-9.49-42.7-19.11-84.78-29.54-125M1084.5 1337c7.13 21.39 15.88 54.92 24.69 92m18.81 83.5c-5.91-27.5-12.37-56.45-18.81-83.5m-627.69 83.5c.172-16.93 2.213-45 5.905-75m14.595-82c-6.201 23.93-11.126 53.81-14.595 82m-188.924-54c17.035-101.9 57.885-218.59 131.519-269 158.5-108.51 616.5-87 706.5 26 46.24 58.07 77.1 146.33 102.96 246m-940.979-3l188.924 54m621.785-8.5l130.27-42.5" stroke="#000" stroke-width="20" stroke-linecap="round"/></g><defs><clipPath id="prefix__clip0_53_28693"><path fill="#fff" d="M0 0h1500v1500H0z"/></clipPath></defs>
      <g clip-path="url(#prefix__clip0_299_662)"><path d="M775 1185c231.41 0 419-168.12 419-375.5 0-207.383-187.59-375.5-419-375.5-231.407 0-419 168.117-419 375.5 0 207.38 187.593 375.5 419 375.5z" fill="#ABF"/><path d="M457.5 796c7.6 194 131.833 327.5 193 370l-130-55.5L438 1034l-57.5-89.5-27-106 11-104L394 662l45-82.5 83.5-69.5 109-54.182 28.5-1C569.452 513.314 451.119 633.132 457.5 796z" fill="#001647" fill-opacity=".2"/><path d="M775 1185c231.41 0 419-168.12 419-375.5 0-207.383-187.59-375.5-419-375.5-231.407 0-419 168.117-419 375.5 0 207.38 187.593 375.5 419 375.5z" stroke="#000" stroke-width="20"/></g><defs><clipPath id="prefix__clip0_299_662"><path fill="#fff" d="M0 0h1500v1500H0z"/></clipPath></defs>
      <g clip-path="url(#prefix__clip0_53_29449)"><path d="M844.63 1012.87h141.62" stroke="#000" stroke-width="20" stroke-linecap="round"/><path d="M764.05 841.24c31.336 0 56.74-25.404 56.74-56.74 0-31.337-25.404-56.74-56.74-56.74-31.337 0-56.74 25.403-56.74 56.74 0 31.336 25.403 56.74 56.74 56.74zM1048.19 841.24c31.34 0 56.74-25.404 56.74-56.74 0-31.337-25.4-56.74-56.74-56.74-31.34 0-56.74 25.403-56.74 56.74 0 31.336 25.4 56.74 56.74 56.74z" fill="#fff" stroke="#000" stroke-width="20" stroke-miterlimit="10"/><path d="M764.05 770.5c7.18 0 13-5.82 13-13s-5.82-13-13-13-13 5.82-13 13 5.82 13 13 13zM1048.19 770.5c7.18 0 13-5.82 13-13s-5.82-13-13-13-13 5.82-13 13 5.82 13 13 13z" fill="#000"/></g><defs><clipPath id="prefix__clip0_53_29449"><path fill="#fff" d="M0 0h1500v1500H0z"/></clipPath></defs>
      <g clip-path="url(#prefix__clip0_53_26521)"><path d="M645.5 817.501l-6-36 2.5-19c1.167-2.167 3.5-7.1 3.5-9.5 0-3 0-5 3-10.5s7-12 12.5-18.5c4.4-5.2 10.5-10.833 13-13 3.333-1.5 11.2-4.8 16-6 4.8-1.2 19-3.833 25.5-5 3.333 1.667 10.9 5 14.5 5 4.5 0 17.5 2.5 20 6 2 2.8 7.833 9.833 10.5 13l5.5-6.5c5.5-6.5 14.5-12.5 18.5-12.5s21-5 25-5h16c8 0 13.5 2 19.5 5s11.5 6.5 15.5 9.5 8.5 12 11.5 18.5 7 10.5 7.5 20 2.5 24 3 28.5c.4 3.6 4.167 10.167 6 13l5.923-.494c7.382-2.693 15.809-2.984 23.951-1.996l6.126-.51 21.5 3v-41.5c1.167-20.667 15-61.6 61-60 46 1.6 56.5 17 56 24.5 11.33-16.833 44.8-43.9 88-17.5S1181.67 792 1170 821.5c-14.67 27.5-55.9 82.4-103.5 82-47.6-.4-95.5-52.167-113.5-78l-7-25.5c-6.701-3.174-16.917-6.688-27.626-7.989l-23.951 1.996c-5.851 2.135-11.046 5.78-14.923 11.493-15.2 22.4-26.333 47.333-30 57-13.5 16.167-49.4 49.1-85 51.5-35.6 2.4-88.5-51.333-110.5-78.5l-8.5-17.999z" fill="#FF6247"/><path d="M673 710s14-.77 66-7l97 169.89s-10.93 29.69-49 29.11L673 710zM765.58 714.5s.64.35 18.42-10.5l75.5 139.5s2.07 13.53-12.5 16.5l-81.42-145.5zM972 701.999s28-18.5 66-7l97 169.89s-10.93 29.69-49 29.11l-114-192zM1066.58 706.5s.64.35 18.42-10.5l73.5 139.5s2.07 13.53-12.5 16.5l-79.42-145.5z" fill="#fff" fill-opacity=".9"/><path d="M1192.94 755.47v-.09c-.14-4.17-2.27-41.41-34.9-63.45a75.432 75.432 0 00-71.21-6.94 67.672 67.672 0 00-23.69 16.16l-1.71 1.8-1.81-1.69a67.16 67.16 0 00-24.62-14.69 75.399 75.399 0 00-70.679 11.32c-31.08 23.94-31 61.28-30.9 65.45-.03 5.009.197 10.015.68 15l.36 3.76-3.6-1.13a56.453 56.453 0 00-35.44.41l-3.4 1.16.09-3.6c.13-4.66 0-9.45-.3-14.24-.15-4.27-2.37-41.58-34.91-63.55a75.45 75.45 0 00-71.22-6.94 67.598 67.598 0 00-23.68 16.21l-1.7 1.8-1.81-1.69a67.466 67.466 0 00-24.59-14.67 75.396 75.396 0 00-70.68 11.28c-19.23 14.8-26.54 34.7-29.28 48.8l-.53 2.69-252.13-54.36a9.117 9.117 0 00-12.05 4.57 9.1 9.1 0 00-.211 6.972 9.103 9.103 0 004.781 5.078l258.56 57.39.07 1.78c1.85 45.25 24.65 84.31 65.93 112.94 21.13 14.62 44.38 22.92 60.15 27.31a24.404 24.404 0 0014.21-.34c23.59-7.77 44.49-18.53 60.45-31.1 29.3-23.1 47.92-50.84 55.36-82.45l.2-.85.68-.54a39.163 39.163 0 0145.81-2l2.33 1.48c.293.193.597.37.91.53l.94.48.31 1c9.61 30.37 29.73 56.34 59.83 77.19 22.429 15.53 46.889 25 59.479 29.25a24.659 24.659 0 0017.08-.46c12.54-5 36.78-16 58.24-32.92 41.73-32.85 61.99-75.76 58.6-124.11zM822.451 874.13a212.661 212.661 0 01-51 29.49 15.255 15.255 0 01-10.53.33 212.032 212.032 0 01-52.7-26.29c-38.68-27-58.1-62.41-57.72-105.08V772c-.05-5.41.85-32.83 23.77-50.45a57.174 57.174 0 0153.6-8.55c10.61 3.71 18.88 9.9 24.56 18.41l.16.27a8.917 8.917 0 005.86 4.74h.32l.54.1a9.07 9.07 0 0010-5.49l.16-.32c5.14-8.76 13-15.4 23.31-19.74a57.235 57.235 0 0154 5.22c25.74 17.4 26.82 47.68 26.85 49v.63c2.98 42.51-14.22 78.95-51.18 108.31zm301.149-9.26a212.562 212.562 0 01-51 29.48 15.137 15.137 0 01-10.51.34 212.04 212.04 0 01-52.18-25.88c-39.099-27.1-58.709-62.55-58.279-105.4v-.56c0-5.41.86-32.83 23.78-50.47a57.16 57.16 0 0153.579-8.57c10.59 3.69 18.83 9.84 24.52 18.3l.17.3a8.992 8.992 0 003.81 4 9.04 9.04 0 004.91 1.09h.68a9.016 9.016 0 004.37-1.73 9.088 9.088 0 002.94-3.79l.15-.31c5.16-8.79 13-15.45 23.36-19.79a57.225 57.225 0 0154 5.22c25.07 16.95 26.75 45.77 26.86 49v.64c3.02 42.4-14.18 78.77-51.16 108.13z" fill="#000"/></g><defs><clipPath id="prefix__clip0_53_26521"><path fill="#fff" d="M0 0h1500v1500H0z"/></clipPath></defs>
      <g clip-path="url(#prefix__clip0_53_24913)"><path d="M1189.38 568.001a10.407 10.407 0 00-1.98 4.502c-.29 1.637-.18 3.32.31 4.908 23.49 64.7-16.84 79.42-16.84 79.42-17.85 7.34-31.27 2.64-38.16-1.24a10.512 10.512 0 00-10.62.13c-27.22 16.44-55.56 1.29-67.16-6.55a10.383 10.383 0 00-5.55-1.766c-1.98-.048-3.93.471-5.63 1.496-32.85 19.84-57.26 6.36-67.67-1.92a10.53 10.53 0 00-12.05-.74c-32.52 19.74-59.81 4.64-71.37-4.09a10.489 10.489 0 00-12.37-.12c-29.69 20.81-53.63 8.37-64.18.37a10.491 10.491 0 00-12.34-.11c-31.71 22.15-63.62 7.45-76.9-.71a10.489 10.489 0 00-12.24 1c-26.85 22.5-57.29 17.5-70 14a10.467 10.467 0 00-10.48 3c-26.07 28-51.91 28.25-64.16 26.29a10.378 10.378 0 00-10.64 4.9c-13.53 23.17-40.52 28.09-53.48 29.09a10.497 10.497 0 00-9 6.76c-8 20.93-37.11 30.28-49 33.28a10.468 10.468 0 00-7 5.94c-17.51 39.88-52 34.16-62.87 31.16a10.712 10.712 0 00-6.8.41c-42.71 17.18-53-18.53-55.42-33.83a10.568 10.568 0 00-2.349-5.128 10.569 10.569 0 00-4.651-3.192c-27.18-9.49-21.71-33-16.44-45.55a10.549 10.549 0 00-3.85-12.84c-26.85-18.17-18.73-43.06-12.5-55a10.38 10.38 0 00-2.09-12.3c-25.49-24.15-8.28-49.19.52-59a10.5 10.5 0 002.447-4.886 10.497 10.497 0 00-.337-5.454c-15-45.36-1.2-75 15.37-79.67a10.443 10.443 0 007.38-12.32c-7.9-34.74 18.12-56.24 33.22-60.1a10.48 10.48 0 007.94-10.14c-.26-44.36 39.11-48.82 56.69-48.6a10.425 10.425 0 0010.17-7.49c12.15-42.17 52.24-42.15 69.95-39.93a10.474 10.474 0 0011.09-6.75c13.32-35.63 45.83-32.24 60.79-28.51a10.459 10.459 0 0011.42-4.63c17.35-27.85 54-24.3 69.76-21.25a10.517 10.517 0 0011.05-5c23.28-39.29 62.4-25.7 78.15-18a10.44 10.44 0 0012-2.15c26.1-26.84 58.88-15.61 70.88-6.86 3.76 2.74 8.3 1.63 12.56-.24 53.29-23.45 63.52 11.41 75.49 22.41a10.523 10.523 0 005.442 2.625 10.52 10.52 0 005.988-.805c55.13-24.44 66 11.82 74.17 24.56a10.345 10.345 0 009.07 4.74c15-.51 59.53-12.4 68.82 36 .91 4.74 4.13 8.67 8.9 9.44 14.88 2.39 46.89 9.68 48.24 42.63.1 2.113.84 4.145 2.12 5.833a10.5 10.5 0 005.03 3.627c14 4.78 50 32.66 36.09 66.63a10.34 10.34 0 00-.34 6.767c.65 2.23 2.02 4.178 3.91 5.533 12.36 8.92 34.63 30 17.61 57.42a10.446 10.446 0 00-1.36 7.364 10.437 10.437 0 003.91 6.386c12.51 9.74 32.24 31.07 11.34 58.25z" fill="#F56CDB" stroke="#000" stroke-width="20" stroke-miterlimit="10"/><path d="M486 316c8-7.2 6.333-12.333 4.5-14l-8.501-4c-14.833 2.5-44.699 7.7-45.499 8.5-.8.8-18.333 16.333-27 24l-16 19-28 5.5-22 32c-14 15.333-42 46.3-42 47.5 0 1.2-2.667 24.833-4 36.5l-25 26 4 61.5-13 29.5 7.5 39v32l19.5 43 2.5 42c7.333 7.5 23.9 25.4 31.5 37 9.5 14.5 10 12.5 54.5 16 35.6 2.8 57.167-19.167 63.5-30.5l59-43.5 42.5-17c6-6.167 23.9-19.2 47.5-22 23.6-2.8 32.5-20.167 34-28.5-37.919 25.554-65.646 17.812-74.217 5.341-2.881-4.193-6.633-8.688-11.588-9.84-33.654-7.826-40.534-35.863-37.426-55.162.893-5.544-1.656-11.452-6.538-14.227-31.884-18.125-23.086-50.549-11.002-71.318 2.878-4.947 1.684-11.403-2.66-15.13-25.625-21.988-18.853-46.575-7.959-61.497 3.633-4.976 3.422-12.186-.233-17.146-12.486-16.942-4.409-34.241 5.626-45.608 4.207-4.766 4.255-12.311 1.134-17.849-7.877-13.978-2.731-29.779 5.363-37.064z" fill="#001647" fill-opacity=".2"/><path d="M1189.38 568.001a10.407 10.407 0 00-1.98 4.502c-.29 1.637-.18 3.32.31 4.908 23.49 64.7-16.84 79.42-16.84 79.42-17.85 7.34-31.27 2.64-38.16-1.24a10.512 10.512 0 00-10.62.13c-27.22 16.44-55.56 1.29-67.16-6.55a10.383 10.383 0 00-5.55-1.766c-1.98-.048-3.93.471-5.63 1.496-32.85 19.84-57.26 6.36-67.67-1.92a10.53 10.53 0 00-12.05-.74c-32.52 19.74-59.81 4.64-71.37-4.09a10.489 10.489 0 00-12.37-.12c-29.69 20.81-53.63 8.37-64.18.37a10.491 10.491 0 00-12.34-.11c-31.71 22.15-63.62 7.45-76.9-.71a10.489 10.489 0 00-12.24 1c-26.85 22.5-57.29 17.5-70 14a10.467 10.467 0 00-10.48 3c-26.07 28-51.91 28.25-64.16 26.29a10.378 10.378 0 00-10.64 4.9c-13.53 23.17-40.52 28.09-53.48 29.09a10.497 10.497 0 00-9 6.76c-8 20.93-37.11 30.28-49 33.28a10.468 10.468 0 00-7 5.94c-17.51 39.88-52 34.16-62.87 31.16a10.712 10.712 0 00-6.8.41c-42.71 17.18-53-18.53-55.42-33.83a10.568 10.568 0 00-2.349-5.128 10.569 10.569 0 00-4.651-3.192c-27.18-9.49-21.71-33-16.44-45.55a10.549 10.549 0 00-3.85-12.84c-26.85-18.17-18.73-43.06-12.5-55a10.38 10.38 0 00-2.09-12.3c-25.49-24.15-8.28-49.19.52-59a10.5 10.5 0 002.447-4.886 10.497 10.497 0 00-.337-5.454c-15-45.36-1.2-75 15.37-79.67a10.443 10.443 0 007.38-12.32c-7.9-34.74 18.12-56.24 33.22-60.1a10.48 10.48 0 007.94-10.14c-.26-44.36 39.11-48.82 56.69-48.6a10.425 10.425 0 0010.17-7.49c12.15-42.17 52.24-42.15 69.95-39.93a10.474 10.474 0 0011.09-6.75c13.32-35.63 45.83-32.24 60.79-28.51a10.459 10.459 0 0011.42-4.63c17.35-27.85 54-24.3 69.76-21.25a10.517 10.517 0 0011.05-5c23.28-39.29 62.4-25.7 78.15-18a10.44 10.44 0 0012-2.15c26.1-26.84 58.88-15.61 70.88-6.86 3.76 2.74 8.3 1.63 12.56-.24 53.29-23.45 63.52 11.41 75.49 22.41a10.523 10.523 0 005.442 2.625 10.52 10.52 0 005.988-.805c55.13-24.44 66 11.82 74.17 24.56a10.345 10.345 0 009.07 4.74c15-.51 59.53-12.4 68.82 36 .91 4.74 4.13 8.67 8.9 9.44 14.88 2.39 46.89 9.68 48.24 42.63.1 2.113.84 4.145 2.12 5.833a10.5 10.5 0 005.03 3.627c14 4.78 50 32.66 36.09 66.63a10.34 10.34 0 00-.34 6.767c.65 2.23 2.02 4.178 3.91 5.533 12.36 8.92 34.63 30 17.61 57.42a10.446 10.446 0 00-1.36 7.364 10.437 10.437 0 003.91 6.386c12.51 9.74 32.24 31.07 11.34 58.25z" stroke="#000" stroke-width="20" stroke-miterlimit="10"/></g><defs><clipPath id="prefix__clip0_53_24913"><path fill="#fff" d="M0 0h1500v1500H0z"/></clipPath></defs>
      
    </g>
    </svg>