<svg
      xmlns="http://www.w3.org/2000/svg"
      preserveAspectRatio="xMidYMin meet"
      fill="none"
      viewBox="0 0 1500 1500"
    >
      <g>
      <path fill="url(#prefix__paint0_linear_53_28788)" d="M0 0h1500v1500H0z"/><defs><linearGradient id="prefix__paint0_linear_53_28788" x1="0" y1="0" x2="1500" y2="1500" gradientUnits="userSpaceOnUse"><stop stop-color="#DBE4E4"/><stop offset="1" stop-color="#A7BDBD"/></linearGradient></defs>
      <g clip-path="url(#prefix__clip0_53_28406)"><path d="M1263 1500H289.33l3.73-66.49 19.17-107.35L354 1197l57.62-67.7s34.7-23.67 99.38-51.8c64.68-28.13 246.37-32.16 246.37-32.16s164.97-8.43 318.13 51.16C1228.66 1156.09 1263 1500 1263 1500z" fill="#FF6247"/><path d="M466 1099s-.52 38.21 72.47 75.64 99.8 45.62 99.8 45.62 74.66 17.52 117.89 17.09c43.23-.43 122-9.29 122-9.29s82.32-21.7 109.62-40.47c27.3-18.77 99.72-76.09 99.72-76.09s-88.501-61-209.34-61c0 0-94.191-15.43-209.661 0s-140 25.5-140 25.5l-28 9s-23.389-.21-34.499 14z" fill="#fff"/><path d="M502.047 1215.45c-101.2 100-117.833 249-113.5 311l-99.501-13c-1.6-110.8 39-247.5 59.5-302l39.501-52.5 15.5-20.5 66.5-42.5c149.6-59.6 294-54.83 347.5-45-54.857 11.46-176.664 51.87-274.047 128.14 21.333 10.79 72.7 34.67 107.5 43.91 34.8 9.24 144.833 15.18 195.5 17-134.4 46-275.333-6.91-329-39.11a452.112 452.112 0 00-15.453 14.56z" fill="#001647" fill-opacity=".2"/><path d="M457 1103s81.38 134.36 319.15 134.36C1013.92 1237.36 1087 1109 1087 1109m-570-30c38.5 44.5 125.7 97.6 286.5 90 160.8-7.6 212-62.83 217-89.5M496.359 1145.43l50.11-36.14M578.51 1198.9l32.58-56.52M687.039 1230.64l11.64-66M809.939 1236.42l-3.41-64.42M927.521 1215.06l-28.97-59.27M1030.14 1155.88l-35.54-43.82" stroke="#000" stroke-width="20" stroke-miterlimit="10"/><path d="M289.5 1512.5c-6-101.5 31-323.03 140.5-398 158.5-108.51 616.5-87 706.5 26 64.91 81.5 99.5 222.5 132.5 371M1084.5 1337c12.33 37 29.5 110.3 43.5 175.5m-646.5 0c.333-32.83 7.7-107.6 20.5-157" stroke="#000" stroke-width="20" stroke-linecap="round"/></g><defs><clipPath id="prefix__clip0_53_28406"><path fill="#fff" d="M0 0h1500v1500H0z"/></clipPath></defs>
      <g clip-path="url(#prefix__clip0_299_662)"><path d="M775 1185c231.41 0 419-168.12 419-375.5 0-207.383-187.59-375.5-419-375.5-231.407 0-419 168.117-419 375.5 0 207.38 187.593 375.5 419 375.5z" fill="#ABF"/><path d="M457.5 796c7.6 194 131.833 327.5 193 370l-130-55.5L438 1034l-57.5-89.5-27-106 11-104L394 662l45-82.5 83.5-69.5 109-54.182 28.5-1C569.452 513.314 451.119 633.132 457.5 796z" fill="#001647" fill-opacity=".2"/><path d="M775 1185c231.41 0 419-168.12 419-375.5 0-207.383-187.59-375.5-419-375.5-231.407 0-419 168.117-419 375.5 0 207.38 187.593 375.5 419 375.5z" stroke="#000" stroke-width="20"/></g><defs><clipPath id="prefix__clip0_299_662"><path fill="#fff" d="M0 0h1500v1500H0z"/></clipPath></defs>
      <g clip-path="url(#prefix__clip0_53_29315)"><path d="M764.05 841.24c31.336 0 56.74-25.404 56.74-56.74 0-31.337-25.404-56.74-56.74-56.74-31.337 0-56.74 25.403-56.74 56.74 0 31.336 25.403 56.74 56.74 56.74zM1048.19 841.24c31.34 0 56.74-25.404 56.74-56.74 0-31.337-25.4-56.74-56.74-56.74-31.34 0-56.74 25.403-56.74 56.74 0 31.336 25.4 56.74 56.74 56.74z" fill="#fff" stroke="#000" stroke-width="20" stroke-miterlimit="10"/><path d="M787.05 797.5c7.18 0 13-5.82 13-13s-5.82-13-13-13-13 5.82-13 13 5.82 13 13 13zM1071.19 797.5c7.18 0 13-5.82 13-13s-5.82-13-13-13-13 5.82-13 13 5.82 13 13 13z" fill="#000"/><path d="M1000.1 1063.55H831.28a5.495 5.495 0 01-5.5-5.5 89.318 89.318 0 0189.32-89.319h1.18a89.316 89.316 0 0163.158 26.161 89.312 89.312 0 0126.162 63.158c0 1.46-.58 2.86-1.61 3.89a5.503 5.503 0 01-3.89 1.61z" fill="#fff" stroke="#000" stroke-width="20" stroke-miterlimit="10"/></g><defs><clipPath id="prefix__clip0_53_29315"><path fill="#fff" d="M0 0h1500v1500H0z"/></clipPath></defs>
      <g clip-path="url(#prefix__clip0_53_26381)"><path d="M782.161 900.399a109.43 109.43 0 10.015-218.86 109.43 109.43 0 00-.015 218.86z" fill="#3A3A3A"/><path d="M686.995 740.005l34.151-44.094 126.928 188.178L788 903 686.995 740.005zM743.336 695.507l16.58-11.184 114.06 169.1-16.58 11.184z" fill="#fff" fill-opacity=".7"/><path d="M1079.07 895.077a109.42 109.42 0 0073.49-28.343 109.413 109.413 0 0035.42-70.355 109.405 109.405 0 00-21-75.915 109.438 109.438 0 00-144.16-28.68 109.435 109.435 0 00-42.666 140.649 109.423 109.423 0 0098.916 62.644z" fill="#3A3A3A"/><path d="M983.905 734.682l34.155-44.094 126.92 188.178-60.07 18.911-101.005-162.995zM1040.25 690.184L1056.83 679l114.06 169.1-16.58 11.184z" fill="#fff" fill-opacity=".7"/><path d="M1077.58 899.4c25.32-.01 49.85-8.799 69.41-24.869a109.412 109.412 0 0037.88-63.261 109.452 109.452 0 00-10.85-72.932 109.435 109.435 0 00-128.31-53.068 109.433 109.433 0 00-77.071 115.495 109.427 109.427 0 0031.571 66.635 109.447 109.447 0 0077.37 32v0zM782.161 899.399a109.43 109.43 0 10.015-218.86 109.43 109.43 0 00-.015 218.86zM671 790.5l-294-96.359M891.578 790h76.58" stroke="#000" stroke-width="20" stroke-miterlimit="10"/></g><defs><clipPath id="prefix__clip0_53_26381"><path fill="#fff" d="M0 0h1500v1500H0z"/></clipPath></defs>
      <g clip-path="url(#prefix__clip0_53_25708)"><path d="M500.535 506.546l-86.766 95.707-7.523 25.92-16.551-12.96-123.378 40.875-14.043 29.908 38.117 21.434-11.034 19.939-6.019 32.899 69.213 2.493 20.563-6.979v-23.428l137.421-35.89 281.864-43.866 203.123-20.437 163.498 6.48-33.6-56.826-44.64-50.844-54.16-42.37-85.264-40.376-123.88-18.942L652 439.751l-151.465 66.795z" fill="#99C4CB"/><path d="M694 440.501c-103.2 71.6-160.666 198.166-176.5 252.5L370 722.5l-9.5 37.5-89-3.5 41-55c-25.333 4.833-73.8 8.7-65-14.5 8.8-23.2 106.334-58 154-72.5 21.167-27.666 81.2-92.799 152-131.999 70.8-39.2 123.167-44.334 140.5-42z" fill="#001647" fill-opacity=".2"/><path d="M365.792 728.466c72.883-19.54 500.224-129.064 779.298-89.346a6.808 6.808 0 006.69-2.99 6.798 6.798 0 001.14-3.625 6.771 6.771 0 00-1.01-3.663c-30.29-49.757-159.878-231.859-425.302-199.957-291.002 34.953-357.366 241.26-369.322 291.436a6.753 6.753 0 00.09 3.482 6.788 6.788 0 001.815 2.979 6.887 6.887 0 006.55 1.675l.051.009z" stroke="#000" stroke-width="20" stroke-miterlimit="10" stroke-linecap="round"/><path d="M383.466 645.541s-81.54 45.161-109.476 97.86a10.079 10.079 0 00-1.194 4.686 10.226 10.226 0 001.124 4.705 10.135 10.135 0 003.2 3.649 10.065 10.065 0 004.524 1.765c15.417 1.993 52.882 5.981 78.46 1.565l6.019-31.902" stroke="#000" stroke-width="20" stroke-miterlimit="10" stroke-linecap="round"/><path d="M397.098 616.6s-103.267 16.948-146.53 61.012a10.112 10.112 0 00-2.378 3.824 10.068 10.068 0 001.04 8.705 10.143 10.143 0 003.214 3.163 81.474 81.474 0 0051.307 11.744" stroke="#000" stroke-width="20" stroke-miterlimit="10" stroke-linecap="round"/></g><defs><clipPath id="prefix__clip0_53_25708"><path fill="#fff" d="M0 0h1500v1500H0z"/></clipPath></defs>
      
    </g>
    </svg>