<svg
      xmlns="http://www.w3.org/2000/svg"
      preserveAspectRatio="xMidYMin meet"
      fill="none"
      viewBox="0 0 1500 1500"
    >
      <g>
      <path fill="url(#prefix__a1)" d="M0 0h1500v1500H0z"/><defs><linearGradient id="prefix__a1" x1="0" y1="0" x2="1500" y2="1500" gradientUnits="userSpaceOnUse"><stop stop-color="#57ECFF"/><stop offset="1" stop-color="#4E41EE"/></linearGradient></defs>
      <g clip-path="url(#prefix__clip0_53_28027)"><path d="M1263.01 1499.96H289.359l3.73-66.49 19.17-110.35 44.75-122.16 57.62-74.7s8.91-6.18 25.4-15.74l.69-.4c2.23-1.28 4.59-2.63 7.08-4 5.32-3 11.25-6.21 17.74-9.61 8.63-4.53 18.26-9.36 28.83-14.36a846.463 846.463 0 0123.12-10.48C582.179 1043.54 729.5 1044 729.5 1044s172.289-4.59 321.76 45.2l2.09.7.4.14c6.27 2.12 12.47 4.37 18.62 6.75l.8.31c153.18 59.64 189.84 402.86 189.84 402.86z" fill="#fff"/><path d="M1122.49 1500.15H481.749v-.15l14.26-99.61 5.49-43.36 5.83-46.12.08-.62s0-.35-.05-1c-.34-6.9-2.63-47.85-11.23-88.85-5.76-27.45-21.34-61.93-34-79.23a64.05 64.05 0 01-7.18-5.52c-4.61-4.06-10-10-11.26-16.21-.141-.66-.231-1.33-.27-2-.25-3.92 1.24-7.92 5.6-11.65 3-2.6 7.42-5.06 13.57-7.29 13.54-4.91 34.74-21.75 49.37-14.95 16.54-.44 17.92-6.23 17.92-6.23s51.48-42.92 103.31-21.86c9.67 3.93 132.501-14.64 143.811-11 43.185 13.79 85.69 9.59 131 11 0 0 7 13.96 52.02 6.72h.1c2.2-.35 4.22-.69 6-1l1.71-1 20.17 1.28 50.37 24.43 10.37-.86c4.11.15 15.08 6.54 18.38 9 3.77 2.73.59 16.3 2.92 24a58.808 58.808 0 012.29 16.68c.34 34.95-5.11 82.86-5.51 86.42v.76l3.43 56.54v.27l14 60.42 12.76 55 25.34 105.67.14.32z" fill="#3A3A3A"/><path d="M931.729 1453.59l-250.3 15.73-6.24 30.61 272.54.12-16-46.46z" fill="#3A3A3A"/><path d="M978.109 1248.18c.567 1.23 1.153 2.51 1.543 3.79.16.53 1.048 4.34 1.533 6.43.1.4.316.77.621 1.05.306.28.687.46 1.097.53l2.865.42c.208.03.403.12.565.26.161.13.284.31.354.5l.651 1.88c.283.81 1.091 1.4 1.927 1.4l21.725-.02c.82 0 1.44-.57 1.5-1.36l.13-1.93c.01-.18.09-.35.22-.49.12-.13.29-.21.47-.23l3.34-.5c.8-.12 1.32-.79 1.25-1.61-.19-2.16-.54-6.08-.54-6.62-.01-1.27.17-2.52.35-3.74.26-1.71.52-3.47.24-5.3-1.76-11.7-12.56-21.22-24.088-21.22-11.522 0-19.463 9.52-17.701 21.23.289 1.92 1.132 3.75 1.948 5.53zm22.341-1.08c-.37-3.33 2.51-4.16 5.88-4.03 3.37.13 5.96 1.18 6.32 4.51.37 3.32-2.06 5.91-5.43 5.78-3.38-.13-6.4-2.94-6.77-6.26zm-.988 6.52l2.658 3.2c.11.13.19.28.23.45.04.17.03.34-.02.51l-.21.64c-.06.16-.17.3-.31.39-.14.1-.31.15-.48.14h-3.728a1.05 1.05 0 01-.544-.15 1.095 1.095 0 01-.408-.38l-.409-.64a.955.955 0 01-.074-.96l1.693-3.2c.297-.56 1.133-.56 1.602 0zm-11.55-10.55c3.329-.13 6.459.71 7.092 4.03.632 3.33-1.554 6.13-4.882 6.26-3.329.13-6.543-2.46-7.176-5.78-.632-3.33 1.635-4.38 4.966-4.52v.01zM1020.65 1218.36c.02-1.59-.72-3.27-2.14-4.5-2.28-1.96-5.53-2-7.27-.08-1.82 2.01-1.35 5.35 1.02 7.4l-1.61 1.88c-.64.75-.46 1.97.41 2.72l3.72 3.21c.87.75 2.1.75 2.74 0l1.61-1.88c2.37 2.05 5.73 2.02 7.44-.09 1.63-2.01 1.11-5.23-1.17-7.21-1.41-1.23-3.19-1.71-4.75-1.45zM970.488 1227.11l2.184 1.88c.868.75 2.098.75 2.742 0l2.75-3.21c.645-.75.462-1.97-.41-2.72l-2.178-1.88c1.754-2.05 1.223-5.39-1.202-7.4-2.319-1.92-5.557-1.88-7.249.08-1.054 1.23-1.288 2.91-.788 4.5-1.639-.26-3.265.22-4.311 1.45-1.682 1.98-1.234 5.2 1.005 7.21 2.336 2.11 5.702 2.14 7.457.09zM1031.98 1262.98c-2.35-2.1-5.71-2.13-7.47-.09l-2.17-1.88c-.87-.75-2.1-.75-2.75 0l-2.75 3.21c-.64.76-.46 1.97.41 2.73l2.18 1.87c-1.75 2.05-1.22 5.39 1.2 7.4 2.32 1.92 5.56 1.88 7.25-.08 1.06-1.22 1.29-2.91.79-4.5 1.64.26 3.27-.22 4.31-1.45 1.68-1.98 1.24-5.2-1-7.21zM974.348 1271.64c-.021 1.59.72 3.28 2.141 4.5 2.279 1.96 5.533 2 7.269.08 1.82-2.01 1.348-5.35-1.023-7.4l1.612-1.88c.645-.75.461-1.97-.409-2.72l-3.716-3.21c-.868-.75-2.099-.75-2.743 0l-1.612 1.88c-2.37-2.05-5.727-2.02-7.435.09-1.633 2.02-1.112 5.23 1.163 7.21 1.421 1.23 3.192 1.71 4.753 1.45z" fill="#fff"/><path d="M921.73 1406.5l-250.3 15.72v48.46l260.3-16.36-10-47.82z" fill="#FF6247"/><path d="M911.73 1357.94l-233.3 14.66v48.45l243.3-15.28-10-47.83z" fill="#3A3A3A"/><path d="M913.73 1309.82l-242.3 15.22v48.46l242.3-15.23v-48.45z" fill="#FF6247"/><path d="M921.73 1260.4l-256.3 16.1 8 47.96 241.3-15.16 7-48.9z" fill="#3A3A3A"/><path d="M931.73 1211.32l-276.3 17.8 12 47.7 254.3-16.42 10-49.08z" fill="#FF6247"/><path d="M654.5 1228.73l-20.35-61.3 38.49 11.35L750 1191.1l64.93-4.18 53.32-8.14 76.6-19.51-20.64 52.52-269.71 16.94z" fill="#3A3A3A"/><path d="M511.761 1366.3c0 .32 0 .66-.05 1-.22 2.89-14 61.77-19 132.69h-20v-.69a924.796 924.796 0 0119.51-134.6c.57-2.4 2.01-4.51 4.04-5.92a10.042 10.042 0 017.96-1.51c1.105.24 2.181.61 3.21 1.08 3 1.4 4.44 3.71 4.33 7.95zM1132.01 1499.96h-20.2c-.55-2.72-1.65-8.14-3.2-15.47-.06-.29-.13-.59-.19-.89-2.91-13.76-7.3-33.87-12.44-55.38 0-.18-.09-.36-.13-.54-6.23-26-13.56-54-20.69-75.23a9.836 9.836 0 01-.1-6 9.963 9.963 0 012.34-4.07c1.1-1.14 2.45-2.01 3.95-2.53h.1l.39-.11c2.47-.72 5.13-.46 7.42.73 2.29 1.2 4.02 3.23 4.85 5.67 18.25 54.24 36.92 148 37.71 151.94.12.62.18 1.25.19 1.88z" fill="#000"/><path d="M1084.46 1348.82C1051.7 1240.08 1076 1102 1076 1102" stroke="#000" stroke-width="20" stroke-miterlimit="10" stroke-linecap="round"/><path d="M933.472 1507.03c1.675 5.27 7.299 8.17 12.562 6.5 5.263-1.68 8.17-7.3 6.495-12.56l-19.057 6.06zm19.057-6.06c-11.368-35.71-21.558-115.89-20.705-201.85.856-86.15 12.813-175.35 43.877-230.19l-17.402-9.86c-33.737 59.56-45.613 153.2-46.474 239.86-.862 86.86 9.347 169.47 21.647 208.1l19.057-6.06z" fill="#000"/><path d="M443.891 1118.21s87.82 94.18 57 252.68M669 1508.5c10.333-52.57 22.9-180.97-9.5-274s-116.167-142.43-148-157" stroke="#000" stroke-width="20" stroke-miterlimit="10" stroke-linecap="round"/><path d="M289.5 1512.5c-6-101.5 31-323.03 140.5-398 158.5-108.51 616.5-87 706.5 26 64.91 81.5 99.5 222.5 132.5 371" stroke="#000" stroke-width="20" stroke-linecap="round"/><path d="M500.002 1213.5c-101.2 100-117.834 249-113.5 311l-99.502-13c-1.6-110.8 39-247.5 59.5-302l39.501-52.5 15.5-20.5 66.5-42.5c149.6-59.6 294-54.83 347.5-45-63 13.17-214.299 64.5-315.499 164.5zM890.5 1321c-5.307-145.23 33.5-233.5 54-259.5h24l-24 50-18.5 111-4.5 137 16 137.5-2 93.5c-13.167-29.33-39-105.3-45-269.5z" fill="#001647" fill-opacity=".2"/></g><defs><clipPath id="prefix__clip0_53_28027"><path fill="#fff" d="M0 0h1500v1500H0z"/></clipPath></defs>
      <g clip-path="url(#prefix__clip0_299_662)"><path d="M775 1185c231.41 0 419-168.12 419-375.5 0-207.383-187.59-375.5-419-375.5-231.407 0-419 168.117-419 375.5 0 207.38 187.593 375.5 419 375.5z" fill="#ABF"/><path d="M457.5 796c7.6 194 131.833 327.5 193 370l-130-55.5L438 1034l-57.5-89.5-27-106 11-104L394 662l45-82.5 83.5-69.5 109-54.182 28.5-1C569.452 513.314 451.119 633.132 457.5 796z" fill="#001647" fill-opacity=".2"/><path d="M775 1185c231.41 0 419-168.12 419-375.5 0-207.383-187.59-375.5-419-375.5-231.407 0-419 168.117-419 375.5 0 207.38 187.593 375.5 419 375.5z" stroke="#000" stroke-width="20"/></g><defs><clipPath id="prefix__clip0_299_662"><path fill="#fff" d="M0 0h1500v1500H0z"/></clipPath></defs>
      <g clip-path="url(#prefix__clip0_53_29144)" stroke="#000" stroke-width="20" stroke-linecap="round"><path d="M844.63 1012.87h141.62M829.06 777.09l-31.89-.02-34.13-.03-43.3-.04"/><path d="M805.53 785.89A29.91 29.91 0 11763 777h34.13a29.774 29.774 0 018.4 8.89z" fill="#000"/><path d="M1081.06 777l-43.31.04-34.13.03-31.88.02"/><path d="M995.26 785.889a29.915 29.915 0 00-4.456 16.588 29.915 29.915 0 0018.886 26.947 29.916 29.916 0 0017.11 1.473 29.872 29.872 0 0015.1-8.183 29.836 29.836 0 008.11-15.14 29.887 29.887 0 00-12.26-30.535h-34.13a29.957 29.957 0 00-8.36 8.85z" fill="#000"/></g><defs><clipPath id="prefix__clip0_53_29144"><path fill="#fff" d="M0 0h1500v1500H0z"/></clipPath></defs>
      <g clip-path="url(#prefix__clip0_53_27350)"><path d="M695 882.421v6.14a7.746 7.746 0 01-.67 3.22c-1.26 2.86-3.34 3-3.34 3a7.817 7.817 0 01-6.39-1.32c-2.64-2.11-9.24-20.21-9.24-20.21l-12.71 20.21H654l17.8-28.21-5.59-11.59a4.654 4.654 0 00-4.07-2.64H662a4.724 4.724 0 00-4.13 1.7c-.89.89-1.21 3.78-1.21 3.78l-1.78.13a22.972 22.972 0 01-.13-5.28 7.776 7.776 0 011.34-3.76 5.694 5.694 0 014.83-2.61 7.816 7.816 0 014.51 1.43 8.67 8.67 0 013 3.74l5.26 13.05 11.44-17.4H693l-15.8 24.51 3.94 9.32s3 9 7.31 9 4.71-6.22 4.71-6.22l1.84.01z" fill="#000"/></g><defs><clipPath id="prefix__clip0_53_27350"><path fill="#fff" d="M0 0h1500v1500H0z"/></clipPath></defs>
      <g clip-path="url(#prefix__clip0_53_25878)"><path d="M358.007 603.505l-35.094-66.474s14.559-77.798 61.586-98.155c47.284-20.477 100.011-44.032 100.011-44.032l125.765-51.621 140.978-44.655 107.015-13.297 60.517-11.761 64.444-1.319 68.311 2.442s-5.87-21.168 49.57 20.824c69.89 52.898 17.73 171.573 17.73 171.573l-26.67 15.714-149.833 58.17-143.667 36.011-218.556 28.191-189.255 2.917-32.852-4.528z" fill="#265CC2"/><path d="M358.054 602.428l16.232 48.253 17.081 19.493 202.9-8.586 240.32-27.99 238.913-72.436 49.06-27.654-15.41-53.759-218.011 75.678-113.521 23.596-195.413 25.08-222.151-1.675z" fill="#FFBF44"/><path d="M551.379 669.503s217.022 55.725 380.917 44.215c163.894-11.51 232.174-52.101 232.174-52.101s47.7-25.484 4.93-82.055c-42.77-56.571-75.09-35.68-75.09-35.68S967.095 605.161 760.635 646.12l-209.256 23.383z" fill="#265CC2"/><path d="M1020.05 452.516l-38.165-15.776-36.54 29.122a4.78 4.78 0 01-2.212.949 3.746 3.746 0 01-2.196-.338 3.108 3.108 0 01-1.45-1.509 3.621 3.621 0 01-.223-2.179l9.095-42.955-34.401-21.209a3.096 3.096 0 01-1.318-1.636 3.698 3.698 0 01-.043-2.218 4.697 4.697 0 011.232-2.046 4.776 4.776 0 012.084-1.188l43.437-10.699 14.949-42.171a4.956 4.956 0 011.453-1.84 4.85 4.85 0 012.14-.964 4.109 4.109 0 012.174.192c.649.256 1.2.708 1.577 1.291l17.986 36.335 43.641-4.8c.76-.09 1.52.053 2.19.409.63.355 1.12.912 1.39 1.578.27.707.32 1.481.13 2.214a4.58 4.58 0 01-1.17 2.084l-32.33 33.107 12.28 39.126c.21.733.19 1.512-.05 2.234a4.717 4.717 0 01-1.32 2.01c-.6.547-1.34.93-2.14 1.112-.75.177-1.53.13-2.25-.135l.05-.1z" fill="#FFBF44"/><path d="M599 600c-20-119.6 23.666-222.167 48-258.5-36 0-190.334 65.333-263 98-18.5 13.833-55.6 49.9-56 83.5-.4 33.6 21.833 69 33 82.5l20 58 65.5 7.5L576 659c-2-20-.834-40.667 0-48.5l23-10.5z" fill="#001647" fill-opacity=".2"/><path d="M1134.2 399.661a361.454 361.454 0 01-29.9 76.354c18.64 24.238 13.33 60.514 13.33 60.514-324.026 154.93-732.062 128.287-732.062 128.287-23.525-21.767-24.781-59.762-24.781-59.762-15.508-13.993-27.059-31.85-34.394-58.91-10.164-37.484 8.917-68.861 44.59-92.054 117.541-76.475 414.81-183.638 648.267-182.717 78.03.326 134.86 52.764 114.95 128.288zM360.837 606.128S773.303 641.122 1105 475.614" stroke="#000" stroke-width="20" stroke-miterlimit="10"/><path d="M523.543 665.942s307.957 94.558 630.907.949c39.05-11.32 43.66-53.188 21.17-79.902-16.44-19.591-36.73-39.413-57.57-49.481" stroke="#000" stroke-width="20" stroke-miterlimit="10"/></g><defs><clipPath id="prefix__clip0_53_25878"><path fill="#fff" d="M0 0h1500v1500H0z"/></clipPath></defs>
      
    </g>
    </svg>