<svg
      xmlns="http://www.w3.org/2000/svg"
      preserveAspectRatio="xMidYMin meet"
      fill="none"
      viewBox="0 0 1500 1500"
    >
      <g>
      <path fill="url(#prefix__paint0_linear_53_30460)" d="M0 0h1500v1500H0z"/><defs><linearGradient id="prefix__paint0_linear_53_30460" x1="0" y1="0" x2="1500" y2="1500" gradientUnits="userSpaceOnUse"><stop stop-color="#F1FFBA"/><stop offset="1" stop-color="#65DCBA"/></linearGradient></defs>
      <g clip-path="url(#prefix__clip0_53_27517)"><path d="M277.11 1500l-1.87-48.3 17.07-36.79 2.35-49.06 20.58-31.46 7.73-50.65s28.57-41.54 28.8-43.99c.23-2.46 17-51 19.67-51.84 2.67-.84 9.59-.67 14.94-5.13s14.72-11.81 15.61-15.82c.89-4-1.34-10.92 3.34-18.05 4.68-7.13 7.17-11.45 13.63-11 6.46.45 26.06-5.53 26.73-6.41.38-.5 7.57-13.72 13.59-24.83 4.26-7.85 33.62-15.64 41-10.63 61.72-1.98 116.11-18.31 272.72-21.54 195.15-4 275.17 19.56 275.17 19.56l31.29 7.23s19 25 19.9 26.85c.9 1.85 10.74 15.16 10.74 15.16s11.37.31 14.53.94c3.16.63 7.89-.63 9.16 4.11 1.27 4.74 7.89 16.74 8.84 23.68.95 6.95.63 13.58 6.32 16.74 5.69 3.16 15.47 3.47 25 6.63 9.53 3.16 11.37 7 12.95 10.42s4.1 19 4.74 22.74c.64 3.74 6.94 35.47 6.94 35.47l26.85 16.32s.95 27.8 0 32.85c-.95 5.04-4.11 9.15-1.58 16.73 2.53 7.58 7.27 17.37 11.37 21.48 4.1 4.11 8.53 5.37 10.42 11.05 1.89 5.68 4.74 10.42 4.11 20.21-.63 9.78-2.21 19.58-1.58 30.63.63 11.05 1.67 13.27 1.67 13.27l19.49 20.38s4.42 15.31 3.48 18.78c-.94 3.46-9.16 34.27-9.16 34.27H277.11z" fill="#9E6740"/><path d="M440 1295.5c-42 68.4-52.833 173.83-53 218H285.5c-4-1.67-12-12.2-12-41s15.333-41.33 23-44l-8-52.5c10.5-7.5 31.2-31 30-65-1.2-34 16.167-43.83 25-44.5l18-65.5c13-4.33 39.2-18.9 40-42.5.8-23.6 26-18.17 38.5-12.5l5.5-19 22-29 125.5-15.5h117.5c-150.8 58.8-224.833 139.5-243 172.5l57.5 2c-8.4 20.8-33.5 20.33-45 17.5-15.2 18.8-33 21.83-40 21zM693 1421.5c15.6-14.4 14.833-25.67 12.5-29.5l-19.5 19.5h-35l-37 17c-11.333-3-35-9.4-39-11-5-2-20 1-2 23.5s59 2.5 65-4.5 31 7.15 55-15zM773.5 1276.5c-6-10.4-.833-13.33 2.5-13.5l12.5 3 30.5 2.5 29-14 39-4.5c4.667-7.5 16-20.9 24-14.5 10 8-16 48-46.5 45s-29 11-47 14-36.5-5-44-18zM895.5 1449.5c-5.6-8.8 1-11.67 5-12l31 11 33-14 32-5c11-6.17 33.8-18.2 37-17 4 1.5 2.5 15-4 24.5s-16.5 19-43 14.5-24 14-45.5 19-38.5-10-45.5-21zM1230 1507c11.2-6.4 11.67-17.67 10.5-22.5l-20.5 4.5c-1.33 8.67-1.2 24.4 10 18zM1087 1276.5c-9.2-12.8-.17-15.67 5.5-15.5l20 13 33-10.5 43.5-4.5 14 15c-4.67 2.67-16.5 7.7-26.5 6.5-12.5-1.5-9-4-31 11.5s-47 .5-58.5-15.5z" fill="#001647" fill-opacity=".2"/><path d="M902 1235.61l-3.07 5.1a33.625 33.625 0 01-35.81 15.56l-1.55-.33a33.633 33.633 0 00-15.83.45 33.728 33.728 0 00-13.87 7.64v0a33.631 33.631 0 01-19.916 8.72 33.621 33.621 0 01-21.084-5.3l-7.09-4.59M1025.57 1409.68l-3.07 5.11c-3.6 6-8.99 10.72-15.41 13.51a33.575 33.575 0 01-20.39 2.05l-1.55-.33a33.619 33.619 0 00-29.7 8.1 33.624 33.624 0 01-19.916 8.71 33.616 33.616 0 01-21.084-5.29l-7.09-4.6M698 1391.05l-3.07 5.11a33.625 33.625 0 01-35.81 15.56l-1.55-.33a33.638 33.638 0 00-15.831.46 33.485 33.485 0 00-13.869 7.64 33.624 33.624 0 01-19.916 8.71 33.617 33.617 0 01-21.084-5.29l-7.08-4.6M531.83 1235.61l-3.07 5.1a33.64 33.64 0 01-35.76 15.56l-1.55-.33a33.633 33.633 0 00-15.83.45 33.716 33.716 0 00-13.87 7.64v0a33.624 33.624 0 01-19.916 8.71 33.617 33.617 0 01-21.084-5.29l-7.09-4.59M385.18 1409.68l-3.07 5.11a33.537 33.537 0 01-15.413 13.51 33.597 33.597 0 01-20.397 2.05l-1.55-.33a33.633 33.633 0 00-15.83.46 33.495 33.495 0 00-13.87 7.64v0a33.642 33.642 0 01-20.39 8.75M1185.91 1256.9c-4.59 1-4.76.39-9.56-.63l-1.55-.33a33.633 33.633 0 00-15.83.45 33.697 33.697 0 00-13.87 7.64v0a33.618 33.618 0 01-19.92 8.72c-7.42.62-14.83-1.25-21.08-5.3l-7.1-4.62" stroke="#000" stroke-width="20" stroke-miterlimit="10" stroke-linecap="round"/><path d="M1241.84 1486.32l-3.07 5.11c-1.83 3.05-4.03 6.86-6.55 9.37h-72.94c5.01-3.84 10.78-7.54 16.94-8.94a43.837 43.837 0 0118.7-.13l1.56.33c4.81 1.02 9.82.51 14.32-1.45 4.51-1.96 8.3-5.28 10.83-9.49l3.07-5.1c1.39-2.22 3.6-3.81 6.15-4.42a10.011 10.011 0 0112.01 7.22c.65 2.54.29 5.23-1.02 7.5z" fill="#000"/><path d="M281.5 1507c-4.833-16-14.829-54.4-4-63.5 12.5-10.5 26.5-19 18-47.5s4-40.5 14.5-48 13-25.5 7.5-42.5 6-33.5 20.5-38.5 16-28.5 15-37.5 0-34.5 22-35 23-25.5 24-33 8-25.5 27-19.5 22.5-14.5 24-22-.5-28 54-28 178.5-37 539.5 0c16 1.64 45.44 2.59 49.5 27 5.67 34.06 29.05 19.98 40 23.5 14 4.5 8.69 31.99 15 40.5 10 13.5 13.07 6.82 31 13.5 21.41 7.98-3.5 54 27 70 27.41 14.38 19.5 30.5 17 53s9 28 16 33.5 15.5 11.5 9 41.5-.79 31.71 15 47.5c18 18-1.5 32 1.5 65" stroke="#000" stroke-width="20"/><path d="M1084.5 1337c12.33 37 29.5 110.3 43.5 175.5m-646.5 0c.333-32.83 7.7-107.6 20.5-157" stroke="#000" stroke-width="20" stroke-linecap="round"/></g><defs><clipPath id="prefix__clip0_53_27517"><path fill="#fff" d="M0 0h1500v1500H0z"/></clipPath></defs>
      <g clip-path="url(#prefix__clip0_299_662)"><path d="M775 1185c231.41 0 419-168.12 419-375.5 0-207.383-187.59-375.5-419-375.5-231.407 0-419 168.117-419 375.5 0 207.38 187.593 375.5 419 375.5z" fill="#ABF"/><path d="M457.5 796c7.6 194 131.833 327.5 193 370l-130-55.5L438 1034l-57.5-89.5-27-106 11-104L394 662l45-82.5 83.5-69.5 109-54.182 28.5-1C569.452 513.314 451.119 633.132 457.5 796z" fill="#001647" fill-opacity=".2"/><path d="M775 1185c231.41 0 419-168.12 419-375.5 0-207.383-187.59-375.5-419-375.5-231.407 0-419 168.117-419 375.5 0 207.38 187.593 375.5 419 375.5z" stroke="#000" stroke-width="20"/></g><defs><clipPath id="prefix__clip0_299_662"><path fill="#fff" d="M0 0h1500v1500H0z"/></clipPath></defs>
      <g clip-path="url(#prefix__clip0_53_29421)"><path d="M914.5 1067.2a53.704 53.704 0 0049.612-33.15 53.7 53.7 0 00-39.136-73.217 53.701 53.701 0 00-55.126 22.834 53.696 53.696 0 00-4.962 50.383 53.569 53.569 0 0011.64 17.42 53.673 53.673 0 0017.422 11.64 53.676 53.676 0 0020.55 4.09z" fill="#fff" stroke="#000" stroke-width="20" stroke-miterlimit="10" stroke-linecap="round"/><path d="M764.05 841.24c31.336 0 56.74-25.404 56.74-56.74 0-31.337-25.404-56.74-56.74-56.74-31.337 0-56.74 25.403-56.74 56.74 0 31.336 25.403 56.74 56.74 56.74zM1048.19 841.24c31.34 0 56.74-25.404 56.74-56.74 0-31.337-25.4-56.74-56.74-56.74-31.34 0-56.74 25.403-56.74 56.74 0 31.336 25.4 56.74 56.74 56.74z" fill="#fff" stroke="#000" stroke-width="20" stroke-miterlimit="10"/><path d="M764.05 797.5c7.18 0 13-5.82 13-13s-5.82-13-13-13-13 5.82-13 13 5.82 13 13 13zM1048.19 797.5c7.18 0 13-5.82 13-13s-5.82-13-13-13-13 5.82-13 13 5.82 13 13 13z" fill="#000"/></g><defs><clipPath id="prefix__clip0_53_29421"><path fill="#fff" d="M0 0h1500v1500H0z"/></clipPath></defs>
      <g clip-path="url(#prefix__clip0_53_27350)"><path d="M695 882.421v6.14a7.746 7.746 0 01-.67 3.22c-1.26 2.86-3.34 3-3.34 3a7.817 7.817 0 01-6.39-1.32c-2.64-2.11-9.24-20.21-9.24-20.21l-12.71 20.21H654l17.8-28.21-5.59-11.59a4.654 4.654 0 00-4.07-2.64H662a4.724 4.724 0 00-4.13 1.7c-.89.89-1.21 3.78-1.21 3.78l-1.78.13a22.972 22.972 0 01-.13-5.28 7.776 7.776 0 011.34-3.76 5.694 5.694 0 014.83-2.61 7.816 7.816 0 014.51 1.43 8.67 8.67 0 013 3.74l5.26 13.05 11.44-17.4H693l-15.8 24.51 3.94 9.32s3 9 7.31 9 4.71-6.22 4.71-6.22l1.84.01z" fill="#000"/></g><defs><clipPath id="prefix__clip0_53_27350"><path fill="#fff" d="M0 0h1500v1500H0z"/></clipPath></defs>
      <g clip-path="url(#prefix__clip0_53_25760)"><path d="M661.719 466.272s.681-50.314 11.211-50.049c10.531.266 30.241-4.165 30.241-4.165l31.003 15.989 25.638-5.424 28.99-24.747 27.071-1.791 27.883 14.121 15.446 18.681 23.411.145 50.96-13.954 24.276 23.68-19.232 52.574-44.507-21.369-17.618-6.041-23.175-7.036-28.049-1.943-32.388-.112-55.638 3.68-50.45 8.949-25.073-1.188z" fill="#97A5DE"/><path d="M718.506 479.214s19.322 40.453 64.014 34.31c44.692-6.143 83.522-32.583 83.522-32.583l10.406-17.065-81.463-14.775-84.096 14.041s-8.664 11.898 7.617 16.072z" fill="#7985B4"/><path d="M662.843 469.488s-13.534-58.554 30.087-60.287c15.493-.614 25.434 4.992 32.226 12.21 13.894 14.755 29.392 7.707 38.346-2.386 11.842-13.391 27.482-26.021 44.854-27.17 20.226-1.338 34.215 14.393 42.889 29.474 6.094 10.621 21.799 13.651 33.204 6.683 11.953-7.315 28.35-12.9 48.081-8.683 42.964 9.245 6.064 69.091 6.064 69.091" stroke="#000" stroke-width="18.1" stroke-miterlimit="10" stroke-linecap="round"/><path d="M630.048 507.634S655.324 462.566 681.5 468c40.502 8.395 74.399 69.733 74.399 69.733M800.818 537.268s38.761-65.501 93.251-67.301c54.49-1.801 48.429 57.93 48.429 57.93M682 468s137.209-40.275 226.408 2.982M736.796 506.5s35.103 14.655 86.489 1.675" stroke="#000" stroke-width="20" stroke-miterlimit="10" stroke-linecap="round"/><path d="M705.351 553.292a15.47 15.47 0 00-6.12 14c2.61 23.14 14.52 81.46 68.22 76.42 66.85-6.24 82.55-96.07 82.55-96.07s27.42-113.45-68.81-217.34a3.755 3.755 0 00-4.177-.932 3.76 3.76 0 00-2.343 3.582c.94 37.05-.73 168.17-69.32 220.34zM956.381 560.231a15.453 15.453 0 00-4.61 14.58c5 22.73 23 79.48 75.869 68.83 65.82-13.26 72-104.23 72-104.23s13.83-124-91.45-209.53a3.735 3.735 0 00-2.04-.831 3.76 3.76 0 00-2.16.461c-.66.366-1.19.922-1.52 1.594a3.726 3.726 0 00-.37 2.176c4.77 35.98 17.32 167.56-45.719 226.95z" fill="#FF6247" stroke="#000" stroke-width="20" stroke-miterlimit="10"/><path d="M756.5 578.5c-4 44.8 21.667 53.333 35 52l-17 14-39.5-9-27-27-8.5-44.5 47.5-63 21-70.5 14-87c16.333 14.5 44.4 55.4 26 103-23 59.5-46.5 76-51.5 132zM1041.5 482.5c14-61.2-3.5-109.167-14-125.5l-4-13.5-15-11v106l-15.5 70-38.5 55.5c1.667 16.167 13.2 53.8 46 75 32.8 21.2 62.67-6.5 73.5-23-15.95 17.5-49.5 21.5-57.5-18.5-9.74-48.685 10.59-52 25-115z" fill="#001647" fill-opacity=".2"/><path d="M705.351 553.292a15.47 15.47 0 00-6.12 14c2.61 23.14 14.52 81.46 68.22 76.42 66.85-6.24 82.55-96.07 82.55-96.07s27.42-113.45-68.81-217.34a3.755 3.755 0 00-4.177-.932 3.76 3.76 0 00-2.343 3.582c.94 37.05-.73 168.17-69.32 220.34zM956.381 560.231a15.458 15.458 0 00-4.61 14.58c5 22.73 23 79.48 75.869 68.83 65.82-13.26 72-104.23 72-104.23s13.83-124-91.45-209.53a3.735 3.735 0 00-2.04-.831 3.76 3.76 0 00-2.16.461c-.66.366-1.19.922-1.52 1.594a3.726 3.726 0 00-.37 2.176c4.77 35.98 17.32 167.56-45.719 226.95z" stroke="#000" stroke-width="20" stroke-miterlimit="10"/></g><defs><clipPath id="prefix__clip0_53_25760"><path fill="#fff" d="M0 0h1500v1500H0z"/></clipPath></defs>
      
    </g>
    </svg>