<svg
      xmlns="http://www.w3.org/2000/svg"
      preserveAspectRatio="xMidYMin meet"
      fill="none"
      viewBox="0 0 1500 1500"
    >
      <g>
      <path fill="url(#prefix__paint0_linear_53_30460)" d="M0 0h1500v1500H0z"/><defs><linearGradient id="prefix__paint0_linear_53_30460" x1="0" y1="0" x2="1500" y2="1500" gradientUnits="userSpaceOnUse"><stop stop-color="#F1FFBA"/><stop offset="1" stop-color="#65DCBA"/></linearGradient></defs>
      <g clip-path="url(#prefix__clip0_53_28693)"><path d="M1108.09 1432.16l14.41 71.69h142.41l-32.7-113.79-124.12 42.1zM288.689 1505.57l13.36-113.94 184.06 50.77-2.67 63.17h-194.75z" fill="#ABF"/><path d="M303.471 1382.79L325 1260l56-105.5s64.91-55.22 110.5-71c0 0 87.12-38.32 292.5-41 205.38-2.68 276 52.5 276 52.5l58.65 30.23 39.22 52.98 39.13 78.97 38.22 131.86-127.13 39.32 14.41 72.47-643.659 1.15 7.27-66.62-182.64-52.57z" fill="#A760FF"/><path d="M500.002 1213.5c-101.2 100-117.834 249-113.5 311l-99.502-13c-1.6-110.8 39-247.5 59.5-302l39.501-52.5 15.5-20.5 66.5-42.5c149.6-59.6 294-54.83 347.5-45-63 13.17-214.299 64.5-315.499 164.5z" fill="#001647" fill-opacity=".2"/><path d="M942.58 1333.82L867.34 1275l4.68 40.3h-90l4.29 36.89h90l4.68 40.3 61.59-58.67zm-205.16 55.26l-4.68-40.3L671 1407.6l75.38 58.64-4.66-40.13h90l-4.3-37.05-90 .02z" fill="#fff"/><path d="M289.5 1512.5c-1.965-33.24.683-79.37 8.981-129m970.519 128c-9.49-42.7-19.11-84.78-29.54-125M1084.5 1337c7.13 21.39 15.88 54.92 24.69 92m18.81 83.5c-5.91-27.5-12.37-56.45-18.81-83.5m-627.69 83.5c.172-16.93 2.213-45 5.905-75m14.595-82c-6.201 23.93-11.126 53.81-14.595 82m-188.924-54c17.035-101.9 57.885-218.59 131.519-269 158.5-108.51 616.5-87 706.5 26 46.24 58.07 77.1 146.33 102.96 246m-940.979-3l188.924 54m621.785-8.5l130.27-42.5" stroke="#000" stroke-width="20" stroke-linecap="round"/></g><defs><clipPath id="prefix__clip0_53_28693"><path fill="#fff" d="M0 0h1500v1500H0z"/></clipPath></defs>
      <g clip-path="url(#prefix__clip0_299_662)"><path d="M775 1185c231.41 0 419-168.12 419-375.5 0-207.383-187.59-375.5-419-375.5-231.407 0-419 168.117-419 375.5 0 207.38 187.593 375.5 419 375.5z" fill="#ABF"/><path d="M457.5 796c7.6 194 131.833 327.5 193 370l-130-55.5L438 1034l-57.5-89.5-27-106 11-104L394 662l45-82.5 83.5-69.5 109-54.182 28.5-1C569.452 513.314 451.119 633.132 457.5 796z" fill="#001647" fill-opacity=".2"/><path d="M775 1185c231.41 0 419-168.12 419-375.5 0-207.383-187.59-375.5-419-375.5-231.407 0-419 168.117-419 375.5 0 207.38 187.593 375.5 419 375.5z" stroke="#000" stroke-width="20"/></g><defs><clipPath id="prefix__clip0_299_662"><path fill="#fff" d="M0 0h1500v1500H0z"/></clipPath></defs>
      <g clip-path="url(#prefix__clip0_53_29287)"><path d="M764.05 841.24c31.336 0 56.74-25.404 56.74-56.74 0-31.337-25.404-56.74-56.74-56.74-31.337 0-56.74 25.403-56.74 56.74 0 31.336 25.403 56.74 56.74 56.74zM1048.19 841.24c31.34 0 56.74-25.404 56.74-56.74 0-31.337-25.4-56.74-56.74-56.74-31.34 0-56.74 25.403-56.74 56.74 0 31.336 25.4 56.74 56.74 56.74z" fill="#fff" stroke="#000" stroke-width="20" stroke-miterlimit="10"/><path d="M746.05 779.5c7.18 0 13-5.82 13-13s-5.82-13-13-13-13 5.82-13 13 5.82 13 13 13zM1066.19 779.5c7.18 0 13-5.82 13-13s-5.82-13-13-13-13 5.82-13 13 5.82 13 13 13z" fill="#000"/><path d="M831.28 968.721h168.82a5.495 5.495 0 015.5 5.5 89.318 89.318 0 01-89.32 89.319h-1.18a89.323 89.323 0 01-63.159-26.16 89.322 89.322 0 01-26.161-63.159 5.5 5.5 0 015.5-5.5z" fill="#fff" stroke="#000" stroke-width="20" stroke-miterlimit="10"/></g><defs><clipPath id="prefix__clip0_53_29287"><path fill="#fff" d="M0 0h1500v1500H0z"/></clipPath></defs>
      <path fill-rule="evenodd" clip-rule="evenodd" d="M873.72 749.551a77.974 77.974 0 01-2.12 28.009c-12 46-43.43 116-123.08 116-78.08-.01-109.77-67.3-122.34-113.32a76.54 76.54 0 01-1.491-6.613 575.778 575.778 0 01-19.519-2.647c-19.733-3.014-46.514-8.099-74.574-16.389-28-8.273-57.66-19.85-82.929-36.01-25.242-16.143-46.806-37.321-57.335-65.028l18.696-7.105c8.471 22.292 26.282 40.49 49.415 55.284 23.106 14.778 50.821 25.701 77.82 33.678 26.941 7.96 52.785 12.875 71.927 15.799a560.937 560.937 0 0015.613 2.165c2.272-25.235 17.045-48.105 39.927-58.564C682.92 686 710 679.25 748 678.56c2.1-.04 4.24-.06 6.42-.06 31.85 0 55.55 4.17 73.18 10.32 19.495 6.785 34.154 22.272 41.436 41.234 20.561-6.57 46.94-16.704 73.236-31.517C998.125 667.074 1051.68 615.752 1051.68 534h20c0 92.248-60.95 148.926-119.592 181.963-28.405 16-56.722 26.749-78.368 33.588z" fill="#000"/>
      <g clip-path="url(#prefix__clip0_53_25387)"><path d="M883.5 650l-16.5-3.5s-14.74-3.47-20.5 3.5c-5.76 6.97-19.09-11.38-20-6.5-.91 4.88-46.5 6-46.5 6h-40s-44.65-5.41-62.5.5-50.28-1.76-54.5-.5c-4.22 1.26-52.39 2.31-54.5 4-2.11 1.69-9.39 27.31-11.5 29-2.11 1.69-4.58 20.62-5 32-.42 11.38-10.13 18.92-10.5 26.5-.37 7.58-20.22 27.92-24.01 40.56-3.79 12.64-9.09 14.09-12.88 21.67-3.79 7.58-19.67 8.48-22.61 12.27-2.94 3.79-15.13 7.29-18.5 11.5-4.098 5.459-6.108 9.613-11.72 13.5-7.19 4.89-9.56 5.63-9.56 5.63s-33.77-1.07-36.88.2c-3.11 1.27-48 11.55-48 11.55l-11.85-3s24.4 13.39 20.18-1.36c-4.22-14.75-6.73 3-9.65-16.66s-5.52-25.69-10.15-40.14c-4.63-14.45-8.43-29.8-12.18-44.12-3.75-14.32 0-29.5 0-29.5s1.31-26.32 5.31-42.61c4-16.29 5.48-23.18 5.9-26.8.42-3.62 10.53-30.93 11.37-33 .84-2.07 25.28-66.57 25.28-66.57l29.16-30.34 66.49-64.47s115-35 121.35-38.12c6.35-3.12 20.64-6.54 21.91-7.38 1.27-.84 42.35-15.21 49.94-18.58 7.59-3.37 18.69 1.76 25 0 6.31-1.76 42.09-3.41 49.25-4.25 7.16-.84 27-11.38 45.64-10 18.64 1.38 48.28-.38 70.27 2.77 21.99 3.15 63.52 13.11 63.52 13.11l129.09 67.13 91.65 82.62 59.88 113.61-8.02 79.78C1174.5 648 1150 628 1150 628s-48 22-139.66 15.84c-1.94-.42-55.2 6.32-57.84 4.16-2.64-2.16-48-1.5-48-1.5l-21 3.5z" fill="#53B6F9"/><path d="M435 581s47.08 58.45 108.11 5.17 24.83-101.9 24.83-101.9l-29.48 44-37.26 29.46-60 20.69L435 581zM1024.5 435.49s46.93-35.77 103.52 21.39c56.59 57.16 38 89.94 38 89.94l-5.37 14.54s-79.83-84.64-83.46-86c-3.63-1.36-52.69-39.87-52.69-39.87z" fill="#FFBF44"/><path d="M405.24 582.5c98.837 0 178.96-80.123 178.96-178.96s-80.123-178.96-178.96-178.96-178.96 80.123-178.96 178.96S306.403 582.5 405.24 582.5zM1101.66 250.201s118.53-30.73 213.94 92.8-71.16 271-71.16 271l-47.7 15.32-36.74-57.32s39.28-33.26-22.21-103.89-121.36-32.11-121.36-32.11l-77.91-34.06s37.81-124.86 163.14-151.74z" fill="#53B6F9"/><path d="M373.5 232c-29.333 37.5-61 147 23 221 80.896 71.266 145.177 43.534 172.375 15.255.953-17.075 3.884-35.035 10.91-30.686L581.5 422.5l89.5-26c19.667-.667 60.4-.3 66 6.5 5.6 6.8-7.333 11.833-14.5 13.5-81.6 33.6-122.667 92.667-133 118l-15-50.5 3.02-26.529c-2.233 3.462-5.129 7.127-8.645 10.784A251.05 251.05 0 00568.5 484l-38 55c4.5 8.5 17.6 24.5 34 20.5s-12.167 20.333-28.5 33c-12.545 5.639-36.089 13.886-55.914 14.893L491 613l41.5-9.5c-47.389 59.2-53.079 160-50 203-22.667 15-74.3 45.8-99.5 49-25.2 3.2-35.5-14.333-37.5-23.5l-7.5-88.5 7.5-75.5 34.5-83h50.77c-2.488-2.414-4.035-4.313-4.77-5.5-39.333 8.833-131.2.8-184-102C176 349 295.5 250 373.5 232zM1187.5 260c-93.2 26.4-130.83 120.667-138 164.5l14.5 5c16.33 2 44.3 6.8 25.5 10-18.8 3.2-24.83 22.333-25.5 31.5l-39.5-27-78-41.5c7.833-25.667 38-86.9 96-126.5 58-39.6 120.83-27.167 145-16z" fill="#001647" fill-opacity=".2"/><path d="M583.41 420c37.1-11.54 52.09-24.66 133.5-24.66 18.09 0 14.09-.406 30.12-4.2C811 376 929.86 367.49 1069.19 479.08c165.48 132.53 145.14 244.65 121.69 284.41" stroke="#000" stroke-width="20" stroke-miterlimit="10"/><path d="M1154.46 647.454c5.49-.527 9.52-5.411 9-10.909-.53-5.497-5.42-9.527-10.91-8.999l1.91 19.908zm-594.77 17.377l-9.982-.591 9.982.591zm-192.75 192.72l-.641-9.979h-.013l-.013.001.667 9.978zm-17.29-12.79l-9.738 2.273.002.009 9.736-2.282zm802.9-217.215C875.809 654.085 591.253 639 579.001 639v20c10.748 0 297.452 15.115 575.459-11.546l-1.91-19.908zM579.001 639c-15.921 0-28.408 10.296-29.293 25.24l19.965 1.182c.102-1.738.823-3.161 2.069-4.23 1.268-1.089 3.556-2.192 7.259-2.192v-20zm-29.293 25.24c-4.214 71.117-40.405 116.069-80.529 143.855-40.527 28.064-84.727 38.31-102.88 39.477l1.282 19.958c21.527-1.383 69.272-12.722 112.985-42.993 44.116-30.549 84.46-80.682 89.107-159.115l-19.965-1.182zM366.273 847.573a6.621 6.621 0 01-4.379-1.283L350 862.369a26.625 26.625 0 0017.607 5.16l-1.334-19.956zm-4.379-1.283a6.622 6.622 0 01-2.508-3.811l-19.472 4.564A26.62 26.62 0 00350 862.369l11.894-16.079zm-2.506-3.802c-9.397-40.259-28.877-147.282 28.046-257.436l-17.768-9.182c-60.237 116.566-39.497 229.422-29.754 271.164l19.476-4.546z" fill="#000"/><path d="M1024.5 441s37.29-42.26 107.21 26.71C1197.68 532.77 1160 572 1160 572" stroke="#000" stroke-width="20" stroke-miterlimit="10"/><path d="M1196.21 635.52a198.421 198.421 0 0088.32-54.171 198.45 198.45 0 0048.99-91.299c24.87-106.79-41.54-213.52-148.33-238.39C1078.4 226.79 971.67 293.2 946.8 400M405.24 582.451c98.809 0 178.91-80.101 178.91-178.91s-80.101-178.91-178.91-178.91-178.91 80.101-178.91 178.91 80.101 178.91 178.91 178.91z" stroke="#000" stroke-width="20" stroke-miterlimit="10"/><path d="M430.7 580.67s40.75 59.81 114.23 3.6c75.41-57.68 21.32-108.76 21.32-108.76" stroke="#000" stroke-width="20" stroke-miterlimit="10"/></g><defs><clipPath id="prefix__clip0_53_25387"><path fill="#fff" d="M0 0h1500v1500H0z"/></clipPath></defs>
      
    </g>
    </svg>