<svg
      xmlns="http://www.w3.org/2000/svg"
      preserveAspectRatio="xMidYMin meet"
      fill="none"
      viewBox="0 0 1500 1500"
    >
      <g>
      <path fill="url(#prefix__paint0_linear_53_30461)" d="M0 0h1500v1500H0z"/><defs><linearGradient id="prefix__paint0_linear_53_30461" x1="0" y1="0" x2="1500" y2="1533.5" gradientUnits="userSpaceOnUse"><stop stop-color="#EEB0FC"/><stop offset="1" stop-color="#AF55F5"/></linearGradient></defs>
      <g clip-path="url(#a)"> <path fill="#fff" d="M1263 1505H288.3l10.8-105.6 40-155.8 35.9-75.1 44.5-48.5 46.8-17.9 3.3-40 40 38 77.8 44.2 83.8 32L787 1185l98-11 109.9-41.4 49.7-33.3 46.3 6.2 36.5 27.1 34 41.3 36.7 86.3 28.6 82.3L1263 1505Z"/> <path fill="#000" d="M693 1500h-19.8l-8.2-245.3 19.8-.7 8.2 246Zm105 0a29.5 29.5 0 0 0-57 0h23a9.3 9.3 0 0 1 5.2-1.9h.4c2 0 4 .7 5.6 1.9h23Zm106 0a29.5 29.5 0 0 0-57 0h23a9.3 9.3 0 0 1 5.2-1.9h.4c2 0 4 .7 5.6 1.9h23Z"/> <path stroke="#000" stroke-miterlimit="10" stroke-width="20" d="M765.7 1439.8a19.5 19.5 0 1 0 0-39 19.5 19.5 0 0 0 0 39Zm106 0a19.5 19.5 0 1 0 0-39 19.5 19.5 0 0 0 0 39Zm-109.8-87.3a19.5 19.5 0 1 0 0-39 19.5 19.5 0 0 0 0 39Zm106 0a19.5 19.5 0 1 0 0-39 19.5 19.5 0 0 0 0 39Z"/> <path stroke="#000" stroke-linecap="round" stroke-width="20" d="M289.5 1512.5c-6-101.5 31-323 140.5-398 158.5-108.5 616.5-87 706.5 26 65 81.5 99.5 222.5 132.5 371M1084.5 1337c12.3 37 29.5 110.3 43.5 175.5m-646.5 0c.3-32.8 7.7-107.6 20.5-157"/> <path stroke="#000" stroke-miterlimit="10" stroke-width="20" d="M472.7 1069.5s-4.8 7.5-7.7 21.8a99.8 99.8 0 0 0 49.6 107.9c41.8 23.7 178.5 88.8 373.1 56.5 39-6.5 148.1-31.8 186.1-123.6a32 32 0 0 0 1.7-5.3c1.6-7.5 4.6-27-.8-54.9"/> <path fill="#fff" d="m467.6 1110.5 7.4-39 62.5-15.5 72-5.5 53-8h147l104.5 8 107 8.1 53.6 19-3.8 40.8-21.3 55-90.7 68.1-76.5 24.3-77.8 2.7-60.7-2.7-58.8 2.7-143.7-46.2-68.6-65.1-5.1-46.7Z"/> <path stroke="#000" stroke-width="20" d="M535 1214c-83.6-40.4-76.5-113.2-62.5-144.5 266-49.2 513.5-20.2 604 .5 22 122.8-114.2 176.5-193 192-.3 0-33.7 6.5-77.5 8a472.5 472.5 0 0 1-75.4-3 549.7 549.7 0 0 1-195.6-53Z"/> <path fill="#001647" fill-opacity=".2" d="M488 1226.5c-89.6 98.8-104.7 230.8-101 284.5h-98c2.3-44.8 14.5-159.8 44.5-261 30-101.2 96.8-141.8 126.5-149.5l15-26h42l56.5-15.5 124.5-10h121c-150.4 32.8-264 112.7-302 148.5l56.5 29 95 23.5 127 20c-27.2 13.2-89.3 14.5-117 13.5l4 227.5H652l-7-227.5c-80.8-6-138.3-40.5-157-57Z"/> </g> <defs> <clipPath id="a"> <path fill="#fff" d="M0 0h1500v1500H0z"/> </clipPath> </defs>
      <g clip-path="url(#prefix__clip0_299_662)"><path d="M775 1185c231.41 0 419-168.12 419-375.5 0-207.383-187.59-375.5-419-375.5-231.407 0-419 168.117-419 375.5 0 207.38 187.593 375.5 419 375.5z" fill="#ABF"/><path d="M457.5 796c7.6 194 131.833 327.5 193 370l-130-55.5L438 1034l-57.5-89.5-27-106 11-104L394 662l45-82.5 83.5-69.5 109-54.182 28.5-1C569.452 513.314 451.119 633.132 457.5 796z" fill="#001647" fill-opacity=".2"/><path d="M775 1185c231.41 0 419-168.12 419-375.5 0-207.383-187.59-375.5-419-375.5-231.407 0-419 168.117-419 375.5 0 207.38 187.593 375.5 419 375.5z" stroke="#000" stroke-width="20"/></g><defs><clipPath id="prefix__clip0_299_662"><path fill="#fff" d="M0 0h1500v1500H0z"/></clipPath></defs>
      <g clip-path="url(#prefix__clip0_53_29315)"><path d="M764.05 841.24c31.336 0 56.74-25.404 56.74-56.74 0-31.337-25.404-56.74-56.74-56.74-31.337 0-56.74 25.403-56.74 56.74 0 31.336 25.403 56.74 56.74 56.74zM1048.19 841.24c31.34 0 56.74-25.404 56.74-56.74 0-31.337-25.4-56.74-56.74-56.74-31.34 0-56.74 25.403-56.74 56.74 0 31.336 25.4 56.74 56.74 56.74z" fill="#fff" stroke="#000" stroke-width="20" stroke-miterlimit="10"/><path d="M787.05 797.5c7.18 0 13-5.82 13-13s-5.82-13-13-13-13 5.82-13 13 5.82 13 13 13zM1071.19 797.5c7.18 0 13-5.82 13-13s-5.82-13-13-13-13 5.82-13 13 5.82 13 13 13z" fill="#000"/><path d="M1000.1 1063.55H831.28a5.495 5.495 0 01-5.5-5.5 89.318 89.318 0 0189.32-89.319h1.18a89.316 89.316 0 0163.158 26.161 89.312 89.312 0 0126.162 63.158c0 1.46-.58 2.86-1.61 3.89a5.503 5.503 0 01-3.89 1.61z" fill="#fff" stroke="#000" stroke-width="20" stroke-miterlimit="10"/></g><defs><clipPath id="prefix__clip0_53_29315"><path fill="#fff" d="M0 0h1500v1500H0z"/></clipPath></defs>
      <g clip-path="url(#prefix__clip0_53_27270)"><path opacity=".5" d="M650.33 766.53s-2.59-63.6 77.41-64.6c80-1 105.45 2.24 105.45 2.24l29.55 17.76 13 59.31s1 26 0 31.36c-1 5.36-25.33 41.83-25.33 41.83s-41.37 47.5-90.52 42S666.499 849 666.499 849s-19.759-49.32-20.269-49.69c-.51-.37 4.1-32.78 4.1-32.78zM971.33 725.75s24.62-35.82 106.52-28.32c81.9 7.5 88.3 28.32 88.3 28.32s3.59-3.82 6.59 23.18 6 40 6 40-3 17-4 21-2.41 19-5.21 24-9 15.59-11.4 18.29c-2.4 2.7-11.94 13.84-20.67 20.77-8.73 6.93-28.37 15.28-30 16.61-1.63 1.33-10 8.21-17.32 7.26-7.32-.95-16.4 1.13-32.4.07-16-1.06-58.738-22.431-60.738-26.431s-15-2-20-18-9.902-20.409-11.582-23.989c-1.68-3.58-8.68-9.82-8.68-26.2s5-29.38 6-35.38c1-6 8.59-41.18 8.59-41.18z" fill="#A5F15C"/><path d="M681.5 720.5S687 709.23 739 703l97 169.89s-18 18.68-56.07 18.1L681.5 720.5zM756.58 700.12s-4.78 3.73 13-7.12L856 850.55s5.57 6.48-9 9.45l-90.42-159.88zM991.001 719.382s-1-21.754 50.999-28.382l97 180.731s-18 19.872-56.07 19.255l-91.929-171.604zM1059.58 700.12s-4.78 3.73 13.05-7.12L1159 850.55s5.57 6.48-9 9.45l-90.42-159.88z" fill="#fff" fill-opacity=".3"/><path d="M722.89 697.43h79.71a72.65 72.65 0 0172.65 72.65v13.85a112.499 112.499 0 01-112.5 112.5 112.499 112.499 0 01-112.5-112.5v-13.86a72.653 72.653 0 0172.64-72.64v0zM1028.89 697.43h79.71c19.27 0 37.75 7.654 51.37 21.278a72.63 72.63 0 0121.28 51.372v13.85a112.5 112.5 0 11-225 0v-13.86a72.653 72.653 0 0172.64-72.64v0zM874.6 792.43a68.918 68.918 0 0181.64 0M866 736h98M650.24 755.43l-266.5-60.5" stroke="#000" stroke-width="20" stroke-miterlimit="10"/></g><defs><clipPath id="prefix__clip0_53_27270"><path fill="#fff" d="M0 0h1500v1500H0z"/></clipPath></defs>
      <g clip-path="url(#prefix__clip0_53_25108)"><path d="M661.719 466.274s.681-50.314 11.212-50.049c10.53.266 30.241-4.165 30.241-4.165l31.002 15.989 25.638-5.424 28.99-24.747 27.071-1.791 27.883 14.121 15.446 18.681 23.411.145 50.96-13.954 24.276 23.68-19.232 52.574-44.507-21.369-17.617-6.041-23.175-7.036-28.05-1.943-32.388-.112-55.638 3.68-50.45 8.949-25.073-1.188z" fill="#97A5DE"/><path d="M718.506 479.214s19.322 40.453 64.014 34.31c44.692-6.143 83.522-32.583 83.522-32.583l10.406-17.065-81.463-14.775-84.096 14.041s-8.664 11.898 7.617 16.072z" fill="#7985B4"/><path d="M662.843 469.488s-13.534-58.554 30.087-60.287c15.493-.614 25.434 4.992 32.226 12.21 13.894 14.755 29.392 7.707 38.346-2.386 11.842-13.391 27.482-26.021 44.854-27.17 20.226-1.338 34.215 14.393 42.889 29.474 6.094 10.621 21.799 13.651 33.204 6.683 11.953-7.315 28.35-12.9 48.081-8.683 42.964 9.245 6.064 69.091 6.064 69.091" stroke="#000" stroke-width="18.1" stroke-miterlimit="10" stroke-linecap="round"/><path d="M630.048 507.636s25.276-45.068 51.452-39.634c40.502 8.395 74.399 69.733 74.399 69.733M800.818 537.27s38.761-65.501 93.251-67.301c54.49-1.801 48.429 57.93 48.429 57.93M682 468s137.209-40.275 226.409 2.982M736.796 506.5s35.103 14.655 86.489 1.675" stroke="#000" stroke-width="20" stroke-miterlimit="10" stroke-linecap="round"/><path d="M633.444 684.097l-56.674-35.609c65 69.011 27.083 111.342 0 123.88-78.641 22.469-92.284-37.113-89.275-69.713l17.554-48.65-31.597 30.092c-28.755 20.898-89.474 43.033-102.314-35.609-12.839-78.642 62.86-79.243 102.314-69.713l-24.073-12.539c-31.764-22.235-79.644-75.932-17.052-112.845 62.592-36.913 93.286 29.758 100.809 67.708l11.034 17.051v-17.051c10.866-47.646 47.044-127.893 104.821-67.708s-1.337 102.982-38.117 116.857h64.197c18.557-.501 54.066 11.937 47.646 65.702-6.419 53.764-62.19 54.5-89.273 48.147z" fill="#53B6F9"/><path d="M550.448 546.877s-14.555-56.172 21.065-90.929c54.577-53.343 138.093 26.682 88.27 84.53-15.206 17.674-33.763 19.239-75.381 37.294M509.964 634.445s-19.921 54.587-68.831 63.876c-75.01 14.253-102.093-101.13-28.668-121.804 22.449-6.309 39.752 1.766 84.409 9.74M591.735 593.431s49.632-40.665 95.563-21.346c70.346 29.581 29.089 137.622-43.594 114.221-22.198-7.152-34.435-18.186-67.206-49.582M567.741 646.231s48.308 26.602 43.594 76.154c-7.232 75.973-122.666 68.801-122.024-7.513.2-23.312 2.477-33.413 32.559-70.216M492.721 571.754s-60.816-1.816-80.517-47.526c-30.223-70.065 74.428-116.979 110.579-49.773 11.034 20.533 9.028 31.346 10.924 76.675" stroke="#000" stroke-width="20" stroke-miterlimit="10"/><path d="M542.815 652.773a57.176 57.176 0 10-.003-114.352 57.176 57.176 0 00.003 114.352z" fill="#FFBF44" stroke="#000" stroke-width="20" stroke-miterlimit="10"/><path d="M585 497c8-34.8 36-45.833 49-47-10.5-3.333-31.9-10-33.5-10-1.6 0-20.667 6.667-30 10L549 491l-10.5 45c.167-7.167.1-23.6-1.5-32-1.6-8.4-8.667-23.833-12-30.5L508.5 455l-26-10-24 5-37 9.5c-3.833 16.667-11.4 50.4-11 52 .4 1.6 23.833 40 35.5 59L379 593c-6.333 15.5-14.6 54.2 3 85 17.6 30.8 76.667 15.167 104 3.5 2 6.5 7.6 27.3 14 58.5s35.334 34.667 49 32.5c-2.833-2.667-9.3-16.7-12.5-51.5-3.2-34.8 7-55.167 12.5-61v-8.5c-10.166-2.333-30.899-15.6-32.499-50-1.6-34.4 24-51 37-55l39.499 19c-6-8.333-16-33.7-8-68.5z" fill="#001647" fill-opacity=".2"/></g><defs><clipPath id="prefix__clip0_53_25108"><path fill="#fff" d="M0 0h1500v1500H0z"/></clipPath></defs>
      
    </g>
    </svg>