<svg
      xmlns="http://www.w3.org/2000/svg"
      preserveAspectRatio="xMidYMin meet"
      fill="none"
      viewBox="0 0 1500 1500"
    >
      <g>
      <path fill="url(#prefix__paint0_linear_53_30459)" d="M0 0h1500v1500H0z"/><defs><linearGradient id="prefix__paint0_linear_53_30459" x1="0" y1="0" x2="1500" y2="1500" gradientUnits="userSpaceOnUse"><stop stop-color="#FFCB9F"/><stop offset="1" stop-color="#FF7F11"/></linearGradient></defs>
      <g clip-path="url(#prefix__clip0_53_28824)"><path d="M303.47 1380.79L330.5 1246l47.5-86.5s65.91-62.22 111.5-78c0 0 195-61.5 392-27.5 31-4 38.96 8.51 79 8 42.72-.55 27.45 23 59 17 22.5 0 44.5 12.5 44.5 12.5l57 34.5 33.87 53.21 39.13 77.98 38.22 130.85-124.13 38.32 14.41 79.47-643.66 1.15 7.27-73.62-182.64-52.57z" fill="#53B6F9"/><path d="M542 1070s112 131 246.95 172.85C823.46 1245.8 903.5 1166 903.5 1166l81.5-83.5 10.5-12.5-69.5-13.5-84.5-8.5-142-3.5-118 15.5-39.5 10zM288.69 1505.57l13.36-115.94 184.06 50.77-2.67 65.17H288.69zM1107 1426l15.5 78.85h142.41l-32.7-116.79L1107 1426z" fill="#ABF"/><path d="M967.16 1314.33l12.2-23.4 30.36 34h17l-52-58.93-30.72 58.93h57.64l-20.12-22.55-6.24 12-8.12-.05zM499 1087l77.305 97.3 84.195 58.17L745 1278s32.003 19.71 59 11.5 67.044-39.16 67.044-39.16L950.5 1191l101-105-53-15.5-68.5 74-58.956 39.8-81.711 58.17-121.378-58.17L626 1153.5l-81-78-46 11.5zM298.52 1405.61l3.98-25.61 185 53.97-7.92 45.74-111.55-27.23-69.51-18.51v-28.36zM1106.06 1447.46l-3.3-22.14L1234 1387.5l12.13 43.43-98.27 24.27-37.66 11.93-4.14-19.67z" fill="#fff"/><path d="M499.998 1213.5c-101.2 100-117.834 249-113.5 311l-99.502-13c-1.6-110.8 39-247.5 59.5-302l39.501-52.5 15.5-20.5 66.5-42.5c149.6-59.6 294-54.83 347.5-45-63 13.17-214.299 64.5-315.499 164.5z" fill="#001647" fill-opacity=".2"/><path d="M486.11 1481.21l-193.26-44.42M1113.35 1472.52l133.13-39.83M492.5 1084.5s89.937 150.47 286.741 208.82a40.82 40.82 0 0024.553-.43c34.883-11.74 151.706-86.39 241.706-205.39" stroke="#000" stroke-width="20" stroke-miterlimit="10"/><path d="M990.5 1072.5c-28.8 37.6-73.707 80.68-87.81 92.27-48.15 38.34-82.19 60.85-97 69.77a38.356 38.356 0 01-15.676 5.27 38.355 38.355 0 01-16.434-1.84c-82.55-28.02-139.29-79.2-139.29-79.2-23.597-19.92-70.59-65.97-85.79-86.77" stroke="#000" stroke-width="20" stroke-miterlimit="10"/><path d="M289.5 1512.5c-2.103-35.58 1.077-85.91 10.812-139.5M1269 1511.5c-9.61-43.23-19.35-85.82-29.93-126.5m-154.57-48c6.84 20.52 15.17 52.22 23.62 87.5m19.88 88c-6.23-29.03-13.1-59.67-19.88-88m-626.62 88c.187-18.42 2.589-50.06 6.923-83m13.577-74c-5.617 21.68-10.187 48.24-13.577 74m619.697-5l130.95-39.5m0 0c-25.78-99.05-56.56-186.72-102.57-244.5-90-113-548-134.51-706.5-26-71.116 48.69-111.652 159.2-129.688 258.5m188.111 56.5L300.312 1373" stroke="#000" stroke-width="20" stroke-linecap="round"/></g><defs><clipPath id="prefix__clip0_53_28824"><path fill="#fff" d="M0 0h1500v1500H0z"/></clipPath></defs>
      <g clip-path="url(#prefix__clip0_299_662)"><path d="M775 1185c231.41 0 419-168.12 419-375.5 0-207.383-187.59-375.5-419-375.5-231.407 0-419 168.117-419 375.5 0 207.38 187.593 375.5 419 375.5z" fill="#ABF"/><path d="M457.5 796c7.6 194 131.833 327.5 193 370l-130-55.5L438 1034l-57.5-89.5-27-106 11-104L394 662l45-82.5 83.5-69.5 109-54.182 28.5-1C569.452 513.314 451.119 633.132 457.5 796z" fill="#001647" fill-opacity=".2"/><path d="M775 1185c231.41 0 419-168.12 419-375.5 0-207.383-187.59-375.5-419-375.5-231.407 0-419 168.117-419 375.5 0 207.38 187.593 375.5 419 375.5z" stroke="#000" stroke-width="20"/></g><defs><clipPath id="prefix__clip0_299_662"><path fill="#fff" d="M0 0h1500v1500H0z"/></clipPath></defs>
      <g clip-path="url(#prefix__clip0_53_29449)"><path d="M844.63 1012.87h141.62" stroke="#000" stroke-width="20" stroke-linecap="round"/><path d="M764.05 841.24c31.336 0 56.74-25.404 56.74-56.74 0-31.337-25.404-56.74-56.74-56.74-31.337 0-56.74 25.403-56.74 56.74 0 31.336 25.403 56.74 56.74 56.74zM1048.19 841.24c31.34 0 56.74-25.404 56.74-56.74 0-31.337-25.4-56.74-56.74-56.74-31.34 0-56.74 25.403-56.74 56.74 0 31.336 25.4 56.74 56.74 56.74z" fill="#fff" stroke="#000" stroke-width="20" stroke-miterlimit="10"/><path d="M764.05 770.5c7.18 0 13-5.82 13-13s-5.82-13-13-13-13 5.82-13 13 5.82 13 13 13zM1048.19 770.5c7.18 0 13-5.82 13-13s-5.82-13-13-13-13 5.82-13 13 5.82 13 13 13z" fill="#000"/></g><defs><clipPath id="prefix__clip0_53_29449"><path fill="#fff" d="M0 0h1500v1500H0z"/></clipPath></defs>
      <g clip-path="url(#prefix__clip0_53_27180)"><path d="M1188 710.07v127.27h-29.81v29.85h-29.8V897H979.27v-29.81h-29.81v-29.85H919.6v-89.46h-31.28v89.46h-29.81v29.85H828.7V897H679.58v-29.81h-29.85v-29.85h-29.81v-89.46H360.81v-37.81H1188z" fill="#000"/><path d="M1038.88 837.35h-29.8v29.81h29.8v-29.81zM1009.06 807.53h-29.8v29.81h29.8v-29.81zM979.26 777.73h-29.8v29.81h29.8v-29.81zM739.18 837.35h-29.8v29.81h29.8v-29.81zM709.39 807.53h-29.81v29.81h29.81v-29.81zM679.52 777.73h-29.8v29.81h29.8v-29.81z" fill="#fff"/></g><defs><clipPath id="prefix__clip0_53_27180"><path fill="#fff" d="M0 0h1500v1500H0z"/></clipPath></defs>
      <g clip-path="url(#prefix__clip0_53_29571)"><path d="M276.36 892.872l5.15-57.711s19.71-62.819 22.75-74.129c3.04-11.31 8.7-32.2 15.23-44.81 6.53-12.61 12.18-23.93 19.58-37.85 7.4-13.92 13.42-31.37 16.93-35.68 3.51-4.31 8.3-19.14 8.3-19.14V434.5l10.201-35 197.319-84.408 188.38-35.24h212.31L990.501 303 1073 493.902l94.73 84.68s15.77 29.26 17.08 31c1.31 1.74 9.22 10.47 9.18 13.51-.04 3.04 4.31 7.84 6 10.45 1.69 2.61 8.7 10 10.44 12.61 1.74 2.61 8.7 10 11.31 14.8 2.61 4.8 3.48 4.78 6.09 11.74s3.92 9.57 7 17.4c3.08 7.83 5.22 12.62 5.22 12.62s-8.26 2.61-13.49 0-64.82-17.4-77-20.88c-12.18-3.48-12.18-3.92-34.37-3.48-22.19.44-48.29.87-53.51.43-5.22-.44-50.47-.87-67-1.3-16.53-.43-36.55-.44-36.55-.44l-96.58 6.53s-54 4.35-76.57 6.52c-22.57 2.17-47.86 7-57 10s-2.61 3.92-43.94 10-159.23 46.11-159.23 46.11l-109.61 43.98-83.53 39.59-29.58 23.5-25.73 29.6z" fill="#FF6247"/><path d="M709.006 474.501l25.671-20.944-36.237-39.239-35.571 29.039L613 389.375 630.573 375l36.396 39.381 35.56-29.005 49.778 53.766L778 418.198 769.987 475l-60.981-.499z" fill="#fff"/><path d="M362.69 914.781l-1.91-6.78s-9.39-28.19-13.14-64.29l-16.37 1s-16.93 9.73-24.8 17.26c-7.87 7.53-26.69 25.32-27.89 26.18-1.2.86-3.59 1.88 0 6s7 11.12 14.54 12.83c7.54 1.71 20.53 4.79 28.74 5 8.21.21 25.32-.85 28.91-.34s11.92 3.14 11.92 3.14zM1186 699.12s9.64 29.47 12.46 49.78l5.49 5.53s10.52-4.45 17-7.86a139.23 139.23 0 0017.2-10.53c3.7-2.82 11.12-8 11.41-9.27.29-1.27 1.44-12.95.83-14.34-.61-1.39-.68-2-11.88-7.83a206.613 206.613 0 00-23-9.78c-1.63-.74-26.39-3.41-26.39-3.41l-3.12 7.71z" fill="#FF6247"/><path d="M347.5 839c4 46 12.333 70.833 16.5 77.5l-72-4.5-14-16.5 3.5-74.5 25.5-90.5 57-101-3.5-40 4-174.5 30.5-21.5 103-43c-20.8 90.4 2.333 194.667 16.5 235.5L742 525.5l129-8c31.5-2 97.7-5.2 110.5-2 9.221 2.305 9.308 6.998 7.141 10.75-1.583 2.741-4.867 3.739-8.033 3.749-47.475.142-158.531 4.629-261.608 22.001-106.8 18-197.167 53.833-229 69.5-30 43.2-60.167 133-71.5 172.5l-71 45zM1238 737l-37 23c-10.14-51.813-16.66-65.682-19.08-66.5l2.58-7.5 53.5 20.5 12 14.5-12 16z" fill="#001647" fill-opacity=".2"/><path d="M373.46 917.089h-4.68c-56.19-.07-90.26-6.42-92.68-19.56-6.33-34.45 190.66-148.001 460.41-197.561s510.1-16.39 516.43 18.06c2.19 11.92-22 27.87-65.63 45.69" stroke="#000" stroke-width="20" stroke-miterlimit="10"/><path d="M276.1 897.541l1-17.88a499.377 499.377 0 0181.09-246.72 24.218 24.218 0 003.89-15.35l3.69-190.4a30.898 30.898 0 0116.44-28.53l22.51-11.9c179.675-83.744 337.78-120.151 535.49-105.76l25.27 3.12a30.913 30.913 0 0125.52 20.88l81.9 182.72a24.306 24.306 0 008.74 11.85 499.295 499.295 0 01164 202.15l7.27 16.37" stroke="#000" stroke-width="20" stroke-miterlimit="10"/><path d="M452.22 609.6c169.083-69.754 347.945-103.167 530.779-98.07" stroke="#000" stroke-width="20" stroke-miterlimit="10" stroke-linecap="round"/></g><defs><clipPath id="prefix__clip0_53_29571"><path fill="#fff" d="M0 0h1500v1500H0z"/></clipPath></defs>
      
    </g>
    </svg>