<svg
      xmlns="http://www.w3.org/2000/svg"
      preserveAspectRatio="xMidYMin meet"
      fill="none"
      viewBox="0 0 1500 1500"
    >
      <g>
      <path fill="url(#prefix__paint0_linear_53_30461)" d="M0 0h1500v1500H0z"/><defs><linearGradient id="prefix__paint0_linear_53_30461" x1="0" y1="0" x2="1500" y2="1533.5" gradientUnits="userSpaceOnUse"><stop stop-color="#EEB0FC"/><stop offset="1" stop-color="#AF55F5"/></linearGradient></defs>
      <g clip-path="url(#prefix__clip0_53_28440)"><path d="M1263 1500H289.33l3.73-66.49 19.17-107.35L354 1197l57.62-67.7s34.7-23.67 99.38-51.8c64.68-28.13 246.37-32.16 246.37-32.16s164.97-8.43 318.13 51.16C1228.66 1156.09 1263 1500 1263 1500z" fill="#99C4CB"/><path d="M466 1099s-.521 38.21 72.469 75.64 99.8 45.62 99.8 45.62 74.66 17.52 117.89 17.09c43.23-.43 122-9.29 122-9.29s82.32-21.7 109.62-40.47c27.301-18.77 99.721-76.09 99.721-76.09s-88.501-61-209.341-61c0 0-94.19-15.43-209.66 0s-140 25.5-140 25.5l-28 9s-23.389-.21-34.499 14z" fill="#fff"/><path d="M502.047 1215.45c-101.2 100-117.833 249-113.5 311l-99.501-13c-1.6-110.8 39-247.5 59.5-302l39.501-52.5 15.5-20.5 66.5-42.5c149.6-59.6 294-54.83 347.5-45-54.857 11.46-176.664 51.87-274.047 128.14 21.333 10.79 72.7 34.67 107.5 43.91 34.8 9.24 144.833 15.18 195.5 17-134.4 46-275.333-6.91-329-39.11a452.112 452.112 0 00-15.453 14.56z" fill="#001647" fill-opacity=".2"/><path d="M457 1103s81.38 134.36 319.15 134.36C1013.92 1237.36 1087 1109 1087 1109m-570-30c38.5 44.5 125.7 97.6 286.5 90 160.8-7.6 212-62.83 217-89.5M496.359 1145.43l50.11-36.14M578.51 1198.9l32.58-56.52M687.039 1230.64l11.64-66M809.939 1236.42l-3.41-64.42M927.521 1215.06l-28.97-59.27M1030.14 1155.88l-35.54-43.82" stroke="#000" stroke-width="20" stroke-miterlimit="10"/><path d="M289.5 1512.5c-6-101.5 31-323.03 140.5-398 158.5-108.51 616.5-87 706.5 26 64.91 81.5 99.5 222.5 132.5 371M1084.5 1337c12.33 37 29.5 110.3 43.5 175.5m-646.5 0c.333-32.83 7.7-107.6 20.5-157" stroke="#000" stroke-width="20" stroke-linecap="round"/></g><defs><clipPath id="prefix__clip0_53_28440"><path fill="#fff" d="M0 0h1500v1500H0z"/></clipPath></defs>
      <g clip-path="url(#prefix__clip0_299_662)"><path d="M775 1185c231.41 0 419-168.12 419-375.5 0-207.383-187.59-375.5-419-375.5-231.407 0-419 168.117-419 375.5 0 207.38 187.593 375.5 419 375.5z" fill="#ABF"/><path d="M457.5 796c7.6 194 131.833 327.5 193 370l-130-55.5L438 1034l-57.5-89.5-27-106 11-104L394 662l45-82.5 83.5-69.5 109-54.182 28.5-1C569.452 513.314 451.119 633.132 457.5 796z" fill="#001647" fill-opacity=".2"/><path d="M775 1185c231.41 0 419-168.12 419-375.5 0-207.383-187.59-375.5-419-375.5-231.407 0-419 168.117-419 375.5 0 207.38 187.593 375.5 419 375.5z" stroke="#000" stroke-width="20"/></g><defs><clipPath id="prefix__clip0_299_662"><path fill="#fff" d="M0 0h1500v1500H0z"/></clipPath></defs>
      <g clip-path="url(#prefix__clip0_53_29261)"><path d="M761.369 722.219a74.743 74.743 0 00-74.67 74.67 10.671 10.671 0 0021.33 0 53.344 53.344 0 0191.31-38.188 53.341 53.341 0 0115.36 38.188 31.999 31.999 0 01-54.627 22.627 32 32 0 01-9.373-22.627c-.041-1.427.2-2.847.71-4.18a10.68 10.68 0 012.3-3.58 10.659 10.659 0 0117.6 3.58 10.64 10.64 0 01.72 4.18 10.67 10.67 0 1021.34 0 32.003 32.003 0 00-9.372-22.628 32.003 32.003 0 00-45.255 0 32.004 32.004 0 00-9.373 22.628 53.333 53.333 0 0053.33 53.33 53.33 53.33 0 0053.33-53.33 74.738 74.738 0 00-74.66-74.67zM1048.37 722.219a74.743 74.743 0 00-74.671 74.67 10.671 10.671 0 0021.33 0 53.354 53.354 0 013.848-20.636 53.313 53.313 0 0111.513-17.552 53.28 53.28 0 0117.39-11.752 53.352 53.352 0 0141.17 0 53.385 53.385 0 0117.39 11.752 53.414 53.414 0 0111.51 17.552 53.227 53.227 0 013.85 20.636 32 32 0 01-32 32 32 32 0 01-32-32c-.06-1.789.34-3.563 1.15-5.159.81-1.596 2-2.963 3.48-3.974a10.664 10.664 0 0110.19-1.017c1.32.557 2.51 1.376 3.51 2.407a10.68 10.68 0 012.28 3.593c.52 1.331.76 2.752.72 4.18 0 2.83 1.12 5.544 3.12 7.545a10.697 10.697 0 007.55 3.125c2.83 0 5.54-1.124 7.54-3.125a10.637 10.637 0 003.13-7.545 31.999 31.999 0 00-32-32 31.999 31.999 0 00-32 32 53.337 53.337 0 0015.62 37.71 53.336 53.336 0 0037.71 15.62c14.14 0 27.71-5.619 37.71-15.62a53.337 53.337 0 0015.62-37.71 74.736 74.736 0 00-21.89-52.776 74.731 74.731 0 00-52.77-21.894v-.03z" fill="#000"/><path d="M912.5 1068.5c32.585 0 59-26.42 59-59 0-32.585-26.415-59-59-59s-59 26.415-59 59c0 32.58 26.415 59 59 59z" fill="#fff" stroke="#000" stroke-width="20" stroke-miterlimit="10"/></g><defs><clipPath id="prefix__clip0_53_29261"><path fill="#fff" d="M0 0h1500v1500H0z"/></clipPath></defs>
      <path fill-rule="evenodd" clip-rule="evenodd" d="M873.72 749.551a77.974 77.974 0 01-2.12 28.009c-12 46-43.43 116-123.08 116-78.08-.01-109.77-67.3-122.34-113.32a76.54 76.54 0 01-1.491-6.613 575.778 575.778 0 01-19.519-2.647c-19.733-3.014-46.514-8.099-74.574-16.389-28-8.273-57.66-19.85-82.929-36.01-25.242-16.143-46.806-37.321-57.335-65.028l18.696-7.105c8.471 22.292 26.282 40.49 49.415 55.284 23.106 14.778 50.821 25.701 77.82 33.678 26.941 7.96 52.785 12.875 71.927 15.799a560.937 560.937 0 0015.613 2.165c2.272-25.235 17.045-48.105 39.927-58.564C682.92 686 710 679.25 748 678.56c2.1-.04 4.24-.06 6.42-.06 31.85 0 55.55 4.17 73.18 10.32 19.495 6.785 34.154 22.272 41.436 41.234 20.561-6.57 46.94-16.704 73.236-31.517C998.125 667.074 1051.68 615.752 1051.68 534h20c0 92.248-60.95 148.926-119.592 181.963-28.405 16-56.722 26.749-78.368 33.588z" fill="#000"/>
      <g clip-path="url(#prefix__clip0_53_25330)"><path d="M452.064 482.151c-104.889 112.873-101.3 246.773-101.3 246.773-.418 14.067 14.974 20.397 14.974 20.397l128.995-56.526 35.639-18.862 22.432 26.917c19.108 7.81 57.922 23.728 60.315 24.924 2.392 1.196 62.807 13.791 92.715 19.939 40.543-1.828 141.267-12.861 219.826-42.37 78.56-29.51 139.07-28.579 159.51-24.425 20.77 5.815 72.58 18.044 113.65 20.437 41.08 2.393 26.42-33.896 13.96-52.339l-23.93-13.958-46.35-19.421-43.06-91.459s-14.26-48.053-134.689-124.169c-120.43-76.117-240.911-57.175-240.911-57.175s-166.888 28.443-271.776 141.317z" fill="#53B6F9"/><path d="M539.057 669.816c-90.931 33.368-140.28 60.355-165.592 77.034a14.877 14.877 0 01-21.267-5.398 14.877 14.877 0 01-1.743-7.931c4.167-68.221 30.198-205.29 154.526-300.249 153.121-116.981 298.086-91.968 311.046-89.416.758.15 1.506.289 2.273.419 20.009 3.579 261.46 51.203 326.18 276.153" stroke="#000" stroke-width="20" stroke-miterlimit="10"/><path d="M538.667 671.046c.23-.788.634-1.409 1.312-1.871 13.787-9.381 183.305-117.499 585.401-53.422 0 0 48.7 9.6 90.07 32.062a30.695 30.695 0 0114.53 17.606 30.714 30.714 0 01-1.62 22.769 30.738 30.738 0 01-16.88 15.365 30.744 30.744 0 01-22.83-.52c-33.33-14.266-83.32-29.41-137.41-32.5-42.02-2.403-134.701 36.887-203.629 55.998A416.341 416.341 0 01676.515 737.3c-69.469-10.096-148.504-29.738-137.848-66.254z" stroke="#000" stroke-width="20" stroke-miterlimit="10"/><path d="M837.919 527.819c10.204-20.716 21.478-41.205 33.821-61.467 32.555 28.361 62.041 59.587 88.038 93.233a726.38 726.38 0 0147.242 7.193c-38.626-59.081-90.292-115.277-154.195-164.771-32.006 50.312-58.066 103.674-77.735 159.169a729.529 729.529 0 01161.895-3.939c-17.795-21.523-37.085-41.955-57.748-61.166a762.702 762.702 0 00-17.622 31.257 769.25 769.25 0 00-23.696.491z" fill="url(#prefix__paint0_linear_53_25330)"/><path d="M351.5 745.997c1.5-26 11-95.4 37-165 8.167-23.833 47.8-89.7 141-162.5S734 339.83 778 345.997c-204 104-266.667 267-272.5 335.501L398 731.997l-46.5 14zM747.5 579.497c-137.6 22.4-202.667 67-218 86.5l63-22.5 100-33 187.5-20 261 23.5-4-14.5c-49.5-17-217.5-48-389.5-20z" fill="#001647" fill-opacity=".2"/></g><defs><linearGradient id="prefix__paint0_linear_53_25330" x1="952.995" y1="446" x2="894.621" y2="617.577" gradientUnits="userSpaceOnUse"><stop stop-color="#fff"/><stop offset="1" stop-color="#fff"/></linearGradient><clipPath id="prefix__clip0_53_25330"><path fill="#fff" d="M0 0h1500v1500H0z"/></clipPath></defs>
      
    </g>
    </svg>