<svg
      xmlns="http://www.w3.org/2000/svg"
      preserveAspectRatio="xMidYMin meet"
      fill="none"
      viewBox="0 0 1500 1500"
    >
      <g>
      <path fill="url(#prefix__paint0_linear_53_30462)" d="M0 0h1500v1500H0z"/><defs><linearGradient id="prefix__paint0_linear_53_30462" x1="0" y1="0" x2="1500" y2="1500" gradientUnits="userSpaceOnUse"><stop stop-color="#FFC4F6"/><stop offset="1" stop-color="#FF3DB1"/></linearGradient></defs>
      <g clip-path="url(#a)"> <path fill="#000" d="M511.7 1369.3c-9.4 43-15.8 86.7-19 130.6h-20v-.7c3.2-45.2 9.7-90.2 19.5-134.5a10 10 0 0 1 19.5 4.6ZM1132 1500h-20.2c-2.8-14-20.2-98.8-36.6-147.6a10 10 0 0 1 2.7-10.9 10.1 10.1 0 0 1 7.4-2.4 9.8 9.8 0 0 1 6.9 3.5 10 10 0 0 1 1.9 3.5c18.3 54.2 37 148 37.7 151.9l.2 2Z"/> <path fill="#fff" d="M1263 1504H289.3l3.8-70.5 22.1-107.4 14.3-62.1 31.5-61 41.5-71s41.3-28.9 106-57 255-32.5 255-32.5 155.8-7 309 52.5c153.2 59.6 190.5 409 190.5 409Z"/> <path fill="#ABF" d="m739.5 1500-19.9-143v-146l39.9-169 83.5 6.5 40 108 9.3 28.5 23.4 117.7L922 1500H739.5Z"/> <path stroke="#000" stroke-width="20" d="M741 1514c-20.8-79.3-46.8-283.4 16-465m165 465c7-105.5 5.7-294.2-83.5-465"/> <path fill="#000" d="M659.1 1339a17.4 17.4 0 0 1-10.4 14.6l-43.4 18.7a10.2 10.2 0 0 0-5.7 12.4l35.8 115.3h-21l-34-109.3a30.1 30.1 0 0 1 17-36.8l38.8-16.7-60.5-37.8a32.7 32.7 0 0 1-8.4-48.2L743.5 1039l7.8 6.2 7.9 6.3L583 1263.7a12.8 12.8 0 0 0 3.3 18.8l64.7 40.4a17.4 17.4 0 0 1 8.1 16Zm404.5 23.3L1042 1500h-20.3l22.2-140.8a10.2 10.2 0 0 0-7.4-11.4l-45.7-12.2a17.4 17.4 0 0 1-6.7-30.1l58.2-49.3a12.8 12.8 0 0 0 .5-19l-195.6-183.4 6.8-7.3 6.9-7.3 195.6 183.3a32.6 32.6 0 0 1 7 38c-1.9 4.3-4.8 8-8.3 11l-54.4 46 40.9 11a30 30 0 0 1 22 33.8Z"/> <path fill="#001647" fill-opacity=".2" d="M500 1213.5c-101.2 100-117.8 249-113.5 311l-99.5-13c-1.6-110.8 39-247.5 59.5-302L386 1157l15.5-20.5L468 1094c149.6-59.6 294-54.8 347.5-45-63 13.2-214.3 64.5-315.5 164.5Z"/> <path fill="#001647" fill-opacity=".2" d="M559 1297c-18-16.4-1.5-37.2 9.5-45l-3 16.5 13.5 11 68.5 60-13.5 9.5c-27.5-12-52.5-31.5-75-52Zm6.5 97c-4-22.8 19.7-35.5 32-39l-4 14v25l30 111.5h-20c-11-27.7-34-88.7-38-111.5Zm328-82.5c-19-119-56.5-216-80-270h24l37 86 39 152 10 156.5v75.5l-23 13c4.5-36.7 7.8-120.6-7-213Z"/> <path stroke="#000" stroke-linecap="round" stroke-width="20" d="M289.5 1512.5c-6-101.5 31-323 140.5-398 158.5-108.5 616.5-87 706.5 26 65 81.5 99.5 222.5 132.5 371M1084.5 1337c12.3 37 29.5 110.3 43.5 175.5m-646.5 0c.3-32.8 7.7-107.6 20.5-157"/> </g> <defs> <clipPath id="a"> <path fill="#fff" d="M0 0h1500v1500H0z"/> </clipPath> </defs>
      <g clip-path="url(#prefix__clip0_299_662)"><path d="M775 1185c231.41 0 419-168.12 419-375.5 0-207.383-187.59-375.5-419-375.5-231.407 0-419 168.117-419 375.5 0 207.38 187.593 375.5 419 375.5z" fill="#ABF"/><path d="M457.5 796c7.6 194 131.833 327.5 193 370l-130-55.5L438 1034l-57.5-89.5-27-106 11-104L394 662l45-82.5 83.5-69.5 109-54.182 28.5-1C569.452 513.314 451.119 633.132 457.5 796z" fill="#001647" fill-opacity=".2"/><path d="M775 1185c231.41 0 419-168.12 419-375.5 0-207.383-187.59-375.5-419-375.5-231.407 0-419 168.117-419 375.5 0 207.38 187.593 375.5 419 375.5z" stroke="#000" stroke-width="20"/></g><defs><clipPath id="prefix__clip0_299_662"><path fill="#fff" d="M0 0h1500v1500H0z"/></clipPath></defs>
      <g clip-path="url(#prefix__clip0_53_29395)" stroke="#000" stroke-width="20" stroke-miterlimit="10" stroke-linecap="round"><path d="M701.129 783a76.42 76.42 0 00120.5 0M988.75 783a76.436 76.436 0 0060.25 29.41c11.62 0 23.08-2.649 33.52-7.745A76.462 76.462 0 001109.25 783"/><path d="M914.5 1058.5c8.9 0 17.6-2.64 25.001-7.58a45.056 45.056 0 0016.574-20.2 45.004 45.004 0 00-32.796-61.355 44.995 44.995 0 00-46.195 19.134A45 45 0 00914.5 1058.5z" fill="#000"/></g><defs><clipPath id="prefix__clip0_53_29395"><path fill="#fff" d="M0 0h1500v1500H0z"/></clipPath></defs>
      <g clip-path="url(#prefix__clip0_53_27350)"><path d="M695 882.421v6.14a7.746 7.746 0 01-.67 3.22c-1.26 2.86-3.34 3-3.34 3a7.817 7.817 0 01-6.39-1.32c-2.64-2.11-9.24-20.21-9.24-20.21l-12.71 20.21H654l17.8-28.21-5.59-11.59a4.654 4.654 0 00-4.07-2.64H662a4.724 4.724 0 00-4.13 1.7c-.89.89-1.21 3.78-1.21 3.78l-1.78.13a22.972 22.972 0 01-.13-5.28 7.776 7.776 0 011.34-3.76 5.694 5.694 0 014.83-2.61 7.816 7.816 0 014.51 1.43 8.67 8.67 0 013 3.74l5.26 13.05 11.44-17.4H693l-15.8 24.51 3.94 9.32s3 9 7.31 9 4.71-6.22 4.71-6.22l1.84.01z" fill="#000"/></g><defs><clipPath id="prefix__clip0_53_27350"><path fill="#fff" d="M0 0h1500v1500H0z"/></clipPath></defs>
      <path d="M661.719 466.274s.681-50.314 11.211-50.049c10.531.266 30.241-4.165 30.241-4.165l31.003 15.989 25.638-5.424 28.99-24.747 27.071-1.791 27.883 14.121 15.446 18.681 23.411.145 50.96-13.954 24.276 23.68-19.232 52.574-44.507-21.369-17.618-6.041-23.175-7.036-28.049-1.943-32.388-.112-55.638 3.68-50.45 8.949-25.073-1.188z" fill="#97A5DE"/><path d="M718.506 479.214s19.322 40.453 64.014 34.31c44.692-6.143 83.522-32.583 83.522-32.583l10.406-17.065-81.463-14.775-84.096 14.041s-8.664 11.898 7.617 16.072z" fill="#7985B4"/><path d="M662.843 469.488s-13.534-58.554 30.087-60.287c15.493-.614 25.434 4.992 32.226 12.21 13.894 14.755 29.392 7.707 38.346-2.386 11.842-13.391 27.482-26.021 44.854-27.17 20.226-1.338 34.215 14.393 42.889 29.474 6.094 10.621 21.799 13.651 33.204 6.683 11.953-7.315 28.35-12.9 48.081-8.683 42.964 9.245 6.064 69.091 6.064 69.091" stroke="#000" stroke-width="18.1" stroke-miterlimit="10" stroke-linecap="round"/><path d="M630.048 507.636s25.276-45.068 51.452-39.634c40.502 8.395 74.399 69.733 74.399 69.733M800.818 537.27s38.761-65.501 93.251-67.301c54.49-1.801 48.429 57.93 48.429 57.93M682 468s137.209-40.275 226.408 2.982M736.796 506.5s35.103 14.655 86.489 1.675" stroke="#000" stroke-width="20" stroke-miterlimit="10" stroke-linecap="round"/><path d="M644.603 542.516l56.89-77.109 53.1-31.06 21.634-1.404 37.197 81.112 21.415 63.676s27.843 59.499-15.545 65.537c-43.387 6.039-91.435-3.37-91.435-3.37L674.535 627.1l-65.745 19.231s-46.205 82.674-91.956 100.812c-45.751 18.138-42.916-1.403-42.916-1.403l-42.859-81.774-19.901-91.615s-13.797-31.572 51.611-31.441c65.408.131 113.385 23.476 113.385 23.476l68.449-21.87z" fill="#4AEEB9"/><path d="M505 591c-.4-20.4 9.167-33.5 14-37.5l-7-8-62.5-1-38.5 9 12 63 41 113 26 31.5 72.5-48.5 46.5-63-16.5-43.5-50 18.5c0 8.333-2.7 23.9-13.5 19.5-13.5-5.5-23.5-27.5-24-53zM643 630.5c-30-26.8-29.833-61.167-26-75l-32 6.5 24 78.5 34-10zM747.5 575c7.6-20.8-7.167-31-15.5-33.5-6.5 8-19.6 24.2-20 25-.4.8-26.833 13-40 19-.167 7.5 1.1 22.7 7.5 23.5 8 1 58.5-8 68-34z" fill="#001647" fill-opacity=".2"/><path d="M647.51 541.553l-67.569 24.232 28.887 80.545 67.568-24.233-28.886-80.544z" stroke="#000" stroke-width="20" stroke-miterlimit="10"/><path d="M676.427 621.507s80.65 40.951 156.098 17.871a17.706 17.706 0 009.624-7.279 17.61 17.61 0 002.702-11.737 437.997 437.997 0 00-66.957-184.734l-.109-.158a17.698 17.698 0 00-9.558-7.301 17.761 17.761 0 00-12.032.483C683.202 458.578 647.06 541.311 647.06 541.311M579.903 566.274s-80.652-40.957-156.122-17.874a17.702 17.702 0 00-9.625 7.275 17.604 17.604 0 00-2.703 11.735v0a438.016 438.016 0 0066.938 184.744l.108.168a17.698 17.698 0 009.564 7.29 17.762 17.762 0 0012.03-.491c73.004-29.921 109.151-112.668 109.151-112.668" stroke="#000" stroke-width="20" stroke-miterlimit="10"/><path d="M662.153 582.107s45.412 4.609 61.137-39.852M594.148 606.978s-52.056-3.509-59.752 39.921" stroke="#000" stroke-width="20" stroke-miterlimit="10" stroke-linecap="round"/>
      
    </g>
    </svg>