<svg
      xmlns="http://www.w3.org/2000/svg"
      preserveAspectRatio="xMidYMin meet"
      fill="none"
      viewBox="0 0 1500 1500"
    >
      <g>
      <path fill="url(#prefix__paint0_linear_53_30463)" d="M0 0h1500v1500H0z"/><defs><linearGradient id="prefix__paint0_linear_53_30463" x1="1500" y1="1500" x2="0" y2="0" gradientUnits="userSpaceOnUse"><stop stop-color="#FF5A5A"/><stop offset="1" stop-color="#FFBDBD"/></linearGradient></defs>
      <g clip-path="url(#prefix__clip0_53_28546)"><path d="M1263 1500H289.33l3.73-66.49 22.17-107.35L350 1210.5l64.5-87s17.71-5.24 49.5-22c0-15.48-3.27-11.17 5.5-3.5 9.18-4.83 18.47-7.58 29.94-13H503c6.96-3.29 10.74-4.62 18.5-8 64.69-28.13 216.5-36 216.5-36s154.86-8.26 305 43c6.21 2.12 35.41 17.63 41.5 20 145.5 76.5 178.5 396 178.5 396z" fill="#fff"/><path d="M1120.22 1500H492.75l63.3-66.84 42-80.49.34-.65L509 1201.57l-38-89.15-2.66-6.25-.73-1.69c-.002-.04-3.113-4.44-3.11-4.48l31-14 10-2.5 24.5-9 28.59 59.88v.08l86.22 157.7c.06.1.13.19.18.28l24.2 34.72h246.5l21-28.57 10-13.56 17.21-55.83 22.47-72.91v-.09l21.63-69.7 25-10.44 36.5 20.94-5.33 7.99-1.69 9.53-10.23 57.79-8.9 50.24-13.5 33.18-40.28 99.07-.9 2.21-1.4 3.44 52.71 77.83 70.33 54 4.43 3.39 5.48 4.33z" fill="#4AEEB9"/><path d="M468.001 1094c149.6-59.6 294-54.83 347.5-45-60.865 12.72-204.146 61.06-305.043 154.5L593.5 1345l-5.5 25.5c-40.4-37.2-77.581-111.33-94.871-150-95.084 99.83-110.861 243.43-106.627 304l-99.502-13c-1.6-110.8 39-247.5 59.5-302l39.501-52.5 15.5-20.5 66.5-42.5z" fill="#001647" fill-opacity=".2"/><path d="M780.324 1434.93c.215.68.279 1.39.189 2.09-.09.7-.333 1.38-.711 1.97a4.278 4.278 0 01-1.424 1.42c-.58.36-1.235.57-1.912.63-.757.12-1.502.2-2.246.27-.744.06-1.467.09-2.188.1.099 2.27-.294 4.53-1.151 6.63a19.416 19.416 0 01-9.795 10.12 17.29 17.29 0 01-7.084 1.5l-.41-.02c-2.76-.04-5.47-.74-7.908-2.03a21.42 21.42 0 01-6.727-5.66c-3.997-4.99-6.622-11.99-7.875-21-.726-4.47-.893-9-.499-13.51a24.64 24.64 0 012.899-9.57c.714-1.2 1.591-2.3 2.606-3.26.99-.94 2.112-1.74 3.331-2.35 1.077-.53 2.213-.94 3.384-1.2 1.232-.29 2.498-.41 3.762-.36 3.633 0 7.21.91 10.402 2.64 1.451.7 2.796 1.6 3.992 2.67a9.443 9.443 0 013.296 5.4c.137.67.122 1.37-.045 2.05-.167.67-.481 1.3-.92 1.83-.418.52-.949.94-1.553 1.22-.605.28-1.266.42-1.932.4a5.734 5.734 0 01-3.234-.99 7.929 7.929 0 01-2.388-2.52c-.482-.29-.981-.54-1.494-.76-.671-.28-1.362-.52-2.068-.7-.778-.2-1.575-.3-2.377-.32a6.71 6.71 0 00-2.432.39c-1.606.68-2.761 2.15-3.464 4.4-1.183 3.39-1.326 8.28-.43 14.68a37.867 37.867 0 002.337 9.78c.712 1.8 1.665 3.49 2.833 5.03a6.705 6.705 0 002.228 2.01c.884.49 1.867.78 2.876.84a8.833 8.833 0 003.568-.85 8.891 8.891 0 002.932-2.2 8.48 8.48 0 002.39-4.36c-.56-.02-1.119-.05-1.678-.08-.56-.03-1.109-.05-1.668-.08a6.018 6.018 0 01-4.084-1.63 6.088 6.088 0 01-2.118-3.92c-.1-.67-.056-1.35.13-2 .186-.64.51-1.25.948-1.76.422-.51.955-.92 1.559-1.19a4.407 4.407 0 011.925-.4l.09.01c.881-.01 1.731 0 2.541.02.81.02 1.598.08 2.387.12 1.998.1 3.886.2 5.799.18 2.246 0 4.489-.14 6.719-.42a5.77 5.77 0 014.167 1.16 6.41 6.41 0 012.525 3.58zM809.785 1459.36a102.9 102.9 0 01-5.583-.08c-1.508-.08-2.746-.14-3.711-.28-.964-.14-1.721-.21-2.266-.33-.545-.12-.942-.19-1.169-.25a7.588 7.588 0 01-2.101-.83 8.992 8.992 0 01-2.468-2.12 12.745 12.745 0 01-1.998-3.1c-.455-.98-.853-1.98-1.193-3a44.13 44.13 0 01-1.044-3.75 74.323 74.323 0 01-1.503-7.43c-.45-2.81-.894-5.96-1.331-9.46-.408-2.92-.731-5.76-.967-8.52l-.633-7.39c-.173-2.17-.295-3.94-.376-5.32-.082-1.38-.125-2.13-.139-2.24-.078-.67.004-1.35.239-1.98.235-.63.617-1.2 1.113-1.66a4.736 4.736 0 011.768-1.06c.659-.23 1.359-.3 2.051-.23 1.532.16 2.954.87 3.996 2a6.02 6.02 0 011.805 3.97c-.003.06.039.63.104 1.73.065 1.11.162 2.57.312 4.4.149 1.83.334 3.94.545 6.33.211 2.39.46 4.85.754 7.39.36 3.02.713 5.79 1.05 8.27.337 2.48.767 4.7 1.14 6.66.373 1.97.744 3.36 1.038 4.48.295 1.13.523 1.97.725 2.53 1.549.17 3.107.24 4.665.23 1.851.02 3.804.01 5.849-.04 2.045-.04 4.09-.1 6.127-.19s3.895-.21 5.604-.33a5.665 5.665 0 014.118 1.33 6.675 6.675 0 012.425 3.79 4.711 4.711 0 01-.708 3.97c-.381.55-.88 1-1.462 1.33-.582.32-1.23.51-1.896.55l-1.004.04-2.39.15-3.383.19c-1.265.05-2.609.1-4.011.11-.773.05-1.486.08-2.147.09l-1.945.05zM840.538 1459.28a6.535 6.535 0 01-4.065-1.79 5.791 5.791 0 01-1.988-3.91c-.954-7.66-2.111-15.6-3.47-23.82a472.115 472.115 0 00-4.511-23.63 4.549 4.549 0 01.676-3.91c.387-.54.89-.98 1.473-1.3a4.33 4.33 0 011.892-.53c4.573-.44 9.182-.35 13.733.28 4.108.57 8.118 1.7 11.918 3.36a32.179 32.179 0 019.085 5.94 19.763 19.763 0 015.451 8.77c.22 1.02.372 2.07.456 3.11.099 1.34-.025 2.69-.369 3.99a16.03 16.03 0 01-1.988 4.54 19.016 19.016 0 01-4.237 4.66c-4.718 3.86-11.585 6.72-20.602 8.57.224 1.74.448 3.47.693 5.19.245 1.71.441 3.41.597 5.1a4.758 4.758 0 01-1.029 3.77c-.412.51-.937.92-1.535 1.2-.597.27-1.25.41-1.908.39l-.272.02zm-2.187-48.16a467.926 467.926 0 013.85 21.21 45.103 45.103 0 009.535-3.09c1.84-.84 3.573-1.9 5.164-3.15a10.464 10.464 0 002.779-3.15 3.927 3.927 0 00.499-2.98 6.65 6.65 0 00-2.294-3.19 18.776 18.776 0 00-4.734-2.85 38.087 38.087 0 00-14.8-2.78l.001-.02zM1122.41 1495.71l-2.72 4-2.86 4.25h-17.5c-39.37-28.33-90.91-75.45-111.93-131.12a55.169 55.169 0 00-3.61-7.72c-.66-1.18-1.36-2.32-2.1-3.44l6.48-4.3.45-.3 9.73-6.46a75.56 75.56 0 017.76 15.16c11.29 29.89 43.29 78.46 107.78 124 2.74 2 5.58 3.98 8.52 5.93z" fill="#000"/><path d="M669.16 1327.18h252.95" stroke="#000" stroke-width="20" stroke-miterlimit="10"/><path d="M605.91 1358.65c-.44.57-.86 1.15-1.27 1.74a53.595 53.595 0 00-6.74 13.12c-23 65.59-68.45 109.28-89 126.49l-21.15 3-5.79-8.16c.12-.09 2.66-1.91 6.85-5.38 17.35-14.29 68.14-59.52 90.22-122.56a73.51 73.51 0 0111-20.38l8.06 6.15 1.88 1.43 5.94 4.55z" fill="#000"/><path d="M465.53 1102.37s54.7 154.47 153.72 276.69a35.46 35.46 0 0020.062 12.32c7.895 1.7 16.135.66 23.358-2.95a35.406 35.406 0 0011.903-9.66 35.46 35.46 0 006.988-29.11 35.456 35.456 0 00-6.221-14.01c-32.71-44.41-111.58-175.36-143.84-260.15M1010.94 1078.69c-26.5 97.87-68.13 216.54-94.92 258.09a35.487 35.487 0 00-4.498 28.38 35.485 35.485 0 0017.988 22.4l1.37.71c7.688 3.98 16.565 5 24.959 2.89a35.516 35.516 0 0020.611-14.37c31.17-45.55 77.27-163 92.71-277.8" stroke="#000" stroke-width="20" stroke-miterlimit="10"/><path d="M645.26 1371.64c9.157 0 16.58-7.42 16.58-16.58 0-9.16-7.423-16.58-16.58-16.58-9.157 0-16.58 7.42-16.58 16.58 0 9.16 7.423 16.58 16.58 16.58zM947.6 1371.64c9.157 0 16.58-7.42 16.58-16.58 0-9.16-7.423-16.58-16.58-16.58-9.157 0-16.58 7.42-16.58 16.58 0 9.16 7.423 16.58 16.58 16.58z" fill="#000"/><path d="M289.5 1512.5c-6-101.5 31-323.03 140.5-398 158.5-108.51 616.5-87 706.5 26 64.91 81.5 99.5 222.5 132.5 371M1084.5 1337c12.33 37 29.5 110.3 43.5 175.5m-646.5 0c.333-32.83 7.7-107.6 20.5-157" stroke="#000" stroke-width="20" stroke-linecap="round"/></g><defs><clipPath id="prefix__clip0_53_28546"><path fill="#fff" d="M0 0h1500v1500H0z"/></clipPath></defs>
      <g clip-path="url(#prefix__clip0_299_662)"><path d="M775 1185c231.41 0 419-168.12 419-375.5 0-207.383-187.59-375.5-419-375.5-231.407 0-419 168.117-419 375.5 0 207.38 187.593 375.5 419 375.5z" fill="#ABF"/><path d="M457.5 796c7.6 194 131.833 327.5 193 370l-130-55.5L438 1034l-57.5-89.5-27-106 11-104L394 662l45-82.5 83.5-69.5 109-54.182 28.5-1C569.452 513.314 451.119 633.132 457.5 796z" fill="#001647" fill-opacity=".2"/><path d="M775 1185c231.41 0 419-168.12 419-375.5 0-207.383-187.59-375.5-419-375.5-231.407 0-419 168.117-419 375.5 0 207.38 187.593 375.5 419 375.5z" stroke="#000" stroke-width="20"/></g><defs><clipPath id="prefix__clip0_299_662"><path fill="#fff" d="M0 0h1500v1500H0z"/></clipPath></defs>
      <g clip-path="url(#prefix__clip0_53_29261)"><path d="M761.369 722.219a74.743 74.743 0 00-74.67 74.67 10.671 10.671 0 0021.33 0 53.344 53.344 0 0191.31-38.188 53.341 53.341 0 0115.36 38.188 31.999 31.999 0 01-54.627 22.627 32 32 0 01-9.373-22.627c-.041-1.427.2-2.847.71-4.18a10.68 10.68 0 012.3-3.58 10.659 10.659 0 0117.6 3.58 10.64 10.64 0 01.72 4.18 10.67 10.67 0 1021.34 0 32.003 32.003 0 00-9.372-22.628 32.003 32.003 0 00-45.255 0 32.004 32.004 0 00-9.373 22.628 53.333 53.333 0 0053.33 53.33 53.33 53.33 0 0053.33-53.33 74.738 74.738 0 00-74.66-74.67zM1048.37 722.219a74.743 74.743 0 00-74.671 74.67 10.671 10.671 0 0021.33 0 53.354 53.354 0 013.848-20.636 53.313 53.313 0 0111.513-17.552 53.28 53.28 0 0117.39-11.752 53.352 53.352 0 0141.17 0 53.385 53.385 0 0117.39 11.752 53.414 53.414 0 0111.51 17.552 53.227 53.227 0 013.85 20.636 32 32 0 01-32 32 32 32 0 01-32-32c-.06-1.789.34-3.563 1.15-5.159.81-1.596 2-2.963 3.48-3.974a10.664 10.664 0 0110.19-1.017c1.32.557 2.51 1.376 3.51 2.407a10.68 10.68 0 012.28 3.593c.52 1.331.76 2.752.72 4.18 0 2.83 1.12 5.544 3.12 7.545a10.697 10.697 0 007.55 3.125c2.83 0 5.54-1.124 7.54-3.125a10.637 10.637 0 003.13-7.545 31.999 31.999 0 00-32-32 31.999 31.999 0 00-32 32 53.337 53.337 0 0015.62 37.71 53.336 53.336 0 0037.71 15.62c14.14 0 27.71-5.619 37.71-15.62a53.337 53.337 0 0015.62-37.71 74.736 74.736 0 00-21.89-52.776 74.731 74.731 0 00-52.77-21.894v-.03z" fill="#000"/><path d="M912.5 1068.5c32.585 0 59-26.42 59-59 0-32.585-26.415-59-59-59s-59 26.415-59 59c0 32.58 26.415 59 59 59z" fill="#fff" stroke="#000" stroke-width="20" stroke-miterlimit="10"/></g><defs><clipPath id="prefix__clip0_53_29261"><path fill="#fff" d="M0 0h1500v1500H0z"/></clipPath></defs>
      <g clip-path="url(#prefix__clip0_53_26707)"><path d="M1086 1014c0 39.21-75.66 71-169 71-93.336 0-169-31.76-169-71 0-39.241 75.664-101 169-101 93.34 0 169 61.788 169 101z" fill="#ABF"/><path d="M797.83 990.76s-2.26-46.71 35.63-47.76l12.4-.07 3.7 53.67-51.73-5.84zM796.078 999.77h59.58l3.78 54.84-37.21-2.24-13.26-25.18-12.89-27.42z" fill="#C6C6C6"/><path d="M845.859 942.93l34.49 8.62 26.47-3.52 5.08 50.29-56.24 1.45-9.8-56.84z" fill="#C6C6C6"/><path d="M910.488 947.172h68.54l.03 51.15h-67.16l-1.41-51.15zM983.589 944.871l17.001 2.3 24.03 9.66 9.05 28.5-.91 12.99h-53.701l4.53-53.45z" fill="#C6C6C6"/><path d="M849.559 996.602l62.34 1.72 7.38 54.048-59.84 2.24-9.88-58.008zM918.461 999.77h64.2l-8.03 54.84-55.35-2.24-.82-52.6z" fill="#C6C6C6"/><path d="M975.289 994.512l63.171 5.26-6.4 30.408-34.761 26.48-17.86-2.05-4.15-60.098z" fill="#C6C6C6"/><path d="M797.489 985.841c-1.87-27.17 21.28-47.59 48.37-42.91 20 3.45 43.93 5.16 69 5.16s48.63-1.84 68.06-5.36c26.511-4.82 52.631 15.6 54.521 42.87l1.08 15.709c2 29.44-20.17 53.3-49.601 53.3h-133.4c-29.43 0-54.94-23.86-57-53.3l-1.03-15.469zM798.352 998.309h234.408M912.512 954.172l6.78 98.198M845.031 947.172l14.26 105.198M979.031 947.172l.26 105.198" stroke="#000" stroke-width="20" stroke-miterlimit="10"/><path d="M830.5 966l2 14m63-13l1 14m-59 37l2 14m60-15l1 14m61-65v15m0 36v18m56-59v6m0 35v7" stroke="#fff" stroke-width="8" stroke-linecap="round"/></g><defs><clipPath id="prefix__clip0_53_26707"><path fill="#fff" d="M0 0h1500v1500H0z"/></clipPath></defs>
      <g clip-path="url(#prefix__clip0_53_25947)"><path d="M500.535 506.546l-86.766 95.707-7.523 25.92-16.551-12.96-123.378 40.875-14.044 29.908 38.117 21.434-11.034 19.939-6.018 32.899 69.212 2.493 20.563-6.979v-23.428l137.422-35.89 281.864-43.866 203.123-20.437 163.498 6.48-33.6-56.826-44.64-50.844-54.16-42.37-85.264-40.376-123.88-18.942-155.477 10.468-151.464 66.795z" fill="#FF9C07"/><path d="M694 440.501c-103.2 71.6-160.666 198.166-176.5 252.5L370 722.5l-9.5 37.5-89-3.5 41-55c-25.333 4.833-73.8 8.7-65-14.5 8.8-23.2 106.334-58 154-72.5 21.167-27.666 81.2-92.799 152-131.999 70.8-39.2 123.167-44.334 140.5-42z" fill="#001647" fill-opacity=".2"/><path d="M365.792 728.466c72.883-19.54 500.224-129.064 779.298-89.346a6.808 6.808 0 006.69-2.99 6.798 6.798 0 001.14-3.625 6.771 6.771 0 00-1.01-3.663c-30.29-49.757-159.878-231.859-425.302-199.957-291.002 34.953-357.366 241.26-369.322 291.436a6.753 6.753 0 00.09 3.482 6.788 6.788 0 001.815 2.979 6.887 6.887 0 006.55 1.675l.051.009z" stroke="#000" stroke-width="20" stroke-miterlimit="10" stroke-linecap="round"/><path d="M383.466 645.541s-81.54 45.161-109.476 97.86a10.079 10.079 0 00-1.194 4.686 10.226 10.226 0 001.124 4.705 10.135 10.135 0 003.2 3.649 10.065 10.065 0 004.524 1.765c15.417 1.993 52.882 5.981 78.46 1.565l6.019-31.902" stroke="#000" stroke-width="20" stroke-miterlimit="10" stroke-linecap="round"/><path d="M397.098 616.6s-103.267 16.948-146.529 61.012a10.068 10.068 0 00-1.338 12.529 10.14 10.14 0 003.213 3.163 81.476 81.476 0 0051.308 11.744" stroke="#000" stroke-width="20" stroke-miterlimit="10" stroke-linecap="round"/></g><defs><clipPath id="prefix__clip0_53_25947"><path fill="#fff" d="M0 0h1500v1500H0z"/></clipPath></defs>
      
    </g>
    </svg>