<svg
      xmlns="http://www.w3.org/2000/svg"
      preserveAspectRatio="xMidYMin meet"
      fill="none"
      viewBox="0 0 1500 1500"
    >
      <g>
      <path fill="url(#prefix__paint0_linear_53_28788)" d="M0 0h1500v1500H0z"/><defs><linearGradient id="prefix__paint0_linear_53_28788" x1="0" y1="0" x2="1500" y2="1500" gradientUnits="userSpaceOnUse"><stop stop-color="#DBE4E4"/><stop offset="1" stop-color="#A7BDBD"/></linearGradient></defs>
      <g clip-path="url(#a)"> <path fill="#265CC2" d="M1263 1505H289.3l3.8-71.6 22.1-107.3 29.8-113.6 66.5-84.5s26.3-20.9 91-49 216.5-35.5 216.5-35.5 186.3-12 339.5 47.5c164.5 50 204.5 414 204.5 414Z"/> <path fill="#FFBF44" d="m1153.1 1155.8-30.5-31.4s13.1-22.7 32.4 0a963.3 963.3 0 0 0 29.8 33.6l8.3 13v20.8l-11.1 9.2-28.9-45.2Zm-794.9 20.6s-18.6-13.3.6-38c19.3-24.9 36.9-37.4 36.9-37.4l18.8 1 9.1 5.9L367 1183l-8.8-6.6Z"/> <path fill="#3A3A3A" d="m783.8 1500 2.5-231.5-27.8-13.9 53.1-64.4 54 68.2-23.8 12.8 31.4 105L909 1500H784Z"/> <path stroke="#000" stroke-miterlimit="10" stroke-width="20" d="m754.6 1259.7 10 4.3a111.4 111.4 0 0 0 88.6 0l10-4.3"/> <path fill="#000" d="M905.7 1500 835 1275.7l19.3-5.2 72.2 229.3h-20.8Z"/> <path stroke="#000" stroke-miterlimit="10" stroke-width="20" d="m1184.8 1206 2.3-1.5a30.3 30.3 0 0 0 8.4-42 301 301 0 0 0-33.4-41.3 30.2 30.2 0 0 0-34.3-6.7 30.5 30.5 0 0 0-10 7.2M358 1183.5a30.3 30.3 0 0 1-4.8-44.1c11.5-13.5 24.2-26 38-37.2a30.4 30.4 0 0 1 42.6 4.4l1.7 2.1M780.6 1500l1.9-226.8"/> <path fill="#FFBF44" d="m1019.4 1385.5-29.4-15.7-27 19.7a3 3 0 0 1-3.3.1 3 3 0 0 1-1.4-3l5.8-32.9-26.8-19.5a3 3 0 0 1 1.4-5.4l32.7-4.7 10.3-31.7a3 3 0 0 1 2.6-1.9c.6 0 1.1 0 1.6.3.6.3 1 .7 1.3 1.2l14.6 30h33a3 3 0 0 1 1.7.5c.5.3 1 .8 1.1 1.4.3.5.3 1.1.2 1.7-.1.6-.4 1.1-.8 1.5l-23.7 23.2 10.4 31.7a3 3 0 0 1 0 1.7 3 3 0 0 1-2.5 2.1 3 3 0 0 1-1.8-.2v-.1Z"/> <path stroke="#000" stroke-linecap="round" stroke-width="20" d="M289.5 1512.5c-6-101.5 31-323 140.5-398 158.5-108.5 616.5-87 706.5 26 65 81.5 99.5 222.5 132.5 371M1084.5 1337c12.3 37 29.5 110.3 43.5 175.5m-646.5 0c.3-32.8 7.7-107.6 20.5-157"/> <path fill="#001647" fill-opacity=".2" d="m342.5 1159.6 67.4-65.5 23.6 22.4-35 28-30.5 42-25.5-27Z"/> <path fill="#1F4B9F" d="m467.6 1110.5 7.4-39 62.5-15.5 72-5.5 53-8h147l104.5 8 107 8.1 53.6 19-3.8 40.8-21.3 55-90.7 68.1-76.5 24.3-62.8-69.8a20 20 0 0 0-31.6 2.5l-44 67.3-58.9 2.7-143.7-46.2-68.6-65.1-5.1-46.7Z"/> <path stroke="#000" stroke-width="20" d="M535 1214c-83.6-40.4-76.5-113.2-62.5-144.5 266-49.2 513.5-20.2 604 .5 21.4 119.7-113.1 181.3-188.3 198.7-3.5.9-7.2-.4-9.6-3.2l-54.1-62.5a21 21 0 0 0-32.3.6l-50 62.4c-2 2.5-5 4-8.3 3.7A610.8 610.8 0 0 1 535 1214Z"/> <path fill="#001647" fill-opacity=".2" d="M489 1227.5c-82.4 87.6-103 222.5-103 279h-97l5.5-106.5c6.7-44.8 30.2-150.7 71-215.5 40.8-64.8 83-83 99-84l9-27h22l52.5-13 150-15h113.5c-160.4 46.4-265.5 121.3-298 153l120 56.5 103 23.5c-123.6 19.6-216.5-25.8-247.5-51Zm374.4 51.8A467.2 467.2 0 0 1 793 1201l21-6 74.5 78c-8.6 4.5-14.4 7-18 8-2.5.9-5.1 0-7.1-1.7Zm-99.9 2.7c-8.4-2.8-18.2-8.5-22-11l5-8.5H774l58.5 7c10.5 3 27.6 10.5 12 16.5a113 113 0 0 1-36 7.5l-3 212L758 1516l5.5-234Z"/> </g> <defs> <clipPath id="a"> <path fill="#fff" d="M0 0h1500v1500H0z"/> </clipPath> </defs>
      <g clip-path="url(#prefix__clip0_299_662)"><path d="M775 1185c231.41 0 419-168.12 419-375.5 0-207.383-187.59-375.5-419-375.5-231.407 0-419 168.117-419 375.5 0 207.38 187.593 375.5 419 375.5z" fill="#ABF"/><path d="M457.5 796c7.6 194 131.833 327.5 193 370l-130-55.5L438 1034l-57.5-89.5-27-106 11-104L394 662l45-82.5 83.5-69.5 109-54.182 28.5-1C569.452 513.314 451.119 633.132 457.5 796z" fill="#001647" fill-opacity=".2"/><path d="M775 1185c231.41 0 419-168.12 419-375.5 0-207.383-187.59-375.5-419-375.5-231.407 0-419 168.117-419 375.5 0 207.38 187.593 375.5 419 375.5z" stroke="#000" stroke-width="20"/></g><defs><clipPath id="prefix__clip0_299_662"><path fill="#fff" d="M0 0h1500v1500H0z"/></clipPath></defs>
      <g clip-path="url(#prefix__prefix__clip0_53_29477)"><path d="M1046 825a40.998 40.998 0 0037.88-25.31 41.043 41.043 0 002.33-23.689 40.939 40.939 0 00-11.22-20.992 40.99 40.99 0 00-44.68-8.888 40.977 40.977 0 00-18.4 15.101 40.996 40.996 0 005.1 51.769A41.006 41.006 0 001046 825z" fill="#000"/><path d="M729.63 808.821l88.08-16a7.737 7.737 0 006.23-6.4 7.757 7.757 0 00-.73-4.64 7.674 7.674 0 00-3.27-3.35l-82.39-43.72m99.27 256.728c38.57 39.211 113.35 39.211 151.93 0" stroke="#000" stroke-width="20" stroke-miterlimit="10" stroke-linecap="round"/></g><defs><clipPath id="prefix__prefix__clip0_53_29477"><path fill="#fff" d="M0 0h1500v1500H0z"/></clipPath></defs>
      <g clip-path="url(#prefix__clip0_53_27180)"><path d="M1188 710.07v127.27h-29.81v29.85h-29.8V897H979.27v-29.81h-29.81v-29.85H919.6v-89.46h-31.28v89.46h-29.81v29.85H828.7V897H679.58v-29.81h-29.85v-29.85h-29.81v-89.46H360.81v-37.81H1188z" fill="#000"/><path d="M1038.88 837.35h-29.8v29.81h29.8v-29.81zM1009.06 807.53h-29.8v29.81h29.8v-29.81zM979.26 777.73h-29.8v29.81h29.8v-29.81zM739.18 837.35h-29.8v29.81h29.8v-29.81zM709.39 807.53h-29.81v29.81h29.81v-29.81zM679.52 777.73h-29.8v29.81h29.8v-29.81z" fill="#fff"/></g><defs><clipPath id="prefix__clip0_53_27180"><path fill="#fff" d="M0 0h1500v1500H0z"/></clipPath></defs>
      <g clip-path="url(#prefix__clip0_53_29660)"><path d="M1186 699.12s9.64 29.47 12.46 49.78l5.49 5.53s10.52-4.45 17-7.86a139.23 139.23 0 0017.2-10.53c3.7-2.82 11.12-8 11.41-9.27.29-1.27 1.44-12.95.83-14.34-.61-1.39-.68-2-11.88-7.83a206.613 206.613 0 00-23-9.78c-1.63-.74-26.39-3.41-26.39-3.41l-3.12 7.71zM362.69 914.781l-1.91-6.78s-9.39-28.19-13.14-64.29l-16.37 1s-16.93 9.73-24.8 17.26c-7.87 7.53-26.69 25.32-27.89 26.18-1.2.86-3.59 1.88 0 6s7 11.12 14.54 12.83c7.54 1.71 20.53 4.79 28.74 5 8.21.21 25.32-.85 28.91-.34s11.92 3.14 11.92 3.14z" fill="#A760FF"/><path d="M276.36 892.872l5.15-57.711s19.71-62.819 22.75-74.129c3.04-11.31 8.7-32.2 15.23-44.81 6.53-12.61 12.18-23.93 19.58-37.85 7.4-13.92 13.42-31.37 16.93-35.68 3.51-4.31 8.3-19.14 8.3-19.14V434.5l10.201-35 197.319-84.408 188.38-35.24h212.31L990.501 303 1073 493.902l94.73 84.68s15.77 29.26 17.08 31c1.31 1.74 9.22 10.47 9.18 13.51-.04 3.04 4.31 7.84 6 10.45 1.69 2.61 8.7 10 10.44 12.61 1.74 2.61 8.7 10 11.31 14.8 2.61 4.8 3.48 4.78 6.09 11.74s3.92 9.57 7 17.4c3.08 7.83 5.22 12.62 5.22 12.62s-8.26 2.61-13.49 0-64.82-17.4-77-20.88c-12.18-3.48-12.18-3.92-34.37-3.48-22.19.44-48.29.87-53.51.43-5.22-.44-50.47-.87-67-1.3-16.53-.43-36.55-.44-36.55-.44l-96.58 6.53s-54 4.35-76.57 6.52c-22.57 2.17-47.86 7-57 10s-2.61 3.92-43.94 10-159.23 46.11-159.23 46.11l-109.61 43.98-83.53 39.59-29.58 23.5-25.73 29.6z" fill="#A760FF"/><path d="M347.5 839c4 46 12.333 70.833 16.5 77.5l-72-4.5-14-16.5 3.5-74.5 25.5-90.5 57-101-3.5-40 4-174.5 30.5-21.5 103-43c-20.8 90.4 2.333 194.667 16.5 235.5L742 525.5l129-8c31.5-2 97.7-5.2 110.5-2 9.221 2.305 9.308 6.998 7.141 10.75-1.583 2.741-4.867 3.739-8.033 3.749-47.475.142-158.531 4.629-261.608 22.001-106.8 18-197.167 53.833-229 69.5-30 43.2-60.167 133-71.5 172.5l-71 45zM1238 737l-37 23c-10.14-51.813-16.66-65.682-19.08-66.5l2.58-7.5 53.5 20.5 12 14.5-12 16z" fill="#001647" fill-opacity=".2"/><path d="M784.253 378.07l-58.503-31.504 7.931 27.078-61.739 10.549 7.264 24.786 61.739-10.549 7.93 27.078 35.378-47.438zm-134.264 61.928l-7.931-27.078-35.463 47.559 58.578 31.364-7.897-26.964 61.739-10.548-7.29-24.895-61.736 10.562z" fill="#fff"/><path d="M373.46 917.089h-4.68c-56.19-.07-90.26-6.42-92.68-19.56-6.33-34.45 190.66-148.001 460.41-197.561s510.1-16.39 516.43 18.06c2.19 11.92-22 27.87-65.63 45.69" stroke="#000" stroke-width="20" stroke-miterlimit="10"/><path d="M276.1 897.541l1-17.88a499.357 499.357 0 0181.09-246.72 24.225 24.225 0 003.89-15.35l3.69-190.4a30.898 30.898 0 0116.44-28.53l22.51-11.9c179.675-83.744 337.78-120.151 535.49-105.76l25.27 3.12a30.913 30.913 0 0125.52 20.88l81.9 182.72a24.306 24.306 0 008.74 11.85 499.295 499.295 0 01164 202.15l7.27 16.37" stroke="#000" stroke-width="20" stroke-miterlimit="10"/><path d="M452.22 609.6c169.082-69.754 347.944-103.167 530.779-98.07" stroke="#000" stroke-width="20" stroke-miterlimit="10" stroke-linecap="round"/></g><defs><clipPath id="prefix__clip0_53_29660"><path fill="#fff" d="M0 0h1500v1500H0z"/></clipPath></defs>
      
    </g>
    </svg>