<svg
      xmlns="http://www.w3.org/2000/svg"
      preserveAspectRatio="xMidYMin meet"
      fill="none"
      viewBox="0 0 1500 1500"
    >
      <g>
      <path fill="url(#prefix__a1)" d="M0 0h1500v1500H0z"/><defs><linearGradient id="prefix__a1" x1="0" y1="0" x2="1500" y2="1500" gradientUnits="userSpaceOnUse"><stop stop-color="#57ECFF"/><stop offset="1" stop-color="#4E41EE"/></linearGradient></defs>
      <g clip-path="url(#prefix__clip0_53_28724)"><path d="M288.689 1505.57l13.36-113.94 184.06 50.77-2.67 63.17h-194.75zM1108.09 1432.16l14.41 71.69h142.41l-32.7-113.79-124.12 42.1z" fill="#ABF"/><path d="M303.471 1382.79L325 1260l56-105.5s64.91-55.22 110.5-71c0 0 87.12-38.32 292.5-41 205.38-2.68 276 52.5 276 52.5l58.65 30.23 39.22 52.98 39.13 78.97 38.22 131.86-127.13 39.32 14.41 72.47-643.659 1.15 7.27-66.62-182.64-52.57z" fill="#FF6247"/><path d="M500.002 1213.5c-101.2 100-117.834 249-113.5 311l-99.502-13c-1.6-110.8 39-247.5 59.5-302l39.501-52.5 15.5-20.5 66.5-42.5c149.6-59.6 294-54.83 347.5-45-63 13.17-214.299 64.5-315.499 164.5z" fill="#001647" fill-opacity=".2"/><path d="M825.82 1451.4l45.14-36.92-63.72-69.17-62.55 51.19-87.69-95.16 30.9-25.34 64 69.42 62.53-51.13 87.53 94.78 45.18-36.92-14.09 100.13-107.23-.88z" fill="#fff"/><path d="M289.5 1512.5c-1.965-33.24.683-79.37 8.981-129m970.519 128c-9.49-42.7-19.11-84.78-29.54-125M1084.5 1337c7.13 21.39 15.88 54.92 24.69 92m18.81 83.5c-5.91-27.5-12.37-56.45-18.81-83.5m-627.69 83.5c.172-16.93 2.213-45 5.905-75m14.595-82c-6.201 23.93-11.126 53.81-14.595 82m-188.924-54c17.035-101.9 57.885-218.59 131.519-269 158.5-108.51 616.5-87 706.5 26 46.24 58.07 77.1 146.33 102.96 246m-940.979-3l188.924 54m621.785-8.5l130.27-42.5" stroke="#000" stroke-width="20" stroke-linecap="round"/></g><defs><clipPath id="prefix__clip0_53_28724"><path fill="#fff" d="M0 0h1500v1500H0z"/></clipPath></defs>
      <g clip-path="url(#prefix__clip0_299_662)"><path d="M775 1185c231.41 0 419-168.12 419-375.5 0-207.383-187.59-375.5-419-375.5-231.407 0-419 168.117-419 375.5 0 207.38 187.593 375.5 419 375.5z" fill="#ABF"/><path d="M457.5 796c7.6 194 131.833 327.5 193 370l-130-55.5L438 1034l-57.5-89.5-27-106 11-104L394 662l45-82.5 83.5-69.5 109-54.182 28.5-1C569.452 513.314 451.119 633.132 457.5 796z" fill="#001647" fill-opacity=".2"/><path d="M775 1185c231.41 0 419-168.12 419-375.5 0-207.383-187.59-375.5-419-375.5-231.407 0-419 168.117-419 375.5 0 207.38 187.593 375.5 419 375.5z" stroke="#000" stroke-width="20"/></g><defs><clipPath id="prefix__clip0_299_662"><path fill="#fff" d="M0 0h1500v1500H0z"/></clipPath></defs>
      <g clip-path="url(#prefix__clip0_53_29287)"><path d="M764.05 841.24c31.336 0 56.74-25.404 56.74-56.74 0-31.337-25.404-56.74-56.74-56.74-31.337 0-56.74 25.403-56.74 56.74 0 31.336 25.403 56.74 56.74 56.74zM1048.19 841.24c31.34 0 56.74-25.404 56.74-56.74 0-31.337-25.4-56.74-56.74-56.74-31.34 0-56.74 25.403-56.74 56.74 0 31.336 25.4 56.74 56.74 56.74z" fill="#fff" stroke="#000" stroke-width="20" stroke-miterlimit="10"/><path d="M746.05 779.5c7.18 0 13-5.82 13-13s-5.82-13-13-13-13 5.82-13 13 5.82 13 13 13zM1066.19 779.5c7.18 0 13-5.82 13-13s-5.82-13-13-13-13 5.82-13 13 5.82 13 13 13z" fill="#000"/><path d="M831.28 968.721h168.82a5.495 5.495 0 015.5 5.5 89.318 89.318 0 01-89.32 89.319h-1.18a89.323 89.323 0 01-63.159-26.16 89.322 89.322 0 01-26.161-63.159 5.5 5.5 0 015.5-5.5z" fill="#fff" stroke="#000" stroke-width="20" stroke-miterlimit="10"/></g><defs><clipPath id="prefix__clip0_53_29287"><path fill="#fff" d="M0 0h1500v1500H0z"/></clipPath></defs>
      <g clip-path="url(#prefix__clip0_53_26967)"><path d="M732.51 716.382a.135.135 0 00.059.011.129.129 0 00.057-.019.113.113 0 00.04-.044.108.108 0 00.014-.058c-.06-3.15 0-44.08 43-42 0 0 36.07 2.11 40.57 41.22a.12.12 0 00.17.1c2.54-1.13 38.11-16.18 57.7 13.29 19.59 29.47-10.28 56.51-12.25 58.22a.13.13 0 000 .18c2 1.86 33.67 28.35 16.711 57.94-16.96 29.59-54 16.2-56.56 15a.111.111 0 00-.161.09c-.42 2.79-6.86 41.59-40.73 43-33.87 1.41-44.86-36.09-45.57-38.67a.111.111 0 00-.022-.045.117.117 0 00-.04-.03.141.141 0 00-.049-.009.112.112 0 00-.048.014c-2.36 1.15-36.651 17.15-57.701-14.5-21.05-31.65 7.131-55.44 9.141-57.07a.116.116 0 00.034-.039.113.113 0 00-.034-.141c-2.05-1.74-31.9-28-11-61.24 19.98-31.71 53.949-16.48 56.669-15.2zM1031.34 715.128c.02.011.04.018.06.018.02.001.04-.005.06-.015.01-.01.03-.026.04-.044a.117.117 0 00.01-.059c0-3.16 1.3-44.07 44.21-40.72 0 0 36 3.16 39.35 42.39 0 .018.01.036.02.051s.02.028.04.038c.01.01.03.016.05.018.01.002.03-.001.05-.007 2.58-1 38.57-15.06 57.3 15 18.73 30.06-11.93 56.18-14 57.84a.29.29 0 00-.03.041c-.01.015-.01.032-.01.049s0 .034.01.05c.01.015.02.029.03.04 1.92 1.91 32.83 29.31 15 58.41-17.83 29.1-54.44 14.61-57 13.32-.02-.01-.03-.016-.05-.018a.14.14 0 00-.06.01c-.01.008-.03.021-.04.036a.098.098 0 00-.02.052c-.5 2.78-8.07 41.37-42 41.82-33.93.45-43.78-37.39-44.42-40 0-.016-.01-.031-.02-.044-.01-.013-.03-.024-.04-.032-.02-.007-.03-.011-.05-.012a.125.125 0 00-.05.008c-2.39 1.09-37.13 16.08-57.25-16.17-20.12-32.25 8.75-55.21 10.8-56.78a.107.107 0 00.046-.09.116.116 0 00-.012-.051.116.116 0 00-.034-.039c-2-1.8-31.07-28.87-9.18-61.53 21-31.16 54.51-14.94 57.19-13.58z" fill="#53B6F9" stroke="#000" stroke-width="20" stroke-miterlimit="10"/><circle cx="1072" cy="789" r="54" fill="#FFBF44" stroke="#000" stroke-width="20"/><circle cx="776" cy="789" r="54" fill="#FFBF44" stroke="#000" stroke-width="20"/><path d="M753.5 733.5c-4.8-37.2 17-50.167 28.5-52-14.8-4.4-31.833 3.5-38.5 8-2.333 3.5-7.5 11.3-9.5 14.5-2.5 4-4 8.5-5.5 9s-21.5 2-22.5 2-26 10.5-26.5 11.5-10 25-10 26c0 .8 4.667 29.333 7 43.5-2.833 6.666-9 21.9-11 29.5-2 7.6 20.5 30.5 32 41l38 2.5 37.5 33.5c19 .5 49.4-.3 19-7.5s-33.667-34.667-31.5-47.5c-1.333-2.834-4.4-8.8-6-10-2-1.5-16.5-17-17-18s-7-11.5-7.5-34c-.4-18 15.5-42.167 23.5-52zM1051.13 733.5c-4.8-37.2 17-50.167 28.5-52-14.8-4.4-35.84 3.5-42.51 8-2.33 3.5-7.5 11.3-9.5 14.5-2.5 4-4 8.5-5.5 9s-21.5 2-22.495 2c-1 0-26 10.5-26.5 11.5s-10 25-10 26c0 .8 4.667 29.333 7 43.5-2.833 6.666-9 21.9-11 29.5-2 7.6 20.5 30.5 32 41l37.995 2.5 37.5 33.5c19 .5 54.4-.3 24-7.5s-33.66-34.667-31.5-47.5c-1.33-2.834-9.4-8.8-11-10-2-1.5-16.5-17-17-18s-7-11.5-7.5-34c-.4-18 19.51-42.167 27.51-52z" fill="#001647" fill-opacity=".2"/><path d="M871.488 797.371s52.42-23.07 104.84 0M370.09 692.07L681 789.5" stroke="#000" stroke-width="20" stroke-miterlimit="10"/><path d="M732.51 716.382a.135.135 0 00.059.011.129.129 0 00.057-.019.113.113 0 00.04-.044.108.108 0 00.014-.058c-.06-3.15 0-44.08 43-42 0 0 36.07 2.11 40.57 41.22a.12.12 0 00.17.1c2.54-1.13 38.11-16.18 57.7 13.29 19.59 29.47-10.28 56.51-12.25 58.22a.13.13 0 000 .18c2 1.86 33.671 28.35 16.711 57.94-16.96 29.59-54 16.2-56.56 15a.111.111 0 00-.161.09c-.42 2.79-6.86 41.59-40.73 43-33.87 1.41-44.86-36.09-45.57-38.67a.111.111 0 00-.022-.045.117.117 0 00-.04-.03.141.141 0 00-.049-.009.112.112 0 00-.048.014c-2.36 1.15-36.651 17.15-57.701-14.5-21.05-31.65 7.131-55.44 9.141-57.07a.116.116 0 00.034-.039.113.113 0 00-.034-.141c-2.05-1.74-31.9-28-11-61.24 19.98-31.71 53.949-16.48 56.669-15.2zM1031.34 715.128c.02.011.04.018.06.018.02.001.04-.005.06-.015.01-.01.03-.026.04-.044a.117.117 0 00.01-.059c0-3.16 1.3-44.07 44.21-40.72 0 0 36 3.16 39.35 42.39 0 .018.01.036.02.051s.02.028.04.038c.01.01.03.016.05.018.01.002.03-.001.05-.007 2.58-1 38.57-15.06 57.3 15 18.73 30.06-11.93 56.18-14 57.84a.29.29 0 00-.03.041c-.01.015-.01.032-.01.049s0 .034.01.05c.01.015.02.029.03.04 1.92 1.91 32.83 29.31 15 58.41-17.83 29.1-54.44 14.61-57 13.32-.02-.01-.03-.016-.05-.018a.14.14 0 00-.06.01c-.01.008-.03.021-.04.036a.098.098 0 00-.02.052c-.5 2.78-8.07 41.37-42 41.82-33.93.45-43.78-37.39-44.42-40 0-.016-.01-.031-.02-.044-.01-.013-.03-.024-.04-.032-.02-.007-.03-.011-.05-.012a.125.125 0 00-.05.008c-2.39 1.09-37.13 16.08-57.25-16.17-20.12-32.25 8.75-55.21 10.8-56.78a.107.107 0 00.046-.09.116.116 0 00-.012-.051.116.116 0 00-.034-.039c-2-1.8-31.07-28.87-9.18-61.53 21-31.16 54.51-14.94 57.19-13.58z" stroke="#000" stroke-width="20" stroke-miterlimit="10"/><circle cx="776" cy="789" r="54" stroke="#000" stroke-width="20"/><circle cx="1072" cy="789" r="54" stroke="#000" stroke-width="20"/></g><defs><clipPath id="prefix__clip0_53_26967"><path fill="#fff" d="M0 0h1500v1500H0z"/></clipPath></defs>
      <g clip-path="url(#prefix__clip0_53_26339)"><path d="M1294.36 589.74c21.14 26.76 22.63 46.39 25.92 73.14 3.56 28.84-.01 57.69-25.92 85.99-21.28 23.26-51.52 36.3-91.11 55.87.99-14.52-1-35.25-3.88-50.75 26.43-18.93 47.28-17.44 42.91-53.12-4.19-33.96-36.25-46.42-98.91-61.87l-201.05-19.15-232 20.5-294.5 59.5-64.5 33 .46-7c-53.43 29.1-70.64 50.43-66.57 83.65 3.43 27.8 19.18 22.03 63.18 39.38 3.67 25.62 9.9 53.19 13.81 62-109.44-27.14-143.21-51.93-149.88-106-3.3-26.75 1.42-71.2 26.5-100 25.63-29.36 43.06-40.24 93.63-66.91a733.43 733.43 0 0125.83-13L399.501 593l61-107.5 117.5-209.5-233.5 85c-20.167 3.667-55.9.9-37.5-39.5s160.333-133.5 229-175l98.5-92c22-15.833 72.8-36.3 100 8.5 27.2 44.8 84 153.667 109 202.5 7.333-4.167 27.5-2.7 49.5 36.5s77.167 91.333 102 112.5l91.999 86-12.72 7.34 7.91 12.55a826.4 826.4 0 0120.61 3.13c.94.274 1.91.436 2.89.48 19.74 3.333 38.7 7.22 56.88 11.66 55.53 13.61 99.87 31.81 131.79 54.08z" fill="#53B6F9"/><path d="M572.28 524.39L544 506.7l-28.28 17.69a2.995 2.995 0 01-3.321-.134 2.997 2.997 0 01-1.159-3.116l8.09-32.36-25.26-21.42a3.004 3.004 0 01-.914-3.213 3.002 3.002 0 012.624-2.067l33-2.3 12.47-30.94a3.126 3.126 0 012.77-1.684 3.118 3.118 0 012.77 1.684l12.47 30.94 33 2.3a3.005 3.005 0 012.625 2.067 3.002 3.002 0 01-.915 3.213l-25.26 21.42 8.09 32.36a2.999 2.999 0 01-4.52 3.25zM734 411.709l-15.64-29.46-33.36 1.19a3 3 0 01-2.26-5.06l23.19-24-11.17-31.18a3.001 3.001 0 014.12-3.71l29.7 14.51 26.27-20.56c1.92-1.5 5.13.36 4.8 2.78l-4.67 33 27.41 18.48a3.004 3.004 0 011.242 3.104 2.993 2.993 0 01-2.402 2.326l-32.59 5.92-9.17 32.07a3.002 3.002 0 01-4.273 1.792 2.997 2.997 0 01-1.237-1.222l.04.02zM890.1 490.36l9.9-31.85-24.33-22.82a2.996 2.996 0 012-5.17l33.35-.44 14.26-29.9a2.996 2.996 0 012.873-1.701 3.007 3.007 0 012.667 2.011l10.64 31.29 33.1 4.16a3.121 3.121 0 011.44 5.36l-26.73 20 6.2 32.47a3.007 3.007 0 01-1.329 3.056 2.997 2.997 0 01-3.331-.056l-27.17-19-29.22 16.08a3.002 3.002 0 01-4.29-3.5l-.03.01zM733 211.709l-15.64-29.46-33.36 1.19a3 3 0 01-2.26-5.06l23.19-24-11.17-31.18a3.001 3.001 0 014.12-3.71l29.7 14.51 26.27-20.56c1.92-1.5 5.13.36 4.8 2.78l-4.67 33 27.41 18.48a3.004 3.004 0 011.242 3.104 2.993 2.993 0 01-2.402 2.326l-32.59 5.92-9.17 32.07a3.002 3.002 0 01-4.273 1.792 2.997 2.997 0 01-1.237-1.222l.04.02zM427 333.709l-15.64-29.46-33.36 1.19a3 3 0 01-2.26-5.06l23.19-24-11.17-31.18a3.001 3.001 0 014.12-3.71l29.7 14.51 26.27-20.56c1.92-1.5 5.13.36 4.8 2.78l-4.67 33 27.41 18.48a3.004 3.004 0 011.242 3.104 2.993 2.993 0 01-2.402 2.326l-32.59 5.92-9.17 32.07a3.002 3.002 0 01-4.273 1.792 2.997 2.997 0 01-1.237-1.222l.04.02z" fill="#fff"/><path d="M348.42 846.281c-25.82-10.39-61.32-31-63.07-43.16-.89-6.19 1.63-13.14 7.48-20.65 5.68-7.28 38.42-30.19 60.64-43.17 0 0-11.96 53.49-5.05 106.98zM1198.06 746.151c-4.93-27.29-14.85-57.46-26-82.85 34.65 12.3 55.07 12.7 56.76 24.46 16.91 38.14-11.23 44.1-30.76 58.39z" fill="#4296D5"/><path d="M585 540.001c-24.8 49.2-22.666 106.833-18.5 129.5-95.999 16.001-181 50.666-211.5 65.999l-55 36-6.5 38.5 23 21.5 31 11.5 4 11.5 10.5 50-45.5-12.5-58.5-26-38.5-56-9.5-33.5 9.5-35.5 33.5-52 135-84.5 134.5-220 53-110.5c-67.667 27.667-208.9 85.2-232.5 94-23.6 8.8-38.5-21.667-43-38l43-34.5c28.333-8.666 95.6-32.499 138-58.499 53-32.5 104-57 147.5-42.5s24.5 96.5-35 196.5c-47.6 80-54.5 138-52 157l43.5-8zM725 301c-12.8 1.2-15.667 5.5-15.5 7.5l15.5 4c6.333-.333 24-2.5 44-8.5 25-7.5 72.5-34 73.5-33.5S824 240 820.5 241c-3.405.973-14.381 9.99-27.865 21.067L791.5 263c-14 11.5-50.5 36.5-66.5 38z" fill="#001647" fill-opacity=".2"/><path d="M357.36 851.001c-41.74-13-65-25.49-68.05-46.62-9.31-65.15 196-140.45 458.69-168.13 262.69-27.68 483.27 2.62 492.64 67.76 3 21-13.55 30.71-49.42 47.09M1109 516.591s-167.34-116.29-222.73-237.36a26.983 26.983 0 00-7.543-9.775 26.99 26.99 0 00-23.452-5.283 27.005 27.005 0 00-11.005 5.598c-25.9 21.87-69.49 47.74-128.86 44.9" stroke="#000" stroke-width="20" stroke-miterlimit="10" stroke-linecap="round"/><path d="M844.27 269.77L731.57 66.18a55.588 55.588 0 00-85.12-15L311.51 316.06c-22.8 19.83-2.67 56.79 26.36 48.38l240.24-90.12M387.05 604s188-291.12 208.11-366.93" stroke="#000" stroke-width="20" stroke-miterlimit="10" stroke-linecap="round"/><path d="M370.5 912.5C276 893 221.2 849.67 213.62 788.11c-14.27-115.64 221.25-239.75 526-277.3 304.75-37.55 563.41 25.85 577.67 141.48 7.6 61.7-12.64 102.12-119.81 154.21" stroke="#000" stroke-width="20" stroke-miterlimit="10"/></g><defs><clipPath id="prefix__clip0_53_26339"><path fill="#fff" d="M0 0h1500v1500H0z"/></clipPath></defs>
      
    </g>
    </svg>