<svg
      xmlns="http://www.w3.org/2000/svg"
      preserveAspectRatio="xMidYMin meet"
      fill="none"
      viewBox="0 0 1500 1500"
    >
      <g>
      <path fill="url(#prefix__paint0_linear_53_30463)" d="M0 0h1500v1500H0z"/><defs><linearGradient id="prefix__paint0_linear_53_30463" x1="1500" y1="1500" x2="0" y2="0" gradientUnits="userSpaceOnUse"><stop stop-color="#FF5A5A"/><stop offset="1" stop-color="#FFBDBD"/></linearGradient></defs>
      <g clip-path="url(#prefix__clip0_53_27893)"><path d="M460.5 1094.5c-138.4 66.4-174 309.33-174.5 422.5h983.5c-12.5-72.17-53.2-244.1-116-354.5-78.5-138-520-151-693-68z" fill="#ABF"/><path d="M1122 1500H482.719s14.6-102.81 14.89-104.16c.16-.75 5.35-20.38 9.88-37.48 3.54-13.39 2.68-25.22 2.68-25.22l-3-41.2-13.59-80.17s-35.41-62.15-46.49-85.15c-1.163-2.27-3.185-8.61-4.06-11-.24-.75-.3-1.21-.16-1.35a56.197 56.197 0 017.23-4.17c4.75-2.53 11.27-5.85 17.94-9.21 14-7 29.51-13.16 29.51-13.16l.82.49L526 1080.5l85-22.5 22 68.5 27.999 47.96 5.58 5.39s-7.079 1.65 0 .09c.09.44.55 2.47 1.49 5.71l.18.63c.12.43.26.88.4 1.35 0 .12.07.23.11.35-6.759 1.13.19.64.29 1a.565.565 0 000 .13c3.006 9.48 15.138 18.57 20.31 27.07 13 21.59 36.75 47.51 81.14 73.38 1.44.84 2.904 1.68 4.39 2.52.468.49.811 1.08 1 1.73 1.46 3.51 3.32 11 4.65 11.2 0 0 40.23 23 40.26 23l.61.06c4.465.53 8.98.44 13.42-.26 32.63-5.36 34.42-46.34 49.23-59.56.21-.18.41-.37.61-.56 14.4-13.07 19.65-26.22 19.65-26.22l4-23.61 3.93-23 12.251-45.36 11.5-88 54.5 10.5 42 12.5 16.74 2.21.5-.32 1.59 1 .35.23 17.57 11.28 8.36 5.37-.11 4.47v.74l-6.93 171.5-.49 19.75 11.26 39.08 17.84 61.93L1122 1500z" fill="#FF6247"/><path d="M763.124 1587.71c-11.057-10.18-17.837-24.68-20.341-43.52l-12.773-96.2c-2.678-20.17-.031-35.54 7.941-46.12 7.971-10.58 21.263-15.87 39.875-15.87 18.764 0 33.538 5.29 44.322 15.87 10.785 10.58 17.516 25.95 20.193 46.12l12.785 96.25c2.519 18.99-.408 33.53-8.78 43.64s-21.607 15.15-39.705 15.12c-17.955-.03-32.46-5.13-43.517-15.29zm45.377-28.26a16.412 16.412 0 001.588-10.26l-13.942-105.2c-.805-6.11-2.133-10.79-3.948-14.02-1.815-3.22-4.889-4.83-9.166-4.83s-6.863 1.61-7.748 4.83c-.885 3.23-.93 7.91-.125 14.02l13.954 105.12a20.75 20.75 0 004.208 10.26 10.232 10.232 0 003.536 3.15c1.41.75 2.978 1.16 4.576 1.19a7.702 7.702 0 004.16-1.09 7.744 7.744 0 002.919-3.17h-.012zM890.216 1437.04a24.615 24.615 0 01-10.625 8.42 33.793 33.793 0 01-14.046 3.22L861 1414.74a48.764 48.764 0 0020.455-8.67A32.634 32.634 0 00894.5 1388h34.091L957 1601h-44.955l-21.829-163.96zM958.16 1333.32l12.2-23.4 30.36 34h17l-52-58.93-30.72 58.93h57.64l-20.12-22.55-6.24 12-8.12-.05z" fill="#fff"/><path d="M951 1066.5v18c-4 170.5-79.99 232.42-107.82 259.53a20.288 20.288 0 01-25.25 2.51C614 1227.5 601 1076 601 1076l-1.5-15" stroke="#fff" stroke-width="20" stroke-miterlimit="10" stroke-linecap="round"/><path d="M531.14 1371.41c-9.12 44.92-14.91 82.08-18.23 116.94L511.8 1500h-20.05c0-.31 0-.63.05-1l1.2-12.59c3.39-35.59 9.28-73.41 18.54-119 .08-.37.15-.75.22-1.13 9.84-49.47 15-145.34-55.75-245.36a399.48 399.48 0 00-4.19-5.81 9.682 9.682 0 01-.67-1 9.994 9.994 0 01-.944-7.28 10.03 10.03 0 014.284-5.97 9.98 9.98 0 017.203-1.42 9.958 9.958 0 016.237 3.87l1.16 1.59.5.69c1.35 1.85 2.66 3.7 3.95 5.55 74.31 106.23 68.17 208.23 57.6 260.27zM1111.83 1500h-20.25l-10.86-48.68c-7.71-34.55-15.38-65.35-23.46-94.17-16.34-58.81-20.97-119.9-17.63-180.85 1.88-33.39 6.34-57.43 8.73-68.45.89-4.09 1.49-6.38 1.58-6.7.18-.69.45-1.36.78-2a.139.139 0 010-.09 10.02 10.02 0 015.24-4.65c2.25-.87 4.74-.89 7-.07 2.27.82 4.16 2.44 5.34 4.54a10.01 10.01 0 011.04 6.93l-.12.5c0 .06-.39 1.48-1 4.12-.32 1.42-.7 3.2-1.13 5.32-.56 2.79-1.19 6.16-1.86 10.07a467.162 467.162 0 00-5.74 52.24c-3.02 56.71.89 113.54 15.51 168.41.47 1.76.96 3.53 1.45 5.3 6.65 23.69 13 48.7 19.34 76 0 .18.08.36.13.54 1.41 6.12 2.83 12.35 4.25 18.7l8.19 36.68c.06.3.13.6.19.89l3 13.29c.17.7.26 1.41.28 2.13z" fill="#fff"/><path d="M485.5 1201.5c-85.6 92.8-105.334 241.67-104.5 304.5h-92.5l5-77.5 16.5-87 34-110 53-89.5 66.5-44 70-31 80-9.5 12 18c-11.839 5.79 10.003 11.89-2 18.86-41.935 24.34-81.989 53.15-100 67.14 31.5 56 43 144.5 23 243.5-9.101 45.05-11.5 101.17-10.5 125.5l-57-24.5c6-21.17 19.6-82.4 26-158 6.4-75.6-10.334-129.17-19.5-146.5z" fill="#001647" fill-opacity=".2"/><path d="M931.5 1061v10c0 163.5-67.83 223.11-97.03 257.41a7.965 7.965 0 01-5.183 2.75 7.977 7.977 0 01-5.667-1.52C783 1299.29 645 1217 620 1071l-2-13.5" stroke="#000" stroke-width="20" stroke-miterlimit="10" stroke-linecap="round"/><path d="M511.761 1366.3c0 .32 0 .66-.05 1-.22 2.89-14 61.77-19 132.69h-20v-.69a924.796 924.796 0 0119.51-134.6c.57-2.4 2.009-4.51 4.04-5.92a10.042 10.042 0 017.96-1.51c1.105.24 2.181.61 3.21 1.08 3 1.4 4.44 3.71 4.33 7.95zM1132 1500h-20.2c-.55-2.72-1.65-8.14-3.2-15.47-.06-.29-.13-.59-.19-.89-2.91-13.76-7.3-33.87-12.44-55.38 0-.18-.09-.36-.13-.54-6.23-26-13.56-54-20.69-75.23a9.999 9.999 0 016.19-12.63h.1l.39-.11c2.48-.72 5.13-.46 7.42.74a9.996 9.996 0 014.85 5.66c18.25 54.24 36.92 148 37.71 151.94.12.63.19 1.27.19 1.91z" fill="#000"/><path d="M443.891 1118.21s87.82 94.17 57 252.68M1084.46 1348.82c-32.76-108.75-9.81-228.49-9.81-228.49l4.35-17.83" stroke="#000" stroke-width="20" stroke-miterlimit="10" stroke-linecap="round"/><path d="M289.5 1512.5c-6-101.5 31-323.03 140.5-398 158.5-108.51 616.5-87 706.5 26 64.91 81.5 99.5 222.5 132.5 371" stroke="#000" stroke-width="20" stroke-linecap="round"/></g><defs><clipPath id="prefix__clip0_53_27893"><path fill="#fff" d="M0 0h1500v1500H0z"/></clipPath></defs>
      <g clip-path="url(#prefix__clip0_299_662)"><path d="M775 1185c231.41 0 419-168.12 419-375.5 0-207.383-187.59-375.5-419-375.5-231.407 0-419 168.117-419 375.5 0 207.38 187.593 375.5 419 375.5z" fill="#ABF"/><path d="M457.5 796c7.6 194 131.833 327.5 193 370l-130-55.5L438 1034l-57.5-89.5-27-106 11-104L394 662l45-82.5 83.5-69.5 109-54.182 28.5-1C569.452 513.314 451.119 633.132 457.5 796z" fill="#001647" fill-opacity=".2"/><path d="M775 1185c231.41 0 419-168.12 419-375.5 0-207.383-187.59-375.5-419-375.5-231.407 0-419 168.117-419 375.5 0 207.38 187.593 375.5 419 375.5z" stroke="#000" stroke-width="20"/></g><defs><clipPath id="prefix__clip0_299_662"><path fill="#fff" d="M0 0h1500v1500H0z"/></clipPath></defs>
      <g clip-path="url(#prefix__clip0_53_29369)" stroke="#000" stroke-width="20" stroke-miterlimit="10"><path d="M729.63 808.821l88.08-16a7.737 7.737 0 006.23-6.4 7.757 7.757 0 00-.73-4.64 7.674 7.674 0 00-3.27-3.35l-82.39-43.72M1087 808.821l-87.999-16a7.71 7.71 0 01-6.23-6.4 7.784 7.784 0 01.72-4.63 7.65 7.65 0 013.28-3.36l82.389-43.72" stroke-linecap="round"/><path d="M1000 1001.64c0 35-39.4 63.36-88 63.36s-88-28.36-88-63.36a47.358 47.358 0 014.59-20.231c6.41-13.7 21-19 33.42-12.86 14.2 7.07 31.42 11.21 50 11.21s35.79-4.14 50-11.21c12.4-6.18 27-.84 33.42 12.86a47.337 47.337 0 014.57 20.231z" fill="#fff"/></g><defs><clipPath id="prefix__clip0_53_29369"><path fill="#fff" d="M0 0h1500v1500H0z"/></clipPath></defs>
      <g clip-path="url(#prefix__clip0_53_26932)"><path d="M447.622 867.389c15.29-8.12 40.61-15.39 63.47 6.76a33.285 33.285 0 0031.7 8c16.76-4.43 40.91-6.38 58.48 10.76a33.885 33.885 0 0033.5 8.24c17.27-5.22 42-7.38 63.2 12.11a33.3 33.3 0 0033.44 7.09c14.19-4.88 35.588-3.815 51.52 10.07C811 952 830.89 936.6 840.91 927.17c14-13.14 36.29-24.88 66.09-11.41 4.293 1.899-11.781.784-7.087.774a33.524 33.524 0 0013.619-2.925c14.32-6.29 37.75-11.94 60.15 3.23a33.376 33.376 0 0034.668 2c9.95-5.4 23.51-19.6 39.42-16.41a33.679 33.679 0 0017.06-.968 33.677 33.677 0 0014.38-9.212c7-7.64 18.31-14.45 35.72-13 5.99.455 11.99-.733 17.35-3.434a33.016 33.016 0 0013.08-11.896c7.25-11.41 21.15-23.19 47.32-24.45 0 0 21.85 14.24 13.5 47.19a34.058 34.058 0 002.18 22.77c4.23 9.05 7.4 22.51-2.2 34.45a33.045 33.045 0 00-6.18 11.917 33.093 33.093 0 00-.92 13.393c2.21 15.3-5.19 26.51-12.43 33.581a34.154 34.154 0 00-10.41 23.88c-.29 17.29-9.6 26.42-18.41 31.18a33.37 33.37 0 00-10.36 9.1c-2.77 3.73-4.74 8-5.77 12.53-3.65 15-20.18 22.04-27.56 25.24-7.38 3.2-16.18 8.7-22.9 21-6.72 12.3-22.93 26.06-35.43 28.91a34.029 34.029 0 00-21.49 15.54c-11.47 18.77-32.74 23-47.858 23.35-4.704.06-9.34 1.13-13.597 3.13a33.05 33.05 0 00-11.093 8.47c-12.12 14.56-30.74 16.05-43.55 15a33.336 33.336 0 00-23.89 7.64c-17.44 14.25-37.18 11-50.6 5.83a32.94 32.94 0 00-14.902-2.1c-5.063.46-9.95 2.09-14.278 4.76-18.33 11.34-35.85 7-47.47 1.2a33.313 33.313 0 00-14.338-3.37 33.43 33.43 0 00-14.392 3.13c-24.87 11.39-45 .12-56.4-9.75-3.478-3-7.534-5.24-11.918-6.61-4.383-1.36-9-1.8-13.562-1.3-27.45 3-44-11.51-52.84-23.4a33.495 33.495 0 00-25.5-13.54c-23.54-1-37.07-11.43-44.45-20.42a34.028 34.028 0 00-11.197-8.96 34.076 34.076 0 00-13.893-3.54c-26.87-1-37.3-14.44-41.29-25.93a32.354 32.354 0 00-7.698-12.45 32.25 32.25 0 00-12.402-7.76c-25.47-8.54-32.87-28.62-34.63-43.8a33.819 33.819 0 00-5.359-15.01 33.843 33.843 0 00-11.641-10.88c-20.25-11.11-22.89-27.54-21.85-38.711a32.438 32.438 0 00-6.08-21.85c-6.35-8.87-12.26-23.12-3.06-39.69a33.266 33.266 0 001.59-29.13c-5.08-12-8.66-27.83 2-36.83 14.47-12.27 35.52-6.23 49.81.41a33.369 33.369 0 0029.66-.65z" fill="#4AEEB9" stroke="#000" stroke-width="20" stroke-miterlimit="10"/><path d="M548.318 940.84c-15.419-17.547-3.699-44.055 5.182-56.34-5.5-1.834-17.4-5.5-21-5.5-4.5 0-18-3.5-26.5-9.5s-6-2-13-4-24.5-2.5-26.5-2.5-37 6.5-38.5 6.5-37.5-11.5-39-12c-1.2-.4-16.167 9.833-23.5 15V903c0 .8-.667 18-1 26.5l1 51.5 25 45.5 23.5 36 31.5 45 27.5 27 32 14.5 64.5 28.5 41 27.5 38.5 13 50 17h80.5c-7.927-1.83-16.163-9.58-21.477-15.83-2.583-3.03-6.567-4.61-10.516-4.09-40.652 5.43-61.301-18.35-68.509-35.4-1.446-3.42-4.297-6.11-7.838-7.23-24.761-7.8-34.1-27.41-36.492-41.24-.779-4.5-3.806-8.46-8.046-10.15-22.735-9.09-27.321-27.17-26.242-40.16.408-4.92-1.696-9.97-5.861-12.61-24.112-15.31-26.877-36.02-24.202-49.24.871-4.31-.146-8.97-3.199-12.13-18.059-18.687-18.677-38.469-15.182-51.173 1.41-5.125-.11-10.915-3.618-14.907z" fill="#001647" fill-opacity=".2"/><path d="M447.622 867.389c15.29-8.12 40.61-15.39 63.47 6.76a33.285 33.285 0 0031.7 8c16.76-4.43 40.91-6.38 58.48 10.76a33.885 33.885 0 0033.5 8.24c17.27-5.22 42-7.38 63.2 12.11a33.3 33.3 0 0033.44 7.09c14.19-4.88 35.588-3.815 51.52 10.07C811 952 830.89 936.6 840.91 927.17c14-13.14 36.29-24.88 66.09-11.41 4.293 1.899-11.781.784-7.087.774a33.524 33.524 0 0013.619-2.925c14.32-6.29 37.75-11.94 60.15 3.23a33.376 33.376 0 0034.668 2c9.95-5.4 23.51-19.6 39.42-16.41a33.679 33.679 0 0017.06-.968 33.677 33.677 0 0014.38-9.212c7-7.64 18.31-14.45 35.72-13 5.99.455 11.99-.733 17.35-3.434a33.016 33.016 0 0013.08-11.896c7.25-11.41 21.15-23.19 47.32-24.45 0 0 21.85 14.24 13.5 47.19a34.058 34.058 0 002.18 22.77c4.23 9.05 7.4 22.51-2.2 34.45a33.045 33.045 0 00-6.18 11.917 33.093 33.093 0 00-.92 13.393c2.21 15.3-5.19 26.51-12.43 33.581a34.154 34.154 0 00-10.41 23.88c-.29 17.29-9.6 26.42-18.41 31.18a33.37 33.37 0 00-10.36 9.1c-2.77 3.73-4.74 8-5.77 12.53-3.65 15-20.18 22.04-27.56 25.24-7.38 3.2-16.18 8.7-22.9 21-6.72 12.3-22.93 26.06-35.43 28.91a34.029 34.029 0 00-21.49 15.54c-11.47 18.77-32.74 23-47.858 23.35-4.704.06-9.34 1.13-13.597 3.13a33.05 33.05 0 00-11.093 8.47c-12.12 14.56-30.74 16.05-43.55 15a33.336 33.336 0 00-23.89 7.64c-17.44 14.25-37.18 11-50.6 5.83a32.94 32.94 0 00-14.902-2.1c-5.063.46-9.95 2.09-14.278 4.76-18.33 11.34-35.85 7-47.47 1.2a33.313 33.313 0 00-14.338-3.37 33.43 33.43 0 00-14.392 3.13c-24.87 11.39-45 .12-56.4-9.75-3.478-3-7.534-5.24-11.918-6.61-4.383-1.36-9-1.8-13.562-1.3-27.45 3-44-11.51-52.84-23.4a33.495 33.495 0 00-25.5-13.54c-23.54-1-37.07-11.43-44.45-20.42a34.028 34.028 0 00-11.197-8.96 34.076 34.076 0 00-13.893-3.54c-26.87-1-37.3-14.44-41.29-25.93a32.354 32.354 0 00-7.698-12.45 32.25 32.25 0 00-12.402-7.76c-25.47-8.54-32.87-28.62-34.63-43.8a33.819 33.819 0 00-5.359-15.01 33.843 33.843 0 00-11.641-10.88c-20.25-11.11-22.89-27.54-21.85-38.711a32.438 32.438 0 00-6.08-21.85c-6.35-8.87-12.26-23.12-3.06-39.69a33.266 33.266 0 001.59-29.13c-5.08-12-8.66-27.83 2-36.83 14.47-12.27 35.52-6.23 49.81.41a33.369 33.369 0 0029.66-.65z" stroke="#000" stroke-width="20" stroke-miterlimit="10"/><path d="M831.246 937.5l-39.5 26 14.5 12h25c5.5 0 24 3.5 35.5 4s12.5-4 18.5-4 13-7 15.5-8c2-.8 6.167-6.333 8-9l12-8.5c1.167 1.333 4.1 4 6.5 4 3 0 4 6 8 9.5s25.5 9.5 34 12c6.8 2 11.5.833 13 0h32.004c2.5 0 11 .5 11 0s8-2.5 12.5-2.5h10.5v-9.5c-2.5-2.5-8.1-7.9-10.5-9.5-3-2-8-6.5-12.5-10s-11-10-16-14c-4-3.2-6.34-5.667-7-6.5L991.246 912l-11.5-12-6.5-5-16-3-26 14-22.5 2.5-14.5-13.5h-15l-24 11-24 31.5z" fill="#4AEEB9"/><path d="M859.5 935.5c-10.8 18.8-29.833 34.833-38 40.5l-37.5-8.5 9-8.5 40.5-26c2.5-7.833 11.9-25.1 29.5-31.5 17.6-6.4 31.667 2.667 36.5 8-15.5-4.5-26.5 2.5-40 26zM943 941c-3.6-23.2 13.833-37 23-41l-8-5.5c-15.167 2.333-44 14.3-38 43.5s48.5 40.5 69 42.5c-13.833-3.5-42.4-16.3-46-39.5z" fill="#001647" fill-opacity=".2"/><path fill-rule="evenodd" clip-rule="evenodd" d="M961.269 902.528a33.46 33.46 0 00-17.707 4.912l-.01.006-.009.005c-14.538 8.847-17.706 28.866-6.497 42.398 12.86 15.528 33.801 20.971 56.716 20.901 15.068-.046 30.018-2.491 42.108-5.251a119.743 119.743 0 01-50.504-46.316c-6.043-9.968-13.81-16.654-24.021-16.654h-.038l-.038-.001zm.114-19.999a53.457 53.457 0 00-28.245 7.842c-25.453 15.496-30.102 49.772-11.494 72.236 18.52 22.363 46.96 28.22 72.179 28.143 25.457-.078 49.957-6.175 63.547-10.241l.01-.002c2.81-.845 5.3-2.536 7.11-4.844a14.256 14.256 0 003.04-8.053c.16-2.934-.58-5.845-2.14-8.337a14.273 14.273 0 00-6.54-5.592l-10.15-4.296c-.01-.004-.02-.008-.02-.012a99.747 99.747 0 01-46.16-40.47l-.01-.027-.02-.027c-7.492-12.37-20.548-26.303-41.107-26.32z" fill="#000"/><path d="M786.116 970.931c26.4 7.9 93.78 23.19 125.17-14.7 14.9-18 11-45.15-9-57.32a43.465 43.465 0 00-23.04-6.41c-15.4 0-25.82 10.32-32.59 21.5a109.784 109.784 0 01-50.81 44.54l-10.21 4.32a4.282 4.282 0 00-1.691 6.634 4.281 4.281 0 002.171 1.436z" stroke="#000" stroke-width="20" stroke-miterlimit="10" stroke-linecap="round"/></g><defs><clipPath id="prefix__clip0_53_26932"><path fill="#fff" d="M0 0h1500v1500H0z"/></clipPath></defs>
      <g clip-path="url(#prefix__clip0_53_25878)"><path d="M358.007 603.505l-35.094-66.474s14.559-77.798 61.586-98.155c47.284-20.477 100.011-44.032 100.011-44.032l125.765-51.621 140.978-44.655 107.015-13.297 60.517-11.761 64.444-1.319 68.311 2.442s-5.87-21.168 49.57 20.824c69.89 52.898 17.73 171.573 17.73 171.573l-26.67 15.714-149.833 58.17-143.667 36.011-218.556 28.191-189.255 2.917-32.852-4.528z" fill="#265CC2"/><path d="M358.054 602.428l16.232 48.253 17.081 19.493 202.9-8.586 240.32-27.99 238.913-72.436 49.06-27.654-15.41-53.759-218.011 75.678-113.521 23.596-195.413 25.08-222.151-1.675z" fill="#FFBF44"/><path d="M551.379 669.503s217.022 55.725 380.917 44.215c163.894-11.51 232.174-52.101 232.174-52.101s47.7-25.484 4.93-82.055c-42.77-56.571-75.09-35.68-75.09-35.68S967.095 605.161 760.635 646.12l-209.256 23.383z" fill="#265CC2"/><path d="M1020.05 452.516l-38.165-15.776-36.54 29.122a4.78 4.78 0 01-2.212.949 3.746 3.746 0 01-2.196-.338 3.108 3.108 0 01-1.45-1.509 3.621 3.621 0 01-.223-2.179l9.095-42.955-34.401-21.209a3.096 3.096 0 01-1.318-1.636 3.698 3.698 0 01-.043-2.218 4.697 4.697 0 011.232-2.046 4.776 4.776 0 012.084-1.188l43.437-10.699 14.949-42.171a4.956 4.956 0 011.453-1.84 4.85 4.85 0 012.14-.964 4.109 4.109 0 012.174.192c.649.256 1.2.708 1.577 1.291l17.986 36.335 43.641-4.8c.76-.09 1.52.053 2.19.409.63.355 1.12.912 1.39 1.578.27.707.32 1.481.13 2.214a4.58 4.58 0 01-1.17 2.084l-32.33 33.107 12.28 39.126c.21.733.19 1.512-.05 2.234a4.717 4.717 0 01-1.32 2.01c-.6.547-1.34.93-2.14 1.112-.75.177-1.53.13-2.25-.135l.05-.1z" fill="#FFBF44"/><path d="M599 600c-20-119.6 23.666-222.167 48-258.5-36 0-190.334 65.333-263 98-18.5 13.833-55.6 49.9-56 83.5-.4 33.6 21.833 69 33 82.5l20 58 65.5 7.5L576 659c-2-20-.834-40.667 0-48.5l23-10.5z" fill="#001647" fill-opacity=".2"/><path d="M1134.2 399.661a361.454 361.454 0 01-29.9 76.354c18.64 24.238 13.33 60.514 13.33 60.514-324.026 154.93-732.062 128.287-732.062 128.287-23.525-21.767-24.781-59.762-24.781-59.762-15.508-13.993-27.059-31.85-34.394-58.91-10.164-37.484 8.917-68.861 44.59-92.054 117.541-76.475 414.81-183.638 648.267-182.717 78.03.326 134.86 52.764 114.95 128.288zM360.837 606.128S773.303 641.122 1105 475.614" stroke="#000" stroke-width="20" stroke-miterlimit="10"/><path d="M523.543 665.942s307.957 94.558 630.907.949c39.05-11.32 43.66-53.188 21.17-79.902-16.44-19.591-36.73-39.413-57.57-49.481" stroke="#000" stroke-width="20" stroke-miterlimit="10"/></g><defs><clipPath id="prefix__clip0_53_25878"><path fill="#fff" d="M0 0h1500v1500H0z"/></clipPath></defs>
      
    </g>
    </svg>