<svg
      xmlns="http://www.w3.org/2000/svg"
      preserveAspectRatio="xMidYMin meet"
      fill="none"
      viewBox="0 0 1500 1500"
    >
      <g>
      <path fill="url(#prefix__paint0_linear_53_30461)" d="M0 0h1500v1500H0z"/><defs><linearGradient id="prefix__paint0_linear_53_30461" x1="0" y1="0" x2="1500" y2="1533.5" gradientUnits="userSpaceOnUse"><stop stop-color="#EEB0FC"/><stop offset="1" stop-color="#AF55F5"/></linearGradient></defs>
      <g clip-path="url(#a)"> <path fill="#F8CF47" d="M1262.8 1506.5H289.2l3.7-72.5 22.2-107.3L351 1204l56.5-72.5s33.8-23.9 98.5-52 225-35.5 225-35.5 187.3-9 340.5 50.5c153.2 59.6 191.3 412 191.3 412Z"/> <path fill="#000" fill-rule="evenodd" d="m973.8 1356.7 18 2.6 11.2-18-4-2.8 3.2-4.6-4-2.8-3 4.9-4-2.8-7 11-11.4-1.8-8.9-26.4-3.6 1 3.4 9.5-5.3 1.5-3.5-9.4-3.9 1 7.7 21.3-17.5-2.6-11.2 18 4 2.8-3 4.8 4 2.8 2.8-5 3.8 2.5 7-11.3 11.2 1.5.8 7.7-17.3 9 2 20.5h4.6l.6 6.4h4.5l-.6-6.2h4.5l-1.2-11.7 11-5.7 12 5.7 1.2 11.8h4.5l.6 6.1h4.5l-.6-6.2h4.7l-2-20.5-19.2-9.2-.6-5.4Zm-1-10 13.5 2.1 6.2-10 .5.3 4 2.8.6.2-8 12.9-16.2-2.4-.6-5.8Zm-26.3 2.1-6.2 10-4.9-3.3 8-12.8 15.5 2.3.6 5.8-13-2Zm43.8 24.9 1.4 14H986l-1-10.2-16.4-7.7-14.7 7.7 1 10.3h-6l-1.3-13.9 17.3-9-2.2-23.5-3.4-9.5 5.3-1.6 3.7 11.6 2.3 22.8 19.7 9Z" clip-rule="evenodd"/> <path stroke="#000" stroke-linecap="round" stroke-miterlimit="10" stroke-width="20" d="m807.8 1194.5 10 141.8m-41.8-16.8c0-.6.5-1.1 1-1.1m1.2 1a1 1 0 1 1-2.2 0 1 1 0 0 1 2.2 0Zm-2.2-37.1c0-.6.5-1.1 1-1.1m1.2 1a1 1 0 1 1-2.2 0 1 1 0 0 1 2.2 0Zm-2.2-37.1c0-.6.5-1 1-1m1.2 1a1 1 0 1 1-2.2 0 1 1 0 0 1 2.2 0Z"/> <path stroke="#000" stroke-linecap="round" stroke-width="20" d="M289.5 1512.5c-6-101.5 31-323 140.5-398 158.5-108.5 616.5-87 706.5 26 65 81.5 99.5 222.5 132.5 371M1084.5 1337c12.3 37 29.5 110.3 43.5 175.5m-646.5 0c.3-32.8 7.7-107.6 20.5-157"/> <path fill="#4AEEB9" d="m467.6 1110.5 7.4-39 62.5-15.5 72-5.5 53-8h147l104.5 8 107 8.1 53.6 19-3.8 40.8-21.3 55-90.7 68.1-76.5 24.3-62.8-69.8a20 20 0 0 0-31.6 2.5l-44 67.3-58.9 2.7-143.7-46.2-68.6-65.1-5.1-46.7Z"/> <path stroke="#000" stroke-width="20" d="M535 1214c-83.6-40.4-76.5-113.2-62.5-144.5 266-49.2 513.5-20.2 604 .5 21.4 119.7-113.1 181.3-188.3 198.7-3.5.9-7.2-.4-9.6-3.2l-54.1-62.5a21 21 0 0 0-32.3.6l-50 62.4c-2 2.5-5 4-8.3 3.7A610.8 610.8 0 0 1 535 1214Z"/> <path fill="#001647" fill-opacity=".2" d="M489 1227.5c-82.4 87.6-103 222.5-103 279h-97l5.5-106.5c6.7-44.8 30.2-150.7 71-215.5 40.8-64.8 83-83 99-84l9-27h22L547 1062l151-16.5h113.5c-160.4 46.4-265.5 121.3-298 153l120 56.5 103 23.5c-123.6 19.6-216.5-25.8-247.5-51Zm370.2 48.3-44.2-46.3-3-28.5 74.5 69c-.4 2.8-4.2 6-8.5 8.8-6 4-13.8 2.2-18.8-3Z"/> </g> <defs> <clipPath id="a"> <path fill="#fff" d="M0 0h1500v1500H0z"/> </clipPath> </defs>
      <g clip-path="url(#prefix__clip0_299_662)"><path d="M775 1185c231.41 0 419-168.12 419-375.5 0-207.383-187.59-375.5-419-375.5-231.407 0-419 168.117-419 375.5 0 207.38 187.593 375.5 419 375.5z" fill="#ABF"/><path d="M457.5 796c7.6 194 131.833 327.5 193 370l-130-55.5L438 1034l-57.5-89.5-27-106 11-104L394 662l45-82.5 83.5-69.5 109-54.182 28.5-1C569.452 513.314 451.119 633.132 457.5 796z" fill="#001647" fill-opacity=".2"/><path d="M775 1185c231.41 0 419-168.12 419-375.5 0-207.383-187.59-375.5-419-375.5-231.407 0-419 168.117-419 375.5 0 207.38 187.593 375.5 419 375.5z" stroke="#000" stroke-width="20"/></g><defs><clipPath id="prefix__clip0_299_662"><path fill="#fff" d="M0 0h1500v1500H0z"/></clipPath></defs>
      <g clip-path="url(#prefix__clip0_53_29343)" stroke="#000" stroke-width="20" stroke-miterlimit="10" stroke-linecap="round"><path d="M821.63 792.381a76.418 76.418 0 00-93.773-21.665 76.405 76.405 0 00-26.727 21.665M836.82 991.439c38.57 39.211 113.35 39.211 151.93 0M1109.25 792.381a76.451 76.451 0 00-26.73-21.665 76.39 76.39 0 00-33.52-7.745 76.425 76.425 0 00-60.25 29.41"/></g><defs><clipPath id="prefix__clip0_53_29343"><path fill="#fff" d="M0 0h1500v1500H0z"/></clipPath></defs>
      <g clip-path="url(#prefix__clip0_53_26556)"><path d="M610.839 1052.54l25.41-124.378 14-18s32.84-6 38.52-5 129.64 16.45 129.64 16.45l101.58 2.47s73.9-4.05 84.731-5.22c10.83-1.17 48.22-6 58.49-7.76 10.27-1.76 53.32-5.62 68.8-9.75 15.48-4.13 44.08-18 44.08-18S1140.5 1084.5 903.999 1157.05c0 0-92.499 34.95-237.78 5.86-104.73-30.27-63-64.47-63-64.47l7.62-45.9z" fill="#4AEEB9"/><path d="M723 1100.5c-29.6-54.4-21-146-13-185-55.2-22-65.833-.166-72 17.5-11.167 36.167-34.3 116.8-37.5 150-3.2 33.2-1.333 56.5 0 64l99 30 110 4c-16.5-4.17-56.9-26.1-86.5-80.5z" fill="#001647" fill-opacity=".2"/><path d="M1185.94 880.828s-205.091 80.28-505.581 22.77a39.252 39.252 0 00-45.47 28.86c-9.83 38.72-26.31 109.842-38 178.622a42.352 42.352 0 0029.31 47.6c34.82 10.67 90.3 30.53 196.28 24M398.16 971.871c55.3 38.439 125.63 81.449 205 116.639M625.992 943.001l-269.82-144.2" stroke="#000" stroke-width="20" stroke-miterlimit="10"/></g><defs><clipPath id="prefix__clip0_53_26556"><path fill="#fff" d="M0 0h1500v1500H0z"/></clipPath></defs>
      <g clip-path="url(#prefix__clip0_53_25644)"><path d="M854.36 572.592c26.698 5.591 89.208 15.825 113.675-4.549l37.015-89.771 58.51-109.598 51.83-71.708s27.11-23.586-86.97-38.648c-114.071-15.063-170.054-25.713-170.054-25.713s-185.227-21.021-318.27 89.004C407.053 431.633 359.545 587.162 359.545 587.162s-23.042 149.5-11.179 211.287c0 0-10.755-150.239 138.794-274.279l10.378 3.162 96.814-44.404 93.997 3.593 112.83 44.07 32.177 30.882a43.208 43.208 0 0021.004 11.119z" fill="#4AEEB9"/><path d="M734.5 244.999c-65.599 65.6-81 186.667-80.501 239L617 480.5 571 498l-78 27c-100.4 76-139.5 198.667-146.5 250.5l-11-72 16.5-99 36-94c25.166-50 96.4-161.801 180-209.001 83.6-47.2 145.833-57.333 166.5-56.5z" fill="#001647" fill-opacity=".2"/><path d="M359.937 865.087s-98.853-257.118 132.341-500.526C701.099 144.722 1047 259.727 1111.97 284.073a8.365 8.365 0 013.19 2.166 8.41 8.41 0 011.83 3.382c.33 1.258.36 2.577.08 3.848a8.182 8.182 0 01-1.69 3.457c-89.04 108.116-130.609 228.338-140.84 261.126a22 22 0 01-4.551 8.032 21.826 21.826 0 01-7.454 5.429c-17.926 7.942-59.84 21.109-111.962 1.678-7.062-3.641-10.241-5.677-15.479-10.467-24.839-26.919-183.88-146.59-341.931-30.552M839.381 566.594s-16.989-206.18 59.948-329.198M932.165 573.065s2.953-85 57.03-179.432M746.268 503.826s-13.544-77.051 5.211-143.867M587.363 290.497s-21.764 52.356-1.61 128.612M912.07 312.738s7.567-33.449 33.317-62.912M467.245 549.853s-11.802-18.139-13.388-55.171" stroke="#000" stroke-width="20" stroke-miterlimit="10" stroke-linecap="round"/></g><defs><clipPath id="prefix__clip0_53_25644"><path fill="#fff" d="M0 0h1500v1500H0z"/></clipPath></defs>
      
    </g>
    </svg>