<svg
      xmlns="http://www.w3.org/2000/svg"
      preserveAspectRatio="xMidYMin meet"
      fill="none"
      viewBox="0 0 1500 1500"
    >
      <g>
      <path fill="url(#prefix__paint0_linear_53_30462)" d="M0 0h1500v1500H0z"/><defs><linearGradient id="prefix__paint0_linear_53_30462" x1="0" y1="0" x2="1500" y2="1500" gradientUnits="userSpaceOnUse"><stop stop-color="#FFC4F6"/><stop offset="1" stop-color="#FF3DB1"/></linearGradient></defs>
      <g clip-path="url(#a)"> <path fill="#F8CF47" d="M1262.8 1506.5H289.2l3.7-72.5 22.2-107.3L351 1204l56.5-72.5s33.8-23.9 98.5-52 225-35.5 225-35.5 187.3-9 340.5 50.5c153.2 59.6 191.3 412 191.3 412Z"/> <path fill="#000" fill-rule="evenodd" d="m973.8 1356.7 18 2.6 11.2-18-4-2.8 3.2-4.6-4-2.8-3 4.9-4-2.8-7 11-11.4-1.8-8.9-26.4-3.6 1 3.4 9.5-5.3 1.5-3.5-9.4-3.9 1 7.7 21.3-17.5-2.6-11.2 18 4 2.8-3 4.8 4 2.8 2.8-5 3.8 2.5 7-11.3 11.2 1.5.8 7.7-17.3 9 2 20.5h4.6l.6 6.4h4.5l-.6-6.2h4.5l-1.2-11.7 11-5.7 12 5.7 1.2 11.8h4.5l.6 6.1h4.5l-.6-6.2h4.7l-2-20.5-19.2-9.2-.6-5.4Zm-1-10 13.5 2.1 6.2-10 .5.3 4 2.8.6.2-8 12.9-16.2-2.4-.6-5.8Zm-26.3 2.1-6.2 10-4.9-3.3 8-12.8 15.5 2.3.6 5.8-13-2Zm43.8 24.9 1.4 14H986l-1-10.2-16.4-7.7-14.7 7.7 1 10.3h-6l-1.3-13.9 17.3-9-2.2-23.5-3.4-9.5 5.3-1.6 3.7 11.6 2.3 22.8 19.7 9Z" clip-rule="evenodd"/> <path stroke="#000" stroke-linecap="round" stroke-miterlimit="10" stroke-width="20" d="m807.8 1194.5 10 141.8m-41.8-16.8c0-.6.5-1.1 1-1.1m1.2 1a1 1 0 1 1-2.2 0 1 1 0 0 1 2.2 0Zm-2.2-37.1c0-.6.5-1.1 1-1.1m1.2 1a1 1 0 1 1-2.2 0 1 1 0 0 1 2.2 0Zm-2.2-37.1c0-.6.5-1 1-1m1.2 1a1 1 0 1 1-2.2 0 1 1 0 0 1 2.2 0Z"/> <path stroke="#000" stroke-linecap="round" stroke-width="20" d="M289.5 1512.5c-6-101.5 31-323 140.5-398 158.5-108.5 616.5-87 706.5 26 65 81.5 99.5 222.5 132.5 371M1084.5 1337c12.3 37 29.5 110.3 43.5 175.5m-646.5 0c.3-32.8 7.7-107.6 20.5-157"/> <path fill="#4AEEB9" d="m467.6 1110.5 7.4-39 62.5-15.5 72-5.5 53-8h147l104.5 8 107 8.1 53.6 19-3.8 40.8-21.3 55-90.7 68.1-76.5 24.3-62.8-69.8a20 20 0 0 0-31.6 2.5l-44 67.3-58.9 2.7-143.7-46.2-68.6-65.1-5.1-46.7Z"/> <path stroke="#000" stroke-width="20" d="M535 1214c-83.6-40.4-76.5-113.2-62.5-144.5 266-49.2 513.5-20.2 604 .5 21.4 119.7-113.1 181.3-188.3 198.7-3.5.9-7.2-.4-9.6-3.2l-54.1-62.5a21 21 0 0 0-32.3.6l-50 62.4c-2 2.5-5 4-8.3 3.7A610.8 610.8 0 0 1 535 1214Z"/> <path fill="#001647" fill-opacity=".2" d="M489 1227.5c-82.4 87.6-103 222.5-103 279h-97l5.5-106.5c6.7-44.8 30.2-150.7 71-215.5 40.8-64.8 83-83 99-84l9-27h22L547 1062l151-16.5h113.5c-160.4 46.4-265.5 121.3-298 153l120 56.5 103 23.5c-123.6 19.6-216.5-25.8-247.5-51Zm370.2 48.3-44.2-46.3-3-28.5 74.5 69c-.4 2.8-4.2 6-8.5 8.8-6 4-13.8 2.2-18.8-3Z"/> </g> <defs> <clipPath id="a"> <path fill="#fff" d="M0 0h1500v1500H0z"/> </clipPath> </defs>
      <g clip-path="url(#prefix__clip0_299_662)"><path d="M775 1185c231.41 0 419-168.12 419-375.5 0-207.383-187.59-375.5-419-375.5-231.407 0-419 168.117-419 375.5 0 207.38 187.593 375.5 419 375.5z" fill="#ABF"/><path d="M457.5 796c7.6 194 131.833 327.5 193 370l-130-55.5L438 1034l-57.5-89.5-27-106 11-104L394 662l45-82.5 83.5-69.5 109-54.182 28.5-1C569.452 513.314 451.119 633.132 457.5 796z" fill="#001647" fill-opacity=".2"/><path d="M775 1185c231.41 0 419-168.12 419-375.5 0-207.383-187.59-375.5-419-375.5-231.407 0-419 168.117-419 375.5 0 207.38 187.593 375.5 419 375.5z" stroke="#000" stroke-width="20"/></g><defs><clipPath id="prefix__clip0_299_662"><path fill="#fff" d="M0 0h1500v1500H0z"/></clipPath></defs>
      <g clip-path="url(#prefix__clip0_53_29369)" stroke="#000" stroke-width="20" stroke-miterlimit="10"><path d="M729.63 808.821l88.08-16a7.737 7.737 0 006.23-6.4 7.757 7.757 0 00-.73-4.64 7.674 7.674 0 00-3.27-3.35l-82.39-43.72M1087 808.821l-87.999-16a7.71 7.71 0 01-6.23-6.4 7.784 7.784 0 01.72-4.63 7.65 7.65 0 013.28-3.36l82.389-43.72" stroke-linecap="round"/><path d="M1000 1001.64c0 35-39.4 63.36-88 63.36s-88-28.36-88-63.36a47.358 47.358 0 014.59-20.231c6.41-13.7 21-19 33.42-12.86 14.2 7.07 31.42 11.21 50 11.21s35.79-4.14 50-11.21c12.4-6.18 27-.84 33.42 12.86a47.337 47.337 0 014.57 20.231z" fill="#fff"/></g><defs><clipPath id="prefix__clip0_53_29369"><path fill="#fff" d="M0 0h1500v1500H0z"/></clipPath></defs>
      <g clip-path="url(#prefix__clip0_53_26419)"><path d="M831.281 968.72H1000.1a5.495 5.495 0 015.5 5.5 89.32 89.32 0 01-89.319 89.32h-1.18a89.323 89.323 0 01-63.159-26.16 89.325 89.325 0 01-26.161-63.16 5.5 5.5 0 015.5-5.5z" fill="#fff" stroke="#000" stroke-width="20" stroke-miterlimit="10"/><path d="M1086 1006.5c0 43.35-75.66 78.5-169 78.5-93.336 0-169-35.11-169-78.5 0-43.386 75.664-78.5 169-78.5 93.34 0 169 35.146 169 78.5z" fill="#ABF"/><path d="M905 1002.88L923.13 991a26.135 26.135 0 0010.308-30.616 26.144 26.144 0 00-6.148-9.734v0a26.143 26.143 0 00-19.36-7.629 26.155 26.155 0 00-18.8 8.919L873 970.38M905 1003l18.13 11.88a26.115 26.115 0 0110.312 30.61 26.15 26.15 0 01-6.152 9.73v0a26.233 26.233 0 01-8.883 5.84 26.052 26.052 0 01-10.475 1.81 26.056 26.056 0 01-10.33-2.51 26.14 26.14 0 01-8.472-6.42L873 1035.5" stroke="#000" stroke-width="20" stroke-miterlimit="10" stroke-linecap="round"/><path d="M1099.27 836a156.437 156.437 0 00-153.411 134 26.558 26.558 0 01-16.18 20.75l-10.68 6.87a6.417 6.417 0 00-2.92 4.75c-.097.96.026 1.94.358 2.85.333.9.867 1.73 1.562 2.4 17.18 16.44 31.57 31.63 42 53a156.432 156.432 0 0073.451 72.93 156.47 156.47 0 00102.91 11.12 156.43 156.43 0 0087.32-55.58 156.458 156.458 0 0033.52-97.93c-.7-86.04-71.79-155.92-157.93-155.16z" fill="#F56CDB" fill-opacity=".9" stroke="#000" stroke-width="20" stroke-miterlimit="10"/><path d="M1207.52 931.913c16.03 30.088 16.61 61.085 1.31 69.237-15.31 8.15-12.99-24.393-29.02-54.481-16.02-30.088-44.31-46.329-29.01-54.479 15.3-8.149 40.7 9.635 56.72 39.723z" fill="#fff"/><circle cx="1209" cy="1031" r="13" fill="#fff"/></g><defs><clipPath id="prefix__clip0_53_26419"><path fill="#fff" d="M0 0h1500v1500H0z"/></clipPath></defs>
      <g clip-path="url(#prefix__clip0_53_25878)"><path d="M358.007 603.505l-35.094-66.474s14.559-77.798 61.586-98.155c47.284-20.477 100.011-44.032 100.011-44.032l125.765-51.621 140.978-44.655 107.015-13.297 60.517-11.761 64.444-1.319 68.311 2.442s-5.87-21.168 49.57 20.824c69.89 52.898 17.73 171.573 17.73 171.573l-26.67 15.714-149.833 58.17-143.667 36.011-218.556 28.191-189.255 2.917-32.852-4.528z" fill="#265CC2"/><path d="M358.054 602.428l16.232 48.253 17.081 19.493 202.9-8.586 240.32-27.99 238.913-72.436 49.06-27.654-15.41-53.759-218.011 75.678-113.521 23.596-195.413 25.08-222.151-1.675z" fill="#FFBF44"/><path d="M551.379 669.503s217.022 55.725 380.917 44.215c163.894-11.51 232.174-52.101 232.174-52.101s47.7-25.484 4.93-82.055c-42.77-56.571-75.09-35.68-75.09-35.68S967.095 605.161 760.635 646.12l-209.256 23.383z" fill="#265CC2"/><path d="M1020.05 452.516l-38.165-15.776-36.54 29.122a4.78 4.78 0 01-2.212.949 3.746 3.746 0 01-2.196-.338 3.108 3.108 0 01-1.45-1.509 3.621 3.621 0 01-.223-2.179l9.095-42.955-34.401-21.209a3.096 3.096 0 01-1.318-1.636 3.698 3.698 0 01-.043-2.218 4.697 4.697 0 011.232-2.046 4.776 4.776 0 012.084-1.188l43.437-10.699 14.949-42.171a4.956 4.956 0 011.453-1.84 4.85 4.85 0 012.14-.964 4.109 4.109 0 012.174.192c.649.256 1.2.708 1.577 1.291l17.986 36.335 43.641-4.8c.76-.09 1.52.053 2.19.409.63.355 1.12.912 1.39 1.578.27.707.32 1.481.13 2.214a4.58 4.58 0 01-1.17 2.084l-32.33 33.107 12.28 39.126c.21.733.19 1.512-.05 2.234a4.717 4.717 0 01-1.32 2.01c-.6.547-1.34.93-2.14 1.112-.75.177-1.53.13-2.25-.135l.05-.1z" fill="#FFBF44"/><path d="M599 600c-20-119.6 23.666-222.167 48-258.5-36 0-190.334 65.333-263 98-18.5 13.833-55.6 49.9-56 83.5-.4 33.6 21.833 69 33 82.5l20 58 65.5 7.5L576 659c-2-20-.834-40.667 0-48.5l23-10.5z" fill="#001647" fill-opacity=".2"/><path d="M1134.2 399.661a361.454 361.454 0 01-29.9 76.354c18.64 24.238 13.33 60.514 13.33 60.514-324.026 154.93-732.062 128.287-732.062 128.287-23.525-21.767-24.781-59.762-24.781-59.762-15.508-13.993-27.059-31.85-34.394-58.91-10.164-37.484 8.917-68.861 44.59-92.054 117.541-76.475 414.81-183.638 648.267-182.717 78.03.326 134.86 52.764 114.95 128.288zM360.837 606.128S773.303 641.122 1105 475.614" stroke="#000" stroke-width="20" stroke-miterlimit="10"/><path d="M523.543 665.942s307.957 94.558 630.907.949c39.05-11.32 43.66-53.188 21.17-79.902-16.44-19.591-36.73-39.413-57.57-49.481" stroke="#000" stroke-width="20" stroke-miterlimit="10"/></g><defs><clipPath id="prefix__clip0_53_25878"><path fill="#fff" d="M0 0h1500v1500H0z"/></clipPath></defs>
      
    </g>
    </svg>