<svg
      xmlns="http://www.w3.org/2000/svg"
      preserveAspectRatio="xMidYMin meet"
      fill="none"
      viewBox="0 0 1500 1500"
    >
      <g>
      <path fill="url(#prefix__paint0_linear_53_30461)" d="M0 0h1500v1500H0z"/><defs><linearGradient id="prefix__paint0_linear_53_30461" x1="0" y1="0" x2="1500" y2="1533.5" gradientUnits="userSpaceOnUse"><stop stop-color="#EEB0FC"/><stop offset="1" stop-color="#AF55F5"/></linearGradient></defs>
      <g clip-path="url(#prefix__clip0_53_28474)"><path d="M122.998 1161.5c14.121 62.61 139.834 114.33 195.5 134L364 1201l48.5-61.5L489 1095c2.167-3.67 2-17.1-16-41.5s-124.833-78.168-176-102.001c-53.334-29-169.801-84.7-209-75.5-39.2 9.2-20.668 64.834-6.502 91.5C39.998 1017.5 108 1095 122.998 1161.5zM1342.5 1074c13.6 92.4-91.33 162.16-145.5 185.5l-14-39.5-51-74-34.5-27-86-34.5 157-130.5c29.5-23.834 97.8-77.402 135-101.002 37.2-23.6 41.5 45.5 39 83 37.6 14 15.67 97.832 0 138.002z" fill="#fff"/><path d="M460.5 1094.5c-138.4 66.4-174 309.33-174.5 422.5h983.5c-12.5-72.17-53.2-244.1-116-354.5-78.5-138-520-151-693-68z" fill="#ABF"/><path d="M318.168 1296.4s-215.92-63.56-205.6-189.48c0 0-89.52-111.04-29.44-142.42 0 0-12.34-21.16-20.07-44.64-9.49-28.89 18.8-55.78 47.16-44.89C213.227 914.543 427.304 991.783 491.432 1082M83.129 964.5s51.46 96.08 179.63 137.73M112.57 1106.92S166.49 1174 273.74 1203" stroke="#050505" stroke-width="20" stroke-miterlimit="10" stroke-linecap="round"/><path d="M1202.62 1261.44l10.19-5.86s165.74-90 129-196c0 0 52.43-115.302-6.2-129.002a234.657 234.657 0 007.38-42.83c1.78-26.92-28.49-43.83-50.49-28.18-41.92 29.84-112.04 79.47-174.41 133.29l-97.64 82.642M1335.61 930.578s-23 94.002-124 158.242" stroke="#050505" stroke-width="17.76" stroke-miterlimit="10" stroke-linecap="round"/><path d="M500.002 1213.5c-101.2 100-117.834 249-113.5 311l-99.502-13c-1.166-80.71 20.062-175.17 39.601-241.58L313.5 1295c-59.833-15.83-182.2-65.6-193-138-13.5-90.5-43-74-51.5-122-6.8-38.4 5.5-65 12.5-73.5-14.667-23.167-33.8-73 7-87s228.333 82.833 317 133l79.5 71-41 21.5-23.507 24.36 47.508-30.36c149.6-59.6 294-54.83 347.5-45-63 13.17-214.299 64.5-315.499 164.5zM1314 856.5c-37.6 72.8-194 181.67-267.5 227l-25-11c66.67-51.67 207.3-161.8 236.5-189 29.2-27.2 49.5-29.333 56-27zM1240 1094.5c-24.8 17.2-32 7.17-32.5 0 27.6-11.6 73.5-66.83 93-93l39-66 12.5 14c-15 66-81 123.5-112 145zM1238 1190.5c-17.6 7.2-20.33-3-19.5-9l58-46 65.86-64.5.14 32.5-.14.2c-24.57 36.95-82.4 77.82-104.36 86.8z" fill="#001647" fill-opacity=".2"/><path d="M1218.5 1181.5c-.83 6 1.9 16.2 19.5 9 21.96-8.98 79.79-49.85 104.36-86.8 8.22-12.4 19.74-29.8.14-.2l-.14-32.5-65.86 64.5-58 46z" fill="#001647" fill-opacity=".2"/><path d="M1342.36 1103.7l.14-.2c19.6-29.6 8.08-12.2-.14.2z" fill="#001647" fill-opacity=".2"/><path d="M1341.81 1059.61s-31.54 69.62-117.36 118.35" stroke="#050505" stroke-width="17.76" stroke-miterlimit="10" stroke-linecap="round"/><path d="M289.5 1512.5c-6-101.5 31-323.03 140.5-398 158.5-108.51 616.5-87 706.5 26 64.91 81.5 99.5 222.5 132.5 371M1084.5 1337c12.33 37 29.5 110.3 43.5 175.5m-646.5 0c.333-32.83 7.7-107.6 20.5-157" stroke="#000" stroke-width="20" stroke-linecap="round"/></g><defs><clipPath id="prefix__clip0_53_28474"><path fill="#fff" d="M0 0h1500v1500H0z"/></clipPath></defs>
      <g clip-path="url(#prefix__clip0_299_662)"><path d="M775 1185c231.41 0 419-168.12 419-375.5 0-207.383-187.59-375.5-419-375.5-231.407 0-419 168.117-419 375.5 0 207.38 187.593 375.5 419 375.5z" fill="#ABF"/><path d="M457.5 796c7.6 194 131.833 327.5 193 370l-130-55.5L438 1034l-57.5-89.5-27-106 11-104L394 662l45-82.5 83.5-69.5 109-54.182 28.5-1C569.452 513.314 451.119 633.132 457.5 796z" fill="#001647" fill-opacity=".2"/><path d="M775 1185c231.41 0 419-168.12 419-375.5 0-207.383-187.59-375.5-419-375.5-231.407 0-419 168.117-419 375.5 0 207.38 187.593 375.5 419 375.5z" stroke="#000" stroke-width="20"/></g><defs><clipPath id="prefix__clip0_299_662"><path fill="#fff" d="M0 0h1500v1500H0z"/></clipPath></defs>
      <g clip-path="url(#prefix__clip0_53_29200)"><path d="M764.05 848.209c35.186 0 63.71-28.524 63.71-63.71s-28.524-63.71-63.71-63.71-63.71 28.524-63.71 63.71 28.524 63.71 63.71 63.71z" fill="#000" stroke="#000" stroke-width="20" stroke-miterlimit="10"/><path d="M781.551 780c14.083 0 25.5-11.417 25.5-25.5s-11.417-25.5-25.5-25.5-25.5 11.417-25.5 25.5 11.417 25.5 25.5 25.5zM740.552 791.381c6.009 0 10.88-4.871 10.88-10.88s-4.871-10.88-10.88-10.88-10.88 4.871-10.88 10.88 4.871 10.88 10.88 10.88zM772.151 826.571c10.548 0 19.1-8.551 19.1-19.1 0-10.549-8.552-19.1-19.1-19.1-10.549 0-19.1 8.551-19.1 19.1 0 10.549 8.551 19.1 19.1 19.1z" fill="#fff"/><path d="M1051.05 848.209c35.19 0 63.71-28.524 63.71-63.71s-28.52-63.71-63.71-63.71-63.71 28.524-63.71 63.71 28.52 63.71 63.71 63.71z" fill="#000" stroke="#000" stroke-width="20" stroke-miterlimit="10"/><path d="M1068.55 780c14.08 0 25.5-11.417 25.5-25.5s-11.42-25.5-25.5-25.5-25.5 11.417-25.5 25.5 11.42 25.5 25.5 25.5zM1027.55 791.381c6.01 0 10.88-4.871 10.88-10.88s-4.87-10.88-10.88-10.88c-6.01 0-10.88 4.871-10.88 10.88s4.87 10.88 10.88 10.88zM1059.15 826.571c10.55 0 19.1-8.551 19.1-19.1 0-10.549-8.55-19.1-19.1-19.1s-19.1 8.551-19.1 19.1c0 10.549 8.55 19.1 19.1 19.1z" fill="#fff"/><path d="M905 1002.88L923.13 991a26.135 26.135 0 0010.308-30.616 26.144 26.144 0 00-6.148-9.734v0a26.143 26.143 0 00-19.36-7.629 26.155 26.155 0 00-18.8 8.919L873 970.38M905 1003l18.13 11.88a26.115 26.115 0 0110.312 30.61 26.15 26.15 0 01-6.152 9.73v0a26.233 26.233 0 01-8.883 5.84 26.052 26.052 0 01-10.475 1.81 26.056 26.056 0 01-10.33-2.51 26.14 26.14 0 01-8.472-6.42L873 1035.5" stroke="#000" stroke-width="20" stroke-miterlimit="10" stroke-linecap="round"/></g><defs><clipPath id="prefix__clip0_53_29200"><path fill="#fff" d="M0 0h1500v1500H0z"/></clipPath></defs>
      <g clip-path="url(#prefix__clip0_53_27350)"><path d="M695 882.421v6.14a7.746 7.746 0 01-.67 3.22c-1.26 2.86-3.34 3-3.34 3a7.817 7.817 0 01-6.39-1.32c-2.64-2.11-9.24-20.21-9.24-20.21l-12.71 20.21H654l17.8-28.21-5.59-11.59a4.654 4.654 0 00-4.07-2.64H662a4.724 4.724 0 00-4.13 1.7c-.89.89-1.21 3.78-1.21 3.78l-1.78.13a22.972 22.972 0 01-.13-5.28 7.776 7.776 0 011.34-3.76 5.694 5.694 0 014.83-2.61 7.816 7.816 0 014.51 1.43 8.67 8.67 0 013 3.74l5.26 13.05 11.44-17.4H693l-15.8 24.51 3.94 9.32s3 9 7.31 9 4.71-6.22 4.71-6.22l1.84.01z" fill="#000"/></g><defs><clipPath id="prefix__clip0_53_27350"><path fill="#fff" d="M0 0h1500v1500H0z"/></clipPath></defs>
      <g clip-path="url(#prefix__clip0_53_25838)"><path d="M661.719 466.272s.681-50.314 11.212-50.049c10.53.266 30.241-4.165 30.241-4.165l31.002 15.989 25.638-5.424 28.99-24.747 27.071-1.791 27.883 14.121 15.446 18.681 23.411.145 50.96-13.954 24.276 23.68-19.232 52.574-44.507-21.369-17.617-6.041-23.175-7.036-28.05-1.943-32.388-.112-55.638 3.68-50.45 8.949-25.073-1.188z" fill="#97A5DE"/><path d="M718.506 479.214s19.322 40.453 64.014 34.31c44.692-6.143 83.522-32.583 83.522-32.583l10.406-17.065-81.463-14.775-84.096 14.041s-8.664 11.898 7.617 16.072z" fill="#7985B4"/><path d="M662.843 469.488s-13.534-58.554 30.087-60.287c15.493-.614 25.434 4.992 32.226 12.21 13.894 14.755 29.392 7.707 38.346-2.386 11.842-13.391 27.482-26.021 44.854-27.17 20.226-1.338 34.215 14.393 42.889 29.474 6.094 10.621 21.799 13.651 33.204 6.683 11.953-7.315 28.35-12.9 48.081-8.683 42.964 9.245 6.064 69.091 6.064 69.091" stroke="#000" stroke-width="18.1" stroke-miterlimit="10" stroke-linecap="round"/><path d="M630.048 507.634S655.324 462.566 681.5 468c40.502 8.395 74.399 69.733 74.399 69.733M800.818 537.268s38.761-65.501 93.251-67.301c54.49-1.801 48.429 57.93 48.429 57.93M682 468s137.209-40.275 226.409 2.982M736.796 506.5s35.103 14.655 86.489 1.675" stroke="#000" stroke-width="20" stroke-miterlimit="10" stroke-linecap="round"/><path d="M537 566.5l4.5 45.5-4.5 67-29.5 50 29.5 7 27.5-38 9.5-97.5-14-34h-23z" fill="#ABF"/><path d="M1096.5 555s54 51 77 115l58.48-66.81s45.11-72.74 39.35-142c-5.76-69.26-13.47-83.1-13.47-83.1s-21-3.61-33.69 35.81c-12.69 39.42-78.11 109.31-78.11 109.31L1096.5 555zM540 655c-4 36.8-22.333 64.333-31 73.5L422 702c-20.167-14.5-67.5-51.7-95.5-84.5s-44.667-101.667-49.5-132c-.833-25.5-.6-82.8 7-108 7.6-25.2 24.5 7.5 32 27l45.5 81L456 551l77 18.5c4 13.166 11 48.7 7 85.5z" fill="#fff"/><path d="M426.5 610c-38.4-28-67.333-103-77-137l-44-98.5-11.5-7-20.5 92 7 72 55 102L434 699l106 34c8.167-5.333 25.4-21 29-41 4.5-25-83.5-38.979-142.5-82zM1127.84 599.154L1095.5 558.5 1121 544l43-39.5 39.5-53L1231 389l19-7c-16 124.5-98.1 207.905-106 216.5-3.82 4.162-7.09 5.329-9.51 5.317-2.84-.015-4.88-2.439-6.65-4.663z" fill="#001647" fill-opacity=".2"/><path d="M522.531 565.278c-35.66.82-156.38-10-211.51-187.18-4.16-13.34-23.35-12.45-26.16 1.24-18.66 90.92-25.71 281 216.65 346.36a12.997 12.997 0 0013.12-3.94c13.26-15 42.71-60 20.83-146.74a13.007 13.007 0 00-4.764-7.128 13.006 13.006 0 00-8.166-2.612v0zM1088.35 554.34c47.82-17.13 109.36-60 145.11-165 5.54-16.29 29.23-14.41 32.17 2.54 13.21 76.23 21.41 205.23-99.36 285.37" stroke="#000" stroke-width="20" stroke-miterlimit="10"/><path d="M501.51 725.7l25.83 5.69c7.18 1.58 15-.49 19.55-6.27 7.33-9.33 9.28-11.36 16.91-31.69M522.529 565.281h20.77c11.89 0 19.69 4 23.79 20.43 7.6 30.46 5.56 50.37 5.56 50.37" stroke="#000" stroke-width="20" stroke-miterlimit="10" stroke-linecap="round"/></g><defs><clipPath id="prefix__clip0_53_25838"><path fill="#fff" d="M0 0h1500v1500H0z"/></clipPath></defs>
      
    </g>
    </svg>