<svg
      xmlns="http://www.w3.org/2000/svg"
      preserveAspectRatio="xMidYMin meet"
      fill="none"
      viewBox="0 0 1500 1500"
    >
      <g>
      <path fill="url(#prefix__paint0_linear_53_30461)" d="M0 0h1500v1500H0z"/><defs><linearGradient id="prefix__paint0_linear_53_30461" x1="0" y1="0" x2="1500" y2="1533.5" gradientUnits="userSpaceOnUse"><stop stop-color="#EEB0FC"/><stop offset="1" stop-color="#AF55F5"/></linearGradient></defs>
      <g clip-path="url(#prefix__clip0_53_28724)"><path d="M288.689 1505.57l13.36-113.94 184.06 50.77-2.67 63.17h-194.75zM1108.09 1432.16l14.41 71.69h142.41l-32.7-113.79-124.12 42.1z" fill="#ABF"/><path d="M303.471 1382.79L325 1260l56-105.5s64.91-55.22 110.5-71c0 0 87.12-38.32 292.5-41 205.38-2.68 276 52.5 276 52.5l58.65 30.23 39.22 52.98 39.13 78.97 38.22 131.86-127.13 39.32 14.41 72.47-643.659 1.15 7.27-66.62-182.64-52.57z" fill="#FF6247"/><path d="M500.002 1213.5c-101.2 100-117.834 249-113.5 311l-99.502-13c-1.6-110.8 39-247.5 59.5-302l39.501-52.5 15.5-20.5 66.5-42.5c149.6-59.6 294-54.83 347.5-45-63 13.17-214.299 64.5-315.499 164.5z" fill="#001647" fill-opacity=".2"/><path d="M825.82 1451.4l45.14-36.92-63.72-69.17-62.55 51.19-87.69-95.16 30.9-25.34 64 69.42 62.53-51.13 87.53 94.78 45.18-36.92-14.09 100.13-107.23-.88z" fill="#fff"/><path d="M289.5 1512.5c-1.965-33.24.683-79.37 8.981-129m970.519 128c-9.49-42.7-19.11-84.78-29.54-125M1084.5 1337c7.13 21.39 15.88 54.92 24.69 92m18.81 83.5c-5.91-27.5-12.37-56.45-18.81-83.5m-627.69 83.5c.172-16.93 2.213-45 5.905-75m14.595-82c-6.201 23.93-11.126 53.81-14.595 82m-188.924-54c17.035-101.9 57.885-218.59 131.519-269 158.5-108.51 616.5-87 706.5 26 46.24 58.07 77.1 146.33 102.96 246m-940.979-3l188.924 54m621.785-8.5l130.27-42.5" stroke="#000" stroke-width="20" stroke-linecap="round"/></g><defs><clipPath id="prefix__clip0_53_28724"><path fill="#fff" d="M0 0h1500v1500H0z"/></clipPath></defs>
      <g clip-path="url(#prefix__clip0_299_662)"><path d="M775 1185c231.41 0 419-168.12 419-375.5 0-207.383-187.59-375.5-419-375.5-231.407 0-419 168.117-419 375.5 0 207.38 187.593 375.5 419 375.5z" fill="#ABF"/><path d="M457.5 796c7.6 194 131.833 327.5 193 370l-130-55.5L438 1034l-57.5-89.5-27-106 11-104L394 662l45-82.5 83.5-69.5 109-54.182 28.5-1C569.452 513.314 451.119 633.132 457.5 796z" fill="#001647" fill-opacity=".2"/><path d="M775 1185c231.41 0 419-168.12 419-375.5 0-207.383-187.59-375.5-419-375.5-231.407 0-419 168.117-419 375.5 0 207.38 187.593 375.5 419 375.5z" stroke="#000" stroke-width="20"/></g><defs><clipPath id="prefix__clip0_299_662"><path fill="#fff" d="M0 0h1500v1500H0z"/></clipPath></defs>
      <g clip-path="url(#prefix__clip0_53_29261)"><path d="M761.369 722.219a74.743 74.743 0 00-74.67 74.67 10.671 10.671 0 0021.33 0 53.344 53.344 0 0191.31-38.188 53.341 53.341 0 0115.36 38.188 31.999 31.999 0 01-54.627 22.627 32 32 0 01-9.373-22.627c-.041-1.427.2-2.847.71-4.18a10.68 10.68 0 012.3-3.58 10.659 10.659 0 0117.6 3.58 10.64 10.64 0 01.72 4.18 10.67 10.67 0 1021.34 0 32.003 32.003 0 00-9.372-22.628 32.003 32.003 0 00-45.255 0 32.004 32.004 0 00-9.373 22.628 53.333 53.333 0 0053.33 53.33 53.33 53.33 0 0053.33-53.33 74.738 74.738 0 00-74.66-74.67zM1048.37 722.219a74.743 74.743 0 00-74.671 74.67 10.671 10.671 0 0021.33 0 53.354 53.354 0 013.848-20.636 53.313 53.313 0 0111.513-17.552 53.28 53.28 0 0117.39-11.752 53.352 53.352 0 0141.17 0 53.385 53.385 0 0117.39 11.752 53.414 53.414 0 0111.51 17.552 53.227 53.227 0 013.85 20.636 32 32 0 01-32 32 32 32 0 01-32-32c-.06-1.789.34-3.563 1.15-5.159.81-1.596 2-2.963 3.48-3.974a10.664 10.664 0 0110.19-1.017c1.32.557 2.51 1.376 3.51 2.407a10.68 10.68 0 012.28 3.593c.52 1.331.76 2.752.72 4.18 0 2.83 1.12 5.544 3.12 7.545a10.697 10.697 0 007.55 3.125c2.83 0 5.54-1.124 7.54-3.125a10.637 10.637 0 003.13-7.545 31.999 31.999 0 00-32-32 31.999 31.999 0 00-32 32 53.337 53.337 0 0015.62 37.71 53.336 53.336 0 0037.71 15.62c14.14 0 27.71-5.619 37.71-15.62a53.337 53.337 0 0015.62-37.71 74.736 74.736 0 00-21.89-52.776 74.731 74.731 0 00-52.77-21.894v-.03z" fill="#000"/><path d="M912.5 1068.5c32.585 0 59-26.42 59-59 0-32.585-26.415-59-59-59s-59 26.415-59 59c0 32.58 26.415 59 59 59z" fill="#fff" stroke="#000" stroke-width="20" stroke-miterlimit="10"/></g><defs><clipPath id="prefix__clip0_53_29261"><path fill="#fff" d="M0 0h1500v1500H0z"/></clipPath></defs>
      <path fill-rule="evenodd" clip-rule="evenodd" d="M873.72 749.551a77.974 77.974 0 01-2.12 28.009c-12 46-43.43 116-123.08 116-78.08-.01-109.77-67.3-122.34-113.32a76.54 76.54 0 01-1.491-6.613 575.778 575.778 0 01-19.519-2.647c-19.733-3.014-46.514-8.099-74.574-16.389-28-8.273-57.66-19.85-82.929-36.01-25.242-16.143-46.806-37.321-57.335-65.028l18.696-7.105c8.471 22.292 26.282 40.49 49.415 55.284 23.106 14.778 50.821 25.701 77.82 33.678 26.941 7.96 52.785 12.875 71.927 15.799a560.937 560.937 0 0015.613 2.165c2.272-25.235 17.045-48.105 39.927-58.564C682.92 686 710 679.25 748 678.56c2.1-.04 4.24-.06 6.42-.06 31.85 0 55.55 4.17 73.18 10.32 19.495 6.785 34.154 22.272 41.436 41.234 20.561-6.57 46.94-16.704 73.236-31.517C998.125 667.074 1051.68 615.752 1051.68 534h20c0 92.248-60.95 148.926-119.592 181.963-28.405 16-56.722 26.749-78.368 33.588z" fill="#000"/>
      <g clip-path="url(#prefix__clip0_53_29631)"><path d="M276.36 892.872l5.15-57.711s19.71-62.819 22.75-74.129c3.04-11.31 8.7-32.2 15.23-44.81 6.53-12.61 12.18-23.93 19.58-37.85 7.4-13.92 13.42-31.37 16.93-35.68 3.51-4.31 8.3-19.14 8.3-19.14V434.5l10.201-35 197.319-84.408 188.38-35.24h212.31L990.501 303 1073 493.902l94.73 84.68s15.77 29.26 17.08 31c1.31 1.74 9.22 10.47 9.18 13.51-.04 3.04 4.31 7.84 6 10.45 1.69 2.61 8.7 10 10.44 12.61 1.74 2.61 8.7 10 11.31 14.8 2.61 4.8 3.48 4.78 6.09 11.74s3.92 9.57 7 17.4c3.08 7.83 5.22 12.62 5.22 12.62s-8.26 2.61-13.49 0-64.82-17.4-77-20.88c-12.18-3.48-12.18-3.92-34.37-3.48-22.19.44-48.29.87-53.51.43-5.22-.44-50.47-.87-67-1.3-16.53-.43-36.55-.44-36.55-.44l-96.58 6.53s-54 4.35-76.57 6.52c-22.57 2.17-47.86 7-57 10s-2.61 3.92-43.94 10-159.23 46.11-159.23 46.11l-109.61 43.98-83.53 39.59-29.58 23.5-25.73 29.6z" fill="#3A3A3A"/><path d="M362.69 914.781l-1.91-6.78s-9.39-28.19-13.14-64.29l-16.37 1s-16.93 9.73-24.8 17.26c-7.87 7.53-26.69 25.32-27.89 26.18-1.2.86-3.59 1.88 0 6s7 11.12 14.54 12.83c7.54 1.71 20.53 4.79 28.74 5 8.21.21 25.32-.85 28.91-.34s11.92 3.14 11.92 3.14zM1186 699.12s9.64 29.47 12.46 49.78l5.49 5.53s10.52-4.45 17-7.86a139.23 139.23 0 0017.2-10.53c3.7-2.82 11.12-8 11.41-9.27.29-1.27 1.44-12.95.83-14.34-.61-1.39-.68-2-11.88-7.83a206.613 206.613 0 00-23-9.78c-1.63-.74-26.39-3.41-26.39-3.41l-3.12 7.71z" fill="#3A3A3A"/><path d="M373.46 917.089h-4.68c-56.19-.07-90.26-6.42-92.68-19.56-6.33-34.45 190.66-148.001 460.41-197.561s510.1-16.39 516.43 18.06c2.19 11.92-22 27.87-65.63 45.69" stroke="#000" stroke-width="20" stroke-miterlimit="10"/><path d="M276.1 897.541l1-17.88a499.357 499.357 0 0181.09-246.72 24.225 24.225 0 003.89-15.35l3.69-190.4a30.898 30.898 0 0116.44-28.53l22.51-11.9c179.675-83.744 337.78-120.151 535.49-105.76l25.27 3.12a30.913 30.913 0 0125.52 20.88l81.9 182.72a24.306 24.306 0 008.74 11.85 499.295 499.295 0 01164 202.15l7.27 16.37" stroke="#000" stroke-width="20" stroke-miterlimit="10"/><path d="M452.22 609.6c169.082-69.754 347.944-103.167 530.779-98.07H986" stroke="#000" stroke-width="20" stroke-miterlimit="10" stroke-linecap="round"/><path d="M735.095 443.393l1.972 11.707a14.996 14.996 0 01-.243 6.356c-1.484 5.858-5.405 6.793-5.405 6.793a15.124 15.124 0 01-12.609-.464c-5.712-3.176-24.111-35.569-24.111-35.569l-17.743 42.62-16.494 2.778 24.879-59.509-14.382-20.304a8.99 8.99 0 00-8.609-3.726l-.267.045a9.129 9.129 0 00-7.329 4.568c-1.411 1.983-1.093 7.596-1.093 7.596l-3.352.82a44.476 44.476 0 01-1.944-10.026 15.029 15.029 0 011.347-7.6 11.012 11.012 0 018.372-6.529 15.127 15.127 0 019.059 1.278 16.771 16.771 0 016.922 6.168l14.222 23.194 16.224-36.853 15.007-2.528-22.255 51.811 10.507 16.506s8.612 16.197 16.83 14.813c8.218-1.385 6.983-13.373 6.983-13.373l3.512-.572z" fill="#fff"/><path d="M347.5 839c4 46 12.333 70.833 16.5 77.5l-72-4.5-14-16.5 3.5-74.5 25.5-90.5 57-101-3.5-40 4-174.5 30.5-21.5 103-43c-20.8 90.4 2.333 194.667 16.5 235.5L742 525.5l129-8c31.5-2 97.7-5.2 110.5-2 9.221 2.305 9.308 6.998 7.141 10.75-1.583 2.741-4.867 3.739-8.033 3.749-47.475.142-158.531 4.629-261.608 22.001-106.8 18-197.167 53.833-229 69.5-30 43.2-60.167 133-71.5 172.5l-71 45zM1238 737l-37 23c-10.14-51.813-16.66-65.682-19.08-66.5l2.58-7.5 53.5 20.5 12 14.5-12 16z" fill="#000" fill-opacity=".2"/></g><defs><clipPath id="prefix__clip0_53_29631"><path fill="#fff" d="M0 0h1500v1500H0z"/></clipPath></defs>
      
    </g>
    </svg>