<svg
      xmlns="http://www.w3.org/2000/svg"
      preserveAspectRatio="xMidYMin meet"
      fill="none"
      viewBox="0 0 1500 1500"
    >
      <g>
      <rect width="1500" height="1500" fill="white"/> <line y1="117" x2="1500" y2="117" stroke="#D0D0D0" stroke-width="6"/> <line y1="297.574" x2="1500" y2="297.574" stroke="#D0D0D0" stroke-width="6"/> <line y1="478.145" x2="1500" y2="478.145" stroke="#D0D0D0" stroke-width="6"/> <line y1="658.719" x2="1500" y2="658.719" stroke="#D0D0D0" stroke-width="6"/> <line y1="839.281" x2="1500" y2="839.281" stroke="#D0D0D0" stroke-width="6"/> <line y1="1019.86" x2="1500" y2="1019.86" stroke="#D0D0D0" stroke-width="6"/> <line y1="1200.43" x2="1500" y2="1200.43" stroke="#D0D0D0" stroke-width="6"/> <line y1="1381" x2="1500" y2="1381" stroke="#D0D0D0" stroke-width="6"/>
      <g clip-path="url(#a)"> <path fill="#fff" d="m289.3 1500 15.6-112.6 30.6-117.3-17.1-45.6s-15-117.7 41.2-161c56.3-43.2 65.5-47.4 65.5-47.4s135.6 172 339 168.9c203.3-3 328.2-130.2 328.2-130.2l42-46.1 14.4 50-15.7 43.3-10.7 32.2 38.4 53.6 56 125.7 16.2 70 16.9 63.5 13.6 53h-974Z"/> <path fill="#001647" fill-opacity=".2" d="M472 1229.5c-50 72.4-79.2 217.8-87.5 281.5h-94a906 906 0 0 1 40-250c-54.8-134.8 39.2-220.8 93-247 64.5 77 147.7 124.7 182 137.5-29.6 26-26.3 67.8-21 85.5l87 24c-82.4 21.6-167.3-12-199.5-31.5Z"/> <path fill="#000" d="M512.1 1369.4c-9.4 43-15.7 86.7-19 130.6h-20.8v-.7a926 926 0 0 1 19.5-134.7 10.5 10.5 0 0 1 20.3 4.8Zm620.4 130.6h-21.1c-2.9-14.2-20.3-98.7-36.7-147.4a10.5 10.5 0 0 1 3-11.2 10.5 10.5 0 0 1 14.8 1c1 1 1.6 2.3 2 3.6 18.3 54.2 37 148 37.8 152l.2 2ZM429 1140.4a248.5 248.5 0 0 0-79.9 113c-55.7 157-49.4 244.9-49.3 245.7v.9h-21c-.6-10.2-4.5-98.2 50.6-253.5A269.1 269.1 0 0 1 416 1124a10.7 10.7 0 0 1 7.9-2.5 10.5 10.5 0 0 1 5.1 18.9h.1Zm844.4 359.6h-21c-2.4-11.9-15.5-75.7-36.5-146.3-30.2-101.9-62.9-171.4-94.5-201l-2.5-2.3a45.3 45.3 0 0 0-5.6-4.7 10.5 10.5 0 0 1 12.7-16.6 65.6 65.6 0 0 1 9.7 8.4c34.8 32.6 68.6 103.4 100.3 210.4a1780.2 1780.2 0 0 1 37.4 152.1Z"/> <path stroke="#000" stroke-linecap="round" stroke-miterlimit="10" stroke-width="20" d="M425 1016.1s-157 58.9-95.7 254m95.7-147.5s52.3 120.4 243.5 131m297.2-16.4s119-29.8 172-136.3c32.8-66-6.7-89.6-6.7-89.6"/> </g> <defs> <clipPath id="a"> <path fill="#fff" d="M0 0h1500v1500H0z"/> </clipPath> </defs>
      <g clip-path="url(#prefix__clip0_53_30173)"><path d="M775 1185c231.41 0 419-168.12 419-375.5 0-207.383-187.59-375.5-419-375.5-231.407 0-419 168.117-419 375.5 0 207.38 187.593 375.5 419 375.5z" fill="#fff"/><path d="M457.5 796.002c7.6 194 131.833 327.498 193 369.998l-130-55.5L438 1034l-57.5-89.498-27-106 11-104 29.5-72.5 45-82.5 83.5-69.5 109-54.182 28.5-1c-90.548 58.496-208.881 178.314-202.5 341.182z" fill="#001647" fill-opacity=".2"/><path d="M775 1185c231.41 0 419-168.12 419-375.5 0-207.383-187.59-375.5-419-375.5-231.407 0-419 168.117-419 375.5 0 207.38 187.593 375.5 419 375.5z" stroke="#000" stroke-width="20"/></g><defs><clipPath id="prefix__clip0_53_30173"><path fill="#fff" d="M0 0h1500v1500H0z"/></clipPath></defs>
      <path d="M821.63 792.379C814.483 783.219 805.342 775.81 794.902 770.714C784.462 765.618 772.997 762.969 761.38 762.969C749.762 762.969 738.298 765.618 727.857 770.714C717.417 775.81 708.276 783.219 701.13 792.379" stroke="black" stroke-width="20" stroke-miterlimit="10" stroke-linecap="round"/> <path d="M836.82 991.441C875.39 1030.65 950.17 1030.65 988.75 991.441" stroke="black" stroke-width="20" stroke-miterlimit="10" stroke-linecap="round"/> <path d="M1109.25 792.379C1102.1 783.219 1092.96 775.81 1082.52 770.714C1072.08 765.618 1060.62 762.969 1049 762.969C1037.38 762.969 1025.92 765.618 1015.48 770.714C1005.04 775.81 995.897 783.219 988.75 792.379" stroke="black" stroke-width="20" stroke-miterlimit="10" stroke-linecap="round"/>
      
      <g clip-path="url(#prefix__clip0_53_30181)"><path d="M452.064 482.151C347.176 595.024 350.765 728.924 350.765 728.924c-.419 14.067 14.974 20.397 14.974 20.397l128.994-56.526 35.64-18.862 22.431 26.917c19.108 7.81 57.923 23.728 60.315 24.924 2.393 1.196 62.808 13.791 92.716 19.939 40.542-1.828 141.267-12.861 219.826-42.37 78.559-29.51 139.069-28.579 159.509-24.425 20.77 5.815 72.58 18.044 113.65 20.437 41.08 2.393 26.42-33.896 13.96-52.339l-23.93-13.958-46.35-19.421-43.06-91.459s-14.26-48.053-134.688-124.169c-120.431-76.117-240.911-57.175-240.911-57.175s-166.889 28.443-271.777 141.317z" fill="#fff"/><path d="M351.5 745.997c1.5-26 11-95.4 37-165 8.167-23.833 47.8-89.7 141-162.5S734 339.83 778 345.997c-204 104-266.667 267-272.5 335.501L398 731.997l-46.5 14zM747.5 579.497c-137.6 22.4-202.667 67-218 86.5l63-22.5 100-33 187.5-20 261 23.5-4-14.5c-49.5-17-217.5-48-389.5-20z" fill="#001647" fill-opacity=".2"/><path d="M539.057 669.816c-90.931 33.368-140.28 60.355-165.592 77.034a14.876 14.876 0 01-15.618.436 14.873 14.873 0 01-7.391-13.765c4.167-68.221 30.197-205.29 154.526-300.249 153.12-116.981 298.086-91.968 311.046-89.416.758.15 1.505.289 2.273.419 20.009 3.579 261.459 51.203 326.179 276.153" stroke="#000" stroke-width="20" stroke-miterlimit="10"/><path d="M539.057 669.817s166.23-121.009 586.323-54.064c0 0 48.7 9.6 90.07 32.062a30.695 30.695 0 0114.53 17.606 30.714 30.714 0 01-1.62 22.769 30.738 30.738 0 01-16.88 15.365 30.744 30.744 0 01-22.83-.52c-33.33-14.266-83.32-29.41-137.41-32.5-42.01-2.403-134.701 36.887-203.629 55.998A416.341 416.341 0 01676.515 737.3c-70.244-10.209-150.269-30.177-137.458-67.483z" stroke="#000" stroke-width="20" stroke-miterlimit="10"/></g><defs><clipPath id="prefix__clip0_53_30181"><path fill="#fff" d="M0 0h1500v1500H0z"/></clipPath></defs>
      
    </g>
    </svg>