<svg
      xmlns="http://www.w3.org/2000/svg"
      preserveAspectRatio="xMidYMin meet"
      fill="none"
      viewBox="0 0 1500 1500"
    >
      <g>
      <path fill="url(#prefix__paint0_linear_53_30462)" d="M0 0h1500v1500H0z"/><defs><linearGradient id="prefix__paint0_linear_53_30462" x1="0" y1="0" x2="1500" y2="1500" gradientUnits="userSpaceOnUse"><stop stop-color="#FFC4F6"/><stop offset="1" stop-color="#FF3DB1"/></linearGradient></defs>
      <g clip-path="url(#prefix__clip0_53_27868)"><path d="M295.8 1500s-47.94-91.54 28.64-134.76c0 0-62-101.54 67.13-159.88 0 0-37.4-104.09 81.15-137.65 0 0 144.28-18.07 334.85-18.07 0 0 171.93-9.14 272.93 4.86 0 0 48.6 26.91 76.51 133.04 0 0 102.26 45.87 83.4 145.87 0 0 95.08 77.12 34 166.56l-978.61.03z" fill="url(#prefix__paint0_linear_53_27868)"/><path d="M413.5 1436.5c-54 14.8-41.833 56.83-29 76H309c-8.833-12.83-26.5-48.1-26.5-86.5s29.667-63.33 44.5-71l-18-50c3.833-14.67 16.4-49.7 36-72.5 18.829-21.9 42.242-22.8 52.773-20.32-4.833-2.49-11.288-20.19-5.773-77.18 6-62 116.5-77.5 171-77.5l241.5-11 7 36c-17.167-2.17-61.1-4.2-99.5 5-48 11.5-80.5 77.5-76 125s48.5 68 69 76c16.4 6.4 11.5 13.67 7 16.5-49.667-3.83-159.1-14.1-199.5-24.5-50.5-13-74.5 13.5-92 47s3 79 17.5 92c11.6 10.4 7.5 15.67 4 17h-28.5zM678.5 1465.5c-20-4.8-18.667-17-15.5-22.5l169.5 1.5 157-10.5c19 28-73 38.5-157 41s-129-3.5-154-9.5zM913 1321.5c-15.2-3.6-15-12.83-13-17l49-6.5c2.333-3.33 20.5-12.3 74.5-21.5s109.83-61.5 131-86.5l25.5 11.5c-14.33 17-57.5 58.1-115.5 86.5-72.5 35.5-132.5 38-151.5 33.5zM1179.5 1422.5c-23.2 0-24-9.67-21.5-14.5 37.6-11.6 66.67-41.83 76.5-55.5 8.5-9.83 24.8-22.5 22 5.5-3.5 35-48 64.5-77 64.5z" fill="#001647" fill-opacity=".2"/><path d="M1084.5 1337c12.33 37 29.5 110.3 43.5 175.5m-646.5 0c.333-32.83 7.7-107.6 20.5-157M301.5 1508.5c-25.5-42-37.6-117.3 23-149.5m0 0c-22-46-25-128.1 67-152.5m-67 152.5c11.333 20.83 47.5 64.6 110.5 79m-43.5-231.5c-10.5-36.17-17.4-111.6 71-136 53.112-14.66 199.972-21.87 344-24.82m-415 160.82c38.167 32.17 156.3 99.1 315.5 97.5m450-116c-10.37-60.53-39.49-100.92-65.94-123.9-17.73-15.41-41.66-19.79-65.15-19.96-61.49-.42-140.02-.09-219.41 1.54M1157 1188c35.17 12.5 94.3 55.9 83.5 145.5M1157 1188c-97.6 94-206 116.5-248 116m331.5 29.5c35.83 26.17 81.7 104.2 28.5 180m-28.5-180c-4.8 43.2-51.67 65.33-74.5 71m-330.5 109l-29-467.82M672 1444c61.333 6.17 208.7 12.7 307.5-10.5" stroke="#000" stroke-width="20" stroke-linecap="round"/></g><defs><linearGradient id="prefix__paint0_linear_53_27868" x1="461" y1="1064" x2="1157" y2="1546" gradientUnits="userSpaceOnUse"><stop stop-color="#FFEB37"/><stop offset=".522" stop-color="#FF60ED"/><stop offset="1" stop-color="#33E5FF"/></linearGradient><clipPath id="prefix__clip0_53_27868"><path fill="#fff" d="M0 0h1500v1500H0z"/></clipPath></defs>
      <g clip-path="url(#prefix__clip0_299_662)"><path d="M775 1185c231.41 0 419-168.12 419-375.5 0-207.383-187.59-375.5-419-375.5-231.407 0-419 168.117-419 375.5 0 207.38 187.593 375.5 419 375.5z" fill="#ABF"/><path d="M457.5 796c7.6 194 131.833 327.5 193 370l-130-55.5L438 1034l-57.5-89.5-27-106 11-104L394 662l45-82.5 83.5-69.5 109-54.182 28.5-1C569.452 513.314 451.119 633.132 457.5 796z" fill="#001647" fill-opacity=".2"/><path d="M775 1185c231.41 0 419-168.12 419-375.5 0-207.383-187.59-375.5-419-375.5-231.407 0-419 168.117-419 375.5 0 207.38 187.593 375.5 419 375.5z" stroke="#000" stroke-width="20"/></g><defs><clipPath id="prefix__clip0_299_662"><path fill="#fff" d="M0 0h1500v1500H0z"/></clipPath></defs>
      <g clip-path="url(#prefix__clip0_53_29449)"><path d="M844.63 1012.87h141.62" stroke="#000" stroke-width="20" stroke-linecap="round"/><path d="M764.05 841.24c31.336 0 56.74-25.404 56.74-56.74 0-31.337-25.404-56.74-56.74-56.74-31.337 0-56.74 25.403-56.74 56.74 0 31.336 25.403 56.74 56.74 56.74zM1048.19 841.24c31.34 0 56.74-25.404 56.74-56.74 0-31.337-25.4-56.74-56.74-56.74-31.34 0-56.74 25.403-56.74 56.74 0 31.336 25.4 56.74 56.74 56.74z" fill="#fff" stroke="#000" stroke-width="20" stroke-miterlimit="10"/><path d="M764.05 770.5c7.18 0 13-5.82 13-13s-5.82-13-13-13-13 5.82-13 13 5.82 13 13 13zM1048.19 770.5c7.18 0 13-5.82 13-13s-5.82-13-13-13-13 5.82-13 13 5.82 13 13 13z" fill="#000"/></g><defs><clipPath id="prefix__clip0_53_29449"><path fill="#fff" d="M0 0h1500v1500H0z"/></clipPath></defs>
      <g clip-path="url(#prefix__clip0_53_27350)"><path d="M695 882.421v6.14a7.746 7.746 0 01-.67 3.22c-1.26 2.86-3.34 3-3.34 3a7.817 7.817 0 01-6.39-1.32c-2.64-2.11-9.24-20.21-9.24-20.21l-12.71 20.21H654l17.8-28.21-5.59-11.59a4.654 4.654 0 00-4.07-2.64H662a4.724 4.724 0 00-4.13 1.7c-.89.89-1.21 3.78-1.21 3.78l-1.78.13a22.972 22.972 0 01-.13-5.28 7.776 7.776 0 011.34-3.76 5.694 5.694 0 014.83-2.61 7.816 7.816 0 014.51 1.43 8.67 8.67 0 013 3.74l5.26 13.05 11.44-17.4H693l-15.8 24.51 3.94 9.32s3 9 7.31 9 4.71-6.22 4.71-6.22l1.84.01z" fill="#000"/></g><defs><clipPath id="prefix__clip0_53_27350"><path fill="#fff" d="M0 0h1500v1500H0z"/></clipPath></defs>
      <g clip-path="url(#prefix__clip0_53_25602)"><path d="M365.32 719.27L347 619.12 264.5 384l20.57-6.1L332 414.84l88.86 26.3 57 2.59 56.82-19.5L594.83 389l47.09-45 22.91-46.4L693 216l18.81 6.18L768 325.5l72.43 45.6 68.14 17.24 67.3-1.57 59.54-18.87 86.59-59.4 22.17-22.57 7.58 19.47-24.39 229.29 16.42 84.43-167.56-10.55-177 10.55-256.83 44.36L392.05 709l-26.73 10.27zM693 207.5a38.004 38.004 0 0035.107-23.458 37.994 37.994 0 00-8.237-41.412A37.998 37.998 0 00655 169.5a38.001 38.001 0 0038 38zM1160 285.5c8.31 0 16.43-2.463 23.33-7.078a41.992 41.992 0 0017.86-43.116 42.012 42.012 0 00-11.49-21.504 42.032 42.032 0 00-21.51-11.495 41.976 41.976 0 00-24.26 2.39 41.947 41.947 0 00-18.85 15.469A41.962 41.962 0 001118 243.5a41.986 41.986 0 0012.3 29.699A42.01 42.01 0 001160 285.5z" fill="#FFBF44"/><path d="M255 384.5a41 41 0 10-.001-81.998A41 41 0 00255 384.5z" fill="#FFBF44"/><path d="M719 478.5c17.67 0 32-26 32-58s-14.33-58-32-58-32 26-32 58 14.33 58 32 58z" fill="#53B6F9"/><path d="M453 280.5a45 45 0 100-90.002 45 45 0 000 90.002zM949 223.5a45 45 0 100-90.002 45 45 0 000 90.002z" fill="#FFBF44"/><path d="M409.61 437.809l34.39-75.3 15-64.91 1.52-22.099 34.98 26.999 43.8 34.7 59.7 33.9 1.25 13.4-65.68 39.73-74.05 19.5-50.91-5.92zM815.71 355.85L884 297.6l61.499-80.1 21.181 39.6 40.14 68.51 28.59 42.29L956 391.5l-69.93-7.65-70.36-28z" fill="#FFBF44"/><path d="M593 451.499c-25.6 61.6 4.333 155.667 22.5 195L484 682l-119 39.5-11-89-55.5-150L269 394c-17 .5-52.4-8.7-58-49.5-5.6-40.8 36.333-42 58-37.5-8.833-.167-27.3 6.3-30.5 33.5-3.2 27.2 16 39.666 26 42.5l16.5-2.5 61.5 44.5 68 10 39-74 13-77c-17.333 2.833-52.5-2.201-54.5-45.001s35.5-44.5 54.5-40c-8.333.5-25.3 8.3-26.5 35.5-1.2 27.2 17.167 36.667 26.5 38l10.5 14.5c-6.4 41.2 40 107.5 64 135.5l71-46c13.333-17.166 40-48.3 40-35.5 0 16-23 33.5-55 110.5zM709.5 419.5c-3.6-38 11.5-46.167 19.5-45.5v-4c-4.5-1.667-13.9-5.1-15.5-5.5-1.6-.4-15.333 1.833-22 3-4.333 14-11.5 49.8-5.5 81 6 31.2 36.833 26.666 51.5 20.5-7.833-.667-24.4-11.5-28-49.5zM675.5 173.5c-.4-32.8 19.833-40.667 30-40.5-16.5-3.5-60.5 1.499-54 46.999 5.2 36.4 49.833 33.167 71.5 27-15.667 2.5-47.1-.699-47.5-33.499zM930 181.999c-2.4-25.2 16.333-36.833 26-39.5-19.333-3.333-57-.8-53 36s41 41.333 59 39c-9.667-1.333-29.6-10.3-32-35.5zM941.5 316.999c-6.8-52-1.167-79.333 2.5-86.5-9.167 5.333-27.8 16.6-29 19-1.2 2.4-25.5 39.667-37.5 58l-60 48.5 48 23 108 10c-7.833-2.333-25.2-20-32-72zM1143 244.499c1.6-28.8 21-35.333 30.5-35-21-6.333-61.5-8.8-55.5 32s40.5 45.333 57 42.5c-11.33-1.167-33.6-10.7-32-39.5z" fill="#001647" fill-opacity=".2"/><path d="M365.32 719.279s337-143.17 774.3-103.93l-12.26-80.66s-344.86-73.69-775.74 97.86l13.7 86.73z" stroke="#000" stroke-width="20" stroke-miterlimit="10"/><path d="M1127.36 534.691l25.06-235.54c.26-2.45-.25-4.921-1.45-7.07a11.856 11.856 0 00-5.27-4.932 11.895 11.895 0 00-13.55 2.352l-32.5 32.72c-106.14 106.83-284.65 84.41-361.05-45.34l-28.77-48.88a11.904 11.904 0 00-11.504-5.79 11.897 11.897 0 00-10.036 8.07l-15.43 46.36c-50.81 152.62-233.72 214-366.28 122.82l-16.78-11.46c-9.46-6.5-21.74 2.84-18 13.69l79.81 230.88" stroke="#000" stroke-width="20" stroke-miterlimit="10"/><path d="M405.85 443.731s44.35-65 53.85-151.8a11.894 11.894 0 017.865-9.945 11.896 11.896 0 0112.365 2.805c26.7 26.69 73.67 73 136.62 92.58M1043.52 370.1s-57.83-55.49-86.87-138a11.889 11.889 0 00-21.29-2.4C915 262.16 872.79 320.91 815.71 355M693 214.5a45 45 0 100-90.002 45 45 0 000 90.002v0zM255.5 389a45 45 0 100-90.002 45 45 0 000 90.002zM453.5 280a45 45 0 100-90.002 45 45 0 000 90.002z" stroke="#000" stroke-width="20" stroke-miterlimit="10"/><path d="M948.5 224a45 45 0 100-90.002 45 45 0 000 90.002v0zM1160.5 289a44.995 44.995 0 0041.57-27.779 45.023 45.023 0 002.57-26 45.063 45.063 0 00-12.32-23.041 44.98 44.98 0 00-23.04-12.315 44.991 44.991 0 00-26 2.56 45.056 45.056 0 00-20.2 16.574A45.037 45.037 0 001115.5 244a44.996 44.996 0 0045 45zM724.83 480.74c19.15-2 31.86-30.42 28.37-63.44-3.49-33.02-21.84-58.13-41-56.11-19.16 2.02-31.86 30.43-28.37 63.44 3.49 33.01 21.84 58.14 41 56.11z" stroke="#000" stroke-width="20" stroke-miterlimit="10"/></g><defs><clipPath id="prefix__clip0_53_25602"><path fill="#fff" d="M0 0h1500v1500H0z"/></clipPath></defs>
      
    </g>
    </svg>