<svg
      xmlns="http://www.w3.org/2000/svg"
      preserveAspectRatio="xMidYMin meet"
      fill="none"
      viewBox="0 0 1500 1500"
    >
      <g>
      <path fill="url(#prefix__paint0_linear_53_30463)" d="M0 0h1500v1500H0z"/><defs><linearGradient id="prefix__paint0_linear_53_30463" x1="1500" y1="1500" x2="0" y2="0" gradientUnits="userSpaceOnUse"><stop stop-color="#FF5A5A"/><stop offset="1" stop-color="#FFBDBD"/></linearGradient></defs>
      <g clip-path="url(#prefix__clip0_53_27729)"><path d="M511.71 1369.26a922.097 922.097 0 00-19 130.68h-20v-.69a924.662 924.662 0 0119.51-134.59 10.023 10.023 0 014.513-6.08 10.031 10.031 0 017.473-1.17 9.979 9.979 0 016.157 4.4 10.002 10.002 0 011.317 7.45h.03zM1132 1499.94h-20.2c-2.81-13.91-20.24-98.71-36.65-147.5-.45-1.26-.65-2.59-.58-3.92a9.997 9.997 0 013.37-6.98c1-.88 2.16-1.55 3.42-1.98 1.27-.42 2.6-.59 3.93-.49 1.33.09 2.62.45 3.81 1.06a9.988 9.988 0 015 5.93c18.25 54.23 36.92 147.99 37.71 151.93.13.64.19 1.3.19 1.95z" fill="#000"/><path d="M1266 1504.94l-976.67-1 3.73-70.49 22.17-107.34L355 1202.95l53.62-77.7s48.18-22.48 112.86-50.61 195.37-27.16 195.37-27.16 198.15-14 351.31 45.59c153.16 59.58 197.84 411.87 197.84 411.87z" fill="#F56CDB"/><path d="M739.499 1500l-19.859-143.04V1211l39.86-169 83.5 6.5 40 108 9.34 28.45 23.35 117.75 6.45 197.3H739.499z" fill="#ABF"/><path d="M740.41 1499.98l-15.32-158.63-5.88-102.43L739 1109.5l17-64.5 80.5 3 51.69 124.63 26.66 114.71 7 165.68-2.26 46.96H740.41z" fill="#fff"/><path d="M769.13 1499.92l18.12-231.45-27.78-13.87 53.15-64.43 53.96 68.22-23.79 12.81 21.3 105.71 23.04 123.07-118-.06z" fill="#3A3A3A"/><path d="M724.06 1281.21h-6.76v-20h15.35a5.038 5.038 0 002.49-.85 5.058 5.058 0 001.71-2.01l.42-.79 56.4-71.55a17.604 17.604 0 015.964-4.86 17.47 17.47 0 017.466-1.86c2.595-.07 5.172.44 7.547 1.49a17.667 17.667 0 016.193 4.57l58.48 67.19.47.79a5.394 5.394 0 002.474 2.21c1.036.45 2.189.57 3.296.33 4.74-1 12.37-2.84 21.82-5.63l5.68 19.17c-8 2.36-16 4.43-23.26 6a25.33 25.33 0 01-15.069-1.33 25.339 25.339 0 01-11.631-9.67l-55.48-63.75-53.6 67.99a24.793 24.793 0 01-8.988 9.15 24.755 24.755 0 01-12.352 3.44l-8.62-.03z" fill="#000"/><path d="M808.88 1283.14a121.279 121.279 0 01-48.31-10l-9.93-4.31 8-18.34 9.93 4.3a101.638 101.638 0 0040.35 8.35c13.878 0 27.61-2.84 40.35-8.35l9.93-4.3 8 18.34-9.93 4.31a121.313 121.313 0 01-48.39 10z" fill="#000"/><path d="M784.18 1500l-20-.16 8.27-226.74 20 .16-8.27 226.74zM882.82 1499.92L835 1275.79l19.3-5.23 49.24 229.36h-20.72zM934.26 1406.6c1.28 36.42 1.09 69.17.56 93.38h-20a.067.067 0 01-.008-.03c0-.01.003-.02.008-.03.22-10.44.38-22.51.38-35.84 0-52.53-2.47-124.45-13-191.61-1-6.65-2.17-13.26-3.38-19.79-5.25-28.36-12.1-55.39-21-79.19l9.36-3.5 9.35-3.49.27.74c21.28 57.35 33.89 137.89 37.46 239.36z" fill="#000"/><path d="M741 1514c-20.834-79.33-46.8-283.4 16-465m165 465c7-105.5 5.7-294.2-83.5-465" stroke="#000" stroke-width="20"/><path d="M659.15 1338.95a17.374 17.374 0 01-3.179 8.8 17.353 17.353 0 01-7.281 5.86l-43.43 18.72a10.181 10.181 0 00-5.7 12.39l35.82 115.29h-20.94l-34-109.36a30.141 30.141 0 0116.9-36.7l38.87-16.76-60.54-37.75a32.748 32.748 0 01-9.85-9.52 32.804 32.804 0 01-4.558-26.41 32.763 32.763 0 016.088-12.27L743.5 1039l7.82 6.22 7.83 6.23L583 1263.7a12.8 12.8 0 00-2.577 10.13c.306 1.77.984 3.46 1.988 4.95a12.66 12.66 0 003.839 3.71l64.75 40.38a17.413 17.413 0 016.326 6.9 17.366 17.366 0 011.824 9.18zM1063.62 1362.35L1042 1500h-20.25l22.15-140.76c.39-2.48-.15-5.03-1.52-7.14a10.192 10.192 0 00-5.91-4.29l-45.68-12.24a17.38 17.38 0 01-8.052-4.75 17.455 17.455 0 01-4.422-8.25 17.378 17.378 0 015.744-17.07l58.23-49.32c1.37-1.17 2.49-2.61 3.26-4.23a12.7 12.7 0 001.25-5.2 12.765 12.765 0 00-4.02-9.64l-195.63-183.32 6.85-7.29 6.85-7.28 195.63 183.32c3.37 3.16 6.03 7 7.8 11.26 1.78 4.26 2.64 8.85 2.52 13.47-.12 4.62-1.21 9.16-3.21 13.32a32.757 32.757 0 01-8.37 10.85l-54.44 46.11 40.88 10.99a30.148 30.148 0 0117.47 12.7 30.146 30.146 0 014.49 21.11z" fill="#000"/><path d="M289.5 1512.5c-6-101.5 31-323.03 140.5-398 158.5-108.51 616.5-87 706.5 26 64.91 81.5 99.5 222.5 132.5 371M1084.5 1337c12.33 37 29.5 110.3 43.5 175.5m-646.5 0c.333-32.83 7.7-107.6 20.5-157" stroke="#000" stroke-width="20" stroke-linecap="round"/><path d="M499.998 1213.5c-101.2 100-117.834 249-113.5 311l-99.502-13c-1.6-110.8 39-247.5 59.5-302l39.501-52.5 15.5-20.5 66.5-42.5c148.171-59.03 291.242-54.92 345.943-45.28-.665-1.27-1.312-2.51-1.94-3.72h29l16.5 49 34.5 88.5 32.5 164.5v162.5l-25 9.5c10.4-118.4-4.333-217-13-251.5-28.202-135.75-55.642-186.51-72.273-218.23-63.742 13.58-213.703 64.89-314.229 164.23z" fill="#001647" fill-opacity=".2"/><path d="M850 1267.5l-59.5-64 19-17.5 58 66.5-17.5 15zM808 1293.5c15.2-.4 30.333-4.17 36-6l-3-14.5h-53l-11 129 5.5-127-29.5-11.5-12.5 11.5 19 9c3.6 57.2-4.5 170.5-9 220l55 8 2.5-218.5zM569 1373.5c-13.2 17.2 20.5 100.5 38 139.5l24-3-44.5-136.5 30.5-23c-10.5.5-34.8 5.8-48 23zM551 1279.5c-2.033 19.11 49.333 52.5 76.5 67l19.5-5.5-76-66 2.5-24c-5.833 1.67-20.5 9.7-22.5 28.5z" fill="#001647" fill-opacity=".2"/></g><defs><clipPath id="prefix__clip0_53_27729"><path fill="#fff" d="M0 0h1500v1500H0z"/></clipPath></defs>
      <g clip-path="url(#prefix__clip0_299_662)"><path d="M775 1185c231.41 0 419-168.12 419-375.5 0-207.383-187.59-375.5-419-375.5-231.407 0-419 168.117-419 375.5 0 207.38 187.593 375.5 419 375.5z" fill="#ABF"/><path d="M457.5 796c7.6 194 131.833 327.5 193 370l-130-55.5L438 1034l-57.5-89.5-27-106 11-104L394 662l45-82.5 83.5-69.5 109-54.182 28.5-1C569.452 513.314 451.119 633.132 457.5 796z" fill="#001647" fill-opacity=".2"/><path d="M775 1185c231.41 0 419-168.12 419-375.5 0-207.383-187.59-375.5-419-375.5-231.407 0-419 168.117-419 375.5 0 207.38 187.593 375.5 419 375.5z" stroke="#000" stroke-width="20"/></g><defs><clipPath id="prefix__clip0_299_662"><path fill="#fff" d="M0 0h1500v1500H0z"/></clipPath></defs>
      <g clip-path="url(#prefix__clip0_53_29261)"><path d="M761.369 722.219a74.743 74.743 0 00-74.67 74.67 10.671 10.671 0 0021.33 0 53.344 53.344 0 0191.31-38.188 53.341 53.341 0 0115.36 38.188 31.999 31.999 0 01-54.627 22.627 32 32 0 01-9.373-22.627c-.041-1.427.2-2.847.71-4.18a10.68 10.68 0 012.3-3.58 10.659 10.659 0 0117.6 3.58 10.64 10.64 0 01.72 4.18 10.67 10.67 0 1021.34 0 32.003 32.003 0 00-9.372-22.628 32.003 32.003 0 00-45.255 0 32.004 32.004 0 00-9.373 22.628 53.333 53.333 0 0053.33 53.33 53.33 53.33 0 0053.33-53.33 74.738 74.738 0 00-74.66-74.67zM1048.37 722.219a74.743 74.743 0 00-74.671 74.67 10.671 10.671 0 0021.33 0 53.354 53.354 0 013.848-20.636 53.313 53.313 0 0111.513-17.552 53.28 53.28 0 0117.39-11.752 53.352 53.352 0 0141.17 0 53.385 53.385 0 0117.39 11.752 53.414 53.414 0 0111.51 17.552 53.227 53.227 0 013.85 20.636 32 32 0 01-32 32 32 32 0 01-32-32c-.06-1.789.34-3.563 1.15-5.159.81-1.596 2-2.963 3.48-3.974a10.664 10.664 0 0110.19-1.017c1.32.557 2.51 1.376 3.51 2.407a10.68 10.68 0 012.28 3.593c.52 1.331.76 2.752.72 4.18 0 2.83 1.12 5.544 3.12 7.545a10.697 10.697 0 007.55 3.125c2.83 0 5.54-1.124 7.54-3.125a10.637 10.637 0 003.13-7.545 31.999 31.999 0 00-32-32 31.999 31.999 0 00-32 32 53.337 53.337 0 0015.62 37.71 53.336 53.336 0 0037.71 15.62c14.14 0 27.71-5.619 37.71-15.62a53.337 53.337 0 0015.62-37.71 74.736 74.736 0 00-21.89-52.776 74.731 74.731 0 00-52.77-21.894v-.03z" fill="#000"/><path d="M912.5 1068.5c32.585 0 59-26.42 59-59 0-32.585-26.415-59-59-59s-59 26.415-59 59c0 32.58 26.415 59 59 59z" fill="#fff" stroke="#000" stroke-width="20" stroke-miterlimit="10"/></g><defs><clipPath id="prefix__clip0_53_29261"><path fill="#fff" d="M0 0h1500v1500H0z"/></clipPath></defs>
      <g clip-path="url(#prefix__clip0_53_27310)"><path opacity=".5" d="M650.33 766.53s-2.59-63.6 77.41-64.6c80-1 105.45 2.24 105.45 2.24l29.55 17.76 13 59.31s1 26 0 31.36c-1 5.36-25.33 41.83-25.33 41.83s-41.37 47.5-90.52 42-92.15-45.5-92.15-45.5-21-51.25-21.51-51.62c-.51-.37 4.1-32.78 4.1-32.78zM971.33 725.75s24.62-35.82 106.52-28.32c81.9 7.5 88.3 28.32 88.3 28.32s3.59-3.82 6.59 23.18 6 40 6 40-3 17-4 21-2.41 19-5.21 24-9 15.59-11.4 18.29c-2.4 2.7-11.94 13.84-20.67 20.77-8.73 6.93-28.37 15.28-30 16.61-1.63 1.33-10 8.21-17.32 7.26-7.32-.95-16.4 1.13-32.4.07-16-1.06-56.74-16.431-58.738-20.431-2-4-19-8.5-24-24.5s-7.902-19.909-9.582-23.489c-1.68-3.58-8.68-9.82-8.68-26.2s5-29.38 6-35.38c1-6 8.59-41.18 8.59-41.18z" fill="#FF6247"/><path d="M681.5 720.5S687 709.23 739 703l97 169.89s-18 18.68-56.07 18.1L681.5 720.5zM756.58 700.12s-4.78 3.73 13-7.12L856 850.55s5.57 6.48-9 9.45l-90.42-159.88zM991.001 719.382s-1-21.754 50.999-28.382l97 180.731s-18 19.872-56.07 19.255l-91.929-171.604zM1059.58 700.12s-4.78 3.73 13.05-7.12L1159 850.55s5.57 6.48-9 9.45l-90.42-159.88z" fill="#fff" fill-opacity=".3"/><path d="M722.89 697.43h79.71a72.65 72.65 0 0172.65 72.65v13.85a112.499 112.499 0 01-112.5 112.5 112.499 112.499 0 01-112.5-112.5v-13.86a72.653 72.653 0 0172.64-72.64v0zM1028.89 697.43h79.71c19.27 0 37.75 7.654 51.37 21.278a72.63 72.63 0 0121.28 51.372v13.85a112.5 112.5 0 11-225 0v-13.86a72.653 72.653 0 0172.64-72.64zM874.6 792.43a68.918 68.918 0 0181.64 0M866 736h97M650.24 755.43l-266.5-60.5" stroke="#000" stroke-width="20" stroke-miterlimit="10"/></g><defs><clipPath id="prefix__clip0_53_27310"><path fill="#fff" d="M0 0h1500v1500H0z"/></clipPath></defs>
      <g clip-path="url(#prefix__clip0_53_25387)"><path d="M883.5 650l-16.5-3.5s-14.74-3.47-20.5 3.5c-5.76 6.97-19.09-11.38-20-6.5-.91 4.88-46.5 6-46.5 6h-40s-44.65-5.41-62.5.5-50.28-1.76-54.5-.5c-4.22 1.26-52.39 2.31-54.5 4-2.11 1.69-9.39 27.31-11.5 29-2.11 1.69-4.58 20.62-5 32-.42 11.38-10.13 18.92-10.5 26.5-.37 7.58-20.22 27.92-24.01 40.56-3.79 12.64-9.09 14.09-12.88 21.67-3.79 7.58-19.67 8.48-22.61 12.27-2.94 3.79-15.13 7.29-18.5 11.5-4.098 5.459-6.108 9.613-11.72 13.5-7.19 4.89-9.56 5.63-9.56 5.63s-33.77-1.07-36.88.2c-3.11 1.27-48 11.55-48 11.55l-11.85-3s24.4 13.39 20.18-1.36c-4.22-14.75-6.73 3-9.65-16.66s-5.52-25.69-10.15-40.14c-4.63-14.45-8.43-29.8-12.18-44.12-3.75-14.32 0-29.5 0-29.5s1.31-26.32 5.31-42.61c4-16.29 5.48-23.18 5.9-26.8.42-3.62 10.53-30.93 11.37-33 .84-2.07 25.28-66.57 25.28-66.57l29.16-30.34 66.49-64.47s115-35 121.35-38.12c6.35-3.12 20.64-6.54 21.91-7.38 1.27-.84 42.35-15.21 49.94-18.58 7.59-3.37 18.69 1.76 25 0 6.31-1.76 42.09-3.41 49.25-4.25 7.16-.84 27-11.38 45.64-10 18.64 1.38 48.28-.38 70.27 2.77 21.99 3.15 63.52 13.11 63.52 13.11l129.09 67.13 91.65 82.62 59.88 113.61-8.02 79.78C1174.5 648 1150 628 1150 628s-48 22-139.66 15.84c-1.94-.42-55.2 6.32-57.84 4.16-2.64-2.16-48-1.5-48-1.5l-21 3.5z" fill="#53B6F9"/><path d="M435 581s47.08 58.45 108.11 5.17 24.83-101.9 24.83-101.9l-29.48 44-37.26 29.46-60 20.69L435 581zM1024.5 435.49s46.93-35.77 103.52 21.39c56.59 57.16 38 89.94 38 89.94l-5.37 14.54s-79.83-84.64-83.46-86c-3.63-1.36-52.69-39.87-52.69-39.87z" fill="#FFBF44"/><path d="M405.24 582.5c98.837 0 178.96-80.123 178.96-178.96s-80.123-178.96-178.96-178.96-178.96 80.123-178.96 178.96S306.403 582.5 405.24 582.5zM1101.66 250.201s118.53-30.73 213.94 92.8-71.16 271-71.16 271l-47.7 15.32-36.74-57.32s39.28-33.26-22.21-103.89-121.36-32.11-121.36-32.11l-77.91-34.06s37.81-124.86 163.14-151.74z" fill="#53B6F9"/><path d="M373.5 232c-29.333 37.5-61 147 23 221 80.896 71.266 145.177 43.534 172.375 15.255.953-17.075 3.884-35.035 10.91-30.686L581.5 422.5l89.5-26c19.667-.667 60.4-.3 66 6.5 5.6 6.8-7.333 11.833-14.5 13.5-81.6 33.6-122.667 92.667-133 118l-15-50.5 3.02-26.529c-2.233 3.462-5.129 7.127-8.645 10.784A251.05 251.05 0 00568.5 484l-38 55c4.5 8.5 17.6 24.5 34 20.5s-12.167 20.333-28.5 33c-12.545 5.639-36.089 13.886-55.914 14.893L491 613l41.5-9.5c-47.389 59.2-53.079 160-50 203-22.667 15-74.3 45.8-99.5 49-25.2 3.2-35.5-14.333-37.5-23.5l-7.5-88.5 7.5-75.5 34.5-83h50.77c-2.488-2.414-4.035-4.313-4.77-5.5-39.333 8.833-131.2.8-184-102C176 349 295.5 250 373.5 232zM1187.5 260c-93.2 26.4-130.83 120.667-138 164.5l14.5 5c16.33 2 44.3 6.8 25.5 10-18.8 3.2-24.83 22.333-25.5 31.5l-39.5-27-78-41.5c7.833-25.667 38-86.9 96-126.5 58-39.6 120.83-27.167 145-16z" fill="#001647" fill-opacity=".2"/><path d="M583.41 420c37.1-11.54 52.09-24.66 133.5-24.66 18.09 0 14.09-.406 30.12-4.2C811 376 929.86 367.49 1069.19 479.08c165.48 132.53 145.14 244.65 121.69 284.41" stroke="#000" stroke-width="20" stroke-miterlimit="10"/><path d="M1154.46 647.454c5.49-.527 9.52-5.411 9-10.909-.53-5.497-5.42-9.527-10.91-8.999l1.91 19.908zm-594.77 17.377l-9.982-.591 9.982.591zm-192.75 192.72l-.641-9.979h-.013l-.013.001.667 9.978zm-17.29-12.79l-9.738 2.273.002.009 9.736-2.282zm802.9-217.215C875.809 654.085 591.253 639 579.001 639v20c10.748 0 297.452 15.115 575.459-11.546l-1.91-19.908zM579.001 639c-15.921 0-28.408 10.296-29.293 25.24l19.965 1.182c.102-1.738.823-3.161 2.069-4.23 1.268-1.089 3.556-2.192 7.259-2.192v-20zm-29.293 25.24c-4.214 71.117-40.405 116.069-80.529 143.855-40.527 28.064-84.727 38.31-102.88 39.477l1.282 19.958c21.527-1.383 69.272-12.722 112.985-42.993 44.116-30.549 84.46-80.682 89.107-159.115l-19.965-1.182zM366.273 847.573a6.621 6.621 0 01-4.379-1.283L350 862.369a26.625 26.625 0 0017.607 5.16l-1.334-19.956zm-4.379-1.283a6.622 6.622 0 01-2.508-3.811l-19.472 4.564A26.62 26.62 0 00350 862.369l11.894-16.079zm-2.506-3.802c-9.397-40.259-28.877-147.282 28.046-257.436l-17.768-9.182c-60.237 116.566-39.497 229.422-29.754 271.164l19.476-4.546z" fill="#000"/><path d="M1024.5 441s37.29-42.26 107.21 26.71C1197.68 532.77 1160 572 1160 572" stroke="#000" stroke-width="20" stroke-miterlimit="10"/><path d="M1196.21 635.52a198.421 198.421 0 0088.32-54.171 198.45 198.45 0 0048.99-91.299c24.87-106.79-41.54-213.52-148.33-238.39C1078.4 226.79 971.67 293.2 946.8 400M405.24 582.451c98.809 0 178.91-80.101 178.91-178.91s-80.101-178.91-178.91-178.91-178.91 80.101-178.91 178.91 80.101 178.91 178.91 178.91z" stroke="#000" stroke-width="20" stroke-miterlimit="10"/><path d="M430.7 580.67s40.75 59.81 114.23 3.6c75.41-57.68 21.32-108.76 21.32-108.76" stroke="#000" stroke-width="20" stroke-miterlimit="10"/></g><defs><clipPath id="prefix__clip0_53_25387"><path fill="#fff" d="M0 0h1500v1500H0z"/></clipPath></defs>
      
    </g>
    </svg>