<svg
      xmlns="http://www.w3.org/2000/svg"
      preserveAspectRatio="xMidYMin meet"
      fill="none"
      viewBox="0 0 1500 1500"
    >
      <g>
      <path fill="url(#prefix__a1)" d="M0 0h1500v1500H0z"/><defs><linearGradient id="prefix__a1" x1="0" y1="0" x2="1500" y2="1500" gradientUnits="userSpaceOnUse"><stop stop-color="#57ECFF"/><stop offset="1" stop-color="#4E41EE"/></linearGradient></defs>
      <g clip-path="url(#prefix__clip0_53_27659)"><path d="M1270 1510H289.328l3.73-76.49 19.17-107.35 44.77-126.16 57.62-69.7s16.68-13.8 39.81-26.64c2.98-1.65 6.13-1.37 9.45-3.15l.27-.14a755.252 755.252 0 0133.91-17.06c7.333-7.49 15.14-3.04 23.42-6.63 64.69-28.13 195.37-31.16 195.37-31.16s177.58-8.86 326.462 39.72c6 1.95 11.92 4.01 17.78 6.19 2.36.87 4.72 1.77 7.06 2.68 11.17 4.4 21.77 10.13 31.58 17.07.26.17.49.35.75.53C1227.31 1201.61 1270 1510 1270 1510z" fill="#FF6247"/><path d="M591.29 1502.91l-5.94-181.35 9.9-75.13-78-36.21-30.81-42.7-24.53-66.01L504 1080.5l114-27.5 157-9.5h26l18.5 5 108 4.5 113 31.5 56.5 25.5-26.3 60.76-16.22 27.03-41.98 28.71-26.12 16.14 18.92 126.48-3.17 133.79H882.11l6.58-174.09L859.47 1185l-136.63 4.04-12.43 117.85 8.34 196.02H591.29z" fill="#fff"/><path d="M718.751 1502.91l-8.56-129.02 7.78-138.64 16.529-89.75 37-105 41.831 3.5L855 1141l28.271 112.3.58 201.47-1.74 48.14h-163.36z" fill="#ABF"/><path d="M289.5 1512.5c-6-101.5 31-323.03 140.5-398 158.5-108.51 616.5-87 706.5 26 64.91 81.5 99.5 222.5 132.5 371M1084.5 1337c12.33 37 29.5 110.3 43.5 175.5m-646.5 0c.333-32.83 7.7-107.6 20.5-157" stroke="#000" stroke-width="20" stroke-linecap="round"/><path d="M944.701 1500c9.284 0 16.81-7.53 16.81-16.81 0-9.29-7.526-16.81-16.81-16.81-9.284 0-16.81 7.52-16.81 16.81 0 9.28 7.526 16.81 16.81 16.81zM655.56 1500c9.284 0 16.81-7.53 16.81-16.81 0-9.29-7.526-16.81-16.81-16.81-9.284 0-16.81 7.52-16.81 16.81 0 9.28 7.526 16.81 16.81 16.81zM944.701 1414.23c9.284 0 16.81-7.53 16.81-16.81 0-9.28-7.526-16.81-16.81-16.81-9.284 0-16.81 7.53-16.81 16.81 0 9.28 7.526 16.81 16.81 16.81zM649.072 1414.23c9.284 0 16.81-7.53 16.81-16.81 0-9.28-7.526-16.81-16.81-16.81-9.284 0-16.81 7.53-16.81 16.81 0 9.28 7.526 16.81 16.81 16.81zM939.271 1323.7c9.284 0 16.81-7.53 16.81-16.81 0-9.29-7.526-16.81-16.81-16.81-9.284 0-16.81 7.52-16.81 16.81 0 9.28 7.526 16.81 16.81 16.81zM649.072 1323.7c9.284 0 16.81-7.53 16.81-16.81 0-9.29-7.526-16.81-16.81-16.81-9.284 0-16.81 7.52-16.81 16.81 0 9.28 7.526 16.81 16.81 16.81zM927.888 1229.86c9.284 0 16.81-7.53 16.81-16.81 0-9.29-7.526-16.81-16.81-16.81-9.284 0-16.81 7.52-16.81 16.81 0 9.28 7.526 16.81 16.81 16.81zM652.072 1229.86c9.284 0 16.81-7.53 16.81-16.81 0-9.29-7.526-16.81-16.81-16.81-9.284 0-16.81 7.52-16.81 16.81 0 9.28 7.526 16.81 16.81 16.81zM1015.43 1172.77c9.28 0 16.81-7.53 16.81-16.81 0-9.29-7.53-16.81-16.81-16.81-9.28 0-16.809 7.52-16.809 16.81 0 9.28 7.529 16.81 16.809 16.81zM559.322 1172.77c9.284 0 16.81-7.53 16.81-16.81 0-9.29-7.526-16.81-16.81-16.81-9.284 0-16.81 7.52-16.81 16.81 0 9.28 7.526 16.81 16.81 16.81zM603.64 1254.81c-5.34 28.51-20.93 129.2-1.19 245.1a.272.272 0 000 .09h-20.27c-19.12-115.78-4.17-216.29 1.52-247.31-66.68-21.51-98.4-59.83-113.29-88.3a150.094 150.094 0 01-14.85-43.17c-.5-2.86-.85-5.4-1.1-7.56-.331-2.74-1.515-13.49-1.55-16.25h20c0 .06 1 9.94 1.36 13.21a127.404 127.404 0 0014.35 45.38c19.39 36.4 53.93 62.68 102.67 78.08a18.192 18.192 0 0110.113 8.02 18.165 18.165 0 012.237 12.71zM1103.57 1112.6c0 .13 0 .27-.07.4-.58 3.55-3.21 17.76-3.96 21.17-7.34 32.37-24.28 58.7-48.45 78.39a148.947 148.947 0 01-55.222 27.92c23.402 101.59 18.242 225.1 16.202 259.52h-20.072v-.09c1.86-31.92 7.2-157.43-16-256.59a18.237 18.237 0 012.213-13.62 18.266 18.266 0 0111.117-8.19 128.672 128.672 0 0049.132-24.46c22.16-18 37.24-42.86 42.9-73.76.2-1 2.34-12.83 2.51-13.89l9.87 1.6 9 1.46.83.14z" fill="#000"/><path d="M722.5 1512.5C713.5 1418 681 1241 774 1044m106 468.5c13.5-81.83 22.8-276.1-62-467.5" stroke="#000" stroke-width="20" stroke-linecap="round"/><path d="M401.501 1135.5l66.5-42.5L607 1058l156.5-13v18.5C634.7 1103.1 544.167 1171.67 515 1201l78.5 49.5-5 67-3 85 12 106-30 2c-24.6-96.2-10.667-205.33 0-248.5-28.8-9.2-60.943-32.5-73.415-43.5-95.934 99.87-111.831 244.23-107.583 305l-99.502-13c-1.6-110.8 39-247.5 59.5-302l39.501-52.5 15.5-20.5zM857.5 1289.5c-12-112.4-47.667-206.5-64-239.5l26-5 19.5 56 35.5 136.5 13 117L882 1503l-29 19.5c6.5-30.83 16.5-120.6 4.5-233z" fill="#001647" fill-opacity=".2"/></g><defs><clipPath id="prefix__clip0_53_27659"><path fill="#fff" d="M0 0h1500v1500H0z"/></clipPath></defs>
      <g clip-path="url(#prefix__clip0_299_662)"><path d="M775 1185c231.41 0 419-168.12 419-375.5 0-207.383-187.59-375.5-419-375.5-231.407 0-419 168.117-419 375.5 0 207.38 187.593 375.5 419 375.5z" fill="#ABF"/><path d="M457.5 796c7.6 194 131.833 327.5 193 370l-130-55.5L438 1034l-57.5-89.5-27-106 11-104L394 662l45-82.5 83.5-69.5 109-54.182 28.5-1C569.452 513.314 451.119 633.132 457.5 796z" fill="#001647" fill-opacity=".2"/><path d="M775 1185c231.41 0 419-168.12 419-375.5 0-207.383-187.59-375.5-419-375.5-231.407 0-419 168.117-419 375.5 0 207.38 187.593 375.5 419 375.5z" stroke="#000" stroke-width="20"/></g><defs><clipPath id="prefix__clip0_299_662"><path fill="#fff" d="M0 0h1500v1500H0z"/></clipPath></defs>
      <g clip-path="url(#prefix__clip0_53_29395)" stroke="#000" stroke-width="20" stroke-miterlimit="10" stroke-linecap="round"><path d="M701.129 783a76.42 76.42 0 00120.5 0M988.75 783a76.436 76.436 0 0060.25 29.41c11.62 0 23.08-2.649 33.52-7.745A76.462 76.462 0 001109.25 783"/><path d="M914.5 1058.5c8.9 0 17.6-2.64 25.001-7.58a45.056 45.056 0 0016.574-20.2 45.004 45.004 0 00-32.796-61.355 44.995 44.995 0 00-46.195 19.134A45 45 0 00914.5 1058.5z" fill="#000"/></g><defs><clipPath id="prefix__clip0_53_29395"><path fill="#fff" d="M0 0h1500v1500H0z"/></clipPath></defs>
      <g clip-path="url(#prefix__clip0_53_27350)"><path d="M695 882.421v6.14a7.746 7.746 0 01-.67 3.22c-1.26 2.86-3.34 3-3.34 3a7.817 7.817 0 01-6.39-1.32c-2.64-2.11-9.24-20.21-9.24-20.21l-12.71 20.21H654l17.8-28.21-5.59-11.59a4.654 4.654 0 00-4.07-2.64H662a4.724 4.724 0 00-4.13 1.7c-.89.89-1.21 3.78-1.21 3.78l-1.78.13a22.972 22.972 0 01-.13-5.28 7.776 7.776 0 011.34-3.76 5.694 5.694 0 014.83-2.61 7.816 7.816 0 014.51 1.43 8.67 8.67 0 013 3.74l5.26 13.05 11.44-17.4H693l-15.8 24.51 3.94 9.32s3 9 7.31 9 4.71-6.22 4.71-6.22l1.84.01z" fill="#000"/></g><defs><clipPath id="prefix__clip0_53_27350"><path fill="#fff" d="M0 0h1500v1500H0z"/></clipPath></defs>
      <g clip-path="url(#prefix__clip0_53_26188)"><path d="M1012 393.09l32.13-41.94 21.36-81.32-1-56.51 48.67 69 25.58 62.53 10.69 49-20 57.47-37.55 45.15-32.3-51-47.58-52.38zM330.08 736l-6.71-75 27.84-29.17 299-95.44 225.93-29.11 185-3.26 61.43 12.08L1175 652l-328.3 18.6-177.28 26.1-162.25 42.71L347 800.94 330.08 736z" fill="#fff"/><path d="M340 641.681s-11.84-38.57 31.53-132c43.37-93.43 154.25-185 328.17-204.14 173.92-19.14 282.3 64.22 282.3 64.22s92.35 75.5 112 138.23c-.08.01-359.3-35.8-754 133.69z" fill="#CCD0DA"/><path d="M290 370.36l22.67 118.7 57 74 65.76 38.1 55.1-21.48L501.5 512l-7.97-32.1L434.5 423l-70.12-56L310 269.16l-20 101.2z" fill="#fff"/><path d="M1090.87 508.091a41.584 41.584 0 0123.33 7.127 41.639 41.639 0 0115.33 18.983v0l44.76 105.21c.41 2.605.23 5.267-.51 7.797a17.874 17.874 0 01-3.78 6.84 17.843 17.843 0 01-6.32 4.585 17.968 17.968 0 01-7.68 1.458c-396.13-13-714.6 106.26-796.1 141a17.89 17.89 0 01-7.917 1.423 17.892 17.892 0 01-13.742-7.541 17.9 17.9 0 01-3.051-7.442l-10.37-122.08a17.92 17.92 0 0110.44-19.25c3.22-1.42 6.437-2.827 9.65-4.22 43.06-18.71 76.53-30.88 117.88-45a1614.05 1614.05 0 0124.31-8.19c221.9-84.79 511.76-80.59 603.77-80.7z" stroke="#000" stroke-width="20" stroke-miterlimit="10"/><path d="M440.09 604.81c-30.07-7.52-84-34.57-117.6-92.46-28.59-49.26-44.08-125.24-22-242.4a3.198 3.198 0 013.06-2.76 3.153 3.153 0 012.09.68 3.183 3.183 0 011.17 1.86c6.77 25 26.19 77.19 77.55 122.92a289.242 289.242 0 0059.19 40.55c37.63 19.58 59.16 64.15 50.54 108.23-2.52 12.87-8.23 36.19-16.92 50.07M1005.81 388.7s63.38-13.85 56.69-168.71c-.29-6.84 9.64-8.73 12.92-2.71 27.46 51 128.43 161 23.15 279.19" stroke="#000" stroke-width="20" stroke-miterlimit="10"/><path d="M740.34 641.68a31.34 31.34 0 100-62.681 31.34 31.34 0 000 62.681zM424.34 723.68a31.34 31.34 0 100-62.681 31.34 31.34 0 000 62.681zM582.34 676.68a31.34 31.34 0 100-62.681 31.34 31.34 0 000 62.681zM898.34 621.68a31.34 31.34 0 100-62.681 31.34 31.34 0 000 62.681zM1056.34 614.68c6.2 0 12.26-1.838 17.41-5.282a31.276 31.276 0 0011.54-14.065c2.38-5.726 3-12.028 1.79-18.107a31.375 31.375 0 00-8.58-16.047 31.334 31.334 0 00-34.15-6.793 31.372 31.372 0 00-14.07 11.542 31.37 31.37 0 00-5.28 17.412c0 8.312 3.3 16.283 9.18 22.161a31.348 31.348 0 0022.16 9.179z" fill="#CCD0DA" stroke="#000" stroke-width="20" stroke-miterlimit="10"/><path d="M430.29 425.91c47.15-49 117.91-92.61 224.11-113.29 338-65.8 443.08 195.68 443.08 195.68M344.91 641.999s-9.1-35.91 8.74-88.89" stroke="#000" stroke-width="20" stroke-miterlimit="10"/><path d="M513 558.5c-8.4-112.8 69.167-202.667 109-233.5-82 12.8-161.5 71.667-191 99.5l-49.5-31-70-96c-5.167-15.167-16.3-23.2-19.5 66-3.2 89.2 36.333 162.833 56.5 188.5l-5.5 84-16.5 12.5c.833 8.667 3.1 42.3 5.5 107.5s29.667 52.5 43 38l182.5-60.5c-22.8-45.6-28.5-126.333-28.5-161L680.5 535l178-20.5 238.5-9-12-17.5c-261.6-12.4-490.333 41.833-572 70.5zM1055 316.5c-1.6 24.4-30.67 60.5-45 75.5l52.5 49.5c45.6-68 30.67-166.333 17.5-207l-14.5-14c-2.83 21.833-8.9 71.6-10.5 96z" fill="#001647" fill-opacity=".2"/></g><defs><clipPath id="prefix__clip0_53_26188"><path fill="#fff" d="M0 0h1500v1500H0z"/></clipPath></defs>
      
    </g>
    </svg>