<svg
      xmlns="http://www.w3.org/2000/svg"
      preserveAspectRatio="xMidYMin meet"
      fill="none"
      viewBox="0 0 1500 1500"
    >
      <g>
      <path fill="url(#prefix__paint0_linear_53_30461)" d="M0 0h1500v1500H0z"/><defs><linearGradient id="prefix__paint0_linear_53_30461" x1="0" y1="0" x2="1500" y2="1533.5" gradientUnits="userSpaceOnUse"><stop stop-color="#EEB0FC"/><stop offset="1" stop-color="#AF55F5"/></linearGradient></defs>
      <g clip-path="url(#a)"> <path fill="#fff" d="M1263 1505H288.3l10.8-105.6 40-155.8 35.9-75.1 44.5-48.5 46.8-17.9 3.3-40 40 38 77.8 44.2 83.8 32L787 1185l98-11 109.9-41.4 49.7-33.3 46.3 6.2 36.5 27.1 34 41.3 36.7 86.3 28.6 82.3L1263 1505Z"/> <path fill="#000" d="M693 1500h-19.8l-8.2-245.3 19.8-.7 8.2 246Zm105 0a29.5 29.5 0 0 0-57 0h23a9.3 9.3 0 0 1 5.2-1.9h.4c2 0 4 .7 5.6 1.9h23Zm106 0a29.5 29.5 0 0 0-57 0h23a9.3 9.3 0 0 1 5.2-1.9h.4c2 0 4 .7 5.6 1.9h23Z"/> <path stroke="#000" stroke-miterlimit="10" stroke-width="20" d="M765.7 1439.8a19.5 19.5 0 1 0 0-39 19.5 19.5 0 0 0 0 39Zm106 0a19.5 19.5 0 1 0 0-39 19.5 19.5 0 0 0 0 39Zm-109.8-87.3a19.5 19.5 0 1 0 0-39 19.5 19.5 0 0 0 0 39Zm106 0a19.5 19.5 0 1 0 0-39 19.5 19.5 0 0 0 0 39Z"/> <path stroke="#000" stroke-linecap="round" stroke-width="20" d="M289.5 1512.5c-6-101.5 31-323 140.5-398 158.5-108.5 616.5-87 706.5 26 65 81.5 99.5 222.5 132.5 371M1084.5 1337c12.3 37 29.5 110.3 43.5 175.5m-646.5 0c.3-32.8 7.7-107.6 20.5-157"/> <path stroke="#000" stroke-miterlimit="10" stroke-width="20" d="M472.7 1069.5s-4.8 7.5-7.7 21.8a99.8 99.8 0 0 0 49.6 107.9c41.8 23.7 178.5 88.8 373.1 56.5 39-6.5 148.1-31.8 186.1-123.6a32 32 0 0 0 1.7-5.3c1.6-7.5 4.6-27-.8-54.9"/> <path fill="#fff" d="m467.6 1110.5 7.4-39 62.5-15.5 72-5.5 53-8h147l104.5 8 107 8.1 53.6 19-3.8 40.8-21.3 55-90.7 68.1-76.5 24.3-77.8 2.7-60.7-2.7-58.8 2.7-143.7-46.2-68.6-65.1-5.1-46.7Z"/> <path stroke="#000" stroke-width="20" d="M535 1214c-83.6-40.4-76.5-113.2-62.5-144.5 266-49.2 513.5-20.2 604 .5 22 122.8-114.2 176.5-193 192-.3 0-33.7 6.5-77.5 8a472.5 472.5 0 0 1-75.4-3 549.7 549.7 0 0 1-195.6-53Z"/> <path fill="#001647" fill-opacity=".2" d="M488 1226.5c-89.6 98.8-104.7 230.8-101 284.5h-98c2.3-44.8 14.5-159.8 44.5-261 30-101.2 96.8-141.8 126.5-149.5l15-26h42l56.5-15.5 124.5-10h121c-150.4 32.8-264 112.7-302 148.5l56.5 29 95 23.5 127 20c-27.2 13.2-89.3 14.5-117 13.5l4 227.5H652l-7-227.5c-80.8-6-138.3-40.5-157-57Z"/> </g> <defs> <clipPath id="a"> <path fill="#fff" d="M0 0h1500v1500H0z"/> </clipPath> </defs>
      <g clip-path="url(#prefix__clip0_299_662)"><path d="M775 1185c231.41 0 419-168.12 419-375.5 0-207.383-187.59-375.5-419-375.5-231.407 0-419 168.117-419 375.5 0 207.38 187.593 375.5 419 375.5z" fill="#ABF"/><path d="M457.5 796c7.6 194 131.833 327.5 193 370l-130-55.5L438 1034l-57.5-89.5-27-106 11-104L394 662l45-82.5 83.5-69.5 109-54.182 28.5-1C569.452 513.314 451.119 633.132 457.5 796z" fill="#001647" fill-opacity=".2"/><path d="M775 1185c231.41 0 419-168.12 419-375.5 0-207.383-187.59-375.5-419-375.5-231.407 0-419 168.117-419 375.5 0 207.38 187.593 375.5 419 375.5z" stroke="#000" stroke-width="20"/></g><defs><clipPath id="prefix__clip0_299_662"><path fill="#fff" d="M0 0h1500v1500H0z"/></clipPath></defs>
      <g clip-path="url(#prefix__clip0_53_29082)" stroke="#000" stroke-width="20" stroke-linecap="round"><path d="M844.63 1012.87h141.62M827.45 803.95l-27.11-16.78-29.02-17.97-36.82-22.79"/><path d="M802.81 799.069a29.91 29.91 0 11-31.49-29.87l29 18a29.701 29.701 0 012.49 11.87z" fill="#000"/><path d="M1067.45 746.41l-36.82 22.79-29.02 17.97-27.11 16.78"/><path d="M999.14 799.069c0 5.848 1.71 11.568 4.93 16.452a29.947 29.947 0 0013.17 11.027 29.898 29.898 0 0017.06 1.964 29.883 29.883 0 0015.33-7.744 29.875 29.875 0 007.48-32.043 29.859 29.859 0 00-10.31-13.732 29.918 29.918 0 00-16.17-5.794l-29 18a29.701 29.701 0 00-2.49 11.87z" fill="#000"/></g><defs><clipPath id="prefix__clip0_53_29082"><path fill="#fff" d="M0 0h1500v1500H0z"/></clipPath></defs>
      <g clip-path="url(#prefix__clip0_53_26381)"><path d="M782.161 900.399a109.43 109.43 0 10.015-218.86 109.43 109.43 0 00-.015 218.86z" fill="#3A3A3A"/><path d="M686.995 740.005l34.151-44.094 126.928 188.178L788 903 686.995 740.005zM743.336 695.507l16.58-11.184 114.06 169.1-16.58 11.184z" fill="#fff" fill-opacity=".7"/><path d="M1079.07 895.077a109.42 109.42 0 0073.49-28.343 109.413 109.413 0 0035.42-70.355 109.405 109.405 0 00-21-75.915 109.438 109.438 0 00-144.16-28.68 109.435 109.435 0 00-42.666 140.649 109.423 109.423 0 0098.916 62.644z" fill="#3A3A3A"/><path d="M983.905 734.682l34.155-44.094 126.92 188.178-60.07 18.911-101.005-162.995zM1040.25 690.184L1056.83 679l114.06 169.1-16.58 11.184z" fill="#fff" fill-opacity=".7"/><path d="M1077.58 899.4c25.32-.01 49.85-8.799 69.41-24.869a109.412 109.412 0 0037.88-63.261 109.452 109.452 0 00-10.85-72.932 109.435 109.435 0 00-128.31-53.068 109.433 109.433 0 00-77.071 115.495 109.427 109.427 0 0031.571 66.635 109.447 109.447 0 0077.37 32v0zM782.161 899.399a109.43 109.43 0 10.015-218.86 109.43 109.43 0 00-.015 218.86zM671 790.5l-294-96.359M891.578 790h76.58" stroke="#000" stroke-width="20" stroke-miterlimit="10"/></g><defs><clipPath id="prefix__clip0_53_26381"><path fill="#fff" d="M0 0h1500v1500H0z"/></clipPath></defs>
      <g clip-path="url(#prefix__clip0_53_26001)"><path d="M1068.31 569.101c-2.66 6.42-21.62 32-100.88 52.21-53.75 13.74-124.43 21.84-185.22 21.84-58.9 0-124.29-5.82-177.32-21.38-52.16-15.3-99.36-44.92-107.89-64.2-2.13-4.81 4.66-14.87 16.67-28.63a21.927 21.927 0 013.26-3.07c38.75-29.49 63.07-39.51 98.75-53.27a446.792 446.792 0 01319.85 0c43.15 16.56 80.6 37.67 116.07 67.65.81.68 1.57 1.412 2.29 2.19 9.81 10.78 15.32 24.43 14.42 26.66z" fill="#7985B4"/><path d="M745.25 476.391h16.12a3.622 3.622 0 013.351 2.225c.183.439.278.909.279 1.385v22.64a16.22 16.22 0 0016.22 16.21h3.89a16.231 16.231 0 0015.001-10.002 16.21 16.21 0 001.239-6.208v-22.6a3.62 3.62 0 013.62-3.62h16.14a16.191 16.191 0 0011.465-4.745 16.191 16.191 0 004.745-11.465v-276.11a16.209 16.209 0 00-4.745-11.465 16.187 16.187 0 00-11.465-4.745h-75.86a16.216 16.216 0 00-16.16 16.21v276.08a16.22 16.22 0 0016.16 16.21z" fill="#4AEEB9" stroke="#000" stroke-width="20" stroke-miterlimit="10"/><path d="M980.09 613.201v-429.1a16.22 16.22 0 00-16.21-16.21h-75.79a16.246 16.246 0 00-15 10 16.331 16.331 0 00-1.23 6.21v446.1" fill="#FF6247"/><path d="M980.09 613.201v-429.1a16.22 16.22 0 00-16.21-16.21h-75.79a16.246 16.246 0 00-15 10 16.331 16.331 0 00-1.23 6.21v446.1" stroke="#000" stroke-width="20" stroke-miterlimit="10"/><path d="M586.22 610.231v-156.76a16.22 16.22 0 0116.21-16.21h13.16a3.621 3.621 0 003.62-3.62v-50.28a16.222 16.222 0 0116.21-16.22h8.92a16.267 16.267 0 0111.46 4.75 16.151 16.151 0 014.75 11.47v50.29a3.618 3.618 0 003.62 3.62h14.08a16.23 16.23 0 0116.21 16.21v179.17" fill="#4AEEB9"/><path d="M586.22 610.231v-156.76a16.22 16.22 0 0116.21-16.21h13.16a3.621 3.621 0 003.62-3.62v-50.28a16.222 16.222 0 0116.21-16.22h8.92a16.267 16.267 0 0111.46 4.75 16.151 16.151 0 014.75 11.47v50.29a3.618 3.618 0 003.62 3.62h14.08a16.23 16.23 0 0116.21 16.21v179.17M745.25 476.391h16.12a3.622 3.622 0 012.562 1.053c.338.335.605.733.788 1.172a3.6 3.6 0 01.28 1.385v22.64a16.221 16.221 0 0016.22 16.21h3.89a16.24 16.24 0 006.211-1.228 16.252 16.252 0 005.268-3.512 16.231 16.231 0 004.761-11.47v-22.6a3.62 3.62 0 013.62-3.62h16.14a16.195 16.195 0 0011.465-4.745 16.204 16.204 0 004.745-11.465v-276.11a16.209 16.209 0 00-4.745-11.465 16.198 16.198 0 00-11.465-4.745h-75.86a16.216 16.216 0 00-16.16 16.21v276.08a16.22 16.22 0 0016.16 16.21v0zM980.09 613.201v-429.1a16.22 16.22 0 00-16.21-16.21h-75.79a16.249 16.249 0 00-15 10 16.331 16.331 0 00-1.23 6.21v446.1" stroke="#000" stroke-width="20" stroke-miterlimit="10"/><path d="M586.22 610.231v-156.76a16.22 16.22 0 0116.21-16.21h13.16a3.619 3.619 0 003.62-3.62v-50.28a16.218 16.218 0 0116.21-16.22h8.92a16.267 16.267 0 0111.46 4.75 16.151 16.151 0 014.75 11.47v50.29a3.618 3.618 0 003.62 3.62h14.08a16.228 16.228 0 0116.21 16.21v179.17" stroke="#000" stroke-width="20" stroke-miterlimit="10"/><path d="M508.09 520.15c-58 66 123.13 123 274.12 123s337.43-47.21 277.43-109.21" stroke="#000" stroke-width="20" stroke-miterlimit="10"/><path d="M641.5 453.593V372.5l-14-4.5-8.5 67-33 3.5 3 173L691.5 638v-22c-26.4-1.2-58.667-9.5-70.5-13.5V475.117c0-6.225 4.886-11.355 11.104-11.659a9.876 9.876 0 009.396-9.865zM785 461.86V515h-19.5v-39.5H733v-304h32.5v270.86c0 5.6 4.54 10.14 10.14 10.14a9.36 9.36 0 019.36 9.36zM909.5 609.5v-438H875L871 638l108-19.5v-26c-15.2 8-52.667 14-69.5 17z" fill="#001647" fill-opacity=".2"/></g><defs><clipPath id="prefix__clip0_53_26001"><path fill="#fff" d="M0 0h1500v1500H0z"/></clipPath></defs>
      
    </g>
    </svg>