<svg
      xmlns="http://www.w3.org/2000/svg"
      preserveAspectRatio="xMidYMin meet"
      fill="none"
      viewBox="0 0 1500 1500"
    >
      <g>
      <path fill="url(#prefix__paint0_linear_53_28788)" d="M0 0h1500v1500H0z"/><defs><linearGradient id="prefix__paint0_linear_53_28788" x1="0" y1="0" x2="1500" y2="1500" gradientUnits="userSpaceOnUse"><stop stop-color="#DBE4E4"/><stop offset="1" stop-color="#A7BDBD"/></linearGradient></defs>
      <g clip-path="url(#a)"> <path fill="#265CC2" d="M1263 1505H289.3l3.8-71.6 22.1-107.3 29.8-113.6 66.5-84.5s26.3-20.9 91-49 216.5-35.5 216.5-35.5 186.3-12 339.5 47.5c164.5 50 204.5 414 204.5 414Z"/> <path fill="#FFBF44" d="m1153.1 1155.8-30.5-31.4s13.1-22.7 32.4 0a963.3 963.3 0 0 0 29.8 33.6l8.3 13v20.8l-11.1 9.2-28.9-45.2Zm-794.9 20.6s-18.6-13.3.6-38c19.3-24.9 36.9-37.4 36.9-37.4l18.8 1 9.1 5.9L367 1183l-8.8-6.6Z"/> <path fill="#3A3A3A" d="m783.8 1500 2.5-231.5-27.8-13.9 53.1-64.4 54 68.2-23.8 12.8 31.4 105L909 1500H784Z"/> <path stroke="#000" stroke-miterlimit="10" stroke-width="20" d="m754.6 1259.7 10 4.3a111.4 111.4 0 0 0 88.6 0l10-4.3"/> <path fill="#000" d="M905.7 1500 835 1275.7l19.3-5.2 72.2 229.3h-20.8Z"/> <path stroke="#000" stroke-miterlimit="10" stroke-width="20" d="m1184.8 1206 2.3-1.5a30.3 30.3 0 0 0 8.4-42 301 301 0 0 0-33.4-41.3 30.2 30.2 0 0 0-34.3-6.7 30.5 30.5 0 0 0-10 7.2M358 1183.5a30.3 30.3 0 0 1-4.8-44.1c11.5-13.5 24.2-26 38-37.2a30.4 30.4 0 0 1 42.6 4.4l1.7 2.1M780.6 1500l1.9-226.8"/> <path fill="#FFBF44" d="m1019.4 1385.5-29.4-15.7-27 19.7a3 3 0 0 1-3.3.1 3 3 0 0 1-1.4-3l5.8-32.9-26.8-19.5a3 3 0 0 1 1.4-5.4l32.7-4.7 10.3-31.7a3 3 0 0 1 2.6-1.9c.6 0 1.1 0 1.6.3.6.3 1 .7 1.3 1.2l14.6 30h33a3 3 0 0 1 1.7.5c.5.3 1 .8 1.1 1.4.3.5.3 1.1.2 1.7-.1.6-.4 1.1-.8 1.5l-23.7 23.2 10.4 31.7a3 3 0 0 1 0 1.7 3 3 0 0 1-2.5 2.1 3 3 0 0 1-1.8-.2v-.1Z"/> <path stroke="#000" stroke-linecap="round" stroke-width="20" d="M289.5 1512.5c-6-101.5 31-323 140.5-398 158.5-108.5 616.5-87 706.5 26 65 81.5 99.5 222.5 132.5 371M1084.5 1337c12.3 37 29.5 110.3 43.5 175.5m-646.5 0c.3-32.8 7.7-107.6 20.5-157"/> <path fill="#001647" fill-opacity=".2" d="m342.5 1159.6 67.4-65.5 23.6 22.4-35 28-30.5 42-25.5-27Z"/> <path fill="#1F4B9F" d="m467.6 1110.5 7.4-39 62.5-15.5 72-5.5 53-8h147l104.5 8 107 8.1 53.6 19-3.8 40.8-21.3 55-90.7 68.1-76.5 24.3-62.8-69.8a20 20 0 0 0-31.6 2.5l-44 67.3-58.9 2.7-143.7-46.2-68.6-65.1-5.1-46.7Z"/> <path stroke="#000" stroke-width="20" d="M535 1214c-83.6-40.4-76.5-113.2-62.5-144.5 266-49.2 513.5-20.2 604 .5 21.4 119.7-113.1 181.3-188.3 198.7-3.5.9-7.2-.4-9.6-3.2l-54.1-62.5a21 21 0 0 0-32.3.6l-50 62.4c-2 2.5-5 4-8.3 3.7A610.8 610.8 0 0 1 535 1214Z"/> <path fill="#001647" fill-opacity=".2" d="M489 1227.5c-82.4 87.6-103 222.5-103 279h-97l5.5-106.5c6.7-44.8 30.2-150.7 71-215.5 40.8-64.8 83-83 99-84l9-27h22l52.5-13 150-15h113.5c-160.4 46.4-265.5 121.3-298 153l120 56.5 103 23.5c-123.6 19.6-216.5-25.8-247.5-51Zm374.4 51.8A467.2 467.2 0 0 1 793 1201l21-6 74.5 78c-8.6 4.5-14.4 7-18 8-2.5.9-5.1 0-7.1-1.7Zm-99.9 2.7c-8.4-2.8-18.2-8.5-22-11l5-8.5H774l58.5 7c10.5 3 27.6 10.5 12 16.5a113 113 0 0 1-36 7.5l-3 212L758 1516l5.5-234Z"/> </g> <defs> <clipPath id="a"> <path fill="#fff" d="M0 0h1500v1500H0z"/> </clipPath> </defs>
      <g clip-path="url(#prefix__clip0_299_662)"><path d="M775 1185c231.41 0 419-168.12 419-375.5 0-207.383-187.59-375.5-419-375.5-231.407 0-419 168.117-419 375.5 0 207.38 187.593 375.5 419 375.5z" fill="#ABF"/><path d="M457.5 796c7.6 194 131.833 327.5 193 370l-130-55.5L438 1034l-57.5-89.5-27-106 11-104L394 662l45-82.5 83.5-69.5 109-54.182 28.5-1C569.452 513.314 451.119 633.132 457.5 796z" fill="#001647" fill-opacity=".2"/><path d="M775 1185c231.41 0 419-168.12 419-375.5 0-207.383-187.59-375.5-419-375.5-231.407 0-419 168.117-419 375.5 0 207.38 187.593 375.5 419 375.5z" stroke="#000" stroke-width="20"/></g><defs><clipPath id="prefix__clip0_299_662"><path fill="#fff" d="M0 0h1500v1500H0z"/></clipPath></defs>
      <g clip-path="url(#prefix__clip0_53_29343)" stroke="#000" stroke-width="20" stroke-miterlimit="10" stroke-linecap="round"><path d="M821.63 792.381a76.418 76.418 0 00-93.773-21.665 76.405 76.405 0 00-26.727 21.665M836.82 991.439c38.57 39.211 113.35 39.211 151.93 0M1109.25 792.381a76.451 76.451 0 00-26.73-21.665 76.39 76.39 0 00-33.52-7.745 76.425 76.425 0 00-60.25 29.41"/></g><defs><clipPath id="prefix__clip0_53_29343"><path fill="#fff" d="M0 0h1500v1500H0z"/></clipPath></defs>
      <g clip-path="url(#clip0_53_27216)"> <path d="M1086 1008C1086 1050.53 1010.34 1085 917 1085C823.664 1085 748 1050.56 748 1008C748 965.443 823.664 931 917 931C1010.34 931 1086 965.474 1086 1008Z" fill="#AABBFF"/> <path opacity="0.4" d="M763.61 879.811C787.326 879.797 810.188 870.964 827.752 855.029C845.316 839.093 856.326 817.195 858.64 793.593C860.954 769.991 854.407 746.371 840.272 727.328C826.138 708.285 805.426 695.18 782.165 690.561C758.903 685.941 734.756 690.139 714.417 702.336C694.079 714.533 679.004 733.859 672.124 756.555C665.244 779.25 667.051 803.694 677.194 825.131C687.336 846.568 705.089 863.467 727 872.541C738.607 877.349 751.047 879.819 763.61 879.811Z" fill="white"/> <path d="M624.5 770L667.5 768.5L669.5 804.5L626.5 802.5L624.5 770Z" fill="#FFBF44"/> <path d="M763.589 879.811C816.36 879.811 859.139 837.032 859.139 784.261C859.139 731.49 816.36 688.711 763.589 688.711C710.818 688.711 668.039 731.49 668.039 784.261C668.039 837.032 710.818 879.811 763.589 879.811Z" stroke="black" stroke-width="20" stroke-miterlimit="10"/> <path d="M667.999 768.289H638.999C634.188 768.289 629.574 770.2 626.172 773.602C622.771 777.004 620.859 781.618 620.859 786.429C620.859 788.811 621.329 791.17 622.24 793.371C623.152 795.572 624.488 797.572 626.172 799.256C627.857 800.94 629.857 802.277 632.057 803.188C634.258 804.1 636.617 804.569 638.999 804.569H667.999" stroke="black" stroke-width="20" stroke-miterlimit="10"/> <path d="M568 978.311L610 935.311C614.376 930.829 617.76 925.475 619.931 919.599C622.101 913.723 623.011 907.455 622.599 901.204C622.188 894.953 620.465 888.859 617.544 883.317C614.622 877.776 610.566 872.912 605.64 869.041V869.041C600.186 864.759 595.806 859.263 592.847 852.992C589.888 846.721 588.431 839.846 588.594 832.913C588.756 825.981 590.532 819.181 593.781 813.055C597.03 806.929 601.662 801.645 607.31 797.621L619.14 789.191" stroke="black" stroke-width="20" stroke-miterlimit="10" stroke-linecap="round"/> <path d="M829 959L789.5 985L804 997H829C834.5 997 853 1000.5 864.5 1001C876 1001.5 877 997 883 997C889 997 896 990 898.5 989C900.5 988.2 904.667 982.667 906.5 980L918.5 971.5C919.667 972.833 922.6 975.5 925 975.5C928 975.5 929 981.5 933 985C937 988.5 958.5 994.5 967 997C973.8 999 978.5 997.833 980 997H1012C1014.5 997 1023 997.5 1023 997C1023 996.5 1031 994.5 1035.5 994.5H1046V985C1043.5 982.5 1037.9 977.1 1035.5 975.5C1032.5 973.5 1027.5 969 1023 965.5C1018.5 962 1012 955.5 1007 951.5C1003 948.3 1000.67 945.833 1000 945L989 933.5L977.5 921.5L971 916.5L955 913.5L929 927.5L906.5 930L892 916.5H877L853 927.5L829 959Z" fill="white"/> <path d="M859.5 954.5C848.7 973.3 829.667 989.333 821.5 995L784 986.5L793 978L833.5 952C836 944.167 845.4 926.9 863 920.5C880.6 914.1 894.667 923.167 899.5 928.5C884 924 873 931 859.5 954.5Z" fill="#001647" fill-opacity="0.2"/> <path d="M943 960C939.4 936.8 956.833 923 966 919L958 913.5C942.833 915.833 914 927.8 920 957C926 986.2 968.5 997.5 989 999.5C975.167 996 946.6 983.2 943 960Z" fill="#001647" fill-opacity="0.2"/> <path d="M1086 1008C1086 1050.53 1010.34 1085 917 1085C823.664 1085 748 1050.56 748 1008C748 965.443 823.664 931 917 931C1010.34 931 1086 965.474 1086 1008Z" fill="#AABBFF"/> <path opacity="0.5" d="M689.63 721.059C689.63 721.059 688.76 700.969 734.18 694.859L818.91 861.699C818.91 861.699 803.19 880.039 769.91 879.469L689.63 721.059Z" fill="white"/> <path opacity="0.5" d="M749.001 692.238C749.001 692.238 750.831 691.898 766.361 681.238L841.481 835.848C841.481 835.848 840.331 846.208 827.621 849.128L749.001 692.238Z" fill="white"/> <path d="M829 959L789.5 985L804 997H829C834.5 997 853 1000.5 864.5 1001C876 1001.5 877 997 883 997C889 997 896 990 898.5 989C900.5 988.2 904.667 982.667 906.5 980L918.5 971.5C919.667 972.833 922.6 975.5 925 975.5C928 975.5 929 981.5 933 985C937 988.5 958.5 994.5 967 997C973.8 999 978.5 997.833 980 997H1012C1014.5 997 1023 997.5 1023 997C1023 996.5 1031 994.5 1035.5 994.5H1046V985C1043.5 982.5 1037.9 977.1 1035.5 975.5C1032.5 973.5 1027.5 969 1023 965.5C1018.5 962 1012 955.5 1007 951.5C1003 948.3 1000.67 945.833 1000 945L989 933.5L977.5 921.5L971 916.5L955 913.5L929 927.5L906.5 930L892 916.5H877L853 927.5L829 959Z" fill="white"/> <path d="M859.5 954.5C848.7 973.3 829.667 989.333 821.5 995L784 986.5L793 978L833.5 952C836 944.167 845.4 926.9 863 920.5C880.6 914.1 894.667 923.167 899.5 928.5C884 924 873 931 859.5 954.5Z" fill="#001647" fill-opacity="0.2"/> <path d="M943 960C939.4 936.8 956.833 923 966 919L958 913.5C942.833 915.833 914 927.8 920 957C926 986.2 968.5 997.5 989 999.5C975.167 996 946.6 983.2 943 960Z" fill="#001647" fill-opacity="0.2"/> <path d="M1052.26 992.431C1025.86 1000.33 958.48 1015.62 927.1 977.73C912.19 959.73 916.1 932.58 936.1 920.41C943.021 916.179 950.988 913.969 959.1 914.031C974.5 914.031 984.92 924.351 991.69 935.531C1003.52 955.352 1021.3 970.937 1042.5 980.071L1052.7 984.391C1053.51 984.734 1054.2 985.319 1054.66 986.066C1055.13 986.813 1055.35 987.686 1055.3 988.565C1055.26 989.444 1054.94 990.287 1054.39 990.979C1053.85 991.67 1053.1 992.177 1052.26 992.431V992.431Z" stroke="black" stroke-width="20" stroke-miterlimit="10" stroke-linecap="round"/> <path d="M783.87 992.43C810.27 1000.33 877.65 1015.62 909.04 977.73C923.94 959.73 920.04 932.58 900.04 920.41C893.111 916.161 885.129 913.94 877 914C861.6 914 851.18 924.32 844.41 935.5C832.578 955.319 814.798 970.905 793.6 980.04L783.39 984.36C782.57 984.702 781.876 985.29 781.405 986.044C780.934 986.797 780.71 987.679 780.762 988.566C780.815 989.453 781.143 990.302 781.7 990.994C782.257 991.686 783.015 992.188 783.87 992.43Z" stroke="black" stroke-width="20" stroke-miterlimit="10" stroke-linecap="round"/> <path d="M624.5 770L667.5 768.5L669.5 804.5L626.5 802.5L624.5 770Z" fill="#FFBF44"/> <path d="M646 802C640.8 791.6 643.833 777.667 646 772C638 768.167 622.1 764.8 622.5 782C622.9 799.2 638.333 802.5 646 802Z" fill="#001647" fill-opacity="0.2"/> <path d="M763.589 879.811C816.36 879.811 859.139 837.032 859.139 784.261C859.139 731.49 816.36 688.711 763.589 688.711C710.818 688.711 668.039 731.49 668.039 784.261C668.039 837.032 710.818 879.811 763.589 879.811Z" stroke="black" stroke-width="20" stroke-miterlimit="10"/> <path d="M667.999 768.289H638.999C634.188 768.289 629.574 770.2 626.172 773.602C622.771 777.004 620.859 781.618 620.859 786.429C620.859 788.811 621.329 791.17 622.24 793.371C623.152 795.572 624.488 797.572 626.172 799.256C627.857 800.94 629.857 802.277 632.057 803.188C634.258 804.1 636.617 804.569 638.999 804.569H667.999" stroke="black" stroke-width="20" stroke-miterlimit="10"/> <path d="M568 978.311L610 935.311C614.376 930.829 617.76 925.475 619.931 919.599C622.101 913.723 623.011 907.455 622.599 901.204C622.188 894.953 620.465 888.859 617.544 883.317C614.622 877.776 610.566 872.912 605.64 869.041V869.041C600.186 864.759 595.806 859.263 592.847 852.992C589.888 846.721 588.431 839.846 588.594 832.913C588.756 825.981 590.532 819.181 593.781 813.055C597.03 806.929 601.662 801.645 607.31 797.621L619.14 789.191" stroke="black" stroke-width="20" stroke-miterlimit="10" stroke-linecap="round"/> </g> <defs> <clipPath id="clip0_53_27216"> <rect width="1500" height="1500" fill="white"/> </clipPath> </defs>
      <g clip-path="url(#prefix__clip0_53_25387)"><path d="M883.5 650l-16.5-3.5s-14.74-3.47-20.5 3.5c-5.76 6.97-19.09-11.38-20-6.5-.91 4.88-46.5 6-46.5 6h-40s-44.65-5.41-62.5.5-50.28-1.76-54.5-.5c-4.22 1.26-52.39 2.31-54.5 4-2.11 1.69-9.39 27.31-11.5 29-2.11 1.69-4.58 20.62-5 32-.42 11.38-10.13 18.92-10.5 26.5-.37 7.58-20.22 27.92-24.01 40.56-3.79 12.64-9.09 14.09-12.88 21.67-3.79 7.58-19.67 8.48-22.61 12.27-2.94 3.79-15.13 7.29-18.5 11.5-4.098 5.459-6.108 9.613-11.72 13.5-7.19 4.89-9.56 5.63-9.56 5.63s-33.77-1.07-36.88.2c-3.11 1.27-48 11.55-48 11.55l-11.85-3s24.4 13.39 20.18-1.36c-4.22-14.75-6.73 3-9.65-16.66s-5.52-25.69-10.15-40.14c-4.63-14.45-8.43-29.8-12.18-44.12-3.75-14.32 0-29.5 0-29.5s1.31-26.32 5.31-42.61c4-16.29 5.48-23.18 5.9-26.8.42-3.62 10.53-30.93 11.37-33 .84-2.07 25.28-66.57 25.28-66.57l29.16-30.34 66.49-64.47s115-35 121.35-38.12c6.35-3.12 20.64-6.54 21.91-7.38 1.27-.84 42.35-15.21 49.94-18.58 7.59-3.37 18.69 1.76 25 0 6.31-1.76 42.09-3.41 49.25-4.25 7.16-.84 27-11.38 45.64-10 18.64 1.38 48.28-.38 70.27 2.77 21.99 3.15 63.52 13.11 63.52 13.11l129.09 67.13 91.65 82.62 59.88 113.61-8.02 79.78C1174.5 648 1150 628 1150 628s-48 22-139.66 15.84c-1.94-.42-55.2 6.32-57.84 4.16-2.64-2.16-48-1.5-48-1.5l-21 3.5z" fill="#53B6F9"/><path d="M435 581s47.08 58.45 108.11 5.17 24.83-101.9 24.83-101.9l-29.48 44-37.26 29.46-60 20.69L435 581zM1024.5 435.49s46.93-35.77 103.52 21.39c56.59 57.16 38 89.94 38 89.94l-5.37 14.54s-79.83-84.64-83.46-86c-3.63-1.36-52.69-39.87-52.69-39.87z" fill="#FFBF44"/><path d="M405.24 582.5c98.837 0 178.96-80.123 178.96-178.96s-80.123-178.96-178.96-178.96-178.96 80.123-178.96 178.96S306.403 582.5 405.24 582.5zM1101.66 250.201s118.53-30.73 213.94 92.8-71.16 271-71.16 271l-47.7 15.32-36.74-57.32s39.28-33.26-22.21-103.89-121.36-32.11-121.36-32.11l-77.91-34.06s37.81-124.86 163.14-151.74z" fill="#53B6F9"/><path d="M373.5 232c-29.333 37.5-61 147 23 221 80.896 71.266 145.177 43.534 172.375 15.255.953-17.075 3.884-35.035 10.91-30.686L581.5 422.5l89.5-26c19.667-.667 60.4-.3 66 6.5 5.6 6.8-7.333 11.833-14.5 13.5-81.6 33.6-122.667 92.667-133 118l-15-50.5 3.02-26.529c-2.233 3.462-5.129 7.127-8.645 10.784A251.05 251.05 0 00568.5 484l-38 55c4.5 8.5 17.6 24.5 34 20.5s-12.167 20.333-28.5 33c-12.545 5.639-36.089 13.886-55.914 14.893L491 613l41.5-9.5c-47.389 59.2-53.079 160-50 203-22.667 15-74.3 45.8-99.5 49-25.2 3.2-35.5-14.333-37.5-23.5l-7.5-88.5 7.5-75.5 34.5-83h50.77c-2.488-2.414-4.035-4.313-4.77-5.5-39.333 8.833-131.2.8-184-102C176 349 295.5 250 373.5 232zM1187.5 260c-93.2 26.4-130.83 120.667-138 164.5l14.5 5c16.33 2 44.3 6.8 25.5 10-18.8 3.2-24.83 22.333-25.5 31.5l-39.5-27-78-41.5c7.833-25.667 38-86.9 96-126.5 58-39.6 120.83-27.167 145-16z" fill="#001647" fill-opacity=".2"/><path d="M583.41 420c37.1-11.54 52.09-24.66 133.5-24.66 18.09 0 14.09-.406 30.12-4.2C811 376 929.86 367.49 1069.19 479.08c165.48 132.53 145.14 244.65 121.69 284.41" stroke="#000" stroke-width="20" stroke-miterlimit="10"/><path d="M1154.46 647.454c5.49-.527 9.52-5.411 9-10.909-.53-5.497-5.42-9.527-10.91-8.999l1.91 19.908zm-594.77 17.377l-9.982-.591 9.982.591zm-192.75 192.72l-.641-9.979h-.013l-.013.001.667 9.978zm-17.29-12.79l-9.738 2.273.002.009 9.736-2.282zm802.9-217.215C875.809 654.085 591.253 639 579.001 639v20c10.748 0 297.452 15.115 575.459-11.546l-1.91-19.908zM579.001 639c-15.921 0-28.408 10.296-29.293 25.24l19.965 1.182c.102-1.738.823-3.161 2.069-4.23 1.268-1.089 3.556-2.192 7.259-2.192v-20zm-29.293 25.24c-4.214 71.117-40.405 116.069-80.529 143.855-40.527 28.064-84.727 38.31-102.88 39.477l1.282 19.958c21.527-1.383 69.272-12.722 112.985-42.993 44.116-30.549 84.46-80.682 89.107-159.115l-19.965-1.182zM366.273 847.573a6.621 6.621 0 01-4.379-1.283L350 862.369a26.625 26.625 0 0017.607 5.16l-1.334-19.956zm-4.379-1.283a6.622 6.622 0 01-2.508-3.811l-19.472 4.564A26.62 26.62 0 00350 862.369l11.894-16.079zm-2.506-3.802c-9.397-40.259-28.877-147.282 28.046-257.436l-17.768-9.182c-60.237 116.566-39.497 229.422-29.754 271.164l19.476-4.546z" fill="#000"/><path d="M1024.5 441s37.29-42.26 107.21 26.71C1197.68 532.77 1160 572 1160 572" stroke="#000" stroke-width="20" stroke-miterlimit="10"/><path d="M1196.21 635.52a198.421 198.421 0 0088.32-54.171 198.45 198.45 0 0048.99-91.299c24.87-106.79-41.54-213.52-148.33-238.39C1078.4 226.79 971.67 293.2 946.8 400M405.24 582.451c98.809 0 178.91-80.101 178.91-178.91s-80.101-178.91-178.91-178.91-178.91 80.101-178.91 178.91 80.101 178.91 178.91 178.91z" stroke="#000" stroke-width="20" stroke-miterlimit="10"/><path d="M430.7 580.67s40.75 59.81 114.23 3.6c75.41-57.68 21.32-108.76 21.32-108.76" stroke="#000" stroke-width="20" stroke-miterlimit="10"/></g><defs><clipPath id="prefix__clip0_53_25387"><path fill="#fff" d="M0 0h1500v1500H0z"/></clipPath></defs>
      
    </g>
    </svg>