<svg
      xmlns="http://www.w3.org/2000/svg"
      preserveAspectRatio="xMidYMin meet"
      fill="none"
      viewBox="0 0 1500 1500"
    >
      <g>
      <path fill="url(#prefix__paint0_linear_53_30461)" d="M0 0h1500v1500H0z"/><defs><linearGradient id="prefix__paint0_linear_53_30461" x1="0" y1="0" x2="1500" y2="1533.5" gradientUnits="userSpaceOnUse"><stop stop-color="#EEB0FC"/><stop offset="1" stop-color="#AF55F5"/></linearGradient></defs>
      <g clip-path="url(#a)"> <path fill="#265CC2" d="M1263 1505H289.3l3.8-71.6 22.1-107.3 29.8-113.6 66.5-84.5s26.3-20.9 91-49 216.5-35.5 216.5-35.5 186.3-12 339.5 47.5c164.5 50 204.5 414 204.5 414Z"/> <path fill="#FFBF44" d="m1153.1 1155.8-30.5-31.4s13.1-22.7 32.4 0a963.3 963.3 0 0 0 29.8 33.6l8.3 13v20.8l-11.1 9.2-28.9-45.2Zm-794.9 20.6s-18.6-13.3.6-38c19.3-24.9 36.9-37.4 36.9-37.4l18.8 1 9.1 5.9L367 1183l-8.8-6.6Z"/> <path fill="#3A3A3A" d="m783.8 1500 2.5-231.5-27.8-13.9 53.1-64.4 54 68.2-23.8 12.8 31.4 105L909 1500H784Z"/> <path stroke="#000" stroke-miterlimit="10" stroke-width="20" d="m754.6 1259.7 10 4.3a111.4 111.4 0 0 0 88.6 0l10-4.3"/> <path fill="#000" d="M905.7 1500 835 1275.7l19.3-5.2 72.2 229.3h-20.8Z"/> <path stroke="#000" stroke-miterlimit="10" stroke-width="20" d="m1184.8 1206 2.3-1.5a30.3 30.3 0 0 0 8.4-42 301 301 0 0 0-33.4-41.3 30.2 30.2 0 0 0-34.3-6.7 30.5 30.5 0 0 0-10 7.2M358 1183.5a30.3 30.3 0 0 1-4.8-44.1c11.5-13.5 24.2-26 38-37.2a30.4 30.4 0 0 1 42.6 4.4l1.7 2.1M780.6 1500l1.9-226.8"/> <path fill="#FFBF44" d="m1019.4 1385.5-29.4-15.7-27 19.7a3 3 0 0 1-3.3.1 3 3 0 0 1-1.4-3l5.8-32.9-26.8-19.5a3 3 0 0 1 1.4-5.4l32.7-4.7 10.3-31.7a3 3 0 0 1 2.6-1.9c.6 0 1.1 0 1.6.3.6.3 1 .7 1.3 1.2l14.6 30h33a3 3 0 0 1 1.7.5c.5.3 1 .8 1.1 1.4.3.5.3 1.1.2 1.7-.1.6-.4 1.1-.8 1.5l-23.7 23.2 10.4 31.7a3 3 0 0 1 0 1.7 3 3 0 0 1-2.5 2.1 3 3 0 0 1-1.8-.2v-.1Z"/> <path stroke="#000" stroke-linecap="round" stroke-width="20" d="M289.5 1512.5c-6-101.5 31-323 140.5-398 158.5-108.5 616.5-87 706.5 26 65 81.5 99.5 222.5 132.5 371M1084.5 1337c12.3 37 29.5 110.3 43.5 175.5m-646.5 0c.3-32.8 7.7-107.6 20.5-157"/> <path fill="#001647" fill-opacity=".2" d="m342.5 1159.6 67.4-65.5 23.6 22.4-35 28-30.5 42-25.5-27Z"/> <path fill="#1F4B9F" d="m467.6 1110.5 7.4-39 62.5-15.5 72-5.5 53-8h147l104.5 8 107 8.1 53.6 19-3.8 40.8-21.3 55-90.7 68.1-76.5 24.3-62.8-69.8a20 20 0 0 0-31.6 2.5l-44 67.3-58.9 2.7-143.7-46.2-68.6-65.1-5.1-46.7Z"/> <path stroke="#000" stroke-width="20" d="M535 1214c-83.6-40.4-76.5-113.2-62.5-144.5 266-49.2 513.5-20.2 604 .5 21.4 119.7-113.1 181.3-188.3 198.7-3.5.9-7.2-.4-9.6-3.2l-54.1-62.5a21 21 0 0 0-32.3.6l-50 62.4c-2 2.5-5 4-8.3 3.7A610.8 610.8 0 0 1 535 1214Z"/> <path fill="#001647" fill-opacity=".2" d="M489 1227.5c-82.4 87.6-103 222.5-103 279h-97l5.5-106.5c6.7-44.8 30.2-150.7 71-215.5 40.8-64.8 83-83 99-84l9-27h22l52.5-13 150-15h113.5c-160.4 46.4-265.5 121.3-298 153l120 56.5 103 23.5c-123.6 19.6-216.5-25.8-247.5-51Zm374.4 51.8A467.2 467.2 0 0 1 793 1201l21-6 74.5 78c-8.6 4.5-14.4 7-18 8-2.5.9-5.1 0-7.1-1.7Zm-99.9 2.7c-8.4-2.8-18.2-8.5-22-11l5-8.5H774l58.5 7c10.5 3 27.6 10.5 12 16.5a113 113 0 0 1-36 7.5l-3 212L758 1516l5.5-234Z"/> </g> <defs> <clipPath id="a"> <path fill="#fff" d="M0 0h1500v1500H0z"/> </clipPath> </defs>
      <g clip-path="url(#prefix__clip0_299_662)"><path d="M775 1185c231.41 0 419-168.12 419-375.5 0-207.383-187.59-375.5-419-375.5-231.407 0-419 168.117-419 375.5 0 207.38 187.593 375.5 419 375.5z" fill="#ABF"/><path d="M457.5 796c7.6 194 131.833 327.5 193 370l-130-55.5L438 1034l-57.5-89.5-27-106 11-104L394 662l45-82.5 83.5-69.5 109-54.182 28.5-1C569.452 513.314 451.119 633.132 457.5 796z" fill="#001647" fill-opacity=".2"/><path d="M775 1185c231.41 0 419-168.12 419-375.5 0-207.383-187.59-375.5-419-375.5-231.407 0-419 168.117-419 375.5 0 207.38 187.593 375.5 419 375.5z" stroke="#000" stroke-width="20"/></g><defs><clipPath id="prefix__clip0_299_662"><path fill="#fff" d="M0 0h1500v1500H0z"/></clipPath></defs>
      <g clip-path="url(#prefix__clip0_53_29449)"><path d="M844.63 1012.87h141.62" stroke="#000" stroke-width="20" stroke-linecap="round"/><path d="M764.05 841.24c31.336 0 56.74-25.404 56.74-56.74 0-31.337-25.404-56.74-56.74-56.74-31.337 0-56.74 25.403-56.74 56.74 0 31.336 25.403 56.74 56.74 56.74zM1048.19 841.24c31.34 0 56.74-25.404 56.74-56.74 0-31.337-25.4-56.74-56.74-56.74-31.34 0-56.74 25.403-56.74 56.74 0 31.336 25.4 56.74 56.74 56.74z" fill="#fff" stroke="#000" stroke-width="20" stroke-miterlimit="10"/><path d="M764.05 770.5c7.18 0 13-5.82 13-13s-5.82-13-13-13-13 5.82-13 13 5.82 13 13 13zM1048.19 770.5c7.18 0 13-5.82 13-13s-5.82-13-13-13-13 5.82-13 13 5.82 13 13 13z" fill="#000"/></g><defs><clipPath id="prefix__clip0_53_29449"><path fill="#fff" d="M0 0h1500v1500H0z"/></clipPath></defs>
      <g clip-path="url(#prefix__clip0_53_27350)"><path d="M695 882.421v6.14a7.746 7.746 0 01-.67 3.22c-1.26 2.86-3.34 3-3.34 3a7.817 7.817 0 01-6.39-1.32c-2.64-2.11-9.24-20.21-9.24-20.21l-12.71 20.21H654l17.8-28.21-5.59-11.59a4.654 4.654 0 00-4.07-2.64H662a4.724 4.724 0 00-4.13 1.7c-.89.89-1.21 3.78-1.21 3.78l-1.78.13a22.972 22.972 0 01-.13-5.28 7.776 7.776 0 011.34-3.76 5.694 5.694 0 014.83-2.61 7.816 7.816 0 014.51 1.43 8.67 8.67 0 013 3.74l5.26 13.05 11.44-17.4H693l-15.8 24.51 3.94 9.32s3 9 7.31 9 4.71-6.22 4.71-6.22l1.84.01z" fill="#000"/></g><defs><clipPath id="prefix__clip0_53_27350"><path fill="#fff" d="M0 0h1500v1500H0z"/></clipPath></defs>
      <g clip-path="url(#prefix__clip0_53_25644)"><path d="M854.36 572.592c26.698 5.591 89.208 15.825 113.675-4.549l37.015-89.771 58.51-109.598 51.83-71.708s27.11-23.586-86.97-38.648c-114.071-15.063-170.054-25.713-170.054-25.713s-185.227-21.021-318.27 89.004C407.053 431.633 359.545 587.162 359.545 587.162s-23.042 149.5-11.179 211.287c0 0-10.755-150.239 138.794-274.279l10.378 3.162 96.814-44.404 93.997 3.593 112.83 44.07 32.177 30.882a43.208 43.208 0 0021.004 11.119z" fill="#4AEEB9"/><path d="M734.5 244.999c-65.599 65.6-81 186.667-80.501 239L617 480.5 571 498l-78 27c-100.4 76-139.5 198.667-146.5 250.5l-11-72 16.5-99 36-94c25.166-50 96.4-161.801 180-209.001 83.6-47.2 145.833-57.333 166.5-56.5z" fill="#001647" fill-opacity=".2"/><path d="M359.937 865.087s-98.853-257.118 132.341-500.526C701.099 144.722 1047 259.727 1111.97 284.073a8.365 8.365 0 013.19 2.166 8.41 8.41 0 011.83 3.382c.33 1.258.36 2.577.08 3.848a8.182 8.182 0 01-1.69 3.457c-89.04 108.116-130.609 228.338-140.84 261.126a22 22 0 01-4.551 8.032 21.826 21.826 0 01-7.454 5.429c-17.926 7.942-59.84 21.109-111.962 1.678-7.062-3.641-10.241-5.677-15.479-10.467-24.839-26.919-183.88-146.59-341.931-30.552M839.381 566.594s-16.989-206.18 59.948-329.198M932.165 573.065s2.953-85 57.03-179.432M746.268 503.826s-13.544-77.051 5.211-143.867M587.363 290.497s-21.764 52.356-1.61 128.612M912.07 312.738s7.567-33.449 33.317-62.912M467.245 549.853s-11.802-18.139-13.388-55.171" stroke="#000" stroke-width="20" stroke-miterlimit="10" stroke-linecap="round"/></g><defs><clipPath id="prefix__clip0_53_25644"><path fill="#fff" d="M0 0h1500v1500H0z"/></clipPath></defs>
      
    </g>
    </svg>