<svg
      xmlns="http://www.w3.org/2000/svg"
      preserveAspectRatio="xMidYMin meet"
      fill="none"
      viewBox="0 0 1500 1500"
    >
      <g>
      <path fill="url(#prefix__paint0_linear_53_30462)" d="M0 0h1500v1500H0z"/><defs><linearGradient id="prefix__paint0_linear_53_30462" x1="0" y1="0" x2="1500" y2="1500" gradientUnits="userSpaceOnUse"><stop stop-color="#FFC4F6"/><stop offset="1" stop-color="#FF3DB1"/></linearGradient></defs>
      <g clip-path="url(#prefix__clip0_53_28586)"><path d="M1263 1500H289.33l3.73-66.49 17.17-107.35L358 1203l53.62-74.7s38.18-26.49 102.86-54.62S725 1044 725 1044s197-4.48 350.16 55.11C1228.32 1158.7 1263 1500 1263 1500z" fill="#ABF"/><path d="M1122 1500H482.72s14.6-102.81 14.89-104.16c.29-1.35 16.56-62.7 16.56-62.7l45.26-67.61s16.251-30.11 21.61-70.63c4.913-37.15-1.081-84.95 0-86.07 2.26-2.34 4.64-50.26 4.64-50.26l5.36 2.13 72.57-6.85v.09c.09.44.55 2.47 1.49 5.71l.18.63c.12.43.26.88.4 1.35 0 .12.07.23.11.35.09.32.19.64.29 1a.472.472 0 000 .13c3.442 10.98-6.036 73.44 9.92 119.89 20.159 58.69 69.608 102.92 111.27 108.84 1.72.24 3.42.46 5.09.65 46.42 5.32 75.09-9.26 91.78-24.17.21-.18.41-.37.61-.56 14.4-13.07 19.65-26.22 19.65-26.22l8-46.64-16.9-141.05 87 18.15 9.99 63.79 28.54 95.42 43 72 35.15 98.54L1122 1500z" fill="url(#prefix__paint0_linear_53_28586)"/><path d="M970.546 1333.16l5.179-10.34 18.683 25.59.442 4.9-3.038-33.78a2.8 2.8 0 00-.45-1.16 2.799 2.799 0 00-.906-.87l-31.07-17a2.598 2.598 0 00-1.129-.26c-.391 0-.777.09-1.129.26-.09.04-.177.09-.26.15l-.096.07-27.231 16.63-.107.05c-.144.07-.279.16-.403.26-.251.19-.459.43-.611.71-.151.28-.243.59-.269.9-.006.1-.006.2 0 .3l2.474 27.54 13.202-23.72c1.649-3.14 5.757-4.16 9.656-4.1l4.581.12-23.12 43.19 3.337 1.82 23.287-44.98 12.045-.05-23.116 46.12 11.909 6.52 1.423.78c.583.23 1.229.25 1.821.04l28.446-17.38-5.432 3.34-18.118-25.65zm5.283 33.48l-13.03-17.95 5.936-11.85 17.117 23.68-10.023 6.12z" fill="#2D374B"/><path d="M962.799 1348.68l13.03 17.95 10.023-6.11-17.122-23.69-5.931 11.85zM994.853 1353.31l-.443-4.9-18.683-25.58-5.184 10.33 18.121 25.65 5.442-3.32a2.326 2.326 0 00.78-1.85l-.033-.33z" fill="#28A0F0"/><path d="M926.44 1357.94l8.506 4.66 23.121-43.2-4.581-.11c-3.902-.06-8.007.95-9.656 4.1l-13.202 23.72-4.446 7.9.26 2.94-.002-.01zM973.625 1319.4l-12.046.05-23.285 44.98 10.013 5.49 2.203-4.4 23.115-46.12z" fill="#fff"/><path d="M996.926 1319.34a8.612 8.612 0 00-1.378-3.56 8.557 8.557 0 00-2.784-2.61l-31.477-17.22a7.727 7.727 0 00-3.436-.8c-1.192 0-2.367.27-3.436.8-.24.12-27.64 16.87-27.64 16.87a6.85 6.85 0 00-3.764 6.51l3.166 35.67 4.446-7.91-2.474-27.52c-.014-.37.06-.73.215-1.07.155-.33.387-.62.677-.84.128-.1 27.998-17.1 28.095-17.15.352-.17.738-.26 1.129-.26s.776.09 1.129.26l31.07 17.01c.362.21.672.51.907.86.234.35.387.75.448 1.16l3.013 34.1a2.259 2.259 0 01-.721 1.85l-5.45 3.32-2.804 1.72-10.031 6.12-10.171 6.21c-.591.21-1.238.19-1.821-.04l-13.329-7.29-2.203 4.39 11.981 6.56c.396.22.747.41 1.041.56.447.24.752.4.858.45.974.42 2.022.63 3.08.63.94 0 1.872-.17 2.745-.52l29.551-18.04a6.97 6.97 0 001.894-2.58c.421-1 .608-2.08.533-3.16l-3.059-34.48z" fill="#8BBFDF"/><path d="M591 1062.25V1172a195.34 195.34 0 01-46.65 126.63 106.083 106.083 0 00-20.67 37.44 721.566 721.566 0 00-30.63 159.2c-.12 1.56-.24 3.12-.34 4.69h-20v-.69a741.634 741.634 0 0131.88-169.14 125.754 125.754 0 0124.55-44.47c27.011-31.71 41.85-72 41.86-113.66v-109.79c0-2.65 1.054-5.2 2.929-7.07a9.981 9.981 0 017.071-2.93 9.981 9.981 0 017.071 2.93 9.994 9.994 0 012.929 7.07v.04zM1132 1499.99h-20.2l-.09-.45c-13.68-67.64-25.68-115.81-49.89-176.59a229.608 229.608 0 00-22.36-42.48 355.4 355.4 0 01-51.359-119.1l-5.1-22.21-11.526-66.69a9.987 9.987 0 011.282-7.54 10.006 10.006 0 0113.789-3.15 10.006 10.006 0 014.429 6.24l1.017 4.45 15.588 84.45a336.018 336.018 0 0048.48 112.43c9.7 14.51 17.86 29.99 24.32 46.2 24.77 62.18 37 111.24 50.91 180l.5 2.47c.14.65.21 1.31.21 1.97z" fill="#000"/><path d="M659.5 1051l15.11 128.85c15.21 64.94 82.8 119.21 147.64 114.37 64.84-4.84 105.05-61.36 89.84-126.36L893.5 1051" stroke="#000" stroke-width="20" stroke-miterlimit="10" stroke-linecap="round"/><path d="M500.002 1213.5c-101.2 100-117.834 249-113.5 311l-99.502-13c-1.6-110.8 39-247.5 59.5-302l39.501-52.5 15.5-20.5 66.5-42.5c149.6-59.6 294-54.83 347.5-45-63 13.17-214.299 64.5-315.499 164.5z" fill="#001647" fill-opacity=".2"/><path d="M289.5 1512.5c-6-101.5 31-323.03 140.5-398 158.5-108.51 616.5-87 706.5 26 64.91 81.5 99.5 222.5 132.5 371" stroke="#000" stroke-width="20" stroke-linecap="round"/></g><defs><linearGradient id="prefix__paint0_linear_53_28586" x1="595.499" y1="1136" x2="921.5" y2="1534" gradientUnits="userSpaceOnUse"><stop stop-color="#fff"/><stop offset="1" stop-color="#ECECEC"/></linearGradient><clipPath id="prefix__clip0_53_28586"><path fill="#fff" d="M0 0h1500v1500H0z"/></clipPath></defs>
      <g clip-path="url(#prefix__clip0_299_662)"><path d="M775 1185c231.41 0 419-168.12 419-375.5 0-207.383-187.59-375.5-419-375.5-231.407 0-419 168.117-419 375.5 0 207.38 187.593 375.5 419 375.5z" fill="#ABF"/><path d="M457.5 796c7.6 194 131.833 327.5 193 370l-130-55.5L438 1034l-57.5-89.5-27-106 11-104L394 662l45-82.5 83.5-69.5 109-54.182 28.5-1C569.452 513.314 451.119 633.132 457.5 796z" fill="#001647" fill-opacity=".2"/><path d="M775 1185c231.41 0 419-168.12 419-375.5 0-207.383-187.59-375.5-419-375.5-231.407 0-419 168.117-419 375.5 0 207.38 187.593 375.5 419 375.5z" stroke="#000" stroke-width="20"/></g><defs><clipPath id="prefix__clip0_299_662"><path fill="#fff" d="M0 0h1500v1500H0z"/></clipPath></defs>
      <g clip-path="url(#prefix__clip0_53_29287)"><path d="M764.05 841.24c31.336 0 56.74-25.404 56.74-56.74 0-31.337-25.404-56.74-56.74-56.74-31.337 0-56.74 25.403-56.74 56.74 0 31.336 25.403 56.74 56.74 56.74zM1048.19 841.24c31.34 0 56.74-25.404 56.74-56.74 0-31.337-25.4-56.74-56.74-56.74-31.34 0-56.74 25.403-56.74 56.74 0 31.336 25.4 56.74 56.74 56.74z" fill="#fff" stroke="#000" stroke-width="20" stroke-miterlimit="10"/><path d="M746.05 779.5c7.18 0 13-5.82 13-13s-5.82-13-13-13-13 5.82-13 13 5.82 13 13 13zM1066.19 779.5c7.18 0 13-5.82 13-13s-5.82-13-13-13-13 5.82-13 13 5.82 13 13 13z" fill="#000"/><path d="M831.28 968.721h168.82a5.495 5.495 0 015.5 5.5 89.318 89.318 0 01-89.32 89.319h-1.18a89.323 89.323 0 01-63.159-26.16 89.322 89.322 0 01-26.161-63.159 5.5 5.5 0 015.5-5.5z" fill="#fff" stroke="#000" stroke-width="20" stroke-miterlimit="10"/></g><defs><clipPath id="prefix__clip0_53_29287"><path fill="#fff" d="M0 0h1500v1500H0z"/></clipPath></defs>
      <g clip-path="url(#prefix__clip0_53_27007)"><path d="M732.51 716.382a.135.135 0 00.059.011.129.129 0 00.057-.019.113.113 0 00.04-.044.108.108 0 00.014-.058c-.06-3.15 0-44.08 43-42 0 0 36.07 2.11 40.57 41.22a.12.12 0 00.17.1c2.54-1.13 38.11-16.18 57.7 13.29 19.59 29.47-10.28 56.51-12.25 58.22a.13.13 0 000 .18c2 1.86 33.67 28.35 16.711 57.94-16.96 29.59-54 16.2-56.56 15a.111.111 0 00-.161.09c-.42 2.79-6.86 41.59-40.73 43-33.87 1.41-44.86-36.09-45.57-38.67a.111.111 0 00-.022-.045.117.117 0 00-.04-.03.141.141 0 00-.049-.009.112.112 0 00-.048.014c-2.36 1.15-36.651 17.15-57.701-14.5-21.05-31.65 7.131-55.44 9.141-57.07a.116.116 0 00.034-.039.113.113 0 00-.034-.141c-2.05-1.74-31.9-28-11-61.24 19.98-31.71 53.949-16.48 56.669-15.2zM1031.34 715.128c.02.011.04.018.06.018.02.001.04-.005.06-.015.01-.01.03-.026.04-.044a.117.117 0 00.01-.059c0-3.16 1.3-44.07 44.21-40.72 0 0 36 3.16 39.35 42.39 0 .018.01.036.02.051s.02.028.04.038c.01.01.03.016.05.018.01.002.03-.001.05-.007 2.58-1 38.57-15.06 57.3 15 18.73 30.06-11.93 56.18-14 57.84a.29.29 0 00-.03.041c-.01.015-.01.032-.01.049s0 .034.01.05c.01.015.02.029.03.04 1.92 1.91 32.83 29.31 15 58.41-17.83 29.1-54.44 14.61-57 13.32-.02-.01-.03-.016-.05-.018a.14.14 0 00-.06.01c-.01.008-.03.021-.04.036a.098.098 0 00-.02.052c-.5 2.78-8.07 41.37-42 41.82-33.93.45-43.78-37.39-44.42-40 0-.016-.01-.031-.02-.044-.01-.013-.03-.024-.04-.032-.02-.007-.03-.011-.05-.012a.125.125 0 00-.05.008c-2.39 1.09-37.13 16.08-57.25-16.17-20.12-32.25 8.75-55.21 10.8-56.78a.107.107 0 00.046-.09.116.116 0 00-.012-.051.116.116 0 00-.034-.039c-2-1.8-31.07-28.87-9.18-61.53 21-31.16 54.51-14.94 57.19-13.58z" fill="#4AEEB9" stroke="#000" stroke-width="20" stroke-miterlimit="10"/><circle cx="1072" cy="789" r="54" fill="#FFBF44" stroke="#000" stroke-width="20"/><circle cx="776" cy="789" r="54" fill="#FFBF44" stroke="#000" stroke-width="20"/><path d="M753.5 733.5c-4.8-37.2 17-50.167 28.5-52-14.8-4.4-31.833 3.5-38.5 8-2.333 3.5-7.5 11.3-9.5 14.5-2.5 4-4 8.5-5.5 9s-21.5 2-22.5 2-26 10.5-26.5 11.5-10 25-10 26c0 .8 4.667 29.333 7 43.5-2.833 6.666-9 21.9-11 29.5-2 7.6 20.5 30.5 32 41l38 2.5 37.5 33.5c19 .5 49.4-.3 19-7.5s-33.667-34.667-31.5-47.5c-1.333-2.834-4.4-8.8-6-10-2-1.5-16.5-17-17-18s-7-11.5-7.5-34c-.4-18 15.5-42.167 23.5-52zM1051.13 733.5c-4.8-37.2 17-50.167 28.5-52-14.8-4.4-35.84 3.5-42.51 8-2.33 3.5-7.5 11.3-9.5 14.5-2.5 4-4 8.5-5.5 9s-21.5 2-22.495 2c-1 0-26 10.5-26.5 11.5s-10 25-10 26c0 .8 4.667 29.333 7 43.5-2.833 6.666-9 21.9-11 29.5-2 7.6 20.5 30.5 32 41l37.995 2.5 37.5 33.5c19 .5 54.4-.3 24-7.5s-33.66-34.667-31.5-47.5c-1.33-2.834-9.4-8.8-11-10-2-1.5-16.5-17-17-18s-7-11.5-7.5-34c-.4-18 19.51-42.167 27.51-52z" fill="#001647" fill-opacity=".2"/><path d="M871.488 797.371s52.42-23.07 104.84 0M370.09 692.07L681 789.5" stroke="#000" stroke-width="20" stroke-miterlimit="10"/><path d="M732.51 716.382a.135.135 0 00.059.011.129.129 0 00.057-.019.113.113 0 00.04-.044.108.108 0 00.014-.058c-.06-3.15 0-44.08 43-42 0 0 36.07 2.11 40.57 41.22a.12.12 0 00.17.1c2.54-1.13 38.11-16.18 57.7 13.29 19.59 29.47-10.28 56.51-12.25 58.22a.13.13 0 000 .18c2 1.86 33.671 28.35 16.711 57.94-16.96 29.59-54 16.2-56.56 15a.111.111 0 00-.161.09c-.42 2.79-6.86 41.59-40.73 43-33.87 1.41-44.86-36.09-45.57-38.67a.111.111 0 00-.022-.045.117.117 0 00-.04-.03.141.141 0 00-.049-.009.112.112 0 00-.048.014c-2.36 1.15-36.651 17.15-57.701-14.5-21.05-31.65 7.131-55.44 9.141-57.07a.116.116 0 00.034-.039.113.113 0 00-.034-.141c-2.05-1.74-31.9-28-11-61.24 19.98-31.71 53.949-16.48 56.669-15.2zM1031.34 715.128c.02.011.04.018.06.018.02.001.04-.005.06-.015.01-.01.03-.026.04-.044a.117.117 0 00.01-.059c0-3.16 1.3-44.07 44.21-40.72 0 0 36 3.16 39.35 42.39 0 .018.01.036.02.051s.02.028.04.038c.01.01.03.016.05.018.01.002.03-.001.05-.007 2.58-1 38.57-15.06 57.3 15 18.73 30.06-11.93 56.18-14 57.84a.29.29 0 00-.03.041c-.01.015-.01.032-.01.049s0 .034.01.05c.01.015.02.029.03.04 1.92 1.91 32.83 29.31 15 58.41-17.83 29.1-54.44 14.61-57 13.32-.02-.01-.03-.016-.05-.018a.14.14 0 00-.06.01c-.01.008-.03.021-.04.036a.098.098 0 00-.02.052c-.5 2.78-8.07 41.37-42 41.82-33.93.45-43.78-37.39-44.42-40 0-.016-.01-.031-.02-.044-.01-.013-.03-.024-.04-.032-.02-.007-.03-.011-.05-.012a.125.125 0 00-.05.008c-2.39 1.09-37.13 16.08-57.25-16.17-20.12-32.25 8.75-55.21 10.8-56.78a.107.107 0 00.046-.09.116.116 0 00-.012-.051.116.116 0 00-.034-.039c-2-1.8-31.07-28.87-9.18-61.53 21-31.16 54.51-14.94 57.19-13.58z" stroke="#000" stroke-width="20" stroke-miterlimit="10"/><circle cx="776" cy="789" r="54" stroke="#000" stroke-width="20"/><circle cx="1072" cy="789" r="54" stroke="#000" stroke-width="20"/></g><defs><clipPath id="prefix__clip0_53_27007"><path fill="#fff" d="M0 0h1500v1500H0z"/></clipPath></defs>
      <g clip-path="url(#prefix__clip0_53_25387)"><path d="M883.5 650l-16.5-3.5s-14.74-3.47-20.5 3.5c-5.76 6.97-19.09-11.38-20-6.5-.91 4.88-46.5 6-46.5 6h-40s-44.65-5.41-62.5.5-50.28-1.76-54.5-.5c-4.22 1.26-52.39 2.31-54.5 4-2.11 1.69-9.39 27.31-11.5 29-2.11 1.69-4.58 20.62-5 32-.42 11.38-10.13 18.92-10.5 26.5-.37 7.58-20.22 27.92-24.01 40.56-3.79 12.64-9.09 14.09-12.88 21.67-3.79 7.58-19.67 8.48-22.61 12.27-2.94 3.79-15.13 7.29-18.5 11.5-4.098 5.459-6.108 9.613-11.72 13.5-7.19 4.89-9.56 5.63-9.56 5.63s-33.77-1.07-36.88.2c-3.11 1.27-48 11.55-48 11.55l-11.85-3s24.4 13.39 20.18-1.36c-4.22-14.75-6.73 3-9.65-16.66s-5.52-25.69-10.15-40.14c-4.63-14.45-8.43-29.8-12.18-44.12-3.75-14.32 0-29.5 0-29.5s1.31-26.32 5.31-42.61c4-16.29 5.48-23.18 5.9-26.8.42-3.62 10.53-30.93 11.37-33 .84-2.07 25.28-66.57 25.28-66.57l29.16-30.34 66.49-64.47s115-35 121.35-38.12c6.35-3.12 20.64-6.54 21.91-7.38 1.27-.84 42.35-15.21 49.94-18.58 7.59-3.37 18.69 1.76 25 0 6.31-1.76 42.09-3.41 49.25-4.25 7.16-.84 27-11.38 45.64-10 18.64 1.38 48.28-.38 70.27 2.77 21.99 3.15 63.52 13.11 63.52 13.11l129.09 67.13 91.65 82.62 59.88 113.61-8.02 79.78C1174.5 648 1150 628 1150 628s-48 22-139.66 15.84c-1.94-.42-55.2 6.32-57.84 4.16-2.64-2.16-48-1.5-48-1.5l-21 3.5z" fill="#53B6F9"/><path d="M435 581s47.08 58.45 108.11 5.17 24.83-101.9 24.83-101.9l-29.48 44-37.26 29.46-60 20.69L435 581zM1024.5 435.49s46.93-35.77 103.52 21.39c56.59 57.16 38 89.94 38 89.94l-5.37 14.54s-79.83-84.64-83.46-86c-3.63-1.36-52.69-39.87-52.69-39.87z" fill="#FFBF44"/><path d="M405.24 582.5c98.837 0 178.96-80.123 178.96-178.96s-80.123-178.96-178.96-178.96-178.96 80.123-178.96 178.96S306.403 582.5 405.24 582.5zM1101.66 250.201s118.53-30.73 213.94 92.8-71.16 271-71.16 271l-47.7 15.32-36.74-57.32s39.28-33.26-22.21-103.89-121.36-32.11-121.36-32.11l-77.91-34.06s37.81-124.86 163.14-151.74z" fill="#53B6F9"/><path d="M373.5 232c-29.333 37.5-61 147 23 221 80.896 71.266 145.177 43.534 172.375 15.255.953-17.075 3.884-35.035 10.91-30.686L581.5 422.5l89.5-26c19.667-.667 60.4-.3 66 6.5 5.6 6.8-7.333 11.833-14.5 13.5-81.6 33.6-122.667 92.667-133 118l-15-50.5 3.02-26.529c-2.233 3.462-5.129 7.127-8.645 10.784A251.05 251.05 0 00568.5 484l-38 55c4.5 8.5 17.6 24.5 34 20.5s-12.167 20.333-28.5 33c-12.545 5.639-36.089 13.886-55.914 14.893L491 613l41.5-9.5c-47.389 59.2-53.079 160-50 203-22.667 15-74.3 45.8-99.5 49-25.2 3.2-35.5-14.333-37.5-23.5l-7.5-88.5 7.5-75.5 34.5-83h50.77c-2.488-2.414-4.035-4.313-4.77-5.5-39.333 8.833-131.2.8-184-102C176 349 295.5 250 373.5 232zM1187.5 260c-93.2 26.4-130.83 120.667-138 164.5l14.5 5c16.33 2 44.3 6.8 25.5 10-18.8 3.2-24.83 22.333-25.5 31.5l-39.5-27-78-41.5c7.833-25.667 38-86.9 96-126.5 58-39.6 120.83-27.167 145-16z" fill="#001647" fill-opacity=".2"/><path d="M583.41 420c37.1-11.54 52.09-24.66 133.5-24.66 18.09 0 14.09-.406 30.12-4.2C811 376 929.86 367.49 1069.19 479.08c165.48 132.53 145.14 244.65 121.69 284.41" stroke="#000" stroke-width="20" stroke-miterlimit="10"/><path d="M1154.46 647.454c5.49-.527 9.52-5.411 9-10.909-.53-5.497-5.42-9.527-10.91-8.999l1.91 19.908zm-594.77 17.377l-9.982-.591 9.982.591zm-192.75 192.72l-.641-9.979h-.013l-.013.001.667 9.978zm-17.29-12.79l-9.738 2.273.002.009 9.736-2.282zm802.9-217.215C875.809 654.085 591.253 639 579.001 639v20c10.748 0 297.452 15.115 575.459-11.546l-1.91-19.908zM579.001 639c-15.921 0-28.408 10.296-29.293 25.24l19.965 1.182c.102-1.738.823-3.161 2.069-4.23 1.268-1.089 3.556-2.192 7.259-2.192v-20zm-29.293 25.24c-4.214 71.117-40.405 116.069-80.529 143.855-40.527 28.064-84.727 38.31-102.88 39.477l1.282 19.958c21.527-1.383 69.272-12.722 112.985-42.993 44.116-30.549 84.46-80.682 89.107-159.115l-19.965-1.182zM366.273 847.573a6.621 6.621 0 01-4.379-1.283L350 862.369a26.625 26.625 0 0017.607 5.16l-1.334-19.956zm-4.379-1.283a6.622 6.622 0 01-2.508-3.811l-19.472 4.564A26.62 26.62 0 00350 862.369l11.894-16.079zm-2.506-3.802c-9.397-40.259-28.877-147.282 28.046-257.436l-17.768-9.182c-60.237 116.566-39.497 229.422-29.754 271.164l19.476-4.546z" fill="#000"/><path d="M1024.5 441s37.29-42.26 107.21 26.71C1197.68 532.77 1160 572 1160 572" stroke="#000" stroke-width="20" stroke-miterlimit="10"/><path d="M1196.21 635.52a198.421 198.421 0 0088.32-54.171 198.45 198.45 0 0048.99-91.299c24.87-106.79-41.54-213.52-148.33-238.39C1078.4 226.79 971.67 293.2 946.8 400M405.24 582.451c98.809 0 178.91-80.101 178.91-178.91s-80.101-178.91-178.91-178.91-178.91 80.101-178.91 178.91 80.101 178.91 178.91 178.91z" stroke="#000" stroke-width="20" stroke-miterlimit="10"/><path d="M430.7 580.67s40.75 59.81 114.23 3.6c75.41-57.68 21.32-108.76 21.32-108.76" stroke="#000" stroke-width="20" stroke-miterlimit="10"/></g><defs><clipPath id="prefix__clip0_53_25387"><path fill="#fff" d="M0 0h1500v1500H0z"/></clipPath></defs>
      
    </g>
    </svg>