<svg
      xmlns="http://www.w3.org/2000/svg"
      preserveAspectRatio="xMidYMin meet"
      fill="none"
      viewBox="0 0 1500 1500"
    >
      <g>
      <path fill="url(#prefix__a1)" d="M0 0h1500v1500H0z"/><defs><linearGradient id="prefix__a1" x1="0" y1="0" x2="1500" y2="1500" gradientUnits="userSpaceOnUse"><stop stop-color="#57ECFF"/><stop offset="1" stop-color="#4E41EE"/></linearGradient></defs>
      <g clip-path="url(#prefix__clip0_53_28338)"><path d="M460.5 1094.5c-138.4 66.4-174 309.33-174.5 422.5h983.5c-12.5-72.17-53.2-244.1-116-354.5-78.5-138-520-151-693-68z" fill="#ABF"/><path d="M502.047 1213.45c-101.2 100-117.833 249-113.5 311l-99.501-13c-1.6-110.8 39-247.5 59.5-302l39.501-52.5 15.5-20.5 66.5-42.5c149.6-59.6 294-54.83 347.5-45-52.626 11-166.864 48.63-262.047 119.01l14.5 41.49 57.5 91.55 86 53c-112-7.6-170-112.97-185-164.7-9.116 7.71-17.961 15.76-26.453 24.15z" fill="#001647" fill-opacity=".2"/><path d="M804.304 1304.83C660.776 1310.31 605 1221 593.5 1060.5l-48 8c8.499 145.5 59.312 294.73 254.167 283.14C994.522 1340.04 1017 1198.5 993 1068.5l-44.001-8c-13.53 116.04 36 214-144.695 244.33z" fill="#FFBF44"/><path d="M289.5 1512.5c-6-101.5 31-323.03 140.5-398 158.5-108.51 616.5-87 706.5 26 64.91 81.5 99.5 222.5 132.5 371M1084.5 1337c12.33 37 29.5 110.3 43.5 175.5m-646.5 0c.333-32.83 7.7-107.6 20.5-157" stroke="#000" stroke-width="20" stroke-linecap="round"/><path d="M996 1074.5l4.04 45.04c.29 3.25.74 6.42 1.17 9.66 4.18 31.44 17.72 207.73-201.829 220.79-210.237 12.51-243.51-173.13-248.278-213.99-.621-5.32-1.051-10.52-1.669-15.84L543.5 1069" stroke="#000" stroke-width="23.14" stroke-miterlimit="10"/><path d="M592 1059l12.808 90.01c.17 1.2.326 2.38.515 3.57 2.815 17.7 30.777 161.97 193.252 152.3 152.605-9.08 155.974-128.14 155.26-150.43-.076-2.39-.26-4.78-.398-7.16l-4.937-85.79" stroke="#000" stroke-width="23.14" stroke-miterlimit="10"/></g><defs><clipPath id="prefix__clip0_53_28338"><path fill="#fff" d="M0 0h1500v1500H0z"/></clipPath></defs>
      <g clip-path="url(#prefix__clip0_299_662)"><path d="M775 1185c231.41 0 419-168.12 419-375.5 0-207.383-187.59-375.5-419-375.5-231.407 0-419 168.117-419 375.5 0 207.38 187.593 375.5 419 375.5z" fill="#ABF"/><path d="M457.5 796c7.6 194 131.833 327.5 193 370l-130-55.5L438 1034l-57.5-89.5-27-106 11-104L394 662l45-82.5 83.5-69.5 109-54.182 28.5-1C569.452 513.314 451.119 633.132 457.5 796z" fill="#001647" fill-opacity=".2"/><path d="M775 1185c231.41 0 419-168.12 419-375.5 0-207.383-187.59-375.5-419-375.5-231.407 0-419 168.117-419 375.5 0 207.38 187.593 375.5 419 375.5z" stroke="#000" stroke-width="20"/></g><defs><clipPath id="prefix__clip0_299_662"><path fill="#fff" d="M0 0h1500v1500H0z"/></clipPath></defs>
      <g clip-path="url(#prefix__clip0_53_29395)" stroke="#000" stroke-width="20" stroke-miterlimit="10" stroke-linecap="round"><path d="M701.129 783a76.42 76.42 0 00120.5 0M988.75 783a76.436 76.436 0 0060.25 29.41c11.62 0 23.08-2.649 33.52-7.745A76.462 76.462 0 001109.25 783"/><path d="M914.5 1058.5c8.9 0 17.6-2.64 25.001-7.58a45.056 45.056 0 0016.574-20.2 45.004 45.004 0 00-32.796-61.355 44.995 44.995 0 00-46.195 19.134A45 45 0 00914.5 1058.5z" fill="#000"/></g><defs><clipPath id="prefix__clip0_53_29395"><path fill="#fff" d="M0 0h1500v1500H0z"/></clipPath></defs>
      <g clip-path="url(#prefix__clip0_53_26521)"><path d="M645.5 817.501l-6-36 2.5-19c1.167-2.167 3.5-7.1 3.5-9.5 0-3 0-5 3-10.5s7-12 12.5-18.5c4.4-5.2 10.5-10.833 13-13 3.333-1.5 11.2-4.8 16-6 4.8-1.2 19-3.833 25.5-5 3.333 1.667 10.9 5 14.5 5 4.5 0 17.5 2.5 20 6 2 2.8 7.833 9.833 10.5 13l5.5-6.5c5.5-6.5 14.5-12.5 18.5-12.5s21-5 25-5h16c8 0 13.5 2 19.5 5s11.5 6.5 15.5 9.5 8.5 12 11.5 18.5 7 10.5 7.5 20 2.5 24 3 28.5c.4 3.6 4.167 10.167 6 13l5.923-.494c7.382-2.693 15.809-2.984 23.951-1.996l6.126-.51 21.5 3v-41.5c1.167-20.667 15-61.6 61-60 46 1.6 56.5 17 56 24.5 11.33-16.833 44.8-43.9 88-17.5S1181.67 792 1170 821.5c-14.67 27.5-55.9 82.4-103.5 82-47.6-.4-95.5-52.167-113.5-78l-7-25.5c-6.701-3.174-16.917-6.688-27.626-7.989l-23.951 1.996c-5.851 2.135-11.046 5.78-14.923 11.493-15.2 22.4-26.333 47.333-30 57-13.5 16.167-49.4 49.1-85 51.5-35.6 2.4-88.5-51.333-110.5-78.5l-8.5-17.999z" fill="#FF6247"/><path d="M673 710s14-.77 66-7l97 169.89s-10.93 29.69-49 29.11L673 710zM765.58 714.5s.64.35 18.42-10.5l75.5 139.5s2.07 13.53-12.5 16.5l-81.42-145.5zM972 701.999s28-18.5 66-7l97 169.89s-10.93 29.69-49 29.11l-114-192zM1066.58 706.5s.64.35 18.42-10.5l73.5 139.5s2.07 13.53-12.5 16.5l-79.42-145.5z" fill="#fff" fill-opacity=".9"/><path d="M1192.94 755.47v-.09c-.14-4.17-2.27-41.41-34.9-63.45a75.432 75.432 0 00-71.21-6.94 67.672 67.672 0 00-23.69 16.16l-1.71 1.8-1.81-1.69a67.16 67.16 0 00-24.62-14.69 75.399 75.399 0 00-70.679 11.32c-31.08 23.94-31 61.28-30.9 65.45-.03 5.009.197 10.015.68 15l.36 3.76-3.6-1.13a56.453 56.453 0 00-35.44.41l-3.4 1.16.09-3.6c.13-4.66 0-9.45-.3-14.24-.15-4.27-2.37-41.58-34.91-63.55a75.45 75.45 0 00-71.22-6.94 67.598 67.598 0 00-23.68 16.21l-1.7 1.8-1.81-1.69a67.466 67.466 0 00-24.59-14.67 75.396 75.396 0 00-70.68 11.28c-19.23 14.8-26.54 34.7-29.28 48.8l-.53 2.69-252.13-54.36a9.117 9.117 0 00-12.05 4.57 9.1 9.1 0 00-.211 6.972 9.103 9.103 0 004.781 5.078l258.56 57.39.07 1.78c1.85 45.25 24.65 84.31 65.93 112.94 21.13 14.62 44.38 22.92 60.15 27.31a24.404 24.404 0 0014.21-.34c23.59-7.77 44.49-18.53 60.45-31.1 29.3-23.1 47.92-50.84 55.36-82.45l.2-.85.68-.54a39.163 39.163 0 0145.81-2l2.33 1.48c.293.193.597.37.91.53l.94.48.31 1c9.61 30.37 29.73 56.34 59.83 77.19 22.429 15.53 46.889 25 59.479 29.25a24.659 24.659 0 0017.08-.46c12.54-5 36.78-16 58.24-32.92 41.73-32.85 61.99-75.76 58.6-124.11zM822.451 874.13a212.661 212.661 0 01-51 29.49 15.255 15.255 0 01-10.53.33 212.032 212.032 0 01-52.7-26.29c-38.68-27-58.1-62.41-57.72-105.08V772c-.05-5.41.85-32.83 23.77-50.45a57.174 57.174 0 0153.6-8.55c10.61 3.71 18.88 9.9 24.56 18.41l.16.27a8.917 8.917 0 005.86 4.74h.32l.54.1a9.07 9.07 0 0010-5.49l.16-.32c5.14-8.76 13-15.4 23.31-19.74a57.235 57.235 0 0154 5.22c25.74 17.4 26.82 47.68 26.85 49v.63c2.98 42.51-14.22 78.95-51.18 108.31zm301.149-9.26a212.562 212.562 0 01-51 29.48 15.137 15.137 0 01-10.51.34 212.04 212.04 0 01-52.18-25.88c-39.099-27.1-58.709-62.55-58.279-105.4v-.56c0-5.41.86-32.83 23.78-50.47a57.16 57.16 0 0153.579-8.57c10.59 3.69 18.83 9.84 24.52 18.3l.17.3a8.992 8.992 0 003.81 4 9.04 9.04 0 004.91 1.09h.68a9.016 9.016 0 004.37-1.73 9.088 9.088 0 002.94-3.79l.15-.31c5.16-8.79 13-15.45 23.36-19.79a57.225 57.225 0 0154 5.22c25.07 16.95 26.75 45.77 26.86 49v.64c3.02 42.4-14.18 78.77-51.16 108.13z" fill="#000"/></g><defs><clipPath id="prefix__clip0_53_26521"><path fill="#fff" d="M0 0h1500v1500H0z"/></clipPath></defs>
      <g clip-path="url(#prefix__clip0_53_26225)"><path d="M661.719 466.274s.681-50.314 11.211-50.049c10.531.266 30.241-4.165 30.241-4.165l31.003 15.989 25.638-5.424 28.99-24.747 27.071-1.791 27.883 14.121 15.446 18.681 23.411.145 50.96-13.954 24.276 23.68-19.232 52.574-44.507-21.369-17.618-6.041-23.175-7.036-28.049-1.943-32.388-.112-55.638 3.68-50.45 8.949-25.073-1.188z" fill="#97A5DE"/><path d="M718.506 479.214s19.322 40.453 64.014 34.31c44.692-6.143 83.522-32.583 83.522-32.583l10.406-17.065-81.463-14.775-84.096 14.041s-8.664 11.898 7.617 16.072z" fill="#7985B4"/><path d="M662.843 469.488s-13.534-58.554 30.087-60.287c15.493-.614 25.434 4.992 32.226 12.21 13.894 14.755 29.392 7.707 38.346-2.386 11.842-13.391 27.482-26.021 44.854-27.17 20.226-1.338 34.215 14.393 42.889 29.474 6.094 10.621 21.799 13.651 33.204 6.683 11.953-7.315 28.35-12.9 48.081-8.683 42.964 9.245 6.064 69.091 6.064 69.091" stroke="#000" stroke-width="18.1" stroke-miterlimit="10" stroke-linecap="round"/><path d="M630.048 507.636s25.276-45.068 51.452-39.634c40.502 8.395 74.399 69.733 74.399 69.733M800.818 537.27s38.761-65.501 93.251-67.301c54.49-1.801 48.429 57.93 48.429 57.93M682 468s137.209-40.275 226.408 2.982M736.796 506.5s35.103 14.655 86.489 1.675" stroke="#000" stroke-width="20" stroke-miterlimit="10" stroke-linecap="round"/><path d="M1074 522.5l-37.5-24-141-15.5L703 494.5 555.5 521 469 541.5l-39.5 21c-4.834 9.667-20.801 36.1-46.001 64.5s-17.833 54.167-11 63.5l115 6 250-6 182.5-13.5 282.501-11.5 22.5-4.5v-20.5h-6l-20-7.5c-8.67-2.833-28.1-9.3-36.5-12.5-10.5-4-16.5-5-21.5-7.5-4-2-8.67-7.5-10.5-10l-32.5-44-24-36.5z" fill="#FF6247"/><path d="M794.594 562.777a4.918 4.918 0 01-.32 4.08 4.348 4.348 0 01-3.23 2.21c-.75.16-1.49.28-2.23.38-.74.1-1.46.16-2.18.2a15.903 15.903 0 01-.82 6.69 18.628 18.628 0 01-3.49 6 18.3 18.3 0 01-5.8 4.6 17.502 17.502 0 01-7 1.86h-.41a17.347 17.347 0 01-8-1.63 21.453 21.453 0 01-7-5.32c-4.24-4.78-7.213-11.64-8.92-20.58a54.647 54.647 0 01-1.15-13.56 24.475 24.475 0 012.42-9.69 15.428 15.428 0 012.43-3.4 14.33 14.33 0 013.21-2.5 15.62 15.62 0 013.33-1.37 13.802 13.802 0 013.74-.54 21.736 21.736 0 0110.51 2.12 16.385 16.385 0 014.13 2.47 9.569 9.569 0 012.56 2.82 9.356 9.356 0 011 2.39 4.66 4.66 0 01-.77 3.93 4.341 4.341 0 01-3.4 1.8 5.64 5.64 0 01-3.28-.84 7.894 7.894 0 01-2.52-2.39c-.49-.26-.998-.488-1.52-.68a14.382 14.382 0 00-2.1-.6 11.612 11.612 0 00-2.39-.21 6.642 6.642 0 00-2.41.52c-1.58.76-2.66 2.29-3.24 4.57-1.02 3.44-.92 8.333.3 14.68a38.06 38.06 0 002.81 9.65 21.787 21.787 0 003.08 4.89 6.809 6.809 0 005.24 2.59 9.005 9.005 0 006.35-3.37 8.471 8.471 0 002.17-4.47h-3.36a5.93 5.93 0 01-4.15-1.42 6.11 6.11 0 01-2.31-3.81 4.713 4.713 0 01.88-3.81 4.409 4.409 0 013.41-1.76h.08c.89-.05 1.73-.08 2.54-.1.81-.02 1.61 0 2.39 0 2 0 3.9 0 5.81-.1a54.256 54.256 0 006.68-.76 5.787 5.787 0 014.23 1 6.446 6.446 0 012.7 3.46zM811.264 586.736a5.995 5.995 0 01-4.05-1.34 6.213 6.213 0 01-2.38-3.72c-.58-2.506-1.097-4.79-1.55-6.85-.46-2.07-1-4.42-1.52-7.07-.52-2.65-1.1-5.4-1.64-8.24-.59-3.36-1.1-6.4-1.54-9.14-.44-2.74-.76-5.18-1-7.31s-.31-3.72-.35-5.1a25.08 25.08 0 01.11-3.52 8.975 8.975 0 01.51-2.35c.22-.576.516-1.121.88-1.62a5.518 5.518 0 014-2.34 8.548 8.548 0 012.28.26 7.59 7.59 0 013 1.57c.458.312.884.671 1.27 1.07.39.4.82.87 1.26 1.41a44.968 44.968 0 014.12 6c2.42 4.047 5.336 9.557 8.75 16.53.36.66.7 1.33 1 2 .3.67.62 1.36.93 2 .08-.68.15-1.38.19-2.09a17.79 17.79 0 01.28-2.08c.32-3.58.633-6.773.94-9.58.31-2.81.64-5.26 1-7.37.23-1.31.44-2.46.62-3.46.162-.884.372-1.758.63-2.62.205-.817.459-1.622.76-2.41a5.396 5.396 0 013.48-3.07 6.496 6.496 0 015.24 1 8.68 8.68 0 011.81 1.59 13.632 13.632 0 011.59 2.41 29.59 29.59 0 011.53 3.48c.5 1.33 1 2.9 1.58 4.74.666 2.1 1.333 4.517 2 7.25.666 2.734 1.416 5.794 2.25 9.18a807.014 807.014 0 013.42 15.55c.44 2.12.91 4.49 1.41 7.11a4.533 4.533 0 01-2.348 5.176 4.526 4.526 0 01-1.972.484h-.08a5.795 5.795 0 01-4.14-1.42 6.512 6.512 0 01-2.36-3.8 314.394 314.394 0 00-1.23-6.28l-1.36-6.48c-.507-2.426-1.06-4.95-1.66-7.57a222.744 222.744 0 00-1.69-6.85c-.1 1.14-.21 2.37-.36 3.71-.15 1.34-.28 2.73-.42 4.21-.267 2.72-.494 5.37-.68 7.95-.187 2.58-.367 4.86-.54 6.84-.18 2-.3 3.58-.38 4.8-.08 1.22-.12 1.86-.11 1.91a4.44 4.44 0 01-1.31 2.95 4.577 4.577 0 01-3.09 1.27h-.09a6.357 6.357 0 01-3.58-1.07 6.572 6.572 0 01-2.45-2.92c-1-2.31-1.92-4.42-2.79-6.31-.87-1.89-1.87-4.06-3-6.48-1.13-2.42-2.29-4.95-3.52-7.59-1.1-2.31-2.11-4.37-3-6.18-.89-1.81-1.79-3.46-2.54-4.94.19 1.46.46 3.07.8 4.82.34 1.75.7 3.7 1.09 5.83.493 2.62.99 5.13 1.49 7.53.5 2.4.946 4.534 1.34 6.4.39 1.87.85 3.94 1.38 6.23a4.689 4.689 0 01-.64 4 4.436 4.436 0 01-3.41 1.92l-.16-.01zM888.415 523.319a6.497 6.497 0 013.55 2.72 5.246 5.246 0 01.82 4.15 101.765 101.765 0 01-3.55 13.9c-1.42 4.2-2.96 8.2-4.62 12a439.42 439.42 0 007.49 7.92 1061.8 1061.8 0 007.84 8l.63.64a6.088 6.088 0 011.84 4 4.774 4.774 0 01-1.32 3.71 5.151 5.151 0 01-3 1.27 6.23 6.23 0 01-2.52-.41 5.861 5.861 0 01-2.25-1.53l-.65-.73a1932.406 1932.406 0 01-6.38-6.41 296.751 296.751 0 01-6.33-6.59c-.233.52-.473 1.04-.72 1.56l-.74 1.48c-.953 1.86-1.9 3.76-2.84 5.7-.93 1.94-1.84 3.9-2.71 5.86a4.355 4.355 0 01-4 2.68 5.468 5.468 0 01-3.19-.84 6.383 6.383 0 01-3-3.3 5.25 5.25 0 010-4.15c.98-2 1.943-4 2.89-6 .95-2 1.9-3.95 2.84-5.87.57-1 1.1-2.1 1.61-3.17.51-1.07 1-2.13 1.51-3.18-3.12-3.72-6.12-7.53-9-11.43a122.031 122.031 0 01-7.89-12.26 5.432 5.432 0 01-.67-4.19 4.224 4.224 0 012.53-2.94 5.63 5.63 0 014.21.07 6.517 6.517 0 013.39 3c1.767 3.12 3.653 6.12 5.66 9a139.453 139.453 0 006.38 8.45c1.17-3 2.27-6 3.27-9.24a84.003 84.003 0 002.51-10.46 4.517 4.517 0 012.28-3.13 5.002 5.002 0 014.13-.28z" fill="#000"/><path d="M1148.14 619.091s-38.14-50.32-65.28-84.09a96.571 96.571 0 00-61-35c-85.13-12.78-294.76-39.4-549.6 40.11-20.25 6.33-39.62 21.92-53.48 40-16.93 24.21-49.63 61.79-51.22 97.1a15.375 15.375 0 004.311 11.311 15.374 15.374 0 0011.159 4.689l176.16-.72" stroke="#000" stroke-width="20" stroke-miterlimit="10"/><path d="M1221.53 637.511c-105.4-53.61-631.53-25-681 46.39 17 11.1 11 8.52 54.26 8.52 57 1 115.3 5.35 232-8.52 146.08-17.37 295.53-19 390.88-17.6 17.25.26 19.33-20.95 3.86-28.79z" stroke="#000" stroke-width="20" stroke-miterlimit="10"/><path d="M611 511c-60.8 66.8-86.667 149.5-92 182.5l-147.5-2c-1-5.667.4-25.7 14-60.5s52.667-68.167 70.5-80.5l63-25 92-14.5zM810.5 596.5c151-13.38 262.33-4.667 314.5 0l16 19.5c-29.17-1.833-111.2-5.3-206-4.5-94.8.8-246.166 24-310 35.5-25 9.667-73.5 25.9-67.5 13.5 7.5-15.5 95-50 253-64z" fill="#001647" fill-opacity=".2"/></g><defs><clipPath id="prefix__clip0_53_26225"><path fill="#fff" d="M0 0h1500v1500H0z"/></clipPath></defs>
      
    </g>
    </svg>