<svg
      xmlns="http://www.w3.org/2000/svg"
      preserveAspectRatio="xMidYMin meet"
      fill="none"
      viewBox="0 0 1500 1500"
    >
      <g>
      <path fill="url(#prefix__paint0_linear_53_28789)" d="M0 0h1500v1500H0z"/><defs><linearGradient id="prefix__paint0_linear_53_28789" x1="1500" y1="1500" x2="0" y2="0" gradientUnits="userSpaceOnUse"><stop stop-color="#FFD130"/><stop offset="1" stop-color="#FFEEDB"/></linearGradient></defs>
      <g clip-path="url(#a)"><path fill="#99C4CB" d="M1263 1509H289l4-75 22-108 15-60 31-63 50-79s46-15 111-43c64-28 204-38 204-38s196-6 350 54c153 59 187 412 187 412Z"/><path fill="#001647" fill-opacity=".2" d="M500 1214a430 430 0 0 0-113 311l-100-13c-2-111 39-248 60-302l39-53 16-20 66-43c150-60 294-55 348-45-63 13-215 65-316 165Z"/><path fill="#000" d="M681 1405v-1 18-17Z"/><path fill="#97A5DE" d="M762 1362h-1 1Z"/><path stroke="#000" stroke-linecap="round" stroke-width="20" d="M290 1513c-6-102 31-323 140-398 159-109 617-87 707 26 64 81 99 222 132 371m-184-175c12 37 29 110 43 176m-646 0c0-33 7-108 20-157"/><path fill="#000" d="M949 1410c2 67-72 102-125 64l-13-11h-1c-9 11-21 20-35 24-48 15-101-29-94-80 3-30 26-53 53-60-11-64 54-104 110-71a80 80 0 0 1 32 50c39 9 70 33 73 84Z"/><path fill="#97A5DE" fill-rule="evenodd" d="m815 1279 1 1 8 2a60 60 0 0 1 27 23 58 58 0 0 1 9 20l-1 1h-2l-5 1a67 67 0 0 0-18 4 74 74 0 0 0-35 29l-1 3-1 1-1-1a61 61 0 0 0-12-8 84 84 0 0 0-26-9h-6v-1h-1v-4h-1v-17a47 47 0 0 1 6-18 51 51 0 0 1 41-28h6l6 1a38 38 0 0 1 6 1v-1Zm65 65h1a74 74 0 0 1 32 18 63 63 0 0 1 12 16 69 69 0 0 1 9 25v16a60 60 0 0 1-55 54h-11a51 51 0 0 1-13-2 72 72 0 0 1-34-21v-1h-1v-1l-1-1-1-1h1v-1a72 72 0 0 0 4-19v-13l-1-2a66 66 0 0 0-3-15 77 77 0 0 0-7-14l-3-5c-1 0-1 0 0 0v-2l1-2a52 52 0 0 1 11-14 65 65 0 0 1 22-13 62 62 0 0 1 23-4h6a58 58 0 0 1 8 2Zm-107 23 12 8a59 59 0 0 1 18 24 49 49 0 0 1 4 14v14l-2 7a51 51 0 0 1-43 39h-13l-5-1a55 55 0 0 1-19-7l-8-6-5-4a59 59 0 0 1-14-24l-1-2v-1l-1-7a60 60 0 0 1 0-18 58 58 0 0 1 6-16 55 55 0 0 1 19-19 49 49 0 0 1 16-6h5a66 66 0 0 1 11 0l11 1 9 4Z" clip-rule="evenodd"/><path fill="#000" d="M874 1415a22 22 0 0 1 17 8 22 22 0 0 1 6 12v5l-1 6-5 7-9 5-3 1h-2c-4 0-8-1-11-3a23 23 0 0 1-12-18c-1-4 0-7 1-10 2-5 5-8 10-11l7-2h2ZM749 1418c0 4-1 8-3 11s-5 6-8 7c-3 2-5 3-8 3a23 23 0 0 1-22-11l-2-6-1-5a20 20 0 0 1 18-21l5-1 6 2a23 23 0 0 1 15 21Z"/><path fill="#7985B4" d="M876 1446c-3 0-5-1-7-3s-3-3-3-6a8 8 0 0 1 7-9c3 0 5 0 7 2 2 1 3 3 3 5 2 4 0 8-3 10l-4 1ZM735 1418c0 3-1 5-3 7l-6 1c-3 0-5-2-6-4l-2-5a8 8 0 0 1 6-8c4 0 6 1 9 3l2 4v2Z"/></g><defs><clipPath id="a"><path fill="#fff" d="M0 0h1500v1500H0z"/></clipPath></defs>
      <g clip-path="url(#prefix__clip0_299_662)"><path d="M775 1185c231.41 0 419-168.12 419-375.5 0-207.383-187.59-375.5-419-375.5-231.407 0-419 168.117-419 375.5 0 207.38 187.593 375.5 419 375.5z" fill="#ABF"/><path d="M457.5 796c7.6 194 131.833 327.5 193 370l-130-55.5L438 1034l-57.5-89.5-27-106 11-104L394 662l45-82.5 83.5-69.5 109-54.182 28.5-1C569.452 513.314 451.119 633.132 457.5 796z" fill="#001647" fill-opacity=".2"/><path d="M775 1185c231.41 0 419-168.12 419-375.5 0-207.383-187.59-375.5-419-375.5-231.407 0-419 168.117-419 375.5 0 207.38 187.593 375.5 419 375.5z" stroke="#000" stroke-width="20"/></g><defs><clipPath id="prefix__clip0_299_662"><path fill="#fff" d="M0 0h1500v1500H0z"/></clipPath></defs>
      <g clip-path="url(#prefix__clip0_53_29200)"><path d="M764.05 848.209c35.186 0 63.71-28.524 63.71-63.71s-28.524-63.71-63.71-63.71-63.71 28.524-63.71 63.71 28.524 63.71 63.71 63.71z" fill="#000" stroke="#000" stroke-width="20" stroke-miterlimit="10"/><path d="M781.551 780c14.083 0 25.5-11.417 25.5-25.5s-11.417-25.5-25.5-25.5-25.5 11.417-25.5 25.5 11.417 25.5 25.5 25.5zM740.552 791.381c6.009 0 10.88-4.871 10.88-10.88s-4.871-10.88-10.88-10.88-10.88 4.871-10.88 10.88 4.871 10.88 10.88 10.88zM772.151 826.571c10.548 0 19.1-8.551 19.1-19.1 0-10.549-8.552-19.1-19.1-19.1-10.549 0-19.1 8.551-19.1 19.1 0 10.549 8.551 19.1 19.1 19.1z" fill="#fff"/><path d="M1051.05 848.209c35.19 0 63.71-28.524 63.71-63.71s-28.52-63.71-63.71-63.71-63.71 28.524-63.71 63.71 28.52 63.71 63.71 63.71z" fill="#000" stroke="#000" stroke-width="20" stroke-miterlimit="10"/><path d="M1068.55 780c14.08 0 25.5-11.417 25.5-25.5s-11.42-25.5-25.5-25.5-25.5 11.417-25.5 25.5 11.42 25.5 25.5 25.5zM1027.55 791.381c6.01 0 10.88-4.871 10.88-10.88s-4.87-10.88-10.88-10.88c-6.01 0-10.88 4.871-10.88 10.88s4.87 10.88 10.88 10.88zM1059.15 826.571c10.55 0 19.1-8.551 19.1-19.1 0-10.549-8.55-19.1-19.1-19.1s-19.1 8.551-19.1 19.1c0 10.549 8.55 19.1 19.1 19.1z" fill="#fff"/><path d="M905 1002.88L923.13 991a26.135 26.135 0 0010.308-30.616 26.144 26.144 0 00-6.148-9.734v0a26.143 26.143 0 00-19.36-7.629 26.155 26.155 0 00-18.8 8.919L873 970.38M905 1003l18.13 11.88a26.115 26.115 0 0110.312 30.61 26.15 26.15 0 01-6.152 9.73v0a26.233 26.233 0 01-8.883 5.84 26.052 26.052 0 01-10.475 1.81 26.056 26.056 0 01-10.33-2.51 26.14 26.14 0 01-8.472-6.42L873 1035.5" stroke="#000" stroke-width="20" stroke-miterlimit="10" stroke-linecap="round"/></g><defs><clipPath id="prefix__clip0_53_29200"><path fill="#fff" d="M0 0h1500v1500H0z"/></clipPath></defs>
      <g clip-path="url(#prefix__clip0_53_26622)"><path d="M1086 1014c0 39.21-75.66 71-169 71-93.336 0-169-31.76-169-71 0-39.241 75.664-101 169-101 93.34 0 169 61.788 169 101z" fill="#ABF"/><path d="M797.83 990.76s-2.26-46.71 35.63-47.76l12.4-.07 3.7 53.67-51.73-5.84z" fill="#A5F15C"/><path d="M796.078 999.77h59.58l3.78 54.84-37.21-2.24-13.26-25.18-12.89-27.42z" fill="#FF6247"/><path d="M845.859 942.93l34.49 8.62 26.47-3.52 5.08 50.29-56.24 1.45-9.8-56.84z" fill="#F56CDB"/><path d="M910.488 947.172h68.54l.03 51.15h-67.16l-1.41-51.15z" fill="#53B6F9"/><path d="M983.589 944.871l17.001 2.3 24.03 9.66 9.05 28.5-.91 12.99h-53.701l4.53-53.45z" fill="#8028F5"/><path d="M849.559 996.602l62.34 1.72 7.38 54.048-59.84 2.24-9.88-58.008z" fill="#FFEB37"/><path d="M918.461 999.77h64.2l-8.03 54.84-55.35-2.24-.82-52.6z" fill="#FF9C07"/><path d="M975.289 994.512l63.171 5.26-6.4 30.408-34.761 26.48-17.86-2.05-4.15-60.098z" fill="#99C4CB"/><path d="M797.489 985.841c-1.87-27.17 21.28-47.59 48.37-42.91 20 3.45 43.93 5.16 69 5.16s48.63-1.84 68.06-5.36c26.511-4.82 52.631 15.6 54.521 42.87l1.08 15.709c2 29.44-20.17 53.3-49.601 53.3h-133.4c-29.43 0-54.94-23.86-57-53.3l-1.03-15.469zM798.352 998.309h234.408M912.512 954.172l6.78 98.198M845.031 947.172l14.26 105.198M979.031 947.172l.26 105.198" stroke="#000" stroke-width="20" stroke-miterlimit="10"/></g><defs><clipPath id="prefix__clip0_53_26622"><path fill="#fff" d="M0 0h1500v1500H0z"/></clipPath></defs>
      <g clip-path="url(#prefix__clip0_53_25108)"><path d="M661.719 466.274s.681-50.314 11.212-50.049c10.53.266 30.241-4.165 30.241-4.165l31.002 15.989 25.638-5.424 28.99-24.747 27.071-1.791 27.883 14.121 15.446 18.681 23.411.145 50.96-13.954 24.276 23.68-19.232 52.574-44.507-21.369-17.617-6.041-23.175-7.036-28.05-1.943-32.388-.112-55.638 3.68-50.45 8.949-25.073-1.188z" fill="#97A5DE"/><path d="M718.506 479.214s19.322 40.453 64.014 34.31c44.692-6.143 83.522-32.583 83.522-32.583l10.406-17.065-81.463-14.775-84.096 14.041s-8.664 11.898 7.617 16.072z" fill="#7985B4"/><path d="M662.843 469.488s-13.534-58.554 30.087-60.287c15.493-.614 25.434 4.992 32.226 12.21 13.894 14.755 29.392 7.707 38.346-2.386 11.842-13.391 27.482-26.021 44.854-27.17 20.226-1.338 34.215 14.393 42.889 29.474 6.094 10.621 21.799 13.651 33.204 6.683 11.953-7.315 28.35-12.9 48.081-8.683 42.964 9.245 6.064 69.091 6.064 69.091" stroke="#000" stroke-width="18.1" stroke-miterlimit="10" stroke-linecap="round"/><path d="M630.048 507.636s25.276-45.068 51.452-39.634c40.502 8.395 74.399 69.733 74.399 69.733M800.818 537.27s38.761-65.501 93.251-67.301c54.49-1.801 48.429 57.93 48.429 57.93M682 468s137.209-40.275 226.409 2.982M736.796 506.5s35.103 14.655 86.489 1.675" stroke="#000" stroke-width="20" stroke-miterlimit="10" stroke-linecap="round"/><path d="M633.444 684.097l-56.674-35.609c65 69.011 27.083 111.342 0 123.88-78.641 22.469-92.284-37.113-89.275-69.713l17.554-48.65-31.597 30.092c-28.755 20.898-89.474 43.033-102.314-35.609-12.839-78.642 62.86-79.243 102.314-69.713l-24.073-12.539c-31.764-22.235-79.644-75.932-17.052-112.845 62.592-36.913 93.286 29.758 100.809 67.708l11.034 17.051v-17.051c10.866-47.646 47.044-127.893 104.821-67.708s-1.337 102.982-38.117 116.857h64.197c18.557-.501 54.066 11.937 47.646 65.702-6.419 53.764-62.19 54.5-89.273 48.147z" fill="#53B6F9"/><path d="M550.448 546.877s-14.555-56.172 21.065-90.929c54.577-53.343 138.093 26.682 88.27 84.53-15.206 17.674-33.763 19.239-75.381 37.294M509.964 634.445s-19.921 54.587-68.831 63.876c-75.01 14.253-102.093-101.13-28.668-121.804 22.449-6.309 39.752 1.766 84.409 9.74M591.735 593.431s49.632-40.665 95.563-21.346c70.346 29.581 29.089 137.622-43.594 114.221-22.198-7.152-34.435-18.186-67.206-49.582M567.741 646.231s48.308 26.602 43.594 76.154c-7.232 75.973-122.666 68.801-122.024-7.513.2-23.312 2.477-33.413 32.559-70.216M492.721 571.754s-60.816-1.816-80.517-47.526c-30.223-70.065 74.428-116.979 110.579-49.773 11.034 20.533 9.028 31.346 10.924 76.675" stroke="#000" stroke-width="20" stroke-miterlimit="10"/><path d="M542.815 652.773a57.176 57.176 0 10-.003-114.352 57.176 57.176 0 00.003 114.352z" fill="#FFBF44" stroke="#000" stroke-width="20" stroke-miterlimit="10"/><path d="M585 497c8-34.8 36-45.833 49-47-10.5-3.333-31.9-10-33.5-10-1.6 0-20.667 6.667-30 10L549 491l-10.5 45c.167-7.167.1-23.6-1.5-32-1.6-8.4-8.667-23.833-12-30.5L508.5 455l-26-10-24 5-37 9.5c-3.833 16.667-11.4 50.4-11 52 .4 1.6 23.833 40 35.5 59L379 593c-6.333 15.5-14.6 54.2 3 85 17.6 30.8 76.667 15.167 104 3.5 2 6.5 7.6 27.3 14 58.5s35.334 34.667 49 32.5c-2.833-2.667-9.3-16.7-12.5-51.5-3.2-34.8 7-55.167 12.5-61v-8.5c-10.166-2.333-30.899-15.6-32.499-50-1.6-34.4 24-51 37-55l39.499 19c-6-8.333-16-33.7-8-68.5z" fill="#001647" fill-opacity=".2"/></g><defs><clipPath id="prefix__clip0_53_25108"><path fill="#fff" d="M0 0h1500v1500H0z"/></clipPath></defs>
      
    </g>
    </svg>