<svg
      xmlns="http://www.w3.org/2000/svg"
      preserveAspectRatio="xMidYMin meet"
      fill="none"
      viewBox="0 0 1500 1500"
    >
      <g>
      <path fill="url(#prefix__a1)" d="M0 0h1500v1500H0z"/><defs><linearGradient id="prefix__a1" x1="0" y1="0" x2="1500" y2="1500" gradientUnits="userSpaceOnUse"><stop stop-color="#57ECFF"/><stop offset="1" stop-color="#4E41EE"/></linearGradient></defs>
      <g clip-path="url(#prefix__clip0_53_28624)"><path d="M1263 1500H289.33l3.73-66.49 17.17-107.35L358 1203l53.62-74.7s38.18-26.49 102.86-54.62S725 1044 725 1044s197-4.48 350.16 55.11C1228.32 1158.7 1263 1500 1263 1500z" fill="#ABF"/><path d="M1122 1500H482.72s14.6-102.81 14.89-104.16c.29-1.35 16.56-62.7 16.56-62.7l45.26-67.61s16.251-30.11 21.61-70.63c4.913-37.15-1.081-84.95 0-86.07 2.26-2.34 4.64-50.26 4.64-50.26l5.36 2.13 72.57-6.85v.09c.09.44.55 2.47 1.49 5.71l.18.63c.12.43.26.88.4 1.35 0 .12.07.23.11.35.09.32.19.64.29 1a.472.472 0 000 .13c3.442 10.98-6.036 73.44 9.92 119.89 20.159 58.69 69.608 102.92 111.27 108.84 1.72.24 3.42.46 5.09.65 46.42 5.32 75.09-9.26 91.78-24.17.21-.18.41-.37.61-.56 14.4-13.07 19.65-26.22 19.65-26.22l8-46.64-16.9-141.05 87 18.15 9.99 63.79 28.54 95.42 43 72 35.15 98.54L1122 1500z" fill="#3A3A3A"/><path d="M970.546 1333.16l5.179-10.34 18.683 25.59.442 4.9-3.038-33.78a2.812 2.812 0 00-.449-1.16 2.812 2.812 0 00-.907-.87l-31.07-17a2.598 2.598 0 00-1.129-.26c-.391 0-.777.09-1.129.26-.09.04-.177.09-.26.15l-.096.07-27.231 16.63-.107.05c-.143.07-.279.16-.403.26-.251.19-.459.43-.611.71-.151.28-.243.59-.268.9-.007.1-.007.2 0 .3l2.473 27.54 13.202-23.72c1.65-3.14 5.757-4.16 9.656-4.1l4.581.12-23.12 43.19 3.337 1.82 23.287-44.98 12.045-.05-23.116 46.12 11.909 6.52 1.423.78c.583.23 1.229.25 1.821.04l28.446-17.38-5.432 3.34-18.118-25.65zm5.283 33.48l-13.03-17.95 5.936-11.85 17.117 23.68-10.023 6.12z" fill="#2D374B"/><path d="M962.799 1348.68l13.03 17.95 10.023-6.11-17.122-23.69-5.931 11.85zM994.853 1353.31l-.443-4.9-18.683-25.58-5.184 10.33 18.121 25.65 5.442-3.32a2.326 2.326 0 00.78-1.85l-.033-.33z" fill="#28A0F0"/><path d="M926.44 1357.94l8.506 4.66 23.121-43.2-4.581-.11c-3.902-.06-8.007.95-9.656 4.1l-13.202 23.72-4.446 7.9.26 2.94-.002-.01zM973.625 1319.4l-12.046.05-23.285 44.98 10.013 5.49 2.203-4.4 23.115-46.12z" fill="#fff"/><path d="M996.926 1319.34a8.612 8.612 0 00-1.378-3.56 8.557 8.557 0 00-2.784-2.61l-31.477-17.22a7.727 7.727 0 00-3.436-.8c-1.192 0-2.367.27-3.436.8-.24.12-27.64 16.87-27.64 16.87a6.85 6.85 0 00-3.764 6.51l3.166 35.67 4.446-7.91-2.474-27.52c-.014-.37.06-.73.215-1.07.155-.33.387-.62.677-.84.128-.1 27.998-17.1 28.095-17.15.352-.17.738-.26 1.129-.26s.777.09 1.129.26l31.07 17.01c.362.21.672.51.907.86.234.35.387.75.448 1.16l3.013 34.1a2.259 2.259 0 01-.721 1.85l-5.45 3.32-2.804 1.72-10.031 6.12-10.171 6.21c-.591.21-1.238.19-1.821-.04l-13.329-7.29-2.203 4.39 11.981 6.56c.396.22.747.41 1.041.56.447.24.752.4.858.45.974.42 2.022.63 3.08.63.94 0 1.872-.17 2.745-.52l29.551-18.04a6.97 6.97 0 001.894-2.58c.421-1 .608-2.08.533-3.16l-3.059-34.48z" fill="#8BBFDF"/><path d="M591 1062.25V1172a195.34 195.34 0 01-46.65 126.63 106.083 106.083 0 00-20.67 37.44 721.566 721.566 0 00-30.63 159.2c-.12 1.56-.24 3.12-.34 4.69h-20v-.69a741.634 741.634 0 0131.88-169.14 125.754 125.754 0 0124.55-44.47c27.011-31.71 41.85-72 41.86-113.66v-109.79c0-2.65 1.054-5.2 2.929-7.07a9.981 9.981 0 017.071-2.93 9.981 9.981 0 017.071 2.93 9.994 9.994 0 012.929 7.07v.04zM1132 1499.99h-20.2l-.09-.45c-13.68-67.64-25.68-115.81-49.89-176.59a229.608 229.608 0 00-22.36-42.48 355.4 355.4 0 01-51.359-119.1l-5.1-22.21-11.526-66.69a9.987 9.987 0 011.282-7.54 10.006 10.006 0 0113.789-3.15 10.01 10.01 0 014.429 6.24l1.017 4.45 15.588 84.45a336.018 336.018 0 0048.48 112.43c9.7 14.51 17.86 29.99 24.32 46.2 24.77 62.18 37 111.24 50.91 180l.5 2.47c.14.65.21 1.31.21 1.97z" fill="#000"/><path d="M659.5 1051l15.11 128.85c15.21 64.94 82.8 119.21 147.64 114.37 64.84-4.84 105.05-61.36 89.84-126.36L893.5 1051" stroke="#000" stroke-width="20" stroke-miterlimit="10" stroke-linecap="round"/><path d="M500.002 1213.5c-101.2 100-117.834 249-113.5 311l-99.502-13c-1.6-110.8 39-247.5 59.5-302l39.501-52.5 15.5-20.5 66.5-42.5c149.6-59.6 294-54.83 347.5-45-63 13.17-214.299 64.5-315.499 164.5z" fill="#001647" fill-opacity=".2"/><path d="M289.5 1512.5c-6-101.5 31-323.03 140.5-398 158.5-108.51 616.5-87 706.5 26 64.91 81.5 99.5 222.5 132.5 371" stroke="#000" stroke-width="20" stroke-linecap="round"/></g><defs><clipPath id="prefix__clip0_53_28624"><path fill="#fff" d="M0 0h1500v1500H0z"/></clipPath></defs>
      <g clip-path="url(#prefix__clip0_299_662)"><path d="M775 1185c231.41 0 419-168.12 419-375.5 0-207.383-187.59-375.5-419-375.5-231.407 0-419 168.117-419 375.5 0 207.38 187.593 375.5 419 375.5z" fill="#ABF"/><path d="M457.5 796c7.6 194 131.833 327.5 193 370l-130-55.5L438 1034l-57.5-89.5-27-106 11-104L394 662l45-82.5 83.5-69.5 109-54.182 28.5-1C569.452 513.314 451.119 633.132 457.5 796z" fill="#001647" fill-opacity=".2"/><path d="M775 1185c231.41 0 419-168.12 419-375.5 0-207.383-187.59-375.5-419-375.5-231.407 0-419 168.117-419 375.5 0 207.38 187.593 375.5 419 375.5z" stroke="#000" stroke-width="20"/></g><defs><clipPath id="prefix__clip0_299_662"><path fill="#fff" d="M0 0h1500v1500H0z"/></clipPath></defs>
      <g clip-path="url(#prefix__clip0_53_29082)" stroke="#000" stroke-width="20" stroke-linecap="round"><path d="M844.63 1012.87h141.62M827.45 803.95l-27.11-16.78-29.02-17.97-36.82-22.79"/><path d="M802.81 799.069a29.91 29.91 0 11-31.49-29.87l29 18a29.701 29.701 0 012.49 11.87z" fill="#000"/><path d="M1067.45 746.41l-36.82 22.79-29.02 17.97-27.11 16.78"/><path d="M999.14 799.069c0 5.848 1.71 11.568 4.93 16.452a29.947 29.947 0 0013.17 11.027 29.898 29.898 0 0017.06 1.964 29.883 29.883 0 0015.33-7.744 29.875 29.875 0 007.48-32.043 29.859 29.859 0 00-10.31-13.732 29.918 29.918 0 00-16.17-5.794l-29 18a29.701 29.701 0 00-2.49 11.87z" fill="#000"/></g><defs><clipPath id="prefix__clip0_53_29082"><path fill="#fff" d="M0 0h1500v1500H0z"/></clipPath></defs>
      <g clip-path="url(#prefix__clip0_53_27350)"><path d="M695 882.421v6.14a7.746 7.746 0 01-.67 3.22c-1.26 2.86-3.34 3-3.34 3a7.817 7.817 0 01-6.39-1.32c-2.64-2.11-9.24-20.21-9.24-20.21l-12.71 20.21H654l17.8-28.21-5.59-11.59a4.654 4.654 0 00-4.07-2.64H662a4.724 4.724 0 00-4.13 1.7c-.89.89-1.21 3.78-1.21 3.78l-1.78.13a22.972 22.972 0 01-.13-5.28 7.776 7.776 0 011.34-3.76 5.694 5.694 0 014.83-2.61 7.816 7.816 0 014.51 1.43 8.67 8.67 0 013 3.74l5.26 13.05 11.44-17.4H693l-15.8 24.51 3.94 9.32s3 9 7.31 9 4.71-6.22 4.71-6.22l1.84.01z" fill="#000"/></g><defs><clipPath id="prefix__clip0_53_27350"><path fill="#fff" d="M0 0h1500v1500H0z"/></clipPath></defs>
      <g clip-path="url(#prefix__clip0_53_25522)"><path d="M496.609 538.541s3.07 10.29 13.57 23.93c14.68 19.1 43.92 44.79 99.63 58.08 95.53 22.79 172.4 22.6 172.4 22.6l108.22-7.34 120.181-28 55.58-41.54 5-17.79-35.22-28.28-23.91-12-11.16-35.68-27.201-17.71-28.95-1.81-11.33-20.5-32.35-21.23-49.42 21.36-22-26.46s-57.65-12.58-81.29 10.29l-49.45-9.46-49.68 22.93-50.58 11.59-36.18 25-18.47 10.67-4.81 34.81-29.55 21.63-13.03 4.91z" fill="#F56CDB"/><path d="M589.5 554.499c-17.6 10.8-17.667 31.5-15.5 40.5l-14.826-31.506L558 585.499l-2.5 7.5-41-14.5-12-26c3.167-6 9.6-18.1 10-18.5.4-.4 15.5-20.833 23-31l9.5-21.5 20-16.5 24-15 60.5-20.5c4.5-3.5 18-12.5 36-20.5s44.167 2.333 55 8.5l27.5-14c17.167-1.666 47.3-3.4 30.5 3-21 8-25.5 35.5-18 42.5 6 5.6 7.833 12.334 8 15l-10.5 11-35-19.5-34.5 1.5c5.833 9.834 13.5 33.6-2.5 50s-27 12.834-30.5 9l11.5-46c-45.6.4-57.333 28.5-57.5 42.5l-7.5-2.5c-8 1.5-24.2 4.5-25 4.5-.8 0-25 22.333-37 33.5l-.573 10.746c8.465-12.804 29.327-35.602 56.073-39.746 28.4-4.4 35.167 32.5 35 51.5-8.5 5.834-25 14-23 0 2.5-17.5-16-29.5-38-16zM731 537.999c4.8-9.2.333-10.833-2.5-10.5l-22.5 4-5.5 20.5 9 35c9.833 5.333 30.1 14.7 32.5 9.5 3-6.5-.5-12-11.5-20s-5.5-27 .5-38.5zM722.5 602.999c3.2 15.6-6.333 26.5-11.5 30h-28.5l20.5-27.5c5.167-7.333 16.3-18.1 19.5-2.5zM774.5 547.999c-15.2 9.2-19.667 5.833-20 3 2.333-5 7.1-15.2 7.5-16 .4-.8 9.167-13.667 13.5-20 4-2.833 12.8-7.1 16-1.5 4 7 2 23-17 34.5zM812 486.999c-15.2-2.4-20-8.333-20.5-11l-20 9c2.333 4.333 7.2 13.2 8 14 .8.8 26.333 11 39 16 11.333 5.5 34 14.7 34 7.5 0-9-21.5-32.5-40.5-35.5zM881.5 462.999c6.4-20.8-6.333-32.333-13.5-35.5l-8 7-2 21c-4.333 7.834-11.9 24.7-7.5 29.5 5.5 6 23 4 31-22zM941.5 494.999c-.8 7.6-8 11.167-11.5 12-3.167-4.5-9.5-13.7-9.5-14.5 0-.8 4.667-16.333 7-24 .833-3 7.1-9.6 25.5-12 18.4-2.4 37 14.333 44 23-3.833-3.5-14.9-10.3-28.5-9.5-17 1-26 15.5-27 25zM865.5 547.999c-7.2-4.8-9-10.667-9-13l-15.5 5 3 24 30 11.5 6-11.5c-1.833-3.333-7.3-11.2-14.5-16zM838.5 602.499c-6.4 10.4-13 10.333-15.5 9-.833-3-2.4-9.8-2-13 .5-4 .5-5.5 2.5-8s12-10 13-10.5c.8-.4 15.333.167 22.5.5 5.667 5.5 15.4 15.9 9 13.5-8-3-21.5-4.5-29.5 8.5zM937.5 553.999c6.8-1.6 3.833-4.667 1.5-6-5.667.333-17.3 1-18.5 1-1.2 0-14.5 3.333-21 5l-14 20-5.5 26-7 35c7.5 1.167 24.1 1 30.5-9 8-12.5 4-40 12-54.5s13.5-15.5 22-17.5zM991 607.499c-5.2-17.2-28.833-18.167-40-16.5.5-4.167 5.2-13.1 20-15.5 14.8-2.4 36.83 14.667 46 23.5l-26 8.5zM1002.5 534.499c-10.4 6.4-16.667 3.333-18.5 1l8-21.5 15-9.5 31 13.5c6.33 8 16.6 21.9 7 13.5-12-10.5-29.5-5-42.5 3z" fill="#001647" fill-opacity=".2"/><path d="M862.2 574.74s-43.48-9.44-41.41 28.91M706.439 588.681s54.87 35.61 77.7-16.38M875.801 591.65s10.73-53.65 61.09-50.65" stroke="#000" stroke-width="20" stroke-miterlimit="10" stroke-linecap="round"/><path d="M508.088 520.15c-58 66 123.13 123 274.12 123s337.432-47.21 277.432-109.21" stroke="#000" stroke-width="20" stroke-miterlimit="10"/><path d="M510.471 573.211s-16.41-39.05 18.09-58.39a19.004 19.004 0 009.71-16.55c0-12.7 4.75-31.74 31.83-36.07a18.489 18.489 0 0010.53-5.49c13.12-13.84 55.19-50.43 101.71-8.85a18.11 18.11 0 0013.66 4.59c19.38-1.68 68.48-1.69 77.57 39.63a18.15 18.15 0 0016.43 14.16c18.61 1.33 47.93 9 48.28 43.85a18.4 18.4 0 0010.42 16.32c17.73 8.61 47.07 30.4 16.56 72.31" stroke="#000" stroke-width="20" stroke-miterlimit="10"/><path d="M1051.69 586.52s26.14-58.36-26.84-77.14a18.723 18.723 0 01-11.74-12.16c-4.79-15.85-18.56-45.85-53.73-43.27a17.806 17.806 0 01-16.57-8.54c-10.36-17.26-36-47.64-78.43-22.22a18.273 18.273 0 01-22.4-2.81c-15-15.28-46.36-36.93-87-8.85a18.01 18.01 0 01-8.97 3.185 17.99 17.99 0 01-9.34-1.835c-17.43-8.77-55.12-21.18-78.83 19.23" stroke="#000" stroke-width="20" stroke-miterlimit="10"/><path d="M576.419 610.05s-37.83-41.78 0-76.4c37.19-34 61.17-10.54 71.05 3.81a31.001 31.001 0 015 24.17c-2.39 10.91-11.15 22.36-39.39 14.48M682.34 447.859s31.85 35.88-6.27 59.91M773.539 492.08s8 28.27-16.34 51.49M957.441 453.631s-50.29 4.79-33.06 46.72" stroke="#000" stroke-width="20" stroke-miterlimit="10" stroke-linecap="round"/><path d="M570.102 462.198S581 460.725 589 465s9.415 5.78 13.384 9.093a35.085 35.085 0 0112.601 27.121 35.092 35.092 0 01-3.423 14.934M755.001 411.529s-31.13 17.06-19 40.66M764.59 472.84s39.11 8.2 39.11-31.68M1024.85 509.38s-40.1-14.48-40.1 17.9M842 420.381s31.9 24.93 8.12 56.61M829.289 522.93s32.53 22.38 53.6-15.16M676.07 633.54l19.87-15.6c14.85-11.67 13-25.06 5.54-47.53-11.05-33.13 20.32-47.48 20.32-47.48M934.461 597.121c32-36.06 58.65-21.7 86.569-2.61l3.82 2.61" stroke="#000" stroke-width="20" stroke-miterlimit="10" stroke-linecap="round"/></g><defs><clipPath id="prefix__clip0_53_25522"><path fill="#fff" d="M0 0h1500v1500H0z"/></clipPath></defs>
      
    </g>
    </svg>