<svg
      xmlns="http://www.w3.org/2000/svg"
      preserveAspectRatio="xMidYMin meet"
      fill="none"
      viewBox="0 0 1500 1500"
    >
      <g>
      <path fill="url(#prefix__a1)" d="M0 0h1500v1500H0z"/><defs><linearGradient id="prefix__a1" x1="0" y1="0" x2="1500" y2="1500" gradientUnits="userSpaceOnUse"><stop stop-color="#57ECFF"/><stop offset="1" stop-color="#4E41EE"/></linearGradient></defs>
      <g clip-path="url(#a)"> <path fill="#fff" d="m304.5 1358.5-16.5 145 979-1-12.5-60c-7.7-16.2-31.8-75.8-67-185s-90-142.2-113-145v-40c-20.2 29.5-101 93.1-263 111.5-162 18.4-292.2-66.7-337-111.5l-22.5 29-44 30-41.5 62-31.5 64-30.5 101Z"/> <path fill="#53B6F9" d="m787.8 1500 2.5-231.5-27.8-13.9 53.1-64.4 54 68.2-23.8 12.8 31.4 105L913 1500H788Z"/> <path stroke="#000" stroke-miterlimit="10" stroke-width="20" d="m754.6 1259.7 10 4.3a111.4 111.4 0 0 0 88.6 0l10-4.3"/> <path stroke="#000" stroke-linecap="round" stroke-width="20" d="M289.5 1512.5c-6-101.5 31-323 140.5-398 158.5-108.5 616.5-87 706.5 26 65 81.5 99.5 222.5 132.5 371M1084.5 1337c12.3 37 29.5 110.3 43.5 175.5m-646.5 0c.3-32.8 7.7-107.6 20.5-157"/> <path stroke="#000" stroke-miterlimit="10" stroke-width="20" d="m780.6 1500 1.9-226.8"/> <path fill="#000" d="M905.7 1500 835 1275.7l19.3-5.2 72.2 229.3h-20.8Z"/> <path fill="#D9D9D9" d="m467.6 1110.5 7.4-39 62.5-15.5 72-5.5 53-8h147l104.5 8 107 8.1 53.6 19-3.8 40.8-21.3 55-90.7 68.1-76.5 24.3-62.8-69.8a20 20 0 0 0-31.6 2.5l-44 67.3-58.9 2.7-143.7-46.2-68.6-65.1-5.1-46.7Z"/> <path stroke="#000" stroke-width="20" d="M535 1214c-83.6-40.4-76.5-113.2-62.5-144.5 266-49.2 513.5-20.2 604 .5 21.5 119.7-113.1 181.3-188.3 198.7-3.5.9-7.2-.4-9.6-3.2l-54.1-62.5a21 21 0 0 0-32.3.6l-50 62.4c-2 2.5-5 4-8.3 3.7A610.8 610.8 0 0 1 535 1214Z"/> <path fill="#001647" fill-opacity=".2" d="M489 1227.5c-82.4 87.6-103 222.5-103 279h-97l5.5-106.5c6.7-44.8 30.2-150.7 71-215.5 40.8-64.8 83-83 99-84l9-27h22l52-15 150.5-13h113.5c-160.4 46.4-265.5 121.3-298 153l120 56.5 103 23.5c-123.6 19.6-216.5-25.8-247.5-51Zm374.4 51.8A467.2 467.2 0 0 1 793 1201l21-6 74.5 78c-8.6 4.5-14.4 7-18 8-2.5.9-5.1 0-7.1-1.7Zm-99.9 2.7c-8.4-2.8-18.2-8.5-22-11l5-8.5H774l58.5 7c10.5 3 27.6 10.5 12 16.5a113 113 0 0 1-36 7.5l-3 212L758 1516l5.5-234Z"/> </g> <defs> <clipPath id="a"> <path fill="#fff" d="M0 0h1500v1500H0z"/> </clipPath> </defs>
      <g clip-path="url(#prefix__clip0_299_662)"><path d="M775 1185c231.41 0 419-168.12 419-375.5 0-207.383-187.59-375.5-419-375.5-231.407 0-419 168.117-419 375.5 0 207.38 187.593 375.5 419 375.5z" fill="#ABF"/><path d="M457.5 796c7.6 194 131.833 327.5 193 370l-130-55.5L438 1034l-57.5-89.5-27-106 11-104L394 662l45-82.5 83.5-69.5 109-54.182 28.5-1C569.452 513.314 451.119 633.132 457.5 796z" fill="#001647" fill-opacity=".2"/><path d="M775 1185c231.41 0 419-168.12 419-375.5 0-207.383-187.59-375.5-419-375.5-231.407 0-419 168.117-419 375.5 0 207.38 187.593 375.5 419 375.5z" stroke="#000" stroke-width="20"/></g><defs><clipPath id="prefix__clip0_299_662"><path fill="#fff" d="M0 0h1500v1500H0z"/></clipPath></defs>
      <g clip-path="url(#prefix__clip0_53_29233)" stroke="#000" stroke-width="20" stroke-miterlimit="10" stroke-linecap="round"><path d="M719.699 827.31l79.06-79.06M719.699 748.25l79.06 79.06M1006.7 827.31l79.06-79.06M1006.7 748.25l79.06 79.06M810.1 1009.23c12.24-8.37 30-8.37 42.21 0l.44.3a37.403 37.403 0 0021.105 6.53c7.531 0 14.888-2.28 21.105-6.53v0a37.403 37.403 0 0121.105-6.53c7.531 0 14.887 2.28 21.105 6.53l1.09.74a37.403 37.403 0 0021.105 6.53c7.531 0 14.887-2.28 21.105-6.53l1.82-1.24c12.24-8.37 30-8.37 42.21 0"/></g><defs><clipPath id="prefix__clip0_53_29233"><path fill="#fff" d="M0 0h1500v1500H0z"/></clipPath></defs>
      <g clip-path="url(#a)"><path fill="#ABF" d="M1086 1007c0 43.08-75.66 78-169 78-93.336 0-169-34.89-169-78s75.664-98 169-98c93.34 0 169 54.922 169 98Z"/><path fill="#9E6740" d="m1076 1151.93 33.18-23.07 12.54-9.38 33.85 19.09 5.99 15.71 2.2-9.48 20.83-34.8s27.61 27.46 73.03 22.98c45.43-4.48 40.73-17.59 40.73-17.59l13.65 63.17s1.86 93.04-75.43 95.36c-77.3 2.33-121.92-47.19-121.92-47.19l-38.65-74.8Z"/><path fill="#72411F" d="M1297.3 1111.76c1.48-11.32-21.62-23.69-51.61-27.63-29.99-3.94-55.51 2.05-57 13.37-1.48 11.33 21.62 23.7 51.61 27.64 29.99 3.93 55.51-2.05 57-13.38Z"/><path fill="#3A3A3A" d="M920.5 1012s63.443 3.62 86 33c22.56 29.38 37.64 41.69 37.64 41.69l14.47 21.31s34.8-8.44 36.39-20.51l-44.45-47.01-37.86-25.09-48.2-13.21-27.507-2.18-16.483 12Z"/><path fill="#FFBF44" d="m1058 1108.21 38.93-24.21 27.07 34.76-49.9 34.24-16.1-44.79Z"/><path stroke="#000" stroke-linecap="round" stroke-miterlimit="10" stroke-width="20" d="M1160.1 1152.41c2.87-27.52 29.89-55.03 29.89-55.03 15.81-18.64 43.4-18.64 43.4-18.64 17.6-.4 31.12 2.57 41.23 6.52a50.061 50.061 0 0 1 19.09 13.48 49.885 49.885 0 0 1 10.87 20.65c41.73 161.5-85.23 154.57-85.23 154.57-116.7-7.45-119.06-81.11-158.15-161.35-39.08-80.24-127.2-98.26-127.2-98.26l24.865-8.35s63.965 3.57 119.235 57.48c24 23.42 36.87 61.5 69.09 70.78 4.83 1.39 10.27 2.53 16.42 3.32"/><path fill="#001647" fill-opacity=".2" d="M1182.42 1151.2c-8.08 7.43-17.96 3.09-21.89 0l2.95-9.29 10.1-13 13.89-23.03c7.29 4.08 19.7 13 14.99 15.97-5.89 3.71-9.94 20.06-20.04 29.35Z"/><path fill="#001647" fill-opacity=".2" d="M1070.57 1097c2.57 1.5 4.15 2.56 5.04 3.22-1.06-1.17-2.61-3.49-2.61-6.72 0-3.83 2.16-1.29 4.36 2 39.18 58.54 60.44 152.32 140.93 149.51 68.01-2.38 82-26.73 87.63-41.57 2.11 27.86-33.66 76.22-108.41 71.17-74.75-5.05-95.44-77.71-118.86-120.18l-5.65-26.27-15.5-22.28 1.5-3.38h4.5l7.07-5.5ZM1243.44 1128.16c-26.6-2.08-46.15-20.43-52.61-29.34l1.27-4.83 37.45-11.61 37.53 2.23 33.73 22.53c-5.62 5.45-30.77 23.11-57.37 21.02Z"/><path fill="#120701" fill-opacity=".2" d="M954 1008.5c60.4 12.8 104.83 61 119.5 83.5l-10.5 16-6.5-16-69-56-33.5-27.5Z"/><path stroke="#000" stroke-linecap="round" stroke-miterlimit="10" stroke-width="20" d="M1061 1108s20.72-6.16 30-24M1084 1145s25.15-8.2 35-27M827.5 1005s57.16 25.28 115-4.5c33.57-22.61 73-21.1 73-21.1M1299.01 1110.23c-1.53 13.97-28.09 26.64-58.12 23.37-30.03-3.27-53.14-21.27-50.61-35.21"/></g><defs><clipPath id="a"><path fill="#fff" d="M0 0h1500v1500H0z"/></clipPath></defs>
      <g clip-path="url(#prefix__clip0_53_25357)"><path d="M350.5 673.5L367 736l65-17 358.5-64.5L1115 639l35.5-9.5-22.5-95-34.5-56.5 47.5-32.5c16.83-3 50-33.7 48-152.5s-113.83-152.17-166-152.5l-124.5 19c-22.669-23.17-95.099-68.8-203.5-66C586.6 96.3 537.171 185 526 229h-94l-65 9-74.5 49c-82.8 103.2-43.83 199.33-14 234.5L311 546l48.5 35.5v16l-9 76z" fill="#fff"/><path d="M542.5 544c-38.8 46-47.5 126.5-47 161-21.833 7.833-74.3 24.9-109.5 30.5-35.2 5.6-37.333-40.667-34-64.5l15.5-89.5-68.499-37.5c-35.5-36.167-92.2-131.9-35-225.5s196.833-98.667 259.5-89.5l50.5-86.5 64.5-42c20.833-3.667 78.3-9.4 141.5-3s110.333 44.333 126 62.5l25.5-6.5 51-9 49.999-2 44 15.5c9 8.5-.85 7.614-37.5 15.5-39.499 8.5-73.499 46-78.999 62.5-4.4 13.2-9.834 16.167-12 16l-52.5-97.5-68.5-39c-167.5-27.5-257 155.5-270 179s-14 60.5-33.5 58.5c-15.6-1.6-18.167-27-18.5-39.5l3-29.5c-39.2 2.4-67.001 57.667-75.501 83.5-22 70.8 9.167 129.167 27.5 149.5l17.5 13.5 65 13.5z" fill="#001647" fill-opacity=".2"/><path d="M739.5 436c4.4-.8 7.5 3 8.5 5l6.5 60-23.5 1.5c-.667-12.667-2-40.7-2-51.5 0-13.5 5-14 10.5-15zM999.5 423c.8-8.8 14.67-6.667 21.5-4.5-1 3.667-3 11.2-3 12 0 1-5 28-5.5 28.5s-19 22.5-19.5 23-47 2-47-2 23-7 40-21 12.5-25 13.5-36z" fill="#001647" fill-opacity=".2"/><path d="M382.59 737c85-25.64 413.43-116.38 747.51-98.23 2.53.142 5.06-.273 7.42-1.217a17.323 17.323 0 006.2-4.245 17.317 17.317 0 003.83-6.474c.78-2.412 1.03-4.966.72-7.484l-.78-6.24a252.725 252.725 0 00-37-103.69l-9-14.28a27.727 27.727 0 00-24.31-12.92c-79.46 2.44-439.92 17.49-692.24 94a27.004 27.004 0 00-18 17.85l-2.39 7.78a252.771 252.771 0 00-7.06 119.76 19.788 19.788 0 0025.1 15.39v0z" stroke="#000" stroke-width="20" stroke-miterlimit="10"/><path d="M518.49 229.919s-230.15-52.61-271.82 148.37c-26.38 127.23 60.18 181.57 127.25 204.33" stroke="#000" stroke-width="20" stroke-miterlimit="10"/><path d="M506.69 306.289s12.23-200.85 193.62-213.54C881.7 80.06 934.59 200 943.21 243.94" stroke="#000" stroke-width="20" stroke-miterlimit="10" stroke-linecap="round"/><path d="M1086.37 482.21c61.61-26.67 146.92-93 87.57-248.68 0 0-56.38-147.15-271.18-69.63" stroke="#000" stroke-width="20" stroke-miterlimit="10"/><path d="M749 447l6 59M943.21 488.94s88.35 2.83 77.29-61.94M556.82 534.94s-87 25.75-93.32-37.44" stroke="#000" stroke-width="20" stroke-miterlimit="10" stroke-linecap="round"/></g><defs><clipPath id="prefix__clip0_53_25357"><path fill="#fff" d="M0 0h1500v1500H0z"/></clipPath></defs>
      
    </g>
    </svg>