<svg
      xmlns="http://www.w3.org/2000/svg"
      preserveAspectRatio="xMidYMin meet"
      fill="none"
      viewBox="0 0 1500 1500"
    >
      <g>
      <path fill="url(#prefix__paint0_linear_53_30461)" d="M0 0h1500v1500H0z"/><defs><linearGradient id="prefix__paint0_linear_53_30461" x1="0" y1="0" x2="1500" y2="1533.5" gradientUnits="userSpaceOnUse"><stop stop-color="#EEB0FC"/><stop offset="1" stop-color="#AF55F5"/></linearGradient></defs>
      <g clip-path="url(#prefix__clip0_53_27836)"><path d="M295.802 1500s-47.94-91.54 28.64-134.76c0 0-62-101.54 67.13-159.88 0 0-37.4-104.09 81.15-137.65 0 0 113.278-13.21 336.278-19.21 0 0 195-18.5 274.57 12.04 0 0 45.53 20.87 73.44 127 0 0 102.26 45.87 83.4 145.87 0 0 95.08 77.12 34 166.56l-978.608.03z" fill="#A760FF"/><path d="M413.5 1436.5c-54 14.8-41.833 56.83-29 76H309c-8.833-12.83-26.5-48.1-26.5-86.5s29.667-63.33 44.5-71l-18-50c3.833-14.67 16.4-49.7 36-72.5 18.829-21.9 42.242-22.8 52.773-20.32-4.833-2.49-11.288-20.19-5.773-77.18 6-62 116.5-77.5 171-77.5l241.5-11 7 36c-17.167-2.17-61.1-4.2-99.5 5-48 11.5-80.5 77.5-76 125s48.5 68 69 76c16.4 6.4 11.5 13.67 7 16.5-49.667-3.83-159.1-14.1-199.5-24.5-50.5-13-74.5 13.5-92 47s3 79 17.5 92c11.6 10.4 7.5 15.67 4 17h-28.5zM678.5 1465.5c-20-4.8-18.667-17-15.5-22.5l169.5 1.5 157-10.5c19 28-73 38.5-157 41s-129-3.5-154-9.5zM913 1321.5c-15.2-3.6-15-12.83-13-17l49-6.5c2.333-3.33 20.5-12.3 74.5-21.5s109.83-61.5 131-86.5l25.5 11.5c-14.33 17-57.5 58.1-115.5 86.5-72.5 35.5-132.5 38-151.5 33.5zM1179.5 1422.5c-23.2 0-24-9.67-21.5-14.5 37.6-11.6 66.67-41.83 76.5-55.5 8.5-9.83 24.8-22.5 22 5.5-3.5 35-48 64.5-77 64.5z" fill="#001647" fill-opacity=".2"/><path d="M844.66 1500h-20.53l-3.2-51.29-16.43-263.08 20.45-1.27 5.2 83.24 14.51 232.4z" fill="#000"/><path d="M391.57 1205.36s113.92 99.14 315.74 99.14M909.141 1304.5S1033 1306.4 1157 1187.57M324.441 1357.16s36.7 65.24 111 80.93M1240.39 1333.44s0 48.45-73.06 70.34M834.691 1448.75c43.06-1.7 107.46-6.84 146-15M673.09 1443.87s71.64 5.43 147.84 4.84" stroke="#000" stroke-width="20" stroke-miterlimit="10" stroke-linecap="round"/><path d="M1084.5 1337c12.33 37 29.5 110.3 43.5 175.5m-646.5 0c.333-32.83 7.7-107.6 20.5-157M301.5 1508.5c-25.5-42-37.6-117.3 23-149.5m0 0c-22-46-25-128.1 67-152.5m-67 152.5c11.333 20.83 47.5 64.6 110.5 79m-43.5-231.5c-10.5-36.17-17.4-111.6 71-136 53.112-14.66 199.972-21.87 344-24.82m-415 160.82c38.167 32.17 156.3 99.1 315.5 97.5m450-116c-10.37-60.53-39.49-100.92-65.94-123.9-17.73-15.41-41.66-19.79-65.15-19.96-61.49-.42-140.02-.09-219.41 1.54M1157 1188c35.17 12.5 94.3 55.9 83.5 145.5M1157 1188c-97.6 94-206 116.5-248 116m331.5 29.5c35.83 26.17 81.7 104.2 28.5 180m-28.5-180c-4.8 43.2-51.67 65.33-74.5 71m-330.5 109l-29-467.82M672 1444c61.333 6.17 208.7 12.7 307.5-10.5" stroke="#000" stroke-width="20" stroke-linecap="round"/></g><defs><clipPath id="prefix__clip0_53_27836"><path fill="#fff" d="M0 0h1500v1500H0z"/></clipPath></defs>
      <g clip-path="url(#prefix__clip0_299_662)"><path d="M775 1185c231.41 0 419-168.12 419-375.5 0-207.383-187.59-375.5-419-375.5-231.407 0-419 168.117-419 375.5 0 207.38 187.593 375.5 419 375.5z" fill="#ABF"/><path d="M457.5 796c7.6 194 131.833 327.5 193 370l-130-55.5L438 1034l-57.5-89.5-27-106 11-104L394 662l45-82.5 83.5-69.5 109-54.182 28.5-1C569.452 513.314 451.119 633.132 457.5 796z" fill="#001647" fill-opacity=".2"/><path d="M775 1185c231.41 0 419-168.12 419-375.5 0-207.383-187.59-375.5-419-375.5-231.407 0-419 168.117-419 375.5 0 207.38 187.593 375.5 419 375.5z" stroke="#000" stroke-width="20"/></g><defs><clipPath id="prefix__clip0_299_662"><path fill="#fff" d="M0 0h1500v1500H0z"/></clipPath></defs>
      <g clip-path="url(#prefix__clip0_53_29343)" stroke="#000" stroke-width="20" stroke-miterlimit="10" stroke-linecap="round"><path d="M821.63 792.381a76.418 76.418 0 00-93.773-21.665 76.405 76.405 0 00-26.727 21.665M836.82 991.439c38.57 39.211 113.35 39.211 151.93 0M1109.25 792.381a76.451 76.451 0 00-26.73-21.665 76.39 76.39 0 00-33.52-7.745 76.425 76.425 0 00-60.25 29.41"/></g><defs><clipPath id="prefix__clip0_53_29343"><path fill="#fff" d="M0 0h1500v1500H0z"/></clipPath></defs>
      <g clip-path="url(#prefix__clip0_53_26419)"><path d="M831.281 968.72H1000.1a5.495 5.495 0 015.5 5.5 89.32 89.32 0 01-89.319 89.32h-1.18a89.323 89.323 0 01-63.159-26.16 89.325 89.325 0 01-26.161-63.16 5.5 5.5 0 015.5-5.5z" fill="#fff" stroke="#000" stroke-width="20" stroke-miterlimit="10"/><path d="M1086 1006.5c0 43.35-75.66 78.5-169 78.5-93.336 0-169-35.11-169-78.5 0-43.386 75.664-78.5 169-78.5 93.34 0 169 35.146 169 78.5z" fill="#ABF"/><path d="M905 1002.88L923.13 991a26.135 26.135 0 0010.308-30.616 26.144 26.144 0 00-6.148-9.734v0a26.143 26.143 0 00-19.36-7.629 26.155 26.155 0 00-18.8 8.919L873 970.38M905 1003l18.13 11.88a26.115 26.115 0 0110.312 30.61 26.15 26.15 0 01-6.152 9.73v0a26.233 26.233 0 01-8.883 5.84 26.052 26.052 0 01-10.475 1.81 26.056 26.056 0 01-10.33-2.51 26.14 26.14 0 01-8.472-6.42L873 1035.5" stroke="#000" stroke-width="20" stroke-miterlimit="10" stroke-linecap="round"/><path d="M1099.27 836a156.437 156.437 0 00-153.411 134 26.558 26.558 0 01-16.18 20.75l-10.68 6.87a6.417 6.417 0 00-2.92 4.75c-.097.96.026 1.94.358 2.85.333.9.867 1.73 1.562 2.4 17.18 16.44 31.57 31.63 42 53a156.432 156.432 0 0073.451 72.93 156.47 156.47 0 00102.91 11.12 156.43 156.43 0 0087.32-55.58 156.458 156.458 0 0033.52-97.93c-.7-86.04-71.79-155.92-157.93-155.16z" fill="#F56CDB" fill-opacity=".9" stroke="#000" stroke-width="20" stroke-miterlimit="10"/><path d="M1207.52 931.913c16.03 30.088 16.61 61.085 1.31 69.237-15.31 8.15-12.99-24.393-29.02-54.481-16.02-30.088-44.31-46.329-29.01-54.479 15.3-8.149 40.7 9.635 56.72 39.723z" fill="#fff"/><circle cx="1209" cy="1031" r="13" fill="#fff"/></g><defs><clipPath id="prefix__clip0_53_26419"><path fill="#fff" d="M0 0h1500v1500H0z"/></clipPath></defs>
      <g clip-path="url(#prefix__clip0_53_24961)"><path d="M328.471 587.58s58.88-190.09 246.39-252.58c0 0 201.241-94.49 408.23 26.16 0 0 108.699 63.54 160.689 173.42l30.45 32.42 81.28 62.15s25.35 30-38.52 34.19c-63.87 4.19-247.299 7.66-247.299 7.66l-202.5 15.57-190.82 25.14-235.22 48.66-32.56 5s-30-19.88-3.28-53.85 13.111-67.25 13.111-67.25l10.049-56.69z" fill="#87C848"/><path d="M316.781 647.551l15.98-55.21 214.91-57.77 279.46-34.46 192.289-13.97 97.96 2.58 19.81 43.88-379.259 27.4-272.8 39.25-168.35 48.3z" fill="#578926"/><path d="M423.391 743.361l88.05-20.33v185.82l-4.24 110.929-83.81 3.04V743.361z" fill="#9E6740"/><path d="M423.391 1030l84-7.13s17.06 55.54-27.31 59.92c-44.37 4.38-45.22 7.94-49.49 2.11-4.27-5.83-7.2-20-7.2-22.73V1030z" fill="#D9D9D9"/><path d="M483.5 727C445.1 499.4 599.167 354.833 681 311l-32.5 2.5-66 20-94.5 46-88 76-61 102-21.5 86c-.833 13-5.4 46.1-17 74.5s.167 44.833 7.5 49.5L483.5 727zM454 852c-.4 56.4 5.833 176.5 9 229.5-22.4 6.8-34.333-4.83-37.5-11.5V745l83.5-21-3 48c-40 1.5-51.5 9.5-52 80z" fill="#001647" fill-opacity=".2"/><path d="M346.781 792s-1.281-6.5 3.719-33l-39.309 14.52 25.64 17.48 9.95 1zM1233.29 671.402c-.41.1-37 24.85-37 24.85L1182 688s-7.13-19.128-9.72-21.018c-2.59-1.89 15.14-2.06 15.14-2.06h56.76l-10.89 6.48z" fill="#3A3A3A"/><path d="M511.441 724.27v335.15c.001 5.78-2.2 11.34-6.155 15.55a22.682 22.682 0 01-15.135 7.13l-42.59 2.7c-3.1.2-6.207-.24-9.13-1.29a22.811 22.811 0 01-7.864-4.82 22.661 22.661 0 01-5.304-7.54 22.699 22.699 0 01-1.872-9.03V740.9" stroke="#000" stroke-width="18.94" stroke-miterlimit="10"/><path d="M1177.07 569.09a129.76 129.76 0 01-38.93-44C1045 351.93 865.71 281.89 695.46 303.43c-213.73 27.05-373 190.35-381.57 378.44a65.267 65.267 0 01-8.58 29.7l-9.05 15.65c-11.26 19.48 6.47 42.91 28.27 37.37l16.62-4.22c294-74.67 588.31-94.15 891.66-97.2 26.27-.26 33-30.4 10.09-47l-65.83-47.08zM1143.78 534.57s-549.939 7.79-826.999 115.54M1117.38 490.32c-552.171 5.12-788.911 106-788.911 106M1255.51 647.551s5.5 35.999-85.51 48.949M294.621 749.328s19.55 40.27 58.82 42.25M423.391 1026.19l88.05-6.74" stroke="#000" stroke-width="18.94" stroke-miterlimit="10"/></g><defs><clipPath id="prefix__clip0_53_24961"><path fill="#fff" d="M0 0h1500v1500H0z"/></clipPath></defs>
      
    </g>
    </svg>