<svg
      xmlns="http://www.w3.org/2000/svg"
      preserveAspectRatio="xMidYMin meet"
      fill="none"
      viewBox="0 0 1500 1500"
    >
      <g>
      <path fill="url(#prefix__paint0_linear_53_30461)" d="M0 0h1500v1500H0z"/><defs><linearGradient id="prefix__paint0_linear_53_30461" x1="0" y1="0" x2="1500" y2="1533.5" gradientUnits="userSpaceOnUse"><stop stop-color="#EEB0FC"/><stop offset="1" stop-color="#AF55F5"/></linearGradient></defs>
      <g clip-path="url(#prefix__clip0_53_28546)"><path d="M1263 1500H289.33l3.73-66.49 22.17-107.35L350 1210.5l64.5-87s17.71-5.24 49.5-22c0-15.48-3.27-11.17 5.5-3.5 9.18-4.83 18.47-7.58 29.94-13H503c6.96-3.29 10.74-4.62 18.5-8 64.69-28.13 216.5-36 216.5-36s154.86-8.26 305 43c6.21 2.12 35.41 17.63 41.5 20 145.5 76.5 178.5 396 178.5 396z" fill="#fff"/><path d="M1120.22 1500H492.75l63.3-66.84 42-80.49.34-.65L509 1201.57l-38-89.15-2.66-6.25-.73-1.69c-.002-.04-3.113-4.44-3.11-4.48l31-14 10-2.5 24.5-9 28.59 59.88v.08l86.22 157.7c.06.1.13.19.18.28l24.2 34.72h246.5l21-28.57 10-13.56 17.21-55.83 22.47-72.91v-.09l21.63-69.7 25-10.44 36.5 20.94-5.33 7.99-1.69 9.53-10.23 57.79-8.9 50.24-13.5 33.18-40.28 99.07-.9 2.21-1.4 3.44 52.71 77.83 70.33 54 4.43 3.39 5.48 4.33z" fill="#4AEEB9"/><path d="M468.001 1094c149.6-59.6 294-54.83 347.5-45-60.865 12.72-204.146 61.06-305.043 154.5L593.5 1345l-5.5 25.5c-40.4-37.2-77.581-111.33-94.871-150-95.084 99.83-110.861 243.43-106.627 304l-99.502-13c-1.6-110.8 39-247.5 59.5-302l39.501-52.5 15.5-20.5 66.5-42.5z" fill="#001647" fill-opacity=".2"/><path d="M780.324 1434.93c.215.68.279 1.39.189 2.09-.09.7-.333 1.38-.711 1.97a4.278 4.278 0 01-1.424 1.42c-.58.36-1.235.57-1.912.63-.757.12-1.502.2-2.246.27-.744.06-1.467.09-2.188.1.099 2.27-.294 4.53-1.151 6.63a19.416 19.416 0 01-9.795 10.12 17.29 17.29 0 01-7.084 1.5l-.41-.02c-2.76-.04-5.47-.74-7.908-2.03a21.42 21.42 0 01-6.727-5.66c-3.997-4.99-6.622-11.99-7.875-21-.726-4.47-.893-9-.499-13.51a24.64 24.64 0 012.899-9.57c.714-1.2 1.591-2.3 2.606-3.26.99-.94 2.112-1.74 3.331-2.35 1.077-.53 2.213-.94 3.384-1.2 1.232-.29 2.498-.41 3.762-.36 3.633 0 7.21.91 10.402 2.64 1.451.7 2.796 1.6 3.992 2.67a9.443 9.443 0 013.296 5.4c.137.67.122 1.37-.045 2.05-.167.67-.481 1.3-.92 1.83-.418.52-.949.94-1.553 1.22-.605.28-1.266.42-1.932.4a5.734 5.734 0 01-3.234-.99 7.929 7.929 0 01-2.388-2.52c-.482-.29-.981-.54-1.494-.76-.671-.28-1.362-.52-2.068-.7-.778-.2-1.575-.3-2.377-.32a6.71 6.71 0 00-2.432.39c-1.606.68-2.761 2.15-3.464 4.4-1.183 3.39-1.326 8.28-.43 14.68a37.867 37.867 0 002.337 9.78c.712 1.8 1.665 3.49 2.833 5.03a6.705 6.705 0 002.228 2.01c.884.49 1.867.78 2.876.84a8.833 8.833 0 003.568-.85 8.891 8.891 0 002.932-2.2 8.48 8.48 0 002.39-4.36c-.56-.02-1.119-.05-1.678-.08-.56-.03-1.109-.05-1.668-.08a6.018 6.018 0 01-4.084-1.63 6.088 6.088 0 01-2.118-3.92c-.1-.67-.056-1.35.13-2 .186-.64.51-1.25.948-1.76.422-.51.955-.92 1.559-1.19a4.407 4.407 0 011.925-.4l.09.01c.881-.01 1.731 0 2.541.02.81.02 1.598.08 2.387.12 1.998.1 3.886.2 5.799.18 2.246 0 4.489-.14 6.719-.42a5.77 5.77 0 014.167 1.16 6.41 6.41 0 012.525 3.58zM809.785 1459.36a102.9 102.9 0 01-5.583-.08c-1.508-.08-2.746-.14-3.711-.28-.964-.14-1.721-.21-2.266-.33-.545-.12-.942-.19-1.169-.25a7.588 7.588 0 01-2.101-.83 8.992 8.992 0 01-2.468-2.12 12.745 12.745 0 01-1.998-3.1c-.455-.98-.853-1.98-1.193-3a44.13 44.13 0 01-1.044-3.75 74.323 74.323 0 01-1.503-7.43c-.45-2.81-.894-5.96-1.331-9.46-.408-2.92-.731-5.76-.967-8.52l-.633-7.39c-.173-2.17-.295-3.94-.376-5.32-.082-1.38-.125-2.13-.139-2.24-.078-.67.004-1.35.239-1.98.235-.63.617-1.2 1.113-1.66a4.736 4.736 0 011.768-1.06c.659-.23 1.359-.3 2.051-.23 1.532.16 2.954.87 3.996 2a6.02 6.02 0 011.805 3.97c-.003.06.039.63.104 1.73.065 1.11.162 2.57.312 4.4.149 1.83.334 3.94.545 6.33.211 2.39.46 4.85.754 7.39.36 3.02.713 5.79 1.05 8.27.337 2.48.767 4.7 1.14 6.66.373 1.97.744 3.36 1.038 4.48.295 1.13.523 1.97.725 2.53 1.549.17 3.107.24 4.665.23 1.851.02 3.804.01 5.849-.04 2.045-.04 4.09-.1 6.127-.19s3.895-.21 5.604-.33a5.665 5.665 0 014.118 1.33 6.675 6.675 0 012.425 3.79 4.711 4.711 0 01-.708 3.97c-.381.55-.88 1-1.462 1.33-.582.32-1.23.51-1.896.55l-1.004.04-2.39.15-3.383.19c-1.265.05-2.609.1-4.011.11-.773.05-1.486.08-2.147.09l-1.945.05zM840.538 1459.28a6.535 6.535 0 01-4.065-1.79 5.791 5.791 0 01-1.988-3.91c-.954-7.66-2.111-15.6-3.47-23.82a472.115 472.115 0 00-4.511-23.63 4.549 4.549 0 01.676-3.91c.387-.54.89-.98 1.473-1.3a4.33 4.33 0 011.892-.53c4.573-.44 9.182-.35 13.733.28 4.108.57 8.118 1.7 11.918 3.36a32.179 32.179 0 019.085 5.94 19.763 19.763 0 015.451 8.77c.22 1.02.372 2.07.456 3.11.099 1.34-.025 2.69-.369 3.99a16.03 16.03 0 01-1.988 4.54 19.016 19.016 0 01-4.237 4.66c-4.718 3.86-11.585 6.72-20.602 8.57.224 1.74.448 3.47.693 5.19.245 1.71.441 3.41.597 5.1a4.758 4.758 0 01-1.029 3.77c-.412.51-.937.92-1.535 1.2-.597.27-1.25.41-1.908.39l-.272.02zm-2.187-48.16a467.926 467.926 0 013.85 21.21 45.103 45.103 0 009.535-3.09c1.84-.84 3.573-1.9 5.164-3.15a10.464 10.464 0 002.779-3.15 3.927 3.927 0 00.499-2.98 6.65 6.65 0 00-2.294-3.19 18.776 18.776 0 00-4.734-2.85 38.087 38.087 0 00-14.8-2.78l.001-.02zM1122.41 1495.71l-2.72 4-2.86 4.25h-17.5c-39.37-28.33-90.91-75.45-111.93-131.12a55.169 55.169 0 00-3.61-7.72c-.66-1.18-1.36-2.32-2.1-3.44l6.48-4.3.45-.3 9.73-6.46a75.56 75.56 0 017.76 15.16c11.29 29.89 43.29 78.46 107.78 124 2.74 2 5.58 3.98 8.52 5.93z" fill="#000"/><path d="M669.16 1327.18h252.95" stroke="#000" stroke-width="20" stroke-miterlimit="10"/><path d="M605.91 1358.65c-.44.57-.86 1.15-1.27 1.74a53.595 53.595 0 00-6.74 13.12c-23 65.59-68.45 109.28-89 126.49l-21.15 3-5.79-8.16c.12-.09 2.66-1.91 6.85-5.38 17.35-14.29 68.14-59.52 90.22-122.56a73.51 73.51 0 0111-20.38l8.06 6.15 1.88 1.43 5.94 4.55z" fill="#000"/><path d="M465.53 1102.37s54.7 154.47 153.72 276.69a35.46 35.46 0 0020.062 12.32c7.895 1.7 16.135.66 23.358-2.95a35.406 35.406 0 0011.903-9.66 35.46 35.46 0 006.988-29.11 35.456 35.456 0 00-6.221-14.01c-32.71-44.41-111.58-175.36-143.84-260.15M1010.94 1078.69c-26.5 97.87-68.13 216.54-94.92 258.09a35.487 35.487 0 00-4.498 28.38 35.485 35.485 0 0017.988 22.4l1.37.71c7.688 3.98 16.565 5 24.959 2.89a35.516 35.516 0 0020.611-14.37c31.17-45.55 77.27-163 92.71-277.8" stroke="#000" stroke-width="20" stroke-miterlimit="10"/><path d="M645.26 1371.64c9.157 0 16.58-7.42 16.58-16.58 0-9.16-7.423-16.58-16.58-16.58-9.157 0-16.58 7.42-16.58 16.58 0 9.16 7.423 16.58 16.58 16.58zM947.6 1371.64c9.157 0 16.58-7.42 16.58-16.58 0-9.16-7.423-16.58-16.58-16.58-9.157 0-16.58 7.42-16.58 16.58 0 9.16 7.423 16.58 16.58 16.58z" fill="#000"/><path d="M289.5 1512.5c-6-101.5 31-323.03 140.5-398 158.5-108.51 616.5-87 706.5 26 64.91 81.5 99.5 222.5 132.5 371M1084.5 1337c12.33 37 29.5 110.3 43.5 175.5m-646.5 0c.333-32.83 7.7-107.6 20.5-157" stroke="#000" stroke-width="20" stroke-linecap="round"/></g><defs><clipPath id="prefix__clip0_53_28546"><path fill="#fff" d="M0 0h1500v1500H0z"/></clipPath></defs>
      <g clip-path="url(#prefix__clip0_299_662)"><path d="M775 1185c231.41 0 419-168.12 419-375.5 0-207.383-187.59-375.5-419-375.5-231.407 0-419 168.117-419 375.5 0 207.38 187.593 375.5 419 375.5z" fill="#ABF"/><path d="M457.5 796c7.6 194 131.833 327.5 193 370l-130-55.5L438 1034l-57.5-89.5-27-106 11-104L394 662l45-82.5 83.5-69.5 109-54.182 28.5-1C569.452 513.314 451.119 633.132 457.5 796z" fill="#001647" fill-opacity=".2"/><path d="M775 1185c231.41 0 419-168.12 419-375.5 0-207.383-187.59-375.5-419-375.5-231.407 0-419 168.117-419 375.5 0 207.38 187.593 375.5 419 375.5z" stroke="#000" stroke-width="20"/></g><defs><clipPath id="prefix__clip0_299_662"><path fill="#fff" d="M0 0h1500v1500H0z"/></clipPath></defs>
      <g clip-path="url(#prefix__clip0_53_29369)" stroke="#000" stroke-width="20" stroke-miterlimit="10"><path d="M729.63 808.821l88.08-16a7.737 7.737 0 006.23-6.4 7.757 7.757 0 00-.73-4.64 7.674 7.674 0 00-3.27-3.35l-82.39-43.72M1087 808.821l-87.999-16a7.71 7.71 0 01-6.23-6.4 7.784 7.784 0 01.72-4.63 7.65 7.65 0 013.28-3.36l82.389-43.72" stroke-linecap="round"/><path d="M1000 1001.64c0 35-39.4 63.36-88 63.36s-88-28.36-88-63.36a47.358 47.358 0 014.59-20.231c6.41-13.7 21-19 33.42-12.86 14.2 7.07 31.42 11.21 50 11.21s35.79-4.14 50-11.21c12.4-6.18 27-.84 33.42 12.86a47.337 47.337 0 014.57 20.231z" fill="#fff"/></g><defs><clipPath id="prefix__clip0_53_29369"><path fill="#fff" d="M0 0h1500v1500H0z"/></clipPath></defs>
      <g clip-path="url(#prefix__clip0_53_26590)"><path d="M1086 1014c0 39.21-75.66 71-169 71-93.336 0-169-31.76-169-71 0-39.241 75.664-71 169-71 93.34 0 169 31.788 169 71z" fill="#ABF"/><path d="M921 967c40.869 0 74-33.131 74-74s-33.131-74-74-74-74 33.131-74 74 33.131 74 74 74z" fill="#FF6247" stroke="#000" stroke-width="20"/><path d="M1045 1016.27c0 42.37-55.325 76.73-123.509 76.73S798 1058.63 798 1016.27v-1.64c.892-25.725 25.066-41.87 45.973-31.384 21.194 10.616 48.187 16.974 77.482 16.974 29.296 0 56.307-6.358 77.5-16.984 20.905-10.476 45.115 5.669 45.975 31.394.05.54.07 1.09.07 1.64z" fill="#fff" stroke="#000" stroke-width="20"/><ellipse cx="952.292" cy="871.799" rx="15.861" ry="31.193" transform="rotate(-31.564 952.292 871.799)" fill="#fff"/></g><defs><clipPath id="prefix__clip0_53_26590"><path fill="#fff" d="M0 0h1500v1500H0z"/></clipPath></defs>
      <g clip-path="url(#prefix__clip0_53_25760)"><path d="M661.719 466.272s.681-50.314 11.211-50.049c10.531.266 30.241-4.165 30.241-4.165l31.003 15.989 25.638-5.424 28.99-24.747 27.071-1.791 27.883 14.121 15.446 18.681 23.411.145 50.96-13.954 24.276 23.68-19.232 52.574-44.507-21.369-17.618-6.041-23.175-7.036-28.049-1.943-32.388-.112-55.638 3.68-50.45 8.949-25.073-1.188z" fill="#97A5DE"/><path d="M718.506 479.214s19.322 40.453 64.014 34.31c44.692-6.143 83.522-32.583 83.522-32.583l10.406-17.065-81.463-14.775-84.096 14.041s-8.664 11.898 7.617 16.072z" fill="#7985B4"/><path d="M662.843 469.488s-13.534-58.554 30.087-60.287c15.493-.614 25.434 4.992 32.226 12.21 13.894 14.755 29.392 7.707 38.346-2.386 11.842-13.391 27.482-26.021 44.854-27.17 20.226-1.338 34.215 14.393 42.889 29.474 6.094 10.621 21.799 13.651 33.204 6.683 11.953-7.315 28.35-12.9 48.081-8.683 42.964 9.245 6.064 69.091 6.064 69.091" stroke="#000" stroke-width="18.1" stroke-miterlimit="10" stroke-linecap="round"/><path d="M630.048 507.634S655.324 462.566 681.5 468c40.502 8.395 74.399 69.733 74.399 69.733M800.818 537.268s38.761-65.501 93.251-67.301c54.49-1.801 48.429 57.93 48.429 57.93M682 468s137.209-40.275 226.408 2.982M736.796 506.5s35.103 14.655 86.489 1.675" stroke="#000" stroke-width="20" stroke-miterlimit="10" stroke-linecap="round"/><path d="M705.351 553.292a15.47 15.47 0 00-6.12 14c2.61 23.14 14.52 81.46 68.22 76.42 66.85-6.24 82.55-96.07 82.55-96.07s27.42-113.45-68.81-217.34a3.755 3.755 0 00-4.177-.932 3.76 3.76 0 00-2.343 3.582c.94 37.05-.73 168.17-69.32 220.34zM956.381 560.231a15.453 15.453 0 00-4.61 14.58c5 22.73 23 79.48 75.869 68.83 65.82-13.26 72-104.23 72-104.23s13.83-124-91.45-209.53a3.735 3.735 0 00-2.04-.831 3.76 3.76 0 00-2.16.461c-.66.366-1.19.922-1.52 1.594a3.726 3.726 0 00-.37 2.176c4.77 35.98 17.32 167.56-45.719 226.95z" fill="#FF6247" stroke="#000" stroke-width="20" stroke-miterlimit="10"/><path d="M756.5 578.5c-4 44.8 21.667 53.333 35 52l-17 14-39.5-9-27-27-8.5-44.5 47.5-63 21-70.5 14-87c16.333 14.5 44.4 55.4 26 103-23 59.5-46.5 76-51.5 132zM1041.5 482.5c14-61.2-3.5-109.167-14-125.5l-4-13.5-15-11v106l-15.5 70-38.5 55.5c1.667 16.167 13.2 53.8 46 75 32.8 21.2 62.67-6.5 73.5-23-15.95 17.5-49.5 21.5-57.5-18.5-9.74-48.685 10.59-52 25-115z" fill="#001647" fill-opacity=".2"/><path d="M705.351 553.292a15.47 15.47 0 00-6.12 14c2.61 23.14 14.52 81.46 68.22 76.42 66.85-6.24 82.55-96.07 82.55-96.07s27.42-113.45-68.81-217.34a3.755 3.755 0 00-4.177-.932 3.76 3.76 0 00-2.343 3.582c.94 37.05-.73 168.17-69.32 220.34zM956.381 560.231a15.458 15.458 0 00-4.61 14.58c5 22.73 23 79.48 75.869 68.83 65.82-13.26 72-104.23 72-104.23s13.83-124-91.45-209.53a3.735 3.735 0 00-2.04-.831 3.76 3.76 0 00-2.16.461c-.66.366-1.19.922-1.52 1.594a3.726 3.726 0 00-.37 2.176c4.77 35.98 17.32 167.56-45.719 226.95z" stroke="#000" stroke-width="20" stroke-miterlimit="10"/></g><defs><clipPath id="prefix__clip0_53_25760"><path fill="#fff" d="M0 0h1500v1500H0z"/></clipPath></defs>
      
    </g>
    </svg>