<svg
      xmlns="http://www.w3.org/2000/svg"
      preserveAspectRatio="xMidYMin meet"
      fill="none"
      viewBox="0 0 1500 1500"
    >
      <g>
      <path fill="url(#prefix__a1)" d="M0 0h1500v1500H0z"/><defs><linearGradient id="prefix__a1" x1="0" y1="0" x2="1500" y2="1500" gradientUnits="userSpaceOnUse"><stop stop-color="#57ECFF"/><stop offset="1" stop-color="#4E41EE"/></linearGradient></defs>
      <g clip-path="url(#prefix__clip0_53_27966)"><path d="M460.5 1094.5c-138.4 66.4-174 309.33-174.5 422.5h983.5c-12.5-72.17-53.2-244.1-116-354.5-78.5-138-520-151-693-68z" fill="#FF6247"/><path d="M147.86 901.54l92.91 58.36s54.73 33 19.43 59-27.84 6.39-27.84 6.39 23.52 56.57 48.88 70.77c25.36 14.2 99.38 62.52 99.38 62.52s-28.95 36.49-34.57 50.87l-74.13-38.56s-51.06-56.42-51.47-57c-.41-.58-36.27-58-36.27-58s-47.3 36.41-51.41-16.88c-4.11-53.29 3.32-119.46 3.32-119.46s-5.72-18.8 11.77-18.01z" fill="#FF6247"/><path d="M391.26 1159.82s-124.61-40.23-157.11-130a3.31 3.31 0 012.41-4.38l14.95-3.23c21.489-5.71 30.489-38.71 8.62-54.36l-110-70.14a8.124 8.124 0 00-8.128-.314 8.122 8.122 0 00-4.332 6.884L124 1034c-3.001 31 30.501 47.5 60.22 21.9.16-.2.367-.35.602-.44.235-.1.49-.13.742-.1a1.497 1.497 0 011.166.86c7.76 16.82 60.35 133 172 153.25" stroke="#000" stroke-width="20" stroke-miterlimit="10"/><path d="M289.5 1512.5c-6-101.5 31-323.03 140.5-398 158.5-108.51 616.5-87 706.5 26 64.91 81.5 99.5 222.5 132.5 371M1084.5 1337c12.33 37 29.5 110.3 43.5 175.5m-646.5 0c.333-32.83 7.7-107.6 20.5-157" stroke="#000" stroke-width="20" stroke-linecap="round"/><path d="M500.002 1213.5c-101.2 100-117.834 249-113.5 311l-99.502-13c-1.6-110.8 39-247.5 59.5-302l6.414-8.53c-5.892 2.91-13.406 3.55-22.914.53-34-10.8-98.833-73.83-127-104l-19-38.5c-18.833 7.67-56.5 15.1-56.5-16.5S135.833 933 140 898l114 65c10 8.833 27 29.8 15 43s-30 21.5-37.5 24l45.5 57 95.5 70c0 6.45-.947 14.76-3.472 22.56l16.973-22.56 15.5-20.5 66.5-42.5c149.6-59.6 294-54.83 347.5-45-63 13.17-214.299 64.5-315.499 164.5z" fill="#001647" fill-opacity=".2"/></g><defs><clipPath id="prefix__clip0_53_27966"><path fill="#fff" d="M0 0h1500v1500H0z"/></clipPath></defs>
      <g clip-path="url(#prefix__clip0_299_662)"><path d="M775 1185c231.41 0 419-168.12 419-375.5 0-207.383-187.59-375.5-419-375.5-231.407 0-419 168.117-419 375.5 0 207.38 187.593 375.5 419 375.5z" fill="#ABF"/><path d="M457.5 796c7.6 194 131.833 327.5 193 370l-130-55.5L438 1034l-57.5-89.5-27-106 11-104L394 662l45-82.5 83.5-69.5 109-54.182 28.5-1C569.452 513.314 451.119 633.132 457.5 796z" fill="#001647" fill-opacity=".2"/><path d="M775 1185c231.41 0 419-168.12 419-375.5 0-207.383-187.59-375.5-419-375.5-231.407 0-419 168.117-419 375.5 0 207.38 187.593 375.5 419 375.5z" stroke="#000" stroke-width="20"/></g><defs><clipPath id="prefix__clip0_299_662"><path fill="#fff" d="M0 0h1500v1500H0z"/></clipPath></defs>
      <g clip-path="url(#prefix__clip0_53_29343)" stroke="#000" stroke-width="20" stroke-miterlimit="10" stroke-linecap="round"><path d="M821.63 792.381a76.418 76.418 0 00-93.773-21.665 76.405 76.405 0 00-26.727 21.665M836.82 991.439c38.57 39.211 113.35 39.211 151.93 0M1109.25 792.381a76.451 76.451 0 00-26.73-21.665 76.39 76.39 0 00-33.52-7.745 76.425 76.425 0 00-60.25 29.41"/></g><defs><clipPath id="prefix__clip0_53_29343"><path fill="#fff" d="M0 0h1500v1500H0z"/></clipPath></defs>
      <g clip-path="url(#prefix__clip0_53_26664)"><path d="M1086 1014c0 39.21-75.66 71-169 71-93.336 0-169-31.76-169-71 0-39.241 75.664-101 169-101 93.34 0 169 61.788 169 101z" fill="#ABF"/><path d="M797.83 990.76s-2.26-46.71 35.63-47.76l12.4-.07 3.7 53.67-51.73-5.84zM796.078 999.77h59.58l3.78 54.84-37.21-2.24-13.26-25.18-12.89-27.42z" fill="gold"/><path d="M845.859 942.93l34.49 8.62 26.47-3.52 5.08 50.29-56.24 1.45-9.8-56.84z" fill="gold"/><path d="M910.488 947.172h68.54l.03 51.15h-67.16l-1.41-51.15zM983.589 944.871l17.001 2.3 24.03 9.66 9.05 28.5-.91 12.99h-53.701l4.53-53.45z" fill="gold"/><path d="M849.559 996.602l62.34 1.72 7.38 54.048-59.84 2.24-9.88-58.008zM918.461 999.77h64.2l-8.03 54.84-55.35-2.24-.82-52.6z" fill="gold"/><path d="M975.289 994.512l63.171 5.26-6.4 30.408-34.761 26.48-17.86-2.05-4.15-60.098z" fill="gold"/><path d="M797.489 985.841c-1.87-27.17 21.28-47.59 48.37-42.91 20 3.45 43.93 5.16 69 5.16s48.63-1.84 68.06-5.36c26.511-4.82 52.631 15.6 54.521 42.87l1.08 15.709c2 29.44-20.17 53.3-49.601 53.3h-133.4c-29.43 0-54.94-23.86-57-53.3l-1.03-15.469zM798.352 998.309h234.408M912.512 954.172l6.78 98.198M845.031 947.172l14.26 105.198M979.031 947.172l.26 105.198" stroke="#000" stroke-width="20" stroke-miterlimit="10"/><path d="M830.5 966l2 14m63-13l1 14m-59 37l2 14m60-15l1 14m61-65v15m0 36v18m56-59v6m0 35v7" stroke="#fff" stroke-width="8" stroke-linecap="round"/></g><defs><clipPath id="prefix__clip0_53_26664"><path fill="#fff" d="M0 0h1500v1500H0z"/></clipPath></defs>
      <g clip-path="url(#prefix__clip0_53_24889)"><path d="M1189.38 568.001a10.407 10.407 0 00-1.98 4.502c-.29 1.637-.18 3.32.31 4.908 23.49 64.7-16.84 79.42-16.84 79.42-17.85 7.34-31.27 2.64-38.16-1.24a10.512 10.512 0 00-10.62.13c-27.22 16.44-55.56 1.29-67.16-6.55a10.383 10.383 0 00-5.55-1.766c-1.98-.048-3.93.471-5.63 1.496-32.85 19.84-57.26 6.36-67.67-1.92a10.527 10.527 0 00-12.05-.74c-32.52 19.74-59.81 4.64-71.37-4.09a10.489 10.489 0 00-12.37-.12c-29.69 20.81-53.63 8.37-64.18.37a10.491 10.491 0 00-12.34-.11c-31.71 22.15-63.62 7.45-76.9-.71a10.492 10.492 0 00-12.24 1c-26.85 22.5-57.29 17.5-70 14a10.467 10.467 0 00-10.48 3c-26.07 28-51.91 28.25-64.16 26.29a10.376 10.376 0 00-10.64 4.9c-13.53 23.17-40.52 28.09-53.48 29.09a10.494 10.494 0 00-9 6.76c-8 20.93-37.11 30.28-49 33.28a10.472 10.472 0 00-7 5.94c-17.51 39.88-52 34.16-62.87 31.16a10.711 10.711 0 00-6.8.41c-42.71 17.18-53-18.53-55.42-33.83a10.586 10.586 0 00-7-8.32c-27.18-9.49-21.71-33-16.44-45.55a10.547 10.547 0 00-3.85-12.84c-26.85-18.17-18.73-43.06-12.5-55a10.38 10.38 0 00-2.09-12.3c-25.49-24.15-8.28-49.19.52-59a10.518 10.518 0 002.11-10.34c-15-45.36-1.2-75 15.37-79.67a10.443 10.443 0 007.38-12.32c-7.9-34.74 18.12-56.24 33.22-60.1a10.482 10.482 0 007.94-10.14c-.26-44.36 39.11-48.82 56.69-48.6a10.422 10.422 0 0010.17-7.49c12.15-42.17 52.24-42.15 69.95-39.93a10.472 10.472 0 0011.09-6.75c13.32-35.63 45.83-32.24 60.79-28.51a10.463 10.463 0 0011.42-4.63c17.35-27.85 54-24.3 69.76-21.25a10.522 10.522 0 0011.05-5c23.28-39.29 62.4-25.7 78.15-18a10.436 10.436 0 0012-2.15c26.1-26.84 58.88-15.61 70.88-6.86 3.76 2.74 8.3 1.63 12.56-.24 53.29-23.45 63.52 11.41 75.49 22.41a10.52 10.52 0 005.442 2.625 10.52 10.52 0 005.988-.805c55.13-24.44 66 11.82 74.17 24.56a10.335 10.335 0 009.07 4.74c15-.51 59.53-12.4 68.82 36 .91 4.74 4.13 8.67 8.9 9.44 14.88 2.39 46.89 9.68 48.24 42.63.1 2.113.84 4.145 2.12 5.833a10.5 10.5 0 005.03 3.627c14 4.78 50 32.66 36.09 66.63a10.34 10.34 0 00-.34 6.767c.65 2.23 2.02 4.178 3.91 5.533 12.36 8.92 34.63 30 17.61 57.42a10.446 10.446 0 00-1.36 7.364 10.437 10.437 0 003.91 6.386c12.51 9.74 32.24 31.07 11.34 58.25z" fill="#4AEEB9" stroke="#000" stroke-width="20" stroke-miterlimit="10"/><path d="M486 316c8-7.2 6.333-12.333 4.5-14l-8.501-4c-14.833 2.5-44.699 7.7-45.499 8.5-.8.8-18.333 16.333-27 24l-16 19-28 5.5-22 32c-14 15.333-42 46.3-42 47.5 0 1.2-2.667 24.833-4 36.5l-25 26 4 61.5-13 29.5 7.5 39v32l19.5 43 2.5 42c7.333 7.5 23.9 25.4 31.5 37 9.5 14.5 10 12.5 54.5 16 35.6 2.8 57.167-19.167 63.5-30.5l59-43.5 42.5-17c6-6.167 23.9-19.2 47.5-22 23.6-2.8 32.5-20.167 34-28.5-37.919 25.554-65.646 17.812-74.217 5.341-2.881-4.193-6.633-8.688-11.588-9.84-33.654-7.826-40.534-35.863-37.426-55.162.893-5.544-1.656-11.452-6.538-14.227-31.884-18.125-23.086-50.549-11.002-71.318 2.878-4.947 1.684-11.403-2.66-15.13-25.625-21.988-18.853-46.575-7.959-61.497 3.633-4.976 3.422-12.186-.233-17.146-12.486-16.942-4.409-34.241 5.626-45.608 4.207-4.766 4.255-12.311 1.134-17.849-7.877-13.978-2.731-29.779 5.363-37.064z" fill="#001647" fill-opacity=".2"/><path d="M1189.38 568.001a10.407 10.407 0 00-1.98 4.502c-.29 1.637-.18 3.32.31 4.908 23.49 64.7-16.84 79.42-16.84 79.42-17.85 7.34-31.27 2.64-38.16-1.24a10.512 10.512 0 00-10.62.13c-27.22 16.44-55.56 1.29-67.16-6.55a10.383 10.383 0 00-5.55-1.766c-1.98-.048-3.93.471-5.63 1.496-32.85 19.84-57.26 6.36-67.67-1.92a10.527 10.527 0 00-12.05-.74c-32.52 19.74-59.81 4.64-71.37-4.09a10.489 10.489 0 00-12.37-.12c-29.69 20.81-53.63 8.37-64.18.37a10.491 10.491 0 00-12.34-.11c-31.71 22.15-63.62 7.45-76.9-.71a10.492 10.492 0 00-12.24 1c-26.85 22.5-57.29 17.5-70 14a10.467 10.467 0 00-10.48 3c-26.07 28-51.91 28.25-64.16 26.29a10.376 10.376 0 00-10.64 4.9c-13.53 23.17-40.52 28.09-53.48 29.09a10.494 10.494 0 00-9 6.76c-8 20.93-37.11 30.28-49 33.28a10.472 10.472 0 00-7 5.94c-17.51 39.88-52 34.16-62.87 31.16a10.711 10.711 0 00-6.8.41c-42.71 17.18-53-18.53-55.42-33.83a10.586 10.586 0 00-7-8.32c-27.18-9.49-21.71-33-16.44-45.55a10.547 10.547 0 00-3.85-12.84c-26.85-18.17-18.73-43.06-12.5-55a10.38 10.38 0 00-2.09-12.3c-25.49-24.15-8.28-49.19.52-59a10.518 10.518 0 002.11-10.34c-15-45.36-1.2-75 15.37-79.67a10.443 10.443 0 007.38-12.32c-7.9-34.74 18.12-56.24 33.22-60.1a10.482 10.482 0 007.94-10.14c-.26-44.36 39.11-48.82 56.69-48.6a10.422 10.422 0 0010.17-7.49c12.15-42.17 52.24-42.15 69.95-39.93a10.472 10.472 0 0011.09-6.75c13.32-35.63 45.83-32.24 60.79-28.51a10.464 10.464 0 0011.42-4.63c17.35-27.85 54-24.3 69.76-21.25a10.522 10.522 0 0011.05-5c23.28-39.29 62.4-25.7 78.15-18a10.436 10.436 0 0012-2.15c26.1-26.84 58.88-15.61 70.88-6.86 3.76 2.74 8.3 1.63 12.56-.24 53.29-23.45 63.52 11.41 75.49 22.41a10.52 10.52 0 005.442 2.625 10.52 10.52 0 005.988-.805c55.13-24.44 66 11.82 74.17 24.56a10.342 10.342 0 009.07 4.74c15-.51 59.53-12.4 68.82 36 .91 4.74 4.13 8.67 8.9 9.44 14.88 2.39 46.89 9.68 48.24 42.63.1 2.113.84 4.145 2.12 5.833a10.5 10.5 0 005.03 3.627c14 4.78 50 32.66 36.09 66.63a10.34 10.34 0 00-.34 6.767c.65 2.23 2.02 4.178 3.91 5.533 12.36 8.92 34.63 30 17.61 57.42a10.446 10.446 0 00-1.36 7.364 10.437 10.437 0 003.91 6.386c12.51 9.74 32.24 31.07 11.34 58.25z" stroke="#000" stroke-width="20" stroke-miterlimit="10"/></g><defs><clipPath id="prefix__clip0_53_24889"><path fill="#fff" d="M0 0h1500v1500H0z"/></clipPath></defs>
      
    </g>
    </svg>