<svg
      xmlns="http://www.w3.org/2000/svg"
      preserveAspectRatio="xMidYMin meet"
      fill="none"
      viewBox="0 0 1500 1500"
    >
      <g>
      <path fill="url(#prefix__paint0_linear_53_28789)" d="M0 0h1500v1500H0z"/><defs><linearGradient id="prefix__paint0_linear_53_28789" x1="1500" y1="1500" x2="0" y2="0" gradientUnits="userSpaceOnUse"><stop stop-color="#FFD130"/><stop offset="1" stop-color="#FFEEDB"/></linearGradient></defs>
      <g clip-path="url(#prefix__clip0_53_27517)"><path d="M277.11 1500l-1.87-48.3 17.07-36.79 2.35-49.06 20.58-31.46 7.73-50.65s28.57-41.54 28.8-43.99c.23-2.46 17-51 19.67-51.84 2.67-.84 9.59-.67 14.94-5.13s14.72-11.81 15.61-15.82c.89-4-1.34-10.92 3.34-18.05 4.68-7.13 7.17-11.45 13.63-11 6.46.45 26.06-5.53 26.73-6.41.38-.5 7.57-13.72 13.59-24.83 4.26-7.85 33.62-15.64 41-10.63 61.72-1.98 116.11-18.31 272.72-21.54 195.15-4 275.17 19.56 275.17 19.56l31.29 7.23s19 25 19.9 26.85c.9 1.85 10.74 15.16 10.74 15.16s11.37.31 14.53.94c3.16.63 7.89-.63 9.16 4.11 1.27 4.74 7.89 16.74 8.84 23.68.95 6.95.63 13.58 6.32 16.74 5.69 3.16 15.47 3.47 25 6.63 9.53 3.16 11.37 7 12.95 10.42s4.1 19 4.74 22.74c.64 3.74 6.94 35.47 6.94 35.47l26.85 16.32s.95 27.8 0 32.85c-.95 5.04-4.11 9.15-1.58 16.73 2.53 7.58 7.27 17.37 11.37 21.48 4.1 4.11 8.53 5.37 10.42 11.05 1.89 5.68 4.74 10.42 4.11 20.21-.63 9.78-2.21 19.58-1.58 30.63.63 11.05 1.67 13.27 1.67 13.27l19.49 20.38s4.42 15.31 3.48 18.78c-.94 3.46-9.16 34.27-9.16 34.27H277.11z" fill="#9E6740"/><path d="M440 1295.5c-42 68.4-52.833 173.83-53 218H285.5c-4-1.67-12-12.2-12-41s15.333-41.33 23-44l-8-52.5c10.5-7.5 31.2-31 30-65-1.2-34 16.167-43.83 25-44.5l18-65.5c13-4.33 39.2-18.9 40-42.5.8-23.6 26-18.17 38.5-12.5l5.5-19 22-29 125.5-15.5h117.5c-150.8 58.8-224.833 139.5-243 172.5l57.5 2c-8.4 20.8-33.5 20.33-45 17.5-15.2 18.8-33 21.83-40 21zM693 1421.5c15.6-14.4 14.833-25.67 12.5-29.5l-19.5 19.5h-35l-37 17c-11.333-3-35-9.4-39-11-5-2-20 1-2 23.5s59 2.5 65-4.5 31 7.15 55-15zM773.5 1276.5c-6-10.4-.833-13.33 2.5-13.5l12.5 3 30.5 2.5 29-14 39-4.5c4.667-7.5 16-20.9 24-14.5 10 8-16 48-46.5 45s-29 11-47 14-36.5-5-44-18zM895.5 1449.5c-5.6-8.8 1-11.67 5-12l31 11 33-14 32-5c11-6.17 33.8-18.2 37-17 4 1.5 2.5 15-4 24.5s-16.5 19-43 14.5-24 14-45.5 19-38.5-10-45.5-21zM1230 1507c11.2-6.4 11.67-17.67 10.5-22.5l-20.5 4.5c-1.33 8.67-1.2 24.4 10 18zM1087 1276.5c-9.2-12.8-.17-15.67 5.5-15.5l20 13 33-10.5 43.5-4.5 14 15c-4.67 2.67-16.5 7.7-26.5 6.5-12.5-1.5-9-4-31 11.5s-47 .5-58.5-15.5z" fill="#001647" fill-opacity=".2"/><path d="M902 1235.61l-3.07 5.1a33.625 33.625 0 01-35.81 15.56l-1.55-.33a33.633 33.633 0 00-15.83.45 33.728 33.728 0 00-13.87 7.64v0a33.631 33.631 0 01-19.916 8.72 33.621 33.621 0 01-21.084-5.3l-7.09-4.59M1025.57 1409.68l-3.07 5.11c-3.6 6-8.99 10.72-15.41 13.51a33.575 33.575 0 01-20.39 2.05l-1.55-.33a33.619 33.619 0 00-29.7 8.1 33.624 33.624 0 01-19.916 8.71 33.616 33.616 0 01-21.084-5.29l-7.09-4.6M698 1391.05l-3.07 5.11a33.625 33.625 0 01-35.81 15.56l-1.55-.33a33.638 33.638 0 00-15.831.46 33.485 33.485 0 00-13.869 7.64 33.624 33.624 0 01-19.916 8.71 33.617 33.617 0 01-21.084-5.29l-7.08-4.6M531.83 1235.61l-3.07 5.1a33.64 33.64 0 01-35.76 15.56l-1.55-.33a33.633 33.633 0 00-15.83.45 33.716 33.716 0 00-13.87 7.64v0a33.624 33.624 0 01-19.916 8.71 33.617 33.617 0 01-21.084-5.29l-7.09-4.59M385.18 1409.68l-3.07 5.11a33.537 33.537 0 01-15.413 13.51 33.597 33.597 0 01-20.397 2.05l-1.55-.33a33.633 33.633 0 00-15.83.46 33.495 33.495 0 00-13.87 7.64v0a33.642 33.642 0 01-20.39 8.75M1185.91 1256.9c-4.59 1-4.76.39-9.56-.63l-1.55-.33a33.633 33.633 0 00-15.83.45 33.697 33.697 0 00-13.87 7.64v0a33.618 33.618 0 01-19.92 8.72c-7.42.62-14.83-1.25-21.08-5.3l-7.1-4.62" stroke="#000" stroke-width="20" stroke-miterlimit="10" stroke-linecap="round"/><path d="M1241.84 1486.32l-3.07 5.11c-1.83 3.05-4.03 6.86-6.55 9.37h-72.94c5.01-3.84 10.78-7.54 16.94-8.94a43.837 43.837 0 0118.7-.13l1.56.33c4.81 1.02 9.82.51 14.32-1.45 4.51-1.96 8.3-5.28 10.83-9.49l3.07-5.1c1.39-2.22 3.6-3.81 6.15-4.42a10.011 10.011 0 0112.01 7.22c.65 2.54.29 5.23-1.02 7.5z" fill="#000"/><path d="M281.5 1507c-4.833-16-14.829-54.4-4-63.5 12.5-10.5 26.5-19 18-47.5s4-40.5 14.5-48 13-25.5 7.5-42.5 6-33.5 20.5-38.5 16-28.5 15-37.5 0-34.5 22-35 23-25.5 24-33 8-25.5 27-19.5 22.5-14.5 24-22-.5-28 54-28 178.5-37 539.5 0c16 1.64 45.44 2.59 49.5 27 5.67 34.06 29.05 19.98 40 23.5 14 4.5 8.69 31.99 15 40.5 10 13.5 13.07 6.82 31 13.5 21.41 7.98-3.5 54 27 70 27.41 14.38 19.5 30.5 17 53s9 28 16 33.5 15.5 11.5 9 41.5-.79 31.71 15 47.5c18 18-1.5 32 1.5 65" stroke="#000" stroke-width="20"/><path d="M1084.5 1337c12.33 37 29.5 110.3 43.5 175.5m-646.5 0c.333-32.83 7.7-107.6 20.5-157" stroke="#000" stroke-width="20" stroke-linecap="round"/></g><defs><clipPath id="prefix__clip0_53_27517"><path fill="#fff" d="M0 0h1500v1500H0z"/></clipPath></defs>
      <g clip-path="url(#prefix__clip0_299_662)"><path d="M775 1185c231.41 0 419-168.12 419-375.5 0-207.383-187.59-375.5-419-375.5-231.407 0-419 168.117-419 375.5 0 207.38 187.593 375.5 419 375.5z" fill="#ABF"/><path d="M457.5 796c7.6 194 131.833 327.5 193 370l-130-55.5L438 1034l-57.5-89.5-27-106 11-104L394 662l45-82.5 83.5-69.5 109-54.182 28.5-1C569.452 513.314 451.119 633.132 457.5 796z" fill="#001647" fill-opacity=".2"/><path d="M775 1185c231.41 0 419-168.12 419-375.5 0-207.383-187.59-375.5-419-375.5-231.407 0-419 168.117-419 375.5 0 207.38 187.593 375.5 419 375.5z" stroke="#000" stroke-width="20"/></g><defs><clipPath id="prefix__clip0_299_662"><path fill="#fff" d="M0 0h1500v1500H0z"/></clipPath></defs>
      <g clip-path="url(#prefix__clip0_53_29315)"><path d="M764.05 841.24c31.336 0 56.74-25.404 56.74-56.74 0-31.337-25.404-56.74-56.74-56.74-31.337 0-56.74 25.403-56.74 56.74 0 31.336 25.403 56.74 56.74 56.74zM1048.19 841.24c31.34 0 56.74-25.404 56.74-56.74 0-31.337-25.4-56.74-56.74-56.74-31.34 0-56.74 25.403-56.74 56.74 0 31.336 25.4 56.74 56.74 56.74z" fill="#fff" stroke="#000" stroke-width="20" stroke-miterlimit="10"/><path d="M787.05 797.5c7.18 0 13-5.82 13-13s-5.82-13-13-13-13 5.82-13 13 5.82 13 13 13zM1071.19 797.5c7.18 0 13-5.82 13-13s-5.82-13-13-13-13 5.82-13 13 5.82 13 13 13z" fill="#000"/><path d="M1000.1 1063.55H831.28a5.495 5.495 0 01-5.5-5.5 89.318 89.318 0 0189.32-89.319h1.18a89.316 89.316 0 0163.158 26.161 89.312 89.312 0 0126.162 63.158c0 1.46-.58 2.86-1.61 3.89a5.503 5.503 0 01-3.89 1.61z" fill="#fff" stroke="#000" stroke-width="20" stroke-miterlimit="10"/></g><defs><clipPath id="prefix__clip0_53_29315"><path fill="#fff" d="M0 0h1500v1500H0z"/></clipPath></defs>
      <g clip-path="url(#clip0_53_27216)"> <path d="M1086 1008C1086 1050.53 1010.34 1085 917 1085C823.664 1085 748 1050.56 748 1008C748 965.443 823.664 931 917 931C1010.34 931 1086 965.474 1086 1008Z" fill="#AABBFF"/> <path opacity="0.4" d="M763.61 879.811C787.326 879.797 810.188 870.964 827.752 855.029C845.316 839.093 856.326 817.195 858.64 793.593C860.954 769.991 854.407 746.371 840.272 727.328C826.138 708.285 805.426 695.18 782.165 690.561C758.903 685.941 734.756 690.139 714.417 702.336C694.079 714.533 679.004 733.859 672.124 756.555C665.244 779.25 667.051 803.694 677.194 825.131C687.336 846.568 705.089 863.467 727 872.541C738.607 877.349 751.047 879.819 763.61 879.811Z" fill="white"/> <path d="M624.5 770L667.5 768.5L669.5 804.5L626.5 802.5L624.5 770Z" fill="#FFBF44"/> <path d="M763.589 879.811C816.36 879.811 859.139 837.032 859.139 784.261C859.139 731.49 816.36 688.711 763.589 688.711C710.818 688.711 668.039 731.49 668.039 784.261C668.039 837.032 710.818 879.811 763.589 879.811Z" stroke="black" stroke-width="20" stroke-miterlimit="10"/> <path d="M667.999 768.289H638.999C634.188 768.289 629.574 770.2 626.172 773.602C622.771 777.004 620.859 781.618 620.859 786.429C620.859 788.811 621.329 791.17 622.24 793.371C623.152 795.572 624.488 797.572 626.172 799.256C627.857 800.94 629.857 802.277 632.057 803.188C634.258 804.1 636.617 804.569 638.999 804.569H667.999" stroke="black" stroke-width="20" stroke-miterlimit="10"/> <path d="M568 978.311L610 935.311C614.376 930.829 617.76 925.475 619.931 919.599C622.101 913.723 623.011 907.455 622.599 901.204C622.188 894.953 620.465 888.859 617.544 883.317C614.622 877.776 610.566 872.912 605.64 869.041V869.041C600.186 864.759 595.806 859.263 592.847 852.992C589.888 846.721 588.431 839.846 588.594 832.913C588.756 825.981 590.532 819.181 593.781 813.055C597.03 806.929 601.662 801.645 607.31 797.621L619.14 789.191" stroke="black" stroke-width="20" stroke-miterlimit="10" stroke-linecap="round"/> <path d="M829 959L789.5 985L804 997H829C834.5 997 853 1000.5 864.5 1001C876 1001.5 877 997 883 997C889 997 896 990 898.5 989C900.5 988.2 904.667 982.667 906.5 980L918.5 971.5C919.667 972.833 922.6 975.5 925 975.5C928 975.5 929 981.5 933 985C937 988.5 958.5 994.5 967 997C973.8 999 978.5 997.833 980 997H1012C1014.5 997 1023 997.5 1023 997C1023 996.5 1031 994.5 1035.5 994.5H1046V985C1043.5 982.5 1037.9 977.1 1035.5 975.5C1032.5 973.5 1027.5 969 1023 965.5C1018.5 962 1012 955.5 1007 951.5C1003 948.3 1000.67 945.833 1000 945L989 933.5L977.5 921.5L971 916.5L955 913.5L929 927.5L906.5 930L892 916.5H877L853 927.5L829 959Z" fill="white"/> <path d="M859.5 954.5C848.7 973.3 829.667 989.333 821.5 995L784 986.5L793 978L833.5 952C836 944.167 845.4 926.9 863 920.5C880.6 914.1 894.667 923.167 899.5 928.5C884 924 873 931 859.5 954.5Z" fill="#001647" fill-opacity="0.2"/> <path d="M943 960C939.4 936.8 956.833 923 966 919L958 913.5C942.833 915.833 914 927.8 920 957C926 986.2 968.5 997.5 989 999.5C975.167 996 946.6 983.2 943 960Z" fill="#001647" fill-opacity="0.2"/> <path d="M1086 1008C1086 1050.53 1010.34 1085 917 1085C823.664 1085 748 1050.56 748 1008C748 965.443 823.664 931 917 931C1010.34 931 1086 965.474 1086 1008Z" fill="#AABBFF"/> <path opacity="0.5" d="M689.63 721.059C689.63 721.059 688.76 700.969 734.18 694.859L818.91 861.699C818.91 861.699 803.19 880.039 769.91 879.469L689.63 721.059Z" fill="white"/> <path opacity="0.5" d="M749.001 692.238C749.001 692.238 750.831 691.898 766.361 681.238L841.481 835.848C841.481 835.848 840.331 846.208 827.621 849.128L749.001 692.238Z" fill="white"/> <path d="M829 959L789.5 985L804 997H829C834.5 997 853 1000.5 864.5 1001C876 1001.5 877 997 883 997C889 997 896 990 898.5 989C900.5 988.2 904.667 982.667 906.5 980L918.5 971.5C919.667 972.833 922.6 975.5 925 975.5C928 975.5 929 981.5 933 985C937 988.5 958.5 994.5 967 997C973.8 999 978.5 997.833 980 997H1012C1014.5 997 1023 997.5 1023 997C1023 996.5 1031 994.5 1035.5 994.5H1046V985C1043.5 982.5 1037.9 977.1 1035.5 975.5C1032.5 973.5 1027.5 969 1023 965.5C1018.5 962 1012 955.5 1007 951.5C1003 948.3 1000.67 945.833 1000 945L989 933.5L977.5 921.5L971 916.5L955 913.5L929 927.5L906.5 930L892 916.5H877L853 927.5L829 959Z" fill="white"/> <path d="M859.5 954.5C848.7 973.3 829.667 989.333 821.5 995L784 986.5L793 978L833.5 952C836 944.167 845.4 926.9 863 920.5C880.6 914.1 894.667 923.167 899.5 928.5C884 924 873 931 859.5 954.5Z" fill="#001647" fill-opacity="0.2"/> <path d="M943 960C939.4 936.8 956.833 923 966 919L958 913.5C942.833 915.833 914 927.8 920 957C926 986.2 968.5 997.5 989 999.5C975.167 996 946.6 983.2 943 960Z" fill="#001647" fill-opacity="0.2"/> <path d="M1052.26 992.431C1025.86 1000.33 958.48 1015.62 927.1 977.73C912.19 959.73 916.1 932.58 936.1 920.41C943.021 916.179 950.988 913.969 959.1 914.031C974.5 914.031 984.92 924.351 991.69 935.531C1003.52 955.352 1021.3 970.937 1042.5 980.071L1052.7 984.391C1053.51 984.734 1054.2 985.319 1054.66 986.066C1055.13 986.813 1055.35 987.686 1055.3 988.565C1055.26 989.444 1054.94 990.287 1054.39 990.979C1053.85 991.67 1053.1 992.177 1052.26 992.431V992.431Z" stroke="black" stroke-width="20" stroke-miterlimit="10" stroke-linecap="round"/> <path d="M783.87 992.43C810.27 1000.33 877.65 1015.62 909.04 977.73C923.94 959.73 920.04 932.58 900.04 920.41C893.111 916.161 885.129 913.94 877 914C861.6 914 851.18 924.32 844.41 935.5C832.578 955.319 814.798 970.905 793.6 980.04L783.39 984.36C782.57 984.702 781.876 985.29 781.405 986.044C780.934 986.797 780.71 987.679 780.762 988.566C780.815 989.453 781.143 990.302 781.7 990.994C782.257 991.686 783.015 992.188 783.87 992.43Z" stroke="black" stroke-width="20" stroke-miterlimit="10" stroke-linecap="round"/> <path d="M624.5 770L667.5 768.5L669.5 804.5L626.5 802.5L624.5 770Z" fill="#FFBF44"/> <path d="M646 802C640.8 791.6 643.833 777.667 646 772C638 768.167 622.1 764.8 622.5 782C622.9 799.2 638.333 802.5 646 802Z" fill="#001647" fill-opacity="0.2"/> <path d="M763.589 879.811C816.36 879.811 859.139 837.032 859.139 784.261C859.139 731.49 816.36 688.711 763.589 688.711C710.818 688.711 668.039 731.49 668.039 784.261C668.039 837.032 710.818 879.811 763.589 879.811Z" stroke="black" stroke-width="20" stroke-miterlimit="10"/> <path d="M667.999 768.289H638.999C634.188 768.289 629.574 770.2 626.172 773.602C622.771 777.004 620.859 781.618 620.859 786.429C620.859 788.811 621.329 791.17 622.24 793.371C623.152 795.572 624.488 797.572 626.172 799.256C627.857 800.94 629.857 802.277 632.057 803.188C634.258 804.1 636.617 804.569 638.999 804.569H667.999" stroke="black" stroke-width="20" stroke-miterlimit="10"/> <path d="M568 978.311L610 935.311C614.376 930.829 617.76 925.475 619.931 919.599C622.101 913.723 623.011 907.455 622.599 901.204C622.188 894.953 620.465 888.859 617.544 883.317C614.622 877.776 610.566 872.912 605.64 869.041V869.041C600.186 864.759 595.806 859.263 592.847 852.992C589.888 846.721 588.431 839.846 588.594 832.913C588.756 825.981 590.532 819.181 593.781 813.055C597.03 806.929 601.662 801.645 607.31 797.621L619.14 789.191" stroke="black" stroke-width="20" stroke-miterlimit="10" stroke-linecap="round"/> </g> <defs> <clipPath id="clip0_53_27216"> <rect width="1500" height="1500" fill="white"/> </clipPath> </defs>
      <g clip-path="url(#prefix__clip0_53_25838)"><path d="M661.719 466.272s.681-50.314 11.212-50.049c10.53.266 30.241-4.165 30.241-4.165l31.002 15.989 25.638-5.424 28.99-24.747 27.071-1.791 27.883 14.121 15.446 18.681 23.411.145 50.96-13.954 24.276 23.68-19.232 52.574-44.507-21.369-17.617-6.041-23.175-7.036-28.05-1.943-32.388-.112-55.638 3.68-50.45 8.949-25.073-1.188z" fill="#97A5DE"/><path d="M718.506 479.214s19.322 40.453 64.014 34.31c44.692-6.143 83.522-32.583 83.522-32.583l10.406-17.065-81.463-14.775-84.096 14.041s-8.664 11.898 7.617 16.072z" fill="#7985B4"/><path d="M662.843 469.488s-13.534-58.554 30.087-60.287c15.493-.614 25.434 4.992 32.226 12.21 13.894 14.755 29.392 7.707 38.346-2.386 11.842-13.391 27.482-26.021 44.854-27.17 20.226-1.338 34.215 14.393 42.889 29.474 6.094 10.621 21.799 13.651 33.204 6.683 11.953-7.315 28.35-12.9 48.081-8.683 42.964 9.245 6.064 69.091 6.064 69.091" stroke="#000" stroke-width="18.1" stroke-miterlimit="10" stroke-linecap="round"/><path d="M630.048 507.634S655.324 462.566 681.5 468c40.502 8.395 74.399 69.733 74.399 69.733M800.818 537.268s38.761-65.501 93.251-67.301c54.49-1.801 48.429 57.93 48.429 57.93M682 468s137.209-40.275 226.409 2.982M736.796 506.5s35.103 14.655 86.489 1.675" stroke="#000" stroke-width="20" stroke-miterlimit="10" stroke-linecap="round"/><path d="M537 566.5l4.5 45.5-4.5 67-29.5 50 29.5 7 27.5-38 9.5-97.5-14-34h-23z" fill="#ABF"/><path d="M1096.5 555s54 51 77 115l58.48-66.81s45.11-72.74 39.35-142c-5.76-69.26-13.47-83.1-13.47-83.1s-21-3.61-33.69 35.81c-12.69 39.42-78.11 109.31-78.11 109.31L1096.5 555zM540 655c-4 36.8-22.333 64.333-31 73.5L422 702c-20.167-14.5-67.5-51.7-95.5-84.5s-44.667-101.667-49.5-132c-.833-25.5-.6-82.8 7-108 7.6-25.2 24.5 7.5 32 27l45.5 81L456 551l77 18.5c4 13.166 11 48.7 7 85.5z" fill="#fff"/><path d="M426.5 610c-38.4-28-67.333-103-77-137l-44-98.5-11.5-7-20.5 92 7 72 55 102L434 699l106 34c8.167-5.333 25.4-21 29-41 4.5-25-83.5-38.979-142.5-82zM1127.84 599.154L1095.5 558.5 1121 544l43-39.5 39.5-53L1231 389l19-7c-16 124.5-98.1 207.905-106 216.5-3.82 4.162-7.09 5.329-9.51 5.317-2.84-.015-4.88-2.439-6.65-4.663z" fill="#001647" fill-opacity=".2"/><path d="M522.531 565.278c-35.66.82-156.38-10-211.51-187.18-4.16-13.34-23.35-12.45-26.16 1.24-18.66 90.92-25.71 281 216.65 346.36a12.997 12.997 0 0013.12-3.94c13.26-15 42.71-60 20.83-146.74a13.007 13.007 0 00-4.764-7.128 13.006 13.006 0 00-8.166-2.612v0zM1088.35 554.34c47.82-17.13 109.36-60 145.11-165 5.54-16.29 29.23-14.41 32.17 2.54 13.21 76.23 21.41 205.23-99.36 285.37" stroke="#000" stroke-width="20" stroke-miterlimit="10"/><path d="M501.51 725.7l25.83 5.69c7.18 1.58 15-.49 19.55-6.27 7.33-9.33 9.28-11.36 16.91-31.69M522.529 565.281h20.77c11.89 0 19.69 4 23.79 20.43 7.6 30.46 5.56 50.37 5.56 50.37" stroke="#000" stroke-width="20" stroke-miterlimit="10" stroke-linecap="round"/></g><defs><clipPath id="prefix__clip0_53_25838"><path fill="#fff" d="M0 0h1500v1500H0z"/></clipPath></defs>
      
    </g>
    </svg>