<svg
      xmlns="http://www.w3.org/2000/svg"
      preserveAspectRatio="xMidYMin meet"
      fill="none"
      viewBox="0 0 1500 1500"
    >
      <g>
      <path fill="url(#prefix__paint0_linear_53_30462)" d="M0 0h1500v1500H0z"/><defs><linearGradient id="prefix__paint0_linear_53_30462" x1="0" y1="0" x2="1500" y2="1500" gradientUnits="userSpaceOnUse"><stop stop-color="#FFC4F6"/><stop offset="1" stop-color="#FF3DB1"/></linearGradient></defs>
      <g clip-path="url(#a)"><path fill="#99C4CB" d="M1263 1509H289l4-75 22-108 15-60 31-63 50-79s46-15 111-43c64-28 204-38 204-38s196-6 350 54c153 59 187 412 187 412Z"/><path fill="#001647" fill-opacity=".2" d="M500 1214a430 430 0 0 0-113 311l-100-13c-2-111 39-248 60-302l39-53 16-20 66-43c150-60 294-55 348-45-63 13-215 65-316 165Z"/><path fill="#000" d="M681 1405v-1 18-17Z"/><path fill="#97A5DE" d="M762 1362h-1 1Z"/><path stroke="#000" stroke-linecap="round" stroke-width="20" d="M290 1513c-6-102 31-323 140-398 159-109 617-87 707 26 64 81 99 222 132 371m-184-175c12 37 29 110 43 176m-646 0c0-33 7-108 20-157"/><path fill="#000" d="M949 1410c2 67-72 102-125 64l-13-11h-1c-9 11-21 20-35 24-48 15-101-29-94-80 3-30 26-53 53-60-11-64 54-104 110-71a80 80 0 0 1 32 50c39 9 70 33 73 84Z"/><path fill="#97A5DE" fill-rule="evenodd" d="m815 1279 1 1 8 2a60 60 0 0 1 27 23 58 58 0 0 1 9 20l-1 1h-2l-5 1a67 67 0 0 0-18 4 74 74 0 0 0-35 29l-1 3-1 1-1-1a61 61 0 0 0-12-8 84 84 0 0 0-26-9h-6v-1h-1v-4h-1v-17a47 47 0 0 1 6-18 51 51 0 0 1 41-28h6l6 1a38 38 0 0 1 6 1v-1Zm65 65h1a74 74 0 0 1 32 18 63 63 0 0 1 12 16 69 69 0 0 1 9 25v16a60 60 0 0 1-55 54h-11a51 51 0 0 1-13-2 72 72 0 0 1-34-21v-1h-1v-1l-1-1-1-1h1v-1a72 72 0 0 0 4-19v-13l-1-2a66 66 0 0 0-3-15 77 77 0 0 0-7-14l-3-5c-1 0-1 0 0 0v-2l1-2a52 52 0 0 1 11-14 65 65 0 0 1 22-13 62 62 0 0 1 23-4h6a58 58 0 0 1 8 2Zm-107 23 12 8a59 59 0 0 1 18 24 49 49 0 0 1 4 14v14l-2 7a51 51 0 0 1-43 39h-13l-5-1a55 55 0 0 1-19-7l-8-6-5-4a59 59 0 0 1-14-24l-1-2v-1l-1-7a60 60 0 0 1 0-18 58 58 0 0 1 6-16 55 55 0 0 1 19-19 49 49 0 0 1 16-6h5a66 66 0 0 1 11 0l11 1 9 4Z" clip-rule="evenodd"/><path fill="#000" d="M874 1415a22 22 0 0 1 17 8 22 22 0 0 1 6 12v5l-1 6-5 7-9 5-3 1h-2c-4 0-8-1-11-3a23 23 0 0 1-12-18c-1-4 0-7 1-10 2-5 5-8 10-11l7-2h2ZM749 1418c0 4-1 8-3 11s-5 6-8 7c-3 2-5 3-8 3a23 23 0 0 1-22-11l-2-6-1-5a20 20 0 0 1 18-21l5-1 6 2a23 23 0 0 1 15 21Z"/><path fill="#7985B4" d="M876 1446c-3 0-5-1-7-3s-3-3-3-6a8 8 0 0 1 7-9c3 0 5 0 7 2 2 1 3 3 3 5 2 4 0 8-3 10l-4 1ZM735 1418c0 3-1 5-3 7l-6 1c-3 0-5-2-6-4l-2-5a8 8 0 0 1 6-8c4 0 6 1 9 3l2 4v2Z"/></g><defs><clipPath id="a"><path fill="#fff" d="M0 0h1500v1500H0z"/></clipPath></defs>
      <g clip-path="url(#prefix__clip0_299_662)"><path d="M775 1185c231.41 0 419-168.12 419-375.5 0-207.383-187.59-375.5-419-375.5-231.407 0-419 168.117-419 375.5 0 207.38 187.593 375.5 419 375.5z" fill="#ABF"/><path d="M457.5 796c7.6 194 131.833 327.5 193 370l-130-55.5L438 1034l-57.5-89.5-27-106 11-104L394 662l45-82.5 83.5-69.5 109-54.182 28.5-1C569.452 513.314 451.119 633.132 457.5 796z" fill="#001647" fill-opacity=".2"/><path d="M775 1185c231.41 0 419-168.12 419-375.5 0-207.383-187.59-375.5-419-375.5-231.407 0-419 168.117-419 375.5 0 207.38 187.593 375.5 419 375.5z" stroke="#000" stroke-width="20"/></g><defs><clipPath id="prefix__clip0_299_662"><path fill="#fff" d="M0 0h1500v1500H0z"/></clipPath></defs>
      <g clip-path="url(#prefix__clip0_53_29082)" stroke="#000" stroke-width="20" stroke-linecap="round"><path d="M844.63 1012.87h141.62M827.45 803.95l-27.11-16.78-29.02-17.97-36.82-22.79"/><path d="M802.81 799.069a29.91 29.91 0 11-31.49-29.87l29 18a29.701 29.701 0 012.49 11.87z" fill="#000"/><path d="M1067.45 746.41l-36.82 22.79-29.02 17.97-27.11 16.78"/><path d="M999.14 799.069c0 5.848 1.71 11.568 4.93 16.452a29.947 29.947 0 0013.17 11.027 29.898 29.898 0 0017.06 1.964 29.883 29.883 0 0015.33-7.744 29.875 29.875 0 007.48-32.043 29.859 29.859 0 00-10.31-13.732 29.918 29.918 0 00-16.17-5.794l-29 18a29.701 29.701 0 00-2.49 11.87z" fill="#000"/></g><defs><clipPath id="prefix__clip0_53_29082"><path fill="#fff" d="M0 0h1500v1500H0z"/></clipPath></defs>
      <g clip-path="url(#prefix__clip0_53_27270)"><path opacity=".5" d="M650.33 766.53s-2.59-63.6 77.41-64.6c80-1 105.45 2.24 105.45 2.24l29.55 17.76 13 59.31s1 26 0 31.36c-1 5.36-25.33 41.83-25.33 41.83s-41.37 47.5-90.52 42S666.499 849 666.499 849s-19.759-49.32-20.269-49.69c-.51-.37 4.1-32.78 4.1-32.78zM971.33 725.75s24.62-35.82 106.52-28.32c81.9 7.5 88.3 28.32 88.3 28.32s3.59-3.82 6.59 23.18 6 40 6 40-3 17-4 21-2.41 19-5.21 24-9 15.59-11.4 18.29c-2.4 2.7-11.94 13.84-20.67 20.77-8.73 6.93-28.37 15.28-30 16.61-1.63 1.33-10 8.21-17.32 7.26-7.32-.95-16.4 1.13-32.4.07-16-1.06-58.738-22.431-60.738-26.431s-15-2-20-18-9.902-20.409-11.582-23.989c-1.68-3.58-8.68-9.82-8.68-26.2s5-29.38 6-35.38c1-6 8.59-41.18 8.59-41.18z" fill="#A5F15C"/><path d="M681.5 720.5S687 709.23 739 703l97 169.89s-18 18.68-56.07 18.1L681.5 720.5zM756.58 700.12s-4.78 3.73 13-7.12L856 850.55s5.57 6.48-9 9.45l-90.42-159.88zM991.001 719.382s-1-21.754 50.999-28.382l97 180.731s-18 19.872-56.07 19.255l-91.929-171.604zM1059.58 700.12s-4.78 3.73 13.05-7.12L1159 850.55s5.57 6.48-9 9.45l-90.42-159.88z" fill="#fff" fill-opacity=".3"/><path d="M722.89 697.43h79.71a72.65 72.65 0 0172.65 72.65v13.85a112.499 112.499 0 01-112.5 112.5 112.499 112.499 0 01-112.5-112.5v-13.86a72.653 72.653 0 0172.64-72.64v0zM1028.89 697.43h79.71c19.27 0 37.75 7.654 51.37 21.278a72.63 72.63 0 0121.28 51.372v13.85a112.5 112.5 0 11-225 0v-13.86a72.653 72.653 0 0172.64-72.64v0zM874.6 792.43a68.918 68.918 0 0181.64 0M866 736h98M650.24 755.43l-266.5-60.5" stroke="#000" stroke-width="20" stroke-miterlimit="10"/></g><defs><clipPath id="prefix__clip0_53_27270"><path fill="#fff" d="M0 0h1500v1500H0z"/></clipPath></defs>
      <g clip-path="url(#a)"> <path fill="#3A3A3A" d="m500.5 506.5-86.7 95.8-7.6 25.9-16.5-13v21.3l-14.2 29-6.5 26-5.9 13.5v27.4l137.4-36 281.9-43.8 203.1-20.4 163.5 6.4-33.6-56.8-44.6-50.8-54.2-42.4-85.2-40.4-124-19L652 439.8l-151.5 66.8Z"/> <path fill="#000" fill-opacity=".2" d="M692 440c-99.6 64.8-158.8 200-176 259.5L358.5 723c5.8-27.8 34.4-102.3 102-177.5S643 443.8 692 440Z"/> <path stroke="#000" stroke-linecap="round" stroke-miterlimit="10" stroke-width="20" d="M365.8 728.5C438.7 708.9 866 599.4 1145 639a6.9 6.9 0 0 0 7.8-6.6c0-1.3-.3-2.6-1-3.7-30.3-49.7-159.9-231.8-425.3-200-291 35-357.4 241.3-369.3 291.5a6.7 6.7 0 0 0 1.9 6.5 6.9 6.9 0 0 0 6.5 1.7h0Z"/> </g> <defs> <clipPath id="a"> <path fill="#fff" d="M0 0h1500v1500H0z"/> </clipPath> </defs>
      
    </g>
    </svg>