<svg
      xmlns="http://www.w3.org/2000/svg"
      preserveAspectRatio="xMidYMin meet"
      fill="none"
      viewBox="0 0 1500 1500"
    >
      <g>
      <path fill="url(#prefix__paint0_linear_53_30460)" d="M0 0h1500v1500H0z"/><defs><linearGradient id="prefix__paint0_linear_53_30460" x1="0" y1="0" x2="1500" y2="1500" gradientUnits="userSpaceOnUse"><stop stop-color="#F1FFBA"/><stop offset="1" stop-color="#65DCBA"/></linearGradient></defs>
      <g clip-path="url(#prefix__clip0_53_28276)"><path d="M460.5 1094.5c-138.4 66.4-174 309.33-174.5 422.5h983.5c-12.5-72.17-53.2-244.1-116-354.5-78.5-138-520-151-693-68z" fill="#99C4CB"/><path d="M367 1440c-17.2-1.2-22.167 49.83-22.5 75.5l47.5-4.5c-1.167-23.17-7.8-69.8-25-71zM674 1276c-29.6 1.2-47 22.83-52 33.5l4.5 14 56 10.5c14.833-5 44.8-18.8 46-34 1.5-19-17.5-25.5-54.5-24zM554.5 1131.5c-49.2-6.8-55.167 21.17-52 36-2 6.83 1.9 23.3 33.5 34.5 39.5 14 138 33.5 166.5 31 22.8-2 24.833-33.83 23-49.5-36.5-14.5-121.8-45.2-171-52zM842 1417c-38.8 30.4-22.5 74.67-9.5 93l140.5 3.5c7.167-4 20-20.9 14-56.5-7.5-44.5-96.5-78-145-40zM1114.5 1293c-46.4-6.8-12.67-111.83 10-163.5l49 71.5c-.33 33.5-12.6 98.8-59 92z" fill="#ABF"/><path d="M386 1459l-1 47.5H284c2.833-48.17 12.8-156.6 30-205 17.2-48.4 43.5-97.5 54.5-116 29.667-31.67 103.4-103.3 123-98.5 19.6 4.8 34 29.67 36 38.5l-31.5 26 7.5 21 9 19c-95.2 77.2-124 210.5-126.5 267.5z" fill="#001647" fill-opacity=".2"/><path d="M705.5 1163c27.2 82.4-120.333 42.67-197.5 12.5l23.5 29.5c29.333 8.33 95.4 25.7 125 28.5 37 3.5 71-12 71.5-33 .4-16.8-14.833-32-22.5-37.5zM659.5 1315.5c-19.2.4-34.667-6.5-40-10l6.5 17c6.5 2.33 27.7 7.3 60.5 8.5 32.8 1.2 37.667-26.83 36-41-12.833-6-35.4-15.5-23-5.5 15.5 12.5-16 30.5-40 31zM960.5 1463.5c-4-32.4-41.667-52.83-60-59H920c14.667 5.83 47.3 23.2 60.5 46 13.2 22.8 1.5 49.5-6 60h-22c4.333-2.17 12-14.6 8-47zM1143 1161c16 61.6-21.67 112.67-40 126.5 53.5 10.5 70.33-58.33 68.5-87L1143 1161z" fill="#001647" fill-opacity=".2"/><path d="M289.501 1512.5c-6-101.5 31-323.03 140.5-398 158.5-108.51 616.499-87 706.499 26 64.91 81.5 99.5 222.5 132.5 371M1084.5 1337c12.33 37 29.5 110.3 43.5 175.5m-646.499 0c.333-32.83 7.7-107.6 20.5-157" stroke="#000" stroke-width="20" stroke-linecap="round"/><ellipse cx="675.502" cy="1303.28" rx="53.591" ry="29" transform="rotate(-4.687 675.502 1303.28)" stroke="#000" stroke-width="20"/><path d="M515.271 1188.27c-36.061-24.71-9.368-73.42 39.746-60.07l145.257 41.58c16.768 4.8 32.505 18.71 28.297 35.64-5.969 24.01-33.117 28.75-56 27.53-67.132-3.59-121.239-19.97-157.3-44.68zM393 1490c0 27.06-10.969 49-24.5 49s-24.5-21.94-24.5-49 10.969-49 24.5-49 24.5 21.94 24.5 49zM1173 1198.09c0 35.54-15.89 101.53-57.73 93.09-54.77-11.04-11.86-107.12 7.51-159.18" stroke="#000" stroke-width="20"/><ellipse cx="906" cy="1473" rx="87" ry="71" stroke="#000" stroke-width="20"/></g><defs><clipPath id="prefix__clip0_53_28276"><path fill="#fff" d="M0 0h1500v1500H0z"/></clipPath></defs>
      <g clip-path="url(#prefix__clip0_299_662)"><path d="M775 1185c231.41 0 419-168.12 419-375.5 0-207.383-187.59-375.5-419-375.5-231.407 0-419 168.117-419 375.5 0 207.38 187.593 375.5 419 375.5z" fill="#ABF"/><path d="M457.5 796c7.6 194 131.833 327.5 193 370l-130-55.5L438 1034l-57.5-89.5-27-106 11-104L394 662l45-82.5 83.5-69.5 109-54.182 28.5-1C569.452 513.314 451.119 633.132 457.5 796z" fill="#001647" fill-opacity=".2"/><path d="M775 1185c231.41 0 419-168.12 419-375.5 0-207.383-187.59-375.5-419-375.5-231.407 0-419 168.117-419 375.5 0 207.38 187.593 375.5 419 375.5z" stroke="#000" stroke-width="20"/></g><defs><clipPath id="prefix__clip0_299_662"><path fill="#fff" d="M0 0h1500v1500H0z"/></clipPath></defs>
      <g clip-path="url(#prefix__clip0_53_29287)"><path d="M764.05 841.24c31.336 0 56.74-25.404 56.74-56.74 0-31.337-25.404-56.74-56.74-56.74-31.337 0-56.74 25.403-56.74 56.74 0 31.336 25.403 56.74 56.74 56.74zM1048.19 841.24c31.34 0 56.74-25.404 56.74-56.74 0-31.337-25.4-56.74-56.74-56.74-31.34 0-56.74 25.403-56.74 56.74 0 31.336 25.4 56.74 56.74 56.74z" fill="#fff" stroke="#000" stroke-width="20" stroke-miterlimit="10"/><path d="M746.05 779.5c7.18 0 13-5.82 13-13s-5.82-13-13-13-13 5.82-13 13 5.82 13 13 13zM1066.19 779.5c7.18 0 13-5.82 13-13s-5.82-13-13-13-13 5.82-13 13 5.82 13 13 13z" fill="#000"/><path d="M831.28 968.721h168.82a5.495 5.495 0 015.5 5.5 89.318 89.318 0 01-89.32 89.319h-1.18a89.323 89.323 0 01-63.159-26.16 89.322 89.322 0 01-26.161-63.159 5.5 5.5 0 015.5-5.5z" fill="#fff" stroke="#000" stroke-width="20" stroke-miterlimit="10"/></g><defs><clipPath id="prefix__clip0_53_29287"><path fill="#fff" d="M0 0h1500v1500H0z"/></clipPath></defs>
      <g clip-path="url(#prefix__clip0_53_26750)"><path d="M367.752 776.001s-3.28 28.45-1 45.76c2.44 18.17 1-1 1-1l33.42-7 66.7-6.4 126.25-16-16.45-38.56-209.92 23.2z" fill="#CCD0DA"/><path d="M606.318 716.472c95.222-8.873 410.972-33.645 575.062 10.575 1.66.448 2.89 1.625 3.3 3.297 4.9 19.994 29.97 149.958-140.21 173.418-28.09 3.88-56.602-5.94-75.622-27-10.05-11.11-24.47-21-44-21-21.81 0-38.66 12.64-50.2 25.56a87.103 87.103 0 01-68.66 29c-69-2.89-188.31-28-221.92-162.37a25.404 25.404 0 0122.25-31.48z" fill="#53B6F9" stroke="#000" stroke-width="20" stroke-miterlimit="10"/><path d="M656 709.001l89-7 116.798 190.464-32.298 16.536-47.5 5-126-205zM766.638 704.27h23.144L891 865l-14 11-110.362-171.73zM961.076 699.264L1053 705l102.75 149.657L1127 880l-40.11 18.205-125.814-198.941zM1076.5 715h18l82 115-11 16-89-131z" fill="#fff" fill-opacity=".9"/><path d="M606.318 716.472c95.222-8.873 410.972-33.645 575.062 10.575 1.66.448 2.89 1.625 3.3 3.297 4.9 19.994 29.97 149.958-140.21 173.418-28.09 3.88-56.602-5.94-75.622-27-10.05-11.11-24.47-21-44-21-21.81 0-38.66 12.64-50.2 25.56a87.103 87.103 0 01-68.66 29c-69-2.89-188.31-28-221.92-162.37a25.404 25.404 0 0122.25-31.48zM584.08 748.012L356 777.042M598.32 795L356 822" stroke="#000" stroke-width="20" stroke-miterlimit="10"/></g><defs><clipPath id="prefix__clip0_53_26750"><path fill="#fff" d="M0 0h1500v1500H0z"/></clipPath></defs>
      <g clip-path="url(#prefix__clip0_53_26160)"><path d="M212 773.471l62.56-80.08 248.69-245.79 207.41-160.55 85.06 33.85L1046 466.461l168.39 125.54 88.91 84.23-251-11.24-138.55 2.32-274.98 22.69-295.45 51.61L212 773.471z" fill="#9E6740"/><path d="M352.75 743.09l-74.15 13.72-62.07 20.27 35.15 30.82 86.07 25.2 8.749-3.1c-1.999-58 6.251-86.91 6.251-86.91zM1173.57 667.26S1196 714 1201 766.18l21.85-5.56s45.37-27.13 45.6-27.81c.23-.68 29.22-34.81 30.55-36.61 1.33-1.8 8.87-23.65 8.87-23.65L1197.6 669l-24.03-1.74z" fill="#9E6740"/><path d="M596.5 459c-62.8 94.4-100.833 210.333-112 256.5L362 740l-5 48v48l-96-26-45-28.5v-12.757L204 771l128.5-144c43.667-42 152.9-146.1 240.5-226.5S712.833 292 728 288c-17.667 17.667-68.7 76.6-131.5 171zM1198.5 772l-32-100h44l65.5 6.5 27 5.5-39.5 49-65 39z" fill="#001647" fill-opacity=".2"/><path d="M354.75 837.1c-82.24-10.89-126-40-145.78-55.75-4.66-3.71-6.55-10.94-2.65-15.45C247.83 718 434.6 497.48 707.17 294.37c10.14-7.55 30.53-9 42.15-3.88C825.94 324.2 1145.06 509.6 1306 668.14c4.25 4.19 3.87 12.52.5 17.45-16.78 24.51-41 60.87-119.79 89.45" stroke="#000" stroke-width="20" stroke-miterlimit="10"/><path d="M200.5 775.09l66.41-15.37C608.583 674.233 954.947 646.683 1306 677.07" stroke="#000" stroke-width="20" stroke-miterlimit="10"/></g><defs><clipPath id="prefix__clip0_53_26160"><path fill="#fff" d="M0 0h1500v1500H0z"/></clipPath></defs>
      
    </g>
    </svg>