<svg
      xmlns="http://www.w3.org/2000/svg"
      preserveAspectRatio="xMidYMin meet"
      fill="none"
      viewBox="0 0 1500 1500"
    >
      <g>
      <path fill="url(#prefix__paint0_linear_53_30463)" d="M0 0h1500v1500H0z"/><defs><linearGradient id="prefix__paint0_linear_53_30463" x1="1500" y1="1500" x2="0" y2="0" gradientUnits="userSpaceOnUse"><stop stop-color="#FF5A5A"/><stop offset="1" stop-color="#FFBDBD"/></linearGradient></defs>
      <g clip-path="url(#prefix__clip0_53_28307)"><path d="M460.5 1094.5c-138.4 66.4-174 309.33-174.5 422.5h983.5c-12.5-72.17-53.2-244.1-116-354.5-78.5-138-520-151-693-68z" fill="#A760FF"/><path d="M367 1440c-17.2-1.2-22.167 49.83-22.5 75.5l47.5-4.5c-1.167-23.17-7.8-69.8-25-71zM674 1276c-29.6 1.2-47 22.83-52 33.5l4.5 14 56 10.5c14.833-5 44.8-18.8 46-34 1.5-19-17.5-25.5-54.5-24zM554.5 1131.5c-49.2-6.8-55.167 21.17-52 36-2 6.83 1.9 23.3 33.5 34.5 39.5 14 138 33.5 166.5 31 22.8-2 24.833-33.83 23-49.5-36.5-14.5-121.8-45.2-171-52zM842 1417c-38.8 30.4-22.5 74.67-9.5 93l140.5 3.5c7.167-4 20-20.9 14-56.5-7.5-44.5-96.5-78-145-40zM1114.5 1293c-46.4-6.8-12.67-111.83 10-163.5l49 71.5c-.33 33.5-12.6 98.8-59 92z" fill="#ABF"/><path d="M386 1459l-1 47.5H284c2.833-48.17 12.8-156.6 30-205 17.2-48.4 43.5-97.5 54.5-116 29.667-31.67 93.9-93.8 113.5-89 19.6 4.8 28.5 23.67 30.5 32.5l-16.5 22.5 7.5 21 9 19c-95.2 77.2-124 210.5-126.5 267.5z" fill="#001647" fill-opacity=".2"/><path d="M705.5 1163c27.2 82.4-120.333 42.67-197.5 12.5l23.5 29.5c29.333 8.33 95.4 25.7 125 28.5 37 3.5 71-12 71.5-33 .4-16.8-14.833-32-22.5-37.5zM659.5 1315.5c-19.2.4-34.667-6.5-40-10l6.5 17c6.5 2.33 27.7 7.3 60.5 8.5 32.8 1.2 37.667-26.83 36-41-12.833-6-35.4-15.5-23-5.5 15.5 12.5-16 30.5-40 31zM960.5 1463.5c-4-32.4-41.667-52.83-60-59H920c14.667 5.83 47.3 23.2 60.5 46 13.2 22.8 1.5 49.5-6 60h-22c4.333-2.17 12-14.6 8-47zM1143 1161c16 61.6-21.67 112.67-40 126.5 53.5 10.5 70.33-58.33 68.5-87L1143 1161z" fill="#001647" fill-opacity=".2"/><path d="M289.501 1512.5c-6-101.5 31-323.03 140.5-398 158.5-108.51 616.499-87 706.499 26 64.91 81.5 99.5 222.5 132.5 371M1084.5 1337c12.33 37 29.5 110.3 43.5 175.5m-646.499 0c.333-32.83 7.7-107.6 20.5-157" stroke="#000" stroke-width="20" stroke-linecap="round"/><ellipse cx="675.502" cy="1303.28" rx="53.591" ry="29" transform="rotate(-4.687 675.502 1303.28)" stroke="#000" stroke-width="20"/><path d="M515.271 1188.27c-36.061-24.71-9.368-73.42 39.746-60.07l145.257 41.58c16.768 4.8 32.505 18.71 28.297 35.64-5.969 24.01-33.117 28.75-56 27.53-67.132-3.59-121.239-19.97-157.3-44.68zM393 1490c0 27.06-10.969 49-24.5 49s-24.5-21.94-24.5-49 10.969-49 24.5-49 24.5 21.94 24.5 49zM1173 1198.09c0 35.54-15.89 101.53-57.73 93.09-54.77-11.04-11.86-107.12 7.51-159.18" stroke="#000" stroke-width="20"/><ellipse cx="906" cy="1473" rx="87" ry="71" stroke="#000" stroke-width="20"/></g><defs><clipPath id="prefix__clip0_53_28307"><path fill="#fff" d="M0 0h1500v1500H0z"/></clipPath></defs>
      <g clip-path="url(#prefix__clip0_299_662)"><path d="M775 1185c231.41 0 419-168.12 419-375.5 0-207.383-187.59-375.5-419-375.5-231.407 0-419 168.117-419 375.5 0 207.38 187.593 375.5 419 375.5z" fill="#ABF"/><path d="M457.5 796c7.6 194 131.833 327.5 193 370l-130-55.5L438 1034l-57.5-89.5-27-106 11-104L394 662l45-82.5 83.5-69.5 109-54.182 28.5-1C569.452 513.314 451.119 633.132 457.5 796z" fill="#001647" fill-opacity=".2"/><path d="M775 1185c231.41 0 419-168.12 419-375.5 0-207.383-187.59-375.5-419-375.5-231.407 0-419 168.117-419 375.5 0 207.38 187.593 375.5 419 375.5z" stroke="#000" stroke-width="20"/></g><defs><clipPath id="prefix__clip0_299_662"><path fill="#fff" d="M0 0h1500v1500H0z"/></clipPath></defs>
      <g clip-path="url(#prefix__clip0_53_29315)"><path d="M764.05 841.24c31.336 0 56.74-25.404 56.74-56.74 0-31.337-25.404-56.74-56.74-56.74-31.337 0-56.74 25.403-56.74 56.74 0 31.336 25.403 56.74 56.74 56.74zM1048.19 841.24c31.34 0 56.74-25.404 56.74-56.74 0-31.337-25.4-56.74-56.74-56.74-31.34 0-56.74 25.403-56.74 56.74 0 31.336 25.4 56.74 56.74 56.74z" fill="#fff" stroke="#000" stroke-width="20" stroke-miterlimit="10"/><path d="M787.05 797.5c7.18 0 13-5.82 13-13s-5.82-13-13-13-13 5.82-13 13 5.82 13 13 13zM1071.19 797.5c7.18 0 13-5.82 13-13s-5.82-13-13-13-13 5.82-13 13 5.82 13 13 13z" fill="#000"/><path d="M1000.1 1063.55H831.28a5.495 5.495 0 01-5.5-5.5 89.318 89.318 0 0189.32-89.319h1.18a89.316 89.316 0 0163.158 26.161 89.312 89.312 0 0126.162 63.158c0 1.46-.58 2.86-1.61 3.89a5.503 5.503 0 01-3.89 1.61z" fill="#fff" stroke="#000" stroke-width="20" stroke-miterlimit="10"/></g><defs><clipPath id="prefix__clip0_53_29315"><path fill="#fff" d="M0 0h1500v1500H0z"/></clipPath></defs>
      <g clip-path="url(#prefix__clip0_53_26381)"><path d="M782.161 900.399a109.43 109.43 0 10.015-218.86 109.43 109.43 0 00-.015 218.86z" fill="#3A3A3A"/><path d="M686.995 740.005l34.151-44.094 126.928 188.178L788 903 686.995 740.005zM743.336 695.507l16.58-11.184 114.06 169.1-16.58 11.184z" fill="#fff" fill-opacity=".7"/><path d="M1079.07 895.077a109.42 109.42 0 0073.49-28.343 109.413 109.413 0 0035.42-70.355 109.405 109.405 0 00-21-75.915 109.438 109.438 0 00-144.16-28.68 109.435 109.435 0 00-42.666 140.649 109.423 109.423 0 0098.916 62.644z" fill="#3A3A3A"/><path d="M983.905 734.682l34.155-44.094 126.92 188.178-60.07 18.911-101.005-162.995zM1040.25 690.184L1056.83 679l114.06 169.1-16.58 11.184z" fill="#fff" fill-opacity=".7"/><path d="M1077.58 899.4c25.32-.01 49.85-8.799 69.41-24.869a109.412 109.412 0 0037.88-63.261 109.452 109.452 0 00-10.85-72.932 109.435 109.435 0 00-128.31-53.068 109.433 109.433 0 00-77.071 115.495 109.427 109.427 0 0031.571 66.635 109.447 109.447 0 0077.37 32v0zM782.161 899.399a109.43 109.43 0 10.015-218.86 109.43 109.43 0 00-.015 218.86zM671 790.5l-294-96.359M891.578 790h76.58" stroke="#000" stroke-width="20" stroke-miterlimit="10"/></g><defs><clipPath id="prefix__clip0_53_26381"><path fill="#fff" d="M0 0h1500v1500H0z"/></clipPath></defs>
      <g clip-path="url(#prefix__clip0_53_25042)"><path d="M358.07 724.24c-2.91 11.13-5.22 22.96-6.67 31.13a4.35 4.35 0 01-8.1 1.33 49.392 49.392 0 01-3.34-7.37c-3.4-9.62-6.2-21.84-8.84-26.76-2.64-4.92-1.51-14.46 0-22.09a151.869 151.869 0 002.43-18.36c.06-2.04-1.18-14.28 0-17.9.99-3.01 6.16-15.64 7.88-19.83a4.33 4.33 0 011.84-2.1l18.379-9.79 16.352-50.5 69-94.5 63-51.5c34.167-22.001 133.5-66.702 257.5-69.502 124-2.8 229.667 68.167 266.999 104l41.29 42.442c15.8 1.5 23.79 6.45 29.57 10.19 5.78 3.74 26.14 7.88 33.18 15.1 7.04 7.22 33.98 37.24 34.6 38.17.62.93 16.76 36.51 19.47 42.51.26.561.39 1.172.39 1.79v28.52c0 1.043-.38 2.05-1.06 2.84l-13.59 15.75c-.47.553-1.08.979-1.76 1.237a4.32 4.32 0 01-4.12-.569 4.35 4.35 0 01-1.36-1.668 339.426 339.426 0 00-21.14-38.48 16.32 16.32 0 00-5.9-5.549 16.263 16.263 0 00-7.84-2.021h-14.49L1002.8 627l-209.23 16.57h-.39l-277.24 47.09h-.23l-115.08 25.85a4.241 4.241 0 01-2.31-.11l-14.27-4.69a4.294 4.294 0 00-2.33-.11l-13.84 3.16a13.134 13.134 0 00-9.81 9.48z" fill="#FF6247"/><path d="M546.5 566.498c-3.2 4-8.333 83.333-10.5 122.5l-103 18c-12.5 2-41.3 6.9-56.5 10.5-15.2 3.6-22.667 26.833-24.5 38l-22.5-66.5 24-51c8-35.666 46.9-123.899 138.5-191.499s191.833-74.167 230.5-69c-88.8 56.8-145.667 132.667-163 163.5 148.8-49.6 387-55.667 487.5-52.5l18.5 20.499c-13.5.5-41.7 1.2-46.5 0-4.8-1.2-166 8.833-246 14-74.167 12.833-223.3 39.5-226.5 43.5z" fill="#001647" fill-opacity=".2"/><path d="M1167 681.262l15-14.51a49.208 49.208 0 0014.3-26.901 49.211 49.211 0 00-4.3-30.159c-13.24-26.85-46.46-57.08-62.15-71.35-15.69-14.27-35.56-24.08-56.77-25.16-310.93-15.72-565.58 56.9-686 99.09-51.8 18.15-81.49 79-30.2 162.16" stroke="#000" stroke-width="20"/><path d="M361.58 627.678s53.84-186.8 241.47-235.29c187.63-48.49 327.34-27.08 476.25 119.61M367.76 725.401s312.51-78.77 497.45-86.9c0 0 164.52-11.68 272.65-7.57M994.41 512s62.27 71.5 82.83 118M433.65 600.449s-24.72 70.15-15.18 119.17M542.64 569.789s-15.23 78-3.89 120.53M643.55 550c12.26 57.53 10.25 57.46 22 117.12M748.51 529.758s31.14 50 55 116.5M872.32 514.391s41.57 54.35 68.2 120.72" stroke="#000" stroke-width="20"/></g><defs><clipPath id="prefix__clip0_53_25042"><path fill="#fff" d="M0 0h1500v1500H0z"/></clipPath></defs>
      
    </g>
    </svg>