<svg
      xmlns="http://www.w3.org/2000/svg"
      preserveAspectRatio="xMidYMin meet"
      fill="none"
      viewBox="0 0 1500 1500"
    >
      <g>
      <path fill="url(#prefix__paint0_linear_53_28788)" d="M0 0h1500v1500H0z"/><defs><linearGradient id="prefix__paint0_linear_53_28788" x1="0" y1="0" x2="1500" y2="1500" gradientUnits="userSpaceOnUse"><stop stop-color="#DBE4E4"/><stop offset="1" stop-color="#A7BDBD"/></linearGradient></defs>
      <g clip-path="url(#prefix__prefix__clip0_53_27930)"><path d="M460.5 1094.5c-138.4 66.4-174 309.33-174.5 422.5h983.5c-12.5-72.17-53.2-244.1-116-354.5-78.5-138-520-151-693-68z" fill="#ABF"/><path d="M1122 1500H482.719s14.6-102.81 14.89-104.16c.16-.75 5.35-20.38 9.88-37.48 3.54-13.39 2.68-25.22 2.68-25.22l-3-41.2-13.59-80.17s-35.41-62.15-46.49-85.15c-1.163-2.27-3.185-8.61-4.06-11-.24-.75-.3-1.21-.16-1.35a56.197 56.197 0 017.23-4.17c4.75-2.53 11.27-5.85 17.94-9.21 14-7 29.51-13.16 29.51-13.16l.82.49L526 1080.5l85-22.5 22 68.5 27.999 47.96 5.58 5.39s-7.079 1.65 0 .09c.09.44.55 2.47 1.49 5.71l.18.63c.12.43.26.88.4 1.35 0 .12.07.23.11.35-6.759 1.13.19.64.29 1a.565.565 0 000 .13c3.006 9.48 15.138 18.57 20.31 27.07 13 21.59 36.75 47.51 81.14 73.38 1.44.84 2.904 1.68 4.39 2.52.468.49.811 1.08 1 1.73 1.46 3.51 3.32 11 4.65 11.2 0 0 40.23 23 40.26 23l.61.06c4.465.53 8.98.44 13.42-.26 32.63-5.36 34.42-46.34 49.23-59.56.21-.18.41-.37.61-.56 14.4-13.07 19.65-26.22 19.65-26.22l4-23.61 3.93-23 12.251-45.36 11.5-88 54.5 10.5 42 12.5 16.74 2.21.5-.32 1.59 1 .35.23 17.57 11.28 8.36 5.37-.11 4.47v.74l-6.93 171.5-.49 19.75 11.26 39.08 17.84 61.93L1122 1500z" fill="#4AEEB9"/><path d="M958.16 1333.32l12.2-23.4 30.36 34h17l-52-58.93-30.72 58.93h57.64l-20.12-22.55-6.24 12-8.12-.05z" fill="#fff"/><path d="M951 1066.5v18c-4 170.5-79.99 232.42-107.82 259.53a20.288 20.288 0 01-25.25 2.51C614 1227.5 601 1076 601 1076l-1.5-15" stroke="#fff" stroke-width="20" stroke-miterlimit="10" stroke-linecap="round"/><path d="M531.14 1371.41c-9.12 44.92-14.91 82.08-18.23 116.94L511.8 1500h-20.05c0-.31 0-.63.05-1l1.2-12.59c3.39-35.59 9.28-73.41 18.54-119 .08-.37.15-.75.22-1.13 9.84-49.47 15-145.34-55.75-245.36a399.48 399.48 0 00-4.19-5.81 9.682 9.682 0 01-.67-1 9.994 9.994 0 01-.944-7.28 10.03 10.03 0 014.284-5.97 9.98 9.98 0 017.203-1.42 9.958 9.958 0 016.237 3.87l1.16 1.59.5.69c1.35 1.85 2.66 3.7 3.95 5.55 74.31 106.23 68.17 208.23 57.6 260.27zM1111.83 1500h-20.25l-10.86-48.68c-7.71-34.55-15.38-65.35-23.46-94.17-16.34-58.81-20.97-119.9-17.63-180.85 1.88-33.39 6.34-57.43 8.73-68.45.89-4.09 1.49-6.38 1.58-6.7.18-.69.45-1.36.78-2a.139.139 0 010-.09 10.02 10.02 0 015.24-4.65c2.25-.87 4.74-.89 7-.07 2.27.82 4.16 2.44 5.34 4.54a10.01 10.01 0 011.04 6.93l-.12.5c0 .06-.39 1.48-1 4.12-.32 1.42-.7 3.2-1.13 5.32-.56 2.79-1.19 6.16-1.86 10.07a467.162 467.162 0 00-5.74 52.24c-3.02 56.71.89 113.54 15.51 168.41.47 1.76.96 3.53 1.45 5.3 6.65 23.69 13 48.7 19.34 76 0 .18.08.36.13.54 1.41 6.12 2.83 12.35 4.25 18.7l8.19 36.68c.06.3.13.6.19.89l3 13.29c.17.7.26 1.41.28 2.13zm-352.245 56.96c-10.237-9.39-16.514-22.76-18.832-40.12l-11.826-88.7c-2.465-18.59-.014-32.76 7.352-42.51 7.366-9.75 19.686-14.63 36.96-14.63 17.372 0 31.05 4.88 41.035 14.63 9.985 9.75 16.217 23.92 18.695 42.51l11.827 88.7c2.331 17.5-.378 30.91-8.13 40.23-7.751 9.32-20.004 13.97-36.76 13.94-16.609 0-30.049-4.69-40.321-14.05zm42.012-26.06a15.126 15.126 0 001.481-9.45l-12.919-96.92c-.756-5.63-1.985-9.95-3.665-12.92-1.681-2.97-4.527-4.45-8.487-4.45-3.959 0-6.302 1.48-7.173 4.45-.872 2.97-.862 7.29-.105 12.92l12.918 96.92c.406 3.44 1.75 6.71 3.886 9.45a9.315 9.315 0 003.274 2.9 9.228 9.228 0 004.236 1.1c1.37.04 2.724-.31 3.896-1.02a7.117 7.117 0 002.711-2.98h-.053zm100.239 35.65a47.845 47.845 0 01-18.779-13.13 39.217 39.217 0 01-9.211-21.01l-2.805-21h37.685l.515 3.88a57.03 57.03 0 003.896 15.55 8.915 8.915 0 003.46 4.26 8.96 8.96 0 005.3 1.45c4.274 0 7.121-1.18 8.56-3.55 1.438-2.37 1.848-5.9 1.218-10.63l-5.252-39.31a16.96 16.96 0 01-7.352 8.4 24.849 24.849 0 01-13.065 3.15c-10.671 0-19.221-2.13-25.649-6.4-6.427-4.27-11.325-10.58-14.693-18.92-3.403-8.4-6.018-19.45-7.846-33.14-2.801-20.88-.98-36.96 5.462-48.23 6.441-11.27 18.789-16.91 37.044-16.92 13.401 0 24.296 2.29 32.685 6.86a44.999 44.999 0 0119.199 20.57c4.426 9.1 7.611 21.01 9.558 35.71l7.069 53.04c2.702 20.27 3.609 36.23 2.72 47.88-.89 11.65-4.804 20.57-11.743 26.75-6.952 6.17-18.278 9.26-33.977 9.25a64.43 64.43 0 01-23.999-4.51zm19.704-120.57l-3.267-24.46c-1.267-9.6-5.181-14.4-11.742-14.4-4.117 0-6.53 1.64-7.237 4.91-.707 3.28-.57 8.58.41 15.89l2.101 16c1.4 10.67 5.156 16 11.269 16 6.904 0 9.726-4.65 8.466-13.94z" fill="#fff"/><path d="M485.5 1201.5c-85.6 92.8-105.334 241.67-104.5 304.5h-92.5l5-77.5 16.5-87 34-110 53-89.5 66.5-44 70-31 80-9.5 12 18c-11.839 5.79 10.003 11.89-2 18.86-41.935 24.34-81.989 53.15-100 67.14 31.5 56 43 144.5 23 243.5-9.101 45.05-11.5 101.17-10.5 125.5l-57-24.5c6-21.17 19.6-82.4 26-158 6.4-75.6-10.334-129.17-19.5-146.5z" fill="#001647" fill-opacity=".2"/><path d="M931.5 1061v10c0 163.5-67.83 223.11-97.03 257.41a7.965 7.965 0 01-5.183 2.75 7.977 7.977 0 01-5.667-1.52C783 1299.29 645 1217 620 1071l-2-13.5" stroke="#000" stroke-width="20" stroke-miterlimit="10" stroke-linecap="round"/><path d="M511.761 1366.3c0 .32 0 .66-.05 1-.22 2.89-14 61.77-19 132.69h-20v-.69a924.796 924.796 0 0119.51-134.6c.57-2.4 2.009-4.51 4.04-5.92a10.042 10.042 0 017.96-1.51c1.105.24 2.181.61 3.21 1.08 3 1.4 4.44 3.71 4.33 7.95zM1132 1500h-20.2c-.55-2.72-1.65-8.14-3.2-15.47-.06-.29-.13-.59-.19-.89-2.91-13.76-7.3-33.87-12.44-55.38 0-.18-.09-.36-.13-.54-6.23-26-13.56-54-20.69-75.23a9.999 9.999 0 016.19-12.63h.1l.39-.11c2.48-.72 5.13-.46 7.42.74a9.996 9.996 0 014.85 5.66c18.25 54.24 36.92 148 37.71 151.94.12.63.19 1.27.19 1.91z" fill="#000"/><path d="M443.891 1118.21s87.82 94.17 57 252.68m583.569-22.07c-32.76-108.75-9.81-228.49-9.81-228.49l4.35-17.83" stroke="#000" stroke-width="20" stroke-miterlimit="10" stroke-linecap="round"/><path d="M289.5 1512.5c-6-101.5 31-323.03 140.5-398 158.5-108.51 616.5-87 706.5 26 64.91 81.5 99.5 222.5 132.5 371" stroke="#000" stroke-width="20" stroke-linecap="round"/></g><defs><clipPath id="prefix__prefix__clip0_53_27930"><path fill="#fff" d="M0 0h1500v1500H0z"/></clipPath></defs>
      <g clip-path="url(#prefix__clip0_299_662)"><path d="M775 1185c231.41 0 419-168.12 419-375.5 0-207.383-187.59-375.5-419-375.5-231.407 0-419 168.117-419 375.5 0 207.38 187.593 375.5 419 375.5z" fill="#ABF"/><path d="M457.5 796c7.6 194 131.833 327.5 193 370l-130-55.5L438 1034l-57.5-89.5-27-106 11-104L394 662l45-82.5 83.5-69.5 109-54.182 28.5-1C569.452 513.314 451.119 633.132 457.5 796z" fill="#001647" fill-opacity=".2"/><path d="M775 1185c231.41 0 419-168.12 419-375.5 0-207.383-187.59-375.5-419-375.5-231.407 0-419 168.117-419 375.5 0 207.38 187.593 375.5 419 375.5z" stroke="#000" stroke-width="20"/></g><defs><clipPath id="prefix__clip0_299_662"><path fill="#fff" d="M0 0h1500v1500H0z"/></clipPath></defs>
      <g clip-path="url(#prefix__clip0_53_29261)"><path d="M761.369 722.219a74.743 74.743 0 00-74.67 74.67 10.671 10.671 0 0021.33 0 53.344 53.344 0 0191.31-38.188 53.341 53.341 0 0115.36 38.188 31.999 31.999 0 01-54.627 22.627 32 32 0 01-9.373-22.627c-.041-1.427.2-2.847.71-4.18a10.68 10.68 0 012.3-3.58 10.659 10.659 0 0117.6 3.58 10.64 10.64 0 01.72 4.18 10.67 10.67 0 1021.34 0 32.003 32.003 0 00-9.372-22.628 32.003 32.003 0 00-45.255 0 32.004 32.004 0 00-9.373 22.628 53.333 53.333 0 0053.33 53.33 53.33 53.33 0 0053.33-53.33 74.738 74.738 0 00-74.66-74.67zM1048.37 722.219a74.743 74.743 0 00-74.671 74.67 10.671 10.671 0 0021.33 0 53.354 53.354 0 013.848-20.636 53.313 53.313 0 0111.513-17.552 53.28 53.28 0 0117.39-11.752 53.352 53.352 0 0141.17 0 53.385 53.385 0 0117.39 11.752 53.414 53.414 0 0111.51 17.552 53.227 53.227 0 013.85 20.636 32 32 0 01-32 32 32 32 0 01-32-32c-.06-1.789.34-3.563 1.15-5.159.81-1.596 2-2.963 3.48-3.974a10.664 10.664 0 0110.19-1.017c1.32.557 2.51 1.376 3.51 2.407a10.68 10.68 0 012.28 3.593c.52 1.331.76 2.752.72 4.18 0 2.83 1.12 5.544 3.12 7.545a10.697 10.697 0 007.55 3.125c2.83 0 5.54-1.124 7.54-3.125a10.637 10.637 0 003.13-7.545 31.999 31.999 0 00-32-32 31.999 31.999 0 00-32 32 53.337 53.337 0 0015.62 37.71 53.336 53.336 0 0037.71 15.62c14.14 0 27.71-5.619 37.71-15.62a53.337 53.337 0 0015.62-37.71 74.736 74.736 0 00-21.89-52.776 74.731 74.731 0 00-52.77-21.894v-.03z" fill="#000"/><path d="M912.5 1068.5c32.585 0 59-26.42 59-59 0-32.585-26.415-59-59-59s-59 26.415-59 59c0 32.58 26.415 59 59 59z" fill="#fff" stroke="#000" stroke-width="20" stroke-miterlimit="10"/></g><defs><clipPath id="prefix__clip0_53_29261"><path fill="#fff" d="M0 0h1500v1500H0z"/></clipPath></defs>
      <g clip-path="url(#prefix__clip0_53_26967)"><path d="M732.51 716.382a.135.135 0 00.059.011.129.129 0 00.057-.019.113.113 0 00.04-.044.108.108 0 00.014-.058c-.06-3.15 0-44.08 43-42 0 0 36.07 2.11 40.57 41.22a.12.12 0 00.17.1c2.54-1.13 38.11-16.18 57.7 13.29 19.59 29.47-10.28 56.51-12.25 58.22a.13.13 0 000 .18c2 1.86 33.67 28.35 16.711 57.94-16.96 29.59-54 16.2-56.56 15a.111.111 0 00-.161.09c-.42 2.79-6.86 41.59-40.73 43-33.87 1.41-44.86-36.09-45.57-38.67a.111.111 0 00-.022-.045.117.117 0 00-.04-.03.141.141 0 00-.049-.009.112.112 0 00-.048.014c-2.36 1.15-36.651 17.15-57.701-14.5-21.05-31.65 7.131-55.44 9.141-57.07a.116.116 0 00.034-.039.113.113 0 00-.034-.141c-2.05-1.74-31.9-28-11-61.24 19.98-31.71 53.949-16.48 56.669-15.2zM1031.34 715.128c.02.011.04.018.06.018.02.001.04-.005.06-.015.01-.01.03-.026.04-.044a.117.117 0 00.01-.059c0-3.16 1.3-44.07 44.21-40.72 0 0 36 3.16 39.35 42.39 0 .018.01.036.02.051s.02.028.04.038c.01.01.03.016.05.018.01.002.03-.001.05-.007 2.58-1 38.57-15.06 57.3 15 18.73 30.06-11.93 56.18-14 57.84a.29.29 0 00-.03.041c-.01.015-.01.032-.01.049s0 .034.01.05c.01.015.02.029.03.04 1.92 1.91 32.83 29.31 15 58.41-17.83 29.1-54.44 14.61-57 13.32-.02-.01-.03-.016-.05-.018a.14.14 0 00-.06.01c-.01.008-.03.021-.04.036a.098.098 0 00-.02.052c-.5 2.78-8.07 41.37-42 41.82-33.93.45-43.78-37.39-44.42-40 0-.016-.01-.031-.02-.044-.01-.013-.03-.024-.04-.032-.02-.007-.03-.011-.05-.012a.125.125 0 00-.05.008c-2.39 1.09-37.13 16.08-57.25-16.17-20.12-32.25 8.75-55.21 10.8-56.78a.107.107 0 00.046-.09.116.116 0 00-.012-.051.116.116 0 00-.034-.039c-2-1.8-31.07-28.87-9.18-61.53 21-31.16 54.51-14.94 57.19-13.58z" fill="#53B6F9" stroke="#000" stroke-width="20" stroke-miterlimit="10"/><circle cx="1072" cy="789" r="54" fill="#FFBF44" stroke="#000" stroke-width="20"/><circle cx="776" cy="789" r="54" fill="#FFBF44" stroke="#000" stroke-width="20"/><path d="M753.5 733.5c-4.8-37.2 17-50.167 28.5-52-14.8-4.4-31.833 3.5-38.5 8-2.333 3.5-7.5 11.3-9.5 14.5-2.5 4-4 8.5-5.5 9s-21.5 2-22.5 2-26 10.5-26.5 11.5-10 25-10 26c0 .8 4.667 29.333 7 43.5-2.833 6.666-9 21.9-11 29.5-2 7.6 20.5 30.5 32 41l38 2.5 37.5 33.5c19 .5 49.4-.3 19-7.5s-33.667-34.667-31.5-47.5c-1.333-2.834-4.4-8.8-6-10-2-1.5-16.5-17-17-18s-7-11.5-7.5-34c-.4-18 15.5-42.167 23.5-52zM1051.13 733.5c-4.8-37.2 17-50.167 28.5-52-14.8-4.4-35.84 3.5-42.51 8-2.33 3.5-7.5 11.3-9.5 14.5-2.5 4-4 8.5-5.5 9s-21.5 2-22.495 2c-1 0-26 10.5-26.5 11.5s-10 25-10 26c0 .8 4.667 29.333 7 43.5-2.833 6.666-9 21.9-11 29.5-2 7.6 20.5 30.5 32 41l37.995 2.5 37.5 33.5c19 .5 54.4-.3 24-7.5s-33.66-34.667-31.5-47.5c-1.33-2.834-9.4-8.8-11-10-2-1.5-16.5-17-17-18s-7-11.5-7.5-34c-.4-18 19.51-42.167 27.51-52z" fill="#001647" fill-opacity=".2"/><path d="M871.488 797.371s52.42-23.07 104.84 0M370.09 692.07L681 789.5" stroke="#000" stroke-width="20" stroke-miterlimit="10"/><path d="M732.51 716.382a.135.135 0 00.059.011.129.129 0 00.057-.019.113.113 0 00.04-.044.108.108 0 00.014-.058c-.06-3.15 0-44.08 43-42 0 0 36.07 2.11 40.57 41.22a.12.12 0 00.17.1c2.54-1.13 38.11-16.18 57.7 13.29 19.59 29.47-10.28 56.51-12.25 58.22a.13.13 0 000 .18c2 1.86 33.671 28.35 16.711 57.94-16.96 29.59-54 16.2-56.56 15a.111.111 0 00-.161.09c-.42 2.79-6.86 41.59-40.73 43-33.87 1.41-44.86-36.09-45.57-38.67a.111.111 0 00-.022-.045.117.117 0 00-.04-.03.141.141 0 00-.049-.009.112.112 0 00-.048.014c-2.36 1.15-36.651 17.15-57.701-14.5-21.05-31.65 7.131-55.44 9.141-57.07a.116.116 0 00.034-.039.113.113 0 00-.034-.141c-2.05-1.74-31.9-28-11-61.24 19.98-31.71 53.949-16.48 56.669-15.2zM1031.34 715.128c.02.011.04.018.06.018.02.001.04-.005.06-.015.01-.01.03-.026.04-.044a.117.117 0 00.01-.059c0-3.16 1.3-44.07 44.21-40.72 0 0 36 3.16 39.35 42.39 0 .018.01.036.02.051s.02.028.04.038c.01.01.03.016.05.018.01.002.03-.001.05-.007 2.58-1 38.57-15.06 57.3 15 18.73 30.06-11.93 56.18-14 57.84a.29.29 0 00-.03.041c-.01.015-.01.032-.01.049s0 .034.01.05c.01.015.02.029.03.04 1.92 1.91 32.83 29.31 15 58.41-17.83 29.1-54.44 14.61-57 13.32-.02-.01-.03-.016-.05-.018a.14.14 0 00-.06.01c-.01.008-.03.021-.04.036a.098.098 0 00-.02.052c-.5 2.78-8.07 41.37-42 41.82-33.93.45-43.78-37.39-44.42-40 0-.016-.01-.031-.02-.044-.01-.013-.03-.024-.04-.032-.02-.007-.03-.011-.05-.012a.125.125 0 00-.05.008c-2.39 1.09-37.13 16.08-57.25-16.17-20.12-32.25 8.75-55.21 10.8-56.78a.107.107 0 00.046-.09.116.116 0 00-.012-.051.116.116 0 00-.034-.039c-2-1.8-31.07-28.87-9.18-61.53 21-31.16 54.51-14.94 57.19-13.58z" stroke="#000" stroke-width="20" stroke-miterlimit="10"/><circle cx="776" cy="789" r="54" stroke="#000" stroke-width="20"/><circle cx="1072" cy="789" r="54" stroke="#000" stroke-width="20"/></g><defs><clipPath id="prefix__clip0_53_26967"><path fill="#fff" d="M0 0h1500v1500H0z"/></clipPath></defs>
      <g clip-path="url(#prefix__clip0_53_25216)"><path d="M661.719 466.274s.681-50.314 11.211-50.049c10.531.266 30.241-4.165 30.241-4.165l31.003 15.989 25.638-5.424 28.99-24.747 27.071-1.791 27.883 14.121 15.446 18.681 23.411.145 50.96-13.954 24.276 23.68-19.232 52.574-44.507-21.369-17.618-6.041-23.174-7.036-28.05-1.943-32.388-.112-55.638 3.68-50.45 8.949-25.073-1.188z" fill="#97A5DE"/><path d="M718.506 479.214s19.322 40.453 64.014 34.31c44.692-6.143 83.522-32.583 83.522-32.583l10.406-17.065-81.463-14.775-84.096 14.041s-8.664 11.898 7.617 16.072z" fill="#7985B4"/><path d="M662.843 469.488s-13.534-58.554 30.086-60.287c15.494-.614 25.435 4.992 32.227 12.21 13.894 14.755 29.392 7.707 38.346-2.386 11.842-13.391 27.482-26.021 44.854-27.17 20.226-1.338 34.215 14.393 42.889 29.474 6.094 10.621 21.799 13.651 33.204 6.683 11.953-7.315 28.35-12.9 48.081-8.683 42.964 9.245 6.064 69.091 6.064 69.091" stroke="#000" stroke-width="18.1" stroke-miterlimit="10" stroke-linecap="round"/><path d="M630.048 507.636s25.276-45.068 51.452-39.634c40.502 8.395 74.399 69.733 74.399 69.733M800.818 537.27s38.761-65.501 93.251-67.301c54.49-1.801 48.429 57.93 48.429 57.93M682 468s137.209-40.275 226.408 2.982M736.796 506.5s35.103 14.655 86.489 1.675" stroke="#000" stroke-width="20" stroke-miterlimit="10" stroke-linecap="round"/><path d="M644.603 542.516l56.89-77.109 53.1-31.06 21.634-1.404 37.197 81.112 21.415 63.676s27.843 59.499-15.545 65.537c-43.387 6.039-91.435-3.37-91.435-3.37L674.535 627.1l-65.745 19.231s-46.205 82.674-91.956 100.812c-45.751 18.138-42.916-1.403-42.916-1.403l-42.859-81.774-19.901-91.615s-13.797-31.572 51.611-31.441c65.408.131 113.385 23.476 113.385 23.476l68.449-21.87z" fill="#F56CDB"/><path d="M505 591c-.4-20.4 9.167-33.5 14-37.5l-7-8-62.5-1-38.5 9 12 63 41 113 26 31.5 72.5-48.5 46.5-63-16.5-43.5-50 18.5c0 8.333-2.7 23.9-13.5 19.5-13.5-5.5-23.5-27.5-24-53zM643 630.5c-30-26.8-29.833-61.167-26-75l-32 6.5 24 78.5 34-10zM747.5 575c7.6-20.8-7.167-31-15.5-33.5-6.5 8-19.6 24.2-20 25-.4.8-26.833 13-40 19-.167 7.5 1.1 22.7 7.5 23.5 8 1 58.5-8 68-34z" fill="#001647" fill-opacity=".2"/><path d="M647.51 541.553l-67.569 24.232 28.887 80.545 67.568-24.233-28.886-80.544z" stroke="#000" stroke-width="20" stroke-miterlimit="10"/><path d="M676.427 621.507s80.65 40.951 156.098 17.871a17.706 17.706 0 009.624-7.279 17.61 17.61 0 002.702-11.737 437.997 437.997 0 00-66.957-184.734l-.109-.158a17.698 17.698 0 00-9.558-7.301 17.761 17.761 0 00-12.032.483C683.202 458.578 647.06 541.311 647.06 541.311M579.903 566.274s-80.652-40.957-156.122-17.874a17.702 17.702 0 00-9.625 7.275 17.604 17.604 0 00-2.703 11.735v0a438.016 438.016 0 0066.938 184.744l.108.168a17.698 17.698 0 009.564 7.29 17.762 17.762 0 0012.03-.491c73.004-29.921 109.151-112.668 109.151-112.668" stroke="#000" stroke-width="20" stroke-miterlimit="10"/><path d="M662.153 582.107s45.412 4.609 61.137-39.852M594.148 606.978s-52.056-3.509-59.752 39.921" stroke="#000" stroke-width="20" stroke-miterlimit="10" stroke-linecap="round"/></g><defs><clipPath id="prefix__clip0_53_25216"><path fill="#fff" d="M0 0h1500v1500H0z"/></clipPath></defs>
      
    </g>
    </svg>