<svg
      xmlns="http://www.w3.org/2000/svg"
      preserveAspectRatio="xMidYMin meet"
      fill="none"
      viewBox="0 0 1500 1500"
    >
      <g>
      <path fill="url(#prefix__paint0_linear_53_30463)" d="M0 0h1500v1500H0z"/><defs><linearGradient id="prefix__paint0_linear_53_30463" x1="1500" y1="1500" x2="0" y2="0" gradientUnits="userSpaceOnUse"><stop stop-color="#FF5A5A"/><stop offset="1" stop-color="#FFBDBD"/></linearGradient></defs>
      <g clip-path="url(#prefix__clip0_53_27517)"><path d="M277.11 1500l-1.87-48.3 17.07-36.79 2.35-49.06 20.58-31.46 7.73-50.65s28.57-41.54 28.8-43.99c.23-2.46 17-51 19.67-51.84 2.67-.84 9.59-.67 14.94-5.13s14.72-11.81 15.61-15.82c.89-4-1.34-10.92 3.34-18.05 4.68-7.13 7.17-11.45 13.63-11 6.46.45 26.06-5.53 26.73-6.41.38-.5 7.57-13.72 13.59-24.83 4.26-7.85 33.62-15.64 41-10.63 61.72-1.98 116.11-18.31 272.72-21.54 195.15-4 275.17 19.56 275.17 19.56l31.29 7.23s19 25 19.9 26.85c.9 1.85 10.74 15.16 10.74 15.16s11.37.31 14.53.94c3.16.63 7.89-.63 9.16 4.11 1.27 4.74 7.89 16.74 8.84 23.68.95 6.95.63 13.58 6.32 16.74 5.69 3.16 15.47 3.47 25 6.63 9.53 3.16 11.37 7 12.95 10.42s4.1 19 4.74 22.74c.64 3.74 6.94 35.47 6.94 35.47l26.85 16.32s.95 27.8 0 32.85c-.95 5.04-4.11 9.15-1.58 16.73 2.53 7.58 7.27 17.37 11.37 21.48 4.1 4.11 8.53 5.37 10.42 11.05 1.89 5.68 4.74 10.42 4.11 20.21-.63 9.78-2.21 19.58-1.58 30.63.63 11.05 1.67 13.27 1.67 13.27l19.49 20.38s4.42 15.31 3.48 18.78c-.94 3.46-9.16 34.27-9.16 34.27H277.11z" fill="#9E6740"/><path d="M440 1295.5c-42 68.4-52.833 173.83-53 218H285.5c-4-1.67-12-12.2-12-41s15.333-41.33 23-44l-8-52.5c10.5-7.5 31.2-31 30-65-1.2-34 16.167-43.83 25-44.5l18-65.5c13-4.33 39.2-18.9 40-42.5.8-23.6 26-18.17 38.5-12.5l5.5-19 22-29 125.5-15.5h117.5c-150.8 58.8-224.833 139.5-243 172.5l57.5 2c-8.4 20.8-33.5 20.33-45 17.5-15.2 18.8-33 21.83-40 21zM693 1421.5c15.6-14.4 14.833-25.67 12.5-29.5l-19.5 19.5h-35l-37 17c-11.333-3-35-9.4-39-11-5-2-20 1-2 23.5s59 2.5 65-4.5 31 7.15 55-15zM773.5 1276.5c-6-10.4-.833-13.33 2.5-13.5l12.5 3 30.5 2.5 29-14 39-4.5c4.667-7.5 16-20.9 24-14.5 10 8-16 48-46.5 45s-29 11-47 14-36.5-5-44-18zM895.5 1449.5c-5.6-8.8 1-11.67 5-12l31 11 33-14 32-5c11-6.17 33.8-18.2 37-17 4 1.5 2.5 15-4 24.5s-16.5 19-43 14.5-24 14-45.5 19-38.5-10-45.5-21zM1230 1507c11.2-6.4 11.67-17.67 10.5-22.5l-20.5 4.5c-1.33 8.67-1.2 24.4 10 18zM1087 1276.5c-9.2-12.8-.17-15.67 5.5-15.5l20 13 33-10.5 43.5-4.5 14 15c-4.67 2.67-16.5 7.7-26.5 6.5-12.5-1.5-9-4-31 11.5s-47 .5-58.5-15.5z" fill="#001647" fill-opacity=".2"/><path d="M902 1235.61l-3.07 5.1a33.625 33.625 0 01-35.81 15.56l-1.55-.33a33.633 33.633 0 00-15.83.45 33.728 33.728 0 00-13.87 7.64v0a33.631 33.631 0 01-19.916 8.72 33.621 33.621 0 01-21.084-5.3l-7.09-4.59M1025.57 1409.68l-3.07 5.11c-3.6 6-8.99 10.72-15.41 13.51a33.575 33.575 0 01-20.39 2.05l-1.55-.33a33.619 33.619 0 00-29.7 8.1 33.624 33.624 0 01-19.916 8.71 33.616 33.616 0 01-21.084-5.29l-7.09-4.6M698 1391.05l-3.07 5.11a33.625 33.625 0 01-35.81 15.56l-1.55-.33a33.638 33.638 0 00-15.831.46 33.485 33.485 0 00-13.869 7.64 33.624 33.624 0 01-19.916 8.71 33.617 33.617 0 01-21.084-5.29l-7.08-4.6M531.83 1235.61l-3.07 5.1a33.64 33.64 0 01-35.76 15.56l-1.55-.33a33.633 33.633 0 00-15.83.45 33.716 33.716 0 00-13.87 7.64v0a33.624 33.624 0 01-19.916 8.71 33.617 33.617 0 01-21.084-5.29l-7.09-4.59M385.18 1409.68l-3.07 5.11a33.537 33.537 0 01-15.413 13.51 33.597 33.597 0 01-20.397 2.05l-1.55-.33a33.633 33.633 0 00-15.83.46 33.495 33.495 0 00-13.87 7.64v0a33.642 33.642 0 01-20.39 8.75M1185.91 1256.9c-4.59 1-4.76.39-9.56-.63l-1.55-.33a33.633 33.633 0 00-15.83.45 33.697 33.697 0 00-13.87 7.64v0a33.618 33.618 0 01-19.92 8.72c-7.42.62-14.83-1.25-21.08-5.3l-7.1-4.62" stroke="#000" stroke-width="20" stroke-miterlimit="10" stroke-linecap="round"/><path d="M1241.84 1486.32l-3.07 5.11c-1.83 3.05-4.03 6.86-6.55 9.37h-72.94c5.01-3.84 10.78-7.54 16.94-8.94a43.837 43.837 0 0118.7-.13l1.56.33c4.81 1.02 9.82.51 14.32-1.45 4.51-1.96 8.3-5.28 10.83-9.49l3.07-5.1c1.39-2.22 3.6-3.81 6.15-4.42a10.011 10.011 0 0112.01 7.22c.65 2.54.29 5.23-1.02 7.5z" fill="#000"/><path d="M281.5 1507c-4.833-16-14.829-54.4-4-63.5 12.5-10.5 26.5-19 18-47.5s4-40.5 14.5-48 13-25.5 7.5-42.5 6-33.5 20.5-38.5 16-28.5 15-37.5 0-34.5 22-35 23-25.5 24-33 8-25.5 27-19.5 22.5-14.5 24-22-.5-28 54-28 178.5-37 539.5 0c16 1.64 45.44 2.59 49.5 27 5.67 34.06 29.05 19.98 40 23.5 14 4.5 8.69 31.99 15 40.5 10 13.5 13.07 6.82 31 13.5 21.41 7.98-3.5 54 27 70 27.41 14.38 19.5 30.5 17 53s9 28 16 33.5 15.5 11.5 9 41.5-.79 31.71 15 47.5c18 18-1.5 32 1.5 65" stroke="#000" stroke-width="20"/><path d="M1084.5 1337c12.33 37 29.5 110.3 43.5 175.5m-646.5 0c.333-32.83 7.7-107.6 20.5-157" stroke="#000" stroke-width="20" stroke-linecap="round"/></g><defs><clipPath id="prefix__clip0_53_27517"><path fill="#fff" d="M0 0h1500v1500H0z"/></clipPath></defs>
      <g clip-path="url(#prefix__clip0_299_662)"><path d="M775 1185c231.41 0 419-168.12 419-375.5 0-207.383-187.59-375.5-419-375.5-231.407 0-419 168.117-419 375.5 0 207.38 187.593 375.5 419 375.5z" fill="#ABF"/><path d="M457.5 796c7.6 194 131.833 327.5 193 370l-130-55.5L438 1034l-57.5-89.5-27-106 11-104L394 662l45-82.5 83.5-69.5 109-54.182 28.5-1C569.452 513.314 451.119 633.132 457.5 796z" fill="#001647" fill-opacity=".2"/><path d="M775 1185c231.41 0 419-168.12 419-375.5 0-207.383-187.59-375.5-419-375.5-231.407 0-419 168.117-419 375.5 0 207.38 187.593 375.5 419 375.5z" stroke="#000" stroke-width="20"/></g><defs><clipPath id="prefix__clip0_299_662"><path fill="#fff" d="M0 0h1500v1500H0z"/></clipPath></defs>
      <g clip-path="url(#prefix__clip0_53_29369)" stroke="#000" stroke-width="20" stroke-miterlimit="10"><path d="M729.63 808.821l88.08-16a7.737 7.737 0 006.23-6.4 7.757 7.757 0 00-.73-4.64 7.674 7.674 0 00-3.27-3.35l-82.39-43.72M1087 808.821l-87.999-16a7.71 7.71 0 01-6.23-6.4 7.784 7.784 0 01.72-4.63 7.65 7.65 0 013.28-3.36l82.389-43.72" stroke-linecap="round"/><path d="M1000 1001.64c0 35-39.4 63.36-88 63.36s-88-28.36-88-63.36a47.358 47.358 0 014.59-20.231c6.41-13.7 21-19 33.42-12.86 14.2 7.07 31.42 11.21 50 11.21s35.79-4.14 50-11.21c12.4-6.18 27-.84 33.42 12.86a47.337 47.337 0 014.57 20.231z" fill="#fff"/></g><defs><clipPath id="prefix__clip0_53_29369"><path fill="#fff" d="M0 0h1500v1500H0z"/></clipPath></defs>
      <g clip-path="url(#prefix__clip0_53_26556)"><path d="M610.839 1052.54l25.41-124.378 14-18s32.84-6 38.52-5 129.64 16.45 129.64 16.45l101.58 2.47s73.9-4.05 84.731-5.22c10.83-1.17 48.22-6 58.49-7.76 10.27-1.76 53.32-5.62 68.8-9.75 15.48-4.13 44.08-18 44.08-18S1140.5 1084.5 903.999 1157.05c0 0-92.499 34.95-237.78 5.86-104.73-30.27-63-64.47-63-64.47l7.62-45.9z" fill="#4AEEB9"/><path d="M723 1100.5c-29.6-54.4-21-146-13-185-55.2-22-65.833-.166-72 17.5-11.167 36.167-34.3 116.8-37.5 150-3.2 33.2-1.333 56.5 0 64l99 30 110 4c-16.5-4.17-56.9-26.1-86.5-80.5z" fill="#001647" fill-opacity=".2"/><path d="M1185.94 880.828s-205.091 80.28-505.581 22.77a39.252 39.252 0 00-45.47 28.86c-9.83 38.72-26.31 109.842-38 178.622a42.352 42.352 0 0029.31 47.6c34.82 10.67 90.3 30.53 196.28 24M398.16 971.871c55.3 38.439 125.63 81.449 205 116.639M625.992 943.001l-269.82-144.2" stroke="#000" stroke-width="20" stroke-miterlimit="10"/></g><defs><clipPath id="prefix__clip0_53_26556"><path fill="#fff" d="M0 0h1500v1500H0z"/></clipPath></defs>
      <g clip-path="url(#prefix__clip0_53_24862)"><path d="M452.064 482.151c-104.889 112.873-101.3 246.773-101.3 246.773-.418 14.067 14.974 20.397 14.974 20.397l128.995-56.526 35.64-18.862 22.431 26.917c19.108 7.81 57.922 23.728 60.315 24.924 2.393 1.196 62.807 13.791 92.716 19.939 40.542-1.828 141.266-12.861 219.825-42.37 78.56-29.51 139.07-28.579 159.51-24.425 20.77 5.815 72.58 18.044 113.65 20.437 41.08 2.393 26.42-33.896 13.96-52.339l-23.93-13.958-46.35-19.421-43.06-91.459s-14.26-48.053-134.689-124.169c-120.43-76.117-240.911-57.175-240.911-57.175s-166.888 28.443-271.776 141.317z" fill="#F56CDB"/><path d="M351.5 745.997c1.5-26 11-95.4 37-165 8.167-23.833 47.8-89.7 141-162.5S734 339.83 778 345.997c-204 104-266.667 267-272.5 335.501L398 731.997l-46.5 14zM747.5 579.497c-137.6 22.4-202.667 67-218 86.5l63-22.5 100-33 187.5-20 261 23.5-4-14.5c-49.5-17-217.5-48-389.5-20z" fill="#001647" fill-opacity=".2"/><path d="M846.153 441.048l21.757-1.87 12.653 64.858-21.757 1.869 4.212 21.616-14.506 1.247-4.218-21.616-21.756 1.87-12.653-64.858 21.762-1.87-4.217-21.615 14.506-1.247 4.217 21.616zm79.558 29.8l21.762-1.87 12.642 64.859-21.751 1.869 4.218 21.615-14.506 1.247-4.218-21.616-21.762 1.87-12.647-64.858 21.756-1.869-4.218-21.622 14.506-1.246 4.218 21.621z" fill="#000"/><path d="M539.057 669.816c-90.931 33.368-140.28 60.355-165.592 77.034a14.876 14.876 0 01-21.267-5.398 14.877 14.877 0 01-1.743-7.931c4.167-68.221 30.198-205.29 154.526-300.249 153.121-116.981 298.086-91.968 311.047-89.416.757.15 1.505.289 2.273.419 20.008 3.579 261.459 51.203 326.179 276.153" stroke="#000" stroke-width="20" stroke-miterlimit="10"/><path d="M538.667 671.046c.23-.788.634-1.409 1.312-1.871 13.787-9.381 183.305-117.499 585.401-53.422 0 0 48.7 9.6 90.07 32.062a30.695 30.695 0 0114.53 17.606 30.714 30.714 0 01-1.62 22.769 30.738 30.738 0 01-16.88 15.365 30.744 30.744 0 01-22.83-.52c-33.33-14.266-83.32-29.41-137.41-32.5-42.02-2.403-134.701 36.887-203.629 55.998A416.341 416.341 0 01676.515 737.3c-69.469-10.096-148.504-29.738-137.848-66.254z" stroke="#000" stroke-width="20" stroke-miterlimit="10"/></g><defs><clipPath id="prefix__clip0_53_24862"><path fill="#fff" d="M0 0h1500v1500H0z"/></clipPath></defs>
      
    </g>
    </svg>