<svg
      xmlns="http://www.w3.org/2000/svg"
      preserveAspectRatio="xMidYMin meet"
      fill="none"
      viewBox="0 0 1500 1500"
    >
      <g>
      <path fill="url(#prefix__paint0_linear_53_28788)" d="M0 0h1500v1500H0z"/><defs><linearGradient id="prefix__paint0_linear_53_28788" x1="0" y1="0" x2="1500" y2="1500" gradientUnits="userSpaceOnUse"><stop stop-color="#DBE4E4"/><stop offset="1" stop-color="#A7BDBD"/></linearGradient></defs>
      <g clip-path="url(#prefix__clip0_53_27893)"><path d="M460.5 1094.5c-138.4 66.4-174 309.33-174.5 422.5h983.5c-12.5-72.17-53.2-244.1-116-354.5-78.5-138-520-151-693-68z" fill="#ABF"/><path d="M1122 1500H482.719s14.6-102.81 14.89-104.16c.16-.75 5.35-20.38 9.88-37.48 3.54-13.39 2.68-25.22 2.68-25.22l-3-41.2-13.59-80.17s-35.41-62.15-46.49-85.15c-1.163-2.27-3.185-8.61-4.06-11-.24-.75-.3-1.21-.16-1.35a56.197 56.197 0 017.23-4.17c4.75-2.53 11.27-5.85 17.94-9.21 14-7 29.51-13.16 29.51-13.16l.82.49L526 1080.5l85-22.5 22 68.5 27.999 47.96 5.58 5.39s-7.079 1.65 0 .09c.09.44.55 2.47 1.49 5.71l.18.63c.12.43.26.88.4 1.35 0 .12.07.23.11.35-6.759 1.13.19.64.29 1a.565.565 0 000 .13c3.006 9.48 15.138 18.57 20.31 27.07 13 21.59 36.75 47.51 81.14 73.38 1.44.84 2.904 1.68 4.39 2.52.468.49.811 1.08 1 1.73 1.46 3.51 3.32 11 4.65 11.2 0 0 40.23 23 40.26 23l.61.06c4.465.53 8.98.44 13.42-.26 32.63-5.36 34.42-46.34 49.23-59.56.21-.18.41-.37.61-.56 14.4-13.07 19.65-26.22 19.65-26.22l4-23.61 3.93-23 12.251-45.36 11.5-88 54.5 10.5 42 12.5 16.74 2.21.5-.32 1.59 1 .35.23 17.57 11.28 8.36 5.37-.11 4.47v.74l-6.93 171.5-.49 19.75 11.26 39.08 17.84 61.93L1122 1500z" fill="#FF6247"/><path d="M763.124 1587.71c-11.057-10.18-17.837-24.68-20.341-43.52l-12.773-96.2c-2.678-20.17-.031-35.54 7.941-46.12 7.971-10.58 21.263-15.87 39.875-15.87 18.764 0 33.538 5.29 44.322 15.87 10.785 10.58 17.516 25.95 20.193 46.12l12.785 96.25c2.519 18.99-.408 33.53-8.78 43.64s-21.607 15.15-39.705 15.12c-17.955-.03-32.46-5.13-43.517-15.29zm45.377-28.26a16.412 16.412 0 001.588-10.26l-13.942-105.2c-.805-6.11-2.133-10.79-3.948-14.02-1.815-3.22-4.889-4.83-9.166-4.83s-6.863 1.61-7.748 4.83c-.885 3.23-.93 7.91-.125 14.02l13.954 105.12a20.75 20.75 0 004.208 10.26 10.232 10.232 0 003.536 3.15c1.41.75 2.978 1.16 4.576 1.19a7.702 7.702 0 004.16-1.09 7.744 7.744 0 002.919-3.17h-.012zM890.216 1437.04a24.615 24.615 0 01-10.625 8.42 33.793 33.793 0 01-14.046 3.22L861 1414.74a48.764 48.764 0 0020.455-8.67A32.634 32.634 0 00894.5 1388h34.091L957 1601h-44.955l-21.829-163.96zM958.16 1333.32l12.2-23.4 30.36 34h17l-52-58.93-30.72 58.93h57.64l-20.12-22.55-6.24 12-8.12-.05z" fill="#fff"/><path d="M951 1066.5v18c-4 170.5-79.99 232.42-107.82 259.53a20.288 20.288 0 01-25.25 2.51C614 1227.5 601 1076 601 1076l-1.5-15" stroke="#fff" stroke-width="20" stroke-miterlimit="10" stroke-linecap="round"/><path d="M531.14 1371.41c-9.12 44.92-14.91 82.08-18.23 116.94L511.8 1500h-20.05c0-.31 0-.63.05-1l1.2-12.59c3.39-35.59 9.28-73.41 18.54-119 .08-.37.15-.75.22-1.13 9.84-49.47 15-145.34-55.75-245.36a399.48 399.48 0 00-4.19-5.81 9.682 9.682 0 01-.67-1 9.994 9.994 0 01-.944-7.28 10.03 10.03 0 014.284-5.97 9.98 9.98 0 017.203-1.42 9.958 9.958 0 016.237 3.87l1.16 1.59.5.69c1.35 1.85 2.66 3.7 3.95 5.55 74.31 106.23 68.17 208.23 57.6 260.27zM1111.83 1500h-20.25l-10.86-48.68c-7.71-34.55-15.38-65.35-23.46-94.17-16.34-58.81-20.97-119.9-17.63-180.85 1.88-33.39 6.34-57.43 8.73-68.45.89-4.09 1.49-6.38 1.58-6.7.18-.69.45-1.36.78-2a.139.139 0 010-.09 10.02 10.02 0 015.24-4.65c2.25-.87 4.74-.89 7-.07 2.27.82 4.16 2.44 5.34 4.54a10.01 10.01 0 011.04 6.93l-.12.5c0 .06-.39 1.48-1 4.12-.32 1.42-.7 3.2-1.13 5.32-.56 2.79-1.19 6.16-1.86 10.07a467.162 467.162 0 00-5.74 52.24c-3.02 56.71.89 113.54 15.51 168.41.47 1.76.96 3.53 1.45 5.3 6.65 23.69 13 48.7 19.34 76 0 .18.08.36.13.54 1.41 6.12 2.83 12.35 4.25 18.7l8.19 36.68c.06.3.13.6.19.89l3 13.29c.17.7.26 1.41.28 2.13z" fill="#fff"/><path d="M485.5 1201.5c-85.6 92.8-105.334 241.67-104.5 304.5h-92.5l5-77.5 16.5-87 34-110 53-89.5 66.5-44 70-31 80-9.5 12 18c-11.839 5.79 10.003 11.89-2 18.86-41.935 24.34-81.989 53.15-100 67.14 31.5 56 43 144.5 23 243.5-9.101 45.05-11.5 101.17-10.5 125.5l-57-24.5c6-21.17 19.6-82.4 26-158 6.4-75.6-10.334-129.17-19.5-146.5z" fill="#001647" fill-opacity=".2"/><path d="M931.5 1061v10c0 163.5-67.83 223.11-97.03 257.41a7.965 7.965 0 01-5.183 2.75 7.977 7.977 0 01-5.667-1.52C783 1299.29 645 1217 620 1071l-2-13.5" stroke="#000" stroke-width="20" stroke-miterlimit="10" stroke-linecap="round"/><path d="M511.761 1366.3c0 .32 0 .66-.05 1-.22 2.89-14 61.77-19 132.69h-20v-.69a924.796 924.796 0 0119.51-134.6c.57-2.4 2.009-4.51 4.04-5.92a10.042 10.042 0 017.96-1.51c1.105.24 2.181.61 3.21 1.08 3 1.4 4.44 3.71 4.33 7.95zM1132 1500h-20.2c-.55-2.72-1.65-8.14-3.2-15.47-.06-.29-.13-.59-.19-.89-2.91-13.76-7.3-33.87-12.44-55.38 0-.18-.09-.36-.13-.54-6.23-26-13.56-54-20.69-75.23a9.999 9.999 0 016.19-12.63h.1l.39-.11c2.48-.72 5.13-.46 7.42.74a9.996 9.996 0 014.85 5.66c18.25 54.24 36.92 148 37.71 151.94.12.63.19 1.27.19 1.91z" fill="#000"/><path d="M443.891 1118.21s87.82 94.17 57 252.68M1084.46 1348.82c-32.76-108.75-9.81-228.49-9.81-228.49l4.35-17.83" stroke="#000" stroke-width="20" stroke-miterlimit="10" stroke-linecap="round"/><path d="M289.5 1512.5c-6-101.5 31-323.03 140.5-398 158.5-108.51 616.5-87 706.5 26 64.91 81.5 99.5 222.5 132.5 371" stroke="#000" stroke-width="20" stroke-linecap="round"/></g><defs><clipPath id="prefix__clip0_53_27893"><path fill="#fff" d="M0 0h1500v1500H0z"/></clipPath></defs>
      <g clip-path="url(#prefix__clip0_299_662)"><path d="M775 1185c231.41 0 419-168.12 419-375.5 0-207.383-187.59-375.5-419-375.5-231.407 0-419 168.117-419 375.5 0 207.38 187.593 375.5 419 375.5z" fill="#ABF"/><path d="M457.5 796c7.6 194 131.833 327.5 193 370l-130-55.5L438 1034l-57.5-89.5-27-106 11-104L394 662l45-82.5 83.5-69.5 109-54.182 28.5-1C569.452 513.314 451.119 633.132 457.5 796z" fill="#001647" fill-opacity=".2"/><path d="M775 1185c231.41 0 419-168.12 419-375.5 0-207.383-187.59-375.5-419-375.5-231.407 0-419 168.117-419 375.5 0 207.38 187.593 375.5 419 375.5z" stroke="#000" stroke-width="20"/></g><defs><clipPath id="prefix__clip0_299_662"><path fill="#fff" d="M0 0h1500v1500H0z"/></clipPath></defs>
      <g clip-path="url(#prefix__clip0_53_29369)" stroke="#000" stroke-width="20" stroke-miterlimit="10"><path d="M729.63 808.821l88.08-16a7.737 7.737 0 006.23-6.4 7.757 7.757 0 00-.73-4.64 7.674 7.674 0 00-3.27-3.35l-82.39-43.72M1087 808.821l-87.999-16a7.71 7.71 0 01-6.23-6.4 7.784 7.784 0 01.72-4.63 7.65 7.65 0 013.28-3.36l82.389-43.72" stroke-linecap="round"/><path d="M1000 1001.64c0 35-39.4 63.36-88 63.36s-88-28.36-88-63.36a47.358 47.358 0 014.59-20.231c6.41-13.7 21-19 33.42-12.86 14.2 7.07 31.42 11.21 50 11.21s35.79-4.14 50-11.21c12.4-6.18 27-.84 33.42 12.86a47.337 47.337 0 014.57 20.231z" fill="#fff"/></g><defs><clipPath id="prefix__clip0_53_29369"><path fill="#fff" d="M0 0h1500v1500H0z"/></clipPath></defs>
      <g clip-path="url(#prefix__clip0_53_27350)"><path d="M695 882.421v6.14a7.746 7.746 0 01-.67 3.22c-1.26 2.86-3.34 3-3.34 3a7.817 7.817 0 01-6.39-1.32c-2.64-2.11-9.24-20.21-9.24-20.21l-12.71 20.21H654l17.8-28.21-5.59-11.59a4.654 4.654 0 00-4.07-2.64H662a4.724 4.724 0 00-4.13 1.7c-.89.89-1.21 3.78-1.21 3.78l-1.78.13a22.972 22.972 0 01-.13-5.28 7.776 7.776 0 011.34-3.76 5.694 5.694 0 014.83-2.61 7.816 7.816 0 014.51 1.43 8.67 8.67 0 013 3.74l5.26 13.05 11.44-17.4H693l-15.8 24.51 3.94 9.32s3 9 7.31 9 4.71-6.22 4.71-6.22l1.84.01z" fill="#000"/></g><defs><clipPath id="prefix__clip0_53_27350"><path fill="#fff" d="M0 0h1500v1500H0z"/></clipPath></defs>
      <g clip-path="url(#prefix__clip0_53_24997)"><path d="M113.53 587.151l160.3-15.6 52.77 40.8-9.28 14.82-65.85 11.93 13.32 57.37 77.08-1.75-56 61.6-161.77 10.19 25.9-86.36-42.38-84.43 5.91-8.57z" fill="#D9D9D9"/><path d="M1137.73 604.329c-10.35-15.47-29.13-36.46-35.73-44l-7-13 99.51-3.79 5.42 59.89c-16.09 6.73-51.85 16.37-62.2.9zM529.12 606.559l-271.71 26.44 6 61.71 271.72-26.44-6.01-61.71z" fill="#9E6740"/><path d="M523.15 607.141l-260.08 25.31a9.687 9.687 0 00-8.71 10.55l4.42 45.41a9.689 9.689 0 0010.58 8.7l260.09-25.3M1197.52 542l-115.46 11.24M1126.18 614.269l77.63-7.55" stroke="#000" stroke-width="20" stroke-miterlimit="10"/><path d="M339.41 625l-57-46.88a27.288 27.288 0 00-20-6.09l-145.33 14.16a10.44 10.44 0 00-8.28 15.14l38.36 75 109.41-10.65M345.73 690l-46.88 57a27.339 27.339 0 01-18.47 9.84L135.07 771a10.44 10.44 0 01-11-13.27l23.17-81L256.6 666" stroke="#000" stroke-width="20" stroke-miterlimit="10"/><path d="M516.69 587.17a160.853 160.853 0 0112.7 106.1l-1.66 7.44" stroke="#000" stroke-width="20" stroke-miterlimit="10" stroke-linecap="round"/><path d="M1207 573.5l-25-61 130 49.5-114 83 9-71.5z" fill="#D9D9D9"/><path d="M107 591l40 91.5-25.5 86.5 164-9.5 53-68 187-15v-71l-187 20-62.5-49h-27L107 591zM1128 592l10 14h59.5l-3.5 37 107-75.5-10.5-7.5c-14.33 9-46.4 28.9-60 36.5-13.6 7.6-21.67 5.167-24 3l-6-14-72.5 6.5z" fill="#001647" fill-opacity=".2"/><path d="M1180.28 505.869l25.8 68.24c.07.206.09.426.05.64l-12.48 68.09c-.04.233-.02.473.07.691a1.191 1.191 0 001.78.509l116-79.45c.17-.121.31-.286.4-.478.09-.193.13-.406.11-.617a1.144 1.144 0 00-.22-.587c-.12-.173-.29-.31-.48-.398l-129.46-58.16a1.19 1.19 0 00-.67-.06c-.23.045-.44.154-.6.314-.17.161-.29.365-.34.59-.05.224-.04.459.04.676z" stroke="#000" stroke-width="20" stroke-miterlimit="10"/><path d="M661.719 466.274s.681-50.314 11.211-50.049c10.531.266 30.241-4.165 30.241-4.165l31.003 15.989 25.638-5.424 28.99-24.747 27.071-1.791 27.883 14.121 15.446 18.681 23.411.145 50.96-13.954 24.276 23.68-19.232 52.574-44.507-21.369-17.618-6.041-23.175-7.036-28.049-1.943-32.388-.112-55.638 3.68-50.45 8.949-25.073-1.188z" fill="#97A5DE"/><path d="M718.506 479.214s19.322 40.453 64.014 34.31c44.692-6.143 83.522-32.583 83.522-32.583l10.406-17.065-81.463-14.775-84.096 14.041s-8.664 11.898 7.617 16.072z" fill="#7985B4"/><path d="M662.843 469.488s-13.534-58.554 30.087-60.287c15.493-.614 25.434 4.992 32.226 12.21 13.894 14.755 29.392 7.707 38.346-2.386 11.842-13.391 27.482-26.021 44.854-27.17 20.226-1.338 34.215 14.393 42.889 29.474 6.094 10.621 21.799 13.651 33.204 6.683 11.953-7.315 28.35-12.9 48.081-8.683 42.964 9.245 6.064 69.091 6.064 69.091" stroke="#000" stroke-width="18.1" stroke-miterlimit="10" stroke-linecap="round"/><path d="M630.048 507.636s25.276-45.068 51.452-39.634c40.502 8.395 74.399 69.733 74.399 69.733M800.818 537.27s38.761-65.501 93.251-67.301c54.49-1.801 48.429 57.93 48.429 57.93M682 468s137.209-40.275 226.408 2.982M736.796 506.5s35.103 14.655 86.489 1.675" stroke="#000" stroke-width="20" stroke-miterlimit="10" stroke-linecap="round"/></g><defs><clipPath id="prefix__clip0_53_24997"><path fill="#fff" d="M0 0h1500v1500H0z"/></clipPath></defs>
      
    </g>
    </svg>