<svg
      xmlns="http://www.w3.org/2000/svg"
      preserveAspectRatio="xMidYMin meet"
      fill="none"
      viewBox="0 0 1500 1500"
    >
      <g>
      <path fill="url(#prefix__paint0_linear_53_30460)" d="M0 0h1500v1500H0z"/><defs><linearGradient id="prefix__paint0_linear_53_30460" x1="0" y1="0" x2="1500" y2="1500" gradientUnits="userSpaceOnUse"><stop stop-color="#F1FFBA"/><stop offset="1" stop-color="#65DCBA"/></linearGradient></defs>
      <g clip-path="url(#prefix__clip0_53_28624)"><path d="M1263 1500H289.33l3.73-66.49 17.17-107.35L358 1203l53.62-74.7s38.18-26.49 102.86-54.62S725 1044 725 1044s197-4.48 350.16 55.11C1228.32 1158.7 1263 1500 1263 1500z" fill="#ABF"/><path d="M1122 1500H482.72s14.6-102.81 14.89-104.16c.29-1.35 16.56-62.7 16.56-62.7l45.26-67.61s16.251-30.11 21.61-70.63c4.913-37.15-1.081-84.95 0-86.07 2.26-2.34 4.64-50.26 4.64-50.26l5.36 2.13 72.57-6.85v.09c.09.44.55 2.47 1.49 5.71l.18.63c.12.43.26.88.4 1.35 0 .12.07.23.11.35.09.32.19.64.29 1a.472.472 0 000 .13c3.442 10.98-6.036 73.44 9.92 119.89 20.159 58.69 69.608 102.92 111.27 108.84 1.72.24 3.42.46 5.09.65 46.42 5.32 75.09-9.26 91.78-24.17.21-.18.41-.37.61-.56 14.4-13.07 19.65-26.22 19.65-26.22l8-46.64-16.9-141.05 87 18.15 9.99 63.79 28.54 95.42 43 72 35.15 98.54L1122 1500z" fill="#3A3A3A"/><path d="M970.546 1333.16l5.179-10.34 18.683 25.59.442 4.9-3.038-33.78a2.812 2.812 0 00-.449-1.16 2.812 2.812 0 00-.907-.87l-31.07-17a2.598 2.598 0 00-1.129-.26c-.391 0-.777.09-1.129.26-.09.04-.177.09-.26.15l-.096.07-27.231 16.63-.107.05c-.143.07-.279.16-.403.26-.251.19-.459.43-.611.71-.151.28-.243.59-.268.9-.007.1-.007.2 0 .3l2.473 27.54 13.202-23.72c1.65-3.14 5.757-4.16 9.656-4.1l4.581.12-23.12 43.19 3.337 1.82 23.287-44.98 12.045-.05-23.116 46.12 11.909 6.52 1.423.78c.583.23 1.229.25 1.821.04l28.446-17.38-5.432 3.34-18.118-25.65zm5.283 33.48l-13.03-17.95 5.936-11.85 17.117 23.68-10.023 6.12z" fill="#2D374B"/><path d="M962.799 1348.68l13.03 17.95 10.023-6.11-17.122-23.69-5.931 11.85zM994.853 1353.31l-.443-4.9-18.683-25.58-5.184 10.33 18.121 25.65 5.442-3.32a2.326 2.326 0 00.78-1.85l-.033-.33z" fill="#28A0F0"/><path d="M926.44 1357.94l8.506 4.66 23.121-43.2-4.581-.11c-3.902-.06-8.007.95-9.656 4.1l-13.202 23.72-4.446 7.9.26 2.94-.002-.01zM973.625 1319.4l-12.046.05-23.285 44.98 10.013 5.49 2.203-4.4 23.115-46.12z" fill="#fff"/><path d="M996.926 1319.34a8.612 8.612 0 00-1.378-3.56 8.557 8.557 0 00-2.784-2.61l-31.477-17.22a7.727 7.727 0 00-3.436-.8c-1.192 0-2.367.27-3.436.8-.24.12-27.64 16.87-27.64 16.87a6.85 6.85 0 00-3.764 6.51l3.166 35.67 4.446-7.91-2.474-27.52c-.014-.37.06-.73.215-1.07.155-.33.387-.62.677-.84.128-.1 27.998-17.1 28.095-17.15.352-.17.738-.26 1.129-.26s.777.09 1.129.26l31.07 17.01c.362.21.672.51.907.86.234.35.387.75.448 1.16l3.013 34.1a2.259 2.259 0 01-.721 1.85l-5.45 3.32-2.804 1.72-10.031 6.12-10.171 6.21c-.591.21-1.238.19-1.821-.04l-13.329-7.29-2.203 4.39 11.981 6.56c.396.22.747.41 1.041.56.447.24.752.4.858.45.974.42 2.022.63 3.08.63.94 0 1.872-.17 2.745-.52l29.551-18.04a6.97 6.97 0 001.894-2.58c.421-1 .608-2.08.533-3.16l-3.059-34.48z" fill="#8BBFDF"/><path d="M591 1062.25V1172a195.34 195.34 0 01-46.65 126.63 106.083 106.083 0 00-20.67 37.44 721.566 721.566 0 00-30.63 159.2c-.12 1.56-.24 3.12-.34 4.69h-20v-.69a741.634 741.634 0 0131.88-169.14 125.754 125.754 0 0124.55-44.47c27.011-31.71 41.85-72 41.86-113.66v-109.79c0-2.65 1.054-5.2 2.929-7.07a9.981 9.981 0 017.071-2.93 9.981 9.981 0 017.071 2.93 9.994 9.994 0 012.929 7.07v.04zM1132 1499.99h-20.2l-.09-.45c-13.68-67.64-25.68-115.81-49.89-176.59a229.608 229.608 0 00-22.36-42.48 355.4 355.4 0 01-51.359-119.1l-5.1-22.21-11.526-66.69a9.987 9.987 0 011.282-7.54 10.006 10.006 0 0113.789-3.15 10.01 10.01 0 014.429 6.24l1.017 4.45 15.588 84.45a336.018 336.018 0 0048.48 112.43c9.7 14.51 17.86 29.99 24.32 46.2 24.77 62.18 37 111.24 50.91 180l.5 2.47c.14.65.21 1.31.21 1.97z" fill="#000"/><path d="M659.5 1051l15.11 128.85c15.21 64.94 82.8 119.21 147.64 114.37 64.84-4.84 105.05-61.36 89.84-126.36L893.5 1051" stroke="#000" stroke-width="20" stroke-miterlimit="10" stroke-linecap="round"/><path d="M500.002 1213.5c-101.2 100-117.834 249-113.5 311l-99.502-13c-1.6-110.8 39-247.5 59.5-302l39.501-52.5 15.5-20.5 66.5-42.5c149.6-59.6 294-54.83 347.5-45-63 13.17-214.299 64.5-315.499 164.5z" fill="#001647" fill-opacity=".2"/><path d="M289.5 1512.5c-6-101.5 31-323.03 140.5-398 158.5-108.51 616.5-87 706.5 26 64.91 81.5 99.5 222.5 132.5 371" stroke="#000" stroke-width="20" stroke-linecap="round"/></g><defs><clipPath id="prefix__clip0_53_28624"><path fill="#fff" d="M0 0h1500v1500H0z"/></clipPath></defs>
      <g clip-path="url(#prefix__clip0_299_662)"><path d="M775 1185c231.41 0 419-168.12 419-375.5 0-207.383-187.59-375.5-419-375.5-231.407 0-419 168.117-419 375.5 0 207.38 187.593 375.5 419 375.5z" fill="#ABF"/><path d="M457.5 796c7.6 194 131.833 327.5 193 370l-130-55.5L438 1034l-57.5-89.5-27-106 11-104L394 662l45-82.5 83.5-69.5 109-54.182 28.5-1C569.452 513.314 451.119 633.132 457.5 796z" fill="#001647" fill-opacity=".2"/><path d="M775 1185c231.41 0 419-168.12 419-375.5 0-207.383-187.59-375.5-419-375.5-231.407 0-419 168.117-419 375.5 0 207.38 187.593 375.5 419 375.5z" stroke="#000" stroke-width="20"/></g><defs><clipPath id="prefix__clip0_299_662"><path fill="#fff" d="M0 0h1500v1500H0z"/></clipPath></defs>
      <g clip-path="url(#prefix__clip0_53_29343)" stroke="#000" stroke-width="20" stroke-miterlimit="10" stroke-linecap="round"><path d="M821.63 792.381a76.418 76.418 0 00-93.773-21.665 76.405 76.405 0 00-26.727 21.665M836.82 991.439c38.57 39.211 113.35 39.211 151.93 0M1109.25 792.381a76.451 76.451 0 00-26.73-21.665 76.39 76.39 0 00-33.52-7.745 76.425 76.425 0 00-60.25 29.41"/></g><defs><clipPath id="prefix__clip0_53_29343"><path fill="#fff" d="M0 0h1500v1500H0z"/></clipPath></defs>
      <g clip-path="url(#prefix__clip0_53_26521)"><path d="M645.5 817.501l-6-36 2.5-19c1.167-2.167 3.5-7.1 3.5-9.5 0-3 0-5 3-10.5s7-12 12.5-18.5c4.4-5.2 10.5-10.833 13-13 3.333-1.5 11.2-4.8 16-6 4.8-1.2 19-3.833 25.5-5 3.333 1.667 10.9 5 14.5 5 4.5 0 17.5 2.5 20 6 2 2.8 7.833 9.833 10.5 13l5.5-6.5c5.5-6.5 14.5-12.5 18.5-12.5s21-5 25-5h16c8 0 13.5 2 19.5 5s11.5 6.5 15.5 9.5 8.5 12 11.5 18.5 7 10.5 7.5 20 2.5 24 3 28.5c.4 3.6 4.167 10.167 6 13l5.923-.494c7.382-2.693 15.809-2.984 23.951-1.996l6.126-.51 21.5 3v-41.5c1.167-20.667 15-61.6 61-60 46 1.6 56.5 17 56 24.5 11.33-16.833 44.8-43.9 88-17.5S1181.67 792 1170 821.5c-14.67 27.5-55.9 82.4-103.5 82-47.6-.4-95.5-52.167-113.5-78l-7-25.5c-6.701-3.174-16.917-6.688-27.626-7.989l-23.951 1.996c-5.851 2.135-11.046 5.78-14.923 11.493-15.2 22.4-26.333 47.333-30 57-13.5 16.167-49.4 49.1-85 51.5-35.6 2.4-88.5-51.333-110.5-78.5l-8.5-17.999z" fill="#FF6247"/><path d="M673 710s14-.77 66-7l97 169.89s-10.93 29.69-49 29.11L673 710zM765.58 714.5s.64.35 18.42-10.5l75.5 139.5s2.07 13.53-12.5 16.5l-81.42-145.5zM972 701.999s28-18.5 66-7l97 169.89s-10.93 29.69-49 29.11l-114-192zM1066.58 706.5s.64.35 18.42-10.5l73.5 139.5s2.07 13.53-12.5 16.5l-79.42-145.5z" fill="#fff" fill-opacity=".9"/><path d="M1192.94 755.47v-.09c-.14-4.17-2.27-41.41-34.9-63.45a75.432 75.432 0 00-71.21-6.94 67.672 67.672 0 00-23.69 16.16l-1.71 1.8-1.81-1.69a67.16 67.16 0 00-24.62-14.69 75.399 75.399 0 00-70.679 11.32c-31.08 23.94-31 61.28-30.9 65.45-.03 5.009.197 10.015.68 15l.36 3.76-3.6-1.13a56.453 56.453 0 00-35.44.41l-3.4 1.16.09-3.6c.13-4.66 0-9.45-.3-14.24-.15-4.27-2.37-41.58-34.91-63.55a75.45 75.45 0 00-71.22-6.94 67.598 67.598 0 00-23.68 16.21l-1.7 1.8-1.81-1.69a67.466 67.466 0 00-24.59-14.67 75.396 75.396 0 00-70.68 11.28c-19.23 14.8-26.54 34.7-29.28 48.8l-.53 2.69-252.13-54.36a9.117 9.117 0 00-12.05 4.57 9.1 9.1 0 00-.211 6.972 9.103 9.103 0 004.781 5.078l258.56 57.39.07 1.78c1.85 45.25 24.65 84.31 65.93 112.94 21.13 14.62 44.38 22.92 60.15 27.31a24.404 24.404 0 0014.21-.34c23.59-7.77 44.49-18.53 60.45-31.1 29.3-23.1 47.92-50.84 55.36-82.45l.2-.85.68-.54a39.163 39.163 0 0145.81-2l2.33 1.48c.293.193.597.37.91.53l.94.48.31 1c9.61 30.37 29.73 56.34 59.83 77.19 22.429 15.53 46.889 25 59.479 29.25a24.659 24.659 0 0017.08-.46c12.54-5 36.78-16 58.24-32.92 41.73-32.85 61.99-75.76 58.6-124.11zM822.451 874.13a212.661 212.661 0 01-51 29.49 15.255 15.255 0 01-10.53.33 212.032 212.032 0 01-52.7-26.29c-38.68-27-58.1-62.41-57.72-105.08V772c-.05-5.41.85-32.83 23.77-50.45a57.174 57.174 0 0153.6-8.55c10.61 3.71 18.88 9.9 24.56 18.41l.16.27a8.917 8.917 0 005.86 4.74h.32l.54.1a9.07 9.07 0 0010-5.49l.16-.32c5.14-8.76 13-15.4 23.31-19.74a57.235 57.235 0 0154 5.22c25.74 17.4 26.82 47.68 26.85 49v.63c2.98 42.51-14.22 78.95-51.18 108.31zm301.149-9.26a212.562 212.562 0 01-51 29.48 15.137 15.137 0 01-10.51.34 212.04 212.04 0 01-52.18-25.88c-39.099-27.1-58.709-62.55-58.279-105.4v-.56c0-5.41.86-32.83 23.78-50.47a57.16 57.16 0 0153.579-8.57c10.59 3.69 18.83 9.84 24.52 18.3l.17.3a8.992 8.992 0 003.81 4 9.04 9.04 0 004.91 1.09h.68a9.016 9.016 0 004.37-1.73 9.088 9.088 0 002.94-3.79l.15-.31c5.16-8.79 13-15.45 23.36-19.79a57.225 57.225 0 0154 5.22c25.07 16.95 26.75 45.77 26.86 49v.64c3.02 42.4-14.18 78.77-51.16 108.13z" fill="#000"/></g><defs><clipPath id="prefix__clip0_53_26521"><path fill="#fff" d="M0 0h1500v1500H0z"/></clipPath></defs>
      <g clip-path="url(#prefix__clip0_53_26160)"><path d="M212 773.471l62.56-80.08 248.69-245.79 207.41-160.55 85.06 33.85L1046 466.461l168.39 125.54 88.91 84.23-251-11.24-138.55 2.32-274.98 22.69-295.45 51.61L212 773.471z" fill="#9E6740"/><path d="M352.75 743.09l-74.15 13.72-62.07 20.27 35.15 30.82 86.07 25.2 8.749-3.1c-1.999-58 6.251-86.91 6.251-86.91zM1173.57 667.26S1196 714 1201 766.18l21.85-5.56s45.37-27.13 45.6-27.81c.23-.68 29.22-34.81 30.55-36.61 1.33-1.8 8.87-23.65 8.87-23.65L1197.6 669l-24.03-1.74z" fill="#9E6740"/><path d="M596.5 459c-62.8 94.4-100.833 210.333-112 256.5L362 740l-5 48v48l-96-26-45-28.5v-12.757L204 771l128.5-144c43.667-42 152.9-146.1 240.5-226.5S712.833 292 728 288c-17.667 17.667-68.7 76.6-131.5 171zM1198.5 772l-32-100h44l65.5 6.5 27 5.5-39.5 49-65 39z" fill="#001647" fill-opacity=".2"/><path d="M354.75 837.1c-82.24-10.89-126-40-145.78-55.75-4.66-3.71-6.55-10.94-2.65-15.45C247.83 718 434.6 497.48 707.17 294.37c10.14-7.55 30.53-9 42.15-3.88C825.94 324.2 1145.06 509.6 1306 668.14c4.25 4.19 3.87 12.52.5 17.45-16.78 24.51-41 60.87-119.79 89.45" stroke="#000" stroke-width="20" stroke-miterlimit="10"/><path d="M200.5 775.09l66.41-15.37C608.583 674.233 954.947 646.683 1306 677.07" stroke="#000" stroke-width="20" stroke-miterlimit="10"/></g><defs><clipPath id="prefix__clip0_53_26160"><path fill="#fff" d="M0 0h1500v1500H0z"/></clipPath></defs>
      
    </g>
    </svg>