<svg
      xmlns="http://www.w3.org/2000/svg"
      preserveAspectRatio="xMidYMin meet"
      fill="none"
      viewBox="0 0 1500 1500"
    >
      <g>
      <path fill="url(#prefix__paint0_linear_53_30460)" d="M0 0h1500v1500H0z"/><defs><linearGradient id="prefix__paint0_linear_53_30460" x1="0" y1="0" x2="1500" y2="1500" gradientUnits="userSpaceOnUse"><stop stop-color="#F1FFBA"/><stop offset="1" stop-color="#65DCBA"/></linearGradient></defs>
      <g clip-path="url(#prefix__clip0_53_27836)"><path d="M295.802 1500s-47.94-91.54 28.64-134.76c0 0-62-101.54 67.13-159.88 0 0-37.4-104.09 81.15-137.65 0 0 113.278-13.21 336.278-19.21 0 0 195-18.5 274.57 12.04 0 0 45.53 20.87 73.44 127 0 0 102.26 45.87 83.4 145.87 0 0 95.08 77.12 34 166.56l-978.608.03z" fill="#A760FF"/><path d="M413.5 1436.5c-54 14.8-41.833 56.83-29 76H309c-8.833-12.83-26.5-48.1-26.5-86.5s29.667-63.33 44.5-71l-18-50c3.833-14.67 16.4-49.7 36-72.5 18.829-21.9 42.242-22.8 52.773-20.32-4.833-2.49-11.288-20.19-5.773-77.18 6-62 116.5-77.5 171-77.5l241.5-11 7 36c-17.167-2.17-61.1-4.2-99.5 5-48 11.5-80.5 77.5-76 125s48.5 68 69 76c16.4 6.4 11.5 13.67 7 16.5-49.667-3.83-159.1-14.1-199.5-24.5-50.5-13-74.5 13.5-92 47s3 79 17.5 92c11.6 10.4 7.5 15.67 4 17h-28.5zM678.5 1465.5c-20-4.8-18.667-17-15.5-22.5l169.5 1.5 157-10.5c19 28-73 38.5-157 41s-129-3.5-154-9.5zM913 1321.5c-15.2-3.6-15-12.83-13-17l49-6.5c2.333-3.33 20.5-12.3 74.5-21.5s109.83-61.5 131-86.5l25.5 11.5c-14.33 17-57.5 58.1-115.5 86.5-72.5 35.5-132.5 38-151.5 33.5zM1179.5 1422.5c-23.2 0-24-9.67-21.5-14.5 37.6-11.6 66.67-41.83 76.5-55.5 8.5-9.83 24.8-22.5 22 5.5-3.5 35-48 64.5-77 64.5z" fill="#001647" fill-opacity=".2"/><path d="M844.66 1500h-20.53l-3.2-51.29-16.43-263.08 20.45-1.27 5.2 83.24 14.51 232.4z" fill="#000"/><path d="M391.57 1205.36s113.92 99.14 315.74 99.14M909.141 1304.5S1033 1306.4 1157 1187.57M324.441 1357.16s36.7 65.24 111 80.93M1240.39 1333.44s0 48.45-73.06 70.34M834.691 1448.75c43.06-1.7 107.46-6.84 146-15M673.09 1443.87s71.64 5.43 147.84 4.84" stroke="#000" stroke-width="20" stroke-miterlimit="10" stroke-linecap="round"/><path d="M1084.5 1337c12.33 37 29.5 110.3 43.5 175.5m-646.5 0c.333-32.83 7.7-107.6 20.5-157M301.5 1508.5c-25.5-42-37.6-117.3 23-149.5m0 0c-22-46-25-128.1 67-152.5m-67 152.5c11.333 20.83 47.5 64.6 110.5 79m-43.5-231.5c-10.5-36.17-17.4-111.6 71-136 53.112-14.66 199.972-21.87 344-24.82m-415 160.82c38.167 32.17 156.3 99.1 315.5 97.5m450-116c-10.37-60.53-39.49-100.92-65.94-123.9-17.73-15.41-41.66-19.79-65.15-19.96-61.49-.42-140.02-.09-219.41 1.54M1157 1188c35.17 12.5 94.3 55.9 83.5 145.5M1157 1188c-97.6 94-206 116.5-248 116m331.5 29.5c35.83 26.17 81.7 104.2 28.5 180m-28.5-180c-4.8 43.2-51.67 65.33-74.5 71m-330.5 109l-29-467.82M672 1444c61.333 6.17 208.7 12.7 307.5-10.5" stroke="#000" stroke-width="20" stroke-linecap="round"/></g><defs><clipPath id="prefix__clip0_53_27836"><path fill="#fff" d="M0 0h1500v1500H0z"/></clipPath></defs>
      <g clip-path="url(#prefix__clip0_299_662)"><path d="M775 1185c231.41 0 419-168.12 419-375.5 0-207.383-187.59-375.5-419-375.5-231.407 0-419 168.117-419 375.5 0 207.38 187.593 375.5 419 375.5z" fill="#ABF"/><path d="M457.5 796c7.6 194 131.833 327.5 193 370l-130-55.5L438 1034l-57.5-89.5-27-106 11-104L394 662l45-82.5 83.5-69.5 109-54.182 28.5-1C569.452 513.314 451.119 633.132 457.5 796z" fill="#001647" fill-opacity=".2"/><path d="M775 1185c231.41 0 419-168.12 419-375.5 0-207.383-187.59-375.5-419-375.5-231.407 0-419 168.117-419 375.5 0 207.38 187.593 375.5 419 375.5z" stroke="#000" stroke-width="20"/></g><defs><clipPath id="prefix__clip0_299_662"><path fill="#fff" d="M0 0h1500v1500H0z"/></clipPath></defs>
      <g clip-path="url(#prefix__clip0_53_29261)"><path d="M761.369 722.219a74.743 74.743 0 00-74.67 74.67 10.671 10.671 0 0021.33 0 53.344 53.344 0 0191.31-38.188 53.341 53.341 0 0115.36 38.188 31.999 31.999 0 01-54.627 22.627 32 32 0 01-9.373-22.627c-.041-1.427.2-2.847.71-4.18a10.68 10.68 0 012.3-3.58 10.659 10.659 0 0117.6 3.58 10.64 10.64 0 01.72 4.18 10.67 10.67 0 1021.34 0 32.003 32.003 0 00-9.372-22.628 32.003 32.003 0 00-45.255 0 32.004 32.004 0 00-9.373 22.628 53.333 53.333 0 0053.33 53.33 53.33 53.33 0 0053.33-53.33 74.738 74.738 0 00-74.66-74.67zM1048.37 722.219a74.743 74.743 0 00-74.671 74.67 10.671 10.671 0 0021.33 0 53.354 53.354 0 013.848-20.636 53.313 53.313 0 0111.513-17.552 53.28 53.28 0 0117.39-11.752 53.352 53.352 0 0141.17 0 53.385 53.385 0 0117.39 11.752 53.414 53.414 0 0111.51 17.552 53.227 53.227 0 013.85 20.636 32 32 0 01-32 32 32 32 0 01-32-32c-.06-1.789.34-3.563 1.15-5.159.81-1.596 2-2.963 3.48-3.974a10.664 10.664 0 0110.19-1.017c1.32.557 2.51 1.376 3.51 2.407a10.68 10.68 0 012.28 3.593c.52 1.331.76 2.752.72 4.18 0 2.83 1.12 5.544 3.12 7.545a10.697 10.697 0 007.55 3.125c2.83 0 5.54-1.124 7.54-3.125a10.637 10.637 0 003.13-7.545 31.999 31.999 0 00-32-32 31.999 31.999 0 00-32 32 53.337 53.337 0 0015.62 37.71 53.336 53.336 0 0037.71 15.62c14.14 0 27.71-5.619 37.71-15.62a53.337 53.337 0 0015.62-37.71 74.736 74.736 0 00-21.89-52.776 74.731 74.731 0 00-52.77-21.894v-.03z" fill="#000"/><path d="M912.5 1068.5c32.585 0 59-26.42 59-59 0-32.585-26.415-59-59-59s-59 26.415-59 59c0 32.58 26.415 59 59 59z" fill="#fff" stroke="#000" stroke-width="20" stroke-miterlimit="10"/></g><defs><clipPath id="prefix__clip0_53_29261"><path fill="#fff" d="M0 0h1500v1500H0z"/></clipPath></defs>
      <g clip-path="url(#prefix__clip0_53_27350)"><path d="M695 882.421v6.14a7.746 7.746 0 01-.67 3.22c-1.26 2.86-3.34 3-3.34 3a7.817 7.817 0 01-6.39-1.32c-2.64-2.11-9.24-20.21-9.24-20.21l-12.71 20.21H654l17.8-28.21-5.59-11.59a4.654 4.654 0 00-4.07-2.64H662a4.724 4.724 0 00-4.13 1.7c-.89.89-1.21 3.78-1.21 3.78l-1.78.13a22.972 22.972 0 01-.13-5.28 7.776 7.776 0 011.34-3.76 5.694 5.694 0 014.83-2.61 7.816 7.816 0 014.51 1.43 8.67 8.67 0 013 3.74l5.26 13.05 11.44-17.4H693l-15.8 24.51 3.94 9.32s3 9 7.31 9 4.71-6.22 4.71-6.22l1.84.01z" fill="#000"/></g><defs><clipPath id="prefix__clip0_53_27350"><path fill="#fff" d="M0 0h1500v1500H0z"/></clipPath></defs>
      <g clip-path="url(#prefix__clip0_53_26093)"><path d="M1324.57 565.17c-9.32 17.15-37.98 54.33-160.57 81.33-14-25.5-30.5-51-46-68l-142.22 10.74L603.5 629l-173.12 32.64-50-1.87L366.7 692c-4.54 9.61-7 22.58-10.66 32.43-50.35-.82-147.84-11.24-174.84-44.9-6.52-8.12-4.78-34.69-2.12-45.54 2.31-9.44 24.84-31 82.25-55.86 37.48-16.22 83.53-26.88 146.32-42.31 26.47-6.5 51.19-12.43 76-17.54L511 508.5l239-30 263.5-9.5 41.53 2.56c67.89.88 109.14 5.87 153.79 13.17 86 14 114.51 49 118.82 65.46l.17.66.25.65s1.05 5.4-3.49 13.67z" fill="#3A3A3A"/><path d="M434 462.75V518l220.44-30.86L1036 469.72 1023.72 408l-220.44 11-118.15 8.46L434 462.75z" fill="#FF6247"/><path d="M427.5 193l8 271.5L610 436l215.5-22.5L1027 404 951 94l-32-19-162.5-12L610 83.5l-127.5 40-55 27V193z" fill="#3A3A3A"/><path d="M540.5 504c-28.8-106.8-28.667-306.167-25-392.5-4.167 2-18.3 7.6-41.5 14s-42 32.667-48.5 45L434 526l-85 23.5c-68.5 16.833-198.6 64.2-171 119 27.6 54.8 131.833 59.5 180.5 55l23.5-63 82-9c51.2-74.8 252.333-147.833 346.5-175l-270 27.5zM1215 628c-2.8-40.4-67.17-49.5-99-49 13.2 12 33.83 49.333 42.5 66.5L1215 628z" fill="#000" fill-opacity=".2"/><path d="M382.87 669.459s367-91 735-81M371.311 730s-218.4 5-196-86.57c22.4-91.57 448.87-153.27 448.87-153.27s667.689-74.76 701.309 53.3c0 0 35.38 63-173.2 107.67" stroke="#000" stroke-width="20" stroke-miterlimit="10"/><path d="M430.2 522.25l-5-336.25c0-10 1.21-19.65 6.25-28.11A46.002 46.002 0 01453.2 139l30.47-12.71c143.44-59.78 280.81-77.83 434-52.08a46.003 46.003 0 0137.44 36.25l86.14 358M434 468s259.7-66.27 599-62.87" stroke="#000" stroke-width="20" stroke-miterlimit="10"/></g><defs><clipPath id="prefix__clip0_53_26093"><path fill="#fff" d="M0 0h1500v1500H0z"/></clipPath></defs>
      
    </g>
    </svg>