<svg
      xmlns="http://www.w3.org/2000/svg"
      preserveAspectRatio="xMidYMin meet"
      fill="none"
      viewBox="0 0 1500 1500"
    >
      <g>
      <path fill="url(#prefix__paint0_linear_53_30460)" d="M0 0h1500v1500H0z"/><defs><linearGradient id="prefix__paint0_linear_53_30460" x1="0" y1="0" x2="1500" y2="1500" gradientUnits="userSpaceOnUse"><stop stop-color="#F1FFBA"/><stop offset="1" stop-color="#65DCBA"/></linearGradient></defs>
      <g clip-path="url(#a)"> <path fill="#F8CF47" d="M1262.8 1506.5H289.2l3.7-72.5 22.2-107.3L351 1204l56.5-72.5s33.8-23.9 98.5-52 225-35.5 225-35.5 187.3-9 340.5 50.5c153.2 59.6 191.3 412 191.3 412Z"/> <path fill="#000" fill-rule="evenodd" d="m973.8 1356.7 18 2.6 11.2-18-4-2.8 3.2-4.6-4-2.8-3 4.9-4-2.8-7 11-11.4-1.8-8.9-26.4-3.6 1 3.4 9.5-5.3 1.5-3.5-9.4-3.9 1 7.7 21.3-17.5-2.6-11.2 18 4 2.8-3 4.8 4 2.8 2.8-5 3.8 2.5 7-11.3 11.2 1.5.8 7.7-17.3 9 2 20.5h4.6l.6 6.4h4.5l-.6-6.2h4.5l-1.2-11.7 11-5.7 12 5.7 1.2 11.8h4.5l.6 6.1h4.5l-.6-6.2h4.7l-2-20.5-19.2-9.2-.6-5.4Zm-1-10 13.5 2.1 6.2-10 .5.3 4 2.8.6.2-8 12.9-16.2-2.4-.6-5.8Zm-26.3 2.1-6.2 10-4.9-3.3 8-12.8 15.5 2.3.6 5.8-13-2Zm43.8 24.9 1.4 14H986l-1-10.2-16.4-7.7-14.7 7.7 1 10.3h-6l-1.3-13.9 17.3-9-2.2-23.5-3.4-9.5 5.3-1.6 3.7 11.6 2.3 22.8 19.7 9Z" clip-rule="evenodd"/> <path stroke="#000" stroke-linecap="round" stroke-miterlimit="10" stroke-width="20" d="m807.8 1194.5 10 141.8m-41.8-16.8c0-.6.5-1.1 1-1.1m1.2 1a1 1 0 1 1-2.2 0 1 1 0 0 1 2.2 0Zm-2.2-37.1c0-.6.5-1.1 1-1.1m1.2 1a1 1 0 1 1-2.2 0 1 1 0 0 1 2.2 0Zm-2.2-37.1c0-.6.5-1 1-1m1.2 1a1 1 0 1 1-2.2 0 1 1 0 0 1 2.2 0Z"/> <path stroke="#000" stroke-linecap="round" stroke-width="20" d="M289.5 1512.5c-6-101.5 31-323 140.5-398 158.5-108.5 616.5-87 706.5 26 65 81.5 99.5 222.5 132.5 371M1084.5 1337c12.3 37 29.5 110.3 43.5 175.5m-646.5 0c.3-32.8 7.7-107.6 20.5-157"/> <path fill="#4AEEB9" d="m467.6 1110.5 7.4-39 62.5-15.5 72-5.5 53-8h147l104.5 8 107 8.1 53.6 19-3.8 40.8-21.3 55-90.7 68.1-76.5 24.3-62.8-69.8a20 20 0 0 0-31.6 2.5l-44 67.3-58.9 2.7-143.7-46.2-68.6-65.1-5.1-46.7Z"/> <path stroke="#000" stroke-width="20" d="M535 1214c-83.6-40.4-76.5-113.2-62.5-144.5 266-49.2 513.5-20.2 604 .5 21.4 119.7-113.1 181.3-188.3 198.7-3.5.9-7.2-.4-9.6-3.2l-54.1-62.5a21 21 0 0 0-32.3.6l-50 62.4c-2 2.5-5 4-8.3 3.7A610.8 610.8 0 0 1 535 1214Z"/> <path fill="#001647" fill-opacity=".2" d="M489 1227.5c-82.4 87.6-103 222.5-103 279h-97l5.5-106.5c6.7-44.8 30.2-150.7 71-215.5 40.8-64.8 83-83 99-84l9-27h22L547 1062l151-16.5h113.5c-160.4 46.4-265.5 121.3-298 153l120 56.5 103 23.5c-123.6 19.6-216.5-25.8-247.5-51Zm370.2 48.3-44.2-46.3-3-28.5 74.5 69c-.4 2.8-4.2 6-8.5 8.8-6 4-13.8 2.2-18.8-3Z"/> </g> <defs> <clipPath id="a"> <path fill="#fff" d="M0 0h1500v1500H0z"/> </clipPath> </defs>
      <g clip-path="url(#prefix__clip0_299_662)"><path d="M775 1185c231.41 0 419-168.12 419-375.5 0-207.383-187.59-375.5-419-375.5-231.407 0-419 168.117-419 375.5 0 207.38 187.593 375.5 419 375.5z" fill="#ABF"/><path d="M457.5 796c7.6 194 131.833 327.5 193 370l-130-55.5L438 1034l-57.5-89.5-27-106 11-104L394 662l45-82.5 83.5-69.5 109-54.182 28.5-1C569.452 513.314 451.119 633.132 457.5 796z" fill="#001647" fill-opacity=".2"/><path d="M775 1185c231.41 0 419-168.12 419-375.5 0-207.383-187.59-375.5-419-375.5-231.407 0-419 168.117-419 375.5 0 207.38 187.593 375.5 419 375.5z" stroke="#000" stroke-width="20"/></g><defs><clipPath id="prefix__clip0_299_662"><path fill="#fff" d="M0 0h1500v1500H0z"/></clipPath></defs>
      <g clip-path="url(#prefix__clip0_53_29421)"><path d="M914.5 1067.2a53.704 53.704 0 0049.612-33.15 53.7 53.7 0 00-39.136-73.217 53.701 53.701 0 00-55.126 22.834 53.696 53.696 0 00-4.962 50.383 53.569 53.569 0 0011.64 17.42 53.673 53.673 0 0017.422 11.64 53.676 53.676 0 0020.55 4.09z" fill="#fff" stroke="#000" stroke-width="20" stroke-miterlimit="10" stroke-linecap="round"/><path d="M764.05 841.24c31.336 0 56.74-25.404 56.74-56.74 0-31.337-25.404-56.74-56.74-56.74-31.337 0-56.74 25.403-56.74 56.74 0 31.336 25.403 56.74 56.74 56.74zM1048.19 841.24c31.34 0 56.74-25.404 56.74-56.74 0-31.337-25.4-56.74-56.74-56.74-31.34 0-56.74 25.403-56.74 56.74 0 31.336 25.4 56.74 56.74 56.74z" fill="#fff" stroke="#000" stroke-width="20" stroke-miterlimit="10"/><path d="M764.05 797.5c7.18 0 13-5.82 13-13s-5.82-13-13-13-13 5.82-13 13 5.82 13 13 13zM1048.19 797.5c7.18 0 13-5.82 13-13s-5.82-13-13-13-13 5.82-13 13 5.82 13 13 13z" fill="#000"/></g><defs><clipPath id="prefix__clip0_53_29421"><path fill="#fff" d="M0 0h1500v1500H0z"/></clipPath></defs>
      <g clip-path="url(#prefix__clip0_53_26664)"><path d="M1086 1014c0 39.21-75.66 71-169 71-93.336 0-169-31.76-169-71 0-39.241 75.664-101 169-101 93.34 0 169 61.788 169 101z" fill="#ABF"/><path d="M797.83 990.76s-2.26-46.71 35.63-47.76l12.4-.07 3.7 53.67-51.73-5.84zM796.078 999.77h59.58l3.78 54.84-37.21-2.24-13.26-25.18-12.89-27.42z" fill="gold"/><path d="M845.859 942.93l34.49 8.62 26.47-3.52 5.08 50.29-56.24 1.45-9.8-56.84z" fill="gold"/><path d="M910.488 947.172h68.54l.03 51.15h-67.16l-1.41-51.15zM983.589 944.871l17.001 2.3 24.03 9.66 9.05 28.5-.91 12.99h-53.701l4.53-53.45z" fill="gold"/><path d="M849.559 996.602l62.34 1.72 7.38 54.048-59.84 2.24-9.88-58.008zM918.461 999.77h64.2l-8.03 54.84-55.35-2.24-.82-52.6z" fill="gold"/><path d="M975.289 994.512l63.171 5.26-6.4 30.408-34.761 26.48-17.86-2.05-4.15-60.098z" fill="gold"/><path d="M797.489 985.841c-1.87-27.17 21.28-47.59 48.37-42.91 20 3.45 43.93 5.16 69 5.16s48.63-1.84 68.06-5.36c26.511-4.82 52.631 15.6 54.521 42.87l1.08 15.709c2 29.44-20.17 53.3-49.601 53.3h-133.4c-29.43 0-54.94-23.86-57-53.3l-1.03-15.469zM798.352 998.309h234.408M912.512 954.172l6.78 98.198M845.031 947.172l14.26 105.198M979.031 947.172l.26 105.198" stroke="#000" stroke-width="20" stroke-miterlimit="10"/><path d="M830.5 966l2 14m63-13l1 14m-59 37l2 14m60-15l1 14m61-65v15m0 36v18m56-59v6m0 35v7" stroke="#fff" stroke-width="8" stroke-linecap="round"/></g><defs><clipPath id="prefix__clip0_53_26664"><path fill="#fff" d="M0 0h1500v1500H0z"/></clipPath></defs>
      <g clip-path="url(#a)"> <path fill="#3A3A3A" d="m500.5 506.5-86.7 95.8-7.6 25.9-16.5-13v21.3l-14.2 29-6.5 26-5.9 13.5v27.4l137.4-36 281.9-43.8 203.1-20.4 163.5 6.4-33.6-56.8-44.6-50.8-54.2-42.4-85.2-40.4-124-19L652 439.8l-151.5 66.8Z"/> <path fill="#000" fill-opacity=".2" d="M692 440c-99.6 64.8-158.8 200-176 259.5L358.5 723c5.8-27.8 34.4-102.3 102-177.5S643 443.8 692 440Z"/> <path stroke="#000" stroke-linecap="round" stroke-miterlimit="10" stroke-width="20" d="M365.8 728.5C438.7 708.9 866 599.4 1145 639a6.9 6.9 0 0 0 7.8-6.6c0-1.3-.3-2.6-1-3.7-30.3-49.7-159.9-231.8-425.3-200-291 35-357.4 241.3-369.3 291.5a6.7 6.7 0 0 0 1.9 6.5 6.9 6.9 0 0 0 6.5 1.7h0Z"/> </g> <defs> <clipPath id="a"> <path fill="#fff" d="M0 0h1500v1500H0z"/> </clipPath> </defs>
      
    </g>
    </svg>