<svg
      xmlns="http://www.w3.org/2000/svg"
      preserveAspectRatio="xMidYMin meet"
      fill="none"
      viewBox="0 0 1500 1500"
    >
      <g>
      <path fill="url(#prefix__paint0_linear_53_30463)" d="M0 0h1500v1500H0z"/><defs><linearGradient id="prefix__paint0_linear_53_30463" x1="1500" y1="1500" x2="0" y2="0" gradientUnits="userSpaceOnUse"><stop stop-color="#FF5A5A"/><stop offset="1" stop-color="#FFBDBD"/></linearGradient></defs>
      <g clip-path="url(#a)"><path fill="#99C4CB" d="M1263 1509H289l4-75 22-108 15-60 31-63 50-79s46-15 111-43c64-28 204-38 204-38s196-6 350 54c153 59 187 412 187 412Z"/><path fill="#001647" fill-opacity=".2" d="M500 1214a430 430 0 0 0-113 311l-100-13c-2-111 39-248 60-302l39-53 16-20 66-43c150-60 294-55 348-45-63 13-215 65-316 165Z"/><path fill="#000" d="M681 1405v-1 18-17Z"/><path fill="#97A5DE" d="M762 1362h-1 1Z"/><path stroke="#000" stroke-linecap="round" stroke-width="20" d="M290 1513c-6-102 31-323 140-398 159-109 617-87 707 26 64 81 99 222 132 371m-184-175c12 37 29 110 43 176m-646 0c0-33 7-108 20-157"/><path fill="#000" d="M949 1410c2 67-72 102-125 64l-13-11h-1c-9 11-21 20-35 24-48 15-101-29-94-80 3-30 26-53 53-60-11-64 54-104 110-71a80 80 0 0 1 32 50c39 9 70 33 73 84Z"/><path fill="#97A5DE" fill-rule="evenodd" d="m815 1279 1 1 8 2a60 60 0 0 1 27 23 58 58 0 0 1 9 20l-1 1h-2l-5 1a67 67 0 0 0-18 4 74 74 0 0 0-35 29l-1 3-1 1-1-1a61 61 0 0 0-12-8 84 84 0 0 0-26-9h-6v-1h-1v-4h-1v-17a47 47 0 0 1 6-18 51 51 0 0 1 41-28h6l6 1a38 38 0 0 1 6 1v-1Zm65 65h1a74 74 0 0 1 32 18 63 63 0 0 1 12 16 69 69 0 0 1 9 25v16a60 60 0 0 1-55 54h-11a51 51 0 0 1-13-2 72 72 0 0 1-34-21v-1h-1v-1l-1-1-1-1h1v-1a72 72 0 0 0 4-19v-13l-1-2a66 66 0 0 0-3-15 77 77 0 0 0-7-14l-3-5c-1 0-1 0 0 0v-2l1-2a52 52 0 0 1 11-14 65 65 0 0 1 22-13 62 62 0 0 1 23-4h6a58 58 0 0 1 8 2Zm-107 23 12 8a59 59 0 0 1 18 24 49 49 0 0 1 4 14v14l-2 7a51 51 0 0 1-43 39h-13l-5-1a55 55 0 0 1-19-7l-8-6-5-4a59 59 0 0 1-14-24l-1-2v-1l-1-7a60 60 0 0 1 0-18 58 58 0 0 1 6-16 55 55 0 0 1 19-19 49 49 0 0 1 16-6h5a66 66 0 0 1 11 0l11 1 9 4Z" clip-rule="evenodd"/><path fill="#000" d="M874 1415a22 22 0 0 1 17 8 22 22 0 0 1 6 12v5l-1 6-5 7-9 5-3 1h-2c-4 0-8-1-11-3a23 23 0 0 1-12-18c-1-4 0-7 1-10 2-5 5-8 10-11l7-2h2ZM749 1418c0 4-1 8-3 11s-5 6-8 7c-3 2-5 3-8 3a23 23 0 0 1-22-11l-2-6-1-5a20 20 0 0 1 18-21l5-1 6 2a23 23 0 0 1 15 21Z"/><path fill="#7985B4" d="M876 1446c-3 0-5-1-7-3s-3-3-3-6a8 8 0 0 1 7-9c3 0 5 0 7 2 2 1 3 3 3 5 2 4 0 8-3 10l-4 1ZM735 1418c0 3-1 5-3 7l-6 1c-3 0-5-2-6-4l-2-5a8 8 0 0 1 6-8c4 0 6 1 9 3l2 4v2Z"/></g><defs><clipPath id="a"><path fill="#fff" d="M0 0h1500v1500H0z"/></clipPath></defs>
      <g clip-path="url(#prefix__clip0_299_662)"><path d="M775 1185c231.41 0 419-168.12 419-375.5 0-207.383-187.59-375.5-419-375.5-231.407 0-419 168.117-419 375.5 0 207.38 187.593 375.5 419 375.5z" fill="#ABF"/><path d="M457.5 796c7.6 194 131.833 327.5 193 370l-130-55.5L438 1034l-57.5-89.5-27-106 11-104L394 662l45-82.5 83.5-69.5 109-54.182 28.5-1C569.452 513.314 451.119 633.132 457.5 796z" fill="#001647" fill-opacity=".2"/><path d="M775 1185c231.41 0 419-168.12 419-375.5 0-207.383-187.59-375.5-419-375.5-231.407 0-419 168.117-419 375.5 0 207.38 187.593 375.5 419 375.5z" stroke="#000" stroke-width="20"/></g><defs><clipPath id="prefix__clip0_299_662"><path fill="#fff" d="M0 0h1500v1500H0z"/></clipPath></defs>
      <g clip-path="url(#prefix__prefix__clip0_53_29477)"><path d="M1046 825a40.998 40.998 0 0037.88-25.31 41.043 41.043 0 002.33-23.689 40.939 40.939 0 00-11.22-20.992 40.99 40.99 0 00-44.68-8.888 40.977 40.977 0 00-18.4 15.101 40.996 40.996 0 005.1 51.769A41.006 41.006 0 001046 825z" fill="#000"/><path d="M729.63 808.821l88.08-16a7.737 7.737 0 006.23-6.4 7.757 7.757 0 00-.73-4.64 7.674 7.674 0 00-3.27-3.35l-82.39-43.72m99.27 256.728c38.57 39.211 113.35 39.211 151.93 0" stroke="#000" stroke-width="20" stroke-miterlimit="10" stroke-linecap="round"/></g><defs><clipPath id="prefix__prefix__clip0_53_29477"><path fill="#fff" d="M0 0h1500v1500H0z"/></clipPath></defs>
      <g clip-path="url(#prefix__clip0_53_26590)"><path d="M1086 1014c0 39.21-75.66 71-169 71-93.336 0-169-31.76-169-71 0-39.241 75.664-71 169-71 93.34 0 169 31.788 169 71z" fill="#ABF"/><path d="M921 967c40.869 0 74-33.131 74-74s-33.131-74-74-74-74 33.131-74 74 33.131 74 74 74z" fill="#FF6247" stroke="#000" stroke-width="20"/><path d="M1045 1016.27c0 42.37-55.325 76.73-123.509 76.73S798 1058.63 798 1016.27v-1.64c.892-25.725 25.066-41.87 45.973-31.384 21.194 10.616 48.187 16.974 77.482 16.974 29.296 0 56.307-6.358 77.5-16.984 20.905-10.476 45.115 5.669 45.975 31.394.05.54.07 1.09.07 1.64z" fill="#fff" stroke="#000" stroke-width="20"/><ellipse cx="952.292" cy="871.799" rx="15.861" ry="31.193" transform="rotate(-31.564 952.292 871.799)" fill="#fff"/></g><defs><clipPath id="prefix__clip0_53_26590"><path fill="#fff" d="M0 0h1500v1500H0z"/></clipPath></defs>
      <g clip-path="url(#prefix__clip0_53_25357)"><path d="M350.5 673.5L367 736l65-17 358.5-64.5L1115 639l35.5-9.5-22.5-95-34.5-56.5 47.5-32.5c16.83-3 50-33.7 48-152.5s-113.83-152.17-166-152.5l-124.5 19c-22.669-23.17-95.099-68.8-203.5-66C586.6 96.3 537.171 185 526 229h-94l-65 9-74.5 49c-82.8 103.2-43.83 199.33-14 234.5L311 546l48.5 35.5v16l-9 76z" fill="#fff"/><path d="M542.5 544c-38.8 46-47.5 126.5-47 161-21.833 7.833-74.3 24.9-109.5 30.5-35.2 5.6-37.333-40.667-34-64.5l15.5-89.5-68.499-37.5c-35.5-36.167-92.2-131.9-35-225.5s196.833-98.667 259.5-89.5l50.5-86.5 64.5-42c20.833-3.667 78.3-9.4 141.5-3s110.333 44.333 126 62.5l25.5-6.5 51-9 49.999-2 44 15.5c9 8.5-.85 7.614-37.5 15.5-39.499 8.5-73.499 46-78.999 62.5-4.4 13.2-9.834 16.167-12 16l-52.5-97.5-68.5-39c-167.5-27.5-257 155.5-270 179s-14 60.5-33.5 58.5c-15.6-1.6-18.167-27-18.5-39.5l3-29.5c-39.2 2.4-67.001 57.667-75.501 83.5-22 70.8 9.167 129.167 27.5 149.5l17.5 13.5 65 13.5z" fill="#001647" fill-opacity=".2"/><path d="M739.5 436c4.4-.8 7.5 3 8.5 5l6.5 60-23.5 1.5c-.667-12.667-2-40.7-2-51.5 0-13.5 5-14 10.5-15zM999.5 423c.8-8.8 14.67-6.667 21.5-4.5-1 3.667-3 11.2-3 12 0 1-5 28-5.5 28.5s-19 22.5-19.5 23-47 2-47-2 23-7 40-21 12.5-25 13.5-36z" fill="#001647" fill-opacity=".2"/><path d="M382.59 737c85-25.64 413.43-116.38 747.51-98.23 2.53.142 5.06-.273 7.42-1.217a17.323 17.323 0 006.2-4.245 17.317 17.317 0 003.83-6.474c.78-2.412 1.03-4.966.72-7.484l-.78-6.24a252.725 252.725 0 00-37-103.69l-9-14.28a27.727 27.727 0 00-24.31-12.92c-79.46 2.44-439.92 17.49-692.24 94a27.004 27.004 0 00-18 17.85l-2.39 7.78a252.771 252.771 0 00-7.06 119.76 19.788 19.788 0 0025.1 15.39v0z" stroke="#000" stroke-width="20" stroke-miterlimit="10"/><path d="M518.49 229.919s-230.15-52.61-271.82 148.37c-26.38 127.23 60.18 181.57 127.25 204.33" stroke="#000" stroke-width="20" stroke-miterlimit="10"/><path d="M506.69 306.289s12.23-200.85 193.62-213.54C881.7 80.06 934.59 200 943.21 243.94" stroke="#000" stroke-width="20" stroke-miterlimit="10" stroke-linecap="round"/><path d="M1086.37 482.21c61.61-26.67 146.92-93 87.57-248.68 0 0-56.38-147.15-271.18-69.63" stroke="#000" stroke-width="20" stroke-miterlimit="10"/><path d="M749 447l6 59M943.21 488.94s88.35 2.83 77.29-61.94M556.82 534.94s-87 25.75-93.32-37.44" stroke="#000" stroke-width="20" stroke-miterlimit="10" stroke-linecap="round"/></g><defs><clipPath id="prefix__clip0_53_25357"><path fill="#fff" d="M0 0h1500v1500H0z"/></clipPath></defs>
      
    </g>
    </svg>