<svg
      xmlns="http://www.w3.org/2000/svg"
      preserveAspectRatio="xMidYMin meet"
      fill="none"
      viewBox="0 0 1500 1500"
    >
      <g>
      <path fill="url(#prefix__paint0_linear_53_28789)" d="M0 0h1500v1500H0z"/><defs><linearGradient id="prefix__paint0_linear_53_28789" x1="1500" y1="1500" x2="0" y2="0" gradientUnits="userSpaceOnUse"><stop stop-color="#FFD130"/><stop offset="1" stop-color="#FFEEDB"/></linearGradient></defs>
      <g clip-path="url(#prefix__clip0_53_28162)"><path d="M1265.5 1515l-976.17-4 3.73-77.49 14.44-114.01L361 1203l24.5-45 32.5-38.5s27.82-14.87 92.5-43c64.68-28.13 209-29.5 209-29.5s196.84-11.59 350 48 196 420 196 420z" fill="#FF9C07"/><path d="M500.002 1213.5c-101.2 100-117.834 249-113.5 311l-99.502-13c-1.6-110.8 39-247.5 59.5-302l39.501-52.5 15.5-20.5 66.5-42.5c149.6-59.6 294-54.83 347.5-45-63 13.17-214.299 64.5-315.499 164.5z" fill="#001647" fill-opacity=".2"/><path d="M916.27 1335.92l-94.355 107.7c-2.295 2.61-6.431 2.73-9.239.26l-115.56-101.8c-2.487-2.19-3.139-5.73-1.547-8.38l30.023-49.87c.53-.87 1.27-1.58 2.152-2.09.881-.5 1.875-.77 2.889-.79l139.951-3.94a7.303 7.303 0 013.09.65 7.172 7.172 0 012.503 1.93l39.941 47.9c2.117 2.55 2.185 6.11.152 8.43z" fill="#53B6F9"/><path d="M924.148 1325.84l-42.897-51.45a7.671 7.671 0 00-2.689-2.07 7.611 7.611 0 00-3.321-.7l-150.328 4.23c-1.09.02-2.157.31-3.104.85a6.456 6.456 0 00-2.31 2.24l-32.264 53.57c-1.713 2.86-1.007 6.65 1.658 9l124.143 109.35c3.015 2.65 7.459 2.53 9.923-.28l101.35-115.69c2.182-2.49 2.112-6.31-.166-9.05h.005zm-61.125-39.83l-20.577 34.13-27.333-32.78 47.91-1.35zm-33.683 39.58l-47.906 1.35 20.577-34.13 27.329 32.78zm-41.478-37.45l-20.577 34.13-27.333-32.78 47.91-1.35zm-61.017 6.76l27.334 32.8-47.892 1.35 20.558-34.15zm-15.836 48.06l53.164-1.49 34.646 78.83-87.81-77.34zm104.248 80.66l-36.291-82.57 55.695-1.56-19.404 84.13zm15.673-4.24l18.524-80.31 53.164-1.5-71.688 81.81zm25.684-94.56l20.577-34.13 27.315 32.79-47.892 1.34z" fill="#000"/><path d="M289.5 1512.5c-6-101.5 31-323.03 140.5-398 158.5-108.51 616.5-87 706.5 26 64.91 81.5 99.5 222.5 132.5 371M1084.5 1337c12.33 37 29.5 110.3 43.5 175.5m-646.5 0c.333-32.83 7.7-107.6 20.5-157" stroke="#000" stroke-width="20" stroke-linecap="round"/></g><defs><clipPath id="prefix__clip0_53_28162"><path fill="#fff" d="M0 0h1500v1500H0z"/></clipPath></defs>
      <g clip-path="url(#prefix__clip0_299_662)"><path d="M775 1185c231.41 0 419-168.12 419-375.5 0-207.383-187.59-375.5-419-375.5-231.407 0-419 168.117-419 375.5 0 207.38 187.593 375.5 419 375.5z" fill="#ABF"/><path d="M457.5 796c7.6 194 131.833 327.5 193 370l-130-55.5L438 1034l-57.5-89.5-27-106 11-104L394 662l45-82.5 83.5-69.5 109-54.182 28.5-1C569.452 513.314 451.119 633.132 457.5 796z" fill="#001647" fill-opacity=".2"/><path d="M775 1185c231.41 0 419-168.12 419-375.5 0-207.383-187.59-375.5-419-375.5-231.407 0-419 168.117-419 375.5 0 207.38 187.593 375.5 419 375.5z" stroke="#000" stroke-width="20"/></g><defs><clipPath id="prefix__clip0_299_662"><path fill="#fff" d="M0 0h1500v1500H0z"/></clipPath></defs>
      <g clip-path="url(#prefix__clip0_53_29343)" stroke="#000" stroke-width="20" stroke-miterlimit="10" stroke-linecap="round"><path d="M821.63 792.381a76.418 76.418 0 00-93.773-21.665 76.405 76.405 0 00-26.727 21.665M836.82 991.439c38.57 39.211 113.35 39.211 151.93 0M1109.25 792.381a76.451 76.451 0 00-26.73-21.665 76.39 76.39 0 00-33.52-7.745 76.425 76.425 0 00-60.25 29.41"/></g><defs><clipPath id="prefix__clip0_53_29343"><path fill="#fff" d="M0 0h1500v1500H0z"/></clipPath></defs>
      <g clip-path="url(#a)"><path fill="#ABF" d="M1086 1007c0 43.08-75.66 78-169 78-93.336 0-169-34.89-169-78s75.664-98 169-98c93.34 0 169 54.922 169 98Z"/><path fill="#9E6740" d="m1076 1151.93 33.18-23.07 12.54-9.38 33.85 19.09 5.99 15.71 2.2-9.48 20.83-34.8s27.61 27.46 73.03 22.98c45.43-4.48 40.73-17.59 40.73-17.59l13.65 63.17s1.86 93.04-75.43 95.36c-77.3 2.33-121.92-47.19-121.92-47.19l-38.65-74.8Z"/><path fill="#72411F" d="M1297.3 1111.76c1.48-11.32-21.62-23.69-51.61-27.63-29.99-3.94-55.51 2.05-57 13.37-1.48 11.33 21.62 23.7 51.61 27.64 29.99 3.93 55.51-2.05 57-13.38Z"/><path fill="#3A3A3A" d="M920.5 1012s63.443 3.62 86 33c22.56 29.38 37.64 41.69 37.64 41.69l14.47 21.31s34.8-8.44 36.39-20.51l-44.45-47.01-37.86-25.09-48.2-13.21-27.507-2.18-16.483 12Z"/><path fill="#FFBF44" d="m1058 1108.21 38.93-24.21 27.07 34.76-49.9 34.24-16.1-44.79Z"/><path stroke="#000" stroke-linecap="round" stroke-miterlimit="10" stroke-width="20" d="M1160.1 1152.41c2.87-27.52 29.89-55.03 29.89-55.03 15.81-18.64 43.4-18.64 43.4-18.64 17.6-.4 31.12 2.57 41.23 6.52a50.061 50.061 0 0 1 19.09 13.48 49.885 49.885 0 0 1 10.87 20.65c41.73 161.5-85.23 154.57-85.23 154.57-116.7-7.45-119.06-81.11-158.15-161.35-39.08-80.24-127.2-98.26-127.2-98.26l24.865-8.35s63.965 3.57 119.235 57.48c24 23.42 36.87 61.5 69.09 70.78 4.83 1.39 10.27 2.53 16.42 3.32"/><path fill="#001647" fill-opacity=".2" d="M1182.42 1151.2c-8.08 7.43-17.96 3.09-21.89 0l2.95-9.29 10.1-13 13.89-23.03c7.29 4.08 19.7 13 14.99 15.97-5.89 3.71-9.94 20.06-20.04 29.35Z"/><path fill="#001647" fill-opacity=".2" d="M1070.57 1097c2.57 1.5 4.15 2.56 5.04 3.22-1.06-1.17-2.61-3.49-2.61-6.72 0-3.83 2.16-1.29 4.36 2 39.18 58.54 60.44 152.32 140.93 149.51 68.01-2.38 82-26.73 87.63-41.57 2.11 27.86-33.66 76.22-108.41 71.17-74.75-5.05-95.44-77.71-118.86-120.18l-5.65-26.27-15.5-22.28 1.5-3.38h4.5l7.07-5.5ZM1243.44 1128.16c-26.6-2.08-46.15-20.43-52.61-29.34l1.27-4.83 37.45-11.61 37.53 2.23 33.73 22.53c-5.62 5.45-30.77 23.11-57.37 21.02Z"/><path fill="#120701" fill-opacity=".2" d="M954 1008.5c60.4 12.8 104.83 61 119.5 83.5l-10.5 16-6.5-16-69-56-33.5-27.5Z"/><path stroke="#000" stroke-linecap="round" stroke-miterlimit="10" stroke-width="20" d="M1061 1108s20.72-6.16 30-24M1084 1145s25.15-8.2 35-27M827.5 1005s57.16 25.28 115-4.5c33.57-22.61 73-21.1 73-21.1M1299.01 1110.23c-1.53 13.97-28.09 26.64-58.12 23.37-30.03-3.27-53.14-21.27-50.61-35.21"/></g><defs><clipPath id="a"><path fill="#fff" d="M0 0h1500v1500H0z"/></clipPath></defs>
      <g clip-path="url(#a)"> <path fill="#3A3A3A" d="m500.5 506.5-86.7 95.8-7.6 25.9-16.5-13v21.3l-14.2 29-6.5 26-5.9 13.5v27.4l137.4-36 281.9-43.8 203.1-20.4 163.5 6.4-33.6-56.8-44.6-50.8-54.2-42.4-85.2-40.4-124-19L652 439.8l-151.5 66.8Z"/> <path fill="#000" fill-opacity=".2" d="M692 440c-99.6 64.8-158.8 200-176 259.5L358.5 723c5.8-27.8 34.4-102.3 102-177.5S643 443.8 692 440Z"/> <path stroke="#000" stroke-linecap="round" stroke-miterlimit="10" stroke-width="20" d="M365.8 728.5C438.7 708.9 866 599.4 1145 639a6.9 6.9 0 0 0 7.8-6.6c0-1.3-.3-2.6-1-3.7-30.3-49.7-159.9-231.8-425.3-200-291 35-357.4 241.3-369.3 291.5a6.7 6.7 0 0 0 1.9 6.5 6.9 6.9 0 0 0 6.5 1.7h0Z"/> </g> <defs> <clipPath id="a"> <path fill="#fff" d="M0 0h1500v1500H0z"/> </clipPath> </defs>
      
    </g>
    </svg>