<svg
      xmlns="http://www.w3.org/2000/svg"
      preserveAspectRatio="xMidYMin meet"
      fill="none"
      viewBox="0 0 1500 1500"
    >
      <g>
      <path fill="url(#prefix__paint0_linear_53_30463)" d="M0 0h1500v1500H0z"/><defs><linearGradient id="prefix__paint0_linear_53_30463" x1="1500" y1="1500" x2="0" y2="0" gradientUnits="userSpaceOnUse"><stop stop-color="#FF5A5A"/><stop offset="1" stop-color="#FFBDBD"/></linearGradient></defs>
      <g clip-path="url(#prefix__clip0_53_28724)"><path d="M288.689 1505.57l13.36-113.94 184.06 50.77-2.67 63.17h-194.75zM1108.09 1432.16l14.41 71.69h142.41l-32.7-113.79-124.12 42.1z" fill="#ABF"/><path d="M303.471 1382.79L325 1260l56-105.5s64.91-55.22 110.5-71c0 0 87.12-38.32 292.5-41 205.38-2.68 276 52.5 276 52.5l58.65 30.23 39.22 52.98 39.13 78.97 38.22 131.86-127.13 39.32 14.41 72.47-643.659 1.15 7.27-66.62-182.64-52.57z" fill="#FF6247"/><path d="M500.002 1213.5c-101.2 100-117.834 249-113.5 311l-99.502-13c-1.6-110.8 39-247.5 59.5-302l39.501-52.5 15.5-20.5 66.5-42.5c149.6-59.6 294-54.83 347.5-45-63 13.17-214.299 64.5-315.499 164.5z" fill="#001647" fill-opacity=".2"/><path d="M825.82 1451.4l45.14-36.92-63.72-69.17-62.55 51.19-87.69-95.16 30.9-25.34 64 69.42 62.53-51.13 87.53 94.78 45.18-36.92-14.09 100.13-107.23-.88z" fill="#fff"/><path d="M289.5 1512.5c-1.965-33.24.683-79.37 8.981-129m970.519 128c-9.49-42.7-19.11-84.78-29.54-125M1084.5 1337c7.13 21.39 15.88 54.92 24.69 92m18.81 83.5c-5.91-27.5-12.37-56.45-18.81-83.5m-627.69 83.5c.172-16.93 2.213-45 5.905-75m14.595-82c-6.201 23.93-11.126 53.81-14.595 82m-188.924-54c17.035-101.9 57.885-218.59 131.519-269 158.5-108.51 616.5-87 706.5 26 46.24 58.07 77.1 146.33 102.96 246m-940.979-3l188.924 54m621.785-8.5l130.27-42.5" stroke="#000" stroke-width="20" stroke-linecap="round"/></g><defs><clipPath id="prefix__clip0_53_28724"><path fill="#fff" d="M0 0h1500v1500H0z"/></clipPath></defs>
      <g clip-path="url(#prefix__clip0_299_662)"><path d="M775 1185c231.41 0 419-168.12 419-375.5 0-207.383-187.59-375.5-419-375.5-231.407 0-419 168.117-419 375.5 0 207.38 187.593 375.5 419 375.5z" fill="#ABF"/><path d="M457.5 796c7.6 194 131.833 327.5 193 370l-130-55.5L438 1034l-57.5-89.5-27-106 11-104L394 662l45-82.5 83.5-69.5 109-54.182 28.5-1C569.452 513.314 451.119 633.132 457.5 796z" fill="#001647" fill-opacity=".2"/><path d="M775 1185c231.41 0 419-168.12 419-375.5 0-207.383-187.59-375.5-419-375.5-231.407 0-419 168.117-419 375.5 0 207.38 187.593 375.5 419 375.5z" stroke="#000" stroke-width="20"/></g><defs><clipPath id="prefix__clip0_299_662"><path fill="#fff" d="M0 0h1500v1500H0z"/></clipPath></defs>
      <g clip-path="url(#prefix__clip0_53_29369)" stroke="#000" stroke-width="20" stroke-miterlimit="10"><path d="M729.63 808.821l88.08-16a7.737 7.737 0 006.23-6.4 7.757 7.757 0 00-.73-4.64 7.674 7.674 0 00-3.27-3.35l-82.39-43.72M1087 808.821l-87.999-16a7.71 7.71 0 01-6.23-6.4 7.784 7.784 0 01.72-4.63 7.65 7.65 0 013.28-3.36l82.389-43.72" stroke-linecap="round"/><path d="M1000 1001.64c0 35-39.4 63.36-88 63.36s-88-28.36-88-63.36a47.358 47.358 0 014.59-20.231c6.41-13.7 21-19 33.42-12.86 14.2 7.07 31.42 11.21 50 11.21s35.79-4.14 50-11.21c12.4-6.18 27-.84 33.42 12.86a47.337 47.337 0 014.57 20.231z" fill="#fff"/></g><defs><clipPath id="prefix__clip0_53_29369"><path fill="#fff" d="M0 0h1500v1500H0z"/></clipPath></defs>
      <g clip-path="url(#prefix__clip0_53_27350)"><path d="M695 882.421v6.14a7.746 7.746 0 01-.67 3.22c-1.26 2.86-3.34 3-3.34 3a7.817 7.817 0 01-6.39-1.32c-2.64-2.11-9.24-20.21-9.24-20.21l-12.71 20.21H654l17.8-28.21-5.59-11.59a4.654 4.654 0 00-4.07-2.64H662a4.724 4.724 0 00-4.13 1.7c-.89.89-1.21 3.78-1.21 3.78l-1.78.13a22.972 22.972 0 01-.13-5.28 7.776 7.776 0 011.34-3.76 5.694 5.694 0 014.83-2.61 7.816 7.816 0 014.51 1.43 8.67 8.67 0 013 3.74l5.26 13.05 11.44-17.4H693l-15.8 24.51 3.94 9.32s3 9 7.31 9 4.71-6.22 4.71-6.22l1.84.01z" fill="#000"/></g><defs><clipPath id="prefix__clip0_53_27350"><path fill="#fff" d="M0 0h1500v1500H0z"/></clipPath></defs>
      <g clip-path="url(#prefix__clip0_53_24961)"><path d="M328.471 587.58s58.88-190.09 246.39-252.58c0 0 201.241-94.49 408.23 26.16 0 0 108.699 63.54 160.689 173.42l30.45 32.42 81.28 62.15s25.35 30-38.52 34.19c-63.87 4.19-247.299 7.66-247.299 7.66l-202.5 15.57-190.82 25.14-235.22 48.66-32.56 5s-30-19.88-3.28-53.85 13.111-67.25 13.111-67.25l10.049-56.69z" fill="#87C848"/><path d="M316.781 647.551l15.98-55.21 214.91-57.77 279.46-34.46 192.289-13.97 97.96 2.58 19.81 43.88-379.259 27.4-272.8 39.25-168.35 48.3z" fill="#578926"/><path d="M423.391 743.361l88.05-20.33v185.82l-4.24 110.929-83.81 3.04V743.361z" fill="#9E6740"/><path d="M423.391 1030l84-7.13s17.06 55.54-27.31 59.92c-44.37 4.38-45.22 7.94-49.49 2.11-4.27-5.83-7.2-20-7.2-22.73V1030z" fill="#D9D9D9"/><path d="M483.5 727C445.1 499.4 599.167 354.833 681 311l-32.5 2.5-66 20-94.5 46-88 76-61 102-21.5 86c-.833 13-5.4 46.1-17 74.5s.167 44.833 7.5 49.5L483.5 727zM454 852c-.4 56.4 5.833 176.5 9 229.5-22.4 6.8-34.333-4.83-37.5-11.5V745l83.5-21-3 48c-40 1.5-51.5 9.5-52 80z" fill="#001647" fill-opacity=".2"/><path d="M346.781 792s-1.281-6.5 3.719-33l-39.309 14.52 25.64 17.48 9.95 1zM1233.29 671.402c-.41.1-37 24.85-37 24.85L1182 688s-7.13-19.128-9.72-21.018c-2.59-1.89 15.14-2.06 15.14-2.06h56.76l-10.89 6.48z" fill="#3A3A3A"/><path d="M511.441 724.27v335.15c.001 5.78-2.2 11.34-6.155 15.55a22.682 22.682 0 01-15.135 7.13l-42.59 2.7c-3.1.2-6.207-.24-9.13-1.29a22.811 22.811 0 01-7.864-4.82 22.661 22.661 0 01-5.304-7.54 22.699 22.699 0 01-1.872-9.03V740.9" stroke="#000" stroke-width="18.94" stroke-miterlimit="10"/><path d="M1177.07 569.09a129.76 129.76 0 01-38.93-44C1045 351.93 865.71 281.89 695.46 303.43c-213.73 27.05-373 190.35-381.57 378.44a65.267 65.267 0 01-8.58 29.7l-9.05 15.65c-11.26 19.48 6.47 42.91 28.27 37.37l16.62-4.22c294-74.67 588.31-94.15 891.66-97.2 26.27-.26 33-30.4 10.09-47l-65.83-47.08zM1143.78 534.57s-549.939 7.79-826.999 115.54M1117.38 490.32c-552.171 5.12-788.911 106-788.911 106M1255.51 647.551s5.5 35.999-85.51 48.949M294.621 749.328s19.55 40.27 58.82 42.25M423.391 1026.19l88.05-6.74" stroke="#000" stroke-width="18.94" stroke-miterlimit="10"/></g><defs><clipPath id="prefix__clip0_53_24961"><path fill="#fff" d="M0 0h1500v1500H0z"/></clipPath></defs>
      
    </g>
    </svg>