<svg
      xmlns="http://www.w3.org/2000/svg"
      preserveAspectRatio="xMidYMin meet"
      fill="none"
      viewBox="0 0 1500 1500"
    >
      <g>
      <path fill="url(#prefix__paint0_linear_53_30461)" d="M0 0h1500v1500H0z"/><defs><linearGradient id="prefix__paint0_linear_53_30461" x1="0" y1="0" x2="1500" y2="1533.5" gradientUnits="userSpaceOnUse"><stop stop-color="#EEB0FC"/><stop offset="1" stop-color="#AF55F5"/></linearGradient></defs>
      <g clip-path="url(#prefix__clip0_53_28162)"><path d="M1265.5 1515l-976.17-4 3.73-77.49 14.44-114.01L361 1203l24.5-45 32.5-38.5s27.82-14.87 92.5-43c64.68-28.13 209-29.5 209-29.5s196.84-11.59 350 48 196 420 196 420z" fill="#FF9C07"/><path d="M500.002 1213.5c-101.2 100-117.834 249-113.5 311l-99.502-13c-1.6-110.8 39-247.5 59.5-302l39.501-52.5 15.5-20.5 66.5-42.5c149.6-59.6 294-54.83 347.5-45-63 13.17-214.299 64.5-315.499 164.5z" fill="#001647" fill-opacity=".2"/><path d="M916.27 1335.92l-94.355 107.7c-2.295 2.61-6.431 2.73-9.239.26l-115.56-101.8c-2.487-2.19-3.139-5.73-1.547-8.38l30.023-49.87c.53-.87 1.27-1.58 2.152-2.09.881-.5 1.875-.77 2.889-.79l139.951-3.94a7.303 7.303 0 013.09.65 7.172 7.172 0 012.503 1.93l39.941 47.9c2.117 2.55 2.185 6.11.152 8.43z" fill="#53B6F9"/><path d="M924.148 1325.84l-42.897-51.45a7.671 7.671 0 00-2.689-2.07 7.611 7.611 0 00-3.321-.7l-150.328 4.23c-1.09.02-2.157.31-3.104.85a6.456 6.456 0 00-2.31 2.24l-32.264 53.57c-1.713 2.86-1.007 6.65 1.658 9l124.143 109.35c3.015 2.65 7.459 2.53 9.923-.28l101.35-115.69c2.182-2.49 2.112-6.31-.166-9.05h.005zm-61.125-39.83l-20.577 34.13-27.333-32.78 47.91-1.35zm-33.683 39.58l-47.906 1.35 20.577-34.13 27.329 32.78zm-41.478-37.45l-20.577 34.13-27.333-32.78 47.91-1.35zm-61.017 6.76l27.334 32.8-47.892 1.35 20.558-34.15zm-15.836 48.06l53.164-1.49 34.646 78.83-87.81-77.34zm104.248 80.66l-36.291-82.57 55.695-1.56-19.404 84.13zm15.673-4.24l18.524-80.31 53.164-1.5-71.688 81.81zm25.684-94.56l20.577-34.13 27.315 32.79-47.892 1.34z" fill="#000"/><path d="M289.5 1512.5c-6-101.5 31-323.03 140.5-398 158.5-108.51 616.5-87 706.5 26 64.91 81.5 99.5 222.5 132.5 371M1084.5 1337c12.33 37 29.5 110.3 43.5 175.5m-646.5 0c.333-32.83 7.7-107.6 20.5-157" stroke="#000" stroke-width="20" stroke-linecap="round"/></g><defs><clipPath id="prefix__clip0_53_28162"><path fill="#fff" d="M0 0h1500v1500H0z"/></clipPath></defs>
      <g clip-path="url(#prefix__clip0_299_662)"><path d="M775 1185c231.41 0 419-168.12 419-375.5 0-207.383-187.59-375.5-419-375.5-231.407 0-419 168.117-419 375.5 0 207.38 187.593 375.5 419 375.5z" fill="#ABF"/><path d="M457.5 796c7.6 194 131.833 327.5 193 370l-130-55.5L438 1034l-57.5-89.5-27-106 11-104L394 662l45-82.5 83.5-69.5 109-54.182 28.5-1C569.452 513.314 451.119 633.132 457.5 796z" fill="#001647" fill-opacity=".2"/><path d="M775 1185c231.41 0 419-168.12 419-375.5 0-207.383-187.59-375.5-419-375.5-231.407 0-419 168.117-419 375.5 0 207.38 187.593 375.5 419 375.5z" stroke="#000" stroke-width="20"/></g><defs><clipPath id="prefix__clip0_299_662"><path fill="#fff" d="M0 0h1500v1500H0z"/></clipPath></defs>
      <g clip-path="url(#prefix__clip0_53_29261)"><path d="M761.369 722.219a74.743 74.743 0 00-74.67 74.67 10.671 10.671 0 0021.33 0 53.344 53.344 0 0191.31-38.188 53.341 53.341 0 0115.36 38.188 31.999 31.999 0 01-54.627 22.627 32 32 0 01-9.373-22.627c-.041-1.427.2-2.847.71-4.18a10.68 10.68 0 012.3-3.58 10.659 10.659 0 0117.6 3.58 10.64 10.64 0 01.72 4.18 10.67 10.67 0 1021.34 0 32.003 32.003 0 00-9.372-22.628 32.003 32.003 0 00-45.255 0 32.004 32.004 0 00-9.373 22.628 53.333 53.333 0 0053.33 53.33 53.33 53.33 0 0053.33-53.33 74.738 74.738 0 00-74.66-74.67zM1048.37 722.219a74.743 74.743 0 00-74.671 74.67 10.671 10.671 0 0021.33 0 53.354 53.354 0 013.848-20.636 53.313 53.313 0 0111.513-17.552 53.28 53.28 0 0117.39-11.752 53.352 53.352 0 0141.17 0 53.385 53.385 0 0117.39 11.752 53.414 53.414 0 0111.51 17.552 53.227 53.227 0 013.85 20.636 32 32 0 01-32 32 32 32 0 01-32-32c-.06-1.789.34-3.563 1.15-5.159.81-1.596 2-2.963 3.48-3.974a10.664 10.664 0 0110.19-1.017c1.32.557 2.51 1.376 3.51 2.407a10.68 10.68 0 012.28 3.593c.52 1.331.76 2.752.72 4.18 0 2.83 1.12 5.544 3.12 7.545a10.697 10.697 0 007.55 3.125c2.83 0 5.54-1.124 7.54-3.125a10.637 10.637 0 003.13-7.545 31.999 31.999 0 00-32-32 31.999 31.999 0 00-32 32 53.337 53.337 0 0015.62 37.71 53.336 53.336 0 0037.71 15.62c14.14 0 27.71-5.619 37.71-15.62a53.337 53.337 0 0015.62-37.71 74.736 74.736 0 00-21.89-52.776 74.731 74.731 0 00-52.77-21.894v-.03z" fill="#000"/><path d="M912.5 1068.5c32.585 0 59-26.42 59-59 0-32.585-26.415-59-59-59s-59 26.415-59 59c0 32.58 26.415 59 59 59z" fill="#fff" stroke="#000" stroke-width="20" stroke-miterlimit="10"/></g><defs><clipPath id="prefix__clip0_53_29261"><path fill="#fff" d="M0 0h1500v1500H0z"/></clipPath></defs>
      <g clip-path="url(#clip0_53_27216)"> <path d="M1086 1008C1086 1050.53 1010.34 1085 917 1085C823.664 1085 748 1050.56 748 1008C748 965.443 823.664 931 917 931C1010.34 931 1086 965.474 1086 1008Z" fill="#AABBFF"/> <path opacity="0.4" d="M763.61 879.811C787.326 879.797 810.188 870.964 827.752 855.029C845.316 839.093 856.326 817.195 858.64 793.593C860.954 769.991 854.407 746.371 840.272 727.328C826.138 708.285 805.426 695.18 782.165 690.561C758.903 685.941 734.756 690.139 714.417 702.336C694.079 714.533 679.004 733.859 672.124 756.555C665.244 779.25 667.051 803.694 677.194 825.131C687.336 846.568 705.089 863.467 727 872.541C738.607 877.349 751.047 879.819 763.61 879.811Z" fill="white"/> <path d="M624.5 770L667.5 768.5L669.5 804.5L626.5 802.5L624.5 770Z" fill="#FFBF44"/> <path d="M763.589 879.811C816.36 879.811 859.139 837.032 859.139 784.261C859.139 731.49 816.36 688.711 763.589 688.711C710.818 688.711 668.039 731.49 668.039 784.261C668.039 837.032 710.818 879.811 763.589 879.811Z" stroke="black" stroke-width="20" stroke-miterlimit="10"/> <path d="M667.999 768.289H638.999C634.188 768.289 629.574 770.2 626.172 773.602C622.771 777.004 620.859 781.618 620.859 786.429C620.859 788.811 621.329 791.17 622.24 793.371C623.152 795.572 624.488 797.572 626.172 799.256C627.857 800.94 629.857 802.277 632.057 803.188C634.258 804.1 636.617 804.569 638.999 804.569H667.999" stroke="black" stroke-width="20" stroke-miterlimit="10"/> <path d="M568 978.311L610 935.311C614.376 930.829 617.76 925.475 619.931 919.599C622.101 913.723 623.011 907.455 622.599 901.204C622.188 894.953 620.465 888.859 617.544 883.317C614.622 877.776 610.566 872.912 605.64 869.041V869.041C600.186 864.759 595.806 859.263 592.847 852.992C589.888 846.721 588.431 839.846 588.594 832.913C588.756 825.981 590.532 819.181 593.781 813.055C597.03 806.929 601.662 801.645 607.31 797.621L619.14 789.191" stroke="black" stroke-width="20" stroke-miterlimit="10" stroke-linecap="round"/> <path d="M829 959L789.5 985L804 997H829C834.5 997 853 1000.5 864.5 1001C876 1001.5 877 997 883 997C889 997 896 990 898.5 989C900.5 988.2 904.667 982.667 906.5 980L918.5 971.5C919.667 972.833 922.6 975.5 925 975.5C928 975.5 929 981.5 933 985C937 988.5 958.5 994.5 967 997C973.8 999 978.5 997.833 980 997H1012C1014.5 997 1023 997.5 1023 997C1023 996.5 1031 994.5 1035.5 994.5H1046V985C1043.5 982.5 1037.9 977.1 1035.5 975.5C1032.5 973.5 1027.5 969 1023 965.5C1018.5 962 1012 955.5 1007 951.5C1003 948.3 1000.67 945.833 1000 945L989 933.5L977.5 921.5L971 916.5L955 913.5L929 927.5L906.5 930L892 916.5H877L853 927.5L829 959Z" fill="white"/> <path d="M859.5 954.5C848.7 973.3 829.667 989.333 821.5 995L784 986.5L793 978L833.5 952C836 944.167 845.4 926.9 863 920.5C880.6 914.1 894.667 923.167 899.5 928.5C884 924 873 931 859.5 954.5Z" fill="#001647" fill-opacity="0.2"/> <path d="M943 960C939.4 936.8 956.833 923 966 919L958 913.5C942.833 915.833 914 927.8 920 957C926 986.2 968.5 997.5 989 999.5C975.167 996 946.6 983.2 943 960Z" fill="#001647" fill-opacity="0.2"/> <path d="M1086 1008C1086 1050.53 1010.34 1085 917 1085C823.664 1085 748 1050.56 748 1008C748 965.443 823.664 931 917 931C1010.34 931 1086 965.474 1086 1008Z" fill="#AABBFF"/> <path opacity="0.5" d="M689.63 721.059C689.63 721.059 688.76 700.969 734.18 694.859L818.91 861.699C818.91 861.699 803.19 880.039 769.91 879.469L689.63 721.059Z" fill="white"/> <path opacity="0.5" d="M749.001 692.238C749.001 692.238 750.831 691.898 766.361 681.238L841.481 835.848C841.481 835.848 840.331 846.208 827.621 849.128L749.001 692.238Z" fill="white"/> <path d="M829 959L789.5 985L804 997H829C834.5 997 853 1000.5 864.5 1001C876 1001.5 877 997 883 997C889 997 896 990 898.5 989C900.5 988.2 904.667 982.667 906.5 980L918.5 971.5C919.667 972.833 922.6 975.5 925 975.5C928 975.5 929 981.5 933 985C937 988.5 958.5 994.5 967 997C973.8 999 978.5 997.833 980 997H1012C1014.5 997 1023 997.5 1023 997C1023 996.5 1031 994.5 1035.5 994.5H1046V985C1043.5 982.5 1037.9 977.1 1035.5 975.5C1032.5 973.5 1027.5 969 1023 965.5C1018.5 962 1012 955.5 1007 951.5C1003 948.3 1000.67 945.833 1000 945L989 933.5L977.5 921.5L971 916.5L955 913.5L929 927.5L906.5 930L892 916.5H877L853 927.5L829 959Z" fill="white"/> <path d="M859.5 954.5C848.7 973.3 829.667 989.333 821.5 995L784 986.5L793 978L833.5 952C836 944.167 845.4 926.9 863 920.5C880.6 914.1 894.667 923.167 899.5 928.5C884 924 873 931 859.5 954.5Z" fill="#001647" fill-opacity="0.2"/> <path d="M943 960C939.4 936.8 956.833 923 966 919L958 913.5C942.833 915.833 914 927.8 920 957C926 986.2 968.5 997.5 989 999.5C975.167 996 946.6 983.2 943 960Z" fill="#001647" fill-opacity="0.2"/> <path d="M1052.26 992.431C1025.86 1000.33 958.48 1015.62 927.1 977.73C912.19 959.73 916.1 932.58 936.1 920.41C943.021 916.179 950.988 913.969 959.1 914.031C974.5 914.031 984.92 924.351 991.69 935.531C1003.52 955.352 1021.3 970.937 1042.5 980.071L1052.7 984.391C1053.51 984.734 1054.2 985.319 1054.66 986.066C1055.13 986.813 1055.35 987.686 1055.3 988.565C1055.26 989.444 1054.94 990.287 1054.39 990.979C1053.85 991.67 1053.1 992.177 1052.26 992.431V992.431Z" stroke="black" stroke-width="20" stroke-miterlimit="10" stroke-linecap="round"/> <path d="M783.87 992.43C810.27 1000.33 877.65 1015.62 909.04 977.73C923.94 959.73 920.04 932.58 900.04 920.41C893.111 916.161 885.129 913.94 877 914C861.6 914 851.18 924.32 844.41 935.5C832.578 955.319 814.798 970.905 793.6 980.04L783.39 984.36C782.57 984.702 781.876 985.29 781.405 986.044C780.934 986.797 780.71 987.679 780.762 988.566C780.815 989.453 781.143 990.302 781.7 990.994C782.257 991.686 783.015 992.188 783.87 992.43Z" stroke="black" stroke-width="20" stroke-miterlimit="10" stroke-linecap="round"/> <path d="M624.5 770L667.5 768.5L669.5 804.5L626.5 802.5L624.5 770Z" fill="#FFBF44"/> <path d="M646 802C640.8 791.6 643.833 777.667 646 772C638 768.167 622.1 764.8 622.5 782C622.9 799.2 638.333 802.5 646 802Z" fill="#001647" fill-opacity="0.2"/> <path d="M763.589 879.811C816.36 879.811 859.139 837.032 859.139 784.261C859.139 731.49 816.36 688.711 763.589 688.711C710.818 688.711 668.039 731.49 668.039 784.261C668.039 837.032 710.818 879.811 763.589 879.811Z" stroke="black" stroke-width="20" stroke-miterlimit="10"/> <path d="M667.999 768.289H638.999C634.188 768.289 629.574 770.2 626.172 773.602C622.771 777.004 620.859 781.618 620.859 786.429C620.859 788.811 621.329 791.17 622.24 793.371C623.152 795.572 624.488 797.572 626.172 799.256C627.857 800.94 629.857 802.277 632.057 803.188C634.258 804.1 636.617 804.569 638.999 804.569H667.999" stroke="black" stroke-width="20" stroke-miterlimit="10"/> <path d="M568 978.311L610 935.311C614.376 930.829 617.76 925.475 619.931 919.599C622.101 913.723 623.011 907.455 622.599 901.204C622.188 894.953 620.465 888.859 617.544 883.317C614.622 877.776 610.566 872.912 605.64 869.041V869.041C600.186 864.759 595.806 859.263 592.847 852.992C589.888 846.721 588.431 839.846 588.594 832.913C588.756 825.981 590.532 819.181 593.781 813.055C597.03 806.929 601.662 801.645 607.31 797.621L619.14 789.191" stroke="black" stroke-width="20" stroke-miterlimit="10" stroke-linecap="round"/> </g> <defs> <clipPath id="clip0_53_27216"> <rect width="1500" height="1500" fill="white"/> </clipPath> </defs>
      <path d="M661.719 466.274s.681-50.314 11.211-50.049c10.531.266 30.241-4.165 30.241-4.165l31.003 15.989 25.638-5.424 28.99-24.747 27.071-1.791 27.883 14.121 15.446 18.681 23.411.145 50.96-13.954 24.276 23.68-19.232 52.574-44.507-21.369-17.618-6.041-23.175-7.036-28.049-1.943-32.388-.112-55.638 3.68-50.45 8.949-25.073-1.188z" fill="#97A5DE"/><path d="M718.506 479.214s19.322 40.453 64.014 34.31c44.692-6.143 83.522-32.583 83.522-32.583l10.406-17.065-81.463-14.775-84.096 14.041s-8.664 11.898 7.617 16.072z" fill="#7985B4"/><path d="M662.843 469.488s-13.534-58.554 30.087-60.287c15.493-.614 25.434 4.992 32.226 12.21 13.894 14.755 29.392 7.707 38.346-2.386 11.842-13.391 27.482-26.021 44.854-27.17 20.226-1.338 34.215 14.393 42.889 29.474 6.094 10.621 21.799 13.651 33.204 6.683 11.953-7.315 28.35-12.9 48.081-8.683 42.964 9.245 6.064 69.091 6.064 69.091" stroke="#000" stroke-width="18.1" stroke-miterlimit="10" stroke-linecap="round"/><path d="M630.048 507.636s25.276-45.068 51.452-39.634c40.502 8.395 74.399 69.733 74.399 69.733M800.818 537.27s38.761-65.501 93.251-67.301c54.49-1.801 48.429 57.93 48.429 57.93M682 468s137.209-40.275 226.408 2.982M736.796 506.5s35.103 14.655 86.489 1.675" stroke="#000" stroke-width="20" stroke-miterlimit="10" stroke-linecap="round"/><path d="M644.603 542.516l56.89-77.109 53.1-31.06 21.634-1.404 37.197 81.112 21.415 63.676s27.843 59.499-15.545 65.537c-43.387 6.039-91.435-3.37-91.435-3.37L674.535 627.1l-65.745 19.231s-46.205 82.674-91.956 100.812c-45.751 18.138-42.916-1.403-42.916-1.403l-42.859-81.774-19.901-91.615s-13.797-31.572 51.611-31.441c65.408.131 113.385 23.476 113.385 23.476l68.449-21.87z" fill="#4AEEB9"/><path d="M505 591c-.4-20.4 9.167-33.5 14-37.5l-7-8-62.5-1-38.5 9 12 63 41 113 26 31.5 72.5-48.5 46.5-63-16.5-43.5-50 18.5c0 8.333-2.7 23.9-13.5 19.5-13.5-5.5-23.5-27.5-24-53zM643 630.5c-30-26.8-29.833-61.167-26-75l-32 6.5 24 78.5 34-10zM747.5 575c7.6-20.8-7.167-31-15.5-33.5-6.5 8-19.6 24.2-20 25-.4.8-26.833 13-40 19-.167 7.5 1.1 22.7 7.5 23.5 8 1 58.5-8 68-34z" fill="#001647" fill-opacity=".2"/><path d="M647.51 541.553l-67.569 24.232 28.887 80.545 67.568-24.233-28.886-80.544z" stroke="#000" stroke-width="20" stroke-miterlimit="10"/><path d="M676.427 621.507s80.65 40.951 156.098 17.871a17.706 17.706 0 009.624-7.279 17.61 17.61 0 002.702-11.737 437.997 437.997 0 00-66.957-184.734l-.109-.158a17.698 17.698 0 00-9.558-7.301 17.761 17.761 0 00-12.032.483C683.202 458.578 647.06 541.311 647.06 541.311M579.903 566.274s-80.652-40.957-156.122-17.874a17.702 17.702 0 00-9.625 7.275 17.604 17.604 0 00-2.703 11.735v0a438.016 438.016 0 0066.938 184.744l.108.168a17.698 17.698 0 009.564 7.29 17.762 17.762 0 0012.03-.491c73.004-29.921 109.151-112.668 109.151-112.668" stroke="#000" stroke-width="20" stroke-miterlimit="10"/><path d="M662.153 582.107s45.412 4.609 61.137-39.852M594.148 606.978s-52.056-3.509-59.752 39.921" stroke="#000" stroke-width="20" stroke-miterlimit="10" stroke-linecap="round"/>
      
    </g>
    </svg>