<svg
      xmlns="http://www.w3.org/2000/svg"
      preserveAspectRatio="xMidYMin meet"
      fill="none"
      viewBox="0 0 1500 1500"
    >
      <g>
      <path fill="url(#prefix__paint0_linear_53_30462)" d="M0 0h1500v1500H0z"/><defs><linearGradient id="prefix__paint0_linear_53_30462" x1="0" y1="0" x2="1500" y2="1500" gradientUnits="userSpaceOnUse"><stop stop-color="#FFC4F6"/><stop offset="1" stop-color="#FF3DB1"/></linearGradient></defs>
      <g clip-path="url(#a)"> <path fill="#fff" d="m304.5 1358.5-16.5 145 979-1-12.5-60c-7.7-16.2-31.8-75.8-67-185s-90-142.2-113-145v-40c-20.2 29.5-101 93.1-263 111.5-162 18.4-292.2-66.7-337-111.5l-22.5 29-44 30-41.5 62-31.5 64-30.5 101Z"/> <path fill="#53B6F9" d="m787.8 1500 2.5-231.5-27.8-13.9 53.1-64.4 54 68.2-23.8 12.8 31.4 105L913 1500H788Z"/> <path stroke="#000" stroke-miterlimit="10" stroke-width="20" d="m754.6 1259.7 10 4.3a111.4 111.4 0 0 0 88.6 0l10-4.3"/> <path stroke="#000" stroke-linecap="round" stroke-width="20" d="M289.5 1512.5c-6-101.5 31-323 140.5-398 158.5-108.5 616.5-87 706.5 26 65 81.5 99.5 222.5 132.5 371M1084.5 1337c12.3 37 29.5 110.3 43.5 175.5m-646.5 0c.3-32.8 7.7-107.6 20.5-157"/> <path stroke="#000" stroke-miterlimit="10" stroke-width="20" d="m780.6 1500 1.9-226.8"/> <path fill="#000" d="M905.7 1500 835 1275.7l19.3-5.2 72.2 229.3h-20.8Z"/> <path fill="#D9D9D9" d="m467.6 1110.5 7.4-39 62.5-15.5 72-5.5 53-8h147l104.5 8 107 8.1 53.6 19-3.8 40.8-21.3 55-90.7 68.1-76.5 24.3-62.8-69.8a20 20 0 0 0-31.6 2.5l-44 67.3-58.9 2.7-143.7-46.2-68.6-65.1-5.1-46.7Z"/> <path stroke="#000" stroke-width="20" d="M535 1214c-83.6-40.4-76.5-113.2-62.5-144.5 266-49.2 513.5-20.2 604 .5 21.5 119.7-113.1 181.3-188.3 198.7-3.5.9-7.2-.4-9.6-3.2l-54.1-62.5a21 21 0 0 0-32.3.6l-50 62.4c-2 2.5-5 4-8.3 3.7A610.8 610.8 0 0 1 535 1214Z"/> <path fill="#001647" fill-opacity=".2" d="M489 1227.5c-82.4 87.6-103 222.5-103 279h-97l5.5-106.5c6.7-44.8 30.2-150.7 71-215.5 40.8-64.8 83-83 99-84l9-27h22l52-15 150.5-13h113.5c-160.4 46.4-265.5 121.3-298 153l120 56.5 103 23.5c-123.6 19.6-216.5-25.8-247.5-51Zm374.4 51.8A467.2 467.2 0 0 1 793 1201l21-6 74.5 78c-8.6 4.5-14.4 7-18 8-2.5.9-5.1 0-7.1-1.7Zm-99.9 2.7c-8.4-2.8-18.2-8.5-22-11l5-8.5H774l58.5 7c10.5 3 27.6 10.5 12 16.5a113 113 0 0 1-36 7.5l-3 212L758 1516l5.5-234Z"/> </g> <defs> <clipPath id="a"> <path fill="#fff" d="M0 0h1500v1500H0z"/> </clipPath> </defs>
      <g clip-path="url(#prefix__clip0_299_662)"><path d="M775 1185c231.41 0 419-168.12 419-375.5 0-207.383-187.59-375.5-419-375.5-231.407 0-419 168.117-419 375.5 0 207.38 187.593 375.5 419 375.5z" fill="#ABF"/><path d="M457.5 796c7.6 194 131.833 327.5 193 370l-130-55.5L438 1034l-57.5-89.5-27-106 11-104L394 662l45-82.5 83.5-69.5 109-54.182 28.5-1C569.452 513.314 451.119 633.132 457.5 796z" fill="#001647" fill-opacity=".2"/><path d="M775 1185c231.41 0 419-168.12 419-375.5 0-207.383-187.59-375.5-419-375.5-231.407 0-419 168.117-419 375.5 0 207.38 187.593 375.5 419 375.5z" stroke="#000" stroke-width="20"/></g><defs><clipPath id="prefix__clip0_299_662"><path fill="#fff" d="M0 0h1500v1500H0z"/></clipPath></defs>
      <g clip-path="url(#prefix__clip0_53_29287)"><path d="M764.05 841.24c31.336 0 56.74-25.404 56.74-56.74 0-31.337-25.404-56.74-56.74-56.74-31.337 0-56.74 25.403-56.74 56.74 0 31.336 25.403 56.74 56.74 56.74zM1048.19 841.24c31.34 0 56.74-25.404 56.74-56.74 0-31.337-25.4-56.74-56.74-56.74-31.34 0-56.74 25.403-56.74 56.74 0 31.336 25.4 56.74 56.74 56.74z" fill="#fff" stroke="#000" stroke-width="20" stroke-miterlimit="10"/><path d="M746.05 779.5c7.18 0 13-5.82 13-13s-5.82-13-13-13-13 5.82-13 13 5.82 13 13 13zM1066.19 779.5c7.18 0 13-5.82 13-13s-5.82-13-13-13-13 5.82-13 13 5.82 13 13 13z" fill="#000"/><path d="M831.28 968.721h168.82a5.495 5.495 0 015.5 5.5 89.318 89.318 0 01-89.32 89.319h-1.18a89.323 89.323 0 01-63.159-26.16 89.322 89.322 0 01-26.161-63.159 5.5 5.5 0 015.5-5.5z" fill="#fff" stroke="#000" stroke-width="20" stroke-miterlimit="10"/></g><defs><clipPath id="prefix__clip0_53_29287"><path fill="#fff" d="M0 0h1500v1500H0z"/></clipPath></defs>
      <g clip-path="url(#prefix__clip0_53_26556)"><path d="M610.839 1052.54l25.41-124.378 14-18s32.84-6 38.52-5 129.64 16.45 129.64 16.45l101.58 2.47s73.9-4.05 84.731-5.22c10.83-1.17 48.22-6 58.49-7.76 10.27-1.76 53.32-5.62 68.8-9.75 15.48-4.13 44.08-18 44.08-18S1140.5 1084.5 903.999 1157.05c0 0-92.499 34.95-237.78 5.86-104.73-30.27-63-64.47-63-64.47l7.62-45.9z" fill="#4AEEB9"/><path d="M723 1100.5c-29.6-54.4-21-146-13-185-55.2-22-65.833-.166-72 17.5-11.167 36.167-34.3 116.8-37.5 150-3.2 33.2-1.333 56.5 0 64l99 30 110 4c-16.5-4.17-56.9-26.1-86.5-80.5z" fill="#001647" fill-opacity=".2"/><path d="M1185.94 880.828s-205.091 80.28-505.581 22.77a39.252 39.252 0 00-45.47 28.86c-9.83 38.72-26.31 109.842-38 178.622a42.352 42.352 0 0029.31 47.6c34.82 10.67 90.3 30.53 196.28 24M398.16 971.871c55.3 38.439 125.63 81.449 205 116.639M625.992 943.001l-269.82-144.2" stroke="#000" stroke-width="20" stroke-miterlimit="10"/></g><defs><clipPath id="prefix__clip0_53_26556"><path fill="#fff" d="M0 0h1500v1500H0z"/></clipPath></defs>
      <g clip-path="url(#prefix__clip0_53_25564)"><path fill-rule="evenodd" clip-rule="evenodd" d="M878.413 220.052l3.087-4.552 55 29-14 42-80.5 45-94 25.5-222 37.5H354.5l-38.5-25v-38L434 269l210-46 220.5-14.5 9.5 2.5-3.389 5.083 7.802 3.969zm-26.211 38.65L846.2 252.7 842 259l-104-7.5-115.5 25-100 13.5-101 31-25.5 17.5 15 13.5 151-7 173.5-35.5 110-28L852 259l.202-.298z" fill="#FFBF44"/><path d="M639.243 377.386c171.136-29.387 304.162-86.453 297.12-127.46-7.042-41.007-151.484-50.427-322.62-21.04s-304.162 86.453-297.12 127.46c7.042 41.007 151.484 50.427 322.62 21.04z" stroke="#000" stroke-width="20.09"/><path d="M628.594 331.353c131.158-22.561 235.228-53.955 232.447-70.12-2.78-16.165-111.359-10.981-242.517 11.58-131.158 22.56-235.228 53.954-232.447 70.119 2.78 16.166 111.359 10.981 242.517-11.579z" stroke="#000" stroke-width="20"/><path d="M661.719 466.274s.681-50.314 11.212-50.049c10.53.266 30.241-4.165 30.241-4.165l31.002 15.989 25.638-5.424 28.99-24.747 27.071-1.791 27.883 14.121 15.446 18.681 23.411.145 50.96-13.954 24.276 23.68-19.232 52.574-44.507-21.369-17.617-6.041-23.175-7.036-28.05-1.943-32.388-.112-55.638 3.68-50.45 8.949-25.073-1.188z" fill="#97A5DE"/><path d="M718.506 479.214s19.322 40.453 64.014 34.31c44.692-6.143 83.522-32.583 83.522-32.583l10.406-17.065-81.463-14.775-84.096 14.041s-8.664 11.898 7.617 16.072z" fill="#7985B4"/><path d="M662.843 469.488s-13.534-58.554 30.087-60.287c15.493-.614 25.434 4.992 32.226 12.21 13.894 14.755 29.392 7.707 38.346-2.386 11.842-13.391 27.482-26.021 44.854-27.17 20.226-1.338 34.215 14.393 42.889 29.474 6.094 10.621 21.799 13.651 33.204 6.683 11.953-7.315 28.35-12.9 48.081-8.683 42.964 9.245 6.064 69.091 6.064 69.091" stroke="#000" stroke-width="18.1" stroke-miterlimit="10" stroke-linecap="round"/><path d="M630.048 507.636s25.276-45.068 51.452-39.634c40.502 8.395 74.399 69.733 74.399 69.733M800.818 537.27s38.761-65.501 93.251-67.301c54.49-1.801 48.429 57.93 48.429 57.93M682 468s137.209-40.275 226.409 2.982M736.796 506.5s35.104 14.655 86.489 1.675" stroke="#000" stroke-width="20" stroke-miterlimit="10" stroke-linecap="round"/></g><defs><clipPath id="prefix__clip0_53_25564"><path fill="#fff" d="M0 0h1500v1500H0z"/></clipPath></defs>
      
    </g>
    </svg>