<svg
      xmlns="http://www.w3.org/2000/svg"
      preserveAspectRatio="xMidYMin meet"
      fill="none"
      viewBox="0 0 1500 1500"
    >
      <g>
      <path fill="url(#prefix__paint0_linear_53_30460)" d="M0 0h1500v1500H0z"/><defs><linearGradient id="prefix__paint0_linear_53_30460" x1="0" y1="0" x2="1500" y2="1500" gradientUnits="userSpaceOnUse"><stop stop-color="#F1FFBA"/><stop offset="1" stop-color="#65DCBA"/></linearGradient></defs>
      <g clip-path="url(#prefix__clip0_53_28406)"><path d="M1263 1500H289.33l3.73-66.49 19.17-107.35L354 1197l57.62-67.7s34.7-23.67 99.38-51.8c64.68-28.13 246.37-32.16 246.37-32.16s164.97-8.43 318.13 51.16C1228.66 1156.09 1263 1500 1263 1500z" fill="#FF6247"/><path d="M466 1099s-.52 38.21 72.47 75.64 99.8 45.62 99.8 45.62 74.66 17.52 117.89 17.09c43.23-.43 122-9.29 122-9.29s82.32-21.7 109.62-40.47c27.3-18.77 99.72-76.09 99.72-76.09s-88.501-61-209.34-61c0 0-94.191-15.43-209.661 0s-140 25.5-140 25.5l-28 9s-23.389-.21-34.499 14z" fill="#fff"/><path d="M502.047 1215.45c-101.2 100-117.833 249-113.5 311l-99.501-13c-1.6-110.8 39-247.5 59.5-302l39.501-52.5 15.5-20.5 66.5-42.5c149.6-59.6 294-54.83 347.5-45-54.857 11.46-176.664 51.87-274.047 128.14 21.333 10.79 72.7 34.67 107.5 43.91 34.8 9.24 144.833 15.18 195.5 17-134.4 46-275.333-6.91-329-39.11a452.112 452.112 0 00-15.453 14.56z" fill="#001647" fill-opacity=".2"/><path d="M457 1103s81.38 134.36 319.15 134.36C1013.92 1237.36 1087 1109 1087 1109m-570-30c38.5 44.5 125.7 97.6 286.5 90 160.8-7.6 212-62.83 217-89.5M496.359 1145.43l50.11-36.14M578.51 1198.9l32.58-56.52M687.039 1230.64l11.64-66M809.939 1236.42l-3.41-64.42M927.521 1215.06l-28.97-59.27M1030.14 1155.88l-35.54-43.82" stroke="#000" stroke-width="20" stroke-miterlimit="10"/><path d="M289.5 1512.5c-6-101.5 31-323.03 140.5-398 158.5-108.51 616.5-87 706.5 26 64.91 81.5 99.5 222.5 132.5 371M1084.5 1337c12.33 37 29.5 110.3 43.5 175.5m-646.5 0c.333-32.83 7.7-107.6 20.5-157" stroke="#000" stroke-width="20" stroke-linecap="round"/></g><defs><clipPath id="prefix__clip0_53_28406"><path fill="#fff" d="M0 0h1500v1500H0z"/></clipPath></defs>
      <g clip-path="url(#prefix__clip0_299_662)"><path d="M775 1185c231.41 0 419-168.12 419-375.5 0-207.383-187.59-375.5-419-375.5-231.407 0-419 168.117-419 375.5 0 207.38 187.593 375.5 419 375.5z" fill="#ABF"/><path d="M457.5 796c7.6 194 131.833 327.5 193 370l-130-55.5L438 1034l-57.5-89.5-27-106 11-104L394 662l45-82.5 83.5-69.5 109-54.182 28.5-1C569.452 513.314 451.119 633.132 457.5 796z" fill="#001647" fill-opacity=".2"/><path d="M775 1185c231.41 0 419-168.12 419-375.5 0-207.383-187.59-375.5-419-375.5-231.407 0-419 168.117-419 375.5 0 207.38 187.593 375.5 419 375.5z" stroke="#000" stroke-width="20"/></g><defs><clipPath id="prefix__clip0_299_662"><path fill="#fff" d="M0 0h1500v1500H0z"/></clipPath></defs>
      <g clip-path="url(#prefix__prefix__clip0_53_29477)"><path d="M1046 825a40.998 40.998 0 0037.88-25.31 41.043 41.043 0 002.33-23.689 40.939 40.939 0 00-11.22-20.992 40.99 40.99 0 00-44.68-8.888 40.977 40.977 0 00-18.4 15.101 40.996 40.996 0 005.1 51.769A41.006 41.006 0 001046 825z" fill="#000"/><path d="M729.63 808.821l88.08-16a7.737 7.737 0 006.23-6.4 7.757 7.757 0 00-.73-4.64 7.674 7.674 0 00-3.27-3.35l-82.39-43.72m99.27 256.728c38.57 39.211 113.35 39.211 151.93 0" stroke="#000" stroke-width="20" stroke-miterlimit="10" stroke-linecap="round"/></g><defs><clipPath id="prefix__prefix__clip0_53_29477"><path fill="#fff" d="M0 0h1500v1500H0z"/></clipPath></defs>
      <g clip-path="url(#prefix__clip0_53_26556)"><path d="M610.839 1052.54l25.41-124.378 14-18s32.84-6 38.52-5 129.64 16.45 129.64 16.45l101.58 2.47s73.9-4.05 84.731-5.22c10.83-1.17 48.22-6 58.49-7.76 10.27-1.76 53.32-5.62 68.8-9.75 15.48-4.13 44.08-18 44.08-18S1140.5 1084.5 903.999 1157.05c0 0-92.499 34.95-237.78 5.86-104.73-30.27-63-64.47-63-64.47l7.62-45.9z" fill="#4AEEB9"/><path d="M723 1100.5c-29.6-54.4-21-146-13-185-55.2-22-65.833-.166-72 17.5-11.167 36.167-34.3 116.8-37.5 150-3.2 33.2-1.333 56.5 0 64l99 30 110 4c-16.5-4.17-56.9-26.1-86.5-80.5z" fill="#001647" fill-opacity=".2"/><path d="M1185.94 880.828s-205.091 80.28-505.581 22.77a39.252 39.252 0 00-45.47 28.86c-9.83 38.72-26.31 109.842-38 178.622a42.352 42.352 0 0029.31 47.6c34.82 10.67 90.3 30.53 196.28 24M398.16 971.871c55.3 38.439 125.63 81.449 205 116.639M625.992 943.001l-269.82-144.2" stroke="#000" stroke-width="20" stroke-miterlimit="10"/></g><defs><clipPath id="prefix__clip0_53_26556"><path fill="#fff" d="M0 0h1500v1500H0z"/></clipPath></defs>
      <g clip-path="url(#prefix__clip0_53_26225)"><path d="M661.719 466.274s.681-50.314 11.211-50.049c10.531.266 30.241-4.165 30.241-4.165l31.003 15.989 25.638-5.424 28.99-24.747 27.071-1.791 27.883 14.121 15.446 18.681 23.411.145 50.96-13.954 24.276 23.68-19.232 52.574-44.507-21.369-17.618-6.041-23.175-7.036-28.049-1.943-32.388-.112-55.638 3.68-50.45 8.949-25.073-1.188z" fill="#97A5DE"/><path d="M718.506 479.214s19.322 40.453 64.014 34.31c44.692-6.143 83.522-32.583 83.522-32.583l10.406-17.065-81.463-14.775-84.096 14.041s-8.664 11.898 7.617 16.072z" fill="#7985B4"/><path d="M662.843 469.488s-13.534-58.554 30.087-60.287c15.493-.614 25.434 4.992 32.226 12.21 13.894 14.755 29.392 7.707 38.346-2.386 11.842-13.391 27.482-26.021 44.854-27.17 20.226-1.338 34.215 14.393 42.889 29.474 6.094 10.621 21.799 13.651 33.204 6.683 11.953-7.315 28.35-12.9 48.081-8.683 42.964 9.245 6.064 69.091 6.064 69.091" stroke="#000" stroke-width="18.1" stroke-miterlimit="10" stroke-linecap="round"/><path d="M630.048 507.636s25.276-45.068 51.452-39.634c40.502 8.395 74.399 69.733 74.399 69.733M800.818 537.27s38.761-65.501 93.251-67.301c54.49-1.801 48.429 57.93 48.429 57.93M682 468s137.209-40.275 226.408 2.982M736.796 506.5s35.103 14.655 86.489 1.675" stroke="#000" stroke-width="20" stroke-miterlimit="10" stroke-linecap="round"/><path d="M1074 522.5l-37.5-24-141-15.5L703 494.5 555.5 521 469 541.5l-39.5 21c-4.834 9.667-20.801 36.1-46.001 64.5s-17.833 54.167-11 63.5l115 6 250-6 182.5-13.5 282.501-11.5 22.5-4.5v-20.5h-6l-20-7.5c-8.67-2.833-28.1-9.3-36.5-12.5-10.5-4-16.5-5-21.5-7.5-4-2-8.67-7.5-10.5-10l-32.5-44-24-36.5z" fill="#FF6247"/><path d="M794.594 562.777a4.918 4.918 0 01-.32 4.08 4.348 4.348 0 01-3.23 2.21c-.75.16-1.49.28-2.23.38-.74.1-1.46.16-2.18.2a15.903 15.903 0 01-.82 6.69 18.628 18.628 0 01-3.49 6 18.3 18.3 0 01-5.8 4.6 17.502 17.502 0 01-7 1.86h-.41a17.347 17.347 0 01-8-1.63 21.453 21.453 0 01-7-5.32c-4.24-4.78-7.213-11.64-8.92-20.58a54.647 54.647 0 01-1.15-13.56 24.475 24.475 0 012.42-9.69 15.428 15.428 0 012.43-3.4 14.33 14.33 0 013.21-2.5 15.62 15.62 0 013.33-1.37 13.802 13.802 0 013.74-.54 21.736 21.736 0 0110.51 2.12 16.385 16.385 0 014.13 2.47 9.569 9.569 0 012.56 2.82 9.356 9.356 0 011 2.39 4.66 4.66 0 01-.77 3.93 4.341 4.341 0 01-3.4 1.8 5.64 5.64 0 01-3.28-.84 7.894 7.894 0 01-2.52-2.39c-.49-.26-.998-.488-1.52-.68a14.382 14.382 0 00-2.1-.6 11.612 11.612 0 00-2.39-.21 6.642 6.642 0 00-2.41.52c-1.58.76-2.66 2.29-3.24 4.57-1.02 3.44-.92 8.333.3 14.68a38.06 38.06 0 002.81 9.65 21.787 21.787 0 003.08 4.89 6.809 6.809 0 005.24 2.59 9.005 9.005 0 006.35-3.37 8.471 8.471 0 002.17-4.47h-3.36a5.93 5.93 0 01-4.15-1.42 6.11 6.11 0 01-2.31-3.81 4.713 4.713 0 01.88-3.81 4.409 4.409 0 013.41-1.76h.08c.89-.05 1.73-.08 2.54-.1.81-.02 1.61 0 2.39 0 2 0 3.9 0 5.81-.1a54.256 54.256 0 006.68-.76 5.787 5.787 0 014.23 1 6.446 6.446 0 012.7 3.46zM811.264 586.736a5.995 5.995 0 01-4.05-1.34 6.213 6.213 0 01-2.38-3.72c-.58-2.506-1.097-4.79-1.55-6.85-.46-2.07-1-4.42-1.52-7.07-.52-2.65-1.1-5.4-1.64-8.24-.59-3.36-1.1-6.4-1.54-9.14-.44-2.74-.76-5.18-1-7.31s-.31-3.72-.35-5.1a25.08 25.08 0 01.11-3.52 8.975 8.975 0 01.51-2.35c.22-.576.516-1.121.88-1.62a5.518 5.518 0 014-2.34 8.548 8.548 0 012.28.26 7.59 7.59 0 013 1.57c.458.312.884.671 1.27 1.07.39.4.82.87 1.26 1.41a44.968 44.968 0 014.12 6c2.42 4.047 5.336 9.557 8.75 16.53.36.66.7 1.33 1 2 .3.67.62 1.36.93 2 .08-.68.15-1.38.19-2.09a17.79 17.79 0 01.28-2.08c.32-3.58.633-6.773.94-9.58.31-2.81.64-5.26 1-7.37.23-1.31.44-2.46.62-3.46.162-.884.372-1.758.63-2.62.205-.817.459-1.622.76-2.41a5.396 5.396 0 013.48-3.07 6.496 6.496 0 015.24 1 8.68 8.68 0 011.81 1.59 13.632 13.632 0 011.59 2.41 29.59 29.59 0 011.53 3.48c.5 1.33 1 2.9 1.58 4.74.666 2.1 1.333 4.517 2 7.25.666 2.734 1.416 5.794 2.25 9.18a807.014 807.014 0 013.42 15.55c.44 2.12.91 4.49 1.41 7.11a4.533 4.533 0 01-2.348 5.176 4.526 4.526 0 01-1.972.484h-.08a5.795 5.795 0 01-4.14-1.42 6.512 6.512 0 01-2.36-3.8 314.394 314.394 0 00-1.23-6.28l-1.36-6.48c-.507-2.426-1.06-4.95-1.66-7.57a222.744 222.744 0 00-1.69-6.85c-.1 1.14-.21 2.37-.36 3.71-.15 1.34-.28 2.73-.42 4.21-.267 2.72-.494 5.37-.68 7.95-.187 2.58-.367 4.86-.54 6.84-.18 2-.3 3.58-.38 4.8-.08 1.22-.12 1.86-.11 1.91a4.44 4.44 0 01-1.31 2.95 4.577 4.577 0 01-3.09 1.27h-.09a6.357 6.357 0 01-3.58-1.07 6.572 6.572 0 01-2.45-2.92c-1-2.31-1.92-4.42-2.79-6.31-.87-1.89-1.87-4.06-3-6.48-1.13-2.42-2.29-4.95-3.52-7.59-1.1-2.31-2.11-4.37-3-6.18-.89-1.81-1.79-3.46-2.54-4.94.19 1.46.46 3.07.8 4.82.34 1.75.7 3.7 1.09 5.83.493 2.62.99 5.13 1.49 7.53.5 2.4.946 4.534 1.34 6.4.39 1.87.85 3.94 1.38 6.23a4.689 4.689 0 01-.64 4 4.436 4.436 0 01-3.41 1.92l-.16-.01zM888.415 523.319a6.497 6.497 0 013.55 2.72 5.246 5.246 0 01.82 4.15 101.765 101.765 0 01-3.55 13.9c-1.42 4.2-2.96 8.2-4.62 12a439.42 439.42 0 007.49 7.92 1061.8 1061.8 0 007.84 8l.63.64a6.088 6.088 0 011.84 4 4.774 4.774 0 01-1.32 3.71 5.151 5.151 0 01-3 1.27 6.23 6.23 0 01-2.52-.41 5.861 5.861 0 01-2.25-1.53l-.65-.73a1932.406 1932.406 0 01-6.38-6.41 296.751 296.751 0 01-6.33-6.59c-.233.52-.473 1.04-.72 1.56l-.74 1.48c-.953 1.86-1.9 3.76-2.84 5.7-.93 1.94-1.84 3.9-2.71 5.86a4.355 4.355 0 01-4 2.68 5.468 5.468 0 01-3.19-.84 6.383 6.383 0 01-3-3.3 5.25 5.25 0 010-4.15c.98-2 1.943-4 2.89-6 .95-2 1.9-3.95 2.84-5.87.57-1 1.1-2.1 1.61-3.17.51-1.07 1-2.13 1.51-3.18-3.12-3.72-6.12-7.53-9-11.43a122.031 122.031 0 01-7.89-12.26 5.432 5.432 0 01-.67-4.19 4.224 4.224 0 012.53-2.94 5.63 5.63 0 014.21.07 6.517 6.517 0 013.39 3c1.767 3.12 3.653 6.12 5.66 9a139.453 139.453 0 006.38 8.45c1.17-3 2.27-6 3.27-9.24a84.003 84.003 0 002.51-10.46 4.517 4.517 0 012.28-3.13 5.002 5.002 0 014.13-.28z" fill="#000"/><path d="M1148.14 619.091s-38.14-50.32-65.28-84.09a96.571 96.571 0 00-61-35c-85.13-12.78-294.76-39.4-549.6 40.11-20.25 6.33-39.62 21.92-53.48 40-16.93 24.21-49.63 61.79-51.22 97.1a15.375 15.375 0 004.311 11.311 15.374 15.374 0 0011.159 4.689l176.16-.72" stroke="#000" stroke-width="20" stroke-miterlimit="10"/><path d="M1221.53 637.511c-105.4-53.61-631.53-25-681 46.39 17 11.1 11 8.52 54.26 8.52 57 1 115.3 5.35 232-8.52 146.08-17.37 295.53-19 390.88-17.6 17.25.26 19.33-20.95 3.86-28.79z" stroke="#000" stroke-width="20" stroke-miterlimit="10"/><path d="M611 511c-60.8 66.8-86.667 149.5-92 182.5l-147.5-2c-1-5.667.4-25.7 14-60.5s52.667-68.167 70.5-80.5l63-25 92-14.5zM810.5 596.5c151-13.38 262.33-4.667 314.5 0l16 19.5c-29.17-1.833-111.2-5.3-206-4.5-94.8.8-246.166 24-310 35.5-25 9.667-73.5 25.9-67.5 13.5 7.5-15.5 95-50 253-64z" fill="#001647" fill-opacity=".2"/></g><defs><clipPath id="prefix__clip0_53_26225"><path fill="#fff" d="M0 0h1500v1500H0z"/></clipPath></defs>
      
    </g>
    </svg>