<svg
      xmlns="http://www.w3.org/2000/svg"
      preserveAspectRatio="xMidYMin meet"
      fill="none"
      viewBox="0 0 1500 1500"
    >
      <g>
      <path fill="url(#prefix__paint0_linear_53_28789)" d="M0 0h1500v1500H0z"/><defs><linearGradient id="prefix__paint0_linear_53_28789" x1="1500" y1="1500" x2="0" y2="0" gradientUnits="userSpaceOnUse"><stop stop-color="#FFD130"/><stop offset="1" stop-color="#FFEEDB"/></linearGradient></defs>
      <g clip-path="url(#a)"> <path fill="#53B6F9" d="M1262.8 1506.5H289.2l3.7-72.5 22.2-107.3L351 1204l56.5-72.5s33.8-23.9 98.5-52 225-35.5 225-35.5 187.3-9 340.5 50.5c153.2 59.6 191.3 412 191.3 412Z"/> <path fill="#000" fill-rule="evenodd" d="m973.8 1356.7 18 2.6 11.2-18-4-2.8 3.2-4.6-4-2.8-3 4.9-4-2.8-7 11-11.4-1.8-8.9-26.4-3.6 1 3.4 9.5-5.3 1.5-3.5-9.4-3.9 1 7.7 21.3-17.5-2.6-11.2 18 4 2.8-3 4.8 4 2.8 2.8-5 3.8 2.5 7-11.3 11.2 1.5.8 7.7-17.3 9 2 20.5h4.6l.6 6.4h4.5l-.6-6.2h4.5l-1.2-11.7 11-5.7 12 5.7 1.2 11.8h4.5l.6 6.1h4.5l-.6-6.2h4.7l-2-20.5-19.2-9.2-.6-5.4Zm-1-10 13.5 2.1 6.2-10 .5.3 4 2.8.6.2-8 12.9-16.2-2.4-.6-5.8Zm-26.3 2.1-6.2 10-4.9-3.3 8-12.8 15.5 2.3.6 5.8-13-2Zm43.8 24.9 1.4 14H986l-1-10.2-16.4-7.7-14.7 7.7 1 10.3h-6l-1.3-13.9 17.3-9-2.2-23.5-3.4-9.5 5.3-1.6 3.7 11.6 2.3 22.8 19.7 9Z" clip-rule="evenodd"/> <path stroke="#000" stroke-linecap="round" stroke-miterlimit="10" stroke-width="20" d="m807.8 1194.5 10 141.8m-41.8-16.8c0-.6.5-1.1 1-1.1m1.2 1a1 1 0 1 1-2.2 0 1 1 0 0 1 2.2 0Zm-2.2-37.1c0-.6.5-1.1 1-1.1m1.2 1a1 1 0 1 1-2.2 0 1 1 0 0 1 2.2 0Zm-2.2-37.1c0-.6.5-1 1-1m1.2 1a1 1 0 1 1-2.2 0 1 1 0 0 1 2.2 0Z"/> <path stroke="#000" stroke-linecap="round" stroke-width="20" d="M289.5 1512.5c-6-101.5 31-323 140.5-398 158.5-108.5 616.5-87 706.5 26 65 81.5 99.5 222.5 132.5 371M1084.5 1337c12.3 37 29.5 110.3 43.5 175.5m-646.5 0c.3-32.8 7.7-107.6 20.5-157"/> <path fill="#F56CDB" d="m467.6 1110.5 7.4-39 62.5-15.5 72-5.5 53-8h147l104.5 8 107 8.1 53.6 19-3.8 40.8-21.3 55-90.7 68.1-76.5 24.3-62.8-69.8a20 20 0 0 0-31.6 2.5l-44 67.3-58.9 2.7-143.7-46.2-68.6-65.1-5.1-46.7Z"/> <path stroke="#000" stroke-width="20" d="M535 1214c-83.6-40.4-76.5-113.2-62.5-144.5 266-49.2 513.5-20.2 604 .5 21.5 119.7-113.1 181.3-188.3 198.7-3.5.9-7.2-.4-9.6-3.2l-54.1-62.5a21 21 0 0 0-32.3.6l-50 62.4c-2 2.5-5 4-8.3 3.7A610.8 610.8 0 0 1 535 1214Z"/> <path fill="#001647" fill-opacity=".2" d="M489 1227.5c-82.4 87.6-103 222.5-103 279h-97l5.5-106.5c6.7-44.8 30.2-150.7 71-215.5 40.8-64.8 83-83 99-84l9-27h22l52.5-13 150-15h113.5c-160.4 46.4-265.5 121.3-298 153l120 56.5 103 23.5c-123.6 19.6-216.5-25.8-247.5-51Zm370.2 48.3-44.2-46.3-3-28.5 74.5 69c-.4 2.8-4.2 6-8.5 8.8-6 4-13.8 2.2-18.8-3Z"/> </g> <defs> <clipPath id="a"> <path fill="#fff" d="M0 0h1500v1500H0z"/> </clipPath> </defs>
      <g clip-path="url(#prefix__clip0_299_662)"><path d="M775 1185c231.41 0 419-168.12 419-375.5 0-207.383-187.59-375.5-419-375.5-231.407 0-419 168.117-419 375.5 0 207.38 187.593 375.5 419 375.5z" fill="#ABF"/><path d="M457.5 796c7.6 194 131.833 327.5 193 370l-130-55.5L438 1034l-57.5-89.5-27-106 11-104L394 662l45-82.5 83.5-69.5 109-54.182 28.5-1C569.452 513.314 451.119 633.132 457.5 796z" fill="#001647" fill-opacity=".2"/><path d="M775 1185c231.41 0 419-168.12 419-375.5 0-207.383-187.59-375.5-419-375.5-231.407 0-419 168.117-419 375.5 0 207.38 187.593 375.5 419 375.5z" stroke="#000" stroke-width="20"/></g><defs><clipPath id="prefix__clip0_299_662"><path fill="#fff" d="M0 0h1500v1500H0z"/></clipPath></defs>
      <g clip-path="url(#prefix__clip0_53_29233)" stroke="#000" stroke-width="20" stroke-miterlimit="10" stroke-linecap="round"><path d="M719.699 827.31l79.06-79.06M719.699 748.25l79.06 79.06M1006.7 827.31l79.06-79.06M1006.7 748.25l79.06 79.06M810.1 1009.23c12.24-8.37 30-8.37 42.21 0l.44.3a37.403 37.403 0 0021.105 6.53c7.531 0 14.888-2.28 21.105-6.53v0a37.403 37.403 0 0121.105-6.53c7.531 0 14.887 2.28 21.105 6.53l1.09.74a37.403 37.403 0 0021.105 6.53c7.531 0 14.887-2.28 21.105-6.53l1.82-1.24c12.24-8.37 30-8.37 42.21 0"/></g><defs><clipPath id="prefix__clip0_53_29233"><path fill="#fff" d="M0 0h1500v1500H0z"/></clipPath></defs>
      <g clip-path="url(#prefix__clip0_53_27079)"><path opacity=".4" d="M770.85 897.86a109.421 109.421 0 0021.346-216.738A109.42 109.42 0 10770.85 897.86zM1066.56 897.86a109.414 109.414 0 00101.09-67.547 109.453 109.453 0 006.23-63.22 109.43 109.43 0 00-85.97-85.971 109.411 109.411 0 00-63.22 6.227 109.391 109.391 0 00-49.11 40.3 109.42 109.42 0 0090.98 170.211z" fill="#fff"/><path d="M1145.89 765c5.43-3.83 2.77-16.94-5.94-29.29-8.71-12.35-20.17-19.25-25.6-15.42s-2.77 16.94 5.94 29.29c8.71 12.35 20.17 19.2 25.6 15.42zM848.18 764.999c5.43-3.83 2.77-16.94-5.94-29.29-8.71-12.35-20.17-19.26-25.6-15.43-5.43 3.83-2.77 17 5.94 29.3s20.17 19.21 25.6 15.42z" fill="#fff"/><path d="M1066.27 897.86a109.414 109.414 0 00101.09-67.547 109.453 109.453 0 006.23-63.22 109.43 109.43 0 00-85.97-85.971 109.411 109.411 0 00-63.22 6.227 109.391 109.391 0 00-49.11 40.3 109.42 109.42 0 0090.98 170.211zM770.85 897.86a109.421 109.421 0 0021.346-216.738A109.42 109.42 0 10770.85 897.86v0zM658.002 782.498L377.65 692.6M880.27 788.439h76.579" stroke="#000" stroke-width="20" stroke-miterlimit="10"/></g><defs><clipPath id="prefix__clip0_53_27079"><path fill="#fff" d="M0 0h1500v1500H0z"/></clipPath></defs>
      <g clip-path="url(#prefix__clip0_53_25420)"><path d="M883.5 650l-16.5-3.5s-14.74-3.47-20.5 3.5c-5.76 6.97-19.09-11.38-20-6.5-.91 4.88-46.5 6-46.5 6h-40s-44.65-5.41-62.5.5-50.28-1.76-54.5-.5c-4.22 1.26-52.39 2.31-54.5 4-2.11 1.69-9.39 27.31-11.5 29-2.11 1.69-4.58 20.62-5 32-.42 11.38-10.13 18.92-10.5 26.5-.37 7.58-20.22 27.92-24.01 40.56-3.79 12.64-9.09 14.09-12.88 21.67-3.79 7.58-19.67 8.48-22.61 12.27-2.94 3.79-15.13 7.29-18.5 11.5-4.098 5.459-6.108 9.613-11.72 13.5-7.19 4.89-9.56 5.63-9.56 5.63s-33.77-1.07-36.88.2c-3.11 1.27-48 11.55-48 11.55l-11.85-3s24.4 13.39 20.18-1.36c-4.22-14.75-6.73 3-9.65-16.66s-5.52-25.69-10.15-40.14c-4.63-14.45-8.43-29.8-12.18-44.12-3.75-14.32 0-29.5 0-29.5s1.31-26.32 5.31-42.61c4-16.29 5.48-23.18 5.9-26.8.42-3.62 10.53-30.93 11.37-33 .84-2.07 25.28-66.57 25.28-66.57l29.16-30.34 66.49-64.47s115-35 121.35-38.12c6.35-3.12 20.64-6.54 21.91-7.38 1.27-.84 42.35-15.21 49.94-18.58 7.59-3.37 18.69 1.76 25 0 6.31-1.76 42.09-3.41 49.25-4.25 7.16-.84 27-11.38 45.64-10 18.64 1.38 48.28-.38 70.27 2.77 21.99 3.15 63.52 13.11 63.52 13.11l129.09 67.13 91.65 82.62 59.88 113.61-8.02 79.78C1174.5 648 1150 628 1150 628s-48 22-139.66 15.84c-1.94-.42-55.2 6.32-57.84 4.16-2.64-2.16-48-1.5-48-1.5l-21 3.5z" fill="#A760FF"/><path d="M435 581s47.08 58.45 108.11 5.17 24.83-101.9 24.83-101.9l-29.48 44-37.26 29.46-60 20.69L435 581zM1024.5 435.49s46.93-35.77 103.52 21.39c56.59 57.16 38 89.94 38 89.94l-5.37 14.54s-79.83-84.64-83.46-86c-3.63-1.36-52.69-39.87-52.69-39.87z" fill="#FFBF44"/><path d="M405.24 582.5c98.837 0 178.96-80.123 178.96-178.96s-80.123-178.96-178.96-178.96-178.96 80.123-178.96 178.96S306.403 582.5 405.24 582.5zM1101.66 250.201s118.53-30.73 213.94 92.8-71.16 271-71.16 271l-47.7 15.32-36.74-57.32s39.28-33.26-22.21-103.89-121.36-32.11-121.36-32.11l-77.91-34.06s37.81-124.86 163.14-151.74z" fill="#A760FF"/><path d="M373.5 232c-29.333 37.5-61 147 23 221 80.896 71.266 145.177 43.534 172.375 15.255.953-17.075 3.884-35.035 10.91-30.686L581.5 422.5l89.5-26c19.667-.667 60.4-.3 66 6.5 5.6 6.8-7.333 11.833-14.5 13.5-81.6 33.6-122.667 92.667-133 118l-15-50.5 3.02-26.529c-2.233 3.462-5.129 7.127-8.645 10.784A251.05 251.05 0 00568.5 484l-38 55c4.5 8.5 17.6 24.5 34 20.5s-12.167 20.333-28.5 33c-12.545 5.639-36.089 13.886-55.914 14.893L491 613l41.5-9.5c-47.389 59.2-53.079 160-50 203-22.667 15-74.3 45.8-99.5 49-25.2 3.2-35.5-14.333-37.5-23.5l-7.5-88.5 7.5-75.5 34.5-83h50.77c-2.488-2.414-4.035-4.313-4.77-5.5-39.333 8.833-131.2.8-184-102C176 349 295.5 250 373.5 232zM1187.5 260c-93.2 26.4-130.83 120.667-138 164.5l14.5 5c16.33 2 44.3 6.8 25.5 10-18.8 3.2-24.83 22.333-25.5 31.5l-39.5-27-78-41.5c7.833-25.667 38-86.9 96-126.5 58-39.6 120.83-27.167 145-16z" fill="#001647" fill-opacity=".2"/><path d="M583.41 420c37.1-11.54 52.09-24.66 133.5-24.66 18.09 0 14.09-.406 30.12-4.2C811 376 929.86 367.49 1069.19 479.08c165.48 132.53 145.14 244.65 121.69 284.41" stroke="#000" stroke-width="20" stroke-miterlimit="10"/><path d="M1154.46 647.454c5.49-.527 9.52-5.411 8.99-10.909-.52-5.497-5.41-9.527-10.9-8.999l1.91 19.908zm-594.77 17.377l-9.983-.591 9.983.591zm-192.75 192.72l-.641-9.979h-.013l-.013.001.667 9.978zm-17.29-12.79l-9.738 2.273.002.009 9.736-2.282zm802.9-217.215C875.809 654.085 591.252 639 579 639v20c10.749 0 297.453 15.115 575.46-11.546l-1.91-19.908zM579 639c-15.92 0-28.407 10.296-29.293 25.24l19.965 1.182c.103-1.738.824-3.161 2.07-4.23C573.01 660.103 575.298 659 579 659v-20zm-29.293 25.24c-4.213 71.117-40.404 116.069-80.528 143.855-40.527 28.064-84.728 38.31-102.88 39.477l1.282 19.958c21.527-1.383 69.271-12.722 112.984-42.993 44.116-30.549 84.461-80.682 89.107-159.115l-19.965-1.182zM366.273 847.573a6.62 6.62 0 01-4.379-1.283L350 862.369a26.625 26.625 0 0017.607 5.16l-1.334-19.956zm-4.379-1.283a6.622 6.622 0 01-2.508-3.811l-19.472 4.564A26.62 26.62 0 00350 862.369l11.894-16.079zm-2.506-3.802c-9.397-40.259-28.878-147.282 28.046-257.436l-17.768-9.182c-60.237 116.566-39.498 229.422-29.754 271.164l19.476-4.546z" fill="#000"/><path d="M1024.5 441s37.29-42.26 107.21 26.71C1197.68 532.77 1160 572 1160 572" stroke="#000" stroke-width="20" stroke-miterlimit="10"/><path d="M1196.21 635.52a198.421 198.421 0 0088.32-54.171 198.45 198.45 0 0048.99-91.299c24.87-106.79-41.54-213.52-148.33-238.39C1078.4 226.79 971.67 293.2 946.8 400M405.24 582.449c98.809 0 178.91-80.101 178.91-178.91s-80.101-178.91-178.91-178.91-178.91 80.101-178.91 178.91 80.101 178.91 178.91 178.91z" stroke="#000" stroke-width="20" stroke-miterlimit="10"/><path d="M430.7 580.67s40.75 59.81 114.23 3.6c75.41-57.68 21.32-108.76 21.32-108.76" stroke="#000" stroke-width="20" stroke-miterlimit="10"/></g><defs><clipPath id="prefix__clip0_53_25420"><path fill="#fff" d="M0 0h1500v1500H0z"/></clipPath></defs>
      
    </g>
    </svg>