<svg
      xmlns="http://www.w3.org/2000/svg"
      preserveAspectRatio="xMidYMin meet"
      fill="none"
      viewBox="0 0 1500 1500"
    >
      <g>
      <path fill="url(#prefix__a1)" d="M0 0h1500v1500H0z"/><defs><linearGradient id="prefix__a1" x1="0" y1="0" x2="1500" y2="1500" gradientUnits="userSpaceOnUse"><stop stop-color="#57ECFF"/><stop offset="1" stop-color="#4E41EE"/></linearGradient></defs>
      <g clip-path="url(#prefix__clip0_53_28307)"><path d="M460.5 1094.5c-138.4 66.4-174 309.33-174.5 422.5h983.5c-12.5-72.17-53.2-244.1-116-354.5-78.5-138-520-151-693-68z" fill="#A760FF"/><path d="M367 1440c-17.2-1.2-22.167 49.83-22.5 75.5l47.5-4.5c-1.167-23.17-7.8-69.8-25-71zM674 1276c-29.6 1.2-47 22.83-52 33.5l4.5 14 56 10.5c14.833-5 44.8-18.8 46-34 1.5-19-17.5-25.5-54.5-24zM554.5 1131.5c-49.2-6.8-55.167 21.17-52 36-2 6.83 1.9 23.3 33.5 34.5 39.5 14 138 33.5 166.5 31 22.8-2 24.833-33.83 23-49.5-36.5-14.5-121.8-45.2-171-52zM842 1417c-38.8 30.4-22.5 74.67-9.5 93l140.5 3.5c7.167-4 20-20.9 14-56.5-7.5-44.5-96.5-78-145-40zM1114.5 1293c-46.4-6.8-12.67-111.83 10-163.5l49 71.5c-.33 33.5-12.6 98.8-59 92z" fill="#ABF"/><path d="M386 1459l-1 47.5H284c2.833-48.17 12.8-156.6 30-205 17.2-48.4 43.5-97.5 54.5-116 29.667-31.67 93.9-93.8 113.5-89 19.6 4.8 28.5 23.67 30.5 32.5l-16.5 22.5 7.5 21 9 19c-95.2 77.2-124 210.5-126.5 267.5z" fill="#001647" fill-opacity=".2"/><path d="M705.5 1163c27.2 82.4-120.333 42.67-197.5 12.5l23.5 29.5c29.333 8.33 95.4 25.7 125 28.5 37 3.5 71-12 71.5-33 .4-16.8-14.833-32-22.5-37.5zM659.5 1315.5c-19.2.4-34.667-6.5-40-10l6.5 17c6.5 2.33 27.7 7.3 60.5 8.5 32.8 1.2 37.667-26.83 36-41-12.833-6-35.4-15.5-23-5.5 15.5 12.5-16 30.5-40 31zM960.5 1463.5c-4-32.4-41.667-52.83-60-59H920c14.667 5.83 47.3 23.2 60.5 46 13.2 22.8 1.5 49.5-6 60h-22c4.333-2.17 12-14.6 8-47zM1143 1161c16 61.6-21.67 112.67-40 126.5 53.5 10.5 70.33-58.33 68.5-87L1143 1161z" fill="#001647" fill-opacity=".2"/><path d="M289.501 1512.5c-6-101.5 31-323.03 140.5-398 158.5-108.51 616.499-87 706.499 26 64.91 81.5 99.5 222.5 132.5 371M1084.5 1337c12.33 37 29.5 110.3 43.5 175.5m-646.499 0c.333-32.83 7.7-107.6 20.5-157" stroke="#000" stroke-width="20" stroke-linecap="round"/><ellipse cx="675.502" cy="1303.28" rx="53.591" ry="29" transform="rotate(-4.687 675.502 1303.28)" stroke="#000" stroke-width="20"/><path d="M515.271 1188.27c-36.061-24.71-9.368-73.42 39.746-60.07l145.257 41.58c16.768 4.8 32.505 18.71 28.297 35.64-5.969 24.01-33.117 28.75-56 27.53-67.132-3.59-121.239-19.97-157.3-44.68zM393 1490c0 27.06-10.969 49-24.5 49s-24.5-21.94-24.5-49 10.969-49 24.5-49 24.5 21.94 24.5 49zM1173 1198.09c0 35.54-15.89 101.53-57.73 93.09-54.77-11.04-11.86-107.12 7.51-159.18" stroke="#000" stroke-width="20"/><ellipse cx="906" cy="1473" rx="87" ry="71" stroke="#000" stroke-width="20"/></g><defs><clipPath id="prefix__clip0_53_28307"><path fill="#fff" d="M0 0h1500v1500H0z"/></clipPath></defs>
      <g clip-path="url(#prefix__clip0_299_662)"><path d="M775 1185c231.41 0 419-168.12 419-375.5 0-207.383-187.59-375.5-419-375.5-231.407 0-419 168.117-419 375.5 0 207.38 187.593 375.5 419 375.5z" fill="#ABF"/><path d="M457.5 796c7.6 194 131.833 327.5 193 370l-130-55.5L438 1034l-57.5-89.5-27-106 11-104L394 662l45-82.5 83.5-69.5 109-54.182 28.5-1C569.452 513.314 451.119 633.132 457.5 796z" fill="#001647" fill-opacity=".2"/><path d="M775 1185c231.41 0 419-168.12 419-375.5 0-207.383-187.59-375.5-419-375.5-231.407 0-419 168.117-419 375.5 0 207.38 187.593 375.5 419 375.5z" stroke="#000" stroke-width="20"/></g><defs><clipPath id="prefix__clip0_299_662"><path fill="#fff" d="M0 0h1500v1500H0z"/></clipPath></defs>
      <g clip-path="url(#prefix__clip0_53_29315)"><path d="M764.05 841.24c31.336 0 56.74-25.404 56.74-56.74 0-31.337-25.404-56.74-56.74-56.74-31.337 0-56.74 25.403-56.74 56.74 0 31.336 25.403 56.74 56.74 56.74zM1048.19 841.24c31.34 0 56.74-25.404 56.74-56.74 0-31.337-25.4-56.74-56.74-56.74-31.34 0-56.74 25.403-56.74 56.74 0 31.336 25.4 56.74 56.74 56.74z" fill="#fff" stroke="#000" stroke-width="20" stroke-miterlimit="10"/><path d="M787.05 797.5c7.18 0 13-5.82 13-13s-5.82-13-13-13-13 5.82-13 13 5.82 13 13 13zM1071.19 797.5c7.18 0 13-5.82 13-13s-5.82-13-13-13-13 5.82-13 13 5.82 13 13 13z" fill="#000"/><path d="M1000.1 1063.55H831.28a5.495 5.495 0 01-5.5-5.5 89.318 89.318 0 0189.32-89.319h1.18a89.316 89.316 0 0163.158 26.161 89.312 89.312 0 0126.162 63.158c0 1.46-.58 2.86-1.61 3.89a5.503 5.503 0 01-3.89 1.61z" fill="#fff" stroke="#000" stroke-width="20" stroke-miterlimit="10"/></g><defs><clipPath id="prefix__clip0_53_29315"><path fill="#fff" d="M0 0h1500v1500H0z"/></clipPath></defs>
      <g clip-path="url(#clip0_53_27216)"> <path d="M1086 1008C1086 1050.53 1010.34 1085 917 1085C823.664 1085 748 1050.56 748 1008C748 965.443 823.664 931 917 931C1010.34 931 1086 965.474 1086 1008Z" fill="#AABBFF"/> <path opacity="0.4" d="M763.61 879.811C787.326 879.797 810.188 870.964 827.752 855.029C845.316 839.093 856.326 817.195 858.64 793.593C860.954 769.991 854.407 746.371 840.272 727.328C826.138 708.285 805.426 695.18 782.165 690.561C758.903 685.941 734.756 690.139 714.417 702.336C694.079 714.533 679.004 733.859 672.124 756.555C665.244 779.25 667.051 803.694 677.194 825.131C687.336 846.568 705.089 863.467 727 872.541C738.607 877.349 751.047 879.819 763.61 879.811Z" fill="white"/> <path d="M624.5 770L667.5 768.5L669.5 804.5L626.5 802.5L624.5 770Z" fill="#FFBF44"/> <path d="M763.589 879.811C816.36 879.811 859.139 837.032 859.139 784.261C859.139 731.49 816.36 688.711 763.589 688.711C710.818 688.711 668.039 731.49 668.039 784.261C668.039 837.032 710.818 879.811 763.589 879.811Z" stroke="black" stroke-width="20" stroke-miterlimit="10"/> <path d="M667.999 768.289H638.999C634.188 768.289 629.574 770.2 626.172 773.602C622.771 777.004 620.859 781.618 620.859 786.429C620.859 788.811 621.329 791.17 622.24 793.371C623.152 795.572 624.488 797.572 626.172 799.256C627.857 800.94 629.857 802.277 632.057 803.188C634.258 804.1 636.617 804.569 638.999 804.569H667.999" stroke="black" stroke-width="20" stroke-miterlimit="10"/> <path d="M568 978.311L610 935.311C614.376 930.829 617.76 925.475 619.931 919.599C622.101 913.723 623.011 907.455 622.599 901.204C622.188 894.953 620.465 888.859 617.544 883.317C614.622 877.776 610.566 872.912 605.64 869.041V869.041C600.186 864.759 595.806 859.263 592.847 852.992C589.888 846.721 588.431 839.846 588.594 832.913C588.756 825.981 590.532 819.181 593.781 813.055C597.03 806.929 601.662 801.645 607.31 797.621L619.14 789.191" stroke="black" stroke-width="20" stroke-miterlimit="10" stroke-linecap="round"/> <path d="M829 959L789.5 985L804 997H829C834.5 997 853 1000.5 864.5 1001C876 1001.5 877 997 883 997C889 997 896 990 898.5 989C900.5 988.2 904.667 982.667 906.5 980L918.5 971.5C919.667 972.833 922.6 975.5 925 975.5C928 975.5 929 981.5 933 985C937 988.5 958.5 994.5 967 997C973.8 999 978.5 997.833 980 997H1012C1014.5 997 1023 997.5 1023 997C1023 996.5 1031 994.5 1035.5 994.5H1046V985C1043.5 982.5 1037.9 977.1 1035.5 975.5C1032.5 973.5 1027.5 969 1023 965.5C1018.5 962 1012 955.5 1007 951.5C1003 948.3 1000.67 945.833 1000 945L989 933.5L977.5 921.5L971 916.5L955 913.5L929 927.5L906.5 930L892 916.5H877L853 927.5L829 959Z" fill="white"/> <path d="M859.5 954.5C848.7 973.3 829.667 989.333 821.5 995L784 986.5L793 978L833.5 952C836 944.167 845.4 926.9 863 920.5C880.6 914.1 894.667 923.167 899.5 928.5C884 924 873 931 859.5 954.5Z" fill="#001647" fill-opacity="0.2"/> <path d="M943 960C939.4 936.8 956.833 923 966 919L958 913.5C942.833 915.833 914 927.8 920 957C926 986.2 968.5 997.5 989 999.5C975.167 996 946.6 983.2 943 960Z" fill="#001647" fill-opacity="0.2"/> <path d="M1086 1008C1086 1050.53 1010.34 1085 917 1085C823.664 1085 748 1050.56 748 1008C748 965.443 823.664 931 917 931C1010.34 931 1086 965.474 1086 1008Z" fill="#AABBFF"/> <path opacity="0.5" d="M689.63 721.059C689.63 721.059 688.76 700.969 734.18 694.859L818.91 861.699C818.91 861.699 803.19 880.039 769.91 879.469L689.63 721.059Z" fill="white"/> <path opacity="0.5" d="M749.001 692.238C749.001 692.238 750.831 691.898 766.361 681.238L841.481 835.848C841.481 835.848 840.331 846.208 827.621 849.128L749.001 692.238Z" fill="white"/> <path d="M829 959L789.5 985L804 997H829C834.5 997 853 1000.5 864.5 1001C876 1001.5 877 997 883 997C889 997 896 990 898.5 989C900.5 988.2 904.667 982.667 906.5 980L918.5 971.5C919.667 972.833 922.6 975.5 925 975.5C928 975.5 929 981.5 933 985C937 988.5 958.5 994.5 967 997C973.8 999 978.5 997.833 980 997H1012C1014.5 997 1023 997.5 1023 997C1023 996.5 1031 994.5 1035.5 994.5H1046V985C1043.5 982.5 1037.9 977.1 1035.5 975.5C1032.5 973.5 1027.5 969 1023 965.5C1018.5 962 1012 955.5 1007 951.5C1003 948.3 1000.67 945.833 1000 945L989 933.5L977.5 921.5L971 916.5L955 913.5L929 927.5L906.5 930L892 916.5H877L853 927.5L829 959Z" fill="white"/> <path d="M859.5 954.5C848.7 973.3 829.667 989.333 821.5 995L784 986.5L793 978L833.5 952C836 944.167 845.4 926.9 863 920.5C880.6 914.1 894.667 923.167 899.5 928.5C884 924 873 931 859.5 954.5Z" fill="#001647" fill-opacity="0.2"/> <path d="M943 960C939.4 936.8 956.833 923 966 919L958 913.5C942.833 915.833 914 927.8 920 957C926 986.2 968.5 997.5 989 999.5C975.167 996 946.6 983.2 943 960Z" fill="#001647" fill-opacity="0.2"/> <path d="M1052.26 992.431C1025.86 1000.33 958.48 1015.62 927.1 977.73C912.19 959.73 916.1 932.58 936.1 920.41C943.021 916.179 950.988 913.969 959.1 914.031C974.5 914.031 984.92 924.351 991.69 935.531C1003.52 955.352 1021.3 970.937 1042.5 980.071L1052.7 984.391C1053.51 984.734 1054.2 985.319 1054.66 986.066C1055.13 986.813 1055.35 987.686 1055.3 988.565C1055.26 989.444 1054.94 990.287 1054.39 990.979C1053.85 991.67 1053.1 992.177 1052.26 992.431V992.431Z" stroke="black" stroke-width="20" stroke-miterlimit="10" stroke-linecap="round"/> <path d="M783.87 992.43C810.27 1000.33 877.65 1015.62 909.04 977.73C923.94 959.73 920.04 932.58 900.04 920.41C893.111 916.161 885.129 913.94 877 914C861.6 914 851.18 924.32 844.41 935.5C832.578 955.319 814.798 970.905 793.6 980.04L783.39 984.36C782.57 984.702 781.876 985.29 781.405 986.044C780.934 986.797 780.71 987.679 780.762 988.566C780.815 989.453 781.143 990.302 781.7 990.994C782.257 991.686 783.015 992.188 783.87 992.43Z" stroke="black" stroke-width="20" stroke-miterlimit="10" stroke-linecap="round"/> <path d="M624.5 770L667.5 768.5L669.5 804.5L626.5 802.5L624.5 770Z" fill="#FFBF44"/> <path d="M646 802C640.8 791.6 643.833 777.667 646 772C638 768.167 622.1 764.8 622.5 782C622.9 799.2 638.333 802.5 646 802Z" fill="#001647" fill-opacity="0.2"/> <path d="M763.589 879.811C816.36 879.811 859.139 837.032 859.139 784.261C859.139 731.49 816.36 688.711 763.589 688.711C710.818 688.711 668.039 731.49 668.039 784.261C668.039 837.032 710.818 879.811 763.589 879.811Z" stroke="black" stroke-width="20" stroke-miterlimit="10"/> <path d="M667.999 768.289H638.999C634.188 768.289 629.574 770.2 626.172 773.602C622.771 777.004 620.859 781.618 620.859 786.429C620.859 788.811 621.329 791.17 622.24 793.371C623.152 795.572 624.488 797.572 626.172 799.256C627.857 800.94 629.857 802.277 632.057 803.188C634.258 804.1 636.617 804.569 638.999 804.569H667.999" stroke="black" stroke-width="20" stroke-miterlimit="10"/> <path d="M568 978.311L610 935.311C614.376 930.829 617.76 925.475 619.931 919.599C622.101 913.723 623.011 907.455 622.599 901.204C622.188 894.953 620.465 888.859 617.544 883.317C614.622 877.776 610.566 872.912 605.64 869.041V869.041C600.186 864.759 595.806 859.263 592.847 852.992C589.888 846.721 588.431 839.846 588.594 832.913C588.756 825.981 590.532 819.181 593.781 813.055C597.03 806.929 601.662 801.645 607.31 797.621L619.14 789.191" stroke="black" stroke-width="20" stroke-miterlimit="10" stroke-linecap="round"/> </g> <defs> <clipPath id="clip0_53_27216"> <rect width="1500" height="1500" fill="white"/> </clipPath> </defs>
      <g clip-path="url(#a)"><path fill="#F8CF47" d="M452.1 482.2C347.2 595 350.8 728.9 350.8 728.9c-.4 14.1 15 20.4 15 20.4l129-56.5 35.6-18.9 22.4 26.9c19.1 7.8 57.9 23.7 60.3 24.9 2.4 1.2 62.8 13.8 92.7 19.9 40.5-1.8 141.3-12.9 219.8-42.4 78.6-29.5 139.1-28.6 159.5-24.4 20.8 5.8 72.6 18 113.6 20.4 41.1 2.4 26.4-33.9 14-52.3l-23.9-14-46.3-19.4-43.1-91.5s-14.3-48.1-134.7-124.2c-120.4-76.1-240.9-57.2-240.9-57.2S557 369.3 452.1 482.2Z"/><path fill="#001647" fill-opacity=".2" d="M351.5 746c1.5-26 11-95.4 37-165 8.2-23.8 47.8-89.7 141-162.5S734 339.8 778 346C574 450 511.3 613 505.5 681.5L398 732l-46.5 14ZM747.5 579.5c-137.6 22.4-202.7 67-218 86.5l63-22.5 100-33 187.5-20 261 23.5-4-14.5c-49.5-17-217.5-48-389.5-20Z"/><path stroke="#000" stroke-miterlimit="10" stroke-width="20" d="M539.1 669.8c-90.9 33.4-140.3 60.4-165.6 77-2.3 1.5-5 2.4-7.7 2.4a14.86 14.86 0 0 1-13.5-7.8c-1.3-2.4-1.9-5.2-1.7-7.9 4.2-68.2 30.2-205.3 154.5-300.2 153.1-117 298.1-92 311-89.4.8.2 1.5.3 2.3.4 20 3.6 261.5 51.2 326.2 276.2"/><path stroke="#000" stroke-miterlimit="10" stroke-width="20" d="M539.1 669.8s166.2-121 586.3-54.1c0 0 48.7 9.6 90.1 32.1 6.9 3.8 12.1 10.1 14.5 17.6 2.4 7.5 1.8 15.7-1.6 22.8a30.77 30.77 0 0 1-39.7 14.9c-33.3-14.3-83.3-29.4-137.4-32.5-42-2.4-134.7 36.9-203.6 56a417.01 417.01 0 0 1-171.1 10.8c-70.3-10.3-150.4-30.3-137.5-67.6Z"/><path fill="#000" d="M936.99 509c.9 40.48-43.42 61.38-74.8 38.44a55.91 55.91 0 0 1-7.84-6.7c-.36-.36-.42-.36-.72.05a40.3 40.3 0 0 1-20.77 14.38c-29.16 9.04-60.66-17.55-56.7-48.15 2.27-17.66 15.68-31.67 32.27-35.5-6.95-38.63 32.33-62.64 65.56-42.7 10.12 6.65 16.59 18.26 19.1 29.94 0 0 0 .06.06.06 23.66 5.45 41.86 20 43.84 50.18Z"/><path fill="#97A5DE" fill-rule="evenodd" d="M856.71 430.87h.12a30.28 30.28 0 0 1 5.2 1.74c2.82 1.2 5.52 2.69 7.91 4.55a37.76 37.76 0 0 1 8.45 8.92 34.57 34.57 0 0 1 5.15 12.15c.06.36.06.36-.3.42-.3 0-.6.06-.9.06-.18 0-.36.06-.54.06-1.02.06-1.98.18-2.93.36-1.74.24-3.48.6-5.21 1.08a40.64 40.64 0 0 0-5.4 1.8 44.42 44.42 0 0 0-8.02 4.19 48.8 48.8 0 0 0-5.63 4.37 52.2 52.2 0 0 0-4.37 4.55 40.08 40.08 0 0 0-2.99 4.13l-.9 1.44-.36.66c0 .06-.06.06-.06.12s-.06.06-.06.12c-.06.12-.12.12-.18.06-.24-.18-.48-.42-.72-.6a36.05 36.05 0 0 0-2.4-1.86 35.62 35.62 0 0 0-4.48-2.87 50.18 50.18 0 0 0-6.83-3.18c-1.5-.54-3-1.01-4.55-1.37a36.14 36.14 0 0 0-4.43-.84c-.9-.12-1.86-.24-2.81-.3-.12 0-.3 0-.42-.06h-.18c-.12 0-.18-.06-.24-.18s-.06-.3-.12-.42c-.12-.48-.24-.96-.3-1.44-.12-.24-.12-.54-.18-.78 0-.12-.06-.24-.06-.3-.18-.77-.3-1.61-.36-2.4-.06-.47-.06-.89-.12-1.37-.06-.84-.12-1.73-.06-2.57 0-1.26.12-2.46.24-3.66.18-1.73.54-3.47 1.02-5.08a29.4 29.4 0 0 1 2.4-5.87 30.38 30.38 0 0 1 9.7-10.9 31.7 31.7 0 0 1 15.08-5.39c1.2-.12 2.4-.18 3.6-.12 1.13 0 2.27.12 3.4.24 1.15.12 2.28.3 3.42.6.12 0 .24.06.36.12-.06-.18 0-.18.06-.18Zm38.98 38.38c.18 0 .36.06.54.12.06 0 .12.06.18.06 3.17.84 6.23 2.04 9.1 3.53a35.94 35.94 0 0 1 6.23 4.08 42.25 42.25 0 0 1 7.37 7.42 41 41 0 0 1 8.14 17.72c.18.96.36 1.92.48 2.88.12 1.14.24 2.27.3 3.47.06.84.06 1.62 0 2.46v.42c0 .53-.06 1.13-.12 1.67 0 .24-.06.42-.06.66 0 .12 0 .3-.06.42a36.13 36.13 0 0 1-2.4 9.76 32.87 32.87 0 0 1-2.7 5.45 39.6 39.6 0 0 1-4.48 5.93c-.9 1.02-1.92 1.91-2.94 2.81a33.71 33.71 0 0 1-4.43 3.24 34.23 34.23 0 0 1-7 3.35 35.56 35.56 0 0 1-7.19 1.74c-.66.12-1.26.17-1.92.23-.72.06-1.37.12-2.1.12h-2.39c-.66 0-1.37-.06-2.03-.12a30.68 30.68 0 0 1-3.3-.35c-1.37-.24-2.7-.48-4.07-.84a43.48 43.48 0 0 1-15.15-7.55 54.27 54.27 0 0 1-2.81-2.4 34 34 0 0 1-2.52-2.57c-.12-.18-.3-.3-.42-.48 0-.06-.06-.06-.06-.12 0 0 0-.06-.05-.06l-.07-.06a.46.46 0 0 1-.24-.24s0-.06-.05-.06c-.18-.18-.3-.36-.48-.6l-.18-.17c-.24-.3-.24-.3-.12-.66 0-.06.06-.12.06-.18.06-.18.12-.42.24-.6a43.09 43.09 0 0 0 1.67-6.05c.18-.78.3-1.62.36-2.4a43 43 0 0 0 .3-2.75c0-.3.06-.6.06-.9 0-.24 0-.54.06-.77.06-.54.06-1.08 0-1.62v-.66c0-.54 0-1.14-.06-1.68 0-.18 0-.36-.06-.54 0-.24 0-.48-.06-.72-.06-.3-.06-.53-.06-.83-.06-.36-.06-.72-.12-1.02-.12-.96-.3-1.92-.48-2.81a38.8 38.8 0 0 0-1.8-6.23 46.35 46.35 0 0 0-3.94-8.2s0-.07-.07-.07c-.05-.06-.05-.12-.12-.24-.05-.06-.12-.12-.12-.18-.53-.83-1.07-1.73-1.73-2.51-.12-.18-.18-.36-.06-.54l.36-.66a.45.45 0 0 0 .12-.24c.12-.36.36-.72.54-1.07l.06-.13a33.5 33.5 0 0 1 6.53-8.5 38.75 38.75 0 0 1 7.12-5.33 37.4 37.4 0 0 1 19.82-4.85c1.14.06 2.33.12 3.47.24a35.04 35.04 0 0 1 3.65.6c.48 0 .9.06 1.26.18Zm-64.19 14.13c2.46 1.38 4.97 2.76 7.13 4.55 1.08.9 2.15 1.86 3.11 2.88a38.58 38.58 0 0 1 7.66 11.74c.66 1.61 1.2 3.23 1.56 4.9.24 1.08.48 2.22.66 3.36l.18 1.91v.18c.06.66.06 1.26.06 1.92v.48c0 .66 0 1.25-.06 1.91v.36c0 .3-.06.66-.06.96 0 .12 0 .3-.06.42a26.8 26.8 0 0 1-.78 4.37 30.67 30.67 0 0 1-20.12 21.8 30.95 30.95 0 0 1-5.75 1.38c-.83.11-1.73.17-2.57.23-1.08.06-2.16.06-3.23.06-.42 0-.9-.06-1.32-.06-.18 0-.42-.06-.6-.06a26.68 26.68 0 0 1-3.05-.41c-2.4-.42-4.8-1.14-7.07-2.1a36.96 36.96 0 0 1-9.34-5.69c-.9-.78-1.8-1.56-2.63-2.45a35.51 35.51 0 0 1-4.08-4.91 41.04 41.04 0 0 1-2.63-4.44c-.78-1.61-1.5-3.29-2.04-4.96 0-.07 0-.13-.06-.19-.18-.47-.3-.9-.42-1.37v-.12c-.36-1.5-.65-3-.9-4.55a35.8 35.8 0 0 1-.23-5.7c.06-1.6.3-3.28.6-4.9.35-1.74.83-3.41 1.43-5.03s1.38-3.18 2.22-4.67a31.14 31.14 0 0 1 11.02-11.02 29.2 29.2 0 0 1 5.2-2.4c1.56-.53 3.12-.95 4.74-1.25.9-.18 1.85-.3 2.75-.42 1.26-.12 2.51-.18 3.77-.18.96 0 1.92.06 2.82.18 2.18.23 4.44.51 6.56 1.08 1.6.44 3.6 1.14 5.53 2.21Z" clip-rule="evenodd"/><path fill="#000" d="M891.98 512.06c2.1 0 4.07.48 5.93 1.38 1.56.78 3 1.8 4.19 3.11a13.37 13.37 0 0 1 2.81 4.67c.36.9.6 1.86.72 2.82.12 1.08.18 2.1.06 3.17a13.57 13.57 0 0 1-.84 3.41 12.2 12.2 0 0 1-10.06 7.54 13.62 13.62 0 0 1-7.72-1.56 13.82 13.82 0 0 1-7.3-10.88c-.18-2.1.11-4.14.9-6.11 1.13-2.7 2.99-4.73 5.62-6.11a11.74 11.74 0 0 1 4.25-1.32c.42-.12.9-.12 1.44-.12ZM816.83 514.04c0 2.34-.6 4.55-1.8 6.53a11.67 11.67 0 0 1-4.55 4.3c-1.5.85-3.17 1.33-4.9 1.45a13.72 13.72 0 0 1-12.76-6.47 15.16 15.16 0 0 1-1.68-3.77c-.24-.9-.36-1.8-.42-2.7-.18-2.87.54-5.5 2.16-7.84 1.14-1.68 2.63-3 4.5-3.9a11.94 11.94 0 0 1 4.06-1.25 13.36 13.36 0 0 1 6.59.84c1.98.78 3.71 1.97 5.15 3.53a14.31 14.31 0 0 1 3.11 5.39c.36 1.26.54 2.57.54 3.9Z"/><path fill="#7985B4" d="M892.95 530.63c-1.64-.04-3.01-.68-4.14-1.85a5.53 5.53 0 0 1-1.58-3.3 4.9 4.9 0 0 1 4.2-5.57c1.54-.24 2.91.2 4.14 1.1.98.7 1.71 1.7 2.1 2.84a5.07 5.07 0 0 1-2.27 6.17c-.76.4-1.6.62-2.45.6ZM808.75 513.9a4.56 4.56 0 0 1-1.97 3.88 4.6 4.6 0 0 1-3.43.82 5.5 5.5 0 0 1-3.62-2.13 5.2 5.2 0 0 1-1.16-3.12 4.66 4.66 0 0 1 3.8-4.8 5.27 5.27 0 0 1 4.92 1.74 5.5 5.5 0 0 1 1.37 2.64c.07.32.08.64.09.97Z"/></g><defs><clipPath id="a"><path fill="#fff" d="M0 0h1500v1500H0z"/></clipPath></defs>
      
    </g>
    </svg>