<svg
      xmlns="http://www.w3.org/2000/svg"
      preserveAspectRatio="xMidYMin meet"
      fill="none"
      viewBox="0 0 1500 1500"
    >
      <g>
      <path fill="url(#prefix__paint0_linear_53_28789)" d="M0 0h1500v1500H0z"/><defs><linearGradient id="prefix__paint0_linear_53_28789" x1="1500" y1="1500" x2="0" y2="0" gradientUnits="userSpaceOnUse"><stop stop-color="#FFD130"/><stop offset="1" stop-color="#FFEEDB"/></linearGradient></defs>
      <g clip-path="url(#prefix__clip0_53_28276)"><path d="M460.5 1094.5c-138.4 66.4-174 309.33-174.5 422.5h983.5c-12.5-72.17-53.2-244.1-116-354.5-78.5-138-520-151-693-68z" fill="#99C4CB"/><path d="M367 1440c-17.2-1.2-22.167 49.83-22.5 75.5l47.5-4.5c-1.167-23.17-7.8-69.8-25-71zM674 1276c-29.6 1.2-47 22.83-52 33.5l4.5 14 56 10.5c14.833-5 44.8-18.8 46-34 1.5-19-17.5-25.5-54.5-24zM554.5 1131.5c-49.2-6.8-55.167 21.17-52 36-2 6.83 1.9 23.3 33.5 34.5 39.5 14 138 33.5 166.5 31 22.8-2 24.833-33.83 23-49.5-36.5-14.5-121.8-45.2-171-52zM842 1417c-38.8 30.4-22.5 74.67-9.5 93l140.5 3.5c7.167-4 20-20.9 14-56.5-7.5-44.5-96.5-78-145-40zM1114.5 1293c-46.4-6.8-12.67-111.83 10-163.5l49 71.5c-.33 33.5-12.6 98.8-59 92z" fill="#ABF"/><path d="M386 1459l-1 47.5H284c2.833-48.17 12.8-156.6 30-205 17.2-48.4 43.5-97.5 54.5-116 29.667-31.67 103.4-103.3 123-98.5 19.6 4.8 34 29.67 36 38.5l-31.5 26 7.5 21 9 19c-95.2 77.2-124 210.5-126.5 267.5z" fill="#001647" fill-opacity=".2"/><path d="M705.5 1163c27.2 82.4-120.333 42.67-197.5 12.5l23.5 29.5c29.333 8.33 95.4 25.7 125 28.5 37 3.5 71-12 71.5-33 .4-16.8-14.833-32-22.5-37.5zM659.5 1315.5c-19.2.4-34.667-6.5-40-10l6.5 17c6.5 2.33 27.7 7.3 60.5 8.5 32.8 1.2 37.667-26.83 36-41-12.833-6-35.4-15.5-23-5.5 15.5 12.5-16 30.5-40 31zM960.5 1463.5c-4-32.4-41.667-52.83-60-59H920c14.667 5.83 47.3 23.2 60.5 46 13.2 22.8 1.5 49.5-6 60h-22c4.333-2.17 12-14.6 8-47zM1143 1161c16 61.6-21.67 112.67-40 126.5 53.5 10.5 70.33-58.33 68.5-87L1143 1161z" fill="#001647" fill-opacity=".2"/><path d="M289.501 1512.5c-6-101.5 31-323.03 140.5-398 158.5-108.51 616.499-87 706.499 26 64.91 81.5 99.5 222.5 132.5 371M1084.5 1337c12.33 37 29.5 110.3 43.5 175.5m-646.499 0c.333-32.83 7.7-107.6 20.5-157" stroke="#000" stroke-width="20" stroke-linecap="round"/><ellipse cx="675.502" cy="1303.28" rx="53.591" ry="29" transform="rotate(-4.687 675.502 1303.28)" stroke="#000" stroke-width="20"/><path d="M515.271 1188.27c-36.061-24.71-9.368-73.42 39.746-60.07l145.257 41.58c16.768 4.8 32.505 18.71 28.297 35.64-5.969 24.01-33.117 28.75-56 27.53-67.132-3.59-121.239-19.97-157.3-44.68zM393 1490c0 27.06-10.969 49-24.5 49s-24.5-21.94-24.5-49 10.969-49 24.5-49 24.5 21.94 24.5 49zM1173 1198.09c0 35.54-15.89 101.53-57.73 93.09-54.77-11.04-11.86-107.12 7.51-159.18" stroke="#000" stroke-width="20"/><ellipse cx="906" cy="1473" rx="87" ry="71" stroke="#000" stroke-width="20"/></g><defs><clipPath id="prefix__clip0_53_28276"><path fill="#fff" d="M0 0h1500v1500H0z"/></clipPath></defs>
      <g clip-path="url(#prefix__clip0_299_662)"><path d="M775 1185c231.41 0 419-168.12 419-375.5 0-207.383-187.59-375.5-419-375.5-231.407 0-419 168.117-419 375.5 0 207.38 187.593 375.5 419 375.5z" fill="#ABF"/><path d="M457.5 796c7.6 194 131.833 327.5 193 370l-130-55.5L438 1034l-57.5-89.5-27-106 11-104L394 662l45-82.5 83.5-69.5 109-54.182 28.5-1C569.452 513.314 451.119 633.132 457.5 796z" fill="#001647" fill-opacity=".2"/><path d="M775 1185c231.41 0 419-168.12 419-375.5 0-207.383-187.59-375.5-419-375.5-231.407 0-419 168.117-419 375.5 0 207.38 187.593 375.5 419 375.5z" stroke="#000" stroke-width="20"/></g><defs><clipPath id="prefix__clip0_299_662"><path fill="#fff" d="M0 0h1500v1500H0z"/></clipPath></defs>
      <g clip-path="url(#prefix__clip0_53_29233)" stroke="#000" stroke-width="20" stroke-miterlimit="10" stroke-linecap="round"><path d="M719.699 827.31l79.06-79.06M719.699 748.25l79.06 79.06M1006.7 827.31l79.06-79.06M1006.7 748.25l79.06 79.06M810.1 1009.23c12.24-8.37 30-8.37 42.21 0l.44.3a37.403 37.403 0 0021.105 6.53c7.531 0 14.888-2.28 21.105-6.53v0a37.403 37.403 0 0121.105-6.53c7.531 0 14.887 2.28 21.105 6.53l1.09.74a37.403 37.403 0 0021.105 6.53c7.531 0 14.887-2.28 21.105-6.53l1.82-1.24c12.24-8.37 30-8.37 42.21 0"/></g><defs><clipPath id="prefix__clip0_53_29233"><path fill="#fff" d="M0 0h1500v1500H0z"/></clipPath></defs>
      <g clip-path="url(#prefix__clip0_53_27270)"><path opacity=".5" d="M650.33 766.53s-2.59-63.6 77.41-64.6c80-1 105.45 2.24 105.45 2.24l29.55 17.76 13 59.31s1 26 0 31.36c-1 5.36-25.33 41.83-25.33 41.83s-41.37 47.5-90.52 42S666.499 849 666.499 849s-19.759-49.32-20.269-49.69c-.51-.37 4.1-32.78 4.1-32.78zM971.33 725.75s24.62-35.82 106.52-28.32c81.9 7.5 88.3 28.32 88.3 28.32s3.59-3.82 6.59 23.18 6 40 6 40-3 17-4 21-2.41 19-5.21 24-9 15.59-11.4 18.29c-2.4 2.7-11.94 13.84-20.67 20.77-8.73 6.93-28.37 15.28-30 16.61-1.63 1.33-10 8.21-17.32 7.26-7.32-.95-16.4 1.13-32.4.07-16-1.06-58.738-22.431-60.738-26.431s-15-2-20-18-9.902-20.409-11.582-23.989c-1.68-3.58-8.68-9.82-8.68-26.2s5-29.38 6-35.38c1-6 8.59-41.18 8.59-41.18z" fill="#A5F15C"/><path d="M681.5 720.5S687 709.23 739 703l97 169.89s-18 18.68-56.07 18.1L681.5 720.5zM756.58 700.12s-4.78 3.73 13-7.12L856 850.55s5.57 6.48-9 9.45l-90.42-159.88zM991.001 719.382s-1-21.754 50.999-28.382l97 180.731s-18 19.872-56.07 19.255l-91.929-171.604zM1059.58 700.12s-4.78 3.73 13.05-7.12L1159 850.55s5.57 6.48-9 9.45l-90.42-159.88z" fill="#fff" fill-opacity=".3"/><path d="M722.89 697.43h79.71a72.65 72.65 0 0172.65 72.65v13.85a112.499 112.499 0 01-112.5 112.5 112.499 112.499 0 01-112.5-112.5v-13.86a72.653 72.653 0 0172.64-72.64v0zM1028.89 697.43h79.71c19.27 0 37.75 7.654 51.37 21.278a72.63 72.63 0 0121.28 51.372v13.85a112.5 112.5 0 11-225 0v-13.86a72.653 72.653 0 0172.64-72.64v0zM874.6 792.43a68.918 68.918 0 0181.64 0M866 736h98M650.24 755.43l-266.5-60.5" stroke="#000" stroke-width="20" stroke-miterlimit="10"/></g><defs><clipPath id="prefix__clip0_53_27270"><path fill="#fff" d="M0 0h1500v1500H0z"/></clipPath></defs>
      <g clip-path="url(#prefix__clip0_53_26093)"><path d="M1324.57 565.17c-9.32 17.15-37.98 54.33-160.57 81.33-14-25.5-30.5-51-46-68l-142.22 10.74L603.5 629l-173.12 32.64-50-1.87L366.7 692c-4.54 9.61-7 22.58-10.66 32.43-50.35-.82-147.84-11.24-174.84-44.9-6.52-8.12-4.78-34.69-2.12-45.54 2.31-9.44 24.84-31 82.25-55.86 37.48-16.22 83.53-26.88 146.32-42.31 26.47-6.5 51.19-12.43 76-17.54L511 508.5l239-30 263.5-9.5 41.53 2.56c67.89.88 109.14 5.87 153.79 13.17 86 14 114.51 49 118.82 65.46l.17.66.25.65s1.05 5.4-3.49 13.67z" fill="#3A3A3A"/><path d="M434 462.75V518l220.44-30.86L1036 469.72 1023.72 408l-220.44 11-118.15 8.46L434 462.75z" fill="#FF6247"/><path d="M427.5 193l8 271.5L610 436l215.5-22.5L1027 404 951 94l-32-19-162.5-12L610 83.5l-127.5 40-55 27V193z" fill="#3A3A3A"/><path d="M540.5 504c-28.8-106.8-28.667-306.167-25-392.5-4.167 2-18.3 7.6-41.5 14s-42 32.667-48.5 45L434 526l-85 23.5c-68.5 16.833-198.6 64.2-171 119 27.6 54.8 131.833 59.5 180.5 55l23.5-63 82-9c51.2-74.8 252.333-147.833 346.5-175l-270 27.5zM1215 628c-2.8-40.4-67.17-49.5-99-49 13.2 12 33.83 49.333 42.5 66.5L1215 628z" fill="#000" fill-opacity=".2"/><path d="M382.87 669.459s367-91 735-81M371.311 730s-218.4 5-196-86.57c22.4-91.57 448.87-153.27 448.87-153.27s667.689-74.76 701.309 53.3c0 0 35.38 63-173.2 107.67" stroke="#000" stroke-width="20" stroke-miterlimit="10"/><path d="M430.2 522.25l-5-336.25c0-10 1.21-19.65 6.25-28.11A46.002 46.002 0 01453.2 139l30.47-12.71c143.44-59.78 280.81-77.83 434-52.08a46.003 46.003 0 0137.44 36.25l86.14 358M434 468s259.7-66.27 599-62.87" stroke="#000" stroke-width="20" stroke-miterlimit="10"/></g><defs><clipPath id="prefix__clip0_53_26093"><path fill="#fff" d="M0 0h1500v1500H0z"/></clipPath></defs>
      
    </g>
    </svg>