<svg
      xmlns="http://www.w3.org/2000/svg"
      preserveAspectRatio="xMidYMin meet"
      fill="none"
      viewBox="0 0 1500 1500"
    >
      <g>
      <path fill="url(#prefix__paint0_linear_53_30462)" d="M0 0h1500v1500H0z"/><defs><linearGradient id="prefix__paint0_linear_53_30462" x1="0" y1="0" x2="1500" y2="1500" gradientUnits="userSpaceOnUse"><stop stop-color="#FFC4F6"/><stop offset="1" stop-color="#FF3DB1"/></linearGradient></defs>
      <g clip-path="url(#prefix__clip0_53_28693)"><path d="M1108.09 1432.16l14.41 71.69h142.41l-32.7-113.79-124.12 42.1zM288.689 1505.57l13.36-113.94 184.06 50.77-2.67 63.17h-194.75z" fill="#ABF"/><path d="M303.471 1382.79L325 1260l56-105.5s64.91-55.22 110.5-71c0 0 87.12-38.32 292.5-41 205.38-2.68 276 52.5 276 52.5l58.65 30.23 39.22 52.98 39.13 78.97 38.22 131.86-127.13 39.32 14.41 72.47-643.659 1.15 7.27-66.62-182.64-52.57z" fill="#A760FF"/><path d="M500.002 1213.5c-101.2 100-117.834 249-113.5 311l-99.502-13c-1.6-110.8 39-247.5 59.5-302l39.501-52.5 15.5-20.5 66.5-42.5c149.6-59.6 294-54.83 347.5-45-63 13.17-214.299 64.5-315.499 164.5z" fill="#001647" fill-opacity=".2"/><path d="M942.58 1333.82L867.34 1275l4.68 40.3h-90l4.29 36.89h90l4.68 40.3 61.59-58.67zm-205.16 55.26l-4.68-40.3L671 1407.6l75.38 58.64-4.66-40.13h90l-4.3-37.05-90 .02z" fill="#fff"/><path d="M289.5 1512.5c-1.965-33.24.683-79.37 8.981-129m970.519 128c-9.49-42.7-19.11-84.78-29.54-125M1084.5 1337c7.13 21.39 15.88 54.92 24.69 92m18.81 83.5c-5.91-27.5-12.37-56.45-18.81-83.5m-627.69 83.5c.172-16.93 2.213-45 5.905-75m14.595-82c-6.201 23.93-11.126 53.81-14.595 82m-188.924-54c17.035-101.9 57.885-218.59 131.519-269 158.5-108.51 616.5-87 706.5 26 46.24 58.07 77.1 146.33 102.96 246m-940.979-3l188.924 54m621.785-8.5l130.27-42.5" stroke="#000" stroke-width="20" stroke-linecap="round"/></g><defs><clipPath id="prefix__clip0_53_28693"><path fill="#fff" d="M0 0h1500v1500H0z"/></clipPath></defs>
      <g clip-path="url(#prefix__clip0_299_662)"><path d="M775 1185c231.41 0 419-168.12 419-375.5 0-207.383-187.59-375.5-419-375.5-231.407 0-419 168.117-419 375.5 0 207.38 187.593 375.5 419 375.5z" fill="#ABF"/><path d="M457.5 796c7.6 194 131.833 327.5 193 370l-130-55.5L438 1034l-57.5-89.5-27-106 11-104L394 662l45-82.5 83.5-69.5 109-54.182 28.5-1C569.452 513.314 451.119 633.132 457.5 796z" fill="#001647" fill-opacity=".2"/><path d="M775 1185c231.41 0 419-168.12 419-375.5 0-207.383-187.59-375.5-419-375.5-231.407 0-419 168.117-419 375.5 0 207.38 187.593 375.5 419 375.5z" stroke="#000" stroke-width="20"/></g><defs><clipPath id="prefix__clip0_299_662"><path fill="#fff" d="M0 0h1500v1500H0z"/></clipPath></defs>
      <g clip-path="url(#prefix__clip0_53_29369)" stroke="#000" stroke-width="20" stroke-miterlimit="10"><path d="M729.63 808.821l88.08-16a7.737 7.737 0 006.23-6.4 7.757 7.757 0 00-.73-4.64 7.674 7.674 0 00-3.27-3.35l-82.39-43.72M1087 808.821l-87.999-16a7.71 7.71 0 01-6.23-6.4 7.784 7.784 0 01.72-4.63 7.65 7.65 0 013.28-3.36l82.389-43.72" stroke-linecap="round"/><path d="M1000 1001.64c0 35-39.4 63.36-88 63.36s-88-28.36-88-63.36a47.358 47.358 0 014.59-20.231c6.41-13.7 21-19 33.42-12.86 14.2 7.07 31.42 11.21 50 11.21s35.79-4.14 50-11.21c12.4-6.18 27-.84 33.42 12.86a47.337 47.337 0 014.57 20.231z" fill="#fff"/></g><defs><clipPath id="prefix__clip0_53_29369"><path fill="#fff" d="M0 0h1500v1500H0z"/></clipPath></defs>
      <g clip-path="url(#prefix__clip0_53_27270)"><path opacity=".5" d="M650.33 766.53s-2.59-63.6 77.41-64.6c80-1 105.45 2.24 105.45 2.24l29.55 17.76 13 59.31s1 26 0 31.36c-1 5.36-25.33 41.83-25.33 41.83s-41.37 47.5-90.52 42S666.499 849 666.499 849s-19.759-49.32-20.269-49.69c-.51-.37 4.1-32.78 4.1-32.78zM971.33 725.75s24.62-35.82 106.52-28.32c81.9 7.5 88.3 28.32 88.3 28.32s3.59-3.82 6.59 23.18 6 40 6 40-3 17-4 21-2.41 19-5.21 24-9 15.59-11.4 18.29c-2.4 2.7-11.94 13.84-20.67 20.77-8.73 6.93-28.37 15.28-30 16.61-1.63 1.33-10 8.21-17.32 7.26-7.32-.95-16.4 1.13-32.4.07-16-1.06-58.738-22.431-60.738-26.431s-15-2-20-18-9.902-20.409-11.582-23.989c-1.68-3.58-8.68-9.82-8.68-26.2s5-29.38 6-35.38c1-6 8.59-41.18 8.59-41.18z" fill="#A5F15C"/><path d="M681.5 720.5S687 709.23 739 703l97 169.89s-18 18.68-56.07 18.1L681.5 720.5zM756.58 700.12s-4.78 3.73 13-7.12L856 850.55s5.57 6.48-9 9.45l-90.42-159.88zM991.001 719.382s-1-21.754 50.999-28.382l97 180.731s-18 19.872-56.07 19.255l-91.929-171.604zM1059.58 700.12s-4.78 3.73 13.05-7.12L1159 850.55s5.57 6.48-9 9.45l-90.42-159.88z" fill="#fff" fill-opacity=".3"/><path d="M722.89 697.43h79.71a72.65 72.65 0 0172.65 72.65v13.85a112.499 112.499 0 01-112.5 112.5 112.499 112.499 0 01-112.5-112.5v-13.86a72.653 72.653 0 0172.64-72.64v0zM1028.89 697.43h79.71c19.27 0 37.75 7.654 51.37 21.278a72.63 72.63 0 0121.28 51.372v13.85a112.5 112.5 0 11-225 0v-13.86a72.653 72.653 0 0172.64-72.64v0zM874.6 792.43a68.918 68.918 0 0181.64 0M866 736h98M650.24 755.43l-266.5-60.5" stroke="#000" stroke-width="20" stroke-miterlimit="10"/></g><defs><clipPath id="prefix__clip0_53_27270"><path fill="#fff" d="M0 0h1500v1500H0z"/></clipPath></defs>
      <g clip-path="url(#prefix__clip0_53_29571)"><path d="M276.36 892.872l5.15-57.711s19.71-62.819 22.75-74.129c3.04-11.31 8.7-32.2 15.23-44.81 6.53-12.61 12.18-23.93 19.58-37.85 7.4-13.92 13.42-31.37 16.93-35.68 3.51-4.31 8.3-19.14 8.3-19.14V434.5l10.201-35 197.319-84.408 188.38-35.24h212.31L990.501 303 1073 493.902l94.73 84.68s15.77 29.26 17.08 31c1.31 1.74 9.22 10.47 9.18 13.51-.04 3.04 4.31 7.84 6 10.45 1.69 2.61 8.7 10 10.44 12.61 1.74 2.61 8.7 10 11.31 14.8 2.61 4.8 3.48 4.78 6.09 11.74s3.92 9.57 7 17.4c3.08 7.83 5.22 12.62 5.22 12.62s-8.26 2.61-13.49 0-64.82-17.4-77-20.88c-12.18-3.48-12.18-3.92-34.37-3.48-22.19.44-48.29.87-53.51.43-5.22-.44-50.47-.87-67-1.3-16.53-.43-36.55-.44-36.55-.44l-96.58 6.53s-54 4.35-76.57 6.52c-22.57 2.17-47.86 7-57 10s-2.61 3.92-43.94 10-159.23 46.11-159.23 46.11l-109.61 43.98-83.53 39.59-29.58 23.5-25.73 29.6z" fill="#FF6247"/><path d="M709.006 474.501l25.671-20.944-36.237-39.239-35.571 29.039L613 389.375 630.573 375l36.396 39.381 35.56-29.005 49.778 53.766L778 418.198 769.987 475l-60.981-.499z" fill="#fff"/><path d="M362.69 914.781l-1.91-6.78s-9.39-28.19-13.14-64.29l-16.37 1s-16.93 9.73-24.8 17.26c-7.87 7.53-26.69 25.32-27.89 26.18-1.2.86-3.59 1.88 0 6s7 11.12 14.54 12.83c7.54 1.71 20.53 4.79 28.74 5 8.21.21 25.32-.85 28.91-.34s11.92 3.14 11.92 3.14zM1186 699.12s9.64 29.47 12.46 49.78l5.49 5.53s10.52-4.45 17-7.86a139.23 139.23 0 0017.2-10.53c3.7-2.82 11.12-8 11.41-9.27.29-1.27 1.44-12.95.83-14.34-.61-1.39-.68-2-11.88-7.83a206.613 206.613 0 00-23-9.78c-1.63-.74-26.39-3.41-26.39-3.41l-3.12 7.71z" fill="#FF6247"/><path d="M347.5 839c4 46 12.333 70.833 16.5 77.5l-72-4.5-14-16.5 3.5-74.5 25.5-90.5 57-101-3.5-40 4-174.5 30.5-21.5 103-43c-20.8 90.4 2.333 194.667 16.5 235.5L742 525.5l129-8c31.5-2 97.7-5.2 110.5-2 9.221 2.305 9.308 6.998 7.141 10.75-1.583 2.741-4.867 3.739-8.033 3.749-47.475.142-158.531 4.629-261.608 22.001-106.8 18-197.167 53.833-229 69.5-30 43.2-60.167 133-71.5 172.5l-71 45zM1238 737l-37 23c-10.14-51.813-16.66-65.682-19.08-66.5l2.58-7.5 53.5 20.5 12 14.5-12 16z" fill="#001647" fill-opacity=".2"/><path d="M373.46 917.089h-4.68c-56.19-.07-90.26-6.42-92.68-19.56-6.33-34.45 190.66-148.001 460.41-197.561s510.1-16.39 516.43 18.06c2.19 11.92-22 27.87-65.63 45.69" stroke="#000" stroke-width="20" stroke-miterlimit="10"/><path d="M276.1 897.541l1-17.88a499.377 499.377 0 0181.09-246.72 24.218 24.218 0 003.89-15.35l3.69-190.4a30.898 30.898 0 0116.44-28.53l22.51-11.9c179.675-83.744 337.78-120.151 535.49-105.76l25.27 3.12a30.913 30.913 0 0125.52 20.88l81.9 182.72a24.306 24.306 0 008.74 11.85 499.295 499.295 0 01164 202.15l7.27 16.37" stroke="#000" stroke-width="20" stroke-miterlimit="10"/><path d="M452.22 609.6c169.083-69.754 347.945-103.167 530.779-98.07" stroke="#000" stroke-width="20" stroke-miterlimit="10" stroke-linecap="round"/></g><defs><clipPath id="prefix__clip0_53_29571"><path fill="#fff" d="M0 0h1500v1500H0z"/></clipPath></defs>
      
    </g>
    </svg>