<svg
      xmlns="http://www.w3.org/2000/svg"
      preserveAspectRatio="xMidYMin meet"
      fill="none"
      viewBox="0 0 1500 1500"
    >
      <g>
      <path fill="url(#prefix__a1)" d="M0 0h1500v1500H0z"/><defs><linearGradient id="prefix__a1" x1="0" y1="0" x2="1500" y2="1500" gradientUnits="userSpaceOnUse"><stop stop-color="#57ECFF"/><stop offset="1" stop-color="#4E41EE"/></linearGradient></defs>
      <g clip-path="url(#a)"> <path fill="#fff" d="M1263 1505H288.3l10.8-105.6 40-155.8 35.9-75.1 44.5-48.5 46.8-17.9 3.3-40 40 38 77.8 44.2 83.8 32L787 1185l98-11 109.9-41.4 49.7-33.3 46.3 6.2 36.5 27.1 34 41.3 36.7 86.3 28.6 82.3L1263 1505Z"/> <path fill="#000" d="M693 1500h-19.8l-8.2-245.3 19.8-.7 8.2 246Zm105 0a29.5 29.5 0 0 0-57 0h23a9.3 9.3 0 0 1 5.2-1.9h.4c2 0 4 .7 5.6 1.9h23Zm106 0a29.5 29.5 0 0 0-57 0h23a9.3 9.3 0 0 1 5.2-1.9h.4c2 0 4 .7 5.6 1.9h23Z"/> <path stroke="#000" stroke-miterlimit="10" stroke-width="20" d="M765.7 1439.8a19.5 19.5 0 1 0 0-39 19.5 19.5 0 0 0 0 39Zm106 0a19.5 19.5 0 1 0 0-39 19.5 19.5 0 0 0 0 39Zm-109.8-87.3a19.5 19.5 0 1 0 0-39 19.5 19.5 0 0 0 0 39Zm106 0a19.5 19.5 0 1 0 0-39 19.5 19.5 0 0 0 0 39Z"/> <path stroke="#000" stroke-linecap="round" stroke-width="20" d="M289.5 1512.5c-6-101.5 31-323 140.5-398 158.5-108.5 616.5-87 706.5 26 65 81.5 99.5 222.5 132.5 371M1084.5 1337c12.3 37 29.5 110.3 43.5 175.5m-646.5 0c.3-32.8 7.7-107.6 20.5-157"/> <path stroke="#000" stroke-miterlimit="10" stroke-width="20" d="M472.7 1069.5s-4.8 7.5-7.7 21.8a99.8 99.8 0 0 0 49.6 107.9c41.8 23.7 178.5 88.8 373.1 56.5 39-6.5 148.1-31.8 186.1-123.6a32 32 0 0 0 1.7-5.3c1.6-7.5 4.6-27-.8-54.9"/> <path fill="#fff" d="m467.6 1110.5 7.4-39 62.5-15.5 72-5.5 53-8h147l104.5 8 107 8.1 53.6 19-3.8 40.8-21.3 55-90.7 68.1-76.5 24.3-77.8 2.7-60.7-2.7-58.8 2.7-143.7-46.2-68.6-65.1-5.1-46.7Z"/> <path stroke="#000" stroke-width="20" d="M535 1214c-83.6-40.4-76.5-113.2-62.5-144.5 266-49.2 513.5-20.2 604 .5 22 122.8-114.2 176.5-193 192-.3 0-33.7 6.5-77.5 8a472.5 472.5 0 0 1-75.4-3 549.7 549.7 0 0 1-195.6-53Z"/> <path fill="#001647" fill-opacity=".2" d="M488 1226.5c-89.6 98.8-104.7 230.8-101 284.5h-98c2.3-44.8 14.5-159.8 44.5-261 30-101.2 96.8-141.8 126.5-149.5l15-26h42l56.5-15.5 124.5-10h121c-150.4 32.8-264 112.7-302 148.5l56.5 29 95 23.5 127 20c-27.2 13.2-89.3 14.5-117 13.5l4 227.5H652l-7-227.5c-80.8-6-138.3-40.5-157-57Z"/> </g> <defs> <clipPath id="a"> <path fill="#fff" d="M0 0h1500v1500H0z"/> </clipPath> </defs>
      <g clip-path="url(#prefix__clip0_299_662)"><path d="M775 1185c231.41 0 419-168.12 419-375.5 0-207.383-187.59-375.5-419-375.5-231.407 0-419 168.117-419 375.5 0 207.38 187.593 375.5 419 375.5z" fill="#ABF"/><path d="M457.5 796c7.6 194 131.833 327.5 193 370l-130-55.5L438 1034l-57.5-89.5-27-106 11-104L394 662l45-82.5 83.5-69.5 109-54.182 28.5-1C569.452 513.314 451.119 633.132 457.5 796z" fill="#001647" fill-opacity=".2"/><path d="M775 1185c231.41 0 419-168.12 419-375.5 0-207.383-187.59-375.5-419-375.5-231.407 0-419 168.117-419 375.5 0 207.38 187.593 375.5 419 375.5z" stroke="#000" stroke-width="20"/></g><defs><clipPath id="prefix__clip0_299_662"><path fill="#fff" d="M0 0h1500v1500H0z"/></clipPath></defs>
      <g clip-path="url(#prefix__prefix__clip0_53_29477)"><path d="M1046 825a40.998 40.998 0 0037.88-25.31 41.043 41.043 0 002.33-23.689 40.939 40.939 0 00-11.22-20.992 40.99 40.99 0 00-44.68-8.888 40.977 40.977 0 00-18.4 15.101 40.996 40.996 0 005.1 51.769A41.006 41.006 0 001046 825z" fill="#000"/><path d="M729.63 808.821l88.08-16a7.737 7.737 0 006.23-6.4 7.757 7.757 0 00-.73-4.64 7.674 7.674 0 00-3.27-3.35l-82.39-43.72m99.27 256.728c38.57 39.211 113.35 39.211 151.93 0" stroke="#000" stroke-width="20" stroke-miterlimit="10" stroke-linecap="round"/></g><defs><clipPath id="prefix__prefix__clip0_53_29477"><path fill="#fff" d="M0 0h1500v1500H0z"/></clipPath></defs>
      <g clip-path="url(#prefix__clip0_53_27047)"><path d="M366 832l16.5 16c15 22.5 75.8 72.4 199 92 123.2 19.6 226.667-14.167 263-33.5l61-40.5 49 22c53.6 26 127.67 23.167 158 18.5L1178 888c-53.5 175.5-191 240.5-256 263.5-63.5 22.47-210 48.5-348.5-23.5C418.003 1047.16 374 922 366 832z" fill="#3A3A3A"/><path d="M380.5 944.501l-27-106c0-11.2 108.5 85.499 192.593 85.5C583.434 1059.9 673.338 1152.84 722.5 1187L617 1157.5l-96.5-47L438 1034l-57.5-89.499z" fill="#000" fill-opacity=".2"/><path d="M1182.5 885c-160.5 56.32-224.81 6.02-257.92-13.42a32.51 32.51 0 00-38.35 4.06c-28.08 25.49-93.46 67.68-218.65 67.68-65.693 3.727-219.578-15.02-309.578-119.82" stroke="#000" stroke-width="20" stroke-miterlimit="10"/></g><defs><clipPath id="prefix__clip0_53_27047"><path fill="#fff" d="M0 0h1500v1500H0z"/></clipPath></defs>
      <g clip-path="url(#prefix__clip0_53_26123)"><path d="M661.719 466.274s.681-50.314 11.212-50.049c10.53.266 30.241-4.165 30.241-4.165l31.002 15.989 25.638-5.424 28.99-24.747 27.071-1.791 27.883 14.121 15.446 18.681 23.411.145 50.96-13.954 24.276 23.68-19.232 52.574-44.507-21.369-17.617-6.041-23.175-7.036-28.05-1.943-32.388-.112-55.638 3.68-50.45 8.949-25.073-1.188z" fill="#97A5DE"/><path d="M718.506 479.214s19.322 40.453 64.014 34.31c44.692-6.143 83.522-32.583 83.522-32.583l10.406-17.065-81.463-14.775-84.096 14.041s-8.664 11.898 7.617 16.072z" fill="#7985B4"/><path d="M662.843 469.488s-13.534-58.554 30.087-60.287c15.493-.614 25.434 4.992 32.226 12.21 13.894 14.755 29.392 7.707 38.346-2.386 11.842-13.391 27.482-26.021 44.854-27.17 20.226-1.338 34.215 14.393 42.889 29.474 6.094 10.621 21.799 13.651 33.204 6.683 11.953-7.315 28.35-12.9 48.081-8.683 42.964 9.245 6.064 69.091 6.064 69.091" stroke="#000" stroke-width="18.1" stroke-miterlimit="10" stroke-linecap="round"/><path d="M630.048 507.636s25.276-45.068 51.452-39.634c40.502 8.395 74.399 69.733 74.399 69.733M800.818 537.27s38.761-65.501 93.251-67.301c54.49-1.801 48.429 57.93 48.429 57.93M682 468s137.209-40.275 226.409 2.982M736.796 506.5s35.104 14.655 86.489 1.675" stroke="#000" stroke-width="20" stroke-miterlimit="10" stroke-linecap="round"/><path d="M962.936 594.788l-27.63 43.435-8.65 20.963-77.448 4.25-35.317-24.412-21.997-46.202 15.91-63.357 34.039-21.769 27.151-47.043 39.528-31.573 26.755-37.499 36.299-37.102 24.006-39.421 49.488-61.439 3.24 50.008-33.28 105.777-9.41 63.81-32.694 53.807-9.99 67.767z" fill="#F56CDB"/><path d="M862.5 556.501c-16 47.6-3.667 91.167 4.5 107-19.833-6.333-61.4-24.6-69-47-7.6-22.4 5.5-70.667 13-92l46.5-49.5 57.5-55.5 51.5-64c17.5-24.167 55.4-75 67-85 11.6-10 17.17-1.833 18.5 3.5-39.2 30.8-56.666 84.167-60 106l-12-4.5c-25.2 30.4-36.5 89.667-39 115.5l-19.5-30c-26.8 44.8-27.833 108-25 134l-34-38.5z" fill="#001647" fill-opacity=".2"/><path d="M848.039 498.501s-53.697 23.54-54.822 83.901a76.58 76.58 0 0019.958 53.726c17.574 19.703 43.174 30.219 69.577 29.664 23.322-.494 44.869-10.003 59.825-36.242 0 0 31.6-38.544 28.82-104.919 0 0 45.403-52.227 38.533-112.15 0 0 39.41-64.603 46.36-153.468a4.929 4.929 0 00-.6-2.738 5.099 5.099 0 00-1.4-1.593 5.001 5.001 0 00-4.05-.869c-.69.153-1.35.453-1.92.88-19.77 15.453-59.945 56.927-72.234 94.345 0 0-45.103 23.523-59.272 71.712.017-.048-51.821 21.371-68.775 77.751zM848.039 498.504s8.925 94.007 94.618 130.99M917.051 419.219s-4.529 73.303 54.261 105.036M976.123 348.994s5.368 43.538 33.847 63.445" stroke="#000" stroke-width="20" stroke-miterlimit="10"/></g><defs><clipPath id="prefix__clip0_53_26123"><path fill="#fff" d="M0 0h1500v1500H0z"/></clipPath></defs>
      
    </g>
    </svg>