<svg
      xmlns="http://www.w3.org/2000/svg"
      preserveAspectRatio="xMidYMin meet"
      fill="none"
      viewBox="0 0 1500 1500"
    >
      <g>
      <path fill="url(#prefix__a1)" d="M0 0h1500v1500H0z"/><defs><linearGradient id="prefix__a1" x1="0" y1="0" x2="1500" y2="1500" gradientUnits="userSpaceOnUse"><stop stop-color="#57ECFF"/><stop offset="1" stop-color="#4E41EE"/></linearGradient></defs>
      <g clip-path="url(#prefix__clip0_53_28162)"><path d="M1265.5 1515l-976.17-4 3.73-77.49 14.44-114.01L361 1203l24.5-45 32.5-38.5s27.82-14.87 92.5-43c64.68-28.13 209-29.5 209-29.5s196.84-11.59 350 48 196 420 196 420z" fill="#FF9C07"/><path d="M500.002 1213.5c-101.2 100-117.834 249-113.5 311l-99.502-13c-1.6-110.8 39-247.5 59.5-302l39.501-52.5 15.5-20.5 66.5-42.5c149.6-59.6 294-54.83 347.5-45-63 13.17-214.299 64.5-315.499 164.5z" fill="#001647" fill-opacity=".2"/><path d="M916.27 1335.92l-94.355 107.7c-2.295 2.61-6.431 2.73-9.239.26l-115.56-101.8c-2.487-2.19-3.139-5.73-1.547-8.38l30.023-49.87c.53-.87 1.27-1.58 2.152-2.09.881-.5 1.875-.77 2.889-.79l139.951-3.94a7.303 7.303 0 013.09.65 7.172 7.172 0 012.503 1.93l39.941 47.9c2.117 2.55 2.185 6.11.152 8.43z" fill="#53B6F9"/><path d="M924.148 1325.84l-42.897-51.45a7.671 7.671 0 00-2.689-2.07 7.611 7.611 0 00-3.321-.7l-150.328 4.23c-1.09.02-2.157.31-3.104.85a6.456 6.456 0 00-2.31 2.24l-32.264 53.57c-1.713 2.86-1.007 6.65 1.658 9l124.143 109.35c3.015 2.65 7.459 2.53 9.923-.28l101.35-115.69c2.182-2.49 2.112-6.31-.166-9.05h.005zm-61.125-39.83l-20.577 34.13-27.333-32.78 47.91-1.35zm-33.683 39.58l-47.906 1.35 20.577-34.13 27.329 32.78zm-41.478-37.45l-20.577 34.13-27.333-32.78 47.91-1.35zm-61.017 6.76l27.334 32.8-47.892 1.35 20.558-34.15zm-15.836 48.06l53.164-1.49 34.646 78.83-87.81-77.34zm104.248 80.66l-36.291-82.57 55.695-1.56-19.404 84.13zm15.673-4.24l18.524-80.31 53.164-1.5-71.688 81.81zm25.684-94.56l20.577-34.13 27.315 32.79-47.892 1.34z" fill="#000"/><path d="M289.5 1512.5c-6-101.5 31-323.03 140.5-398 158.5-108.51 616.5-87 706.5 26 64.91 81.5 99.5 222.5 132.5 371M1084.5 1337c12.33 37 29.5 110.3 43.5 175.5m-646.5 0c.333-32.83 7.7-107.6 20.5-157" stroke="#000" stroke-width="20" stroke-linecap="round"/></g><defs><clipPath id="prefix__clip0_53_28162"><path fill="#fff" d="M0 0h1500v1500H0z"/></clipPath></defs>
      <g clip-path="url(#prefix__clip0_299_662)"><path d="M775 1185c231.41 0 419-168.12 419-375.5 0-207.383-187.59-375.5-419-375.5-231.407 0-419 168.117-419 375.5 0 207.38 187.593 375.5 419 375.5z" fill="#ABF"/><path d="M457.5 796c7.6 194 131.833 327.5 193 370l-130-55.5L438 1034l-57.5-89.5-27-106 11-104L394 662l45-82.5 83.5-69.5 109-54.182 28.5-1C569.452 513.314 451.119 633.132 457.5 796z" fill="#001647" fill-opacity=".2"/><path d="M775 1185c231.41 0 419-168.12 419-375.5 0-207.383-187.59-375.5-419-375.5-231.407 0-419 168.117-419 375.5 0 207.38 187.593 375.5 419 375.5z" stroke="#000" stroke-width="20"/></g><defs><clipPath id="prefix__clip0_299_662"><path fill="#fff" d="M0 0h1500v1500H0z"/></clipPath></defs>
      <g clip-path="url(#prefix__clip0_53_29395)" stroke="#000" stroke-width="20" stroke-miterlimit="10" stroke-linecap="round"><path d="M701.129 783a76.42 76.42 0 00120.5 0M988.75 783a76.436 76.436 0 0060.25 29.41c11.62 0 23.08-2.649 33.52-7.745A76.462 76.462 0 001109.25 783"/><path d="M914.5 1058.5c8.9 0 17.6-2.64 25.001-7.58a45.056 45.056 0 0016.574-20.2 45.004 45.004 0 00-32.796-61.355 44.995 44.995 0 00-46.195 19.134A45 45 0 00914.5 1058.5z" fill="#000"/></g><defs><clipPath id="prefix__clip0_53_29395"><path fill="#fff" d="M0 0h1500v1500H0z"/></clipPath></defs>
      <g clip-path="url(#prefix__clip0_53_26556)"><path d="M610.839 1052.54l25.41-124.378 14-18s32.84-6 38.52-5 129.64 16.45 129.64 16.45l101.58 2.47s73.9-4.05 84.731-5.22c10.83-1.17 48.22-6 58.49-7.76 10.27-1.76 53.32-5.62 68.8-9.75 15.48-4.13 44.08-18 44.08-18S1140.5 1084.5 903.999 1157.05c0 0-92.499 34.95-237.78 5.86-104.73-30.27-63-64.47-63-64.47l7.62-45.9z" fill="#4AEEB9"/><path d="M723 1100.5c-29.6-54.4-21-146-13-185-55.2-22-65.833-.166-72 17.5-11.167 36.167-34.3 116.8-37.5 150-3.2 33.2-1.333 56.5 0 64l99 30 110 4c-16.5-4.17-56.9-26.1-86.5-80.5z" fill="#001647" fill-opacity=".2"/><path d="M1185.94 880.828s-205.091 80.28-505.581 22.77a39.252 39.252 0 00-45.47 28.86c-9.83 38.72-26.31 109.842-38 178.622a42.352 42.352 0 0029.31 47.6c34.82 10.67 90.3 30.53 196.28 24M398.16 971.871c55.3 38.439 125.63 81.449 205 116.639M625.992 943.001l-269.82-144.2" stroke="#000" stroke-width="20" stroke-miterlimit="10"/></g><defs><clipPath id="prefix__clip0_53_26556"><path fill="#fff" d="M0 0h1500v1500H0z"/></clipPath></defs>
      <g clip-path="url(#a)"> <path fill="#3A3A3A" d="m500.5 506.5-86.7 95.8-7.6 25.9-16.5-13v21.3l-14.2 29-6.5 26-5.9 13.5v27.4l137.4-36 281.9-43.8 203.1-20.4 163.5 6.4-33.6-56.8-44.6-50.8-54.2-42.4-85.2-40.4-124-19L652 439.8l-151.5 66.8Z"/> <path fill="#000" fill-opacity=".2" d="M692 440c-99.6 64.8-158.8 200-176 259.5L358.5 723c5.8-27.8 34.4-102.3 102-177.5S643 443.8 692 440Z"/> <path stroke="#000" stroke-linecap="round" stroke-miterlimit="10" stroke-width="20" d="M365.8 728.5C438.7 708.9 866 599.4 1145 639a6.9 6.9 0 0 0 7.8-6.6c0-1.3-.3-2.6-1-3.7-30.3-49.7-159.9-231.8-425.3-200-291 35-357.4 241.3-369.3 291.5a6.7 6.7 0 0 0 1.9 6.5 6.9 6.9 0 0 0 6.5 1.7h0Z"/> </g> <defs> <clipPath id="a"> <path fill="#fff" d="M0 0h1500v1500H0z"/> </clipPath> </defs>
      
    </g>
    </svg>