<svg
      xmlns="http://www.w3.org/2000/svg"
      preserveAspectRatio="xMidYMin meet"
      fill="none"
      viewBox="0 0 1500 1500"
    >
      <g>
      <path fill="url(#prefix__paint0_linear_53_30462)" d="M0 0h1500v1500H0z"/><defs><linearGradient id="prefix__paint0_linear_53_30462" x1="0" y1="0" x2="1500" y2="1500" gradientUnits="userSpaceOnUse"><stop stop-color="#FFC4F6"/><stop offset="1" stop-color="#FF3DB1"/></linearGradient></defs>
      <g clip-path="url(#prefix__clip0_53_28984)"><path d="M289.32 1500l15.53-112.58 30.68-117.3-17.14-45.59s-15-117.74 41.25-161c56.25-43.26 65.45-47.41 65.45-47.41s135.65 171.93 339 168.87c203.35-3.06 328.18-130.19 328.18-130.19l42-46.11 14.44 49.93L1133 1102l-10.73 32.19 38.38 53.64 56.12 125.69 16.09 69.9 16.92 63.54 13.61 53.09-974.07-.05z" fill="#F56CDB"/><path d="M932.029 1429.09l-2.533 5.65h22.627l2.471-5.65h-22.565zm7.011-15.56l-2.533 5.63h22.48l2.455-5.63H939.04zm0 0l-2.533 5.63h22.48l2.455-5.63H939.04zm-9.536 21.2h22.627l2.471-5.65h-22.573l-2.533 5.65h.008zm105.296 1.9l-67.137-93.73a11.807 11.807 0 00-4.106-3.59c-1.557-.83-3.269-1.28-4.927-1.31h-.131c-1.674 0-3.277.44-4.625 1.26v.01a7.97 7.97 0 00-3.083 3.45l-.015.04-.016.03-41.954 93.2-.016.04-.015.03c-.674 1.58-.914 3.38-.682 5.19l.016.09c.255 1.83.991 3.64 2.107 5.24l.038.06.039.05a13.012 13.012 0 004.385 3.84c1.766.95 3.702 1.45 5.592 1.45h107.85c1.76 0 3.44-.45 4.86-1.31l.02-.01.03-.02c1.44-.9 2.57-2.21 3.24-3.78l.08-.17c.25-.53.4-1.11.47-1.71.21-1.05.24-2.15.08-3.26-.26-1.79-.98-3.55-2.11-5.1l.01.01zm-78.191-90.67c.24-.52.627-.96 1.115-1.25.496-.3 1.077-.46 1.681-.46.604 0 1.232.18 1.805.48a3.96 3.96 0 011.441 1.27l3.803 5.29-15.655 34.83h28.305l-5.895-8.21-.868 2.74h-12.448l10.597-23.52 28.197 39.52h-64.806l22.728-50.69zm-37.222 99.79c-.774 0-1.572-.21-2.293-.6a5.424 5.424 0 01-1.82-1.59 5.08 5.08 0 01-.891-2.21c-.101-.77 0-1.53.287-2.19l16.484-36.67h47.927l-19.018 43.26h-40.676zm110.983-1.95c-.26.6-.68 1.1-1.23 1.44-.56.33-1.22.51-1.91.51h-60.528l19.025-43.26h17.163l13.01 18.04h-13.02l-4.906-6.68h-4.493l-8.947 20.55h28.276l-5.8-8.16h13.08l9.7 13.51c.44.6.72 1.29.82 1.98.1.69.02 1.47-.25 2.06l.01.01zm-91.338-30.27l-2.533 5.63h22.48l2.456-5.63h-22.403zm-9.536 21.2h22.627l2.471-5.65h-22.565l-2.533 5.65z" fill="#fff"/><path d="M472.001 1229.5c-50 72.4-79.167 217.83-87.5 281.5H290.5c.4-104.8 26.834-210.33 40.001-250-54.778-134.8 39.176-220.83 93-247 64.5 77 147.666 124.67 182 137.5-29.6 26-26.334 67.83-21 85.5l87 24c-82.4 21.6-167.334-12-199.5-31.5z" fill="#001647" fill-opacity=".2"/><path d="M512.15 1369.42a922.37 922.37 0 00-19 130.58h-20.89v-.72a926.168 926.168 0 0119.52-134.67 10.46 10.46 0 014.679-6.49 10.516 10.516 0 017.896-1.28 10.49 10.49 0 016.487 4.68 10.46 10.46 0 011.278 7.9h.03zM1132.47 1500h-21.11c-2.86-14.16-20.25-98.69-36.62-147.37-.45-1.3-.63-2.68-.55-4.06.09-1.37.45-2.72 1.06-3.95.61-1.24 1.46-2.34 2.49-3.25 1.04-.91 2.25-1.6 3.55-2.04 1.31-.44 2.69-.61 4.06-.52 1.38.1 2.72.47 3.95 1.08 1.23.62 2.33 1.47 3.23 2.52.9 1.04 1.59 2.25 2.02 3.56 18.26 54.27 36.94 148 37.72 152 .14.67.2 1.35.2 2.03zM429 1140.38c-36.78 29.35-63.66 67.4-79.87 113.1-55.72 157-49.44 244.8-49.37 245.66v.86h-20.9c-.68-10.16-4.54-98.23 50.55-253.51 17.54-49.43 46.65-90.63 86.53-122.45a10.661 10.661 0 013.648-2.06 10.459 10.459 0 018.171.75c1.241.67 2.334 1.59 3.212 2.69a10.544 10.544 0 011.898 3.74 10.455 10.455 0 01-1.105 8.13 10.446 10.446 0 01-2.824 3.09h.06zM1273.43 1500h-21.09c-2.38-11.9-15.44-75.74-36.39-146.32-30.24-101.86-62.93-171.34-94.54-200.93l-2.5-2.36a45.331 45.331 0 00-5.57-4.69 10.454 10.454 0 0112.68-16.62c2.59 1.88 5.04 3.95 7.33 6.19.61.59 1.35 1.3 2.34 2.22 34.83 32.6 68.59 103.39 100.34 210.41 23.4 78.86 37.08 149.42 37.21 150.12.13.65.19 1.32.19 1.98z" fill="#000"/><path d="M425.09 1016.13S268 1075 329.32 1270.12M425.09 1122.57s52.18 120.38 243.46 131M965.67 1237.2s119-29.84 172-136.28c32.82-65.94-6.64-89.63-6.64-89.63" stroke="#000" stroke-width="20" stroke-miterlimit="10" stroke-linecap="round"/></g><defs><clipPath id="prefix__clip0_53_28984"><path fill="#fff" d="M0 0h1500v1500H0z"/></clipPath></defs>
      <g clip-path="url(#prefix__clip0_299_662)"><path d="M775 1185c231.41 0 419-168.12 419-375.5 0-207.383-187.59-375.5-419-375.5-231.407 0-419 168.117-419 375.5 0 207.38 187.593 375.5 419 375.5z" fill="#ABF"/><path d="M457.5 796c7.6 194 131.833 327.5 193 370l-130-55.5L438 1034l-57.5-89.5-27-106 11-104L394 662l45-82.5 83.5-69.5 109-54.182 28.5-1C569.452 513.314 451.119 633.132 457.5 796z" fill="#001647" fill-opacity=".2"/><path d="M775 1185c231.41 0 419-168.12 419-375.5 0-207.383-187.59-375.5-419-375.5-231.407 0-419 168.117-419 375.5 0 207.38 187.593 375.5 419 375.5z" stroke="#000" stroke-width="20"/></g><defs><clipPath id="prefix__clip0_299_662"><path fill="#fff" d="M0 0h1500v1500H0z"/></clipPath></defs>
      <g clip-path="url(#prefix__clip0_53_29395)" stroke="#000" stroke-width="20" stroke-miterlimit="10" stroke-linecap="round"><path d="M701.129 783a76.42 76.42 0 00120.5 0M988.75 783a76.436 76.436 0 0060.25 29.41c11.62 0 23.08-2.649 33.52-7.745A76.462 76.462 0 001109.25 783"/><path d="M914.5 1058.5c8.9 0 17.6-2.64 25.001-7.58a45.056 45.056 0 0016.574-20.2 45.004 45.004 0 00-32.796-61.355 44.995 44.995 0 00-46.195 19.134A45 45 0 00914.5 1058.5z" fill="#000"/></g><defs><clipPath id="prefix__clip0_53_29395"><path fill="#fff" d="M0 0h1500v1500H0z"/></clipPath></defs>
      <g clip-path="url(#a)"><path fill="#ABF" d="M1086 1007c0 43.08-75.66 78-169 78-93.336 0-169-34.89-169-78s75.664-98 169-98c93.34 0 169 54.922 169 98Z"/><path fill="#9E6740" d="m1076 1151.93 33.18-23.07 12.54-9.38 33.85 19.09 5.99 15.71 2.2-9.48 20.83-34.8s27.61 27.46 73.03 22.98c45.43-4.48 40.73-17.59 40.73-17.59l13.65 63.17s1.86 93.04-75.43 95.36c-77.3 2.33-121.92-47.19-121.92-47.19l-38.65-74.8Z"/><path fill="#72411F" d="M1297.3 1111.76c1.48-11.32-21.62-23.69-51.61-27.63-29.99-3.94-55.51 2.05-57 13.37-1.48 11.33 21.62 23.7 51.61 27.64 29.99 3.93 55.51-2.05 57-13.38Z"/><path fill="#3A3A3A" d="M920.5 1012s63.443 3.62 86 33c22.56 29.38 37.64 41.69 37.64 41.69l14.47 21.31s34.8-8.44 36.39-20.51l-44.45-47.01-37.86-25.09-48.2-13.21-27.507-2.18-16.483 12Z"/><path fill="#FFBF44" d="m1058 1108.21 38.93-24.21 27.07 34.76-49.9 34.24-16.1-44.79Z"/><path stroke="#000" stroke-linecap="round" stroke-miterlimit="10" stroke-width="20" d="M1160.1 1152.41c2.87-27.52 29.89-55.03 29.89-55.03 15.81-18.64 43.4-18.64 43.4-18.64 17.6-.4 31.12 2.57 41.23 6.52a50.061 50.061 0 0 1 19.09 13.48 49.885 49.885 0 0 1 10.87 20.65c41.73 161.5-85.23 154.57-85.23 154.57-116.7-7.45-119.06-81.11-158.15-161.35-39.08-80.24-127.2-98.26-127.2-98.26l24.865-8.35s63.965 3.57 119.235 57.48c24 23.42 36.87 61.5 69.09 70.78 4.83 1.39 10.27 2.53 16.42 3.32"/><path fill="#001647" fill-opacity=".2" d="M1182.42 1151.2c-8.08 7.43-17.96 3.09-21.89 0l2.95-9.29 10.1-13 13.89-23.03c7.29 4.08 19.7 13 14.99 15.97-5.89 3.71-9.94 20.06-20.04 29.35Z"/><path fill="#001647" fill-opacity=".2" d="M1070.57 1097c2.57 1.5 4.15 2.56 5.04 3.22-1.06-1.17-2.61-3.49-2.61-6.72 0-3.83 2.16-1.29 4.36 2 39.18 58.54 60.44 152.32 140.93 149.51 68.01-2.38 82-26.73 87.63-41.57 2.11 27.86-33.66 76.22-108.41 71.17-74.75-5.05-95.44-77.71-118.86-120.18l-5.65-26.27-15.5-22.28 1.5-3.38h4.5l7.07-5.5ZM1243.44 1128.16c-26.6-2.08-46.15-20.43-52.61-29.34l1.27-4.83 37.45-11.61 37.53 2.23 33.73 22.53c-5.62 5.45-30.77 23.11-57.37 21.02Z"/><path fill="#120701" fill-opacity=".2" d="M954 1008.5c60.4 12.8 104.83 61 119.5 83.5l-10.5 16-6.5-16-69-56-33.5-27.5Z"/><path stroke="#000" stroke-linecap="round" stroke-miterlimit="10" stroke-width="20" d="M1061 1108s20.72-6.16 30-24M1084 1145s25.15-8.2 35-27M827.5 1005s57.16 25.28 115-4.5c33.57-22.61 73-21.1 73-21.1M1299.01 1110.23c-1.53 13.97-28.09 26.64-58.12 23.37-30.03-3.27-53.14-21.27-50.61-35.21"/></g><defs><clipPath id="a"><path fill="#fff" d="M0 0h1500v1500H0z"/></clipPath></defs>
      <g clip-path="url(#prefix__clip0_53_25042)"><path d="M358.07 724.24c-2.91 11.13-5.22 22.96-6.67 31.13a4.35 4.35 0 01-8.1 1.33 49.392 49.392 0 01-3.34-7.37c-3.4-9.62-6.2-21.84-8.84-26.76-2.64-4.92-1.51-14.46 0-22.09a151.869 151.869 0 002.43-18.36c.06-2.04-1.18-14.28 0-17.9.99-3.01 6.16-15.64 7.88-19.83a4.33 4.33 0 011.84-2.1l18.379-9.79 16.352-50.5 69-94.5 63-51.5c34.167-22.001 133.5-66.702 257.5-69.502 124-2.8 229.667 68.167 266.999 104l41.29 42.442c15.8 1.5 23.79 6.45 29.57 10.19 5.78 3.74 26.14 7.88 33.18 15.1 7.04 7.22 33.98 37.24 34.6 38.17.62.93 16.76 36.51 19.47 42.51.26.561.39 1.172.39 1.79v28.52c0 1.043-.38 2.05-1.06 2.84l-13.59 15.75c-.47.553-1.08.979-1.76 1.237a4.32 4.32 0 01-4.12-.569 4.35 4.35 0 01-1.36-1.668 339.426 339.426 0 00-21.14-38.48 16.32 16.32 0 00-5.9-5.549 16.263 16.263 0 00-7.84-2.021h-14.49L1002.8 627l-209.23 16.57h-.39l-277.24 47.09h-.23l-115.08 25.85a4.241 4.241 0 01-2.31-.11l-14.27-4.69a4.294 4.294 0 00-2.33-.11l-13.84 3.16a13.134 13.134 0 00-9.81 9.48z" fill="#FF6247"/><path d="M546.5 566.498c-3.2 4-8.333 83.333-10.5 122.5l-103 18c-12.5 2-41.3 6.9-56.5 10.5-15.2 3.6-22.667 26.833-24.5 38l-22.5-66.5 24-51c8-35.666 46.9-123.899 138.5-191.499s191.833-74.167 230.5-69c-88.8 56.8-145.667 132.667-163 163.5 148.8-49.6 387-55.667 487.5-52.5l18.5 20.499c-13.5.5-41.7 1.2-46.5 0-4.8-1.2-166 8.833-246 14-74.167 12.833-223.3 39.5-226.5 43.5z" fill="#001647" fill-opacity=".2"/><path d="M1167 681.262l15-14.51a49.208 49.208 0 0014.3-26.901 49.211 49.211 0 00-4.3-30.159c-13.24-26.85-46.46-57.08-62.15-71.35-15.69-14.27-35.56-24.08-56.77-25.16-310.93-15.72-565.58 56.9-686 99.09-51.8 18.15-81.49 79-30.2 162.16" stroke="#000" stroke-width="20"/><path d="M361.58 627.678s53.84-186.8 241.47-235.29c187.63-48.49 327.34-27.08 476.25 119.61M367.76 725.401s312.51-78.77 497.45-86.9c0 0 164.52-11.68 272.65-7.57M994.41 512s62.27 71.5 82.83 118M433.65 600.449s-24.72 70.15-15.18 119.17M542.64 569.789s-15.23 78-3.89 120.53M643.55 550c12.26 57.53 10.25 57.46 22 117.12M748.51 529.758s31.14 50 55 116.5M872.32 514.391s41.57 54.35 68.2 120.72" stroke="#000" stroke-width="20"/></g><defs><clipPath id="prefix__clip0_53_25042"><path fill="#fff" d="M0 0h1500v1500H0z"/></clipPath></defs>
      
    </g>
    </svg>