<svg
      xmlns="http://www.w3.org/2000/svg"
      preserveAspectRatio="xMidYMin meet"
      fill="none"
      viewBox="0 0 1500 1500"
    >
      <g>
      <path fill="url(#prefix__paint0_linear_53_28788)" d="M0 0h1500v1500H0z"/><defs><linearGradient id="prefix__paint0_linear_53_28788" x1="0" y1="0" x2="1500" y2="1500" gradientUnits="userSpaceOnUse"><stop stop-color="#DBE4E4"/><stop offset="1" stop-color="#A7BDBD"/></linearGradient></defs>
      <g clip-path="url(#prefix__clip0_53_28693)"><path d="M1108.09 1432.16l14.41 71.69h142.41l-32.7-113.79-124.12 42.1zM288.689 1505.57l13.36-113.94 184.06 50.77-2.67 63.17h-194.75z" fill="#ABF"/><path d="M303.471 1382.79L325 1260l56-105.5s64.91-55.22 110.5-71c0 0 87.12-38.32 292.5-41 205.38-2.68 276 52.5 276 52.5l58.65 30.23 39.22 52.98 39.13 78.97 38.22 131.86-127.13 39.32 14.41 72.47-643.659 1.15 7.27-66.62-182.64-52.57z" fill="#A760FF"/><path d="M500.002 1213.5c-101.2 100-117.834 249-113.5 311l-99.502-13c-1.6-110.8 39-247.5 59.5-302l39.501-52.5 15.5-20.5 66.5-42.5c149.6-59.6 294-54.83 347.5-45-63 13.17-214.299 64.5-315.499 164.5z" fill="#001647" fill-opacity=".2"/><path d="M942.58 1333.82L867.34 1275l4.68 40.3h-90l4.29 36.89h90l4.68 40.3 61.59-58.67zm-205.16 55.26l-4.68-40.3L671 1407.6l75.38 58.64-4.66-40.13h90l-4.3-37.05-90 .02z" fill="#fff"/><path d="M289.5 1512.5c-1.965-33.24.683-79.37 8.981-129m970.519 128c-9.49-42.7-19.11-84.78-29.54-125M1084.5 1337c7.13 21.39 15.88 54.92 24.69 92m18.81 83.5c-5.91-27.5-12.37-56.45-18.81-83.5m-627.69 83.5c.172-16.93 2.213-45 5.905-75m14.595-82c-6.201 23.93-11.126 53.81-14.595 82m-188.924-54c17.035-101.9 57.885-218.59 131.519-269 158.5-108.51 616.5-87 706.5 26 46.24 58.07 77.1 146.33 102.96 246m-940.979-3l188.924 54m621.785-8.5l130.27-42.5" stroke="#000" stroke-width="20" stroke-linecap="round"/></g><defs><clipPath id="prefix__clip0_53_28693"><path fill="#fff" d="M0 0h1500v1500H0z"/></clipPath></defs>
      <g clip-path="url(#prefix__clip0_299_662)"><path d="M775 1185c231.41 0 419-168.12 419-375.5 0-207.383-187.59-375.5-419-375.5-231.407 0-419 168.117-419 375.5 0 207.38 187.593 375.5 419 375.5z" fill="#ABF"/><path d="M457.5 796c7.6 194 131.833 327.5 193 370l-130-55.5L438 1034l-57.5-89.5-27-106 11-104L394 662l45-82.5 83.5-69.5 109-54.182 28.5-1C569.452 513.314 451.119 633.132 457.5 796z" fill="#001647" fill-opacity=".2"/><path d="M775 1185c231.41 0 419-168.12 419-375.5 0-207.383-187.59-375.5-419-375.5-231.407 0-419 168.117-419 375.5 0 207.38 187.593 375.5 419 375.5z" stroke="#000" stroke-width="20"/></g><defs><clipPath id="prefix__clip0_299_662"><path fill="#fff" d="M0 0h1500v1500H0z"/></clipPath></defs>
      <g clip-path="url(#prefix__prefix__clip0_53_29477)"><path d="M1046 825a40.998 40.998 0 0037.88-25.31 41.043 41.043 0 002.33-23.689 40.939 40.939 0 00-11.22-20.992 40.99 40.99 0 00-44.68-8.888 40.977 40.977 0 00-18.4 15.101 40.996 40.996 0 005.1 51.769A41.006 41.006 0 001046 825z" fill="#000"/><path d="M729.63 808.821l88.08-16a7.737 7.737 0 006.23-6.4 7.757 7.757 0 00-.73-4.64 7.674 7.674 0 00-3.27-3.35l-82.39-43.72m99.27 256.728c38.57 39.211 113.35 39.211 151.93 0" stroke="#000" stroke-width="20" stroke-miterlimit="10" stroke-linecap="round"/></g><defs><clipPath id="prefix__prefix__clip0_53_29477"><path fill="#fff" d="M0 0h1500v1500H0z"/></clipPath></defs>
      <g clip-path="url(#prefix__clip0_53_27310)"><path opacity=".5" d="M650.33 766.53s-2.59-63.6 77.41-64.6c80-1 105.45 2.24 105.45 2.24l29.55 17.76 13 59.31s1 26 0 31.36c-1 5.36-25.33 41.83-25.33 41.83s-41.37 47.5-90.52 42-92.15-45.5-92.15-45.5-21-51.25-21.51-51.62c-.51-.37 4.1-32.78 4.1-32.78zM971.33 725.75s24.62-35.82 106.52-28.32c81.9 7.5 88.3 28.32 88.3 28.32s3.59-3.82 6.59 23.18 6 40 6 40-3 17-4 21-2.41 19-5.21 24-9 15.59-11.4 18.29c-2.4 2.7-11.94 13.84-20.67 20.77-8.73 6.93-28.37 15.28-30 16.61-1.63 1.33-10 8.21-17.32 7.26-7.32-.95-16.4 1.13-32.4.07-16-1.06-56.74-16.431-58.738-20.431-2-4-19-8.5-24-24.5s-7.902-19.909-9.582-23.489c-1.68-3.58-8.68-9.82-8.68-26.2s5-29.38 6-35.38c1-6 8.59-41.18 8.59-41.18z" fill="#FF6247"/><path d="M681.5 720.5S687 709.23 739 703l97 169.89s-18 18.68-56.07 18.1L681.5 720.5zM756.58 700.12s-4.78 3.73 13-7.12L856 850.55s5.57 6.48-9 9.45l-90.42-159.88zM991.001 719.382s-1-21.754 50.999-28.382l97 180.731s-18 19.872-56.07 19.255l-91.929-171.604zM1059.58 700.12s-4.78 3.73 13.05-7.12L1159 850.55s5.57 6.48-9 9.45l-90.42-159.88z" fill="#fff" fill-opacity=".3"/><path d="M722.89 697.43h79.71a72.65 72.65 0 0172.65 72.65v13.85a112.499 112.499 0 01-112.5 112.5 112.499 112.499 0 01-112.5-112.5v-13.86a72.653 72.653 0 0172.64-72.64v0zM1028.89 697.43h79.71c19.27 0 37.75 7.654 51.37 21.278a72.63 72.63 0 0121.28 51.372v13.85a112.5 112.5 0 11-225 0v-13.86a72.653 72.653 0 0172.64-72.64zM874.6 792.43a68.918 68.918 0 0181.64 0M866 736h97M650.24 755.43l-266.5-60.5" stroke="#000" stroke-width="20" stroke-miterlimit="10"/></g><defs><clipPath id="prefix__clip0_53_27310"><path fill="#fff" d="M0 0h1500v1500H0z"/></clipPath></defs>
      <g clip-path="url(#prefix__clip0_53_24961)"><path d="M328.471 587.58s58.88-190.09 246.39-252.58c0 0 201.241-94.49 408.23 26.16 0 0 108.699 63.54 160.689 173.42l30.45 32.42 81.28 62.15s25.35 30-38.52 34.19c-63.87 4.19-247.299 7.66-247.299 7.66l-202.5 15.57-190.82 25.14-235.22 48.66-32.56 5s-30-19.88-3.28-53.85 13.111-67.25 13.111-67.25l10.049-56.69z" fill="#87C848"/><path d="M316.781 647.551l15.98-55.21 214.91-57.77 279.46-34.46 192.289-13.97 97.96 2.58 19.81 43.88-379.259 27.4-272.8 39.25-168.35 48.3z" fill="#578926"/><path d="M423.391 743.361l88.05-20.33v185.82l-4.24 110.929-83.81 3.04V743.361z" fill="#9E6740"/><path d="M423.391 1030l84-7.13s17.06 55.54-27.31 59.92c-44.37 4.38-45.22 7.94-49.49 2.11-4.27-5.83-7.2-20-7.2-22.73V1030z" fill="#D9D9D9"/><path d="M483.5 727C445.1 499.4 599.167 354.833 681 311l-32.5 2.5-66 20-94.5 46-88 76-61 102-21.5 86c-.833 13-5.4 46.1-17 74.5s.167 44.833 7.5 49.5L483.5 727zM454 852c-.4 56.4 5.833 176.5 9 229.5-22.4 6.8-34.333-4.83-37.5-11.5V745l83.5-21-3 48c-40 1.5-51.5 9.5-52 80z" fill="#001647" fill-opacity=".2"/><path d="M346.781 792s-1.281-6.5 3.719-33l-39.309 14.52 25.64 17.48 9.95 1zM1233.29 671.402c-.41.1-37 24.85-37 24.85L1182 688s-7.13-19.128-9.72-21.018c-2.59-1.89 15.14-2.06 15.14-2.06h56.76l-10.89 6.48z" fill="#3A3A3A"/><path d="M511.441 724.27v335.15c.001 5.78-2.2 11.34-6.155 15.55a22.682 22.682 0 01-15.135 7.13l-42.59 2.7c-3.1.2-6.207-.24-9.13-1.29a22.811 22.811 0 01-7.864-4.82 22.661 22.661 0 01-5.304-7.54 22.699 22.699 0 01-1.872-9.03V740.9" stroke="#000" stroke-width="18.94" stroke-miterlimit="10"/><path d="M1177.07 569.09a129.76 129.76 0 01-38.93-44C1045 351.93 865.71 281.89 695.46 303.43c-213.73 27.05-373 190.35-381.57 378.44a65.267 65.267 0 01-8.58 29.7l-9.05 15.65c-11.26 19.48 6.47 42.91 28.27 37.37l16.62-4.22c294-74.67 588.31-94.15 891.66-97.2 26.27-.26 33-30.4 10.09-47l-65.83-47.08zM1143.78 534.57s-549.939 7.79-826.999 115.54M1117.38 490.32c-552.171 5.12-788.911 106-788.911 106M1255.51 647.551s5.5 35.999-85.51 48.949M294.621 749.328s19.55 40.27 58.82 42.25M423.391 1026.19l88.05-6.74" stroke="#000" stroke-width="18.94" stroke-miterlimit="10"/></g><defs><clipPath id="prefix__clip0_53_24961"><path fill="#fff" d="M0 0h1500v1500H0z"/></clipPath></defs>
      
    </g>
    </svg>