<svg
      xmlns="http://www.w3.org/2000/svg"
      preserveAspectRatio="xMidYMin meet"
      fill="none"
      viewBox="0 0 1500 1500"
    >
      <g>
      <path fill="url(#prefix__paint0_linear_53_28789)" d="M0 0h1500v1500H0z"/><defs><linearGradient id="prefix__paint0_linear_53_28789" x1="1500" y1="1500" x2="0" y2="0" gradientUnits="userSpaceOnUse"><stop stop-color="#FFD130"/><stop offset="1" stop-color="#FFEEDB"/></linearGradient></defs>
      <g clip-path="url(#a)"> <path fill="#E8CE99" d="m291.7 1501 6-89.4L329 1275l34.1-81.7 54.4-70.4 45.5-16.4 9.8-36s114 126.5 343.2 113.6c0 0 175.5-31.1 254.8-107l9 22 57.2 40.3 41.3 78.4 44.4 116.4 41.5 166.3-972.5.4Z"/> <path fill="#9E6740" d="M623.3 1425.2c-1.8.8-3.7 1.3-5.7 1.5-3.5.5-9.2-2.2-12-3.5-4.2-1.8-9.8-4.8-14.5-3.7-.7.1-1.3.4-1.9.8a2.9 2.9 0 0 0-.8 3.3c.4 1.3 1.1 2.6 2 3.7 3.2 3.7 8.3 6.4 10.6 10.8 2.5 4.9-2.6 7.7-6.6 9l-.6.2H573c-3.8-1.3-7-3.9-10.7-5.4-5.2-2.1-11-1.7-16.6-1.2-6.5.6-13 1.4-19-1-6.9-2.7-7-11.7-3.2-17 2.7-3.7 7-6 10.7-8.4 2.5-1.6 7.2-4.1 5.8-7.7-1.4-3.6-6.1-5.2-7.6-9-2.3-5.6 3.2-10.3 7.4-13 7-4.4 15.3-6.6 23.6-6.2 5.6.5 11 2.3 15.9 5.3 2 1.1 4 2.4 5.8 3.7 9.8 6.9 12 12.3 19 17.8a48 48 0 0 0 7 4.7c5 2.7 12.8 7.4 14.1 11.3.6 1.5.1 3-2 4Z"/> <path fill="#578926" d="M823.2 1414.3c-.6 5-6.1 8.9-11.3 11.6-4 2.2-9.9 4.1-14.1 7.3-2.6 2-4.6 4.4-5.2 7.5-.1 1-.2 2-.1 3 .4 8.6 8.1 18.6 11 25.9 4.2 10.6 6 22.1-1 31.4H598.2a22 22 0 0 1-7-17.2c.1-2.3.4-4.7 1-7 6.4-29.3 38-25.3 61-23.6 18 1.3 41 2.2 48.6-13.8a26.2 26.2 0 0 0 2.5-11.2c.3-10.6.9-19.9 10.2-26.7a58.3 58.3 0 0 1 28.1-9.6c8.8-.9 17.6-1 26.3-.4 15.5 1 39.8 3 51.1 15.4 1.4 1.3 2.3 3 2.9 4.7.2 1 .3 1.8.2 2.8Zm415.9 86.7h-85.4c1.6-2.4 3.4-4.6 5.4-6.6 12.6-13.5-1.3-26.3-12-35.6-2.5-2.1-5.3-4.5-8-7a42.8 42.8 0 0 1-11.4-14.8c-2-5.3-2-11.2 2.2-17.6l.6-.8c6-8.7 13.6-9.1 21-6 5 2.1 10 5.9 14.2 9.7 3.4 3.2 8.6 9 13.6 5.5 4.5-3.3 5.6-11.6 6.5-16.6.5-2.6.6-6.1 1.5-9.1.4-1.6 1.3-3 2.4-4a15 15 0 0 1 8.4-3c1.2-.1 2.4 0 3.5.4 3.7 1.3 6.5 5.4 5.7 15.1a81.8 81.8 0 0 0 2.2 21.4c2 8.4 5 16.5 8.8 24.3a337 337 0 0 0 8.3 15.7c4.8 8.5 11.7 18.7 12.5 29Z"/> <path fill="#3A3A3A" d="M748.1 1257.7c-9.8.4-18.6 15.3-24.2 21.8-7.7 9-18.2 24.4-31 26.2-11.6 1.5-19.6-12.4-26.6-19.3a44 44 0 0 0-44.6-12.2c-35.5 9.7-94.7 49-72.5 77.4 12.5 16 41.8-20.8 59.8 0 11 12.7 27.2 39.8 44 29.9 16.8-10 15-26.7 20.6-43 6-17.6 26-8.7 40.3-10.2a93 93 0 0 0 40.4-14.2c8-5.1 18.7-13 19.4-23.6.5-7.8 7-34.3-25.6-32.8Zm258.9 85c7-3.5 19.3 3.6 25.8 6.1 9 3.5 22.6 10.4 32.4 6.7 9-3.5 9.2-16.5 11.6-24.3a35.9 35.9 0 0 1 27-26.1c29.3-7 87.2-2 82.4 27-2.7 16.4-38.1 1.5-42.9 23.5-2.9 13.3-4 39.1-19.9 38.6-15.9-.5-21.2-13.3-31.5-22.8-11.1-10.2-22 4-32.9 8.6a76 76 0 0 1-34.5 5.6c-7.7-.5-18.5-2.1-23-9.3-3.5-5.5-18.5-22 5.4-33.6Z"/> <path fill="#578926" d="M504.7 1320c6.7-10.7 44.9-50.3 13.7-56-16.5-3-31.2 8.4-40.1 21-4 5.6-7.2 13-13 17-5.8 3.8-13.2 2.3-19.7.7-16.2-4-39.5-12.2-49.1 7.3-10.6 21.5-20.8 61.4-4.6 67 14 4.9 26-33.2 42.5-20 4.3 3.4 3.3 18 6.6 21.7a47.3 47.3 0 0 0 48.6 13.5c17.1-4.4 18.6-16.3 14.3-31.5-4-14-7.5-27.3.8-40.6Z"/> <path fill="#9E6740" d="M948.8 1348c9-6 52.5-23 30.5-38.4-11.7-8.2-27-4.6-38.5 2-5 3-10 7.5-16 8.5-5.8 1-11-2.8-15.4-6.4-11.2-8.8-26.2-23.4-40.5-11.7-15.8 12.8-37.8 40-27.2 50 9 8.7 31.7-16.4 39.8-.4 2.2 4.1-3.8 15-2.6 19 4.4 15 17.5 25 32.7 27.7 14.8 2.6 20.2-6 22.2-19.2 2-12.3 3.9-23.8 15-31.1Z"/> <path fill="#3A3A3A" d="M989 1472.3a48.2 48.2 0 0 1-8.6 17.7 27.7 27.7 0 0 1-14.6 11h-66.1l-.2-3.2c-.1-4.7.1-11.9-4.5-14.8-4.6-2.8-11.2.3-15.6 2-5.7 2-12 4.7-18.2 2.8-6.8-2-11-8.9-13.4-15.1a37.6 37.6 0 0 1 14-45.8c15.7-10 28.4-.6 43 6.4 7 3.4 14 1.4 20.6-2.6a97 97 0 0 0 10.9-8.2c9.6-8 18-16 24.5-10.2 4.5 4 7.6 10.2 10.5 16.8 3.8 8.8 7.1 18 12.5 23.3a20.3 20.3 0 0 1 5.3 20Z"/> <path fill="#578926" d="M1114.5 1209.9c1-11.8 16-60.7-12.2-52.3-15 4.5-22.4 20.1-24.4 34.4-1 6.2-.5 13.7-3.7 19.4-3.1 5.7-9.9 7.6-16 9-15 3.5-37.8 6.5-37.6 26.7.3 22.2 8.6 59.6 24.4 57.4 13.7-1.9 7.5-38.4 26.8-34.5 5 1 10.3 13.5 14.6 15.2 15.8 6.5 33.2 2 46-9.2 12.3-10.9 8.5-21.3-1.4-32.1-9.3-10-17.8-19.5-16.5-34Z"/> <path fill="#3A3A3A" d="M446.6 1487c-3.8 7.7-9.3 12-15.7 14a52.8 52.8 0 0 1-25.6 0c-7-1.4-14-3.4-20.1-4.9-8.2-2-17.2-4-24.7 1-1.6 1.1-3 2.4-4.4 3.9h-64.4c2.4-3.6 5-7 7.4-10.3 5.2-7 10-12.8 12.2-16.3 10.4-16.6 6-33.2 1-50.8-5.4-19-3.5-33.8 17.9-39.4a59.3 59.3 0 0 1 60.8 17c4 4.7 2.8 22.9 8.2 27.1 20.7 16.4 35.6-31.1 53.1-25 20.3 7 7.5 57-5.7 83.7Z"/> <path fill="#9E6740" d="M416.2 1244c3.6 13.2 4.5 26.5 19.7 31 14.8 4.5 29.8-3 37-16.2 2.7-5 4.8-11.5 2.3-17-2.2-5-7.4-7.5-11.9-10-3.4-2-9.1-4.5-9.8-9-.7-4.5 4-8.4 7-11 6.4-6 16.3-15 4.1-20.6-9.5-4.5-21-3.1-28.4-11.8-3.1-3.6-5.3-8-9.2-11.1a23.2 23.2 0 0 0-16.2-4c-11.6.7-25 5.4-26 18.5-.7 11-12.8 25-13 36.9-.3 14.6 39 3.9 44.4 24.3Zm694.8 251.3a36.8 36.8 0 0 1-3.5 5.7h-48.2c-2.6-5.5-3.7-12.1-5.5-18.7-1.7-6.4-6.7-9.7-12.8-11.7-13.2-4.3-31.5-2.5-31.3-12.5.2-10.7 10-22.9 12.4-33.2.3-1.2.5-2.3.6-3.5.8-13 14.2-17.6 25.7-18.4a23 23 0 0 1 16.1 4c3.9 3 6 7.5 9.2 11.2 5.8 6.7 14 7.3 21.9 9.4a38 38 0 0 1 6.3 2.2c10.4 5 4.4 12.2-1.5 17.9l-2.6 2.5c-3 2.7-7.7 6.5-7 11 .7 4.5 6.3 7 9.8 9 1.8 1 3.8 2 5.7 3.3a16 16 0 0 1 6.1 6.6c2.2 4.9.7 10.5-1.5 15.2Z"/> <path stroke="#000" stroke-linecap="round" stroke-miterlimit="10" stroke-width="20" d="m807.8 1195.5 21.5 305.5"/> <path stroke="#000" stroke-miterlimit="10" stroke-width="20" d="M749.5 1367a19.5 19.5 0 1 0 0-39 19.5 19.5 0 0 0 0 39Z"/> <path fill="#E8CE99" stroke="#000" stroke-width="12" d="M881.8 1311.7a5 5 0 0 1 5-5.7h127.9a5 5 0 0 1 4.9 4.3l8.6 62a5 5 0 0 1-5 5.7H895.5a5 5 0 0 1-5-4.3l-8.6-62Z"/> <path fill="#000" d="M939.3 1344a2.6 2.6 0 0 1-.3 2.2 2.3 2.3 0 0 1-1.8 1.1 12.7 12.7 0 0 1-2.3.2c0 1.2-.2 2.5-.7 3.6a10 10 0 0 1-5.3 5.4 10 10 0 0 1-3.8.8h-.2c-1.5 0-3-.4-4.3-1.1-1.4-.8-2.6-1.8-3.6-3.1a22.9 22.9 0 0 1-4.1-11.3c-.4-2.4-.5-4.9-.2-7.3.1-1.8.7-3.6 1.5-5.2l1.4-1.7a7.8 7.8 0 0 1 5.7-2 11.7 11.7 0 0 1 7.7 2.8 5 5 0 0 1 1.8 3 2.5 2.5 0 0 1-.6 2l-.8.7-1 .2a3 3 0 0 1-1.8-.6 4 4 0 0 1-1.3-1.3 7.3 7.3 0 0 0-1.9-.8l-1.2-.2c-.5 0-1 0-1.3.2-1 .4-1.5 1.2-2 2.4-.6 1.8-.7 4.4-.2 7.8.2 1.9.6 3.6 1.2 5.3.4 1 1 1.9 1.5 2.7a3.6 3.6 0 0 0 2.8 1.6 5 5 0 0 0 3.5-1.6 7 7 0 0 0 1.3-2.4h-1.8c-.8 0-1.6-.4-2.2-1-.6-.5-1-1.3-1.1-2a2.5 2.5 0 0 1 1.4-2.7 58.4 58.4 0 0 1 2.4-.2h1.3l3.1.2c1.3 0 2.5 0 3.7-.2.8-.1 1.6.1 2.2.6.7.5 1.1 1.2 1.3 2Zm8.3 13.4a3.4 3.4 0 0 1-3.3-3 333 333 0 0 1-.7-3.6l-.6-3.8-.6-4.5a334.8 334.8 0 0 1-.9-9 31 31 0 0 1 .2-4.6l.3-1.2a3.6 3.6 0 0 1 1.5-1.7l1.2-.3a4.2 4.2 0 0 1 2.8 1.1l.7.7.6.8a124 124 0 0 1 7.2 14.7l.1-1.2.2-1a271.8 271.8 0 0 1 1.6-9.1l.4-1.9a13.8 13.8 0 0 1 1-2.6c.1-.4.4-.8.7-1a3 3 0 0 1 1.2-.6h1.4l1.4.7.9 1 .8 1.3.7 1.9a51 51 0 0 1 1.5 6.5 1972.6 1972.6 0 0 0 2.4 13.5 240 240 0 0 1 .5 5 2.4 2.4 0 0 1-2.5 1.7c-.8 0-1.6-.3-2.2-.9-.6-.5-1-1.3-1.2-2l-.4-3.5-.6-3.5a210.5 210.5 0 0 0-1.3-7.8l-.4 2-.3 2.2a166.5 166.5 0 0 0-1.6 11.5 2.4 2.4 0 0 1-2.4 2.1c-.8 0-1.4-.3-2-.7-.5-.4-1-1-1.2-1.6a164 164 0 0 0-1.3-3.5l-1.4-3.5-1.7-4.2-1.4-3.4-1.2-2.8a42.4 42.4 0 0 0 .7 5.8 213.2 213.2 0 0 0 1.6 11 2.5 2.5 0 0 1-.4 2.1l-.9.7-1 .2h-.1Zm43.3-31.7a3.5 3.5 0 0 1 2.2 2.6v1.2a55.2 55.2 0 0 1-5.2 13.6 229.2 229.2 0 0 0 7.7 9l.3.4c.6.6.9 1.4 1 2.2a2.6 2.6 0 0 1-1 2c-.4.3-1 .5-1.6.5-.4 0-.9 0-1.3-.3-.5-.2-.9-.5-1.2-.8l-.3-.4a1179 1179 0 0 1-6.4-7.4l-.5.8-.4.8a161.3 161.3 0 0 0-3.3 6 2 2 0 0 1-1 1c-.3.3-.8.4-1.2.3-.7 0-1.2-.1-1.7-.5a3.4 3.4 0 0 1-1.7-3 287.6 287.6 0 0 0 2-4.2l1.7-3 1-1.7.9-1.7a65.9 65.9 0 0 1-8.7-14.3v-1.2l.6-1 1-.5a3 3 0 0 1 2.2.2 4 4 0 0 1 1.7 1.7 59.9 59.9 0 0 0 6 9.7 72.8 72.8 0 0 0 4.1-11.4c.2-.2.5-.5.8-.6l1.2-.3c.3 0 .7.1 1 .3Z"/> <path stroke="#000" stroke-linecap="round" stroke-width="20" d="M289.5 1513.5c-6-101.5 31-323 140.5-398 158.5-108.5 616.5-87 706.5 26 65 81.5 99.5 222.5 132.5 371M1084.5 1338c12.3 37 29.5 110.3 43.5 175.5m-646.5 0c.3-32.8 7.7-107.6 20.5-157"/> <path fill="#E2C47F" d="m467.6 1111.5 7.4-39 62.5-15.5 72-5.5 53-8h147l104.5 8 107 8.1 53.6 19-3.8 40.8-21.3 55-90.7 68.1-76.5 24.3-62.8-69.8a20 20 0 0 0-31.6 2.5l-44 67.3-58.9 2.7-143.7-46.2-68.6-65.1-5.1-46.7Z"/> <path stroke="#000" stroke-width="20" d="M535 1215c-83.6-40.4-76.5-113.2-62.5-144.5 266-49.2 513.5-20.2 604 .5 21.4 119.7-113.1 181.3-188.3 198.7-3.5.9-7.2-.4-9.6-3.2l-54.1-62.5a21 21 0 0 0-32.3.6l-50 62.4c-2 2.5-5 4-8.3 3.7A610.8 610.8 0 0 1 535 1215Z"/> <path fill="#001647" fill-opacity=".2" d="M489 1227.5c-82.4 87.6-103 222.5-103 279h-97l5.5-106.5c6.7-44.8 30.2-150.7 71-215.5 40.8-64.8 83-83 99-84l9-27h22l52.5-14 150-14h113.5c-160.4 46.4-265.5 121.3-298 153l120 56.5 103 23.5c-123.6 19.6-216.5-25.8-247.5-51Zm374.4 51.8A467.2 467.2 0 0 1 793 1201l21-6 74.5 78c-8.6 4.5-14.4 7-18 8-2.5.9-5.1 0-7.1-1.7Z"/> </g> <defs> <clipPath id="a"> <path fill="#fff" d="M0 0h1500v1500H0z"/> </clipPath> </defs>
      <g clip-path="url(#prefix__clip0_299_662)"><path d="M775 1185c231.41 0 419-168.12 419-375.5 0-207.383-187.59-375.5-419-375.5-231.407 0-419 168.117-419 375.5 0 207.38 187.593 375.5 419 375.5z" fill="#ABF"/><path d="M457.5 796c7.6 194 131.833 327.5 193 370l-130-55.5L438 1034l-57.5-89.5-27-106 11-104L394 662l45-82.5 83.5-69.5 109-54.182 28.5-1C569.452 513.314 451.119 633.132 457.5 796z" fill="#001647" fill-opacity=".2"/><path d="M775 1185c231.41 0 419-168.12 419-375.5 0-207.383-187.59-375.5-419-375.5-231.407 0-419 168.117-419 375.5 0 207.38 187.593 375.5 419 375.5z" stroke="#000" stroke-width="20"/></g><defs><clipPath id="prefix__clip0_299_662"><path fill="#fff" d="M0 0h1500v1500H0z"/></clipPath></defs>
      <g clip-path="url(#prefix__clip0_53_29369)" stroke="#000" stroke-width="20" stroke-miterlimit="10"><path d="M729.63 808.821l88.08-16a7.737 7.737 0 006.23-6.4 7.757 7.757 0 00-.73-4.64 7.674 7.674 0 00-3.27-3.35l-82.39-43.72M1087 808.821l-87.999-16a7.71 7.71 0 01-6.23-6.4 7.784 7.784 0 01.72-4.63 7.65 7.65 0 013.28-3.36l82.389-43.72" stroke-linecap="round"/><path d="M1000 1001.64c0 35-39.4 63.36-88 63.36s-88-28.36-88-63.36a47.358 47.358 0 014.59-20.231c6.41-13.7 21-19 33.42-12.86 14.2 7.07 31.42 11.21 50 11.21s35.79-4.14 50-11.21c12.4-6.18 27-.84 33.42 12.86a47.337 47.337 0 014.57 20.231z" fill="#fff"/></g><defs><clipPath id="prefix__clip0_53_29369"><path fill="#fff" d="M0 0h1500v1500H0z"/></clipPath></defs>
      <g clip-path="url(#prefix__clip0_53_27350)"><path d="M695 882.421v6.14a7.746 7.746 0 01-.67 3.22c-1.26 2.86-3.34 3-3.34 3a7.817 7.817 0 01-6.39-1.32c-2.64-2.11-9.24-20.21-9.24-20.21l-12.71 20.21H654l17.8-28.21-5.59-11.59a4.654 4.654 0 00-4.07-2.64H662a4.724 4.724 0 00-4.13 1.7c-.89.89-1.21 3.78-1.21 3.78l-1.78.13a22.972 22.972 0 01-.13-5.28 7.776 7.776 0 011.34-3.76 5.694 5.694 0 014.83-2.61 7.816 7.816 0 014.51 1.43 8.67 8.67 0 013 3.74l5.26 13.05 11.44-17.4H693l-15.8 24.51 3.94 9.32s3 9 7.31 9 4.71-6.22 4.71-6.22l1.84.01z" fill="#000"/></g><defs><clipPath id="prefix__clip0_53_27350"><path fill="#fff" d="M0 0h1500v1500H0z"/></clipPath></defs>
      <g clip-path="url(#prefix__clip0_53_25075)"><path d="M358.07 724.24c-2.91 11.13-5.22 22.96-6.67 31.13a4.352 4.352 0 01-8.1 1.33 49.392 49.392 0 01-3.34-7.37c-3.4-9.62-6.2-21.84-8.84-26.76-2.64-4.92-1.51-14.46 0-22.09a151.869 151.869 0 002.43-18.36c.06-2.04-1.18-14.28 0-17.9.99-3.01 6.16-15.64 7.88-19.83a4.33 4.33 0 011.84-2.1l18.378-9.79 16.353-50.5 69-94.5 63-51.5c34.166-22.001 133.5-66.702 257.5-69.502 124-2.8 229.666 68.167 266.999 104l41.29 42.442c15.8 1.5 23.79 6.45 29.57 10.19 5.78 3.74 26.14 7.88 33.18 15.1 7.04 7.22 33.98 37.24 34.6 38.17.62.93 16.76 36.51 19.47 42.51.26.561.39 1.172.39 1.79v28.52c0 1.043-.38 2.05-1.06 2.84l-13.59 15.75c-.47.553-1.08.979-1.76 1.237a4.32 4.32 0 01-4.12-.569 4.35 4.35 0 01-1.36-1.668 339.426 339.426 0 00-21.14-38.48 16.32 16.32 0 00-5.9-5.549 16.263 16.263 0 00-7.84-2.021h-14.49L1002.8 627l-209.23 16.57h-.39l-277.24 47.09h-.23l-115.08 25.85a4.241 4.241 0 01-2.31-.11l-14.27-4.69a4.294 4.294 0 00-2.33-.11l-13.84 3.16a13.141 13.141 0 00-9.81 9.48z" fill="#99C4CB"/><path d="M546.5 566.502c-3.2 4-8.333 83.333-10.5 122.5l-103 18c-12.5 2-41.3 6.9-56.5 10.5-15.2 3.6-22.667 26.833-24.5 38l-22.5-66.5 24-51c8-35.666 46.9-123.899 138.5-191.499s191.833-74.167 230.5-69c-88.8 56.8-145.667 132.667-163 163.5 148.8-49.6 387-55.667 487.5-52.5l18.5 20.499c-13.5.5-41.7 1.2-46.5 0-4.8-1.2-166 8.833-246 14-74.167 12.833-223.3 39.5-226.5 43.5z" fill="#001647" fill-opacity=".2"/><path d="M1167 681.259l15-14.51a49.215 49.215 0 0014.3-26.901 49.21 49.21 0 00-4.3-30.159c-13.24-26.85-46.46-57.08-62.15-71.35-15.69-14.27-35.56-24.08-56.77-25.16-310.93-15.72-565.58 56.9-686 99.09-51.8 18.15-81.49 78.999-30.2 162.159" stroke="#000" stroke-width="20"/><path d="M361.58 627.682s53.84-186.8 241.47-235.29c187.63-48.49 327.34-27.08 476.25 119.61M367.76 725.401s312.51-78.77 497.45-86.9c0 0 164.52-11.68 272.65-7.57M994.41 512s62.27 71.5 82.83 118M433.65 600.449s-24.72 70.15-15.18 119.17M542.64 569.789s-15.23 78-3.89 120.53M643.55 550c12.26 57.53 10.25 57.46 22 117.12M748.51 529.762s31.14 50 55 116.5M872.32 514.391s41.57 54.35 68.2 120.72" stroke="#000" stroke-width="20"/></g><defs><clipPath id="prefix__clip0_53_25075"><path fill="#fff" d="M0 0h1500v1500H0z"/></clipPath></defs>
      
    </g>
    </svg>