<svg
      xmlns="http://www.w3.org/2000/svg"
      preserveAspectRatio="xMidYMin meet"
      fill="none"
      viewBox="0 0 1500 1500"
    >
      <g>
      <path fill="url(#prefix__paint0_linear_53_30463)" d="M0 0h1500v1500H0z"/><defs><linearGradient id="prefix__paint0_linear_53_30463" x1="1500" y1="1500" x2="0" y2="0" gradientUnits="userSpaceOnUse"><stop stop-color="#FF5A5A"/><stop offset="1" stop-color="#FFBDBD"/></linearGradient></defs>
      <g clip-path="url(#prefix__clip0_53_28546)"><path d="M1263 1500H289.33l3.73-66.49 22.17-107.35L350 1210.5l64.5-87s17.71-5.24 49.5-22c0-15.48-3.27-11.17 5.5-3.5 9.18-4.83 18.47-7.58 29.94-13H503c6.96-3.29 10.74-4.62 18.5-8 64.69-28.13 216.5-36 216.5-36s154.86-8.26 305 43c6.21 2.12 35.41 17.63 41.5 20 145.5 76.5 178.5 396 178.5 396z" fill="#fff"/><path d="M1120.22 1500H492.75l63.3-66.84 42-80.49.34-.65L509 1201.57l-38-89.15-2.66-6.25-.73-1.69c-.002-.04-3.113-4.44-3.11-4.48l31-14 10-2.5 24.5-9 28.59 59.88v.08l86.22 157.7c.06.1.13.19.18.28l24.2 34.72h246.5l21-28.57 10-13.56 17.21-55.83 22.47-72.91v-.09l21.63-69.7 25-10.44 36.5 20.94-5.33 7.99-1.69 9.53-10.23 57.79-8.9 50.24-13.5 33.18-40.28 99.07-.9 2.21-1.4 3.44 52.71 77.83 70.33 54 4.43 3.39 5.48 4.33z" fill="#4AEEB9"/><path d="M468.001 1094c149.6-59.6 294-54.83 347.5-45-60.865 12.72-204.146 61.06-305.043 154.5L593.5 1345l-5.5 25.5c-40.4-37.2-77.581-111.33-94.871-150-95.084 99.83-110.861 243.43-106.627 304l-99.502-13c-1.6-110.8 39-247.5 59.5-302l39.501-52.5 15.5-20.5 66.5-42.5z" fill="#001647" fill-opacity=".2"/><path d="M780.324 1434.93c.215.68.279 1.39.189 2.09-.09.7-.333 1.38-.711 1.97a4.278 4.278 0 01-1.424 1.42c-.58.36-1.235.57-1.912.63-.757.12-1.502.2-2.246.27-.744.06-1.467.09-2.188.1.099 2.27-.294 4.53-1.151 6.63a19.416 19.416 0 01-9.795 10.12 17.29 17.29 0 01-7.084 1.5l-.41-.02c-2.76-.04-5.47-.74-7.908-2.03a21.42 21.42 0 01-6.727-5.66c-3.997-4.99-6.622-11.99-7.875-21-.726-4.47-.893-9-.499-13.51a24.64 24.64 0 012.899-9.57c.714-1.2 1.591-2.3 2.606-3.26.99-.94 2.112-1.74 3.331-2.35 1.077-.53 2.213-.94 3.384-1.2 1.232-.29 2.498-.41 3.762-.36 3.633 0 7.21.91 10.402 2.64 1.451.7 2.796 1.6 3.992 2.67a9.443 9.443 0 013.296 5.4c.137.67.122 1.37-.045 2.05-.167.67-.481 1.3-.92 1.83-.418.52-.949.94-1.553 1.22-.605.28-1.266.42-1.932.4a5.734 5.734 0 01-3.234-.99 7.929 7.929 0 01-2.388-2.52c-.482-.29-.981-.54-1.494-.76-.671-.28-1.362-.52-2.068-.7-.778-.2-1.575-.3-2.377-.32a6.71 6.71 0 00-2.432.39c-1.606.68-2.761 2.15-3.464 4.4-1.183 3.39-1.326 8.28-.43 14.68a37.867 37.867 0 002.337 9.78c.712 1.8 1.665 3.49 2.833 5.03a6.705 6.705 0 002.228 2.01c.884.49 1.867.78 2.876.84a8.833 8.833 0 003.568-.85 8.891 8.891 0 002.932-2.2 8.48 8.48 0 002.39-4.36c-.56-.02-1.119-.05-1.678-.08-.56-.03-1.109-.05-1.668-.08a6.018 6.018 0 01-4.084-1.63 6.088 6.088 0 01-2.118-3.92c-.1-.67-.056-1.35.13-2 .186-.64.51-1.25.948-1.76.422-.51.955-.92 1.559-1.19a4.407 4.407 0 011.925-.4l.09.01c.881-.01 1.731 0 2.541.02.81.02 1.598.08 2.387.12 1.998.1 3.886.2 5.799.18 2.246 0 4.489-.14 6.719-.42a5.77 5.77 0 014.167 1.16 6.41 6.41 0 012.525 3.58zM809.785 1459.36a102.9 102.9 0 01-5.583-.08c-1.508-.08-2.746-.14-3.711-.28-.964-.14-1.721-.21-2.266-.33-.545-.12-.942-.19-1.169-.25a7.588 7.588 0 01-2.101-.83 8.992 8.992 0 01-2.468-2.12 12.745 12.745 0 01-1.998-3.1c-.455-.98-.853-1.98-1.193-3a44.13 44.13 0 01-1.044-3.75 74.323 74.323 0 01-1.503-7.43c-.45-2.81-.894-5.96-1.331-9.46-.408-2.92-.731-5.76-.967-8.52l-.633-7.39c-.173-2.17-.295-3.94-.376-5.32-.082-1.38-.125-2.13-.139-2.24-.078-.67.004-1.35.239-1.98.235-.63.617-1.2 1.113-1.66a4.736 4.736 0 011.768-1.06c.659-.23 1.359-.3 2.051-.23 1.532.16 2.954.87 3.996 2a6.02 6.02 0 011.805 3.97c-.003.06.039.63.104 1.73.065 1.11.162 2.57.312 4.4.149 1.83.334 3.94.545 6.33.211 2.39.46 4.85.754 7.39.36 3.02.713 5.79 1.05 8.27.337 2.48.767 4.7 1.14 6.66.373 1.97.744 3.36 1.038 4.48.295 1.13.523 1.97.725 2.53 1.549.17 3.107.24 4.665.23 1.851.02 3.804.01 5.849-.04 2.045-.04 4.09-.1 6.127-.19s3.895-.21 5.604-.33a5.665 5.665 0 014.118 1.33 6.675 6.675 0 012.425 3.79 4.711 4.711 0 01-.708 3.97c-.381.55-.88 1-1.462 1.33-.582.32-1.23.51-1.896.55l-1.004.04-2.39.15-3.383.19c-1.265.05-2.609.1-4.011.11-.773.05-1.486.08-2.147.09l-1.945.05zM840.538 1459.28a6.535 6.535 0 01-4.065-1.79 5.791 5.791 0 01-1.988-3.91c-.954-7.66-2.111-15.6-3.47-23.82a472.115 472.115 0 00-4.511-23.63 4.549 4.549 0 01.676-3.91c.387-.54.89-.98 1.473-1.3a4.33 4.33 0 011.892-.53c4.573-.44 9.182-.35 13.733.28 4.108.57 8.118 1.7 11.918 3.36a32.179 32.179 0 019.085 5.94 19.763 19.763 0 015.451 8.77c.22 1.02.372 2.07.456 3.11.099 1.34-.025 2.69-.369 3.99a16.03 16.03 0 01-1.988 4.54 19.016 19.016 0 01-4.237 4.66c-4.718 3.86-11.585 6.72-20.602 8.57.224 1.74.448 3.47.693 5.19.245 1.71.441 3.41.597 5.1a4.758 4.758 0 01-1.029 3.77c-.412.51-.937.92-1.535 1.2-.597.27-1.25.41-1.908.39l-.272.02zm-2.187-48.16a467.926 467.926 0 013.85 21.21 45.103 45.103 0 009.535-3.09c1.84-.84 3.573-1.9 5.164-3.15a10.464 10.464 0 002.779-3.15 3.927 3.927 0 00.499-2.98 6.65 6.65 0 00-2.294-3.19 18.776 18.776 0 00-4.734-2.85 38.087 38.087 0 00-14.8-2.78l.001-.02zM1122.41 1495.71l-2.72 4-2.86 4.25h-17.5c-39.37-28.33-90.91-75.45-111.93-131.12a55.169 55.169 0 00-3.61-7.72c-.66-1.18-1.36-2.32-2.1-3.44l6.48-4.3.45-.3 9.73-6.46a75.56 75.56 0 017.76 15.16c11.29 29.89 43.29 78.46 107.78 124 2.74 2 5.58 3.98 8.52 5.93z" fill="#000"/><path d="M669.16 1327.18h252.95" stroke="#000" stroke-width="20" stroke-miterlimit="10"/><path d="M605.91 1358.65c-.44.57-.86 1.15-1.27 1.74a53.595 53.595 0 00-6.74 13.12c-23 65.59-68.45 109.28-89 126.49l-21.15 3-5.79-8.16c.12-.09 2.66-1.91 6.85-5.38 17.35-14.29 68.14-59.52 90.22-122.56a73.51 73.51 0 0111-20.38l8.06 6.15 1.88 1.43 5.94 4.55z" fill="#000"/><path d="M465.53 1102.37s54.7 154.47 153.72 276.69a35.46 35.46 0 0020.062 12.32c7.895 1.7 16.135.66 23.358-2.95a35.406 35.406 0 0011.903-9.66 35.46 35.46 0 006.988-29.11 35.456 35.456 0 00-6.221-14.01c-32.71-44.41-111.58-175.36-143.84-260.15M1010.94 1078.69c-26.5 97.87-68.13 216.54-94.92 258.09a35.487 35.487 0 00-4.498 28.38 35.485 35.485 0 0017.988 22.4l1.37.71c7.688 3.98 16.565 5 24.959 2.89a35.516 35.516 0 0020.611-14.37c31.17-45.55 77.27-163 92.71-277.8" stroke="#000" stroke-width="20" stroke-miterlimit="10"/><path d="M645.26 1371.64c9.157 0 16.58-7.42 16.58-16.58 0-9.16-7.423-16.58-16.58-16.58-9.157 0-16.58 7.42-16.58 16.58 0 9.16 7.423 16.58 16.58 16.58zM947.6 1371.64c9.157 0 16.58-7.42 16.58-16.58 0-9.16-7.423-16.58-16.58-16.58-9.157 0-16.58 7.42-16.58 16.58 0 9.16 7.423 16.58 16.58 16.58z" fill="#000"/><path d="M289.5 1512.5c-6-101.5 31-323.03 140.5-398 158.5-108.51 616.5-87 706.5 26 64.91 81.5 99.5 222.5 132.5 371M1084.5 1337c12.33 37 29.5 110.3 43.5 175.5m-646.5 0c.333-32.83 7.7-107.6 20.5-157" stroke="#000" stroke-width="20" stroke-linecap="round"/></g><defs><clipPath id="prefix__clip0_53_28546"><path fill="#fff" d="M0 0h1500v1500H0z"/></clipPath></defs>
      <g clip-path="url(#prefix__clip0_299_662)"><path d="M775 1185c231.41 0 419-168.12 419-375.5 0-207.383-187.59-375.5-419-375.5-231.407 0-419 168.117-419 375.5 0 207.38 187.593 375.5 419 375.5z" fill="#ABF"/><path d="M457.5 796c7.6 194 131.833 327.5 193 370l-130-55.5L438 1034l-57.5-89.5-27-106 11-104L394 662l45-82.5 83.5-69.5 109-54.182 28.5-1C569.452 513.314 451.119 633.132 457.5 796z" fill="#001647" fill-opacity=".2"/><path d="M775 1185c231.41 0 419-168.12 419-375.5 0-207.383-187.59-375.5-419-375.5-231.407 0-419 168.117-419 375.5 0 207.38 187.593 375.5 419 375.5z" stroke="#000" stroke-width="20"/></g><defs><clipPath id="prefix__clip0_299_662"><path fill="#fff" d="M0 0h1500v1500H0z"/></clipPath></defs>
      <g clip-path="url(#prefix__prefix__clip0_53_29477)"><path d="M1046 825a40.998 40.998 0 0037.88-25.31 41.043 41.043 0 002.33-23.689 40.939 40.939 0 00-11.22-20.992 40.99 40.99 0 00-44.68-8.888 40.977 40.977 0 00-18.4 15.101 40.996 40.996 0 005.1 51.769A41.006 41.006 0 001046 825z" fill="#000"/><path d="M729.63 808.821l88.08-16a7.737 7.737 0 006.23-6.4 7.757 7.757 0 00-.73-4.64 7.674 7.674 0 00-3.27-3.35l-82.39-43.72m99.27 256.728c38.57 39.211 113.35 39.211 151.93 0" stroke="#000" stroke-width="20" stroke-miterlimit="10" stroke-linecap="round"/></g><defs><clipPath id="prefix__prefix__clip0_53_29477"><path fill="#fff" d="M0 0h1500v1500H0z"/></clipPath></defs>
      <g clip-path="url(#prefix__clip0_53_26861)"><path d="M447.622 867.389c15.29-8.12 40.61-15.39 63.47 6.76a33.285 33.285 0 0031.7 8c16.76-4.43 40.91-6.38 58.48 10.76a33.885 33.885 0 0033.5 8.24c17.27-5.22 42-7.38 63.2 12.11a33.3 33.3 0 0033.44 7.09c14.19-4.88 35.588-3.815 51.52 10.07C811 952 830.89 936.6 840.91 927.17c14-13.14 36.29-24.88 66.09-11.41 4.293 1.899-11.781.784-7.087.774a33.524 33.524 0 0013.619-2.925c14.32-6.29 37.75-11.94 60.15 3.23a33.376 33.376 0 0034.668 2c9.95-5.4 23.51-19.6 39.42-16.41a33.679 33.679 0 0017.06-.968 33.677 33.677 0 0014.38-9.212c7-7.64 18.31-14.45 35.72-13 5.99.455 11.99-.733 17.35-3.434a33.016 33.016 0 0013.08-11.896c7.25-11.41 21.15-23.19 47.32-24.45 0 0 21.85 14.24 13.5 47.19a34.058 34.058 0 002.18 22.77c4.23 9.05 7.4 22.51-2.2 34.45a33.045 33.045 0 00-6.18 11.917 33.093 33.093 0 00-.92 13.393c2.21 15.3-5.19 26.51-12.43 33.581a34.154 34.154 0 00-10.41 23.88c-.29 17.29-9.6 26.42-18.41 31.18a33.37 33.37 0 00-10.36 9.1c-2.77 3.73-4.74 8-5.77 12.53-3.65 15-20.18 22.04-27.56 25.24-7.38 3.2-16.18 8.7-22.9 21-6.72 12.3-22.93 26.06-35.43 28.91a34.029 34.029 0 00-21.49 15.54c-11.47 18.77-32.74 23-47.858 23.35-4.704.06-9.34 1.13-13.597 3.13a33.05 33.05 0 00-11.093 8.47c-12.12 14.56-30.74 16.05-43.55 15a33.336 33.336 0 00-23.89 7.64c-17.44 14.25-37.18 11-50.6 5.83a32.94 32.94 0 00-14.902-2.1c-5.063.46-9.95 2.09-14.278 4.76-18.33 11.34-35.85 7-47.47 1.2a33.313 33.313 0 00-14.338-3.37 33.43 33.43 0 00-14.392 3.13c-24.87 11.39-45 .12-56.4-9.75-3.478-3-7.534-5.24-11.918-6.61-4.383-1.36-9-1.8-13.562-1.3-27.45 3-44-11.51-52.84-23.4a33.495 33.495 0 00-25.5-13.54c-23.54-1-37.07-11.43-44.45-20.42a34.028 34.028 0 00-11.197-8.96 34.076 34.076 0 00-13.893-3.54c-26.87-1-37.3-14.44-41.29-25.93a32.354 32.354 0 00-7.698-12.45 32.25 32.25 0 00-12.402-7.76c-25.47-8.54-32.87-28.62-34.63-43.8a33.819 33.819 0 00-5.359-15.01 33.843 33.843 0 00-11.641-10.88c-20.25-11.11-22.89-27.54-21.85-38.711a32.438 32.438 0 00-6.08-21.85c-6.35-8.87-12.26-23.12-3.06-39.69a33.266 33.266 0 001.59-29.13c-5.08-12-8.66-27.83 2-36.83 14.47-12.27 35.52-6.23 49.81.41a33.369 33.369 0 0029.66-.65z" fill="#F56CDB" stroke="#000" stroke-width="20" stroke-miterlimit="10"/><path d="M548.318 940.84c-15.419-17.547-3.699-44.055 5.182-56.34-5.5-1.834-17.4-5.5-21-5.5-4.5 0-18-3.5-26.5-9.5s-6-2-13-4-24.5-2.5-26.5-2.5-37 6.5-38.5 6.5-37.5-11.5-39-12c-1.2-.4-16.167 9.833-23.5 15V903c0 .8-.667 18-1 26.5l1 51.5 25 45.5 23.5 36 31.5 45 27.5 27 32 14.5 64.5 28.5 41 27.5 38.5 13 50 17h80.5c-7.927-1.83-16.163-9.58-21.477-15.83-2.583-3.03-6.567-4.61-10.516-4.09-40.652 5.43-61.301-18.35-68.509-35.4-1.446-3.42-4.297-6.11-7.838-7.23-24.761-7.8-34.1-27.41-36.492-41.24-.779-4.5-3.806-8.46-8.046-10.15-22.735-9.09-27.321-27.17-26.242-40.16.408-4.92-1.696-9.97-5.861-12.61-24.112-15.31-26.877-36.02-24.202-49.24.871-4.31-.146-8.97-3.199-12.13-18.059-18.687-18.677-38.469-15.182-51.173 1.41-5.125-.11-10.915-3.618-14.907z" fill="#001647" fill-opacity=".2"/><path d="M447.622 867.389c15.29-8.12 40.61-15.39 63.47 6.76a33.285 33.285 0 0031.7 8c16.76-4.43 40.91-6.38 58.48 10.76a33.885 33.885 0 0033.5 8.24c17.27-5.22 42-7.38 63.2 12.11a33.3 33.3 0 0033.44 7.09c14.19-4.88 35.588-3.815 51.52 10.07C811 952 830.89 936.6 840.91 927.17c14-13.14 36.29-24.88 66.09-11.41 4.293 1.899-11.781.784-7.087.774a33.524 33.524 0 0013.619-2.925c14.32-6.29 37.75-11.94 60.15 3.23a33.376 33.376 0 0034.668 2c9.95-5.4 23.51-19.6 39.42-16.41a33.679 33.679 0 0017.06-.968 33.677 33.677 0 0014.38-9.212c7-7.64 18.31-14.45 35.72-13 5.99.455 11.99-.733 17.35-3.434a33.016 33.016 0 0013.08-11.896c7.25-11.41 21.15-23.19 47.32-24.45 0 0 21.85 14.24 13.5 47.19a34.058 34.058 0 002.18 22.77c4.23 9.05 7.4 22.51-2.2 34.45a33.045 33.045 0 00-6.18 11.917 33.093 33.093 0 00-.92 13.393c2.21 15.3-5.19 26.51-12.43 33.581a34.154 34.154 0 00-10.41 23.88c-.29 17.29-9.6 26.42-18.41 31.18a33.37 33.37 0 00-10.36 9.1c-2.77 3.73-4.74 8-5.77 12.53-3.65 15-20.18 22.04-27.56 25.24-7.38 3.2-16.18 8.7-22.9 21-6.72 12.3-22.93 26.06-35.43 28.91a34.029 34.029 0 00-21.49 15.54c-11.47 18.77-32.74 23-47.858 23.35-4.704.06-9.34 1.13-13.597 3.13a33.05 33.05 0 00-11.093 8.47c-12.12 14.56-30.74 16.05-43.55 15a33.336 33.336 0 00-23.89 7.64c-17.44 14.25-37.18 11-50.6 5.83a32.94 32.94 0 00-14.902-2.1c-5.063.46-9.95 2.09-14.278 4.76-18.33 11.34-35.85 7-47.47 1.2a33.313 33.313 0 00-14.338-3.37 33.43 33.43 0 00-14.392 3.13c-24.87 11.39-45 .12-56.4-9.75-3.478-3-7.534-5.24-11.918-6.61-4.383-1.36-9-1.8-13.562-1.3-27.45 3-44-11.51-52.84-23.4a33.495 33.495 0 00-25.5-13.54c-23.54-1-37.07-11.43-44.45-20.42a34.028 34.028 0 00-11.197-8.96 34.076 34.076 0 00-13.893-3.54c-26.87-1-37.3-14.44-41.29-25.93a32.354 32.354 0 00-7.698-12.45 32.25 32.25 0 00-12.402-7.76c-25.47-8.54-32.87-28.62-34.63-43.8a33.819 33.819 0 00-5.359-15.01 33.843 33.843 0 00-11.641-10.88c-20.25-11.11-22.89-27.54-21.85-38.711a32.438 32.438 0 00-6.08-21.85c-6.35-8.87-12.26-23.12-3.06-39.69a33.266 33.266 0 001.59-29.13c-5.08-12-8.66-27.83 2-36.83 14.47-12.27 35.52-6.23 49.81.41a33.369 33.369 0 0029.66-.65z" stroke="#000" stroke-width="20" stroke-miterlimit="10"/><path d="M831.246 937.5l-39.5 26 14.5 12h25c5.5 0 24 3.5 35.5 4s12.5-4 18.5-4 13-7 15.5-8c2-.8 6.167-6.333 8-9l12-8.5c1.167 1.333 4.1 4 6.5 4 3 0 4 6 8 9.5s25.5 9.5 34 12c6.8 2 11.5.833 13 0h32.004c2.5 0 11 .5 11 0s8-2.5 12.5-2.5h10.5v-9.5c-2.5-2.5-8.1-7.9-10.5-9.5-3-2-8-6.5-12.5-10s-11-10-16-14c-4-3.2-6.34-5.667-7-6.5L991.246 912l-11.5-12-6.5-5-16-3-26 14-22.5 2.5-14.5-13.5h-15l-24 11-24 31.5z" fill="#F56CDB"/><path d="M859.5 935.5c-10.8 18.8-29.833 34.833-38 40.5l-37.5-8.5 9-8.5 40.5-26c2.5-7.833 11.9-25.1 29.5-31.5 17.6-6.4 31.667 2.667 36.5 8-15.5-4.5-26.5 2.5-40 26zM943 941c-3.6-23.2 13.833-37 23-41l-8-5.5c-15.167 2.333-44 14.3-38 43.5s48.5 40.5 69 42.5c-13.833-3.5-42.4-16.3-46-39.5z" fill="#001647" fill-opacity=".2"/><path fill-rule="evenodd" clip-rule="evenodd" d="M961.269 902.528a33.46 33.46 0 00-17.707 4.912l-.01.006-.009.005c-14.538 8.847-17.706 28.866-6.497 42.398 12.86 15.528 33.801 20.971 56.716 20.901 15.068-.046 30.018-2.491 42.108-5.251a119.743 119.743 0 01-50.504-46.316c-6.043-9.968-13.81-16.654-24.021-16.654h-.038l-.038-.001zm.114-19.999a53.457 53.457 0 00-28.245 7.842c-25.453 15.496-30.102 49.772-11.494 72.236 18.52 22.363 46.96 28.22 72.179 28.143 25.457-.078 49.957-6.175 63.547-10.241l.01-.002c2.81-.845 5.3-2.536 7.11-4.844a14.256 14.256 0 003.04-8.053c.16-2.934-.58-5.845-2.14-8.337a14.273 14.273 0 00-6.54-5.592l-10.15-4.296c-.01-.004-.02-.008-.02-.012a99.747 99.747 0 01-46.16-40.47l-.01-.027-.02-.027c-7.492-12.37-20.548-26.303-41.107-26.32z" fill="#000"/><path d="M786.116 970.931c26.4 7.9 93.78 23.19 125.17-14.7 14.9-18 11-45.15-9-57.32a43.465 43.465 0 00-23.04-6.41c-15.4 0-25.82 10.32-32.59 21.5a109.784 109.784 0 01-50.81 44.54l-10.21 4.32a4.282 4.282 0 00-1.691 6.634 4.281 4.281 0 002.171 1.436z" stroke="#000" stroke-width="20" stroke-miterlimit="10" stroke-linecap="round"/></g><defs><clipPath id="prefix__clip0_53_26861"><path fill="#fff" d="M0 0h1500v1500H0z"/></clipPath></defs>
      <g clip-path="url(#prefix__clip0_53_30392)"><path d="M661.719 466.274s.681-50.314 11.212-50.049c10.53.266 30.241-4.165 30.241-4.165l31.002 15.989 25.638-5.424 28.99-24.747 27.071-1.791 27.883 14.121 15.446 18.681 23.411.145 50.96-13.954 24.276 23.68-19.232 52.574-44.507-21.369-17.617-6.041-23.175-7.036-28.05-1.943-32.388-.112-55.638 3.68-50.45 8.949-25.073-1.188z" fill="#97A5DE"/><path d="M718.506 479.214s19.322 40.453 64.014 34.31c44.692-6.143 83.522-32.583 83.522-32.583l10.406-17.065-81.463-14.775-84.096 14.041s-8.664 11.898 7.617 16.072z" fill="#7985B4"/><path d="M662.843 469.488s-13.534-58.554 30.087-60.287c15.493-.614 25.434 4.992 32.226 12.21 13.894 14.755 29.392 7.707 38.346-2.386 11.842-13.391 27.482-26.021 44.854-27.17 20.226-1.338 34.215 14.393 42.889 29.474 6.094 10.621 21.799 13.651 33.204 6.683 11.953-7.315 28.35-12.9 48.081-8.683 42.964 9.245 6.064 69.091 6.064 69.091" stroke="#000" stroke-width="18.1" stroke-miterlimit="10" stroke-linecap="round"/><path d="M630.048 507.636s25.276-45.068 51.452-39.634c40.502 8.395 74.399 69.733 74.399 69.733M800.818 537.27s38.761-65.501 93.251-67.301c54.49-1.801 48.429 57.93 48.429 57.93M682 468s137.209-40.275 226.409 2.982M736.796 506.5s35.104 14.655 86.489 1.675" stroke="#000" stroke-width="20" stroke-miterlimit="10" stroke-linecap="round"/><path d="M351.4 750.771c1.45-8.17 3.76-20 6.67-31.13a13.136 13.136 0 019.81-9.48l13.84-3.16a4.275 4.275 0 012.33.11l14.27 4.69c.745.25 1.545.288 2.31.11l115.08-25.85h.23l277.24-47.09h.39l209.23-16.47 118.94-6.24h14.49a16.295 16.295 0 0113.74 7.56 339.734 339.734 0 0121.14 38.49c.31.658.77 1.23 1.36 1.662.58.431 1.27.71 1.99.809.72.1 1.45.017 2.13-.24.68-.257 1.29-.68 1.76-1.231l13.59-15.75a4.384 4.384 0 001.06-2.85l-5.42-29.45c0-.618-.13-1.229-.39-1.79-2.71-6-28.15-36.5-24-40 .93-.8-17.57-32.49-24.61-39.71-7.04-7.22-27.4-11.36-33.18-15.1-5.78-3.74-13.77-8.69-29.57-10.2-15.8-1.51-48.68-2.29-62.62-1.94-13.42.34-64-1.57-67.72-1.71H945l-162 10.19a4.14 4.14 0 00-.52.06l-125.3 23.27-94.3 15.07a4.78 4.78 0 00-.53.12l-95.73 27.73c-.14 0-.28.09-.41.15l-83 22.6c-.19.08-2.92 12.07-3.11 12.17l-36.86 21.51a4.413 4.413 0 00-1.84 2.1c-1.72 4.2-6.89 16.83-7.88 19.84-1.18 3.62.06 15.86 0 17.9a151.534 151.534 0 01-2.43 18.35c-1.51 7.64-2.64 17.18 0 22.1 2.64 4.92 5.44 17.14 8.84 26.76a49.484 49.484 0 003.34 7.37 4.361 4.361 0 008.13-1.33z" fill="#F8CF47"/><path d="M583 553.5c-28 33.2-40.333 98.167-43 126.5-50.667 9.5-154.4 29.1-164 31.5-9.6 2.4-20.333 26.333-24.5 38l-14-31L330 669c2.667-7 13.8-27.1 37-51.5s93-41.167 125-46.5l91-17.5z" fill="#001647" fill-opacity=".2"/><path d="M664.723 621.964a4.421 4.421 0 011.632 2.886 3.994 3.994 0 01-.836 3.019l-.069.071a4.322 4.322 0 01-2.243 1.268 4.6 4.6 0 01-2.002-.048 4.284 4.284 0 01-1.881-.96l-.428-.381-4.01-3.236c-1.016-.788-1.964-1.598-2.941-2.418-.096.232-.181.454-.276.666-.495 1.181-.95 2.391-1.454 3.622a55.426 55.426 0 00-1.352 3.689 3.77 3.77 0 01-2.947 2.533 4.237 4.237 0 01-2.576-.275 4.394 4.394 0 01-2.497-2.197 3.996 3.996 0 01-.278-3.195c.512-1.331.945-2.611 1.467-3.892.523-1.282.947-2.531 1.441-3.762a30.47 30.47 0 00.817-2.018c.18-.473.37-.958.54-1.431a124.678 124.678 0 01-5.439-5.566 68.723 68.723 0 01-5.393-6.667 4.09 4.09 0 01-.719-1.501 4.054 4.054 0 01-.058-1.663 3.686 3.686 0 011.825-2.59 4.54 4.54 0 013.321-.47c1.17.25 2.196.945 2.862 1.939a65.875 65.875 0 003.732 4.752 69.181 69.181 0 002.907 3.149 85.767 85.767 0 001.092-4.154 52.819 52.819 0 001.076-6.334 3.817 3.817 0 011.633-2.695 4.176 4.176 0 013.298-.63c1.16.175 2.21.786 2.936 1.708a3.873 3.873 0 01.878 3.162 66.55 66.55 0 01-1.637 8.676 98.98 98.98 0 01-2.102 6.987 243.8 243.8 0 004.238 3.601l4.977 4.075.466.28zM688.412 623.561a31.506 31.506 0 01-3.571.425c-3.048.219-6.11.045-9.113-.516a5.001 5.001 0 01-3.191-1.893 4.712 4.712 0 01-1.074-3.448 4.156 4.156 0 011.736-3.038 4.596 4.596 0 011.715-.748 4.584 4.584 0 011.87.002c2.124.355 4.279.487 6.43.394a18.355 18.355 0 005.44-1.026 8.591 8.591 0 005.12-3.789c.249-.436.435-.904.551-1.392a1.993 1.993 0 00-.5-1.87c-.678-.856-2.031-1.457-4.039-1.785a23.13 23.13 0 00-4.323-.108c-2.363.182-4.7.61-6.974 1.278a5.116 5.116 0 01-3.518-.305 5 5 0 01-2.534-2.557 4.078 4.078 0 01-.242-3.356 4.407 4.407 0 012.298-2.499 21.259 21.259 0 004.552-2.797 16.711 16.711 0 003.091-3.267 12.156 12.156 0 001.709-3.337 7.731 7.731 0 00.355-3.088 3.234 3.234 0 00-.296-1.234 1.678 1.678 0 00-.739-.864 4.009 4.009 0 00-1.131-.056 6.6 6.6 0 00-1.991.472 26.291 26.291 0 00-3.144 1.717 28.674 28.674 0 00-4.651 3.78 4.616 4.616 0 01-3.432 1.353 4.938 4.938 0 01-3.521-1.446 4.781 4.781 0 01-1.681-3.335 3.842 3.842 0 011.281-3.248 33.889 33.889 0 0110.814-7.481 15.16 15.16 0 016.237-1.133 15.58 15.58 0 014.369.838 11.302 11.302 0 015.257 4.059 13.345 13.345 0 012.338 6.482 16.99 16.99 0 01-.551 5.593 20.545 20.545 0 01-2.365 5.441 17.252 17.252 0 016.509 2.253 15.612 15.612 0 013.645 3.053 11.482 11.482 0 012.822 6.632 12.059 12.059 0 01-1.68 7.107 14.24 14.24 0 01-3.995 4.526 21.59 21.59 0 01-5.845 3.125c-.645.213-1.301.417-1.987.612-.686.195-1.333.338-2.051.474zM731.08 616.333a16.846 16.846 0 01-7.544-.58 21.899 21.899 0 01-7.334-3.846 27.268 27.268 0 01-6.145-6.801 35.185 35.185 0 01-4.082-8.985 38.264 38.264 0 01-1.233-6.245 26.68 26.68 0 01.003-5.992 22.92 22.92 0 011.149-5.245 24.165 24.165 0 012.163-4.607 17.008 17.008 0 014.738-4.872 15.116 15.116 0 016.15-2.421c2.411-.391 4.881-.2 7.203.557a18.664 18.664 0 016.726 3.979c4.079 3.701 7.123 9.157 9.129 16.37a42.15 42.15 0 011.58 7.968 31.13 31.13 0 01-.037 6.292 19.459 19.459 0 01-1.109 4.765 19.776 19.776 0 01-1.649 3.375 13.442 13.442 0 01-4.161 4.2 14.414 14.414 0 01-5.547 2.088zm-9.859-40.38a5.627 5.627 0 00-2.477 1.133 9.866 9.866 0 00-2.181 2.327 14.727 14.727 0 00-2.08 6.625c-.193 2.761.12 5.534.924 8.182a24.418 24.418 0 002.69 6.085 18.204 18.204 0 003.876 4.478 10.882 10.882 0 003.513 2.006 7.065 7.065 0 003.328.35 4.945 4.945 0 003.549-2.456 8.228 8.228 0 00.87-1.859c.327-.975.528-1.987.597-3.013.101-1.453.07-2.912-.093-4.359a36.91 36.91 0 00-4.41-13.62 19.292 19.292 0 00-3.084-3.935c-1.779-1.529-3.457-2.171-5.032-1.924l.01-.02zM792.61 607.657a23.77 23.77 0 01-8.714-.535 26.613 26.613 0 01-8.453-3.822 28.457 28.457 0 01-6.998-6.913 29.982 29.982 0 01-4.628-9.754 28.315 28.315 0 01-.851-10.884 21 21 0 013.432-8.895 21.518 21.518 0 016.531-6.14 21.79 21.79 0 018.649-2.954 22.785 22.785 0 018.765.574 24.214 24.214 0 017.953 3.832 25.466 25.466 0 016.686 7.32 33.684 33.684 0 014.052 9.916c.572 2.286.89 4.627.948 6.982a27.455 27.455 0 01-.499 5.692 19.886 19.886 0 01-1.417 4.431 22.416 22.416 0 01-1.82 3.279 17.585 17.585 0 01-5.889 5.316 21.002 21.002 0 01-7.747 2.555zm-9.004-40.628a12.558 12.558 0 00-8.78 5.278 12.294 12.294 0 00-2.1 5.695 18.997 18.997 0 00.606 6.889 19.368 19.368 0 002.877 6.44 17.768 17.768 0 004.294 4.36 14.823 14.823 0 005.05 2.324c1.677.433 3.419.555 5.139.361a10.44 10.44 0 007.484-4.16c2.28-3.289 2.746-7.73 1.357-13.332a22.7 22.7 0 00-2.808-6.942 16.473 16.473 0 00-3.954-4.407 12.56 12.56 0 00-4.547-2.164 13.182 13.182 0 00-4.618-.342zM826.58 604.007a5 5 0 01-3.491-.926 5.173 5.173 0 01-2.063-2.957c-.001-.05-.153-.647-.458-1.811-.305-1.164-.658-2.696-1.098-4.598-.44-1.901-.936-4.051-1.467-6.46-.532-2.409-1.104-4.868-1.558-7.398a173.038 173.038 0 01-1.542-8.09 116.338 116.338 0 01-.893-6.262 29.553 29.553 0 01-.119-5.619c.07-.923.277-1.831.613-2.693a4.396 4.396 0 011.952-2.292 7.914 7.914 0 011.984-.753 6.002 6.002 0 012.513.107 8.5 8.5 0 012.119.875c.58.336 1.122.733 1.616 1.186.429.421.756.744.951.98l1.786 2.153a50.395 50.395 0 012.141 2.855 199.01 199.01 0 014.291 6.601c1.522 2.438 3.025 4.937 4.537 7.375l1.937 3.14c.643 1.036 1.244 2.034 1.824 2.962a82.946 82.946 0 00-.622-3.848c-.26-1.415-.514-2.99-.759-4.635a312.084 312.084 0 00-1.245-6.375c-.424-2.051-.803-3.884-1.117-5.478a97.993 97.993 0 00-.821-3.833 92.03 92.03 0 01-.352-1.503 3.988 3.988 0 01.708-3.416 4.406 4.406 0 013.172-1.827 5.21 5.21 0 013.76.92 5 5 0 012.147 3.135c.506 2.19.919 4.182 1.267 5.975.348 1.793.741 3.835 1.13 6.107.388 2.272.858 4.623 1.29 7.064 1.009 5.754 1.678 10.437 2.008 14.051a35.83 35.83 0 01.15 7.068 6.81 6.81 0 01-1.48 3.773 5.193 5.193 0 01-4.034 1.745 5.522 5.522 0 01-3.455-1.176 20.119 20.119 0 01-2.47-2.289 44.516 44.516 0 01-3.389-4.639 169.452 169.452 0 01-3.786-5.921c-1.358-2.221-2.755-4.462-4.217-6.852l-2.658-4.144a315.386 315.386 0 00-2.608-4.126c.423 2.492 1.019 5.6 1.768 9.325.474 2.243.93 4.388 1.367 6.432.437 2.045.838 3.853 1.205 5.426.367 1.572.804 3.33 1.312 5.273a3.996 3.996 0 01-.586 3.493 4.47 4.47 0 01-1.32 1.275 4.466 4.466 0 01-1.72.64l-.22-.015zM880.291 599.246c-1.998.143-3.616.227-4.996.256-1.379.029-2.429.052-3.28 0-.852-.052-1.522-.078-2.004-.138l-1.003-.139a6.702 6.702 0 01-1.853-.58 7.191 7.191 0 01-2.195-1.654 10.162 10.162 0 01-1.775-2.553 21.538 21.538 0 01-1.053-2.498 37.368 37.368 0 01-.948-3.171 59.72 59.72 0 01-1.364-6.302c-.41-2.392-.821-5.081-1.231-8.066a133.261 133.261 0 01-.915-7.282 939.26 939.26 0 01-.604-6.339c-.17-1.867-.302-3.374-.377-4.563-.076-1.189-.129-1.818-.151-1.917a3.844 3.844 0 011.212-3.237 4.814 4.814 0 013.461-1.373 5.409 5.409 0 013.632 1.463 4.629 4.629 0 011.64 3.296s.012.54.102 1.488.157 2.197.3 3.765c.143 1.567.302 3.384.495 5.43.194 2.047.418 4.152.685 6.327.321 2.594.638 4.948.95 7.062a86.788 86.788 0 001.01 5.679 88.98 88.98 0 00.921 3.802c.261.954.466 1.66.646 2.127 1.383.049 2.768.019 4.149-.089 1.648-.104 3.395-.232 5.213-.38 1.817-.149 3.633-.337 5.45-.536 1.816-.199 3.482-.384 4.988-.586a4.92 4.92 0 013.661.923 5.128 5.128 0 012.067 3.136 4.01 4.01 0 01-.677 3.466 4.282 4.282 0 01-2.963 1.793l-.888.099-2.115.245-2.993.353a86.841 86.841 0 01-3.594.317c-.678.094-1.317.168-1.906.21l-1.697.166zM918.796 546.334a5.656 5.656 0 013.052 2.436 4.428 4.428 0 01.536 3.579c-.576 2.063-1.085 4.024-1.548 5.784a90.86 90.86 0 00-1.181 5.116 275.773 275.773 0 00-.902 4.631c-.269 1.466-.539 2.912-.788 4.337-.325 1.668-.63 3.324-.894 5.02-.264 1.696-.638 3.395-1.04 5.184a177.654 177.654 0 01-1.38 5.68 123.936 123.936 0 01-1.865 6.391 4.241 4.241 0 01-1.495 2.152 4.287 4.287 0 01-2.471.903 4.618 4.618 0 01-2.007-.317 5.151 5.151 0 01-2.913-2.459 4.555 4.555 0 01-.417-3.612 266.98 266.98 0 001.536-5.404c.455-1.67.85-3.279 1.178-4.796a155.624 155.624 0 01-4.476-5.416c-1.663-2.035-3.36-4.21-5.139-6.503-1.779-2.292-3.409-4.648-5.031-7.075-1.622-2.426-3.031-4.746-4.249-7.001a4.42 4.42 0 01-.387-3.613 4.124 4.124 0 012.456-2.572 5.354 5.354 0 013.821.009 5.271 5.271 0 012.915 2.548 77.3 77.3 0 005.631 8.983 199.348 199.348 0 006.678 8.79c.5-2.841 1.047-5.813 1.661-8.937.614-3.124 1.468-6.733 2.6-10.868a4.317 4.317 0 012.313-2.709 5 5 0 013.806-.261z" fill="#000"/><path d="M1167 676.66l15-14.51c15.36-14.83 9.49-37.91 0-57.06-13.24-26.85-36.46-57.08-52.15-71.35-15.69-14.27-35.56-24.09-56.77-25.16-310.93-15.72-555.58 46.89-676 89.09-51.8 18.15-91.49 89-40.2 172.16" stroke="#000" stroke-width="20"/><path d="M367.76 720.799S680.27 642 865.21 633.9c0 0 164.52-11.68 272.65-7.57" stroke="#000" stroke-width="20"/></g><defs><clipPath id="prefix__clip0_53_30392"><path fill="#fff" d="M0 0h1500v1500H0z"/></clipPath></defs>
      
    </g>
    </svg>