<svg
      xmlns="http://www.w3.org/2000/svg"
      preserveAspectRatio="xMidYMin meet"
      fill="none"
      viewBox="0 0 1500 1500"
    >
      <g>
      <path fill="url(#prefix__a1)" d="M0 0h1500v1500H0z"/><defs><linearGradient id="prefix__a1" x1="0" y1="0" x2="1500" y2="1500" gradientUnits="userSpaceOnUse"><stop stop-color="#57ECFF"/><stop offset="1" stop-color="#4E41EE"/></linearGradient></defs>
      <g clip-path="url(#prefix__clip0_53_27966)"><path d="M460.5 1094.5c-138.4 66.4-174 309.33-174.5 422.5h983.5c-12.5-72.17-53.2-244.1-116-354.5-78.5-138-520-151-693-68z" fill="#FF6247"/><path d="M147.86 901.54l92.91 58.36s54.73 33 19.43 59-27.84 6.39-27.84 6.39 23.52 56.57 48.88 70.77c25.36 14.2 99.38 62.52 99.38 62.52s-28.95 36.49-34.57 50.87l-74.13-38.56s-51.06-56.42-51.47-57c-.41-.58-36.27-58-36.27-58s-47.3 36.41-51.41-16.88c-4.11-53.29 3.32-119.46 3.32-119.46s-5.72-18.8 11.77-18.01z" fill="#FF6247"/><path d="M391.26 1159.82s-124.61-40.23-157.11-130a3.31 3.31 0 012.41-4.38l14.95-3.23c21.489-5.71 30.489-38.71 8.62-54.36l-110-70.14a8.124 8.124 0 00-8.128-.314 8.122 8.122 0 00-4.332 6.884L124 1034c-3.001 31 30.501 47.5 60.22 21.9.16-.2.367-.35.602-.44.235-.1.49-.13.742-.1a1.497 1.497 0 011.166.86c7.76 16.82 60.35 133 172 153.25" stroke="#000" stroke-width="20" stroke-miterlimit="10"/><path d="M289.5 1512.5c-6-101.5 31-323.03 140.5-398 158.5-108.51 616.5-87 706.5 26 64.91 81.5 99.5 222.5 132.5 371M1084.5 1337c12.33 37 29.5 110.3 43.5 175.5m-646.5 0c.333-32.83 7.7-107.6 20.5-157" stroke="#000" stroke-width="20" stroke-linecap="round"/><path d="M500.002 1213.5c-101.2 100-117.834 249-113.5 311l-99.502-13c-1.6-110.8 39-247.5 59.5-302l6.414-8.53c-5.892 2.91-13.406 3.55-22.914.53-34-10.8-98.833-73.83-127-104l-19-38.5c-18.833 7.67-56.5 15.1-56.5-16.5S135.833 933 140 898l114 65c10 8.833 27 29.8 15 43s-30 21.5-37.5 24l45.5 57 95.5 70c0 6.45-.947 14.76-3.472 22.56l16.973-22.56 15.5-20.5 66.5-42.5c149.6-59.6 294-54.83 347.5-45-63 13.17-214.299 64.5-315.499 164.5z" fill="#001647" fill-opacity=".2"/></g><defs><clipPath id="prefix__clip0_53_27966"><path fill="#fff" d="M0 0h1500v1500H0z"/></clipPath></defs>
      <g clip-path="url(#prefix__clip0_299_662)"><path d="M775 1185c231.41 0 419-168.12 419-375.5 0-207.383-187.59-375.5-419-375.5-231.407 0-419 168.117-419 375.5 0 207.38 187.593 375.5 419 375.5z" fill="#ABF"/><path d="M457.5 796c7.6 194 131.833 327.5 193 370l-130-55.5L438 1034l-57.5-89.5-27-106 11-104L394 662l45-82.5 83.5-69.5 109-54.182 28.5-1C569.452 513.314 451.119 633.132 457.5 796z" fill="#001647" fill-opacity=".2"/><path d="M775 1185c231.41 0 419-168.12 419-375.5 0-207.383-187.59-375.5-419-375.5-231.407 0-419 168.117-419 375.5 0 207.38 187.593 375.5 419 375.5z" stroke="#000" stroke-width="20"/></g><defs><clipPath id="prefix__clip0_299_662"><path fill="#fff" d="M0 0h1500v1500H0z"/></clipPath></defs>
      <g clip-path="url(#prefix__clip0_53_29144)" stroke="#000" stroke-width="20" stroke-linecap="round"><path d="M844.63 1012.87h141.62M829.06 777.09l-31.89-.02-34.13-.03-43.3-.04"/><path d="M805.53 785.89A29.91 29.91 0 11763 777h34.13a29.774 29.774 0 018.4 8.89z" fill="#000"/><path d="M1081.06 777l-43.31.04-34.13.03-31.88.02"/><path d="M995.26 785.889a29.915 29.915 0 00-4.456 16.588 29.915 29.915 0 0018.886 26.947 29.916 29.916 0 0017.11 1.473 29.872 29.872 0 0015.1-8.183 29.836 29.836 0 008.11-15.14 29.887 29.887 0 00-12.26-30.535h-34.13a29.957 29.957 0 00-8.36 8.85z" fill="#000"/></g><defs><clipPath id="prefix__clip0_53_29144"><path fill="#fff" d="M0 0h1500v1500H0z"/></clipPath></defs>
      <g clip-path="url(#prefix__clip0_53_26707)"><path d="M1086 1014c0 39.21-75.66 71-169 71-93.336 0-169-31.76-169-71 0-39.241 75.664-101 169-101 93.34 0 169 61.788 169 101z" fill="#ABF"/><path d="M797.83 990.76s-2.26-46.71 35.63-47.76l12.4-.07 3.7 53.67-51.73-5.84zM796.078 999.77h59.58l3.78 54.84-37.21-2.24-13.26-25.18-12.89-27.42z" fill="#C6C6C6"/><path d="M845.859 942.93l34.49 8.62 26.47-3.52 5.08 50.29-56.24 1.45-9.8-56.84z" fill="#C6C6C6"/><path d="M910.488 947.172h68.54l.03 51.15h-67.16l-1.41-51.15zM983.589 944.871l17.001 2.3 24.03 9.66 9.05 28.5-.91 12.99h-53.701l4.53-53.45z" fill="#C6C6C6"/><path d="M849.559 996.602l62.34 1.72 7.38 54.048-59.84 2.24-9.88-58.008zM918.461 999.77h64.2l-8.03 54.84-55.35-2.24-.82-52.6z" fill="#C6C6C6"/><path d="M975.289 994.512l63.171 5.26-6.4 30.408-34.761 26.48-17.86-2.05-4.15-60.098z" fill="#C6C6C6"/><path d="M797.489 985.841c-1.87-27.17 21.28-47.59 48.37-42.91 20 3.45 43.93 5.16 69 5.16s48.63-1.84 68.06-5.36c26.511-4.82 52.631 15.6 54.521 42.87l1.08 15.709c2 29.44-20.17 53.3-49.601 53.3h-133.4c-29.43 0-54.94-23.86-57-53.3l-1.03-15.469zM798.352 998.309h234.408M912.512 954.172l6.78 98.198M845.031 947.172l14.26 105.198M979.031 947.172l.26 105.198" stroke="#000" stroke-width="20" stroke-miterlimit="10"/><path d="M830.5 966l2 14m63-13l1 14m-59 37l2 14m60-15l1 14m61-65v15m0 36v18m56-59v6m0 35v7" stroke="#fff" stroke-width="8" stroke-linecap="round"/></g><defs><clipPath id="prefix__clip0_53_26707"><path fill="#fff" d="M0 0h1500v1500H0z"/></clipPath></defs>
      <g clip-path="url(#prefix__clip0_53_25522)"><path d="M496.609 538.541s3.07 10.29 13.57 23.93c14.68 19.1 43.92 44.79 99.63 58.08 95.53 22.79 172.4 22.6 172.4 22.6l108.22-7.34 120.181-28 55.58-41.54 5-17.79-35.22-28.28-23.91-12-11.16-35.68-27.201-17.71-28.95-1.81-11.33-20.5-32.35-21.23-49.42 21.36-22-26.46s-57.65-12.58-81.29 10.29l-49.45-9.46-49.68 22.93-50.58 11.59-36.18 25-18.47 10.67-4.81 34.81-29.55 21.63-13.03 4.91z" fill="#F56CDB"/><path d="M589.5 554.499c-17.6 10.8-17.667 31.5-15.5 40.5l-14.826-31.506L558 585.499l-2.5 7.5-41-14.5-12-26c3.167-6 9.6-18.1 10-18.5.4-.4 15.5-20.833 23-31l9.5-21.5 20-16.5 24-15 60.5-20.5c4.5-3.5 18-12.5 36-20.5s44.167 2.333 55 8.5l27.5-14c17.167-1.666 47.3-3.4 30.5 3-21 8-25.5 35.5-18 42.5 6 5.6 7.833 12.334 8 15l-10.5 11-35-19.5-34.5 1.5c5.833 9.834 13.5 33.6-2.5 50s-27 12.834-30.5 9l11.5-46c-45.6.4-57.333 28.5-57.5 42.5l-7.5-2.5c-8 1.5-24.2 4.5-25 4.5-.8 0-25 22.333-37 33.5l-.573 10.746c8.465-12.804 29.327-35.602 56.073-39.746 28.4-4.4 35.167 32.5 35 51.5-8.5 5.834-25 14-23 0 2.5-17.5-16-29.5-38-16zM731 537.999c4.8-9.2.333-10.833-2.5-10.5l-22.5 4-5.5 20.5 9 35c9.833 5.333 30.1 14.7 32.5 9.5 3-6.5-.5-12-11.5-20s-5.5-27 .5-38.5zM722.5 602.999c3.2 15.6-6.333 26.5-11.5 30h-28.5l20.5-27.5c5.167-7.333 16.3-18.1 19.5-2.5zM774.5 547.999c-15.2 9.2-19.667 5.833-20 3 2.333-5 7.1-15.2 7.5-16 .4-.8 9.167-13.667 13.5-20 4-2.833 12.8-7.1 16-1.5 4 7 2 23-17 34.5zM812 486.999c-15.2-2.4-20-8.333-20.5-11l-20 9c2.333 4.333 7.2 13.2 8 14 .8.8 26.333 11 39 16 11.333 5.5 34 14.7 34 7.5 0-9-21.5-32.5-40.5-35.5zM881.5 462.999c6.4-20.8-6.333-32.333-13.5-35.5l-8 7-2 21c-4.333 7.834-11.9 24.7-7.5 29.5 5.5 6 23 4 31-22zM941.5 494.999c-.8 7.6-8 11.167-11.5 12-3.167-4.5-9.5-13.7-9.5-14.5 0-.8 4.667-16.333 7-24 .833-3 7.1-9.6 25.5-12 18.4-2.4 37 14.333 44 23-3.833-3.5-14.9-10.3-28.5-9.5-17 1-26 15.5-27 25zM865.5 547.999c-7.2-4.8-9-10.667-9-13l-15.5 5 3 24 30 11.5 6-11.5c-1.833-3.333-7.3-11.2-14.5-16zM838.5 602.499c-6.4 10.4-13 10.333-15.5 9-.833-3-2.4-9.8-2-13 .5-4 .5-5.5 2.5-8s12-10 13-10.5c.8-.4 15.333.167 22.5.5 5.667 5.5 15.4 15.9 9 13.5-8-3-21.5-4.5-29.5 8.5zM937.5 553.999c6.8-1.6 3.833-4.667 1.5-6-5.667.333-17.3 1-18.5 1-1.2 0-14.5 3.333-21 5l-14 20-5.5 26-7 35c7.5 1.167 24.1 1 30.5-9 8-12.5 4-40 12-54.5s13.5-15.5 22-17.5zM991 607.499c-5.2-17.2-28.833-18.167-40-16.5.5-4.167 5.2-13.1 20-15.5 14.8-2.4 36.83 14.667 46 23.5l-26 8.5zM1002.5 534.499c-10.4 6.4-16.667 3.333-18.5 1l8-21.5 15-9.5 31 13.5c6.33 8 16.6 21.9 7 13.5-12-10.5-29.5-5-42.5 3z" fill="#001647" fill-opacity=".2"/><path d="M862.2 574.74s-43.48-9.44-41.41 28.91M706.439 588.681s54.87 35.61 77.7-16.38M875.801 591.65s10.73-53.65 61.09-50.65" stroke="#000" stroke-width="20" stroke-miterlimit="10" stroke-linecap="round"/><path d="M508.088 520.15c-58 66 123.13 123 274.12 123s337.432-47.21 277.432-109.21" stroke="#000" stroke-width="20" stroke-miterlimit="10"/><path d="M510.471 573.211s-16.41-39.05 18.09-58.39a19.004 19.004 0 009.71-16.55c0-12.7 4.75-31.74 31.83-36.07a18.489 18.489 0 0010.53-5.49c13.12-13.84 55.19-50.43 101.71-8.85a18.11 18.11 0 0013.66 4.59c19.38-1.68 68.48-1.69 77.57 39.63a18.15 18.15 0 0016.43 14.16c18.61 1.33 47.93 9 48.28 43.85a18.4 18.4 0 0010.42 16.32c17.73 8.61 47.07 30.4 16.56 72.31" stroke="#000" stroke-width="20" stroke-miterlimit="10"/><path d="M1051.69 586.52s26.14-58.36-26.84-77.14a18.723 18.723 0 01-11.74-12.16c-4.79-15.85-18.56-45.85-53.73-43.27a17.806 17.806 0 01-16.57-8.54c-10.36-17.26-36-47.64-78.43-22.22a18.273 18.273 0 01-22.4-2.81c-15-15.28-46.36-36.93-87-8.85a18.01 18.01 0 01-8.97 3.185 17.99 17.99 0 01-9.34-1.835c-17.43-8.77-55.12-21.18-78.83 19.23" stroke="#000" stroke-width="20" stroke-miterlimit="10"/><path d="M576.419 610.05s-37.83-41.78 0-76.4c37.19-34 61.17-10.54 71.05 3.81a31.001 31.001 0 015 24.17c-2.39 10.91-11.15 22.36-39.39 14.48M682.34 447.859s31.85 35.88-6.27 59.91M773.539 492.08s8 28.27-16.34 51.49M957.441 453.631s-50.29 4.79-33.06 46.72" stroke="#000" stroke-width="20" stroke-miterlimit="10" stroke-linecap="round"/><path d="M570.102 462.198S581 460.725 589 465s9.415 5.78 13.384 9.093a35.085 35.085 0 0112.601 27.121 35.092 35.092 0 01-3.423 14.934M755.001 411.529s-31.13 17.06-19 40.66M764.59 472.84s39.11 8.2 39.11-31.68M1024.85 509.38s-40.1-14.48-40.1 17.9M842 420.381s31.9 24.93 8.12 56.61M829.289 522.93s32.53 22.38 53.6-15.16M676.07 633.54l19.87-15.6c14.85-11.67 13-25.06 5.54-47.53-11.05-33.13 20.32-47.48 20.32-47.48M934.461 597.121c32-36.06 58.65-21.7 86.569-2.61l3.82 2.61" stroke="#000" stroke-width="20" stroke-miterlimit="10" stroke-linecap="round"/></g><defs><clipPath id="prefix__clip0_53_25522"><path fill="#fff" d="M0 0h1500v1500H0z"/></clipPath></defs>
      
    </g>
    </svg>