<svg
      xmlns="http://www.w3.org/2000/svg"
      preserveAspectRatio="xMidYMin meet"
      fill="none"
      viewBox="0 0 1500 1500"
    >
      <g>
      <path fill="url(#prefix__paint0_linear_53_30460)" d="M0 0h1500v1500H0z"/><defs><linearGradient id="prefix__paint0_linear_53_30460" x1="0" y1="0" x2="1500" y2="1500" gradientUnits="userSpaceOnUse"><stop stop-color="#F1FFBA"/><stop offset="1" stop-color="#65DCBA"/></linearGradient></defs>
      <g clip-path="url(#a)"> <path fill="#53B6F9" d="M1262.8 1506.5H289.2l3.7-72.5 22.2-107.3L351 1204l56.5-72.5s33.8-23.9 98.5-52 225-35.5 225-35.5 187.3-9 340.5 50.5c153.2 59.6 191.3 412 191.3 412Z"/> <path fill="#000" fill-rule="evenodd" d="m973.8 1356.7 18 2.6 11.2-18-4-2.8 3.2-4.6-4-2.8-3 4.9-4-2.8-7 11-11.4-1.8-8.9-26.4-3.6 1 3.4 9.5-5.3 1.5-3.5-9.4-3.9 1 7.7 21.3-17.5-2.6-11.2 18 4 2.8-3 4.8 4 2.8 2.8-5 3.8 2.5 7-11.3 11.2 1.5.8 7.7-17.3 9 2 20.5h4.6l.6 6.4h4.5l-.6-6.2h4.5l-1.2-11.7 11-5.7 12 5.7 1.2 11.8h4.5l.6 6.1h4.5l-.6-6.2h4.7l-2-20.5-19.2-9.2-.6-5.4Zm-1-10 13.5 2.1 6.2-10 .5.3 4 2.8.6.2-8 12.9-16.2-2.4-.6-5.8Zm-26.3 2.1-6.2 10-4.9-3.3 8-12.8 15.5 2.3.6 5.8-13-2Zm43.8 24.9 1.4 14H986l-1-10.2-16.4-7.7-14.7 7.7 1 10.3h-6l-1.3-13.9 17.3-9-2.2-23.5-3.4-9.5 5.3-1.6 3.7 11.6 2.3 22.8 19.7 9Z" clip-rule="evenodd"/> <path stroke="#000" stroke-linecap="round" stroke-miterlimit="10" stroke-width="20" d="m807.8 1194.5 10 141.8m-41.8-16.8c0-.6.5-1.1 1-1.1m1.2 1a1 1 0 1 1-2.2 0 1 1 0 0 1 2.2 0Zm-2.2-37.1c0-.6.5-1.1 1-1.1m1.2 1a1 1 0 1 1-2.2 0 1 1 0 0 1 2.2 0Zm-2.2-37.1c0-.6.5-1 1-1m1.2 1a1 1 0 1 1-2.2 0 1 1 0 0 1 2.2 0Z"/> <path stroke="#000" stroke-linecap="round" stroke-width="20" d="M289.5 1512.5c-6-101.5 31-323 140.5-398 158.5-108.5 616.5-87 706.5 26 65 81.5 99.5 222.5 132.5 371M1084.5 1337c12.3 37 29.5 110.3 43.5 175.5m-646.5 0c.3-32.8 7.7-107.6 20.5-157"/> <path fill="#F56CDB" d="m467.6 1110.5 7.4-39 62.5-15.5 72-5.5 53-8h147l104.5 8 107 8.1 53.6 19-3.8 40.8-21.3 55-90.7 68.1-76.5 24.3-62.8-69.8a20 20 0 0 0-31.6 2.5l-44 67.3-58.9 2.7-143.7-46.2-68.6-65.1-5.1-46.7Z"/> <path stroke="#000" stroke-width="20" d="M535 1214c-83.6-40.4-76.5-113.2-62.5-144.5 266-49.2 513.5-20.2 604 .5 21.5 119.7-113.1 181.3-188.3 198.7-3.5.9-7.2-.4-9.6-3.2l-54.1-62.5a21 21 0 0 0-32.3.6l-50 62.4c-2 2.5-5 4-8.3 3.7A610.8 610.8 0 0 1 535 1214Z"/> <path fill="#001647" fill-opacity=".2" d="M489 1227.5c-82.4 87.6-103 222.5-103 279h-97l5.5-106.5c6.7-44.8 30.2-150.7 71-215.5 40.8-64.8 83-83 99-84l9-27h22l52.5-13 150-15h113.5c-160.4 46.4-265.5 121.3-298 153l120 56.5 103 23.5c-123.6 19.6-216.5-25.8-247.5-51Zm370.2 48.3-44.2-46.3-3-28.5 74.5 69c-.4 2.8-4.2 6-8.5 8.8-6 4-13.8 2.2-18.8-3Z"/> </g> <defs> <clipPath id="a"> <path fill="#fff" d="M0 0h1500v1500H0z"/> </clipPath> </defs>
      <g clip-path="url(#prefix__clip0_299_662)"><path d="M775 1185c231.41 0 419-168.12 419-375.5 0-207.383-187.59-375.5-419-375.5-231.407 0-419 168.117-419 375.5 0 207.38 187.593 375.5 419 375.5z" fill="#ABF"/><path d="M457.5 796c7.6 194 131.833 327.5 193 370l-130-55.5L438 1034l-57.5-89.5-27-106 11-104L394 662l45-82.5 83.5-69.5 109-54.182 28.5-1C569.452 513.314 451.119 633.132 457.5 796z" fill="#001647" fill-opacity=".2"/><path d="M775 1185c231.41 0 419-168.12 419-375.5 0-207.383-187.59-375.5-419-375.5-231.407 0-419 168.117-419 375.5 0 207.38 187.593 375.5 419 375.5z" stroke="#000" stroke-width="20"/></g><defs><clipPath id="prefix__clip0_299_662"><path fill="#fff" d="M0 0h1500v1500H0z"/></clipPath></defs>
      <g clip-path="url(#prefix__clip0_53_29082)" stroke="#000" stroke-width="20" stroke-linecap="round"><path d="M844.63 1012.87h141.62M827.45 803.95l-27.11-16.78-29.02-17.97-36.82-22.79"/><path d="M802.81 799.069a29.91 29.91 0 11-31.49-29.87l29 18a29.701 29.701 0 012.49 11.87z" fill="#000"/><path d="M1067.45 746.41l-36.82 22.79-29.02 17.97-27.11 16.78"/><path d="M999.14 799.069c0 5.848 1.71 11.568 4.93 16.452a29.947 29.947 0 0013.17 11.027 29.898 29.898 0 0017.06 1.964 29.883 29.883 0 0015.33-7.744 29.875 29.875 0 007.48-32.043 29.859 29.859 0 00-10.31-13.732 29.918 29.918 0 00-16.17-5.794l-29 18a29.701 29.701 0 00-2.49 11.87z" fill="#000"/></g><defs><clipPath id="prefix__clip0_53_29082"><path fill="#fff" d="M0 0h1500v1500H0z"/></clipPath></defs>
      <g clip-path="url(#prefix__clip0_53_27350)"><path d="M695 882.421v6.14a7.746 7.746 0 01-.67 3.22c-1.26 2.86-3.34 3-3.34 3a7.817 7.817 0 01-6.39-1.32c-2.64-2.11-9.24-20.21-9.24-20.21l-12.71 20.21H654l17.8-28.21-5.59-11.59a4.654 4.654 0 00-4.07-2.64H662a4.724 4.724 0 00-4.13 1.7c-.89.89-1.21 3.78-1.21 3.78l-1.78.13a22.972 22.972 0 01-.13-5.28 7.776 7.776 0 011.34-3.76 5.694 5.694 0 014.83-2.61 7.816 7.816 0 014.51 1.43 8.67 8.67 0 013 3.74l5.26 13.05 11.44-17.4H693l-15.8 24.51 3.94 9.32s3 9 7.31 9 4.71-6.22 4.71-6.22l1.84.01z" fill="#000"/></g><defs><clipPath id="prefix__clip0_53_27350"><path fill="#fff" d="M0 0h1500v1500H0z"/></clipPath></defs>
      <g clip-path="url(#prefix__clip0_53_26188)"><path d="M1012 393.09l32.13-41.94 21.36-81.32-1-56.51 48.67 69 25.58 62.53 10.69 49-20 57.47-37.55 45.15-32.3-51-47.58-52.38zM330.08 736l-6.71-75 27.84-29.17 299-95.44 225.93-29.11 185-3.26 61.43 12.08L1175 652l-328.3 18.6-177.28 26.1-162.25 42.71L347 800.94 330.08 736z" fill="#fff"/><path d="M340 641.681s-11.84-38.57 31.53-132c43.37-93.43 154.25-185 328.17-204.14 173.92-19.14 282.3 64.22 282.3 64.22s92.35 75.5 112 138.23c-.08.01-359.3-35.8-754 133.69z" fill="#CCD0DA"/><path d="M290 370.36l22.67 118.7 57 74 65.76 38.1 55.1-21.48L501.5 512l-7.97-32.1L434.5 423l-70.12-56L310 269.16l-20 101.2z" fill="#fff"/><path d="M1090.87 508.091a41.584 41.584 0 0123.33 7.127 41.639 41.639 0 0115.33 18.983v0l44.76 105.21c.41 2.605.23 5.267-.51 7.797a17.874 17.874 0 01-3.78 6.84 17.843 17.843 0 01-6.32 4.585 17.968 17.968 0 01-7.68 1.458c-396.13-13-714.6 106.26-796.1 141a17.89 17.89 0 01-7.917 1.423 17.892 17.892 0 01-13.742-7.541 17.9 17.9 0 01-3.051-7.442l-10.37-122.08a17.92 17.92 0 0110.44-19.25c3.22-1.42 6.437-2.827 9.65-4.22 43.06-18.71 76.53-30.88 117.88-45a1614.05 1614.05 0 0124.31-8.19c221.9-84.79 511.76-80.59 603.77-80.7z" stroke="#000" stroke-width="20" stroke-miterlimit="10"/><path d="M440.09 604.81c-30.07-7.52-84-34.57-117.6-92.46-28.59-49.26-44.08-125.24-22-242.4a3.198 3.198 0 013.06-2.76 3.153 3.153 0 012.09.68 3.183 3.183 0 011.17 1.86c6.77 25 26.19 77.19 77.55 122.92a289.242 289.242 0 0059.19 40.55c37.63 19.58 59.16 64.15 50.54 108.23-2.52 12.87-8.23 36.19-16.92 50.07M1005.81 388.7s63.38-13.85 56.69-168.71c-.29-6.84 9.64-8.73 12.92-2.71 27.46 51 128.43 161 23.15 279.19" stroke="#000" stroke-width="20" stroke-miterlimit="10"/><path d="M740.34 641.68a31.34 31.34 0 100-62.681 31.34 31.34 0 000 62.681zM424.34 723.68a31.34 31.34 0 100-62.681 31.34 31.34 0 000 62.681zM582.34 676.68a31.34 31.34 0 100-62.681 31.34 31.34 0 000 62.681zM898.34 621.68a31.34 31.34 0 100-62.681 31.34 31.34 0 000 62.681zM1056.34 614.68c6.2 0 12.26-1.838 17.41-5.282a31.276 31.276 0 0011.54-14.065c2.38-5.726 3-12.028 1.79-18.107a31.375 31.375 0 00-8.58-16.047 31.334 31.334 0 00-34.15-6.793 31.372 31.372 0 00-14.07 11.542 31.37 31.37 0 00-5.28 17.412c0 8.312 3.3 16.283 9.18 22.161a31.348 31.348 0 0022.16 9.179z" fill="#CCD0DA" stroke="#000" stroke-width="20" stroke-miterlimit="10"/><path d="M430.29 425.91c47.15-49 117.91-92.61 224.11-113.29 338-65.8 443.08 195.68 443.08 195.68M344.91 641.999s-9.1-35.91 8.74-88.89" stroke="#000" stroke-width="20" stroke-miterlimit="10"/><path d="M513 558.5c-8.4-112.8 69.167-202.667 109-233.5-82 12.8-161.5 71.667-191 99.5l-49.5-31-70-96c-5.167-15.167-16.3-23.2-19.5 66-3.2 89.2 36.333 162.833 56.5 188.5l-5.5 84-16.5 12.5c.833 8.667 3.1 42.3 5.5 107.5s29.667 52.5 43 38l182.5-60.5c-22.8-45.6-28.5-126.333-28.5-161L680.5 535l178-20.5 238.5-9-12-17.5c-261.6-12.4-490.333 41.833-572 70.5zM1055 316.5c-1.6 24.4-30.67 60.5-45 75.5l52.5 49.5c45.6-68 30.67-166.333 17.5-207l-14.5-14c-2.83 21.833-8.9 71.6-10.5 96z" fill="#001647" fill-opacity=".2"/></g><defs><clipPath id="prefix__clip0_53_26188"><path fill="#fff" d="M0 0h1500v1500H0z"/></clipPath></defs>
      
    </g>
    </svg>