<svg
      xmlns="http://www.w3.org/2000/svg"
      preserveAspectRatio="xMidYMin meet"
      fill="none"
      viewBox="0 0 1500 1500"
    >
      <g>
      <path fill="url(#prefix__paint0_linear_53_30463)" d="M0 0h1500v1500H0z"/><defs><linearGradient id="prefix__paint0_linear_53_30463" x1="1500" y1="1500" x2="0" y2="0" gradientUnits="userSpaceOnUse"><stop stop-color="#FF5A5A"/><stop offset="1" stop-color="#FFBDBD"/></linearGradient></defs>
      <g clip-path="url(#prefix__clip0_53_27517)"><path d="M277.11 1500l-1.87-48.3 17.07-36.79 2.35-49.06 20.58-31.46 7.73-50.65s28.57-41.54 28.8-43.99c.23-2.46 17-51 19.67-51.84 2.67-.84 9.59-.67 14.94-5.13s14.72-11.81 15.61-15.82c.89-4-1.34-10.92 3.34-18.05 4.68-7.13 7.17-11.45 13.63-11 6.46.45 26.06-5.53 26.73-6.41.38-.5 7.57-13.72 13.59-24.83 4.26-7.85 33.62-15.64 41-10.63 61.72-1.98 116.11-18.31 272.72-21.54 195.15-4 275.17 19.56 275.17 19.56l31.29 7.23s19 25 19.9 26.85c.9 1.85 10.74 15.16 10.74 15.16s11.37.31 14.53.94c3.16.63 7.89-.63 9.16 4.11 1.27 4.74 7.89 16.74 8.84 23.68.95 6.95.63 13.58 6.32 16.74 5.69 3.16 15.47 3.47 25 6.63 9.53 3.16 11.37 7 12.95 10.42s4.1 19 4.74 22.74c.64 3.74 6.94 35.47 6.94 35.47l26.85 16.32s.95 27.8 0 32.85c-.95 5.04-4.11 9.15-1.58 16.73 2.53 7.58 7.27 17.37 11.37 21.48 4.1 4.11 8.53 5.37 10.42 11.05 1.89 5.68 4.74 10.42 4.11 20.21-.63 9.78-2.21 19.58-1.58 30.63.63 11.05 1.67 13.27 1.67 13.27l19.49 20.38s4.42 15.31 3.48 18.78c-.94 3.46-9.16 34.27-9.16 34.27H277.11z" fill="#9E6740"/><path d="M440 1295.5c-42 68.4-52.833 173.83-53 218H285.5c-4-1.67-12-12.2-12-41s15.333-41.33 23-44l-8-52.5c10.5-7.5 31.2-31 30-65-1.2-34 16.167-43.83 25-44.5l18-65.5c13-4.33 39.2-18.9 40-42.5.8-23.6 26-18.17 38.5-12.5l5.5-19 22-29 125.5-15.5h117.5c-150.8 58.8-224.833 139.5-243 172.5l57.5 2c-8.4 20.8-33.5 20.33-45 17.5-15.2 18.8-33 21.83-40 21zM693 1421.5c15.6-14.4 14.833-25.67 12.5-29.5l-19.5 19.5h-35l-37 17c-11.333-3-35-9.4-39-11-5-2-20 1-2 23.5s59 2.5 65-4.5 31 7.15 55-15zM773.5 1276.5c-6-10.4-.833-13.33 2.5-13.5l12.5 3 30.5 2.5 29-14 39-4.5c4.667-7.5 16-20.9 24-14.5 10 8-16 48-46.5 45s-29 11-47 14-36.5-5-44-18zM895.5 1449.5c-5.6-8.8 1-11.67 5-12l31 11 33-14 32-5c11-6.17 33.8-18.2 37-17 4 1.5 2.5 15-4 24.5s-16.5 19-43 14.5-24 14-45.5 19-38.5-10-45.5-21zM1230 1507c11.2-6.4 11.67-17.67 10.5-22.5l-20.5 4.5c-1.33 8.67-1.2 24.4 10 18zM1087 1276.5c-9.2-12.8-.17-15.67 5.5-15.5l20 13 33-10.5 43.5-4.5 14 15c-4.67 2.67-16.5 7.7-26.5 6.5-12.5-1.5-9-4-31 11.5s-47 .5-58.5-15.5z" fill="#001647" fill-opacity=".2"/><path d="M902 1235.61l-3.07 5.1a33.625 33.625 0 01-35.81 15.56l-1.55-.33a33.633 33.633 0 00-15.83.45 33.728 33.728 0 00-13.87 7.64v0a33.631 33.631 0 01-19.916 8.72 33.621 33.621 0 01-21.084-5.3l-7.09-4.59M1025.57 1409.68l-3.07 5.11c-3.6 6-8.99 10.72-15.41 13.51a33.575 33.575 0 01-20.39 2.05l-1.55-.33a33.619 33.619 0 00-29.7 8.1 33.624 33.624 0 01-19.916 8.71 33.616 33.616 0 01-21.084-5.29l-7.09-4.6M698 1391.05l-3.07 5.11a33.625 33.625 0 01-35.81 15.56l-1.55-.33a33.638 33.638 0 00-15.831.46 33.485 33.485 0 00-13.869 7.64 33.624 33.624 0 01-19.916 8.71 33.617 33.617 0 01-21.084-5.29l-7.08-4.6M531.83 1235.61l-3.07 5.1a33.64 33.64 0 01-35.76 15.56l-1.55-.33a33.633 33.633 0 00-15.83.45 33.716 33.716 0 00-13.87 7.64v0a33.624 33.624 0 01-19.916 8.71 33.617 33.617 0 01-21.084-5.29l-7.09-4.59M385.18 1409.68l-3.07 5.11a33.537 33.537 0 01-15.413 13.51 33.597 33.597 0 01-20.397 2.05l-1.55-.33a33.633 33.633 0 00-15.83.46 33.495 33.495 0 00-13.87 7.64v0a33.642 33.642 0 01-20.39 8.75M1185.91 1256.9c-4.59 1-4.76.39-9.56-.63l-1.55-.33a33.633 33.633 0 00-15.83.45 33.697 33.697 0 00-13.87 7.64v0a33.618 33.618 0 01-19.92 8.72c-7.42.62-14.83-1.25-21.08-5.3l-7.1-4.62" stroke="#000" stroke-width="20" stroke-miterlimit="10" stroke-linecap="round"/><path d="M1241.84 1486.32l-3.07 5.11c-1.83 3.05-4.03 6.86-6.55 9.37h-72.94c5.01-3.84 10.78-7.54 16.94-8.94a43.837 43.837 0 0118.7-.13l1.56.33c4.81 1.02 9.82.51 14.32-1.45 4.51-1.96 8.3-5.28 10.83-9.49l3.07-5.1c1.39-2.22 3.6-3.81 6.15-4.42a10.011 10.011 0 0112.01 7.22c.65 2.54.29 5.23-1.02 7.5z" fill="#000"/><path d="M281.5 1507c-4.833-16-14.829-54.4-4-63.5 12.5-10.5 26.5-19 18-47.5s4-40.5 14.5-48 13-25.5 7.5-42.5 6-33.5 20.5-38.5 16-28.5 15-37.5 0-34.5 22-35 23-25.5 24-33 8-25.5 27-19.5 22.5-14.5 24-22-.5-28 54-28 178.5-37 539.5 0c16 1.64 45.44 2.59 49.5 27 5.67 34.06 29.05 19.98 40 23.5 14 4.5 8.69 31.99 15 40.5 10 13.5 13.07 6.82 31 13.5 21.41 7.98-3.5 54 27 70 27.41 14.38 19.5 30.5 17 53s9 28 16 33.5 15.5 11.5 9 41.5-.79 31.71 15 47.5c18 18-1.5 32 1.5 65" stroke="#000" stroke-width="20"/><path d="M1084.5 1337c12.33 37 29.5 110.3 43.5 175.5m-646.5 0c.333-32.83 7.7-107.6 20.5-157" stroke="#000" stroke-width="20" stroke-linecap="round"/></g><defs><clipPath id="prefix__clip0_53_27517"><path fill="#fff" d="M0 0h1500v1500H0z"/></clipPath></defs>
      <g clip-path="url(#prefix__clip0_299_662)"><path d="M775 1185c231.41 0 419-168.12 419-375.5 0-207.383-187.59-375.5-419-375.5-231.407 0-419 168.117-419 375.5 0 207.38 187.593 375.5 419 375.5z" fill="#ABF"/><path d="M457.5 796c7.6 194 131.833 327.5 193 370l-130-55.5L438 1034l-57.5-89.5-27-106 11-104L394 662l45-82.5 83.5-69.5 109-54.182 28.5-1C569.452 513.314 451.119 633.132 457.5 796z" fill="#001647" fill-opacity=".2"/><path d="M775 1185c231.41 0 419-168.12 419-375.5 0-207.383-187.59-375.5-419-375.5-231.407 0-419 168.117-419 375.5 0 207.38 187.593 375.5 419 375.5z" stroke="#000" stroke-width="20"/></g><defs><clipPath id="prefix__clip0_299_662"><path fill="#fff" d="M0 0h1500v1500H0z"/></clipPath></defs>
      <g clip-path="url(#prefix__clip0_53_29449)"><path d="M844.63 1012.87h141.62" stroke="#000" stroke-width="20" stroke-linecap="round"/><path d="M764.05 841.24c31.336 0 56.74-25.404 56.74-56.74 0-31.337-25.404-56.74-56.74-56.74-31.337 0-56.74 25.403-56.74 56.74 0 31.336 25.403 56.74 56.74 56.74zM1048.19 841.24c31.34 0 56.74-25.404 56.74-56.74 0-31.337-25.4-56.74-56.74-56.74-31.34 0-56.74 25.403-56.74 56.74 0 31.336 25.4 56.74 56.74 56.74z" fill="#fff" stroke="#000" stroke-width="20" stroke-miterlimit="10"/><path d="M764.05 770.5c7.18 0 13-5.82 13-13s-5.82-13-13-13-13 5.82-13 13 5.82 13 13 13zM1048.19 770.5c7.18 0 13-5.82 13-13s-5.82-13-13-13-13 5.82-13 13 5.82 13 13 13z" fill="#000"/></g><defs><clipPath id="prefix__clip0_53_29449"><path fill="#fff" d="M0 0h1500v1500H0z"/></clipPath></defs>
      <g clip-path="url(#prefix__clip0_53_26521)"><path d="M645.5 817.501l-6-36 2.5-19c1.167-2.167 3.5-7.1 3.5-9.5 0-3 0-5 3-10.5s7-12 12.5-18.5c4.4-5.2 10.5-10.833 13-13 3.333-1.5 11.2-4.8 16-6 4.8-1.2 19-3.833 25.5-5 3.333 1.667 10.9 5 14.5 5 4.5 0 17.5 2.5 20 6 2 2.8 7.833 9.833 10.5 13l5.5-6.5c5.5-6.5 14.5-12.5 18.5-12.5s21-5 25-5h16c8 0 13.5 2 19.5 5s11.5 6.5 15.5 9.5 8.5 12 11.5 18.5 7 10.5 7.5 20 2.5 24 3 28.5c.4 3.6 4.167 10.167 6 13l5.923-.494c7.382-2.693 15.809-2.984 23.951-1.996l6.126-.51 21.5 3v-41.5c1.167-20.667 15-61.6 61-60 46 1.6 56.5 17 56 24.5 11.33-16.833 44.8-43.9 88-17.5S1181.67 792 1170 821.5c-14.67 27.5-55.9 82.4-103.5 82-47.6-.4-95.5-52.167-113.5-78l-7-25.5c-6.701-3.174-16.917-6.688-27.626-7.989l-23.951 1.996c-5.851 2.135-11.046 5.78-14.923 11.493-15.2 22.4-26.333 47.333-30 57-13.5 16.167-49.4 49.1-85 51.5-35.6 2.4-88.5-51.333-110.5-78.5l-8.5-17.999z" fill="#FF6247"/><path d="M673 710s14-.77 66-7l97 169.89s-10.93 29.69-49 29.11L673 710zM765.58 714.5s.64.35 18.42-10.5l75.5 139.5s2.07 13.53-12.5 16.5l-81.42-145.5zM972 701.999s28-18.5 66-7l97 169.89s-10.93 29.69-49 29.11l-114-192zM1066.58 706.5s.64.35 18.42-10.5l73.5 139.5s2.07 13.53-12.5 16.5l-79.42-145.5z" fill="#fff" fill-opacity=".9"/><path d="M1192.94 755.47v-.09c-.14-4.17-2.27-41.41-34.9-63.45a75.432 75.432 0 00-71.21-6.94 67.672 67.672 0 00-23.69 16.16l-1.71 1.8-1.81-1.69a67.16 67.16 0 00-24.62-14.69 75.399 75.399 0 00-70.679 11.32c-31.08 23.94-31 61.28-30.9 65.45-.03 5.009.197 10.015.68 15l.36 3.76-3.6-1.13a56.453 56.453 0 00-35.44.41l-3.4 1.16.09-3.6c.13-4.66 0-9.45-.3-14.24-.15-4.27-2.37-41.58-34.91-63.55a75.45 75.45 0 00-71.22-6.94 67.598 67.598 0 00-23.68 16.21l-1.7 1.8-1.81-1.69a67.466 67.466 0 00-24.59-14.67 75.396 75.396 0 00-70.68 11.28c-19.23 14.8-26.54 34.7-29.28 48.8l-.53 2.69-252.13-54.36a9.117 9.117 0 00-12.05 4.57 9.1 9.1 0 00-.211 6.972 9.103 9.103 0 004.781 5.078l258.56 57.39.07 1.78c1.85 45.25 24.65 84.31 65.93 112.94 21.13 14.62 44.38 22.92 60.15 27.31a24.404 24.404 0 0014.21-.34c23.59-7.77 44.49-18.53 60.45-31.1 29.3-23.1 47.92-50.84 55.36-82.45l.2-.85.68-.54a39.163 39.163 0 0145.81-2l2.33 1.48c.293.193.597.37.91.53l.94.48.31 1c9.61 30.37 29.73 56.34 59.83 77.19 22.429 15.53 46.889 25 59.479 29.25a24.659 24.659 0 0017.08-.46c12.54-5 36.78-16 58.24-32.92 41.73-32.85 61.99-75.76 58.6-124.11zM822.451 874.13a212.661 212.661 0 01-51 29.49 15.255 15.255 0 01-10.53.33 212.032 212.032 0 01-52.7-26.29c-38.68-27-58.1-62.41-57.72-105.08V772c-.05-5.41.85-32.83 23.77-50.45a57.174 57.174 0 0153.6-8.55c10.61 3.71 18.88 9.9 24.56 18.41l.16.27a8.917 8.917 0 005.86 4.74h.32l.54.1a9.07 9.07 0 0010-5.49l.16-.32c5.14-8.76 13-15.4 23.31-19.74a57.235 57.235 0 0154 5.22c25.74 17.4 26.82 47.68 26.85 49v.63c2.98 42.51-14.22 78.95-51.18 108.31zm301.149-9.26a212.562 212.562 0 01-51 29.48 15.137 15.137 0 01-10.51.34 212.04 212.04 0 01-52.18-25.88c-39.099-27.1-58.709-62.55-58.279-105.4v-.56c0-5.41.86-32.83 23.78-50.47a57.16 57.16 0 0153.579-8.57c10.59 3.69 18.83 9.84 24.52 18.3l.17.3a8.992 8.992 0 003.81 4 9.04 9.04 0 004.91 1.09h.68a9.016 9.016 0 004.37-1.73 9.088 9.088 0 002.94-3.79l.15-.31c5.16-8.79 13-15.45 23.36-19.79a57.225 57.225 0 0154 5.22c25.07 16.95 26.75 45.77 26.86 49v.64c3.02 42.4-14.18 78.77-51.16 108.13z" fill="#000"/></g><defs><clipPath id="prefix__clip0_53_26521"><path fill="#fff" d="M0 0h1500v1500H0z"/></clipPath></defs>
      <g clip-path="url(#prefix__clip0_53_25947)"><path d="M500.535 506.546l-86.766 95.707-7.523 25.92-16.551-12.96-123.378 40.875-14.044 29.908 38.117 21.434-11.034 19.939-6.018 32.899 69.212 2.493 20.563-6.979v-23.428l137.422-35.89 281.864-43.866 203.123-20.437 163.498 6.48-33.6-56.826-44.64-50.844-54.16-42.37-85.264-40.376-123.88-18.942-155.477 10.468-151.464 66.795z" fill="#FF9C07"/><path d="M694 440.501c-103.2 71.6-160.666 198.166-176.5 252.5L370 722.5l-9.5 37.5-89-3.5 41-55c-25.333 4.833-73.8 8.7-65-14.5 8.8-23.2 106.334-58 154-72.5 21.167-27.666 81.2-92.799 152-131.999 70.8-39.2 123.167-44.334 140.5-42z" fill="#001647" fill-opacity=".2"/><path d="M365.792 728.466c72.883-19.54 500.224-129.064 779.298-89.346a6.808 6.808 0 006.69-2.99 6.798 6.798 0 001.14-3.625 6.771 6.771 0 00-1.01-3.663c-30.29-49.757-159.878-231.859-425.302-199.957-291.002 34.953-357.366 241.26-369.322 291.436a6.753 6.753 0 00.09 3.482 6.788 6.788 0 001.815 2.979 6.887 6.887 0 006.55 1.675l.051.009z" stroke="#000" stroke-width="20" stroke-miterlimit="10" stroke-linecap="round"/><path d="M383.466 645.541s-81.54 45.161-109.476 97.86a10.079 10.079 0 00-1.194 4.686 10.226 10.226 0 001.124 4.705 10.135 10.135 0 003.2 3.649 10.065 10.065 0 004.524 1.765c15.417 1.993 52.882 5.981 78.46 1.565l6.019-31.902" stroke="#000" stroke-width="20" stroke-miterlimit="10" stroke-linecap="round"/><path d="M397.098 616.6s-103.267 16.948-146.529 61.012a10.068 10.068 0 00-1.338 12.529 10.14 10.14 0 003.213 3.163 81.476 81.476 0 0051.308 11.744" stroke="#000" stroke-width="20" stroke-miterlimit="10" stroke-linecap="round"/></g><defs><clipPath id="prefix__clip0_53_25947"><path fill="#fff" d="M0 0h1500v1500H0z"/></clipPath></defs>
      
    </g>
    </svg>