<svg
      xmlns="http://www.w3.org/2000/svg"
      preserveAspectRatio="xMidYMin meet"
      fill="none"
      viewBox="0 0 1500 1500"
    >
      <g>
      <path fill="url(#prefix__paint0_linear_53_28788)" d="M0 0h1500v1500H0z"/><defs><linearGradient id="prefix__paint0_linear_53_28788" x1="0" y1="0" x2="1500" y2="1500" gradientUnits="userSpaceOnUse"><stop stop-color="#DBE4E4"/><stop offset="1" stop-color="#A7BDBD"/></linearGradient></defs>
      <g clip-path="url(#prefix__clip0_53_28440)"><path d="M1263 1500H289.33l3.73-66.49 19.17-107.35L354 1197l57.62-67.7s34.7-23.67 99.38-51.8c64.68-28.13 246.37-32.16 246.37-32.16s164.97-8.43 318.13 51.16C1228.66 1156.09 1263 1500 1263 1500z" fill="#99C4CB"/><path d="M466 1099s-.521 38.21 72.469 75.64 99.8 45.62 99.8 45.62 74.66 17.52 117.89 17.09c43.23-.43 122-9.29 122-9.29s82.32-21.7 109.62-40.47c27.301-18.77 99.721-76.09 99.721-76.09s-88.501-61-209.341-61c0 0-94.19-15.43-209.66 0s-140 25.5-140 25.5l-28 9s-23.389-.21-34.499 14z" fill="#fff"/><path d="M502.047 1215.45c-101.2 100-117.833 249-113.5 311l-99.501-13c-1.6-110.8 39-247.5 59.5-302l39.501-52.5 15.5-20.5 66.5-42.5c149.6-59.6 294-54.83 347.5-45-54.857 11.46-176.664 51.87-274.047 128.14 21.333 10.79 72.7 34.67 107.5 43.91 34.8 9.24 144.833 15.18 195.5 17-134.4 46-275.333-6.91-329-39.11a452.112 452.112 0 00-15.453 14.56z" fill="#001647" fill-opacity=".2"/><path d="M457 1103s81.38 134.36 319.15 134.36C1013.92 1237.36 1087 1109 1087 1109m-570-30c38.5 44.5 125.7 97.6 286.5 90 160.8-7.6 212-62.83 217-89.5M496.359 1145.43l50.11-36.14M578.51 1198.9l32.58-56.52M687.039 1230.64l11.64-66M809.939 1236.42l-3.41-64.42M927.521 1215.06l-28.97-59.27M1030.14 1155.88l-35.54-43.82" stroke="#000" stroke-width="20" stroke-miterlimit="10"/><path d="M289.5 1512.5c-6-101.5 31-323.03 140.5-398 158.5-108.51 616.5-87 706.5 26 64.91 81.5 99.5 222.5 132.5 371M1084.5 1337c12.33 37 29.5 110.3 43.5 175.5m-646.5 0c.333-32.83 7.7-107.6 20.5-157" stroke="#000" stroke-width="20" stroke-linecap="round"/></g><defs><clipPath id="prefix__clip0_53_28440"><path fill="#fff" d="M0 0h1500v1500H0z"/></clipPath></defs>
      <g clip-path="url(#prefix__clip0_299_662)"><path d="M775 1185c231.41 0 419-168.12 419-375.5 0-207.383-187.59-375.5-419-375.5-231.407 0-419 168.117-419 375.5 0 207.38 187.593 375.5 419 375.5z" fill="#ABF"/><path d="M457.5 796c7.6 194 131.833 327.5 193 370l-130-55.5L438 1034l-57.5-89.5-27-106 11-104L394 662l45-82.5 83.5-69.5 109-54.182 28.5-1C569.452 513.314 451.119 633.132 457.5 796z" fill="#001647" fill-opacity=".2"/><path d="M775 1185c231.41 0 419-168.12 419-375.5 0-207.383-187.59-375.5-419-375.5-231.407 0-419 168.117-419 375.5 0 207.38 187.593 375.5 419 375.5z" stroke="#000" stroke-width="20"/></g><defs><clipPath id="prefix__clip0_299_662"><path fill="#fff" d="M0 0h1500v1500H0z"/></clipPath></defs>
      <g clip-path="url(#prefix__clip0_53_29261)"><path d="M761.369 722.219a74.743 74.743 0 00-74.67 74.67 10.671 10.671 0 0021.33 0 53.344 53.344 0 0191.31-38.188 53.341 53.341 0 0115.36 38.188 31.999 31.999 0 01-54.627 22.627 32 32 0 01-9.373-22.627c-.041-1.427.2-2.847.71-4.18a10.68 10.68 0 012.3-3.58 10.659 10.659 0 0117.6 3.58 10.64 10.64 0 01.72 4.18 10.67 10.67 0 1021.34 0 32.003 32.003 0 00-9.372-22.628 32.003 32.003 0 00-45.255 0 32.004 32.004 0 00-9.373 22.628 53.333 53.333 0 0053.33 53.33 53.33 53.33 0 0053.33-53.33 74.738 74.738 0 00-74.66-74.67zM1048.37 722.219a74.743 74.743 0 00-74.671 74.67 10.671 10.671 0 0021.33 0 53.354 53.354 0 013.848-20.636 53.313 53.313 0 0111.513-17.552 53.28 53.28 0 0117.39-11.752 53.352 53.352 0 0141.17 0 53.385 53.385 0 0117.39 11.752 53.414 53.414 0 0111.51 17.552 53.227 53.227 0 013.85 20.636 32 32 0 01-32 32 32 32 0 01-32-32c-.06-1.789.34-3.563 1.15-5.159.81-1.596 2-2.963 3.48-3.974a10.664 10.664 0 0110.19-1.017c1.32.557 2.51 1.376 3.51 2.407a10.68 10.68 0 012.28 3.593c.52 1.331.76 2.752.72 4.18 0 2.83 1.12 5.544 3.12 7.545a10.697 10.697 0 007.55 3.125c2.83 0 5.54-1.124 7.54-3.125a10.637 10.637 0 003.13-7.545 31.999 31.999 0 00-32-32 31.999 31.999 0 00-32 32 53.337 53.337 0 0015.62 37.71 53.336 53.336 0 0037.71 15.62c14.14 0 27.71-5.619 37.71-15.62a53.337 53.337 0 0015.62-37.71 74.736 74.736 0 00-21.89-52.776 74.731 74.731 0 00-52.77-21.894v-.03z" fill="#000"/><path d="M912.5 1068.5c32.585 0 59-26.42 59-59 0-32.585-26.415-59-59-59s-59 26.415-59 59c0 32.58 26.415 59 59 59z" fill="#fff" stroke="#000" stroke-width="20" stroke-miterlimit="10"/></g><defs><clipPath id="prefix__clip0_53_29261"><path fill="#fff" d="M0 0h1500v1500H0z"/></clipPath></defs>
      <g clip-path="url(#prefix__clip0_53_26419)"><path d="M831.281 968.72H1000.1a5.495 5.495 0 015.5 5.5 89.32 89.32 0 01-89.319 89.32h-1.18a89.323 89.323 0 01-63.159-26.16 89.325 89.325 0 01-26.161-63.16 5.5 5.5 0 015.5-5.5z" fill="#fff" stroke="#000" stroke-width="20" stroke-miterlimit="10"/><path d="M1086 1006.5c0 43.35-75.66 78.5-169 78.5-93.336 0-169-35.11-169-78.5 0-43.386 75.664-78.5 169-78.5 93.34 0 169 35.146 169 78.5z" fill="#ABF"/><path d="M905 1002.88L923.13 991a26.135 26.135 0 0010.308-30.616 26.144 26.144 0 00-6.148-9.734v0a26.143 26.143 0 00-19.36-7.629 26.155 26.155 0 00-18.8 8.919L873 970.38M905 1003l18.13 11.88a26.115 26.115 0 0110.312 30.61 26.15 26.15 0 01-6.152 9.73v0a26.233 26.233 0 01-8.883 5.84 26.052 26.052 0 01-10.475 1.81 26.056 26.056 0 01-10.33-2.51 26.14 26.14 0 01-8.472-6.42L873 1035.5" stroke="#000" stroke-width="20" stroke-miterlimit="10" stroke-linecap="round"/><path d="M1099.27 836a156.437 156.437 0 00-153.411 134 26.558 26.558 0 01-16.18 20.75l-10.68 6.87a6.417 6.417 0 00-2.92 4.75c-.097.96.026 1.94.358 2.85.333.9.867 1.73 1.562 2.4 17.18 16.44 31.57 31.63 42 53a156.432 156.432 0 0073.451 72.93 156.47 156.47 0 00102.91 11.12 156.43 156.43 0 0087.32-55.58 156.458 156.458 0 0033.52-97.93c-.7-86.04-71.79-155.92-157.93-155.16z" fill="#F56CDB" fill-opacity=".9" stroke="#000" stroke-width="20" stroke-miterlimit="10"/><path d="M1207.52 931.913c16.03 30.088 16.61 61.085 1.31 69.237-15.31 8.15-12.99-24.393-29.02-54.481-16.02-30.088-44.31-46.329-29.01-54.479 15.3-8.149 40.7 9.635 56.72 39.723z" fill="#fff"/><circle cx="1209" cy="1031" r="13" fill="#fff"/></g><defs><clipPath id="prefix__clip0_53_26419"><path fill="#fff" d="M0 0h1500v1500H0z"/></clipPath></defs>
      <g clip-path="url(#prefix__clip0_53_24889)"><path d="M1189.38 568.001a10.407 10.407 0 00-1.98 4.502c-.29 1.637-.18 3.32.31 4.908 23.49 64.7-16.84 79.42-16.84 79.42-17.85 7.34-31.27 2.64-38.16-1.24a10.512 10.512 0 00-10.62.13c-27.22 16.44-55.56 1.29-67.16-6.55a10.383 10.383 0 00-5.55-1.766c-1.98-.048-3.93.471-5.63 1.496-32.85 19.84-57.26 6.36-67.67-1.92a10.527 10.527 0 00-12.05-.74c-32.52 19.74-59.81 4.64-71.37-4.09a10.489 10.489 0 00-12.37-.12c-29.69 20.81-53.63 8.37-64.18.37a10.491 10.491 0 00-12.34-.11c-31.71 22.15-63.62 7.45-76.9-.71a10.492 10.492 0 00-12.24 1c-26.85 22.5-57.29 17.5-70 14a10.467 10.467 0 00-10.48 3c-26.07 28-51.91 28.25-64.16 26.29a10.376 10.376 0 00-10.64 4.9c-13.53 23.17-40.52 28.09-53.48 29.09a10.494 10.494 0 00-9 6.76c-8 20.93-37.11 30.28-49 33.28a10.472 10.472 0 00-7 5.94c-17.51 39.88-52 34.16-62.87 31.16a10.711 10.711 0 00-6.8.41c-42.71 17.18-53-18.53-55.42-33.83a10.586 10.586 0 00-7-8.32c-27.18-9.49-21.71-33-16.44-45.55a10.547 10.547 0 00-3.85-12.84c-26.85-18.17-18.73-43.06-12.5-55a10.38 10.38 0 00-2.09-12.3c-25.49-24.15-8.28-49.19.52-59a10.518 10.518 0 002.11-10.34c-15-45.36-1.2-75 15.37-79.67a10.443 10.443 0 007.38-12.32c-7.9-34.74 18.12-56.24 33.22-60.1a10.482 10.482 0 007.94-10.14c-.26-44.36 39.11-48.82 56.69-48.6a10.422 10.422 0 0010.17-7.49c12.15-42.17 52.24-42.15 69.95-39.93a10.472 10.472 0 0011.09-6.75c13.32-35.63 45.83-32.24 60.79-28.51a10.463 10.463 0 0011.42-4.63c17.35-27.85 54-24.3 69.76-21.25a10.522 10.522 0 0011.05-5c23.28-39.29 62.4-25.7 78.15-18a10.436 10.436 0 0012-2.15c26.1-26.84 58.88-15.61 70.88-6.86 3.76 2.74 8.3 1.63 12.56-.24 53.29-23.45 63.52 11.41 75.49 22.41a10.52 10.52 0 005.442 2.625 10.52 10.52 0 005.988-.805c55.13-24.44 66 11.82 74.17 24.56a10.335 10.335 0 009.07 4.74c15-.51 59.53-12.4 68.82 36 .91 4.74 4.13 8.67 8.9 9.44 14.88 2.39 46.89 9.68 48.24 42.63.1 2.113.84 4.145 2.12 5.833a10.5 10.5 0 005.03 3.627c14 4.78 50 32.66 36.09 66.63a10.34 10.34 0 00-.34 6.767c.65 2.23 2.02 4.178 3.91 5.533 12.36 8.92 34.63 30 17.61 57.42a10.446 10.446 0 00-1.36 7.364 10.437 10.437 0 003.91 6.386c12.51 9.74 32.24 31.07 11.34 58.25z" fill="#4AEEB9" stroke="#000" stroke-width="20" stroke-miterlimit="10"/><path d="M486 316c8-7.2 6.333-12.333 4.5-14l-8.501-4c-14.833 2.5-44.699 7.7-45.499 8.5-.8.8-18.333 16.333-27 24l-16 19-28 5.5-22 32c-14 15.333-42 46.3-42 47.5 0 1.2-2.667 24.833-4 36.5l-25 26 4 61.5-13 29.5 7.5 39v32l19.5 43 2.5 42c7.333 7.5 23.9 25.4 31.5 37 9.5 14.5 10 12.5 54.5 16 35.6 2.8 57.167-19.167 63.5-30.5l59-43.5 42.5-17c6-6.167 23.9-19.2 47.5-22 23.6-2.8 32.5-20.167 34-28.5-37.919 25.554-65.646 17.812-74.217 5.341-2.881-4.193-6.633-8.688-11.588-9.84-33.654-7.826-40.534-35.863-37.426-55.162.893-5.544-1.656-11.452-6.538-14.227-31.884-18.125-23.086-50.549-11.002-71.318 2.878-4.947 1.684-11.403-2.66-15.13-25.625-21.988-18.853-46.575-7.959-61.497 3.633-4.976 3.422-12.186-.233-17.146-12.486-16.942-4.409-34.241 5.626-45.608 4.207-4.766 4.255-12.311 1.134-17.849-7.877-13.978-2.731-29.779 5.363-37.064z" fill="#001647" fill-opacity=".2"/><path d="M1189.38 568.001a10.407 10.407 0 00-1.98 4.502c-.29 1.637-.18 3.32.31 4.908 23.49 64.7-16.84 79.42-16.84 79.42-17.85 7.34-31.27 2.64-38.16-1.24a10.512 10.512 0 00-10.62.13c-27.22 16.44-55.56 1.29-67.16-6.55a10.383 10.383 0 00-5.55-1.766c-1.98-.048-3.93.471-5.63 1.496-32.85 19.84-57.26 6.36-67.67-1.92a10.527 10.527 0 00-12.05-.74c-32.52 19.74-59.81 4.64-71.37-4.09a10.489 10.489 0 00-12.37-.12c-29.69 20.81-53.63 8.37-64.18.37a10.491 10.491 0 00-12.34-.11c-31.71 22.15-63.62 7.45-76.9-.71a10.492 10.492 0 00-12.24 1c-26.85 22.5-57.29 17.5-70 14a10.467 10.467 0 00-10.48 3c-26.07 28-51.91 28.25-64.16 26.29a10.376 10.376 0 00-10.64 4.9c-13.53 23.17-40.52 28.09-53.48 29.09a10.494 10.494 0 00-9 6.76c-8 20.93-37.11 30.28-49 33.28a10.472 10.472 0 00-7 5.94c-17.51 39.88-52 34.16-62.87 31.16a10.711 10.711 0 00-6.8.41c-42.71 17.18-53-18.53-55.42-33.83a10.586 10.586 0 00-7-8.32c-27.18-9.49-21.71-33-16.44-45.55a10.547 10.547 0 00-3.85-12.84c-26.85-18.17-18.73-43.06-12.5-55a10.38 10.38 0 00-2.09-12.3c-25.49-24.15-8.28-49.19.52-59a10.518 10.518 0 002.11-10.34c-15-45.36-1.2-75 15.37-79.67a10.443 10.443 0 007.38-12.32c-7.9-34.74 18.12-56.24 33.22-60.1a10.482 10.482 0 007.94-10.14c-.26-44.36 39.11-48.82 56.69-48.6a10.422 10.422 0 0010.17-7.49c12.15-42.17 52.24-42.15 69.95-39.93a10.472 10.472 0 0011.09-6.75c13.32-35.63 45.83-32.24 60.79-28.51a10.464 10.464 0 0011.42-4.63c17.35-27.85 54-24.3 69.76-21.25a10.522 10.522 0 0011.05-5c23.28-39.29 62.4-25.7 78.15-18a10.436 10.436 0 0012-2.15c26.1-26.84 58.88-15.61 70.88-6.86 3.76 2.74 8.3 1.63 12.56-.24 53.29-23.45 63.52 11.41 75.49 22.41a10.52 10.52 0 005.442 2.625 10.52 10.52 0 005.988-.805c55.13-24.44 66 11.82 74.17 24.56a10.342 10.342 0 009.07 4.74c15-.51 59.53-12.4 68.82 36 .91 4.74 4.13 8.67 8.9 9.44 14.88 2.39 46.89 9.68 48.24 42.63.1 2.113.84 4.145 2.12 5.833a10.5 10.5 0 005.03 3.627c14 4.78 50 32.66 36.09 66.63a10.34 10.34 0 00-.34 6.767c.65 2.23 2.02 4.178 3.91 5.533 12.36 8.92 34.63 30 17.61 57.42a10.446 10.446 0 00-1.36 7.364 10.437 10.437 0 003.91 6.386c12.51 9.74 32.24 31.07 11.34 58.25z" stroke="#000" stroke-width="20" stroke-miterlimit="10"/></g><defs><clipPath id="prefix__clip0_53_24889"><path fill="#fff" d="M0 0h1500v1500H0z"/></clipPath></defs>
      
    </g>
    </svg>