<svg
      xmlns="http://www.w3.org/2000/svg"
      preserveAspectRatio="xMidYMin meet"
      fill="none"
      viewBox="0 0 1500 1500"
    >
      <g>
      <path fill="url(#prefix__paint0_linear_53_28788)" d="M0 0h1500v1500H0z"/><defs><linearGradient id="prefix__paint0_linear_53_28788" x1="0" y1="0" x2="1500" y2="1500" gradientUnits="userSpaceOnUse"><stop stop-color="#DBE4E4"/><stop offset="1" stop-color="#A7BDBD"/></linearGradient></defs>
      <g clip-path="url(#prefix__clip0_53_27517)"><path d="M277.11 1500l-1.87-48.3 17.07-36.79 2.35-49.06 20.58-31.46 7.73-50.65s28.57-41.54 28.8-43.99c.23-2.46 17-51 19.67-51.84 2.67-.84 9.59-.67 14.94-5.13s14.72-11.81 15.61-15.82c.89-4-1.34-10.92 3.34-18.05 4.68-7.13 7.17-11.45 13.63-11 6.46.45 26.06-5.53 26.73-6.41.38-.5 7.57-13.72 13.59-24.83 4.26-7.85 33.62-15.64 41-10.63 61.72-1.98 116.11-18.31 272.72-21.54 195.15-4 275.17 19.56 275.17 19.56l31.29 7.23s19 25 19.9 26.85c.9 1.85 10.74 15.16 10.74 15.16s11.37.31 14.53.94c3.16.63 7.89-.63 9.16 4.11 1.27 4.74 7.89 16.74 8.84 23.68.95 6.95.63 13.58 6.32 16.74 5.69 3.16 15.47 3.47 25 6.63 9.53 3.16 11.37 7 12.95 10.42s4.1 19 4.74 22.74c.64 3.74 6.94 35.47 6.94 35.47l26.85 16.32s.95 27.8 0 32.85c-.95 5.04-4.11 9.15-1.58 16.73 2.53 7.58 7.27 17.37 11.37 21.48 4.1 4.11 8.53 5.37 10.42 11.05 1.89 5.68 4.74 10.42 4.11 20.21-.63 9.78-2.21 19.58-1.58 30.63.63 11.05 1.67 13.27 1.67 13.27l19.49 20.38s4.42 15.31 3.48 18.78c-.94 3.46-9.16 34.27-9.16 34.27H277.11z" fill="#9E6740"/><path d="M440 1295.5c-42 68.4-52.833 173.83-53 218H285.5c-4-1.67-12-12.2-12-41s15.333-41.33 23-44l-8-52.5c10.5-7.5 31.2-31 30-65-1.2-34 16.167-43.83 25-44.5l18-65.5c13-4.33 39.2-18.9 40-42.5.8-23.6 26-18.17 38.5-12.5l5.5-19 22-29 125.5-15.5h117.5c-150.8 58.8-224.833 139.5-243 172.5l57.5 2c-8.4 20.8-33.5 20.33-45 17.5-15.2 18.8-33 21.83-40 21zM693 1421.5c15.6-14.4 14.833-25.67 12.5-29.5l-19.5 19.5h-35l-37 17c-11.333-3-35-9.4-39-11-5-2-20 1-2 23.5s59 2.5 65-4.5 31 7.15 55-15zM773.5 1276.5c-6-10.4-.833-13.33 2.5-13.5l12.5 3 30.5 2.5 29-14 39-4.5c4.667-7.5 16-20.9 24-14.5 10 8-16 48-46.5 45s-29 11-47 14-36.5-5-44-18zM895.5 1449.5c-5.6-8.8 1-11.67 5-12l31 11 33-14 32-5c11-6.17 33.8-18.2 37-17 4 1.5 2.5 15-4 24.5s-16.5 19-43 14.5-24 14-45.5 19-38.5-10-45.5-21zM1230 1507c11.2-6.4 11.67-17.67 10.5-22.5l-20.5 4.5c-1.33 8.67-1.2 24.4 10 18zM1087 1276.5c-9.2-12.8-.17-15.67 5.5-15.5l20 13 33-10.5 43.5-4.5 14 15c-4.67 2.67-16.5 7.7-26.5 6.5-12.5-1.5-9-4-31 11.5s-47 .5-58.5-15.5z" fill="#001647" fill-opacity=".2"/><path d="M902 1235.61l-3.07 5.1a33.625 33.625 0 01-35.81 15.56l-1.55-.33a33.633 33.633 0 00-15.83.45 33.728 33.728 0 00-13.87 7.64v0a33.631 33.631 0 01-19.916 8.72 33.621 33.621 0 01-21.084-5.3l-7.09-4.59M1025.57 1409.68l-3.07 5.11c-3.6 6-8.99 10.72-15.41 13.51a33.575 33.575 0 01-20.39 2.05l-1.55-.33a33.619 33.619 0 00-29.7 8.1 33.624 33.624 0 01-19.916 8.71 33.616 33.616 0 01-21.084-5.29l-7.09-4.6M698 1391.05l-3.07 5.11a33.625 33.625 0 01-35.81 15.56l-1.55-.33a33.638 33.638 0 00-15.831.46 33.485 33.485 0 00-13.869 7.64 33.624 33.624 0 01-19.916 8.71 33.617 33.617 0 01-21.084-5.29l-7.08-4.6M531.83 1235.61l-3.07 5.1a33.64 33.64 0 01-35.76 15.56l-1.55-.33a33.633 33.633 0 00-15.83.45 33.716 33.716 0 00-13.87 7.64v0a33.624 33.624 0 01-19.916 8.71 33.617 33.617 0 01-21.084-5.29l-7.09-4.59M385.18 1409.68l-3.07 5.11a33.537 33.537 0 01-15.413 13.51 33.597 33.597 0 01-20.397 2.05l-1.55-.33a33.633 33.633 0 00-15.83.46 33.495 33.495 0 00-13.87 7.64v0a33.642 33.642 0 01-20.39 8.75M1185.91 1256.9c-4.59 1-4.76.39-9.56-.63l-1.55-.33a33.633 33.633 0 00-15.83.45 33.697 33.697 0 00-13.87 7.64v0a33.618 33.618 0 01-19.92 8.72c-7.42.62-14.83-1.25-21.08-5.3l-7.1-4.62" stroke="#000" stroke-width="20" stroke-miterlimit="10" stroke-linecap="round"/><path d="M1241.84 1486.32l-3.07 5.11c-1.83 3.05-4.03 6.86-6.55 9.37h-72.94c5.01-3.84 10.78-7.54 16.94-8.94a43.837 43.837 0 0118.7-.13l1.56.33c4.81 1.02 9.82.51 14.32-1.45 4.51-1.96 8.3-5.28 10.83-9.49l3.07-5.1c1.39-2.22 3.6-3.81 6.15-4.42a10.011 10.011 0 0112.01 7.22c.65 2.54.29 5.23-1.02 7.5z" fill="#000"/><path d="M281.5 1507c-4.833-16-14.829-54.4-4-63.5 12.5-10.5 26.5-19 18-47.5s4-40.5 14.5-48 13-25.5 7.5-42.5 6-33.5 20.5-38.5 16-28.5 15-37.5 0-34.5 22-35 23-25.5 24-33 8-25.5 27-19.5 22.5-14.5 24-22-.5-28 54-28 178.5-37 539.5 0c16 1.64 45.44 2.59 49.5 27 5.67 34.06 29.05 19.98 40 23.5 14 4.5 8.69 31.99 15 40.5 10 13.5 13.07 6.82 31 13.5 21.41 7.98-3.5 54 27 70 27.41 14.38 19.5 30.5 17 53s9 28 16 33.5 15.5 11.5 9 41.5-.79 31.71 15 47.5c18 18-1.5 32 1.5 65" stroke="#000" stroke-width="20"/><path d="M1084.5 1337c12.33 37 29.5 110.3 43.5 175.5m-646.5 0c.333-32.83 7.7-107.6 20.5-157" stroke="#000" stroke-width="20" stroke-linecap="round"/></g><defs><clipPath id="prefix__clip0_53_27517"><path fill="#fff" d="M0 0h1500v1500H0z"/></clipPath></defs>
      <g clip-path="url(#prefix__clip0_299_662)"><path d="M775 1185c231.41 0 419-168.12 419-375.5 0-207.383-187.59-375.5-419-375.5-231.407 0-419 168.117-419 375.5 0 207.38 187.593 375.5 419 375.5z" fill="#ABF"/><path d="M457.5 796c7.6 194 131.833 327.5 193 370l-130-55.5L438 1034l-57.5-89.5-27-106 11-104L394 662l45-82.5 83.5-69.5 109-54.182 28.5-1C569.452 513.314 451.119 633.132 457.5 796z" fill="#001647" fill-opacity=".2"/><path d="M775 1185c231.41 0 419-168.12 419-375.5 0-207.383-187.59-375.5-419-375.5-231.407 0-419 168.117-419 375.5 0 207.38 187.593 375.5 419 375.5z" stroke="#000" stroke-width="20"/></g><defs><clipPath id="prefix__clip0_299_662"><path fill="#fff" d="M0 0h1500v1500H0z"/></clipPath></defs>
      <g clip-path="url(#prefix__clip0_53_29369)" stroke="#000" stroke-width="20" stroke-miterlimit="10"><path d="M729.63 808.821l88.08-16a7.737 7.737 0 006.23-6.4 7.757 7.757 0 00-.73-4.64 7.674 7.674 0 00-3.27-3.35l-82.39-43.72M1087 808.821l-87.999-16a7.71 7.71 0 01-6.23-6.4 7.784 7.784 0 01.72-4.63 7.65 7.65 0 013.28-3.36l82.389-43.72" stroke-linecap="round"/><path d="M1000 1001.64c0 35-39.4 63.36-88 63.36s-88-28.36-88-63.36a47.358 47.358 0 014.59-20.231c6.41-13.7 21-19 33.42-12.86 14.2 7.07 31.42 11.21 50 11.21s35.79-4.14 50-11.21c12.4-6.18 27-.84 33.42 12.86a47.337 47.337 0 014.57 20.231z" fill="#fff"/></g><defs><clipPath id="prefix__clip0_53_29369"><path fill="#fff" d="M0 0h1500v1500H0z"/></clipPath></defs>
      <g clip-path="url(#prefix__clip0_53_27079)"><path opacity=".4" d="M770.85 897.86a109.421 109.421 0 0021.346-216.738A109.42 109.42 0 10770.85 897.86zM1066.56 897.86a109.414 109.414 0 00101.09-67.547 109.453 109.453 0 006.23-63.22 109.43 109.43 0 00-85.97-85.971 109.411 109.411 0 00-63.22 6.227 109.391 109.391 0 00-49.11 40.3 109.42 109.42 0 0090.98 170.211z" fill="#fff"/><path d="M1145.89 765c5.43-3.83 2.77-16.94-5.94-29.29-8.71-12.35-20.17-19.25-25.6-15.42s-2.77 16.94 5.94 29.29c8.71 12.35 20.17 19.2 25.6 15.42zM848.18 764.999c5.43-3.83 2.77-16.94-5.94-29.29-8.71-12.35-20.17-19.26-25.6-15.43-5.43 3.83-2.77 17 5.94 29.3s20.17 19.21 25.6 15.42z" fill="#fff"/><path d="M1066.27 897.86a109.414 109.414 0 00101.09-67.547 109.453 109.453 0 006.23-63.22 109.43 109.43 0 00-85.97-85.971 109.411 109.411 0 00-63.22 6.227 109.391 109.391 0 00-49.11 40.3 109.42 109.42 0 0090.98 170.211zM770.85 897.86a109.421 109.421 0 0021.346-216.738A109.42 109.42 0 10770.85 897.86v0zM658.002 782.498L377.65 692.6M880.27 788.439h76.579" stroke="#000" stroke-width="20" stroke-miterlimit="10"/></g><defs><clipPath id="prefix__clip0_53_27079"><path fill="#fff" d="M0 0h1500v1500H0z"/></clipPath></defs>
      <g clip-path="url(#prefix__clip0_53_25216)"><path d="M661.719 466.274s.681-50.314 11.211-50.049c10.531.266 30.241-4.165 30.241-4.165l31.003 15.989 25.638-5.424 28.99-24.747 27.071-1.791 27.883 14.121 15.446 18.681 23.411.145 50.96-13.954 24.276 23.68-19.232 52.574-44.507-21.369-17.618-6.041-23.174-7.036-28.05-1.943-32.388-.112-55.638 3.68-50.45 8.949-25.073-1.188z" fill="#97A5DE"/><path d="M718.506 479.214s19.322 40.453 64.014 34.31c44.692-6.143 83.522-32.583 83.522-32.583l10.406-17.065-81.463-14.775-84.096 14.041s-8.664 11.898 7.617 16.072z" fill="#7985B4"/><path d="M662.843 469.488s-13.534-58.554 30.086-60.287c15.494-.614 25.435 4.992 32.227 12.21 13.894 14.755 29.392 7.707 38.346-2.386 11.842-13.391 27.482-26.021 44.854-27.17 20.226-1.338 34.215 14.393 42.889 29.474 6.094 10.621 21.799 13.651 33.204 6.683 11.953-7.315 28.35-12.9 48.081-8.683 42.964 9.245 6.064 69.091 6.064 69.091" stroke="#000" stroke-width="18.1" stroke-miterlimit="10" stroke-linecap="round"/><path d="M630.048 507.636s25.276-45.068 51.452-39.634c40.502 8.395 74.399 69.733 74.399 69.733M800.818 537.27s38.761-65.501 93.251-67.301c54.49-1.801 48.429 57.93 48.429 57.93M682 468s137.209-40.275 226.408 2.982M736.796 506.5s35.103 14.655 86.489 1.675" stroke="#000" stroke-width="20" stroke-miterlimit="10" stroke-linecap="round"/><path d="M644.603 542.516l56.89-77.109 53.1-31.06 21.634-1.404 37.197 81.112 21.415 63.676s27.843 59.499-15.545 65.537c-43.387 6.039-91.435-3.37-91.435-3.37L674.535 627.1l-65.745 19.231s-46.205 82.674-91.956 100.812c-45.751 18.138-42.916-1.403-42.916-1.403l-42.859-81.774-19.901-91.615s-13.797-31.572 51.611-31.441c65.408.131 113.385 23.476 113.385 23.476l68.449-21.87z" fill="#F56CDB"/><path d="M505 591c-.4-20.4 9.167-33.5 14-37.5l-7-8-62.5-1-38.5 9 12 63 41 113 26 31.5 72.5-48.5 46.5-63-16.5-43.5-50 18.5c0 8.333-2.7 23.9-13.5 19.5-13.5-5.5-23.5-27.5-24-53zM643 630.5c-30-26.8-29.833-61.167-26-75l-32 6.5 24 78.5 34-10zM747.5 575c7.6-20.8-7.167-31-15.5-33.5-6.5 8-19.6 24.2-20 25-.4.8-26.833 13-40 19-.167 7.5 1.1 22.7 7.5 23.5 8 1 58.5-8 68-34z" fill="#001647" fill-opacity=".2"/><path d="M647.51 541.553l-67.569 24.232 28.887 80.545 67.568-24.233-28.886-80.544z" stroke="#000" stroke-width="20" stroke-miterlimit="10"/><path d="M676.427 621.507s80.65 40.951 156.098 17.871a17.706 17.706 0 009.624-7.279 17.61 17.61 0 002.702-11.737 437.997 437.997 0 00-66.957-184.734l-.109-.158a17.698 17.698 0 00-9.558-7.301 17.761 17.761 0 00-12.032.483C683.202 458.578 647.06 541.311 647.06 541.311M579.903 566.274s-80.652-40.957-156.122-17.874a17.702 17.702 0 00-9.625 7.275 17.604 17.604 0 00-2.703 11.735v0a438.016 438.016 0 0066.938 184.744l.108.168a17.698 17.698 0 009.564 7.29 17.762 17.762 0 0012.03-.491c73.004-29.921 109.151-112.668 109.151-112.668" stroke="#000" stroke-width="20" stroke-miterlimit="10"/><path d="M662.153 582.107s45.412 4.609 61.137-39.852M594.148 606.978s-52.056-3.509-59.752 39.921" stroke="#000" stroke-width="20" stroke-miterlimit="10" stroke-linecap="round"/></g><defs><clipPath id="prefix__clip0_53_25216"><path fill="#fff" d="M0 0h1500v1500H0z"/></clipPath></defs>
      
    </g>
    </svg>