<svg
      xmlns="http://www.w3.org/2000/svg"
      preserveAspectRatio="xMidYMin meet"
      fill="none"
      viewBox="0 0 1500 1500"
    >
      <g>
      <path fill="url(#prefix__paint0_linear_53_30460)" d="M0 0h1500v1500H0z"/><defs><linearGradient id="prefix__paint0_linear_53_30460" x1="0" y1="0" x2="1500" y2="1500" gradientUnits="userSpaceOnUse"><stop stop-color="#F1FFBA"/><stop offset="1" stop-color="#65DCBA"/></linearGradient></defs>
      <g clip-path="url(#a)"><path fill="#99C4CB" d="M1263 1509H289l4-75 22-108 15-60 31-63 50-79s46-15 111-43c64-28 204-38 204-38s196-6 350 54c153 59 187 412 187 412Z"/><path fill="#001647" fill-opacity=".2" d="M500 1214a430 430 0 0 0-113 311l-100-13c-2-111 39-248 60-302l39-53 16-20 66-43c150-60 294-55 348-45-63 13-215 65-316 165Z"/><path fill="#000" d="M681 1405v-1 18-17Z"/><path fill="#97A5DE" d="M762 1362h-1 1Z"/><path stroke="#000" stroke-linecap="round" stroke-width="20" d="M290 1513c-6-102 31-323 140-398 159-109 617-87 707 26 64 81 99 222 132 371m-184-175c12 37 29 110 43 176m-646 0c0-33 7-108 20-157"/><path fill="#000" d="M949 1410c2 67-72 102-125 64l-13-11h-1c-9 11-21 20-35 24-48 15-101-29-94-80 3-30 26-53 53-60-11-64 54-104 110-71a80 80 0 0 1 32 50c39 9 70 33 73 84Z"/><path fill="#97A5DE" fill-rule="evenodd" d="m815 1279 1 1 8 2a60 60 0 0 1 27 23 58 58 0 0 1 9 20l-1 1h-2l-5 1a67 67 0 0 0-18 4 74 74 0 0 0-35 29l-1 3-1 1-1-1a61 61 0 0 0-12-8 84 84 0 0 0-26-9h-6v-1h-1v-4h-1v-17a47 47 0 0 1 6-18 51 51 0 0 1 41-28h6l6 1a38 38 0 0 1 6 1v-1Zm65 65h1a74 74 0 0 1 32 18 63 63 0 0 1 12 16 69 69 0 0 1 9 25v16a60 60 0 0 1-55 54h-11a51 51 0 0 1-13-2 72 72 0 0 1-34-21v-1h-1v-1l-1-1-1-1h1v-1a72 72 0 0 0 4-19v-13l-1-2a66 66 0 0 0-3-15 77 77 0 0 0-7-14l-3-5c-1 0-1 0 0 0v-2l1-2a52 52 0 0 1 11-14 65 65 0 0 1 22-13 62 62 0 0 1 23-4h6a58 58 0 0 1 8 2Zm-107 23 12 8a59 59 0 0 1 18 24 49 49 0 0 1 4 14v14l-2 7a51 51 0 0 1-43 39h-13l-5-1a55 55 0 0 1-19-7l-8-6-5-4a59 59 0 0 1-14-24l-1-2v-1l-1-7a60 60 0 0 1 0-18 58 58 0 0 1 6-16 55 55 0 0 1 19-19 49 49 0 0 1 16-6h5a66 66 0 0 1 11 0l11 1 9 4Z" clip-rule="evenodd"/><path fill="#000" d="M874 1415a22 22 0 0 1 17 8 22 22 0 0 1 6 12v5l-1 6-5 7-9 5-3 1h-2c-4 0-8-1-11-3a23 23 0 0 1-12-18c-1-4 0-7 1-10 2-5 5-8 10-11l7-2h2ZM749 1418c0 4-1 8-3 11s-5 6-8 7c-3 2-5 3-8 3a23 23 0 0 1-22-11l-2-6-1-5a20 20 0 0 1 18-21l5-1 6 2a23 23 0 0 1 15 21Z"/><path fill="#7985B4" d="M876 1446c-3 0-5-1-7-3s-3-3-3-6a8 8 0 0 1 7-9c3 0 5 0 7 2 2 1 3 3 3 5 2 4 0 8-3 10l-4 1ZM735 1418c0 3-1 5-3 7l-6 1c-3 0-5-2-6-4l-2-5a8 8 0 0 1 6-8c4 0 6 1 9 3l2 4v2Z"/></g><defs><clipPath id="a"><path fill="#fff" d="M0 0h1500v1500H0z"/></clipPath></defs>
      <g clip-path="url(#prefix__clip0_299_662)"><path d="M775 1185c231.41 0 419-168.12 419-375.5 0-207.383-187.59-375.5-419-375.5-231.407 0-419 168.117-419 375.5 0 207.38 187.593 375.5 419 375.5z" fill="#ABF"/><path d="M457.5 796c7.6 194 131.833 327.5 193 370l-130-55.5L438 1034l-57.5-89.5-27-106 11-104L394 662l45-82.5 83.5-69.5 109-54.182 28.5-1C569.452 513.314 451.119 633.132 457.5 796z" fill="#001647" fill-opacity=".2"/><path d="M775 1185c231.41 0 419-168.12 419-375.5 0-207.383-187.59-375.5-419-375.5-231.407 0-419 168.117-419 375.5 0 207.38 187.593 375.5 419 375.5z" stroke="#000" stroke-width="20"/></g><defs><clipPath id="prefix__clip0_299_662"><path fill="#fff" d="M0 0h1500v1500H0z"/></clipPath></defs>
      <g clip-path="url(#prefix__clip0_53_29449)"><path d="M844.63 1012.87h141.62" stroke="#000" stroke-width="20" stroke-linecap="round"/><path d="M764.05 841.24c31.336 0 56.74-25.404 56.74-56.74 0-31.337-25.404-56.74-56.74-56.74-31.337 0-56.74 25.403-56.74 56.74 0 31.336 25.403 56.74 56.74 56.74zM1048.19 841.24c31.34 0 56.74-25.404 56.74-56.74 0-31.337-25.4-56.74-56.74-56.74-31.34 0-56.74 25.403-56.74 56.74 0 31.336 25.4 56.74 56.74 56.74z" fill="#fff" stroke="#000" stroke-width="20" stroke-miterlimit="10"/><path d="M764.05 770.5c7.18 0 13-5.82 13-13s-5.82-13-13-13-13 5.82-13 13 5.82 13 13 13zM1048.19 770.5c7.18 0 13-5.82 13-13s-5.82-13-13-13-13 5.82-13 13 5.82 13 13 13z" fill="#000"/></g><defs><clipPath id="prefix__clip0_53_29449"><path fill="#fff" d="M0 0h1500v1500H0z"/></clipPath></defs>
      <g clip-path="url(#prefix__clip0_53_27350)"><path d="M695 882.421v6.14a7.746 7.746 0 01-.67 3.22c-1.26 2.86-3.34 3-3.34 3a7.817 7.817 0 01-6.39-1.32c-2.64-2.11-9.24-20.21-9.24-20.21l-12.71 20.21H654l17.8-28.21-5.59-11.59a4.654 4.654 0 00-4.07-2.64H662a4.724 4.724 0 00-4.13 1.7c-.89.89-1.21 3.78-1.21 3.78l-1.78.13a22.972 22.972 0 01-.13-5.28 7.776 7.776 0 011.34-3.76 5.694 5.694 0 014.83-2.61 7.816 7.816 0 014.51 1.43 8.67 8.67 0 013 3.74l5.26 13.05 11.44-17.4H693l-15.8 24.51 3.94 9.32s3 9 7.31 9 4.71-6.22 4.71-6.22l1.84.01z" fill="#000"/></g><defs><clipPath id="prefix__clip0_53_27350"><path fill="#fff" d="M0 0h1500v1500H0z"/></clipPath></defs>
      <g clip-path="url(#prefix__clip0_53_24862)"><path d="M452.064 482.151c-104.889 112.873-101.3 246.773-101.3 246.773-.418 14.067 14.974 20.397 14.974 20.397l128.995-56.526 35.64-18.862 22.431 26.917c19.108 7.81 57.922 23.728 60.315 24.924 2.393 1.196 62.807 13.791 92.716 19.939 40.542-1.828 141.266-12.861 219.825-42.37 78.56-29.51 139.07-28.579 159.51-24.425 20.77 5.815 72.58 18.044 113.65 20.437 41.08 2.393 26.42-33.896 13.96-52.339l-23.93-13.958-46.35-19.421-43.06-91.459s-14.26-48.053-134.689-124.169c-120.43-76.117-240.911-57.175-240.911-57.175s-166.888 28.443-271.776 141.317z" fill="#F56CDB"/><path d="M351.5 745.997c1.5-26 11-95.4 37-165 8.167-23.833 47.8-89.7 141-162.5S734 339.83 778 345.997c-204 104-266.667 267-272.5 335.501L398 731.997l-46.5 14zM747.5 579.497c-137.6 22.4-202.667 67-218 86.5l63-22.5 100-33 187.5-20 261 23.5-4-14.5c-49.5-17-217.5-48-389.5-20z" fill="#001647" fill-opacity=".2"/><path d="M846.153 441.048l21.757-1.87 12.653 64.858-21.757 1.869 4.212 21.616-14.506 1.247-4.218-21.616-21.756 1.87-12.653-64.858 21.762-1.87-4.217-21.615 14.506-1.247 4.217 21.616zm79.558 29.8l21.762-1.87 12.642 64.859-21.751 1.869 4.218 21.615-14.506 1.247-4.218-21.616-21.762 1.87-12.647-64.858 21.756-1.869-4.218-21.622 14.506-1.246 4.218 21.621z" fill="#000"/><path d="M539.057 669.816c-90.931 33.368-140.28 60.355-165.592 77.034a14.876 14.876 0 01-21.267-5.398 14.877 14.877 0 01-1.743-7.931c4.167-68.221 30.198-205.29 154.526-300.249 153.121-116.981 298.086-91.968 311.047-89.416.757.15 1.505.289 2.273.419 20.008 3.579 261.459 51.203 326.179 276.153" stroke="#000" stroke-width="20" stroke-miterlimit="10"/><path d="M538.667 671.046c.23-.788.634-1.409 1.312-1.871 13.787-9.381 183.305-117.499 585.401-53.422 0 0 48.7 9.6 90.07 32.062a30.695 30.695 0 0114.53 17.606 30.714 30.714 0 01-1.62 22.769 30.738 30.738 0 01-16.88 15.365 30.744 30.744 0 01-22.83-.52c-33.33-14.266-83.32-29.41-137.41-32.5-42.02-2.403-134.701 36.887-203.629 55.998A416.341 416.341 0 01676.515 737.3c-69.469-10.096-148.504-29.738-137.848-66.254z" stroke="#000" stroke-width="20" stroke-miterlimit="10"/></g><defs><clipPath id="prefix__clip0_53_24862"><path fill="#fff" d="M0 0h1500v1500H0z"/></clipPath></defs>
      
    </g>
    </svg>