<svg
      xmlns="http://www.w3.org/2000/svg"
      preserveAspectRatio="xMidYMin meet"
      fill="none"
      viewBox="0 0 1500 1500"
    >
      <g>
      <path fill="url(#prefix__paint0_linear_53_30462)" d="M0 0h1500v1500H0z"/><defs><linearGradient id="prefix__paint0_linear_53_30462" x1="0" y1="0" x2="1500" y2="1500" gradientUnits="userSpaceOnUse"><stop stop-color="#FFC4F6"/><stop offset="1" stop-color="#FF3DB1"/></linearGradient></defs>
      <g clip-path="url(#a)"> <path fill="#000" d="M511.7 1369.3c-9.4 43-15.8 86.7-19 130.6h-20v-.7c3.2-45.2 9.7-90.2 19.5-134.5a10 10 0 0 1 19.5 4.6ZM1132 1500h-20.2c-2.8-14-20.2-98.8-36.6-147.6a10 10 0 0 1 2.7-10.9 10.1 10.1 0 0 1 7.4-2.4 9.8 9.8 0 0 1 6.9 3.5 10 10 0 0 1 1.9 3.5c18.3 54.2 37 148 37.7 151.9l.2 2Z"/> <path fill="#fff" d="M1263 1504H289.3l3.8-70.5 22.1-107.4 14.3-62.1 31.5-61 41.5-71s41.3-28.9 106-57 255-32.5 255-32.5 155.8-7 309 52.5c153.2 59.6 190.5 409 190.5 409Z"/> <path fill="#ABF" d="m739.5 1500-19.9-143v-146l39.9-169 83.5 6.5 40 108 9.3 28.5 23.4 117.7L922 1500H739.5Z"/> <path stroke="#000" stroke-width="20" d="M741 1514c-20.8-79.3-46.8-283.4 16-465m165 465c7-105.5 5.7-294.2-83.5-465"/> <path fill="#000" d="M659.1 1339a17.4 17.4 0 0 1-10.4 14.6l-43.4 18.7a10.2 10.2 0 0 0-5.7 12.4l35.8 115.3h-21l-34-109.3a30.1 30.1 0 0 1 17-36.8l38.8-16.7-60.5-37.8a32.7 32.7 0 0 1-8.4-48.2L743.5 1039l7.8 6.2 7.9 6.3L583 1263.7a12.8 12.8 0 0 0 3.3 18.8l64.7 40.4a17.4 17.4 0 0 1 8.1 16Zm404.5 23.3L1042 1500h-20.3l22.2-140.8a10.2 10.2 0 0 0-7.4-11.4l-45.7-12.2a17.4 17.4 0 0 1-6.7-30.1l58.2-49.3a12.8 12.8 0 0 0 .5-19l-195.6-183.4 6.8-7.3 6.9-7.3 195.6 183.3a32.6 32.6 0 0 1 7 38c-1.9 4.3-4.8 8-8.3 11l-54.4 46 40.9 11a30 30 0 0 1 22 33.8Z"/> <path fill="#001647" fill-opacity=".2" d="M500 1213.5c-101.2 100-117.8 249-113.5 311l-99.5-13c-1.6-110.8 39-247.5 59.5-302L386 1157l15.5-20.5L468 1094c149.6-59.6 294-54.8 347.5-45-63 13.2-214.3 64.5-315.5 164.5Z"/> <path fill="#001647" fill-opacity=".2" d="M559 1297c-18-16.4-1.5-37.2 9.5-45l-3 16.5 13.5 11 68.5 60-13.5 9.5c-27.5-12-52.5-31.5-75-52Zm6.5 97c-4-22.8 19.7-35.5 32-39l-4 14v25l30 111.5h-20c-11-27.7-34-88.7-38-111.5Zm328-82.5c-19-119-56.5-216-80-270h24l37 86 39 152 10 156.5v75.5l-23 13c4.5-36.7 7.8-120.6-7-213Z"/> <path stroke="#000" stroke-linecap="round" stroke-width="20" d="M289.5 1512.5c-6-101.5 31-323 140.5-398 158.5-108.5 616.5-87 706.5 26 65 81.5 99.5 222.5 132.5 371M1084.5 1337c12.3 37 29.5 110.3 43.5 175.5m-646.5 0c.3-32.8 7.7-107.6 20.5-157"/> </g> <defs> <clipPath id="a"> <path fill="#fff" d="M0 0h1500v1500H0z"/> </clipPath> </defs>
      <g clip-path="url(#prefix__clip0_299_662)"><path d="M775 1185c231.41 0 419-168.12 419-375.5 0-207.383-187.59-375.5-419-375.5-231.407 0-419 168.117-419 375.5 0 207.38 187.593 375.5 419 375.5z" fill="#ABF"/><path d="M457.5 796c7.6 194 131.833 327.5 193 370l-130-55.5L438 1034l-57.5-89.5-27-106 11-104L394 662l45-82.5 83.5-69.5 109-54.182 28.5-1C569.452 513.314 451.119 633.132 457.5 796z" fill="#001647" fill-opacity=".2"/><path d="M775 1185c231.41 0 419-168.12 419-375.5 0-207.383-187.59-375.5-419-375.5-231.407 0-419 168.117-419 375.5 0 207.38 187.593 375.5 419 375.5z" stroke="#000" stroke-width="20"/></g><defs><clipPath id="prefix__clip0_299_662"><path fill="#fff" d="M0 0h1500v1500H0z"/></clipPath></defs>
      <g clip-path="url(#prefix__clip0_53_29144)" stroke="#000" stroke-width="20" stroke-linecap="round"><path d="M844.63 1012.87h141.62M829.06 777.09l-31.89-.02-34.13-.03-43.3-.04"/><path d="M805.53 785.89A29.91 29.91 0 11763 777h34.13a29.774 29.774 0 018.4 8.89z" fill="#000"/><path d="M1081.06 777l-43.31.04-34.13.03-31.88.02"/><path d="M995.26 785.889a29.915 29.915 0 00-4.456 16.588 29.915 29.915 0 0018.886 26.947 29.916 29.916 0 0017.11 1.473 29.872 29.872 0 0015.1-8.183 29.836 29.836 0 008.11-15.14 29.887 29.887 0 00-12.26-30.535h-34.13a29.957 29.957 0 00-8.36 8.85z" fill="#000"/></g><defs><clipPath id="prefix__clip0_53_29144"><path fill="#fff" d="M0 0h1500v1500H0z"/></clipPath></defs>
      <path fill-rule="evenodd" clip-rule="evenodd" d="M873.72 749.551a77.974 77.974 0 01-2.12 28.009c-12 46-43.43 116-123.08 116-78.08-.01-109.77-67.3-122.34-113.32a76.54 76.54 0 01-1.491-6.613 575.778 575.778 0 01-19.519-2.647c-19.733-3.014-46.514-8.099-74.574-16.389-28-8.273-57.66-19.85-82.929-36.01-25.242-16.143-46.806-37.321-57.335-65.028l18.696-7.105c8.471 22.292 26.282 40.49 49.415 55.284 23.106 14.778 50.821 25.701 77.82 33.678 26.941 7.96 52.785 12.875 71.927 15.799a560.937 560.937 0 0015.613 2.165c2.272-25.235 17.045-48.105 39.927-58.564C682.92 686 710 679.25 748 678.56c2.1-.04 4.24-.06 6.42-.06 31.85 0 55.55 4.17 73.18 10.32 19.495 6.785 34.154 22.272 41.436 41.234 20.561-6.57 46.94-16.704 73.236-31.517C998.125 667.074 1051.68 615.752 1051.68 534h20c0 92.248-60.95 148.926-119.592 181.963-28.405 16-56.722 26.749-78.368 33.588z" fill="#000"/>
      <g clip-path="url(#prefix__clip0_53_26063)"><path d="M287 736.5l-39.5 81 191-81 274-72c238.8-42.4 461.17-41.33 542.5-35.5-16-51.6-119.33-99.83-169-117.5-22-66.4-108.83-139.33-149.5-167.5-22-17.17-102.9-49.8-250.5-43-147.6 6.8-242.83 118.5-272 173.5L364 607l7 57.5-84 72z" fill="#FFBF44"/><path d="M377 578l-18 89 129-51.5 183-48L817 544l269-26-30.5-69.5h-149l-169.5 14L547 513l-170 65z" fill="#FF6247"/><path d="M349.24 858.211s-6.78-49.71-1-75l-100.87 48.86 9.37 17.54 92.5 8.6z" fill="#F8C25A"/><path d="M1148.39 620.5s27.32 40.85 36.76 78.82l55.14-40.91 18.47-26.85-110.37-11.06z" fill="#CF9B37"/><path d="M349 779c-5.2 29.2-2.167 62.167 0 75h-74.5L239 835l29.5-66 93-101 18-94c44-170.4 180.667-242.667 243.5-257.5-111.2 93.2-124.667 232.833-117.5 291l6 8C465.9 664.7 436.667 720.667 428 743l-79 36z" fill="#001647" fill-opacity=".2"/><path d="M359.62 860.22c-9.834-.48-19.66-1.11-29.48-1.89-27.42-2.21-54.33-5.66-75-11a22.127 22.127 0 01-16.578-22.57 22.12 22.12 0 012.768-9.63c18.35-33 58.45-95.81 121.61-147.4 0 0-3.81-281.9 284.44-360.63 288.25-78.73 426.62 163.81 443.16 212.06 0 0 101.59 21.94 165 96.62a22.132 22.132 0 01.92 27.62c-9.88 13.1-31.84 33.23-80.61 57.16M362.92 667.72s227.3-133.33 727.6-148.57" stroke="#000" stroke-width="20" stroke-miterlimit="10"/><path d="M240.51 835s36.71-44.83 249-110.11a2300.643 2300.643 0 01590.73-100.1c63.88-2.36 127.62-1.87 180.53 4.2M376.39 578.38S676 422.5 1052.12 451.79" stroke="#000" stroke-width="20" stroke-miterlimit="10"/></g><defs><clipPath id="prefix__clip0_53_26063"><path fill="#fff" d="M0 0h1500v1500H0z"/></clipPath></defs>
      
    </g>
    </svg>