<svg
      xmlns="http://www.w3.org/2000/svg"
      preserveAspectRatio="xMidYMin meet"
      fill="none"
      viewBox="0 0 1500 1500"
    >
      <g>
      <path fill="url(#prefix__paint0_linear_53_28788)" d="M0 0h1500v1500H0z"/><defs><linearGradient id="prefix__paint0_linear_53_28788" x1="0" y1="0" x2="1500" y2="1500" gradientUnits="userSpaceOnUse"><stop stop-color="#DBE4E4"/><stop offset="1" stop-color="#A7BDBD"/></linearGradient></defs>
      <g clip-path="url(#prefix__clip0_53_28824)"><path d="M303.47 1380.79L330.5 1246l47.5-86.5s65.91-62.22 111.5-78c0 0 195-61.5 392-27.5 31-4 38.96 8.51 79 8 42.72-.55 27.45 23 59 17 22.5 0 44.5 12.5 44.5 12.5l57 34.5 33.87 53.21 39.13 77.98 38.22 130.85-124.13 38.32 14.41 79.47-643.66 1.15 7.27-73.62-182.64-52.57z" fill="#53B6F9"/><path d="M542 1070s112 131 246.95 172.85C823.46 1245.8 903.5 1166 903.5 1166l81.5-83.5 10.5-12.5-69.5-13.5-84.5-8.5-142-3.5-118 15.5-39.5 10zM288.69 1505.57l13.36-115.94 184.06 50.77-2.67 65.17H288.69zM1107 1426l15.5 78.85h142.41l-32.7-116.79L1107 1426z" fill="#ABF"/><path d="M967.16 1314.33l12.2-23.4 30.36 34h17l-52-58.93-30.72 58.93h57.64l-20.12-22.55-6.24 12-8.12-.05zM499 1087l77.305 97.3 84.195 58.17L745 1278s32.003 19.71 59 11.5 67.044-39.16 67.044-39.16L950.5 1191l101-105-53-15.5-68.5 74-58.956 39.8-81.711 58.17-121.378-58.17L626 1153.5l-81-78-46 11.5zM298.52 1405.61l3.98-25.61 185 53.97-7.92 45.74-111.55-27.23-69.51-18.51v-28.36zM1106.06 1447.46l-3.3-22.14L1234 1387.5l12.13 43.43-98.27 24.27-37.66 11.93-4.14-19.67z" fill="#fff"/><path d="M499.998 1213.5c-101.2 100-117.834 249-113.5 311l-99.502-13c-1.6-110.8 39-247.5 59.5-302l39.501-52.5 15.5-20.5 66.5-42.5c149.6-59.6 294-54.83 347.5-45-63 13.17-214.299 64.5-315.499 164.5z" fill="#001647" fill-opacity=".2"/><path d="M486.11 1481.21l-193.26-44.42M1113.35 1472.52l133.13-39.83M492.5 1084.5s89.937 150.47 286.741 208.82a40.82 40.82 0 0024.553-.43c34.883-11.74 151.706-86.39 241.706-205.39" stroke="#000" stroke-width="20" stroke-miterlimit="10"/><path d="M990.5 1072.5c-28.8 37.6-73.707 80.68-87.81 92.27-48.15 38.34-82.19 60.85-97 69.77a38.356 38.356 0 01-15.676 5.27 38.355 38.355 0 01-16.434-1.84c-82.55-28.02-139.29-79.2-139.29-79.2-23.597-19.92-70.59-65.97-85.79-86.77" stroke="#000" stroke-width="20" stroke-miterlimit="10"/><path d="M289.5 1512.5c-2.103-35.58 1.077-85.91 10.812-139.5M1269 1511.5c-9.61-43.23-19.35-85.82-29.93-126.5m-154.57-48c6.84 20.52 15.17 52.22 23.62 87.5m19.88 88c-6.23-29.03-13.1-59.67-19.88-88m-626.62 88c.187-18.42 2.589-50.06 6.923-83m13.577-74c-5.617 21.68-10.187 48.24-13.577 74m619.697-5l130.95-39.5m0 0c-25.78-99.05-56.56-186.72-102.57-244.5-90-113-548-134.51-706.5-26-71.116 48.69-111.652 159.2-129.688 258.5m188.111 56.5L300.312 1373" stroke="#000" stroke-width="20" stroke-linecap="round"/></g><defs><clipPath id="prefix__clip0_53_28824"><path fill="#fff" d="M0 0h1500v1500H0z"/></clipPath></defs>
      <g clip-path="url(#prefix__clip0_299_662)"><path d="M775 1185c231.41 0 419-168.12 419-375.5 0-207.383-187.59-375.5-419-375.5-231.407 0-419 168.117-419 375.5 0 207.38 187.593 375.5 419 375.5z" fill="#ABF"/><path d="M457.5 796c7.6 194 131.833 327.5 193 370l-130-55.5L438 1034l-57.5-89.5-27-106 11-104L394 662l45-82.5 83.5-69.5 109-54.182 28.5-1C569.452 513.314 451.119 633.132 457.5 796z" fill="#001647" fill-opacity=".2"/><path d="M775 1185c231.41 0 419-168.12 419-375.5 0-207.383-187.59-375.5-419-375.5-231.407 0-419 168.117-419 375.5 0 207.38 187.593 375.5 419 375.5z" stroke="#000" stroke-width="20"/></g><defs><clipPath id="prefix__clip0_299_662"><path fill="#fff" d="M0 0h1500v1500H0z"/></clipPath></defs>
      <g clip-path="url(#prefix__clip0_53_29082)" stroke="#000" stroke-width="20" stroke-linecap="round"><path d="M844.63 1012.87h141.62M827.45 803.95l-27.11-16.78-29.02-17.97-36.82-22.79"/><path d="M802.81 799.069a29.91 29.91 0 11-31.49-29.87l29 18a29.701 29.701 0 012.49 11.87z" fill="#000"/><path d="M1067.45 746.41l-36.82 22.79-29.02 17.97-27.11 16.78"/><path d="M999.14 799.069c0 5.848 1.71 11.568 4.93 16.452a29.947 29.947 0 0013.17 11.027 29.898 29.898 0 0017.06 1.964 29.883 29.883 0 0015.33-7.744 29.875 29.875 0 007.48-32.043 29.859 29.859 0 00-10.31-13.732 29.918 29.918 0 00-16.17-5.794l-29 18a29.701 29.701 0 00-2.49 11.87z" fill="#000"/></g><defs><clipPath id="prefix__clip0_53_29082"><path fill="#fff" d="M0 0h1500v1500H0z"/></clipPath></defs>
      <g clip-path="url(#prefix__clip0_53_27007)"><path d="M732.51 716.382a.135.135 0 00.059.011.129.129 0 00.057-.019.113.113 0 00.04-.044.108.108 0 00.014-.058c-.06-3.15 0-44.08 43-42 0 0 36.07 2.11 40.57 41.22a.12.12 0 00.17.1c2.54-1.13 38.11-16.18 57.7 13.29 19.59 29.47-10.28 56.51-12.25 58.22a.13.13 0 000 .18c2 1.86 33.67 28.35 16.711 57.94-16.96 29.59-54 16.2-56.56 15a.111.111 0 00-.161.09c-.42 2.79-6.86 41.59-40.73 43-33.87 1.41-44.86-36.09-45.57-38.67a.111.111 0 00-.022-.045.117.117 0 00-.04-.03.141.141 0 00-.049-.009.112.112 0 00-.048.014c-2.36 1.15-36.651 17.15-57.701-14.5-21.05-31.65 7.131-55.44 9.141-57.07a.116.116 0 00.034-.039.113.113 0 00-.034-.141c-2.05-1.74-31.9-28-11-61.24 19.98-31.71 53.949-16.48 56.669-15.2zM1031.34 715.128c.02.011.04.018.06.018.02.001.04-.005.06-.015.01-.01.03-.026.04-.044a.117.117 0 00.01-.059c0-3.16 1.3-44.07 44.21-40.72 0 0 36 3.16 39.35 42.39 0 .018.01.036.02.051s.02.028.04.038c.01.01.03.016.05.018.01.002.03-.001.05-.007 2.58-1 38.57-15.06 57.3 15 18.73 30.06-11.93 56.18-14 57.84a.29.29 0 00-.03.041c-.01.015-.01.032-.01.049s0 .034.01.05c.01.015.02.029.03.04 1.92 1.91 32.83 29.31 15 58.41-17.83 29.1-54.44 14.61-57 13.32-.02-.01-.03-.016-.05-.018a.14.14 0 00-.06.01c-.01.008-.03.021-.04.036a.098.098 0 00-.02.052c-.5 2.78-8.07 41.37-42 41.82-33.93.45-43.78-37.39-44.42-40 0-.016-.01-.031-.02-.044-.01-.013-.03-.024-.04-.032-.02-.007-.03-.011-.05-.012a.125.125 0 00-.05.008c-2.39 1.09-37.13 16.08-57.25-16.17-20.12-32.25 8.75-55.21 10.8-56.78a.107.107 0 00.046-.09.116.116 0 00-.012-.051.116.116 0 00-.034-.039c-2-1.8-31.07-28.87-9.18-61.53 21-31.16 54.51-14.94 57.19-13.58z" fill="#4AEEB9" stroke="#000" stroke-width="20" stroke-miterlimit="10"/><circle cx="1072" cy="789" r="54" fill="#FFBF44" stroke="#000" stroke-width="20"/><circle cx="776" cy="789" r="54" fill="#FFBF44" stroke="#000" stroke-width="20"/><path d="M753.5 733.5c-4.8-37.2 17-50.167 28.5-52-14.8-4.4-31.833 3.5-38.5 8-2.333 3.5-7.5 11.3-9.5 14.5-2.5 4-4 8.5-5.5 9s-21.5 2-22.5 2-26 10.5-26.5 11.5-10 25-10 26c0 .8 4.667 29.333 7 43.5-2.833 6.666-9 21.9-11 29.5-2 7.6 20.5 30.5 32 41l38 2.5 37.5 33.5c19 .5 49.4-.3 19-7.5s-33.667-34.667-31.5-47.5c-1.333-2.834-4.4-8.8-6-10-2-1.5-16.5-17-17-18s-7-11.5-7.5-34c-.4-18 15.5-42.167 23.5-52zM1051.13 733.5c-4.8-37.2 17-50.167 28.5-52-14.8-4.4-35.84 3.5-42.51 8-2.33 3.5-7.5 11.3-9.5 14.5-2.5 4-4 8.5-5.5 9s-21.5 2-22.495 2c-1 0-26 10.5-26.5 11.5s-10 25-10 26c0 .8 4.667 29.333 7 43.5-2.833 6.666-9 21.9-11 29.5-2 7.6 20.5 30.5 32 41l37.995 2.5 37.5 33.5c19 .5 54.4-.3 24-7.5s-33.66-34.667-31.5-47.5c-1.33-2.834-9.4-8.8-11-10-2-1.5-16.5-17-17-18s-7-11.5-7.5-34c-.4-18 19.51-42.167 27.51-52z" fill="#001647" fill-opacity=".2"/><path d="M871.488 797.371s52.42-23.07 104.84 0M370.09 692.07L681 789.5" stroke="#000" stroke-width="20" stroke-miterlimit="10"/><path d="M732.51 716.382a.135.135 0 00.059.011.129.129 0 00.057-.019.113.113 0 00.04-.044.108.108 0 00.014-.058c-.06-3.15 0-44.08 43-42 0 0 36.07 2.11 40.57 41.22a.12.12 0 00.17.1c2.54-1.13 38.11-16.18 57.7 13.29 19.59 29.47-10.28 56.51-12.25 58.22a.13.13 0 000 .18c2 1.86 33.671 28.35 16.711 57.94-16.96 29.59-54 16.2-56.56 15a.111.111 0 00-.161.09c-.42 2.79-6.86 41.59-40.73 43-33.87 1.41-44.86-36.09-45.57-38.67a.111.111 0 00-.022-.045.117.117 0 00-.04-.03.141.141 0 00-.049-.009.112.112 0 00-.048.014c-2.36 1.15-36.651 17.15-57.701-14.5-21.05-31.65 7.131-55.44 9.141-57.07a.116.116 0 00.034-.039.113.113 0 00-.034-.141c-2.05-1.74-31.9-28-11-61.24 19.98-31.71 53.949-16.48 56.669-15.2zM1031.34 715.128c.02.011.04.018.06.018.02.001.04-.005.06-.015.01-.01.03-.026.04-.044a.117.117 0 00.01-.059c0-3.16 1.3-44.07 44.21-40.72 0 0 36 3.16 39.35 42.39 0 .018.01.036.02.051s.02.028.04.038c.01.01.03.016.05.018.01.002.03-.001.05-.007 2.58-1 38.57-15.06 57.3 15 18.73 30.06-11.93 56.18-14 57.84a.29.29 0 00-.03.041c-.01.015-.01.032-.01.049s0 .034.01.05c.01.015.02.029.03.04 1.92 1.91 32.83 29.31 15 58.41-17.83 29.1-54.44 14.61-57 13.32-.02-.01-.03-.016-.05-.018a.14.14 0 00-.06.01c-.01.008-.03.021-.04.036a.098.098 0 00-.02.052c-.5 2.78-8.07 41.37-42 41.82-33.93.45-43.78-37.39-44.42-40 0-.016-.01-.031-.02-.044-.01-.013-.03-.024-.04-.032-.02-.007-.03-.011-.05-.012a.125.125 0 00-.05.008c-2.39 1.09-37.13 16.08-57.25-16.17-20.12-32.25 8.75-55.21 10.8-56.78a.107.107 0 00.046-.09.116.116 0 00-.012-.051.116.116 0 00-.034-.039c-2-1.8-31.07-28.87-9.18-61.53 21-31.16 54.51-14.94 57.19-13.58z" stroke="#000" stroke-width="20" stroke-miterlimit="10"/><circle cx="776" cy="789" r="54" stroke="#000" stroke-width="20"/><circle cx="1072" cy="789" r="54" stroke="#000" stroke-width="20"/></g><defs><clipPath id="prefix__clip0_53_27007"><path fill="#fff" d="M0 0h1500v1500H0z"/></clipPath></defs>
      <g clip-path="url(#prefix__clip0_53_25947)"><path d="M500.535 506.546l-86.766 95.707-7.523 25.92-16.551-12.96-123.378 40.875-14.044 29.908 38.117 21.434-11.034 19.939-6.018 32.899 69.212 2.493 20.563-6.979v-23.428l137.422-35.89 281.864-43.866 203.123-20.437 163.498 6.48-33.6-56.826-44.64-50.844-54.16-42.37-85.264-40.376-123.88-18.942-155.477 10.468-151.464 66.795z" fill="#FF9C07"/><path d="M694 440.501c-103.2 71.6-160.666 198.166-176.5 252.5L370 722.5l-9.5 37.5-89-3.5 41-55c-25.333 4.833-73.8 8.7-65-14.5 8.8-23.2 106.334-58 154-72.5 21.167-27.666 81.2-92.799 152-131.999 70.8-39.2 123.167-44.334 140.5-42z" fill="#001647" fill-opacity=".2"/><path d="M365.792 728.466c72.883-19.54 500.224-129.064 779.298-89.346a6.808 6.808 0 006.69-2.99 6.798 6.798 0 001.14-3.625 6.771 6.771 0 00-1.01-3.663c-30.29-49.757-159.878-231.859-425.302-199.957-291.002 34.953-357.366 241.26-369.322 291.436a6.753 6.753 0 00.09 3.482 6.788 6.788 0 001.815 2.979 6.887 6.887 0 006.55 1.675l.051.009z" stroke="#000" stroke-width="20" stroke-miterlimit="10" stroke-linecap="round"/><path d="M383.466 645.541s-81.54 45.161-109.476 97.86a10.079 10.079 0 00-1.194 4.686 10.226 10.226 0 001.124 4.705 10.135 10.135 0 003.2 3.649 10.065 10.065 0 004.524 1.765c15.417 1.993 52.882 5.981 78.46 1.565l6.019-31.902" stroke="#000" stroke-width="20" stroke-miterlimit="10" stroke-linecap="round"/><path d="M397.098 616.6s-103.267 16.948-146.529 61.012a10.068 10.068 0 00-1.338 12.529 10.14 10.14 0 003.213 3.163 81.476 81.476 0 0051.308 11.744" stroke="#000" stroke-width="20" stroke-miterlimit="10" stroke-linecap="round"/></g><defs><clipPath id="prefix__clip0_53_25947"><path fill="#fff" d="M0 0h1500v1500H0z"/></clipPath></defs>
      
    </g>
    </svg>