<svg
      xmlns="http://www.w3.org/2000/svg"
      preserveAspectRatio="xMidYMin meet"
      fill="none"
      viewBox="0 0 1500 1500"
    >
      <g>
      <path fill="url(#prefix__paint0_linear_53_28789)" d="M0 0h1500v1500H0z"/><defs><linearGradient id="prefix__paint0_linear_53_28789" x1="1500" y1="1500" x2="0" y2="0" gradientUnits="userSpaceOnUse"><stop stop-color="#FFD130"/><stop offset="1" stop-color="#FFEEDB"/></linearGradient></defs>
      <g clip-path="url(#prefix__clip0_53_28474)"><path d="M122.998 1161.5c14.121 62.61 139.834 114.33 195.5 134L364 1201l48.5-61.5L489 1095c2.167-3.67 2-17.1-16-41.5s-124.833-78.168-176-102.001c-53.334-29-169.801-84.7-209-75.5-39.2 9.2-20.668 64.834-6.502 91.5C39.998 1017.5 108 1095 122.998 1161.5zM1342.5 1074c13.6 92.4-91.33 162.16-145.5 185.5l-14-39.5-51-74-34.5-27-86-34.5 157-130.5c29.5-23.834 97.8-77.402 135-101.002 37.2-23.6 41.5 45.5 39 83 37.6 14 15.67 97.832 0 138.002z" fill="#fff"/><path d="M460.5 1094.5c-138.4 66.4-174 309.33-174.5 422.5h983.5c-12.5-72.17-53.2-244.1-116-354.5-78.5-138-520-151-693-68z" fill="#ABF"/><path d="M318.168 1296.4s-215.92-63.56-205.6-189.48c0 0-89.52-111.04-29.44-142.42 0 0-12.34-21.16-20.07-44.64-9.49-28.89 18.8-55.78 47.16-44.89C213.227 914.543 427.304 991.783 491.432 1082M83.129 964.5s51.46 96.08 179.63 137.73M112.57 1106.92S166.49 1174 273.74 1203" stroke="#050505" stroke-width="20" stroke-miterlimit="10" stroke-linecap="round"/><path d="M1202.62 1261.44l10.19-5.86s165.74-90 129-196c0 0 52.43-115.302-6.2-129.002a234.657 234.657 0 007.38-42.83c1.78-26.92-28.49-43.83-50.49-28.18-41.92 29.84-112.04 79.47-174.41 133.29l-97.64 82.642M1335.61 930.578s-23 94.002-124 158.242" stroke="#050505" stroke-width="17.76" stroke-miterlimit="10" stroke-linecap="round"/><path d="M500.002 1213.5c-101.2 100-117.834 249-113.5 311l-99.502-13c-1.166-80.71 20.062-175.17 39.601-241.58L313.5 1295c-59.833-15.83-182.2-65.6-193-138-13.5-90.5-43-74-51.5-122-6.8-38.4 5.5-65 12.5-73.5-14.667-23.167-33.8-73 7-87s228.333 82.833 317 133l79.5 71-41 21.5-23.507 24.36 47.508-30.36c149.6-59.6 294-54.83 347.5-45-63 13.17-214.299 64.5-315.499 164.5zM1314 856.5c-37.6 72.8-194 181.67-267.5 227l-25-11c66.67-51.67 207.3-161.8 236.5-189 29.2-27.2 49.5-29.333 56-27zM1240 1094.5c-24.8 17.2-32 7.17-32.5 0 27.6-11.6 73.5-66.83 93-93l39-66 12.5 14c-15 66-81 123.5-112 145zM1238 1190.5c-17.6 7.2-20.33-3-19.5-9l58-46 65.86-64.5.14 32.5-.14.2c-24.57 36.95-82.4 77.82-104.36 86.8z" fill="#001647" fill-opacity=".2"/><path d="M1218.5 1181.5c-.83 6 1.9 16.2 19.5 9 21.96-8.98 79.79-49.85 104.36-86.8 8.22-12.4 19.74-29.8.14-.2l-.14-32.5-65.86 64.5-58 46z" fill="#001647" fill-opacity=".2"/><path d="M1342.36 1103.7l.14-.2c19.6-29.6 8.08-12.2-.14.2z" fill="#001647" fill-opacity=".2"/><path d="M1341.81 1059.61s-31.54 69.62-117.36 118.35" stroke="#050505" stroke-width="17.76" stroke-miterlimit="10" stroke-linecap="round"/><path d="M289.5 1512.5c-6-101.5 31-323.03 140.5-398 158.5-108.51 616.5-87 706.5 26 64.91 81.5 99.5 222.5 132.5 371M1084.5 1337c12.33 37 29.5 110.3 43.5 175.5m-646.5 0c.333-32.83 7.7-107.6 20.5-157" stroke="#000" stroke-width="20" stroke-linecap="round"/></g><defs><clipPath id="prefix__clip0_53_28474"><path fill="#fff" d="M0 0h1500v1500H0z"/></clipPath></defs>
      <g clip-path="url(#prefix__clip0_299_662)"><path d="M775 1185c231.41 0 419-168.12 419-375.5 0-207.383-187.59-375.5-419-375.5-231.407 0-419 168.117-419 375.5 0 207.38 187.593 375.5 419 375.5z" fill="#ABF"/><path d="M457.5 796c7.6 194 131.833 327.5 193 370l-130-55.5L438 1034l-57.5-89.5-27-106 11-104L394 662l45-82.5 83.5-69.5 109-54.182 28.5-1C569.452 513.314 451.119 633.132 457.5 796z" fill="#001647" fill-opacity=".2"/><path d="M775 1185c231.41 0 419-168.12 419-375.5 0-207.383-187.59-375.5-419-375.5-231.407 0-419 168.117-419 375.5 0 207.38 187.593 375.5 419 375.5z" stroke="#000" stroke-width="20"/></g><defs><clipPath id="prefix__clip0_299_662"><path fill="#fff" d="M0 0h1500v1500H0z"/></clipPath></defs>
      <g clip-path="url(#prefix__clip0_53_29369)" stroke="#000" stroke-width="20" stroke-miterlimit="10"><path d="M729.63 808.821l88.08-16a7.737 7.737 0 006.23-6.4 7.757 7.757 0 00-.73-4.64 7.674 7.674 0 00-3.27-3.35l-82.39-43.72M1087 808.821l-87.999-16a7.71 7.71 0 01-6.23-6.4 7.784 7.784 0 01.72-4.63 7.65 7.65 0 013.28-3.36l82.389-43.72" stroke-linecap="round"/><path d="M1000 1001.64c0 35-39.4 63.36-88 63.36s-88-28.36-88-63.36a47.358 47.358 0 014.59-20.231c6.41-13.7 21-19 33.42-12.86 14.2 7.07 31.42 11.21 50 11.21s35.79-4.14 50-11.21c12.4-6.18 27-.84 33.42 12.86a47.337 47.337 0 014.57 20.231z" fill="#fff"/></g><defs><clipPath id="prefix__clip0_53_29369"><path fill="#fff" d="M0 0h1500v1500H0z"/></clipPath></defs>
      <g clip-path="url(#prefix__clip0_53_26707)"><path d="M1086 1014c0 39.21-75.66 71-169 71-93.336 0-169-31.76-169-71 0-39.241 75.664-101 169-101 93.34 0 169 61.788 169 101z" fill="#ABF"/><path d="M797.83 990.76s-2.26-46.71 35.63-47.76l12.4-.07 3.7 53.67-51.73-5.84zM796.078 999.77h59.58l3.78 54.84-37.21-2.24-13.26-25.18-12.89-27.42z" fill="#C6C6C6"/><path d="M845.859 942.93l34.49 8.62 26.47-3.52 5.08 50.29-56.24 1.45-9.8-56.84z" fill="#C6C6C6"/><path d="M910.488 947.172h68.54l.03 51.15h-67.16l-1.41-51.15zM983.589 944.871l17.001 2.3 24.03 9.66 9.05 28.5-.91 12.99h-53.701l4.53-53.45z" fill="#C6C6C6"/><path d="M849.559 996.602l62.34 1.72 7.38 54.048-59.84 2.24-9.88-58.008zM918.461 999.77h64.2l-8.03 54.84-55.35-2.24-.82-52.6z" fill="#C6C6C6"/><path d="M975.289 994.512l63.171 5.26-6.4 30.408-34.761 26.48-17.86-2.05-4.15-60.098z" fill="#C6C6C6"/><path d="M797.489 985.841c-1.87-27.17 21.28-47.59 48.37-42.91 20 3.45 43.93 5.16 69 5.16s48.63-1.84 68.06-5.36c26.511-4.82 52.631 15.6 54.521 42.87l1.08 15.709c2 29.44-20.17 53.3-49.601 53.3h-133.4c-29.43 0-54.94-23.86-57-53.3l-1.03-15.469zM798.352 998.309h234.408M912.512 954.172l6.78 98.198M845.031 947.172l14.26 105.198M979.031 947.172l.26 105.198" stroke="#000" stroke-width="20" stroke-miterlimit="10"/><path d="M830.5 966l2 14m63-13l1 14m-59 37l2 14m60-15l1 14m61-65v15m0 36v18m56-59v6m0 35v7" stroke="#fff" stroke-width="8" stroke-linecap="round"/></g><defs><clipPath id="prefix__clip0_53_26707"><path fill="#fff" d="M0 0h1500v1500H0z"/></clipPath></defs>
      <g clip-path="url(#prefix__clip0_53_25796)"><path d="M661.719 466.272s.681-50.314 11.211-50.049c10.531.266 30.241-4.165 30.241-4.165l31.003 15.989 25.638-5.424 28.99-24.747 27.071-1.791 27.883 14.121 15.446 18.681 23.411.145 50.96-13.954 24.276 23.68-19.232 52.574-44.507-21.369-17.618-6.041-23.175-7.036-28.049-1.943-32.388-.112-55.638 3.68-50.45 8.949-25.073-1.188z" fill="#97A5DE"/><path d="M718.506 479.214s19.322 40.453 64.014 34.31c44.692-6.143 83.522-32.583 83.522-32.583l10.406-17.065-81.463-14.775-84.096 14.041s-8.664 11.898 7.617 16.072z" fill="#7985B4"/><path d="M662.843 469.488s-13.534-58.554 30.087-60.287c15.493-.614 25.434 4.992 32.226 12.21 13.894 14.755 29.392 7.707 38.346-2.386 11.842-13.391 27.482-26.021 44.854-27.17 20.226-1.338 34.215 14.393 42.889 29.474 6.094 10.621 21.799 13.651 33.204 6.683 11.953-7.315 28.35-12.9 48.081-8.683 42.964 9.245 6.064 69.091 6.064 69.091" stroke="#000" stroke-width="18.1" stroke-miterlimit="10" stroke-linecap="round"/><path d="M630.048 507.634S655.324 462.566 681.5 468c40.502 8.395 74.399 69.733 74.399 69.733M800.818 537.268s38.761-65.501 93.251-67.301c54.49-1.801 48.429 57.93 48.429 57.93M682 468s137.209-40.275 226.408 2.982M736.796 506.5s35.103 14.655 86.489 1.675" stroke="#000" stroke-width="20" stroke-miterlimit="10" stroke-linecap="round"/><path d="M524.05 624.001H372.24l-43.13-19.78s-72.43-23.64-85.41 29.91c-12.98 53.55 34.75 44.6 34.75 44.6s-45.81 43.55-16.62 68.07c29.19 24.52 58.17 3.2 58.17 3.2l55.73-43.57 63.59-21.11 92.15-13-7.42-48.32zM1126.86 589.612c-9.68-10.68 75.59-13.43 75.59-13.43s27.66-4.43 36.69-30.55c9.03-26.12 38.53-30.28 38.53-30.28s38.21 12.31 29 44c-9.21 31.69 10.5 44 10.5 44s12.81 58.24-40.75 55.76c-53.56-2.48-55.2-30.76-55.2-30.76l-66 2.52s-16.71-28.42-28.36-41.26z" fill="#fff"/><path d="M1279.5 634.501c23.6 5.6 31.17-11.333 32-20.5l8 7.5-5 17-24.5 25-36-13.5-33-19-70.5-1.5-7.83.81a6.53 6.53 0 01-7.18-5.999c-.28-3.518 2.29-6.616 5.8-6.971 22.02-2.223 61.62-5.426 83.71-4.34 30.5 1.5 25 14.5 54.5 21.5zM529.5 620.001v57l-58.5 4.501-75 17-53 32c-10.334 13-39 37.1-71 29.5-32-7.6-16.334-55.5-4.5-78.5l-20-18c-3.333-5.667-5.2-23.801 14-51.001s60.333-9.666 78.5 2.5l81.5 14 108-9z" fill="#001647" fill-opacity=".2"/><path d="M526.69 623.94l-145.35 2.66a64.43 64.43 0 01-44.57-16.4c-12.86-11.67-34.73-22.77-65.59-8.84 0 0-65.17 40.65 0 81.94" stroke="#000" stroke-width="20" stroke-miterlimit="10" stroke-linecap="round"/><path d="M295.7 644.59s-.18 19.51-27.86 45.1c-17.07 15.77-20.84 41.45-4.91 58.31 8.75 9.23 22.18 14.55 42.8 8.43a61.192 61.192 0 0030.59-21.24c13.39-17.14 56.48-51.3 190.37-62.84M1117.19 591.529l92.63-16.67a36.005 36.005 0 0026.64-22.47c7.13-18.46 15.42-38.91 44.83-36.9 27.68 1.88 32.59 21.2 26.68 40.14a96.017 96.017 0 01-15.43 29.29c-4.42 5.82-8.81 11.59-9.64 18.51" stroke="#000" stroke-width="20" stroke-miterlimit="10" stroke-linecap="round"/><path d="M1149 637.142l65.26-4.68c4.76-.234 9.53.475 14.02 2.089a36.21 36.21 0 0112.14 7.311c12.37 11.19 34.93 25.72 58.22 11.3 34.81-21.55 19.89-63 0-75.15M516.69 600.172c16.2 32.89 16.56 48.32 12.7 86.1l-1.66 7.44" stroke="#000" stroke-width="20" stroke-miterlimit="10" stroke-linecap="round"/></g><defs><clipPath id="prefix__clip0_53_25796"><path fill="#fff" d="M0 0h1500v1500H0z"/></clipPath></defs>
      
    </g>
    </svg>