<svg
      xmlns="http://www.w3.org/2000/svg"
      preserveAspectRatio="xMidYMin meet"
      fill="none"
      viewBox="0 0 1500 1500"
    >
      <g>
      <path fill="url(#prefix__paint0_linear_53_30462)" d="M0 0h1500v1500H0z"/><defs><linearGradient id="prefix__paint0_linear_53_30462" x1="0" y1="0" x2="1500" y2="1500" gradientUnits="userSpaceOnUse"><stop stop-color="#FFC4F6"/><stop offset="1" stop-color="#FF3DB1"/></linearGradient></defs>
      <g clip-path="url(#a)"> <path fill="#fff" d="M1263 1505H288.3l10.8-105.6 40-155.8 35.9-75.1 44.5-48.5 46.8-17.9 3.3-40 40 38 77.8 44.2 83.8 32L787 1185l98-11 109.9-41.4 49.7-33.3 46.3 6.2 36.5 27.1 34 41.3 36.7 86.3 28.6 82.3L1263 1505Z"/> <path fill="#000" d="M693 1500h-19.8l-8.2-245.3 19.8-.7 8.2 246Zm105 0a29.5 29.5 0 0 0-57 0h23a9.3 9.3 0 0 1 5.2-1.9h.4c2 0 4 .7 5.6 1.9h23Zm106 0a29.5 29.5 0 0 0-57 0h23a9.3 9.3 0 0 1 5.2-1.9h.4c2 0 4 .7 5.6 1.9h23Z"/> <path stroke="#000" stroke-miterlimit="10" stroke-width="20" d="M765.7 1439.8a19.5 19.5 0 1 0 0-39 19.5 19.5 0 0 0 0 39Zm106 0a19.5 19.5 0 1 0 0-39 19.5 19.5 0 0 0 0 39Zm-109.8-87.3a19.5 19.5 0 1 0 0-39 19.5 19.5 0 0 0 0 39Zm106 0a19.5 19.5 0 1 0 0-39 19.5 19.5 0 0 0 0 39Z"/> <path stroke="#000" stroke-linecap="round" stroke-width="20" d="M289.5 1512.5c-6-101.5 31-323 140.5-398 158.5-108.5 616.5-87 706.5 26 65 81.5 99.5 222.5 132.5 371M1084.5 1337c12.3 37 29.5 110.3 43.5 175.5m-646.5 0c.3-32.8 7.7-107.6 20.5-157"/> <path stroke="#000" stroke-miterlimit="10" stroke-width="20" d="M472.7 1069.5s-4.8 7.5-7.7 21.8a99.8 99.8 0 0 0 49.6 107.9c41.8 23.7 178.5 88.8 373.1 56.5 39-6.5 148.1-31.8 186.1-123.6a32 32 0 0 0 1.7-5.3c1.6-7.5 4.6-27-.8-54.9"/> <path fill="#fff" d="m467.6 1110.5 7.4-39 62.5-15.5 72-5.5 53-8h147l104.5 8 107 8.1 53.6 19-3.8 40.8-21.3 55-90.7 68.1-76.5 24.3-77.8 2.7-60.7-2.7-58.8 2.7-143.7-46.2-68.6-65.1-5.1-46.7Z"/> <path stroke="#000" stroke-width="20" d="M535 1214c-83.6-40.4-76.5-113.2-62.5-144.5 266-49.2 513.5-20.2 604 .5 22 122.8-114.2 176.5-193 192-.3 0-33.7 6.5-77.5 8a472.5 472.5 0 0 1-75.4-3 549.7 549.7 0 0 1-195.6-53Z"/> <path fill="#001647" fill-opacity=".2" d="M488 1226.5c-89.6 98.8-104.7 230.8-101 284.5h-98c2.3-44.8 14.5-159.8 44.5-261 30-101.2 96.8-141.8 126.5-149.5l15-26h42l56.5-15.5 124.5-10h121c-150.4 32.8-264 112.7-302 148.5l56.5 29 95 23.5 127 20c-27.2 13.2-89.3 14.5-117 13.5l4 227.5H652l-7-227.5c-80.8-6-138.3-40.5-157-57Z"/> </g> <defs> <clipPath id="a"> <path fill="#fff" d="M0 0h1500v1500H0z"/> </clipPath> </defs>
      <g clip-path="url(#prefix__clip0_299_662)"><path d="M775 1185c231.41 0 419-168.12 419-375.5 0-207.383-187.59-375.5-419-375.5-231.407 0-419 168.117-419 375.5 0 207.38 187.593 375.5 419 375.5z" fill="#ABF"/><path d="M457.5 796c7.6 194 131.833 327.5 193 370l-130-55.5L438 1034l-57.5-89.5-27-106 11-104L394 662l45-82.5 83.5-69.5 109-54.182 28.5-1C569.452 513.314 451.119 633.132 457.5 796z" fill="#001647" fill-opacity=".2"/><path d="M775 1185c231.41 0 419-168.12 419-375.5 0-207.383-187.59-375.5-419-375.5-231.407 0-419 168.117-419 375.5 0 207.38 187.593 375.5 419 375.5z" stroke="#000" stroke-width="20"/></g><defs><clipPath id="prefix__clip0_299_662"><path fill="#fff" d="M0 0h1500v1500H0z"/></clipPath></defs>
      <g clip-path="url(#prefix__prefix__clip0_53_29477)"><path d="M1046 825a40.998 40.998 0 0037.88-25.31 41.043 41.043 0 002.33-23.689 40.939 40.939 0 00-11.22-20.992 40.99 40.99 0 00-44.68-8.888 40.977 40.977 0 00-18.4 15.101 40.996 40.996 0 005.1 51.769A41.006 41.006 0 001046 825z" fill="#000"/><path d="M729.63 808.821l88.08-16a7.737 7.737 0 006.23-6.4 7.757 7.757 0 00-.73-4.64 7.674 7.674 0 00-3.27-3.35l-82.39-43.72m99.27 256.728c38.57 39.211 113.35 39.211 151.93 0" stroke="#000" stroke-width="20" stroke-miterlimit="10" stroke-linecap="round"/></g><defs><clipPath id="prefix__prefix__clip0_53_29477"><path fill="#fff" d="M0 0h1500v1500H0z"/></clipPath></defs>
      <g clip-path="url(#prefix__clip0_53_27047)"><path d="M366 832l16.5 16c15 22.5 75.8 72.4 199 92 123.2 19.6 226.667-14.167 263-33.5l61-40.5 49 22c53.6 26 127.67 23.167 158 18.5L1178 888c-53.5 175.5-191 240.5-256 263.5-63.5 22.47-210 48.5-348.5-23.5C418.003 1047.16 374 922 366 832z" fill="#3A3A3A"/><path d="M380.5 944.501l-27-106c0-11.2 108.5 85.499 192.593 85.5C583.434 1059.9 673.338 1152.84 722.5 1187L617 1157.5l-96.5-47L438 1034l-57.5-89.499z" fill="#000" fill-opacity=".2"/><path d="M1182.5 885c-160.5 56.32-224.81 6.02-257.92-13.42a32.51 32.51 0 00-38.35 4.06c-28.08 25.49-93.46 67.68-218.65 67.68-65.693 3.727-219.578-15.02-309.578-119.82" stroke="#000" stroke-width="20" stroke-miterlimit="10"/></g><defs><clipPath id="prefix__clip0_53_27047"><path fill="#fff" d="M0 0h1500v1500H0z"/></clipPath></defs>
      <g clip-path="url(#prefix__clip0_53_25216)"><path d="M661.719 466.274s.681-50.314 11.211-50.049c10.531.266 30.241-4.165 30.241-4.165l31.003 15.989 25.638-5.424 28.99-24.747 27.071-1.791 27.883 14.121 15.446 18.681 23.411.145 50.96-13.954 24.276 23.68-19.232 52.574-44.507-21.369-17.618-6.041-23.174-7.036-28.05-1.943-32.388-.112-55.638 3.68-50.45 8.949-25.073-1.188z" fill="#97A5DE"/><path d="M718.506 479.214s19.322 40.453 64.014 34.31c44.692-6.143 83.522-32.583 83.522-32.583l10.406-17.065-81.463-14.775-84.096 14.041s-8.664 11.898 7.617 16.072z" fill="#7985B4"/><path d="M662.843 469.488s-13.534-58.554 30.086-60.287c15.494-.614 25.435 4.992 32.227 12.21 13.894 14.755 29.392 7.707 38.346-2.386 11.842-13.391 27.482-26.021 44.854-27.17 20.226-1.338 34.215 14.393 42.889 29.474 6.094 10.621 21.799 13.651 33.204 6.683 11.953-7.315 28.35-12.9 48.081-8.683 42.964 9.245 6.064 69.091 6.064 69.091" stroke="#000" stroke-width="18.1" stroke-miterlimit="10" stroke-linecap="round"/><path d="M630.048 507.636s25.276-45.068 51.452-39.634c40.502 8.395 74.399 69.733 74.399 69.733M800.818 537.27s38.761-65.501 93.251-67.301c54.49-1.801 48.429 57.93 48.429 57.93M682 468s137.209-40.275 226.408 2.982M736.796 506.5s35.103 14.655 86.489 1.675" stroke="#000" stroke-width="20" stroke-miterlimit="10" stroke-linecap="round"/><path d="M644.603 542.516l56.89-77.109 53.1-31.06 21.634-1.404 37.197 81.112 21.415 63.676s27.843 59.499-15.545 65.537c-43.387 6.039-91.435-3.37-91.435-3.37L674.535 627.1l-65.745 19.231s-46.205 82.674-91.956 100.812c-45.751 18.138-42.916-1.403-42.916-1.403l-42.859-81.774-19.901-91.615s-13.797-31.572 51.611-31.441c65.408.131 113.385 23.476 113.385 23.476l68.449-21.87z" fill="#F56CDB"/><path d="M505 591c-.4-20.4 9.167-33.5 14-37.5l-7-8-62.5-1-38.5 9 12 63 41 113 26 31.5 72.5-48.5 46.5-63-16.5-43.5-50 18.5c0 8.333-2.7 23.9-13.5 19.5-13.5-5.5-23.5-27.5-24-53zM643 630.5c-30-26.8-29.833-61.167-26-75l-32 6.5 24 78.5 34-10zM747.5 575c7.6-20.8-7.167-31-15.5-33.5-6.5 8-19.6 24.2-20 25-.4.8-26.833 13-40 19-.167 7.5 1.1 22.7 7.5 23.5 8 1 58.5-8 68-34z" fill="#001647" fill-opacity=".2"/><path d="M647.51 541.553l-67.569 24.232 28.887 80.545 67.568-24.233-28.886-80.544z" stroke="#000" stroke-width="20" stroke-miterlimit="10"/><path d="M676.427 621.507s80.65 40.951 156.098 17.871a17.706 17.706 0 009.624-7.279 17.61 17.61 0 002.702-11.737 437.997 437.997 0 00-66.957-184.734l-.109-.158a17.698 17.698 0 00-9.558-7.301 17.761 17.761 0 00-12.032.483C683.202 458.578 647.06 541.311 647.06 541.311M579.903 566.274s-80.652-40.957-156.122-17.874a17.702 17.702 0 00-9.625 7.275 17.604 17.604 0 00-2.703 11.735v0a438.016 438.016 0 0066.938 184.744l.108.168a17.698 17.698 0 009.564 7.29 17.762 17.762 0 0012.03-.491c73.004-29.921 109.151-112.668 109.151-112.668" stroke="#000" stroke-width="20" stroke-miterlimit="10"/><path d="M662.153 582.107s45.412 4.609 61.137-39.852M594.148 606.978s-52.056-3.509-59.752 39.921" stroke="#000" stroke-width="20" stroke-miterlimit="10" stroke-linecap="round"/></g><defs><clipPath id="prefix__clip0_53_25216"><path fill="#fff" d="M0 0h1500v1500H0z"/></clipPath></defs>
      
    </g>
    </svg>