<svg
      xmlns="http://www.w3.org/2000/svg"
      preserveAspectRatio="xMidYMin meet"
      fill="none"
      viewBox="0 0 1500 1500"
    >
      <g>
      <path fill="url(#prefix__paint0_linear_53_28789)" d="M0 0h1500v1500H0z"/><defs><linearGradient id="prefix__paint0_linear_53_28789" x1="1500" y1="1500" x2="0" y2="0" gradientUnits="userSpaceOnUse"><stop stop-color="#FFD130"/><stop offset="1" stop-color="#FFEEDB"/></linearGradient></defs>
      <g clip-path="url(#prefix__clip0_53_28586)"><path d="M1263 1500H289.33l3.73-66.49 17.17-107.35L358 1203l53.62-74.7s38.18-26.49 102.86-54.62S725 1044 725 1044s197-4.48 350.16 55.11C1228.32 1158.7 1263 1500 1263 1500z" fill="#ABF"/><path d="M1122 1500H482.72s14.6-102.81 14.89-104.16c.29-1.35 16.56-62.7 16.56-62.7l45.26-67.61s16.251-30.11 21.61-70.63c4.913-37.15-1.081-84.95 0-86.07 2.26-2.34 4.64-50.26 4.64-50.26l5.36 2.13 72.57-6.85v.09c.09.44.55 2.47 1.49 5.71l.18.63c.12.43.26.88.4 1.35 0 .12.07.23.11.35.09.32.19.64.29 1a.472.472 0 000 .13c3.442 10.98-6.036 73.44 9.92 119.89 20.159 58.69 69.608 102.92 111.27 108.84 1.72.24 3.42.46 5.09.65 46.42 5.32 75.09-9.26 91.78-24.17.21-.18.41-.37.61-.56 14.4-13.07 19.65-26.22 19.65-26.22l8-46.64-16.9-141.05 87 18.15 9.99 63.79 28.54 95.42 43 72 35.15 98.54L1122 1500z" fill="url(#prefix__paint0_linear_53_28586)"/><path d="M970.546 1333.16l5.179-10.34 18.683 25.59.442 4.9-3.038-33.78a2.8 2.8 0 00-.45-1.16 2.799 2.799 0 00-.906-.87l-31.07-17a2.598 2.598 0 00-1.129-.26c-.391 0-.777.09-1.129.26-.09.04-.177.09-.26.15l-.096.07-27.231 16.63-.107.05c-.144.07-.279.16-.403.26-.251.19-.459.43-.611.71-.151.28-.243.59-.269.9-.006.1-.006.2 0 .3l2.474 27.54 13.202-23.72c1.649-3.14 5.757-4.16 9.656-4.1l4.581.12-23.12 43.19 3.337 1.82 23.287-44.98 12.045-.05-23.116 46.12 11.909 6.52 1.423.78c.583.23 1.229.25 1.821.04l28.446-17.38-5.432 3.34-18.118-25.65zm5.283 33.48l-13.03-17.95 5.936-11.85 17.117 23.68-10.023 6.12z" fill="#2D374B"/><path d="M962.799 1348.68l13.03 17.95 10.023-6.11-17.122-23.69-5.931 11.85zM994.853 1353.31l-.443-4.9-18.683-25.58-5.184 10.33 18.121 25.65 5.442-3.32a2.326 2.326 0 00.78-1.85l-.033-.33z" fill="#28A0F0"/><path d="M926.44 1357.94l8.506 4.66 23.121-43.2-4.581-.11c-3.902-.06-8.007.95-9.656 4.1l-13.202 23.72-4.446 7.9.26 2.94-.002-.01zM973.625 1319.4l-12.046.05-23.285 44.98 10.013 5.49 2.203-4.4 23.115-46.12z" fill="#fff"/><path d="M996.926 1319.34a8.612 8.612 0 00-1.378-3.56 8.557 8.557 0 00-2.784-2.61l-31.477-17.22a7.727 7.727 0 00-3.436-.8c-1.192 0-2.367.27-3.436.8-.24.12-27.64 16.87-27.64 16.87a6.85 6.85 0 00-3.764 6.51l3.166 35.67 4.446-7.91-2.474-27.52c-.014-.37.06-.73.215-1.07.155-.33.387-.62.677-.84.128-.1 27.998-17.1 28.095-17.15.352-.17.738-.26 1.129-.26s.776.09 1.129.26l31.07 17.01c.362.21.672.51.907.86.234.35.387.75.448 1.16l3.013 34.1a2.259 2.259 0 01-.721 1.85l-5.45 3.32-2.804 1.72-10.031 6.12-10.171 6.21c-.591.21-1.238.19-1.821-.04l-13.329-7.29-2.203 4.39 11.981 6.56c.396.22.747.41 1.041.56.447.24.752.4.858.45.974.42 2.022.63 3.08.63.94 0 1.872-.17 2.745-.52l29.551-18.04a6.97 6.97 0 001.894-2.58c.421-1 .608-2.08.533-3.16l-3.059-34.48z" fill="#8BBFDF"/><path d="M591 1062.25V1172a195.34 195.34 0 01-46.65 126.63 106.083 106.083 0 00-20.67 37.44 721.566 721.566 0 00-30.63 159.2c-.12 1.56-.24 3.12-.34 4.69h-20v-.69a741.634 741.634 0 0131.88-169.14 125.754 125.754 0 0124.55-44.47c27.011-31.71 41.85-72 41.86-113.66v-109.79c0-2.65 1.054-5.2 2.929-7.07a9.981 9.981 0 017.071-2.93 9.981 9.981 0 017.071 2.93 9.994 9.994 0 012.929 7.07v.04zM1132 1499.99h-20.2l-.09-.45c-13.68-67.64-25.68-115.81-49.89-176.59a229.608 229.608 0 00-22.36-42.48 355.4 355.4 0 01-51.359-119.1l-5.1-22.21-11.526-66.69a9.987 9.987 0 011.282-7.54 10.006 10.006 0 0113.789-3.15 10.006 10.006 0 014.429 6.24l1.017 4.45 15.588 84.45a336.018 336.018 0 0048.48 112.43c9.7 14.51 17.86 29.99 24.32 46.2 24.77 62.18 37 111.24 50.91 180l.5 2.47c.14.65.21 1.31.21 1.97z" fill="#000"/><path d="M659.5 1051l15.11 128.85c15.21 64.94 82.8 119.21 147.64 114.37 64.84-4.84 105.05-61.36 89.84-126.36L893.5 1051" stroke="#000" stroke-width="20" stroke-miterlimit="10" stroke-linecap="round"/><path d="M500.002 1213.5c-101.2 100-117.834 249-113.5 311l-99.502-13c-1.6-110.8 39-247.5 59.5-302l39.501-52.5 15.5-20.5 66.5-42.5c149.6-59.6 294-54.83 347.5-45-63 13.17-214.299 64.5-315.499 164.5z" fill="#001647" fill-opacity=".2"/><path d="M289.5 1512.5c-6-101.5 31-323.03 140.5-398 158.5-108.51 616.5-87 706.5 26 64.91 81.5 99.5 222.5 132.5 371" stroke="#000" stroke-width="20" stroke-linecap="round"/></g><defs><linearGradient id="prefix__paint0_linear_53_28586" x1="595.499" y1="1136" x2="921.5" y2="1534" gradientUnits="userSpaceOnUse"><stop stop-color="#fff"/><stop offset="1" stop-color="#ECECEC"/></linearGradient><clipPath id="prefix__clip0_53_28586"><path fill="#fff" d="M0 0h1500v1500H0z"/></clipPath></defs>
      <g clip-path="url(#prefix__clip0_299_662)"><path d="M775 1185c231.41 0 419-168.12 419-375.5 0-207.383-187.59-375.5-419-375.5-231.407 0-419 168.117-419 375.5 0 207.38 187.593 375.5 419 375.5z" fill="#ABF"/><path d="M457.5 796c7.6 194 131.833 327.5 193 370l-130-55.5L438 1034l-57.5-89.5-27-106 11-104L394 662l45-82.5 83.5-69.5 109-54.182 28.5-1C569.452 513.314 451.119 633.132 457.5 796z" fill="#001647" fill-opacity=".2"/><path d="M775 1185c231.41 0 419-168.12 419-375.5 0-207.383-187.59-375.5-419-375.5-231.407 0-419 168.117-419 375.5 0 207.38 187.593 375.5 419 375.5z" stroke="#000" stroke-width="20"/></g><defs><clipPath id="prefix__clip0_299_662"><path fill="#fff" d="M0 0h1500v1500H0z"/></clipPath></defs>
      <g clip-path="url(#prefix__clip0_53_29200)"><path d="M764.05 848.209c35.186 0 63.71-28.524 63.71-63.71s-28.524-63.71-63.71-63.71-63.71 28.524-63.71 63.71 28.524 63.71 63.71 63.71z" fill="#000" stroke="#000" stroke-width="20" stroke-miterlimit="10"/><path d="M781.551 780c14.083 0 25.5-11.417 25.5-25.5s-11.417-25.5-25.5-25.5-25.5 11.417-25.5 25.5 11.417 25.5 25.5 25.5zM740.552 791.381c6.009 0 10.88-4.871 10.88-10.88s-4.871-10.88-10.88-10.88-10.88 4.871-10.88 10.88 4.871 10.88 10.88 10.88zM772.151 826.571c10.548 0 19.1-8.551 19.1-19.1 0-10.549-8.552-19.1-19.1-19.1-10.549 0-19.1 8.551-19.1 19.1 0 10.549 8.551 19.1 19.1 19.1z" fill="#fff"/><path d="M1051.05 848.209c35.19 0 63.71-28.524 63.71-63.71s-28.52-63.71-63.71-63.71-63.71 28.524-63.71 63.71 28.52 63.71 63.71 63.71z" fill="#000" stroke="#000" stroke-width="20" stroke-miterlimit="10"/><path d="M1068.55 780c14.08 0 25.5-11.417 25.5-25.5s-11.42-25.5-25.5-25.5-25.5 11.417-25.5 25.5 11.42 25.5 25.5 25.5zM1027.55 791.381c6.01 0 10.88-4.871 10.88-10.88s-4.87-10.88-10.88-10.88c-6.01 0-10.88 4.871-10.88 10.88s4.87 10.88 10.88 10.88zM1059.15 826.571c10.55 0 19.1-8.551 19.1-19.1 0-10.549-8.55-19.1-19.1-19.1s-19.1 8.551-19.1 19.1c0 10.549 8.55 19.1 19.1 19.1z" fill="#fff"/><path d="M905 1002.88L923.13 991a26.135 26.135 0 0010.308-30.616 26.144 26.144 0 00-6.148-9.734v0a26.143 26.143 0 00-19.36-7.629 26.155 26.155 0 00-18.8 8.919L873 970.38M905 1003l18.13 11.88a26.115 26.115 0 0110.312 30.61 26.15 26.15 0 01-6.152 9.73v0a26.233 26.233 0 01-8.883 5.84 26.052 26.052 0 01-10.475 1.81 26.056 26.056 0 01-10.33-2.51 26.14 26.14 0 01-8.472-6.42L873 1035.5" stroke="#000" stroke-width="20" stroke-miterlimit="10" stroke-linecap="round"/></g><defs><clipPath id="prefix__clip0_53_29200"><path fill="#fff" d="M0 0h1500v1500H0z"/></clipPath></defs>
      <path fill-rule="evenodd" clip-rule="evenodd" d="M873.72 749.551a77.974 77.974 0 01-2.12 28.009c-12 46-43.43 116-123.08 116-78.08-.01-109.77-67.3-122.34-113.32a76.54 76.54 0 01-1.491-6.613 575.778 575.778 0 01-19.519-2.647c-19.733-3.014-46.514-8.099-74.574-16.389-28-8.273-57.66-19.85-82.929-36.01-25.242-16.143-46.806-37.321-57.335-65.028l18.696-7.105c8.471 22.292 26.282 40.49 49.415 55.284 23.106 14.778 50.821 25.701 77.82 33.678 26.941 7.96 52.785 12.875 71.927 15.799a560.937 560.937 0 0015.613 2.165c2.272-25.235 17.045-48.105 39.927-58.564C682.92 686 710 679.25 748 678.56c2.1-.04 4.24-.06 6.42-.06 31.85 0 55.55 4.17 73.18 10.32 19.495 6.785 34.154 22.272 41.436 41.234 20.561-6.57 46.94-16.704 73.236-31.517C998.125 667.074 1051.68 615.752 1051.68 534h20c0 92.248-60.95 148.926-119.592 181.963-28.405 16-56.722 26.749-78.368 33.588z" fill="#000"/>
      <g clip-path="url(#prefix__clip0_53_26033)"><path d="M181.5 727.5L92 618l10-25 124.5-66 217-60.5 229-48 340-20.5 347.5 10.5 16 27-45 127.5-105.5-15H908c-109 15.67-349.7 51.6-440.5 70-90.8 18.4-228.5 80.67-286 109.5z" fill="#FF6247"/><path d="M309.008 666.717l-135.654 53.652 22.52-168.239 113.134 114.587zm28.828-8.013l-8.106-1.979 22.532-157.782L471.69 618.441l-133.854 40.263zm153.629-45.511l44.562-162.274 125.132 128.853-67.982 10.002-.239.035-.236.054-101.237 23.33zm464.238-67.473l-99.407 5.763 82.316-151.379 102.518 148.241-84.894-2.632-.267-.008-.266.015zm193.907 3.99l-85.95-.888 94.81-148.188 80.27 154.056-88.86-4.971-.13-.007-.14-.002zm179.89 10.057l-76.78-4.295c.7-.817 1.53-1.785 2.48-2.89 3.28-3.814 7.98-9.265 13.65-15.805 11.35-13.083 26.56-30.521 42.07-47.954 15.52-17.444 31.29-34.837 43.75-47.85 6.24-6.518 11.58-11.86 15.61-15.544.26-.237.51-.466.76-.687-.13 4.233-.99 9.997-2.48 16.974-3.07 14.314-8.58 32.614-14.63 50.784-6.03 18.128-12.53 35.952-17.53 49.256-2.5 6.648-4.62 12.161-6.12 16.008-.28.729-.54 1.398-.78 2.003zm41.03-140.378c-.01-.016-.01-.024-.01-.025 0-.001 0 .007.01.025zM673.795 577.913l55.742-162.117 105.051 138.462-160.793 23.655z" fill="#87C848" stroke="#fff" stroke-width="12"/><path d="M457.56 306.169l-62.25 172.57 277.19-60.24 358.5-29.83c-3.16-12.17-28.7-47-82.7-138.17-143.43-124.29-261.3-91.75-330.3-79.41l-91.47 50.91-68.97 84.17zM1135.5 551.72l-1-4.72h-215l-289 33.5-280 70-2.83 8.19c-38.71 12.84-66.22 23.36-90.81 33.53-30.37 12.53-61.7 25.58-74.56 32 11.32 12.69 31.25 40.16 44.55 50.76 24.57 19.58 70.31 43.26 119.61 53.61 0-2.24-.59-14.78-.54-17 .88-39 3.73-61.39 13.41-91.19L534.5 674 699 637l217.37-20.67 225.78-6a313.3 313.3 0 0125 43.25c9.56 17.72 17.13 40.75 20.69 50.33 44.73-16.27 74.33-38.5 100.13-73.87 9.36-12.77 35.27-52.64 41.25-67.3-57.66-5.64-130.66-9.21-193.72-11.02z" fill="#FFBF44"/><path d="M1141.47 620.319c-426-29-778.47 109.39-778.47 109.39M1173 706.461c133-40 158-147 158-147-722-75-1155.92 166.54-1155.92 166.54S242 818.461 359 834.461" stroke="#000" stroke-width="20" stroke-miterlimit="10"/><path d="M175.08 726L97 620.69a22.873 22.873 0 01-.06-27.198 22.87 22.87 0 017.22-6.382c92.21-51.85 477.09-234.48 1247.25-181.78a23.03 23.03 0 019.95 3.039 22.999 22.999 0 017.61 7.102 22.965 22.965 0 013.72 9.722c.48 3.482.17 7.027-.93 10.367L1331 559.46" stroke="#000" stroke-width="20" stroke-miterlimit="10"/><path d="M395.31 478.74l37.8-117.19C521.92 100 857.42 87.91 990.25 309l45.5 89" stroke="#000" stroke-width="20" stroke-miterlimit="10"/><path d="M636 169.5c-34.167 30.833-105.4 123-117 245C580 397 764 363 1012 367l20.5 27.5L828 403l-40.5 13.5c-65.667 18.667-222.2 85.1-323 201.5l-32.665 11.27c34.77-10.972 66.486-20.622 90.665-27.77L803 556l267.5-11 254.5 16-30.5 63-50.5 41-59 32.5c-24.4-58.4-39.83-81.333-44.5-85.5-24.83 2-75.3 6-78.5 6H903.5l-220 25-253 56.5-69 20.5c-12.8 26.8-15.333 83.833-15 109-60.4 3.6-144.5-67.167-179-103a251.943 251.943 0 016.403-3.314L91.5 609.5c2.667-11.333 18.4-36.9 60-48.5 41.6-11.6 183.333-62.167 249-86 12-61.833 52.5-197.5 118.5-245.5s105.5-60 117-60z" fill="#001647" fill-opacity=".2"/></g><defs><clipPath id="prefix__clip0_53_26033"><path fill="#fff" d="M0 0h1500v1500H0z"/></clipPath></defs>
      
    </g>
    </svg>