<svg
      xmlns="http://www.w3.org/2000/svg"
      preserveAspectRatio="xMidYMin meet"
      fill="none"
      viewBox="0 0 1500 1500"
    >
      <g>
      <path fill="url(#prefix__paint0_linear_53_30461)" d="M0 0h1500v1500H0z"/><defs><linearGradient id="prefix__paint0_linear_53_30461" x1="0" y1="0" x2="1500" y2="1533.5" gradientUnits="userSpaceOnUse"><stop stop-color="#EEB0FC"/><stop offset="1" stop-color="#AF55F5"/></linearGradient></defs>
      <g clip-path="url(#prefix__clip0_53_28724)"><path d="M288.689 1505.57l13.36-113.94 184.06 50.77-2.67 63.17h-194.75zM1108.09 1432.16l14.41 71.69h142.41l-32.7-113.79-124.12 42.1z" fill="#ABF"/><path d="M303.471 1382.79L325 1260l56-105.5s64.91-55.22 110.5-71c0 0 87.12-38.32 292.5-41 205.38-2.68 276 52.5 276 52.5l58.65 30.23 39.22 52.98 39.13 78.97 38.22 131.86-127.13 39.32 14.41 72.47-643.659 1.15 7.27-66.62-182.64-52.57z" fill="#FF6247"/><path d="M500.002 1213.5c-101.2 100-117.834 249-113.5 311l-99.502-13c-1.6-110.8 39-247.5 59.5-302l39.501-52.5 15.5-20.5 66.5-42.5c149.6-59.6 294-54.83 347.5-45-63 13.17-214.299 64.5-315.499 164.5z" fill="#001647" fill-opacity=".2"/><path d="M825.82 1451.4l45.14-36.92-63.72-69.17-62.55 51.19-87.69-95.16 30.9-25.34 64 69.42 62.53-51.13 87.53 94.78 45.18-36.92-14.09 100.13-107.23-.88z" fill="#fff"/><path d="M289.5 1512.5c-1.965-33.24.683-79.37 8.981-129m970.519 128c-9.49-42.7-19.11-84.78-29.54-125M1084.5 1337c7.13 21.39 15.88 54.92 24.69 92m18.81 83.5c-5.91-27.5-12.37-56.45-18.81-83.5m-627.69 83.5c.172-16.93 2.213-45 5.905-75m14.595-82c-6.201 23.93-11.126 53.81-14.595 82m-188.924-54c17.035-101.9 57.885-218.59 131.519-269 158.5-108.51 616.5-87 706.5 26 46.24 58.07 77.1 146.33 102.96 246m-940.979-3l188.924 54m621.785-8.5l130.27-42.5" stroke="#000" stroke-width="20" stroke-linecap="round"/></g><defs><clipPath id="prefix__clip0_53_28724"><path fill="#fff" d="M0 0h1500v1500H0z"/></clipPath></defs>
      <g clip-path="url(#prefix__clip0_299_662)"><path d="M775 1185c231.41 0 419-168.12 419-375.5 0-207.383-187.59-375.5-419-375.5-231.407 0-419 168.117-419 375.5 0 207.38 187.593 375.5 419 375.5z" fill="#ABF"/><path d="M457.5 796c7.6 194 131.833 327.5 193 370l-130-55.5L438 1034l-57.5-89.5-27-106 11-104L394 662l45-82.5 83.5-69.5 109-54.182 28.5-1C569.452 513.314 451.119 633.132 457.5 796z" fill="#001647" fill-opacity=".2"/><path d="M775 1185c231.41 0 419-168.12 419-375.5 0-207.383-187.59-375.5-419-375.5-231.407 0-419 168.117-419 375.5 0 207.38 187.593 375.5 419 375.5z" stroke="#000" stroke-width="20"/></g><defs><clipPath id="prefix__clip0_299_662"><path fill="#fff" d="M0 0h1500v1500H0z"/></clipPath></defs>
      <g clip-path="url(#prefix__clip0_53_29082)" stroke="#000" stroke-width="20" stroke-linecap="round"><path d="M844.63 1012.87h141.62M827.45 803.95l-27.11-16.78-29.02-17.97-36.82-22.79"/><path d="M802.81 799.069a29.91 29.91 0 11-31.49-29.87l29 18a29.701 29.701 0 012.49 11.87z" fill="#000"/><path d="M1067.45 746.41l-36.82 22.79-29.02 17.97-27.11 16.78"/><path d="M999.14 799.069c0 5.848 1.71 11.568 4.93 16.452a29.947 29.947 0 0013.17 11.027 29.898 29.898 0 0017.06 1.964 29.883 29.883 0 0015.33-7.744 29.875 29.875 0 007.48-32.043 29.859 29.859 0 00-10.31-13.732 29.918 29.918 0 00-16.17-5.794l-29 18a29.701 29.701 0 00-2.49 11.87z" fill="#000"/></g><defs><clipPath id="prefix__clip0_53_29082"><path fill="#fff" d="M0 0h1500v1500H0z"/></clipPath></defs>
      <g clip-path="url(#prefix__clip0_53_26454)"><path d="M922.5 1068.5a59.023 59.023 0 0032.779-9.94 59.051 59.051 0 0021.73-26.48 59.008 59.008 0 00-12.79-64.299 58.999 58.999 0 10-83.438 83.439 59.017 59.017 0 0041.719 17.28z" fill="#F9F9F9"/><path d="M1086 1007.5c0 42.8-75.66 77.5-169 77.5-93.336 0-169-34.67-169-77.5 0-42.834 75.664-97.5 169-97.5 93.34 0 169 54.698 169 97.5z" fill="#ABF"/><path d="M926.2 975.91l163-63 42-14 13 22-12 22-141.45 51.39s-20.55-26.39-64.55-18.39z" fill="#fff"/><path d="M1000.26 944.55l19.16 45.34-31.09 4.4s-30.33-21.45-60.51-18.67c-30.18 2.78 72.44-31.07 72.44-31.07z" fill="#FF9C07"/><path d="M918.51 973.8l192.62-77.674c13.03-5.255 27.82 1.372 32.57 14.597v0c4.46 12.398-1.57 26.115-13.72 31.214L995.49 998.4" stroke="#000" stroke-width="20" stroke-miterlimit="10"/><path d="M1143.26 909.834c4.97 11.693.66 24.254-8.39 28.094s-20.4-2.527-25.37-14.219c-4.96-11.693-1.65-24.285 7.4-28.125 9.04-3.839 21.4 2.557 26.36 14.25z" fill="#FF6247" stroke="#000" stroke-width="20"/><path d="M819.26 1008s115.5-84.37 192.56 12.49" stroke="#000" stroke-width="20" stroke-miterlimit="10" stroke-linecap="round"/></g><defs><clipPath id="prefix__clip0_53_26454"><path fill="#fff" d="M0 0h1500v1500H0z"/></clipPath></defs>
      <g clip-path="url(#prefix__clip0_53_25838)"><path d="M661.719 466.272s.681-50.314 11.212-50.049c10.53.266 30.241-4.165 30.241-4.165l31.002 15.989 25.638-5.424 28.99-24.747 27.071-1.791 27.883 14.121 15.446 18.681 23.411.145 50.96-13.954 24.276 23.68-19.232 52.574-44.507-21.369-17.617-6.041-23.175-7.036-28.05-1.943-32.388-.112-55.638 3.68-50.45 8.949-25.073-1.188z" fill="#97A5DE"/><path d="M718.506 479.214s19.322 40.453 64.014 34.31c44.692-6.143 83.522-32.583 83.522-32.583l10.406-17.065-81.463-14.775-84.096 14.041s-8.664 11.898 7.617 16.072z" fill="#7985B4"/><path d="M662.843 469.488s-13.534-58.554 30.087-60.287c15.493-.614 25.434 4.992 32.226 12.21 13.894 14.755 29.392 7.707 38.346-2.386 11.842-13.391 27.482-26.021 44.854-27.17 20.226-1.338 34.215 14.393 42.889 29.474 6.094 10.621 21.799 13.651 33.204 6.683 11.953-7.315 28.35-12.9 48.081-8.683 42.964 9.245 6.064 69.091 6.064 69.091" stroke="#000" stroke-width="18.1" stroke-miterlimit="10" stroke-linecap="round"/><path d="M630.048 507.634S655.324 462.566 681.5 468c40.502 8.395 74.399 69.733 74.399 69.733M800.818 537.268s38.761-65.501 93.251-67.301c54.49-1.801 48.429 57.93 48.429 57.93M682 468s137.209-40.275 226.409 2.982M736.796 506.5s35.103 14.655 86.489 1.675" stroke="#000" stroke-width="20" stroke-miterlimit="10" stroke-linecap="round"/><path d="M537 566.5l4.5 45.5-4.5 67-29.5 50 29.5 7 27.5-38 9.5-97.5-14-34h-23z" fill="#ABF"/><path d="M1096.5 555s54 51 77 115l58.48-66.81s45.11-72.74 39.35-142c-5.76-69.26-13.47-83.1-13.47-83.1s-21-3.61-33.69 35.81c-12.69 39.42-78.11 109.31-78.11 109.31L1096.5 555zM540 655c-4 36.8-22.333 64.333-31 73.5L422 702c-20.167-14.5-67.5-51.7-95.5-84.5s-44.667-101.667-49.5-132c-.833-25.5-.6-82.8 7-108 7.6-25.2 24.5 7.5 32 27l45.5 81L456 551l77 18.5c4 13.166 11 48.7 7 85.5z" fill="#fff"/><path d="M426.5 610c-38.4-28-67.333-103-77-137l-44-98.5-11.5-7-20.5 92 7 72 55 102L434 699l106 34c8.167-5.333 25.4-21 29-41 4.5-25-83.5-38.979-142.5-82zM1127.84 599.154L1095.5 558.5 1121 544l43-39.5 39.5-53L1231 389l19-7c-16 124.5-98.1 207.905-106 216.5-3.82 4.162-7.09 5.329-9.51 5.317-2.84-.015-4.88-2.439-6.65-4.663z" fill="#001647" fill-opacity=".2"/><path d="M522.531 565.278c-35.66.82-156.38-10-211.51-187.18-4.16-13.34-23.35-12.45-26.16 1.24-18.66 90.92-25.71 281 216.65 346.36a12.997 12.997 0 0013.12-3.94c13.26-15 42.71-60 20.83-146.74a13.007 13.007 0 00-4.764-7.128 13.006 13.006 0 00-8.166-2.612v0zM1088.35 554.34c47.82-17.13 109.36-60 145.11-165 5.54-16.29 29.23-14.41 32.17 2.54 13.21 76.23 21.41 205.23-99.36 285.37" stroke="#000" stroke-width="20" stroke-miterlimit="10"/><path d="M501.51 725.7l25.83 5.69c7.18 1.58 15-.49 19.55-6.27 7.33-9.33 9.28-11.36 16.91-31.69M522.529 565.281h20.77c11.89 0 19.69 4 23.79 20.43 7.6 30.46 5.56 50.37 5.56 50.37" stroke="#000" stroke-width="20" stroke-miterlimit="10" stroke-linecap="round"/></g><defs><clipPath id="prefix__clip0_53_25838"><path fill="#fff" d="M0 0h1500v1500H0z"/></clipPath></defs>
      
    </g>
    </svg>