<svg
      xmlns="http://www.w3.org/2000/svg"
      preserveAspectRatio="xMidYMin meet"
      fill="none"
      viewBox="0 0 1500 1500"
    >
      <g>
      <path fill="url(#prefix__paint0_linear_53_30460)" d="M0 0h1500v1500H0z"/><defs><linearGradient id="prefix__paint0_linear_53_30460" x1="0" y1="0" x2="1500" y2="1500" gradientUnits="userSpaceOnUse"><stop stop-color="#F1FFBA"/><stop offset="1" stop-color="#65DCBA"/></linearGradient></defs>
      <g clip-path="url(#prefix__clip0_53_28250)"><path d="M460.5 1094.5c-138.4 66.4-174 309.33-174.5 422.5h983.5c-12.5-72.17-53.2-244.1-116-354.5-78.5-138-520-151-693-68z" fill="#3A3A3A"/><path d="M500.002 1213.5c-101.2 100-117.834 249-113.5 311l-99.502-13c-1.6-110.8 39-247.5 59.5-302l39.501-52.5 15.5-20.5 66.5-42.5c149.6-59.6 294-54.83 347.5-45-63 13.17-214.299 64.5-315.499 164.5z" fill="#000" fill-opacity=".2"/><path d="M289.5 1512.5c-6-101.5 31-323.03 140.5-398 158.5-108.51 616.5-87 706.5 26 64.91 81.5 99.5 222.5 132.5 371M1084.5 1337c12.33 37 29.5 110.3 43.5 175.5m-646.5 0c.333-32.83 7.7-107.6 20.5-157" stroke="#000" stroke-width="20" stroke-linecap="round"/></g><defs><clipPath id="prefix__clip0_53_28250"><path fill="#fff" d="M0 0h1500v1500H0z"/></clipPath></defs>
      <g clip-path="url(#prefix__clip0_299_662)"><path d="M775 1185c231.41 0 419-168.12 419-375.5 0-207.383-187.59-375.5-419-375.5-231.407 0-419 168.117-419 375.5 0 207.38 187.593 375.5 419 375.5z" fill="#ABF"/><path d="M457.5 796c7.6 194 131.833 327.5 193 370l-130-55.5L438 1034l-57.5-89.5-27-106 11-104L394 662l45-82.5 83.5-69.5 109-54.182 28.5-1C569.452 513.314 451.119 633.132 457.5 796z" fill="#001647" fill-opacity=".2"/><path d="M775 1185c231.41 0 419-168.12 419-375.5 0-207.383-187.59-375.5-419-375.5-231.407 0-419 168.117-419 375.5 0 207.38 187.593 375.5 419 375.5z" stroke="#000" stroke-width="20"/></g><defs><clipPath id="prefix__clip0_299_662"><path fill="#fff" d="M0 0h1500v1500H0z"/></clipPath></defs>
      <g clip-path="url(#prefix__clip0_53_29287)"><path d="M764.05 841.24c31.336 0 56.74-25.404 56.74-56.74 0-31.337-25.404-56.74-56.74-56.74-31.337 0-56.74 25.403-56.74 56.74 0 31.336 25.403 56.74 56.74 56.74zM1048.19 841.24c31.34 0 56.74-25.404 56.74-56.74 0-31.337-25.4-56.74-56.74-56.74-31.34 0-56.74 25.403-56.74 56.74 0 31.336 25.4 56.74 56.74 56.74z" fill="#fff" stroke="#000" stroke-width="20" stroke-miterlimit="10"/><path d="M746.05 779.5c7.18 0 13-5.82 13-13s-5.82-13-13-13-13 5.82-13 13 5.82 13 13 13zM1066.19 779.5c7.18 0 13-5.82 13-13s-5.82-13-13-13-13 5.82-13 13 5.82 13 13 13z" fill="#000"/><path d="M831.28 968.721h168.82a5.495 5.495 0 015.5 5.5 89.318 89.318 0 01-89.32 89.319h-1.18a89.323 89.323 0 01-63.159-26.16 89.322 89.322 0 01-26.161-63.159 5.5 5.5 0 015.5-5.5z" fill="#fff" stroke="#000" stroke-width="20" stroke-miterlimit="10"/></g><defs><clipPath id="prefix__clip0_53_29287"><path fill="#fff" d="M0 0h1500v1500H0z"/></clipPath></defs>
      <g clip-path="url(#prefix__clip0_53_26861)"><path d="M447.622 867.389c15.29-8.12 40.61-15.39 63.47 6.76a33.285 33.285 0 0031.7 8c16.76-4.43 40.91-6.38 58.48 10.76a33.885 33.885 0 0033.5 8.24c17.27-5.22 42-7.38 63.2 12.11a33.3 33.3 0 0033.44 7.09c14.19-4.88 35.588-3.815 51.52 10.07C811 952 830.89 936.6 840.91 927.17c14-13.14 36.29-24.88 66.09-11.41 4.293 1.899-11.781.784-7.087.774a33.524 33.524 0 0013.619-2.925c14.32-6.29 37.75-11.94 60.15 3.23a33.376 33.376 0 0034.668 2c9.95-5.4 23.51-19.6 39.42-16.41a33.679 33.679 0 0017.06-.968 33.677 33.677 0 0014.38-9.212c7-7.64 18.31-14.45 35.72-13 5.99.455 11.99-.733 17.35-3.434a33.016 33.016 0 0013.08-11.896c7.25-11.41 21.15-23.19 47.32-24.45 0 0 21.85 14.24 13.5 47.19a34.058 34.058 0 002.18 22.77c4.23 9.05 7.4 22.51-2.2 34.45a33.045 33.045 0 00-6.18 11.917 33.093 33.093 0 00-.92 13.393c2.21 15.3-5.19 26.51-12.43 33.581a34.154 34.154 0 00-10.41 23.88c-.29 17.29-9.6 26.42-18.41 31.18a33.37 33.37 0 00-10.36 9.1c-2.77 3.73-4.74 8-5.77 12.53-3.65 15-20.18 22.04-27.56 25.24-7.38 3.2-16.18 8.7-22.9 21-6.72 12.3-22.93 26.06-35.43 28.91a34.029 34.029 0 00-21.49 15.54c-11.47 18.77-32.74 23-47.858 23.35-4.704.06-9.34 1.13-13.597 3.13a33.05 33.05 0 00-11.093 8.47c-12.12 14.56-30.74 16.05-43.55 15a33.336 33.336 0 00-23.89 7.64c-17.44 14.25-37.18 11-50.6 5.83a32.94 32.94 0 00-14.902-2.1c-5.063.46-9.95 2.09-14.278 4.76-18.33 11.34-35.85 7-47.47 1.2a33.313 33.313 0 00-14.338-3.37 33.43 33.43 0 00-14.392 3.13c-24.87 11.39-45 .12-56.4-9.75-3.478-3-7.534-5.24-11.918-6.61-4.383-1.36-9-1.8-13.562-1.3-27.45 3-44-11.51-52.84-23.4a33.495 33.495 0 00-25.5-13.54c-23.54-1-37.07-11.43-44.45-20.42a34.028 34.028 0 00-11.197-8.96 34.076 34.076 0 00-13.893-3.54c-26.87-1-37.3-14.44-41.29-25.93a32.354 32.354 0 00-7.698-12.45 32.25 32.25 0 00-12.402-7.76c-25.47-8.54-32.87-28.62-34.63-43.8a33.819 33.819 0 00-5.359-15.01 33.843 33.843 0 00-11.641-10.88c-20.25-11.11-22.89-27.54-21.85-38.711a32.438 32.438 0 00-6.08-21.85c-6.35-8.87-12.26-23.12-3.06-39.69a33.266 33.266 0 001.59-29.13c-5.08-12-8.66-27.83 2-36.83 14.47-12.27 35.52-6.23 49.81.41a33.369 33.369 0 0029.66-.65z" fill="#F56CDB" stroke="#000" stroke-width="20" stroke-miterlimit="10"/><path d="M548.318 940.84c-15.419-17.547-3.699-44.055 5.182-56.34-5.5-1.834-17.4-5.5-21-5.5-4.5 0-18-3.5-26.5-9.5s-6-2-13-4-24.5-2.5-26.5-2.5-37 6.5-38.5 6.5-37.5-11.5-39-12c-1.2-.4-16.167 9.833-23.5 15V903c0 .8-.667 18-1 26.5l1 51.5 25 45.5 23.5 36 31.5 45 27.5 27 32 14.5 64.5 28.5 41 27.5 38.5 13 50 17h80.5c-7.927-1.83-16.163-9.58-21.477-15.83-2.583-3.03-6.567-4.61-10.516-4.09-40.652 5.43-61.301-18.35-68.509-35.4-1.446-3.42-4.297-6.11-7.838-7.23-24.761-7.8-34.1-27.41-36.492-41.24-.779-4.5-3.806-8.46-8.046-10.15-22.735-9.09-27.321-27.17-26.242-40.16.408-4.92-1.696-9.97-5.861-12.61-24.112-15.31-26.877-36.02-24.202-49.24.871-4.31-.146-8.97-3.199-12.13-18.059-18.687-18.677-38.469-15.182-51.173 1.41-5.125-.11-10.915-3.618-14.907z" fill="#001647" fill-opacity=".2"/><path d="M447.622 867.389c15.29-8.12 40.61-15.39 63.47 6.76a33.285 33.285 0 0031.7 8c16.76-4.43 40.91-6.38 58.48 10.76a33.885 33.885 0 0033.5 8.24c17.27-5.22 42-7.38 63.2 12.11a33.3 33.3 0 0033.44 7.09c14.19-4.88 35.588-3.815 51.52 10.07C811 952 830.89 936.6 840.91 927.17c14-13.14 36.29-24.88 66.09-11.41 4.293 1.899-11.781.784-7.087.774a33.524 33.524 0 0013.619-2.925c14.32-6.29 37.75-11.94 60.15 3.23a33.376 33.376 0 0034.668 2c9.95-5.4 23.51-19.6 39.42-16.41a33.679 33.679 0 0017.06-.968 33.677 33.677 0 0014.38-9.212c7-7.64 18.31-14.45 35.72-13 5.99.455 11.99-.733 17.35-3.434a33.016 33.016 0 0013.08-11.896c7.25-11.41 21.15-23.19 47.32-24.45 0 0 21.85 14.24 13.5 47.19a34.058 34.058 0 002.18 22.77c4.23 9.05 7.4 22.51-2.2 34.45a33.045 33.045 0 00-6.18 11.917 33.093 33.093 0 00-.92 13.393c2.21 15.3-5.19 26.51-12.43 33.581a34.154 34.154 0 00-10.41 23.88c-.29 17.29-9.6 26.42-18.41 31.18a33.37 33.37 0 00-10.36 9.1c-2.77 3.73-4.74 8-5.77 12.53-3.65 15-20.18 22.04-27.56 25.24-7.38 3.2-16.18 8.7-22.9 21-6.72 12.3-22.93 26.06-35.43 28.91a34.029 34.029 0 00-21.49 15.54c-11.47 18.77-32.74 23-47.858 23.35-4.704.06-9.34 1.13-13.597 3.13a33.05 33.05 0 00-11.093 8.47c-12.12 14.56-30.74 16.05-43.55 15a33.336 33.336 0 00-23.89 7.64c-17.44 14.25-37.18 11-50.6 5.83a32.94 32.94 0 00-14.902-2.1c-5.063.46-9.95 2.09-14.278 4.76-18.33 11.34-35.85 7-47.47 1.2a33.313 33.313 0 00-14.338-3.37 33.43 33.43 0 00-14.392 3.13c-24.87 11.39-45 .12-56.4-9.75-3.478-3-7.534-5.24-11.918-6.61-4.383-1.36-9-1.8-13.562-1.3-27.45 3-44-11.51-52.84-23.4a33.495 33.495 0 00-25.5-13.54c-23.54-1-37.07-11.43-44.45-20.42a34.028 34.028 0 00-11.197-8.96 34.076 34.076 0 00-13.893-3.54c-26.87-1-37.3-14.44-41.29-25.93a32.354 32.354 0 00-7.698-12.45 32.25 32.25 0 00-12.402-7.76c-25.47-8.54-32.87-28.62-34.63-43.8a33.819 33.819 0 00-5.359-15.01 33.843 33.843 0 00-11.641-10.88c-20.25-11.11-22.89-27.54-21.85-38.711a32.438 32.438 0 00-6.08-21.85c-6.35-8.87-12.26-23.12-3.06-39.69a33.266 33.266 0 001.59-29.13c-5.08-12-8.66-27.83 2-36.83 14.47-12.27 35.52-6.23 49.81.41a33.369 33.369 0 0029.66-.65z" stroke="#000" stroke-width="20" stroke-miterlimit="10"/><path d="M831.246 937.5l-39.5 26 14.5 12h25c5.5 0 24 3.5 35.5 4s12.5-4 18.5-4 13-7 15.5-8c2-.8 6.167-6.333 8-9l12-8.5c1.167 1.333 4.1 4 6.5 4 3 0 4 6 8 9.5s25.5 9.5 34 12c6.8 2 11.5.833 13 0h32.004c2.5 0 11 .5 11 0s8-2.5 12.5-2.5h10.5v-9.5c-2.5-2.5-8.1-7.9-10.5-9.5-3-2-8-6.5-12.5-10s-11-10-16-14c-4-3.2-6.34-5.667-7-6.5L991.246 912l-11.5-12-6.5-5-16-3-26 14-22.5 2.5-14.5-13.5h-15l-24 11-24 31.5z" fill="#F56CDB"/><path d="M859.5 935.5c-10.8 18.8-29.833 34.833-38 40.5l-37.5-8.5 9-8.5 40.5-26c2.5-7.833 11.9-25.1 29.5-31.5 17.6-6.4 31.667 2.667 36.5 8-15.5-4.5-26.5 2.5-40 26zM943 941c-3.6-23.2 13.833-37 23-41l-8-5.5c-15.167 2.333-44 14.3-38 43.5s48.5 40.5 69 42.5c-13.833-3.5-42.4-16.3-46-39.5z" fill="#001647" fill-opacity=".2"/><path fill-rule="evenodd" clip-rule="evenodd" d="M961.269 902.528a33.46 33.46 0 00-17.707 4.912l-.01.006-.009.005c-14.538 8.847-17.706 28.866-6.497 42.398 12.86 15.528 33.801 20.971 56.716 20.901 15.068-.046 30.018-2.491 42.108-5.251a119.743 119.743 0 01-50.504-46.316c-6.043-9.968-13.81-16.654-24.021-16.654h-.038l-.038-.001zm.114-19.999a53.457 53.457 0 00-28.245 7.842c-25.453 15.496-30.102 49.772-11.494 72.236 18.52 22.363 46.96 28.22 72.179 28.143 25.457-.078 49.957-6.175 63.547-10.241l.01-.002c2.81-.845 5.3-2.536 7.11-4.844a14.256 14.256 0 003.04-8.053c.16-2.934-.58-5.845-2.14-8.337a14.273 14.273 0 00-6.54-5.592l-10.15-4.296c-.01-.004-.02-.008-.02-.012a99.747 99.747 0 01-46.16-40.47l-.01-.027-.02-.027c-7.492-12.37-20.548-26.303-41.107-26.32z" fill="#000"/><path d="M786.116 970.931c26.4 7.9 93.78 23.19 125.17-14.7 14.9-18 11-45.15-9-57.32a43.465 43.465 0 00-23.04-6.41c-15.4 0-25.82 10.32-32.59 21.5a109.784 109.784 0 01-50.81 44.54l-10.21 4.32a4.282 4.282 0 00-1.691 6.634 4.281 4.281 0 002.171 1.436z" stroke="#000" stroke-width="20" stroke-miterlimit="10" stroke-linecap="round"/></g><defs><clipPath id="prefix__clip0_53_26861"><path fill="#fff" d="M0 0h1500v1500H0z"/></clipPath></defs>
      <g clip-path="url(#prefix__clip0_53_26063)"><path d="M287 736.5l-39.5 81 191-81 274-72c238.8-42.4 461.17-41.33 542.5-35.5-16-51.6-119.33-99.83-169-117.5-22-66.4-108.83-139.33-149.5-167.5-22-17.17-102.9-49.8-250.5-43-147.6 6.8-242.83 118.5-272 173.5L364 607l7 57.5-84 72z" fill="#FFBF44"/><path d="M377 578l-18 89 129-51.5 183-48L817 544l269-26-30.5-69.5h-149l-169.5 14L547 513l-170 65z" fill="#FF6247"/><path d="M349.24 858.211s-6.78-49.71-1-75l-100.87 48.86 9.37 17.54 92.5 8.6z" fill="#F8C25A"/><path d="M1148.39 620.5s27.32 40.85 36.76 78.82l55.14-40.91 18.47-26.85-110.37-11.06z" fill="#CF9B37"/><path d="M349 779c-5.2 29.2-2.167 62.167 0 75h-74.5L239 835l29.5-66 93-101 18-94c44-170.4 180.667-242.667 243.5-257.5-111.2 93.2-124.667 232.833-117.5 291l6 8C465.9 664.7 436.667 720.667 428 743l-79 36z" fill="#001647" fill-opacity=".2"/><path d="M359.62 860.22c-9.834-.48-19.66-1.11-29.48-1.89-27.42-2.21-54.33-5.66-75-11a22.127 22.127 0 01-16.578-22.57 22.12 22.12 0 012.768-9.63c18.35-33 58.45-95.81 121.61-147.4 0 0-3.81-281.9 284.44-360.63 288.25-78.73 426.62 163.81 443.16 212.06 0 0 101.59 21.94 165 96.62a22.132 22.132 0 01.92 27.62c-9.88 13.1-31.84 33.23-80.61 57.16M362.92 667.72s227.3-133.33 727.6-148.57" stroke="#000" stroke-width="20" stroke-miterlimit="10"/><path d="M240.51 835s36.71-44.83 249-110.11a2300.643 2300.643 0 01590.73-100.1c63.88-2.36 127.62-1.87 180.53 4.2M376.39 578.38S676 422.5 1052.12 451.79" stroke="#000" stroke-width="20" stroke-miterlimit="10"/></g><defs><clipPath id="prefix__clip0_53_26063"><path fill="#fff" d="M0 0h1500v1500H0z"/></clipPath></defs>
      
    </g>
    </svg>