<svg
      xmlns="http://www.w3.org/2000/svg"
      preserveAspectRatio="xMidYMin meet"
      fill="none"
      viewBox="0 0 1500 1500"
    >
      <g>
      <path fill="url(#prefix__paint0_linear_53_30463)" d="M0 0h1500v1500H0z"/><defs><linearGradient id="prefix__paint0_linear_53_30463" x1="1500" y1="1500" x2="0" y2="0" gradientUnits="userSpaceOnUse"><stop stop-color="#FF5A5A"/><stop offset="1" stop-color="#FFBDBD"/></linearGradient></defs>
      <g clip-path="url(#prefix__clip0_53_28662)"><path d="M288.689 1505.57l13.36-113.94 184.06 50.77-2.67 63.17h-194.75zM1108.09 1432.16l14.41 71.69h142.41l-32.7-113.79-124.12 42.1z" fill="#ABF"/><path d="M303.471 1382.79L325 1260l56-105.5s64.91-55.22 110.5-71c0 0 87.12-38.32 292.5-41 205.38-2.68 276 52.5 276 52.5l58.65 30.23 39.22 52.98 39.13 78.97 38.22 131.86-127.13 39.32 14.41 72.47-643.659 1.15 7.27-66.62-182.64-52.57z" fill="#4AEEB9"/><path d="M500.002 1213.5c-101.2 100-117.834 249-113.5 311l-99.502-13c-1.6-110.8 39-247.5 59.5-302l39.501-52.5 15.5-20.5 66.5-42.5c149.6-59.6 294-54.83 347.5-45-63 13.17-214.299 64.5-315.499 164.5z" fill="#001647" fill-opacity=".2"/><path d="M927.95 1283l14.09 100.13-45.14-36.92-87.47 94.78-62.53-51.13-64 69.42-30.9-25.34 87.69-95.16 62.55 51.19 63.66-69.17-45.18-36.92 107.23-.88z" fill="#fff"/><path d="M289.5 1512.5c-1.965-33.24.683-79.37 8.981-129m970.519 128c-9.49-42.7-19.11-84.78-29.54-125M1084.5 1337c7.13 21.39 15.88 54.92 24.69 92m18.81 83.5c-5.91-27.5-12.37-56.45-18.81-83.5m-627.69 83.5c.172-16.93 2.213-45 5.905-75m14.595-82c-6.201 23.93-11.126 53.81-14.595 82m-188.924-54c17.035-101.9 57.885-218.59 131.519-269 158.5-108.51 616.5-87 706.5 26 46.24 58.07 77.1 146.33 102.96 246m-940.979-3l188.924 54m621.785-8.5l130.27-42.5" stroke="#000" stroke-width="20" stroke-linecap="round"/></g><defs><clipPath id="prefix__clip0_53_28662"><path fill="#fff" d="M0 0h1500v1500H0z"/></clipPath></defs>
      <g clip-path="url(#prefix__clip0_299_662)"><path d="M775 1185c231.41 0 419-168.12 419-375.5 0-207.383-187.59-375.5-419-375.5-231.407 0-419 168.117-419 375.5 0 207.38 187.593 375.5 419 375.5z" fill="#ABF"/><path d="M457.5 796c7.6 194 131.833 327.5 193 370l-130-55.5L438 1034l-57.5-89.5-27-106 11-104L394 662l45-82.5 83.5-69.5 109-54.182 28.5-1C569.452 513.314 451.119 633.132 457.5 796z" fill="#001647" fill-opacity=".2"/><path d="M775 1185c231.41 0 419-168.12 419-375.5 0-207.383-187.59-375.5-419-375.5-231.407 0-419 168.117-419 375.5 0 207.38 187.593 375.5 419 375.5z" stroke="#000" stroke-width="20"/></g><defs><clipPath id="prefix__clip0_299_662"><path fill="#fff" d="M0 0h1500v1500H0z"/></clipPath></defs>
      <g clip-path="url(#prefix__clip0_53_29233)" stroke="#000" stroke-width="20" stroke-miterlimit="10" stroke-linecap="round"><path d="M719.699 827.31l79.06-79.06M719.699 748.25l79.06 79.06M1006.7 827.31l79.06-79.06M1006.7 748.25l79.06 79.06M810.1 1009.23c12.24-8.37 30-8.37 42.21 0l.44.3a37.403 37.403 0 0021.105 6.53c7.531 0 14.888-2.28 21.105-6.53v0a37.403 37.403 0 0121.105-6.53c7.531 0 14.887 2.28 21.105 6.53l1.09.74a37.403 37.403 0 0021.105 6.53c7.531 0 14.887-2.28 21.105-6.53l1.82-1.24c12.24-8.37 30-8.37 42.21 0"/></g><defs><clipPath id="prefix__clip0_53_29233"><path fill="#fff" d="M0 0h1500v1500H0z"/></clipPath></defs>
      <g clip-path="url(#prefix__clip0_53_27270)"><path opacity=".5" d="M650.33 766.53s-2.59-63.6 77.41-64.6c80-1 105.45 2.24 105.45 2.24l29.55 17.76 13 59.31s1 26 0 31.36c-1 5.36-25.33 41.83-25.33 41.83s-41.37 47.5-90.52 42S666.499 849 666.499 849s-19.759-49.32-20.269-49.69c-.51-.37 4.1-32.78 4.1-32.78zM971.33 725.75s24.62-35.82 106.52-28.32c81.9 7.5 88.3 28.32 88.3 28.32s3.59-3.82 6.59 23.18 6 40 6 40-3 17-4 21-2.41 19-5.21 24-9 15.59-11.4 18.29c-2.4 2.7-11.94 13.84-20.67 20.77-8.73 6.93-28.37 15.28-30 16.61-1.63 1.33-10 8.21-17.32 7.26-7.32-.95-16.4 1.13-32.4.07-16-1.06-58.738-22.431-60.738-26.431s-15-2-20-18-9.902-20.409-11.582-23.989c-1.68-3.58-8.68-9.82-8.68-26.2s5-29.38 6-35.38c1-6 8.59-41.18 8.59-41.18z" fill="#A5F15C"/><path d="M681.5 720.5S687 709.23 739 703l97 169.89s-18 18.68-56.07 18.1L681.5 720.5zM756.58 700.12s-4.78 3.73 13-7.12L856 850.55s5.57 6.48-9 9.45l-90.42-159.88zM991.001 719.382s-1-21.754 50.999-28.382l97 180.731s-18 19.872-56.07 19.255l-91.929-171.604zM1059.58 700.12s-4.78 3.73 13.05-7.12L1159 850.55s5.57 6.48-9 9.45l-90.42-159.88z" fill="#fff" fill-opacity=".3"/><path d="M722.89 697.43h79.71a72.65 72.65 0 0172.65 72.65v13.85a112.499 112.499 0 01-112.5 112.5 112.499 112.499 0 01-112.5-112.5v-13.86a72.653 72.653 0 0172.64-72.64v0zM1028.89 697.43h79.71c19.27 0 37.75 7.654 51.37 21.278a72.63 72.63 0 0121.28 51.372v13.85a112.5 112.5 0 11-225 0v-13.86a72.653 72.653 0 0172.64-72.64v0zM874.6 792.43a68.918 68.918 0 0181.64 0M866 736h98M650.24 755.43l-266.5-60.5" stroke="#000" stroke-width="20" stroke-miterlimit="10"/></g><defs><clipPath id="prefix__clip0_53_27270"><path fill="#fff" d="M0 0h1500v1500H0z"/></clipPath></defs>
      <g clip-path="url(#prefix__clip0_53_25878)"><path d="M358.007 603.505l-35.094-66.474s14.559-77.798 61.586-98.155c47.284-20.477 100.011-44.032 100.011-44.032l125.765-51.621 140.978-44.655 107.015-13.297 60.517-11.761 64.444-1.319 68.311 2.442s-5.87-21.168 49.57 20.824c69.89 52.898 17.73 171.573 17.73 171.573l-26.67 15.714-149.833 58.17-143.667 36.011-218.556 28.191-189.255 2.917-32.852-4.528z" fill="#265CC2"/><path d="M358.054 602.428l16.232 48.253 17.081 19.493 202.9-8.586 240.32-27.99 238.913-72.436 49.06-27.654-15.41-53.759-218.011 75.678-113.521 23.596-195.413 25.08-222.151-1.675z" fill="#FFBF44"/><path d="M551.379 669.503s217.022 55.725 380.917 44.215c163.894-11.51 232.174-52.101 232.174-52.101s47.7-25.484 4.93-82.055c-42.77-56.571-75.09-35.68-75.09-35.68S967.095 605.161 760.635 646.12l-209.256 23.383z" fill="#265CC2"/><path d="M1020.05 452.516l-38.165-15.776-36.54 29.122a4.78 4.78 0 01-2.212.949 3.746 3.746 0 01-2.196-.338 3.108 3.108 0 01-1.45-1.509 3.621 3.621 0 01-.223-2.179l9.095-42.955-34.401-21.209a3.096 3.096 0 01-1.318-1.636 3.698 3.698 0 01-.043-2.218 4.697 4.697 0 011.232-2.046 4.776 4.776 0 012.084-1.188l43.437-10.699 14.949-42.171a4.956 4.956 0 011.453-1.84 4.85 4.85 0 012.14-.964 4.109 4.109 0 012.174.192c.649.256 1.2.708 1.577 1.291l17.986 36.335 43.641-4.8c.76-.09 1.52.053 2.19.409.63.355 1.12.912 1.39 1.578.27.707.32 1.481.13 2.214a4.58 4.58 0 01-1.17 2.084l-32.33 33.107 12.28 39.126c.21.733.19 1.512-.05 2.234a4.717 4.717 0 01-1.32 2.01c-.6.547-1.34.93-2.14 1.112-.75.177-1.53.13-2.25-.135l.05-.1z" fill="#FFBF44"/><path d="M599 600c-20-119.6 23.666-222.167 48-258.5-36 0-190.334 65.333-263 98-18.5 13.833-55.6 49.9-56 83.5-.4 33.6 21.833 69 33 82.5l20 58 65.5 7.5L576 659c-2-20-.834-40.667 0-48.5l23-10.5z" fill="#001647" fill-opacity=".2"/><path d="M1134.2 399.661a361.454 361.454 0 01-29.9 76.354c18.64 24.238 13.33 60.514 13.33 60.514-324.026 154.93-732.062 128.287-732.062 128.287-23.525-21.767-24.781-59.762-24.781-59.762-15.508-13.993-27.059-31.85-34.394-58.91-10.164-37.484 8.917-68.861 44.59-92.054 117.541-76.475 414.81-183.638 648.267-182.717 78.03.326 134.86 52.764 114.95 128.288zM360.837 606.128S773.303 641.122 1105 475.614" stroke="#000" stroke-width="20" stroke-miterlimit="10"/><path d="M523.543 665.942s307.957 94.558 630.907.949c39.05-11.32 43.66-53.188 21.17-79.902-16.44-19.591-36.73-39.413-57.57-49.481" stroke="#000" stroke-width="20" stroke-miterlimit="10"/></g><defs><clipPath id="prefix__clip0_53_25878"><path fill="#fff" d="M0 0h1500v1500H0z"/></clipPath></defs>
      
    </g>
    </svg>