<svg
      xmlns="http://www.w3.org/2000/svg"
      preserveAspectRatio="xMidYMin meet"
      fill="none"
      viewBox="0 0 1500 1500"
    >
      <g>
      <path fill="url(#prefix__paint0_linear_53_30461)" d="M0 0h1500v1500H0z"/><defs><linearGradient id="prefix__paint0_linear_53_30461" x1="0" y1="0" x2="1500" y2="1533.5" gradientUnits="userSpaceOnUse"><stop stop-color="#EEB0FC"/><stop offset="1" stop-color="#AF55F5"/></linearGradient></defs>
      <g clip-path="url(#prefix__clip0_53_28693)"><path d="M1108.09 1432.16l14.41 71.69h142.41l-32.7-113.79-124.12 42.1zM288.689 1505.57l13.36-113.94 184.06 50.77-2.67 63.17h-194.75z" fill="#ABF"/><path d="M303.471 1382.79L325 1260l56-105.5s64.91-55.22 110.5-71c0 0 87.12-38.32 292.5-41 205.38-2.68 276 52.5 276 52.5l58.65 30.23 39.22 52.98 39.13 78.97 38.22 131.86-127.13 39.32 14.41 72.47-643.659 1.15 7.27-66.62-182.64-52.57z" fill="#A760FF"/><path d="M500.002 1213.5c-101.2 100-117.834 249-113.5 311l-99.502-13c-1.6-110.8 39-247.5 59.5-302l39.501-52.5 15.5-20.5 66.5-42.5c149.6-59.6 294-54.83 347.5-45-63 13.17-214.299 64.5-315.499 164.5z" fill="#001647" fill-opacity=".2"/><path d="M942.58 1333.82L867.34 1275l4.68 40.3h-90l4.29 36.89h90l4.68 40.3 61.59-58.67zm-205.16 55.26l-4.68-40.3L671 1407.6l75.38 58.64-4.66-40.13h90l-4.3-37.05-90 .02z" fill="#fff"/><path d="M289.5 1512.5c-1.965-33.24.683-79.37 8.981-129m970.519 128c-9.49-42.7-19.11-84.78-29.54-125M1084.5 1337c7.13 21.39 15.88 54.92 24.69 92m18.81 83.5c-5.91-27.5-12.37-56.45-18.81-83.5m-627.69 83.5c.172-16.93 2.213-45 5.905-75m14.595-82c-6.201 23.93-11.126 53.81-14.595 82m-188.924-54c17.035-101.9 57.885-218.59 131.519-269 158.5-108.51 616.5-87 706.5 26 46.24 58.07 77.1 146.33 102.96 246m-940.979-3l188.924 54m621.785-8.5l130.27-42.5" stroke="#000" stroke-width="20" stroke-linecap="round"/></g><defs><clipPath id="prefix__clip0_53_28693"><path fill="#fff" d="M0 0h1500v1500H0z"/></clipPath></defs>
      <g clip-path="url(#prefix__clip0_299_662)"><path d="M775 1185c231.41 0 419-168.12 419-375.5 0-207.383-187.59-375.5-419-375.5-231.407 0-419 168.117-419 375.5 0 207.38 187.593 375.5 419 375.5z" fill="#ABF"/><path d="M457.5 796c7.6 194 131.833 327.5 193 370l-130-55.5L438 1034l-57.5-89.5-27-106 11-104L394 662l45-82.5 83.5-69.5 109-54.182 28.5-1C569.452 513.314 451.119 633.132 457.5 796z" fill="#001647" fill-opacity=".2"/><path d="M775 1185c231.41 0 419-168.12 419-375.5 0-207.383-187.59-375.5-419-375.5-231.407 0-419 168.117-419 375.5 0 207.38 187.593 375.5 419 375.5z" stroke="#000" stroke-width="20"/></g><defs><clipPath id="prefix__clip0_299_662"><path fill="#fff" d="M0 0h1500v1500H0z"/></clipPath></defs>
      <g clip-path="url(#prefix__prefix__clip0_53_29477)"><path d="M1046 825a40.998 40.998 0 0037.88-25.31 41.043 41.043 0 002.33-23.689 40.939 40.939 0 00-11.22-20.992 40.99 40.99 0 00-44.68-8.888 40.977 40.977 0 00-18.4 15.101 40.996 40.996 0 005.1 51.769A41.006 41.006 0 001046 825z" fill="#000"/><path d="M729.63 808.821l88.08-16a7.737 7.737 0 006.23-6.4 7.757 7.757 0 00-.73-4.64 7.674 7.674 0 00-3.27-3.35l-82.39-43.72m99.27 256.728c38.57 39.211 113.35 39.211 151.93 0" stroke="#000" stroke-width="20" stroke-miterlimit="10" stroke-linecap="round"/></g><defs><clipPath id="prefix__prefix__clip0_53_29477"><path fill="#fff" d="M0 0h1500v1500H0z"/></clipPath></defs>
      <g clip-path="url(#prefix__clip0_53_27180)"><path d="M1188 710.07v127.27h-29.81v29.85h-29.8V897H979.27v-29.81h-29.81v-29.85H919.6v-89.46h-31.28v89.46h-29.81v29.85H828.7V897H679.58v-29.81h-29.85v-29.85h-29.81v-89.46H360.81v-37.81H1188z" fill="#000"/><path d="M1038.88 837.35h-29.8v29.81h29.8v-29.81zM1009.06 807.53h-29.8v29.81h29.8v-29.81zM979.26 777.73h-29.8v29.81h29.8v-29.81zM739.18 837.35h-29.8v29.81h29.8v-29.81zM709.39 807.53h-29.81v29.81h29.81v-29.81zM679.52 777.73h-29.8v29.81h29.8v-29.81z" fill="#fff"/></g><defs><clipPath id="prefix__clip0_53_27180"><path fill="#fff" d="M0 0h1500v1500H0z"/></clipPath></defs>
      <g clip-path="url(#prefix__clip0_53_26093)"><path d="M1324.57 565.17c-9.32 17.15-37.98 54.33-160.57 81.33-14-25.5-30.5-51-46-68l-142.22 10.74L603.5 629l-173.12 32.64-50-1.87L366.7 692c-4.54 9.61-7 22.58-10.66 32.43-50.35-.82-147.84-11.24-174.84-44.9-6.52-8.12-4.78-34.69-2.12-45.54 2.31-9.44 24.84-31 82.25-55.86 37.48-16.22 83.53-26.88 146.32-42.31 26.47-6.5 51.19-12.43 76-17.54L511 508.5l239-30 263.5-9.5 41.53 2.56c67.89.88 109.14 5.87 153.79 13.17 86 14 114.51 49 118.82 65.46l.17.66.25.65s1.05 5.4-3.49 13.67z" fill="#3A3A3A"/><path d="M434 462.75V518l220.44-30.86L1036 469.72 1023.72 408l-220.44 11-118.15 8.46L434 462.75z" fill="#FF6247"/><path d="M427.5 193l8 271.5L610 436l215.5-22.5L1027 404 951 94l-32-19-162.5-12L610 83.5l-127.5 40-55 27V193z" fill="#3A3A3A"/><path d="M540.5 504c-28.8-106.8-28.667-306.167-25-392.5-4.167 2-18.3 7.6-41.5 14s-42 32.667-48.5 45L434 526l-85 23.5c-68.5 16.833-198.6 64.2-171 119 27.6 54.8 131.833 59.5 180.5 55l23.5-63 82-9c51.2-74.8 252.333-147.833 346.5-175l-270 27.5zM1215 628c-2.8-40.4-67.17-49.5-99-49 13.2 12 33.83 49.333 42.5 66.5L1215 628z" fill="#000" fill-opacity=".2"/><path d="M382.87 669.459s367-91 735-81M371.311 730s-218.4 5-196-86.57c22.4-91.57 448.87-153.27 448.87-153.27s667.689-74.76 701.309 53.3c0 0 35.38 63-173.2 107.67" stroke="#000" stroke-width="20" stroke-miterlimit="10"/><path d="M430.2 522.25l-5-336.25c0-10 1.21-19.65 6.25-28.11A46.002 46.002 0 01453.2 139l30.47-12.71c143.44-59.78 280.81-77.83 434-52.08a46.003 46.003 0 0137.44 36.25l86.14 358M434 468s259.7-66.27 599-62.87" stroke="#000" stroke-width="20" stroke-miterlimit="10"/></g><defs><clipPath id="prefix__clip0_53_26093"><path fill="#fff" d="M0 0h1500v1500H0z"/></clipPath></defs>
      
    </g>
    </svg>