<svg
      xmlns="http://www.w3.org/2000/svg"
      preserveAspectRatio="xMidYMin meet"
      fill="none"
      viewBox="0 0 1500 1500"
    >
      <g>
      <path fill="url(#prefix__a1)" d="M0 0h1500v1500H0z"/><defs><linearGradient id="prefix__a1" x1="0" y1="0" x2="1500" y2="1500" gradientUnits="userSpaceOnUse"><stop stop-color="#57ECFF"/><stop offset="1" stop-color="#4E41EE"/></linearGradient></defs>
      <g clip-path="url(#phrefix__clip0_53_27461)"><path d="M460.5 1094.5c-138.4 66.4-174 309.33-174.5 422.5h983.5c-12.5-72.17-53.2-244.1-116-354.5-78.5-138-520-151-693-68z" fill="#FF9C07"/><path d="M814.5 1339c-132.8-90.8-222.333-220.83-250.5-274.5 220.8-38.8 400.333-4.17 462.5 18-27.2 103.6-152.667 214.17-212 256.5z" fill="#ABF"/><path d="M884 1393l153 107.5H884l-134-99-121-113-68-76.5-87.5-118 16.5-4 31.5-13 39.5-12.5 95 136.5 159.5 139L923 1237.5l52.5-51.5 56.5-105 29 11.5 33 17 2.5 14-37 81.5-71 92.5L884 1393z" fill="#fff"/><path d="M499.998 1213.5c-101.2 100-117.834 249-113.5 311l-99.502-13c-1.6-110.8 39-247.5 59.5-302l39.501-52.5 15.5-20.5 66.5-42.5c149.6-59.6 294-54.83 347.5-45-39.584 8.27-114.025 31.61-188.997 72.62a710.622 710.622 0 00-19 10.78c-24.668 14.51-49.078 30.97-72 49.47L690 1351.5 880 1500l8 21.5c-127.8-59.4-298.795-240.83-366.942-328-5.822 5.19-15.516 14.52-21.06 20z" fill="#001647" fill-opacity=".2"/><path d="M289.5 1512.5c-6-101.5 31-323.03 140.5-398 158.5-108.51 616.5-87 706.5 26 64.91 81.5 99.5 222.5 132.5 371M1084.5 1337c12.33 37 29.5 110.3 43.5 175.5m-646.5 0c.333-32.83 7.7-107.6 20.5-157" stroke="#000" stroke-width="20" stroke-linecap="round"/><path d="M813.56 1341.57S967.5 1242.5 1026.5 1083m-212.94 258.57C725.5 1270 627 1177.5 563 1060m250.56 281.57C866.706 1384.05 991.7 1478 1066.5 1514m-589-421.5c47.333 82.17 199 281.5 427 421.5m-25-121.76s174.01-131.44 217.5-283.74" stroke="#000" stroke-width="20" stroke-miterlimit="10"/></g><defs><clipPath id="prefix__clip0_53_27461"><path fill="#fff" d="M0 0h1500v1500H0z"/></clipPath></defs>
      <g clip-path="url(#prefix__clip0_299_662)"><path d="M775 1185c231.41 0 419-168.12 419-375.5 0-207.383-187.59-375.5-419-375.5-231.407 0-419 168.117-419 375.5 0 207.38 187.593 375.5 419 375.5z" fill="#ABF"/><path d="M457.5 796c7.6 194 131.833 327.5 193 370l-130-55.5L438 1034l-57.5-89.5-27-106 11-104L394 662l45-82.5 83.5-69.5 109-54.182 28.5-1C569.452 513.314 451.119 633.132 457.5 796z" fill="#001647" fill-opacity=".2"/><path d="M775 1185c231.41 0 419-168.12 419-375.5 0-207.383-187.59-375.5-419-375.5-231.407 0-419 168.117-419 375.5 0 207.38 187.593 375.5 419 375.5z" stroke="#000" stroke-width="20"/></g><defs><clipPath id="prefix__clip0_299_662"><path fill="#fff" d="M0 0h1500v1500H0z"/></clipPath></defs>
      <g clip-path="url(#prefix__clip0_53_29287)"><path d="M764.05 841.24c31.336 0 56.74-25.404 56.74-56.74 0-31.337-25.404-56.74-56.74-56.74-31.337 0-56.74 25.403-56.74 56.74 0 31.336 25.403 56.74 56.74 56.74zM1048.19 841.24c31.34 0 56.74-25.404 56.74-56.74 0-31.337-25.4-56.74-56.74-56.74-31.34 0-56.74 25.403-56.74 56.74 0 31.336 25.4 56.74 56.74 56.74z" fill="#fff" stroke="#000" stroke-width="20" stroke-miterlimit="10"/><path d="M746.05 779.5c7.18 0 13-5.82 13-13s-5.82-13-13-13-13 5.82-13 13 5.82 13 13 13zM1066.19 779.5c7.18 0 13-5.82 13-13s-5.82-13-13-13-13 5.82-13 13 5.82 13 13 13z" fill="#000"/><path d="M831.28 968.721h168.82a5.495 5.495 0 015.5 5.5 89.318 89.318 0 01-89.32 89.319h-1.18a89.323 89.323 0 01-63.159-26.16 89.322 89.322 0 01-26.161-63.159 5.5 5.5 0 015.5-5.5z" fill="#fff" stroke="#000" stroke-width="20" stroke-miterlimit="10"/></g><defs><clipPath id="prefix__clip0_53_29287"><path fill="#fff" d="M0 0h1500v1500H0z"/></clipPath></defs>
      <g clip-path="url(#prefix__clip0_53_26750)"><path d="M367.752 776.001s-3.28 28.45-1 45.76c2.44 18.17 1-1 1-1l33.42-7 66.7-6.4 126.25-16-16.45-38.56-209.92 23.2z" fill="#CCD0DA"/><path d="M606.318 716.472c95.222-8.873 410.972-33.645 575.062 10.575 1.66.448 2.89 1.625 3.3 3.297 4.9 19.994 29.97 149.958-140.21 173.418-28.09 3.88-56.602-5.94-75.622-27-10.05-11.11-24.47-21-44-21-21.81 0-38.66 12.64-50.2 25.56a87.103 87.103 0 01-68.66 29c-69-2.89-188.31-28-221.92-162.37a25.404 25.404 0 0122.25-31.48z" fill="#53B6F9" stroke="#000" stroke-width="20" stroke-miterlimit="10"/><path d="M656 709.001l89-7 116.798 190.464-32.298 16.536-47.5 5-126-205zM766.638 704.27h23.144L891 865l-14 11-110.362-171.73zM961.076 699.264L1053 705l102.75 149.657L1127 880l-40.11 18.205-125.814-198.941zM1076.5 715h18l82 115-11 16-89-131z" fill="#fff" fill-opacity=".9"/><path d="M606.318 716.472c95.222-8.873 410.972-33.645 575.062 10.575 1.66.448 2.89 1.625 3.3 3.297 4.9 19.994 29.97 149.958-140.21 173.418-28.09 3.88-56.602-5.94-75.622-27-10.05-11.11-24.47-21-44-21-21.81 0-38.66 12.64-50.2 25.56a87.103 87.103 0 01-68.66 29c-69-2.89-188.31-28-221.92-162.37a25.404 25.404 0 0122.25-31.48zM584.08 748.012L356 777.042M598.32 795L356 822" stroke="#000" stroke-width="20" stroke-miterlimit="10"/></g><defs><clipPath id="prefix__clip0_53_26750"><path fill="#fff" d="M0 0h1500v1500H0z"/></clipPath></defs>
      <g clip-path="url(#prefix__clip0_53_26308)"><path d="M854.362 572.597c26.698 5.591 89.208 15.824 113.676-4.55l37.022-89.77 58.51-109.597 51.82-71.708s27.11-23.586-86.96-38.648c-114.081-15.063-170.063-25.713-170.063-25.713s-185.228-21.022-318.271 89.002C407.053 431.636 359.545 587.164 359.545 587.164s-23.041 149.5-11.177 211.286c0 0-10.756-150.238 138.793-274.277l10.378 3.162 96.814-44.403 93.997 3.593 112.831 44.07 32.177 30.882a43.213 43.213 0 0021.004 11.12z" fill="#FF6247"/><path d="M734.501 244.999c-65.6 65.6-81.001 186.667-80.501 239l-37-3.499-46 17.5-78 27c-100.4 76-139.5 198.667-146.5 250.5l-11-72 16.5-99 36-94c25.167-50 96.4-161.801 180-209.001 83.6-47.2 145.834-57.333 166.501-56.5z" fill="#001647" fill-opacity=".2"/><path d="M359.937 865.087s-98.854-257.118 132.339-500.524C701.097 144.725 1047 259.731 1111.97 284.077a8.368 8.368 0 013.19 2.167 8.404 8.404 0 011.83 3.382 8.18 8.18 0 01-1.61 7.305c-89.04 108.115-130.608 228.336-140.839 261.124a22 22 0 01-4.551 8.032 21.816 21.816 0 01-7.454 5.429c-17.926 7.942-59.839 21.108-111.963 1.677-7.062-3.64-10.24-5.677-15.479-10.467-24.838-26.919-183.88-146.589-341.932-30.552M839.383 566.594s-16.991-206.181 59.946-329.197M932.166 573.065s2.952-85 57.03-179.431M746.269 503.828s-13.544-77.051 5.211-143.867M587.364 290.497s-21.765 52.356-1.61 128.612M912.071 312.74s7.567-33.449 33.317-62.912M467.245 549.855s-11.802-18.139-13.388-55.171" stroke="#000" stroke-width="20" stroke-miterlimit="10" stroke-linecap="round"/></g><defs><clipPath id="prefix__clip0_53_26308"><path fill="#fff" d="M0 0h1500v1500H0z"/></clipPath></defs>
      
    </g>
    </svg>