<svg
      xmlns="http://www.w3.org/2000/svg"
      preserveAspectRatio="xMidYMin meet"
      fill="none"
      viewBox="0 0 1500 1500"
    >
      <g>
      <path fill="url(#prefix__paint0_linear_53_30462)" d="M0 0h1500v1500H0z"/><defs><linearGradient id="prefix__paint0_linear_53_30462" x1="0" y1="0" x2="1500" y2="1500" gradientUnits="userSpaceOnUse"><stop stop-color="#FFC4F6"/><stop offset="1" stop-color="#FF3DB1"/></linearGradient></defs>
      <g clip-path="url(#a)"> <path fill="#000" d="M511.7 1369.3c-9.4 43-15.8 86.7-19 130.6h-20v-.7c3.2-45.2 9.7-90.2 19.5-134.5a10 10 0 0 1 19.5 4.6ZM1132 1500h-20.2c-2.8-14-20.2-98.8-36.6-147.6a10 10 0 0 1 2.7-10.9 10.1 10.1 0 0 1 7.4-2.4 9.8 9.8 0 0 1 6.9 3.5 10 10 0 0 1 1.9 3.5c18.3 54.2 37 148 37.7 151.9l.2 2Z"/> <path fill="#fff" d="M1263 1504H289.3l3.8-70.5 22.1-107.4 14.3-62.1 31.5-61 41.5-71s41.3-28.9 106-57 255-32.5 255-32.5 155.8-7 309 52.5c153.2 59.6 190.5 409 190.5 409Z"/> <path fill="#ABF" d="m739.5 1500-19.9-143v-146l39.9-169 83.5 6.5 40 108 9.3 28.5 23.4 117.7L922 1500H739.5Z"/> <path stroke="#000" stroke-width="20" d="M741 1514c-20.8-79.3-46.8-283.4 16-465m165 465c7-105.5 5.7-294.2-83.5-465"/> <path fill="#000" d="M659.1 1339a17.4 17.4 0 0 1-10.4 14.6l-43.4 18.7a10.2 10.2 0 0 0-5.7 12.4l35.8 115.3h-21l-34-109.3a30.1 30.1 0 0 1 17-36.8l38.8-16.7-60.5-37.8a32.7 32.7 0 0 1-8.4-48.2L743.5 1039l7.8 6.2 7.9 6.3L583 1263.7a12.8 12.8 0 0 0 3.3 18.8l64.7 40.4a17.4 17.4 0 0 1 8.1 16Zm404.5 23.3L1042 1500h-20.3l22.2-140.8a10.2 10.2 0 0 0-7.4-11.4l-45.7-12.2a17.4 17.4 0 0 1-6.7-30.1l58.2-49.3a12.8 12.8 0 0 0 .5-19l-195.6-183.4 6.8-7.3 6.9-7.3 195.6 183.3a32.6 32.6 0 0 1 7 38c-1.9 4.3-4.8 8-8.3 11l-54.4 46 40.9 11a30 30 0 0 1 22 33.8Z"/> <path fill="#001647" fill-opacity=".2" d="M500 1213.5c-101.2 100-117.8 249-113.5 311l-99.5-13c-1.6-110.8 39-247.5 59.5-302L386 1157l15.5-20.5L468 1094c149.6-59.6 294-54.8 347.5-45-63 13.2-214.3 64.5-315.5 164.5Z"/> <path fill="#001647" fill-opacity=".2" d="M559 1297c-18-16.4-1.5-37.2 9.5-45l-3 16.5 13.5 11 68.5 60-13.5 9.5c-27.5-12-52.5-31.5-75-52Zm6.5 97c-4-22.8 19.7-35.5 32-39l-4 14v25l30 111.5h-20c-11-27.7-34-88.7-38-111.5Zm328-82.5c-19-119-56.5-216-80-270h24l37 86 39 152 10 156.5v75.5l-23 13c4.5-36.7 7.8-120.6-7-213Z"/> <path stroke="#000" stroke-linecap="round" stroke-width="20" d="M289.5 1512.5c-6-101.5 31-323 140.5-398 158.5-108.5 616.5-87 706.5 26 65 81.5 99.5 222.5 132.5 371M1084.5 1337c12.3 37 29.5 110.3 43.5 175.5m-646.5 0c.3-32.8 7.7-107.6 20.5-157"/> </g> <defs> <clipPath id="a"> <path fill="#fff" d="M0 0h1500v1500H0z"/> </clipPath> </defs>
      <g clip-path="url(#prefix__clip0_299_662)"><path d="M775 1185c231.41 0 419-168.12 419-375.5 0-207.383-187.59-375.5-419-375.5-231.407 0-419 168.117-419 375.5 0 207.38 187.593 375.5 419 375.5z" fill="#ABF"/><path d="M457.5 796c7.6 194 131.833 327.5 193 370l-130-55.5L438 1034l-57.5-89.5-27-106 11-104L394 662l45-82.5 83.5-69.5 109-54.182 28.5-1C569.452 513.314 451.119 633.132 457.5 796z" fill="#001647" fill-opacity=".2"/><path d="M775 1185c231.41 0 419-168.12 419-375.5 0-207.383-187.59-375.5-419-375.5-231.407 0-419 168.117-419 375.5 0 207.38 187.593 375.5 419 375.5z" stroke="#000" stroke-width="20"/></g><defs><clipPath id="prefix__clip0_299_662"><path fill="#fff" d="M0 0h1500v1500H0z"/></clipPath></defs>
      <g clip-path="url(#prefix__clip0_53_29449)"><path d="M844.63 1012.87h141.62" stroke="#000" stroke-width="20" stroke-linecap="round"/><path d="M764.05 841.24c31.336 0 56.74-25.404 56.74-56.74 0-31.337-25.404-56.74-56.74-56.74-31.337 0-56.74 25.403-56.74 56.74 0 31.336 25.403 56.74 56.74 56.74zM1048.19 841.24c31.34 0 56.74-25.404 56.74-56.74 0-31.337-25.4-56.74-56.74-56.74-31.34 0-56.74 25.403-56.74 56.74 0 31.336 25.4 56.74 56.74 56.74z" fill="#fff" stroke="#000" stroke-width="20" stroke-miterlimit="10"/><path d="M764.05 770.5c7.18 0 13-5.82 13-13s-5.82-13-13-13-13 5.82-13 13 5.82 13 13 13zM1048.19 770.5c7.18 0 13-5.82 13-13s-5.82-13-13-13-13 5.82-13 13 5.82 13 13 13z" fill="#000"/></g><defs><clipPath id="prefix__clip0_53_29449"><path fill="#fff" d="M0 0h1500v1500H0z"/></clipPath></defs>
      <g clip-path="url(#prefix__clip0_53_27270)"><path opacity=".5" d="M650.33 766.53s-2.59-63.6 77.41-64.6c80-1 105.45 2.24 105.45 2.24l29.55 17.76 13 59.31s1 26 0 31.36c-1 5.36-25.33 41.83-25.33 41.83s-41.37 47.5-90.52 42S666.499 849 666.499 849s-19.759-49.32-20.269-49.69c-.51-.37 4.1-32.78 4.1-32.78zM971.33 725.75s24.62-35.82 106.52-28.32c81.9 7.5 88.3 28.32 88.3 28.32s3.59-3.82 6.59 23.18 6 40 6 40-3 17-4 21-2.41 19-5.21 24-9 15.59-11.4 18.29c-2.4 2.7-11.94 13.84-20.67 20.77-8.73 6.93-28.37 15.28-30 16.61-1.63 1.33-10 8.21-17.32 7.26-7.32-.95-16.4 1.13-32.4.07-16-1.06-58.738-22.431-60.738-26.431s-15-2-20-18-9.902-20.409-11.582-23.989c-1.68-3.58-8.68-9.82-8.68-26.2s5-29.38 6-35.38c1-6 8.59-41.18 8.59-41.18z" fill="#A5F15C"/><path d="M681.5 720.5S687 709.23 739 703l97 169.89s-18 18.68-56.07 18.1L681.5 720.5zM756.58 700.12s-4.78 3.73 13-7.12L856 850.55s5.57 6.48-9 9.45l-90.42-159.88zM991.001 719.382s-1-21.754 50.999-28.382l97 180.731s-18 19.872-56.07 19.255l-91.929-171.604zM1059.58 700.12s-4.78 3.73 13.05-7.12L1159 850.55s5.57 6.48-9 9.45l-90.42-159.88z" fill="#fff" fill-opacity=".3"/><path d="M722.89 697.43h79.71a72.65 72.65 0 0172.65 72.65v13.85a112.499 112.499 0 01-112.5 112.5 112.499 112.499 0 01-112.5-112.5v-13.86a72.653 72.653 0 0172.64-72.64v0zM1028.89 697.43h79.71c19.27 0 37.75 7.654 51.37 21.278a72.63 72.63 0 0121.28 51.372v13.85a112.5 112.5 0 11-225 0v-13.86a72.653 72.653 0 0172.64-72.64v0zM874.6 792.43a68.918 68.918 0 0181.64 0M866 736h98M650.24 755.43l-266.5-60.5" stroke="#000" stroke-width="20" stroke-miterlimit="10"/></g><defs><clipPath id="prefix__clip0_53_27270"><path fill="#fff" d="M0 0h1500v1500H0z"/></clipPath></defs>
      <g clip-path="url(#prefix__clip0_53_26160)"><path d="M212 773.471l62.56-80.08 248.69-245.79 207.41-160.55 85.06 33.85L1046 466.461l168.39 125.54 88.91 84.23-251-11.24-138.55 2.32-274.98 22.69-295.45 51.61L212 773.471z" fill="#9E6740"/><path d="M352.75 743.09l-74.15 13.72-62.07 20.27 35.15 30.82 86.07 25.2 8.749-3.1c-1.999-58 6.251-86.91 6.251-86.91zM1173.57 667.26S1196 714 1201 766.18l21.85-5.56s45.37-27.13 45.6-27.81c.23-.68 29.22-34.81 30.55-36.61 1.33-1.8 8.87-23.65 8.87-23.65L1197.6 669l-24.03-1.74z" fill="#9E6740"/><path d="M596.5 459c-62.8 94.4-100.833 210.333-112 256.5L362 740l-5 48v48l-96-26-45-28.5v-12.757L204 771l128.5-144c43.667-42 152.9-146.1 240.5-226.5S712.833 292 728 288c-17.667 17.667-68.7 76.6-131.5 171zM1198.5 772l-32-100h44l65.5 6.5 27 5.5-39.5 49-65 39z" fill="#001647" fill-opacity=".2"/><path d="M354.75 837.1c-82.24-10.89-126-40-145.78-55.75-4.66-3.71-6.55-10.94-2.65-15.45C247.83 718 434.6 497.48 707.17 294.37c10.14-7.55 30.53-9 42.15-3.88C825.94 324.2 1145.06 509.6 1306 668.14c4.25 4.19 3.87 12.52.5 17.45-16.78 24.51-41 60.87-119.79 89.45" stroke="#000" stroke-width="20" stroke-miterlimit="10"/><path d="M200.5 775.09l66.41-15.37C608.583 674.233 954.947 646.683 1306 677.07" stroke="#000" stroke-width="20" stroke-miterlimit="10"/></g><defs><clipPath id="prefix__clip0_53_26160"><path fill="#fff" d="M0 0h1500v1500H0z"/></clipPath></defs>
      
    </g>
    </svg>