<svg
      xmlns="http://www.w3.org/2000/svg"
      preserveAspectRatio="xMidYMin meet"
      fill="none"
      viewBox="0 0 1500 1500"
    >
      <g>
      <path fill="url(#prefix__paint0_linear_53_30460)" d="M0 0h1500v1500H0z"/><defs><linearGradient id="prefix__paint0_linear_53_30460" x1="0" y1="0" x2="1500" y2="1500" gradientUnits="userSpaceOnUse"><stop stop-color="#F1FFBA"/><stop offset="1" stop-color="#65DCBA"/></linearGradient></defs>
      <g clip-path="url(#prefix__clip0_53_28824)"><path d="M303.47 1380.79L330.5 1246l47.5-86.5s65.91-62.22 111.5-78c0 0 195-61.5 392-27.5 31-4 38.96 8.51 79 8 42.72-.55 27.45 23 59 17 22.5 0 44.5 12.5 44.5 12.5l57 34.5 33.87 53.21 39.13 77.98 38.22 130.85-124.13 38.32 14.41 79.47-643.66 1.15 7.27-73.62-182.64-52.57z" fill="#53B6F9"/><path d="M542 1070s112 131 246.95 172.85C823.46 1245.8 903.5 1166 903.5 1166l81.5-83.5 10.5-12.5-69.5-13.5-84.5-8.5-142-3.5-118 15.5-39.5 10zM288.69 1505.57l13.36-115.94 184.06 50.77-2.67 65.17H288.69zM1107 1426l15.5 78.85h142.41l-32.7-116.79L1107 1426z" fill="#ABF"/><path d="M967.16 1314.33l12.2-23.4 30.36 34h17l-52-58.93-30.72 58.93h57.64l-20.12-22.55-6.24 12-8.12-.05zM499 1087l77.305 97.3 84.195 58.17L745 1278s32.003 19.71 59 11.5 67.044-39.16 67.044-39.16L950.5 1191l101-105-53-15.5-68.5 74-58.956 39.8-81.711 58.17-121.378-58.17L626 1153.5l-81-78-46 11.5zM298.52 1405.61l3.98-25.61 185 53.97-7.92 45.74-111.55-27.23-69.51-18.51v-28.36zM1106.06 1447.46l-3.3-22.14L1234 1387.5l12.13 43.43-98.27 24.27-37.66 11.93-4.14-19.67z" fill="#fff"/><path d="M499.998 1213.5c-101.2 100-117.834 249-113.5 311l-99.502-13c-1.6-110.8 39-247.5 59.5-302l39.501-52.5 15.5-20.5 66.5-42.5c149.6-59.6 294-54.83 347.5-45-63 13.17-214.299 64.5-315.499 164.5z" fill="#001647" fill-opacity=".2"/><path d="M486.11 1481.21l-193.26-44.42M1113.35 1472.52l133.13-39.83M492.5 1084.5s89.937 150.47 286.741 208.82a40.82 40.82 0 0024.553-.43c34.883-11.74 151.706-86.39 241.706-205.39" stroke="#000" stroke-width="20" stroke-miterlimit="10"/><path d="M990.5 1072.5c-28.8 37.6-73.707 80.68-87.81 92.27-48.15 38.34-82.19 60.85-97 69.77a38.356 38.356 0 01-15.676 5.27 38.355 38.355 0 01-16.434-1.84c-82.55-28.02-139.29-79.2-139.29-79.2-23.597-19.92-70.59-65.97-85.79-86.77" stroke="#000" stroke-width="20" stroke-miterlimit="10"/><path d="M289.5 1512.5c-2.103-35.58 1.077-85.91 10.812-139.5M1269 1511.5c-9.61-43.23-19.35-85.82-29.93-126.5m-154.57-48c6.84 20.52 15.17 52.22 23.62 87.5m19.88 88c-6.23-29.03-13.1-59.67-19.88-88m-626.62 88c.187-18.42 2.589-50.06 6.923-83m13.577-74c-5.617 21.68-10.187 48.24-13.577 74m619.697-5l130.95-39.5m0 0c-25.78-99.05-56.56-186.72-102.57-244.5-90-113-548-134.51-706.5-26-71.116 48.69-111.652 159.2-129.688 258.5m188.111 56.5L300.312 1373" stroke="#000" stroke-width="20" stroke-linecap="round"/></g><defs><clipPath id="prefix__clip0_53_28824"><path fill="#fff" d="M0 0h1500v1500H0z"/></clipPath></defs>
      <g clip-path="url(#prefix__clip0_299_662)"><path d="M775 1185c231.41 0 419-168.12 419-375.5 0-207.383-187.59-375.5-419-375.5-231.407 0-419 168.117-419 375.5 0 207.38 187.593 375.5 419 375.5z" fill="#ABF"/><path d="M457.5 796c7.6 194 131.833 327.5 193 370l-130-55.5L438 1034l-57.5-89.5-27-106 11-104L394 662l45-82.5 83.5-69.5 109-54.182 28.5-1C569.452 513.314 451.119 633.132 457.5 796z" fill="#001647" fill-opacity=".2"/><path d="M775 1185c231.41 0 419-168.12 419-375.5 0-207.383-187.59-375.5-419-375.5-231.407 0-419 168.117-419 375.5 0 207.38 187.593 375.5 419 375.5z" stroke="#000" stroke-width="20"/></g><defs><clipPath id="prefix__clip0_299_662"><path fill="#fff" d="M0 0h1500v1500H0z"/></clipPath></defs>
      <g clip-path="url(#prefix__clip0_53_29315)"><path d="M764.05 841.24c31.336 0 56.74-25.404 56.74-56.74 0-31.337-25.404-56.74-56.74-56.74-31.337 0-56.74 25.403-56.74 56.74 0 31.336 25.403 56.74 56.74 56.74zM1048.19 841.24c31.34 0 56.74-25.404 56.74-56.74 0-31.337-25.4-56.74-56.74-56.74-31.34 0-56.74 25.403-56.74 56.74 0 31.336 25.4 56.74 56.74 56.74z" fill="#fff" stroke="#000" stroke-width="20" stroke-miterlimit="10"/><path d="M787.05 797.5c7.18 0 13-5.82 13-13s-5.82-13-13-13-13 5.82-13 13 5.82 13 13 13zM1071.19 797.5c7.18 0 13-5.82 13-13s-5.82-13-13-13-13 5.82-13 13 5.82 13 13 13z" fill="#000"/><path d="M1000.1 1063.55H831.28a5.495 5.495 0 01-5.5-5.5 89.318 89.318 0 0189.32-89.319h1.18a89.316 89.316 0 0163.158 26.161 89.312 89.312 0 0126.162 63.158c0 1.46-.58 2.86-1.61 3.89a5.503 5.503 0 01-3.89 1.61z" fill="#fff" stroke="#000" stroke-width="20" stroke-miterlimit="10"/></g><defs><clipPath id="prefix__clip0_53_29315"><path fill="#fff" d="M0 0h1500v1500H0z"/></clipPath></defs>
      <g clip-path="url(#prefix__clip0_53_26419)"><path d="M831.281 968.72H1000.1a5.495 5.495 0 015.5 5.5 89.32 89.32 0 01-89.319 89.32h-1.18a89.323 89.323 0 01-63.159-26.16 89.325 89.325 0 01-26.161-63.16 5.5 5.5 0 015.5-5.5z" fill="#fff" stroke="#000" stroke-width="20" stroke-miterlimit="10"/><path d="M1086 1006.5c0 43.35-75.66 78.5-169 78.5-93.336 0-169-35.11-169-78.5 0-43.386 75.664-78.5 169-78.5 93.34 0 169 35.146 169 78.5z" fill="#ABF"/><path d="M905 1002.88L923.13 991a26.135 26.135 0 0010.308-30.616 26.144 26.144 0 00-6.148-9.734v0a26.143 26.143 0 00-19.36-7.629 26.155 26.155 0 00-18.8 8.919L873 970.38M905 1003l18.13 11.88a26.115 26.115 0 0110.312 30.61 26.15 26.15 0 01-6.152 9.73v0a26.233 26.233 0 01-8.883 5.84 26.052 26.052 0 01-10.475 1.81 26.056 26.056 0 01-10.33-2.51 26.14 26.14 0 01-8.472-6.42L873 1035.5" stroke="#000" stroke-width="20" stroke-miterlimit="10" stroke-linecap="round"/><path d="M1099.27 836a156.437 156.437 0 00-153.411 134 26.558 26.558 0 01-16.18 20.75l-10.68 6.87a6.417 6.417 0 00-2.92 4.75c-.097.96.026 1.94.358 2.85.333.9.867 1.73 1.562 2.4 17.18 16.44 31.57 31.63 42 53a156.432 156.432 0 0073.451 72.93 156.47 156.47 0 00102.91 11.12 156.43 156.43 0 0087.32-55.58 156.458 156.458 0 0033.52-97.93c-.7-86.04-71.79-155.92-157.93-155.16z" fill="#F56CDB" fill-opacity=".9" stroke="#000" stroke-width="20" stroke-miterlimit="10"/><path d="M1207.52 931.913c16.03 30.088 16.61 61.085 1.31 69.237-15.31 8.15-12.99-24.393-29.02-54.481-16.02-30.088-44.31-46.329-29.01-54.479 15.3-8.149 40.7 9.635 56.72 39.723z" fill="#fff"/><circle cx="1209" cy="1031" r="13" fill="#fff"/></g><defs><clipPath id="prefix__clip0_53_26419"><path fill="#fff" d="M0 0h1500v1500H0z"/></clipPath></defs>
      <g clip-path="url(#prefix__clip0_53_25838)"><path d="M661.719 466.272s.681-50.314 11.212-50.049c10.53.266 30.241-4.165 30.241-4.165l31.002 15.989 25.638-5.424 28.99-24.747 27.071-1.791 27.883 14.121 15.446 18.681 23.411.145 50.96-13.954 24.276 23.68-19.232 52.574-44.507-21.369-17.617-6.041-23.175-7.036-28.05-1.943-32.388-.112-55.638 3.68-50.45 8.949-25.073-1.188z" fill="#97A5DE"/><path d="M718.506 479.214s19.322 40.453 64.014 34.31c44.692-6.143 83.522-32.583 83.522-32.583l10.406-17.065-81.463-14.775-84.096 14.041s-8.664 11.898 7.617 16.072z" fill="#7985B4"/><path d="M662.843 469.488s-13.534-58.554 30.087-60.287c15.493-.614 25.434 4.992 32.226 12.21 13.894 14.755 29.392 7.707 38.346-2.386 11.842-13.391 27.482-26.021 44.854-27.17 20.226-1.338 34.215 14.393 42.889 29.474 6.094 10.621 21.799 13.651 33.204 6.683 11.953-7.315 28.35-12.9 48.081-8.683 42.964 9.245 6.064 69.091 6.064 69.091" stroke="#000" stroke-width="18.1" stroke-miterlimit="10" stroke-linecap="round"/><path d="M630.048 507.634S655.324 462.566 681.5 468c40.502 8.395 74.399 69.733 74.399 69.733M800.818 537.268s38.761-65.501 93.251-67.301c54.49-1.801 48.429 57.93 48.429 57.93M682 468s137.209-40.275 226.409 2.982M736.796 506.5s35.103 14.655 86.489 1.675" stroke="#000" stroke-width="20" stroke-miterlimit="10" stroke-linecap="round"/><path d="M537 566.5l4.5 45.5-4.5 67-29.5 50 29.5 7 27.5-38 9.5-97.5-14-34h-23z" fill="#ABF"/><path d="M1096.5 555s54 51 77 115l58.48-66.81s45.11-72.74 39.35-142c-5.76-69.26-13.47-83.1-13.47-83.1s-21-3.61-33.69 35.81c-12.69 39.42-78.11 109.31-78.11 109.31L1096.5 555zM540 655c-4 36.8-22.333 64.333-31 73.5L422 702c-20.167-14.5-67.5-51.7-95.5-84.5s-44.667-101.667-49.5-132c-.833-25.5-.6-82.8 7-108 7.6-25.2 24.5 7.5 32 27l45.5 81L456 551l77 18.5c4 13.166 11 48.7 7 85.5z" fill="#fff"/><path d="M426.5 610c-38.4-28-67.333-103-77-137l-44-98.5-11.5-7-20.5 92 7 72 55 102L434 699l106 34c8.167-5.333 25.4-21 29-41 4.5-25-83.5-38.979-142.5-82zM1127.84 599.154L1095.5 558.5 1121 544l43-39.5 39.5-53L1231 389l19-7c-16 124.5-98.1 207.905-106 216.5-3.82 4.162-7.09 5.329-9.51 5.317-2.84-.015-4.88-2.439-6.65-4.663z" fill="#001647" fill-opacity=".2"/><path d="M522.531 565.278c-35.66.82-156.38-10-211.51-187.18-4.16-13.34-23.35-12.45-26.16 1.24-18.66 90.92-25.71 281 216.65 346.36a12.997 12.997 0 0013.12-3.94c13.26-15 42.71-60 20.83-146.74a13.007 13.007 0 00-4.764-7.128 13.006 13.006 0 00-8.166-2.612v0zM1088.35 554.34c47.82-17.13 109.36-60 145.11-165 5.54-16.29 29.23-14.41 32.17 2.54 13.21 76.23 21.41 205.23-99.36 285.37" stroke="#000" stroke-width="20" stroke-miterlimit="10"/><path d="M501.51 725.7l25.83 5.69c7.18 1.58 15-.49 19.55-6.27 7.33-9.33 9.28-11.36 16.91-31.69M522.529 565.281h20.77c11.89 0 19.69 4 23.79 20.43 7.6 30.46 5.56 50.37 5.56 50.37" stroke="#000" stroke-width="20" stroke-miterlimit="10" stroke-linecap="round"/></g><defs><clipPath id="prefix__clip0_53_25838"><path fill="#fff" d="M0 0h1500v1500H0z"/></clipPath></defs>
      
    </g>
    </svg>