<svg
      xmlns="http://www.w3.org/2000/svg"
      preserveAspectRatio="xMidYMin meet"
      fill="none"
      viewBox="0 0 1500 1500"
    >
      <g>
      <path fill="url(#prefix__paint0_linear_53_30462)" d="M0 0h1500v1500H0z"/><defs><linearGradient id="prefix__paint0_linear_53_30462" x1="0" y1="0" x2="1500" y2="1500" gradientUnits="userSpaceOnUse"><stop stop-color="#FFC4F6"/><stop offset="1" stop-color="#FF3DB1"/></linearGradient></defs>
      <g clip-path="url(#prefix__clip0_53_27489)"><path d="M460.5 1094.5c-138.4 66.4-174 309.33-174.5 422.5h983.5c-12.5-72.17-53.2-244.1-116-354.5-78.5-138-520-151-693-68z" fill="#99C4CB"/><path d="M814.5 1339c-132.8-90.8-222.333-220.83-250.5-274.5 220.8-38.8 400.333-4.17 462.5 18-27.2 103.6-152.667 214.17-212 256.5z" fill="#ABF"/><path d="M884 1393l153 107.5H884l-134-99-121-113-68-76.5-87.5-118 16.5-4 31.5-13 39.5-12.5 95 136.5 159.5 139L923 1237.5l52.5-51.5 56.5-105 29 11.5 33 17 2.5 14-37 81.5-71 92.5L884 1393z" fill="#fff"/><path d="M499.998 1213.5c-101.2 100-117.834 249-113.5 311l-99.502-13c-1.6-110.8 39-247.5 59.5-302l39.501-52.5 15.5-20.5 66.5-42.5c149.6-59.6 294-54.83 347.5-45-39.584 8.27-114.025 31.61-188.997 72.62a710.622 710.622 0 00-19 10.78c-24.668 14.51-49.078 30.97-72 49.47L690 1351.5 880 1500l8 21.5c-127.8-59.4-298.795-240.83-366.942-328-5.822 5.19-15.516 14.52-21.06 20z" fill="#001647" fill-opacity=".2"/><path d="M289.5 1512.5c-6-101.5 31-323.03 140.5-398 158.5-108.51 616.5-87 706.5 26 64.91 81.5 99.5 222.5 132.5 371M1084.5 1337c12.33 37 29.5 110.3 43.5 175.5m-646.5 0c.333-32.83 7.7-107.6 20.5-157" stroke="#000" stroke-width="20" stroke-linecap="round"/><path d="M813.56 1341.57S967.5 1242.5 1026.5 1083m-212.94 258.57C725.5 1270 627 1177.5 563 1060m250.56 281.57C866.706 1384.05 991.7 1478 1066.5 1514m-589-421.5c47.333 82.17 199 281.5 427 421.5m-25-121.76s174.01-131.44 217.5-283.74" stroke="#000" stroke-width="20" stroke-miterlimit="10"/></g><defs><clipPath id="prefix__clip0_53_27489"><path fill="#fff" d="M0 0h1500v1500H0z"/></clipPath></defs>
      <g clip-path="url(#prefix__clip0_299_662)"><path d="M775 1185c231.41 0 419-168.12 419-375.5 0-207.383-187.59-375.5-419-375.5-231.407 0-419 168.117-419 375.5 0 207.38 187.593 375.5 419 375.5z" fill="#ABF"/><path d="M457.5 796c7.6 194 131.833 327.5 193 370l-130-55.5L438 1034l-57.5-89.5-27-106 11-104L394 662l45-82.5 83.5-69.5 109-54.182 28.5-1C569.452 513.314 451.119 633.132 457.5 796z" fill="#001647" fill-opacity=".2"/><path d="M775 1185c231.41 0 419-168.12 419-375.5 0-207.383-187.59-375.5-419-375.5-231.407 0-419 168.117-419 375.5 0 207.38 187.593 375.5 419 375.5z" stroke="#000" stroke-width="20"/></g><defs><clipPath id="prefix__clip0_299_662"><path fill="#fff" d="M0 0h1500v1500H0z"/></clipPath></defs>
      <g clip-path="url(#prefix__clip0_53_29287)"><path d="M764.05 841.24c31.336 0 56.74-25.404 56.74-56.74 0-31.337-25.404-56.74-56.74-56.74-31.337 0-56.74 25.403-56.74 56.74 0 31.336 25.403 56.74 56.74 56.74zM1048.19 841.24c31.34 0 56.74-25.404 56.74-56.74 0-31.337-25.4-56.74-56.74-56.74-31.34 0-56.74 25.403-56.74 56.74 0 31.336 25.4 56.74 56.74 56.74z" fill="#fff" stroke="#000" stroke-width="20" stroke-miterlimit="10"/><path d="M746.05 779.5c7.18 0 13-5.82 13-13s-5.82-13-13-13-13 5.82-13 13 5.82 13 13 13zM1066.19 779.5c7.18 0 13-5.82 13-13s-5.82-13-13-13-13 5.82-13 13 5.82 13 13 13z" fill="#000"/><path d="M831.28 968.721h168.82a5.495 5.495 0 015.5 5.5 89.318 89.318 0 01-89.32 89.319h-1.18a89.323 89.323 0 01-63.159-26.16 89.322 89.322 0 01-26.161-63.159 5.5 5.5 0 015.5-5.5z" fill="#fff" stroke="#000" stroke-width="20" stroke-miterlimit="10"/></g><defs><clipPath id="prefix__clip0_53_29287"><path fill="#fff" d="M0 0h1500v1500H0z"/></clipPath></defs>
      <g clip-path="url(#prefix__clip0_53_26556)"><path d="M610.839 1052.54l25.41-124.378 14-18s32.84-6 38.52-5 129.64 16.45 129.64 16.45l101.58 2.47s73.9-4.05 84.731-5.22c10.83-1.17 48.22-6 58.49-7.76 10.27-1.76 53.32-5.62 68.8-9.75 15.48-4.13 44.08-18 44.08-18S1140.5 1084.5 903.999 1157.05c0 0-92.499 34.95-237.78 5.86-104.73-30.27-63-64.47-63-64.47l7.62-45.9z" fill="#4AEEB9"/><path d="M723 1100.5c-29.6-54.4-21-146-13-185-55.2-22-65.833-.166-72 17.5-11.167 36.167-34.3 116.8-37.5 150-3.2 33.2-1.333 56.5 0 64l99 30 110 4c-16.5-4.17-56.9-26.1-86.5-80.5z" fill="#001647" fill-opacity=".2"/><path d="M1185.94 880.828s-205.091 80.28-505.581 22.77a39.252 39.252 0 00-45.47 28.86c-9.83 38.72-26.31 109.842-38 178.622a42.352 42.352 0 0029.31 47.6c34.82 10.67 90.3 30.53 196.28 24M398.16 971.871c55.3 38.439 125.63 81.449 205 116.639M625.992 943.001l-269.82-144.2" stroke="#000" stroke-width="20" stroke-miterlimit="10"/></g><defs><clipPath id="prefix__clip0_53_26556"><path fill="#fff" d="M0 0h1500v1500H0z"/></clipPath></defs>
      <g clip-path="url(#prefix__clip0_53_26160)"><path d="M212 773.471l62.56-80.08 248.69-245.79 207.41-160.55 85.06 33.85L1046 466.461l168.39 125.54 88.91 84.23-251-11.24-138.55 2.32-274.98 22.69-295.45 51.61L212 773.471z" fill="#9E6740"/><path d="M352.75 743.09l-74.15 13.72-62.07 20.27 35.15 30.82 86.07 25.2 8.749-3.1c-1.999-58 6.251-86.91 6.251-86.91zM1173.57 667.26S1196 714 1201 766.18l21.85-5.56s45.37-27.13 45.6-27.81c.23-.68 29.22-34.81 30.55-36.61 1.33-1.8 8.87-23.65 8.87-23.65L1197.6 669l-24.03-1.74z" fill="#9E6740"/><path d="M596.5 459c-62.8 94.4-100.833 210.333-112 256.5L362 740l-5 48v48l-96-26-45-28.5v-12.757L204 771l128.5-144c43.667-42 152.9-146.1 240.5-226.5S712.833 292 728 288c-17.667 17.667-68.7 76.6-131.5 171zM1198.5 772l-32-100h44l65.5 6.5 27 5.5-39.5 49-65 39z" fill="#001647" fill-opacity=".2"/><path d="M354.75 837.1c-82.24-10.89-126-40-145.78-55.75-4.66-3.71-6.55-10.94-2.65-15.45C247.83 718 434.6 497.48 707.17 294.37c10.14-7.55 30.53-9 42.15-3.88C825.94 324.2 1145.06 509.6 1306 668.14c4.25 4.19 3.87 12.52.5 17.45-16.78 24.51-41 60.87-119.79 89.45" stroke="#000" stroke-width="20" stroke-miterlimit="10"/><path d="M200.5 775.09l66.41-15.37C608.583 674.233 954.947 646.683 1306 677.07" stroke="#000" stroke-width="20" stroke-miterlimit="10"/></g><defs><clipPath id="prefix__clip0_53_26160"><path fill="#fff" d="M0 0h1500v1500H0z"/></clipPath></defs>
      
    </g>
    </svg>