<svg
      xmlns="http://www.w3.org/2000/svg"
      preserveAspectRatio="xMidYMin meet"
      fill="none"
      viewBox="0 0 1500 1500"
    >
      <g>
      <path fill="url(#prefix__paint0_linear_53_30459)" d="M0 0h1500v1500H0z"/><defs><linearGradient id="prefix__paint0_linear_53_30459" x1="0" y1="0" x2="1500" y2="1500" gradientUnits="userSpaceOnUse">
<stop stop-color="#FFCB9F"/>
<stop offset="1" stop-color="#FF7F11"/>
</linearGradient></defs>
      <g clip-path="url(#clip0_491_685)">
<path d="M773 1011.5C543.4 1029.9 398.667 1353.5 355 1513H1138.5C1075.7 1127 868.667 1017.83 773 1011.5Z" fill="#99C4CB"/>
<path d="M962.5 1126C854.1 1166.8 658.333 1130.67 574 1107.5C598 1077.17 671.6 1016.1 774 1014.5C876.4 1012.9 942.333 1088.17 962.5 1126Z" fill="white"/>
<path d="M409.87 1339.62C462.691 1207.98 569.086 1113.24 605.384 1082.33L674 1033.5L749.5 1019.5C701.059 1045.48 675.372 1081.51 640 1120.5L648.5 1131.5L832 1155C723.6 1169.8 633.231 1154.83 601.597 1145.5C497.4 1275.38 453.489 1441.33 443.159 1511H353.699C350.414 1508.73 357.049 1471.27 409.87 1339.62Z" fill="#001647" fill-opacity="0.2"/>
<path d="M353.5 1519.5C365.5 1454.33 414.5 1313.6 483.5 1219C530.101 1155.11 577.468 1101.29 629.141 1059.66C710.278 994.299 826.037 996.323 905.02 1064.27C1000.08 1146.05 1103.44 1290.29 1142.5 1519.5M1013.5 1319C1024.83 1354.33 1048.1 1443.9 1050.5 1519.5M667 1361.5C661.167 1392.33 650.3 1467.1 653.5 1519.5M650.709 1114.61L701.499 1022.5M715.831 1124.68L740.999 1017M779.554 1134.48L776.499 1017M847.516 1137.5L802.499 1017M906.146 1132.43L844.499 1028M583 1106C661.315 1137.44 846.556 1163.72 963 1128.29" stroke="black" stroke-width="22" stroke-linecap="round"/>
</g>
<defs>
<clipPath id="clip0_491_685">
<rect width="1500" height="1500" fill="white"/>
</clipPath>
</defs>
      <g clip-path="url(#clip0_497_1194)">
<path d="M379.667 654.812C432.345 471.574 618.472 401.981 699.114 390.653C740.985 382.718 849.655 375.215 949.364 408.675C980 418.956 1049.88 457.388 1091.92 499.818C1144.47 552.856 1272.97 732.052 1185.05 927.725C1097.12 1123.4 758.414 1092.29 612.749 1051.82C464.472 1010.63 314.48 881.563 379.667 654.812Z" fill="#AABBFF"/>
<path d="M449.293 747.204C454.734 531.068 585.306 432.345 649.911 410C432.292 459.565 365.296 655.455 364 747.204C377.99 984.871 584.496 1053.43 681 1058C601.498 1044.46 443.853 963.339 449.293 747.204Z" fill="#001647" fill-opacity="0.2"/>
<path d="M379.667 654.812C432.345 471.574 618.472 401.981 699.114 390.653C740.985 382.718 849.655 375.215 949.364 408.675C980 418.956 1049.88 457.388 1091.92 499.818C1144.47 552.856 1272.97 732.052 1185.05 927.725C1097.12 1123.4 758.414 1092.29 612.749 1051.82C464.472 1010.63 314.48 881.563 379.667 654.812Z" stroke="black" stroke-width="22" stroke-linecap="round"/>
</g>
<defs>
    <clipPath id="prefix__clip0_299_662"><path fill="#fff" d="M0 0h1500v1500H0z"/></clipPath>
</defs>
      <g clip-path="url(#clip0_624_3293)">
<path d="M916.488 918.577L931.325 908.854C933.985 907.112 936.223 904.799 937.876 902.083C939.529 899.367 940.556 896.317 940.882 893.154C941.208 889.991 940.825 886.795 939.761 883.799C938.697 880.803 936.978 878.082 934.73 875.834V875.834C932.657 873.764 930.181 872.142 927.456 871.068C924.731 869.994 921.814 869.491 918.886 869.59C915.959 869.689 913.083 870.388 910.436 871.643C907.79 872.899 905.429 874.684 903.501 876.889L890.301 891.98" stroke="black" stroke-width="22" stroke-miterlimit="10" stroke-linecap="round"/>
<path d="M916.488 918.675L931.325 928.397C933.986 930.137 936.225 932.449 937.879 935.164C939.533 937.88 940.561 940.93 940.887 944.092C941.213 947.255 940.83 950.451 939.764 953.446C938.699 956.442 936.979 959.162 934.73 961.409V961.409C932.66 963.484 930.185 965.11 927.46 966.188C924.734 967.265 921.817 967.77 918.888 967.672C915.959 967.574 913.081 966.874 910.434 965.617C907.787 964.359 905.427 962.57 903.501 960.362L890.301 945.271" stroke="black" stroke-width="22" stroke-miterlimit="10" stroke-linecap="round"/>
<path d="M1012 817C1038.51 817 1060 795.51 1060 769C1060 742.49 1038.51 721 1012 721C985.49 721 964 742.49 964 769C964 795.51 985.49 817 1012 817Z" fill="black" stroke="black" stroke-width="22" stroke-miterlimit="10"/>
<path d="M1025.18 765.61C1035.8 765.61 1044.4 757.009 1044.4 746.398C1044.4 735.788 1035.8 727.186 1025.18 727.186C1014.57 727.186 1005.97 735.788 1005.97 746.398C1005.97 757.009 1014.57 765.61 1025.18 765.61Z" fill="white"/>
<path d="M994.295 774.185C998.822 774.185 1002.49 770.515 1002.49 765.988C1002.49 761.461 998.822 757.791 994.295 757.791C989.768 757.791 986.098 761.461 986.098 765.988C986.098 770.515 989.768 774.185 994.295 774.185Z" fill="white"/>
<path d="M1018.1 800.697C1026.05 800.697 1032.49 794.254 1032.49 786.307C1032.49 778.359 1026.05 771.917 1018.1 771.917C1010.16 771.917 1003.71 778.359 1003.71 786.307C1003.71 794.254 1010.16 800.697 1018.1 800.697Z" fill="white"/>
<path d="M822 817C848.51 817 870 795.51 870 769C870 742.49 848.51 721 822 721C795.49 721 774 742.49 774 769C774 795.51 795.49 817 822 817Z" fill="black" stroke="black" stroke-width="22" stroke-miterlimit="10"/>
<path d="M835.185 765.61C845.795 765.61 854.397 757.009 854.397 746.398C854.397 735.788 845.795 727.186 835.185 727.186C824.574 727.186 815.973 735.788 815.973 746.398C815.973 757.009 824.574 765.61 835.185 765.61Z" fill="white"/>
<path d="M804.295 774.185C808.822 774.185 812.492 770.515 812.492 765.988C812.492 761.461 808.822 757.791 804.295 757.791C799.768 757.791 796.098 761.461 796.098 765.988C796.098 770.515 799.768 774.185 804.295 774.185Z" fill="white"/>
<path d="M828.103 800.697C836.051 800.697 842.493 794.254 842.493 786.307C842.493 778.359 836.051 771.917 828.103 771.917C820.156 771.917 813.713 778.359 813.713 786.307C813.713 794.254 820.156 800.697 828.103 800.697Z" fill="white"/>
</g>
<defs>
<clipPath id="clip0_624_3293">
<rect width="1500" height="1500" fill="white"/>
</clipPath>
</defs>
      <g clip-path="url(#clip0_924_508)">
<path d="M582.499 804.5C582.499 810.023 586.976 814.5 592.499 814.5C598.022 814.5 602.499 810.023 602.499 804.5H582.499ZM747.333 760L622.499 760L622.499 780L747.333 780L747.333 760ZM582.499 800V804.5H602.499V800H582.499ZM622.499 760C600.408 760 582.499 777.908 582.499 800H602.499C602.499 788.954 611.453 780 622.499 780L622.499 760Z" fill="black"/>
<path d="M894.386 769.667H939.5" stroke="black" stroke-width="20" stroke-miterlimit="10"/>
<path d="M989.139 711.37C989.153 711.379 989.168 711.384 989.185 711.384C989.201 711.385 989.217 711.38 989.231 711.372C989.245 711.364 989.256 711.352 989.264 711.338C989.271 711.323 989.275 711.307 989.273 711.291C989.273 708.797 990.302 676.51 1024.25 679.154C1024.25 679.154 1052.73 681.648 1055.38 712.609C1055.38 712.623 1055.39 712.637 1055.4 712.649C1055.4 712.661 1055.41 712.672 1055.43 712.679C1055.44 712.687 1055.45 712.692 1055.47 712.693C1055.48 712.695 1055.5 712.693 1055.51 712.688C1057.55 711.899 1086.02 700.802 1100.84 724.526C1115.66 748.25 1091.4 768.865 1089.77 770.175C1089.76 770.184 1089.75 770.195 1089.74 770.207C1089.74 770.219 1089.73 770.233 1089.73 770.246C1089.73 770.26 1089.74 770.273 1089.74 770.285C1089.75 770.297 1089.76 770.308 1089.77 770.317C1091.29 771.825 1115.74 793.449 1101.63 816.416C1087.53 839.382 1058.56 827.946 1056.54 826.928C1056.53 826.92 1056.51 826.915 1056.5 826.914C1056.48 826.913 1056.47 826.916 1056.45 826.922C1056.44 826.929 1056.43 826.938 1056.42 826.95C1056.41 826.962 1056.4 826.977 1056.4 826.991C1056.01 829.186 1050.02 859.642 1023.17 859.997C996.331 860.352 988.538 830.488 988.031 828.428C988.028 828.415 988.022 828.403 988.013 828.393C988.005 828.382 987.994 828.374 987.982 828.368C987.97 828.362 987.957 828.359 987.944 828.358C987.93 828.358 987.917 828.36 987.905 828.365C986.014 829.225 958.529 841.055 942.611 815.603C926.693 790.15 949.534 772.03 951.156 770.791C951.167 770.783 951.176 770.772 951.183 770.76C951.189 770.747 951.193 770.734 951.193 770.72C951.193 770.706 951.189 770.692 951.183 770.68C951.176 770.667 951.167 770.657 951.156 770.649C949.573 769.228 926.574 747.864 943.893 722.088C960.507 697.495 987.019 710.297 989.139 711.37Z" fill="#4AEEB9" stroke="black" stroke-width="20" stroke-miterlimit="10"/>
<path d="M784.139 711.37C784.153 711.379 784.168 711.384 784.185 711.384C784.201 711.385 784.217 711.38 784.231 711.372C784.245 711.364 784.256 711.352 784.264 711.338C784.271 711.323 784.275 711.307 784.273 711.291C784.273 708.797 785.302 676.51 819.251 679.154C819.251 679.154 847.732 681.648 850.383 712.609C850.384 712.623 850.389 712.637 850.397 712.649C850.404 712.661 850.414 712.672 850.427 712.679C850.439 712.687 850.453 712.692 850.467 712.693C850.481 712.695 850.496 712.693 850.509 712.688C852.55 711.899 881.024 700.802 895.843 724.526C910.661 748.25 886.404 768.865 884.766 770.175C884.756 770.184 884.748 770.195 884.743 770.207C884.737 770.219 884.734 770.233 884.734 770.246C884.734 770.26 884.737 770.273 884.743 770.285C884.748 770.297 884.756 770.308 884.766 770.317C886.285 771.825 910.74 793.449 896.634 816.416C882.527 839.382 853.563 827.946 851.538 826.928C851.525 826.92 851.511 826.915 851.496 826.914C851.481 826.913 851.466 826.916 851.453 826.922C851.439 826.929 851.427 826.938 851.419 826.95C851.41 826.962 851.405 826.977 851.403 826.991C851.008 829.186 845.019 859.642 818.175 859.997C791.331 860.352 783.538 830.488 783.031 828.428C783.028 828.415 783.022 828.403 783.013 828.393C783.005 828.382 782.994 828.374 782.982 828.368C782.97 828.362 782.957 828.359 782.944 828.358C782.93 828.358 782.917 828.36 782.905 828.365C781.014 829.225 753.529 841.055 737.611 815.603C721.693 790.15 744.534 772.03 746.156 770.791C746.167 770.783 746.176 770.772 746.183 770.76C746.189 770.747 746.193 770.734 746.193 770.72C746.193 770.706 746.189 770.692 746.183 770.68C746.176 770.667 746.167 770.657 746.156 770.649C744.573 769.228 721.574 747.864 738.893 722.088C755.507 697.495 782.019 710.297 784.139 711.37Z" fill="#4AEEB9" stroke="black" stroke-width="20" stroke-miterlimit="10"/>
<path d="M1054 770C1054 788.336 1039.34 803 1021.5 803C1003.66 803 989 788.336 989 770C989 751.664 1003.66 737 1021.5 737C1039.34 737 1054 751.664 1054 770Z" fill="#FFBF44" stroke="black" stroke-width="20"/>
<path d="M849 770C849 788.336 834.339 803 816.5 803C798.661 803 784 788.336 784 770C784 751.664 798.661 737 816.5 737C834.339 737 849 751.664 849 770Z" fill="#FFBF44" stroke="black" stroke-width="20"/>
<path d="M1010.55 731.17C1006.77 701.733 1023.94 686.472 1032.99 685.021C1021.34 681.539 998.775 687.791 993.525 691.352C991.687 694.122 987.618 700.294 986.043 702.826C984.074 705.991 982.893 709.552 981.712 709.948C980.531 710.344 964.78 711.531 963.993 711.531C963.205 711.531 943.517 719.84 943.124 720.631C942.73 721.422 935.249 740.414 935.249 741.206C935.249 741.839 938.924 764.418 940.761 775.628C938.53 780.904 933.673 792.959 932.098 798.973C930.523 804.987 948.242 823.108 957.299 831.417L987.224 833.395L1016.76 859.905C1031.72 860.301 1059.6 859.668 1035.66 853.97C1011.72 848.272 1009.14 821.537 1010.85 811.382C1009.8 809.14 1003.45 804.418 1002.19 803.469C1000.61 802.282 989.193 795.016 988.8 794.225C988.406 793.433 983.287 785.124 982.893 767.319C982.578 753.076 1004.25 738.952 1010.55 731.17Z" fill="#001647" fill-opacity="0.2"/>
<path d="M805.55 731.17C801.77 701.733 818.938 686.472 827.994 685.021C816.339 681.539 793.775 687.791 788.525 691.352C786.687 694.122 782.618 700.294 781.043 702.826C779.074 705.991 777.893 709.552 776.712 709.948C775.531 710.344 759.78 711.531 758.993 711.531C758.205 711.531 738.517 719.84 738.124 720.631C737.73 721.422 730.249 740.414 730.249 741.206C730.249 741.839 733.924 764.418 735.761 775.628C733.53 780.904 728.673 792.959 727.098 798.973C725.523 804.987 743.242 823.108 752.299 831.417L782.224 833.395L811.756 859.905C826.719 860.301 854.597 859.668 830.657 853.97C806.716 848.272 804.144 821.537 805.85 811.382C804.8 809.14 798.447 804.418 797.187 803.469C795.612 802.282 784.193 795.016 783.8 794.225C783.406 793.433 778.287 785.124 777.893 767.319C777.578 753.076 799.25 738.952 805.55 731.17Z" fill="#001647" fill-opacity="0.2"/>
<path d="M989.139 711.37C989.153 711.379 989.168 711.384 989.185 711.384C989.201 711.385 989.217 711.38 989.231 711.372C989.245 711.364 989.256 711.352 989.264 711.338C989.271 711.323 989.275 711.307 989.273 711.291C989.273 708.797 990.302 676.51 1024.25 679.154C1024.25 679.154 1052.73 681.648 1055.38 712.609C1055.38 712.623 1055.39 712.637 1055.4 712.649C1055.4 712.661 1055.41 712.672 1055.43 712.679C1055.44 712.687 1055.45 712.692 1055.47 712.693C1055.48 712.695 1055.5 712.693 1055.51 712.688C1057.55 711.899 1086.02 700.802 1100.84 724.526C1115.66 748.25 1091.4 768.865 1089.77 770.175C1089.76 770.184 1089.75 770.195 1089.74 770.207C1089.74 770.219 1089.73 770.233 1089.73 770.246C1089.73 770.26 1089.74 770.273 1089.74 770.285C1089.75 770.297 1089.76 770.308 1089.77 770.317C1091.29 771.825 1115.74 793.449 1101.63 816.416C1087.53 839.382 1058.56 827.946 1056.54 826.928C1056.53 826.92 1056.51 826.915 1056.5 826.914C1056.48 826.913 1056.47 826.916 1056.45 826.922C1056.44 826.929 1056.43 826.938 1056.42 826.95C1056.41 826.962 1056.4 826.977 1056.4 826.991C1056.01 829.186 1050.02 859.642 1023.17 859.997C996.331 860.352 988.538 830.488 988.031 828.428C988.028 828.415 988.022 828.403 988.013 828.393C988.005 828.382 987.994 828.374 987.982 828.368C987.97 828.362 987.957 828.359 987.944 828.358C987.93 828.358 987.917 828.36 987.905 828.365C986.014 829.225 958.529 841.055 942.611 815.603C926.693 790.15 949.534 772.03 951.156 770.791C951.167 770.783 951.176 770.772 951.183 770.76C951.189 770.747 951.193 770.734 951.193 770.72C951.193 770.706 951.189 770.692 951.183 770.68C951.176 770.667 951.167 770.657 951.156 770.649C949.573 769.228 926.574 747.864 943.893 722.088C960.507 697.495 987.019 710.297 989.139 711.37Z" stroke="black" stroke-width="20" stroke-miterlimit="10"/>
<path d="M784.139 711.37C784.153 711.379 784.168 711.384 784.185 711.384C784.201 711.385 784.217 711.38 784.231 711.372C784.245 711.364 784.256 711.352 784.264 711.338C784.271 711.323 784.275 711.307 784.273 711.291C784.273 708.797 785.302 676.51 819.251 679.154C819.251 679.154 847.732 681.648 850.383 712.609C850.384 712.623 850.389 712.637 850.397 712.649C850.404 712.661 850.414 712.672 850.427 712.679C850.439 712.687 850.453 712.692 850.467 712.693C850.481 712.695 850.496 712.693 850.509 712.688C852.55 711.899 881.024 700.802 895.843 724.526C910.661 748.25 886.404 768.865 884.766 770.175C884.756 770.184 884.748 770.195 884.743 770.207C884.737 770.219 884.734 770.233 884.734 770.246C884.734 770.26 884.737 770.273 884.743 770.285C884.748 770.297 884.756 770.308 884.766 770.317C886.285 771.825 910.74 793.449 896.634 816.416C882.527 839.382 853.563 827.946 851.538 826.928C851.525 826.92 851.511 826.915 851.496 826.914C851.481 826.913 851.466 826.916 851.453 826.922C851.439 826.929 851.427 826.938 851.419 826.95C851.41 826.962 851.405 826.977 851.403 826.991C851.008 829.186 845.019 859.642 818.175 859.997C791.331 860.352 783.538 830.488 783.031 828.428C783.028 828.415 783.022 828.403 783.013 828.393C783.005 828.382 782.994 828.374 782.982 828.368C782.97 828.362 782.957 828.359 782.944 828.358C782.93 828.358 782.917 828.36 782.905 828.365C781.014 829.225 753.529 841.055 737.611 815.603C721.693 790.15 744.534 772.03 746.156 770.791C746.167 770.783 746.176 770.772 746.183 770.76C746.189 770.747 746.193 770.734 746.193 770.72C746.193 770.706 746.189 770.692 746.183 770.68C746.176 770.667 746.167 770.657 746.156 770.649C744.573 769.228 721.574 747.864 738.893 722.088C755.507 697.495 782.019 710.297 784.139 711.37Z" stroke="black" stroke-width="20" stroke-miterlimit="10"/>
</g>
<defs>
<clipPath id="clip0_924_508">
<rect width="1500" height="1500" fill="white"/>
</clipPath>
</defs>
      <g clip-path="url(#clip0_771_818)">
<path d="M466 531L495 567L539.5 577.5L674.5 602L807.5 605L942 602L1093.5 572C1101.17 570.333 1114.9 558.8 1108.5 526C1102.1 493.2 1077.17 484.333 1065.5 484C1067.17 480.5 1067.2 465.7 1054 434.5C1040.8 403.3 1002.5 403.833 985 408C980.333 397.333 966.3 372.5 947.5 358.5C928.7 344.5 890.667 350 874 354.5C872.333 343.833 860.5 320.9 826.5 314.5C792.5 308.1 760.667 326.167 749 336C742 332 721.7 324.5 696.5 326.5C671.3 328.5 646.333 351.333 637 362.5L630.5 366L610 362.5L576.5 376L552.5 400C542.667 403 522.5 409.7 520.5 412.5C518 416 515.5 422.5 514.5 425.5C513.5 428.5 498.5 466 495 468.5C492.2 470.5 478.167 484.667 471.5 491.5L466 531Z" fill="#F56CDB"/>
<path d="M504.5 567.988C489 560.847 465.1 553.6 467.5 518C468.714 499.991 477.231 487.919 486.769 481.102C495.04 475.19 504.467 461.916 504.414 451.749C504.279 425.542 518.145 395.338 557.5 399.5C599.645 403.957 602 449.334 589 469.5M589 530.5C599.5 535.834 624.361 540.612 631 513.5C638.239 483.935 590.17 454.806 559.5 481.5C532.5 505 527.5 567.806 587.5 588.806M698 463C695.009 479.152 694.457 507.929 707.553 525.841C718.294 540.533 740.808 541.523 754.795 529.878C763.905 522.292 772.497 509.913 776.5 490.5M687 599.765C698.667 597.932 718.3 578.135 728.5 540.135M948.5 542.5C975.5 534.5 1032.8 534.499 1044 582.899M807 552.5C804.895 538.516 809.617 513.038 835 512.683M858.5 605.929C852.5 577.929 887.5 521.5 844 513.5C840.746 512.902 837.751 512.645 835 512.683M955.5 471C919.5 466.5 872 492.501 865.717 534.5M561 397.5C566.333 379.5 587.8 349.901 631 367.501C633.67 368.589 636.167 369.738 638.5 370.941M665.5 434.5C671.598 419.802 673.912 389.202 638.5 370.941M665.5 390.501C680.333 380 716.8 367.1 744 399.5C752.185 409.25 756.243 418.519 757.61 427.001M741.5 469.5C749.423 462.16 760.784 446.706 757.61 427.001M1028 492.501C1035.06 489.273 1054.11 481.289 1066.5 481M1099.5 565.201C1109 556.201 1127 529 1108.5 503C1097.11 486.999 1081.63 480.647 1066.5 481M959 430.501C962.686 423.48 971.195 414.122 984.5 409.695M1066.5 481C1074.83 465.667 1064.9 430.501 1032 415.001C1012.3 405.721 996.463 405.714 984.5 409.695M870.981 362C883.147 353.167 911.46 341.192 942 353.001C979.5 367.501 982.667 396.63 984.5 409.695M757.61 427.001C772.063 424.737 803.372 425.179 822.823 442.501M835 512.683C840.5 500.956 846.9 471.701 828.5 448.501C826.759 446.305 824.856 444.311 822.823 442.501M892 421.001C882.382 432.167 855.081 452.1 822.823 442.501M752.699 342.001C742.699 333.001 715.8 317.701 683 328.501C650.2 339.301 639.667 361.294 638.5 370.941M854.5 386.001C869 373.001 888.7 341.901 851.5 321.501C805 296.001 751.941 330.044 744 360.001C740.333 372.436 732.8 400.044 754 405C776.5 410.26 794.667 389.565 799 379.5M1127 552.5C1094.33 570.667 988.398 611.716 799 605.5C540 597 474 568.5 451 525" stroke="black" stroke-width="22" stroke-linecap="round"/>
<path d="M594 501C609.6 504.6 606.5 519.833 603 527C606.667 528.833 614.5 532.7 616.5 533.5C618.5 534.3 624 524.5 626.5 519.5C626.667 509.167 624.4 486.5 614 478.5C603.6 470.5 573.333 478.833 559.5 484L578 470H609.5C610.3 420.4 648.5 404.667 667.5 403L677 381H725L741 374.5L747.5 337.5L716.5 323L650.5 342.5L636.5 367C630 365.667 616.4 362.8 614 362C611.6 361.2 589 366.334 578 369L565 398H544.5L512.5 428L495 475.5L467 504.5L476 548.5L544.5 581C547.167 580.667 552.4 573.7 552 548.5C551.5 517 574.5 496.5 594 501Z" fill="#001647" fill-opacity="0.2"/>
<path d="M776.5 395.5C759 373 787.5 337.5 817 320.5C812.5 318 795.8 315.5 795 315.5C794.2 315.5 770.667 327.167 759 333L747.5 367L745 395.5C747.667 398 753.3 403.5 754.5 405.5C755.7 407.5 773.333 398.833 776.5 395.5Z" fill="#001647" fill-opacity="0.2"/>
<path d="M896 358C896 376.726 883.737 392.8 874.592 400.557C871.41 403.256 866.882 402.853 863.588 400.291C859.077 396.782 858.158 390.33 861.51 385.701L866 379.5L878.5 363L896 358Z" fill="#001647" fill-opacity="0.2"/>
<path d="M1103 510C1094.36 499.284 1063.06 507.338 1042.35 514.349C1037.38 516.03 1031.92 513.652 1029.92 508.804C1027.99 504.116 1029.99 498.731 1034.51 496.437L1061 483L1084.5 487L1103 510Z" fill="#001647" fill-opacity="0.2"/>
<path d="M1030 576C1019.42 558.933 984.296 560.799 960.861 565.132C954.991 566.217 949.195 562.405 948.264 556.508C947.525 551.827 950.131 547.259 954.536 545.511L976 537L1015.5 548.5L1037.5 573L1030 576Z" fill="#001647" fill-opacity="0.2"/>
<path d="M752 542C755.6 560 738.833 587.833 731.5 599.5C723.333 598.833 706.4 597.4 704 597C701.6 596.6 710 584.833 714.5 579L729.5 548.5L752 542Z" fill="#001647" fill-opacity="0.2"/>
<path d="M735 529C719.357 518.571 719.323 487.372 720.457 466.909C720.715 462.261 717.232 458.24 712.587 457.92C708.955 457.669 705.583 459.783 704.389 463.221C702.192 469.547 699.706 477.617 700 478.5C700.4 479.7 701.833 501 702.5 511.5L723 531L735 529Z" fill="#001647" fill-opacity="0.2"/>
<path d="M863.5 513C878.7 432.2 825.5 404.5 781 404.5L771.5 409.5L762 422.5L811 428.5L840 458.5L843 508.5L863.5 513Z" fill="#001647" fill-opacity="0.2"/>
<path d="M890.708 549.628C889.654 565.029 884.579 588.352 882 601H860C859.833 599 859.9 593.2 861.5 586C863.5 577 863.5 570.5 866 561C868.5 551.5 868 542 869.5 533.5C870.7 526.7 873 521.333 874 519.5L884.5 499.5L915.5 484L948.018 479.69C952.775 479.06 957 482.762 957 487.561C957 491.945 953.427 495.452 949.071 495.952C925.095 498.708 907.201 513.544 897.011 526.405C891.974 532.764 891.262 541.534 890.708 549.628Z" fill="#001647" fill-opacity="0.2"/>
<path d="M1057 445.5C1027.49 420.8 1001.15 429.821 986.029 441.927C980.607 446.268 972.591 447.095 967.392 442.49C962.877 438.491 962.03 431.765 965.412 426.772L970 420L990.5 412H1015.5L1048 428.5L1057 445.5Z" fill="#001647" fill-opacity="0.2"/>
</g>
<defs>
<clipPath id="clip0_771_818">
<rect width="1500" height="1500" fill="white"/>
</clipPath>
</defs>
      
    </g>
    </svg>