<svg
      xmlns="http://www.w3.org/2000/svg"
      preserveAspectRatio="xMidYMin meet"
      fill="none"
      viewBox="0 0 1500 1500"
    >
      <g>
      <path fill="url(#prefix__a1)" d="M0 0h1500v1500H0z"/><defs><linearGradient id="prefix__a1" x1="1500" y1="1500" x2="0" y2="0" gradientUnits="userSpaceOnUse">
<stop stop-color="#1555D1"/>
<stop offset="1" stop-color="#70E5FF"/>
</linearGradient></defs>
      <g clip-path="url(#clip0_1102_43822)">
<path d="M773 1011.5C543.4 1029.9 398.667 1353.5 355 1513H1138.5C1075.7 1127 868.667 1017.83 773 1011.5Z" fill="#F56CDB"/>
<path d="M808.5 1165.5L798 1438L856 1474.5L896.5 1433L852 1163L869 1154L825 1098.5L803.5 1154L808.5 1165.5Z" fill="#3A3A3A"/>
<path d="M769 1151L789 1174L828 1096.5L879 1169.5L895.5 1162L885 1099L854 1033.5L799 1014L781 1067.5L769 1151Z" fill="white"/>
<path d="M775.5 1314.5L769 1174C770.5 1172 774.5 1168.7 778.5 1171.5C782.5 1174.3 791.5 1174.33 795.5 1174L816.5 1162L808 1273.5V1431.5L857 1479.5L894 1428L876 1306.5L851.5 1162L862.5 1158.5L870.5 1171L886 1174H895.5L912.5 1256.5V1421L906 1507L816.5 1504.5L797.5 1446.5L786 1377.5L775.5 1314.5Z" fill="white"/>
<path d="M749.5 1019.5C536 1134 457.448 1414.63 443.159 1511H353.699C350.414 1508.73 357.049 1471.27 409.87 1339.62C462.691 1207.98 569.086 1113.24 605.384 1082.33L674 1033.5L749.5 1019.5Z" fill="#001647" fill-opacity="0.2"/>
<path d="M678.896 1219.72L679 1219.5L730.5 1241.5L719.5 1262.5L686.882 1244.68C677.988 1239.82 674.474 1228.83 678.896 1219.72Z" fill="#001647" fill-opacity="0.2"/>
<path d="M681.576 1320.46L688.5 1313L743 1511H726.5C699.73 1459.32 682.982 1377.71 676.739 1335.82C675.905 1330.22 677.727 1324.6 681.576 1320.46Z" fill="#001647" fill-opacity="0.2"/>
<path d="M846.5 1163L817 1118.5L826.5 1097L862 1152L846.5 1163Z" fill="#001647" fill-opacity="0.2"/>
<path d="M785 1345C782.2 1298.6 789.5 1212.67 793.5 1175.5L796.5 1163H810C809 1225.33 807 1351.6 807 1358C807 1364.4 800 1378 796.5 1384L785 1345Z" fill="#001647" fill-opacity="0.2"/>
<path d="M893.5 1364.5C889.1 1280.9 881 1207 877.5 1180.5L892.5 1168L904.5 1211L910.5 1317L904.5 1393L893.5 1364.5Z" fill="#001647" fill-opacity="0.2"/>
<path d="M875.5 1165L852.5 1087L873.5 1082.33L892.5 1157L875.5 1165Z" fill="#001647" fill-opacity="0.2"/>
<path d="M879.5 1511L889 1450C890.869 1438 902.779 1438.33 908.5 1440L899.5 1511H879.5Z" fill="#001647" fill-opacity="0.2"/>
<path d="M768.498 1017C749.683 1045.07 696.85 1151.63 687.526 1215.84C687.466 1216.24 687.669 1216.63 688.031 1216.84L731.746 1241.13C732.21 1241.38 732.392 1241.96 732.159 1242.44L696.152 1316.43C696.053 1316.63 696.024 1316.86 696.073 1317.08C705.932 1361.02 719.01 1446.25 749.202 1513.1M796.5 1023.5C786.687 1043.22 770.839 1111.23 768.498 1172.05C765.452 1251.21 776.119 1364.72 819.727 1511.42M853.868 1035.5C862.489 1049.62 888.202 1122.63 897.08 1173.23C909.628 1244.75 917.281 1354.82 905.476 1509.42M924.5 1084C931.721 1098.4 954.398 1175.29 962.62 1220.04C962.692 1220.43 962.522 1220.82 962.191 1221.04L939.653 1236.13C939.209 1236.43 939.068 1237 939.343 1237.46C950.523 1256.04 973.65 1296.18 980.791 1314.88C980.843 1315.02 980.862 1315.15 980.852 1315.29C978.17 1351.78 968.492 1441.09 951.08 1508.28M813.981 1165.66C812.009 1218.29 804.412 1385.49 806.233 1433.98C806.24 1434.15 806.285 1434.29 806.375 1434.44C816.072 1449.96 851.746 1473.72 856.882 1477.1C857.26 1477.34 857.724 1477.3 858.055 1476.99C861.76 1473.55 883.178 1453.08 896.927 1426.79C897.026 1426.6 897.065 1426.41 897.031 1426.19C890.239 1383.92 868.036 1241.41 853 1164.5" stroke="black" stroke-width="22" stroke-linecap="round"/>
<path d="M770 1160.89L787.373 1174.98C787.876 1175.39 788.629 1175.22 788.907 1174.63L798.012 1155.46M890 1160.89L878.289 1172.75C877.835 1173.21 877.071 1173.13 876.729 1172.58L865.046 1153.86M798.012 1155.46L826.629 1095.21C826.968 1094.49 827.963 1094.43 828.381 1095.1L865.046 1153.86M798.012 1155.46C800.92 1157.74 805.655 1160.29 811.849 1162.05C821.254 1164.71 834.024 1165.56 848.868 1160.89C854.028 1159.26 859.439 1156.97 865.046 1153.86" stroke="black" stroke-width="22" stroke-linecap="round"/>
<path d="M353.5 1519.5C365.5 1454.33 414.5 1313.6 483.5 1219C530.101 1155.11 577.468 1101.29 629.141 1059.66C710.278 994.299 826.037 996.323 905.02 1064.27C1000.08 1146.05 1103.44 1290.29 1142.5 1519.5M1013.5 1319C1024.83 1354.33 1048.1 1443.9 1050.5 1519.5M667 1361.5C661.167 1392.33 650.3 1467.1 653.5 1519.5" stroke="black" stroke-width="22" stroke-linecap="round"/>
</g>
<defs>
<clipPath id="clip0_1102_43822">
<rect width="1500" height="1500" fill="white"/>
</clipPath>
</defs>
      <g clip-path="url(#clip0_497_1194)">
<path d="M379.667 654.812C432.345 471.574 618.472 401.981 699.114 390.653C740.985 382.718 849.655 375.215 949.364 408.675C980 418.956 1049.88 457.388 1091.92 499.818C1144.47 552.856 1272.97 732.052 1185.05 927.725C1097.12 1123.4 758.414 1092.29 612.749 1051.82C464.472 1010.63 314.48 881.563 379.667 654.812Z" fill="#AABBFF"/>
<path d="M449.293 747.204C454.734 531.068 585.306 432.345 649.911 410C432.292 459.565 365.296 655.455 364 747.204C377.99 984.871 584.496 1053.43 681 1058C601.498 1044.46 443.853 963.339 449.293 747.204Z" fill="#001647" fill-opacity="0.2"/>
<path d="M379.667 654.812C432.345 471.574 618.472 401.981 699.114 390.653C740.985 382.718 849.655 375.215 949.364 408.675C980 418.956 1049.88 457.388 1091.92 499.818C1144.47 552.856 1272.97 732.052 1185.05 927.725C1097.12 1123.4 758.414 1092.29 612.749 1051.82C464.472 1010.63 314.48 881.563 379.667 654.812Z" stroke="black" stroke-width="22" stroke-linecap="round"/>
</g>
<defs>
    <clipPath id="prefix__clip0_299_662"><path fill="#fff" d="M0 0h1500v1500H0z"/></clipPath>
</defs>
      <g clip-path="url(#clip0_624_3562)">
<path d="M799.421 789.214L858.141 778.547C859.189 778.352 860.151 777.837 860.895 777.073C861.639 776.309 862.128 775.334 862.294 774.28C862.455 773.224 862.285 772.143 861.808 771.187C861.331 770.234 860.569 769.453 859.628 768.954L804.701 739.807" stroke="black" stroke-width="22" stroke-miterlimit="10" stroke-linecap="round"/>
<path d="M1037.67 789.214L979.001 778.547C977.951 778.355 976.987 777.841 976.243 777.076C975.499 776.312 975.011 775.335 974.847 774.28C974.687 773.227 974.854 772.149 975.327 771.194C975.804 770.237 976.569 769.453 977.514 768.954L1032.44 739.807" stroke="black" stroke-width="22" stroke-miterlimit="10" stroke-linecap="round"/>
<path d="M992 915.801C992 944.083 960.211 967 921 967C881.789 967 850 944.083 850 915.801C850.013 910.144 851.278 904.561 853.703 899.453C858.875 888.383 870.646 884.1 880.667 889.061C892.124 894.775 906.017 898.12 921.008 898.12C935.999 898.12 949.884 894.775 961.349 889.061C971.354 884.068 983.133 888.383 988.313 899.453C990.733 904.562 991.993 910.145 992 915.801Z" fill="white" stroke="black" stroke-width="22" stroke-miterlimit="10"/>
</g>
<defs>
<clipPath id="clip0_624_3562">
<rect width="1500" height="1500" fill="white"/>
</clipPath>
</defs>
      <g clip-path="url(#clip0_911_278)">
<path d="M741 865.42V871.56C741.01 872.669 740.781 873.767 740.33 874.78C739.07 877.64 736.99 877.78 736.99 877.78C735.893 878.033 734.754 878.046 733.651 877.818C732.548 877.59 731.507 877.127 730.6 876.46C727.96 874.35 721.36 856.25 721.36 856.25L708.65 876.46H700L717.8 848.25L712.21 836.66C711.84 835.888 711.265 835.233 710.547 834.767C709.828 834.301 708.996 834.043 708.14 834.02H708C707.225 833.94 706.442 834.054 705.721 834.351C705.001 834.647 704.365 835.118 703.87 835.72C702.98 836.61 702.66 839.5 702.66 839.5L700.88 839.63C700.634 837.881 700.59 836.109 700.75 834.35C700.862 833.001 701.324 831.705 702.09 830.59C702.61 829.783 703.325 829.12 704.169 828.664C705.014 828.208 705.96 827.972 706.92 827.98C708.535 827.979 710.11 828.479 711.43 829.41C712.762 830.35 713.801 831.646 714.43 833.15L719.69 846.2L731.13 828.8H739L723.2 853.31L727.14 862.63C727.14 862.63 730.14 871.63 734.45 871.63C738.76 871.63 739.16 865.41 739.16 865.41L741 865.42Z" fill="black"/>
</g>
<defs>
<clipPath id="clip0_911_278">
<rect width="1500" height="1500" fill="white"/>
</clipPath>
</defs>
      <g clip-path="url(#clip0_786_1335)">
<path d="M711.94 381.541L669.138 415.004L754.914 456.956C786.09 456.451 856.04 454.579 886.429 451.127C916.817 447.675 946.703 430.594 957.848 422.485L912.882 387.272L890.772 360.146L852.07 352.844L816.711 388.83L811.119 369.892L779.2 357.196L748.101 362.456L711.94 381.541Z" fill="#AABBFF"/>
<path d="M754.823 451.145C758.386 440.393 766.661 423.631 780.081 411.559M882.17 449.083C878.062 439.675 870.922 425.659 859.411 414.501M670.743 416.037C678.291 403.405 696.028 378.1 722.448 377.672C724.832 377.634 727.122 377.712 729.323 377.895M780.081 411.559C789.433 403.145 801.285 397.009 815.783 396.774C818.147 396.736 820.438 396.825 822.658 397.03M780.081 411.559C771.884 400.903 758.35 380.305 729.323 377.895M953.095 422.563C946.826 410.677 929.573 387.795 908.089 385.052M859.411 414.501C864.186 404.755 879.655 385.169 903.328 384.785C904.936 384.759 906.524 384.852 908.089 385.052M859.411 414.501C850.192 405.565 838.17 398.463 822.658 397.03M729.323 377.895C734.108 368.72 747.587 350.309 768.512 349.97C795.461 349.534 817.557 375.809 822.658 397.03M908.089 385.052C903.334 374.267 889.367 351.713 871.612 352C849.419 352.36 832.274 370.674 822.592 392.964" stroke="black" stroke-width="22" stroke-linecap="round"/>
<path d="M578.342 529.026L580.903 574.676L573.558 641.424L541.958 690.124L571.134 698.373L600.225 661.577L613.863 564.569L601.322 530.004L578.342 529.026Z" fill="#AABBFF"/>
<path d="M1139.83 540.333C1139.83 540.333 1184 600 1203.86 668.503L1271.13 595.241C1271.13 595.241 1319.3 524.486 1316.49 455.043C1313.68 385.601 1306.56 371.446 1306.56 371.446C1306.56 371.446 1285.74 366.946 1271.38 405.791C1257.03 444.635 1188.69 511.68 1188.69 511.68L1139.83 540.333Z" fill="white"/>
<path d="M577.575 617.574C572.014 654.171 552.526 680.899 543.477 689.689L457.683 659.514C438.151 644.169 392.443 604.99 365.863 571.028C339.284 537.067 325.561 467.554 322.022 437.042C322.274 411.53 324.944 354.292 333.609 329.438C342.273 304.584 357.767 337.973 364.431 357.774L406.445 440.636L498.074 510.096L574.218 531.854C577.654 545.179 583.137 580.977 577.575 617.574Z" fill="white"/>
<path d="M466.093 567.787C428.919 538.18 403.201 462.017 394.989 427.637L355.218 327.355L344.026 319.872L319.632 410.917L323.564 483.149L374.176 587.396L469.802 657.026L574.26 695.503C582.646 690.522 600.53 675.602 604.977 655.774C610.536 630.988 523.21 613.279 466.093 567.787Z" fill="#001647" fill-opacity="0.2"/>
<path d="M1162.65 588.921L1136.68 544.786L1162.77 531.383L1207.41 493.748L1249.13 442.475L1279.26 381.202L1298.54 375.016C1277.26 498.723 1187.69 582.561 1179.43 590.812C1176.39 593.856 1173.74 595.177 1171.58 595.583C1167.57 596.337 1164.72 592.44 1162.65 588.921Z" fill="#001647" fill-opacity="0.2"/>
<path d="M563.938 527.191C528.276 526.494 408.125 510.55 360.58 331.185C356.991 317.681 337.781 317.754 334.391 331.312C311.881 421.356 296.754 610.964 536.115 686.572C538.423 687.301 540.889 687.37 543.234 686.773C545.579 686.177 547.712 684.937 549.391 683.194C563.277 668.771 594.614 625.064 576.443 537.472C575.828 534.597 574.257 532.015 571.986 530.148C569.715 528.281 566.878 527.239 563.938 527.191V527.191Z" stroke="black" stroke-width="22" stroke-miterlimit="10"/>
<path d="M1129.71 540.325C1178.22 525.244 1241.52 485.03 1281.71 381.645C1287.94 365.606 1311.52 368.492 1313.74 385.551C1323.7 462.274 1324.4 593.506 1200.33 668.438" stroke="black" stroke-width="22" stroke-miterlimit="10"/>
<path d="M536.114 686.573L561.679 693.356C568.785 695.24 576.686 693.505 581.478 687.923C589.198 678.913 591.232 676.968 599.72 656.981" stroke="black" stroke-width="22" stroke-miterlimit="10" stroke-linecap="round"/>
<path d="M563.938 527.193L584.689 528.077C596.568 528.582 604.191 532.91 607.588 549.5C613.886 580.256 611.001 600.061 611.001 600.061" stroke="black" stroke-width="22" stroke-miterlimit="10" stroke-linecap="round"/>
</g>
<defs>
<clipPath id="clip0_786_1335">
<rect width="1500" height="1500" fill="white"/>
</clipPath>
</defs>
      
    </g>
    </svg>