<svg
      xmlns="http://www.w3.org/2000/svg"
      preserveAspectRatio="xMidYMin meet"
      fill="none"
      viewBox="0 0 1500 1500"
    >
      <g>
      <path fill="url(#prefix__paint0_linear_53_30460)" d="M0 0h1500v1500H0z"/><defs><linearGradient id="prefix__paint0_linear_53_30460" x1="0" y1="0" x2="1500" y2="1500" gradientUnits="userSpaceOnUse">
<stop stop-color="#F1FFBA"/>
<stop offset="1" stop-color="#65DCBA"/>
</linearGradient></defs>
      <g clip-path="url(#clip0_483_466)">
<path d="M388.5 1416.5L352.5 1511L1142 1512L1129 1431.5L1070.5 1276L1007 1176L1042 1113L1028 1043.5C1005.33 1055.83 926.6 1079 793 1073C659.4 1067 549.333 1018.83 511 995.5C492.833 1014.83 453.2 1067.2 440 1122C426.8 1176.8 459.5 1220.83 477.5 1236L388.5 1416.5Z" fill="#53B6F9"/>
<path d="M353.698 1511C350.413 1508.73 360.049 1471.27 412.869 1339.62C429.682 1297.72 453.924 1259.56 477.605 1226C485.368 1215 376 1149.5 506.5 995L661 1046.5L683.5 1051C662.368 1062.33 708.557 1043.79 690 1058.04C521.079 1187.75 456.033 1424.17 443.158 1511H353.698Z" fill="#001647" fill-opacity="0.2"/>
<path d="M358.5 1507.5C371.341 1452.7 410.793 1338.13 480.097 1232M553.5 1137.5C526.081 1166.82 501.646 1199 480.097 1232M480.097 1232C440.958 1203.88 392.15 1116.57 509.46 992.073C509.77 991.743 510.252 991.637 510.651 991.852C600.161 1040.15 826.624 1117.43 1022.78 1043.27C1023.2 1043.11 1023.69 1043.26 1023.95 1043.63C1058.52 1092.29 1025.8 1150.61 1005.51 1174.4C1005.21 1174.76 1005.18 1175.25 1005.46 1175.62C1045.94 1229.92 1124.17 1371.22 1141.5 1507.5M721 1157C757.667 1176.33 851.2 1204.5 932 1162.5M1013.5 1319C1024.83 1354.33 1048.1 1443.9 1050.5 1519.5M667 1361.5C661.166 1392.33 650.3 1467.1 653.5 1519.5" stroke="black" stroke-width="22" stroke-linecap="round"/>
<path d="M913.864 1358.04L911.602 1362.76H926.191L928.413 1358.04H913.864ZM920.116 1345.06L917.856 1349.75H932.351L934.56 1345.06H920.121H920.116ZM920.116 1345.06L917.856 1349.75H932.351L934.56 1345.06H920.121H920.116ZM911.608 1362.75H926.197L928.419 1358.04H913.865L911.603 1362.75H911.608ZM979.288 1364.34L946.433 1286.09C945.911 1284.83 945.135 1283.8 944.186 1283.09C943.274 1282.4 942.22 1282.03 941.155 1282H941.07C939.991 1282 938.908 1282.36 937.948 1283.05L937.947 1283.06C936.986 1283.74 936.164 1284.74 935.574 1285.94L935.561 1285.97L935.546 1286L898.122 1363.8L898.108 1363.83L898.093 1363.87C897.483 1365.18 897.129 1366.68 897.076 1368.2L897.076 1368.27C897.038 1369.8 897.311 1371.31 897.851 1372.65L897.87 1372.7L897.889 1372.74C898.452 1374.06 899.283 1375.17 900.289 1375.94C901.322 1376.74 902.515 1377.16 903.733 1377.16H973.274C974.408 1377.16 975.542 1376.78 976.552 1376.06L976.569 1376.05L976.585 1376.04C977.62 1375.28 978.489 1374.19 979.098 1372.88L979.167 1372.74C979.387 1372.29 979.551 1371.81 979.663 1371.31C979.915 1370.43 980.057 1369.52 980.075 1368.59C980.11 1367.1 979.836 1365.62 979.285 1364.33L979.288 1364.34ZM938.965 1288.64C939.178 1288.21 939.476 1287.84 939.824 1287.6C940.176 1287.35 940.569 1287.22 940.959 1287.22C941.347 1287.22 941.733 1287.36 942.069 1287.62C942.401 1287.86 942.677 1288.23 942.857 1288.67L944.719 1293.1L930.749 1322.17H948.999L946.113 1315.31L945.248 1317.6H937.221L946.672 1297.97L960.454 1330.96H918.668L938.965 1288.64ZM903.857 1371.96C903.358 1371.96 902.867 1371.78 902.446 1371.46C902.029 1371.13 901.685 1370.68 901.449 1370.13C901.216 1369.56 901.106 1368.92 901.121 1368.28C901.142 1367.64 901.291 1367.01 901.549 1366.46L916.26 1335.84H947.162L930.084 1371.96H903.857ZM975.633 1370.33C975.402 1370.83 975.072 1371.24 974.679 1371.53C974.282 1371.81 973.838 1371.96 973.393 1371.96H934.365L951.447 1335.84H962.511L968.893 1350.9H960.497L958.08 1345.32H955.183L947.126 1362.48H965.357L962.524 1355.67H970.96L975.709 1366.95C975.927 1367.45 976.031 1368.02 976.019 1368.6C976.007 1369.17 975.87 1369.82 975.629 1370.32L975.633 1370.33ZM920.111 1345.06L917.851 1349.75H932.346L934.555 1345.06H920.116H920.111ZM911.603 1362.75H926.192L928.414 1358.04H913.865L911.603 1362.75Z" fill="white"/>
</g>
<defs>
<clipPath id="clip0_483_466">
<rect width="1500" height="1500" fill="white"/>
</clipPath>
</defs>
      <g clip-path="url(#clip0_497_1194)">
<path d="M379.667 654.812C432.345 471.574 618.472 401.981 699.114 390.653C740.985 382.718 849.655 375.215 949.364 408.675C980 418.956 1049.88 457.388 1091.92 499.818C1144.47 552.856 1272.97 732.052 1185.05 927.725C1097.12 1123.4 758.414 1092.29 612.749 1051.82C464.472 1010.63 314.48 881.563 379.667 654.812Z" fill="#AABBFF"/>
<path d="M449.293 747.204C454.734 531.068 585.306 432.345 649.911 410C432.292 459.565 365.296 655.455 364 747.204C377.99 984.871 584.496 1053.43 681 1058C601.498 1044.46 443.853 963.339 449.293 747.204Z" fill="#001647" fill-opacity="0.2"/>
<path d="M379.667 654.812C432.345 471.574 618.472 401.981 699.114 390.653C740.985 382.718 849.655 375.215 949.364 408.675C980 418.956 1049.88 457.388 1091.92 499.818C1144.47 552.856 1272.97 732.052 1185.05 927.725C1097.12 1123.4 758.414 1092.29 612.749 1051.82C464.472 1010.63 314.48 881.563 379.667 654.812Z" stroke="black" stroke-width="22" stroke-linecap="round"/>
</g>
<defs>
    <clipPath id="prefix__clip0_299_662"><path fill="#fff" d="M0 0h1500v1500H0z"/></clipPath>
</defs>
      <g clip-path="url(#clip0_624_3204)">
<path d="M876.086 925.246H970.499" stroke="black" stroke-width="22" stroke-linecap="round"/>
<path d="M865.708 768.06L844.448 768.047L821.695 768.027L792.828 768" stroke="black" stroke-width="22" stroke-linecap="round"/>
<path d="M850.019 773.927C852.061 777.245 853.087 781.09 852.968 784.985C852.85 788.88 851.593 792.655 849.352 795.844C847.112 799.032 843.986 801.494 840.361 802.925C836.737 804.357 832.772 804.695 828.958 803.897C825.143 803.1 821.646 801.202 818.898 798.439C816.15 795.676 814.273 792.168 813.497 788.349C812.721 784.53 813.081 780.567 814.533 776.951C815.985 773.334 818.464 770.223 821.665 768H844.419C846.675 769.567 848.582 771.585 850.019 773.927Z" fill="black" stroke="black" stroke-width="22" stroke-linecap="round"/>
<path d="M1033.71 768L1004.83 768.027L982.081 768.047L960.828 768.06" stroke="black" stroke-width="22" stroke-linecap="round"/>
<path d="M976.506 773.926C974.456 777.243 973.423 781.087 973.536 784.985C973.648 788.882 974.9 792.661 977.138 795.854C979.376 799.047 982.5 801.513 986.125 802.949C989.75 804.385 993.716 804.726 997.533 803.931C1001.35 803.136 1004.85 801.24 1007.6 798.476C1010.35 795.713 1012.23 792.203 1013.01 788.383C1013.78 784.562 1013.42 780.597 1011.97 776.979C1010.52 773.361 1008.04 770.248 1004.83 768.026H982.079C979.837 769.59 977.94 771.598 976.506 773.926Z" fill="black" stroke="black" stroke-width="22" stroke-linecap="round"/>
</g>
<defs>
<clipPath id="clip0_624_3204">
<rect width="1500" height="1500" fill="white"/>
</clipPath>
</defs>
      <g clip-path="url(#clip0_911_278)">
<path d="M741 865.42V871.56C741.01 872.669 740.781 873.767 740.33 874.78C739.07 877.64 736.99 877.78 736.99 877.78C735.893 878.033 734.754 878.046 733.651 877.818C732.548 877.59 731.507 877.127 730.6 876.46C727.96 874.35 721.36 856.25 721.36 856.25L708.65 876.46H700L717.8 848.25L712.21 836.66C711.84 835.888 711.265 835.233 710.547 834.767C709.828 834.301 708.996 834.043 708.14 834.02H708C707.225 833.94 706.442 834.054 705.721 834.351C705.001 834.647 704.365 835.118 703.87 835.72C702.98 836.61 702.66 839.5 702.66 839.5L700.88 839.63C700.634 837.881 700.59 836.109 700.75 834.35C700.862 833.001 701.324 831.705 702.09 830.59C702.61 829.783 703.325 829.12 704.169 828.664C705.014 828.208 705.96 827.972 706.92 827.98C708.535 827.979 710.11 828.479 711.43 829.41C712.762 830.35 713.801 831.646 714.43 833.15L719.69 846.2L731.13 828.8H739L723.2 853.31L727.14 862.63C727.14 862.63 730.14 871.63 734.45 871.63C738.76 871.63 739.16 865.41 739.16 865.41L741 865.42Z" fill="black"/>
</g>
<defs>
<clipPath id="clip0_911_278">
<rect width="1500" height="1500" fill="white"/>
</clipPath>
</defs>
      <g clip-path="url(#clip0_602_2010)">
<path d="M576.5 421V536.5L684.5 543V489V444V403C684.5 381.5 683.5 382 681 370C678.5 358 676 358 674 355C672 352 669 355 662.5 355C656 355 651.5 336 650.5 333C649.7 330.6 648.167 299.333 647.5 284H617L611 346L585 355L576.5 421Z" fill="#4AEEB9"/>
<path d="M722 171V455L724 480H758.5V518.5H793.5V473.5H823V374V171H722Z" fill="#4AEEB9"/>
<path d="M863.5 173.5V549.5L970.5 539.5V173.5H863.5Z" fill="#FF6247"/>
<path d="M1070.5 495.5C1042.5 468.7 993.833 440.667 973 430.5L970.5 444L971.5 535.5L1038 526L1070.5 495.5Z" fill="#7985B4"/>
<path d="M858.5 400C853.7 398.4 839.833 397.333 834.5 397L829 470.5L796 479L789.5 506L772.5 523.5L755 506L747.5 479L720.5 470.5L715.5 399L688.5 403.5L685.5 547H863.5L858.5 400Z" fill="#7985B4"/>
<path d="M522.5 519L575.5 530.5V444C545.1 458 514 481 502 492.5L522.5 519Z" fill="#7985B4"/>
<path d="M971.089 535.31V186.21C971.087 181.912 969.378 177.79 966.339 174.751C963.299 171.712 959.178 170.003 954.879 170H879.089C875.881 170 872.745 170.95 870.076 172.729C867.406 174.509 865.323 177.039 864.089 180C863.278 181.97 862.86 184.08 862.859 186.21V552.31" stroke="black" stroke-width="20" stroke-miterlimit="10"/>
<path d="M736.25 478.5H752.37C752.845 478.499 753.316 478.591 753.756 478.772C754.196 478.952 754.595 479.218 754.932 479.553C755.27 479.888 755.537 480.287 755.72 480.725C755.904 481.164 755.999 481.635 756 482.11V504.75C756.002 509.05 757.713 513.173 760.754 516.213C763.796 519.252 767.92 520.96 772.22 520.96H776.11C778.241 520.963 780.351 520.545 782.321 519.732C784.29 518.919 786.08 517.725 787.589 516.22C789.097 514.715 790.293 512.927 791.11 510.959C791.927 508.991 792.348 506.881 792.35 504.75V482.15C792.35 481.19 792.731 480.269 793.41 479.59C794.089 478.911 795.01 478.53 795.97 478.53H812.11C814.239 478.531 816.347 478.113 818.315 477.299C820.282 476.485 822.069 475.291 823.575 473.785C825.08 472.28 826.274 470.492 827.089 468.525C827.903 466.558 828.321 464.449 828.32 462.32V186.21C828.321 184.081 827.903 181.972 827.089 180.005C826.274 178.038 825.08 176.25 823.575 174.745C822.069 173.239 820.282 172.045 818.315 171.231C816.347 170.417 814.239 169.999 812.11 170H736.25C731.96 170.016 727.851 171.73 724.823 174.768C721.794 177.806 720.092 181.92 720.09 186.21V462.29C720.092 466.58 721.794 470.694 724.823 473.732C727.851 476.77 731.96 478.484 736.25 478.5V478.5Z" stroke="black" stroke-width="20" stroke-miterlimit="10"/>
<path d="M577.22 534.34V367.58C577.222 363.282 578.931 359.16 581.97 356.121C585.01 353.081 589.131 351.373 593.43 351.37H606.59C607.55 351.37 608.471 350.989 609.149 350.31C609.828 349.631 610.21 348.71 610.21 347.75V297.47C610.21 293.17 611.917 289.046 614.957 286.004C617.997 282.963 622.12 281.253 626.42 281.25H635.34C639.637 281.258 643.757 282.965 646.8 286C648.309 287.504 649.505 289.292 650.32 291.261C651.135 293.229 651.553 295.339 651.55 297.47V347.76C651.55 348.72 651.931 349.641 652.61 350.32C653.289 350.999 654.21 351.38 655.17 351.38H669.25C673.547 351.385 677.667 353.095 680.706 356.134C683.745 359.172 685.454 363.292 685.46 367.59V546.76" stroke="black" stroke-width="20" stroke-miterlimit="10"/>
<path d="M632.5 369.396V284.61L618.5 280.11L610 347.11L577 350.61L580 535.5L682.5 540.11V520.11C651.5 520.11 632.5 517.5 612 514.61V381.825C612 378.625 614.511 375.988 617.708 375.832L626.792 375.389C629.989 375.233 632.5 372.596 632.5 369.396Z" fill="#001647" fill-opacity="0.2"/>
<path d="M776 460.61V517.11H756.5V477.61H724V173.61H756.5V448.61C756.5 451.924 759.186 454.61 762.5 454.61H770C773.314 454.61 776 457.297 776 460.61Z" fill="#001647" fill-opacity="0.2"/>
<path d="M900.5 517.61V173.61H866L862 546.11L970 536.61V510.61C947.5 515.5 927.5 514.5 900.5 517.61Z" fill="#001647" fill-opacity="0.2"/>
<path d="M509 472C445 524 631.18 552 782.127 552C933.073 552 1128.5 526.5 1062 473.5" stroke="black" stroke-width="21" stroke-miterlimit="10"/>
</g>
<defs>
<clipPath id="clip0_602_2010">
<rect width="1500" height="1500" fill="white"/>
</clipPath>
</defs>
      
    </g>
    </svg>