<svg width="1500" height="1500" viewBox="0 0 1500 1500" fill="none" xmlns="http://www.w3.org/2000/svg">
<g clip-path="url(#clip0_925_1058)">
<path d="M822 818C849.062 818 871 796.062 871 769C871 741.938 849.062 720 822 720C794.938 720 773 741.938 773 769C773 796.062 794.938 818 822 818Z" fill="white" stroke="black" stroke-width="20" stroke-miterlimit="10"/>
<path d="M1012 818C1039.06 818 1061 796.062 1061 769C1061 741.938 1039.06 720 1012 720C984.938 720 963 741.938 963 769C963 796.062 984.938 818 1012 818Z" fill="white" stroke="black" stroke-width="20" stroke-miterlimit="10"/>
<path d="M822 796C836.912 796 849 783.912 849 769C849 754.088 836.912 742 822 742C807.088 742 795 754.088 795 769C795 783.912 807.088 796 822 796Z" fill="#FF4B2C"/>
<path d="M822.5 770L1722.5 1173.5M1011 769.5L1911 1173" stroke="#FF4B2C" stroke-width="22"/>
<path d="M1012 796C1026.91 796 1039 783.912 1039 769C1039 754.088 1026.91 742 1012 742C997.088 742 985 754.088 985 769C985 783.912 997.088 796 1012 796Z" fill="#FF4B2C"/>
</g>
<defs>
<clipPath id="clip0_925_1058">
<rect width="1500" height="1500" fill="white"/>
</clipPath>
</defs>
</svg>
