<svg width="1500" height="1500" viewBox="0 0 1500 1500" fill="none" xmlns="http://www.w3.org/2000/svg">
<g clip-path="url(#clip0_911_309)">
<ellipse cx="932" cy="915.5" rx="131" ry="69.5" fill="#AABBFF"/>
<path d="M820.569 923.549C820.28 896.513 841.822 874.289 868.854 873.737L973.808 871.592C1001.86 871.018 1024.91 893.608 1024.9 921.668C1024.89 949.203 1002.65 971.563 975.116 971.72L870.142 972.317C843.014 972.471 820.859 950.677 820.569 923.549Z" fill="#FFD700"/>
<path d="M823.859 924.756L1021.53 920.376M875.877 968.561C875.329 946.294 874.453 897.05 870.949 878.214M924.062 878.214C925.887 895.188 929.209 937.022 928.99 968.561M975.533 874.428C976.628 898.505 977.176 951.039 978.271 968.561M869.396 972.015L975.986 971.418C1004.17 971.26 1026.68 947.887 1025.77 919.717V919.717C1024.88 892.298 1002.11 870.692 974.682 871.252L868.112 873.43C841.079 873.983 819.535 896.207 819.825 923.245V923.245C820.115 950.372 842.268 972.167 869.396 972.015Z" stroke="black" stroke-width="20"/>
</g>
<defs>
<clipPath id="clip0_911_309">
<rect width="1500" height="1500" fill="white"/>
</clipPath>
</defs>
</svg>
