<svg width="1500" height="1500" viewBox="0 0 1500 1500" fill="none" xmlns="http://www.w3.org/2000/svg">
<g clip-path="url(#clip0_925_1372)">
<path d="M777.796 860C685.697 848.775 660.871 768.614 659.97 729.937C656.078 723.892 664.834 710.508 669.699 704.571L759.419 694.857L912.917 690L1139.92 698.635L1161 711.587L1157.22 758L1137.22 800.635L1113.44 838.952L1058.85 856.222L1022.64 849.206L962.101 828.159L920.484 813.587L863.192 842.19L777.796 860Z" fill="#53B6F9"/>
<path d="M690.196 699.224L763.942 693.424L860.722 851.244L833.96 864.946L794.601 869.089L690.196 699.224Z" fill="white" fill-opacity="0.9"/>
<path d="M781.871 695.304L801.049 695.304L884.919 828.487L873.319 837.602L781.871 695.304Z" fill="white" fill-opacity="0.9"/>
<path d="M958.357 690.074L1034.53 694.827L1119.67 818.835L1095.84 839.835L1062.61 854.919L958.357 690.074Z" fill="white" fill-opacity="0.9"/>
<path d="M1054 703.114L1068.91 703.114L1136.86 798.404L1127.74 811.662L1054 703.114Z" fill="white" fill-opacity="0.9"/>
<path d="M380.533 812.923C375.5 796.5 374.5 765 374.5 751L651.28 726.616L670.756 799.308L380.533 812.923Z" fill="white"/>
<path d="M1152.8 782.616L1167.95 724.462L1197.05 722.039C1201.5 741 1204.5 770 1204 784.5L1152.8 782.616Z" fill="white"/>
<path d="M501 809C493.8 789.4 494.333 761.833 495.5 750.5L373 754.5C370.2 772.1 377.166 802.167 379.5 815L501 809Z" fill="#001647" fill-opacity="0.2"/>
<path d="M653.87 725.984L365.663 749.005M669.935 798.066L372 811M1152.99 785.259L1210.28 779.417M1165.96 721.569L1206.5 721.569M781.167 861.953C682.013 851.636 657.16 770.149 656.503 719.768C656.395 711.426 662.733 704.694 671.004 703.598C763.882 691.282 967.052 676.004 1150.78 699.286C1158.48 700.261 1164.71 706.141 1164.73 713.901C1164.84 756.804 1137.12 837.115 1065.29 855.363C1017.69 867.452 975.216 843.757 948.769 820.361C936.589 809.587 917.535 808.228 904.418 817.837C856.527 852.92 804.134 862.105 781.167 861.953Z" stroke="black" stroke-width="22" stroke-linecap="round"/>
</g>
<defs>
<clipPath id="clip0_925_1372">
<rect width="1500" height="1500" fill="white"/>
</clipPath>
</defs>
</svg>
