<svg width="1500" height="1500" viewBox="0 0 1500 1500" fill="none" xmlns="http://www.w3.org/2000/svg">
<g clip-path="url(#clip0_838_2238)">
<ellipse cx="932" cy="915.5" rx="131" ry="69.5" fill="#AABBFF"/>
<path d="M993 969L1016.5 1012.5L1037.5 996L1012.5 942L977 913.5L939 917L993 969Z" fill="#3A3A3A"/>
<path d="M1039.5 1003L1011 1013.5L1020 1036.5L1043.5 1028.5L1039.5 1003Z" fill="#FFBF44"/>
<path d="M1111 1190C1050.6 1187.6 1024.17 1090.67 1018.5 1042.5C1016.1 1033.3 1033.83 1025 1043 1022L1052.5 1054L1075 1091L1084.5 1077L1131 1093L1184 1091C1184.83 1125 1171.4 1192.4 1111 1190Z" fill="#9E6740"/>
<path d="M1103 1158C1127 1164.4 1158.5 1149.83 1168 1141.5L1153.5 1174L1122 1192.5L1074 1182L1042.5 1145.5L1015.5 1044.5L1002 999.5L962 936.5L953 917.5C960.333 920.833 980.4 934.2 1002 961C1029 994.5 1035.5 1060.5 1050.5 1101C1065.6 1141.76 1073 1150 1103 1158Z" fill="#001647" fill-opacity="0.2"/>
<path d="M1113.5 1058C1078.7 1060 1090.67 1074.17 1101 1081L1179 1087.5L1189.5 1070C1178.67 1065.17 1148.3 1056 1113.5 1058Z" fill="#5B3827"/>
<path d="M1184 1076C1188.5 1149.5 1158 1190 1110 1188.5C1062 1187 1030 1153 1017.5 1055.5C1005.31 960.383 954.125 927.51 925.593 915.926M1079.5 1089.5C1061 1080.5 1053.8 1050.5 1036.5 992.5C1023.91 950.292 989.218 924.962 969.059 912.307M1080.5 1114.5C1080.17 1104.5 1079.2 1078.7 1084 1065.5M1011.5 1008L1034 996.5M1022 1042L1045.5 1030.5M876 912C898 917 932.891 916.736 969.059 912.307M1014 902.5C1000.47 907.255 984.917 910.365 969.059 912.307M915.5 954C926.667 958 954.1 963.2 974.5 952" stroke="black" stroke-width="20" stroke-linecap="round"/>
<ellipse cx="1134.29" cy="1070.01" rx="50.8114" ry="18.5698" transform="rotate(6.18578 1134.29 1070.01)" stroke="black" stroke-width="21"/>
</g>
<defs>
<clipPath id="clip0_838_2238">
<rect width="1500" height="1500" fill="white"/>
</clipPath>
</defs>
</svg>
