<svg
      xmlns="http://www.w3.org/2000/svg"
      preserveAspectRatio="xMidYMin meet"
      fill="none"
      viewBox="0 0 1500 1500"
    >
      <g>
      <path fill="url(#prefix__paint0_linear_53_28789)" d="M0 0h1500v1500H0z"/><defs><linearGradient id="prefix__paint0_linear_53_28789" x1="1500" y1="1500" x2="0" y2="0" gradientUnits="userSpaceOnUse">
<stop stop-color="#FFD130"/>
<stop offset="1" stop-color="#FFEEDB"/>
</linearGradient></defs>
      <g clip-path="url(#clip0_493_759)">
<path d="M773 1011.5C543.4 1029.9 398.667 1353.5 355 1513H1138.5C1075.7 1127 868.667 1017.83 773 1011.5Z" fill="#AABBFF"/>
<path d="M353.699 1511C350.414 1508.73 357.049 1471.27 409.87 1339.62C436.322 1273.7 476.209 1217.03 514 1173L524 1176.5L570.032 1188.5C488.342 1309.97 452.378 1448.83 443.159 1511H353.699Z" fill="#001647" fill-opacity="0.2"/>
<path d="M665.5 1302.5C658.3 1195.7 560.833 1178.67 513 1183.5L587.5 1096L665.5 1040L704 1029.5C714 1075.5 753 1164.5 822 1164.5C877.2 1164.5 900.333 1094.5 905 1059.5L1021 1201.5L1016.5 1236V1287L1028.5 1354L1043.5 1423L1047.5 1509.5H650V1503C658.167 1480.67 672.7 1409.3 665.5 1302.5Z" fill="#3A3A3A"/>
<path d="M523.498 1182C523.498 1182 505.499 1187.8 513.14 1174C541.445 1122.86 587.125 1097.88 605.383 1082.33L673.999 1033.5L749.499 1019.5C673.998 1059.99 615.374 1121.26 570.499 1187.8H570.498L523.498 1182Z" fill="black" fill-opacity="0.2"/>
<path d="M933.223 1272.02L937.932 1261.68L954.916 1287.26L955.318 1292.17L952.556 1258.38C952.5 1257.97 952.361 1257.57 952.148 1257.22C951.935 1256.87 951.653 1256.57 951.324 1256.36L923.078 1239.35C922.758 1239.18 922.407 1239.09 922.052 1239.09C921.696 1239.09 921.346 1239.18 921.025 1239.35C920.943 1239.4 920.864 1239.45 920.789 1239.5L920.701 1239.57L895.946 1256.2L895.849 1256.25C895.719 1256.32 895.596 1256.41 895.482 1256.51C895.254 1256.7 895.065 1256.95 894.928 1257.22C894.79 1257.5 894.707 1257.81 894.683 1258.12C894.677 1258.22 894.677 1258.32 894.683 1258.42L896.932 1285.96L908.934 1262.25C910.433 1259.11 914.167 1258.09 917.712 1258.15L921.877 1258.26L900.858 1301.46L903.892 1303.28L925.062 1258.29L936.011 1258.25L914.997 1304.37L925.824 1310.89L927.117 1311.67C927.647 1311.9 928.235 1311.91 928.773 1311.7L954.632 1294.33L949.695 1297.66L933.223 1272.02ZM938.026 1305.5L926.181 1287.55L931.577 1275.69L947.138 1299.37L938.026 1305.5Z" fill="#2D374B"/>
<path d="M926.181 1287.54L938.026 1305.48L947.138 1299.37L931.573 1275.68L926.181 1287.54Z" fill="#28A0F0"/>
<path d="M955.321 1292.16L954.919 1287.26L937.934 1261.68L933.221 1272.01L949.695 1297.66L954.642 1294.34C954.879 1294.11 955.066 1293.83 955.189 1293.51C955.311 1293.19 955.367 1292.84 955.351 1292.49L955.321 1292.16Z" fill="#28A0F0"/>
<path d="M893.126 1296.79L900.86 1301.46L921.878 1258.26L917.714 1258.14C914.167 1258.09 910.435 1259.1 908.936 1262.24L896.934 1285.96L892.892 1293.86L893.129 1296.8L893.126 1296.79Z" fill="white"/>
<path d="M936.023 1258.26L925.071 1258.3L903.904 1303.29L913.006 1308.77L915.009 1304.38L936.023 1258.26Z" fill="white"/>
<path d="M957.205 1258.19C957.036 1256.92 956.608 1255.7 955.953 1254.63C955.298 1253.57 954.433 1252.67 953.422 1252.02L924.807 1234.8C923.835 1234.27 922.766 1234 921.683 1234C920.599 1234 919.531 1234.27 918.559 1234.8C918.341 1234.93 893.432 1251.68 893.432 1251.68C892.347 1252.27 891.444 1253.21 890.836 1254.36C890.228 1255.52 889.941 1256.85 890.01 1258.18L892.888 1293.86L896.93 1285.95L894.681 1258.42C894.668 1258.06 894.736 1257.69 894.877 1257.36C895.018 1257.03 895.228 1256.73 895.492 1256.51C895.608 1256.41 920.945 1239.41 921.032 1239.36C921.353 1239.19 921.703 1239.11 922.059 1239.11C922.414 1239.11 922.765 1239.19 923.085 1239.36L951.331 1256.37C951.66 1256.59 951.942 1256.88 952.155 1257.23C952.368 1257.58 952.508 1257.98 952.563 1258.4L955.302 1292.5C955.327 1292.84 955.282 1293.18 955.168 1293.5C955.055 1293.83 954.876 1294.11 954.647 1294.35L949.692 1297.66L947.143 1299.38L938.024 1305.51L928.777 1311.71C928.24 1311.92 927.652 1311.91 927.122 1311.68L915.004 1304.38L913.001 1308.77L923.894 1315.34C924.253 1315.55 924.573 1315.74 924.84 1315.9C925.247 1316.13 925.523 1316.3 925.62 1316.35C926.506 1316.76 927.458 1316.97 928.42 1316.97C929.275 1316.98 930.122 1316.8 930.915 1316.45L957.78 1298.41C958.529 1297.71 959.119 1296.83 959.502 1295.83C959.885 1294.84 960.051 1293.75 959.986 1292.68L957.205 1258.19Z" fill="#8BBFDF"/>
<path d="M353.5 1519.5C365.5 1454.33 414.5 1313.6 483.5 1219C530.101 1155.11 577.468 1101.29 629.141 1059.66C710.278 994.299 826.037 996.323 905.02 1064.27C1000.08 1146.05 1103.44 1290.29 1142.5 1519.5M1050.5 1519.5C1048.1 1443.9 1024.83 1354.33 1013.5 1319C999.5 1268 1009.7 1225.3 1020.5 1204.5M653.5 1519.5C650.3 1467.1 661.167 1392.33 667 1361.5C674 1324.5 668 1288.8 642 1250C609.5 1201.5 554.5 1171 517 1179.5M709 1016C709 1064.17 732.1 1164.5 824.5 1164.5C884 1164.5 902.33 1109.22 895.355 1059.5" stroke="black" stroke-width="22" stroke-linecap="round"/>
</g>
<defs>
<clipPath id="clip0_493_759">
<rect width="1500" height="1500" fill="white"/>
</clipPath>
</defs>
      <g clip-path="url(#clip0_497_1194)">
<path d="M379.667 654.812C432.345 471.574 618.472 401.981 699.114 390.653C740.985 382.718 849.655 375.215 949.364 408.675C980 418.956 1049.88 457.388 1091.92 499.818C1144.47 552.856 1272.97 732.052 1185.05 927.725C1097.12 1123.4 758.414 1092.29 612.749 1051.82C464.472 1010.63 314.48 881.563 379.667 654.812Z" fill="#AABBFF"/>
<path d="M449.293 747.204C454.734 531.068 585.306 432.345 649.911 410C432.292 459.565 365.296 655.455 364 747.204C377.99 984.871 584.496 1053.43 681 1058C601.498 1044.46 443.853 963.339 449.293 747.204Z" fill="#001647" fill-opacity="0.2"/>
<path d="M379.667 654.812C432.345 471.574 618.472 401.981 699.114 390.653C740.985 382.718 849.655 375.215 949.364 408.675C980 418.956 1049.88 457.388 1091.92 499.818C1144.47 552.856 1272.97 732.052 1185.05 927.725C1097.12 1123.4 758.414 1092.29 612.749 1051.82C464.472 1010.63 314.48 881.563 379.667 654.812Z" stroke="black" stroke-width="22" stroke-linecap="round"/>
</g>
<defs>
    <clipPath id="prefix__clip0_299_662"><path fill="#fff" d="M0 0h1500v1500H0z"/></clipPath>
</defs>
      <g clip-path="url(#clip0_624_3503)">
<path d="M820.579 731.479C807.38 731.491 794.726 736.74 785.393 746.073C776.06 755.406 770.811 768.06 770.799 781.259C770.855 783.107 771.629 784.86 772.957 786.148C774.284 787.435 776.06 788.155 777.909 788.155C779.758 788.155 781.534 787.435 782.861 786.148C784.188 784.86 784.962 783.107 785.019 781.259C784.954 776.549 785.826 771.872 787.584 767.502C789.342 763.132 791.951 759.154 795.259 755.8C798.567 752.446 802.509 749.783 806.855 747.966C811.201 746.148 815.865 745.212 820.575 745.212C825.286 745.212 829.95 746.148 834.296 747.966C838.642 749.783 842.584 752.446 845.892 755.8C849.2 759.154 851.809 763.132 853.567 767.502C855.325 771.872 856.197 776.549 856.132 781.259C856.132 786.917 853.885 792.343 849.884 796.344C845.883 800.345 840.457 802.592 834.799 802.592C829.141 802.592 823.715 800.345 819.714 796.344C815.713 792.343 813.465 786.917 813.465 781.259C813.438 780.308 813.599 779.361 813.939 778.472C814.284 777.582 814.806 776.77 815.472 776.086C816.302 775.229 817.335 774.595 818.474 774.243C819.613 773.89 820.823 773.83 821.992 774.067C823.161 774.305 824.251 774.833 825.162 775.603C826.073 776.373 826.776 777.36 827.205 778.472C827.551 779.36 827.714 780.307 827.686 781.259C827.686 783.146 828.435 784.955 829.769 786.289C831.103 787.623 832.912 788.372 834.799 788.372C836.685 788.372 838.495 787.623 839.829 786.289C841.163 784.955 841.912 783.146 841.912 781.259C841.912 775.601 839.665 770.175 835.664 766.174C831.663 762.173 826.237 759.926 820.579 759.926C814.921 759.926 809.495 762.173 805.494 766.174C801.493 770.175 799.245 775.601 799.245 781.259C799.245 790.688 802.991 799.731 809.659 806.399C816.326 813.067 825.369 816.812 834.799 816.812C844.228 816.812 853.271 813.067 859.939 806.399C866.606 799.731 870.352 790.688 870.352 781.259C870.34 768.062 865.092 755.408 855.761 746.075C846.429 736.743 833.776 731.493 820.579 731.479Z" fill="black" stroke="black" stroke-width="5"/>
<path d="M1011.91 731.479C998.714 731.491 986.06 736.74 976.727 746.073C967.394 755.406 962.145 768.06 962.133 781.259C962.189 783.107 962.963 784.86 964.29 786.148C965.618 787.435 967.394 788.155 969.243 788.155C971.092 788.155 972.868 787.435 974.195 786.148C975.522 784.86 976.296 783.107 976.353 781.259C976.288 776.549 977.16 771.872 978.918 767.502C980.676 763.132 983.285 759.154 986.593 755.8C989.901 752.446 993.843 749.783 998.189 747.966C1002.53 746.148 1007.2 745.212 1011.91 745.212C1016.62 745.212 1021.28 746.148 1025.63 747.966C1029.98 749.783 1033.92 752.446 1037.23 755.8C1040.53 759.154 1043.14 763.132 1044.9 767.502C1046.66 771.872 1047.53 776.549 1047.47 781.259C1047.47 786.917 1045.22 792.343 1041.22 796.344C1037.22 800.345 1031.79 802.592 1026.13 802.592C1020.47 802.592 1015.05 800.345 1011.05 796.344C1007.05 792.343 1004.8 786.917 1004.8 781.259C1004.76 780.067 1005.02 778.884 1005.56 777.82C1006.1 776.756 1006.9 775.845 1007.89 775.171C1008.87 774.497 1010.01 774.081 1011.2 773.963C1012.38 773.844 1013.58 774.026 1014.68 774.492C1015.56 774.864 1016.36 775.41 1017.02 776.097C1017.68 776.785 1018.2 777.599 1018.54 778.492C1018.88 779.38 1019.05 780.327 1019.02 781.279C1019.02 783.166 1019.77 784.975 1021.1 786.309C1022.44 787.643 1024.25 788.392 1026.13 788.392C1028.02 788.392 1029.83 787.643 1031.16 786.309C1032.5 784.975 1033.25 783.166 1033.25 781.279C1033.25 775.621 1031 770.195 1027 766.194C1023 762.193 1017.57 759.946 1011.91 759.946C1006.25 759.946 1000.83 762.193 996.828 766.194C992.827 770.195 990.579 775.621 990.579 781.279C990.579 790.708 994.325 799.751 1000.99 806.419C1007.66 813.087 1016.7 816.832 1026.13 816.832C1035.56 816.832 1044.61 813.087 1051.27 806.419C1057.94 799.751 1061.69 790.708 1061.69 781.279C1061.67 768.081 1056.43 755.428 1047.09 746.095C1037.76 736.763 1025.11 731.513 1011.91 731.499V731.479Z" fill="black" stroke="black" stroke-width="5"/>
<path d="M921.5 970C930.895 970 940.078 967.214 947.89 961.995C955.701 956.775 961.789 949.357 965.384 940.677C968.979 931.998 969.92 922.447 968.087 913.233C966.254 904.019 961.731 895.555 955.088 888.912C948.445 882.269 939.981 877.746 930.767 875.913C921.553 874.08 912.002 875.021 903.323 878.616C894.643 882.211 887.225 888.299 882.005 896.11C876.786 903.922 874 913.105 874 922.5C874 928.738 875.229 934.914 877.616 940.677C880.003 946.44 883.502 951.677 887.912 956.088C892.323 960.498 897.56 963.997 903.323 966.384C909.085 968.771 915.262 970 921.5 970Z" fill="white" stroke="black" stroke-width="22" stroke-miterlimit="10" stroke-linecap="round"/>
</g>
<defs>
<clipPath id="clip0_624_3503">
<rect width="1500" height="1500" fill="white"/>
</clipPath>
</defs>
      <g clip-path="url(#clip0_924_580)">
<path d="M582.499 804.5C582.499 810.023 586.976 814.5 592.499 814.5C598.022 814.5 602.499 810.023 602.499 804.5H582.499ZM747.333 760L622.499 760L622.499 780L747.333 780L747.333 760ZM582.499 800V804.5H602.499V800H582.499ZM622.499 760C600.408 760 582.499 777.908 582.499 800H602.499C602.499 788.954 611.453 780 622.499 780L622.499 760Z" fill="black"/>
<path d="M894.386 769.667H939.5" stroke="black" stroke-width="20" stroke-miterlimit="10"/>
<path d="M989.139 711.37C989.153 711.379 989.168 711.384 989.185 711.384C989.201 711.385 989.217 711.38 989.231 711.372C989.245 711.364 989.256 711.352 989.264 711.338C989.271 711.323 989.275 711.307 989.273 711.291C989.273 708.797 990.302 676.51 1024.25 679.154C1024.25 679.154 1052.73 681.648 1055.38 712.609C1055.38 712.623 1055.39 712.637 1055.4 712.649C1055.4 712.661 1055.41 712.672 1055.43 712.679C1055.44 712.687 1055.45 712.692 1055.47 712.693C1055.48 712.695 1055.5 712.693 1055.51 712.688C1057.55 711.899 1086.02 700.802 1100.84 724.526C1115.66 748.25 1091.4 768.865 1089.77 770.175C1089.76 770.184 1089.75 770.195 1089.74 770.207C1089.74 770.219 1089.73 770.233 1089.73 770.246C1089.73 770.26 1089.74 770.273 1089.74 770.285C1089.75 770.297 1089.76 770.308 1089.77 770.317C1091.29 771.825 1115.74 793.449 1101.63 816.416C1087.53 839.382 1058.56 827.946 1056.54 826.928C1056.53 826.92 1056.51 826.915 1056.5 826.914C1056.48 826.913 1056.47 826.916 1056.45 826.922C1056.44 826.929 1056.43 826.938 1056.42 826.95C1056.41 826.962 1056.4 826.977 1056.4 826.991C1056.01 829.186 1050.02 859.642 1023.17 859.997C996.331 860.352 988.538 830.488 988.031 828.428C988.028 828.415 988.022 828.403 988.013 828.393C988.005 828.382 987.994 828.374 987.982 828.368C987.97 828.362 987.957 828.359 987.944 828.358C987.93 828.358 987.917 828.36 987.905 828.365C986.014 829.225 958.529 841.055 942.611 815.603C926.693 790.15 949.534 772.03 951.156 770.791C951.167 770.783 951.176 770.772 951.183 770.76C951.189 770.747 951.193 770.734 951.193 770.72C951.193 770.706 951.189 770.692 951.183 770.68C951.176 770.667 951.167 770.657 951.156 770.649C949.573 769.228 926.574 747.864 943.893 722.088C960.507 697.495 987.019 710.297 989.139 711.37Z" fill="#53B6F9" stroke="black" stroke-width="20" stroke-miterlimit="10"/>
<path d="M784.139 711.37C784.153 711.379 784.168 711.384 784.185 711.384C784.201 711.385 784.217 711.38 784.231 711.372C784.245 711.364 784.256 711.352 784.264 711.338C784.271 711.323 784.275 711.307 784.273 711.291C784.273 708.797 785.302 676.51 819.251 679.154C819.251 679.154 847.732 681.648 850.383 712.609C850.384 712.623 850.389 712.637 850.397 712.649C850.404 712.661 850.414 712.672 850.427 712.679C850.439 712.687 850.453 712.692 850.467 712.693C850.481 712.695 850.496 712.693 850.509 712.688C852.55 711.899 881.024 700.802 895.843 724.526C910.661 748.25 886.404 768.865 884.766 770.175C884.756 770.184 884.748 770.195 884.743 770.207C884.737 770.219 884.734 770.233 884.734 770.246C884.734 770.26 884.737 770.273 884.743 770.285C884.748 770.297 884.756 770.308 884.766 770.317C886.285 771.825 910.74 793.449 896.634 816.416C882.527 839.382 853.563 827.946 851.538 826.928C851.525 826.92 851.511 826.915 851.496 826.914C851.481 826.913 851.466 826.916 851.453 826.922C851.439 826.929 851.427 826.938 851.419 826.95C851.41 826.962 851.405 826.977 851.403 826.991C851.008 829.186 845.019 859.642 818.175 859.997C791.331 860.352 783.538 830.488 783.031 828.428C783.028 828.415 783.022 828.403 783.013 828.393C783.005 828.382 782.994 828.374 782.982 828.368C782.97 828.362 782.957 828.359 782.944 828.358C782.93 828.358 782.917 828.36 782.905 828.365C781.014 829.225 753.529 841.055 737.611 815.603C721.693 790.15 744.534 772.03 746.156 770.791C746.167 770.783 746.176 770.772 746.183 770.76C746.189 770.747 746.193 770.734 746.193 770.72C746.193 770.706 746.189 770.692 746.183 770.68C746.176 770.667 746.167 770.657 746.156 770.649C744.573 769.228 721.574 747.864 738.893 722.088C755.507 697.495 782.019 710.297 784.139 711.37Z" fill="#53B6F9" stroke="black" stroke-width="20" stroke-miterlimit="10"/>
<path d="M1054 770C1054 788.336 1039.34 803 1021.5 803C1003.66 803 989 788.336 989 770C989 751.664 1003.66 737 1021.5 737C1039.34 737 1054 751.664 1054 770Z" fill="#FFBF44" stroke="black" stroke-width="20"/>
<path d="M849 770C849 788.336 834.339 803 816.5 803C798.661 803 784 788.336 784 770C784 751.664 798.661 737 816.5 737C834.339 737 849 751.664 849 770Z" fill="#FFBF44" stroke="black" stroke-width="20"/>
<path d="M1010.55 731.17C1006.77 701.733 1023.94 686.472 1032.99 685.021C1021.34 681.539 998.775 687.791 993.525 691.352C991.687 694.122 987.618 700.294 986.043 702.826C984.074 705.991 982.893 709.552 981.712 709.948C980.531 710.344 964.78 711.531 963.993 711.531C963.205 711.531 943.517 719.84 943.124 720.631C942.73 721.422 935.249 740.414 935.249 741.206C935.249 741.839 938.924 764.418 940.761 775.628C938.53 780.904 933.673 792.959 932.098 798.973C930.523 804.987 948.242 823.108 957.299 831.417L987.224 833.395L1016.76 859.905C1031.72 860.301 1059.6 859.668 1035.66 853.97C1011.72 848.272 1009.14 821.537 1010.85 811.382C1009.8 809.14 1003.45 804.418 1002.19 803.469C1000.61 802.282 989.193 795.016 988.8 794.225C988.406 793.433 983.287 785.124 982.893 767.319C982.578 753.076 1004.25 738.952 1010.55 731.17Z" fill="#001647" fill-opacity="0.2"/>
<path d="M805.55 731.17C801.77 701.733 818.938 686.472 827.994 685.021C816.339 681.539 793.775 687.791 788.525 691.352C786.687 694.122 782.618 700.294 781.043 702.826C779.074 705.991 777.893 709.552 776.712 709.948C775.531 710.344 759.78 711.531 758.993 711.531C758.205 711.531 738.517 719.84 738.124 720.631C737.73 721.422 730.249 740.414 730.249 741.206C730.249 741.839 733.924 764.418 735.761 775.628C733.53 780.904 728.673 792.959 727.098 798.973C725.523 804.987 743.242 823.108 752.299 831.417L782.224 833.395L811.756 859.905C826.719 860.301 854.597 859.668 830.657 853.97C806.716 848.272 804.144 821.537 805.85 811.382C804.8 809.14 798.447 804.418 797.187 803.469C795.612 802.282 784.193 795.016 783.8 794.225C783.406 793.433 778.287 785.124 777.893 767.319C777.578 753.076 799.25 738.952 805.55 731.17Z" fill="#001647" fill-opacity="0.2"/>
<path d="M989.139 711.37C989.153 711.379 989.168 711.384 989.185 711.384C989.201 711.385 989.217 711.38 989.231 711.372C989.245 711.364 989.256 711.352 989.264 711.338C989.271 711.323 989.275 711.307 989.273 711.291C989.273 708.797 990.302 676.51 1024.25 679.154C1024.25 679.154 1052.73 681.648 1055.38 712.609C1055.38 712.623 1055.39 712.637 1055.4 712.649C1055.4 712.661 1055.41 712.672 1055.43 712.679C1055.44 712.687 1055.45 712.692 1055.47 712.693C1055.48 712.695 1055.5 712.693 1055.51 712.688C1057.55 711.899 1086.02 700.802 1100.84 724.526C1115.66 748.25 1091.4 768.865 1089.77 770.175C1089.76 770.184 1089.75 770.195 1089.74 770.207C1089.74 770.219 1089.73 770.233 1089.73 770.246C1089.73 770.26 1089.74 770.273 1089.74 770.285C1089.75 770.297 1089.76 770.308 1089.77 770.317C1091.29 771.825 1115.74 793.449 1101.63 816.416C1087.53 839.382 1058.56 827.946 1056.54 826.928C1056.53 826.92 1056.51 826.915 1056.5 826.914C1056.48 826.913 1056.47 826.916 1056.45 826.922C1056.44 826.929 1056.43 826.938 1056.42 826.95C1056.41 826.962 1056.4 826.977 1056.4 826.991C1056.01 829.186 1050.02 859.642 1023.17 859.997C996.331 860.352 988.538 830.488 988.031 828.428C988.028 828.415 988.022 828.403 988.013 828.393C988.005 828.382 987.994 828.374 987.982 828.368C987.97 828.362 987.957 828.359 987.944 828.358C987.93 828.358 987.917 828.36 987.905 828.365C986.014 829.225 958.529 841.055 942.611 815.603C926.693 790.15 949.534 772.03 951.156 770.791C951.167 770.783 951.176 770.772 951.183 770.76C951.189 770.747 951.193 770.734 951.193 770.72C951.193 770.706 951.189 770.692 951.183 770.68C951.176 770.667 951.167 770.657 951.156 770.649C949.573 769.228 926.574 747.864 943.893 722.088C960.507 697.495 987.019 710.297 989.139 711.37Z" stroke="black" stroke-width="20" stroke-miterlimit="10"/>
<path d="M784.139 711.37C784.153 711.379 784.168 711.384 784.185 711.384C784.201 711.385 784.217 711.38 784.231 711.372C784.245 711.364 784.256 711.352 784.264 711.338C784.271 711.323 784.275 711.307 784.273 711.291C784.273 708.797 785.302 676.51 819.251 679.154C819.251 679.154 847.732 681.648 850.383 712.609C850.384 712.623 850.389 712.637 850.397 712.649C850.404 712.661 850.414 712.672 850.427 712.679C850.439 712.687 850.453 712.692 850.467 712.693C850.481 712.695 850.496 712.693 850.509 712.688C852.55 711.899 881.024 700.802 895.843 724.526C910.661 748.25 886.404 768.865 884.766 770.175C884.756 770.184 884.748 770.195 884.743 770.207C884.737 770.219 884.734 770.233 884.734 770.246C884.734 770.26 884.737 770.273 884.743 770.285C884.748 770.297 884.756 770.308 884.766 770.317C886.285 771.825 910.74 793.449 896.634 816.416C882.527 839.382 853.563 827.946 851.538 826.928C851.525 826.92 851.511 826.915 851.496 826.914C851.481 826.913 851.466 826.916 851.453 826.922C851.439 826.929 851.427 826.938 851.419 826.95C851.41 826.962 851.405 826.977 851.403 826.991C851.008 829.186 845.019 859.642 818.175 859.997C791.331 860.352 783.538 830.488 783.031 828.428C783.028 828.415 783.022 828.403 783.013 828.393C783.005 828.382 782.994 828.374 782.982 828.368C782.97 828.362 782.957 828.359 782.944 828.358C782.93 828.358 782.917 828.36 782.905 828.365C781.014 829.225 753.529 841.055 737.611 815.603C721.693 790.15 744.534 772.03 746.156 770.791C746.167 770.783 746.176 770.772 746.183 770.76C746.189 770.747 746.193 770.734 746.193 770.72C746.193 770.706 746.189 770.692 746.183 770.68C746.176 770.667 746.167 770.657 746.156 770.649C744.573 769.228 721.574 747.864 738.893 722.088C755.507 697.495 782.019 710.297 784.139 711.37Z" stroke="black" stroke-width="20" stroke-miterlimit="10"/>
</g>
<defs>
<clipPath id="clip0_924_580">
<rect width="1500" height="1500" fill="white"/>
</clipPath>
</defs>
      <g clip-path="url(#clip0_786_1362)">
<path d="M711.94 381.541L669.138 415.004L754.914 456.956C786.09 456.451 856.04 454.579 886.429 451.127C916.817 447.675 946.703 430.594 957.848 422.485L912.882 387.272L890.772 360.146L852.07 352.844L816.711 388.83L811.119 369.892L779.2 357.196L748.101 362.456L711.94 381.541Z" fill="#AABBFF"/>
<path d="M754.823 451.145C758.386 440.393 766.661 423.631 780.081 411.559M882.17 449.083C878.062 439.675 870.922 425.659 859.411 414.501M670.743 416.037C678.291 403.405 696.028 378.1 722.448 377.672C724.832 377.634 727.122 377.712 729.323 377.895M780.081 411.559C789.433 403.145 801.285 397.009 815.783 396.774C818.147 396.736 820.438 396.825 822.658 397.03M780.081 411.559C771.884 400.903 758.35 380.305 729.323 377.895M953.095 422.563C946.826 410.677 929.573 387.795 908.089 385.052M859.411 414.501C864.186 404.755 879.655 385.169 903.328 384.785C904.936 384.759 906.524 384.852 908.089 385.052M859.411 414.501C850.192 405.565 838.17 398.463 822.658 397.03M729.323 377.895C734.108 368.72 747.587 350.309 768.512 349.97C795.461 349.534 817.557 375.809 822.658 397.03M908.089 385.052C903.334 374.267 889.367 351.713 871.612 352C849.419 352.36 832.274 370.674 822.592 392.964" stroke="black" stroke-width="22" stroke-linecap="round"/>
<path d="M608.491 564.745L416.38 556.98L362.812 529.743C362.812 529.743 272.363 496.123 253.198 563.225C234.033 630.327 294.892 621.442 294.892 621.442C294.892 621.442 234.693 674.211 270.378 706.733C306.063 739.255 343.827 713.758 343.827 713.758L416.58 661.471L498.131 638.01L615.409 626.272L608.491 564.745Z" fill="white"/>
<path d="M1313.95 616.67C1343.53 624.964 1353.97 603.922 1355.5 592.365L1365.24 602.265L1358.04 623.522L1325.76 653.906L1280.89 634.981L1240.1 609.249L1176.5 604L1167.5 587.5C1192.71 585.773 1215.27 583.908 1246.09 586.675C1284.61 590.133 1276.98 606.303 1313.95 616.67Z" fill="#001647" fill-opacity="0.2"/>
<path d="M376.041 543.941L451.5 564C445.667 578.482 433.8 616.452 433 652.473L423.636 652.473L373.93 690.257C360.188 706.18 322.679 735.212 282.572 723.957C242.466 712.703 264.742 652.888 280.893 624.388L256.504 600.586C252.576 593.245 251.141 570.202 276.83 536.763C302.518 503.324 353.674 527.616 376.041 543.941Z" fill="#001647" fill-opacity="0.2"/>
<path d="M1147.68 552.365C1135.98 538.355 1219.43 538.929 1219.43 538.929C1219.43 538.929 1254.66 534.738 1267.43 502.145C1280.19 469.553 1317.73 465.798 1317.73 465.798C1317.73 465.798 1365.46 483.33 1352.18 522.962C1338.9 562.593 1363.22 579.179 1363.22 579.179C1363.22 579.179 1376.45 653.536 1308.8 647.658C1254.5 641.001 1240.52 605.909 1240.52 605.909L1180.71 610.518C1180.71 610.518 1160.41 571.117 1147.68 552.365Z" fill="white"/>
<path d="M611.835 564.803L427.763 560.735C406.985 560.413 387.112 552.175 372.2 537.702C356.523 522.276 329.415 507.111 289.65 523.161C289.65 523.161 205.1 571.269 285.459 626.853" stroke="black" stroke-width="22" stroke-miterlimit="10" stroke-linecap="round"/>
<path d="M318.465 579.12C318.465 579.12 317.24 603.8 280.903 634.768C258.494 653.851 252.41 686.156 271.707 708.306C282.308 720.434 299.031 727.853 325.438 721.163C341.011 717.065 354.922 708.217 365.235 695.849C383.056 674.844 439.333 633.819 609.357 626.064" stroke="black" stroke-width="22" stroke-miterlimit="10" stroke-linecap="round"/>
<path d="M1138.98 548.869L1228.83 537.633C1236.45 536.441 1243.65 533.332 1249.75 528.597C1255.85 523.862 1260.64 517.656 1263.69 510.561C1273.66 487.565 1285.19 462.11 1322.31 466.158C1357.24 469.953 1362.46 494.653 1354.02 518.318C1349.17 531.539 1342.05 543.814 1332.99 554.595C1327.1 561.734 1321.25 568.811 1319.85 577.526" stroke="black" stroke-width="22" stroke-miterlimit="10" stroke-linecap="round"/>
<path d="M1175 610.751L1231.5 610.75C1237.54 610.698 1243.53 611.84 1249.13 614.111C1254.73 616.382 1259.83 619.737 1264.12 623.984C1279.21 638.777 1307.01 658.318 1337.22 641.261C1382.38 615.771 1365.61 562.554 1341.07 546.161" stroke="black" stroke-width="22" stroke-miterlimit="10" stroke-linecap="round"/>
<path d="M600.396 536.211C619.215 578.661 618.881 598.206 612.064 645.818L609.583 655.148" stroke="black" stroke-width="22" stroke-miterlimit="10" stroke-linecap="round"/>
</g>
<defs>
<clipPath id="clip0_786_1362">
<rect width="1500" height="1500" fill="white"/>
</clipPath>
</defs>
      
    </g>
    </svg>