<svg
      xmlns="http://www.w3.org/2000/svg"
      preserveAspectRatio="xMidYMin meet"
      fill="none"
      viewBox="0 0 1500 1500"
    >
      <g>
      <path fill="url(#prefix__a1)" d="M0 0h1500v1500H0z"/><defs><linearGradient id="prefix__a1" x1="1500" y1="1500" x2="0" y2="0" gradientUnits="userSpaceOnUse">
<stop stop-color="#1555D1"/>
<stop offset="1" stop-color="#70E5FF"/>
</linearGradient></defs>
      <g clip-path="url(#clip0_481_146)">
<path d="M380.5 1417.5L349.5 1509L1140 1510L1111 1376.5L1038 1230L991.5 1152C965.167 1110.5 892.5 1024.6 812.5 1013C732.5 1001.4 660.167 1039.17 634 1059.5L568.5 1115.5L465 1243.5L380.5 1417.5Z" fill="white"/>
<path d="M409.87 1339.62C462.691 1207.98 569.086 1113.24 605.384 1082.33L632.5 1058L637.5 1059.48C599.917 1079.63 651 1067.5 648.91 1093.5L659.5 1099.5L764.5 1175C714.1 1177.8 656.5 1131.81 634 1108.47C506.332 1241.92 454.501 1434.51 443.159 1511H353.699C350.414 1508.73 357.049 1471.27 409.87 1339.62Z" fill="#001647" fill-opacity="0.2"/>
<path d="M842 1179L826.5 1505H806L819 1213.5L824 1160.5L871.5 1156.5C874.333 1159.5 879.4 1166.7 877 1171.5C874.6 1176.3 852.667 1178.5 842 1179Z" fill="#001647" fill-opacity="0.2"/>
<path d="M804 1171.5L782.5 1505H798.5L817.5 1158L794 1147.5C788.667 1150.5 779.2 1157.3 784 1160.5C788.8 1163.7 799.333 1169.17 804 1171.5Z" fill="#001647" fill-opacity="0.2"/>
<path d="M887.5 1154.5C899.9 1168.5 916.667 1168.33 921 1167.5L899 1147.5L887.5 1154.5Z" fill="#001647" fill-opacity="0.2"/>
<path d="M821.5 1160L798 1507.5H936L875 1145L902.5 1139.5L842.5 1101L792 1145L821.5 1160Z" fill="#53B6F9"/>
<path d="M353.5 1519.5C365.5 1454.33 414.5 1313.6 483.5 1219C529.307 1156.2 575.854 1103.13 626.504 1061.8M1142.5 1519.5C1103.44 1290.29 1000.08 1146.05 905.02 1064.27C826.037 996.323 710.273 994.302 629.137 1059.66C628.258 1060.37 627.38 1061.08 626.504 1061.8M1013.5 1319C1024.83 1354.33 1048.1 1443.9 1050.5 1519.5M667 1361.5C661.167 1392.33 650.3 1467.1 653.5 1519.5M926 1087C934.762 1114.34 929.833 1141.11 925.003 1154.27C924.105 1156.72 921.076 1157.36 919.054 1155.71C913.678 1151.34 905.408 1144.87 896 1137.66M793.42 1142.5C783.296 1151.26 773.753 1159.03 766.905 1164.4C766.012 1165.1 764.867 1165.39 763.753 1165.17C707.225 1153.99 651.021 1094.56 626.504 1061.8M793.42 1142.5C809.829 1128.31 827.763 1111.55 838.219 1098.32C839.228 1097.04 841.056 1096.75 842.381 1097.69C856.424 1107.73 878.238 1124.04 896 1137.66M793.42 1142.5C800.317 1146.99 810.966 1152 823.5 1154.93M896 1137.66C888.793 1144.19 881.197 1148.81 873.5 1151.94M823.5 1154.93L802 1508M823.5 1154.93C838.529 1158.44 856.268 1158.95 873.5 1151.94M873.5 1151.94L932.5 1508" stroke="black" stroke-width="22" stroke-linecap="round"/>
</g>
<defs>
<clipPath id="clip0_481_146">
<rect width="1500" height="1500" fill="white"/>
</clipPath>
</defs>
      <g clip-path="url(#clip0_497_1194)">
<path d="M379.667 654.812C432.345 471.574 618.472 401.981 699.114 390.653C740.985 382.718 849.655 375.215 949.364 408.675C980 418.956 1049.88 457.388 1091.92 499.818C1144.47 552.856 1272.97 732.052 1185.05 927.725C1097.12 1123.4 758.414 1092.29 612.749 1051.82C464.472 1010.63 314.48 881.563 379.667 654.812Z" fill="#AABBFF"/>
<path d="M449.293 747.204C454.734 531.068 585.306 432.345 649.911 410C432.292 459.565 365.296 655.455 364 747.204C377.99 984.871 584.496 1053.43 681 1058C601.498 1044.46 443.853 963.339 449.293 747.204Z" fill="#001647" fill-opacity="0.2"/>
<path d="M379.667 654.812C432.345 471.574 618.472 401.981 699.114 390.653C740.985 382.718 849.655 375.215 949.364 408.675C980 418.956 1049.88 457.388 1091.92 499.818C1144.47 552.856 1272.97 732.052 1185.05 927.725C1097.12 1123.4 758.414 1092.29 612.749 1051.82C464.472 1010.63 314.48 881.563 379.667 654.812Z" stroke="black" stroke-width="22" stroke-linecap="round"/>
</g>
<defs>
    <clipPath id="prefix__clip0_299_662"><path fill="#fff" d="M0 0h1500v1500H0z"/></clipPath>
</defs>
      <g clip-path="url(#clip0_624_3550)">
<path d="M860.753 778.254C855.989 772.147 849.895 767.208 842.935 763.81C835.975 760.413 828.332 758.647 820.587 758.647C812.842 758.647 805.198 760.413 798.238 763.81C791.278 767.208 785.184 772.147 780.42 778.254" stroke="black" stroke-width="22" stroke-miterlimit="10" stroke-linecap="round"/>
<path d="M870.881 910.959C896.594 937.099 946.448 937.099 972.168 910.959" stroke="black" stroke-width="22" stroke-miterlimit="10" stroke-linecap="round"/>
<path d="M1052.5 778.254C1047.74 772.147 1041.64 767.208 1034.68 763.81C1027.72 760.413 1020.08 758.647 1012.33 758.647C1004.59 758.647 996.946 760.413 989.985 763.81C983.025 767.208 976.931 772.147 972.167 778.254" stroke="black" stroke-width="22" stroke-miterlimit="10" stroke-linecap="round"/>
</g>
<defs>
<clipPath id="clip0_624_3550">
<rect width="1500" height="1500" fill="white"/>
</clipPath>
</defs>
      <g clip-path="url(#clip0_845_2570)">
<ellipse cx="932" cy="915.5" rx="131" ry="69.5" fill="#AABBFF"/>
<path d="M1064.85 848.913L981.352 891.522L1001.85 918.58L1079.43 879.307L1064.85 848.913Z" fill="white"/>
<path d="M1094.79 877.072C1084.04 879.443 1070.41 855.937 1064.94 843.888L1080.91 840.718L1094.21 851.835C1098.88 859.26 1105.54 874.702 1094.79 877.072Z" fill="#FF6247"/>
<path d="M989.67 884.941L948.184 908.29L980.01 924.589L1009.27 915.418L989.67 884.941Z" fill="#FF9C07"/>
<path d="M855 933.5C868.287 922.368 899.473 908.037 940 914.627C941.978 914.948 943.978 915.32 946 915.744C957.536 918.164 969.764 922.298 982.5 928.667C983.662 929.249 984.829 929.849 986 930.468C987.824 931.432 989.657 932.442 991.5 933.5" stroke="black" stroke-width="20" stroke-linecap="round"/>
<path d="M926 913L1075.85 836.605M984.69 927.619L1096.13 874.209" stroke="black" stroke-width="20" stroke-linecap="round"/>
<ellipse cx="1086.92" cy="854.964" rx="15.8362" ry="21.2046" transform="rotate(-28.2597 1086.92 854.964)" stroke="black" stroke-width="20"/>
</g>
<defs>
<clipPath id="clip0_845_2570">
<rect width="1500" height="1500" fill="white"/>
</clipPath>
</defs>
      <g clip-path="url(#clip0_786_1362)">
<path d="M711.94 381.541L669.138 415.004L754.914 456.956C786.09 456.451 856.04 454.579 886.429 451.127C916.817 447.675 946.703 430.594 957.848 422.485L912.882 387.272L890.772 360.146L852.07 352.844L816.711 388.83L811.119 369.892L779.2 357.196L748.101 362.456L711.94 381.541Z" fill="#AABBFF"/>
<path d="M754.823 451.145C758.386 440.393 766.661 423.631 780.081 411.559M882.17 449.083C878.062 439.675 870.922 425.659 859.411 414.501M670.743 416.037C678.291 403.405 696.028 378.1 722.448 377.672C724.832 377.634 727.122 377.712 729.323 377.895M780.081 411.559C789.433 403.145 801.285 397.009 815.783 396.774C818.147 396.736 820.438 396.825 822.658 397.03M780.081 411.559C771.884 400.903 758.35 380.305 729.323 377.895M953.095 422.563C946.826 410.677 929.573 387.795 908.089 385.052M859.411 414.501C864.186 404.755 879.655 385.169 903.328 384.785C904.936 384.759 906.524 384.852 908.089 385.052M859.411 414.501C850.192 405.565 838.17 398.463 822.658 397.03M729.323 377.895C734.108 368.72 747.587 350.309 768.512 349.97C795.461 349.534 817.557 375.809 822.658 397.03M908.089 385.052C903.334 374.267 889.367 351.713 871.612 352C849.419 352.36 832.274 370.674 822.592 392.964" stroke="black" stroke-width="22" stroke-linecap="round"/>
<path d="M608.491 564.745L416.38 556.98L362.812 529.743C362.812 529.743 272.363 496.123 253.198 563.225C234.033 630.327 294.892 621.442 294.892 621.442C294.892 621.442 234.693 674.211 270.378 706.733C306.063 739.255 343.827 713.758 343.827 713.758L416.58 661.471L498.131 638.01L615.409 626.272L608.491 564.745Z" fill="white"/>
<path d="M1313.95 616.67C1343.53 624.964 1353.97 603.922 1355.5 592.365L1365.24 602.265L1358.04 623.522L1325.76 653.906L1280.89 634.981L1240.1 609.249L1176.5 604L1167.5 587.5C1192.71 585.773 1215.27 583.908 1246.09 586.675C1284.61 590.133 1276.98 606.303 1313.95 616.67Z" fill="#001647" fill-opacity="0.2"/>
<path d="M376.041 543.941L451.5 564C445.667 578.482 433.8 616.452 433 652.473L423.636 652.473L373.93 690.257C360.188 706.18 322.679 735.212 282.572 723.957C242.466 712.703 264.742 652.888 280.893 624.388L256.504 600.586C252.576 593.245 251.141 570.202 276.83 536.763C302.518 503.324 353.674 527.616 376.041 543.941Z" fill="#001647" fill-opacity="0.2"/>
<path d="M1147.68 552.365C1135.98 538.355 1219.43 538.929 1219.43 538.929C1219.43 538.929 1254.66 534.738 1267.43 502.145C1280.19 469.553 1317.73 465.798 1317.73 465.798C1317.73 465.798 1365.46 483.33 1352.18 522.962C1338.9 562.593 1363.22 579.179 1363.22 579.179C1363.22 579.179 1376.45 653.536 1308.8 647.658C1254.5 641.001 1240.52 605.909 1240.52 605.909L1180.71 610.518C1180.71 610.518 1160.41 571.117 1147.68 552.365Z" fill="white"/>
<path d="M611.835 564.803L427.763 560.735C406.985 560.413 387.112 552.175 372.2 537.702C356.523 522.276 329.415 507.111 289.65 523.161C289.65 523.161 205.1 571.269 285.459 626.853" stroke="black" stroke-width="22" stroke-miterlimit="10" stroke-linecap="round"/>
<path d="M318.465 579.12C318.465 579.12 317.24 603.8 280.903 634.768C258.494 653.851 252.41 686.156 271.707 708.306C282.308 720.434 299.031 727.853 325.438 721.163C341.011 717.065 354.922 708.217 365.235 695.849C383.056 674.844 439.333 633.819 609.357 626.064" stroke="black" stroke-width="22" stroke-miterlimit="10" stroke-linecap="round"/>
<path d="M1138.98 548.869L1228.83 537.633C1236.45 536.441 1243.65 533.332 1249.75 528.597C1255.85 523.862 1260.64 517.656 1263.69 510.561C1273.66 487.565 1285.19 462.11 1322.31 466.158C1357.24 469.953 1362.46 494.653 1354.02 518.318C1349.17 531.539 1342.05 543.814 1332.99 554.595C1327.1 561.734 1321.25 568.811 1319.85 577.526" stroke="black" stroke-width="22" stroke-miterlimit="10" stroke-linecap="round"/>
<path d="M1175 610.751L1231.5 610.75C1237.54 610.698 1243.53 611.84 1249.13 614.111C1254.73 616.382 1259.83 619.737 1264.12 623.984C1279.21 638.777 1307.01 658.318 1337.22 641.261C1382.38 615.771 1365.61 562.554 1341.07 546.161" stroke="black" stroke-width="22" stroke-miterlimit="10" stroke-linecap="round"/>
<path d="M600.396 536.211C619.215 578.661 618.881 598.206 612.064 645.818L609.583 655.148" stroke="black" stroke-width="22" stroke-miterlimit="10" stroke-linecap="round"/>
</g>
<defs>
<clipPath id="clip0_786_1362">
<rect width="1500" height="1500" fill="white"/>
</clipPath>
</defs>
      
    </g>
    </svg>