<svg
      xmlns="http://www.w3.org/2000/svg"
      preserveAspectRatio="xMidYMin meet"
      fill="none"
      viewBox="0 0 1500 1500"
    >
      <g>
      <path fill="url(#prefix__paint0_linear_53_30459)" d="M0 0h1500v1500H0z"/><defs><linearGradient id="prefix__paint0_linear_53_30459" x1="0" y1="0" x2="1500" y2="1500" gradientUnits="userSpaceOnUse">
<stop stop-color="#FFCB9F"/>
<stop offset="1" stop-color="#FF7F11"/>
</linearGradient></defs>
      <g clip-path="url(#clip0_481_201)">
<path d="M822.5 1233.5L646 1049.5L588 1087L661 1162.5C706.5 1217.17 798.2 1327.5 801 1331.5C803.8 1335.5 879.167 1449.83 916.5 1506.5H996L872 1300.5L956.5 1121.5L904 1065.5L822.5 1233.5Z" fill="white"/>
<path d="M416.5 1343L353.5 1506H915.5L833.5 1370.5L593 1094.5L487.5 1206.5L416.5 1343Z" fill="#99C4CB"/>
<path d="M936 1395.5L996.5 1506H1140L1121 1432.5L1096 1349.5L1050.5 1256.5L996.5 1167L959 1125L869.5 1297L936 1395.5Z" fill="#99C4CB"/>
<path d="M416.5 1343L353.5 1506H915.5L833.5 1370.5L593 1094.5L487.5 1206.5L416.5 1343Z" stroke="black"/>
<path d="M936 1395.5L996.5 1506H1140L1121 1432.5L1096 1349.5L1050.5 1256.5L996.5 1167L959 1125L869.5 1297L936 1395.5Z" stroke="black"/>
<path d="M820 1233.5L647.5 1052C665.333 1040.5 715 1016.9 771 1014.5C827 1012.1 880 1045.17 899.5 1062L820 1233.5Z" fill="#AABBFF"/>
<path d="M409.87 1339.62C462.691 1207.98 569.086 1113.24 605.384 1082.33L674 1033.5L749.5 1019.5C699.204 1046.47 656.397 1082.67 620.155 1123.5L641 1146.5L697 1200L769.5 1290.5L871.5 1426.5L914.5 1511H889.5C862.667 1465 786.9 1356.6 730.5 1287C674.1 1217.4 622.589 1160.22 605.384 1140.83C498.462 1271.37 453.613 1440.5 443.159 1511H353.699C350.414 1508.73 357.049 1471.27 409.87 1339.62Z" fill="#001647" fill-opacity="0.2"/>
<path d="M353.5 1519.5C365.5 1454.33 414.5 1313.6 483.5 1219C530.101 1155.11 577.468 1101.29 629.141 1059.66C710.278 994.299 826.037 996.323 905.02 1064.27C1000.08 1146.05 1103.44 1290.29 1142.5 1519.5M1013.5 1319C1024.83 1354.33 1048.1 1443.9 1050.5 1519.5M667 1361.5C661.167 1392.33 650.3 1467.1 653.5 1519.5M592 1093.5C677.5 1177.33 857.5 1384.5 921.5 1516.5M870.895 1302C924.689 1373.66 972.467 1449.01 998.5 1516.5M870.895 1302C892.264 1267.83 939 1185 959 1119M870.895 1302C854.413 1280.04 837.366 1258.43 820.206 1237.5M820.206 1237.5C842.304 1198 890.5 1112.6 898.5 1067M820.206 1237.5C756.694 1160.02 691.644 1091.84 648 1049.77" stroke="black" stroke-width="22" stroke-linecap="round"/>
</g>
<defs>
<clipPath id="clip0_481_201">
<rect width="1500" height="1500" fill="white"/>
</clipPath>
</defs>
      <g clip-path="url(#clip0_497_1194)">
<path d="M379.667 654.812C432.345 471.574 618.472 401.981 699.114 390.653C740.985 382.718 849.655 375.215 949.364 408.675C980 418.956 1049.88 457.388 1091.92 499.818C1144.47 552.856 1272.97 732.052 1185.05 927.725C1097.12 1123.4 758.414 1092.29 612.749 1051.82C464.472 1010.63 314.48 881.563 379.667 654.812Z" fill="#AABBFF"/>
<path d="M449.293 747.204C454.734 531.068 585.306 432.345 649.911 410C432.292 459.565 365.296 655.455 364 747.204C377.99 984.871 584.496 1053.43 681 1058C601.498 1044.46 443.853 963.339 449.293 747.204Z" fill="#001647" fill-opacity="0.2"/>
<path d="M379.667 654.812C432.345 471.574 618.472 401.981 699.114 390.653C740.985 382.718 849.655 375.215 949.364 408.675C980 418.956 1049.88 457.388 1091.92 499.818C1144.47 552.856 1272.97 732.052 1185.05 927.725C1097.12 1123.4 758.414 1092.29 612.749 1051.82C464.472 1010.63 314.48 881.563 379.667 654.812Z" stroke="black" stroke-width="22" stroke-linecap="round"/>
</g>
<defs>
    <clipPath id="prefix__clip0_299_662"><path fill="#fff" d="M0 0h1500v1500H0z"/></clipPath>
</defs>
      <g clip-path="url(#clip0_624_3550)">
<path d="M860.753 778.254C855.989 772.147 849.895 767.208 842.935 763.81C835.975 760.413 828.332 758.647 820.587 758.647C812.842 758.647 805.198 760.413 798.238 763.81C791.278 767.208 785.184 772.147 780.42 778.254" stroke="black" stroke-width="22" stroke-miterlimit="10" stroke-linecap="round"/>
<path d="M870.881 910.959C896.594 937.099 946.448 937.099 972.168 910.959" stroke="black" stroke-width="22" stroke-miterlimit="10" stroke-linecap="round"/>
<path d="M1052.5 778.254C1047.74 772.147 1041.64 767.208 1034.68 763.81C1027.72 760.413 1020.08 758.647 1012.33 758.647C1004.59 758.647 996.946 760.413 989.985 763.81C983.025 767.208 976.931 772.147 972.167 778.254" stroke="black" stroke-width="22" stroke-miterlimit="10" stroke-linecap="round"/>
</g>
<defs>
<clipPath id="clip0_624_3550">
<rect width="1500" height="1500" fill="white"/>
</clipPath>
</defs>
      <g clip-path="url(#clip0_911_278)">
<path d="M741 865.42V871.56C741.01 872.669 740.781 873.767 740.33 874.78C739.07 877.64 736.99 877.78 736.99 877.78C735.893 878.033 734.754 878.046 733.651 877.818C732.548 877.59 731.507 877.127 730.6 876.46C727.96 874.35 721.36 856.25 721.36 856.25L708.65 876.46H700L717.8 848.25L712.21 836.66C711.84 835.888 711.265 835.233 710.547 834.767C709.828 834.301 708.996 834.043 708.14 834.02H708C707.225 833.94 706.442 834.054 705.721 834.351C705.001 834.647 704.365 835.118 703.87 835.72C702.98 836.61 702.66 839.5 702.66 839.5L700.88 839.63C700.634 837.881 700.59 836.109 700.75 834.35C700.862 833.001 701.324 831.705 702.09 830.59C702.61 829.783 703.325 829.12 704.169 828.664C705.014 828.208 705.96 827.972 706.92 827.98C708.535 827.979 710.11 828.479 711.43 829.41C712.762 830.35 713.801 831.646 714.43 833.15L719.69 846.2L731.13 828.8H739L723.2 853.31L727.14 862.63C727.14 862.63 730.14 871.63 734.45 871.63C738.76 871.63 739.16 865.41 739.16 865.41L741 865.42Z" fill="black"/>
</g>
<defs>
<clipPath id="clip0_911_278">
<rect width="1500" height="1500" fill="white"/>
</clipPath>
</defs>
      <g clip-path="url(#clip0_602_1931)">
<path d="M718.5 336C430.5 374.4 355.833 571 354.5 664.5L414.5 657L585 641.5L677.5 700.5L746 715.5L795 706.5L864.5 683L951 641.5L1027 629C1040.67 630 1078.8 633.9 1122 641.5C1176 651 1185 710.5 1224.5 677C1256.1 650.2 1196 608.166 1162 590.5C1163 539 1078.5 288 718.5 336Z" fill="#F56CDB"/>
<path d="M790.5 334.999C576.9 453.399 513.5 594.666 508.5 650.499L355.5 670.5C343.167 665.833 342.4 622.399 438 485.999C533.6 349.599 712.834 328.499 790.5 334.999Z" fill="#001647" fill-opacity="0.2"/>
<path d="M918 513C740.4 509.8 610.667 597.833 577.5 639.5L635 613.5L746 568.5L911.5 542.5L1081.5 557L1179.5 596C1166.33 568 1095.6 516.2 918 513Z" fill="#001647" fill-opacity="0.2"/>
<path d="M1168 594.006C1137.5 399.5 919 330 797.5 330C484.905 330 371.892 543.53 353.776 661.318C352.717 668.2 359.115 673.614 365.869 671.92C411.449 660.485 504.576 640.341 587 645M587 645C621.5 612.167 730.5 548 894.5 542C1079.59 535.228 1192.54 594.489 1230.03 642.496C1236.7 651.039 1235.02 662.819 1228.03 671.106V671.106C1218.11 682.881 1200.55 684.175 1188.11 675.098C1145.41 643.936 1080.11 612.042 1002 628C892.783 650.313 790 754 669.5 701.5L587 645Z" stroke="black" stroke-width="22" stroke-linecap="round"/>
<path d="M819.136 403.189L836.895 401.663L847.224 454.606L829.464 456.132L832.902 473.777L821.061 474.795L817.618 457.15L799.859 458.676L789.53 405.734L807.295 404.207L803.852 386.563L815.693 385.545L819.136 403.189ZM884.078 427.515L901.842 425.989L912.161 478.932L894.407 480.458L897.849 498.102L886.008 499.12L882.565 481.475L864.801 483.002L854.478 430.059L872.237 428.533L868.794 410.884L880.635 409.866L884.078 427.515Z" fill="black"/>
</g>
<defs>
<clipPath id="clip0_602_1931">
<rect width="1500" height="1500" fill="white"/>
</clipPath>
</defs>
      
    </g>
    </svg>