<svg
      xmlns="http://www.w3.org/2000/svg"
      preserveAspectRatio="xMidYMin meet"
      fill="none"
      viewBox="0 0 1500 1500"
    >
      <g>
      <path fill="url(#prefix__paint0_linear_53_30463)" d="M0 0h1500v1500H0z"/><defs><linearGradient id="prefix__paint0_linear_53_30463" x1="1500" y1="1500" x2="0" y2="0" gradientUnits="userSpaceOnUse">
<stop stop-color="#FF5A5A"/>
<stop offset="1" stop-color="#FFBDBD"/>
</linearGradient></defs>
      <g clip-path="url(#clip0_481_166)">
<path d="M773 1011.5C868.667 1017.83 1075.7 1127 1138.5 1513H355C361.86 1487.94 371.214 1458.84 382.999 1427.5L350.5 1396.5C343.333 1370.17 328.8 1316.3 328 1311.5C327 1305.5 328 1226.5 328 1217.5C328 1210.3 314.667 1158.17 308 1133L256 1102.5L212.5 1109.5V1158L147.5 1122.5L97.5 1039H161L227 1019.5L212.5 1053.5L292 1064.5L340.5 1092.5L355 1129L382.999 1203.5V1260L387 1329L412.451 1356.5C483.351 1200.51 605.626 1024.91 773 1011.5Z" fill="#FF6247"/>
<path d="M749.5 1019.5C536 1134 457.448 1414.63 443.159 1511H353.699C351.265 1509.32 354.277 1488.32 377.487 1424C368.324 1417.67 348.5 1396.1 342.5 1360.5C336.5 1324.9 328.333 1273.33 325 1252V1172.5L284 1114L233 1101.5L204.5 1114L217 1167C186.667 1156 121.3 1116 102.5 1044L162.5 1037L233 1014L217 1059H287L337 1085L370 1137.5L378 1196V1245V1306.5L395.5 1344L404.533 1353C406.257 1348.65 408.036 1344.2 409.87 1339.62C462.691 1207.98 569.086 1113.24 605.384 1082.33L674 1033.5L749.5 1019.5Z" fill="#001647" fill-opacity="0.2"/>
<path d="M353.5 1519.5C365.5 1454.33 414.5 1313.6 483.5 1219C530.101 1155.11 577.468 1101.29 629.141 1059.66C710.278 994.299 826.037 996.323 905.02 1064.27C1000.08 1146.05 1103.44 1290.29 1142.5 1519.5M1013.5 1319C1024.83 1354.33 1048.1 1443.9 1050.5 1519.5M667 1361.5C661.167 1392.33 650.3 1467.1 653.5 1519.5M403.999 1357.5C392.166 1349.5 371.606 1316.33 377.999 1248C385.996 1162.54 357.694 1034.33 217.866 1060.74C217.205 1060.86 216.572 1060.33 216.664 1059.66C218.118 1049.08 224.532 1027.57 235.443 1013.6C236.127 1012.72 235.086 1011.29 234.071 1011.74C203.779 1025.13 147.126 1044.29 101.47 1039.66C100.764 1039.59 100.202 1040.22 100.399 1040.9C112.755 1083.53 151.12 1149.05 220.224 1163.93C221.002 1164.1 221.657 1163.33 221.365 1162.59C215.143 1146.83 206.736 1120.9 208.375 1111.37C208.165 1110.88 208.361 1110.32 208.838 1110.09C222.979 1103.32 251.377 1099.03 280 1115.5C316.5 1136.5 330 1186.5 327 1248C324 1309.5 333.499 1392.5 377.999 1426.5" stroke="black" stroke-width="22" stroke-linecap="round"/>
</g>
<defs>
<clipPath id="clip0_481_166">
<rect width="1500" height="1500" fill="white"/>
</clipPath>
</defs>
      <g clip-path="url(#clip0_497_1194)">
<path d="M379.667 654.812C432.345 471.574 618.472 401.981 699.114 390.653C740.985 382.718 849.655 375.215 949.364 408.675C980 418.956 1049.88 457.388 1091.92 499.818C1144.47 552.856 1272.97 732.052 1185.05 927.725C1097.12 1123.4 758.414 1092.29 612.749 1051.82C464.472 1010.63 314.48 881.563 379.667 654.812Z" fill="#AABBFF"/>
<path d="M449.293 747.204C454.734 531.068 585.306 432.345 649.911 410C432.292 459.565 365.296 655.455 364 747.204C377.99 984.871 584.496 1053.43 681 1058C601.498 1044.46 443.853 963.339 449.293 747.204Z" fill="#001647" fill-opacity="0.2"/>
<path d="M379.667 654.812C432.345 471.574 618.472 401.981 699.114 390.653C740.985 382.718 849.655 375.215 949.364 408.675C980 418.956 1049.88 457.388 1091.92 499.818C1144.47 552.856 1272.97 732.052 1185.05 927.725C1097.12 1123.4 758.414 1092.29 612.749 1051.82C464.472 1010.63 314.48 881.563 379.667 654.812Z" stroke="black" stroke-width="22" stroke-linecap="round"/>
</g>
<defs>
    <clipPath id="prefix__clip0_299_662"><path fill="#fff" d="M0 0h1500v1500H0z"/></clipPath>
</defs>
      <g clip-path="url(#clip0_624_3204)">
<path d="M876.086 925.246H970.499" stroke="black" stroke-width="22" stroke-linecap="round"/>
<path d="M865.708 768.06L844.448 768.047L821.695 768.027L792.828 768" stroke="black" stroke-width="22" stroke-linecap="round"/>
<path d="M850.019 773.927C852.061 777.245 853.087 781.09 852.968 784.985C852.85 788.88 851.593 792.655 849.352 795.844C847.112 799.032 843.986 801.494 840.361 802.925C836.737 804.357 832.772 804.695 828.958 803.897C825.143 803.1 821.646 801.202 818.898 798.439C816.15 795.676 814.273 792.168 813.497 788.349C812.721 784.53 813.081 780.567 814.533 776.951C815.985 773.334 818.464 770.223 821.665 768H844.419C846.675 769.567 848.582 771.585 850.019 773.927Z" fill="black" stroke="black" stroke-width="22" stroke-linecap="round"/>
<path d="M1033.71 768L1004.83 768.027L982.081 768.047L960.828 768.06" stroke="black" stroke-width="22" stroke-linecap="round"/>
<path d="M976.506 773.926C974.456 777.243 973.423 781.087 973.536 784.985C973.648 788.882 974.9 792.661 977.138 795.854C979.376 799.047 982.5 801.513 986.125 802.949C989.75 804.385 993.716 804.726 997.533 803.931C1001.35 803.136 1004.85 801.24 1007.6 798.476C1010.35 795.713 1012.23 792.203 1013.01 788.383C1013.78 784.562 1013.42 780.597 1011.97 776.979C1010.52 773.361 1008.04 770.248 1004.83 768.026H982.079C979.837 769.59 977.94 771.598 976.506 773.926Z" fill="black" stroke="black" stroke-width="22" stroke-linecap="round"/>
</g>
<defs>
<clipPath id="clip0_624_3204">
<rect width="1500" height="1500" fill="white"/>
</clipPath>
</defs>
      <g clip-path="url(#clip0_911_278)">
<path d="M741 865.42V871.56C741.01 872.669 740.781 873.767 740.33 874.78C739.07 877.64 736.99 877.78 736.99 877.78C735.893 878.033 734.754 878.046 733.651 877.818C732.548 877.59 731.507 877.127 730.6 876.46C727.96 874.35 721.36 856.25 721.36 856.25L708.65 876.46H700L717.8 848.25L712.21 836.66C711.84 835.888 711.265 835.233 710.547 834.767C709.828 834.301 708.996 834.043 708.14 834.02H708C707.225 833.94 706.442 834.054 705.721 834.351C705.001 834.647 704.365 835.118 703.87 835.72C702.98 836.61 702.66 839.5 702.66 839.5L700.88 839.63C700.634 837.881 700.59 836.109 700.75 834.35C700.862 833.001 701.324 831.705 702.09 830.59C702.61 829.783 703.325 829.12 704.169 828.664C705.014 828.208 705.96 827.972 706.92 827.98C708.535 827.979 710.11 828.479 711.43 829.41C712.762 830.35 713.801 831.646 714.43 833.15L719.69 846.2L731.13 828.8H739L723.2 853.31L727.14 862.63C727.14 862.63 730.14 871.63 734.45 871.63C738.76 871.63 739.16 865.41 739.16 865.41L741 865.42Z" fill="black"/>
</g>
<defs>
<clipPath id="clip0_911_278">
<rect width="1500" height="1500" fill="white"/>
</clipPath>
</defs>
      <g clip-path="url(#clip0_602_1990)">
<path d="M761.123 173.627L739.489 206.494L735.451 222.928L647.215 249.971L507.554 286.46L384.658 301.209L371.65 292.571L391.484 278.467L472.202 249.871L553.09 233.794L645.986 208.53L731.324 207.141L754.746 170.909L746.848 169.744L647.214 170.909L548.5 187L398.758 240.649L348 258.74L305.936 292.764L308.078 319.809L340.923 335.111L480.952 324.018L660.099 282.969L735.412 258.74L798.603 221.506L807.665 190.709L761.123 173.627Z" fill="#FFBF44"/>
<path d="M749.635 173.821L730.731 199.668L740.77 207.109L773.723 182.297L749.635 173.821Z" fill="#FFBF44"/>
<path d="M571.583 310.62C711.541 277.881 818.64 224.154 810.795 190.618C802.951 157.082 683.133 156.435 543.175 189.174C403.216 221.912 296.117 275.639 303.962 309.175C311.807 342.712 431.625 343.358 571.583 310.62Z" stroke="black" stroke-width="22"/>
<path d="M560.509 273.108C667.77 247.986 752.212 216.903 749.116 203.683C746.019 190.463 656.557 200.111 549.296 225.234C442.034 250.357 357.592 281.439 360.689 294.66C363.785 307.88 453.247 298.231 560.509 273.108Z" stroke="black" stroke-width="22"/>
<path d="M711.94 381.541L669.138 415.004L754.914 456.956C786.09 456.451 856.04 454.579 886.429 451.127C916.817 447.675 946.703 430.594 957.848 422.485L912.882 387.272L890.772 360.146L852.07 352.844L816.711 388.83L811.119 369.892L779.2 357.196L748.101 362.456L711.94 381.541Z" fill="#AABBFF"/>
<path d="M754.823 451.145C758.386 440.393 766.661 423.631 780.081 411.559M882.17 449.083C878.062 439.675 870.922 425.659 859.411 414.501M670.743 416.037C678.291 403.405 696.028 378.1 722.448 377.672C724.832 377.634 727.122 377.712 729.323 377.895M780.081 411.559C789.433 403.145 801.285 397.009 815.783 396.774C818.147 396.736 820.438 396.825 822.658 397.03M780.081 411.559C771.884 400.903 758.35 380.305 729.323 377.895M953.095 422.563C946.826 410.677 929.573 387.795 908.089 385.052M859.411 414.501C864.186 404.755 879.655 385.169 903.328 384.785C904.936 384.759 906.524 384.852 908.089 385.052M859.411 414.501C850.192 405.565 838.17 398.463 822.658 397.03M729.323 377.895C734.108 368.72 747.587 350.309 768.512 349.97C795.461 349.534 817.557 375.809 822.658 397.03M908.089 385.052C903.334 374.267 889.367 351.713 871.612 352C849.419 352.36 832.274 370.674 822.592 392.964" stroke="black" stroke-width="22" stroke-linecap="round"/>
</g>
<defs>
<clipPath id="clip0_602_1990">
<rect width="1500" height="1500" fill="white"/>
</clipPath>
</defs>
      
    </g>
    </svg>