<svg
      xmlns="http://www.w3.org/2000/svg"
      preserveAspectRatio="xMidYMin meet"
      fill="none"
      viewBox="0 0 1500 1500"
    >
      <g>
      <path fill="url(#prefix__paint0_linear_53_30463)" d="M0 0h1500v1500H0z"/><defs><linearGradient id="prefix__paint0_linear_53_30463" x1="1500" y1="1500" x2="0" y2="0" gradientUnits="userSpaceOnUse">
<stop stop-color="#FF5A5A"/>
<stop offset="1" stop-color="#FFBDBD"/>
</linearGradient></defs>
      <g clip-path="url(#prefix__clip0_53_28307)"><path d="M460.5 1094.5c-138.4 66.4-174 309.33-174.5 422.5h983.5c-12.5-72.17-53.2-244.1-116-354.5-78.5-138-520-151-693-68z" fill="#A760FF"/><path d="M367 1440c-17.2-1.2-22.167 49.83-22.5 75.5l47.5-4.5c-1.167-23.17-7.8-69.8-25-71zM674 1276c-29.6 1.2-47 22.83-52 33.5l4.5 14 56 10.5c14.833-5 44.8-18.8 46-34 1.5-19-17.5-25.5-54.5-24zM554.5 1131.5c-49.2-6.8-55.167 21.17-52 36-2 6.83 1.9 23.3 33.5 34.5 39.5 14 138 33.5 166.5 31 22.8-2 24.833-33.83 23-49.5-36.5-14.5-121.8-45.2-171-52zM842 1417c-38.8 30.4-22.5 74.67-9.5 93l140.5 3.5c7.167-4 20-20.9 14-56.5-7.5-44.5-96.5-78-145-40zM1114.5 1293c-46.4-6.8-12.67-111.83 10-163.5l49 71.5c-.33 33.5-12.6 98.8-59 92z" fill="#ABF"/><path d="M386 1459l-1 47.5H284c2.833-48.17 12.8-156.6 30-205 17.2-48.4 43.5-97.5 54.5-116 29.667-31.67 93.9-93.8 113.5-89 19.6 4.8 28.5 23.67 30.5 32.5l-16.5 22.5 7.5 21 9 19c-95.2 77.2-124 210.5-126.5 267.5z" fill="#001647" fill-opacity=".2"/><path d="M705.5 1163c27.2 82.4-120.333 42.67-197.5 12.5l23.5 29.5c29.333 8.33 95.4 25.7 125 28.5 37 3.5 71-12 71.5-33 .4-16.8-14.833-32-22.5-37.5zM659.5 1315.5c-19.2.4-34.667-6.5-40-10l6.5 17c6.5 2.33 27.7 7.3 60.5 8.5 32.8 1.2 37.667-26.83 36-41-12.833-6-35.4-15.5-23-5.5 15.5 12.5-16 30.5-40 31zM960.5 1463.5c-4-32.4-41.667-52.83-60-59H920c14.667 5.83 47.3 23.2 60.5 46 13.2 22.8 1.5 49.5-6 60h-22c4.333-2.17 12-14.6 8-47zM1143 1161c16 61.6-21.67 112.67-40 126.5 53.5 10.5 70.33-58.33 68.5-87L1143 1161z" fill="#001647" fill-opacity=".2"/><path d="M289.501 1512.5c-6-101.5 31-323.03 140.5-398 158.5-108.51 616.499-87 706.499 26 64.91 81.5 99.5 222.5 132.5 371M1084.5 1337c12.33 37 29.5 110.3 43.5 175.5m-646.499 0c.333-32.83 7.7-107.6 20.5-157" stroke="#000" stroke-width="20" stroke-linecap="round"/><ellipse cx="675.502" cy="1303.28" rx="53.591" ry="29" transform="rotate(-4.687 675.502 1303.28)" stroke="#000" stroke-width="20"/><path d="M515.271 1188.27c-36.061-24.71-9.368-73.42 39.746-60.07l145.257 41.58c16.768 4.8 32.505 18.71 28.297 35.64-5.969 24.01-33.117 28.75-56 27.53-67.132-3.59-121.239-19.97-157.3-44.68zM393 1490c0 27.06-10.969 49-24.5 49s-24.5-21.94-24.5-49 10.969-49 24.5-49 24.5 21.94 24.5 49zM1173 1198.09c0 35.54-15.89 101.53-57.73 93.09-54.77-11.04-11.86-107.12 7.51-159.18" stroke="#000" stroke-width="20"/><ellipse cx="906" cy="1473" rx="87" ry="71" stroke="#000" stroke-width="20"/></g><defs><clipPath id="prefix__clip0_53_28307"><path fill="#fff" d="M0 0h1500v1500H0z"/></clipPath></defs>
      <g clip-path="url(#clip0_497_1194)">
<path d="M379.667 654.812C432.345 471.574 618.472 401.981 699.114 390.653C740.985 382.718 849.655 375.215 949.364 408.675C980 418.956 1049.88 457.388 1091.92 499.818C1144.47 552.856 1272.97 732.052 1185.05 927.725C1097.12 1123.4 758.414 1092.29 612.749 1051.82C464.472 1010.63 314.48 881.563 379.667 654.812Z" fill="#AABBFF"/>
<path d="M449.293 747.204C454.734 531.068 585.306 432.345 649.911 410C432.292 459.565 365.296 655.455 364 747.204C377.99 984.871 584.496 1053.43 681 1058C601.498 1044.46 443.853 963.339 449.293 747.204Z" fill="#001647" fill-opacity="0.2"/>
<path d="M379.667 654.812C432.345 471.574 618.472 401.981 699.114 390.653C740.985 382.718 849.655 375.215 949.364 408.675C980 418.956 1049.88 457.388 1091.92 499.818C1144.47 552.856 1272.97 732.052 1185.05 927.725C1097.12 1123.4 758.414 1092.29 612.749 1051.82C464.472 1010.63 314.48 881.563 379.667 654.812Z" stroke="black" stroke-width="22" stroke-linecap="round"/>
</g>
<defs>
    <clipPath id="prefix__clip0_299_662"><path fill="#fff" d="M0 0h1500v1500H0z"/></clipPath>
</defs>
      <g clip-path="url(#clip0_624_3473)">
<path d="M1010.33 800C1015.74 800 1021.02 798.397 1025.52 795.394C1030.01 792.39 1033.52 788.121 1035.59 783.127C1037.65 778.132 1038.2 772.637 1037.14 767.334C1036.09 762.032 1033.48 757.162 1029.66 753.339C1025.84 749.517 1020.97 746.913 1015.67 745.859C1010.36 744.804 1004.87 745.345 999.873 747.414C994.879 749.483 990.61 752.986 987.606 757.481C984.603 761.976 983 767.261 983 772.667C983 779.916 985.88 786.868 991.006 791.994C996.132 797.12 1003.08 800 1010.33 800Z" fill="black"/>
<path d="M799.421 789.214L858.141 778.547C859.189 778.352 860.151 777.837 860.895 777.073C861.639 776.309 862.128 775.334 862.294 774.28C862.455 773.224 862.285 772.143 861.808 771.187C861.331 770.234 860.569 769.453 859.628 768.954L804.701 739.807" stroke="black" stroke-width="22" stroke-miterlimit="10" stroke-linecap="round"/>
<path d="M870.88 910.959C896.593 937.099 946.447 937.099 972.167 910.959" stroke="black" stroke-width="22" stroke-miterlimit="10" stroke-linecap="round"/>
</g>
<defs>
<clipPath id="clip0_624_3473">
<rect width="1500" height="1500" fill="white"/>
</clipPath>
</defs>
      <g clip-path="url(#clip0_911_60)">
<path d="M460.219 805.943C475.82 798.654 501.529 792.379 524.163 813.654C528.273 817.448 533.363 820.195 538.941 821.629C544.519 823.064 550.397 823.138 556.006 821.844C573.016 818.048 597.437 816.739 614.831 833.2C619.122 837.278 624.509 840.214 630.429 841.701C636.349 843.188 642.586 843.172 648.487 841.654C666.028 837.128 691.038 835.634 712.05 854.378C716.422 858.314 721.858 861.079 727.777 862.377C733.697 863.675 739.88 863.459 745.668 861.751C760.092 857.479 781.675 858.939 797.48 872.31C825.383 893.165 845.774 879.144 856.08 870.512C870.479 858.485 893.106 853.242 922.921 866.523C927.217 868.397 911.011 867.005 915.75 867.096C920.49 867.188 925.194 866.353 929.559 864.645C944.143 859.052 968.025 848.964 990.335 863.68C995.352 867.057 1001.27 869.088 1007.43 869.551C1013.6 870.014 1019.78 868.891 1025.3 866.304C1035.45 861.452 1049.43 848.421 1065.43 851.757C1071.13 852.957 1077.07 852.771 1082.66 851.217C1088.26 849.662 1093.33 846.792 1097.37 842.883C1104.59 835.865 1116.15 829.719 1133.7 831.455C1139.73 832.011 1145.81 831.026 1151.28 828.607C1156.75 826.188 1161.4 822.426 1164.73 817.727C1172.28 807.178 1186.55 796.425 1212.99 795.806C1212.99 795.806 1234.77 809.638 1225.67 840.375C1223.58 847.477 1224.19 855.043 1227.42 861.786C1231.51 870.369 1234.43 883.066 1224.5 894.062C1221.55 897.291 1219.34 901.052 1218.02 905.111C1216.7 909.17 1216.3 913.44 1216.82 917.657C1218.75 932.06 1211.05 942.419 1203.6 948.896C1196.92 954.64 1192.97 962.615 1192.61 971.078C1191.97 987.295 1182.39 995.66 1173.39 999.937C1169.26 1001.99 1165.63 1004.82 1162.75 1008.26C1159.87 1011.69 1157.8 1015.65 1156.67 1019.88C1152.69 1033.88 1135.86 1040.13 1128.34 1042.97C1120.83 1045.81 1111.83 1050.78 1104.8 1062.18C1097.77 1073.58 1081.12 1086.14 1068.45 1088.54C1063.95 1089.41 1059.68 1091.1 1055.9 1093.53C1052.12 1095.95 1048.9 1099.06 1046.44 1102.66C1034.48 1120.03 1012.92 1123.54 997.649 1123.54C992.899 1123.5 988.197 1124.4 983.858 1126.19C979.519 1127.97 975.643 1130.6 972.488 1133.89C959.959 1147.29 941.13 1148.29 928.218 1147.03C919.494 1146.22 910.786 1148.61 903.945 1153.68C886.051 1166.67 866.187 1163.2 852.742 1158.06C847.995 1156.23 842.86 1155.45 837.739 1155.77C832.618 1156.09 827.651 1157.52 823.228 1159.93C804.494 1170.17 786.893 1165.72 775.279 1160.03C770.81 1157.89 765.888 1156.71 760.871 1156.56C755.853 1156.41 750.868 1157.31 746.278 1159.18C720.94 1169.33 700.843 1158.33 689.532 1148.82C686.082 1145.93 682.031 1143.74 677.633 1142.37C673.235 1140.99 668.583 1140.48 663.967 1140.85C636.193 1143.07 619.776 1129.1 611.091 1117.75C608.171 1113.92 604.368 1110.74 599.961 1108.45C595.553 1106.16 590.653 1104.81 585.618 1104.5C561.872 1103.05 548.422 1092.98 541.153 1084.38C538.145 1080.8 534.353 1077.85 530.028 1075.74C525.704 1073.62 520.946 1072.39 516.073 1072.11C488.965 1070.6 478.706 1057.76 474.909 1046.89C473.409 1042.47 470.835 1038.41 467.388 1035.05C463.94 1031.69 459.709 1029.1 455.023 1027.5C429.48 1018.94 422.413 999.936 420.942 985.655C420.48 980.616 418.728 975.748 415.833 971.459C412.938 967.169 408.984 963.582 404.299 960.997C384.079 950.136 381.744 934.663 383.019 924.205C383.85 916.922 381.827 909.597 377.32 903.573C371.088 895.114 365.408 881.616 375.03 866.267C377.603 862.177 379.137 857.593 379.517 852.863C379.897 848.133 379.112 843.381 377.221 838.969C372.334 827.6 369.038 812.67 379.982 804.456C394.838 793.255 415.968 799.376 430.262 805.914C434.922 808.066 440.05 809.188 445.247 809.193C450.444 809.198 455.569 808.086 460.219 805.943Z" fill="#4AEEB9"/>
<path d="M559.543 876.665C545.123 859.855 557.331 835.636 566.454 824.413C560.927 822.571 548.96 818.866 545.318 818.788C540.765 818.691 527.176 815.109 518.697 809.285C510.218 803.46 512.667 807.275 505.625 805.243C498.582 803.212 480.886 802.364 478.863 802.32C476.839 802.277 441.295 807.632 439.778 807.6C438.26 807.567 402.068 795.978 400.56 795.475C399.354 795.074 384.005 804.371 376.481 809.07L375.865 837.745C375.849 838.497 374.828 854.653 374.319 862.637L374.292 911.077L398.67 954.394L421.72 988.747L452.684 1031.73L479.964 1057.71L512.049 1072.04L576.734 1100.22L617.663 1126.96L656.354 1140.02L706.601 1157.08L749.096 1157.99L788.05 1158.82C780.022 1156.92 771.799 1149.38 766.552 1143.38C764.045 1140.51 760.276 1138.96 756.49 1139.36C715.191 1143.75 694.664 1121.11 687.589 1104.9C686.111 1101.51 683.291 1098.81 679.766 1097.7C655.194 1089.96 646.026 1071.74 643.706 1058.71C642.893 1054.15 639.87 1050.07 635.563 1048.35C613.408 1039.54 608.801 1023.1 609.835 1011C610.272 1005.89 608.173 1000.55 603.832 997.826C580.686 983.294 577.921 964.469 580.559 952.142C581.528 947.614 580.532 942.638 577.294 939.328C560.382 922.041 559.702 904.215 563.112 892.424C564.66 887.074 563.169 880.893 559.543 876.665Z" fill="#001647" fill-opacity="0.2"/>
<path d="M524.163 813.654C501.529 792.379 475.82 798.654 460.219 805.943C455.569 808.086 450.444 809.198 445.247 809.193C440.05 809.188 434.921 808.066 430.262 805.914C415.968 799.376 394.838 793.255 379.982 804.456C369.038 812.67 372.334 827.6 377.221 838.969C379.112 843.381 379.897 848.133 379.517 852.863C379.137 857.593 377.603 862.177 375.03 866.267C365.408 881.616 371.088 895.114 377.32 903.573C381.827 909.597 383.85 916.922 383.019 924.205C381.744 934.663 384.079 950.136 404.299 960.997C408.984 963.582 412.938 967.169 415.833 971.459C418.728 975.748 420.48 980.616 420.942 985.655C422.413 999.936 429.48 1018.94 455.023 1027.5C459.709 1029.1 463.94 1031.69 467.388 1035.05C470.835 1038.41 473.409 1042.47 474.909 1046.89C478.706 1057.76 488.965 1070.6 516.073 1072.11C520.946 1072.39 525.704 1073.62 530.028 1075.74C534.353 1077.85 538.145 1080.8 541.153 1084.38C548.422 1092.98 561.872 1103.05 585.618 1104.5C590.653 1104.81 595.553 1106.16 599.961 1108.45C604.368 1110.74 608.171 1113.92 611.091 1117.75C619.776 1129.1 636.193 1143.07 663.967 1140.85C668.583 1140.48 673.235 1140.99 677.633 1142.37C682.031 1143.74 686.082 1145.93 689.532 1148.82C700.843 1158.33 720.94 1169.33 746.278 1159.18C750.868 1157.31 755.853 1156.41 760.871 1156.56C765.888 1156.71 770.81 1157.89 775.278 1160.03C786.893 1165.72 804.494 1170.17 823.228 1159.93C827.651 1157.52 832.618 1156.09 837.739 1155.77C842.86 1155.45 847.995 1156.23 852.742 1158.06C866.187 1163.2 886.051 1166.67 903.945 1153.68C910.786 1148.61 919.494 1146.22 928.218 1147.03C941.13 1148.29 959.959 1147.29 972.488 1133.89C975.643 1130.6 979.519 1127.97 983.858 1126.19C988.197 1124.4 992.899 1123.5 997.649 1123.54C1012.92 1123.54 1034.48 1120.03 1046.44 1102.66C1048.9 1099.06 1052.12 1095.95 1055.9 1093.53C1059.68 1091.1 1063.94 1089.41 1068.45 1088.54C1081.12 1086.14 1097.77 1073.58 1104.8 1062.18C1111.83 1050.78 1120.83 1045.81 1128.34 1042.97L1128.55 1042.89C1136.16 1040.01 1152.72 1033.75 1156.67 1019.88C1157.8 1015.65 1159.87 1011.69 1162.75 1008.26C1165.63 1004.82 1169.26 1001.99 1173.39 999.937C1182.39 995.66 1191.97 987.295 1192.61 971.078C1192.97 962.615 1196.92 954.64 1203.6 948.896C1211.05 942.419 1218.75 932.06 1216.82 917.657C1216.3 913.44 1216.7 909.17 1218.02 905.111C1219.34 901.052 1221.55 897.291 1224.5 894.062C1234.43 883.066 1231.51 870.369 1227.42 861.786C1224.19 855.043 1223.58 847.477 1225.67 840.375C1234.77 809.638 1212.99 795.806 1212.99 795.806C1186.55 796.425 1172.28 807.178 1164.73 817.727C1161.4 822.426 1156.75 826.188 1151.28 828.607C1145.81 831.026 1139.73 832.011 1133.7 831.455C1116.15 829.719 1104.59 835.865 1097.37 842.883C1093.33 846.792 1088.26 849.662 1082.66 851.217C1077.07 852.771 1071.13 852.957 1065.43 851.757C1049.43 848.421 1035.45 861.452 1025.3 866.304C1019.78 868.891 1013.6 870.014 1007.43 869.551C1001.27 869.088 995.352 867.057 990.335 863.68C976.056 854.261 959.164 863.539 945.029 872.906C932.675 881.092 917.921 879.217 904.652 872.618C885.317 863.002 866.772 861.581 856.08 870.512C845.774 879.144 825.383 893.165 797.48 872.31C781.675 858.939 760.092 857.479 745.668 861.751C739.88 863.459 733.697 863.675 727.777 862.377C721.858 861.079 716.422 858.314 712.05 854.378C691.038 835.634 666.028 837.128 648.487 841.654C642.585 843.172 636.349 843.188 630.429 841.701C624.509 840.214 619.122 837.278 614.831 833.2C597.437 816.739 573.016 818.048 556.006 821.844C550.397 823.138 544.519 823.064 538.941 821.629C533.363 820.195 528.272 817.448 524.163 813.654Z" stroke="black" stroke-width="22" stroke-miterlimit="10"/>
<path d="M847.684 952.99C796.393 960.533 771.057 930.01 764.065 911.56C763.735 910.688 764.715 909.945 765.529 910.399C794.794 926.75 833.656 903.637 851.184 871.99C854.749 865.552 859.18 860.308 864.102 856.095C892.633 831.676 933.121 867.002 920.263 902.286C911.028 927.625 887.792 947.092 847.684 952.99Z" fill="#4AEEB9"/>
<path d="M999.033 952.99C1050.32 960.533 1075.66 930.01 1082.65 911.56C1082.98 910.688 1082 909.945 1081.19 910.399C1051.92 926.75 1013.06 903.637 995.533 871.99C991.967 865.552 987.536 860.308 982.614 856.095C954.083 831.676 913.595 867.002 926.454 902.286C935.688 927.625 958.924 947.092 999.033 952.99Z" fill="#4AEEB9"/>
<path d="M883 852.5C880.2 911.7 822.5 934.5 794 938.5L769.5 916.5L826.5 903.5L851 878.5L858 857.5L883 852.5Z" fill="#001647" fill-opacity="0.2"/>
<path d="M970 938.5C944.8 914.9 950.833 871.333 957 852.5L940 854.5L924.5 867V897L945 925.5L970 938.5Z" fill="#001647" fill-opacity="0.2"/>
<path fill-rule="evenodd" clip-rule="evenodd" d="M923.129 856.694C920.505 853.024 917.459 849.726 914.113 846.903C898.825 834.009 875.472 829.811 856.267 846.248C850.38 851.286 845.101 857.547 840.878 865.171C833.142 879.14 820.655 891.196 807.203 897.842C793.771 904.478 780.734 905.185 770.211 899.306C765.64 896.752 760.435 897.58 756.925 900.315C753.272 903.161 751.024 908.5 753.096 913.968C761.559 936.297 791.257 970.816 848.601 962.383C884.621 957.086 909.524 941.229 923.129 918.755C936.733 941.229 961.636 957.086 997.656 962.384C1055 970.817 1084.7 936.297 1093.16 913.968C1095.23 908.5 1092.99 903.161 1089.33 900.315C1085.82 897.58 1080.62 896.752 1076.05 899.307C1065.52 905.186 1052.49 904.479 1039.06 897.842C1025.6 891.196 1013.12 879.14 1005.38 865.171C1001.16 857.547 995.878 851.287 989.991 846.248C970.785 829.811 947.433 834.01 932.145 846.904C928.799 849.726 925.753 853.024 923.129 856.694ZM899.929 863.721C891.054 856.236 879.898 854.981 870.572 862.962C866.614 866.35 863.033 870.578 860.124 875.83C850.333 893.508 834.625 908.832 816.948 917.566C807.598 922.186 797.32 925.111 786.94 925.299C798.415 936.011 817.19 944.766 845.401 940.617C882.42 935.173 901.682 917.782 909.245 897.029C913.863 884.357 909.026 871.393 899.929 863.721ZM946.329 863.721C937.232 871.394 932.395 884.358 937.013 897.029C944.576 917.782 963.838 935.174 1000.86 940.618C1029.07 944.766 1047.84 936.011 1059.32 925.299C1048.94 925.111 1038.66 922.186 1029.31 917.566C1011.63 908.832 995.925 893.508 986.134 875.83C983.225 870.578 979.643 866.35 975.686 862.962C966.36 854.981 955.203 856.236 946.329 863.721Z" fill="black"/>
</g>
<defs>
<clipPath id="clip0_911_60">
<rect width="1500" height="1500" fill="white"/>
</clipPath>
</defs>
      <g clip-path="url(#clip0_771_606)">
<path d="M863.993 527.644C890.69 533.234 953.2 543.468 977.668 523.094L1014.69 433.323L1073.2 323.725L1125.02 252.017C1125.02 252.017 1152.13 228.431 1038.06 213.369C923.981 198.307 867.998 187.656 867.998 187.656C867.998 187.656 682.771 166.635 549.728 276.66C416.686 386.684 363.177 542.213 363.177 542.213C363.177 542.213 337.135 691.713 357.999 753.5C357.999 753.5 341.001 591 490.792 472.221L501.17 475.384L603.985 437.979L697.981 441.573L810.812 485.642L842.989 516.524C848.813 522.121 856.09 525.973 863.993 527.644Z" fill="#4AEEB9"/>
<path d="M742.504 200.999C676.904 266.599 661.503 387.666 662.003 439.999L625.003 434.5L571.003 446L499.003 479C383.499 562.5 364.503 699.667 357.503 751.5L343.503 659.5L360.003 560.5L396.003 466.5C421.169 416.5 492.403 304.699 576.003 257.499C659.603 210.299 721.837 200.166 742.504 200.999Z" fill="#001647" fill-opacity="0.2"/>
<path d="M370.001 824.5C370.001 824.5 269.087 563.97 500.28 320.562C709.101 100.723 1055 215.728 1119.97 240.074C1121.19 240.539 1122.28 241.281 1123.16 242.241C1124.03 243.209 1124.65 244.367 1124.99 245.623C1125.32 246.881 1125.35 248.2 1125.07 249.47C1124.79 250.741 1124.21 251.926 1123.38 252.928C1034.34 361.043 992.774 481.265 982.543 514.053C981.611 517.023 980.059 519.76 977.991 522.086C975.922 524.406 973.381 526.257 970.538 527.514C952.612 535.457 910.698 548.623 858.575 529.192C851.513 525.552 848.335 523.515 843.096 518.725C818.258 491.807 652.217 366.136 494.165 482.174" stroke="black" stroke-width="20" stroke-miterlimit="10" stroke-linecap="round"/>
<path d="M847.383 522.595C847.383 522.595 830.394 316.415 907.33 193.397" stroke="black" stroke-width="20" stroke-miterlimit="10" stroke-linecap="round"/>
<path d="M940.167 529.066C940.167 529.066 943.119 444.066 997.197 349.634" stroke="black" stroke-width="20" stroke-miterlimit="10" stroke-linecap="round"/>
<path d="M754.269 459.828C754.269 459.828 740.725 382.776 759.48 315.96" stroke="black" stroke-width="20" stroke-miterlimit="10" stroke-linecap="round"/>
<path d="M595.363 246.497C595.363 246.497 573.599 298.854 593.754 375.109" stroke="black" stroke-width="20" stroke-miterlimit="10" stroke-linecap="round"/>
<path d="M920.072 268.739C920.072 268.739 927.639 235.29 953.389 205.827" stroke="black" stroke-width="20" stroke-miterlimit="10" stroke-linecap="round"/>
<path d="M472.246 499.854C472.246 499.854 460.445 481.715 458.858 444.683" stroke="black" stroke-width="20" stroke-miterlimit="10" stroke-linecap="round"/>
</g>
<defs>
<clipPath id="clip0_771_606">
<rect width="1500" height="1500" fill="white"/>
</clipPath>
</defs>
      
    </g>
    </svg>