<svg
      xmlns="http://www.w3.org/2000/svg"
      preserveAspectRatio="xMidYMin meet"
      fill="none"
      viewBox="0 0 1500 1500"
    >
      <g>
      <path fill="url(#prefix__paint0_linear_53_30460)" d="M0 0h1500v1500H0z"/><defs><linearGradient id="prefix__paint0_linear_53_30460" x1="0" y1="0" x2="1500" y2="1500" gradientUnits="userSpaceOnUse">
<stop stop-color="#F1FFBA"/>
<stop offset="1" stop-color="#65DCBA"/>
</linearGradient></defs>
      <g clip-path="url(#prefix__clip0_53_28307)"><path d="M460.5 1094.5c-138.4 66.4-174 309.33-174.5 422.5h983.5c-12.5-72.17-53.2-244.1-116-354.5-78.5-138-520-151-693-68z" fill="#A760FF"/><path d="M367 1440c-17.2-1.2-22.167 49.83-22.5 75.5l47.5-4.5c-1.167-23.17-7.8-69.8-25-71zM674 1276c-29.6 1.2-47 22.83-52 33.5l4.5 14 56 10.5c14.833-5 44.8-18.8 46-34 1.5-19-17.5-25.5-54.5-24zM554.5 1131.5c-49.2-6.8-55.167 21.17-52 36-2 6.83 1.9 23.3 33.5 34.5 39.5 14 138 33.5 166.5 31 22.8-2 24.833-33.83 23-49.5-36.5-14.5-121.8-45.2-171-52zM842 1417c-38.8 30.4-22.5 74.67-9.5 93l140.5 3.5c7.167-4 20-20.9 14-56.5-7.5-44.5-96.5-78-145-40zM1114.5 1293c-46.4-6.8-12.67-111.83 10-163.5l49 71.5c-.33 33.5-12.6 98.8-59 92z" fill="#ABF"/><path d="M386 1459l-1 47.5H284c2.833-48.17 12.8-156.6 30-205 17.2-48.4 43.5-97.5 54.5-116 29.667-31.67 93.9-93.8 113.5-89 19.6 4.8 28.5 23.67 30.5 32.5l-16.5 22.5 7.5 21 9 19c-95.2 77.2-124 210.5-126.5 267.5z" fill="#001647" fill-opacity=".2"/><path d="M705.5 1163c27.2 82.4-120.333 42.67-197.5 12.5l23.5 29.5c29.333 8.33 95.4 25.7 125 28.5 37 3.5 71-12 71.5-33 .4-16.8-14.833-32-22.5-37.5zM659.5 1315.5c-19.2.4-34.667-6.5-40-10l6.5 17c6.5 2.33 27.7 7.3 60.5 8.5 32.8 1.2 37.667-26.83 36-41-12.833-6-35.4-15.5-23-5.5 15.5 12.5-16 30.5-40 31zM960.5 1463.5c-4-32.4-41.667-52.83-60-59H920c14.667 5.83 47.3 23.2 60.5 46 13.2 22.8 1.5 49.5-6 60h-22c4.333-2.17 12-14.6 8-47zM1143 1161c16 61.6-21.67 112.67-40 126.5 53.5 10.5 70.33-58.33 68.5-87L1143 1161z" fill="#001647" fill-opacity=".2"/><path d="M289.501 1512.5c-6-101.5 31-323.03 140.5-398 158.5-108.51 616.499-87 706.499 26 64.91 81.5 99.5 222.5 132.5 371M1084.5 1337c12.33 37 29.5 110.3 43.5 175.5m-646.499 0c.333-32.83 7.7-107.6 20.5-157" stroke="#000" stroke-width="20" stroke-linecap="round"/><ellipse cx="675.502" cy="1303.28" rx="53.591" ry="29" transform="rotate(-4.687 675.502 1303.28)" stroke="#000" stroke-width="20"/><path d="M515.271 1188.27c-36.061-24.71-9.368-73.42 39.746-60.07l145.257 41.58c16.768 4.8 32.505 18.71 28.297 35.64-5.969 24.01-33.117 28.75-56 27.53-67.132-3.59-121.239-19.97-157.3-44.68zM393 1490c0 27.06-10.969 49-24.5 49s-24.5-21.94-24.5-49 10.969-49 24.5-49 24.5 21.94 24.5 49zM1173 1198.09c0 35.54-15.89 101.53-57.73 93.09-54.77-11.04-11.86-107.12 7.51-159.18" stroke="#000" stroke-width="20"/><ellipse cx="906" cy="1473" rx="87" ry="71" stroke="#000" stroke-width="20"/></g><defs><clipPath id="prefix__clip0_53_28307"><path fill="#fff" d="M0 0h1500v1500H0z"/></clipPath></defs>
      <g clip-path="url(#clip0_497_1194)">
<path d="M379.667 654.812C432.345 471.574 618.472 401.981 699.114 390.653C740.985 382.718 849.655 375.215 949.364 408.675C980 418.956 1049.88 457.388 1091.92 499.818C1144.47 552.856 1272.97 732.052 1185.05 927.725C1097.12 1123.4 758.414 1092.29 612.749 1051.82C464.472 1010.63 314.48 881.563 379.667 654.812Z" fill="#AABBFF"/>
<path d="M449.293 747.204C454.734 531.068 585.306 432.345 649.911 410C432.292 459.565 365.296 655.455 364 747.204C377.99 984.871 584.496 1053.43 681 1058C601.498 1044.46 443.853 963.339 449.293 747.204Z" fill="#001647" fill-opacity="0.2"/>
<path d="M379.667 654.812C432.345 471.574 618.472 401.981 699.114 390.653C740.985 382.718 849.655 375.215 949.364 408.675C980 418.956 1049.88 457.388 1091.92 499.818C1144.47 552.856 1272.97 732.052 1185.05 927.725C1097.12 1123.4 758.414 1092.29 612.749 1051.82C464.472 1010.63 314.48 881.563 379.667 654.812Z" stroke="black" stroke-width="22" stroke-linecap="round"/>
</g>
<defs>
    <clipPath id="prefix__clip0_299_662"><path fill="#fff" d="M0 0h1500v1500H0z"/></clipPath>
</defs>
      <g clip-path="url(#clip0_624_3204)">
<path d="M876.086 925.246H970.499" stroke="black" stroke-width="22" stroke-linecap="round"/>
<path d="M865.708 768.06L844.448 768.047L821.695 768.027L792.828 768" stroke="black" stroke-width="22" stroke-linecap="round"/>
<path d="M850.019 773.927C852.061 777.245 853.087 781.09 852.968 784.985C852.85 788.88 851.593 792.655 849.352 795.844C847.112 799.032 843.986 801.494 840.361 802.925C836.737 804.357 832.772 804.695 828.958 803.897C825.143 803.1 821.646 801.202 818.898 798.439C816.15 795.676 814.273 792.168 813.497 788.349C812.721 784.53 813.081 780.567 814.533 776.951C815.985 773.334 818.464 770.223 821.665 768H844.419C846.675 769.567 848.582 771.585 850.019 773.927Z" fill="black" stroke="black" stroke-width="22" stroke-linecap="round"/>
<path d="M1033.71 768L1004.83 768.027L982.081 768.047L960.828 768.06" stroke="black" stroke-width="22" stroke-linecap="round"/>
<path d="M976.506 773.926C974.456 777.243 973.423 781.087 973.536 784.985C973.648 788.882 974.9 792.661 977.138 795.854C979.376 799.047 982.5 801.513 986.125 802.949C989.75 804.385 993.716 804.726 997.533 803.931C1001.35 803.136 1004.85 801.24 1007.6 798.476C1010.35 795.713 1012.23 792.203 1013.01 788.383C1013.78 784.562 1013.42 780.597 1011.97 776.979C1010.52 773.361 1008.04 770.248 1004.83 768.026H982.079C979.837 769.59 977.94 771.598 976.506 773.926Z" fill="black" stroke="black" stroke-width="22" stroke-linecap="round"/>
</g>
<defs>
<clipPath id="clip0_624_3204">
<rect width="1500" height="1500" fill="white"/>
</clipPath>
</defs>
      <g clip-path="url(#clip0_924_396)">
<ellipse cx="932" cy="915.5" rx="131" ry="69.5" fill="#AABBFF"/>
<path d="M820.569 923.549C820.28 896.513 841.822 874.289 868.854 873.737L973.808 871.592C1001.86 871.018 1024.91 893.608 1024.9 921.668C1024.89 949.203 1002.65 971.563 975.116 971.72L870.142 972.317C843.014 972.471 820.859 950.677 820.569 923.549Z" fill="#FFEB37"/>
<path d="M872.078 895.156L873.776 908.954C874.763 916.975 881.575 923 889.656 923H911.647C921.351 923 928.821 914.432 927.498 904.819L925.417 889.696C924.276 881.406 916.94 875.396 908.587 875.908L886.979 877.232C877.775 877.796 870.951 886.004 872.078 895.156Z" fill="#F56CDB"/>
<path d="M976 875V919.357L926.189 921L924 875H976Z" fill="#53B6F9"/>
<path d="M980.818 870L977 917.253L1025 920L1020.64 900.22L1000.45 881.538L980.818 870Z" fill="#8028F5"/>
<path d="M840.412 962.048L821 930.286L872.225 927L876 973L840.412 962.048Z" fill="#FF6247"/>
<path d="M927 969C927.185 956.952 927.444 931.762 927 927.381L978.111 923L982 969H927Z" fill="#FF9C07"/>
<path d="M982.165 924L980 968L1016.8 951.16L1026 924H982.165Z" fill="#99C4CB"/>
<path d="M869.644 878L874 922H845.689L825 914.938L832.078 889.407L869.644 878Z" fill="#A5F15C"/>
<path d="M823.859 924.756L1021.53 920.376M875.877 968.561C875.329 946.294 874.453 897.05 870.949 878.214M924.062 878.214C925.887 895.188 929.209 937.022 928.99 968.561M975.533 874.428C976.628 898.505 977.176 951.039 978.271 968.561M869.396 972.015L975.986 971.418C1004.17 971.26 1026.68 947.887 1025.77 919.717V919.717C1024.88 892.298 1002.11 870.692 974.682 871.252L868.112 873.43C841.079 873.983 819.535 896.207 819.825 923.245V923.245C820.115 950.372 842.268 972.167 869.396 972.015Z" stroke="black" stroke-width="20"/>
</g>
<defs>
<clipPath id="clip0_924_396">
<rect width="1500" height="1500" fill="white"/>
</clipPath>
</defs>
      <g clip-path="url(#clip0_771_459)">
<path d="M541.871 495.065L587.182 433.652L629.473 408.913L646.704 407.796L676.33 472.397L693.385 523.112C693.385 523.112 715.562 570.5 681.005 575.31C646.449 580.119 608.181 572.626 608.181 572.626L565.711 562.432L513.348 577.749C513.348 577.749 476.548 643.595 440.109 658.042C403.671 672.488 405.928 656.924 405.928 656.924L371.793 591.795L355.943 518.828C355.943 518.828 344.954 493.682 397.049 493.786C449.144 493.891 487.355 512.484 487.355 512.484L541.871 495.065Z" fill="#F56CDB"/>
<path d="M430.677 533.465C430.359 517.2 437.959 506.756 441.799 503.567L436.237 497.189L386.586 496.392L356 503.567L365.533 553.795L398.105 643.886L418.76 669L476.356 630.333L513.297 580.105L500.189 545.424L460.467 560.173C460.467 566.817 458.322 579.228 449.743 575.72C439.018 571.335 431.074 553.795 430.677 533.465Z" fill="#001647" fill-opacity="0.2"/>
<path d="M540.307 564.957C516.475 543.59 516.607 516.191 519.652 505.162L494.231 510.344L513.297 572.929L540.307 564.957Z" fill="#001647" fill-opacity="0.2"/>
<path d="M623.325 520.708C629.363 504.125 617.632 495.993 611.012 494C605.848 500.378 595.441 513.294 595.123 513.932C594.805 514.569 573.806 524.296 563.346 529.08C563.214 535.059 564.22 547.178 569.304 547.815C575.66 548.613 615.778 541.437 623.325 520.708Z" fill="#001647" fill-opacity="0.2"/>
<path d="M544.174 494.298L490.359 513.598L513.366 577.748L567.181 558.448L544.174 494.298Z" stroke="black" stroke-width="22" stroke-miterlimit="10"/>
<path d="M567.212 557.978C567.212 557.978 631.445 590.594 691.537 572.212C694.695 571.234 697.408 569.182 699.202 566.414C700.996 563.646 701.758 560.337 701.353 557.066C694.958 504.637 676.725 454.333 648.025 409.934L647.939 409.808C646.161 407.043 643.468 404.985 640.326 403.993C637.185 403.002 633.794 403.138 630.743 404.378C572.608 428.212 543.822 494.106 543.822 494.106" stroke="black" stroke-width="22" stroke-miterlimit="10"/>
<path d="M490.33 513.988C490.33 513.988 426.095 481.367 365.986 499.752C362.829 500.728 360.115 502.779 358.321 505.546C356.526 508.314 355.764 511.622 356.168 514.892V514.892C362.559 567.323 380.786 617.629 409.481 662.033L409.567 662.166C411.347 664.929 414.042 666.984 417.184 667.973C420.326 668.962 423.716 668.823 426.766 667.581C484.91 643.751 513.7 577.847 513.7 577.847" stroke="black" stroke-width="22" stroke-miterlimit="10"/>
<path d="M555.844 526.597C555.844 526.597 592.013 530.268 604.537 494.857" stroke="black" stroke-width="22" stroke-miterlimit="10" stroke-linecap="round"/>
<path d="M501.683 546.407C501.683 546.407 460.223 543.612 454.093 578.202" stroke="black" stroke-width="22" stroke-miterlimit="10" stroke-linecap="round"/>
<path d="M711.94 381.541L669.138 415.004L754.914 456.956C786.09 456.451 856.04 454.579 886.429 451.127C916.817 447.675 946.703 430.594 957.848 422.485L912.882 387.272L890.772 360.146L852.07 352.844L816.711 388.83L811.119 369.892L779.2 357.196L748.101 362.456L711.94 381.541Z" fill="#AABBFF"/>
<path d="M754.823 451.145C758.386 440.393 766.661 423.631 780.081 411.559M882.17 449.083C878.062 439.675 870.922 425.659 859.411 414.501M670.743 416.037C678.291 403.405 696.028 378.1 722.448 377.672C724.832 377.634 727.122 377.712 729.323 377.895M780.081 411.559C789.433 403.145 801.285 397.009 815.783 396.774C818.147 396.736 820.438 396.825 822.658 397.03M780.081 411.559C771.884 400.903 758.35 380.305 729.323 377.895M953.095 422.563C946.826 410.677 929.573 387.795 908.089 385.052M859.411 414.501C864.186 404.755 879.655 385.169 903.328 384.785C904.936 384.759 906.524 384.852 908.089 385.052M859.411 414.501C850.192 405.565 838.17 398.463 822.658 397.03M729.323 377.895C734.108 368.72 747.587 350.309 768.512 349.97C795.461 349.534 817.557 375.809 822.658 397.03M908.089 385.052C903.334 374.267 889.367 351.713 871.612 352C849.419 352.36 832.274 370.674 822.592 392.964" stroke="black" stroke-width="22" stroke-linecap="round"/>
</g>
<defs>
<clipPath id="clip0_771_459">
<rect width="1500" height="1500" fill="white"/>
</clipPath>
</defs>
      
    </g>
    </svg>