<svg
      xmlns="http://www.w3.org/2000/svg"
      preserveAspectRatio="xMidYMin meet"
      fill="none"
      viewBox="0 0 1500 1500"
    >
      <g>
      <path fill="url(#prefix__paint0_linear_53_30460)" d="M0 0h1500v1500H0z"/><defs><linearGradient id="prefix__paint0_linear_53_30460" x1="0" y1="0" x2="1500" y2="1500" gradientUnits="userSpaceOnUse">
<stop stop-color="#F1FFBA"/>
<stop offset="1" stop-color="#65DCBA"/>
</linearGradient></defs>
      <g clip-path="url(#clip0_491_637)">
<path d="M216 1200.5C231.5 1183.5 291 1148.9 405 1146.5C512.257 1144.24 544.125 1139.15 547.658 1136.47L548 1136C547.99 1136.15 547.88 1136.31 547.658 1136.47L465.5 1250.5L627.5 1261.5C689.833 1263.83 815.9 1268.6 821.5 1269C827.1 1269.4 974.5 1256.83 1047.5 1250.5L1003 1167.5L983.5 1146.5H1058L1180.5 1157L1263 1175.5L1287.5 1191L1299 1220.5V1250.5L1280 1282.5L1267 1297.5L1224 1512H306L258 1297.5L221 1269L216 1200.5Z" fill="#9E6740"/>
<path d="M538 1144L461 1250C404.265 1250 296.238 1229.08 237.86 1216.13L297.5 1238.5L491.5 1256.5L531 1260.5C527.667 1278 523 1318.6 531 1341C623.5 1347 826.1 1357.2 896.5 1350V1359C870.833 1371.5 763.2 1391.1 538 1369.5L558 1506.5H308.5L260 1301.5L224 1272L213.5 1207L222.608 1210.42L213.5 1193.5L260 1170L404 1151L538 1144Z" fill="#001647" fill-opacity="0.2"/>
<path d="M1049.5 1250L984.5 1144H1095L1278.5 1178.5L1295 1199.5L1207.5 1233L1049.5 1250Z" fill="#001647" fill-opacity="0.2"/>
<path d="M754.5 1010.5C640.5 1013.3 508 1174 456 1254C517.833 1254 668.8 1256.2 778 1265C887.2 1273.8 1004.17 1256 1049 1246C995 1161 897 1007 754.5 1010.5Z" fill="#AABBFF"/>
<path d="M465.191 1247C471.745 1236.61 476.52 1228.57 483.5 1219C530.102 1155.11 577.468 1101.29 629.142 1059.66C710.278 994.299 826.063 996.338 905.043 1064.29C954.742 1107.05 1006.7 1166.88 1050.56 1247M1296 1196C1296 1229.69 1045.8 1266 749.5 1266C455.163 1266 216.186 1230.17 213.032 1196.67M1296 1196C1297.74 1210.27 1297.34 1226 1296.19 1240.68C1293.99 1268.76 1273.16 1291.74 1245.55 1297.28C1229.5 1300.5 1211.77 1303.96 1194.5 1307.71M1296 1196C1296 1171.59 1164.61 1150.52 979.5 1140.77M213.032 1196.67C213.011 1196.45 213 1196.22 213 1196M213.032 1196.67C213.021 1196.44 213.01 1196.22 213 1196M213.032 1196.67C213.709 1210.75 215.758 1235.63 219.637 1257.74C223.282 1278.51 239.8 1293.46 260.327 1298.3C286.744 1304.54 321.455 1311.67 363 1318.67M213 1196C213 1170.52 350.375 1148.69 545.5 1139.56M254 1303L313.5 1520.5M1270.5 1287L1221 1520.5M363 1318.67L416 1520.5M363 1318.67C401.252 1325.11 445.298 1331.45 494 1336.86M494 1336.86L528 1520.5M494 1336.86C529.801 1340.85 568.119 1344.34 608.5 1347.02M608.5 1347.02L628.5 1520.5M608.5 1347.02C647.081 1349.58 687.546 1351.4 729.5 1352.2M729.5 1352.2C736.13 1352.32 742.797 1352.43 749.5 1352.5C786.752 1352.92 823.013 1352.23 858 1350.69M729.5 1352.2L737.5 1520.5M858 1350.69L856 1520.5M858 1350.69C899.261 1348.87 938.749 1345.86 976 1342.06M976 1342.06L962.5 1520.5M976 1342.06C1020.65 1337.51 1062.08 1331.83 1099.5 1325.71M1099.5 1325.71L1066 1520.5M1099.5 1325.71C1135.01 1319.91 1166.91 1313.71 1194.5 1307.71M1194.5 1307.71L1151 1520.5M283 1392.5C364.333 1416.33 579.6 1452 790 1452C1000.4 1452 1182.67 1416.33 1247.5 1392.5" stroke="black" stroke-width="22" stroke-linecap="round"/>
</g>
<defs>
<clipPath id="clip0_491_637">
<rect width="1500" height="1500" fill="white"/>
</clipPath>
</defs>
      <g clip-path="url(#clip0_497_1194)">
<path d="M379.667 654.812C432.345 471.574 618.472 401.981 699.114 390.653C740.985 382.718 849.655 375.215 949.364 408.675C980 418.956 1049.88 457.388 1091.92 499.818C1144.47 552.856 1272.97 732.052 1185.05 927.725C1097.12 1123.4 758.414 1092.29 612.749 1051.82C464.472 1010.63 314.48 881.563 379.667 654.812Z" fill="#AABBFF"/>
<path d="M449.293 747.204C454.734 531.068 585.306 432.345 649.911 410C432.292 459.565 365.296 655.455 364 747.204C377.99 984.871 584.496 1053.43 681 1058C601.498 1044.46 443.853 963.339 449.293 747.204Z" fill="#001647" fill-opacity="0.2"/>
<path d="M379.667 654.812C432.345 471.574 618.472 401.981 699.114 390.653C740.985 382.718 849.655 375.215 949.364 408.675C980 418.956 1049.88 457.388 1091.92 499.818C1144.47 552.856 1272.97 732.052 1185.05 927.725C1097.12 1123.4 758.414 1092.29 612.749 1051.82C464.472 1010.63 314.48 881.563 379.667 654.812Z" stroke="black" stroke-width="22" stroke-linecap="round"/>
</g>
<defs>
    <clipPath id="prefix__clip0_299_662"><path fill="#fff" d="M0 0h1500v1500H0z"/></clipPath>
</defs>
      <g clip-path="url(#clip0_624_3550)">
<path d="M860.753 778.254C855.989 772.147 849.895 767.208 842.935 763.81C835.975 760.413 828.332 758.647 820.587 758.647C812.842 758.647 805.198 760.413 798.238 763.81C791.278 767.208 785.184 772.147 780.42 778.254" stroke="black" stroke-width="22" stroke-miterlimit="10" stroke-linecap="round"/>
<path d="M870.881 910.959C896.594 937.099 946.448 937.099 972.168 910.959" stroke="black" stroke-width="22" stroke-miterlimit="10" stroke-linecap="round"/>
<path d="M1052.5 778.254C1047.74 772.147 1041.64 767.208 1034.68 763.81C1027.72 760.413 1020.08 758.647 1012.33 758.647C1004.59 758.647 996.946 760.413 989.985 763.81C983.025 767.208 976.931 772.147 972.167 778.254" stroke="black" stroke-width="22" stroke-miterlimit="10" stroke-linecap="round"/>
</g>
<defs>
<clipPath id="clip0_624_3550">
<rect width="1500" height="1500" fill="white"/>
</clipPath>
</defs>
      <g clip-path="url(#clip0_925_1372)">
<path d="M777.796 860C685.697 848.775 660.871 768.614 659.97 729.937C656.078 723.892 664.834 710.508 669.699 704.571L759.419 694.857L912.917 690L1139.92 698.635L1161 711.587L1157.22 758L1137.22 800.635L1113.44 838.952L1058.85 856.222L1022.64 849.206L962.101 828.159L920.484 813.587L863.192 842.19L777.796 860Z" fill="#53B6F9"/>
<path d="M690.196 699.224L763.942 693.424L860.722 851.244L833.96 864.946L794.601 869.089L690.196 699.224Z" fill="white" fill-opacity="0.9"/>
<path d="M781.871 695.304L801.049 695.304L884.919 828.487L873.319 837.602L781.871 695.304Z" fill="white" fill-opacity="0.9"/>
<path d="M958.357 690.074L1034.53 694.827L1119.67 818.835L1095.84 839.835L1062.61 854.919L958.357 690.074Z" fill="white" fill-opacity="0.9"/>
<path d="M1054 703.114L1068.91 703.114L1136.86 798.404L1127.74 811.662L1054 703.114Z" fill="white" fill-opacity="0.9"/>
<path d="M380.533 812.923C375.5 796.5 374.5 765 374.5 751L651.28 726.616L670.756 799.308L380.533 812.923Z" fill="white"/>
<path d="M1152.8 782.616L1167.95 724.462L1197.05 722.039C1201.5 741 1204.5 770 1204 784.5L1152.8 782.616Z" fill="white"/>
<path d="M501 809C493.8 789.4 494.333 761.833 495.5 750.5L373 754.5C370.2 772.1 377.166 802.167 379.5 815L501 809Z" fill="#001647" fill-opacity="0.2"/>
<path d="M653.87 725.984L365.663 749.005M669.935 798.066L372 811M1152.99 785.259L1210.28 779.417M1165.96 721.569L1206.5 721.569M781.167 861.953C682.013 851.636 657.16 770.149 656.503 719.768C656.395 711.426 662.733 704.694 671.004 703.598C763.882 691.282 967.052 676.004 1150.78 699.286C1158.48 700.261 1164.71 706.141 1164.73 713.901C1164.84 756.804 1137.12 837.115 1065.29 855.363C1017.69 867.452 975.216 843.757 948.769 820.361C936.589 809.587 917.535 808.228 904.418 817.837C856.527 852.92 804.134 862.105 781.167 861.953Z" stroke="black" stroke-width="22" stroke-linecap="round"/>
</g>
<defs>
<clipPath id="clip0_925_1372">
<rect width="1500" height="1500" fill="white"/>
</clipPath>
</defs>
      <g clip-path="url(#clip0_797_1935)">
<path d="M778.32 618.992C732.316 652.118 694.23 627.98 679.668 610.456C679.157 609.841 678.159 610.009 677.884 610.761C669.528 633.659 642.971 668.377 597.671 637.802C597.105 637.42 596.305 637.664 596.101 638.316C588.493 662.622 563.234 699.839 518.947 665.637C518.326 665.158 517.378 665.497 517.267 666.274C513.621 691.674 494.316 732.913 443.408 708.441C442.916 708.205 442.306 708.379 442.049 708.86C431.681 728.28 402.873 756.444 366.411 720.409C366.162 720.163 365.804 720.049 365.462 720.128C345.832 724.651 302.407 716.493 310.32 670.989C310.414 670.452 310.08 669.914 309.548 669.792C285.64 664.323 254.684 637.693 284.948 590.845C285.245 590.386 285.146 589.761 284.698 589.447C265.719 576.144 239.77 542.719 281.101 510.198C281.568 509.831 281.652 509.135 281.258 508.691C265.973 491.441 257.362 445.131 303.621 422.916C304.102 422.685 304.331 422.088 304.13 421.593C278.525 358.362 310.831 340.761 353.923 334.65C354.5 334.568 354.887 333.983 354.767 333.412C339.785 262.041 399.108 252.25 433.313 257.799C433.935 257.9 434.485 257.378 434.477 256.747C433.614 190.873 488.629 193.994 517.914 207.007C518.486 207.262 519.149 206.909 519.311 206.303C534.019 151.325 591.46 165.03 615.936 181.277C616.484 181.641 617.229 181.359 617.459 180.742C637.478 127.018 685.224 145.62 707.619 162.333C708.097 162.69 708.783 162.528 709.096 162.019C741.06 110.016 788.168 134.291 806.283 154.678C806.677 155.121 807.373 155.109 807.786 154.684C848.463 112.933 885.946 142.547 900.357 163.546C900.704 164.051 901.43 164.109 901.888 163.702C944.488 125.847 976.412 157.642 987.575 179.166C987.82 179.638 988.404 179.823 988.894 179.614C1034.73 160.09 1050.15 192.591 1052.37 212.628C1052.44 213.306 1053.18 213.711 1053.81 213.451C1099.59 194.592 1115.79 228.48 1118.38 248.933C1118.45 249.513 1119.02 249.901 1119.59 249.798C1170.35 240.711 1177.53 276.49 1174.69 296.774C1174.6 297.409 1175.14 297.963 1175.78 297.935C1222.29 295.882 1223.42 330.149 1217.87 348.801C1217.69 349.419 1218.15 350.052 1218.79 350.113C1265.88 354.579 1260.1 389.775 1250.91 407.714C1250.68 408.168 1250.84 408.73 1251.26 409.021C1293.6 438.395 1274.36 468.139 1258.73 479.96C1258.31 480.273 1258.22 480.859 1258.48 481.306C1281.04 519.674 1258.36 536.792 1244.61 544.854C1244.05 545.185 1243.96 545.975 1244.42 546.449C1277.86 581.608 1253.39 610.387 1232.24 617.268C1231.8 617.41 1231.52 617.843 1231.53 618.302C1233.35 668.841 1174.73 666.767 1160.03 643.385C1159.73 642.906 1159.08 642.756 1158.6 643.047C1113.14 670.393 1078.93 643.457 1066.69 624.601C1066.33 624.046 1065.54 623.996 1065.08 624.475C1029.07 662.135 988.776 640.543 972.247 624.25C971.834 623.842 971.159 623.886 970.769 624.316C938.22 660.212 898.794 639.713 882.265 624.229C881.842 623.832 881.169 623.893 880.789 624.331C847.162 663.14 799.805 637.39 779.595 619.045C779.241 618.723 778.708 618.713 778.32 618.992Z" fill="#F56CDB"/>
<path d="M778.32 618.992C732.316 652.118 694.23 627.98 679.668 610.456C679.157 609.841 678.159 610.009 677.884 610.761C669.528 633.659 642.971 668.377 597.671 637.802C597.105 637.42 596.305 637.664 596.101 638.316C588.493 662.622 563.234 699.839 518.947 665.637C518.326 665.158 517.378 665.497 517.267 666.274C513.621 691.674 494.316 732.913 443.408 708.441C442.916 708.205 442.306 708.379 442.049 708.86C431.681 728.28 402.873 756.444 366.411 720.409C366.162 720.163 365.804 720.049 365.462 720.128C345.832 724.651 302.407 716.493 310.32 670.989C310.414 670.452 310.08 669.914 309.548 669.792C285.64 664.323 254.684 637.693 284.948 590.845C285.245 590.386 285.146 589.761 284.698 589.447C265.719 576.144 239.77 542.719 281.101 510.198C281.568 509.831 281.652 509.135 281.258 508.691C265.973 491.441 257.362 445.131 303.621 422.916C304.102 422.685 304.331 422.088 304.13 421.593C278.525 358.362 310.831 340.761 353.923 334.65C354.5 334.568 354.887 333.983 354.767 333.412C339.785 262.041 399.108 252.25 433.313 257.799C433.935 257.9 434.485 257.378 434.477 256.747C433.614 190.873 488.629 193.994 517.914 207.007C518.486 207.262 519.149 206.909 519.311 206.303C534.019 151.325 591.46 165.03 615.936 181.277C616.484 181.641 617.229 181.359 617.459 180.742C637.478 127.018 685.224 145.62 707.619 162.333C708.097 162.69 708.783 162.528 709.096 162.019C741.06 110.016 788.168 134.291 806.283 154.678C806.677 155.121 807.373 155.109 807.786 154.684C848.463 112.933 885.946 142.547 900.357 163.546C900.704 164.051 901.43 164.109 901.888 163.702C944.488 125.847 976.412 157.642 987.575 179.166C987.82 179.638 988.404 179.823 988.894 179.614C1034.73 160.09 1050.15 192.591 1052.37 212.628C1052.44 213.306 1053.18 213.711 1053.81 213.451C1099.59 194.592 1115.79 228.48 1118.38 248.933C1118.45 249.513 1119.02 249.901 1119.59 249.798C1170.35 240.711 1177.53 276.49 1174.69 296.774C1174.6 297.409 1175.14 297.963 1175.78 297.935C1222.29 295.882 1223.42 330.149 1217.87 348.801C1217.69 349.419 1218.15 350.052 1218.79 350.113C1265.88 354.579 1260.1 389.775 1250.91 407.714C1250.68 408.168 1250.84 408.73 1251.26 409.021C1293.6 438.395 1274.36 468.139 1258.73 479.96C1258.31 480.273 1258.22 480.859 1258.48 481.306C1281.04 519.674 1258.36 536.792 1244.61 544.854C1244.05 545.185 1243.96 545.975 1244.42 546.449C1277.86 581.608 1253.39 610.387 1232.24 617.268C1231.8 617.41 1231.52 617.843 1231.53 618.302C1233.35 668.841 1174.73 666.767 1160.03 643.385C1159.73 642.906 1159.08 642.756 1158.6 643.047C1113.14 670.393 1078.93 643.457 1066.69 624.601C1066.33 624.046 1065.54 623.996 1065.08 624.475C1029.07 662.135 988.776 640.543 972.247 624.25C971.834 623.842 971.159 623.886 970.769 624.316C938.22 660.212 898.794 639.713 882.265 624.229C881.842 623.832 881.169 623.893 880.789 624.331C847.162 663.14 799.805 637.39 779.595 619.045C779.241 618.723 778.708 618.713 778.32 618.992Z" stroke="black" stroke-width="22" stroke-linecap="round"/>
<path d="M620.986 645.219C614.221 646.292 605.377 646.031 596.827 643.677L586.5 660L566.932 682.993C566.67 683.3 566.25 683.42 565.865 683.297L529.483 671.655C529.179 671.557 528.848 671.611 528.59 671.798L512.5 683.5L473.344 715.717C473.125 715.897 472.84 715.976 472.56 715.934L443.499 711.575C443.185 711.528 442.868 711.632 442.643 711.857L422.254 732.246C422.09 732.41 421.874 732.512 421.643 732.535L391.352 735.466C391.124 735.488 390.896 735.431 390.705 735.305L366.157 719.103C366.053 719.035 365.938 718.987 365.817 718.96L322.49 709.606C322.182 709.539 321.923 709.331 321.792 709.044L306.037 674.581C306.012 674.527 305.983 674.475 305.949 674.427L273.273 627.393C273.1 627.145 273.05 626.831 273.135 626.541L282.871 593.44C282.953 593.161 282.909 592.859 282.751 592.615L261.16 559.248C261.056 559.086 261 558.897 261 558.705V528.473C261 528.174 261.134 527.89 261.366 527.7L280.066 512.356C280.336 512.135 280.47 511.789 280.422 511.444L273.057 458.908C273.021 458.646 273.088 458.382 273.246 458.17L302.261 419.321C302.414 419.115 302.483 418.858 302.452 418.603L296.073 365.603C296.028 365.232 296.193 364.868 296.501 364.658L336.932 337.047C336.977 337.016 337.02 336.981 337.06 336.943L348.81 325.682C348.934 325.563 349.026 325.413 349.076 325.248L359.436 290.713C359.478 290.573 359.551 290.443 359.648 290.334L380.275 267.252C380.421 267.089 380.617 266.978 380.832 266.936L431.689 257.156C432.16 257.065 432.5 256.653 432.5 256.174V240.36C432.5 240.127 432.581 239.902 432.729 239.723L463.2 202.863C463.39 202.633 463.673 202.5 463.971 202.5H516.621C516.865 202.5 517.101 202.411 517.284 202.248L556.133 167.825C556.365 167.62 556.678 167.533 556.981 167.591L614.54 178.413C614.831 178.468 615.132 178.391 615.361 178.202L656.586 144.178C656.844 143.965 657.193 143.895 657.514 143.993L700.071 156.972C710.689 138.773 730.764 134.451 749.613 136.447L764.693 127.48C765.147 127.21 765.732 127.34 766.03 127.775L774.989 140.892C775.559 141.727 774.664 142.818 773.726 142.443C766.631 139.602 758.25 137.361 749.613 136.447L710.38 159.774C710.138 159.918 709.846 159.953 709.577 159.871L700.071 156.972C696.874 162.451 694.534 169.189 693.343 177.391C692.167 185.491 684.959 191.879 676.775 191.729C645.377 191.153 606.18 204.072 610.724 253.904C611.417 261.498 606.443 268.723 598.986 270.318C565.254 277.532 542.435 294.978 558.009 342.104C560.214 348.779 557.262 356.127 551.416 360.031C523.521 378.656 523.528 407.868 531.92 426.637C535.118 433.79 534.243 443.005 528.95 448.782C507.316 472.397 518.942 495.408 533.299 509.37C538.474 514.403 540.031 522.447 536.842 528.923C520.715 561.668 537.504 582.722 556.295 591.666C562.735 594.731 567.121 601.466 567.364 608.594C568.067 629.222 582.006 639.595 596.827 643.677L601.55 636.212C601.81 635.801 602.329 635.636 602.778 635.823L621.148 643.451C622.041 643.822 621.942 645.067 620.986 645.219Z" fill="#001647" fill-opacity="0.2"/>
</g>
<defs>
<clipPath id="clip0_797_1935">
<rect width="1500" height="1500" fill="white"/>
</clipPath>
</defs>
      
    </g>
    </svg>