<svg
      xmlns="http://www.w3.org/2000/svg"
      preserveAspectRatio="xMidYMin meet"
      fill="none"
      viewBox="0 0 1500 1500"
    >
      <g>
      <path fill="url(#prefix__paint0_linear_53_28788)" d="M0 0h1500v1500H0z"/><defs><linearGradient id="prefix__paint0_linear_53_28788" x1="0" y1="0" x2="1500" y2="1500" gradientUnits="userSpaceOnUse">
<stop stop-color="#DBE4E4"/>
<stop offset="1" stop-color="#A7BDBD"/>
</linearGradient></defs>
      <g clip-path="url(#clip0_481_188)">
<path d="M822.5 1233.5L646 1049.5L588 1087L661 1162.5C706.5 1217.17 798.2 1327.5 801 1331.5C803.8 1335.5 879.167 1449.83 916.5 1506.5H996L872 1300.5L956.5 1121.5L904 1065.5L822.5 1233.5Z" fill="white"/>
<path d="M416.5 1343L353.5 1506H915.5L833.5 1370.5L593 1094.5L487.5 1206.5L416.5 1343Z" fill="#FF9C07"/>
<path d="M936 1395.5L996.5 1506H1140L1121 1432.5L1096 1349.5L1050.5 1256.5L996.5 1167L959 1125L869.5 1297L936 1395.5Z" fill="#FF9C07"/>
<path d="M416.5 1343L353.5 1506H915.5L833.5 1370.5L593 1094.5L487.5 1206.5L416.5 1343Z" stroke="black"/>
<path d="M936 1395.5L996.5 1506H1140L1121 1432.5L1096 1349.5L1050.5 1256.5L996.5 1167L959 1125L869.5 1297L936 1395.5Z" stroke="black"/>
<path d="M820 1233.5L647.5 1052C665.333 1040.5 715 1016.9 771 1014.5C827 1012.1 880 1045.17 899.5 1062L820 1233.5Z" fill="#AABBFF"/>
<path d="M409.87 1339.62C462.691 1207.98 569.086 1113.24 605.384 1082.33L674 1033.5L749.5 1019.5C699.204 1046.47 656.397 1082.67 620.155 1123.5L641 1146.5L697 1200L769.5 1290.5L871.5 1426.5L914.5 1511H889.5C862.667 1465 786.9 1356.6 730.5 1287C674.1 1217.4 622.589 1160.22 605.384 1140.83C498.462 1271.37 453.613 1440.5 443.159 1511H353.699C350.414 1508.73 357.049 1471.27 409.87 1339.62Z" fill="#001647" fill-opacity="0.2"/>
<path d="M353.5 1519.5C365.5 1454.33 414.5 1313.6 483.5 1219C530.101 1155.11 577.468 1101.29 629.141 1059.66C710.278 994.299 826.037 996.323 905.02 1064.27C1000.08 1146.05 1103.44 1290.29 1142.5 1519.5M1013.5 1319C1024.83 1354.33 1048.1 1443.9 1050.5 1519.5M667 1361.5C661.167 1392.33 650.3 1467.1 653.5 1519.5M592 1093.5C677.5 1177.33 857.5 1384.5 921.5 1516.5M870.895 1302C924.689 1373.66 972.467 1449.01 998.5 1516.5M870.895 1302C892.264 1267.83 939 1185 959 1119M870.895 1302C854.413 1280.04 837.366 1258.43 820.206 1237.5M820.206 1237.5C842.304 1198 890.5 1112.6 898.5 1067M820.206 1237.5C756.694 1160.02 691.644 1091.84 648 1049.77" stroke="black" stroke-width="22" stroke-linecap="round"/>
</g>
<defs>
<clipPath id="clip0_481_188">
<rect width="1500" height="1500" fill="white"/>
</clipPath>
</defs>
      <g clip-path="url(#clip0_497_1194)">
<path d="M379.667 654.812C432.345 471.574 618.472 401.981 699.114 390.653C740.985 382.718 849.655 375.215 949.364 408.675C980 418.956 1049.88 457.388 1091.92 499.818C1144.47 552.856 1272.97 732.052 1185.05 927.725C1097.12 1123.4 758.414 1092.29 612.749 1051.82C464.472 1010.63 314.48 881.563 379.667 654.812Z" fill="#AABBFF"/>
<path d="M449.293 747.204C454.734 531.068 585.306 432.345 649.911 410C432.292 459.565 365.296 655.455 364 747.204C377.99 984.871 584.496 1053.43 681 1058C601.498 1044.46 443.853 963.339 449.293 747.204Z" fill="#001647" fill-opacity="0.2"/>
<path d="M379.667 654.812C432.345 471.574 618.472 401.981 699.114 390.653C740.985 382.718 849.655 375.215 949.364 408.675C980 418.956 1049.88 457.388 1091.92 499.818C1144.47 552.856 1272.97 732.052 1185.05 927.725C1097.12 1123.4 758.414 1092.29 612.749 1051.82C464.472 1010.63 314.48 881.563 379.667 654.812Z" stroke="black" stroke-width="22" stroke-linecap="round"/>
</g>
<defs>
    <clipPath id="prefix__clip0_299_662"><path fill="#fff" d="M0 0h1500v1500H0z"/></clipPath>
</defs>
      <g clip-path="url(#clip0_624_3204)">
<path d="M876.086 925.246H970.499" stroke="black" stroke-width="22" stroke-linecap="round"/>
<path d="M865.708 768.06L844.448 768.047L821.695 768.027L792.828 768" stroke="black" stroke-width="22" stroke-linecap="round"/>
<path d="M850.019 773.927C852.061 777.245 853.087 781.09 852.968 784.985C852.85 788.88 851.593 792.655 849.352 795.844C847.112 799.032 843.986 801.494 840.361 802.925C836.737 804.357 832.772 804.695 828.958 803.897C825.143 803.1 821.646 801.202 818.898 798.439C816.15 795.676 814.273 792.168 813.497 788.349C812.721 784.53 813.081 780.567 814.533 776.951C815.985 773.334 818.464 770.223 821.665 768H844.419C846.675 769.567 848.582 771.585 850.019 773.927Z" fill="black" stroke="black" stroke-width="22" stroke-linecap="round"/>
<path d="M1033.71 768L1004.83 768.027L982.081 768.047L960.828 768.06" stroke="black" stroke-width="22" stroke-linecap="round"/>
<path d="M976.506 773.926C974.456 777.243 973.423 781.087 973.536 784.985C973.648 788.882 974.9 792.661 977.138 795.854C979.376 799.047 982.5 801.513 986.125 802.949C989.75 804.385 993.716 804.726 997.533 803.931C1001.35 803.136 1004.85 801.24 1007.6 798.476C1010.35 795.713 1012.23 792.203 1013.01 788.383C1013.78 784.562 1013.42 780.597 1011.97 776.979C1010.52 773.361 1008.04 770.248 1004.83 768.026H982.079C979.837 769.59 977.94 771.598 976.506 773.926Z" fill="black" stroke="black" stroke-width="22" stroke-linecap="round"/>
</g>
<defs>
<clipPath id="clip0_624_3204">
<rect width="1500" height="1500" fill="white"/>
</clipPath>
</defs>
      <g clip-path="url(#clip0_860_2641)">
<path d="M1085 495C1100.17 545.833 1060 659.5 900 722.5M363.5 756C447.5 798.5 624 827 745.5 782" stroke="black" stroke-width="22" stroke-linecap="round"/>
<path d="M824.517 836.985C752.228 836.158 742.628 769.813 747.489 723.407C748.399 714.714 754.784 707.644 763.327 705.794C809.814 695.728 856.527 701.675 883.131 708.164C890.817 710.038 896.608 716.244 897.779 724.068C904.127 766.46 896.835 837.812 824.517 836.985Z" fill="black" stroke="black" stroke-width="22" stroke-linecap="round"/>
</g>
<defs>
<clipPath id="clip0_860_2641">
<rect width="1500" height="1500" fill="white"/>
</clipPath>
</defs>
      <g clip-path="url(#clip0_499_1429)">
<path d="M376 874C356 831 352 775 353.5 755V739.5L479.5 706.5L646.5 687.5C701.833 680.167 835.3 652.7 926.5 601.5C1017.7 550.3 1130.83 580.167 1176 601.5C1201.2 643.1 1216.5 705.833 1221 732L1264.5 710L1335.5 644L1341 615.5C1327.83 605.667 1301.1 585.7 1299.5 584.5C1297.9 583.3 1248.5 559.333 1224 547.5L1136.5 495L1089 454C1081.5 442.667 1056.4 397.4 1016 307C975.6 216.6 873.5 214 827.5 224C771.167 234.5 635.3 261.6 542.5 286C449.7 310.4 413.5 348.834 407 365L388 489.5L382 584.5L353.5 649L239.5 806.5C247.5 813 267.6 830.8 284 850C300.4 869.2 352.167 874 376 874Z" fill="#FF6247"/>
<path d="M739.331 405.311C738.814 405.371 738.478 404.855 738.771 404.45L750.893 387.704C751.07 387.46 751.024 387.139 750.785 386.96L712.842 358.567C712.562 358.357 712.136 358.427 711.931 358.715L686.908 393.752C686.703 394.038 686.28 394.109 686 393.902L626.95 350.202C626.71 350.025 626.66 349.705 626.835 349.459L641.668 329.263C641.873 328.974 642.301 328.904 642.581 329.115L679.864 357.122C680.142 357.33 680.565 357.264 680.773 356.979L707.748 320.588C707.954 320.305 708.373 320.237 708.652 320.441L768.237 364.32C768.506 364.517 768.909 364.461 769.123 364.196L782.82 347.197C783.153 346.784 783.848 346.927 783.92 347.424L789.072 397.301C789.119 397.619 788.864 397.92 788.513 397.96L739.331 405.311Z" fill="white"/>
<path d="M492 583.5C467.6 608.3 438.167 685.167 426.5 718L354 749.5C349 784 364 854 378 876L355.5 878L295.5 856.5L245.5 818V802L347 665L378 597L393.5 482.5L403.5 368.5L443.5 329.5L522.5 299.5C495 389.5 498.833 497.667 506.5 543L579.5 512.5L749 467.5L947.5 440.5L1019 452.5L1018.54 455.235C1017.4 462.096 1011.09 466.826 1004.17 466.186C831.696 450.262 592.254 528.165 492 583.5Z" fill="#001647" fill-opacity="0.2"/>
<path d="M1220 730C1215 693 1193 634 1177.5 604.5L1220 610L1289.5 616L1345.5 619.5L1331.5 653.5L1294 695.5L1253 717.5L1220 730Z" fill="#001647" fill-opacity="0.2"/>
<path d="M452.773 571.28C563.116 511.305 821.5 413.5 1022.05 447.163M1215.09 734.367C1293.13 704.467 1331.11 656.617 1344.38 628.399C1347.53 621.702 1345.42 613.97 1339.66 609.317C1322.28 595.265 1287.7 571.775 1238.64 550.176C1193.41 530.262 1142.48 497.329 1108.33 473.151C1090.34 460.41 1078.37 441.255 1070.66 420.597C1047.56 358.685 1006.86 298.749 975.15 260.245C960.236 242.133 938.189 231.705 914.76 230.46C705.301 219.332 524.535 286.218 436.126 335.612C415.641 347.058 402.083 367.059 398.854 390.302C391.558 442.833 384.122 531.205 379.99 587.396C379.192 598.258 376.803 608.945 371.679 618.556C346.078 666.577 283.742 747.752 245.107 795.488C238.55 803.591 239.172 815.376 247.136 822.1C280.405 850.188 338.469 887.386 386 879.581M240.445 809.859C262.016 792.823 333.044 745.637 420.196 720.843C529.137 689.851 641.153 689.404 727.402 672.098C848.466 647.807 916.791 573.215 1047.32 572.025C1177.85 570.835 1187.03 629.968 1339.22 617.077" stroke="black" stroke-width="22" stroke-linecap="round"/>
</g>
<defs>
<clipPath id="clip0_499_1429">
<rect width="1500" height="1500" fill="white"/>
</clipPath>
</defs>
      
    </g>
    </svg>