<svg
      xmlns="http://www.w3.org/2000/svg"
      preserveAspectRatio="xMidYMin meet"
      fill="none"
      viewBox="0 0 1500 1500"
    >
      <g>
      <path fill="url(#prefix__paint0_linear_53_30462)" d="M0 0h1500v1500H0z"/><defs><linearGradient id="prefix__paint0_linear_53_30462" x1="0" y1="0" x2="1500" y2="1500" gradientUnits="userSpaceOnUse">
<stop stop-color="#FFC4F6"/>
<stop offset="1" stop-color="#FF3DB1"/>
</linearGradient></defs>
      <g clip-path="url(#clip0_481_100)">
<path d="M342.5 1476.5L351.5 1506C616.5 1509.33 1147.2 1513 1150 1501C1153.5 1486 1153 1471.5 1152 1466C1151 1460.5 1145.5 1446 1142.5 1433C1139.5 1420 1143 1424.5 1142.5 1415.5C1142.1 1408.3 1139.33 1400.17 1138 1397C1134.83 1394 1128.1 1386.4 1126.5 1380C1124.5 1372 1120.5 1350.5 1118.5 1341C1116.5 1331.5 1118 1334 1115 1327C1112 1320 1109.5 1320 1104.5 1311C1100.5 1303.8 1093.17 1287.67 1090 1280.5C1090.17 1274.67 1089.6 1261.3 1086 1254.5C1081.5 1246 1075.5 1242 1070 1235C1064.5 1228 1063.5 1230.5 1060.5 1226.5C1057.5 1222.5 1055.5 1212 1051 1198.5C1046.5 1185 1047 1191 1042 1183.5C1037 1176 1030 1168.5 1027 1164.5C1024 1160.5 1019.5 1144.5 1016.5 1139.5C1013.5 1134.5 1010 1132 1001.5 1122C993 1112 992 1113.5 983.5 1107C975 1100.5 973.5 1101 971 1098.5C968.5 1096 964.5 1089 957.5 1076C950.5 1063 951 1063.5 945.5 1058.5C940 1053.5 934.5 1048.5 931 1046.5C927.5 1044.5 913.5 1044.5 906 1043C898.5 1041.5 881 1029.5 875.5 1025C871.1 1021.4 858 1009.83 852 1004.5L793 1011L747 995C727.667 1001 688.4 1013 686 1013H663.5L619 1035L588.5 1058.5L566 1078L525.5 1113L497 1159L459.5 1202.5L432 1248.5C426.667 1262.5 415.6 1291.4 414 1295C412.4 1298.6 396.667 1318.5 389 1328L363.5 1384L360 1437L342.5 1476.5Z" fill="#9E6740"/>
<path d="M739.5 1003.5C526 1118 437.449 1414.63 423.16 1511H344C340.715 1508.73 337.05 1471.27 389.87 1339.62C442.691 1207.98 534.203 1104.91 570.5 1074L652 1017.5L739.5 1003.5Z" fill="#001647" fill-opacity="0.2"/>
<path fill-rule="evenodd" clip-rule="evenodd" d="M757.356 1107.02C762.316 1110.53 763.491 1117.39 759.983 1122.35L754.598 1129.97C746.409 1141.54 731.551 1146.3 718.162 1141.64L717.86 1141.53C713.821 1140.12 709.341 1141.62 706.958 1145.17C698.593 1157.65 682.565 1162.45 668.717 1156.64L662.744 1154.13C657.143 1151.78 654.509 1145.33 656.861 1139.73C659.213 1134.13 665.661 1131.49 671.262 1133.85L677.235 1136.35C681.382 1138.1 686.181 1136.66 688.686 1132.92C696.643 1121.06 711.604 1116.06 725.094 1120.75L725.396 1120.86C729.527 1122.3 734.112 1120.83 736.638 1117.26L742.023 1109.65C745.532 1104.69 752.397 1103.51 757.356 1107.02ZM992.607 1152.04C987.721 1151.08 982.785 1153.45 980.464 1157.85C973.267 1171.51 957.617 1178.43 942.669 1174.55L935.47 1172.68C929.589 1171.16 926.059 1165.15 927.584 1159.27C929.11 1153.39 935.113 1149.86 940.994 1151.39L948.193 1153.26C953.258 1154.57 958.561 1152.23 961 1147.6C967.849 1134.6 982.415 1127.63 996.836 1130.45C1002.8 1131.62 1006.68 1137.4 1005.52 1143.36C1004.35 1149.32 998.569 1153.21 992.607 1152.04ZM923.356 1246.02C928.316 1249.53 929.491 1256.39 925.983 1261.35L920.598 1268.97C912.409 1280.54 897.551 1285.3 884.162 1280.64L883.861 1280.53C879.821 1279.13 875.341 1280.62 872.958 1284.17C864.593 1296.65 848.565 1301.45 834.717 1295.64L828.744 1293.13C823.143 1290.78 820.509 1284.33 822.861 1278.73C825.213 1273.13 831.661 1270.49 837.262 1272.85L843.235 1275.35C847.382 1277.1 852.181 1275.66 854.686 1271.92C862.642 1260.06 877.603 1255.06 891.094 1259.75L891.396 1259.86C895.527 1261.3 900.112 1259.83 902.638 1256.26L908.023 1248.65C911.532 1243.69 918.397 1242.51 923.356 1246.02ZM645.695 1251.27C650.516 1254.97 651.429 1261.87 647.733 1266.69L642.333 1273.74C633.367 1285.44 618.018 1290.23 603.988 1285.72L602.952 1285.39C598.276 1283.89 593.163 1285.56 590.276 1289.53C581.375 1301.78 565.34 1306.51 551.22 1301.03L544.027 1298.24C538.363 1296.05 535.551 1289.68 537.746 1284.01C539.942 1278.35 546.314 1275.54 551.979 1277.73L559.171 1280.52C563.982 1282.38 569.445 1280.78 572.477 1276.6C580.951 1264.94 595.958 1260.03 609.684 1264.45L610.719 1264.78C615.897 1266.44 621.563 1264.67 624.872 1260.36L630.272 1253.31C633.968 1248.49 640.873 1247.57 645.695 1251.27ZM1125.35 1345.81C1126.19 1347.5 1127 1355 1126.19 1361.35C1116.8 1371.81 1102.28 1376.03 1088.74 1372.23L1073.03 1367.82C1067.18 1366.18 1063.77 1360.11 1065.41 1354.26C1067.05 1348.41 1073.13 1345 1078.98 1346.64L1094.69 1351.05C1100.16 1352.59 1106.02 1350.88 1109.82 1346.66C1113.87 1342.13 1120.83 1341.76 1125.35 1345.81ZM824.505 1389.13C829.405 1392.72 830.466 1399.6 826.876 1404.5L821.48 1411.87C812.96 1423.49 797.896 1428.27 784.234 1423.68L783.618 1423.47C779.303 1422.02 774.549 1423.59 771.952 1427.33C763.355 1439.71 747.33 1444.48 733.365 1438.82L726.87 1436.18C721.24 1433.9 718.526 1427.48 720.809 1421.85C723.092 1416.22 729.506 1413.51 735.136 1415.79L741.631 1418.43C746.065 1420.23 751.153 1418.71 753.882 1414.78C762.062 1403 777.037 1398.05 790.628 1402.62L791.244 1402.82C795.826 1404.36 800.877 1402.76 803.734 1398.86L809.13 1391.5C812.721 1386.6 819.605 1385.54 824.505 1389.13ZM542.406 1414.06C547.346 1417.59 548.483 1424.46 544.947 1429.4L539.558 1436.93C531.259 1448.52 516.333 1453.29 502.853 1448.65L502.447 1448.51C498.315 1447.09 493.743 1448.61 491.289 1452.23C482.847 1464.67 466.821 1469.46 452.934 1463.7L446.787 1461.15C441.175 1458.82 438.514 1452.38 440.843 1446.77C443.172 1441.16 449.608 1438.5 455.219 1440.83L461.366 1443.38C465.609 1445.14 470.505 1443.68 473.085 1439.87C481.116 1428.04 496.081 1423.05 509.605 1427.71L510.011 1427.85C514.293 1429.32 519.034 1427.81 521.669 1424.13L527.059 1416.6C530.595 1411.66 537.467 1410.52 542.406 1414.06ZM1042.41 1451.06C1047.35 1454.59 1048.48 1461.46 1044.95 1466.4L1039.56 1473.93C1031.26 1485.52 1016.33 1490.29 1002.85 1485.65L1002.45 1485.51C998.315 1484.09 993.743 1485.61 991.289 1489.23C982.847 1501.67 966.821 1506.46 952.934 1500.7L946.787 1498.15C941.175 1495.82 938.514 1489.38 940.843 1483.77C943.172 1478.16 949.608 1475.5 955.219 1477.83L961.366 1480.38C965.609 1482.14 970.505 1480.68 973.085 1476.87C981.116 1465.04 996.081 1460.05 1009.6 1464.71L1010.01 1464.85C1014.29 1466.32 1019.03 1464.81 1021.67 1461.13L1027.06 1453.6C1030.6 1448.66 1037.47 1447.52 1042.41 1451.06Z" fill="#001647" fill-opacity="0.2"/>
<path d="M354.847 1509.61C346.122 1496.93 332.914 1472.31 355.528 1447.41C362.758 1439.45 365.228 1427.68 362.663 1417.23C359.783 1405.51 360.364 1391.68 370.623 1380.53C379.745 1370.62 385.291 1354.5 385.942 1341.04C386.384 1331.91 390.312 1322.29 400.414 1314.37C411.247 1305.87 417.887 1289.43 418.513 1275.68C419.033 1264.25 424.175 1252.25 438.04 1244.09C449.969 1237.07 457.932 1221.91 458.354 1208.08C458.699 1196.76 463.435 1185.18 477.362 1177.85C490.381 1171.01 500.652 1153.81 504.747 1139.68C508.168 1127.88 517.458 1116.84 535.681 1111.76C547.739 1108.4 557.129 1097.03 560.458 1084.97C564.144 1071.61 574.041 1058.89 595.703 1055.95C606.503 1054.48 616.08 1046.81 621.298 1037.24C629.611 1022 647.16 1008.54 679.538 1016.24C688.493 1018.36 698.06 1015.41 705.123 1009.5C720.965 996.263 748.114 986.273 781.576 1006.5C788.602 1010.74 797.368 1011.36 804.983 1008.29C828.181 998.941 862.348 995.487 881.83 1027.23C887.255 1036.06 897.252 1041.75 907.619 1041.54C927.722 1041.14 950.938 1048.02 957.195 1074.3C959.906 1085.68 968.831 1096.33 979.552 1101.03C993.337 1107.07 1007.52 1118.48 1010.54 1135.19C1012.94 1148.53 1020.5 1163.49 1032.33 1170.1C1044 1176.63 1053.58 1187.32 1053.28 1203.67C1053.04 1217.01 1059.76 1231.5 1070.99 1238.71C1082.21 1245.93 1091.05 1257.3 1089.38 1273.98C1088.04 1287.41 1094.11 1302.66 1104.47 1311.32C1112.94 1318.41 1118.97 1328.4 1117.21 1341.27C1115.3 1355.19 1119.62 1371.93 1129.82 1381.59C1138.57 1389.87 1144.26 1401.3 1140.52 1415.93C1137.12 1429.26 1140.71 1446.7 1147.93 1458.42C1156.32 1472.06 1158.19 1491.47 1139.21 1512M1013.5 1319C1024.83 1354.33 1048.1 1443.9 1050.5 1519.5M667 1361.5C661.166 1392.33 650.3 1467.1 653.5 1519.5M832 1269.99L837.973 1272.5C846.971 1276.27 857.384 1273.15 862.819 1265.05C867.989 1257.34 877.709 1254.09 886.474 1257.14L886.776 1257.25C895.536 1260.3 905.257 1257.18 910.615 1249.61L916 1242M666 1130.99L671.973 1133.5C680.971 1137.27 691.384 1134.15 696.819 1126.05C701.989 1118.34 711.709 1115.09 720.474 1118.14L720.776 1118.25C729.536 1121.3 739.257 1118.18 744.615 1110.61L750 1103M950 1474.99L956.147 1477.54C965.212 1481.3 975.673 1478.17 981.184 1470.05C986.427 1462.32 996.195 1459.07 1005.02 1462.11L1005.43 1462.25C1014.31 1465.3 1024.14 1462.16 1029.61 1454.53L1035 1447M730 1412.99L736.495 1415.62C745.695 1419.35 756.251 1416.21 761.914 1408.06C767.302 1400.3 777.167 1397.03 786.121 1400.04L786.736 1400.25C795.858 1403.32 805.916 1400.13 811.604 1392.36L817 1385M450 1437.99L456.147 1440.54C465.212 1444.3 475.673 1441.17 481.184 1433.05C486.427 1425.32 496.195 1422.07 505.023 1425.11L505.429 1425.25C514.31 1428.3 524.143 1425.16 529.611 1417.53L535 1410M547 1274.99L554.192 1277.78C563.658 1281.44 574.407 1278.28 580.374 1270.07C586.054 1262.25 596.114 1258.96 605.315 1261.92L606.35 1262.25C615.955 1265.34 626.462 1262.05 632.599 1254.05L638 1247M937.229 1149.03L944.428 1150.9C954.435 1153.5 964.911 1148.87 969.729 1139.72C974.314 1131.02 984.065 1126.35 993.719 1128.24L1008.17 1131.07M1075 1344.23L1090.71 1348.64C1100.22 1351.31 1110.41 1348.35 1117 1341" stroke="black" stroke-width="22" stroke-linecap="round"/>
</g>
<defs>
<clipPath id="clip0_481_100">
<rect width="1500" height="1500" fill="white"/>
</clipPath>
</defs>
      <g clip-path="url(#clip0_497_1194)">
<path d="M379.667 654.812C432.345 471.574 618.472 401.981 699.114 390.653C740.985 382.718 849.655 375.215 949.364 408.675C980 418.956 1049.88 457.388 1091.92 499.818C1144.47 552.856 1272.97 732.052 1185.05 927.725C1097.12 1123.4 758.414 1092.29 612.749 1051.82C464.472 1010.63 314.48 881.563 379.667 654.812Z" fill="#AABBFF"/>
<path d="M449.293 747.204C454.734 531.068 585.306 432.345 649.911 410C432.292 459.565 365.296 655.455 364 747.204C377.99 984.871 584.496 1053.43 681 1058C601.498 1044.46 443.853 963.339 449.293 747.204Z" fill="#001647" fill-opacity="0.2"/>
<path d="M379.667 654.812C432.345 471.574 618.472 401.981 699.114 390.653C740.985 382.718 849.655 375.215 949.364 408.675C980 418.956 1049.88 457.388 1091.92 499.818C1144.47 552.856 1272.97 732.052 1185.05 927.725C1097.12 1123.4 758.414 1092.29 612.749 1051.82C464.472 1010.63 314.48 881.563 379.667 654.812Z" stroke="black" stroke-width="22" stroke-linecap="round"/>
</g>
<defs>
    <clipPath id="prefix__clip0_299_662"><path fill="#fff" d="M0 0h1500v1500H0z"/></clipPath>
</defs>
      <g clip-path="url(#clip0_624_3534)">
<path d="M780.422 771.992C785.186 778.098 791.28 783.038 798.24 786.435C805.2 789.833 812.843 791.599 820.589 791.599C828.334 791.599 835.977 789.833 842.937 786.435C849.897 783.038 855.991 778.098 860.755 771.992" stroke="black" stroke-width="22" stroke-miterlimit="10" stroke-linecap="round"/>
<path d="M972.16 771.992C976.925 778.098 983.018 783.038 989.979 786.435C996.939 789.833 1004.58 791.599 1012.33 791.599C1020.07 791.599 1027.71 789.833 1034.68 786.435C1041.64 783.038 1047.73 778.098 1052.49 771.992" stroke="black" stroke-width="22" stroke-miterlimit="10" stroke-linecap="round"/>
<path d="M922.5 961C929.521 961 936.385 958.918 942.223 955.017C948.061 951.116 952.611 945.572 955.298 939.085C957.985 932.598 958.688 925.461 957.318 918.574C955.948 911.688 952.567 905.362 947.602 900.398C942.638 895.433 936.312 892.052 929.426 890.682C922.539 889.312 915.402 890.015 908.915 892.702C902.428 895.389 896.884 899.939 892.983 905.777C889.082 911.615 887 918.479 887 925.5C887 934.915 890.74 943.945 897.398 950.602C904.055 957.26 913.085 961 922.5 961Z" fill="black" stroke="black" stroke-width="22" stroke-miterlimit="10" stroke-linecap="round"/>
</g>
<defs>
<clipPath id="clip0_624_3534">
<rect width="1500" height="1500" fill="white"/>
</clipPath>
</defs>
      <g clip-path="url(#clip0_925_1372)">
<path d="M777.796 860C685.697 848.775 660.871 768.614 659.97 729.937C656.078 723.892 664.834 710.508 669.699 704.571L759.419 694.857L912.917 690L1139.92 698.635L1161 711.587L1157.22 758L1137.22 800.635L1113.44 838.952L1058.85 856.222L1022.64 849.206L962.101 828.159L920.484 813.587L863.192 842.19L777.796 860Z" fill="#53B6F9"/>
<path d="M690.196 699.224L763.942 693.424L860.722 851.244L833.96 864.946L794.601 869.089L690.196 699.224Z" fill="white" fill-opacity="0.9"/>
<path d="M781.871 695.304L801.049 695.304L884.919 828.487L873.319 837.602L781.871 695.304Z" fill="white" fill-opacity="0.9"/>
<path d="M958.357 690.074L1034.53 694.827L1119.67 818.835L1095.84 839.835L1062.61 854.919L958.357 690.074Z" fill="white" fill-opacity="0.9"/>
<path d="M1054 703.114L1068.91 703.114L1136.86 798.404L1127.74 811.662L1054 703.114Z" fill="white" fill-opacity="0.9"/>
<path d="M380.533 812.923C375.5 796.5 374.5 765 374.5 751L651.28 726.616L670.756 799.308L380.533 812.923Z" fill="white"/>
<path d="M1152.8 782.616L1167.95 724.462L1197.05 722.039C1201.5 741 1204.5 770 1204 784.5L1152.8 782.616Z" fill="white"/>
<path d="M501 809C493.8 789.4 494.333 761.833 495.5 750.5L373 754.5C370.2 772.1 377.166 802.167 379.5 815L501 809Z" fill="#001647" fill-opacity="0.2"/>
<path d="M653.87 725.984L365.663 749.005M669.935 798.066L372 811M1152.99 785.259L1210.28 779.417M1165.96 721.569L1206.5 721.569M781.167 861.953C682.013 851.636 657.16 770.149 656.503 719.768C656.395 711.426 662.733 704.694 671.004 703.598C763.882 691.282 967.052 676.004 1150.78 699.286C1158.48 700.261 1164.71 706.141 1164.73 713.901C1164.84 756.804 1137.12 837.115 1065.29 855.363C1017.69 867.452 975.216 843.757 948.769 820.361C936.589 809.587 917.535 808.228 904.418 817.837C856.527 852.92 804.134 862.105 781.167 861.953Z" stroke="black" stroke-width="22" stroke-linecap="round"/>
</g>
<defs>
<clipPath id="clip0_925_1372">
<rect width="1500" height="1500" fill="white"/>
</clipPath>
</defs>
      <g clip-path="url(#clip0_602_2010)">
<path d="M576.5 421V536.5L684.5 543V489V444V403C684.5 381.5 683.5 382 681 370C678.5 358 676 358 674 355C672 352 669 355 662.5 355C656 355 651.5 336 650.5 333C649.7 330.6 648.167 299.333 647.5 284H617L611 346L585 355L576.5 421Z" fill="#4AEEB9"/>
<path d="M722 171V455L724 480H758.5V518.5H793.5V473.5H823V374V171H722Z" fill="#4AEEB9"/>
<path d="M863.5 173.5V549.5L970.5 539.5V173.5H863.5Z" fill="#FF6247"/>
<path d="M1070.5 495.5C1042.5 468.7 993.833 440.667 973 430.5L970.5 444L971.5 535.5L1038 526L1070.5 495.5Z" fill="#7985B4"/>
<path d="M858.5 400C853.7 398.4 839.833 397.333 834.5 397L829 470.5L796 479L789.5 506L772.5 523.5L755 506L747.5 479L720.5 470.5L715.5 399L688.5 403.5L685.5 547H863.5L858.5 400Z" fill="#7985B4"/>
<path d="M522.5 519L575.5 530.5V444C545.1 458 514 481 502 492.5L522.5 519Z" fill="#7985B4"/>
<path d="M971.089 535.31V186.21C971.087 181.912 969.378 177.79 966.339 174.751C963.299 171.712 959.178 170.003 954.879 170H879.089C875.881 170 872.745 170.95 870.076 172.729C867.406 174.509 865.323 177.039 864.089 180C863.278 181.97 862.86 184.08 862.859 186.21V552.31" stroke="black" stroke-width="20" stroke-miterlimit="10"/>
<path d="M736.25 478.5H752.37C752.845 478.499 753.316 478.591 753.756 478.772C754.196 478.952 754.595 479.218 754.932 479.553C755.27 479.888 755.537 480.287 755.72 480.725C755.904 481.164 755.999 481.635 756 482.11V504.75C756.002 509.05 757.713 513.173 760.754 516.213C763.796 519.252 767.92 520.96 772.22 520.96H776.11C778.241 520.963 780.351 520.545 782.321 519.732C784.29 518.919 786.08 517.725 787.589 516.22C789.097 514.715 790.293 512.927 791.11 510.959C791.927 508.991 792.348 506.881 792.35 504.75V482.15C792.35 481.19 792.731 480.269 793.41 479.59C794.089 478.911 795.01 478.53 795.97 478.53H812.11C814.239 478.531 816.347 478.113 818.315 477.299C820.282 476.485 822.069 475.291 823.575 473.785C825.08 472.28 826.274 470.492 827.089 468.525C827.903 466.558 828.321 464.449 828.32 462.32V186.21C828.321 184.081 827.903 181.972 827.089 180.005C826.274 178.038 825.08 176.25 823.575 174.745C822.069 173.239 820.282 172.045 818.315 171.231C816.347 170.417 814.239 169.999 812.11 170H736.25C731.96 170.016 727.851 171.73 724.823 174.768C721.794 177.806 720.092 181.92 720.09 186.21V462.29C720.092 466.58 721.794 470.694 724.823 473.732C727.851 476.77 731.96 478.484 736.25 478.5V478.5Z" stroke="black" stroke-width="20" stroke-miterlimit="10"/>
<path d="M577.22 534.34V367.58C577.222 363.282 578.931 359.16 581.97 356.121C585.01 353.081 589.131 351.373 593.43 351.37H606.59C607.55 351.37 608.471 350.989 609.149 350.31C609.828 349.631 610.21 348.71 610.21 347.75V297.47C610.21 293.17 611.917 289.046 614.957 286.004C617.997 282.963 622.12 281.253 626.42 281.25H635.34C639.637 281.258 643.757 282.965 646.8 286C648.309 287.504 649.505 289.292 650.32 291.261C651.135 293.229 651.553 295.339 651.55 297.47V347.76C651.55 348.72 651.931 349.641 652.61 350.32C653.289 350.999 654.21 351.38 655.17 351.38H669.25C673.547 351.385 677.667 353.095 680.706 356.134C683.745 359.172 685.454 363.292 685.46 367.59V546.76" stroke="black" stroke-width="20" stroke-miterlimit="10"/>
<path d="M632.5 369.396V284.61L618.5 280.11L610 347.11L577 350.61L580 535.5L682.5 540.11V520.11C651.5 520.11 632.5 517.5 612 514.61V381.825C612 378.625 614.511 375.988 617.708 375.832L626.792 375.389C629.989 375.233 632.5 372.596 632.5 369.396Z" fill="#001647" fill-opacity="0.2"/>
<path d="M776 460.61V517.11H756.5V477.61H724V173.61H756.5V448.61C756.5 451.924 759.186 454.61 762.5 454.61H770C773.314 454.61 776 457.297 776 460.61Z" fill="#001647" fill-opacity="0.2"/>
<path d="M900.5 517.61V173.61H866L862 546.11L970 536.61V510.61C947.5 515.5 927.5 514.5 900.5 517.61Z" fill="#001647" fill-opacity="0.2"/>
<path d="M509 472C445 524 631.18 552 782.127 552C933.073 552 1128.5 526.5 1062 473.5" stroke="black" stroke-width="21" stroke-miterlimit="10"/>
</g>
<defs>
<clipPath id="clip0_602_2010">
<rect width="1500" height="1500" fill="white"/>
</clipPath>
</defs>
      
    </g>
    </svg>