<svg
      xmlns="http://www.w3.org/2000/svg"
      preserveAspectRatio="xMidYMin meet"
      fill="none"
      viewBox="0 0 1500 1500"
    >
      <g>
      <path fill="url(#prefix__paint0_linear_53_30459)" d="M0 0h1500v1500H0z"/><defs><linearGradient id="prefix__paint0_linear_53_30459" x1="0" y1="0" x2="1500" y2="1500" gradientUnits="userSpaceOnUse">
<stop stop-color="#FFCB9F"/>
<stop offset="1" stop-color="#FF7F11"/>
</linearGradient></defs>
      <g clip-path="url(#clip0_491_619)">
<path d="M773 1011.5C868.667 1017.83 1075.7 1127 1138.5 1513H355C359.921 1495.03 366.125 1474.97 373.589 1453.5L307.5 1427.5L266.5 1377C256 1364.5 239.2 1321.9 256 1251.5C272.8 1181.1 242.667 1126.17 225.5 1107.5L253.5 1099C272.5 1107.33 309.9 1138.7 307.5 1197.5C304.5 1271 281.5 1324.5 335.5 1348C378.7 1366.8 401.662 1368.5 407.743 1367C477.87 1208.5 601.859 1025.22 773 1011.5Z" fill="#9E6740"/>
<path d="M749.5 1019.5C536 1134 457.448 1414.63 443.159 1511H353.699C351.701 1509.62 353.374 1495.21 366.884 1454.5L286 1417L243 1331L254 1240L261.5 1199V1151.5L221.5 1109L254 1097L286 1117L308.5 1171L312.5 1229L297.5 1287.5L316 1331L379.5 1360L400.388 1363.5C403.37 1355.91 406.527 1347.95 409.87 1339.62C462.691 1207.98 569.086 1113.24 605.384 1082.33L674 1033.5L749.5 1019.5Z" fill="#001647" fill-opacity="0.2"/>
<path d="M842.5 1261C742.1 1266.2 731.333 1430.83 738.5 1512.5H973C971.333 1426.5 942.9 1255.8 842.5 1261Z" fill="#72411F"/>
<path d="M163 1083.5C179 1124.7 227.667 1106.33 250 1092L269.5 1073.5L263.5 1031.5L241 988L198.5 957L191 978L140.5 963L105.5 978L140.5 1019L116 1035.5C125 1034.33 147 1042.3 163 1083.5Z" fill="#72411F"/>
<path d="M353.5 1519.5C365.5 1454.33 414.5 1313.6 483.5 1219C530.102 1155.11 577.468 1101.29 629.142 1059.66C710.278 994.299 826.037 996.324 905.021 1064.27C1000.08 1146.05 1103.44 1290.29 1142.5 1519.5M1013.5 1319C1024.83 1354.33 1048.1 1443.9 1050.5 1519.5M667 1361.5C661.167 1392.33 650.3 1467.1 653.5 1519.5M404 1364C365.167 1363.67 287.352 1342.63 300 1270C315.5 1181 314 1123 250.5 1094.5M213 1106.19C246.5 1124 279 1159.5 258.5 1237C234.887 1326.27 241 1419 371 1451.5M213 1106.19C222.129 1105.45 231.631 1103.06 241 1099C274.5 1084.5 275.169 1041.43 258.5 1007.5C244.884 979.781 212.348 955.845 192.634 947.654C191.916 947.356 191.17 947.976 191.298 948.743C194.267 966.525 193.499 975.609 190.537 980.239C190.254 980.682 189.647 980.762 189.209 980.47C140.186 947.763 113.943 958.199 98.8749 981.135C98.4667 981.757 98.8732 982.586 99.6102 982.683C122.868 985.739 140.868 1006.33 148.018 1017.86C148.445 1018.54 147.887 1019.41 147.077 1019.38C130 1021 115.858 1029.12 111.622 1034.17C111.257 1034.61 111.405 1035.24 111.9 1035.52C122.498 1041.52 142.466 1047.92 158.5 1079.5C168.451 1099.1 189.49 1108.1 213 1106.19ZM736.888 1512C729.925 1427.33 737.454 1258 843.104 1258C953.004 1258 974.459 1434 978 1522" stroke="black" stroke-width="22" stroke-linecap="round"/>
</g>
<defs>
<clipPath id="clip0_491_619">
<rect width="1500" height="1500" fill="white"/>
</clipPath>
</defs>
      <g clip-path="url(#clip0_497_1194)">
<path d="M379.667 654.812C432.345 471.574 618.472 401.981 699.114 390.653C740.985 382.718 849.655 375.215 949.364 408.675C980 418.956 1049.88 457.388 1091.92 499.818C1144.47 552.856 1272.97 732.052 1185.05 927.725C1097.12 1123.4 758.414 1092.29 612.749 1051.82C464.472 1010.63 314.48 881.563 379.667 654.812Z" fill="#AABBFF"/>
<path d="M449.293 747.204C454.734 531.068 585.306 432.345 649.911 410C432.292 459.565 365.296 655.455 364 747.204C377.99 984.871 584.496 1053.43 681 1058C601.498 1044.46 443.853 963.339 449.293 747.204Z" fill="#001647" fill-opacity="0.2"/>
<path d="M379.667 654.812C432.345 471.574 618.472 401.981 699.114 390.653C740.985 382.718 849.655 375.215 949.364 408.675C980 418.956 1049.88 457.388 1091.92 499.818C1144.47 552.856 1272.97 732.052 1185.05 927.725C1097.12 1123.4 758.414 1092.29 612.749 1051.82C464.472 1010.63 314.48 881.563 379.667 654.812Z" stroke="black" stroke-width="22" stroke-linecap="round"/>
</g>
<defs>
    <clipPath id="prefix__clip0_299_662"><path fill="#fff" d="M0 0h1500v1500H0z"/></clipPath>
</defs>
      <g clip-path="url(#clip0_624_3204)">
<path d="M876.086 925.246H970.499" stroke="black" stroke-width="22" stroke-linecap="round"/>
<path d="M865.708 768.06L844.448 768.047L821.695 768.027L792.828 768" stroke="black" stroke-width="22" stroke-linecap="round"/>
<path d="M850.019 773.927C852.061 777.245 853.087 781.09 852.968 784.985C852.85 788.88 851.593 792.655 849.352 795.844C847.112 799.032 843.986 801.494 840.361 802.925C836.737 804.357 832.772 804.695 828.958 803.897C825.143 803.1 821.646 801.202 818.898 798.439C816.15 795.676 814.273 792.168 813.497 788.349C812.721 784.53 813.081 780.567 814.533 776.951C815.985 773.334 818.464 770.223 821.665 768H844.419C846.675 769.567 848.582 771.585 850.019 773.927Z" fill="black" stroke="black" stroke-width="22" stroke-linecap="round"/>
<path d="M1033.71 768L1004.83 768.027L982.081 768.047L960.828 768.06" stroke="black" stroke-width="22" stroke-linecap="round"/>
<path d="M976.506 773.926C974.456 777.243 973.423 781.087 973.536 784.985C973.648 788.882 974.9 792.661 977.138 795.854C979.376 799.047 982.5 801.513 986.125 802.949C989.75 804.385 993.716 804.726 997.533 803.931C1001.35 803.136 1004.85 801.24 1007.6 798.476C1010.35 795.713 1012.23 792.203 1013.01 788.383C1013.78 784.562 1013.42 780.597 1011.97 776.979C1010.52 773.361 1008.04 770.248 1004.83 768.026H982.079C979.837 769.59 977.94 771.598 976.506 773.926Z" fill="black" stroke="black" stroke-width="22" stroke-linecap="round"/>
</g>
<defs>
<clipPath id="clip0_624_3204">
<rect width="1500" height="1500" fill="white"/>
</clipPath>
</defs>
      <g clip-path="url(#clip0_924_758)">
<path d="M821.495 847C840.486 847.001 858.799 839.939 872.871 827.186C886.943 814.433 895.769 796.902 897.631 778.002C899.493 759.103 894.26 740.186 882.947 724.932C871.635 709.678 855.053 699.176 836.427 695.471C817.801 691.765 798.462 695.12 782.173 704.883C765.883 714.646 753.808 730.119 748.295 748.292C742.781 766.465 744.225 786.039 752.344 803.207C760.464 820.375 774.679 833.909 792.224 841.177C801.504 845.02 811.45 846.999 821.495 847Z" fill="white" fill-opacity="0.5"/>
<path d="M1012.49 852C1031.98 852.001 1050.77 844.477 1065.21 830.891C1079.65 817.304 1088.71 798.627 1090.62 778.493C1092.53 758.358 1087.16 738.205 1075.55 721.954C1063.95 705.702 1046.93 694.515 1027.82 690.567C1008.7 686.619 988.86 690.193 972.145 700.594C955.429 710.995 943.038 727.479 937.381 746.84C931.723 766.201 933.205 787.055 941.536 805.345C949.868 823.635 964.455 838.053 982.459 845.796C991.982 849.891 1002.19 851.999 1012.49 852Z" fill="white" fill-opacity="0.5"/>
<path d="M954.529 715.266C954.529 715.266 954.033 698.956 989.971 694.485L1055.29 830.825C1055.29 830.825 1042.69 845.543 1016.43 844.719L954.529 715.266Z" fill="white" fill-opacity="0.5"/>
<path d="M1002.09 701.909C1002.09 701.909 998.763 704.646 1011.14 696.723L1069.22 815.049C1069.22 815.049 1073 819.935 1062.94 822.012L1002.09 701.909Z" fill="white" fill-opacity="0.5"/>
<path d="M763.529 715.266C763.529 715.266 763.033 698.956 798.971 694.485L864.291 830.825C864.291 830.825 851.694 845.543 825.432 844.719L763.529 715.266Z" fill="white" fill-opacity="0.5"/>
<path d="M811.088 701.909C811.088 701.909 807.763 704.646 820.138 696.723L878.219 815.049C878.219 815.049 881.997 819.935 871.937 822.012L811.088 701.909Z" fill="white" fill-opacity="0.5"/>
<path d="M1012.53 850C1031.16 849.993 1049.2 843.527 1063.59 831.706C1077.99 819.884 1087.84 803.437 1091.46 785.169C1095.09 766.9 1092.26 747.939 1083.48 731.518C1074.69 715.096 1060.48 702.23 1043.27 695.112C1026.06 687.993 1006.91 687.063 989.089 692.479C971.269 697.896 955.878 709.324 945.54 724.816C935.202 740.309 930.556 758.907 932.393 777.441C934.23 795.975 942.437 813.299 955.616 826.46C970.717 841.54 991.189 850.007 1012.53 850V850Z" stroke="black" stroke-width="20" stroke-miterlimit="10"/>
<path d="M821.494 850C841.479 850.001 860.749 842.569 875.557 829.15C890.365 815.73 899.652 797.282 901.612 777.395C903.572 757.507 898.064 737.601 886.16 721.549C874.256 705.497 856.807 694.447 837.207 690.548C817.608 686.648 797.258 690.179 780.117 700.452C762.975 710.725 750.268 727.007 744.467 746.131C738.665 765.254 740.184 785.852 748.729 803.917C757.273 821.983 772.231 836.225 790.694 843.872C800.459 847.917 810.925 849.999 821.494 850Z" stroke="black" stroke-width="20" stroke-miterlimit="10"/>
<path d="M582.499 804.5C582.499 810.023 586.976 814.5 592.499 814.5C598.022 814.5 602.499 810.023 602.499 804.5H582.499ZM622.499 770L622.499 780L622.499 770ZM741.333 760L622.499 760L622.499 780L741.333 780L741.333 760ZM582.499 800V804.5H602.499V800H582.499ZM622.499 760C600.408 760 582.499 777.908 582.499 800H602.499C602.499 788.954 611.453 780 622.499 780L622.499 760Z" fill="black"/>
<path d="M894.386 769.667H939.5" stroke="black" stroke-width="20" stroke-miterlimit="10"/>
</g>
<defs>
<clipPath id="clip0_924_758">
<rect width="1500" height="1500" fill="white"/>
</clipPath>
</defs>
      <path d="M1004 728.5C860.4 737.3 638.833 681.5 546 652.5L816 605.5H966C1021.2 594.7 1143.67 619 1198 632.5C1220.5 644.334 1265.7 671.6 1266.5 686C1267.5 704 1183.5 717.5 1004 728.5Z" fill="#265CC2"/>
<path d="M316 543.5L352.5 610.5L519.499 583.5L751.999 546.5L1013 542.5L1183.5 568L1219.5 468.5C1239.67 433.5 1238.3 362.3 1071.5 317.5C904.699 272.7 708.333 302.167 630.999 322.5C583.166 343 468.8 394.3 394 435.5C319.2 476.7 310.833 521.334 316 543.5Z" fill="#265CC2"/>
<path d="M356.5 608L368 683.5L517.5 647.5L721 623L909 607.5H1086.5L1194 632.5L1188.5 571.5L1117 553.5L958.5 538L618 566L356.5 608Z" fill="#FFBF44"/>
<path d="M580.501 573.5C568.901 596.3 567.667 629.667 568.501 643.5L369.5 684L357.5 612.5L580.501 573.5Z" fill="#001647" fill-opacity="0.2"/>
<path d="M695 301C632.6 340.6 618.667 494.833 619.5 567L350 607.5L318.5 556V503.5L346.5 456.5L428.5 397L603.5 321.5L695 301Z" fill="#001647" fill-opacity="0.2"/>
<path d="M357 612C354.6 636 364.667 668.334 368.5 681.5C413.37 671.347 470.05 659.873 533 648.922M357 612C557.1 568.838 1002.51 500.275 1183.3 572.283C1186.04 573.372 1188.02 575.607 1188.79 578.447C1192.39 591.621 1197.42 616.496 1196 636M357 612C330.667 589.167 289.9 538.9 337.5 480.5C397 407.5 636.999 282 888.999 293C1141 304 1227 367.5 1224 443C1221.6 503.4 1193 548.833 1179 569M1196 636C1064.06 577.22 758.351 609.72 533 648.922M1196 636C1217.76 645.41 1235.12 656.965 1248.06 667.676C1264.29 681.115 1259.01 702.632 1238.43 707.12C1194.6 716.677 1111.42 724.968 974.5 723C779.7 720.2 599 674.782 533 648.922" stroke="black" stroke-width="22" stroke-linecap="round"/>
<path d="M947.863 362.822C949.397 357.617 959.095 357.813 960.747 363.083L970.962 395.671C971.687 397.986 974.374 399.667 977.448 399.73L1012.92 400.448C1018.8 400.567 1021.82 406.081 1017.72 409.209L985.96 433.434C984.372 434.645 983.735 436.421 984.272 438.135L996.016 475.603C997.592 480.63 989.664 483.855 984.927 480.115L960.107 460.515C957.495 458.453 953.271 458.367 950.705 460.325L926.316 478.928C921.662 482.478 913.657 478.93 915.12 473.965L926.023 436.956C926.522 435.262 925.844 433.459 924.228 432.184L891.907 406.66C887.734 403.365 890.631 397.971 896.509 398.09L931.983 398.809C935.056 398.871 937.707 397.298 938.38 395.011L947.863 362.822Z" fill="#FFBF44"/>

      
    </g>
    </svg>