<svg
      xmlns="http://www.w3.org/2000/svg"
      preserveAspectRatio="xMidYMin meet"
      fill="none"
      viewBox="0 0 1500 1500"
    >
      <g>
      <path fill="url(#prefix__paint0_linear_53_28789)" d="M0 0h1500v1500H0z"/><defs><linearGradient id="prefix__paint0_linear_53_28789" x1="1500" y1="1500" x2="0" y2="0" gradientUnits="userSpaceOnUse">
<stop stop-color="#FFD130"/>
<stop offset="1" stop-color="#FFEEDB"/>
</linearGradient></defs>
      <g clip-path="url(#clip0_483_418)">
<path d="M773 1011.5C543.4 1029.9 398.667 1353.5 355 1513H1138.5C1075.7 1127 868.667 1017.83 773 1011.5Z" fill="#AABBFF"/>
<path d="M661.5 1284C651.1 1208.4 559.5 1181.83 515 1178C583.5 1088.5 654 1030.5 768.5 1008.5C860.1 990.9 976.333 1131.17 1023 1203.5L1007 1267.5L1011.5 1323.5L1036 1427.5L1054 1508H654V1457C660.833 1430.83 671.9 1359.6 661.5 1284Z" fill="#4AEEB9"/>
<path d="M691 1281C658 1185.5 577 1152.5 538.5 1150.5L517.5 1174L607.5 1204L647.5 1259L674.5 1331.5L657 1443.5L652 1506.5H685C684.752 1490.12 685.132 1463.27 685.975 1439.63C686.843 1415.25 692.482 1391.39 696.842 1367.39C704.309 1326.28 698.07 1301.46 691 1281Z" fill="white"/>
<path d="M982.5 1303C973.3 1248.2 991.333 1198.5 1001.5 1180.5L1024 1199.5L1011.5 1239.5L1015 1315L1041.5 1437.5L1050 1506.5H1024C1012.5 1395 994 1371.5 982.5 1303Z" fill="white"/>
<path d="M834 1189C756.4 1183.4 696 1082 675.5 1032L711 1023.5L721.5 1044.5L774 1117.5L824 1142.5C856.4 1133.7 870.167 1075.83 873 1048C885.333 1054 910.6 1066.5 913 1068.5C915.4 1070.5 902.667 1102 896 1117.5L868 1164.5L834 1189Z" fill="white"/>
<path d="M749.5 1019.5C536 1134 457.448 1414.63 443.159 1511H353.699C350.414 1508.73 357.049 1471.27 409.87 1339.62C462.691 1207.98 569.086 1113.24 605.384 1082.33L674 1033.5L749.5 1019.5Z" fill="#001647" fill-opacity="0.2"/>
<path d="M818.5 1143.5C778.1 1131.9 731.667 1054 713.5 1016.5L795.5 1019.5L872 1043L854 1126.5L818.5 1143.5Z" fill="#AABBFF"/>
<path d="M353.5 1519.5C365.5 1454.33 414.5 1313.6 483.5 1219C530.101 1155.11 577.468 1101.29 629.141 1059.66C710.278 994.299 826.037 996.323 905.02 1064.27C1000.08 1146.05 1103.44 1290.29 1142.5 1519.5M1050.5 1519.5C1048.1 1443.9 1024.83 1354.33 1013.5 1319C999.5 1268 1009.7 1225.3 1020.5 1204.5M653.5 1519.5C650.3 1467.1 661.167 1392.33 667 1361.5C674 1324.5 668 1288.8 642 1250C609.5 1201.5 554.5 1171 517 1179.5" stroke="black" stroke-width="22" stroke-linecap="round"/>
<path d="M716.5 1021C729.247 1059.57 769.06 1137.84 826.825 1144.38C827.577 1144.46 828.321 1144.26 828.913 1143.79C845.329 1130.77 875.856 1093.54 873.5 1042.5" stroke="black" stroke-width="22" stroke-linecap="round"/>
<path d="M682 1039C700.209 1094.08 754.185 1179.21 836.775 1187.88C837.527 1187.96 838.267 1187.76 838.866 1187.3C859.814 1171.19 904.649 1131.93 911.953 1072" stroke="black" stroke-width="22" stroke-linecap="round"/>
<path d="M791.438 1500.84C783.883 1493.52 779.375 1483.22 777.915 1469.93L770.467 1402.1C768.917 1387.88 770.995 1377.11 776.704 1369.79C782.412 1362.47 791.771 1358.95 804.781 1359.23C817.865 1359.52 828.086 1363.46 835.446 1371.06C842.806 1378.66 847.266 1389.57 848.827 1403.79L856.275 1471.62C857.744 1485.01 855.482 1495.2 849.491 1502.18C843.5 1509.16 834.195 1512.5 821.575 1512.21C809.066 1511.94 799.021 1508.15 791.438 1500.84ZM823.509 1481.65C824.689 1479.45 825.135 1476.93 824.78 1474.46L816.644 1400.34C816.167 1396.03 815.313 1392.72 814.096 1390.42C812.879 1388.13 810.76 1386.95 807.777 1386.89C804.795 1386.83 803.007 1387.92 802.301 1390.17C801.596 1392.42 801.533 1395.71 802.01 1400.02L810.145 1474.15C810.394 1476.78 811.353 1479.3 812.917 1481.42C813.534 1482.36 814.362 1483.14 815.334 1483.69C816.306 1484.24 817.393 1484.55 818.507 1484.59C819.538 1484.65 820.563 1484.4 821.458 1483.88C822.353 1483.35 823.079 1482.58 823.548 1481.65L823.509 1481.65Z" fill="white"/>
<path d="M894.056 1507.85C888.625 1505.6 883.819 1502.06 880.051 1497.52C876.289 1492.92 873.98 1487.29 873.421 1481.36L871.643 1465.3L900.181 1465.91L900.507 1468.88C900.843 1472.96 901.75 1476.97 903.202 1480.8C903.687 1482.14 904.578 1483.3 905.752 1484.11C906.925 1484.92 908.321 1485.33 909.741 1485.3C912.979 1485.37 915.153 1484.52 916.282 1482.73C917.411 1480.94 917.779 1478.26 917.379 1474.65L914.049 1444.59C912.906 1447.27 910.895 1449.49 908.343 1450.87C905.29 1452.51 901.849 1453.27 898.397 1453.06C890.316 1452.89 883.877 1451.12 879.08 1447.76C874.282 1444.4 870.677 1439.51 868.264 1433.1C865.825 1426.63 864.026 1418.17 862.867 1407.69C861.09 1391.73 862.733 1379.5 867.796 1371.01C872.86 1362.52 882.304 1358.42 896.127 1358.72C906.276 1358.93 914.489 1360.85 920.766 1364.48C927.079 1368.14 932.056 1373.75 934.967 1380.48C938.169 1387.49 940.386 1396.62 941.618 1407.86L946.098 1448.42C947.812 1463.92 948.236 1476.1 947.371 1484.97C946.506 1493.84 943.395 1500.58 938.039 1505.18C932.672 1509.77 924.045 1511.94 912.157 1511.68C905.936 1511.57 899.792 1510.27 894.056 1507.85ZM910.961 1416.23L908.889 1397.53C908.087 1390.19 905.202 1386.46 900.234 1386.36C897.116 1386.29 895.262 1387.5 894.673 1389.99C894.084 1392.47 894.1 1396.51 894.722 1402.11L896.049 1414.34C896.935 1422.5 899.692 1426.63 904.321 1426.73C909.549 1426.84 911.762 1423.34 910.961 1416.23Z" fill="white"/>
<path d="M903.576 1276.75C902.196 1276.75 901.23 1275.39 901.687 1274.08L909.159 1252.81C909.713 1251.23 911.84 1250.99 912.735 1252.4L935.336 1288.03C935.707 1288.61 936.353 1288.96 937.045 1288.96L946.363 1288.86C947.926 1288.85 948.868 1287.13 948.037 1285.8L908.618 1222.93C907.728 1221.51 905.591 1221.75 905.036 1223.33L882.743 1286.81C882.283 1288.12 883.262 1289.49 884.649 1289.47L925.683 1289.07C927.251 1289.05 928.192 1287.32 927.352 1286L914.651 1265.96C913.756 1264.55 911.626 1264.79 911.074 1266.37L907.908 1275.41C907.628 1276.21 906.872 1276.74 906.023 1276.74L903.576 1276.75Z" fill="white"/>
</g>
<defs>
<clipPath id="clip0_483_418">
<rect width="1500" height="1500" fill="white"/>
</clipPath>
</defs>
      <g clip-path="url(#clip0_497_1194)">
<path d="M379.667 654.812C432.345 471.574 618.472 401.981 699.114 390.653C740.985 382.718 849.655 375.215 949.364 408.675C980 418.956 1049.88 457.388 1091.92 499.818C1144.47 552.856 1272.97 732.052 1185.05 927.725C1097.12 1123.4 758.414 1092.29 612.749 1051.82C464.472 1010.63 314.48 881.563 379.667 654.812Z" fill="#AABBFF"/>
<path d="M449.293 747.204C454.734 531.068 585.306 432.345 649.911 410C432.292 459.565 365.296 655.455 364 747.204C377.99 984.871 584.496 1053.43 681 1058C601.498 1044.46 443.853 963.339 449.293 747.204Z" fill="#001647" fill-opacity="0.2"/>
<path d="M379.667 654.812C432.345 471.574 618.472 401.981 699.114 390.653C740.985 382.718 849.655 375.215 949.364 408.675C980 418.956 1049.88 457.388 1091.92 499.818C1144.47 552.856 1272.97 732.052 1185.05 927.725C1097.12 1123.4 758.414 1092.29 612.749 1051.82C464.472 1010.63 314.48 881.563 379.667 654.812Z" stroke="black" stroke-width="22" stroke-linecap="round"/>
</g>
<defs>
    <clipPath id="prefix__clip0_299_662"><path fill="#fff" d="M0 0h1500v1500H0z"/></clipPath>
</defs>
      <g clip-path="url(#clip0_624_3562)">
<path d="M799.421 789.214L858.141 778.547C859.189 778.352 860.151 777.837 860.895 777.073C861.639 776.309 862.128 775.334 862.294 774.28C862.455 773.224 862.285 772.143 861.808 771.187C861.331 770.234 860.569 769.453 859.628 768.954L804.701 739.807" stroke="black" stroke-width="22" stroke-miterlimit="10" stroke-linecap="round"/>
<path d="M1037.67 789.214L979.001 778.547C977.951 778.355 976.987 777.841 976.243 777.076C975.499 776.312 975.011 775.335 974.847 774.28C974.687 773.227 974.854 772.149 975.327 771.194C975.804 770.237 976.569 769.453 977.514 768.954L1032.44 739.807" stroke="black" stroke-width="22" stroke-miterlimit="10" stroke-linecap="round"/>
<path d="M992 915.801C992 944.083 960.211 967 921 967C881.789 967 850 944.083 850 915.801C850.013 910.144 851.278 904.561 853.703 899.453C858.875 888.383 870.646 884.1 880.667 889.061C892.124 894.775 906.017 898.12 921.008 898.12C935.999 898.12 949.884 894.775 961.349 889.061C971.354 884.068 983.133 888.383 988.313 899.453C990.733 904.562 991.993 910.145 992 915.801Z" fill="white" stroke="black" stroke-width="22" stroke-miterlimit="10"/>
</g>
<defs>
<clipPath id="clip0_624_3562">
<rect width="1500" height="1500" fill="white"/>
</clipPath>
</defs>
      <g clip-path="url(#clip0_911_278)">
<path d="M741 865.42V871.56C741.01 872.669 740.781 873.767 740.33 874.78C739.07 877.64 736.99 877.78 736.99 877.78C735.893 878.033 734.754 878.046 733.651 877.818C732.548 877.59 731.507 877.127 730.6 876.46C727.96 874.35 721.36 856.25 721.36 856.25L708.65 876.46H700L717.8 848.25L712.21 836.66C711.84 835.888 711.265 835.233 710.547 834.767C709.828 834.301 708.996 834.043 708.14 834.02H708C707.225 833.94 706.442 834.054 705.721 834.351C705.001 834.647 704.365 835.118 703.87 835.72C702.98 836.61 702.66 839.5 702.66 839.5L700.88 839.63C700.634 837.881 700.59 836.109 700.75 834.35C700.862 833.001 701.324 831.705 702.09 830.59C702.61 829.783 703.325 829.12 704.169 828.664C705.014 828.208 705.96 827.972 706.92 827.98C708.535 827.979 710.11 828.479 711.43 829.41C712.762 830.35 713.801 831.646 714.43 833.15L719.69 846.2L731.13 828.8H739L723.2 853.31L727.14 862.63C727.14 862.63 730.14 871.63 734.45 871.63C738.76 871.63 739.16 865.41 739.16 865.41L741 865.42Z" fill="black"/>
</g>
<defs>
<clipPath id="clip0_911_278">
<rect width="1500" height="1500" fill="white"/>
</clipPath>
</defs>
      <g clip-path="url(#clip0_1319_8010)">
<path d="M159.132 369.43C259.88 316.197 450.027 362.233 522.46 391.084C523.029 391.31 523.626 390.963 523.766 390.367L549 283C570 221.333 617.6 94 720 78C822.4 62 910.667 139.333 932 185L970.181 294.088C970.359 294.597 970.908 294.873 971.422 294.713L1069.92 264.024C1069.97 264.008 1070.03 263.996 1070.08 263.989L1202 245.5H1289.85C1289.95 245.5 1290.05 245.515 1290.14 245.544L1351.76 264.425C1351.92 264.474 1352.06 264.563 1352.18 264.682L1398.37 311.865C1398.46 311.954 1398.53 312.059 1398.57 312.174L1423.41 370.782C1423.47 370.925 1423.49 371.081 1423.48 371.237L1419.01 440.324C1419 440.44 1418.98 440.555 1418.93 440.662L1377.07 535.837C1377.02 535.945 1376.96 536.043 1376.88 536.128L1298.7 617.291C1298.57 617.427 1298.4 617.524 1298.22 617.569L1196.47 642.266C1195.93 642.395 1195.4 642.082 1195.25 641.552C1191.2 626.891 1174.54 596.212 1166.76 581.969C1166.59 581.67 1166.29 581.486 1165.95 581.463L1093.11 576.508C1093.04 576.503 1092.96 576.506 1092.89 576.518L932.5 602C801 630.833 514.4 687.8 420 685C325.76 682.205 238.629 644.296 206.662 625.595C206.55 625.53 206.459 625.447 206.381 625.344L163.087 568.614C163.029 568.538 162.983 568.455 162.949 568.367L139.567 507.674C139.523 507.559 139.5 507.437 139.5 507.314V457V389.414C139.5 389.149 139.605 388.895 139.793 388.707L158.894 369.606C158.964 369.536 159.044 369.477 159.132 369.43Z" fill="#FFBF44"/>
<path d="M1347 406.5L1412 469.5L1426 386.5L1399.5 313.5L1347 266.5L1251 239.5L1097 255.5L931.5 313.5L710 411L513 497.5L384.5 514L288.5 502L174.5 452L136 414.5L144 521L296.5 588L430.5 592.5L604.5 564.5L804 497.5L1101.5 413L1227.5 391L1347 406.5Z" fill="#FF6247"/>
<path d="M341 418.5L471.5 452L484.5 443.5L504 418.5L516.5 389L487.5 377L364 350L227 345.5L145.5 373.5L136 397.5L170 443L186.5 446.5L245.5 418.5H341Z" fill="#FF6247"/>
<path d="M1361.94 416.025L1414.24 361.806C1414.79 361.239 1415.74 361.497 1415.93 362.262L1427.43 409.224C1427.48 409.404 1427.47 409.594 1427.41 409.77L1409.98 463.535C1409.75 464.223 1408.89 464.454 1408.35 463.97L1384.57 442.559C1384.52 442.52 1384.47 442.484 1384.42 442.453L1337.11 413.07C1337.04 413.024 1336.96 412.987 1336.87 412.962L1292.16 399.548C1292.05 399.516 1291.94 399.502 1291.83 399.506L1174 404L1132.08 406.495C1132.03 406.498 1131.97 406.506 1131.92 406.517L1027 429.5L829.5 495L617.5 563L453.599 596.48C453.533 596.493 453.466 596.5 453.399 596.5H324.147C324.05 596.5 323.953 596.486 323.859 596.458L212.635 563.041C212.546 563.014 212.46 562.974 212.381 562.923L146.746 520.625C146.041 520.171 146.174 519.104 146.968 518.837L234.668 489.281C235.144 489.12 235.665 489.338 235.886 489.789L277.436 574.845C277.722 575.431 278.483 575.591 278.981 575.17L352.243 513.141C352.662 512.786 353.289 512.836 353.647 513.252L419.728 590.103C420.132 590.572 420.861 590.566 421.256 590.09L493.441 503.173C493.761 502.788 494.317 502.699 494.741 502.965L589.534 562.394C590.046 562.715 590.723 562.512 590.974 561.963L643.534 447.018C643.783 446.476 644.448 446.27 644.959 446.577L753.514 511.906C754.035 512.22 754.712 512 754.95 511.441L816.044 367.575C816.284 367.01 816.971 366.792 817.492 367.116L943.558 445.415C944.062 445.728 944.726 445.536 944.985 445.002L1020.45 289.635C1020.73 289.055 1021.48 288.889 1021.98 289.296L1159.15 400.808C1159.61 401.179 1160.28 401.078 1160.61 400.589L1264.59 245.363C1265 244.741 1265.93 244.781 1266.29 245.437L1360.35 415.814C1360.67 416.403 1361.47 416.509 1361.94 416.025Z" fill="#87C848"/>
<path d="M409.082 359.8L472.844 447.412C473.325 448.072 472.853 449 472.035 449H460.646C460.549 449 460.453 448.986 460.36 448.958L395.099 429.53C395.033 429.51 394.965 429.497 394.897 429.491L311 422.5H238.733C238.58 422.5 238.429 422.535 238.291 422.603L207 438L179.137 451.198C178.755 451.379 178.301 451.301 178.002 451.002L145.225 418.225C145.079 418.079 144.981 417.89 144.947 417.686L140.83 393.443C140.693 392.636 141.531 392.015 142.263 392.382L211.601 427.051C212.097 427.298 212.7 427.096 212.945 426.599L252.442 346.629C252.727 346.052 253.476 345.891 253.973 346.299L333.409 411.515C333.758 411.801 334.255 411.818 334.623 411.557L407.694 359.573C408.141 359.256 408.76 359.357 409.082 359.8Z" fill="#87C848"/>
<path d="M468.5 445L410.073 357.359C409.759 356.889 409.119 356.771 408.66 357.099L331.651 412.036C331.27 412.307 330.752 412.279 330.404 411.968L257.38 346.785C256.919 346.374 256.199 346.474 255.869 346.996L205.993 425.722C205.714 426.162 205.145 426.314 204.684 426.073L141.5 393M151.5 515L235.128 487.289C235.621 487.126 236.157 487.367 236.362 487.844L274.483 576.794C274.743 577.401 275.51 577.594 276.026 577.182L353.227 515.617C353.655 515.275 354.279 515.342 354.625 515.767L417.244 592.573C417.638 593.056 418.373 593.065 418.778 592.592L495.425 503.171C495.753 502.788 496.316 502.71 496.737 502.988L588.527 563.855C589.038 564.194 589.732 563.997 589.988 563.44L644.023 446.036C644.276 445.487 644.954 445.286 645.465 445.608L754.515 514.379C755.033 514.705 755.72 514.494 755.965 513.932L819.031 369.077C819.277 368.512 819.97 368.302 820.488 368.635L941.551 446.391C942.056 446.715 942.73 446.525 942.992 445.985L1019.94 287.155C1020.22 286.569 1020.98 286.406 1021.48 286.825L1156.66 400.294C1157.11 400.673 1157.79 400.582 1158.12 400.098L1264.6 246.296C1265.02 245.693 1265.92 245.73 1266.29 246.364L1361.82 411.333C1362.16 411.914 1362.96 412.005 1363.42 411.515L1412.5 359" stroke="white" stroke-width="18"/>
<path d="M970.5 298.5C943.5 204 896 77.5 747 77.5C701 77.5 618 95.5 573.5 237C529 378.5 506.5 447 464.5 473M1186 584C1151.5 574.5 1032.1 569.2 830.5 624C578.5 692.5 183 750.5 144 514.5C139.833 482.833 133.5 421 140 393.5M515.5 387C498.333 378.333 428.5 352.4 338.5 342C272.106 334.328 208.705 350.13 168.773 364.835C147.522 372.661 132.138 393.278 142.233 413.549C155.986 441.165 192.731 475.314 275.5 499C318 512.833 433.5 528.2 555.5 479C708 417.5 1093.5 199.5 1305.5 249C1416.64 274.95 1443.13 378.813 1409.25 474M1186 647C1298.04 639.626 1378.51 560.385 1409.25 474M478 451.5C406.5 425.667 241.8 387.5 183 449.5M147 514.5C178.5 552 292.5 619.3 496.5 588.5C751.5 550 1287.51 252 1409.25 474" stroke="black" stroke-width="22" stroke-linecap="round"/>
<path d="M514.5 587C497.3 609.8 484.667 661.167 480.5 684L334.5 675L247 651.5L190.5 610.5L168 568.5L142 502.5V419L168 450.5C172.167 454 201.3 468.4 284.5 498C367.7 527.6 447 520.833 498.5 504C495.5 534.5 501 558.5 514.5 587Z" fill="#001647" fill-opacity="0.2"/>
<path d="M455 498.5L385.5 506L346.5 504L266 488.5L209 467.5L188 451L221 429L296 415L389 429L470 444L475.25 449.5L504 434.5L577 230.5L614 139.5L676.5 95L725 87C687.5 114.833 631.5 150.5 604.5 274C586.763 355.131 568.5 426.718 554.5 451.327C559.875 449.097 565.232 446.66 570.5 444C622 418 801 332 959 274L966 305L859 343.5L705 411L554.5 476L455 498.5Z" fill="#001647" fill-opacity="0.2"/>
</g>
<defs>
<clipPath id="clip0_1319_8010">
<rect width="1500" height="1500" fill="white"/>
</clipPath>
</defs>
      
    </g>
    </svg>