<svg
      xmlns="http://www.w3.org/2000/svg"
      preserveAspectRatio="xMidYMin meet"
      fill="none"
      viewBox="0 0 1500 1500"
    >
      <g>
      <path fill="url(#prefix__paint0_linear_53_30460)" d="M0 0h1500v1500H0z"/><defs><linearGradient id="prefix__paint0_linear_53_30460" x1="0" y1="0" x2="1500" y2="1500" gradientUnits="userSpaceOnUse">
<stop stop-color="#F1FFBA"/>
<stop offset="1" stop-color="#65DCBA"/>
</linearGradient></defs>
      <g clip-path="url(#clip0_496_948)">
<path d="M773 1011.5C543.4 1029.9 398.667 1353.5 355 1513H1138.5C1075.7 1127 868.667 1017.83 773 1011.5Z" fill="white"/>
<path d="M353.699 1511C350.414 1508.73 357.049 1471.27 409.87 1339.62C436.322 1273.7 476.209 1217.03 514 1173L524 1176.5L570.032 1188.5C488.342 1309.97 452.378 1448.83 443.159 1511H353.699Z" fill="#001647" fill-opacity="0.2"/>
<path d="M939.5 1511C927.5 1360.2 870.5 1116.5 841.5 1033.5H866.5L906.5 1137.5L947.5 1325.5L970 1511H939.5Z" fill="#001647" fill-opacity="0.2"/>
<path d="M805 1365L817 1517.5L971 1510.5L960 1428.5L932 1270.5L901 1137L877 1040L867 1029L828 1018C815.167 1015 787.1 1012.7 779.5 1011.5C771.9 1010.3 740.333 1005.83 725 1011.5L654.5 1045C674.5 1057 714.9 1081.6 716.5 1084C718.1 1086.4 756.833 1166.33 776 1206L805 1365Z" fill="#FF6247"/>
<path d="M656 1439.5L649.5 1511H809.5L806.5 1372.5L783.5 1254.5L753.5 1146L692.5 1064.5L657.5 1032.5C627.9 1044.1 554.833 1131.67 522 1174L610.5 1211.5L649.5 1251.5L670 1334.5L656 1439.5Z" fill="#3A3A3A"/>
<path d="M957.5 1385.5L974.5 1511H1050.5L1042 1448.5L1022 1352.5L1000.5 1266.5L1022 1206.5L936 1096L877.5 1048L916.5 1194L957.5 1385.5Z" fill="#3A3A3A"/>
<path d="M523.499 1182C523.499 1182 505.5 1187.8 513.141 1174C541.446 1122.86 587.126 1097.88 605.384 1082.33L674 1033.5L749.5 1019.5C673.999 1059.99 615.375 1121.26 570.5 1187.8H570.499L523.499 1182Z" fill="black" fill-opacity="0.2"/>
<path d="M353.5 1519.5C365.5 1454.33 414.5 1313.6 483.5 1219C530.101 1155.11 577.468 1101.29 629.141 1059.66C710.278 994.299 826.037 996.323 905.02 1064.27C1000.08 1146.05 1103.44 1290.29 1142.5 1519.5M1050.5 1519.5C1048.1 1443.9 1024.83 1354.33 1013.5 1319C999.5 1268 1009.7 1225.3 1020.5 1204.5M653.5 1519.5C650.3 1467.1 661.167 1392.33 667 1361.5C674 1324.5 668 1288.8 642 1250C609.5 1201.5 554.5 1171 517 1179.5M811.847 1484C812.631 1496.77 813.349 1509.94 814 1523.5M811.847 1484L964.471 1466M811.847 1484C810.341 1459.43 808.594 1436.3 806.617 1414.5M969.5 1523.5C968.476 1507.52 966.802 1488.03 964.471 1466M964.471 1466C962.326 1445.74 959.626 1423.32 956.362 1399.5M806.617 1414.5L956.362 1399.5M806.617 1414.5C804.398 1390.03 801.89 1367.24 799.11 1346M956.362 1399.5C953.348 1377.51 949.855 1354.31 945.877 1330.5M799.11 1346L945.877 1330.5M799.11 1346C795.695 1319.92 791.87 1296.17 787.664 1274.5M945.877 1330.5C941.963 1307.08 937.58 1283.06 932.722 1259M787.664 1274.5L932.722 1259M787.664 1274.5C781.729 1243.93 775.036 1217.5 767.671 1194.5M932.722 1259C927.26 1231.95 921.197 1204.85 914.528 1178.5M767.671 1194.5L914.528 1178.5M767.671 1194.5C758.702 1166.5 748.736 1143.59 737.926 1124.5M914.528 1178.5C908.183 1153.43 901.289 1129.04 893.84 1106M893.84 1106C887.615 1086.75 879.003 1058.95 872 1042M893.84 1106L737.926 1124.5M737.926 1124.5C714.675 1083.43 687.521 1060.02 658 1041.55" stroke="black" stroke-width="22" stroke-linecap="round"/>
<path d="M698.265 1257.79C698.91 1259.21 699.577 1260.67 700.046 1262.15C700.237 1262.75 701.353 1267.16 701.964 1269.58C702.088 1270.04 702.327 1270.45 702.653 1270.77C702.978 1271.08 703.375 1271.27 703.795 1271.33L706.726 1271.68C706.939 1271.71 707.141 1271.81 707.313 1271.96C707.485 1272.1 707.619 1272.3 707.701 1272.53L708.467 1274.68C708.801 1275.62 709.654 1276.26 710.501 1276.22L732.54 1275.14C733.373 1275.1 733.974 1274.41 733.985 1273.48L734.011 1271.22C734.015 1271.01 734.083 1270.8 734.203 1270.64C734.324 1270.48 734.489 1270.38 734.672 1270.34L738.029 1269.6C738.836 1269.42 739.329 1268.61 739.207 1267.66C738.889 1265.15 738.314 1260.59 738.284 1259.96C738.2 1258.48 738.321 1257.01 738.434 1255.57C738.596 1253.57 738.764 1251.5 738.38 1249.37C735.931 1235.8 724.429 1225.22 712.739 1225.79C701.048 1226.35 693.529 1237.86 695.978 1251.44C696.379 1253.67 697.337 1255.76 698.265 1257.79ZM720.871 1255.44C720.311 1251.58 723.184 1250.46 726.61 1250.45C730.036 1250.44 732.719 1251.54 733.279 1255.4C733.84 1259.26 731.521 1262.4 728.091 1262.41C724.66 1262.43 721.432 1259.3 720.871 1255.44L720.871 1255.44ZM720.237 1263.1L723.111 1266.7C723.234 1266.85 723.323 1267.03 723.371 1267.22C723.419 1267.41 723.424 1267.61 723.385 1267.81L723.201 1268.57C723.152 1268.76 723.052 1268.93 722.913 1269.05C722.774 1269.17 722.605 1269.23 722.43 1269.23L718.651 1269.42C718.457 1269.42 718.264 1269.37 718.09 1269.27C717.916 1269.17 717.766 1269.02 717.654 1268.84L717.203 1268.11C717.098 1267.95 717.031 1267.77 717.008 1267.57C716.986 1267.37 717.008 1267.18 717.074 1267L718.612 1263.18C718.881 1262.51 719.729 1262.47 720.237 1263.1L720.237 1263.1ZM707.923 1251.35C711.294 1251.04 714.516 1251.86 715.346 1255.71C716.175 1259.56 714.115 1262.94 710.746 1263.25C707.376 1263.57 703.969 1260.71 703.139 1256.86C702.31 1253.01 704.551 1251.67 707.923 1251.34L707.923 1251.35Z" fill="white"/>
<path d="M739.748 1220.9C739.68 1219.05 738.833 1217.12 737.321 1215.76C734.899 1213.58 731.594 1213.7 729.942 1216.03C728.208 1218.46 728.876 1222.33 731.396 1224.61L729.866 1226.88C729.255 1227.79 729.51 1229.2 730.436 1230.04L734.387 1233.6C735.31 1234.44 736.558 1234.38 737.17 1233.47L738.699 1231.19C741.22 1233.46 744.624 1233.27 746.237 1230.72C747.777 1228.29 747.067 1224.56 744.644 1222.37C743.144 1221 741.317 1220.53 739.748 1220.9Z" fill="white"/>
<path d="M689.345 1233.58L691.666 1235.67C692.59 1236.5 693.838 1236.44 694.449 1235.53L697.058 1231.65C697.67 1230.74 697.415 1229.33 696.489 1228.49L694.172 1226.4C695.837 1223.93 695.109 1220.06 692.535 1217.83C690.075 1215.71 686.791 1215.91 685.185 1218.28C684.185 1219.76 684.042 1221.74 684.639 1223.57C682.962 1223.35 681.34 1223.99 680.347 1225.48C678.752 1227.86 679.389 1231.6 681.774 1233.84C684.263 1236.18 687.68 1236.05 689.345 1233.58Z" fill="white"/>
<path d="M753.755 1272.43C751.261 1270.09 747.844 1270.22 746.179 1272.7L743.863 1270.61C742.94 1269.77 741.691 1269.83 741.081 1270.74L738.472 1274.62C737.861 1275.53 738.115 1276.95 739.041 1277.78L741.357 1279.86C739.692 1282.34 740.421 1286.21 742.994 1288.43C745.454 1290.56 748.738 1290.36 750.345 1287.99C751.345 1286.51 751.487 1284.53 750.891 1282.7C752.568 1282.92 754.19 1282.28 755.183 1280.79C756.777 1278.41 756.14 1274.67 753.755 1272.43Z" fill="white"/>
<path d="M695.773 1285.37C695.842 1287.22 696.689 1289.15 698.2 1290.51C700.622 1292.69 703.926 1292.57 705.579 1290.24C707.312 1287.81 706.645 1283.94 704.124 1281.66L705.654 1279.39C706.265 1278.48 706.01 1277.07 705.085 1276.23L701.133 1272.67C700.21 1271.83 698.961 1271.89 698.35 1272.8L696.821 1275.08C694.301 1272.81 690.896 1273 689.282 1275.55C687.74 1277.98 688.45 1281.71 690.869 1283.9C692.38 1285.27 694.204 1285.74 695.773 1285.37Z" fill="white"/>
</g>
<defs>
<clipPath id="clip0_496_948">
<rect width="1500" height="1500" fill="white"/>
</clipPath>
</defs>
      <g clip-path="url(#clip0_497_1194)">
<path d="M379.667 654.812C432.345 471.574 618.472 401.981 699.114 390.653C740.985 382.718 849.655 375.215 949.364 408.675C980 418.956 1049.88 457.388 1091.92 499.818C1144.47 552.856 1272.97 732.052 1185.05 927.725C1097.12 1123.4 758.414 1092.29 612.749 1051.82C464.472 1010.63 314.48 881.563 379.667 654.812Z" fill="#AABBFF"/>
<path d="M449.293 747.204C454.734 531.068 585.306 432.345 649.911 410C432.292 459.565 365.296 655.455 364 747.204C377.99 984.871 584.496 1053.43 681 1058C601.498 1044.46 443.853 963.339 449.293 747.204Z" fill="#001647" fill-opacity="0.2"/>
<path d="M379.667 654.812C432.345 471.574 618.472 401.981 699.114 390.653C740.985 382.718 849.655 375.215 949.364 408.675C980 418.956 1049.88 457.388 1091.92 499.818C1144.47 552.856 1272.97 732.052 1185.05 927.725C1097.12 1123.4 758.414 1092.29 612.749 1051.82C464.472 1010.63 314.48 881.563 379.667 654.812Z" stroke="black" stroke-width="22" stroke-linecap="round"/>
</g>
<defs>
    <clipPath id="prefix__clip0_299_662"><path fill="#fff" d="M0 0h1500v1500H0z"/></clipPath>
</defs>
      <g clip-path="url(#clip0_624_3534)">
<path d="M780.422 771.992C785.186 778.098 791.28 783.038 798.24 786.435C805.2 789.833 812.843 791.599 820.589 791.599C828.334 791.599 835.977 789.833 842.937 786.435C849.897 783.038 855.991 778.098 860.755 771.992" stroke="black" stroke-width="22" stroke-miterlimit="10" stroke-linecap="round"/>
<path d="M972.16 771.992C976.925 778.098 983.018 783.038 989.979 786.435C996.939 789.833 1004.58 791.599 1012.33 791.599C1020.07 791.599 1027.71 789.833 1034.68 786.435C1041.64 783.038 1047.73 778.098 1052.49 771.992" stroke="black" stroke-width="22" stroke-miterlimit="10" stroke-linecap="round"/>
<path d="M922.5 961C929.521 961 936.385 958.918 942.223 955.017C948.061 951.116 952.611 945.572 955.298 939.085C957.985 932.598 958.688 925.461 957.318 918.574C955.948 911.688 952.567 905.362 947.602 900.398C942.638 895.433 936.312 892.052 929.426 890.682C922.539 889.312 915.402 890.015 908.915 892.702C902.428 895.389 896.884 899.939 892.983 905.777C889.082 911.615 887 918.479 887 925.5C887 934.915 890.74 943.945 897.398 950.602C904.055 957.26 913.085 961 922.5 961Z" fill="black" stroke="black" stroke-width="22" stroke-miterlimit="10" stroke-linecap="round"/>
</g>
<defs>
<clipPath id="clip0_624_3534">
<rect width="1500" height="1500" fill="white"/>
</clipPath>
</defs>
      <g clip-path="url(#clip0_924_580)">
<path d="M582.499 804.5C582.499 810.023 586.976 814.5 592.499 814.5C598.022 814.5 602.499 810.023 602.499 804.5H582.499ZM747.333 760L622.499 760L622.499 780L747.333 780L747.333 760ZM582.499 800V804.5H602.499V800H582.499ZM622.499 760C600.408 760 582.499 777.908 582.499 800H602.499C602.499 788.954 611.453 780 622.499 780L622.499 760Z" fill="black"/>
<path d="M894.386 769.667H939.5" stroke="black" stroke-width="20" stroke-miterlimit="10"/>
<path d="M989.139 711.37C989.153 711.379 989.168 711.384 989.185 711.384C989.201 711.385 989.217 711.38 989.231 711.372C989.245 711.364 989.256 711.352 989.264 711.338C989.271 711.323 989.275 711.307 989.273 711.291C989.273 708.797 990.302 676.51 1024.25 679.154C1024.25 679.154 1052.73 681.648 1055.38 712.609C1055.38 712.623 1055.39 712.637 1055.4 712.649C1055.4 712.661 1055.41 712.672 1055.43 712.679C1055.44 712.687 1055.45 712.692 1055.47 712.693C1055.48 712.695 1055.5 712.693 1055.51 712.688C1057.55 711.899 1086.02 700.802 1100.84 724.526C1115.66 748.25 1091.4 768.865 1089.77 770.175C1089.76 770.184 1089.75 770.195 1089.74 770.207C1089.74 770.219 1089.73 770.233 1089.73 770.246C1089.73 770.26 1089.74 770.273 1089.74 770.285C1089.75 770.297 1089.76 770.308 1089.77 770.317C1091.29 771.825 1115.74 793.449 1101.63 816.416C1087.53 839.382 1058.56 827.946 1056.54 826.928C1056.53 826.92 1056.51 826.915 1056.5 826.914C1056.48 826.913 1056.47 826.916 1056.45 826.922C1056.44 826.929 1056.43 826.938 1056.42 826.95C1056.41 826.962 1056.4 826.977 1056.4 826.991C1056.01 829.186 1050.02 859.642 1023.17 859.997C996.331 860.352 988.538 830.488 988.031 828.428C988.028 828.415 988.022 828.403 988.013 828.393C988.005 828.382 987.994 828.374 987.982 828.368C987.97 828.362 987.957 828.359 987.944 828.358C987.93 828.358 987.917 828.36 987.905 828.365C986.014 829.225 958.529 841.055 942.611 815.603C926.693 790.15 949.534 772.03 951.156 770.791C951.167 770.783 951.176 770.772 951.183 770.76C951.189 770.747 951.193 770.734 951.193 770.72C951.193 770.706 951.189 770.692 951.183 770.68C951.176 770.667 951.167 770.657 951.156 770.649C949.573 769.228 926.574 747.864 943.893 722.088C960.507 697.495 987.019 710.297 989.139 711.37Z" fill="#53B6F9" stroke="black" stroke-width="20" stroke-miterlimit="10"/>
<path d="M784.139 711.37C784.153 711.379 784.168 711.384 784.185 711.384C784.201 711.385 784.217 711.38 784.231 711.372C784.245 711.364 784.256 711.352 784.264 711.338C784.271 711.323 784.275 711.307 784.273 711.291C784.273 708.797 785.302 676.51 819.251 679.154C819.251 679.154 847.732 681.648 850.383 712.609C850.384 712.623 850.389 712.637 850.397 712.649C850.404 712.661 850.414 712.672 850.427 712.679C850.439 712.687 850.453 712.692 850.467 712.693C850.481 712.695 850.496 712.693 850.509 712.688C852.55 711.899 881.024 700.802 895.843 724.526C910.661 748.25 886.404 768.865 884.766 770.175C884.756 770.184 884.748 770.195 884.743 770.207C884.737 770.219 884.734 770.233 884.734 770.246C884.734 770.26 884.737 770.273 884.743 770.285C884.748 770.297 884.756 770.308 884.766 770.317C886.285 771.825 910.74 793.449 896.634 816.416C882.527 839.382 853.563 827.946 851.538 826.928C851.525 826.92 851.511 826.915 851.496 826.914C851.481 826.913 851.466 826.916 851.453 826.922C851.439 826.929 851.427 826.938 851.419 826.95C851.41 826.962 851.405 826.977 851.403 826.991C851.008 829.186 845.019 859.642 818.175 859.997C791.331 860.352 783.538 830.488 783.031 828.428C783.028 828.415 783.022 828.403 783.013 828.393C783.005 828.382 782.994 828.374 782.982 828.368C782.97 828.362 782.957 828.359 782.944 828.358C782.93 828.358 782.917 828.36 782.905 828.365C781.014 829.225 753.529 841.055 737.611 815.603C721.693 790.15 744.534 772.03 746.156 770.791C746.167 770.783 746.176 770.772 746.183 770.76C746.189 770.747 746.193 770.734 746.193 770.72C746.193 770.706 746.189 770.692 746.183 770.68C746.176 770.667 746.167 770.657 746.156 770.649C744.573 769.228 721.574 747.864 738.893 722.088C755.507 697.495 782.019 710.297 784.139 711.37Z" fill="#53B6F9" stroke="black" stroke-width="20" stroke-miterlimit="10"/>
<path d="M1054 770C1054 788.336 1039.34 803 1021.5 803C1003.66 803 989 788.336 989 770C989 751.664 1003.66 737 1021.5 737C1039.34 737 1054 751.664 1054 770Z" fill="#FFBF44" stroke="black" stroke-width="20"/>
<path d="M849 770C849 788.336 834.339 803 816.5 803C798.661 803 784 788.336 784 770C784 751.664 798.661 737 816.5 737C834.339 737 849 751.664 849 770Z" fill="#FFBF44" stroke="black" stroke-width="20"/>
<path d="M1010.55 731.17C1006.77 701.733 1023.94 686.472 1032.99 685.021C1021.34 681.539 998.775 687.791 993.525 691.352C991.687 694.122 987.618 700.294 986.043 702.826C984.074 705.991 982.893 709.552 981.712 709.948C980.531 710.344 964.78 711.531 963.993 711.531C963.205 711.531 943.517 719.84 943.124 720.631C942.73 721.422 935.249 740.414 935.249 741.206C935.249 741.839 938.924 764.418 940.761 775.628C938.53 780.904 933.673 792.959 932.098 798.973C930.523 804.987 948.242 823.108 957.299 831.417L987.224 833.395L1016.76 859.905C1031.72 860.301 1059.6 859.668 1035.66 853.97C1011.72 848.272 1009.14 821.537 1010.85 811.382C1009.8 809.14 1003.45 804.418 1002.19 803.469C1000.61 802.282 989.193 795.016 988.8 794.225C988.406 793.433 983.287 785.124 982.893 767.319C982.578 753.076 1004.25 738.952 1010.55 731.17Z" fill="#001647" fill-opacity="0.2"/>
<path d="M805.55 731.17C801.77 701.733 818.938 686.472 827.994 685.021C816.339 681.539 793.775 687.791 788.525 691.352C786.687 694.122 782.618 700.294 781.043 702.826C779.074 705.991 777.893 709.552 776.712 709.948C775.531 710.344 759.78 711.531 758.993 711.531C758.205 711.531 738.517 719.84 738.124 720.631C737.73 721.422 730.249 740.414 730.249 741.206C730.249 741.839 733.924 764.418 735.761 775.628C733.53 780.904 728.673 792.959 727.098 798.973C725.523 804.987 743.242 823.108 752.299 831.417L782.224 833.395L811.756 859.905C826.719 860.301 854.597 859.668 830.657 853.97C806.716 848.272 804.144 821.537 805.85 811.382C804.8 809.14 798.447 804.418 797.187 803.469C795.612 802.282 784.193 795.016 783.8 794.225C783.406 793.433 778.287 785.124 777.893 767.319C777.578 753.076 799.25 738.952 805.55 731.17Z" fill="#001647" fill-opacity="0.2"/>
<path d="M989.139 711.37C989.153 711.379 989.168 711.384 989.185 711.384C989.201 711.385 989.217 711.38 989.231 711.372C989.245 711.364 989.256 711.352 989.264 711.338C989.271 711.323 989.275 711.307 989.273 711.291C989.273 708.797 990.302 676.51 1024.25 679.154C1024.25 679.154 1052.73 681.648 1055.38 712.609C1055.38 712.623 1055.39 712.637 1055.4 712.649C1055.4 712.661 1055.41 712.672 1055.43 712.679C1055.44 712.687 1055.45 712.692 1055.47 712.693C1055.48 712.695 1055.5 712.693 1055.51 712.688C1057.55 711.899 1086.02 700.802 1100.84 724.526C1115.66 748.25 1091.4 768.865 1089.77 770.175C1089.76 770.184 1089.75 770.195 1089.74 770.207C1089.74 770.219 1089.73 770.233 1089.73 770.246C1089.73 770.26 1089.74 770.273 1089.74 770.285C1089.75 770.297 1089.76 770.308 1089.77 770.317C1091.29 771.825 1115.74 793.449 1101.63 816.416C1087.53 839.382 1058.56 827.946 1056.54 826.928C1056.53 826.92 1056.51 826.915 1056.5 826.914C1056.48 826.913 1056.47 826.916 1056.45 826.922C1056.44 826.929 1056.43 826.938 1056.42 826.95C1056.41 826.962 1056.4 826.977 1056.4 826.991C1056.01 829.186 1050.02 859.642 1023.17 859.997C996.331 860.352 988.538 830.488 988.031 828.428C988.028 828.415 988.022 828.403 988.013 828.393C988.005 828.382 987.994 828.374 987.982 828.368C987.97 828.362 987.957 828.359 987.944 828.358C987.93 828.358 987.917 828.36 987.905 828.365C986.014 829.225 958.529 841.055 942.611 815.603C926.693 790.15 949.534 772.03 951.156 770.791C951.167 770.783 951.176 770.772 951.183 770.76C951.189 770.747 951.193 770.734 951.193 770.72C951.193 770.706 951.189 770.692 951.183 770.68C951.176 770.667 951.167 770.657 951.156 770.649C949.573 769.228 926.574 747.864 943.893 722.088C960.507 697.495 987.019 710.297 989.139 711.37Z" stroke="black" stroke-width="20" stroke-miterlimit="10"/>
<path d="M784.139 711.37C784.153 711.379 784.168 711.384 784.185 711.384C784.201 711.385 784.217 711.38 784.231 711.372C784.245 711.364 784.256 711.352 784.264 711.338C784.271 711.323 784.275 711.307 784.273 711.291C784.273 708.797 785.302 676.51 819.251 679.154C819.251 679.154 847.732 681.648 850.383 712.609C850.384 712.623 850.389 712.637 850.397 712.649C850.404 712.661 850.414 712.672 850.427 712.679C850.439 712.687 850.453 712.692 850.467 712.693C850.481 712.695 850.496 712.693 850.509 712.688C852.55 711.899 881.024 700.802 895.843 724.526C910.661 748.25 886.404 768.865 884.766 770.175C884.756 770.184 884.748 770.195 884.743 770.207C884.737 770.219 884.734 770.233 884.734 770.246C884.734 770.26 884.737 770.273 884.743 770.285C884.748 770.297 884.756 770.308 884.766 770.317C886.285 771.825 910.74 793.449 896.634 816.416C882.527 839.382 853.563 827.946 851.538 826.928C851.525 826.92 851.511 826.915 851.496 826.914C851.481 826.913 851.466 826.916 851.453 826.922C851.439 826.929 851.427 826.938 851.419 826.95C851.41 826.962 851.405 826.977 851.403 826.991C851.008 829.186 845.019 859.642 818.175 859.997C791.331 860.352 783.538 830.488 783.031 828.428C783.028 828.415 783.022 828.403 783.013 828.393C783.005 828.382 782.994 828.374 782.982 828.368C782.97 828.362 782.957 828.359 782.944 828.358C782.93 828.358 782.917 828.36 782.905 828.365C781.014 829.225 753.529 841.055 737.611 815.603C721.693 790.15 744.534 772.03 746.156 770.791C746.167 770.783 746.176 770.772 746.183 770.76C746.189 770.747 746.193 770.734 746.193 770.72C746.193 770.706 746.189 770.692 746.183 770.68C746.176 770.667 746.167 770.657 746.156 770.649C744.573 769.228 721.574 747.864 738.893 722.088C755.507 697.495 782.019 710.297 784.139 711.37Z" stroke="black" stroke-width="20" stroke-miterlimit="10"/>
</g>
<defs>
<clipPath id="clip0_924_580">
<rect width="1500" height="1500" fill="white"/>
</clipPath>
</defs>
      <g clip-path="url(#clip0_708_47)">
<path d="M897.736 617.618L881.079 614.086C881.079 614.086 866.198 610.584 860.384 617.618C854.569 624.652 841.111 606.134 840.193 611.058C839.274 615.983 793.249 617.114 793.249 617.114H752.868C752.868 617.114 707.792 611.654 689.772 617.618C671.751 623.583 639.012 615.842 634.752 617.114C630.492 618.385 581.862 619.445 579.732 621.15C577.602 622.856 570.252 648.711 568.122 650.417C565.992 652.122 563.499 671.226 563.075 682.711C562.651 694.196 552.848 701.805 552.475 709.455C552.101 717.104 532.062 737.631 528.236 750.387C524.409 763.143 519.059 764.607 515.233 772.256C511.407 779.906 495.375 780.814 492.407 784.639C489.439 788.464 477.133 791.996 473.731 796.245C469.593 801.754 467.564 805.947 461.899 809.869C454.64 814.804 452.248 815.551 452.248 815.551C452.248 815.551 418.156 814.471 415.016 815.753C411.876 817.034 366.558 827.409 366.558 827.409L354.595 824.381C354.595 824.381 379.228 837.894 374.968 823.009C370.707 808.123 368.173 826.036 365.226 806.195C362.278 786.355 359.653 780.269 354.979 765.687C350.305 751.104 346.468 735.613 342.683 721.161C338.897 706.709 342.683 691.39 342.683 691.39C342.683 691.39 344.005 664.828 348.043 648.388C352.081 631.949 353.575 624.995 353.999 621.342C354.423 617.689 364.63 590.128 365.478 588.039C366.326 585.95 390.999 520.857 390.999 520.857L420.437 490.238L487.561 425.175C487.561 425.175 603.658 389.854 610.069 386.705C616.479 383.556 630.906 380.105 632.188 379.257C633.47 378.41 674.942 363.907 682.604 360.507C690.266 357.106 701.472 362.283 707.842 360.507C714.213 358.73 750.334 357.065 757.562 356.217C764.791 355.37 784.82 344.733 803.637 346.126C822.455 347.518 852.378 345.742 874.578 348.921C896.777 352.1 938.704 362.151 938.704 362.151L1069.02 429.898L1161.55 513.278L1222 627.932L1216.9 708.445C1193 617 1172.07 598.525 1172.07 598.525C1172.07 598.525 1118.32 617.618 1025.79 611.401C1023.83 610.978 970.06 617.78 967.395 615.6C964.729 613.42 918.937 614.086 918.937 614.086L897.736 617.618Z" fill="#53B6F9"/>
<path d="M445 548.267C445 548.267 492.54 607.041 554.165 553.465C615.791 499.89 579.238 451 579.238 451L549.47 495.244L511.846 524.868L451.261 545.672L445 548.267Z" fill="#FFBF44"/>
<path d="M1040 401.139C1040 401.139 1087.44 365.088 1144.64 422.698C1201.84 480.308 1183.05 513.346 1183.05 513.346L1177.62 528C1177.62 528 1096.93 442.694 1093.26 441.323C1089.59 439.953 1040 401.139 1040 401.139Z" fill="#FFBF44"/>
<path d="M415 549C514.964 549 596 468.187 596 368.5C596 268.813 514.964 188 415 188C315.036 188 234 268.813 234 368.5C234 468.187 315.036 549 415 549Z" fill="#53B6F9"/>
<path d="M1118.11 214.423C1118.11 214.423 1237.35 183.413 1333.33 308.069C1429.3 432.726 1261.74 581.54 1261.74 581.54L1213.76 597L1176.8 539.157C1176.8 539.157 1216.31 505.594 1154.46 434.32C1092.6 363.046 1032.37 401.917 1032.37 401.917L954 367.547C954 367.547 992.035 241.548 1118.11 214.423Z" fill="#53B6F9"/>
<path d="M382.963 196C353.376 233.807 321.435 344.205 406.162 418.812C487.757 490.662 552.594 462.703 580.026 434.192C580.988 416.977 583.944 398.87 591.031 403.254L592.761 388.062L683.035 361.849C702.871 361.177 743.957 361.546 749.605 368.402C755.254 375.258 742.209 380.332 734.98 382.013C652.674 415.888 611.253 475.439 600.83 500.98L585.7 450.066L588.746 423.32C586.494 426.81 583.573 430.505 580.026 434.192C579.71 439.858 579.609 445.427 579.648 450.066L541.32 505.517C545.859 514.087 559.072 530.218 575.614 526.185C592.156 522.152 563.342 546.685 546.868 559.456C534.214 565.141 510.466 573.455 490.471 574.471L501.479 580.124L543.337 570.546C495.538 630.231 489.799 731.858 492.905 775.21C470.042 790.333 417.963 821.386 392.545 824.612C367.127 827.838 356.738 810.161 354.721 800.919L347.156 711.694L354.721 635.575L389.519 551.894H440.728C438.218 549.461 436.658 547.546 435.917 546.349C396.243 555.255 303.582 547.156 250.326 443.513C183.755 313.959 304.288 214.148 382.963 196Z" fill="#001647" fill-opacity="0.2"/>
<path d="M1204 224.23C1109.99 250.846 1072.04 345.886 1064.81 390.078L1079.43 395.119C1095.91 397.136 1124.12 401.975 1105.15 405.201C1086.19 408.427 1080.1 427.718 1079.43 436.959L1039.59 409.738L960.917 367.898C968.818 342.021 999.245 280.285 1057.75 240.361C1116.25 200.436 1179.62 212.971 1204 224.23Z" fill="#001647" fill-opacity="0.2"/>
<path d="M595 386.03C632.39 374.373 647.497 361.12 729.543 361.12C747.775 361.12 743.743 360.71 759.899 356.878C824.369 341.584 944.158 332.988 1084.58 445.709C1251.35 579.581 1230.85 692.837 1207.22 733" stroke="black" stroke-width="22" stroke-miterlimit="10"/>
<path d="M1175.05 614.543C1181.1 613.962 1185.53 608.588 1184.95 602.541C1184.37 596.494 1179 592.063 1172.95 592.644L1175.05 614.543ZM571.098 632.245L560.118 631.595L571.098 632.245ZM376.743 826.963L376.036 815.985L376.022 815.986L376.008 815.987L376.743 826.963ZM359.309 814.04L348.596 816.536L348.598 816.546L359.309 814.04ZM1172.95 592.644C893.968 619.452 602.922 605.25 590.57 605.25V627.25C601.41 627.25 894.673 641.486 1175.05 614.543L1172.95 592.644ZM590.57 605.25C574.091 605.25 561.042 615.966 560.118 631.595L582.079 632.894C582.169 631.37 582.789 630.159 583.856 629.241C584.947 628.303 587.03 627.25 590.57 627.25V605.25ZM560.118 631.595C555.888 703.131 519.577 748.317 479.304 776.263C438.586 804.516 394.182 814.817 376.036 815.985L377.45 837.94C399.315 836.532 447.622 825.024 491.845 794.338C536.513 763.343 577.375 712.459 582.079 632.894L560.118 631.595ZM376.008 815.987C374.652 816.078 373.306 815.684 372.209 814.871L359.109 832.545C364.398 836.465 370.908 838.378 377.478 837.938L376.008 815.987ZM372.209 814.871C371.112 814.057 370.334 812.876 370.02 811.534L348.598 816.546C350.097 822.954 353.82 828.625 359.109 832.545L372.209 814.871ZM370.022 811.544C360.562 770.933 340.975 663.055 398.226 552.042L378.673 541.958C317.789 660.015 338.757 774.297 348.596 816.536L370.022 811.544Z" fill="black"/>
<path d="M1040 406.92C1040 406.92 1077.75 364.311 1148.52 433.85C1215.3 499.446 1177.16 539 1177.16 539" stroke="black" stroke-width="22" stroke-miterlimit="10"/>
<path d="M1213.36 603C1247.34 592.982 1278.06 574.1 1302.37 548.283C1326.68 522.467 1343.72 490.643 1351.74 456.064C1376.8 348.198 1309.88 240.392 1202.25 215.271C1094.63 190.151 987.064 257.23 962 365.106" stroke="black" stroke-width="22" stroke-miterlimit="10"/>
<path d="M415 549C514.964 549 596 468.187 596 368.5C596 268.813 514.964 188 415 188C315.036 188 234 268.813 234 368.5C234 468.187 315.036 549 415 549Z" stroke="black" stroke-width="22" stroke-miterlimit="10"/>
<path d="M440 547.868C440 547.868 481.455 608.65 556.206 551.527C632.92 492.91 577.894 441 577.894 441" stroke="black" stroke-width="22" stroke-miterlimit="10"/>
</g>
<defs>
<clipPath id="clip0_708_47">
<rect width="1500" height="1500" fill="white"/>
</clipPath>
</defs>
      
    </g>
    </svg>