<svg
      xmlns="http://www.w3.org/2000/svg"
      preserveAspectRatio="xMidYMin meet"
      fill="none"
      viewBox="0 0 1500 1500"
    >
      <g>
      <path fill="url(#prefix__paint0_linear_53_30460)" d="M0 0h1500v1500H0z"/><defs><linearGradient id="prefix__paint0_linear_53_30460" x1="0" y1="0" x2="1500" y2="1500" gradientUnits="userSpaceOnUse">
<stop stop-color="#F1FFBA"/>
<stop offset="1" stop-color="#65DCBA"/>
</linearGradient></defs>
      <g clip-path="url(#clip0_483_466)">
<path d="M388.5 1416.5L352.5 1511L1142 1512L1129 1431.5L1070.5 1276L1007 1176L1042 1113L1028 1043.5C1005.33 1055.83 926.6 1079 793 1073C659.4 1067 549.333 1018.83 511 995.5C492.833 1014.83 453.2 1067.2 440 1122C426.8 1176.8 459.5 1220.83 477.5 1236L388.5 1416.5Z" fill="#53B6F9"/>
<path d="M353.698 1511C350.413 1508.73 360.049 1471.27 412.869 1339.62C429.682 1297.72 453.924 1259.56 477.605 1226C485.368 1215 376 1149.5 506.5 995L661 1046.5L683.5 1051C662.368 1062.33 708.557 1043.79 690 1058.04C521.079 1187.75 456.033 1424.17 443.158 1511H353.698Z" fill="#001647" fill-opacity="0.2"/>
<path d="M358.5 1507.5C371.341 1452.7 410.793 1338.13 480.097 1232M553.5 1137.5C526.081 1166.82 501.646 1199 480.097 1232M480.097 1232C440.958 1203.88 392.15 1116.57 509.46 992.073C509.77 991.743 510.252 991.637 510.651 991.852C600.161 1040.15 826.624 1117.43 1022.78 1043.27C1023.2 1043.11 1023.69 1043.26 1023.95 1043.63C1058.52 1092.29 1025.8 1150.61 1005.51 1174.4C1005.21 1174.76 1005.18 1175.25 1005.46 1175.62C1045.94 1229.92 1124.17 1371.22 1141.5 1507.5M721 1157C757.667 1176.33 851.2 1204.5 932 1162.5M1013.5 1319C1024.83 1354.33 1048.1 1443.9 1050.5 1519.5M667 1361.5C661.166 1392.33 650.3 1467.1 653.5 1519.5" stroke="black" stroke-width="22" stroke-linecap="round"/>
<path d="M913.864 1358.04L911.602 1362.76H926.191L928.413 1358.04H913.864ZM920.116 1345.06L917.856 1349.75H932.351L934.56 1345.06H920.121H920.116ZM920.116 1345.06L917.856 1349.75H932.351L934.56 1345.06H920.121H920.116ZM911.608 1362.75H926.197L928.419 1358.04H913.865L911.603 1362.75H911.608ZM979.288 1364.34L946.433 1286.09C945.911 1284.83 945.135 1283.8 944.186 1283.09C943.274 1282.4 942.22 1282.03 941.155 1282H941.07C939.991 1282 938.908 1282.36 937.948 1283.05L937.947 1283.06C936.986 1283.74 936.164 1284.74 935.574 1285.94L935.561 1285.97L935.546 1286L898.122 1363.8L898.108 1363.83L898.093 1363.87C897.483 1365.18 897.129 1366.68 897.076 1368.2L897.076 1368.27C897.038 1369.8 897.311 1371.31 897.851 1372.65L897.87 1372.7L897.889 1372.74C898.452 1374.06 899.283 1375.17 900.289 1375.94C901.322 1376.74 902.515 1377.16 903.733 1377.16H973.274C974.408 1377.16 975.542 1376.78 976.552 1376.06L976.569 1376.05L976.585 1376.04C977.62 1375.28 978.489 1374.19 979.098 1372.88L979.167 1372.74C979.387 1372.29 979.551 1371.81 979.663 1371.31C979.915 1370.43 980.057 1369.52 980.075 1368.59C980.11 1367.1 979.836 1365.62 979.285 1364.33L979.288 1364.34ZM938.965 1288.64C939.178 1288.21 939.476 1287.84 939.824 1287.6C940.176 1287.35 940.569 1287.22 940.959 1287.22C941.347 1287.22 941.733 1287.36 942.069 1287.62C942.401 1287.86 942.677 1288.23 942.857 1288.67L944.719 1293.1L930.749 1322.17H948.999L946.113 1315.31L945.248 1317.6H937.221L946.672 1297.97L960.454 1330.96H918.668L938.965 1288.64ZM903.857 1371.96C903.358 1371.96 902.867 1371.78 902.446 1371.46C902.029 1371.13 901.685 1370.68 901.449 1370.13C901.216 1369.56 901.106 1368.92 901.121 1368.28C901.142 1367.64 901.291 1367.01 901.549 1366.46L916.26 1335.84H947.162L930.084 1371.96H903.857ZM975.633 1370.33C975.402 1370.83 975.072 1371.24 974.679 1371.53C974.282 1371.81 973.838 1371.96 973.393 1371.96H934.365L951.447 1335.84H962.511L968.893 1350.9H960.497L958.08 1345.32H955.183L947.126 1362.48H965.357L962.524 1355.67H970.96L975.709 1366.95C975.927 1367.45 976.031 1368.02 976.019 1368.6C976.007 1369.17 975.87 1369.82 975.629 1370.32L975.633 1370.33ZM920.111 1345.06L917.851 1349.75H932.346L934.555 1345.06H920.116H920.111ZM911.603 1362.75H926.192L928.414 1358.04H913.865L911.603 1362.75Z" fill="white"/>
</g>
<defs>
<clipPath id="clip0_483_466">
<rect width="1500" height="1500" fill="white"/>
</clipPath>
</defs>
      <g clip-path="url(#clip0_497_1194)">
<path d="M379.667 654.812C432.345 471.574 618.472 401.981 699.114 390.653C740.985 382.718 849.655 375.215 949.364 408.675C980 418.956 1049.88 457.388 1091.92 499.818C1144.47 552.856 1272.97 732.052 1185.05 927.725C1097.12 1123.4 758.414 1092.29 612.749 1051.82C464.472 1010.63 314.48 881.563 379.667 654.812Z" fill="#AABBFF"/>
<path d="M449.293 747.204C454.734 531.068 585.306 432.345 649.911 410C432.292 459.565 365.296 655.455 364 747.204C377.99 984.871 584.496 1053.43 681 1058C601.498 1044.46 443.853 963.339 449.293 747.204Z" fill="#001647" fill-opacity="0.2"/>
<path d="M379.667 654.812C432.345 471.574 618.472 401.981 699.114 390.653C740.985 382.718 849.655 375.215 949.364 408.675C980 418.956 1049.88 457.388 1091.92 499.818C1144.47 552.856 1272.97 732.052 1185.05 927.725C1097.12 1123.4 758.414 1092.29 612.749 1051.82C464.472 1010.63 314.48 881.563 379.667 654.812Z" stroke="black" stroke-width="22" stroke-linecap="round"/>
</g>
<defs>
    <clipPath id="prefix__clip0_299_662"><path fill="#fff" d="M0 0h1500v1500H0z"/></clipPath>
</defs>
      <g clip-path="url(#clip0_624_3550)">
<path d="M860.753 778.254C855.989 772.147 849.895 767.208 842.935 763.81C835.975 760.413 828.332 758.647 820.587 758.647C812.842 758.647 805.198 760.413 798.238 763.81C791.278 767.208 785.184 772.147 780.42 778.254" stroke="black" stroke-width="22" stroke-miterlimit="10" stroke-linecap="round"/>
<path d="M870.881 910.959C896.594 937.099 946.448 937.099 972.168 910.959" stroke="black" stroke-width="22" stroke-miterlimit="10" stroke-linecap="round"/>
<path d="M1052.5 778.254C1047.74 772.147 1041.64 767.208 1034.68 763.81C1027.72 760.413 1020.08 758.647 1012.33 758.647C1004.59 758.647 996.946 760.413 989.985 763.81C983.025 767.208 976.931 772.147 972.167 778.254" stroke="black" stroke-width="22" stroke-miterlimit="10" stroke-linecap="round"/>
</g>
<defs>
<clipPath id="clip0_624_3550">
<rect width="1500" height="1500" fill="white"/>
</clipPath>
</defs>
      <g clip-path="url(#clip0_840_2513)">
<path d="M691 957.5L701.5 894L714.5 863.5L740 855L901 863.5L1076 851L1103 847.5L1129 859.5L1140 892.5L1130 957.5L1111.5 1013.5L1075.5 1037L980.5 1068L869.5 1084L723 1073L687.5 1060.5V1017L691 957.5Z" fill="#4AEEB9"/>
<path d="M864.5 1078C810.5 1078 763.5 944 783.5 859.5L753 854.5L726.5 856.5L708 870.5L689.5 972.5L680.5 1034L704.5 1066.5L747.5 1078H864.5Z" fill="#001647" fill-opacity="0.2"/>
<path d="M370 697C401.167 729.333 503.36 809.8 700.16 887M379.5 853.5C413.167 883.5 523.917 956.8 687.117 1010M1132.53 876.5C1144.36 872.167 1191.5 848.4 1211.5 828M721 1073.5V1073.5C700.907 1070.71 686.155 1052.49 686.594 1032.21C687.501 990.382 688.367 931.545 704.989 876.761C710.804 857.597 731.009 847.753 750.813 850.733C828.071 862.358 965.043 869.001 1087.71 846.808C1107.13 843.295 1128 855.049 1132.09 874.357C1138.88 906.434 1141.36 954.7 1106.5 1019C995 1094 801 1084.83 721 1073.5Z" stroke="black" stroke-width="22" stroke-linecap="round"/>
</g>
<defs>
<clipPath id="clip0_840_2513">
<rect width="1500" height="1500" fill="white"/>
</clipPath>
</defs>
      <g clip-path="url(#clip0_786_1335)">
<path d="M711.94 381.541L669.138 415.004L754.914 456.956C786.09 456.451 856.04 454.579 886.429 451.127C916.817 447.675 946.703 430.594 957.848 422.485L912.882 387.272L890.772 360.146L852.07 352.844L816.711 388.83L811.119 369.892L779.2 357.196L748.101 362.456L711.94 381.541Z" fill="#AABBFF"/>
<path d="M754.823 451.145C758.386 440.393 766.661 423.631 780.081 411.559M882.17 449.083C878.062 439.675 870.922 425.659 859.411 414.501M670.743 416.037C678.291 403.405 696.028 378.1 722.448 377.672C724.832 377.634 727.122 377.712 729.323 377.895M780.081 411.559C789.433 403.145 801.285 397.009 815.783 396.774C818.147 396.736 820.438 396.825 822.658 397.03M780.081 411.559C771.884 400.903 758.35 380.305 729.323 377.895M953.095 422.563C946.826 410.677 929.573 387.795 908.089 385.052M859.411 414.501C864.186 404.755 879.655 385.169 903.328 384.785C904.936 384.759 906.524 384.852 908.089 385.052M859.411 414.501C850.192 405.565 838.17 398.463 822.658 397.03M729.323 377.895C734.108 368.72 747.587 350.309 768.512 349.97C795.461 349.534 817.557 375.809 822.658 397.03M908.089 385.052C903.334 374.267 889.367 351.713 871.612 352C849.419 352.36 832.274 370.674 822.592 392.964" stroke="black" stroke-width="22" stroke-linecap="round"/>
<path d="M578.342 529.026L580.903 574.676L573.558 641.424L541.958 690.124L571.134 698.373L600.225 661.577L613.863 564.569L601.322 530.004L578.342 529.026Z" fill="#AABBFF"/>
<path d="M1139.83 540.333C1139.83 540.333 1184 600 1203.86 668.503L1271.13 595.241C1271.13 595.241 1319.3 524.486 1316.49 455.043C1313.68 385.601 1306.56 371.446 1306.56 371.446C1306.56 371.446 1285.74 366.946 1271.38 405.791C1257.03 444.635 1188.69 511.68 1188.69 511.68L1139.83 540.333Z" fill="white"/>
<path d="M577.575 617.574C572.014 654.171 552.526 680.899 543.477 689.689L457.683 659.514C438.151 644.169 392.443 604.99 365.863 571.028C339.284 537.067 325.561 467.554 322.022 437.042C322.274 411.53 324.944 354.292 333.609 329.438C342.273 304.584 357.767 337.973 364.431 357.774L406.445 440.636L498.074 510.096L574.218 531.854C577.654 545.179 583.137 580.977 577.575 617.574Z" fill="white"/>
<path d="M466.093 567.787C428.919 538.18 403.201 462.017 394.989 427.637L355.218 327.355L344.026 319.872L319.632 410.917L323.564 483.149L374.176 587.396L469.802 657.026L574.26 695.503C582.646 690.522 600.53 675.602 604.977 655.774C610.536 630.988 523.21 613.279 466.093 567.787Z" fill="#001647" fill-opacity="0.2"/>
<path d="M1162.65 588.921L1136.68 544.786L1162.77 531.383L1207.41 493.748L1249.13 442.475L1279.26 381.202L1298.54 375.016C1277.26 498.723 1187.69 582.561 1179.43 590.812C1176.39 593.856 1173.74 595.177 1171.58 595.583C1167.57 596.337 1164.72 592.44 1162.65 588.921Z" fill="#001647" fill-opacity="0.2"/>
<path d="M563.938 527.191C528.276 526.494 408.125 510.55 360.58 331.185C356.991 317.681 337.781 317.754 334.391 331.312C311.881 421.356 296.754 610.964 536.115 686.572C538.423 687.301 540.889 687.37 543.234 686.773C545.579 686.177 547.712 684.937 549.391 683.194C563.277 668.771 594.614 625.064 576.443 537.472C575.828 534.597 574.257 532.015 571.986 530.148C569.715 528.281 566.878 527.239 563.938 527.191V527.191Z" stroke="black" stroke-width="22" stroke-miterlimit="10"/>
<path d="M1129.71 540.325C1178.22 525.244 1241.52 485.03 1281.71 381.645C1287.94 365.606 1311.52 368.492 1313.74 385.551C1323.7 462.274 1324.4 593.506 1200.33 668.438" stroke="black" stroke-width="22" stroke-miterlimit="10"/>
<path d="M536.114 686.573L561.679 693.356C568.785 695.24 576.686 693.505 581.478 687.923C589.198 678.913 591.232 676.968 599.72 656.981" stroke="black" stroke-width="22" stroke-miterlimit="10" stroke-linecap="round"/>
<path d="M563.938 527.193L584.689 528.077C596.568 528.582 604.191 532.91 607.588 549.5C613.886 580.256 611.001 600.061 611.001 600.061" stroke="black" stroke-width="22" stroke-miterlimit="10" stroke-linecap="round"/>
</g>
<defs>
<clipPath id="clip0_786_1335">
<rect width="1500" height="1500" fill="white"/>
</clipPath>
</defs>
      
    </g>
    </svg>