<svg
      xmlns="http://www.w3.org/2000/svg"
      preserveAspectRatio="xMidYMin meet"
      fill="none"
      viewBox="0 0 1500 1500"
    >
      <g>
      <path fill="url(#prefix__a1)" d="M0 0h1500v1500H0z"/><defs><linearGradient id="prefix__a1" x1="1500" y1="1500" x2="0" y2="0" gradientUnits="userSpaceOnUse">
<stop stop-color="#1555D1"/>
<stop offset="1" stop-color="#70E5FF"/>
</linearGradient></defs>
      <g clip-path="url(#clip0_495_785)">
<path d="M773 1011.5C543.4 1029.9 398.667 1353.5 355 1513H1138.5C1075.7 1127 868.667 1017.83 773 1011.5Z" fill="#99C4CB"/>
<path d="M741.5 1213C709.1 1241.4 650.333 1194.17 625 1167V1132.5L645 1105L708 1115.5C732.667 1136.17 773.9 1184.6 741.5 1213Z" fill="#AABBFF"/>
<path d="M768 1276.5C727.6 1271.7 715.833 1297.17 715 1310.5L735 1330.5L788.5 1320C798.5 1307.5 808.4 1281.3 768 1276.5Z" fill="#AABBFF"/>
<path d="M951.5 1230C920.3 1206.4 962.833 1169.17 988 1153.5L1033.5 1224.5C1019.17 1236.17 982.7 1253.6 951.5 1230Z" fill="#AABBFF"/>
<path d="M896 1383C837.2 1378.2 830.833 1440 835 1471.5L853 1506L935 1514L948.5 1492C955.5 1457.67 954.8 1387.8 896 1383Z" fill="#AABBFF"/>
<path d="M499.5 1441.5C527.1 1434.3 552 1481.5 561 1506H484.5C478 1487.5 471.9 1448.7 499.5 1441.5Z" fill="#AABBFF"/>
<path d="M749.5 1019.5C536 1134 457.448 1414.63 443.159 1511H353.699C350.414 1508.73 357.049 1471.27 409.87 1339.62C462.691 1207.98 569.086 1113.24 605.384 1082.33L674 1033.5L749.5 1019.5Z" fill="#001647" fill-opacity="0.2"/>
<path d="M922 1520C946 1484.4 906 1407 874 1393.5L911.5 1389.5L946 1428L951.5 1480.5C945.167 1492.67 930.4 1517.6 922 1520Z" fill="#001647" fill-opacity="0.2"/>
<path d="M756.253 1287.62L756 1287.5L794.5 1289.5L797.5 1314L760.5 1321.5C792.277 1304.12 768.339 1293.15 756.253 1287.62Z" fill="#001647" fill-opacity="0.2"/>
<path d="M702 1125.5C738 1171 718.5 1206.5 694.5 1214H740.5L749.5 1175.5L702 1125.5Z" fill="#001647" fill-opacity="0.2"/>
<path d="M1007 1190C1020.6 1214.8 989 1229 967 1233L982.5 1251L1030 1235C1032.67 1230.67 1037.6 1221.5 1036 1219.5C1034.4 1217.5 1013.67 1197.67 1007 1190Z" fill="#001647" fill-opacity="0.2"/>
<path d="M539 1507C526.6 1474.2 511.5 1453.5 496 1451.5L511.5 1440L546 1468L558.5 1503.5L539 1507Z" fill="#001647" fill-opacity="0.2"/>
<path d="M353.5 1519.5C365.5 1454.33 414.5 1313.6 483.5 1219C530.101 1155.11 577.468 1101.29 629.141 1059.66C710.278 994.299 826.037 996.323 905.02 1064.27C1000.08 1146.05 1103.44 1290.29 1142.5 1519.5M1013.5 1319C1024.83 1354.33 1048.1 1443.9 1050.5 1519.5M667 1361.5C661.167 1392.33 650.3 1467.1 653.5 1519.5M483.499 1507C478.166 1485.5 474.899 1441.7 504.499 1438.5C534.099 1435.3 555.166 1482.83 562 1507M981.5 1149L981.007 1149.41C962.792 1164.59 924.217 1196.72 948 1232C965.191 1257.5 1016 1242.17 1035 1225M856.5 1507C835.833 1479.83 821 1406.97 869 1386C922.5 1362.62 987.5 1471 929.5 1519M621.925 1133.67C614.574 1149.68 616.744 1169.44 643 1190.5C721.865 1253.76 753 1210 750 1179.5C747.464 1153.72 723.458 1126.72 693.232 1112.72C667.618 1100.86 633.703 1108.01 621.925 1133.67ZM724.656 1288.1C719.198 1292.29 715.187 1297.25 713.999 1303C707.5 1334.5 761.668 1337.41 785.999 1321C789.948 1318.34 792.733 1315.31 794.516 1312.09C810.942 1282.34 751.613 1267.4 724.656 1288.1Z" stroke="black" stroke-width="22" stroke-linecap="round"/>
</g>
<defs>
<clipPath id="clip0_495_785">
<rect width="1500" height="1500" fill="white"/>
</clipPath>
</defs>
      <g clip-path="url(#clip0_497_1194)">
<path d="M379.667 654.812C432.345 471.574 618.472 401.981 699.114 390.653C740.985 382.718 849.655 375.215 949.364 408.675C980 418.956 1049.88 457.388 1091.92 499.818C1144.47 552.856 1272.97 732.052 1185.05 927.725C1097.12 1123.4 758.414 1092.29 612.749 1051.82C464.472 1010.63 314.48 881.563 379.667 654.812Z" fill="#AABBFF"/>
<path d="M449.293 747.204C454.734 531.068 585.306 432.345 649.911 410C432.292 459.565 365.296 655.455 364 747.204C377.99 984.871 584.496 1053.43 681 1058C601.498 1044.46 443.853 963.339 449.293 747.204Z" fill="#001647" fill-opacity="0.2"/>
<path d="M379.667 654.812C432.345 471.574 618.472 401.981 699.114 390.653C740.985 382.718 849.655 375.215 949.364 408.675C980 418.956 1049.88 457.388 1091.92 499.818C1144.47 552.856 1272.97 732.052 1185.05 927.725C1097.12 1123.4 758.414 1092.29 612.749 1051.82C464.472 1010.63 314.48 881.563 379.667 654.812Z" stroke="black" stroke-width="22" stroke-linecap="round"/>
</g>
<defs>
    <clipPath id="prefix__clip0_299_662"><path fill="#fff" d="M0 0h1500v1500H0z"/></clipPath>
</defs>
      <g clip-path="url(#clip0_624_2936)">
<path d="M876.088 925.246H970.501" stroke="black" stroke-width="22" stroke-linecap="round"/>
<path d="M864.633 785.967L846.559 774.78L827.213 762.8L802.666 747.607" stroke="black" stroke-width="22" stroke-linecap="round"/>
<path d="M848.206 782.713C848.206 786.612 847.063 790.425 844.918 793.681C842.773 796.937 839.721 799.492 836.139 801.032C832.557 802.571 828.602 803.027 824.764 802.342C820.925 801.657 817.372 799.862 814.544 797.179C811.715 794.495 809.735 791.042 808.848 787.245C807.962 783.448 808.208 779.475 809.556 775.817C810.904 772.158 813.295 768.976 816.434 766.662C819.572 764.348 823.319 763.006 827.213 762.8L846.546 774.8C847.638 777.295 848.203 779.989 848.206 782.713Z" fill="black" stroke="black" stroke-width="22" stroke-linecap="round"/>
<path d="M1024.63 747.607L1000.09 762.8L980.739 774.78L962.666 785.967" stroke="black" stroke-width="22" stroke-linecap="round"/>
<path d="M979.094 782.713C979.094 786.612 980.237 790.425 982.382 793.681C984.527 796.937 987.579 799.492 991.161 801.032C994.743 802.571 998.698 803.027 1002.54 802.342C1006.37 801.657 1009.93 799.862 1012.76 797.179C1015.59 794.495 1017.57 791.042 1018.45 787.245C1019.34 783.448 1019.09 779.475 1017.74 775.817C1016.4 772.158 1014 768.976 1010.87 766.662C1007.73 764.348 1003.98 763.006 1000.09 762.8L980.754 774.8C979.662 777.295 979.097 779.989 979.094 782.713Z" fill="black" stroke="black" stroke-width="22" stroke-linecap="round"/>
</g>
<defs>
<clipPath id="clip0_624_2936">
<rect width="1500" height="1500" fill="white"/>
</clipPath>
</defs>
      <g clip-path="url(#clip0_924_508)">
<path d="M582.499 804.5C582.499 810.023 586.976 814.5 592.499 814.5C598.022 814.5 602.499 810.023 602.499 804.5H582.499ZM747.333 760L622.499 760L622.499 780L747.333 780L747.333 760ZM582.499 800V804.5H602.499V800H582.499ZM622.499 760C600.408 760 582.499 777.908 582.499 800H602.499C602.499 788.954 611.453 780 622.499 780L622.499 760Z" fill="black"/>
<path d="M894.386 769.667H939.5" stroke="black" stroke-width="20" stroke-miterlimit="10"/>
<path d="M989.139 711.37C989.153 711.379 989.168 711.384 989.185 711.384C989.201 711.385 989.217 711.38 989.231 711.372C989.245 711.364 989.256 711.352 989.264 711.338C989.271 711.323 989.275 711.307 989.273 711.291C989.273 708.797 990.302 676.51 1024.25 679.154C1024.25 679.154 1052.73 681.648 1055.38 712.609C1055.38 712.623 1055.39 712.637 1055.4 712.649C1055.4 712.661 1055.41 712.672 1055.43 712.679C1055.44 712.687 1055.45 712.692 1055.47 712.693C1055.48 712.695 1055.5 712.693 1055.51 712.688C1057.55 711.899 1086.02 700.802 1100.84 724.526C1115.66 748.25 1091.4 768.865 1089.77 770.175C1089.76 770.184 1089.75 770.195 1089.74 770.207C1089.74 770.219 1089.73 770.233 1089.73 770.246C1089.73 770.26 1089.74 770.273 1089.74 770.285C1089.75 770.297 1089.76 770.308 1089.77 770.317C1091.29 771.825 1115.74 793.449 1101.63 816.416C1087.53 839.382 1058.56 827.946 1056.54 826.928C1056.53 826.92 1056.51 826.915 1056.5 826.914C1056.48 826.913 1056.47 826.916 1056.45 826.922C1056.44 826.929 1056.43 826.938 1056.42 826.95C1056.41 826.962 1056.4 826.977 1056.4 826.991C1056.01 829.186 1050.02 859.642 1023.17 859.997C996.331 860.352 988.538 830.488 988.031 828.428C988.028 828.415 988.022 828.403 988.013 828.393C988.005 828.382 987.994 828.374 987.982 828.368C987.97 828.362 987.957 828.359 987.944 828.358C987.93 828.358 987.917 828.36 987.905 828.365C986.014 829.225 958.529 841.055 942.611 815.603C926.693 790.15 949.534 772.03 951.156 770.791C951.167 770.783 951.176 770.772 951.183 770.76C951.189 770.747 951.193 770.734 951.193 770.72C951.193 770.706 951.189 770.692 951.183 770.68C951.176 770.667 951.167 770.657 951.156 770.649C949.573 769.228 926.574 747.864 943.893 722.088C960.507 697.495 987.019 710.297 989.139 711.37Z" fill="#4AEEB9" stroke="black" stroke-width="20" stroke-miterlimit="10"/>
<path d="M784.139 711.37C784.153 711.379 784.168 711.384 784.185 711.384C784.201 711.385 784.217 711.38 784.231 711.372C784.245 711.364 784.256 711.352 784.264 711.338C784.271 711.323 784.275 711.307 784.273 711.291C784.273 708.797 785.302 676.51 819.251 679.154C819.251 679.154 847.732 681.648 850.383 712.609C850.384 712.623 850.389 712.637 850.397 712.649C850.404 712.661 850.414 712.672 850.427 712.679C850.439 712.687 850.453 712.692 850.467 712.693C850.481 712.695 850.496 712.693 850.509 712.688C852.55 711.899 881.024 700.802 895.843 724.526C910.661 748.25 886.404 768.865 884.766 770.175C884.756 770.184 884.748 770.195 884.743 770.207C884.737 770.219 884.734 770.233 884.734 770.246C884.734 770.26 884.737 770.273 884.743 770.285C884.748 770.297 884.756 770.308 884.766 770.317C886.285 771.825 910.74 793.449 896.634 816.416C882.527 839.382 853.563 827.946 851.538 826.928C851.525 826.92 851.511 826.915 851.496 826.914C851.481 826.913 851.466 826.916 851.453 826.922C851.439 826.929 851.427 826.938 851.419 826.95C851.41 826.962 851.405 826.977 851.403 826.991C851.008 829.186 845.019 859.642 818.175 859.997C791.331 860.352 783.538 830.488 783.031 828.428C783.028 828.415 783.022 828.403 783.013 828.393C783.005 828.382 782.994 828.374 782.982 828.368C782.97 828.362 782.957 828.359 782.944 828.358C782.93 828.358 782.917 828.36 782.905 828.365C781.014 829.225 753.529 841.055 737.611 815.603C721.693 790.15 744.534 772.03 746.156 770.791C746.167 770.783 746.176 770.772 746.183 770.76C746.189 770.747 746.193 770.734 746.193 770.72C746.193 770.706 746.189 770.692 746.183 770.68C746.176 770.667 746.167 770.657 746.156 770.649C744.573 769.228 721.574 747.864 738.893 722.088C755.507 697.495 782.019 710.297 784.139 711.37Z" fill="#4AEEB9" stroke="black" stroke-width="20" stroke-miterlimit="10"/>
<path d="M1054 770C1054 788.336 1039.34 803 1021.5 803C1003.66 803 989 788.336 989 770C989 751.664 1003.66 737 1021.5 737C1039.34 737 1054 751.664 1054 770Z" fill="#FFBF44" stroke="black" stroke-width="20"/>
<path d="M849 770C849 788.336 834.339 803 816.5 803C798.661 803 784 788.336 784 770C784 751.664 798.661 737 816.5 737C834.339 737 849 751.664 849 770Z" fill="#FFBF44" stroke="black" stroke-width="20"/>
<path d="M1010.55 731.17C1006.77 701.733 1023.94 686.472 1032.99 685.021C1021.34 681.539 998.775 687.791 993.525 691.352C991.687 694.122 987.618 700.294 986.043 702.826C984.074 705.991 982.893 709.552 981.712 709.948C980.531 710.344 964.78 711.531 963.993 711.531C963.205 711.531 943.517 719.84 943.124 720.631C942.73 721.422 935.249 740.414 935.249 741.206C935.249 741.839 938.924 764.418 940.761 775.628C938.53 780.904 933.673 792.959 932.098 798.973C930.523 804.987 948.242 823.108 957.299 831.417L987.224 833.395L1016.76 859.905C1031.72 860.301 1059.6 859.668 1035.66 853.97C1011.72 848.272 1009.14 821.537 1010.85 811.382C1009.8 809.14 1003.45 804.418 1002.19 803.469C1000.61 802.282 989.193 795.016 988.8 794.225C988.406 793.433 983.287 785.124 982.893 767.319C982.578 753.076 1004.25 738.952 1010.55 731.17Z" fill="#001647" fill-opacity="0.2"/>
<path d="M805.55 731.17C801.77 701.733 818.938 686.472 827.994 685.021C816.339 681.539 793.775 687.791 788.525 691.352C786.687 694.122 782.618 700.294 781.043 702.826C779.074 705.991 777.893 709.552 776.712 709.948C775.531 710.344 759.78 711.531 758.993 711.531C758.205 711.531 738.517 719.84 738.124 720.631C737.73 721.422 730.249 740.414 730.249 741.206C730.249 741.839 733.924 764.418 735.761 775.628C733.53 780.904 728.673 792.959 727.098 798.973C725.523 804.987 743.242 823.108 752.299 831.417L782.224 833.395L811.756 859.905C826.719 860.301 854.597 859.668 830.657 853.97C806.716 848.272 804.144 821.537 805.85 811.382C804.8 809.14 798.447 804.418 797.187 803.469C795.612 802.282 784.193 795.016 783.8 794.225C783.406 793.433 778.287 785.124 777.893 767.319C777.578 753.076 799.25 738.952 805.55 731.17Z" fill="#001647" fill-opacity="0.2"/>
<path d="M989.139 711.37C989.153 711.379 989.168 711.384 989.185 711.384C989.201 711.385 989.217 711.38 989.231 711.372C989.245 711.364 989.256 711.352 989.264 711.338C989.271 711.323 989.275 711.307 989.273 711.291C989.273 708.797 990.302 676.51 1024.25 679.154C1024.25 679.154 1052.73 681.648 1055.38 712.609C1055.38 712.623 1055.39 712.637 1055.4 712.649C1055.4 712.661 1055.41 712.672 1055.43 712.679C1055.44 712.687 1055.45 712.692 1055.47 712.693C1055.48 712.695 1055.5 712.693 1055.51 712.688C1057.55 711.899 1086.02 700.802 1100.84 724.526C1115.66 748.25 1091.4 768.865 1089.77 770.175C1089.76 770.184 1089.75 770.195 1089.74 770.207C1089.74 770.219 1089.73 770.233 1089.73 770.246C1089.73 770.26 1089.74 770.273 1089.74 770.285C1089.75 770.297 1089.76 770.308 1089.77 770.317C1091.29 771.825 1115.74 793.449 1101.63 816.416C1087.53 839.382 1058.56 827.946 1056.54 826.928C1056.53 826.92 1056.51 826.915 1056.5 826.914C1056.48 826.913 1056.47 826.916 1056.45 826.922C1056.44 826.929 1056.43 826.938 1056.42 826.95C1056.41 826.962 1056.4 826.977 1056.4 826.991C1056.01 829.186 1050.02 859.642 1023.17 859.997C996.331 860.352 988.538 830.488 988.031 828.428C988.028 828.415 988.022 828.403 988.013 828.393C988.005 828.382 987.994 828.374 987.982 828.368C987.97 828.362 987.957 828.359 987.944 828.358C987.93 828.358 987.917 828.36 987.905 828.365C986.014 829.225 958.529 841.055 942.611 815.603C926.693 790.15 949.534 772.03 951.156 770.791C951.167 770.783 951.176 770.772 951.183 770.76C951.189 770.747 951.193 770.734 951.193 770.72C951.193 770.706 951.189 770.692 951.183 770.68C951.176 770.667 951.167 770.657 951.156 770.649C949.573 769.228 926.574 747.864 943.893 722.088C960.507 697.495 987.019 710.297 989.139 711.37Z" stroke="black" stroke-width="20" stroke-miterlimit="10"/>
<path d="M784.139 711.37C784.153 711.379 784.168 711.384 784.185 711.384C784.201 711.385 784.217 711.38 784.231 711.372C784.245 711.364 784.256 711.352 784.264 711.338C784.271 711.323 784.275 711.307 784.273 711.291C784.273 708.797 785.302 676.51 819.251 679.154C819.251 679.154 847.732 681.648 850.383 712.609C850.384 712.623 850.389 712.637 850.397 712.649C850.404 712.661 850.414 712.672 850.427 712.679C850.439 712.687 850.453 712.692 850.467 712.693C850.481 712.695 850.496 712.693 850.509 712.688C852.55 711.899 881.024 700.802 895.843 724.526C910.661 748.25 886.404 768.865 884.766 770.175C884.756 770.184 884.748 770.195 884.743 770.207C884.737 770.219 884.734 770.233 884.734 770.246C884.734 770.26 884.737 770.273 884.743 770.285C884.748 770.297 884.756 770.308 884.766 770.317C886.285 771.825 910.74 793.449 896.634 816.416C882.527 839.382 853.563 827.946 851.538 826.928C851.525 826.92 851.511 826.915 851.496 826.914C851.481 826.913 851.466 826.916 851.453 826.922C851.439 826.929 851.427 826.938 851.419 826.95C851.41 826.962 851.405 826.977 851.403 826.991C851.008 829.186 845.019 859.642 818.175 859.997C791.331 860.352 783.538 830.488 783.031 828.428C783.028 828.415 783.022 828.403 783.013 828.393C783.005 828.382 782.994 828.374 782.982 828.368C782.97 828.362 782.957 828.359 782.944 828.358C782.93 828.358 782.917 828.36 782.905 828.365C781.014 829.225 753.529 841.055 737.611 815.603C721.693 790.15 744.534 772.03 746.156 770.791C746.167 770.783 746.176 770.772 746.183 770.76C746.189 770.747 746.193 770.734 746.193 770.72C746.193 770.706 746.189 770.692 746.183 770.68C746.176 770.667 746.167 770.657 746.156 770.649C744.573 769.228 721.574 747.864 738.893 722.088C755.507 697.495 782.019 710.297 784.139 711.37Z" stroke="black" stroke-width="20" stroke-miterlimit="10"/>
</g>
<defs>
<clipPath id="clip0_924_508">
<rect width="1500" height="1500" fill="white"/>
</clipPath>
</defs>
      <g clip-path="url(#clip0_602_1907)">
<path d="M1224.5 677C1256.1 650.2 1196 608.166 1162 590.5C1162.45 567.232 1145.45 503.24 1093.47 444.5C1213 261 926.5 136.5 881 335.265C844.422 329.83 803.411 328.286 757.5 331.862C744.874 332.845 757.5 238.5 604.5 251.5C511.877 259.37 492 358.5 503 412.879C390.229 489.646 355.407 600.914 354.5 664.5L414.5 657L585 641.5L677.5 700.5L746 715.5L795 706.5L864.5 683L951 641.5L1027 629C1040.67 630 1078.8 633.9 1122 641.5C1176 651 1185 710.5 1224.5 677Z" fill="#9E6740"/>
<path d="M724.875 371.345C725.536 375.495 725.945 379.681 726.101 383.883C726.765 402.18 714.096 417.278 697.249 419.231C696.527 419.331 695.796 419.432 695.074 419.532C670.37 423.064 649.742 437.278 636.41 457.336C626.707 471.978 607.794 475.779 593.114 466.233C570.72 451.687 552.244 427.01 547.858 397.341C539.113 338.187 574.464 297.704 622.323 290.296C670.389 282.86 716.603 319.365 724.875 371.345Z" fill="#E8CE99"/>
<path d="M1063.31 417.843C1060.94 420.626 1058.39 423.247 1055.66 425.688C1043.86 436.281 1025.91 435.162 1014.18 423.644C1013.67 423.152 1013.16 422.66 1012.64 422.168C994.957 405.655 972.646 398.064 951.031 399.2C935.23 400.048 920.976 387.996 918.247 371.754C914.091 347.022 920.287 321.001 937.363 301.316C967.248 266.847 1019.2 264.752 1053.81 296.439C1088.64 328.278 1092.92 382.984 1063.31 417.843Z" fill="#E8CE99"/>
<path d="M918 513C740.4 509.8 610.667 597.833 577.5 639.5L635 613.5L746 568.5L911.5 542.5L1081.5 557L1179.5 596C1166.33 568 1095.6 516.2 918 513Z" fill="#001647" fill-opacity="0.2"/>
<path d="M1168 594.006C1158.42 532.939 1130.32 484.195 1092.5 446.054M587 645C504.576 640.341 411.449 660.485 365.869 671.92C359.115 673.614 352.724 668.147 353.784 661.265C364.358 592.606 407.165 491.449 502.923 419M587 645C621.5 612.167 730.5 548 894.5 542C1079.59 535.228 1192.54 594.489 1230.03 642.496C1236.7 651.039 1235.02 662.819 1228.03 671.106V671.106C1218.11 682.881 1200.55 684.175 1188.11 675.098C1145.41 643.936 1080.11 612.042 1002 628C892.783 650.313 790 754 669.5 701.5L587 645ZM760.5 331.03C772.511 330.35 784.842 330 797.5 330C820.716 330 847.474 332.538 875.786 338" stroke="black" stroke-width="22" stroke-linecap="round"/>
<path d="M631.501 519.5C590.667 514.5 485.698 469.887 498.501 358.5C513.5 228 672.434 223.958 730 283C769 323 783.501 389.5 753.501 443" stroke="black" stroke-width="22" stroke-linecap="round"/>
<path d="M887.42 422.022C874.921 384.041 866.066 299.721 920.694 258.604C990.41 206.13 1074.85 233.374 1109.24 299.084C1137.24 352.557 1112.94 433.516 1060.65 466" stroke="black" stroke-width="22" stroke-linecap="round"/>
<path d="M581 508C528.6 560.4 511.167 623.833 509 649L443 655L357 670V655L377.5 578.5L435 481L502 420L497.5 339.5C520.7 264.3 587.833 251.5 618.5 254.5C591.167 266.833 534.5 300.5 531.5 364C528.291 431.932 544 464.5 628 512L581 508Z" fill="#001647" fill-opacity="0.2"/>
<path d="M1017 242.5C933.4 246.9 898.167 362.667 891 420H878.5C856.5 392 852.667 356.333 853.5 342L861.5 343.5L874 339.5L886 296.5L918 259.5L967.5 232L1017 242.5Z" fill="#001647" fill-opacity="0.2"/>
<path d="M918 513C740.4 509.8 610.667 597.833 577.5 639.5L635 613.5L746 568.5L911.5 542.5L1081.5 557L1179.5 596C1166.33 568 1095.6 516.2 918 513Z" fill="#001647" fill-opacity="0.2"/>
</g>
<defs>
<clipPath id="clip0_602_1907">
<rect width="1500" height="1500" fill="white"/>
</clipPath>
</defs>
      
    </g>
    </svg>