<svg
      xmlns="http://www.w3.org/2000/svg"
      preserveAspectRatio="xMidYMin meet"
      fill="none"
      viewBox="0 0 1500 1500"
    >
      <g>
      <path fill="url(#prefix__paint0_linear_53_30463)" d="M0 0h1500v1500H0z"/><defs><linearGradient id="prefix__paint0_linear_53_30463" x1="1500" y1="1500" x2="0" y2="0" gradientUnits="userSpaceOnUse">
<stop stop-color="#FF5A5A"/>
<stop offset="1" stop-color="#FFBDBD"/>
</linearGradient></defs>
      <g clip-path="url(#clip0_483_586)">
<path d="M773 1011.5C543.4 1029.9 398.667 1353.5 355 1513H1138.5C1075.7 1127 868.667 1017.83 773 1011.5Z" fill="#FF6247"/>
<path d="M962.5 1126C854.1 1166.8 658.333 1130.67 574 1107.5C598 1077.17 671.6 1016.1 774 1014.5C876.4 1012.9 942.333 1088.17 962.5 1126Z" fill="white"/>
<path d="M409.87 1339.62C462.691 1207.98 569.086 1113.24 605.384 1082.33L674 1033.5L749.5 1019.5C701.059 1045.48 674.372 1081.51 639 1120.5L648.5 1131.5L832 1155C723.6 1169.8 633.231 1154.83 601.597 1145.5C497.4 1275.38 453.489 1441.33 443.159 1511H353.699C350.414 1508.73 357.049 1471.27 409.87 1339.62Z" fill="#001647" fill-opacity="0.2"/>
<path d="M353.5 1519.5C365.5 1454.33 414.5 1313.6 483.5 1219C530.101 1155.11 577.468 1101.29 629.141 1059.66C710.278 994.299 826.037 996.323 905.02 1064.27C1000.08 1146.05 1103.44 1290.29 1142.5 1519.5M1013.5 1319C1024.83 1354.33 1048.1 1443.9 1050.5 1519.5M667 1361.5C661.167 1392.33 650.3 1467.1 653.5 1519.5M650.709 1114.61L701.499 1022.5M715.831 1124.68L740.999 1017M779.554 1134.48L776.499 1017M847.516 1137.5L802.499 1017M906.146 1132.43L844.499 1028M583 1106C661.315 1137.44 846.556 1163.72 963 1128.29" stroke="black" stroke-width="22" stroke-linecap="round"/>
</g>
<defs>
<clipPath id="clip0_483_586">
<rect width="1500" height="1500" fill="white"/>
</clipPath>
</defs>
      <g clip-path="url(#clip0_497_1194)">
<path d="M379.667 654.812C432.345 471.574 618.472 401.981 699.114 390.653C740.985 382.718 849.655 375.215 949.364 408.675C980 418.956 1049.88 457.388 1091.92 499.818C1144.47 552.856 1272.97 732.052 1185.05 927.725C1097.12 1123.4 758.414 1092.29 612.749 1051.82C464.472 1010.63 314.48 881.563 379.667 654.812Z" fill="#AABBFF"/>
<path d="M449.293 747.204C454.734 531.068 585.306 432.345 649.911 410C432.292 459.565 365.296 655.455 364 747.204C377.99 984.871 584.496 1053.43 681 1058C601.498 1044.46 443.853 963.339 449.293 747.204Z" fill="#001647" fill-opacity="0.2"/>
<path d="M379.667 654.812C432.345 471.574 618.472 401.981 699.114 390.653C740.985 382.718 849.655 375.215 949.364 408.675C980 418.956 1049.88 457.388 1091.92 499.818C1144.47 552.856 1272.97 732.052 1185.05 927.725C1097.12 1123.4 758.414 1092.29 612.749 1051.82C464.472 1010.63 314.48 881.563 379.667 654.812Z" stroke="black" stroke-width="22" stroke-linecap="round"/>
</g>
<defs>
    <clipPath id="prefix__clip0_299_662"><path fill="#fff" d="M0 0h1500v1500H0z"/></clipPath>
</defs>
      <g clip-path="url(#clip0_624_3534)">
<path d="M780.422 771.992C785.186 778.098 791.28 783.038 798.24 786.435C805.2 789.833 812.843 791.599 820.589 791.599C828.334 791.599 835.977 789.833 842.937 786.435C849.897 783.038 855.991 778.098 860.755 771.992" stroke="black" stroke-width="22" stroke-miterlimit="10" stroke-linecap="round"/>
<path d="M972.16 771.992C976.925 778.098 983.018 783.038 989.979 786.435C996.939 789.833 1004.58 791.599 1012.33 791.599C1020.07 791.599 1027.71 789.833 1034.68 786.435C1041.64 783.038 1047.73 778.098 1052.49 771.992" stroke="black" stroke-width="22" stroke-miterlimit="10" stroke-linecap="round"/>
<path d="M922.5 961C929.521 961 936.385 958.918 942.223 955.017C948.061 951.116 952.611 945.572 955.298 939.085C957.985 932.598 958.688 925.461 957.318 918.574C955.948 911.688 952.567 905.362 947.602 900.398C942.638 895.433 936.312 892.052 929.426 890.682C922.539 889.312 915.402 890.015 908.915 892.702C902.428 895.389 896.884 899.939 892.983 905.777C889.082 911.615 887 918.479 887 925.5C887 934.915 890.74 943.945 897.398 950.602C904.055 957.26 913.085 961 922.5 961Z" fill="black" stroke="black" stroke-width="22" stroke-miterlimit="10" stroke-linecap="round"/>
</g>
<defs>
<clipPath id="clip0_624_3534">
<rect width="1500" height="1500" fill="white"/>
</clipPath>
</defs>
      <g clip-path="url(#clip0_924_758)">
<path d="M821.495 847C840.486 847.001 858.799 839.939 872.871 827.186C886.943 814.433 895.769 796.902 897.631 778.002C899.493 759.103 894.26 740.186 882.947 724.932C871.635 709.678 855.053 699.176 836.427 695.471C817.801 691.765 798.462 695.12 782.173 704.883C765.883 714.646 753.808 730.119 748.295 748.292C742.781 766.465 744.225 786.039 752.344 803.207C760.464 820.375 774.679 833.909 792.224 841.177C801.504 845.02 811.45 846.999 821.495 847Z" fill="white" fill-opacity="0.5"/>
<path d="M1012.49 852C1031.98 852.001 1050.77 844.477 1065.21 830.891C1079.65 817.304 1088.71 798.627 1090.62 778.493C1092.53 758.358 1087.16 738.205 1075.55 721.954C1063.95 705.702 1046.93 694.515 1027.82 690.567C1008.7 686.619 988.86 690.193 972.145 700.594C955.429 710.995 943.038 727.479 937.381 746.84C931.723 766.201 933.205 787.055 941.536 805.345C949.868 823.635 964.455 838.053 982.459 845.796C991.982 849.891 1002.19 851.999 1012.49 852Z" fill="white" fill-opacity="0.5"/>
<path d="M954.529 715.266C954.529 715.266 954.033 698.956 989.971 694.485L1055.29 830.825C1055.29 830.825 1042.69 845.543 1016.43 844.719L954.529 715.266Z" fill="white" fill-opacity="0.5"/>
<path d="M1002.09 701.909C1002.09 701.909 998.763 704.646 1011.14 696.723L1069.22 815.049C1069.22 815.049 1073 819.935 1062.94 822.012L1002.09 701.909Z" fill="white" fill-opacity="0.5"/>
<path d="M763.529 715.266C763.529 715.266 763.033 698.956 798.971 694.485L864.291 830.825C864.291 830.825 851.694 845.543 825.432 844.719L763.529 715.266Z" fill="white" fill-opacity="0.5"/>
<path d="M811.088 701.909C811.088 701.909 807.763 704.646 820.138 696.723L878.219 815.049C878.219 815.049 881.997 819.935 871.937 822.012L811.088 701.909Z" fill="white" fill-opacity="0.5"/>
<path d="M1012.53 850C1031.16 849.993 1049.2 843.527 1063.59 831.706C1077.99 819.884 1087.84 803.437 1091.46 785.169C1095.09 766.9 1092.26 747.939 1083.48 731.518C1074.69 715.096 1060.48 702.23 1043.27 695.112C1026.06 687.993 1006.91 687.063 989.089 692.479C971.269 697.896 955.878 709.324 945.54 724.816C935.202 740.309 930.556 758.907 932.393 777.441C934.23 795.975 942.437 813.299 955.616 826.46C970.717 841.54 991.189 850.007 1012.53 850V850Z" stroke="black" stroke-width="20" stroke-miterlimit="10"/>
<path d="M821.494 850C841.479 850.001 860.749 842.569 875.557 829.15C890.365 815.73 899.652 797.282 901.612 777.395C903.572 757.507 898.064 737.601 886.16 721.549C874.256 705.497 856.807 694.447 837.207 690.548C817.608 686.648 797.258 690.179 780.117 700.452C762.975 710.725 750.268 727.007 744.467 746.131C738.665 765.254 740.184 785.852 748.729 803.917C757.273 821.983 772.231 836.225 790.694 843.872C800.459 847.917 810.925 849.999 821.494 850Z" stroke="black" stroke-width="20" stroke-miterlimit="10"/>
<path d="M582.499 804.5C582.499 810.023 586.976 814.5 592.499 814.5C598.022 814.5 602.499 810.023 602.499 804.5H582.499ZM622.499 770L622.499 780L622.499 770ZM741.333 760L622.499 760L622.499 780L741.333 780L741.333 760ZM582.499 800V804.5H602.499V800H582.499ZM622.499 760C600.408 760 582.499 777.908 582.499 800H602.499C602.499 788.954 611.453 780 622.499 780L622.499 760Z" fill="black"/>
<path d="M894.386 769.667H939.5" stroke="black" stroke-width="20" stroke-miterlimit="10"/>
</g>
<defs>
<clipPath id="clip0_924_758">
<rect width="1500" height="1500" fill="white"/>
</clipPath>
</defs>
      <path d="M1004 728.5C860.4 737.3 638.833 681.5 546 652.5L816 605.5H966C1021.2 594.7 1143.67 619 1198 632.5C1220.5 644.334 1265.7 671.6 1266.5 686C1267.5 704 1183.5 717.5 1004 728.5Z" fill="#265CC2"/>
<path d="M316 543.5L352.5 610.5L519.499 583.5L751.999 546.5L1013 542.5L1183.5 568L1219.5 468.5C1239.67 433.5 1238.3 362.3 1071.5 317.5C904.699 272.7 708.333 302.167 630.999 322.5C583.166 343 468.8 394.3 394 435.5C319.2 476.7 310.833 521.334 316 543.5Z" fill="#265CC2"/>
<path d="M356.5 608L368 683.5L517.5 647.5L721 623L909 607.5H1086.5L1194 632.5L1188.5 571.5L1117 553.5L958.5 538L618 566L356.5 608Z" fill="#FFBF44"/>
<path d="M580.501 573.5C568.901 596.3 567.667 629.667 568.501 643.5L369.5 684L357.5 612.5L580.501 573.5Z" fill="#001647" fill-opacity="0.2"/>
<path d="M695 301C632.6 340.6 618.667 494.833 619.5 567L350 607.5L318.5 556V503.5L346.5 456.5L428.5 397L603.5 321.5L695 301Z" fill="#001647" fill-opacity="0.2"/>
<path d="M357 612C354.6 636 364.667 668.334 368.5 681.5C413.37 671.347 470.05 659.873 533 648.922M357 612C557.1 568.838 1002.51 500.275 1183.3 572.283C1186.04 573.372 1188.02 575.607 1188.79 578.447C1192.39 591.621 1197.42 616.496 1196 636M357 612C330.667 589.167 289.9 538.9 337.5 480.5C397 407.5 636.999 282 888.999 293C1141 304 1227 367.5 1224 443C1221.6 503.4 1193 548.833 1179 569M1196 636C1064.06 577.22 758.351 609.72 533 648.922M1196 636C1217.76 645.41 1235.12 656.965 1248.06 667.676C1264.29 681.115 1259.01 702.632 1238.43 707.12C1194.6 716.677 1111.42 724.968 974.5 723C779.7 720.2 599 674.782 533 648.922" stroke="black" stroke-width="22" stroke-linecap="round"/>
<path d="M947.863 362.822C949.397 357.617 959.095 357.813 960.747 363.083L970.962 395.671C971.687 397.986 974.374 399.667 977.448 399.73L1012.92 400.448C1018.8 400.567 1021.82 406.081 1017.72 409.209L985.96 433.434C984.372 434.645 983.735 436.421 984.272 438.135L996.016 475.603C997.592 480.63 989.664 483.855 984.927 480.115L960.107 460.515C957.495 458.453 953.271 458.367 950.705 460.325L926.316 478.928C921.662 482.478 913.657 478.93 915.12 473.965L926.023 436.956C926.522 435.262 925.844 433.459 924.228 432.184L891.907 406.66C887.734 403.365 890.631 397.971 896.509 398.09L931.983 398.809C935.056 398.871 937.707 397.298 938.38 395.011L947.863 362.822Z" fill="#FFBF44"/>

      
    </g>
    </svg>