<svg
      xmlns="http://www.w3.org/2000/svg"
      preserveAspectRatio="xMidYMin meet"
      fill="none"
      viewBox="0 0 1500 1500"
    >
      <g>
      <path fill="url(#prefix__paint0_linear_53_30463)" d="M0 0h1500v1500H0z"/><defs><linearGradient id="prefix__paint0_linear_53_30463" x1="1500" y1="1500" x2="0" y2="0" gradientUnits="userSpaceOnUse">
<stop stop-color="#FF5A5A"/>
<stop offset="1" stop-color="#FFBDBD"/>
</linearGradient></defs>
      <g clip-path="url(#clip0_1102_43822)">
<path d="M773 1011.5C543.4 1029.9 398.667 1353.5 355 1513H1138.5C1075.7 1127 868.667 1017.83 773 1011.5Z" fill="#F56CDB"/>
<path d="M808.5 1165.5L798 1438L856 1474.5L896.5 1433L852 1163L869 1154L825 1098.5L803.5 1154L808.5 1165.5Z" fill="#3A3A3A"/>
<path d="M769 1151L789 1174L828 1096.5L879 1169.5L895.5 1162L885 1099L854 1033.5L799 1014L781 1067.5L769 1151Z" fill="white"/>
<path d="M775.5 1314.5L769 1174C770.5 1172 774.5 1168.7 778.5 1171.5C782.5 1174.3 791.5 1174.33 795.5 1174L816.5 1162L808 1273.5V1431.5L857 1479.5L894 1428L876 1306.5L851.5 1162L862.5 1158.5L870.5 1171L886 1174H895.5L912.5 1256.5V1421L906 1507L816.5 1504.5L797.5 1446.5L786 1377.5L775.5 1314.5Z" fill="white"/>
<path d="M749.5 1019.5C536 1134 457.448 1414.63 443.159 1511H353.699C350.414 1508.73 357.049 1471.27 409.87 1339.62C462.691 1207.98 569.086 1113.24 605.384 1082.33L674 1033.5L749.5 1019.5Z" fill="#001647" fill-opacity="0.2"/>
<path d="M678.896 1219.72L679 1219.5L730.5 1241.5L719.5 1262.5L686.882 1244.68C677.988 1239.82 674.474 1228.83 678.896 1219.72Z" fill="#001647" fill-opacity="0.2"/>
<path d="M681.576 1320.46L688.5 1313L743 1511H726.5C699.73 1459.32 682.982 1377.71 676.739 1335.82C675.905 1330.22 677.727 1324.6 681.576 1320.46Z" fill="#001647" fill-opacity="0.2"/>
<path d="M846.5 1163L817 1118.5L826.5 1097L862 1152L846.5 1163Z" fill="#001647" fill-opacity="0.2"/>
<path d="M785 1345C782.2 1298.6 789.5 1212.67 793.5 1175.5L796.5 1163H810C809 1225.33 807 1351.6 807 1358C807 1364.4 800 1378 796.5 1384L785 1345Z" fill="#001647" fill-opacity="0.2"/>
<path d="M893.5 1364.5C889.1 1280.9 881 1207 877.5 1180.5L892.5 1168L904.5 1211L910.5 1317L904.5 1393L893.5 1364.5Z" fill="#001647" fill-opacity="0.2"/>
<path d="M875.5 1165L852.5 1087L873.5 1082.33L892.5 1157L875.5 1165Z" fill="#001647" fill-opacity="0.2"/>
<path d="M879.5 1511L889 1450C890.869 1438 902.779 1438.33 908.5 1440L899.5 1511H879.5Z" fill="#001647" fill-opacity="0.2"/>
<path d="M768.498 1017C749.683 1045.07 696.85 1151.63 687.526 1215.84C687.466 1216.24 687.669 1216.63 688.031 1216.84L731.746 1241.13C732.21 1241.38 732.392 1241.96 732.159 1242.44L696.152 1316.43C696.053 1316.63 696.024 1316.86 696.073 1317.08C705.932 1361.02 719.01 1446.25 749.202 1513.1M796.5 1023.5C786.687 1043.22 770.839 1111.23 768.498 1172.05C765.452 1251.21 776.119 1364.72 819.727 1511.42M853.868 1035.5C862.489 1049.62 888.202 1122.63 897.08 1173.23C909.628 1244.75 917.281 1354.82 905.476 1509.42M924.5 1084C931.721 1098.4 954.398 1175.29 962.62 1220.04C962.692 1220.43 962.522 1220.82 962.191 1221.04L939.653 1236.13C939.209 1236.43 939.068 1237 939.343 1237.46C950.523 1256.04 973.65 1296.18 980.791 1314.88C980.843 1315.02 980.862 1315.15 980.852 1315.29C978.17 1351.78 968.492 1441.09 951.08 1508.28M813.981 1165.66C812.009 1218.29 804.412 1385.49 806.233 1433.98C806.24 1434.15 806.285 1434.29 806.375 1434.44C816.072 1449.96 851.746 1473.72 856.882 1477.1C857.26 1477.34 857.724 1477.3 858.055 1476.99C861.76 1473.55 883.178 1453.08 896.927 1426.79C897.026 1426.6 897.065 1426.41 897.031 1426.19C890.239 1383.92 868.036 1241.41 853 1164.5" stroke="black" stroke-width="22" stroke-linecap="round"/>
<path d="M770 1160.89L787.373 1174.98C787.876 1175.39 788.629 1175.22 788.907 1174.63L798.012 1155.46M890 1160.89L878.289 1172.75C877.835 1173.21 877.071 1173.13 876.729 1172.58L865.046 1153.86M798.012 1155.46L826.629 1095.21C826.968 1094.49 827.963 1094.43 828.381 1095.1L865.046 1153.86M798.012 1155.46C800.92 1157.74 805.655 1160.29 811.849 1162.05C821.254 1164.71 834.024 1165.56 848.868 1160.89C854.028 1159.26 859.439 1156.97 865.046 1153.86" stroke="black" stroke-width="22" stroke-linecap="round"/>
<path d="M353.5 1519.5C365.5 1454.33 414.5 1313.6 483.5 1219C530.101 1155.11 577.468 1101.29 629.141 1059.66C710.278 994.299 826.037 996.323 905.02 1064.27C1000.08 1146.05 1103.44 1290.29 1142.5 1519.5M1013.5 1319C1024.83 1354.33 1048.1 1443.9 1050.5 1519.5M667 1361.5C661.167 1392.33 650.3 1467.1 653.5 1519.5" stroke="black" stroke-width="22" stroke-linecap="round"/>
</g>
<defs>
<clipPath id="clip0_1102_43822">
<rect width="1500" height="1500" fill="white"/>
</clipPath>
</defs>
      <g clip-path="url(#clip0_497_1194)">
<path d="M379.667 654.812C432.345 471.574 618.472 401.981 699.114 390.653C740.985 382.718 849.655 375.215 949.364 408.675C980 418.956 1049.88 457.388 1091.92 499.818C1144.47 552.856 1272.97 732.052 1185.05 927.725C1097.12 1123.4 758.414 1092.29 612.749 1051.82C464.472 1010.63 314.48 881.563 379.667 654.812Z" fill="#AABBFF"/>
<path d="M449.293 747.204C454.734 531.068 585.306 432.345 649.911 410C432.292 459.565 365.296 655.455 364 747.204C377.99 984.871 584.496 1053.43 681 1058C601.498 1044.46 443.853 963.339 449.293 747.204Z" fill="#001647" fill-opacity="0.2"/>
<path d="M379.667 654.812C432.345 471.574 618.472 401.981 699.114 390.653C740.985 382.718 849.655 375.215 949.364 408.675C980 418.956 1049.88 457.388 1091.92 499.818C1144.47 552.856 1272.97 732.052 1185.05 927.725C1097.12 1123.4 758.414 1092.29 612.749 1051.82C464.472 1010.63 314.48 881.563 379.667 654.812Z" stroke="black" stroke-width="22" stroke-linecap="round"/>
</g>
<defs>
    <clipPath id="prefix__clip0_299_662"><path fill="#fff" d="M0 0h1500v1500H0z"/></clipPath>
</defs>
      <g clip-path="url(#clip0_624_3522)">
<path d="M822 818C849.062 818 871 796.062 871 769C871 741.938 849.062 720 822 720C794.938 720 773 741.938 773 769C773 796.062 794.938 818 822 818Z" fill="white" stroke="black" stroke-width="20" stroke-miterlimit="10"/>
<path d="M1012 818C1039.06 818 1061 796.062 1061 769C1061 741.938 1039.06 720 1012 720C984.938 720 963 741.938 963 769C963 796.062 984.938 818 1012 818Z" fill="white" stroke="black" stroke-width="20" stroke-miterlimit="10"/>
<path d="M809 770C816.18 770 822 764.18 822 757C822 749.82 816.18 744 809 744C801.82 744 796 749.82 796 757C796 764.18 801.82 770 809 770Z" fill="black"/>
<path d="M1024 770C1031.18 770 1037 764.18 1037 757C1037 749.82 1031.18 744 1024 744C1016.82 744 1011 749.82 1011 757C1011 764.18 1016.82 770 1024 770Z" fill="black"/>
<path d="M988.653 885.957H855.227C854.074 885.957 852.968 886.415 852.153 887.23C851.338 888.045 850.88 889.151 850.88 890.303C850.88 909.026 858.317 926.982 871.556 940.221C884.795 953.46 902.751 960.897 921.474 960.897H922.406C941.129 960.897 959.085 953.46 972.324 940.221C985.562 926.982 993 909.026 993 890.303C993 889.151 992.542 888.045 991.727 887.23C990.912 886.415 989.806 885.957 988.653 885.957Z" fill="white" stroke="black" stroke-width="20" stroke-miterlimit="10"/>
</g>
<defs>
<clipPath id="clip0_624_3522">
<rect width="1500" height="1500" fill="white"/>
</clipPath>
</defs>
      <g clip-path="url(#clip0_925_1145)">
<path d="M1185.05 927.725C1097.12 1123.4 758.414 1092.29 612.749 1051.82C504.292 1021.69 394.918 944.548 369.504 816.551C369.315 815.6 370.389 814.872 371.115 815.515C434.364 871.473 683.76 932.969 904.561 837.979C919.236 831.666 936.246 834.058 950.385 841.496C1012.61 874.234 1135.31 886.116 1210.95 828.952C1211.66 828.418 1212.67 828.985 1212.56 829.865C1208.69 861.649 1200 894.449 1185.05 927.725Z" fill="#3A3A3A" stroke="black" stroke-width="22" stroke-linecap="round"/>
<path d="M703 1070C616.2 1020 547 924 542 873L518 870.5L427.5 847.5L371.5 823C415.5 1007.4 610.833 1064.5 703 1070Z" fill="black" fill-opacity="0.2"/>
</g>
<defs>
<clipPath id="clip0_925_1145">
<rect width="1500" height="1500" fill="white"/>
</clipPath>
</defs>
      <g clip-path="url(#clip0_598_1862)">
<path d="M551.5 554.5L559 615L272 627.5L269.5 576L551.5 554.5Z" fill="#7E5741"/>
<path d="M1168 585C1151.6 556.2 1138.83 539.667 1134.5 535L1254.5 531.5L1260 580.5L1168 585Z" fill="#7E5741"/>
<path d="M1254.5 503C1256.67 540.167 1261 615 1261 617L1377 564L1254.5 503Z" fill="#F6F6F6"/>
<path d="M191 610L141.5 703.5L330.5 686.5L386 624.5L274 631.5L264.5 574L390.5 567.5L333 512L115.5 524L191 610Z" fill="#F6F6F6"/>
<path d="M556.5 612L396 622.084M552 553L392.5 563.837M546.5 536C554.5 550 567.8 591.7 557 630.5M392.5 563.837L275.167 571.809C269.583 572.189 265.398 577.077 265.883 582.652L267.5 601.25M392.5 563.837L339.741 511.232C337.683 509.18 334.834 508.124 331.936 508.341L117.597 524.343C116.757 524.406 116.366 525.416 116.945 526.028L194 607.5M194 607.5L267.5 601.25M194 607.5L137.011 700.844C136.588 701.537 137.125 702.42 137.936 702.362L328.65 688.774C331.128 688.598 333.451 687.506 335.167 685.71L396 622.084M267.5 601.25L269.154 620.274C269.625 625.683 274.325 629.728 279.744 629.388L396 622.084M1258 580L1161 584M1127.5 533L1251 529.5M1253.12 622.042L1382.04 563.883C1382.82 563.534 1382.83 562.438 1382.06 562.07L1244.76 496.101C1243.73 495.607 1242.51 497.208 1243.2 498.118C1256.19 515.305 1272.56 559.054 1251.76 620.774C1251.48 621.607 1252.32 622.404 1253.12 622.042Z" stroke="black" stroke-width="22" stroke-linecap="round"/>
<path d="M1255.5 556L1151.5 560L1166 586L1252.5 581.5V620.5L1371.5 567L1343 548.5L1262 581.5L1255.5 556Z" fill="#001647" fill-opacity="0.2"/>
<path d="M239.5 608.5L189.5 694.5L138 705L186.5 613L239.5 608.5Z" fill="#001647" fill-opacity="0.2"/>
<path d="M558.5 585L271.5 603.5V630L556 613L558.5 585Z" fill="#001647" fill-opacity="0.2"/>
<path d="M235 597.5L164 521.5L123 529L181 600L235 597.5Z" fill="#001647" fill-opacity="0.2"/>
<path d="M711.94 381.541L669.138 415.004L754.914 456.956C786.09 456.451 856.04 454.579 886.429 451.127C916.817 447.675 946.703 430.594 957.848 422.485L912.882 387.272L890.772 360.146L852.07 352.844L816.711 388.83L811.119 369.892L779.2 357.196L748.101 362.456L711.94 381.541Z" fill="#AABBFF"/>
<path d="M754.823 451.145C758.386 440.393 766.661 423.631 780.081 411.559M882.17 449.083C878.062 439.675 870.922 425.659 859.411 414.501M670.743 416.037C678.291 403.405 696.028 378.1 722.448 377.672C724.832 377.634 727.122 377.712 729.323 377.895M780.081 411.559C789.433 403.145 801.285 397.009 815.783 396.774C818.147 396.736 820.438 396.825 822.658 397.03M780.081 411.559C771.884 400.903 758.35 380.305 729.323 377.895M953.095 422.563C946.826 410.677 929.573 387.795 908.089 385.052M859.411 414.501C864.186 404.755 879.655 385.169 903.328 384.785C904.936 384.759 906.524 384.852 908.089 385.052M859.411 414.501C850.192 405.565 838.17 398.463 822.658 397.03M729.323 377.895C734.108 368.72 747.587 350.309 768.512 349.97C795.461 349.534 817.557 375.809 822.658 397.03M908.089 385.052C903.334 374.267 889.367 351.713 871.612 352C849.419 352.36 832.274 370.674 822.592 392.964" stroke="black" stroke-width="22" stroke-linecap="round"/>
</g>
<defs>
<clipPath id="clip0_598_1862">
<rect width="1500" height="1500" fill="white"/>
</clipPath>
</defs>
      
    </g>
    </svg>