<svg
      xmlns="http://www.w3.org/2000/svg"
      preserveAspectRatio="xMidYMin meet"
      fill="none"
      viewBox="0 0 1500 1500"
    >
      <g>
      <path fill="url(#prefix__paint0_linear_53_28788)" d="M0 0h1500v1500H0z"/><defs><linearGradient id="prefix__paint0_linear_53_28788" x1="0" y1="0" x2="1500" y2="1500" gradientUnits="userSpaceOnUse">
<stop stop-color="#DBE4E4"/>
<stop offset="1" stop-color="#A7BDBD"/>
</linearGradient></defs>
      <g clip-path="url(#clip0_491_637)">
<path d="M216 1200.5C231.5 1183.5 291 1148.9 405 1146.5C512.257 1144.24 544.125 1139.15 547.658 1136.47L548 1136C547.99 1136.15 547.88 1136.31 547.658 1136.47L465.5 1250.5L627.5 1261.5C689.833 1263.83 815.9 1268.6 821.5 1269C827.1 1269.4 974.5 1256.83 1047.5 1250.5L1003 1167.5L983.5 1146.5H1058L1180.5 1157L1263 1175.5L1287.5 1191L1299 1220.5V1250.5L1280 1282.5L1267 1297.5L1224 1512H306L258 1297.5L221 1269L216 1200.5Z" fill="#9E6740"/>
<path d="M538 1144L461 1250C404.265 1250 296.238 1229.08 237.86 1216.13L297.5 1238.5L491.5 1256.5L531 1260.5C527.667 1278 523 1318.6 531 1341C623.5 1347 826.1 1357.2 896.5 1350V1359C870.833 1371.5 763.2 1391.1 538 1369.5L558 1506.5H308.5L260 1301.5L224 1272L213.5 1207L222.608 1210.42L213.5 1193.5L260 1170L404 1151L538 1144Z" fill="#001647" fill-opacity="0.2"/>
<path d="M1049.5 1250L984.5 1144H1095L1278.5 1178.5L1295 1199.5L1207.5 1233L1049.5 1250Z" fill="#001647" fill-opacity="0.2"/>
<path d="M754.5 1010.5C640.5 1013.3 508 1174 456 1254C517.833 1254 668.8 1256.2 778 1265C887.2 1273.8 1004.17 1256 1049 1246C995 1161 897 1007 754.5 1010.5Z" fill="#AABBFF"/>
<path d="M465.191 1247C471.745 1236.61 476.52 1228.57 483.5 1219C530.102 1155.11 577.468 1101.29 629.142 1059.66C710.278 994.299 826.063 996.338 905.043 1064.29C954.742 1107.05 1006.7 1166.88 1050.56 1247M1296 1196C1296 1229.69 1045.8 1266 749.5 1266C455.163 1266 216.186 1230.17 213.032 1196.67M1296 1196C1297.74 1210.27 1297.34 1226 1296.19 1240.68C1293.99 1268.76 1273.16 1291.74 1245.55 1297.28C1229.5 1300.5 1211.77 1303.96 1194.5 1307.71M1296 1196C1296 1171.59 1164.61 1150.52 979.5 1140.77M213.032 1196.67C213.011 1196.45 213 1196.22 213 1196M213.032 1196.67C213.021 1196.44 213.01 1196.22 213 1196M213.032 1196.67C213.709 1210.75 215.758 1235.63 219.637 1257.74C223.282 1278.51 239.8 1293.46 260.327 1298.3C286.744 1304.54 321.455 1311.67 363 1318.67M213 1196C213 1170.52 350.375 1148.69 545.5 1139.56M254 1303L313.5 1520.5M1270.5 1287L1221 1520.5M363 1318.67L416 1520.5M363 1318.67C401.252 1325.11 445.298 1331.45 494 1336.86M494 1336.86L528 1520.5M494 1336.86C529.801 1340.85 568.119 1344.34 608.5 1347.02M608.5 1347.02L628.5 1520.5M608.5 1347.02C647.081 1349.58 687.546 1351.4 729.5 1352.2M729.5 1352.2C736.13 1352.32 742.797 1352.43 749.5 1352.5C786.752 1352.92 823.013 1352.23 858 1350.69M729.5 1352.2L737.5 1520.5M858 1350.69L856 1520.5M858 1350.69C899.261 1348.87 938.749 1345.86 976 1342.06M976 1342.06L962.5 1520.5M976 1342.06C1020.65 1337.51 1062.08 1331.83 1099.5 1325.71M1099.5 1325.71L1066 1520.5M1099.5 1325.71C1135.01 1319.91 1166.91 1313.71 1194.5 1307.71M1194.5 1307.71L1151 1520.5M283 1392.5C364.333 1416.33 579.6 1452 790 1452C1000.4 1452 1182.67 1416.33 1247.5 1392.5" stroke="black" stroke-width="22" stroke-linecap="round"/>
</g>
<defs>
<clipPath id="clip0_491_637">
<rect width="1500" height="1500" fill="white"/>
</clipPath>
</defs>
      <g clip-path="url(#clip0_497_1194)">
<path d="M379.667 654.812C432.345 471.574 618.472 401.981 699.114 390.653C740.985 382.718 849.655 375.215 949.364 408.675C980 418.956 1049.88 457.388 1091.92 499.818C1144.47 552.856 1272.97 732.052 1185.05 927.725C1097.12 1123.4 758.414 1092.29 612.749 1051.82C464.472 1010.63 314.48 881.563 379.667 654.812Z" fill="#AABBFF"/>
<path d="M449.293 747.204C454.734 531.068 585.306 432.345 649.911 410C432.292 459.565 365.296 655.455 364 747.204C377.99 984.871 584.496 1053.43 681 1058C601.498 1044.46 443.853 963.339 449.293 747.204Z" fill="#001647" fill-opacity="0.2"/>
<path d="M379.667 654.812C432.345 471.574 618.472 401.981 699.114 390.653C740.985 382.718 849.655 375.215 949.364 408.675C980 418.956 1049.88 457.388 1091.92 499.818C1144.47 552.856 1272.97 732.052 1185.05 927.725C1097.12 1123.4 758.414 1092.29 612.749 1051.82C464.472 1010.63 314.48 881.563 379.667 654.812Z" stroke="black" stroke-width="22" stroke-linecap="round"/>
</g>
<defs>
    <clipPath id="prefix__clip0_299_662"><path fill="#fff" d="M0 0h1500v1500H0z"/></clipPath>
</defs>
      <g clip-path="url(#clip0_624_3550)">
<path d="M860.753 778.254C855.989 772.147 849.895 767.208 842.935 763.81C835.975 760.413 828.332 758.647 820.587 758.647C812.842 758.647 805.198 760.413 798.238 763.81C791.278 767.208 785.184 772.147 780.42 778.254" stroke="black" stroke-width="22" stroke-miterlimit="10" stroke-linecap="round"/>
<path d="M870.881 910.959C896.594 937.099 946.448 937.099 972.168 910.959" stroke="black" stroke-width="22" stroke-miterlimit="10" stroke-linecap="round"/>
<path d="M1052.5 778.254C1047.74 772.147 1041.64 767.208 1034.68 763.81C1027.72 760.413 1020.08 758.647 1012.33 758.647C1004.59 758.647 996.946 760.413 989.985 763.81C983.025 767.208 976.931 772.147 972.167 778.254" stroke="black" stroke-width="22" stroke-miterlimit="10" stroke-linecap="round"/>
</g>
<defs>
<clipPath id="clip0_624_3550">
<rect width="1500" height="1500" fill="white"/>
</clipPath>
</defs>
      <g clip-path="url(#clip0_875_2769)">
<path d="M1110 707V803.467H1089.72V823.747H1069.45V844H968.001V823.747H947.721V803.467H927.407V732.688H906.127V803.467H885.848V823.747H865.568V844H764.121V823.747H743.814V803.467H723.534V732.688H633.959V750.944H611V707H1110Z" fill="black"/>
<path d="M1009 804H988V824H1009V804Z" fill="white"/>
<path d="M988 783H968V804H988V783Z" fill="white"/>
<path d="M968 763H948V783H968V763Z" fill="white"/>
<path d="M805 804H784V824H805V804Z" fill="white"/>
<path d="M784 783H764V804H784V783Z" fill="white"/>
<path d="M764 763H744V783H764V763Z" fill="white"/>
</g>
<defs>
<clipPath id="clip0_875_2769">
<rect width="1500" height="1500" fill="white"/>
</clipPath>
</defs>
      <g clip-path="url(#clip0_499_1435)">
<path d="M376 874C356 831 352 775 353.5 755V739.5L479.5 706.5L646.5 687.5C701.833 680.167 835.3 652.7 926.5 601.5C1017.7 550.3 1130.83 580.167 1176 601.5C1201.2 643.1 1216.5 705.833 1221 732L1264.5 710L1335.5 644L1341 615.5C1327.83 605.667 1301.1 585.7 1299.5 584.5C1297.9 583.3 1248.5 559.333 1224 547.5L1136.5 495L1089 454C1081.5 442.667 1056.4 397.4 1016 307C975.6 216.6 873.5 214 827.5 224C771.167 234.5 635.3 261.6 542.5 286C449.7 310.4 413.5 348.834 407 365L388 489.5L382 584.5L353.5 649L239.5 806.5C247.5 813 267.6 830.8 284 850C300.4 869.2 352.167 874 376 874Z" fill="#4AEEB9"/>
<path d="M492 583.5C467.6 608.3 438.167 685.167 426.5 718L354 749.5C349 784 364 854 378 876L355.5 878L295.5 856.5L245.5 818V802L347 665L378 597L393.5 482.5L403.5 368.5L443.5 329.5L522.5 299.5C495 389.5 498.833 497.667 506.5 543L579.5 512.5L749 467.5L947.5 440.5L1019 452.5L1018.54 455.235C1017.4 462.096 1011.09 466.826 1004.17 466.186C831.696 450.262 592.254 528.165 492 583.5Z" fill="#001647" fill-opacity="0.2"/>
<path d="M1220 730C1215 693 1193 634 1177.5 604.5L1220 610L1289.5 616L1345.5 619.5L1331.5 653.5L1294 695.5L1253 717.5L1220 730Z" fill="#001647" fill-opacity="0.2"/>
<path d="M452.773 571.28C563.116 511.305 821.5 413.5 1022.05 447.163M1215.09 734.367C1293.13 704.467 1331.11 656.617 1344.38 628.399C1347.53 621.702 1345.42 613.97 1339.66 609.317C1322.28 595.265 1287.7 571.775 1238.64 550.176C1193.41 530.262 1142.48 497.329 1108.33 473.151C1090.34 460.41 1078.37 441.255 1070.66 420.597C1047.56 358.685 1006.86 298.749 975.15 260.245C960.236 242.133 938.189 231.705 914.76 230.46C705.301 219.332 524.535 286.218 436.126 335.612C415.641 347.058 402.083 367.059 398.854 390.302C391.558 442.833 384.122 531.205 379.99 587.396C379.192 598.258 376.803 608.945 371.679 618.556C346.078 666.577 283.742 747.752 245.107 795.488C238.55 803.591 239.172 815.376 247.136 822.1C280.405 850.188 338.469 887.386 386 879.581M240.445 809.859C262.016 792.823 333.044 745.637 420.196 720.843C529.137 689.851 641.153 689.404 727.402 672.098C848.466 647.807 916.791 573.215 1047.32 572.025C1177.85 570.835 1187.03 629.968 1339.22 617.077" stroke="black" stroke-width="22" stroke-linecap="round"/>
<path d="M740.287 316.964C739.697 316.936 739.356 317.544 739.718 317.98L754.68 336.018C754.899 336.282 754.87 336.648 754.613 336.868L713.811 371.818C713.51 372.076 713.023 372.029 712.769 371.719L681.849 333.952C681.596 333.643 681.112 333.595 680.811 333.849L617.274 387.689C617.016 387.907 616.984 388.273 617.2 388.538L635.485 410.277C635.74 410.589 636.228 410.635 636.529 410.377L676.614 375.913C676.913 375.656 677.396 375.7 677.653 376.006L710.883 415.16C711.137 415.464 711.616 415.509 711.916 415.258L776.044 361.177C776.334 360.934 776.794 360.967 777.055 361.251L793.818 379.458C794.226 379.9 795.001 379.687 795.046 379.119L797.152 322.314C797.181 321.95 796.87 321.629 796.47 321.61L740.287 316.964Z" fill="white"/>
</g>
<defs>
<clipPath id="clip0_499_1435">
<rect width="1500" height="1500" fill="white"/>
</clipPath>
</defs>
      
    </g>
    </svg>