<svg
      xmlns="http://www.w3.org/2000/svg"
      preserveAspectRatio="xMidYMin meet"
      fill="none"
      viewBox="0 0 1500 1500"
    >
      <g>
      <path fill="url(#prefix__paint0_linear_53_30461)" d="M0 0h1500v1500H0z"/><defs><linearGradient id="prefix__paint0_linear_53_30461" x1="0" y1="0" x2="1500" y2="1533.5" gradientUnits="userSpaceOnUse">
<stop stop-color="#EEB0FC"/>
<stop offset="1" stop-color="#AF55F5"/>
</linearGradient></defs>
      <g clip-path="url(#clip0_491_619)">
<path d="M773 1011.5C868.667 1017.83 1075.7 1127 1138.5 1513H355C359.921 1495.03 366.125 1474.97 373.589 1453.5L307.5 1427.5L266.5 1377C256 1364.5 239.2 1321.9 256 1251.5C272.8 1181.1 242.667 1126.17 225.5 1107.5L253.5 1099C272.5 1107.33 309.9 1138.7 307.5 1197.5C304.5 1271 281.5 1324.5 335.5 1348C378.7 1366.8 401.662 1368.5 407.743 1367C477.87 1208.5 601.859 1025.22 773 1011.5Z" fill="#9E6740"/>
<path d="M749.5 1019.5C536 1134 457.448 1414.63 443.159 1511H353.699C351.701 1509.62 353.374 1495.21 366.884 1454.5L286 1417L243 1331L254 1240L261.5 1199V1151.5L221.5 1109L254 1097L286 1117L308.5 1171L312.5 1229L297.5 1287.5L316 1331L379.5 1360L400.388 1363.5C403.37 1355.91 406.527 1347.95 409.87 1339.62C462.691 1207.98 569.086 1113.24 605.384 1082.33L674 1033.5L749.5 1019.5Z" fill="#001647" fill-opacity="0.2"/>
<path d="M842.5 1261C742.1 1266.2 731.333 1430.83 738.5 1512.5H973C971.333 1426.5 942.9 1255.8 842.5 1261Z" fill="#72411F"/>
<path d="M163 1083.5C179 1124.7 227.667 1106.33 250 1092L269.5 1073.5L263.5 1031.5L241 988L198.5 957L191 978L140.5 963L105.5 978L140.5 1019L116 1035.5C125 1034.33 147 1042.3 163 1083.5Z" fill="#72411F"/>
<path d="M353.5 1519.5C365.5 1454.33 414.5 1313.6 483.5 1219C530.102 1155.11 577.468 1101.29 629.142 1059.66C710.278 994.299 826.037 996.324 905.021 1064.27C1000.08 1146.05 1103.44 1290.29 1142.5 1519.5M1013.5 1319C1024.83 1354.33 1048.1 1443.9 1050.5 1519.5M667 1361.5C661.167 1392.33 650.3 1467.1 653.5 1519.5M404 1364C365.167 1363.67 287.352 1342.63 300 1270C315.5 1181 314 1123 250.5 1094.5M213 1106.19C246.5 1124 279 1159.5 258.5 1237C234.887 1326.27 241 1419 371 1451.5M213 1106.19C222.129 1105.45 231.631 1103.06 241 1099C274.5 1084.5 275.169 1041.43 258.5 1007.5C244.884 979.781 212.348 955.845 192.634 947.654C191.916 947.356 191.17 947.976 191.298 948.743C194.267 966.525 193.499 975.609 190.537 980.239C190.254 980.682 189.647 980.762 189.209 980.47C140.186 947.763 113.943 958.199 98.8749 981.135C98.4667 981.757 98.8732 982.586 99.6102 982.683C122.868 985.739 140.868 1006.33 148.018 1017.86C148.445 1018.54 147.887 1019.41 147.077 1019.38C130 1021 115.858 1029.12 111.622 1034.17C111.257 1034.61 111.405 1035.24 111.9 1035.52C122.498 1041.52 142.466 1047.92 158.5 1079.5C168.451 1099.1 189.49 1108.1 213 1106.19ZM736.888 1512C729.925 1427.33 737.454 1258 843.104 1258C953.004 1258 974.459 1434 978 1522" stroke="black" stroke-width="22" stroke-linecap="round"/>
</g>
<defs>
<clipPath id="clip0_491_619">
<rect width="1500" height="1500" fill="white"/>
</clipPath>
</defs>
      <g clip-path="url(#clip0_497_1194)">
<path d="M379.667 654.812C432.345 471.574 618.472 401.981 699.114 390.653C740.985 382.718 849.655 375.215 949.364 408.675C980 418.956 1049.88 457.388 1091.92 499.818C1144.47 552.856 1272.97 732.052 1185.05 927.725C1097.12 1123.4 758.414 1092.29 612.749 1051.82C464.472 1010.63 314.48 881.563 379.667 654.812Z" fill="#AABBFF"/>
<path d="M449.293 747.204C454.734 531.068 585.306 432.345 649.911 410C432.292 459.565 365.296 655.455 364 747.204C377.99 984.871 584.496 1053.43 681 1058C601.498 1044.46 443.853 963.339 449.293 747.204Z" fill="#001647" fill-opacity="0.2"/>
<path d="M379.667 654.812C432.345 471.574 618.472 401.981 699.114 390.653C740.985 382.718 849.655 375.215 949.364 408.675C980 418.956 1049.88 457.388 1091.92 499.818C1144.47 552.856 1272.97 732.052 1185.05 927.725C1097.12 1123.4 758.414 1092.29 612.749 1051.82C464.472 1010.63 314.48 881.563 379.667 654.812Z" stroke="black" stroke-width="22" stroke-linecap="round"/>
</g>
<defs>
    <clipPath id="prefix__clip0_299_662"><path fill="#fff" d="M0 0h1500v1500H0z"/></clipPath>
</defs>
      <g clip-path="url(#clip0_624_3388)">
<path d="M822 818C849.062 818 871 796.062 871 769C871 741.938 849.062 720 822 720C794.938 720 773 741.938 773 769C773 796.062 794.938 818 822 818Z" fill="white" stroke="black" stroke-width="20" stroke-miterlimit="10"/>
<path d="M1012 818C1039.06 818 1061 796.062 1061 769C1061 741.938 1039.06 720 1012 720C984.938 720 963 741.938 963 769C963 796.062 984.938 818 1012 818Z" fill="white" stroke="black" stroke-width="20" stroke-miterlimit="10"/>
<path d="M837 782C844.18 782 850 776.18 850 769C850 761.82 844.18 756 837 756C829.82 756 824 761.82 824 769C824 776.18 829.82 782 837 782Z" fill="black"/>
<path d="M1027 782C1034.18 782 1040 776.18 1040 769C1040 761.82 1034.18 756 1027 756C1019.82 756 1014 761.82 1014 769C1014 776.18 1019.82 782 1027 782Z" fill="black"/>
<path d="M988.653 960.897H855.227C854.074 960.897 852.968 960.439 852.153 959.624C851.338 958.809 850.88 957.703 850.88 956.551C850.88 937.828 858.317 919.872 871.556 906.633C884.795 893.394 902.751 885.957 921.474 885.957H922.406C941.129 885.957 959.085 893.394 972.324 906.633C985.562 919.872 993 937.828 993 956.551C993 957.703 992.542 958.809 991.727 959.624C990.912 960.439 989.806 960.897 988.653 960.897Z" fill="white" stroke="black" stroke-width="20" stroke-miterlimit="10"/>
</g>
<defs>
<clipPath id="clip0_624_3388">
<rect width="1500" height="1500" fill="white"/>
</clipPath>
</defs>
      <g clip-path="url(#clip0_911_278)">
<path d="M741 865.42V871.56C741.01 872.669 740.781 873.767 740.33 874.78C739.07 877.64 736.99 877.78 736.99 877.78C735.893 878.033 734.754 878.046 733.651 877.818C732.548 877.59 731.507 877.127 730.6 876.46C727.96 874.35 721.36 856.25 721.36 856.25L708.65 876.46H700L717.8 848.25L712.21 836.66C711.84 835.888 711.265 835.233 710.547 834.767C709.828 834.301 708.996 834.043 708.14 834.02H708C707.225 833.94 706.442 834.054 705.721 834.351C705.001 834.647 704.365 835.118 703.87 835.72C702.98 836.61 702.66 839.5 702.66 839.5L700.88 839.63C700.634 837.881 700.59 836.109 700.75 834.35C700.862 833.001 701.324 831.705 702.09 830.59C702.61 829.783 703.325 829.12 704.169 828.664C705.014 828.208 705.96 827.972 706.92 827.98C708.535 827.979 710.11 828.479 711.43 829.41C712.762 830.35 713.801 831.646 714.43 833.15L719.69 846.2L731.13 828.8H739L723.2 853.31L727.14 862.63C727.14 862.63 730.14 871.63 734.45 871.63C738.76 871.63 739.16 865.41 739.16 865.41L741 865.42Z" fill="black"/>
</g>
<defs>
<clipPath id="clip0_911_278">
<rect width="1500" height="1500" fill="white"/>
</clipPath>
</defs>
      <g clip-path="url(#clip0_499_1441)">
<path d="M376 874C356 831 352 775 353.5 755V739.5L479.5 706.5L646.5 687.5C701.833 680.167 835.3 652.7 926.5 601.5C1017.7 550.3 1130.83 580.167 1176 601.5C1201.2 643.1 1216.5 705.833 1221 732L1264.5 710L1335.5 644L1341 615.5C1327.83 605.667 1301.1 585.7 1299.5 584.5C1297.9 583.3 1248.5 559.333 1224 547.5L1136.5 495L1089 454C1081.5 442.667 1056.4 397.4 1016 307C975.6 216.6 873.5 214 827.5 224C771.167 234.5 635.3 261.6 542.5 286C449.7 310.4 413.5 348.834 407 365L388 489.5L382 584.5L353.5 649L239.5 806.5C247.5 813 267.6 830.8 284 850C300.4 869.2 352.167 874 376 874Z" fill="#A760FF"/>
<path d="M492 583.5C467.6 608.3 438.167 685.167 426.5 718L354 749.5C349 784 364 854 378 876L355.5 878L295.5 856.5L245.5 818V802L347 665L378 597L393.5 482.5L403.5 368.5L443.5 329.5L522.5 299.5C495 389.5 498.833 497.667 506.5 543L579.5 512.5L749 467.5L947.5 440.5L1019 452.5L1018.54 455.235C1017.4 462.096 1011.09 466.826 1004.17 466.186C831.696 450.262 592.254 528.165 492 583.5Z" fill="#001647" fill-opacity="0.2"/>
<path d="M1220 730C1215 693 1193 634 1177.5 604.5L1220 610L1289.5 616L1345.5 619.5L1331.5 653.5L1294 695.5L1253 717.5L1220 730Z" fill="#001647" fill-opacity="0.2"/>
<path d="M452.772 571.28C563.115 511.305 821.499 413.5 1022.05 447.163M1215.08 734.367C1293.13 704.467 1331.11 656.617 1344.38 628.399C1347.53 621.702 1345.42 613.97 1339.66 609.317C1322.28 595.265 1287.7 571.775 1238.64 550.176C1193.41 530.262 1142.48 497.329 1108.33 473.151C1090.34 460.41 1078.37 441.255 1070.66 420.597C1047.56 358.685 1006.85 298.749 975.149 260.245C960.235 242.133 938.188 231.705 914.759 230.46C705.3 219.332 524.534 286.218 436.125 335.612C415.64 347.058 402.082 367.059 398.853 390.302C391.557 442.833 384.121 531.205 379.99 587.396C379.191 598.258 376.802 608.945 371.678 618.556C346.077 666.577 283.741 747.752 245.106 795.488C238.549 803.591 239.171 815.376 247.135 822.1C280.404 850.188 338.468 887.386 385.999 879.581M240.444 809.859C262.015 792.823 333.043 745.637 420.195 720.843C529.136 689.851 641.153 689.404 727.401 672.098C848.465 647.807 916.79 573.215 1047.32 572.025C1177.85 570.835 1187.03 629.968 1339.22 617.077" stroke="black" stroke-width="22" stroke-linecap="round"/>
<path d="M778.287 318.16C778.395 318.004 778.345 317.799 778.177 317.709L725.393 288.599C725.124 288.453 724.793 288.697 724.88 288.978L731.374 309.937C731.431 310.12 731.303 310.313 731.1 310.351L681.368 319.643C681.167 319.681 681.039 319.872 681.093 320.054L688.072 349.642C688.12 349.802 688.29 349.898 688.466 349.866L738.337 340.547C738.511 340.515 738.681 340.609 738.73 340.767L745.281 361.91C745.362 362.174 745.74 362.218 745.903 361.983L778.287 318.16ZM664.589 380.771C664.414 380.804 664.245 380.709 664.196 380.552L657.645 359.408C657.564 359.145 657.186 359.101 657.023 359.335L625.578 403.182C625.47 403.338 625.52 403.543 625.688 403.633L677.525 432.707C677.795 432.852 678.125 432.608 678.038 432.328L671.572 411.459C671.516 411.276 671.643 411.083 671.846 411.045L721.578 401.753C721.78 401.715 721.907 401.524 721.853 401.342L714.852 371.665C714.804 371.506 714.634 371.409 714.458 371.442L664.589 380.771Z" fill="white"/>
</g>
<defs>
<clipPath id="clip0_499_1441">
<rect width="1500" height="1500" fill="white"/>
</clipPath>
</defs>
      
    </g>
    </svg>