<svg
      xmlns="http://www.w3.org/2000/svg"
      preserveAspectRatio="xMidYMin meet"
      fill="none"
      viewBox="0 0 1500 1500"
    >
      <g>
      <path fill="url(#prefix__paint0_linear_53_30459)" d="M0 0h1500v1500H0z"/><defs><linearGradient id="prefix__paint0_linear_53_30459" x1="0" y1="0" x2="1500" y2="1500" gradientUnits="userSpaceOnUse">
<stop stop-color="#FFCB9F"/>
<stop offset="1" stop-color="#FF7F11"/>
</linearGradient></defs>
      <g clip-path="url(#clip0_483_466)">
<path d="M388.5 1416.5L352.5 1511L1142 1512L1129 1431.5L1070.5 1276L1007 1176L1042 1113L1028 1043.5C1005.33 1055.83 926.6 1079 793 1073C659.4 1067 549.333 1018.83 511 995.5C492.833 1014.83 453.2 1067.2 440 1122C426.8 1176.8 459.5 1220.83 477.5 1236L388.5 1416.5Z" fill="#53B6F9"/>
<path d="M353.698 1511C350.413 1508.73 360.049 1471.27 412.869 1339.62C429.682 1297.72 453.924 1259.56 477.605 1226C485.368 1215 376 1149.5 506.5 995L661 1046.5L683.5 1051C662.368 1062.33 708.557 1043.79 690 1058.04C521.079 1187.75 456.033 1424.17 443.158 1511H353.698Z" fill="#001647" fill-opacity="0.2"/>
<path d="M358.5 1507.5C371.341 1452.7 410.793 1338.13 480.097 1232M553.5 1137.5C526.081 1166.82 501.646 1199 480.097 1232M480.097 1232C440.958 1203.88 392.15 1116.57 509.46 992.073C509.77 991.743 510.252 991.637 510.651 991.852C600.161 1040.15 826.624 1117.43 1022.78 1043.27C1023.2 1043.11 1023.69 1043.26 1023.95 1043.63C1058.52 1092.29 1025.8 1150.61 1005.51 1174.4C1005.21 1174.76 1005.18 1175.25 1005.46 1175.62C1045.94 1229.92 1124.17 1371.22 1141.5 1507.5M721 1157C757.667 1176.33 851.2 1204.5 932 1162.5M1013.5 1319C1024.83 1354.33 1048.1 1443.9 1050.5 1519.5M667 1361.5C661.166 1392.33 650.3 1467.1 653.5 1519.5" stroke="black" stroke-width="22" stroke-linecap="round"/>
<path d="M913.864 1358.04L911.602 1362.76H926.191L928.413 1358.04H913.864ZM920.116 1345.06L917.856 1349.75H932.351L934.56 1345.06H920.121H920.116ZM920.116 1345.06L917.856 1349.75H932.351L934.56 1345.06H920.121H920.116ZM911.608 1362.75H926.197L928.419 1358.04H913.865L911.603 1362.75H911.608ZM979.288 1364.34L946.433 1286.09C945.911 1284.83 945.135 1283.8 944.186 1283.09C943.274 1282.4 942.22 1282.03 941.155 1282H941.07C939.991 1282 938.908 1282.36 937.948 1283.05L937.947 1283.06C936.986 1283.74 936.164 1284.74 935.574 1285.94L935.561 1285.97L935.546 1286L898.122 1363.8L898.108 1363.83L898.093 1363.87C897.483 1365.18 897.129 1366.68 897.076 1368.2L897.076 1368.27C897.038 1369.8 897.311 1371.31 897.851 1372.65L897.87 1372.7L897.889 1372.74C898.452 1374.06 899.283 1375.17 900.289 1375.94C901.322 1376.74 902.515 1377.16 903.733 1377.16H973.274C974.408 1377.16 975.542 1376.78 976.552 1376.06L976.569 1376.05L976.585 1376.04C977.62 1375.28 978.489 1374.19 979.098 1372.88L979.167 1372.74C979.387 1372.29 979.551 1371.81 979.663 1371.31C979.915 1370.43 980.057 1369.52 980.075 1368.59C980.11 1367.1 979.836 1365.62 979.285 1364.33L979.288 1364.34ZM938.965 1288.64C939.178 1288.21 939.476 1287.84 939.824 1287.6C940.176 1287.35 940.569 1287.22 940.959 1287.22C941.347 1287.22 941.733 1287.36 942.069 1287.62C942.401 1287.86 942.677 1288.23 942.857 1288.67L944.719 1293.1L930.749 1322.17H948.999L946.113 1315.31L945.248 1317.6H937.221L946.672 1297.97L960.454 1330.96H918.668L938.965 1288.64ZM903.857 1371.96C903.358 1371.96 902.867 1371.78 902.446 1371.46C902.029 1371.13 901.685 1370.68 901.449 1370.13C901.216 1369.56 901.106 1368.92 901.121 1368.28C901.142 1367.64 901.291 1367.01 901.549 1366.46L916.26 1335.84H947.162L930.084 1371.96H903.857ZM975.633 1370.33C975.402 1370.83 975.072 1371.24 974.679 1371.53C974.282 1371.81 973.838 1371.96 973.393 1371.96H934.365L951.447 1335.84H962.511L968.893 1350.9H960.497L958.08 1345.32H955.183L947.126 1362.48H965.357L962.524 1355.67H970.96L975.709 1366.95C975.927 1367.45 976.031 1368.02 976.019 1368.6C976.007 1369.17 975.87 1369.82 975.629 1370.32L975.633 1370.33ZM920.111 1345.06L917.851 1349.75H932.346L934.555 1345.06H920.116H920.111ZM911.603 1362.75H926.192L928.414 1358.04H913.865L911.603 1362.75Z" fill="white"/>
</g>
<defs>
<clipPath id="clip0_483_466">
<rect width="1500" height="1500" fill="white"/>
</clipPath>
</defs>
      <g clip-path="url(#clip0_497_1194)">
<path d="M379.667 654.812C432.345 471.574 618.472 401.981 699.114 390.653C740.985 382.718 849.655 375.215 949.364 408.675C980 418.956 1049.88 457.388 1091.92 499.818C1144.47 552.856 1272.97 732.052 1185.05 927.725C1097.12 1123.4 758.414 1092.29 612.749 1051.82C464.472 1010.63 314.48 881.563 379.667 654.812Z" fill="#AABBFF"/>
<path d="M449.293 747.204C454.734 531.068 585.306 432.345 649.911 410C432.292 459.565 365.296 655.455 364 747.204C377.99 984.871 584.496 1053.43 681 1058C601.498 1044.46 443.853 963.339 449.293 747.204Z" fill="#001647" fill-opacity="0.2"/>
<path d="M379.667 654.812C432.345 471.574 618.472 401.981 699.114 390.653C740.985 382.718 849.655 375.215 949.364 408.675C980 418.956 1049.88 457.388 1091.92 499.818C1144.47 552.856 1272.97 732.052 1185.05 927.725C1097.12 1123.4 758.414 1092.29 612.749 1051.82C464.472 1010.63 314.48 881.563 379.667 654.812Z" stroke="black" stroke-width="22" stroke-linecap="round"/>
</g>
<defs>
    <clipPath id="prefix__clip0_299_662"><path fill="#fff" d="M0 0h1500v1500H0z"/></clipPath>
</defs>
      <g clip-path="url(#clip0_624_2936)">
<path d="M876.088 925.246H970.501" stroke="black" stroke-width="22" stroke-linecap="round"/>
<path d="M864.633 785.967L846.559 774.78L827.213 762.8L802.666 747.607" stroke="black" stroke-width="22" stroke-linecap="round"/>
<path d="M848.206 782.713C848.206 786.612 847.063 790.425 844.918 793.681C842.773 796.937 839.721 799.492 836.139 801.032C832.557 802.571 828.602 803.027 824.764 802.342C820.925 801.657 817.372 799.862 814.544 797.179C811.715 794.495 809.735 791.042 808.848 787.245C807.962 783.448 808.208 779.475 809.556 775.817C810.904 772.158 813.295 768.976 816.434 766.662C819.572 764.348 823.319 763.006 827.213 762.8L846.546 774.8C847.638 777.295 848.203 779.989 848.206 782.713Z" fill="black" stroke="black" stroke-width="22" stroke-linecap="round"/>
<path d="M1024.63 747.607L1000.09 762.8L980.739 774.78L962.666 785.967" stroke="black" stroke-width="22" stroke-linecap="round"/>
<path d="M979.094 782.713C979.094 786.612 980.237 790.425 982.382 793.681C984.527 796.937 987.579 799.492 991.161 801.032C994.743 802.571 998.698 803.027 1002.54 802.342C1006.37 801.657 1009.93 799.862 1012.76 797.179C1015.59 794.495 1017.57 791.042 1018.45 787.245C1019.34 783.448 1019.09 779.475 1017.74 775.817C1016.4 772.158 1014 768.976 1010.87 766.662C1007.73 764.348 1003.98 763.006 1000.09 762.8L980.754 774.8C979.662 777.295 979.097 779.989 979.094 782.713Z" fill="black" stroke="black" stroke-width="22" stroke-linecap="round"/>
</g>
<defs>
<clipPath id="clip0_624_2936">
<rect width="1500" height="1500" fill="white"/>
</clipPath>
</defs>
      <g clip-path="url(#clip0_924_758)">
<path d="M821.495 847C840.486 847.001 858.799 839.939 872.871 827.186C886.943 814.433 895.769 796.902 897.631 778.002C899.493 759.103 894.26 740.186 882.947 724.932C871.635 709.678 855.053 699.176 836.427 695.471C817.801 691.765 798.462 695.12 782.173 704.883C765.883 714.646 753.808 730.119 748.295 748.292C742.781 766.465 744.225 786.039 752.344 803.207C760.464 820.375 774.679 833.909 792.224 841.177C801.504 845.02 811.45 846.999 821.495 847Z" fill="white" fill-opacity="0.5"/>
<path d="M1012.49 852C1031.98 852.001 1050.77 844.477 1065.21 830.891C1079.65 817.304 1088.71 798.627 1090.62 778.493C1092.53 758.358 1087.16 738.205 1075.55 721.954C1063.95 705.702 1046.93 694.515 1027.82 690.567C1008.7 686.619 988.86 690.193 972.145 700.594C955.429 710.995 943.038 727.479 937.381 746.84C931.723 766.201 933.205 787.055 941.536 805.345C949.868 823.635 964.455 838.053 982.459 845.796C991.982 849.891 1002.19 851.999 1012.49 852Z" fill="white" fill-opacity="0.5"/>
<path d="M954.529 715.266C954.529 715.266 954.033 698.956 989.971 694.485L1055.29 830.825C1055.29 830.825 1042.69 845.543 1016.43 844.719L954.529 715.266Z" fill="white" fill-opacity="0.5"/>
<path d="M1002.09 701.909C1002.09 701.909 998.763 704.646 1011.14 696.723L1069.22 815.049C1069.22 815.049 1073 819.935 1062.94 822.012L1002.09 701.909Z" fill="white" fill-opacity="0.5"/>
<path d="M763.529 715.266C763.529 715.266 763.033 698.956 798.971 694.485L864.291 830.825C864.291 830.825 851.694 845.543 825.432 844.719L763.529 715.266Z" fill="white" fill-opacity="0.5"/>
<path d="M811.088 701.909C811.088 701.909 807.763 704.646 820.138 696.723L878.219 815.049C878.219 815.049 881.997 819.935 871.937 822.012L811.088 701.909Z" fill="white" fill-opacity="0.5"/>
<path d="M1012.53 850C1031.16 849.993 1049.2 843.527 1063.59 831.706C1077.99 819.884 1087.84 803.437 1091.46 785.169C1095.09 766.9 1092.26 747.939 1083.48 731.518C1074.69 715.096 1060.48 702.23 1043.27 695.112C1026.06 687.993 1006.91 687.063 989.089 692.479C971.269 697.896 955.878 709.324 945.54 724.816C935.202 740.309 930.556 758.907 932.393 777.441C934.23 795.975 942.437 813.299 955.616 826.46C970.717 841.54 991.189 850.007 1012.53 850V850Z" stroke="black" stroke-width="20" stroke-miterlimit="10"/>
<path d="M821.494 850C841.479 850.001 860.749 842.569 875.557 829.15C890.365 815.73 899.652 797.282 901.612 777.395C903.572 757.507 898.064 737.601 886.16 721.549C874.256 705.497 856.807 694.447 837.207 690.548C817.608 686.648 797.258 690.179 780.117 700.452C762.975 710.725 750.268 727.007 744.467 746.131C738.665 765.254 740.184 785.852 748.729 803.917C757.273 821.983 772.231 836.225 790.694 843.872C800.459 847.917 810.925 849.999 821.494 850Z" stroke="black" stroke-width="20" stroke-miterlimit="10"/>
<path d="M582.499 804.5C582.499 810.023 586.976 814.5 592.499 814.5C598.022 814.5 602.499 810.023 602.499 804.5H582.499ZM622.499 770L622.499 780L622.499 770ZM741.333 760L622.499 760L622.499 780L741.333 780L741.333 760ZM582.499 800V804.5H602.499V800H582.499ZM622.499 760C600.408 760 582.499 777.908 582.499 800H602.499C602.499 788.954 611.453 780 622.499 780L622.499 760Z" fill="black"/>
<path d="M894.386 769.667H939.5" stroke="black" stroke-width="20" stroke-miterlimit="10"/>
</g>
<defs>
<clipPath id="clip0_924_758">
<rect width="1500" height="1500" fill="white"/>
</clipPath>
</defs>
      <g clip-path="url(#clip0_786_1611)">
<path d="M357.167 709.64L281.948 724.785L220.285 749.18L257.601 779.228L346.128 800.677L356.882 803.141C348.457 743.106 357.167 709.64 357.167 709.64Z" fill="#9E6740"/>
<path d="M1198.25 650.336C1198.25 650.336 1219.64 700.928 1223.11 755.302L1243.5 747.613C1243.5 747.613 1290.77 721.71 1291.04 721.016C1291.3 720.322 1322.34 686.349 1323.78 684.547C1325.21 682.746 1333.93 660.452 1333.93 660.452L1221.49 652.327L1198.25 650.336Z" fill="#9E6740"/>
<path d="M220.387 740.305L285.256 658.34L541.783 407.839L754.907 245.064L840.466 281.824L1071.1 437.331L1239.4 570.877L1327.92 660.022L1073.81 643.594L933.385 643.376L654.348 661.724L354.034 709.713L220.387 740.305Z" fill="#9E6740"/>
<path d="M615.79 421.064C550.413 517.893 509.732 637.551 497.563 685.277L372.989 708.394L357 715.999L355 756.999L360.5 807.499L269.358 779.164L224.29 748.718L224.526 735.472L212.326 737.588L345.189 590.502C390.211 547.719 502.815 441.698 593.061 359.875C683.307 278.052 736.751 249.865 752.192 245.999C733.965 264.008 681.166 324.234 615.79 421.064Z" fill="#001647" fill-opacity="0.2"/>
<path d="M1286.55 718.214L1224.5 753.499L1222 745.499L1219 725.999L1213.5 698.499L1198.39 652.036L1232.97 653.87L1300.22 661.861L1327.47 668.084L1286.55 718.214Z" fill="#001647" fill-opacity="0.2"/>
<path d="M363.849 809.081C280.723 796.214 236.922 765.158 217.172 748.429C212.519 744.489 210.738 736.946 214.773 732.337C257.718 683.387 451.038 457.951 730.971 252.219C741.385 244.571 762.071 243.452 773.75 248.989C850.76 285.444 1170.67 484.003 1330.81 651.673C1335.04 656.104 1334.5 664.746 1330.99 669.802C1313.54 694.933 1288.32 732.229 1207.96 760.411" stroke="black" stroke-width="20" stroke-miterlimit="10"/>
<path d="M208.702 741.77L276.275 727.07C624.05 644.781 975.505 622.74 1330.64 660.947" stroke="black" stroke-width="20" stroke-miterlimit="10"/>
</g>
<defs>
<clipPath id="clip0_786_1611">
<rect width="1500" height="1500" fill="white"/>
</clipPath>
</defs>
      
    </g>
    </svg>