<svg
      xmlns="http://www.w3.org/2000/svg"
      preserveAspectRatio="xMidYMin meet"
      fill="none"
      viewBox="0 0 1500 1500"
    >
      <g>
      <path fill="url(#prefix__paint0_linear_53_30463)" d="M0 0h1500v1500H0z"/><defs><linearGradient id="prefix__paint0_linear_53_30463" x1="1500" y1="1500" x2="0" y2="0" gradientUnits="userSpaceOnUse">
<stop stop-color="#FF5A5A"/>
<stop offset="1" stop-color="#FFBDBD"/>
</linearGradient></defs>
      <g clip-path="url(#clip0_482_374)">
<path d="M773 1011.5C543.4 1029.9 398.667 1353.5 355 1513H1138.5C1075.7 1127 868.667 1017.83 773 1011.5Z" fill="#53B6F9"/>
<path d="M831 1187.5C733.4 1193.9 672.667 1094.83 654.5 1044.5L690 1026C695.667 1034.33 707.3 1051.7 708.5 1054.5C709.7 1057.3 737.667 1099 751.5 1119.5L827 1143.5L857.5 1119.5L893.5 1054.5L920.5 1081.5L905 1119.5L873.5 1160L831 1187.5Z" fill="white"/>
<path d="M490.5 1417.5L388 1405.5L409 1356L513 1376C558.833 1393.83 651.2 1430 654 1432C656.8 1434 652.833 1463.17 650.5 1477.5L490.5 1417.5Z" fill="white"/>
<path d="M1114.5 1412.5L1041.5 1430L1046 1469.5L1126.5 1451L1114.5 1412.5Z" fill="white"/>
<path d="M749.5 1019.5C536 1134 457.448 1414.63 443.159 1511H353.699C350.414 1508.73 357.049 1471.27 409.87 1339.62C462.691 1207.98 569.086 1113.24 605.384 1082.33L674 1033.5L749.5 1019.5Z" fill="#001647" fill-opacity="0.2"/>
<path d="M390.5 1402.5L355 1509.5H650L654 1474L390.5 1402.5Z" fill="#AABBFF"/>
<path d="M1047 1477V1512.5L1145 1509.5L1130 1456L1047 1477Z" fill="#AABBFF"/>
<path d="M724 1086L696.5 1024L706 1015H757.5L845 1031.5L888 1054L855 1115.5L830.5 1152L775 1135.5L724 1086Z" fill="#AABBFF"/>
<path d="M353.5 1519.5C365.5 1454.33 414.5 1313.6 483.5 1219C530.101 1155.11 577.468 1101.29 629.141 1059.66C710.278 994.299 826.037 996.323 905.02 1064.27C1000.08 1146.05 1103.44 1290.29 1142.5 1519.5M1013.5 1319C1024.83 1354.33 1048.1 1443.9 1050.5 1519.5M667 1361.5C661.167 1392.33 650.3 1467.1 653.5 1519.5M389 1402C453.5 1411.83 596.7 1440.9 653.5 1478.5M408 1358.5C467 1367.33 598.3 1392.9 655.5 1432.5M1047 1474.5L1127.5 1451.5M1042 1429.5L1113.5 1408.5M657.5 1041.5C673.972 1086.42 728.014 1181.47 835.445 1187.97C835.803 1187.99 836.152 1187.92 836.47 1187.75C859.22 1175.83 910.85 1139.66 918 1076.5M696.5 1026C703.647 1059.57 739.404 1130.61 825.294 1146.87C825.745 1146.95 826.204 1146.89 826.604 1146.67C843.993 1136.92 879.07 1104.87 885 1051.5" stroke="black" stroke-width="22" stroke-linecap="round"/>
<path d="M909.773 1322.6C908.394 1322.6 907.427 1321.24 907.884 1319.94L920.176 1284.94C920.73 1283.36 922.857 1283.12 923.752 1284.53L958.88 1339.9C959.251 1340.49 959.897 1340.84 960.589 1340.83L976.811 1340.67C978.374 1340.66 979.316 1338.93 978.486 1337.61L917.606 1240.51C916.716 1239.09 914.58 1239.33 914.025 1240.91L879.595 1338.95C879.135 1340.26 880.115 1341.63 881.501 1341.61L945.945 1340.98C947.513 1340.96 948.454 1339.23 947.615 1337.9L926.611 1304.77C925.716 1303.36 923.587 1303.6 923.034 1305.18L917.404 1321.25C917.123 1322.06 916.367 1322.59 915.518 1322.59L909.773 1322.6Z" fill="white"/>
</g>
<defs>
<clipPath id="clip0_482_374">
<rect width="1500" height="1500" fill="white"/>
</clipPath>
</defs>
      <g clip-path="url(#clip0_497_1194)">
<path d="M379.667 654.812C432.345 471.574 618.472 401.981 699.114 390.653C740.985 382.718 849.655 375.215 949.364 408.675C980 418.956 1049.88 457.388 1091.92 499.818C1144.47 552.856 1272.97 732.052 1185.05 927.725C1097.12 1123.4 758.414 1092.29 612.749 1051.82C464.472 1010.63 314.48 881.563 379.667 654.812Z" fill="#AABBFF"/>
<path d="M449.293 747.204C454.734 531.068 585.306 432.345 649.911 410C432.292 459.565 365.296 655.455 364 747.204C377.99 984.871 584.496 1053.43 681 1058C601.498 1044.46 443.853 963.339 449.293 747.204Z" fill="#001647" fill-opacity="0.2"/>
<path d="M379.667 654.812C432.345 471.574 618.472 401.981 699.114 390.653C740.985 382.718 849.655 375.215 949.364 408.675C980 418.956 1049.88 457.388 1091.92 499.818C1144.47 552.856 1272.97 732.052 1185.05 927.725C1097.12 1123.4 758.414 1092.29 612.749 1051.82C464.472 1010.63 314.48 881.563 379.667 654.812Z" stroke="black" stroke-width="22" stroke-linecap="round"/>
</g>
<defs>
    <clipPath id="prefix__clip0_299_662"><path fill="#fff" d="M0 0h1500v1500H0z"/></clipPath>
</defs>
      <g clip-path="url(#clip0_624_3324)">
<path d="M792.8 801.54L845.506 748.833" stroke="black" stroke-width="22" stroke-miterlimit="10" stroke-linecap="round"/>
<path d="M792.8 748.833L845.506 801.54" stroke="black" stroke-width="22" stroke-miterlimit="10" stroke-linecap="round"/>
<path d="M984.133 801.54L1036.84 748.833" stroke="black" stroke-width="22" stroke-miterlimit="10" stroke-linecap="round"/>
<path d="M984.133 748.833L1036.84 801.54" stroke="black" stroke-width="22" stroke-miterlimit="10" stroke-linecap="round"/>
<path d="M853.066 922.82C861.226 917.24 873.066 917.24 881.206 922.82L881.5 923.02C885.645 925.854 890.549 927.37 895.57 927.37C900.591 927.37 905.495 925.854 909.64 923.02V923.02C913.785 920.185 918.689 918.669 923.71 918.669C928.731 918.669 933.635 920.185 937.78 923.02L938.506 923.513C942.651 926.347 947.555 927.863 952.576 927.863C957.598 927.863 962.502 926.347 966.646 923.513L967.86 922.686C976.02 917.106 987.86 917.106 996 922.686" stroke="black" stroke-width="22" stroke-miterlimit="10" stroke-linecap="round"/>
</g>
<defs>
<clipPath id="clip0_624_3324">
<rect width="1500" height="1500" fill="white"/>
</clipPath>
</defs>
      <g clip-path="url(#clip0_840_2513)">
<path d="M691 957.5L701.5 894L714.5 863.5L740 855L901 863.5L1076 851L1103 847.5L1129 859.5L1140 892.5L1130 957.5L1111.5 1013.5L1075.5 1037L980.5 1068L869.5 1084L723 1073L687.5 1060.5V1017L691 957.5Z" fill="#4AEEB9"/>
<path d="M864.5 1078C810.5 1078 763.5 944 783.5 859.5L753 854.5L726.5 856.5L708 870.5L689.5 972.5L680.5 1034L704.5 1066.5L747.5 1078H864.5Z" fill="#001647" fill-opacity="0.2"/>
<path d="M370 697C401.167 729.333 503.36 809.8 700.16 887M379.5 853.5C413.167 883.5 523.917 956.8 687.117 1010M1132.53 876.5C1144.36 872.167 1191.5 848.4 1211.5 828M721 1073.5V1073.5C700.907 1070.71 686.155 1052.49 686.594 1032.21C687.501 990.382 688.367 931.545 704.989 876.761C710.804 857.597 731.009 847.753 750.813 850.733C828.071 862.358 965.043 869.001 1087.71 846.808C1107.13 843.295 1128 855.049 1132.09 874.357C1138.88 906.434 1141.36 954.7 1106.5 1019C995 1094 801 1084.83 721 1073.5Z" stroke="black" stroke-width="22" stroke-linecap="round"/>
</g>
<defs>
<clipPath id="clip0_840_2513">
<rect width="1500" height="1500" fill="white"/>
</clipPath>
</defs>
      <g clip-path="url(#clip0_602_1931)">
<path d="M718.5 336C430.5 374.4 355.833 571 354.5 664.5L414.5 657L585 641.5L677.5 700.5L746 715.5L795 706.5L864.5 683L951 641.5L1027 629C1040.67 630 1078.8 633.9 1122 641.5C1176 651 1185 710.5 1224.5 677C1256.1 650.2 1196 608.166 1162 590.5C1163 539 1078.5 288 718.5 336Z" fill="#F56CDB"/>
<path d="M790.5 334.999C576.9 453.399 513.5 594.666 508.5 650.499L355.5 670.5C343.167 665.833 342.4 622.399 438 485.999C533.6 349.599 712.834 328.499 790.5 334.999Z" fill="#001647" fill-opacity="0.2"/>
<path d="M918 513C740.4 509.8 610.667 597.833 577.5 639.5L635 613.5L746 568.5L911.5 542.5L1081.5 557L1179.5 596C1166.33 568 1095.6 516.2 918 513Z" fill="#001647" fill-opacity="0.2"/>
<path d="M1168 594.006C1137.5 399.5 919 330 797.5 330C484.905 330 371.892 543.53 353.776 661.318C352.717 668.2 359.115 673.614 365.869 671.92C411.449 660.485 504.576 640.341 587 645M587 645C621.5 612.167 730.5 548 894.5 542C1079.59 535.228 1192.54 594.489 1230.03 642.496C1236.7 651.039 1235.02 662.819 1228.03 671.106V671.106C1218.11 682.881 1200.55 684.175 1188.11 675.098C1145.41 643.936 1080.11 612.042 1002 628C892.783 650.313 790 754 669.5 701.5L587 645Z" stroke="black" stroke-width="22" stroke-linecap="round"/>
<path d="M819.136 403.189L836.895 401.663L847.224 454.606L829.464 456.132L832.902 473.777L821.061 474.795L817.618 457.15L799.859 458.676L789.53 405.734L807.295 404.207L803.852 386.563L815.693 385.545L819.136 403.189ZM884.078 427.515L901.842 425.989L912.161 478.932L894.407 480.458L897.849 498.102L886.008 499.12L882.565 481.475L864.801 483.002L854.478 430.059L872.237 428.533L868.794 410.884L880.635 409.866L884.078 427.515Z" fill="black"/>
</g>
<defs>
<clipPath id="clip0_602_1931">
<rect width="1500" height="1500" fill="white"/>
</clipPath>
</defs>
      
    </g>
    </svg>