<svg
      xmlns="http://www.w3.org/2000/svg"
      preserveAspectRatio="xMidYMin meet"
      fill="none"
      viewBox="0 0 1500 1500"
    >
      <g>
      <path fill="url(#prefix__paint0_linear_53_28789)" d="M0 0h1500v1500H0z"/><defs><linearGradient id="prefix__paint0_linear_53_28789" x1="1500" y1="1500" x2="0" y2="0" gradientUnits="userSpaceOnUse">
<stop stop-color="#FFD130"/>
<stop offset="1" stop-color="#FFEEDB"/>
</linearGradient></defs>
      <g clip-path="url(#prefix__clip0_53_27868)"><path d="M295.8 1500s-47.94-91.54 28.64-134.76c0 0-62-101.54 67.13-159.88 0 0-37.4-104.09 81.15-137.65 0 0 144.28-18.07 334.85-18.07 0 0 171.93-9.14 272.93 4.86 0 0 48.6 26.91 76.51 133.04 0 0 102.26 45.87 83.4 145.87 0 0 95.08 77.12 34 166.56l-978.61.03z" fill="url(#prefix__paint0_linear_53_27868)"/><path d="M413.5 1436.5c-54 14.8-41.833 56.83-29 76H309c-8.833-12.83-26.5-48.1-26.5-86.5s29.667-63.33 44.5-71l-18-50c3.833-14.67 16.4-49.7 36-72.5 18.829-21.9 42.242-22.8 52.773-20.32-4.833-2.49-11.288-20.19-5.773-77.18 6-62 116.5-77.5 171-77.5l241.5-11 7 36c-17.167-2.17-61.1-4.2-99.5 5-48 11.5-80.5 77.5-76 125s48.5 68 69 76c16.4 6.4 11.5 13.67 7 16.5-49.667-3.83-159.1-14.1-199.5-24.5-50.5-13-74.5 13.5-92 47s3 79 17.5 92c11.6 10.4 7.5 15.67 4 17h-28.5zM678.5 1465.5c-20-4.8-18.667-17-15.5-22.5l169.5 1.5 157-10.5c19 28-73 38.5-157 41s-129-3.5-154-9.5zM913 1321.5c-15.2-3.6-15-12.83-13-17l49-6.5c2.333-3.33 20.5-12.3 74.5-21.5s109.83-61.5 131-86.5l25.5 11.5c-14.33 17-57.5 58.1-115.5 86.5-72.5 35.5-132.5 38-151.5 33.5zM1179.5 1422.5c-23.2 0-24-9.67-21.5-14.5 37.6-11.6 66.67-41.83 76.5-55.5 8.5-9.83 24.8-22.5 22 5.5-3.5 35-48 64.5-77 64.5z" fill="#001647" fill-opacity=".2"/><path d="M1084.5 1337c12.33 37 29.5 110.3 43.5 175.5m-646.5 0c.333-32.83 7.7-107.6 20.5-157M301.5 1508.5c-25.5-42-37.6-117.3 23-149.5m0 0c-22-46-25-128.1 67-152.5m-67 152.5c11.333 20.83 47.5 64.6 110.5 79m-43.5-231.5c-10.5-36.17-17.4-111.6 71-136 53.112-14.66 199.972-21.87 344-24.82m-415 160.82c38.167 32.17 156.3 99.1 315.5 97.5m450-116c-10.37-60.53-39.49-100.92-65.94-123.9-17.73-15.41-41.66-19.79-65.15-19.96-61.49-.42-140.02-.09-219.41 1.54M1157 1188c35.17 12.5 94.3 55.9 83.5 145.5M1157 1188c-97.6 94-206 116.5-248 116m331.5 29.5c35.83 26.17 81.7 104.2 28.5 180m-28.5-180c-4.8 43.2-51.67 65.33-74.5 71m-330.5 109l-29-467.82M672 1444c61.333 6.17 208.7 12.7 307.5-10.5" stroke="#000" stroke-width="20" stroke-linecap="round"/></g><defs><linearGradient id="prefix__paint0_linear_53_27868" x1="461" y1="1064" x2="1157" y2="1546" gradientUnits="userSpaceOnUse"><stop stop-color="#FFEB37"/><stop offset=".522" stop-color="#FF60ED"/><stop offset="1" stop-color="#33E5FF"/></linearGradient><clipPath id="prefix__clip0_53_27868"><path fill="#fff" d="M0 0h1500v1500H0z"/></clipPath></defs>
      <g clip-path="url(#clip0_497_1194)">
<path d="M379.667 654.812C432.345 471.574 618.472 401.981 699.114 390.653C740.985 382.718 849.655 375.215 949.364 408.675C980 418.956 1049.88 457.388 1091.92 499.818C1144.47 552.856 1272.97 732.052 1185.05 927.725C1097.12 1123.4 758.414 1092.29 612.749 1051.82C464.472 1010.63 314.48 881.563 379.667 654.812Z" fill="#AABBFF"/>
<path d="M449.293 747.204C454.734 531.068 585.306 432.345 649.911 410C432.292 459.565 365.296 655.455 364 747.204C377.99 984.871 584.496 1053.43 681 1058C601.498 1044.46 443.853 963.339 449.293 747.204Z" fill="#001647" fill-opacity="0.2"/>
<path d="M379.667 654.812C432.345 471.574 618.472 401.981 699.114 390.653C740.985 382.718 849.655 375.215 949.364 408.675C980 418.956 1049.88 457.388 1091.92 499.818C1144.47 552.856 1272.97 732.052 1185.05 927.725C1097.12 1123.4 758.414 1092.29 612.749 1051.82C464.472 1010.63 314.48 881.563 379.667 654.812Z" stroke="black" stroke-width="22" stroke-linecap="round"/>
</g>
<defs>
    <clipPath id="prefix__clip0_299_662"><path fill="#fff" d="M0 0h1500v1500H0z"/></clipPath>
</defs>
      <g clip-path="url(#clip0_624_3204)">
<path d="M876.086 925.246H970.499" stroke="black" stroke-width="22" stroke-linecap="round"/>
<path d="M865.708 768.06L844.448 768.047L821.695 768.027L792.828 768" stroke="black" stroke-width="22" stroke-linecap="round"/>
<path d="M850.019 773.927C852.061 777.245 853.087 781.09 852.968 784.985C852.85 788.88 851.593 792.655 849.352 795.844C847.112 799.032 843.986 801.494 840.361 802.925C836.737 804.357 832.772 804.695 828.958 803.897C825.143 803.1 821.646 801.202 818.898 798.439C816.15 795.676 814.273 792.168 813.497 788.349C812.721 784.53 813.081 780.567 814.533 776.951C815.985 773.334 818.464 770.223 821.665 768H844.419C846.675 769.567 848.582 771.585 850.019 773.927Z" fill="black" stroke="black" stroke-width="22" stroke-linecap="round"/>
<path d="M1033.71 768L1004.83 768.027L982.081 768.047L960.828 768.06" stroke="black" stroke-width="22" stroke-linecap="round"/>
<path d="M976.506 773.926C974.456 777.243 973.423 781.087 973.536 784.985C973.648 788.882 974.9 792.661 977.138 795.854C979.376 799.047 982.5 801.513 986.125 802.949C989.75 804.385 993.716 804.726 997.533 803.931C1001.35 803.136 1004.85 801.24 1007.6 798.476C1010.35 795.713 1012.23 792.203 1013.01 788.383C1013.78 784.562 1013.42 780.597 1011.97 776.979C1010.52 773.361 1008.04 770.248 1004.83 768.026H982.079C979.837 769.59 977.94 771.598 976.506 773.926Z" fill="black" stroke="black" stroke-width="22" stroke-linecap="round"/>
</g>
<defs>
<clipPath id="clip0_624_3204">
<rect width="1500" height="1500" fill="white"/>
</clipPath>
</defs>
      <g clip-path="url(#clip0_838_2422)">
<ellipse cx="932" cy="915.5" rx="131" ry="69.5" fill="#AABBFF"/>
<path d="M916.488 918.577L931.325 908.855C933.985 907.113 936.223 904.799 937.876 902.083C939.529 899.367 940.556 896.317 940.882 893.154C941.208 889.992 940.825 886.796 939.761 883.8C938.697 880.804 936.978 878.082 934.73 875.834V875.834C932.657 873.765 930.181 872.142 927.456 871.068C924.731 869.994 921.814 869.491 918.886 869.59C915.959 869.689 913.083 870.388 910.436 871.644C907.79 872.899 905.429 874.685 903.501 876.89L890.301 891.98" stroke="black" stroke-width="22" stroke-miterlimit="10" stroke-linecap="round"/>
<path d="M916.488 918.675L931.325 928.397C933.986 930.137 936.225 932.449 937.879 935.165C939.533 937.88 940.561 940.93 940.887 944.093C941.213 947.255 940.83 950.451 939.764 953.447C938.699 956.442 936.979 959.163 934.73 961.41V961.41C932.66 963.484 930.185 965.111 927.46 966.188C924.734 967.265 921.817 967.771 918.888 967.672C915.959 967.574 913.081 966.875 910.434 965.617C907.787 964.359 905.427 962.571 903.501 960.362L890.301 945.271" stroke="black" stroke-width="22" stroke-miterlimit="10" stroke-linecap="round"/>
<path d="M1107.22 751.006C1069.86 751.344 1033.86 765.04 1005.72 789.618C977.582 814.195 959.169 848.032 953.812 885.006C953.15 889.572 951.309 893.887 948.472 897.526C945.635 901.164 941.899 904.001 937.632 905.756L926.952 912.626C926.14 913.148 925.456 913.846 924.95 914.668C924.445 915.49 924.131 916.416 924.032 917.376C923.935 918.339 924.058 919.312 924.391 920.221C924.723 921.13 925.257 921.952 925.952 922.626C943.132 939.066 957.522 954.256 967.952 975.626C983.451 1007.57 1009.35 1033.29 1041.4 1048.56C1073.45 1063.83 1109.74 1067.75 1144.31 1059.67C1178.88 1051.59 1209.68 1031.99 1231.64 1004.1C1253.6 976.203 1265.42 941.667 1265.15 906.166C1264.45 820.126 1193.36 750.246 1107.22 751.006Z" fill="#F56CDB" fill-opacity="0.9" stroke="black" stroke-width="20" stroke-miterlimit="10"/>
<path d="M1215.48 846.919C1231.5 877.007 1232.08 908.004 1216.78 916.154C1201.48 924.303 1203.79 891.763 1187.77 861.675C1171.74 831.587 1143.45 815.346 1158.75 807.196C1174.06 799.047 1199.45 816.831 1215.48 846.919Z" fill="white"/>
<circle cx="1216.95" cy="946.006" r="13" fill="white"/>
</g>
<defs>
<clipPath id="clip0_838_2422">
<rect width="1500" height="1500" fill="white"/>
</clipPath>
</defs>
      <style type="text/css">
	.st0{fill:#AABBFF;}
	.st1{fill:none;stroke:#000000;stroke-width:22;stroke-linecap:round;}
	.st2{fill:#A760FF;}
	.st3{fill:#001647;fill-opacity:0.2;}
	.st4{fill:none;stroke:#000000;stroke-width:22;}
</style>
<path class="st0" d="M711.9,381.5L669.1,415l85.8,42c31.2-0.5,101.1-2.4,131.5-5.8c30.4-3.5,60.3-20.5,71.4-28.6l-45-35.2
	l-22.1-27.1l-38.7-7.3l-35.4,36l-5.6-18.9l-31.9-12.7l-31.1,5.3L711.9,381.5z"/>
<path class="st1" d="M754.8,451.1c3.6-10.8,11.8-27.5,25.3-39.6 M882.2,449.1c-4.1-9.4-11.2-23.4-22.8-34.6 M670.7,416
	c7.5-12.6,25.3-37.9,51.7-38.4c2.4,0,4.7,0,6.9,0.2 M780.1,411.6c9.4-8.4,21.2-14.5,35.7-14.8c2.4,0,4.7,0.1,6.9,0.3 M780.1,411.6
	c-8.2-10.7-21.7-31.3-50.8-33.7 M953.1,422.6c-6.3-11.9-23.5-34.8-45-37.5 M859.4,414.5c4.8-9.7,20.2-29.3,43.9-29.7
	c1.6,0,3.2,0.1,4.8,0.3 M859.4,414.5c-9.2-8.9-21.2-16-36.8-17.5 M729.3,377.9c4.8-9.2,18.3-27.6,39.2-27.9
	c26.9-0.4,49,25.8,54.1,47.1 M908.1,385.1c-4.8-10.8-18.7-33.3-36.5-33.1c-22.2,0.4-39.3,18.7-49,41"/>
<path class="st2" d="M370.4,649.9c-3.5,11-6.3,22.8-8.2,31c-0.2,0.9-0.7,1.7-1.3,2.3c-0.7,0.6-1.5,1-2.4,1.1
	c-0.9,0.1-1.8-0.1-2.6-0.5c-0.8-0.4-1.4-1.1-1.8-1.9c-1.2-2.4-2.2-5-3-7.6c-3-9.8,2.8-22.3,0.4-27.3c-2.4-5.1-0.8-14.6,1.1-22.2
	c1.5-6,2.6-12.2,3.3-18.3c0.2-2-0.5-14.4,0.9-18c1.1-3,6.9-15.4,8.9-19.6c0.4-0.9,1.1-1.6,1.9-2l30.1-19.9c0.2-0.1,3.5-12,3.7-12.1
	l84.5-18.8c0.1-0.1,0.3-0.1,0.4-0.1l97.6-23.3c0.2,0,0.4-0.1,0.5-0.1l95.5-10.7l127.1-17.4c0.2,0,0.3,0,0.5,0l163.3-2.5l0.5,0l0.1,0
	c4.3,0.4,54.5,4.6,67.9,4.9c14,0.3,47,2.7,62.9,4.9c15.8,2.3,23.6,7.6,29.2,11.7c5.6,4,25.9,9.2,32.6,16.8
	c6.7,7.6,23.8,40.3,22.8,41.1c-4.3,3.3,19.8,35.2,22.2,41.4c0.2,0.6,0.3,1.2,0.3,1.8l4,29.9c0,1.1-0.5,2-1.2,2.8l-14.4,15.2
	c-0.5,0.5-1.1,0.9-1.8,1.2c-0.7,0.2-1.4,0.3-2.2,0.1c-0.7-0.1-1.4-0.4-2-0.9c-0.6-0.5-1-1.1-1.3-1.7l-21.6-41.1
	c-2.4-4.6-7-7.6-12.2-8l-18.7-1.4l-114.8,2.4L812,589.5l-0.4,0l-281,34.1l-0.2,0l-116.9,20.5c-0.8,0.1-1.6,0.1-2.3-0.2l-14.1-5.4
	c-0.7-0.3-1.6-0.4-2.3-0.2l-5.8,0.2l-7.4,1.4C376.3,640.9,372,644.7,370.4,649.9z"/>
<path class="st3" d="M604.4,493.6c-29.7,32-45.2,96.8-49.3,125.1c-51.4,7.1-156.6,21.9-166.4,23.8c-9.8,2-21.7,25.5-26.4,37
	l-12.6-31.8l6.8-50.1c3-6.9,3.2-26.6,27.7-50c24.5-23.4,95.5-37,127.9-40.8L604.4,493.6z"/>
<path class="st4" d="M1185.7,645.2l15.8-13.9c16.2-14.2,11.4-37.7,2.7-57.4c-12-27.6-33.9-59.1-49-74.2
	c-15.1-15.1-34.6-25.9-55.9-28c-311.8-30.6-547.8,17.7-670.9,54.3c-52.9,15.8-98.2,85.6-60.4,178.9"/>
<path class="st4" d="M385,650.5c0,0,313-63.3,499.3-62.7c0,0,164.2-4.1,272.7,5.2"/>
<g>
	<path d="M753.8,534.4c-0.7-0.5-1.5-0.9-2.4-1c-0.9-0.2-1.7-0.2-2.6,0c-2,0.4-4.1,0.7-6.1,0.8c-1.7,0.1-3.5,0.2-5.3,0.2
		c-0.7,0-1.5,0-2.3,0.1c-0.7,0-1.5,0.1-2.3,0.1l-0.1,0l-0.1,0c-0.9,0.1-1.7,0.3-2.4,0.7c-0.8,0.4-1.4,0.9-1.9,1.6
		c-0.5,0.6-1,1.4-1.2,2.2c-0.2,0.8-0.3,1.6-0.2,2.4c0.1,0.9,0.3,1.7,0.7,2.5c0.4,0.8,1,1.5,1.6,2c0.7,0.6,1.4,1,2.3,1.3
		c0.8,0.3,1.7,0.3,2.5,0.3c0.3,0,0.6,0,0.8,0c-0.3,0.6-0.7,1.1-1.2,1.5l-0.1,0.1c-1.3,1.5-3.1,2.5-5.1,2.7c-0.6,0-1.3-0.1-1.9-0.4
		c-0.6-0.3-1.1-0.7-1.5-1.3c-1-1.2-1.7-2.6-2.3-4.1c-1-2.7-1.6-5.6-1.9-8.5c-0.6-5.6-0.4-9.9,0.7-12.9l0-0.1c0.2-0.7,0.5-1.4,1-2
		c0.4-0.6,1-1,1.6-1.4c0.5-0.2,1.1-0.4,1.7-0.4c0.6,0,1.3,0,1.9,0.1c0.6,0.1,1.1,0.2,1.7,0.4c0.3,0.1,0.6,0.2,0.8,0.3
		c0.6,0.9,1.5,1.7,2.4,2.3c1.2,0.7,2.5,1,3.9,0.9c0.9-0.1,1.7-0.3,2.4-0.7c0.8-0.4,1.4-0.9,1.9-1.6c0.5-0.7,0.9-1.4,1.2-2.3
		c0.2-0.8,0.3-1.7,0.1-2.6c-0.2-0.9-0.5-1.8-0.9-2.6c-0.6-1.2-1.5-2.3-2.6-3c-1.2-1-2.6-1.8-4-2.4c-1.6-0.8-3.3-1.3-5.1-1.6
		c-1.7-0.3-3.5-0.4-5.2-0.2c-1.3,0-2.6,0.3-3.9,0.7c-1.2,0.4-2.4,0.9-3.5,1.5c-1.3,0.7-2.4,1.6-3.4,2.6c-1.1,1-2,2.2-2.8,3.5
		c-1.7,3-2.7,6.2-3.1,9.6c-0.5,4.3-0.5,8.6,0.1,12.9c1,8.5,3.4,15.1,7.2,19.7c1.8,2.2,4.1,4,6.7,5.2c2.2,1,4.6,1.5,7,1.5
		c0.3,0,0.7,0,1,0l0.4,0l0.1,0c2.5-0.2,4.9-0.9,7.2-2.1c4.5-2.3,8-6.1,10.1-10.8c0.8-1.7,1.2-3.6,1.4-5.5c0.3,0,0.5-0.1,0.8-0.1
		c0.7-0.1,1.4-0.3,2.1-0.4c0.9-0.1,1.7-0.5,2.4-1c0.7-0.5,1.3-1.1,1.8-1.8c0.5-0.7,0.8-1.5,0.9-2.4c0.1-0.9,0.1-1.7-0.1-2.6
		C756.2,536.7,755.2,535.3,753.8,534.4z"/>
	<path d="M812.2,544.3c-0.3-2-0.6-4.2-0.9-6.7c-0.2-1.1-0.3-2.2-0.5-3.3c-0.2-1.4-0.4-2.9-0.7-4.4c-0.4-2.5-0.8-4.9-1.2-7l-0.3-1.5
		c-0.4-2.5-0.9-4.8-1.4-6.8c-0.4-1.8-0.8-3.2-1.2-4.4c-0.3-1.1-0.8-2.3-1.2-3.3c-0.4-0.9-0.9-1.7-1.5-2.5c-0.5-0.7-1.2-1.3-1.9-1.7
		c-0.8-0.6-1.8-1-2.8-1.2c-1-0.2-2.1-0.1-3.1,0.1c-1,0.3-1.9,0.7-2.7,1.4c-0.8,0.7-1.4,1.5-1.9,2.4c-0.4,0.8-0.7,1.6-0.9,2.4
		c-0.3,0.8-0.6,1.7-0.8,2.6c-0.2,0.9-0.5,2-0.8,3.3c-0.5,1.9-1,4.3-1.5,6.9c-0.4,2.4-0.9,5-1.4,7.8c-2.5-5.9-4.7-10.7-6.6-14.2
		c-1-2-2.2-3.9-3.6-5.7c-0.4-0.5-0.8-0.9-1.2-1.4c-0.4-0.4-0.8-0.8-1.3-1.1c-0.9-0.8-2-1.4-3.3-1.7c-0.8-0.2-1.7-0.3-2.5-0.2l-0.1,0
		c-1,0.1-1.9,0.4-2.8,0.9c-0.9,0.5-1.6,1.1-2.2,1.9c-0.4,0.6-0.8,1.2-1.1,1.9c-0.4,0.8-0.6,1.7-0.8,2.5c-0.2,1.1-0.3,2.3-0.4,3.5
		c-0.1,1.4-0.1,3,0,4.8c0.1,2,0.2,4.3,0.4,6.8c0.2,2.6,0.5,5.4,0.8,8.5c0.3,2.6,0.6,5.1,0.9,7.6c0.3,2.5,0.6,4.6,0.9,6.5
		c0.3,1.9,0.6,4,1,6.3c0.1,0.9,0.4,1.7,0.8,2.5c0.4,0.8,1,1.4,1.7,1.9c1.2,1,2.7,1.5,4.2,1.5c0.2,0,0.4,0,0.5,0l0.3,0l0.2-0.1
		c0.7-0.1,1.4-0.4,2.1-0.7c0.8-0.4,1.4-1,1.9-1.7c0.5-0.7,0.9-1.5,1.1-2.3c0.2-0.9,0.2-1.7,0.1-2.5c-0.3-2.1-0.6-4-0.8-5.7l-0.8-5.9
		c-0.3-2.2-0.6-4.5-0.9-6.9l0-0.3c0.2,0.4,0.4,0.9,0.6,1.4l3.6,9.2c0.5,1.3,1,2.6,1.5,3.7c0.7,1.7,1.4,3.7,2.1,5.8
		c0.5,1.4,1.4,2.6,2.7,3.4c1.2,0.8,2.7,1.2,4.1,1.2l0.1,0l0.1,0c1.4-0.1,2.8-0.7,3.9-1.6c1-1,1.7-2.3,1.9-3.7l0-0.2l0,0
		c0-0.2,0.1-0.7,0.2-1.5c0.2-1.1,0.4-2.6,0.7-4.4c0.3-1.8,0.6-4,1-6.4c0.3-1.9,0.6-4,1-6c0.2,1.5,0.4,3,0.6,4.5
		c0.3,2.3,0.5,4.3,0.8,6c0.3,1.7,0.5,3.7,0.7,5.8c0.2,1.8,1.1,3.3,2.4,4.4c0.7,0.6,1.4,1,2.3,1.3c0.8,0.3,1.6,0.3,2.5,0.3l0.1,0
		l0.1,0c0.9,0,1.7-0.3,2.5-0.7c0.8-0.4,1.4-0.9,2-1.6c0.6-0.7,1-1.4,1.2-2.3c0.2-0.8,0.3-1.7,0.2-2.5
		C812.7,548.5,812.5,546.3,812.2,544.3z"/>
	<path d="M848.4,552.2c-0.5-0.7-1.2-1.3-2-1.7c-0.8-0.4-1.6-0.7-2.5-0.8c-1.9-0.3-3.7-1.1-5.1-2.4c-1.6-1.4-2.9-3-4-4.8
		c-1.1-1.9-2.1-3.8-2.8-5.9c-0.6-1.8-1.1-3.7-1.5-5.5c-0.4-2.3-0.6-4.7-0.4-7c0.1-2.2,0.5-4.5,1.2-6.6c0.6-2,1.5-3.9,2.6-5.7
		c1-1.7,2.3-3.2,3.8-4.4c0.7-0.5,1.3-1.2,1.7-2c0.4-0.8,0.6-1.6,0.7-2.5c0.1-1.8-0.5-3.5-1.6-4.8c-0.5-0.7-1.2-1.3-2-1.7
		c-0.8-0.4-1.6-0.7-2.4-0.8c-0.9-0.1-1.7-0.1-2.6,0.2c-0.8,0.2-1.6,0.6-2.3,1.2c-2.5,2.1-4.7,4.5-6.5,7.3c-1.8,2.9-3.2,6-4.2,9.2
		c-1.8,6.2-2.1,12.9-0.9,19.3c0.2,1,0.5,2.2,0.7,3.4c0.4,1.5,0.8,3,1.3,4.4c0.6,1.6,1.2,3.2,2,4.9c0.8,1.8,1.8,3.5,3,5.1
		c4.8,6.9,10.8,10.9,17.9,12c0.2,0,0.5,0.1,0.7,0.1c0.1,0,0.2,0,0.3,0l0.5,0c1.5-0.1,2.9-0.7,4-1.7c1.1-1,1.8-2.4,1.9-3.9
		c0.1-0.9,0-1.7-0.3-2.6C849.3,553.6,848.9,552.8,848.4,552.2z"/>
	<path d="M887.5,542.2c-2.2-2.9-4.3-5.8-6.2-8.5c-1.8-2.4-3.5-4.9-5.1-7.3c1.4-3.2,2.8-6.6,4-10c1.4-3.8,2.6-7.9,3.8-12.2
		c0.2-0.8,0.3-1.7,0.2-2.6c-0.1-0.9-0.4-1.7-0.9-2.4c-0.9-1.5-2.3-2.6-3.9-3.1c-0.8-0.3-1.7-0.4-2.5-0.3c-0.9,0.1-1.7,0.3-2.5,0.7
		c-0.8,0.4-1.4,1-2,1.7c-0.5,0.7-0.9,1.5-1.1,2.3c-0.8,3-1.6,5.6-2.3,7.9c-0.5,1.5-1,3-1.6,4.4c-1-1.6-1.9-3.2-2.8-4.7
		c-1.4-2.4-2.8-4.8-4.1-7.2c-0.4-0.8-1-1.5-1.6-2.1c-0.7-0.6-1.5-1-2.3-1.3c-0.8-0.3-1.7-0.4-2.6-0.3c-0.9,0.1-1.7,0.3-2.4,0.7
		c-0.8,0.4-1.5,0.9-2.1,1.6c-0.6,0.7-1,1.5-1.2,2.3c-0.2,0.8-0.3,1.7-0.2,2.6c0.1,0.9,0.4,1.7,0.8,2.4c3.6,6.8,7.8,13.7,12.2,20.5
		c-1.4,2.8-2.8,5.5-4.3,8c-1.6,2.8-3.2,5.7-4.8,8.6l-0.5,0.9c-0.4,0.8-0.7,1.6-0.8,2.4c-0.1,0.9,0,1.7,0.2,2.5
		c0.2,0.9,0.6,1.6,1.2,2.3c0.5,0.7,1.2,1.3,1.9,1.7c1.1,0.6,2.3,1,3.6,1c0.2,0,0.3,0,0.5,0c1-0.1,2.1-0.4,2.9-1
		c0.9-0.6,1.6-1.4,2.1-2.3l0.4-0.8c1.1-1.9,2.2-3.9,3.3-5.8l0.4-0.7c0.8-1.4,1.6-2.9,2.5-4.4c0.4,0.5,0.7,1,1.1,1.5
		c0.6,0.8,1.1,1.6,1.7,2.4c1,1.5,2.1,2.9,3.2,4.4l1.4,1.9c0.7,1,1.7,1.7,2.8,2.2c1,0.5,2.2,0.7,3.3,0.6c1.2-0.1,2.3-0.5,3.2-1.2
		c0.7-0.5,1.3-1.1,1.7-1.9c0.4-0.7,0.7-1.6,0.8-2.4c0.1-0.9,0.1-1.8-0.1-2.6C888.4,543.7,888,542.9,887.5,542.2z"/>
	<path d="M919.2,528.1c0-1.2-0.1-2.3-0.2-3.5c-0.3-3.3-0.9-6.5-2-9.6c-1-3.1-2.4-6.2-4.1-9c-1.8-3-4-5.8-6.5-8.3
		c-2.4-2.4-5.2-4.4-8.2-6c-0.8-0.4-1.6-0.7-2.5-0.8c-0.9-0.1-1.8,0-2.6,0.2c-0.8,0.2-1.6,0.6-2.3,1.2c-0.7,0.5-1.2,1.2-1.5,2
		c-0.4,0.8-0.6,1.6-0.7,2.5c-0.1,0.9,0.1,1.7,0.3,2.5c0.3,0.9,0.7,1.6,1.3,2.3c0.6,0.7,1.3,1.2,2.1,1.5c1.8,1,3.5,2.3,5,3.8
		c1.6,1.6,3,3.3,4.1,5.2c1.2,2,2.2,4.1,2.9,6.3c0.7,2.2,1.2,4.6,1.4,6.9c0.1,1.9,0.1,3.8,0,5.7c-0.1,2.1-0.5,4.2-1.1,6.2
		c-0.6,1.9-1.5,3.7-2.6,5.3c-1.1,1.4-2.6,2.5-4.3,3c-0.8,0.3-1.6,0.7-2.2,1.2c-0.7,0.6-1.2,1.3-1.5,2c-0.4,0.8-0.6,1.6-0.7,2.5
		c0,0.9,0.1,1.7,0.4,2.5c0.5,1.5,1.5,2.7,2.8,3.5c1.1,0.7,2.4,1,3.7,1c0.2,0,0.3,0,0.5,0l0.6,0l0.1,0c0.3,0,0.6-0.1,0.9-0.2
		c6.7-2.2,11.6-7.1,14.5-14.7c0.7-1.8,1.2-3.6,1.5-5.5c0.3-1.8,0.6-3.5,0.7-5.1C919.2,531.1,919.2,529.6,919.2,528.1z"/>
</g>
      
    </g>
    </svg>