<svg
      xmlns="http://www.w3.org/2000/svg"
      preserveAspectRatio="xMidYMin meet"
      fill="none"
      viewBox="0 0 1500 1500"
    >
      <g>
      <path fill="url(#prefix__paint0_linear_53_28788)" d="M0 0h1500v1500H0z"/><defs><linearGradient id="prefix__paint0_linear_53_28788" x1="0" y1="0" x2="1500" y2="1500" gradientUnits="userSpaceOnUse">
<stop stop-color="#DBE4E4"/>
<stop offset="1" stop-color="#A7BDBD"/>
</linearGradient></defs>
      <g clip-path="url(#clip0_483_510)">
<path d="M773 1011.5C543.4 1029.9 398.667 1353.5 355 1513H1138.5C1075.7 1127 868.667 1017.83 773 1011.5Z" fill="#FF6247"/>
<path d="M409 1362.5L354 1512.5H651.5V1444.5L409 1362.5Z" fill="#AABBFF"/>
<path d="M1039.5 1426.5L1046 1512.5L1142.5 1504L1111 1393L1039.5 1426.5Z" fill="#AABBFF"/>
<path d="M749.5 1019.5C536 1134 457.448 1414.63 443.159 1511H353.699C350.414 1508.73 357.049 1471.27 409.87 1339.62C462.691 1207.98 569.086 1113.24 605.384 1082.33L674 1033.5L749.5 1019.5Z" fill="#001647" fill-opacity="0.2"/>
<path d="M353.5 1519.5C365.5 1454.33 414.5 1313.6 483.5 1219C530.101 1155.11 577.468 1101.29 629.141 1059.66C710.278 994.299 826.037 996.323 905.02 1064.27C1000.08 1146.05 1103.44 1290.29 1142.5 1519.5M1013.5 1319C1024.83 1354.33 1048.1 1443.9 1050.5 1519.5M667 1361.5C661.167 1392.33 650.3 1467.1 653.5 1519.5M408.5 1360.5L651 1446.5M1040.5 1424C1056.33 1421.5 1091.7 1411.6 1106.5 1392" stroke="black" stroke-width="22" stroke-linecap="round"/>
<path d="M867.933 1422.58C867.187 1422.49 866.882 1421.58 867.424 1421.06L889.898 1399.62C890.227 1399.31 890.265 1398.8 889.987 1398.44L845.82 1341.38C845.494 1340.96 844.873 1340.92 844.49 1341.29L797.948 1386.27C797.567 1386.64 796.949 1386.59 796.622 1386.18L731.189 1302.92C730.909 1302.56 730.943 1302.05 731.269 1301.73L755.472 1278.25C755.855 1277.88 756.479 1277.93 756.804 1278.35L800.169 1334.58C800.492 1335 801.109 1335.04 801.493 1334.68L848.021 1290.61C848.403 1290.25 849.014 1290.29 849.339 1290.7L915.467 1374.43C915.782 1374.83 916.367 1374.88 916.753 1374.55L941.524 1353.28C942.126 1352.76 943.056 1353.23 942.997 1354.02L937.287 1430.18C937.249 1430.68 936.793 1431.06 936.287 1430.99L867.933 1422.58Z" fill="white"/>
</g>
<defs>
<clipPath id="clip0_483_510">
<rect width="1500" height="1500" fill="white"/>
</clipPath>
</defs>
      <g clip-path="url(#clip0_497_1194)">
<path d="M379.667 654.812C432.345 471.574 618.472 401.981 699.114 390.653C740.985 382.718 849.655 375.215 949.364 408.675C980 418.956 1049.88 457.388 1091.92 499.818C1144.47 552.856 1272.97 732.052 1185.05 927.725C1097.12 1123.4 758.414 1092.29 612.749 1051.82C464.472 1010.63 314.48 881.563 379.667 654.812Z" fill="#AABBFF"/>
<path d="M449.293 747.204C454.734 531.068 585.306 432.345 649.911 410C432.292 459.565 365.296 655.455 364 747.204C377.99 984.871 584.496 1053.43 681 1058C601.498 1044.46 443.853 963.339 449.293 747.204Z" fill="#001647" fill-opacity="0.2"/>
<path d="M379.667 654.812C432.345 471.574 618.472 401.981 699.114 390.653C740.985 382.718 849.655 375.215 949.364 408.675C980 418.956 1049.88 457.388 1091.92 499.818C1144.47 552.856 1272.97 732.052 1185.05 927.725C1097.12 1123.4 758.414 1092.29 612.749 1051.82C464.472 1010.63 314.48 881.563 379.667 654.812Z" stroke="black" stroke-width="22" stroke-linecap="round"/>
</g>
<defs>
    <clipPath id="prefix__clip0_299_662"><path fill="#fff" d="M0 0h1500v1500H0z"/></clipPath>
</defs>
      <g clip-path="url(#clip0_624_3388)">
<path d="M822 818C849.062 818 871 796.062 871 769C871 741.938 849.062 720 822 720C794.938 720 773 741.938 773 769C773 796.062 794.938 818 822 818Z" fill="white" stroke="black" stroke-width="20" stroke-miterlimit="10"/>
<path d="M1012 818C1039.06 818 1061 796.062 1061 769C1061 741.938 1039.06 720 1012 720C984.938 720 963 741.938 963 769C963 796.062 984.938 818 1012 818Z" fill="white" stroke="black" stroke-width="20" stroke-miterlimit="10"/>
<path d="M837 782C844.18 782 850 776.18 850 769C850 761.82 844.18 756 837 756C829.82 756 824 761.82 824 769C824 776.18 829.82 782 837 782Z" fill="black"/>
<path d="M1027 782C1034.18 782 1040 776.18 1040 769C1040 761.82 1034.18 756 1027 756C1019.82 756 1014 761.82 1014 769C1014 776.18 1019.82 782 1027 782Z" fill="black"/>
<path d="M988.653 960.897H855.227C854.074 960.897 852.968 960.439 852.153 959.624C851.338 958.809 850.88 957.703 850.88 956.551C850.88 937.828 858.317 919.872 871.556 906.633C884.795 893.394 902.751 885.957 921.474 885.957H922.406C941.129 885.957 959.085 893.394 972.324 906.633C985.562 919.872 993 937.828 993 956.551C993 957.703 992.542 958.809 991.727 959.624C990.912 960.439 989.806 960.897 988.653 960.897Z" fill="white" stroke="black" stroke-width="20" stroke-miterlimit="10"/>
</g>
<defs>
<clipPath id="clip0_624_3388">
<rect width="1500" height="1500" fill="white"/>
</clipPath>
</defs>
      <g clip-path="url(#clip0_838_2238)">
<ellipse cx="932" cy="915.5" rx="131" ry="69.5" fill="#AABBFF"/>
<path d="M993 969L1016.5 1012.5L1037.5 996L1012.5 942L977 913.5L939 917L993 969Z" fill="#3A3A3A"/>
<path d="M1039.5 1003L1011 1013.5L1020 1036.5L1043.5 1028.5L1039.5 1003Z" fill="#FFBF44"/>
<path d="M1111 1190C1050.6 1187.6 1024.17 1090.67 1018.5 1042.5C1016.1 1033.3 1033.83 1025 1043 1022L1052.5 1054L1075 1091L1084.5 1077L1131 1093L1184 1091C1184.83 1125 1171.4 1192.4 1111 1190Z" fill="#9E6740"/>
<path d="M1103 1158C1127 1164.4 1158.5 1149.83 1168 1141.5L1153.5 1174L1122 1192.5L1074 1182L1042.5 1145.5L1015.5 1044.5L1002 999.5L962 936.5L953 917.5C960.333 920.833 980.4 934.2 1002 961C1029 994.5 1035.5 1060.5 1050.5 1101C1065.6 1141.76 1073 1150 1103 1158Z" fill="#001647" fill-opacity="0.2"/>
<path d="M1113.5 1058C1078.7 1060 1090.67 1074.17 1101 1081L1179 1087.5L1189.5 1070C1178.67 1065.17 1148.3 1056 1113.5 1058Z" fill="#5B3827"/>
<path d="M1184 1076C1188.5 1149.5 1158 1190 1110 1188.5C1062 1187 1030 1153 1017.5 1055.5C1005.31 960.383 954.125 927.51 925.593 915.926M1079.5 1089.5C1061 1080.5 1053.8 1050.5 1036.5 992.5C1023.91 950.292 989.218 924.962 969.059 912.307M1080.5 1114.5C1080.17 1104.5 1079.2 1078.7 1084 1065.5M1011.5 1008L1034 996.5M1022 1042L1045.5 1030.5M876 912C898 917 932.891 916.736 969.059 912.307M1014 902.5C1000.47 907.255 984.917 910.365 969.059 912.307M915.5 954C926.667 958 954.1 963.2 974.5 952" stroke="black" stroke-width="20" stroke-linecap="round"/>
<ellipse cx="1134.29" cy="1070.01" rx="50.8114" ry="18.5698" transform="rotate(6.18578 1134.29 1070.01)" stroke="black" stroke-width="21"/>
</g>
<defs>
<clipPath id="clip0_838_2238">
<rect width="1500" height="1500" fill="white"/>
</clipPath>
</defs>
      <g clip-path="url(#clip0_771_459)">
<path d="M541.871 495.065L587.182 433.652L629.473 408.913L646.704 407.796L676.33 472.397L693.385 523.112C693.385 523.112 715.562 570.5 681.005 575.31C646.449 580.119 608.181 572.626 608.181 572.626L565.711 562.432L513.348 577.749C513.348 577.749 476.548 643.595 440.109 658.042C403.671 672.488 405.928 656.924 405.928 656.924L371.793 591.795L355.943 518.828C355.943 518.828 344.954 493.682 397.049 493.786C449.144 493.891 487.355 512.484 487.355 512.484L541.871 495.065Z" fill="#F56CDB"/>
<path d="M430.677 533.465C430.359 517.2 437.959 506.756 441.799 503.567L436.237 497.189L386.586 496.392L356 503.567L365.533 553.795L398.105 643.886L418.76 669L476.356 630.333L513.297 580.105L500.189 545.424L460.467 560.173C460.467 566.817 458.322 579.228 449.743 575.72C439.018 571.335 431.074 553.795 430.677 533.465Z" fill="#001647" fill-opacity="0.2"/>
<path d="M540.307 564.957C516.475 543.59 516.607 516.191 519.652 505.162L494.231 510.344L513.297 572.929L540.307 564.957Z" fill="#001647" fill-opacity="0.2"/>
<path d="M623.325 520.708C629.363 504.125 617.632 495.993 611.012 494C605.848 500.378 595.441 513.294 595.123 513.932C594.805 514.569 573.806 524.296 563.346 529.08C563.214 535.059 564.22 547.178 569.304 547.815C575.66 548.613 615.778 541.437 623.325 520.708Z" fill="#001647" fill-opacity="0.2"/>
<path d="M544.174 494.298L490.359 513.598L513.366 577.748L567.181 558.448L544.174 494.298Z" stroke="black" stroke-width="22" stroke-miterlimit="10"/>
<path d="M567.212 557.978C567.212 557.978 631.445 590.594 691.537 572.212C694.695 571.234 697.408 569.182 699.202 566.414C700.996 563.646 701.758 560.337 701.353 557.066C694.958 504.637 676.725 454.333 648.025 409.934L647.939 409.808C646.161 407.043 643.468 404.985 640.326 403.993C637.185 403.002 633.794 403.138 630.743 404.378C572.608 428.212 543.822 494.106 543.822 494.106" stroke="black" stroke-width="22" stroke-miterlimit="10"/>
<path d="M490.33 513.988C490.33 513.988 426.095 481.367 365.986 499.752C362.829 500.728 360.115 502.779 358.321 505.546C356.526 508.314 355.764 511.622 356.168 514.892V514.892C362.559 567.323 380.786 617.629 409.481 662.033L409.567 662.166C411.347 664.929 414.042 666.984 417.184 667.973C420.326 668.962 423.716 668.823 426.766 667.581C484.91 643.751 513.7 577.847 513.7 577.847" stroke="black" stroke-width="22" stroke-miterlimit="10"/>
<path d="M555.844 526.597C555.844 526.597 592.013 530.268 604.537 494.857" stroke="black" stroke-width="22" stroke-miterlimit="10" stroke-linecap="round"/>
<path d="M501.683 546.407C501.683 546.407 460.223 543.612 454.093 578.202" stroke="black" stroke-width="22" stroke-miterlimit="10" stroke-linecap="round"/>
<path d="M711.94 381.541L669.138 415.004L754.914 456.956C786.09 456.451 856.04 454.579 886.429 451.127C916.817 447.675 946.703 430.594 957.848 422.485L912.882 387.272L890.772 360.146L852.07 352.844L816.711 388.83L811.119 369.892L779.2 357.196L748.101 362.456L711.94 381.541Z" fill="#AABBFF"/>
<path d="M754.823 451.145C758.386 440.393 766.661 423.631 780.081 411.559M882.17 449.083C878.062 439.675 870.922 425.659 859.411 414.501M670.743 416.037C678.291 403.405 696.028 378.1 722.448 377.672C724.832 377.634 727.122 377.712 729.323 377.895M780.081 411.559C789.433 403.145 801.285 397.009 815.783 396.774C818.147 396.736 820.438 396.825 822.658 397.03M780.081 411.559C771.884 400.903 758.35 380.305 729.323 377.895M953.095 422.563C946.826 410.677 929.573 387.795 908.089 385.052M859.411 414.501C864.186 404.755 879.655 385.169 903.328 384.785C904.936 384.759 906.524 384.852 908.089 385.052M859.411 414.501C850.192 405.565 838.17 398.463 822.658 397.03M729.323 377.895C734.108 368.72 747.587 350.309 768.512 349.97C795.461 349.534 817.557 375.809 822.658 397.03M908.089 385.052C903.334 374.267 889.367 351.713 871.612 352C849.419 352.36 832.274 370.674 822.592 392.964" stroke="black" stroke-width="22" stroke-linecap="round"/>
</g>
<defs>
<clipPath id="clip0_771_459">
<rect width="1500" height="1500" fill="white"/>
</clipPath>
</defs>
      
    </g>
    </svg>