<svg
      xmlns="http://www.w3.org/2000/svg"
      preserveAspectRatio="xMidYMin meet"
      fill="none"
      viewBox="0 0 1500 1500"
    >
      <g>
      <path fill="url(#prefix__paint0_linear_53_30459)" d="M0 0h1500v1500H0z"/><defs><linearGradient id="prefix__paint0_linear_53_30459" x1="0" y1="0" x2="1500" y2="1500" gradientUnits="userSpaceOnUse">
<stop stop-color="#FFCB9F"/>
<stop offset="1" stop-color="#FF7F11"/>
</linearGradient></defs>
      <g clip-path="url(#prefix__clip0_53_28307)"><path d="M460.5 1094.5c-138.4 66.4-174 309.33-174.5 422.5h983.5c-12.5-72.17-53.2-244.1-116-354.5-78.5-138-520-151-693-68z" fill="#A760FF"/><path d="M367 1440c-17.2-1.2-22.167 49.83-22.5 75.5l47.5-4.5c-1.167-23.17-7.8-69.8-25-71zM674 1276c-29.6 1.2-47 22.83-52 33.5l4.5 14 56 10.5c14.833-5 44.8-18.8 46-34 1.5-19-17.5-25.5-54.5-24zM554.5 1131.5c-49.2-6.8-55.167 21.17-52 36-2 6.83 1.9 23.3 33.5 34.5 39.5 14 138 33.5 166.5 31 22.8-2 24.833-33.83 23-49.5-36.5-14.5-121.8-45.2-171-52zM842 1417c-38.8 30.4-22.5 74.67-9.5 93l140.5 3.5c7.167-4 20-20.9 14-56.5-7.5-44.5-96.5-78-145-40zM1114.5 1293c-46.4-6.8-12.67-111.83 10-163.5l49 71.5c-.33 33.5-12.6 98.8-59 92z" fill="#ABF"/><path d="M386 1459l-1 47.5H284c2.833-48.17 12.8-156.6 30-205 17.2-48.4 43.5-97.5 54.5-116 29.667-31.67 93.9-93.8 113.5-89 19.6 4.8 28.5 23.67 30.5 32.5l-16.5 22.5 7.5 21 9 19c-95.2 77.2-124 210.5-126.5 267.5z" fill="#001647" fill-opacity=".2"/><path d="M705.5 1163c27.2 82.4-120.333 42.67-197.5 12.5l23.5 29.5c29.333 8.33 95.4 25.7 125 28.5 37 3.5 71-12 71.5-33 .4-16.8-14.833-32-22.5-37.5zM659.5 1315.5c-19.2.4-34.667-6.5-40-10l6.5 17c6.5 2.33 27.7 7.3 60.5 8.5 32.8 1.2 37.667-26.83 36-41-12.833-6-35.4-15.5-23-5.5 15.5 12.5-16 30.5-40 31zM960.5 1463.5c-4-32.4-41.667-52.83-60-59H920c14.667 5.83 47.3 23.2 60.5 46 13.2 22.8 1.5 49.5-6 60h-22c4.333-2.17 12-14.6 8-47zM1143 1161c16 61.6-21.67 112.67-40 126.5 53.5 10.5 70.33-58.33 68.5-87L1143 1161z" fill="#001647" fill-opacity=".2"/><path d="M289.501 1512.5c-6-101.5 31-323.03 140.5-398 158.5-108.51 616.499-87 706.499 26 64.91 81.5 99.5 222.5 132.5 371M1084.5 1337c12.33 37 29.5 110.3 43.5 175.5m-646.499 0c.333-32.83 7.7-107.6 20.5-157" stroke="#000" stroke-width="20" stroke-linecap="round"/><ellipse cx="675.502" cy="1303.28" rx="53.591" ry="29" transform="rotate(-4.687 675.502 1303.28)" stroke="#000" stroke-width="20"/><path d="M515.271 1188.27c-36.061-24.71-9.368-73.42 39.746-60.07l145.257 41.58c16.768 4.8 32.505 18.71 28.297 35.64-5.969 24.01-33.117 28.75-56 27.53-67.132-3.59-121.239-19.97-157.3-44.68zM393 1490c0 27.06-10.969 49-24.5 49s-24.5-21.94-24.5-49 10.969-49 24.5-49 24.5 21.94 24.5 49zM1173 1198.09c0 35.54-15.89 101.53-57.73 93.09-54.77-11.04-11.86-107.12 7.51-159.18" stroke="#000" stroke-width="20"/><ellipse cx="906" cy="1473" rx="87" ry="71" stroke="#000" stroke-width="20"/></g><defs><clipPath id="prefix__clip0_53_28307"><path fill="#fff" d="M0 0h1500v1500H0z"/></clipPath></defs>
      <g clip-path="url(#clip0_497_1194)">
<path d="M379.667 654.812C432.345 471.574 618.472 401.981 699.114 390.653C740.985 382.718 849.655 375.215 949.364 408.675C980 418.956 1049.88 457.388 1091.92 499.818C1144.47 552.856 1272.97 732.052 1185.05 927.725C1097.12 1123.4 758.414 1092.29 612.749 1051.82C464.472 1010.63 314.48 881.563 379.667 654.812Z" fill="#AABBFF"/>
<path d="M449.293 747.204C454.734 531.068 585.306 432.345 649.911 410C432.292 459.565 365.296 655.455 364 747.204C377.99 984.871 584.496 1053.43 681 1058C601.498 1044.46 443.853 963.339 449.293 747.204Z" fill="#001647" fill-opacity="0.2"/>
<path d="M379.667 654.812C432.345 471.574 618.472 401.981 699.114 390.653C740.985 382.718 849.655 375.215 949.364 408.675C980 418.956 1049.88 457.388 1091.92 499.818C1144.47 552.856 1272.97 732.052 1185.05 927.725C1097.12 1123.4 758.414 1092.29 612.749 1051.82C464.472 1010.63 314.48 881.563 379.667 654.812Z" stroke="black" stroke-width="22" stroke-linecap="round"/>
</g>
<defs>
    <clipPath id="prefix__clip0_299_662"><path fill="#fff" d="M0 0h1500v1500H0z"/></clipPath>
</defs>
      <g clip-path="url(#clip0_624_3534)">
<path d="M780.422 771.992C785.186 778.098 791.28 783.038 798.24 786.435C805.2 789.833 812.843 791.599 820.589 791.599C828.334 791.599 835.977 789.833 842.937 786.435C849.897 783.038 855.991 778.098 860.755 771.992" stroke="black" stroke-width="22" stroke-miterlimit="10" stroke-linecap="round"/>
<path d="M972.16 771.992C976.925 778.098 983.018 783.038 989.979 786.435C996.939 789.833 1004.58 791.599 1012.33 791.599C1020.07 791.599 1027.71 789.833 1034.68 786.435C1041.64 783.038 1047.73 778.098 1052.49 771.992" stroke="black" stroke-width="22" stroke-miterlimit="10" stroke-linecap="round"/>
<path d="M922.5 961C929.521 961 936.385 958.918 942.223 955.017C948.061 951.116 952.611 945.572 955.298 939.085C957.985 932.598 958.688 925.461 957.318 918.574C955.948 911.688 952.567 905.362 947.602 900.398C942.638 895.433 936.312 892.052 929.426 890.682C922.539 889.312 915.402 890.015 908.915 892.702C902.428 895.389 896.884 899.939 892.983 905.777C889.082 911.615 887 918.479 887 925.5C887 934.915 890.74 943.945 897.398 950.602C904.055 957.26 913.085 961 922.5 961Z" fill="black" stroke="black" stroke-width="22" stroke-miterlimit="10" stroke-linecap="round"/>
</g>
<defs>
<clipPath id="clip0_624_3534">
<rect width="1500" height="1500" fill="white"/>
</clipPath>
</defs>
      <g clip-path="url(#clip0_838_2422)">
<ellipse cx="932" cy="915.5" rx="131" ry="69.5" fill="#AABBFF"/>
<path d="M916.488 918.577L931.325 908.855C933.985 907.113 936.223 904.799 937.876 902.083C939.529 899.367 940.556 896.317 940.882 893.154C941.208 889.992 940.825 886.796 939.761 883.8C938.697 880.804 936.978 878.082 934.73 875.834V875.834C932.657 873.765 930.181 872.142 927.456 871.068C924.731 869.994 921.814 869.491 918.886 869.59C915.959 869.689 913.083 870.388 910.436 871.644C907.79 872.899 905.429 874.685 903.501 876.89L890.301 891.98" stroke="black" stroke-width="22" stroke-miterlimit="10" stroke-linecap="round"/>
<path d="M916.488 918.675L931.325 928.397C933.986 930.137 936.225 932.449 937.879 935.165C939.533 937.88 940.561 940.93 940.887 944.093C941.213 947.255 940.83 950.451 939.764 953.447C938.699 956.442 936.979 959.163 934.73 961.41V961.41C932.66 963.484 930.185 965.111 927.46 966.188C924.734 967.265 921.817 967.771 918.888 967.672C915.959 967.574 913.081 966.875 910.434 965.617C907.787 964.359 905.427 962.571 903.501 960.362L890.301 945.271" stroke="black" stroke-width="22" stroke-miterlimit="10" stroke-linecap="round"/>
<path d="M1107.22 751.006C1069.86 751.344 1033.86 765.04 1005.72 789.618C977.582 814.195 959.169 848.032 953.812 885.006C953.15 889.572 951.309 893.887 948.472 897.526C945.635 901.164 941.899 904.001 937.632 905.756L926.952 912.626C926.14 913.148 925.456 913.846 924.95 914.668C924.445 915.49 924.131 916.416 924.032 917.376C923.935 918.339 924.058 919.312 924.391 920.221C924.723 921.13 925.257 921.952 925.952 922.626C943.132 939.066 957.522 954.256 967.952 975.626C983.451 1007.57 1009.35 1033.29 1041.4 1048.56C1073.45 1063.83 1109.74 1067.75 1144.31 1059.67C1178.88 1051.59 1209.68 1031.99 1231.64 1004.1C1253.6 976.203 1265.42 941.667 1265.15 906.166C1264.45 820.126 1193.36 750.246 1107.22 751.006Z" fill="#F56CDB" fill-opacity="0.9" stroke="black" stroke-width="20" stroke-miterlimit="10"/>
<path d="M1215.48 846.919C1231.5 877.007 1232.08 908.004 1216.78 916.154C1201.48 924.303 1203.79 891.763 1187.77 861.675C1171.74 831.587 1143.45 815.346 1158.75 807.196C1174.06 799.047 1199.45 816.831 1215.48 846.919Z" fill="white"/>
<circle cx="1216.95" cy="946.006" r="13" fill="white"/>
</g>
<defs>
<clipPath id="clip0_838_2422">
<rect width="1500" height="1500" fill="white"/>
</clipPath>
</defs>
      <g clip-path="url(#clip0_598_1862)">
<path d="M551.5 554.5L559 615L272 627.5L269.5 576L551.5 554.5Z" fill="#7E5741"/>
<path d="M1168 585C1151.6 556.2 1138.83 539.667 1134.5 535L1254.5 531.5L1260 580.5L1168 585Z" fill="#7E5741"/>
<path d="M1254.5 503C1256.67 540.167 1261 615 1261 617L1377 564L1254.5 503Z" fill="#F6F6F6"/>
<path d="M191 610L141.5 703.5L330.5 686.5L386 624.5L274 631.5L264.5 574L390.5 567.5L333 512L115.5 524L191 610Z" fill="#F6F6F6"/>
<path d="M556.5 612L396 622.084M552 553L392.5 563.837M546.5 536C554.5 550 567.8 591.7 557 630.5M392.5 563.837L275.167 571.809C269.583 572.189 265.398 577.077 265.883 582.652L267.5 601.25M392.5 563.837L339.741 511.232C337.683 509.18 334.834 508.124 331.936 508.341L117.597 524.343C116.757 524.406 116.366 525.416 116.945 526.028L194 607.5M194 607.5L267.5 601.25M194 607.5L137.011 700.844C136.588 701.537 137.125 702.42 137.936 702.362L328.65 688.774C331.128 688.598 333.451 687.506 335.167 685.71L396 622.084M267.5 601.25L269.154 620.274C269.625 625.683 274.325 629.728 279.744 629.388L396 622.084M1258 580L1161 584M1127.5 533L1251 529.5M1253.12 622.042L1382.04 563.883C1382.82 563.534 1382.83 562.438 1382.06 562.07L1244.76 496.101C1243.73 495.607 1242.51 497.208 1243.2 498.118C1256.19 515.305 1272.56 559.054 1251.76 620.774C1251.48 621.607 1252.32 622.404 1253.12 622.042Z" stroke="black" stroke-width="22" stroke-linecap="round"/>
<path d="M1255.5 556L1151.5 560L1166 586L1252.5 581.5V620.5L1371.5 567L1343 548.5L1262 581.5L1255.5 556Z" fill="#001647" fill-opacity="0.2"/>
<path d="M239.5 608.5L189.5 694.5L138 705L186.5 613L239.5 608.5Z" fill="#001647" fill-opacity="0.2"/>
<path d="M558.5 585L271.5 603.5V630L556 613L558.5 585Z" fill="#001647" fill-opacity="0.2"/>
<path d="M235 597.5L164 521.5L123 529L181 600L235 597.5Z" fill="#001647" fill-opacity="0.2"/>
<path d="M711.94 381.541L669.138 415.004L754.914 456.956C786.09 456.451 856.04 454.579 886.429 451.127C916.817 447.675 946.703 430.594 957.848 422.485L912.882 387.272L890.772 360.146L852.07 352.844L816.711 388.83L811.119 369.892L779.2 357.196L748.101 362.456L711.94 381.541Z" fill="#AABBFF"/>
<path d="M754.823 451.145C758.386 440.393 766.661 423.631 780.081 411.559M882.17 449.083C878.062 439.675 870.922 425.659 859.411 414.501M670.743 416.037C678.291 403.405 696.028 378.1 722.448 377.672C724.832 377.634 727.122 377.712 729.323 377.895M780.081 411.559C789.433 403.145 801.285 397.009 815.783 396.774C818.147 396.736 820.438 396.825 822.658 397.03M780.081 411.559C771.884 400.903 758.35 380.305 729.323 377.895M953.095 422.563C946.826 410.677 929.573 387.795 908.089 385.052M859.411 414.501C864.186 404.755 879.655 385.169 903.328 384.785C904.936 384.759 906.524 384.852 908.089 385.052M859.411 414.501C850.192 405.565 838.17 398.463 822.658 397.03M729.323 377.895C734.108 368.72 747.587 350.309 768.512 349.97C795.461 349.534 817.557 375.809 822.658 397.03M908.089 385.052C903.334 374.267 889.367 351.713 871.612 352C849.419 352.36 832.274 370.674 822.592 392.964" stroke="black" stroke-width="22" stroke-linecap="round"/>
</g>
<defs>
<clipPath id="clip0_598_1862">
<rect width="1500" height="1500" fill="white"/>
</clipPath>
</defs>
      
    </g>
    </svg>