<svg
      xmlns="http://www.w3.org/2000/svg"
      preserveAspectRatio="xMidYMin meet"
      fill="none"
      viewBox="0 0 1500 1500"
    >
      <g>
      <path fill="url(#prefix__paint0_linear_53_30463)" d="M0 0h1500v1500H0z"/><defs><linearGradient id="prefix__paint0_linear_53_30463" x1="1500" y1="1500" x2="0" y2="0" gradientUnits="userSpaceOnUse">
<stop stop-color="#FF5A5A"/>
<stop offset="1" stop-color="#FFBDBD"/>
</linearGradient></defs>
      <g clip-path="url(#clip0_494_770)">
<path d="M773 1011.5C543.4 1029.9 398.667 1353.5 355 1513H1138.5C1075.7 1127 868.667 1017.83 773 1011.5Z" fill="#AABBFF"/>
<path d="M665.5 1302.5C658.3 1195.7 560.833 1178.67 513 1183.5L587.5 1096L665.5 1040L704 1029.5C714 1075.5 753 1164.5 822 1164.5C877.2 1164.5 900.333 1094.5 905 1059.5L1021 1201.5L1016.5 1236V1287L1028.5 1354L1043.5 1423L1047.5 1509.5H650V1503C658.167 1480.67 672.7 1409.3 665.5 1302.5Z" fill="white"/>
<path d="M749.5 1019.5C536 1134 457.448 1414.63 443.159 1511H353.699C350.414 1508.73 357.049 1471.27 409.87 1339.62C462.691 1207.98 569.086 1113.24 605.384 1082.33L674 1033.5L749.5 1019.5Z" fill="#001647" fill-opacity="0.2"/>
<path d="M353.5 1519.5C365.5 1454.33 414.5 1313.6 483.5 1219C530.101 1155.11 577.468 1101.29 629.141 1059.66C710.278 994.299 826.037 996.323 905.02 1064.27C1000.08 1146.05 1103.44 1290.29 1142.5 1519.5M1050.5 1519.5C1048.1 1443.9 1024.83 1354.33 1013.5 1319C999.5 1268 1009.7 1225.3 1020.5 1204.5M653.5 1519.5C650.3 1467.1 661.167 1392.33 667 1361.5C674 1324.5 668 1288.8 642 1250C609.5 1201.5 554.5 1171 517 1179.5M709 1016C709 1064.17 732.1 1164.5 824.5 1164.5C884 1164.5 902.33 1109.22 895.355 1059.5" stroke="black" stroke-width="22" stroke-linecap="round"/>
<path d="M933.223 1272.02L937.932 1261.68L954.916 1287.26L955.318 1292.17L952.556 1258.38C952.5 1257.97 952.361 1257.57 952.148 1257.22C951.935 1256.87 951.653 1256.57 951.324 1256.36L923.078 1239.35C922.758 1239.18 922.407 1239.09 922.052 1239.09C921.696 1239.09 921.346 1239.18 921.025 1239.35C920.943 1239.4 920.864 1239.45 920.789 1239.5L920.701 1239.57L895.946 1256.2L895.849 1256.25C895.719 1256.32 895.596 1256.41 895.482 1256.51C895.254 1256.7 895.065 1256.95 894.928 1257.22C894.79 1257.5 894.707 1257.81 894.683 1258.12C894.677 1258.22 894.677 1258.32 894.683 1258.42L896.932 1285.96L908.934 1262.25C910.433 1259.11 914.167 1258.09 917.712 1258.15L921.877 1258.26L900.858 1301.46L903.892 1303.28L925.062 1258.29L936.011 1258.25L914.997 1304.37L925.824 1310.89L927.117 1311.67C927.647 1311.9 928.235 1311.91 928.773 1311.7L954.632 1294.33L949.695 1297.66L933.223 1272.02ZM938.026 1305.5L926.181 1287.55L931.577 1275.69L947.138 1299.37L938.026 1305.5Z" fill="#2D374B"/>
<path d="M926.181 1287.54L938.026 1305.48L947.138 1299.37L931.573 1275.68L926.181 1287.54Z" fill="#28A0F0"/>
<path d="M955.32 1292.16L954.918 1287.26L937.934 1261.68L933.221 1272.01L949.694 1297.66L954.642 1294.34C954.879 1294.11 955.065 1293.83 955.188 1293.51C955.311 1293.19 955.367 1292.84 955.351 1292.49L955.32 1292.16Z" fill="#28A0F0"/>
<path d="M893.127 1296.79L900.86 1301.46L921.879 1258.26L917.714 1258.14C914.167 1258.09 910.435 1259.1 908.936 1262.24L896.934 1285.96L892.893 1293.86L893.129 1296.8L893.127 1296.79Z" fill="white"/>
<path d="M936.023 1258.26L925.072 1258.3L903.904 1303.29L913.006 1308.77L915.009 1304.38L936.023 1258.26Z" fill="white"/>
<path d="M957.205 1258.19C957.036 1256.92 956.608 1255.7 955.953 1254.63C955.298 1253.57 954.433 1252.67 953.422 1252.02L924.807 1234.8C923.835 1234.27 922.766 1234 921.683 1234C920.599 1234 919.531 1234.27 918.559 1234.8C918.341 1234.93 893.432 1251.68 893.432 1251.68C892.347 1252.27 891.444 1253.21 890.836 1254.36C890.228 1255.52 889.941 1256.85 890.01 1258.18L892.888 1293.86L896.93 1285.95L894.681 1258.42C894.668 1258.06 894.736 1257.69 894.877 1257.36C895.018 1257.03 895.228 1256.73 895.492 1256.51C895.608 1256.41 920.945 1239.41 921.032 1239.36C921.353 1239.19 921.703 1239.11 922.059 1239.11C922.414 1239.11 922.765 1239.19 923.085 1239.36L951.331 1256.37C951.66 1256.59 951.942 1256.88 952.155 1257.23C952.368 1257.58 952.508 1257.98 952.563 1258.4L955.302 1292.5C955.327 1292.84 955.282 1293.18 955.168 1293.5C955.055 1293.83 954.876 1294.11 954.647 1294.35L949.692 1297.66L947.143 1299.38L938.024 1305.51L928.777 1311.71C928.24 1311.92 927.652 1311.91 927.122 1311.68L915.004 1304.38L913.001 1308.77L923.894 1315.34C924.253 1315.55 924.573 1315.74 924.84 1315.9C925.247 1316.13 925.523 1316.3 925.62 1316.35C926.506 1316.76 927.458 1316.97 928.42 1316.97C929.275 1316.98 930.122 1316.8 930.915 1316.45L957.78 1298.41C958.529 1297.71 959.119 1296.83 959.502 1295.83C959.885 1294.84 960.051 1293.75 959.986 1292.68L957.205 1258.19Z" fill="#8BBFDF"/>
</g>
<defs>
<clipPath id="clip0_494_770">
<rect width="1500" height="1500" fill="white"/>
</clipPath>
</defs>
      <g clip-path="url(#clip0_497_1194)">
<path d="M379.667 654.812C432.345 471.574 618.472 401.981 699.114 390.653C740.985 382.718 849.655 375.215 949.364 408.675C980 418.956 1049.88 457.388 1091.92 499.818C1144.47 552.856 1272.97 732.052 1185.05 927.725C1097.12 1123.4 758.414 1092.29 612.749 1051.82C464.472 1010.63 314.48 881.563 379.667 654.812Z" fill="#AABBFF"/>
<path d="M449.293 747.204C454.734 531.068 585.306 432.345 649.911 410C432.292 459.565 365.296 655.455 364 747.204C377.99 984.871 584.496 1053.43 681 1058C601.498 1044.46 443.853 963.339 449.293 747.204Z" fill="#001647" fill-opacity="0.2"/>
<path d="M379.667 654.812C432.345 471.574 618.472 401.981 699.114 390.653C740.985 382.718 849.655 375.215 949.364 408.675C980 418.956 1049.88 457.388 1091.92 499.818C1144.47 552.856 1272.97 732.052 1185.05 927.725C1097.12 1123.4 758.414 1092.29 612.749 1051.82C464.472 1010.63 314.48 881.563 379.667 654.812Z" stroke="black" stroke-width="22" stroke-linecap="round"/>
</g>
<defs>
    <clipPath id="prefix__clip0_299_662"><path fill="#fff" d="M0 0h1500v1500H0z"/></clipPath>
</defs>
      <g clip-path="url(#clip0_624_3473)">
<path d="M1010.33 800C1015.74 800 1021.02 798.397 1025.52 795.394C1030.01 792.39 1033.52 788.121 1035.59 783.127C1037.65 778.132 1038.2 772.637 1037.14 767.334C1036.09 762.032 1033.48 757.162 1029.66 753.339C1025.84 749.517 1020.97 746.913 1015.67 745.859C1010.36 744.804 1004.87 745.345 999.873 747.414C994.879 749.483 990.61 752.986 987.606 757.481C984.603 761.976 983 767.261 983 772.667C983 779.916 985.88 786.868 991.006 791.994C996.132 797.12 1003.08 800 1010.33 800Z" fill="black"/>
<path d="M799.421 789.214L858.141 778.547C859.189 778.352 860.151 777.837 860.895 777.073C861.639 776.309 862.128 775.334 862.294 774.28C862.455 773.224 862.285 772.143 861.808 771.187C861.331 770.234 860.569 769.453 859.628 768.954L804.701 739.807" stroke="black" stroke-width="22" stroke-miterlimit="10" stroke-linecap="round"/>
<path d="M870.88 910.959C896.593 937.099 946.447 937.099 972.167 910.959" stroke="black" stroke-width="22" stroke-miterlimit="10" stroke-linecap="round"/>
</g>
<defs>
<clipPath id="clip0_624_3473">
<rect width="1500" height="1500" fill="white"/>
</clipPath>
</defs>
      <g clip-path="url(#clip0_925_1372)">
<path d="M777.796 860C685.697 848.775 660.871 768.614 659.97 729.937C656.078 723.892 664.834 710.508 669.699 704.571L759.419 694.857L912.917 690L1139.92 698.635L1161 711.587L1157.22 758L1137.22 800.635L1113.44 838.952L1058.85 856.222L1022.64 849.206L962.101 828.159L920.484 813.587L863.192 842.19L777.796 860Z" fill="#53B6F9"/>
<path d="M690.196 699.224L763.942 693.424L860.722 851.244L833.96 864.946L794.601 869.089L690.196 699.224Z" fill="white" fill-opacity="0.9"/>
<path d="M781.871 695.304L801.049 695.304L884.919 828.487L873.319 837.602L781.871 695.304Z" fill="white" fill-opacity="0.9"/>
<path d="M958.357 690.074L1034.53 694.827L1119.67 818.835L1095.84 839.835L1062.61 854.919L958.357 690.074Z" fill="white" fill-opacity="0.9"/>
<path d="M1054 703.114L1068.91 703.114L1136.86 798.404L1127.74 811.662L1054 703.114Z" fill="white" fill-opacity="0.9"/>
<path d="M380.533 812.923C375.5 796.5 374.5 765 374.5 751L651.28 726.616L670.756 799.308L380.533 812.923Z" fill="white"/>
<path d="M1152.8 782.616L1167.95 724.462L1197.05 722.039C1201.5 741 1204.5 770 1204 784.5L1152.8 782.616Z" fill="white"/>
<path d="M501 809C493.8 789.4 494.333 761.833 495.5 750.5L373 754.5C370.2 772.1 377.166 802.167 379.5 815L501 809Z" fill="#001647" fill-opacity="0.2"/>
<path d="M653.87 725.984L365.663 749.005M669.935 798.066L372 811M1152.99 785.259L1210.28 779.417M1165.96 721.569L1206.5 721.569M781.167 861.953C682.013 851.636 657.16 770.149 656.503 719.768C656.395 711.426 662.733 704.694 671.004 703.598C763.882 691.282 967.052 676.004 1150.78 699.286C1158.48 700.261 1164.71 706.141 1164.73 713.901C1164.84 756.804 1137.12 837.115 1065.29 855.363C1017.69 867.452 975.216 843.757 948.769 820.361C936.589 809.587 917.535 808.228 904.418 817.837C856.527 852.92 804.134 862.105 781.167 861.953Z" stroke="black" stroke-width="22" stroke-linecap="round"/>
</g>
<defs>
<clipPath id="clip0_925_1372">
<rect width="1500" height="1500" fill="white"/>
</clipPath>
</defs>
      <g clip-path="url(#clip0_602_1931)">
<path d="M718.5 336C430.5 374.4 355.833 571 354.5 664.5L414.5 657L585 641.5L677.5 700.5L746 715.5L795 706.5L864.5 683L951 641.5L1027 629C1040.67 630 1078.8 633.9 1122 641.5C1176 651 1185 710.5 1224.5 677C1256.1 650.2 1196 608.166 1162 590.5C1163 539 1078.5 288 718.5 336Z" fill="#F56CDB"/>
<path d="M790.5 334.999C576.9 453.399 513.5 594.666 508.5 650.499L355.5 670.5C343.167 665.833 342.4 622.399 438 485.999C533.6 349.599 712.834 328.499 790.5 334.999Z" fill="#001647" fill-opacity="0.2"/>
<path d="M918 513C740.4 509.8 610.667 597.833 577.5 639.5L635 613.5L746 568.5L911.5 542.5L1081.5 557L1179.5 596C1166.33 568 1095.6 516.2 918 513Z" fill="#001647" fill-opacity="0.2"/>
<path d="M1168 594.006C1137.5 399.5 919 330 797.5 330C484.905 330 371.892 543.53 353.776 661.318C352.717 668.2 359.115 673.614 365.869 671.92C411.449 660.485 504.576 640.341 587 645M587 645C621.5 612.167 730.5 548 894.5 542C1079.59 535.228 1192.54 594.489 1230.03 642.496C1236.7 651.039 1235.02 662.819 1228.03 671.106V671.106C1218.11 682.881 1200.55 684.175 1188.11 675.098C1145.41 643.936 1080.11 612.042 1002 628C892.783 650.313 790 754 669.5 701.5L587 645Z" stroke="black" stroke-width="22" stroke-linecap="round"/>
<path d="M819.136 403.189L836.895 401.663L847.224 454.606L829.464 456.132L832.902 473.777L821.061 474.795L817.618 457.15L799.859 458.676L789.53 405.734L807.295 404.207L803.852 386.563L815.693 385.545L819.136 403.189ZM884.078 427.515L901.842 425.989L912.161 478.932L894.407 480.458L897.849 498.102L886.008 499.12L882.565 481.475L864.801 483.002L854.478 430.059L872.237 428.533L868.794 410.884L880.635 409.866L884.078 427.515Z" fill="black"/>
</g>
<defs>
<clipPath id="clip0_602_1931">
<rect width="1500" height="1500" fill="white"/>
</clipPath>
</defs>
      
    </g>
    </svg>