<svg
      xmlns="http://www.w3.org/2000/svg"
      preserveAspectRatio="xMidYMin meet"
      fill="none"
      viewBox="0 0 1500 1500"
    >
      <g>
      <path fill="url(#prefix__paint0_linear_53_30460)" d="M0 0h1500v1500H0z"/><defs><linearGradient id="prefix__paint0_linear_53_30460" x1="0" y1="0" x2="1500" y2="1500" gradientUnits="userSpaceOnUse">
<stop stop-color="#F1FFBA"/>
<stop offset="1" stop-color="#65DCBA"/>
</linearGradient></defs>
      <g clip-path="url(#clip0_491_661)">
<path d="M773 1011.5C543.4 1029.9 398.667 1353.5 355 1513H1138.5C1075.7 1127 868.667 1017.83 773 1011.5Z" fill="white"/>
<path d="M659 1426.5L652 1506.5H1049.5L1030 1393L970 1295L962.5 1122L889 1052L903 1295L790.5 1306.5L693 1082.5L646.5 1039.5L602.5 1082.5L714 1306.5L699.5 1310C693.833 1329.17 682 1369.4 680 1377C678 1384.6 665.167 1413.17 659 1426.5Z" fill="#4AEEB9"/>
<path d="M409.87 1339.62C462.691 1207.98 569.086 1113.24 605.384 1082.33L674 1033.5L749.5 1019.5C700.439 1045.81 658.504 1080.9 622.837 1120.5L648 1146L686 1225.5L711 1304L699.5 1310.5L688 1325.5C670.8 1260.7 622.964 1178.83 601.196 1146C497.288 1275.8 453.476 1441.42 443.159 1511H353.699C350.414 1508.73 357.049 1471.27 409.87 1339.62Z" fill="#001647" fill-opacity="0.2"/>
<path d="M353.5 1519.5C365.5 1454.33 414.5 1313.6 483.5 1219C530.101 1155.11 577.468 1101.29 629.141 1059.66C710.278 994.299 826.037 996.323 905.02 1064.27C1000.08 1146.05 1103.44 1290.29 1142.5 1519.5M1013.5 1319C1024.83 1354.33 1048.1 1443.9 1050.5 1519.5M667 1361.5C661.167 1392.33 650.3 1467.1 653.5 1519.5M604.5 1084C635.258 1130.06 695.902 1235.08 721.061 1325.99C726.673 1346.27 746.935 1359.9 767.42 1355.09C787.404 1350.4 799.478 1330.11 793.043 1310.61C771.029 1243.93 726.704 1133.05 664 1038M962 1121.5C964.844 1156.07 968.134 1219.1 968.588 1273.5M968.588 1273.5C968.712 1288.36 968.625 1302.57 968.259 1315.38C967.766 1332.63 952.618 1345.24 935.427 1343.68C918.895 1342.17 906.385 1328.09 906.315 1311.49C906.045 1246.8 900.499 1137.84 884.5 1057.5M968.588 1273.5C973.442 1318.3 1011.5 1378 1030 1387.5M657 1436.5C667.459 1422.72 689.328 1378.85 693.452 1313.28C693.481 1312.82 693.81 1312.44 694.255 1312.35L708.5 1309.5M792.5 1301L899.5 1293.5" stroke="black" stroke-width="22" stroke-linecap="round"/>
<circle cx="758" cy="1319" r="11" fill="black"/>
<circle cx="938" cy="1309" r="11" fill="black"/>
<path d="M834.397 1435.53C832.697 1434.23 830.587 1433.66 828.447 1433.91C826.327 1434.17 824.167 1434.3 822.017 1434.31C820.167 1434.32 818.317 1434.23 816.357 1434.13L815.587 1434.09C815.037 1434.06 814.477 1434.03 813.907 1434.01C813.097 1433.99 812.247 1433.98 811.357 1433.98H811.267C810.237 1433.94 809.187 1434.16 808.237 1434.59C807.297 1435.02 806.447 1435.67 805.817 1436.44C805.137 1437.23 804.657 1438.14 804.367 1439.14C804.077 1440.14 804.017 1441.17 804.157 1442.13C804.417 1444.27 805.457 1446.21 807.097 1447.61C808.537 1448.94 810.357 1449.72 812.297 1449.85C812.217 1449.94 812.137 1450.02 812.057 1450.1L811.927 1450.24C811.337 1450.91 810.617 1451.45 809.807 1451.83C809.027 1452.19 808.207 1452.4 807.347 1452.44C806.747 1452.39 806.167 1452.21 805.647 1451.92C805.097 1451.61 804.607 1451.17 804.197 1450.59C803.167 1449.23 802.327 1447.73 801.707 1446.16C800.577 1443.23 799.847 1440.15 799.517 1436.93C798.677 1430.96 798.787 1426.41 799.857 1423.35C800.527 1421.21 801.457 1420.7 801.847 1420.53C802.317 1420.37 802.807 1420.3 803.317 1420.31C803.937 1420.32 804.547 1420.41 805.127 1420.55C805.707 1420.7 806.287 1420.9 806.837 1421.13C807.077 1421.23 807.317 1421.35 807.557 1421.47C808.297 1422.53 809.237 1423.46 810.297 1424.18C811.667 1425.11 813.267 1425.6 814.857 1425.6C814.857 1425.6 814.867 1425.6 814.877 1425.6C815.917 1425.63 816.977 1425.41 817.917 1424.97C818.867 1424.53 819.707 1423.87 820.347 1423.07C821.017 1422.25 821.507 1421.28 821.757 1420.25C822.007 1419.22 822.037 1418.13 821.827 1417.09C821.597 1416.01 821.227 1414.96 820.717 1413.99C819.967 1412.57 818.957 1411.33 817.717 1410.31C816.367 1409.11 814.867 1408.1 813.237 1407.31C809.717 1405.41 805.747 1404.4 801.747 1404.4C800.277 1404.34 798.797 1404.48 797.377 1404.82C796.017 1405.13 794.697 1405.6 793.427 1406.23C791.987 1406.96 790.667 1407.89 789.507 1408.99C788.327 1410.11 787.297 1411.39 786.427 1412.87C784.627 1416.15 783.547 1419.69 783.217 1423.41C782.807 1428.12 782.977 1432.87 783.727 1437.48C785.037 1446.9 787.867 1454.38 792.107 1459.68C794.157 1462.3 796.687 1464.43 799.627 1466.01C802.397 1467.48 805.527 1468.29 808.587 1468.33L809.117 1468.35C811.927 1468.35 814.647 1467.77 817.237 1466.61C822.237 1464.32 826.167 1460.26 828.307 1455.17C828.977 1453.52 829.407 1451.76 829.577 1449.98C830.417 1449.91 831.177 1449.82 831.887 1449.7C832.917 1449.6 833.917 1449.26 834.797 1448.72C835.707 1448.16 836.487 1447.39 837.027 1446.51C837.597 1445.61 837.967 1444.58 838.107 1443.52C838.237 1442.48 838.147 1441.41 837.837 1440.41C837.287 1438.43 836.067 1436.7 834.397 1435.52V1435.53Z" fill="black"/>
<path d="M886.648 1453.34C884.998 1451.96 882.918 1451.29 880.778 1451.45C878.818 1451.59 877.008 1451.7 875.248 1451.78C873.228 1451.87 871.198 1451.93 869.168 1451.97C867.448 1452.01 865.608 1452.02 863.358 1452.01C862.448 1452.01 861.528 1451.99 860.618 1451.93C860.548 1451.66 860.478 1451.39 860.398 1451.12L860.348 1450.93C860.078 1449.88 859.728 1448.58 859.398 1446.81L859.338 1446.51C858.988 1444.66 858.588 1442.56 858.278 1440.27C857.938 1437.76 857.588 1434.99 857.238 1432.05C856.958 1429.64 856.708 1427.18 856.488 1424.73C856.278 1422.34 856.088 1420.24 855.948 1418.41C855.798 1416.6 855.708 1415.17 855.638 1414.08L855.568 1412.91C855.558 1412.73 855.548 1412.59 855.538 1412.5V1412.48V1412.35C855.418 1410.24 854.528 1408.27 853.028 1406.78C851.578 1405.22 849.608 1404.25 847.508 1404.04C846.458 1403.93 845.388 1404.04 844.388 1404.38C843.388 1404.72 842.468 1405.28 841.728 1405.97C840.948 1406.69 840.338 1407.6 839.968 1408.59C839.598 1409.59 839.468 1410.67 839.588 1411.7C839.598 1411.85 839.628 1412.36 839.678 1413.2L839.718 1413.83C839.798 1415.22 839.928 1417.01 840.098 1419.21L840.728 1426.6C840.968 1429.39 841.298 1432.31 841.708 1435.22C842.138 1438.7 842.598 1441.91 843.048 1444.74C843.438 1447.31 843.958 1449.89 844.588 1452.36C844.928 1453.83 845.308 1455.16 845.698 1456.34C846.068 1457.45 846.508 1458.54 846.988 1459.58C847.598 1460.93 848.408 1462.18 849.318 1463.22C850.198 1464.31 851.258 1465.23 852.488 1465.94C853.358 1466.44 854.298 1466.81 855.188 1467.01C855.358 1467.06 855.608 1467.11 855.928 1467.17L856.478 1467.28C856.898 1467.37 857.418 1467.44 858.058 1467.53L858.918 1467.65C859.998 1467.8 861.258 1467.87 862.858 1467.95C864.148 1468.01 865.648 1468.05 867.318 1468.05C867.728 1468.05 868.148 1468.05 868.588 1468.05L870.538 1468C871.218 1468 871.958 1467.96 872.748 1467.91C874.008 1467.9 875.328 1467.86 876.808 1467.8L880.198 1467.61L883.588 1467.43C884.628 1467.37 885.658 1467.07 886.558 1466.56C887.468 1466.05 888.258 1465.33 888.828 1464.5C889.448 1463.63 889.868 1462.62 890.058 1461.58C890.238 1460.55 890.198 1459.47 889.928 1458.46C889.448 1456.44 888.288 1454.62 886.648 1453.34Z" fill="black"/>
<path d="M937.599 1429.02C937.509 1427.88 937.339 1426.72 937.099 1425.58L937.049 1425.38C935.919 1421.61 933.789 1418.19 930.909 1415.51C928.029 1412.83 924.729 1410.68 921.119 1409.1C917.109 1407.35 912.879 1406.16 908.539 1405.56C903.819 1404.91 899.019 1404.81 894.279 1405.26C893.269 1405.32 892.269 1405.61 891.379 1406.09C890.469 1406.58 889.679 1407.29 889.069 1408.13C888.449 1408.99 888.029 1409.99 887.849 1411.04C887.669 1412.05 887.729 1413.11 887.999 1414.1C889.619 1421.53 891.129 1429.42 892.469 1437.54C893.809 1445.65 894.969 1453.61 895.919 1461.21C896.109 1463.35 897.099 1465.3 898.709 1466.71C900.229 1468.13 902.199 1469 904.279 1469.15L904.489 1469.17L904.829 1469.14H904.839C905.819 1469.14 906.789 1468.93 907.679 1468.52C908.629 1468.08 909.469 1467.42 910.089 1466.64C910.749 1465.84 911.219 1464.93 911.489 1463.94C911.759 1462.97 911.819 1461.98 911.669 1460.98C911.509 1459.21 911.299 1457.48 911.069 1455.82C910.929 1454.86 910.799 1453.9 910.679 1452.94C918.969 1451.01 925.489 1448.13 930.059 1444.39C931.949 1442.9 933.559 1441.13 934.859 1439.11C935.889 1437.49 936.669 1435.73 937.159 1433.87C937.579 1432.3 937.719 1430.68 937.599 1429.05V1429.02ZM919.269 1431.48C917.839 1432.61 916.269 1433.57 914.629 1434.32C912.539 1435.26 910.369 1436.03 908.159 1436.63C907.289 1431.31 906.329 1426.04 905.309 1420.89C908.659 1421.09 912.089 1421.95 916.099 1423.57C917.589 1424.19 918.969 1425.03 920.289 1426.11C920.919 1426.59 921.399 1427.24 921.679 1427.98C921.699 1428.13 921.699 1428.29 921.679 1428.44C921.649 1428.63 921.579 1428.81 921.429 1429.04C920.889 1429.98 920.169 1430.79 919.269 1431.47V1431.48Z" fill="black"/>
</g>
<defs>
<clipPath id="clip0_491_661">
<rect width="1500" height="1500" fill="white"/>
</clipPath>
</defs>
      <g clip-path="url(#clip0_497_1194)">
<path d="M379.667 654.812C432.345 471.574 618.472 401.981 699.114 390.653C740.985 382.718 849.655 375.215 949.364 408.675C980 418.956 1049.88 457.388 1091.92 499.818C1144.47 552.856 1272.97 732.052 1185.05 927.725C1097.12 1123.4 758.414 1092.29 612.749 1051.82C464.472 1010.63 314.48 881.563 379.667 654.812Z" fill="#AABBFF"/>
<path d="M449.293 747.204C454.734 531.068 585.306 432.345 649.911 410C432.292 459.565 365.296 655.455 364 747.204C377.99 984.871 584.496 1053.43 681 1058C601.498 1044.46 443.853 963.339 449.293 747.204Z" fill="#001647" fill-opacity="0.2"/>
<path d="M379.667 654.812C432.345 471.574 618.472 401.981 699.114 390.653C740.985 382.718 849.655 375.215 949.364 408.675C980 418.956 1049.88 457.388 1091.92 499.818C1144.47 552.856 1272.97 732.052 1185.05 927.725C1097.12 1123.4 758.414 1092.29 612.749 1051.82C464.472 1010.63 314.48 881.563 379.667 654.812Z" stroke="black" stroke-width="22" stroke-linecap="round"/>
</g>
<defs>
    <clipPath id="prefix__clip0_299_662"><path fill="#fff" d="M0 0h1500v1500H0z"/></clipPath>
</defs>
      <g clip-path="url(#clip0_624_3522)">
<path d="M822 818C849.062 818 871 796.062 871 769C871 741.938 849.062 720 822 720C794.938 720 773 741.938 773 769C773 796.062 794.938 818 822 818Z" fill="white" stroke="black" stroke-width="20" stroke-miterlimit="10"/>
<path d="M1012 818C1039.06 818 1061 796.062 1061 769C1061 741.938 1039.06 720 1012 720C984.938 720 963 741.938 963 769C963 796.062 984.938 818 1012 818Z" fill="white" stroke="black" stroke-width="20" stroke-miterlimit="10"/>
<path d="M809 770C816.18 770 822 764.18 822 757C822 749.82 816.18 744 809 744C801.82 744 796 749.82 796 757C796 764.18 801.82 770 809 770Z" fill="black"/>
<path d="M1024 770C1031.18 770 1037 764.18 1037 757C1037 749.82 1031.18 744 1024 744C1016.82 744 1011 749.82 1011 757C1011 764.18 1016.82 770 1024 770Z" fill="black"/>
<path d="M988.653 885.957H855.227C854.074 885.957 852.968 886.415 852.153 887.23C851.338 888.045 850.88 889.151 850.88 890.303C850.88 909.026 858.317 926.982 871.556 940.221C884.795 953.46 902.751 960.897 921.474 960.897H922.406C941.129 960.897 959.085 953.46 972.324 940.221C985.562 926.982 993 909.026 993 890.303C993 889.151 992.542 888.045 991.727 887.23C990.912 886.415 989.806 885.957 988.653 885.957Z" fill="white" stroke="black" stroke-width="20" stroke-miterlimit="10"/>
</g>
<defs>
<clipPath id="clip0_624_3522">
<rect width="1500" height="1500" fill="white"/>
</clipPath>
</defs>
      <g clip-path="url(#clip0_924_508)">
<path d="M582.499 804.5C582.499 810.023 586.976 814.5 592.499 814.5C598.022 814.5 602.499 810.023 602.499 804.5H582.499ZM747.333 760L622.499 760L622.499 780L747.333 780L747.333 760ZM582.499 800V804.5H602.499V800H582.499ZM622.499 760C600.408 760 582.499 777.908 582.499 800H602.499C602.499 788.954 611.453 780 622.499 780L622.499 760Z" fill="black"/>
<path d="M894.386 769.667H939.5" stroke="black" stroke-width="20" stroke-miterlimit="10"/>
<path d="M989.139 711.37C989.153 711.379 989.168 711.384 989.185 711.384C989.201 711.385 989.217 711.38 989.231 711.372C989.245 711.364 989.256 711.352 989.264 711.338C989.271 711.323 989.275 711.307 989.273 711.291C989.273 708.797 990.302 676.51 1024.25 679.154C1024.25 679.154 1052.73 681.648 1055.38 712.609C1055.38 712.623 1055.39 712.637 1055.4 712.649C1055.4 712.661 1055.41 712.672 1055.43 712.679C1055.44 712.687 1055.45 712.692 1055.47 712.693C1055.48 712.695 1055.5 712.693 1055.51 712.688C1057.55 711.899 1086.02 700.802 1100.84 724.526C1115.66 748.25 1091.4 768.865 1089.77 770.175C1089.76 770.184 1089.75 770.195 1089.74 770.207C1089.74 770.219 1089.73 770.233 1089.73 770.246C1089.73 770.26 1089.74 770.273 1089.74 770.285C1089.75 770.297 1089.76 770.308 1089.77 770.317C1091.29 771.825 1115.74 793.449 1101.63 816.416C1087.53 839.382 1058.56 827.946 1056.54 826.928C1056.53 826.92 1056.51 826.915 1056.5 826.914C1056.48 826.913 1056.47 826.916 1056.45 826.922C1056.44 826.929 1056.43 826.938 1056.42 826.95C1056.41 826.962 1056.4 826.977 1056.4 826.991C1056.01 829.186 1050.02 859.642 1023.17 859.997C996.331 860.352 988.538 830.488 988.031 828.428C988.028 828.415 988.022 828.403 988.013 828.393C988.005 828.382 987.994 828.374 987.982 828.368C987.97 828.362 987.957 828.359 987.944 828.358C987.93 828.358 987.917 828.36 987.905 828.365C986.014 829.225 958.529 841.055 942.611 815.603C926.693 790.15 949.534 772.03 951.156 770.791C951.167 770.783 951.176 770.772 951.183 770.76C951.189 770.747 951.193 770.734 951.193 770.72C951.193 770.706 951.189 770.692 951.183 770.68C951.176 770.667 951.167 770.657 951.156 770.649C949.573 769.228 926.574 747.864 943.893 722.088C960.507 697.495 987.019 710.297 989.139 711.37Z" fill="#4AEEB9" stroke="black" stroke-width="20" stroke-miterlimit="10"/>
<path d="M784.139 711.37C784.153 711.379 784.168 711.384 784.185 711.384C784.201 711.385 784.217 711.38 784.231 711.372C784.245 711.364 784.256 711.352 784.264 711.338C784.271 711.323 784.275 711.307 784.273 711.291C784.273 708.797 785.302 676.51 819.251 679.154C819.251 679.154 847.732 681.648 850.383 712.609C850.384 712.623 850.389 712.637 850.397 712.649C850.404 712.661 850.414 712.672 850.427 712.679C850.439 712.687 850.453 712.692 850.467 712.693C850.481 712.695 850.496 712.693 850.509 712.688C852.55 711.899 881.024 700.802 895.843 724.526C910.661 748.25 886.404 768.865 884.766 770.175C884.756 770.184 884.748 770.195 884.743 770.207C884.737 770.219 884.734 770.233 884.734 770.246C884.734 770.26 884.737 770.273 884.743 770.285C884.748 770.297 884.756 770.308 884.766 770.317C886.285 771.825 910.74 793.449 896.634 816.416C882.527 839.382 853.563 827.946 851.538 826.928C851.525 826.92 851.511 826.915 851.496 826.914C851.481 826.913 851.466 826.916 851.453 826.922C851.439 826.929 851.427 826.938 851.419 826.95C851.41 826.962 851.405 826.977 851.403 826.991C851.008 829.186 845.019 859.642 818.175 859.997C791.331 860.352 783.538 830.488 783.031 828.428C783.028 828.415 783.022 828.403 783.013 828.393C783.005 828.382 782.994 828.374 782.982 828.368C782.97 828.362 782.957 828.359 782.944 828.358C782.93 828.358 782.917 828.36 782.905 828.365C781.014 829.225 753.529 841.055 737.611 815.603C721.693 790.15 744.534 772.03 746.156 770.791C746.167 770.783 746.176 770.772 746.183 770.76C746.189 770.747 746.193 770.734 746.193 770.72C746.193 770.706 746.189 770.692 746.183 770.68C746.176 770.667 746.167 770.657 746.156 770.649C744.573 769.228 721.574 747.864 738.893 722.088C755.507 697.495 782.019 710.297 784.139 711.37Z" fill="#4AEEB9" stroke="black" stroke-width="20" stroke-miterlimit="10"/>
<path d="M1054 770C1054 788.336 1039.34 803 1021.5 803C1003.66 803 989 788.336 989 770C989 751.664 1003.66 737 1021.5 737C1039.34 737 1054 751.664 1054 770Z" fill="#FFBF44" stroke="black" stroke-width="20"/>
<path d="M849 770C849 788.336 834.339 803 816.5 803C798.661 803 784 788.336 784 770C784 751.664 798.661 737 816.5 737C834.339 737 849 751.664 849 770Z" fill="#FFBF44" stroke="black" stroke-width="20"/>
<path d="M1010.55 731.17C1006.77 701.733 1023.94 686.472 1032.99 685.021C1021.34 681.539 998.775 687.791 993.525 691.352C991.687 694.122 987.618 700.294 986.043 702.826C984.074 705.991 982.893 709.552 981.712 709.948C980.531 710.344 964.78 711.531 963.993 711.531C963.205 711.531 943.517 719.84 943.124 720.631C942.73 721.422 935.249 740.414 935.249 741.206C935.249 741.839 938.924 764.418 940.761 775.628C938.53 780.904 933.673 792.959 932.098 798.973C930.523 804.987 948.242 823.108 957.299 831.417L987.224 833.395L1016.76 859.905C1031.72 860.301 1059.6 859.668 1035.66 853.97C1011.72 848.272 1009.14 821.537 1010.85 811.382C1009.8 809.14 1003.45 804.418 1002.19 803.469C1000.61 802.282 989.193 795.016 988.8 794.225C988.406 793.433 983.287 785.124 982.893 767.319C982.578 753.076 1004.25 738.952 1010.55 731.17Z" fill="#001647" fill-opacity="0.2"/>
<path d="M805.55 731.17C801.77 701.733 818.938 686.472 827.994 685.021C816.339 681.539 793.775 687.791 788.525 691.352C786.687 694.122 782.618 700.294 781.043 702.826C779.074 705.991 777.893 709.552 776.712 709.948C775.531 710.344 759.78 711.531 758.993 711.531C758.205 711.531 738.517 719.84 738.124 720.631C737.73 721.422 730.249 740.414 730.249 741.206C730.249 741.839 733.924 764.418 735.761 775.628C733.53 780.904 728.673 792.959 727.098 798.973C725.523 804.987 743.242 823.108 752.299 831.417L782.224 833.395L811.756 859.905C826.719 860.301 854.597 859.668 830.657 853.97C806.716 848.272 804.144 821.537 805.85 811.382C804.8 809.14 798.447 804.418 797.187 803.469C795.612 802.282 784.193 795.016 783.8 794.225C783.406 793.433 778.287 785.124 777.893 767.319C777.578 753.076 799.25 738.952 805.55 731.17Z" fill="#001647" fill-opacity="0.2"/>
<path d="M989.139 711.37C989.153 711.379 989.168 711.384 989.185 711.384C989.201 711.385 989.217 711.38 989.231 711.372C989.245 711.364 989.256 711.352 989.264 711.338C989.271 711.323 989.275 711.307 989.273 711.291C989.273 708.797 990.302 676.51 1024.25 679.154C1024.25 679.154 1052.73 681.648 1055.38 712.609C1055.38 712.623 1055.39 712.637 1055.4 712.649C1055.4 712.661 1055.41 712.672 1055.43 712.679C1055.44 712.687 1055.45 712.692 1055.47 712.693C1055.48 712.695 1055.5 712.693 1055.51 712.688C1057.55 711.899 1086.02 700.802 1100.84 724.526C1115.66 748.25 1091.4 768.865 1089.77 770.175C1089.76 770.184 1089.75 770.195 1089.74 770.207C1089.74 770.219 1089.73 770.233 1089.73 770.246C1089.73 770.26 1089.74 770.273 1089.74 770.285C1089.75 770.297 1089.76 770.308 1089.77 770.317C1091.29 771.825 1115.74 793.449 1101.63 816.416C1087.53 839.382 1058.56 827.946 1056.54 826.928C1056.53 826.92 1056.51 826.915 1056.5 826.914C1056.48 826.913 1056.47 826.916 1056.45 826.922C1056.44 826.929 1056.43 826.938 1056.42 826.95C1056.41 826.962 1056.4 826.977 1056.4 826.991C1056.01 829.186 1050.02 859.642 1023.17 859.997C996.331 860.352 988.538 830.488 988.031 828.428C988.028 828.415 988.022 828.403 988.013 828.393C988.005 828.382 987.994 828.374 987.982 828.368C987.97 828.362 987.957 828.359 987.944 828.358C987.93 828.358 987.917 828.36 987.905 828.365C986.014 829.225 958.529 841.055 942.611 815.603C926.693 790.15 949.534 772.03 951.156 770.791C951.167 770.783 951.176 770.772 951.183 770.76C951.189 770.747 951.193 770.734 951.193 770.72C951.193 770.706 951.189 770.692 951.183 770.68C951.176 770.667 951.167 770.657 951.156 770.649C949.573 769.228 926.574 747.864 943.893 722.088C960.507 697.495 987.019 710.297 989.139 711.37Z" stroke="black" stroke-width="20" stroke-miterlimit="10"/>
<path d="M784.139 711.37C784.153 711.379 784.168 711.384 784.185 711.384C784.201 711.385 784.217 711.38 784.231 711.372C784.245 711.364 784.256 711.352 784.264 711.338C784.271 711.323 784.275 711.307 784.273 711.291C784.273 708.797 785.302 676.51 819.251 679.154C819.251 679.154 847.732 681.648 850.383 712.609C850.384 712.623 850.389 712.637 850.397 712.649C850.404 712.661 850.414 712.672 850.427 712.679C850.439 712.687 850.453 712.692 850.467 712.693C850.481 712.695 850.496 712.693 850.509 712.688C852.55 711.899 881.024 700.802 895.843 724.526C910.661 748.25 886.404 768.865 884.766 770.175C884.756 770.184 884.748 770.195 884.743 770.207C884.737 770.219 884.734 770.233 884.734 770.246C884.734 770.26 884.737 770.273 884.743 770.285C884.748 770.297 884.756 770.308 884.766 770.317C886.285 771.825 910.74 793.449 896.634 816.416C882.527 839.382 853.563 827.946 851.538 826.928C851.525 826.92 851.511 826.915 851.496 826.914C851.481 826.913 851.466 826.916 851.453 826.922C851.439 826.929 851.427 826.938 851.419 826.95C851.41 826.962 851.405 826.977 851.403 826.991C851.008 829.186 845.019 859.642 818.175 859.997C791.331 860.352 783.538 830.488 783.031 828.428C783.028 828.415 783.022 828.403 783.013 828.393C783.005 828.382 782.994 828.374 782.982 828.368C782.97 828.362 782.957 828.359 782.944 828.358C782.93 828.358 782.917 828.36 782.905 828.365C781.014 829.225 753.529 841.055 737.611 815.603C721.693 790.15 744.534 772.03 746.156 770.791C746.167 770.783 746.176 770.772 746.183 770.76C746.189 770.747 746.193 770.734 746.193 770.72C746.193 770.706 746.189 770.692 746.183 770.68C746.176 770.667 746.167 770.657 746.156 770.649C744.573 769.228 721.574 747.864 738.893 722.088C755.507 697.495 782.019 710.297 784.139 711.37Z" stroke="black" stroke-width="20" stroke-miterlimit="10"/>
</g>
<defs>
<clipPath id="clip0_924_508">
<rect width="1500" height="1500" fill="white"/>
</clipPath>
</defs>
      <g clip-path="url(#clip0_708_104)">
<path d="M897.736 617.618L881.079 614.086C881.079 614.086 866.198 610.584 860.384 617.618C854.569 624.652 841.111 606.134 840.193 611.058C839.274 615.983 793.249 617.114 793.249 617.114H752.868C752.868 617.114 707.792 611.654 689.772 617.618C671.751 623.583 639.012 615.842 634.752 617.114C630.492 618.385 581.862 619.445 579.732 621.15C577.602 622.856 570.252 648.711 568.122 650.417C565.992 652.122 563.499 671.226 563.075 682.711C562.651 694.196 552.848 701.805 552.475 709.455C552.101 717.104 532.062 737.631 528.236 750.387C524.409 763.143 519.059 764.607 515.233 772.256C511.407 779.906 495.375 780.814 492.407 784.639C489.439 788.464 477.133 791.996 473.731 796.245C469.593 801.754 467.564 805.947 461.899 809.869C454.64 814.804 452.248 815.551 452.248 815.551C452.248 815.551 418.156 814.471 415.016 815.753C411.876 817.034 366.558 827.409 366.558 827.409L354.595 824.381C354.595 824.381 379.228 837.894 374.968 823.009C370.707 808.123 368.173 826.036 365.226 806.195C362.278 786.355 359.653 780.269 354.979 765.687C350.305 751.104 346.468 735.613 342.683 721.161C338.897 706.709 342.683 691.39 342.683 691.39C342.683 691.39 344.005 664.828 348.043 648.388C352.081 631.949 353.575 624.995 353.999 621.342C354.423 617.689 364.63 590.128 365.478 588.039C366.326 585.95 390.999 520.857 390.999 520.857L420.437 490.238L487.561 425.175C487.561 425.175 603.658 389.854 610.069 386.705C616.479 383.556 630.906 380.105 632.188 379.257C633.47 378.41 674.942 363.907 682.604 360.507C690.266 357.106 701.472 362.283 707.842 360.507C714.213 358.73 750.334 357.065 757.562 356.217C764.791 355.37 784.82 344.733 803.637 346.126C822.455 347.518 852.378 345.742 874.578 348.921C896.777 352.1 938.704 362.151 938.704 362.151L1069.02 429.898L1161.55 513.278L1222 627.932L1216.9 708.445C1193 617 1172.07 598.525 1172.07 598.525C1172.07 598.525 1118.32 617.618 1025.79 611.401C1023.83 610.978 970.06 617.78 967.395 615.6C964.729 613.42 918.937 614.086 918.937 614.086L897.736 617.618Z" fill="#A760FF"/>
<path d="M445 548.267C445 548.267 492.54 607.041 554.165 553.465C615.791 499.89 579.238 451 579.238 451L549.47 495.244L511.846 524.868L451.261 545.672L445 548.267Z" fill="#FFBF44"/>
<path d="M1040 401.139C1040 401.139 1087.44 365.088 1144.64 422.698C1201.84 480.308 1183.05 513.346 1183.05 513.346L1177.62 528C1177.62 528 1096.93 442.694 1093.26 441.323C1089.59 439.953 1040 401.139 1040 401.139Z" fill="#FFBF44"/>
<path d="M415 549C514.964 549 596 468.187 596 368.5C596 268.813 514.964 188 415 188C315.036 188 234 268.813 234 368.5C234 468.187 315.036 549 415 549Z" fill="#A760FF"/>
<path d="M1118.11 214.423C1118.11 214.423 1237.35 183.413 1333.33 308.069C1429.3 432.726 1261.74 581.54 1261.74 581.54L1213.76 597L1176.8 539.157C1176.8 539.157 1216.31 505.594 1154.46 434.32C1092.6 363.046 1032.37 401.917 1032.37 401.917L954 367.547C954 367.547 992.035 241.548 1118.11 214.423Z" fill="#A760FF"/>
<path d="M382.963 196C353.376 233.807 321.435 344.205 406.162 418.812C487.757 490.662 552.594 462.703 580.026 434.192C580.988 416.977 583.944 398.87 591.031 403.254L592.761 388.062L683.035 361.849C702.871 361.177 743.957 361.546 749.605 368.402C755.254 375.258 742.209 380.332 734.98 382.013C652.674 415.888 611.253 475.439 600.83 500.98L585.7 450.066L588.746 423.32C586.494 426.81 583.573 430.505 580.026 434.192C579.71 439.858 579.609 445.427 579.648 450.066L541.32 505.517C545.859 514.087 559.072 530.218 575.614 526.185C592.156 522.152 563.342 546.685 546.868 559.456C534.214 565.141 510.466 573.455 490.471 574.471L501.479 580.124L543.337 570.546C495.538 630.231 489.799 731.858 492.905 775.21C470.042 790.333 417.963 821.386 392.545 824.612C367.127 827.838 356.738 810.161 354.721 800.919L347.156 711.694L354.721 635.575L389.519 551.894H440.728C438.218 549.461 436.658 547.546 435.917 546.349C396.243 555.255 303.582 547.156 250.326 443.513C183.755 313.959 304.288 214.148 382.963 196Z" fill="#001647" fill-opacity="0.2"/>
<path d="M1204 224.23C1109.99 250.846 1072.04 345.886 1064.81 390.078L1079.43 395.119C1095.91 397.136 1124.12 401.975 1105.15 405.201C1086.19 408.427 1080.1 427.718 1079.43 436.959L1039.59 409.738L960.917 367.898C968.818 342.021 999.245 280.285 1057.75 240.361C1116.25 200.436 1179.62 212.971 1204 224.23Z" fill="#001647" fill-opacity="0.2"/>
<path d="M595 386.03C632.39 374.373 647.497 361.12 729.543 361.12C747.775 361.12 743.743 360.71 759.899 356.878C824.369 341.584 944.158 332.988 1084.58 445.709C1251.35 579.581 1230.85 692.837 1207.22 733" stroke="black" stroke-width="22" stroke-miterlimit="10"/>
<path d="M1175.05 614.543C1181.1 613.962 1185.53 608.588 1184.95 602.541C1184.37 596.494 1179 592.063 1172.95 592.644L1175.05 614.543ZM571.098 632.245L560.118 631.595L571.098 632.245ZM376.743 826.963L376.036 815.985L376.022 815.986L376.008 815.987L376.743 826.963ZM359.309 814.04L348.596 816.536L348.598 816.546L359.309 814.04ZM1172.95 592.644C893.968 619.452 602.922 605.25 590.57 605.25V627.25C601.41 627.25 894.673 641.486 1175.05 614.543L1172.95 592.644ZM590.57 605.25C574.091 605.25 561.042 615.966 560.118 631.595L582.079 632.894C582.169 631.37 582.789 630.159 583.856 629.241C584.947 628.303 587.03 627.25 590.57 627.25V605.25ZM560.118 631.595C555.888 703.131 519.577 748.317 479.304 776.263C438.586 804.516 394.182 814.817 376.036 815.985L377.45 837.94C399.315 836.532 447.622 825.024 491.845 794.338C536.513 763.343 577.375 712.459 582.079 632.894L560.118 631.595ZM376.008 815.987C374.652 816.078 373.306 815.684 372.209 814.871L359.109 832.545C364.398 836.465 370.908 838.378 377.478 837.938L376.008 815.987ZM372.209 814.871C371.112 814.057 370.334 812.876 370.02 811.534L348.598 816.546C350.097 822.954 353.82 828.625 359.109 832.545L372.209 814.871ZM370.022 811.544C360.562 770.933 340.975 663.055 398.226 552.042L378.673 541.958C317.789 660.015 338.757 774.297 348.596 816.536L370.022 811.544Z" fill="black"/>
<path d="M1040 406.92C1040 406.92 1077.75 364.311 1148.52 433.85C1215.3 499.446 1177.16 539 1177.16 539" stroke="black" stroke-width="22" stroke-miterlimit="10"/>
<path d="M1213.36 603C1247.34 592.982 1278.06 574.1 1302.37 548.283C1326.68 522.467 1343.72 490.643 1351.74 456.064C1376.8 348.198 1309.88 240.392 1202.25 215.271C1094.63 190.151 987.064 257.23 962 365.106" stroke="black" stroke-width="22" stroke-miterlimit="10"/>
<path d="M415 549C514.964 549 596 468.187 596 368.5C596 268.813 514.964 188 415 188C315.036 188 234 268.813 234 368.5C234 468.187 315.036 549 415 549Z" stroke="black" stroke-width="22" stroke-miterlimit="10"/>
<path d="M440 547.868C440 547.868 481.455 608.65 556.206 551.527C632.92 492.91 577.894 441 577.894 441" stroke="black" stroke-width="22" stroke-miterlimit="10"/>
</g>
<defs>
<clipPath id="clip0_708_104">
<rect width="1500" height="1500" fill="white"/>
</clipPath>
</defs>
      
    </g>
    </svg>