<svg
      xmlns="http://www.w3.org/2000/svg"
      preserveAspectRatio="xMidYMin meet"
      fill="none"
      viewBox="0 0 1500 1500"
    >
      <g>
      <path fill="url(#prefix__paint0_linear_53_30463)" d="M0 0h1500v1500H0z"/><defs><linearGradient id="prefix__paint0_linear_53_30463" x1="1500" y1="1500" x2="0" y2="0" gradientUnits="userSpaceOnUse">
<stop stop-color="#FF5A5A"/>
<stop offset="1" stop-color="#FFBDBD"/>
</linearGradient></defs>
      <g clip-path="url(#clip0_481_307)">
<path d="M791 1319.5L798 1509H912L900.5 1426.5L886 1198L855.5 1030.5L779 1012L791 1319.5Z" fill="#AABBFF"/>
<path d="M502 1194.5C430.4 1298.9 371.5 1447 351 1508H797.5L781.5 1015.5H720C677.167 1031.67 573.6 1090.1 502 1194.5Z" fill="white"/>
<path d="M895 1339.5L912.5 1508H1141.5L1115 1417L1064.5 1260.5L946 1096L853 1031.5L880.5 1157.5L895 1339.5Z" fill="white"/>
<path d="M749.5 1019.5C536 1134 457.448 1414.63 443.159 1511H353.699C350.414 1508.73 357.049 1471.27 409.87 1339.62C462.691 1207.98 569.086 1113.24 605.384 1082.33L674 1033.5L749.5 1019.5Z" fill="#001647" fill-opacity="0.2"/>
<path d="M671.025 1191.95L673 1177L721 1218.5L709.5 1231L679.097 1210.1C673.208 1206.05 670.089 1199.04 671.025 1191.95Z" fill="#001647" fill-opacity="0.2"/>
<path d="M682.197 1266.24L692.5 1252L697 1263.5L732 1339.62L790 1428V1473.5C747.359 1423.44 701.711 1333.43 680.137 1285.9C677.211 1279.45 678.047 1271.98 682.197 1266.24Z" fill="#001647" fill-opacity="0.2"/>
<path d="M878 1511C875.6 1367.4 837.167 1109 825 1027.67L854.5 1022.5L896 1309L909.5 1511H878Z" fill="#001647" fill-opacity="0.2"/>
<path d="M353.5 1519.5C365.5 1454.33 414.5 1313.6 483.5 1219C530.101 1155.11 577.468 1101.29 629.141 1059.66C710.278 994.299 826.037 996.323 905.02 1064.27C1000.08 1146.05 1103.44 1290.29 1142.5 1519.5M1013.5 1319C1024.83 1354.33 1048.1 1443.9 1050.5 1519.5M667 1361.5C661.167 1392.33 650.3 1467.1 653.5 1519.5M909.596 1514.75C909.034 1490.93 907.832 1474.83 905.846 1439.31M905.846 1439.31C899.096 1318.55 883.281 1145.62 852.698 1034.38M905.846 1439.31C922.915 1415.99 958.898 1330.51 967.577 1232.33C967.737 1230.52 966.898 1228.77 965.396 1227.76L930.39 1204.19C927.571 1202.29 927.426 1198.19 930.103 1196.1L958.849 1173.63C960.478 1172.36 961.159 1170.22 960.53 1168.25C954.773 1150.21 940.588 1111.63 922.069 1080.87M800.622 1517.15C799.493 1500.2 796.215 1469.44 794.854 1447.72M794.854 1447.72C786.313 1311.36 776.511 1103.34 777.716 1017.03M794.854 1447.72C773.798 1412.42 725.292 1332.09 697.973 1263.19C697.382 1261.7 697.556 1260.03 698.422 1258.68L723.495 1219.66C724.931 1217.42 724.369 1214.46 722.215 1212.9L684.654 1185.79C683.225 1184.76 682.439 1183.07 682.62 1181.31C686.295 1145.62 702.605 1078.96 716.913 1020.98" stroke="black" stroke-width="22" stroke-linecap="round"/>
</g>
<defs>
<clipPath id="clip0_481_307">
<rect width="1500" height="1500" fill="white"/>
</clipPath>
</defs>
      <g clip-path="url(#clip0_497_1194)">
<path d="M379.667 654.812C432.345 471.574 618.472 401.981 699.114 390.653C740.985 382.718 849.655 375.215 949.364 408.675C980 418.956 1049.88 457.388 1091.92 499.818C1144.47 552.856 1272.97 732.052 1185.05 927.725C1097.12 1123.4 758.414 1092.29 612.749 1051.82C464.472 1010.63 314.48 881.563 379.667 654.812Z" fill="#AABBFF"/>
<path d="M449.293 747.204C454.734 531.068 585.306 432.345 649.911 410C432.292 459.565 365.296 655.455 364 747.204C377.99 984.871 584.496 1053.43 681 1058C601.498 1044.46 443.853 963.339 449.293 747.204Z" fill="#001647" fill-opacity="0.2"/>
<path d="M379.667 654.812C432.345 471.574 618.472 401.981 699.114 390.653C740.985 382.718 849.655 375.215 949.364 408.675C980 418.956 1049.88 457.388 1091.92 499.818C1144.47 552.856 1272.97 732.052 1185.05 927.725C1097.12 1123.4 758.414 1092.29 612.749 1051.82C464.472 1010.63 314.48 881.563 379.667 654.812Z" stroke="black" stroke-width="22" stroke-linecap="round"/>
</g>
<defs>
    <clipPath id="prefix__clip0_299_662"><path fill="#fff" d="M0 0h1500v1500H0z"/></clipPath>
</defs>
      <g clip-path="url(#clip0_624_3437)">
<path d="M874 925.246H968.413" stroke="black" stroke-width="20" stroke-linecap="round"/>
<path d="M822 818C849.062 818 871 796.062 871 769C871 741.938 849.062 720 822 720C794.938 720 773 741.938 773 769C773 796.062 794.938 818 822 818Z" fill="white" stroke="black" stroke-width="20" stroke-miterlimit="10"/>
<path d="M1012 818C1039.06 818 1061 796.062 1061 769C1061 741.938 1039.06 720 1012 720C984.938 720 963 741.938 963 769C963 796.062 984.938 818 1012 818Z" fill="white" stroke="black" stroke-width="20" stroke-miterlimit="10"/>
<path d="M822 767C829.18 767 835 761.18 835 754C835 746.82 829.18 741 822 741C814.82 741 809 746.82 809 754C809 761.18 814.82 767 822 767Z" fill="black"/>
<path d="M1012 767C1019.18 767 1025 761.18 1025 754C1025 746.82 1019.18 741 1012 741C1004.82 741 999 746.82 999 754C999 761.18 1004.82 767 1012 767Z" fill="black"/>
</g>
<defs>
<clipPath id="clip0_624_3437">
<rect width="1500" height="1500" fill="white"/>
</clipPath>
</defs>
      <g clip-path="url(#clip0_925_1058)">
<path d="M822 818C849.062 818 871 796.062 871 769C871 741.938 849.062 720 822 720C794.938 720 773 741.938 773 769C773 796.062 794.938 818 822 818Z" fill="white" stroke="black" stroke-width="20" stroke-miterlimit="10"/>
<path d="M1012 818C1039.06 818 1061 796.062 1061 769C1061 741.938 1039.06 720 1012 720C984.938 720 963 741.938 963 769C963 796.062 984.938 818 1012 818Z" fill="white" stroke="black" stroke-width="20" stroke-miterlimit="10"/>
<path d="M822 796C836.912 796 849 783.912 849 769C849 754.088 836.912 742 822 742C807.088 742 795 754.088 795 769C795 783.912 807.088 796 822 796Z" fill="#FF4B2C"/>
<path d="M822.5 770L1722.5 1173.5M1011 769.5L1911 1173" stroke="#FF4B2C" stroke-width="22"/>
<path d="M1012 796C1026.91 796 1039 783.912 1039 769C1039 754.088 1026.91 742 1012 742C997.088 742 985 754.088 985 769C985 783.912 997.088 796 1012 796Z" fill="#FF4B2C"/>
</g>
<defs>
<clipPath id="clip0_925_1058">
<rect width="1500" height="1500" fill="white"/>
</clipPath>
</defs>
      <g clip-path="url(#clip0_602_1907)">
<path d="M1224.5 677C1256.1 650.2 1196 608.166 1162 590.5C1162.45 567.232 1145.45 503.24 1093.47 444.5C1213 261 926.5 136.5 881 335.265C844.422 329.83 803.411 328.286 757.5 331.862C744.874 332.845 757.5 238.5 604.5 251.5C511.877 259.37 492 358.5 503 412.879C390.229 489.646 355.407 600.914 354.5 664.5L414.5 657L585 641.5L677.5 700.5L746 715.5L795 706.5L864.5 683L951 641.5L1027 629C1040.67 630 1078.8 633.9 1122 641.5C1176 651 1185 710.5 1224.5 677Z" fill="#9E6740"/>
<path d="M724.875 371.345C725.536 375.495 725.945 379.681 726.101 383.883C726.765 402.18 714.096 417.278 697.249 419.231C696.527 419.331 695.796 419.432 695.074 419.532C670.37 423.064 649.742 437.278 636.41 457.336C626.707 471.978 607.794 475.779 593.114 466.233C570.72 451.687 552.244 427.01 547.858 397.341C539.113 338.187 574.464 297.704 622.323 290.296C670.389 282.86 716.603 319.365 724.875 371.345Z" fill="#E8CE99"/>
<path d="M1063.31 417.843C1060.94 420.626 1058.39 423.247 1055.66 425.688C1043.86 436.281 1025.91 435.162 1014.18 423.644C1013.67 423.152 1013.16 422.66 1012.64 422.168C994.957 405.655 972.646 398.064 951.031 399.2C935.23 400.048 920.976 387.996 918.247 371.754C914.091 347.022 920.287 321.001 937.363 301.316C967.248 266.847 1019.2 264.752 1053.81 296.439C1088.64 328.278 1092.92 382.984 1063.31 417.843Z" fill="#E8CE99"/>
<path d="M918 513C740.4 509.8 610.667 597.833 577.5 639.5L635 613.5L746 568.5L911.5 542.5L1081.5 557L1179.5 596C1166.33 568 1095.6 516.2 918 513Z" fill="#001647" fill-opacity="0.2"/>
<path d="M1168 594.006C1158.42 532.939 1130.32 484.195 1092.5 446.054M587 645C504.576 640.341 411.449 660.485 365.869 671.92C359.115 673.614 352.724 668.147 353.784 661.265C364.358 592.606 407.165 491.449 502.923 419M587 645C621.5 612.167 730.5 548 894.5 542C1079.59 535.228 1192.54 594.489 1230.03 642.496C1236.7 651.039 1235.02 662.819 1228.03 671.106V671.106C1218.11 682.881 1200.55 684.175 1188.11 675.098C1145.41 643.936 1080.11 612.042 1002 628C892.783 650.313 790 754 669.5 701.5L587 645ZM760.5 331.03C772.511 330.35 784.842 330 797.5 330C820.716 330 847.474 332.538 875.786 338" stroke="black" stroke-width="22" stroke-linecap="round"/>
<path d="M631.501 519.5C590.667 514.5 485.698 469.887 498.501 358.5C513.5 228 672.434 223.958 730 283C769 323 783.501 389.5 753.501 443" stroke="black" stroke-width="22" stroke-linecap="round"/>
<path d="M887.42 422.022C874.921 384.041 866.066 299.721 920.694 258.604C990.41 206.13 1074.85 233.374 1109.24 299.084C1137.24 352.557 1112.94 433.516 1060.65 466" stroke="black" stroke-width="22" stroke-linecap="round"/>
<path d="M581 508C528.6 560.4 511.167 623.833 509 649L443 655L357 670V655L377.5 578.5L435 481L502 420L497.5 339.5C520.7 264.3 587.833 251.5 618.5 254.5C591.167 266.833 534.5 300.5 531.5 364C528.291 431.932 544 464.5 628 512L581 508Z" fill="#001647" fill-opacity="0.2"/>
<path d="M1017 242.5C933.4 246.9 898.167 362.667 891 420H878.5C856.5 392 852.667 356.333 853.5 342L861.5 343.5L874 339.5L886 296.5L918 259.5L967.5 232L1017 242.5Z" fill="#001647" fill-opacity="0.2"/>
<path d="M918 513C740.4 509.8 610.667 597.833 577.5 639.5L635 613.5L746 568.5L911.5 542.5L1081.5 557L1179.5 596C1166.33 568 1095.6 516.2 918 513Z" fill="#001647" fill-opacity="0.2"/>
</g>
<defs>
<clipPath id="clip0_602_1907">
<rect width="1500" height="1500" fill="white"/>
</clipPath>
</defs>
      
    </g>
    </svg>