<svg
      xmlns="http://www.w3.org/2000/svg"
      preserveAspectRatio="xMidYMin meet"
      fill="none"
      viewBox="0 0 1500 1500"
    >
      <g>
      <path fill="url(#prefix__a1)" d="M0 0h1500v1500H0z"/><defs><linearGradient id="prefix__a1" x1="1500" y1="1500" x2="0" y2="0" gradientUnits="userSpaceOnUse">
<stop stop-color="#1555D1"/>
<stop offset="1" stop-color="#70E5FF"/>
</linearGradient></defs>
      <g clip-path="url(#clip0_483_439)">
<path d="M773 1011.5C543.4 1029.9 398.667 1353.5 355 1513H1138.5C1075.7 1127 868.667 1017.83 773 1011.5Z" fill="#AABBFF"/>
<path d="M661.5 1284C651.1 1208.4 559.5 1181.83 515 1178C583.5 1088.5 654 1030.5 768.5 1008.5C860.1 990.9 976.333 1131.17 1023 1203.5L1007 1267.5L1011.5 1323.5L1036 1427.5L1054 1508H654V1457C660.833 1430.83 671.9 1359.6 661.5 1284Z" fill="#FF6247"/>
<path d="M691 1281C658 1185.5 577 1152.5 538.5 1150.5L517.5 1174L607.5 1204L647.5 1259L674.5 1331.5L657 1443.5L652 1506.5H685C684.752 1490.12 685.132 1463.27 685.975 1439.63C686.843 1415.25 692.482 1391.39 696.842 1367.39C704.309 1326.28 698.07 1301.46 691 1281Z" fill="white"/>
<path d="M982.5 1303C973.3 1248.2 991.333 1198.5 1001.5 1180.5L1024 1199.5L1011.5 1239.5L1015 1315L1041.5 1437.5L1050 1506.5H1024C1012.5 1395 994 1371.5 982.5 1303Z" fill="white"/>
<path d="M834 1189C756.4 1183.4 696 1082 675.5 1032L711 1023.5L721.5 1044.5L774 1117.5L824 1142.5C856.4 1133.7 870.167 1075.83 873 1048C885.333 1054 910.6 1066.5 913 1068.5C915.4 1070.5 902.667 1102 896 1117.5L868 1164.5L834 1189Z" fill="white"/>
<path d="M749.5 1019.5C536 1134 457.448 1414.63 443.159 1511H353.699C350.414 1508.73 357.049 1471.27 409.87 1339.62C462.691 1207.98 569.086 1113.24 605.384 1082.33L674 1033.5L749.5 1019.5Z" fill="#001647" fill-opacity="0.2"/>
<path d="M818.5 1143.5C778.1 1131.9 731.667 1054 713.5 1016.5L795.5 1019.5L872 1043L854 1126.5L818.5 1143.5Z" fill="#AABBFF"/>
<path d="M353.5 1519.5C365.5 1454.33 414.5 1313.6 483.5 1219C530.101 1155.11 577.468 1101.29 629.141 1059.66C710.278 994.299 826.037 996.323 905.02 1064.27C1000.08 1146.05 1103.44 1290.29 1142.5 1519.5M1050.5 1519.5C1048.1 1443.9 1024.83 1354.33 1013.5 1319C999.5 1268 1009.7 1225.3 1020.5 1204.5M653.5 1519.5C650.3 1467.1 661.167 1392.33 667 1361.5C674 1324.5 668 1288.8 642 1250C609.5 1201.5 554.5 1171 517 1179.5M716.5 1021C729.247 1059.57 769.06 1137.84 826.826 1144.38C827.577 1144.46 828.321 1144.26 828.913 1143.79C845.329 1130.77 875.856 1093.54 873.5 1042.5M682 1039C700.209 1094.08 754.185 1179.21 836.775 1187.88C837.527 1187.96 838.267 1187.76 838.866 1187.3C859.814 1171.19 904.649 1131.93 911.953 1072" stroke="black" stroke-width="22" stroke-linecap="round"/>
<path d="M888.198 1393C886.25 1395.6 883.612 1397.6 880.584 1398.77C877.454 1400.17 874.061 1400.87 870.636 1400.83L867.94 1376.85C873.169 1376.06 878.147 1374.07 882.486 1371.04C887.013 1368.1 890.363 1363.66 891.95 1358.5L915.977 1359.01L932.815 1509.56L901.132 1508.88L888.198 1393Z" fill="white"/>
<path d="M801.438 1500.84C793.883 1493.52 789.375 1483.22 787.915 1469.93L780.467 1402.1C778.917 1387.88 780.995 1377.11 786.704 1369.79C792.412 1362.47 801.771 1358.95 814.781 1359.23C827.865 1359.52 838.086 1363.46 845.446 1371.06C852.806 1378.66 857.266 1389.57 858.827 1403.79L866.275 1471.62C867.744 1485.01 865.482 1495.2 859.491 1502.18C853.5 1509.16 844.195 1512.5 831.575 1512.21C819.066 1511.94 809.021 1508.15 801.438 1500.84ZM833.509 1481.65C834.689 1479.45 835.135 1476.93 834.78 1474.46L826.644 1400.34C826.167 1396.03 825.313 1392.72 824.096 1390.42C822.879 1388.13 820.76 1386.95 817.777 1386.89C814.795 1386.83 813.007 1387.92 812.301 1390.17C811.596 1392.42 811.533 1395.71 812.01 1400.02L820.145 1474.15C820.394 1476.78 821.353 1479.3 822.917 1481.42C823.534 1482.36 824.362 1483.14 825.334 1483.69C826.306 1484.24 827.393 1484.55 828.507 1484.59C829.538 1484.65 830.563 1484.4 831.458 1483.88C832.353 1483.35 833.079 1482.58 833.548 1481.65L833.509 1481.65Z" fill="white"/>
<path d="M903.576 1276.75C902.196 1276.75 901.23 1275.39 901.687 1274.08L909.159 1252.81C909.713 1251.23 911.84 1250.99 912.735 1252.4L935.336 1288.03C935.707 1288.61 936.353 1288.96 937.045 1288.96L946.363 1288.86C947.926 1288.85 948.868 1287.13 948.037 1285.8L908.618 1222.93C907.728 1221.51 905.591 1221.75 905.036 1223.33L882.743 1286.81C882.283 1288.12 883.262 1289.49 884.649 1289.47L925.683 1289.07C927.251 1289.05 928.192 1287.32 927.352 1286L914.651 1265.96C913.756 1264.55 911.626 1264.79 911.074 1266.37L907.908 1275.41C907.628 1276.21 906.872 1276.74 906.023 1276.74L903.576 1276.75Z" fill="white"/>
</g>
<defs>
<clipPath id="clip0_483_439">
<rect width="1500" height="1500" fill="white"/>
</clipPath>
</defs>
      <g clip-path="url(#clip0_497_1194)">
<path d="M379.667 654.812C432.345 471.574 618.472 401.981 699.114 390.653C740.985 382.718 849.655 375.215 949.364 408.675C980 418.956 1049.88 457.388 1091.92 499.818C1144.47 552.856 1272.97 732.052 1185.05 927.725C1097.12 1123.4 758.414 1092.29 612.749 1051.82C464.472 1010.63 314.48 881.563 379.667 654.812Z" fill="#AABBFF"/>
<path d="M449.293 747.204C454.734 531.068 585.306 432.345 649.911 410C432.292 459.565 365.296 655.455 364 747.204C377.99 984.871 584.496 1053.43 681 1058C601.498 1044.46 443.853 963.339 449.293 747.204Z" fill="#001647" fill-opacity="0.2"/>
<path d="M379.667 654.812C432.345 471.574 618.472 401.981 699.114 390.653C740.985 382.718 849.655 375.215 949.364 408.675C980 418.956 1049.88 457.388 1091.92 499.818C1144.47 552.856 1272.97 732.052 1185.05 927.725C1097.12 1123.4 758.414 1092.29 612.749 1051.82C464.472 1010.63 314.48 881.563 379.667 654.812Z" stroke="black" stroke-width="22" stroke-linecap="round"/>
</g>
<defs>
    <clipPath id="prefix__clip0_299_662"><path fill="#fff" d="M0 0h1500v1500H0z"/></clipPath>
</defs>
      <g clip-path="url(#clip0_624_3473)">
<path d="M1010.33 800C1015.74 800 1021.02 798.397 1025.52 795.394C1030.01 792.39 1033.52 788.121 1035.59 783.127C1037.65 778.132 1038.2 772.637 1037.14 767.334C1036.09 762.032 1033.48 757.162 1029.66 753.339C1025.84 749.517 1020.97 746.913 1015.67 745.859C1010.36 744.804 1004.87 745.345 999.873 747.414C994.879 749.483 990.61 752.986 987.606 757.481C984.603 761.976 983 767.261 983 772.667C983 779.916 985.88 786.868 991.006 791.994C996.132 797.12 1003.08 800 1010.33 800Z" fill="black"/>
<path d="M799.421 789.214L858.141 778.547C859.189 778.352 860.151 777.837 860.895 777.073C861.639 776.309 862.128 775.334 862.294 774.28C862.455 773.224 862.285 772.143 861.808 771.187C861.331 770.234 860.569 769.453 859.628 768.954L804.701 739.807" stroke="black" stroke-width="22" stroke-miterlimit="10" stroke-linecap="round"/>
<path d="M870.88 910.959C896.593 937.099 946.447 937.099 972.167 910.959" stroke="black" stroke-width="22" stroke-miterlimit="10" stroke-linecap="round"/>
</g>
<defs>
<clipPath id="clip0_624_3473">
<rect width="1500" height="1500" fill="white"/>
</clipPath>
</defs>
      <g clip-path="url(#clip0_2507_63)">
<path d="M465.702 816.438C480.86 808.672 506.017 801.608 528.977 822.177C533.144 825.842 538.246 828.431 543.789 829.693C549.333 830.955 555.13 830.848 560.62 829.382C577.275 825.065 601.312 823.004 618.961 838.922C623.315 842.866 628.715 845.635 634.597 846.939C640.479 848.243 646.627 848.034 652.399 846.335C669.555 841.272 694.168 839.009 715.452 857.097C719.883 860.896 725.325 863.492 731.201 864.607C737.076 865.723 743.165 865.316 748.82 863.431C762.912 858.716 784.234 859.512 800.222 872.39C828.365 892.375 848.043 877.733 857.942 868.788C871.772 856.323 893.921 850.386 923.719 862.743C928.011 864.484 911.991 863.591 916.667 863.537C921.342 863.482 925.955 862.503 930.206 860.662C944.415 854.622 967.654 843.804 990.096 857.826C995.145 861.047 1001.04 862.895 1007.13 863.168C1013.23 863.441 1019.29 862.128 1024.64 859.372C1034.51 854.21 1047.89 840.755 1063.77 843.596C1069.43 844.621 1075.27 844.252 1080.74 842.526C1086.21 840.8 1091.12 837.775 1094.99 833.743C1101.9 826.507 1113.11 820.008 1130.46 821.203C1136.43 821.572 1142.39 820.401 1147.71 817.815C1153.02 815.228 1157.49 811.325 1160.63 806.526C1167.76 795.749 1181.5 784.561 1207.55 783.129C1207.55 783.129 1229.44 796.284 1221.41 827.286C1219.56 834.45 1220.39 841.993 1223.78 848.634C1228.07 857.086 1231.34 869.688 1221.88 880.984C1219.07 884.303 1217.01 888.13 1215.83 892.227C1214.65 896.325 1214.38 900.606 1215.03 904.804C1217.37 919.141 1210.09 929.732 1202.94 936.436C1196.53 942.382 1192.88 950.476 1192.78 958.945C1192.64 975.174 1183.45 983.831 1174.71 988.382C1170.7 990.558 1167.21 993.503 1164.47 997.026C1161.74 1000.55 1159.82 1004.57 1158.83 1008.83C1155.33 1022.95 1138.92 1029.71 1131.6 1032.78C1124.28 1035.86 1115.56 1041.1 1108.97 1052.71C1102.39 1064.32 1086.36 1077.38 1073.94 1080.18C1069.52 1081.18 1065.37 1083 1061.71 1085.54C1058.06 1088.08 1054.98 1091.29 1052.67 1094.97C1041.4 1112.69 1020.26 1116.86 1005.2 1117.34C1000.51 1117.44 995.906 1118.49 991.682 1120.41C987.459 1122.33 983.717 1125.07 980.707 1128.46C968.761 1142.24 950.228 1143.81 937.46 1142.95C928.834 1142.41 920.321 1145.07 913.731 1150.35C896.484 1163.89 876.794 1161.03 863.383 1156.3C858.647 1154.62 853.56 1153.99 848.522 1154.47C843.483 1154.96 838.63 1156.53 834.342 1159.08C816.183 1169.89 798.695 1165.99 787.072 1160.66C782.601 1158.66 777.713 1157.62 772.762 1157.63C767.811 1157.64 762.922 1158.69 758.454 1160.7C733.781 1171.63 713.634 1161.25 702.194 1152.09C698.704 1149.31 694.644 1147.24 690.267 1146.01C685.889 1144.77 681.287 1144.4 676.747 1144.91C649.432 1147.99 632.822 1134.53 623.915 1123.46C620.92 1119.72 617.074 1116.66 612.659 1114.5C608.244 1112.34 603.372 1111.14 598.399 1110.99C574.944 1110.28 561.378 1100.62 553.949 1092.25C550.876 1088.77 547.047 1085.94 542.72 1083.96C538.392 1081.97 533.664 1080.89 528.851 1080.76C502.079 1080.08 491.575 1067.57 487.501 1056.82C485.888 1052.44 483.228 1048.47 479.726 1045.22C476.225 1041.96 471.976 1039.51 467.306 1038.05C441.864 1030.28 434.319 1011.5 432.435 997.274C431.827 992.251 429.952 987.44 426.968 983.242C423.983 979.043 419.975 975.58 415.279 973.14C395.013 962.907 392.242 947.513 393.181 937.021C393.779 929.716 391.562 922.456 386.936 916.574C380.535 908.31 374.525 894.994 383.545 879.356C385.957 875.189 387.331 870.559 387.562 865.82C387.793 861.081 386.874 856.356 384.876 852.004C379.713 840.791 376.01 825.969 386.55 817.421C400.856 805.769 421.875 811.236 436.165 817.331C440.825 819.338 445.915 820.302 451.039 820.147C456.163 819.992 461.181 818.723 465.702 816.438Z" fill="#4AEEB9"/>
<path d="M565.801 884.099C551.032 867.741 562.342 843.135 571.001 831.629C565.495 829.957 553.585 826.623 549.992 826.658C545.5 826.701 531.994 823.539 523.458 817.978C514.921 812.417 517.451 816.155 510.447 814.341C503.442 812.527 485.97 812.224 483.973 812.243C481.977 812.263 447.097 818.709 445.6 818.724C444.102 818.738 408.068 808.268 406.567 807.813C405.365 807.448 390.515 817.214 383.24 822.142L383.504 850.822C383.511 851.575 382.995 867.755 382.736 875.751L384.18 924.168L409.529 966.714L433.298 1000.34L465.131 1042.35L492.815 1067.48L524.882 1080.81L589.512 1106.99L630.675 1132.46L669.218 1144.32L719.274 1159.82L761.198 1159.42L799.627 1159.05C791.688 1157.41 783.387 1150.18 778.03 1144.35C775.429 1141.53 771.581 1140.07 767.776 1140.6C727.302 1146.18 706.418 1124.24 698.952 1108.27C697.386 1104.91 694.491 1102.29 690.934 1101.27C666.516 1094.28 656.946 1076.35 654.273 1063.41C653.338 1058.89 650.206 1054.91 645.869 1053.31C623.767 1045.16 618.763 1028.83 619.441 1016.71C619.725 1011.63 617.484 1006.4 613.109 1003.8C589.803 989.959 586.544 971.178 588.801 958.778C589.622 954.265 588.49 949.38 585.204 946.181C567.933 929.37 566.759 911.509 569.796 899.613C571.162 894.262 569.5 888.197 565.801 884.099Z" fill="#001647" fill-opacity="0.2"/>
<path d="M528.978 822.176C506.017 801.608 480.861 808.672 465.702 816.438C461.182 818.722 456.163 819.992 451.04 820.147C445.916 820.302 440.825 819.338 436.165 817.331C421.875 811.236 400.856 805.768 386.55 817.421C376.01 825.969 381.713 840.79 386.877 852.003C388.874 856.355 389.793 861.08 389.562 865.82C389.331 870.559 387.958 875.188 385.545 879.356C376.525 894.993 382.535 908.31 388.936 916.573C393.562 922.456 395.779 929.715 395.181 937.021C394.242 947.513 397.013 962.906 417.279 973.139C421.976 975.579 425.983 979.043 428.968 983.241C431.952 987.439 433.827 992.251 434.435 997.274C436.32 1011.5 441.864 1030.28 467.306 1038.05C471.976 1039.51 476.225 1041.96 479.726 1045.22C483.228 1048.47 485.888 1052.44 487.501 1056.82C491.575 1067.57 502.08 1080.08 528.851 1080.76C533.664 1080.89 538.392 1081.97 542.72 1083.96C547.048 1085.94 550.876 1088.77 553.949 1092.25C561.378 1100.62 574.944 1110.28 598.399 1110.99C603.372 1111.14 608.245 1112.34 612.659 1114.5C617.074 1116.66 620.92 1119.72 623.915 1123.46C632.823 1134.53 649.432 1147.99 676.747 1144.91C681.287 1144.4 685.889 1144.77 690.267 1146.01C694.645 1147.24 698.704 1149.31 702.194 1152.09C713.634 1161.25 733.781 1171.63 758.454 1160.7C762.923 1158.69 767.811 1157.64 772.762 1157.63C777.713 1157.62 782.602 1158.66 787.072 1160.65C798.696 1165.99 816.183 1169.89 834.342 1159.08C838.63 1156.53 843.483 1154.96 848.522 1154.47C853.561 1153.99 858.647 1154.62 863.383 1156.3C876.794 1161.02 896.484 1163.89 913.731 1150.35C920.322 1145.07 928.835 1142.41 937.46 1142.95C950.228 1143.81 968.761 1142.24 980.707 1128.46C983.717 1125.07 987.459 1122.33 991.683 1120.41C995.906 1118.49 1000.51 1117.44 1005.2 1117.34C1020.26 1116.86 1041.4 1112.69 1052.67 1094.97C1054.98 1091.29 1058.06 1088.08 1061.71 1085.54C1065.37 1083 1069.52 1081.18 1073.94 1080.18C1086.36 1077.38 1102.39 1064.32 1108.97 1052.71C1115.56 1041.1 1124.28 1035.86 1131.6 1032.78L1131.8 1032.7C1139.22 1029.59 1155.36 1022.82 1158.83 1008.83C1159.82 1004.57 1161.74 1000.55 1164.48 997.025C1167.21 993.502 1170.7 990.558 1174.71 988.381C1183.45 983.83 1192.64 975.174 1192.78 958.945C1192.88 950.475 1196.53 942.382 1202.94 936.436C1210.09 929.732 1217.37 919.141 1215.03 904.804C1214.38 900.605 1214.65 896.324 1215.83 892.227C1217.01 888.129 1219.07 884.302 1221.88 880.984C1231.34 869.687 1228.07 857.086 1223.78 848.633C1220.39 841.992 1219.56 834.449 1221.41 827.286C1229.44 796.284 1207.55 783.129 1207.55 783.129C1181.5 784.561 1167.76 795.749 1160.63 806.525C1157.49 811.325 1153.02 815.228 1147.71 817.814C1142.39 820.4 1136.43 821.572 1130.46 821.202C1113.11 820.007 1101.9 826.506 1094.99 833.743C1091.12 837.775 1086.21 840.8 1080.74 842.526C1075.28 844.251 1069.43 844.62 1063.77 843.596C1047.89 840.754 1034.51 854.21 1024.65 859.372C1019.29 862.127 1013.23 863.44 1007.13 863.168C1001.04 862.895 995.145 861.047 990.096 857.826C975.888 848.949 959.716 858.434 946.155 868.123C933.956 876.839 919.01 875.415 905.387 869.164C886.22 860.368 868.122 859.612 857.942 868.788C848.043 877.733 828.366 892.375 800.222 872.39C784.234 859.511 762.912 858.716 748.82 863.431C743.166 865.316 737.077 865.722 731.201 864.607C725.325 863.492 719.883 860.896 715.452 857.096C694.168 839.008 669.555 841.271 652.399 846.335C646.627 848.034 640.479 848.242 634.597 846.938C628.715 845.634 623.315 842.866 618.961 838.921C601.313 823.004 577.276 825.064 560.621 829.381C555.13 830.848 549.333 830.955 543.79 829.692C538.246 828.43 533.145 825.841 528.978 822.176Z" stroke="black" stroke-width="22" stroke-miterlimit="10"/>
<path d="M847.684 952.99C796.393 960.533 771.057 930.01 764.065 911.56C763.735 910.688 764.715 909.945 765.529 910.399C794.794 926.75 833.656 903.637 851.184 871.99C854.749 865.552 859.18 860.308 864.102 856.095C892.633 831.676 933.121 867.002 920.263 902.286C911.028 927.625 887.792 947.092 847.684 952.99Z" fill="#4AEEB9"/>
<path d="M999.033 952.99C1050.32 960.533 1075.66 930.01 1082.65 911.56C1082.98 910.688 1082 909.945 1081.19 910.399C1051.92 926.75 1013.06 903.637 995.533 871.99C991.967 865.552 987.536 860.308 982.614 856.095C954.083 831.676 913.595 867.002 926.454 902.286C935.688 927.625 958.924 947.092 999.033 952.99Z" fill="#4AEEB9"/>
<path d="M883 852.5C880.2 911.7 822.5 934.5 794 938.5L769.5 916.5L826.5 903.5L851 878.5L858 857.5L883 852.5Z" fill="#001647" fill-opacity="0.2"/>
<path d="M970 938.5C944.8 914.9 950.833 871.333 957 852.5L940 854.5L924.5 867V897L945 925.5L970 938.5Z" fill="#001647" fill-opacity="0.2"/>
<path fill-rule="evenodd" clip-rule="evenodd" d="M923.129 856.694C920.505 853.024 917.459 849.726 914.113 846.903C898.825 834.009 875.472 829.811 856.267 846.248C850.38 851.286 845.101 857.547 840.878 865.171C833.142 879.14 820.655 891.196 807.203 897.842C793.771 904.478 780.734 905.185 770.211 899.306C765.64 896.752 760.435 897.58 756.925 900.315C753.272 903.161 751.024 908.5 753.096 913.968C761.559 936.297 791.257 970.816 848.601 962.383C884.621 957.086 909.524 941.229 923.129 918.755C936.733 941.229 961.636 957.086 997.656 962.384C1055 970.817 1084.7 936.297 1093.16 913.968C1095.23 908.5 1092.99 903.161 1089.33 900.315C1085.82 897.58 1080.62 896.752 1076.05 899.307C1065.52 905.186 1052.49 904.479 1039.06 897.842C1025.6 891.196 1013.12 879.14 1005.38 865.171C1001.16 857.547 995.878 851.287 989.991 846.248C970.785 829.811 947.433 834.01 932.145 846.904C928.799 849.726 925.753 853.024 923.129 856.694ZM899.929 863.721C891.054 856.236 879.898 854.981 870.572 862.962C866.614 866.35 863.033 870.578 860.124 875.83C850.333 893.508 834.625 908.832 816.948 917.566C807.598 922.186 797.32 925.111 786.94 925.299C798.415 936.011 817.19 944.766 845.401 940.617C882.42 935.173 901.682 917.782 909.245 897.029C913.863 884.357 909.026 871.393 899.929 863.721ZM946.329 863.721C937.232 871.394 932.395 884.358 937.013 897.029C944.576 917.782 963.838 935.174 1000.86 940.618C1029.07 944.766 1047.84 936.011 1059.32 925.299C1048.94 925.111 1038.66 922.186 1029.31 917.566C1011.63 908.832 995.925 893.508 986.134 875.83C983.225 870.578 979.643 866.35 975.686 862.962C966.36 854.981 955.203 856.236 946.329 863.721Z" fill="black"/>
</g>
<defs>
<clipPath id="clip0_2507_63">
<rect width="1500" height="1500" fill="white"/>
</clipPath>
</defs>
      <g clip-path="url(#clip0_771_645)">
<path d="M863.993 527.644C890.69 533.234 953.2 543.468 977.668 523.094L1014.69 433.323L1073.2 323.725L1125.02 252.017C1125.02 252.017 1152.13 228.431 1038.06 213.369C923.981 198.307 867.998 187.656 867.998 187.656C867.998 187.656 682.771 166.635 549.728 276.66C416.686 386.684 363.177 542.213 363.177 542.213C363.177 542.213 337.135 691.713 357.999 753.5C357.999 753.5 341.001 591 490.792 472.221L501.17 475.384L603.985 437.979L697.981 441.573L810.812 485.642L842.989 516.524C848.813 522.121 856.09 525.973 863.993 527.644Z" fill="#FF6247"/>
<path d="M742.504 200.999C676.904 266.599 661.503 387.666 662.003 439.999L625.003 434.5L571.003 446L499.003 479C383.499 562.5 364.503 699.667 357.503 751.5L343.503 659.5L360.003 560.5L396.003 466.5C421.169 416.5 492.403 304.699 576.003 257.499C659.603 210.299 721.837 200.166 742.504 200.999Z" fill="#001647" fill-opacity="0.2"/>
<path d="M370.001 824.5C370.001 824.5 269.087 563.97 500.28 320.562C709.101 100.723 1055 215.728 1119.97 240.074C1121.19 240.539 1122.28 241.281 1123.16 242.241C1124.03 243.209 1124.65 244.367 1124.99 245.623C1125.32 246.881 1125.35 248.2 1125.07 249.47C1124.79 250.741 1124.21 251.926 1123.38 252.928C1034.34 361.043 992.774 481.265 982.543 514.053C981.611 517.023 980.059 519.76 977.991 522.086C975.922 524.406 973.381 526.257 970.538 527.514C952.612 535.457 910.698 548.623 858.575 529.192C851.513 525.552 848.335 523.515 843.096 518.725C818.258 491.807 652.217 366.136 494.165 482.174" stroke="black" stroke-width="20" stroke-miterlimit="10" stroke-linecap="round"/>
<path d="M847.383 522.595C847.383 522.595 830.394 316.415 907.33 193.397" stroke="black" stroke-width="20" stroke-miterlimit="10" stroke-linecap="round"/>
<path d="M940.167 529.066C940.167 529.066 943.119 444.066 997.197 349.634" stroke="black" stroke-width="20" stroke-miterlimit="10" stroke-linecap="round"/>
<path d="M754.269 459.828C754.269 459.828 740.725 382.776 759.48 315.96" stroke="black" stroke-width="20" stroke-miterlimit="10" stroke-linecap="round"/>
<path d="M595.363 246.497C595.363 246.497 573.599 298.854 593.754 375.109" stroke="black" stroke-width="20" stroke-miterlimit="10" stroke-linecap="round"/>
<path d="M920.072 268.739C920.072 268.739 927.639 235.29 953.389 205.827" stroke="black" stroke-width="20" stroke-miterlimit="10" stroke-linecap="round"/>
<path d="M472.246 499.854C472.246 499.854 460.444 481.715 458.858 444.683" stroke="black" stroke-width="20" stroke-miterlimit="10" stroke-linecap="round"/>
</g>
<defs>
<clipPath id="clip0_771_645">
<rect width="1500" height="1500" fill="white"/>
</clipPath>
</defs>
      
    </g>
    </svg>