<svg
      xmlns="http://www.w3.org/2000/svg"
      preserveAspectRatio="xMidYMin meet"
      fill="none"
      viewBox="0 0 1500 1500"
    >
      <g>
      <path fill="url(#prefix__paint0_linear_53_30463)" d="M0 0h1500v1500H0z"/><defs><linearGradient id="prefix__paint0_linear_53_30463" x1="1500" y1="1500" x2="0" y2="0" gradientUnits="userSpaceOnUse">
<stop stop-color="#FF5A5A"/>
<stop offset="1" stop-color="#FFBDBD"/>
</linearGradient></defs>
      <g clip-path="url(#clip0_495_792)">
<path d="M773 1011.5C543.4 1029.9 398.667 1353.5 355 1513H1138.5C1075.7 1127 868.667 1017.83 773 1011.5Z" fill="#A760FF"/>
<path d="M741.5 1213C709.1 1241.4 650.333 1194.17 625 1167V1132.5L645 1105L708 1115.5C732.667 1136.17 773.9 1184.6 741.5 1213Z" fill="#AABBFF"/>
<path d="M768 1276.5C727.6 1271.7 715.833 1297.17 715 1310.5L735 1330.5L788.5 1320C798.5 1307.5 808.4 1281.3 768 1276.5Z" fill="#AABBFF"/>
<path d="M951.5 1230C920.3 1206.4 962.833 1169.17 988 1153.5L1033.5 1224.5C1019.17 1236.17 982.7 1253.6 951.5 1230Z" fill="#AABBFF"/>
<path d="M896 1383C837.2 1378.2 830.833 1440 835 1471.5L853 1506L935 1514L948.5 1492C955.5 1457.67 954.8 1387.8 896 1383Z" fill="#AABBFF"/>
<path d="M499.5 1441.5C527.1 1434.3 552 1481.5 561 1506H484.5C478 1487.5 471.9 1448.7 499.5 1441.5Z" fill="#AABBFF"/>
<path d="M749.5 1019.5C536 1134 457.448 1414.63 443.159 1511H353.699C350.414 1508.73 357.049 1471.27 409.87 1339.62C462.691 1207.98 569.086 1113.24 605.384 1082.33L674 1033.5L749.5 1019.5Z" fill="#001647" fill-opacity="0.2"/>
<path d="M922 1520C946 1484.4 906 1407 874 1393.5L911.5 1389.5L946 1428L951.5 1480.5C945.167 1492.67 930.4 1517.6 922 1520Z" fill="#001647" fill-opacity="0.2"/>
<path d="M756.253 1287.62L756 1287.5L794.5 1289.5L797.5 1314L760.5 1321.5C792.277 1304.12 768.339 1293.15 756.253 1287.62Z" fill="#001647" fill-opacity="0.2"/>
<path d="M702 1125.5C738 1171 718.5 1206.5 694.5 1214H740.5L749.5 1175.5L702 1125.5Z" fill="#001647" fill-opacity="0.2"/>
<path d="M1007 1190C1020.6 1214.8 989 1229 967 1233L982.5 1251L1030 1235C1032.67 1230.67 1037.6 1221.5 1036 1219.5C1034.4 1217.5 1013.67 1197.67 1007 1190Z" fill="#001647" fill-opacity="0.2"/>
<path d="M539 1507C526.6 1474.2 511.5 1453.5 496 1451.5L511.5 1440L546 1468L558.5 1503.5L539 1507Z" fill="#001647" fill-opacity="0.2"/>
<path d="M353.5 1519.5C365.5 1454.33 414.5 1313.6 483.5 1219C530.101 1155.11 577.468 1101.29 629.141 1059.66C710.278 994.299 826.037 996.323 905.02 1064.27C1000.08 1146.05 1103.44 1290.29 1142.5 1519.5M1013.5 1319C1024.83 1354.33 1048.1 1443.9 1050.5 1519.5M667 1361.5C661.167 1392.33 650.3 1467.1 653.5 1519.5M483.499 1507C478.166 1485.5 474.899 1441.7 504.499 1438.5C534.099 1435.3 555.166 1482.83 562 1507M981.5 1149L981.007 1149.41C962.792 1164.59 924.217 1196.72 948 1232C965.191 1257.5 1016 1242.17 1035 1225M856.5 1507C835.833 1479.83 821 1406.97 869 1386C922.5 1362.62 987.5 1471 929.5 1519M621.925 1133.67C614.574 1149.68 616.744 1169.44 643 1190.5C721.865 1253.76 753 1210 750 1179.5C747.464 1153.72 723.458 1126.72 693.232 1112.72C667.618 1100.86 633.703 1108.01 621.925 1133.67ZM724.656 1288.1C719.198 1292.29 715.187 1297.25 713.999 1303C707.5 1334.5 761.668 1337.41 785.999 1321C789.948 1318.34 792.733 1315.31 794.516 1312.09C810.942 1282.34 751.613 1267.4 724.656 1288.1Z" stroke="black" stroke-width="22" stroke-linecap="round"/>
</g>
<defs>
<clipPath id="clip0_495_792">
<rect width="1500" height="1500" fill="white"/>
</clipPath>
</defs>
      <g clip-path="url(#clip0_497_1194)">
<path d="M379.667 654.812C432.345 471.574 618.472 401.981 699.114 390.653C740.985 382.718 849.655 375.215 949.364 408.675C980 418.956 1049.88 457.388 1091.92 499.818C1144.47 552.856 1272.97 732.052 1185.05 927.725C1097.12 1123.4 758.414 1092.29 612.749 1051.82C464.472 1010.63 314.48 881.563 379.667 654.812Z" fill="#AABBFF"/>
<path d="M449.293 747.204C454.734 531.068 585.306 432.345 649.911 410C432.292 459.565 365.296 655.455 364 747.204C377.99 984.871 584.496 1053.43 681 1058C601.498 1044.46 443.853 963.339 449.293 747.204Z" fill="#001647" fill-opacity="0.2"/>
<path d="M379.667 654.812C432.345 471.574 618.472 401.981 699.114 390.653C740.985 382.718 849.655 375.215 949.364 408.675C980 418.956 1049.88 457.388 1091.92 499.818C1144.47 552.856 1272.97 732.052 1185.05 927.725C1097.12 1123.4 758.414 1092.29 612.749 1051.82C464.472 1010.63 314.48 881.563 379.667 654.812Z" stroke="black" stroke-width="22" stroke-linecap="round"/>
</g>
<defs>
    <clipPath id="prefix__clip0_299_662"><path fill="#fff" d="M0 0h1500v1500H0z"/></clipPath>
</defs>
      <g clip-path="url(#clip0_624_3293)">
<path d="M916.488 918.577L931.325 908.854C933.985 907.112 936.223 904.799 937.876 902.083C939.529 899.367 940.556 896.317 940.882 893.154C941.208 889.991 940.825 886.795 939.761 883.799C938.697 880.803 936.978 878.082 934.73 875.834V875.834C932.657 873.764 930.181 872.142 927.456 871.068C924.731 869.994 921.814 869.491 918.886 869.59C915.959 869.689 913.083 870.388 910.436 871.643C907.79 872.899 905.429 874.684 903.501 876.889L890.301 891.98" stroke="black" stroke-width="22" stroke-miterlimit="10" stroke-linecap="round"/>
<path d="M916.488 918.675L931.325 928.397C933.986 930.137 936.225 932.449 937.879 935.164C939.533 937.88 940.561 940.93 940.887 944.092C941.213 947.255 940.83 950.451 939.764 953.446C938.699 956.442 936.979 959.162 934.73 961.409V961.409C932.66 963.484 930.185 965.11 927.46 966.188C924.734 967.265 921.817 967.77 918.888 967.672C915.959 967.574 913.081 966.874 910.434 965.617C907.787 964.359 905.427 962.57 903.501 960.362L890.301 945.271" stroke="black" stroke-width="22" stroke-miterlimit="10" stroke-linecap="round"/>
<path d="M1012 817C1038.51 817 1060 795.51 1060 769C1060 742.49 1038.51 721 1012 721C985.49 721 964 742.49 964 769C964 795.51 985.49 817 1012 817Z" fill="black" stroke="black" stroke-width="22" stroke-miterlimit="10"/>
<path d="M1025.18 765.61C1035.8 765.61 1044.4 757.009 1044.4 746.398C1044.4 735.788 1035.8 727.186 1025.18 727.186C1014.57 727.186 1005.97 735.788 1005.97 746.398C1005.97 757.009 1014.57 765.61 1025.18 765.61Z" fill="white"/>
<path d="M994.295 774.185C998.822 774.185 1002.49 770.515 1002.49 765.988C1002.49 761.461 998.822 757.791 994.295 757.791C989.768 757.791 986.098 761.461 986.098 765.988C986.098 770.515 989.768 774.185 994.295 774.185Z" fill="white"/>
<path d="M1018.1 800.697C1026.05 800.697 1032.49 794.254 1032.49 786.307C1032.49 778.359 1026.05 771.917 1018.1 771.917C1010.16 771.917 1003.71 778.359 1003.71 786.307C1003.71 794.254 1010.16 800.697 1018.1 800.697Z" fill="white"/>
<path d="M822 817C848.51 817 870 795.51 870 769C870 742.49 848.51 721 822 721C795.49 721 774 742.49 774 769C774 795.51 795.49 817 822 817Z" fill="black" stroke="black" stroke-width="22" stroke-miterlimit="10"/>
<path d="M835.185 765.61C845.795 765.61 854.397 757.009 854.397 746.398C854.397 735.788 845.795 727.186 835.185 727.186C824.574 727.186 815.973 735.788 815.973 746.398C815.973 757.009 824.574 765.61 835.185 765.61Z" fill="white"/>
<path d="M804.295 774.185C808.822 774.185 812.492 770.515 812.492 765.988C812.492 761.461 808.822 757.791 804.295 757.791C799.768 757.791 796.098 761.461 796.098 765.988C796.098 770.515 799.768 774.185 804.295 774.185Z" fill="white"/>
<path d="M828.103 800.697C836.051 800.697 842.493 794.254 842.493 786.307C842.493 778.359 836.051 771.917 828.103 771.917C820.156 771.917 813.713 778.359 813.713 786.307C813.713 794.254 820.156 800.697 828.103 800.697Z" fill="white"/>
</g>
<defs>
<clipPath id="clip0_624_3293">
<rect width="1500" height="1500" fill="white"/>
</clipPath>
</defs>
      <g clip-path="url(#clip0_911_278)">
<path d="M741 865.42V871.56C741.01 872.669 740.781 873.767 740.33 874.78C739.07 877.64 736.99 877.78 736.99 877.78C735.893 878.033 734.754 878.046 733.651 877.818C732.548 877.59 731.507 877.127 730.6 876.46C727.96 874.35 721.36 856.25 721.36 856.25L708.65 876.46H700L717.8 848.25L712.21 836.66C711.84 835.888 711.265 835.233 710.547 834.767C709.828 834.301 708.996 834.043 708.14 834.02H708C707.225 833.94 706.442 834.054 705.721 834.351C705.001 834.647 704.365 835.118 703.87 835.72C702.98 836.61 702.66 839.5 702.66 839.5L700.88 839.63C700.634 837.881 700.59 836.109 700.75 834.35C700.862 833.001 701.324 831.705 702.09 830.59C702.61 829.783 703.325 829.12 704.169 828.664C705.014 828.208 705.96 827.972 706.92 827.98C708.535 827.979 710.11 828.479 711.43 829.41C712.762 830.35 713.801 831.646 714.43 833.15L719.69 846.2L731.13 828.8H739L723.2 853.31L727.14 862.63C727.14 862.63 730.14 871.63 734.45 871.63C738.76 871.63 739.16 865.41 739.16 865.41L741 865.42Z" fill="black"/>
</g>
<defs>
<clipPath id="clip0_911_278">
<rect width="1500" height="1500" fill="white"/>
</clipPath>
</defs>
      <g clip-path="url(#clip0_786_1362)">
<path d="M711.94 381.541L669.138 415.004L754.914 456.956C786.09 456.451 856.04 454.579 886.429 451.127C916.817 447.675 946.703 430.594 957.848 422.485L912.882 387.272L890.772 360.146L852.07 352.844L816.711 388.83L811.119 369.892L779.2 357.196L748.101 362.456L711.94 381.541Z" fill="#AABBFF"/>
<path d="M754.823 451.145C758.386 440.393 766.661 423.631 780.081 411.559M882.17 449.083C878.062 439.675 870.922 425.659 859.411 414.501M670.743 416.037C678.291 403.405 696.028 378.1 722.448 377.672C724.832 377.634 727.122 377.712 729.323 377.895M780.081 411.559C789.433 403.145 801.285 397.009 815.783 396.774C818.147 396.736 820.438 396.825 822.658 397.03M780.081 411.559C771.884 400.903 758.35 380.305 729.323 377.895M953.095 422.563C946.826 410.677 929.573 387.795 908.089 385.052M859.411 414.501C864.186 404.755 879.655 385.169 903.328 384.785C904.936 384.759 906.524 384.852 908.089 385.052M859.411 414.501C850.192 405.565 838.17 398.463 822.658 397.03M729.323 377.895C734.108 368.72 747.587 350.309 768.512 349.97C795.461 349.534 817.557 375.809 822.658 397.03M908.089 385.052C903.334 374.267 889.367 351.713 871.612 352C849.419 352.36 832.274 370.674 822.592 392.964" stroke="black" stroke-width="22" stroke-linecap="round"/>
<path d="M608.491 564.745L416.38 556.98L362.812 529.743C362.812 529.743 272.363 496.123 253.198 563.225C234.033 630.327 294.892 621.442 294.892 621.442C294.892 621.442 234.693 674.211 270.378 706.733C306.063 739.255 343.827 713.758 343.827 713.758L416.58 661.471L498.131 638.01L615.409 626.272L608.491 564.745Z" fill="white"/>
<path d="M1313.95 616.67C1343.53 624.964 1353.97 603.922 1355.5 592.365L1365.24 602.265L1358.04 623.522L1325.76 653.906L1280.89 634.981L1240.1 609.249L1176.5 604L1167.5 587.5C1192.71 585.773 1215.27 583.908 1246.09 586.675C1284.61 590.133 1276.98 606.303 1313.95 616.67Z" fill="#001647" fill-opacity="0.2"/>
<path d="M376.041 543.941L451.5 564C445.667 578.482 433.8 616.452 433 652.473L423.636 652.473L373.93 690.257C360.188 706.18 322.679 735.212 282.572 723.957C242.466 712.703 264.742 652.888 280.893 624.388L256.504 600.586C252.576 593.245 251.141 570.202 276.83 536.763C302.518 503.324 353.674 527.616 376.041 543.941Z" fill="#001647" fill-opacity="0.2"/>
<path d="M1147.68 552.365C1135.98 538.355 1219.43 538.929 1219.43 538.929C1219.43 538.929 1254.66 534.738 1267.43 502.145C1280.19 469.553 1317.73 465.798 1317.73 465.798C1317.73 465.798 1365.46 483.33 1352.18 522.962C1338.9 562.593 1363.22 579.179 1363.22 579.179C1363.22 579.179 1376.45 653.536 1308.8 647.658C1254.5 641.001 1240.52 605.909 1240.52 605.909L1180.71 610.518C1180.71 610.518 1160.41 571.117 1147.68 552.365Z" fill="white"/>
<path d="M611.835 564.803L427.763 560.735C406.985 560.413 387.112 552.175 372.2 537.702C356.523 522.276 329.415 507.111 289.65 523.161C289.65 523.161 205.1 571.269 285.459 626.853" stroke="black" stroke-width="22" stroke-miterlimit="10" stroke-linecap="round"/>
<path d="M318.465 579.12C318.465 579.12 317.24 603.8 280.903 634.768C258.494 653.851 252.41 686.156 271.707 708.306C282.308 720.434 299.031 727.853 325.438 721.163C341.011 717.065 354.922 708.217 365.235 695.849C383.056 674.844 439.333 633.819 609.357 626.064" stroke="black" stroke-width="22" stroke-miterlimit="10" stroke-linecap="round"/>
<path d="M1138.98 548.869L1228.83 537.633C1236.45 536.441 1243.65 533.332 1249.75 528.597C1255.85 523.862 1260.64 517.656 1263.69 510.561C1273.66 487.565 1285.19 462.11 1322.31 466.158C1357.24 469.953 1362.46 494.653 1354.02 518.318C1349.17 531.539 1342.05 543.814 1332.99 554.595C1327.1 561.734 1321.25 568.811 1319.85 577.526" stroke="black" stroke-width="22" stroke-miterlimit="10" stroke-linecap="round"/>
<path d="M1175 610.751L1231.5 610.75C1237.54 610.698 1243.53 611.84 1249.13 614.111C1254.73 616.382 1259.83 619.737 1264.12 623.984C1279.21 638.777 1307.01 658.318 1337.22 641.261C1382.38 615.771 1365.61 562.554 1341.07 546.161" stroke="black" stroke-width="22" stroke-miterlimit="10" stroke-linecap="round"/>
<path d="M600.396 536.211C619.215 578.661 618.881 598.206 612.064 645.818L609.583 655.148" stroke="black" stroke-width="22" stroke-miterlimit="10" stroke-linecap="round"/>
</g>
<defs>
<clipPath id="clip0_786_1362">
<rect width="1500" height="1500" fill="white"/>
</clipPath>
</defs>
      
    </g>
    </svg>