<svg
      xmlns="http://www.w3.org/2000/svg"
      preserveAspectRatio="xMidYMin meet"
      fill="none"
      viewBox="0 0 1500 1500"
    >
      <g>
      <path fill="url(#prefix__paint0_linear_53_30459)" d="M0 0h1500v1500H0z"/><defs><linearGradient id="prefix__paint0_linear_53_30459" x1="0" y1="0" x2="1500" y2="1500" gradientUnits="userSpaceOnUse">
<stop stop-color="#FFCB9F"/>
<stop offset="1" stop-color="#FF7F11"/>
</linearGradient></defs>
      <g clip-path="url(#clip0_483_532)">
<path d="M366.5 1327.5C264.5 1394.3 286.333 1481.33 310 1516.5L1208 1510C1237.2 1434.8 1183.17 1369.33 1152.5 1346C1198.9 1256 1109.83 1182.17 1059.5 1156.5C1089.1 1116.1 1063.83 1061 1047.5 1038.5C819.5 1116.1 602.5 1048.83 522.5 1005.5C452.9 1045.5 475.833 1117.83 496 1149C358.8 1177.8 352.5 1280 366.5 1327.5Z" fill="url(#paint0_linear_483_532)"/>
<path d="M1069.32 1160.2C1064.35 1156.71 1057.49 1157.91 1054 1162.88C1039.23 1183.91 1016.26 1201.27 992.35 1214.66C968.55 1227.99 944.65 1236.92 928.96 1241.44C923.12 1243.12 919.75 1249.21 921.43 1255.05C923.11 1260.89 929.2 1264.26 935.04 1262.58C952.15 1257.66 977.65 1248.11 1003.1 1233.85C1028.44 1219.66 1054.57 1200.33 1072 1175.52C1075.49 1170.55 1074.29 1163.69 1069.32 1160.2Z" fill="#001647" fill-opacity="0.2"/>
<path d="M1164.1 1354.75C1159.24 1351.11 1152.34 1352.1 1148.7 1356.96C1133.03 1377.87 1104.14 1383.83 1083.64 1384.51C1077.57 1384.71 1072.81 1389.8 1073.01 1395.87C1073.21 1401.94 1078.3 1406.7 1084.37 1406.5C1106.4 1405.77 1144.34 1399.48 1166.31 1370.15C1169.95 1365.29 1168.97 1358.39 1164.1 1354.75Z" fill="#001647" fill-opacity="0.2"/>
<path d="M974 1404.68C955.73 1408.06 923.06 1412.42 884.83 1413.9C846.05 1415.41 802.01 1413.94 761.7 1405.72C755.75 1404.51 749.94 1408.35 748.72 1414.3C747.51 1420.25 751.35 1426.06 757.3 1427.28C799.95 1435.98 845.9 1437.43 885.68 1435.89C924.97 1434.36 958.69 1429.89 978 1426.32C983.97 1425.21 987.92 1419.48 986.82 1413.5C985.72 1407.53 979.98 1403.58 974 1404.68Z" fill="#001647" fill-opacity="0.2"/>
<path d="M526 1158.5L571 1186L615.26 1203.5L680 1225L731.5 1232.5L752.18 1235C707.21 1216.67 630.42 1157.5 683 1067.5L509.66 1009L484 1061.5L480 1115L501 1137.5L526 1158.5Z" fill="#001647" fill-opacity="0.2"/>
<path d="M575.64 1215.68C588.5 1221.37 601.86 1226.63 615.26 1231.41C664.47 1248.96 716.66 1260.84 750.81 1262.98C756.87 1263.36 762.1 1258.75 762.48 1252.69C762.86 1246.63 758.25 1241.41 752.19 1241.03C720.76 1239.07 670.68 1227.82 622.65 1210.7C574.19 1193.42 530.41 1171.05 509.66 1148.1C505.59 1143.59 498.63 1143.24 494.12 1147.32C493.29 1148.07 492.61 1148.91 492.06 1149.82L491.49 1149.51L400.99 1186.01L372.99 1242.51L360.99 1305.51L372.66 1327.65C371.89 1327.77 371.12 1327.97 370.37 1328.26L363.99 1321.01L321.49 1356.01L287 1432L300.5 1513H401C381.17 1457.08 423.35 1428.94 465.37 1415.96C483.49 1420.94 504.21 1424.83 527.79 1427.43C533.83 1428.1 539.26 1423.74 539.93 1417.7C540.6 1411.66 536.24 1406.23 530.2 1405.56C520.59 1404.5 511.58 1403.23 503.1 1401.77L493.44 1398.36L525.99 1401.49C506.16 1380.99 471.49 1327.59 491.49 1277.99C506.17 1241.57 544.58 1223.41 575.63 1215.67L575.64 1215.68Z" fill="#001647" fill-opacity="0.2"/>
<path d="M1013.5 1319C1024.83 1354.33 1048.1 1443.9 1050.5 1519.5M667 1361.5C661.166 1392.33 650.3 1467.1 653.5 1519.5M1205 1519.5C1216 1480.17 1221.2 1391.6 1154 1352M1079 1384C1114 1382.83 1181.89 1367 1163.5 1276C1148.04 1199.52 1089.25 1170.37 1058 1157.7M926.999 1240.5C959.802 1231.06 1025.8 1203.54 1058 1157.7M1058 1157.7C1061.62 1152.53 1064.82 1147.13 1067.5 1141.5C1080.32 1114.5 1076.3 1065.5 1047.5 1035.5C1019.19 1047.48 944.091 1070.65 852.5 1076.66M746.499 1240.5C674.499 1236 514.065 1185.63 485.999 1129C457.5 1071.5 493.833 1020 517.999 1002C574.999 1028.17 715.399 1080 820.999 1078C831.68 1077.8 842.194 1077.34 852.5 1076.66M491 1148.5C462.5 1154.17 399.8 1178 377 1228C348.5 1290.5 343 1385 524 1405M311.5 1513.5C285.667 1480.17 259.201 1396.2 360 1327M852.5 1076.66L880.255 1413.39M880.255 1413.39L889 1519.5M880.255 1413.39C919.011 1411.89 952.211 1407.48 971 1404M880.255 1413.39C840.971 1414.92 795.978 1413.46 754.5 1405" stroke="black" stroke-width="22" stroke-linecap="round"/>
</g>
<defs>
<linearGradient id="paint0_linear_483_532" x1="382.112" y1="1048.46" x2="1207.91" y2="1454.63" gradientUnits="userSpaceOnUse">
<stop stop-color="#FFEB37"/>
<stop offset="0.479167" stop-color="#FF60ED"/>
<stop offset="1" stop-color="#33E5FF"/>
</linearGradient>
<clipPath id="clip0_483_532">
<rect width="1500" height="1500" fill="white"/>
</clipPath>
</defs>
      <g clip-path="url(#clip0_497_1194)">
<path d="M379.667 654.812C432.345 471.574 618.472 401.981 699.114 390.653C740.985 382.718 849.655 375.215 949.364 408.675C980 418.956 1049.88 457.388 1091.92 499.818C1144.47 552.856 1272.97 732.052 1185.05 927.725C1097.12 1123.4 758.414 1092.29 612.749 1051.82C464.472 1010.63 314.48 881.563 379.667 654.812Z" fill="#AABBFF"/>
<path d="M449.293 747.204C454.734 531.068 585.306 432.345 649.911 410C432.292 459.565 365.296 655.455 364 747.204C377.99 984.871 584.496 1053.43 681 1058C601.498 1044.46 443.853 963.339 449.293 747.204Z" fill="#001647" fill-opacity="0.2"/>
<path d="M379.667 654.812C432.345 471.574 618.472 401.981 699.114 390.653C740.985 382.718 849.655 375.215 949.364 408.675C980 418.956 1049.88 457.388 1091.92 499.818C1144.47 552.856 1272.97 732.052 1185.05 927.725C1097.12 1123.4 758.414 1092.29 612.749 1051.82C464.472 1010.63 314.48 881.563 379.667 654.812Z" stroke="black" stroke-width="22" stroke-linecap="round"/>
</g>
<defs>
    <clipPath id="prefix__clip0_299_662"><path fill="#fff" d="M0 0h1500v1500H0z"/></clipPath>
</defs>
      <g clip-path="url(#clip0_624_3324)">
<path d="M792.8 801.54L845.506 748.833" stroke="black" stroke-width="22" stroke-miterlimit="10" stroke-linecap="round"/>
<path d="M792.8 748.833L845.506 801.54" stroke="black" stroke-width="22" stroke-miterlimit="10" stroke-linecap="round"/>
<path d="M984.133 801.54L1036.84 748.833" stroke="black" stroke-width="22" stroke-miterlimit="10" stroke-linecap="round"/>
<path d="M984.133 748.833L1036.84 801.54" stroke="black" stroke-width="22" stroke-miterlimit="10" stroke-linecap="round"/>
<path d="M853.066 922.82C861.226 917.24 873.066 917.24 881.206 922.82L881.5 923.02C885.645 925.854 890.549 927.37 895.57 927.37C900.591 927.37 905.495 925.854 909.64 923.02V923.02C913.785 920.185 918.689 918.669 923.71 918.669C928.731 918.669 933.635 920.185 937.78 923.02L938.506 923.513C942.651 926.347 947.555 927.863 952.576 927.863C957.598 927.863 962.502 926.347 966.646 923.513L967.86 922.686C976.02 917.106 987.86 917.106 996 922.686" stroke="black" stroke-width="22" stroke-miterlimit="10" stroke-linecap="round"/>
</g>
<defs>
<clipPath id="clip0_624_3324">
<rect width="1500" height="1500" fill="white"/>
</clipPath>
</defs>
      <g clip-path="url(#clip0_924_580)">
<path d="M582.499 804.5C582.499 810.023 586.976 814.5 592.499 814.5C598.022 814.5 602.499 810.023 602.499 804.5H582.499ZM747.333 760L622.499 760L622.499 780L747.333 780L747.333 760ZM582.499 800V804.5H602.499V800H582.499ZM622.499 760C600.408 760 582.499 777.908 582.499 800H602.499C602.499 788.954 611.453 780 622.499 780L622.499 760Z" fill="black"/>
<path d="M894.386 769.667H939.5" stroke="black" stroke-width="20" stroke-miterlimit="10"/>
<path d="M989.139 711.37C989.153 711.379 989.168 711.384 989.185 711.384C989.201 711.385 989.217 711.38 989.231 711.372C989.245 711.364 989.256 711.352 989.264 711.338C989.271 711.323 989.275 711.307 989.273 711.291C989.273 708.797 990.302 676.51 1024.25 679.154C1024.25 679.154 1052.73 681.648 1055.38 712.609C1055.38 712.623 1055.39 712.637 1055.4 712.649C1055.4 712.661 1055.41 712.672 1055.43 712.679C1055.44 712.687 1055.45 712.692 1055.47 712.693C1055.48 712.695 1055.5 712.693 1055.51 712.688C1057.55 711.899 1086.02 700.802 1100.84 724.526C1115.66 748.25 1091.4 768.865 1089.77 770.175C1089.76 770.184 1089.75 770.195 1089.74 770.207C1089.74 770.219 1089.73 770.233 1089.73 770.246C1089.73 770.26 1089.74 770.273 1089.74 770.285C1089.75 770.297 1089.76 770.308 1089.77 770.317C1091.29 771.825 1115.74 793.449 1101.63 816.416C1087.53 839.382 1058.56 827.946 1056.54 826.928C1056.53 826.92 1056.51 826.915 1056.5 826.914C1056.48 826.913 1056.47 826.916 1056.45 826.922C1056.44 826.929 1056.43 826.938 1056.42 826.95C1056.41 826.962 1056.4 826.977 1056.4 826.991C1056.01 829.186 1050.02 859.642 1023.17 859.997C996.331 860.352 988.538 830.488 988.031 828.428C988.028 828.415 988.022 828.403 988.013 828.393C988.005 828.382 987.994 828.374 987.982 828.368C987.97 828.362 987.957 828.359 987.944 828.358C987.93 828.358 987.917 828.36 987.905 828.365C986.014 829.225 958.529 841.055 942.611 815.603C926.693 790.15 949.534 772.03 951.156 770.791C951.167 770.783 951.176 770.772 951.183 770.76C951.189 770.747 951.193 770.734 951.193 770.72C951.193 770.706 951.189 770.692 951.183 770.68C951.176 770.667 951.167 770.657 951.156 770.649C949.573 769.228 926.574 747.864 943.893 722.088C960.507 697.495 987.019 710.297 989.139 711.37Z" fill="#53B6F9" stroke="black" stroke-width="20" stroke-miterlimit="10"/>
<path d="M784.139 711.37C784.153 711.379 784.168 711.384 784.185 711.384C784.201 711.385 784.217 711.38 784.231 711.372C784.245 711.364 784.256 711.352 784.264 711.338C784.271 711.323 784.275 711.307 784.273 711.291C784.273 708.797 785.302 676.51 819.251 679.154C819.251 679.154 847.732 681.648 850.383 712.609C850.384 712.623 850.389 712.637 850.397 712.649C850.404 712.661 850.414 712.672 850.427 712.679C850.439 712.687 850.453 712.692 850.467 712.693C850.481 712.695 850.496 712.693 850.509 712.688C852.55 711.899 881.024 700.802 895.843 724.526C910.661 748.25 886.404 768.865 884.766 770.175C884.756 770.184 884.748 770.195 884.743 770.207C884.737 770.219 884.734 770.233 884.734 770.246C884.734 770.26 884.737 770.273 884.743 770.285C884.748 770.297 884.756 770.308 884.766 770.317C886.285 771.825 910.74 793.449 896.634 816.416C882.527 839.382 853.563 827.946 851.538 826.928C851.525 826.92 851.511 826.915 851.496 826.914C851.481 826.913 851.466 826.916 851.453 826.922C851.439 826.929 851.427 826.938 851.419 826.95C851.41 826.962 851.405 826.977 851.403 826.991C851.008 829.186 845.019 859.642 818.175 859.997C791.331 860.352 783.538 830.488 783.031 828.428C783.028 828.415 783.022 828.403 783.013 828.393C783.005 828.382 782.994 828.374 782.982 828.368C782.97 828.362 782.957 828.359 782.944 828.358C782.93 828.358 782.917 828.36 782.905 828.365C781.014 829.225 753.529 841.055 737.611 815.603C721.693 790.15 744.534 772.03 746.156 770.791C746.167 770.783 746.176 770.772 746.183 770.76C746.189 770.747 746.193 770.734 746.193 770.72C746.193 770.706 746.189 770.692 746.183 770.68C746.176 770.667 746.167 770.657 746.156 770.649C744.573 769.228 721.574 747.864 738.893 722.088C755.507 697.495 782.019 710.297 784.139 711.37Z" fill="#53B6F9" stroke="black" stroke-width="20" stroke-miterlimit="10"/>
<path d="M1054 770C1054 788.336 1039.34 803 1021.5 803C1003.66 803 989 788.336 989 770C989 751.664 1003.66 737 1021.5 737C1039.34 737 1054 751.664 1054 770Z" fill="#FFBF44" stroke="black" stroke-width="20"/>
<path d="M849 770C849 788.336 834.339 803 816.5 803C798.661 803 784 788.336 784 770C784 751.664 798.661 737 816.5 737C834.339 737 849 751.664 849 770Z" fill="#FFBF44" stroke="black" stroke-width="20"/>
<path d="M1010.55 731.17C1006.77 701.733 1023.94 686.472 1032.99 685.021C1021.34 681.539 998.775 687.791 993.525 691.352C991.687 694.122 987.618 700.294 986.043 702.826C984.074 705.991 982.893 709.552 981.712 709.948C980.531 710.344 964.78 711.531 963.993 711.531C963.205 711.531 943.517 719.84 943.124 720.631C942.73 721.422 935.249 740.414 935.249 741.206C935.249 741.839 938.924 764.418 940.761 775.628C938.53 780.904 933.673 792.959 932.098 798.973C930.523 804.987 948.242 823.108 957.299 831.417L987.224 833.395L1016.76 859.905C1031.72 860.301 1059.6 859.668 1035.66 853.97C1011.72 848.272 1009.14 821.537 1010.85 811.382C1009.8 809.14 1003.45 804.418 1002.19 803.469C1000.61 802.282 989.193 795.016 988.8 794.225C988.406 793.433 983.287 785.124 982.893 767.319C982.578 753.076 1004.25 738.952 1010.55 731.17Z" fill="#001647" fill-opacity="0.2"/>
<path d="M805.55 731.17C801.77 701.733 818.938 686.472 827.994 685.021C816.339 681.539 793.775 687.791 788.525 691.352C786.687 694.122 782.618 700.294 781.043 702.826C779.074 705.991 777.893 709.552 776.712 709.948C775.531 710.344 759.78 711.531 758.993 711.531C758.205 711.531 738.517 719.84 738.124 720.631C737.73 721.422 730.249 740.414 730.249 741.206C730.249 741.839 733.924 764.418 735.761 775.628C733.53 780.904 728.673 792.959 727.098 798.973C725.523 804.987 743.242 823.108 752.299 831.417L782.224 833.395L811.756 859.905C826.719 860.301 854.597 859.668 830.657 853.97C806.716 848.272 804.144 821.537 805.85 811.382C804.8 809.14 798.447 804.418 797.187 803.469C795.612 802.282 784.193 795.016 783.8 794.225C783.406 793.433 778.287 785.124 777.893 767.319C777.578 753.076 799.25 738.952 805.55 731.17Z" fill="#001647" fill-opacity="0.2"/>
<path d="M989.139 711.37C989.153 711.379 989.168 711.384 989.185 711.384C989.201 711.385 989.217 711.38 989.231 711.372C989.245 711.364 989.256 711.352 989.264 711.338C989.271 711.323 989.275 711.307 989.273 711.291C989.273 708.797 990.302 676.51 1024.25 679.154C1024.25 679.154 1052.73 681.648 1055.38 712.609C1055.38 712.623 1055.39 712.637 1055.4 712.649C1055.4 712.661 1055.41 712.672 1055.43 712.679C1055.44 712.687 1055.45 712.692 1055.47 712.693C1055.48 712.695 1055.5 712.693 1055.51 712.688C1057.55 711.899 1086.02 700.802 1100.84 724.526C1115.66 748.25 1091.4 768.865 1089.77 770.175C1089.76 770.184 1089.75 770.195 1089.74 770.207C1089.74 770.219 1089.73 770.233 1089.73 770.246C1089.73 770.26 1089.74 770.273 1089.74 770.285C1089.75 770.297 1089.76 770.308 1089.77 770.317C1091.29 771.825 1115.74 793.449 1101.63 816.416C1087.53 839.382 1058.56 827.946 1056.54 826.928C1056.53 826.92 1056.51 826.915 1056.5 826.914C1056.48 826.913 1056.47 826.916 1056.45 826.922C1056.44 826.929 1056.43 826.938 1056.42 826.95C1056.41 826.962 1056.4 826.977 1056.4 826.991C1056.01 829.186 1050.02 859.642 1023.17 859.997C996.331 860.352 988.538 830.488 988.031 828.428C988.028 828.415 988.022 828.403 988.013 828.393C988.005 828.382 987.994 828.374 987.982 828.368C987.97 828.362 987.957 828.359 987.944 828.358C987.93 828.358 987.917 828.36 987.905 828.365C986.014 829.225 958.529 841.055 942.611 815.603C926.693 790.15 949.534 772.03 951.156 770.791C951.167 770.783 951.176 770.772 951.183 770.76C951.189 770.747 951.193 770.734 951.193 770.72C951.193 770.706 951.189 770.692 951.183 770.68C951.176 770.667 951.167 770.657 951.156 770.649C949.573 769.228 926.574 747.864 943.893 722.088C960.507 697.495 987.019 710.297 989.139 711.37Z" stroke="black" stroke-width="20" stroke-miterlimit="10"/>
<path d="M784.139 711.37C784.153 711.379 784.168 711.384 784.185 711.384C784.201 711.385 784.217 711.38 784.231 711.372C784.245 711.364 784.256 711.352 784.264 711.338C784.271 711.323 784.275 711.307 784.273 711.291C784.273 708.797 785.302 676.51 819.251 679.154C819.251 679.154 847.732 681.648 850.383 712.609C850.384 712.623 850.389 712.637 850.397 712.649C850.404 712.661 850.414 712.672 850.427 712.679C850.439 712.687 850.453 712.692 850.467 712.693C850.481 712.695 850.496 712.693 850.509 712.688C852.55 711.899 881.024 700.802 895.843 724.526C910.661 748.25 886.404 768.865 884.766 770.175C884.756 770.184 884.748 770.195 884.743 770.207C884.737 770.219 884.734 770.233 884.734 770.246C884.734 770.26 884.737 770.273 884.743 770.285C884.748 770.297 884.756 770.308 884.766 770.317C886.285 771.825 910.74 793.449 896.634 816.416C882.527 839.382 853.563 827.946 851.538 826.928C851.525 826.92 851.511 826.915 851.496 826.914C851.481 826.913 851.466 826.916 851.453 826.922C851.439 826.929 851.427 826.938 851.419 826.95C851.41 826.962 851.405 826.977 851.403 826.991C851.008 829.186 845.019 859.642 818.175 859.997C791.331 860.352 783.538 830.488 783.031 828.428C783.028 828.415 783.022 828.403 783.013 828.393C783.005 828.382 782.994 828.374 782.982 828.368C782.97 828.362 782.957 828.359 782.944 828.358C782.93 828.358 782.917 828.36 782.905 828.365C781.014 829.225 753.529 841.055 737.611 815.603C721.693 790.15 744.534 772.03 746.156 770.791C746.167 770.783 746.176 770.772 746.183 770.76C746.189 770.747 746.193 770.734 746.193 770.72C746.193 770.706 746.189 770.692 746.183 770.68C746.176 770.667 746.167 770.657 746.156 770.649C744.573 769.228 721.574 747.864 738.893 722.088C755.507 697.495 782.019 710.297 784.139 711.37Z" stroke="black" stroke-width="20" stroke-miterlimit="10"/>
</g>
<defs>
<clipPath id="clip0_924_580">
<rect width="1500" height="1500" fill="white"/>
</clipPath>
</defs>
      <g clip-path="url(#clip0_786_1591)">
<path d="M348 775L369 729L432 708.5L555.5 668.5L699.5 639.5L848 627H1014L1171.5 626L1194 614C1148 466 952.5 317.5 699.5 360.5C497.1 394.9 394.833 548.833 369 621.5C350.167 630 303.6 633.4 262 649C220.4 664.6 192.833 723.333 185 742L214 752L276 760L272 789.5L269.5 844.5L316.5 819.5L348 775Z" fill="#53B6F9"/>
<path d="M740.5 357.5C585.7 413.5 517 606.833 523.5 681L365.5 728L337.5 806.5L276.5 848L267.5 831.5L276.5 757L233 751.5L188.5 742.5L196 721L228.5 675.5L295.5 638.5L371 619.5C458.6 418.7 664.5 358.167 740.5 357.5Z" fill="#001647" fill-opacity="0.2"/>
<path d="M365.499 733C361.229 766.691 346.6 822.9 278.017 846.491C272.108 848.524 266.062 844.256 266.142 838.007C266.414 816.515 271.11 785.909 284.173 755.5M352.69 674C349.439 692.112 348.907 708.667 351.213 722.797C352.132 728.423 358.007 731.46 363.407 729.632C567.243 660.623 776.1 608.066 1183.08 624.375C1190.15 624.658 1195.45 617.788 1192.83 611.211C1146.56 495.051 1004.12 307.96 674.999 368.5C517.477 397.475 410.414 517.784 368.974 619.5M352.69 674C355.747 656.968 361.208 638.561 368.974 619.5M352.69 674C318.787 694.711 297.273 725.007 284.173 755.5M368.974 619.5C275.567 629.083 217.031 666.673 189.87 735.352C187.877 740.391 190.542 746.023 195.709 747.656C215.238 753.828 249.504 761.579 284.173 755.5" stroke="black" stroke-width="22" stroke-linecap="round"/>
</g>
<defs>
<clipPath id="clip0_786_1591">
<rect width="1500" height="1500" fill="white"/>
</clipPath>
</defs>
      
    </g>
    </svg>