<svg
      xmlns="http://www.w3.org/2000/svg"
      preserveAspectRatio="xMidYMin meet"
      fill="none"
      viewBox="0 0 1500 1500"
    >
      <g>
      <path fill="url(#prefix__a1)" d="M0 0h1500v1500H0z"/><defs><linearGradient id="prefix__a1" x1="1500" y1="1500" x2="0" y2="0" gradientUnits="userSpaceOnUse">
<stop stop-color="#1555D1"/>
<stop offset="1" stop-color="#70E5FF"/>
</linearGradient></defs>
      <g clip-path="url(#clip0_496_948)">
<path d="M773 1011.5C543.4 1029.9 398.667 1353.5 355 1513H1138.5C1075.7 1127 868.667 1017.83 773 1011.5Z" fill="white"/>
<path d="M353.699 1511C350.414 1508.73 357.049 1471.27 409.87 1339.62C436.322 1273.7 476.209 1217.03 514 1173L524 1176.5L570.032 1188.5C488.342 1309.97 452.378 1448.83 443.159 1511H353.699Z" fill="#001647" fill-opacity="0.2"/>
<path d="M939.5 1511C927.5 1360.2 870.5 1116.5 841.5 1033.5H866.5L906.5 1137.5L947.5 1325.5L970 1511H939.5Z" fill="#001647" fill-opacity="0.2"/>
<path d="M805 1365L817 1517.5L971 1510.5L960 1428.5L932 1270.5L901 1137L877 1040L867 1029L828 1018C815.167 1015 787.1 1012.7 779.5 1011.5C771.9 1010.3 740.333 1005.83 725 1011.5L654.5 1045C674.5 1057 714.9 1081.6 716.5 1084C718.1 1086.4 756.833 1166.33 776 1206L805 1365Z" fill="#FF6247"/>
<path d="M656 1439.5L649.5 1511H809.5L806.5 1372.5L783.5 1254.5L753.5 1146L692.5 1064.5L657.5 1032.5C627.9 1044.1 554.833 1131.67 522 1174L610.5 1211.5L649.5 1251.5L670 1334.5L656 1439.5Z" fill="#3A3A3A"/>
<path d="M957.5 1385.5L974.5 1511H1050.5L1042 1448.5L1022 1352.5L1000.5 1266.5L1022 1206.5L936 1096L877.5 1048L916.5 1194L957.5 1385.5Z" fill="#3A3A3A"/>
<path d="M523.499 1182C523.499 1182 505.5 1187.8 513.141 1174C541.446 1122.86 587.126 1097.88 605.384 1082.33L674 1033.5L749.5 1019.5C673.999 1059.99 615.375 1121.26 570.5 1187.8H570.499L523.499 1182Z" fill="black" fill-opacity="0.2"/>
<path d="M353.5 1519.5C365.5 1454.33 414.5 1313.6 483.5 1219C530.101 1155.11 577.468 1101.29 629.141 1059.66C710.278 994.299 826.037 996.323 905.02 1064.27C1000.08 1146.05 1103.44 1290.29 1142.5 1519.5M1050.5 1519.5C1048.1 1443.9 1024.83 1354.33 1013.5 1319C999.5 1268 1009.7 1225.3 1020.5 1204.5M653.5 1519.5C650.3 1467.1 661.167 1392.33 667 1361.5C674 1324.5 668 1288.8 642 1250C609.5 1201.5 554.5 1171 517 1179.5M811.847 1484C812.631 1496.77 813.349 1509.94 814 1523.5M811.847 1484L964.471 1466M811.847 1484C810.341 1459.43 808.594 1436.3 806.617 1414.5M969.5 1523.5C968.476 1507.52 966.802 1488.03 964.471 1466M964.471 1466C962.326 1445.74 959.626 1423.32 956.362 1399.5M806.617 1414.5L956.362 1399.5M806.617 1414.5C804.398 1390.03 801.89 1367.24 799.11 1346M956.362 1399.5C953.348 1377.51 949.855 1354.31 945.877 1330.5M799.11 1346L945.877 1330.5M799.11 1346C795.695 1319.92 791.87 1296.17 787.664 1274.5M945.877 1330.5C941.963 1307.08 937.58 1283.06 932.722 1259M787.664 1274.5L932.722 1259M787.664 1274.5C781.729 1243.93 775.036 1217.5 767.671 1194.5M932.722 1259C927.26 1231.95 921.197 1204.85 914.528 1178.5M767.671 1194.5L914.528 1178.5M767.671 1194.5C758.702 1166.5 748.736 1143.59 737.926 1124.5M914.528 1178.5C908.183 1153.43 901.289 1129.04 893.84 1106M893.84 1106C887.615 1086.75 879.003 1058.95 872 1042M893.84 1106L737.926 1124.5M737.926 1124.5C714.675 1083.43 687.521 1060.02 658 1041.55" stroke="black" stroke-width="22" stroke-linecap="round"/>
<path d="M698.265 1257.79C698.91 1259.21 699.577 1260.67 700.046 1262.15C700.237 1262.75 701.353 1267.16 701.964 1269.58C702.088 1270.04 702.327 1270.45 702.653 1270.77C702.978 1271.08 703.375 1271.27 703.795 1271.33L706.726 1271.68C706.939 1271.71 707.141 1271.81 707.313 1271.96C707.485 1272.1 707.619 1272.3 707.701 1272.53L708.467 1274.68C708.801 1275.62 709.654 1276.26 710.501 1276.22L732.54 1275.14C733.373 1275.1 733.974 1274.41 733.985 1273.48L734.011 1271.22C734.015 1271.01 734.083 1270.8 734.203 1270.64C734.324 1270.48 734.489 1270.38 734.672 1270.34L738.029 1269.6C738.836 1269.42 739.329 1268.61 739.207 1267.66C738.889 1265.15 738.314 1260.59 738.284 1259.96C738.2 1258.48 738.321 1257.01 738.434 1255.57C738.596 1253.57 738.764 1251.5 738.38 1249.37C735.931 1235.8 724.429 1225.22 712.739 1225.79C701.048 1226.35 693.529 1237.86 695.978 1251.44C696.379 1253.67 697.337 1255.76 698.265 1257.79ZM720.871 1255.44C720.311 1251.58 723.184 1250.46 726.61 1250.45C730.036 1250.44 732.719 1251.54 733.279 1255.4C733.84 1259.26 731.521 1262.4 728.091 1262.41C724.66 1262.43 721.432 1259.3 720.871 1255.44L720.871 1255.44ZM720.237 1263.1L723.111 1266.7C723.234 1266.85 723.323 1267.03 723.371 1267.22C723.419 1267.41 723.424 1267.61 723.385 1267.81L723.201 1268.57C723.152 1268.76 723.052 1268.93 722.913 1269.05C722.774 1269.17 722.605 1269.23 722.43 1269.23L718.651 1269.42C718.457 1269.42 718.264 1269.37 718.09 1269.27C717.916 1269.17 717.766 1269.02 717.654 1268.84L717.203 1268.11C717.098 1267.95 717.031 1267.77 717.008 1267.57C716.986 1267.37 717.008 1267.18 717.074 1267L718.612 1263.18C718.881 1262.51 719.729 1262.47 720.237 1263.1L720.237 1263.1ZM707.923 1251.35C711.294 1251.04 714.516 1251.86 715.346 1255.71C716.175 1259.56 714.115 1262.94 710.746 1263.25C707.376 1263.57 703.969 1260.71 703.139 1256.86C702.31 1253.01 704.551 1251.67 707.923 1251.34L707.923 1251.35Z" fill="white"/>
<path d="M739.748 1220.9C739.68 1219.05 738.833 1217.12 737.321 1215.76C734.899 1213.58 731.594 1213.7 729.942 1216.03C728.208 1218.46 728.876 1222.33 731.396 1224.61L729.866 1226.88C729.255 1227.79 729.51 1229.2 730.436 1230.04L734.387 1233.6C735.31 1234.44 736.558 1234.38 737.17 1233.47L738.699 1231.19C741.22 1233.46 744.624 1233.27 746.237 1230.72C747.777 1228.29 747.067 1224.56 744.644 1222.37C743.144 1221 741.317 1220.53 739.748 1220.9Z" fill="white"/>
<path d="M689.345 1233.58L691.666 1235.67C692.59 1236.5 693.838 1236.44 694.449 1235.53L697.058 1231.65C697.67 1230.74 697.415 1229.33 696.489 1228.49L694.172 1226.4C695.837 1223.93 695.109 1220.06 692.535 1217.83C690.075 1215.71 686.791 1215.91 685.185 1218.28C684.185 1219.76 684.042 1221.74 684.639 1223.57C682.962 1223.35 681.34 1223.99 680.347 1225.48C678.752 1227.86 679.389 1231.6 681.774 1233.84C684.263 1236.18 687.68 1236.05 689.345 1233.58Z" fill="white"/>
<path d="M753.755 1272.43C751.261 1270.09 747.844 1270.22 746.179 1272.7L743.863 1270.61C742.94 1269.77 741.691 1269.83 741.081 1270.74L738.472 1274.62C737.861 1275.53 738.115 1276.95 739.041 1277.78L741.357 1279.86C739.692 1282.34 740.421 1286.21 742.994 1288.43C745.454 1290.56 748.738 1290.36 750.345 1287.99C751.345 1286.51 751.487 1284.53 750.891 1282.7C752.568 1282.92 754.19 1282.28 755.183 1280.79C756.777 1278.41 756.14 1274.67 753.755 1272.43Z" fill="white"/>
<path d="M695.773 1285.37C695.842 1287.22 696.689 1289.15 698.2 1290.51C700.622 1292.69 703.926 1292.57 705.579 1290.24C707.312 1287.81 706.645 1283.94 704.124 1281.66L705.654 1279.39C706.265 1278.48 706.01 1277.07 705.085 1276.23L701.133 1272.67C700.21 1271.83 698.961 1271.89 698.35 1272.8L696.821 1275.08C694.301 1272.81 690.896 1273 689.282 1275.55C687.74 1277.98 688.45 1281.71 690.869 1283.9C692.38 1285.27 694.204 1285.74 695.773 1285.37Z" fill="white"/>
</g>
<defs>
<clipPath id="clip0_496_948">
<rect width="1500" height="1500" fill="white"/>
</clipPath>
</defs>
      <g clip-path="url(#clip0_497_1194)">
<path d="M379.667 654.812C432.345 471.574 618.472 401.981 699.114 390.653C740.985 382.718 849.655 375.215 949.364 408.675C980 418.956 1049.88 457.388 1091.92 499.818C1144.47 552.856 1272.97 732.052 1185.05 927.725C1097.12 1123.4 758.414 1092.29 612.749 1051.82C464.472 1010.63 314.48 881.563 379.667 654.812Z" fill="#AABBFF"/>
<path d="M449.293 747.204C454.734 531.068 585.306 432.345 649.911 410C432.292 459.565 365.296 655.455 364 747.204C377.99 984.871 584.496 1053.43 681 1058C601.498 1044.46 443.853 963.339 449.293 747.204Z" fill="#001647" fill-opacity="0.2"/>
<path d="M379.667 654.812C432.345 471.574 618.472 401.981 699.114 390.653C740.985 382.718 849.655 375.215 949.364 408.675C980 418.956 1049.88 457.388 1091.92 499.818C1144.47 552.856 1272.97 732.052 1185.05 927.725C1097.12 1123.4 758.414 1092.29 612.749 1051.82C464.472 1010.63 314.48 881.563 379.667 654.812Z" stroke="black" stroke-width="22" stroke-linecap="round"/>
</g>
<defs>
    <clipPath id="prefix__clip0_299_662"><path fill="#fff" d="M0 0h1500v1500H0z"/></clipPath>
</defs>
      <g clip-path="url(#clip0_624_3534)">
<path d="M780.422 771.992C785.186 778.098 791.28 783.038 798.24 786.435C805.2 789.833 812.843 791.599 820.589 791.599C828.334 791.599 835.977 789.833 842.937 786.435C849.897 783.038 855.991 778.098 860.755 771.992" stroke="black" stroke-width="22" stroke-miterlimit="10" stroke-linecap="round"/>
<path d="M972.16 771.992C976.925 778.098 983.018 783.038 989.979 786.435C996.939 789.833 1004.58 791.599 1012.33 791.599C1020.07 791.599 1027.71 789.833 1034.68 786.435C1041.64 783.038 1047.73 778.098 1052.49 771.992" stroke="black" stroke-width="22" stroke-miterlimit="10" stroke-linecap="round"/>
<path d="M922.5 961C929.521 961 936.385 958.918 942.223 955.017C948.061 951.116 952.611 945.572 955.298 939.085C957.985 932.598 958.688 925.461 957.318 918.574C955.948 911.688 952.567 905.362 947.602 900.398C942.638 895.433 936.312 892.052 929.426 890.682C922.539 889.312 915.402 890.015 908.915 892.702C902.428 895.389 896.884 899.939 892.983 905.777C889.082 911.615 887 918.479 887 925.5C887 934.915 890.74 943.945 897.398 950.602C904.055 957.26 913.085 961 922.5 961Z" fill="black" stroke="black" stroke-width="22" stroke-miterlimit="10" stroke-linecap="round"/>
</g>
<defs>
<clipPath id="clip0_624_3534">
<rect width="1500" height="1500" fill="white"/>
</clipPath>
</defs>
      <g clip-path="url(#clip0_838_2287)">
<path opacity="0.4" d="M821.549 858C843.021 857.988 863.72 849.99 879.622 835.563C895.524 821.135 905.492 801.309 907.587 779.94C909.682 758.571 903.755 737.187 890.958 719.946C878.16 702.704 859.408 690.839 838.348 686.657C817.288 682.475 795.425 686.275 777.011 697.318C758.597 708.361 744.949 725.859 738.72 746.407C732.491 766.955 734.127 789.085 743.31 808.494C752.493 827.903 768.566 843.202 788.403 851.418C798.912 855.771 810.175 858.008 821.549 858Z" fill="white"/>
<ellipse cx="932" cy="915.5" rx="131" ry="69.5" fill="#AABBFF"/>
<path opacity="0.5" d="M755.001 714.699C755.001 714.699 754.214 696.527 795.319 691L872 841.914C872 841.914 857.773 858.504 827.655 857.988L755.001 714.699Z" fill="white"/>
<path opacity="0.5" d="M808 687.959C808 687.959 809.662 687.651 823.768 678L892 817.977C892 817.977 890.955 827.356 879.411 830L808 687.959Z" fill="white"/>
<path d="M847.684 952.99C796.393 960.533 771.057 930.01 764.065 911.56C763.735 910.688 764.715 909.945 765.529 910.399C794.794 926.75 833.656 903.637 851.184 871.99C854.749 865.552 859.18 860.308 864.102 856.095C892.633 831.676 933.121 867.002 920.263 902.286C911.028 927.625 887.792 947.092 847.684 952.99Z" fill="white"/>
<path d="M999.033 952.99C1050.32 960.533 1075.66 930.01 1082.65 911.56C1082.98 910.688 1082 909.945 1081.19 910.399C1051.92 926.75 1013.06 903.637 995.533 871.99C991.967 865.552 987.536 860.308 982.614 856.095C954.083 831.676 913.595 867.002 926.454 902.286C935.688 927.625 958.924 947.092 999.033 952.99Z" fill="white"/>
<path d="M883 852.5C880.2 911.7 822.5 934.5 794 938.5L769.5 916.5L826.5 903.5L851 878.5L858 857.5L883 852.5Z" fill="#001647" fill-opacity="0.2"/>
<path d="M970 938.5C944.8 914.9 950.833 871.333 957 852.5L940 854.5L924.5 867V897L945 925.5L970 938.5Z" fill="#001647" fill-opacity="0.2"/>
<path d="M696.5 746H737.5L735.5 778H696.5V746Z" fill="#FFBF44"/>
<path fill-rule="evenodd" clip-rule="evenodd" d="M923.128 858.444C920.378 854.373 917.104 850.735 913.467 847.667C898.471 835.019 875.672 830.954 856.916 847.007C851.117 851.97 845.915 858.138 841.752 865.655C833.922 879.792 821.289 891.997 807.644 898.738C794.019 905.47 780.618 906.266 769.722 900.179C765.529 897.836 760.758 898.595 757.539 901.103C754.19 903.712 752.131 908.602 754.03 913.613C762.359 935.589 791.66 969.745 848.455 961.393C885.007 956.018 909.903 939.731 923.128 916.788C936.352 939.732 961.248 956.018 997.801 961.393C1054.6 969.746 1083.9 935.59 1092.23 913.613C1094.12 908.602 1092.07 903.712 1088.72 901.103C1085.5 898.596 1080.73 897.836 1076.53 900.179C1065.64 906.267 1052.24 905.47 1038.61 898.738C1024.97 891.997 1012.33 879.792 1004.5 865.655C1000.34 858.139 995.139 851.971 989.339 847.007C970.583 830.954 947.785 835.019 932.789 847.667C929.152 850.735 925.878 854.373 923.128 858.444ZM900.572 862.955C891.406 855.225 879.695 853.836 869.921 862.202C865.875 865.664 862.216 869.985 859.248 875.345C849.55 892.854 833.989 908.03 816.504 916.669C806.518 921.603 795.503 924.563 784.473 924.29C795.948 935.954 815.484 946.027 845.545 941.606C882.845 936.121 902.468 918.54 910.183 897.371C914.966 884.247 909.941 870.857 900.572 862.955ZM945.683 862.956C936.315 870.857 931.289 884.248 936.072 897.371C943.787 918.541 963.411 936.121 1000.71 941.606C1030.77 946.027 1050.31 935.954 1061.78 924.29C1050.75 924.563 1039.74 921.603 1029.75 916.669C1012.27 908.03 996.705 892.854 987.008 875.345C984.039 869.985 980.38 865.664 976.335 862.202C966.56 853.836 954.849 855.225 945.683 862.956Z" fill="black"/>
<path d="M738 743H710.5C700.835 743 693 750.835 693 760.5V760.5C693 770.165 700.835 778 710.5 778H738M689.5 759L671.456 767.728C636.886 784.449 631.245 831.348 660.863 855.79V855.79C682.911 873.985 686.426 906.444 668.784 928.937L660.5 939.5" stroke="black" stroke-width="20" stroke-linecap="round"/>
<circle cx="822.5" cy="768.5" r="85.5" stroke="black" stroke-width="20"/>
</g>
<defs>
<clipPath id="clip0_838_2287">
<rect width="1500" height="1500" fill="white"/>
</clipPath>
</defs>
      <g clip-path="url(#clip0_602_1990)">
<path d="M761.123 173.627L739.489 206.494L735.451 222.928L647.215 249.971L507.554 286.46L384.658 301.209L371.65 292.571L391.484 278.467L472.202 249.871L553.09 233.794L645.986 208.53L731.324 207.141L754.746 170.909L746.848 169.744L647.214 170.909L548.5 187L398.758 240.649L348 258.74L305.936 292.764L308.078 319.809L340.923 335.111L480.952 324.018L660.099 282.969L735.412 258.74L798.603 221.506L807.665 190.709L761.123 173.627Z" fill="#FFBF44"/>
<path d="M749.635 173.821L730.731 199.668L740.77 207.109L773.723 182.297L749.635 173.821Z" fill="#FFBF44"/>
<path d="M571.583 310.62C711.541 277.881 818.64 224.154 810.795 190.618C802.951 157.082 683.133 156.435 543.175 189.174C403.216 221.912 296.117 275.639 303.962 309.175C311.807 342.712 431.625 343.358 571.583 310.62Z" stroke="black" stroke-width="22"/>
<path d="M560.509 273.108C667.77 247.986 752.212 216.903 749.116 203.683C746.019 190.463 656.557 200.111 549.296 225.234C442.034 250.357 357.592 281.439 360.689 294.66C363.785 307.88 453.247 298.231 560.509 273.108Z" stroke="black" stroke-width="22"/>
<path d="M711.94 381.541L669.138 415.004L754.914 456.956C786.09 456.451 856.04 454.579 886.429 451.127C916.817 447.675 946.703 430.594 957.848 422.485L912.882 387.272L890.772 360.146L852.07 352.844L816.711 388.83L811.119 369.892L779.2 357.196L748.101 362.456L711.94 381.541Z" fill="#AABBFF"/>
<path d="M754.823 451.145C758.386 440.393 766.661 423.631 780.081 411.559M882.17 449.083C878.062 439.675 870.922 425.659 859.411 414.501M670.743 416.037C678.291 403.405 696.028 378.1 722.448 377.672C724.832 377.634 727.122 377.712 729.323 377.895M780.081 411.559C789.433 403.145 801.285 397.009 815.783 396.774C818.147 396.736 820.438 396.825 822.658 397.03M780.081 411.559C771.884 400.903 758.35 380.305 729.323 377.895M953.095 422.563C946.826 410.677 929.573 387.795 908.089 385.052M859.411 414.501C864.186 404.755 879.655 385.169 903.328 384.785C904.936 384.759 906.524 384.852 908.089 385.052M859.411 414.501C850.192 405.565 838.17 398.463 822.658 397.03M729.323 377.895C734.108 368.72 747.587 350.309 768.512 349.97C795.461 349.534 817.557 375.809 822.658 397.03M908.089 385.052C903.334 374.267 889.367 351.713 871.612 352C849.419 352.36 832.274 370.674 822.592 392.964" stroke="black" stroke-width="22" stroke-linecap="round"/>
</g>
<defs>
<clipPath id="clip0_602_1990">
<rect width="1500" height="1500" fill="white"/>
</clipPath>
</defs>
      
    </g>
    </svg>