<svg
      xmlns="http://www.w3.org/2000/svg"
      preserveAspectRatio="xMidYMin meet"
      fill="none"
      viewBox="0 0 1500 1500"
    >
      <g>
      <path fill="url(#prefix__paint0_linear_53_28788)" d="M0 0h1500v1500H0z"/><defs><linearGradient id="prefix__paint0_linear_53_28788" x1="0" y1="0" x2="1500" y2="1500" gradientUnits="userSpaceOnUse">
<stop stop-color="#DBE4E4"/>
<stop offset="1" stop-color="#A7BDBD"/>
</linearGradient></defs>
      <g clip-path="url(#clip0_614_2455)">
<path d="M388.5 1416.5L352.5 1511L1142 1512L1129 1431.5L1070.5 1276L1007 1176L1042 1113L1028 1043.5C1005.33 1055.83 926.6 1079 793 1073C659.4 1067 549.333 1018.83 511 995.5C492.833 1014.83 453.2 1067.2 440 1122C426.8 1176.8 459.5 1220.83 477.5 1236L388.5 1416.5Z" fill="#3A3A3A"/>
<path d="M353.698 1511C350.413 1508.73 360.049 1471.27 412.869 1339.62C429.682 1297.72 453.924 1259.56 477.605 1226C485.368 1215 376 1149.5 506.5 995L661 1046.5L683.5 1051C662.368 1062.33 708.557 1043.79 690 1058.04C521.079 1187.75 456.033 1424.17 443.158 1511H353.698Z" fill="black" fill-opacity="0.2"/>
<path d="M358.5 1507.5C371.341 1452.7 410.793 1338.13 480.097 1232M553.5 1137.5C526.081 1166.82 501.646 1199 480.097 1232M480.097 1232C440.958 1203.88 392.15 1116.57 509.46 992.073C509.77 991.743 510.252 991.637 510.651 991.852C600.161 1040.15 826.624 1117.43 1022.78 1043.27C1023.2 1043.11 1023.69 1043.26 1023.95 1043.63C1058.52 1092.29 1025.8 1150.61 1005.51 1174.4C1005.21 1174.76 1005.18 1175.25 1005.46 1175.62C1045.94 1229.92 1124.17 1371.22 1141.5 1507.5M721 1157C757.667 1176.33 851.2 1204.5 932 1162.5M1013.5 1319C1024.83 1354.33 1048.1 1443.9 1050.5 1519.5M667 1361.5C661.166 1392.33 650.3 1467.1 653.5 1519.5" stroke="black" stroke-width="22" stroke-linecap="round"/>
<path d="M963.65 1489.14L967.581 1515.56C968.344 1520.18 968.062 1524.9 966.756 1529.4C963.152 1541.66 954.267 1542.19 954.267 1542.19C949.534 1543.25 944.627 1543.27 939.886 1542.25C934.87 1541.19 930.106 1539.17 925.853 1536.31C913.117 1527.15 873.039 1449.06 873.039 1449.06L831.161 1535.6L793.844 1535.33L852.552 1414.55L821.006 1364.5C818.897 1361.15 816.025 1358.34 812.624 1356.31C809.339 1354.31 805.603 1353.18 801.763 1353.02H801.158C797.885 1352.63 794.567 1353.1 791.528 1354.37C788.649 1355.6 786.182 1357.62 784.421 1360.21C781.152 1364.01 781.624 1376.43 781.624 1376.43L774.028 1376.93C771.867 1369.53 770.544 1361.91 770.084 1354.22C769.662 1348.62 770.838 1343.03 773.476 1338.08C775.187 1334.64 777.877 1331.78 781.21 1329.86C784.689 1327.89 788.641 1326.9 792.64 1327.01C799.606 1327.06 806.721 1329.25 813.012 1333.3C819.356 1337.38 824.619 1342.94 828.355 1349.49L859.412 1405.8L897.615 1331.3L931.583 1331.55L879.091 1436.48L902.066 1476.71C902.066 1476.71 920.78 1515.52 939.374 1515.66C957.968 1515.79 955.696 1489.05 955.696 1489.05L963.65 1489.14Z" fill="white"/>
</g>
<defs>
<clipPath id="clip0_614_2455">
<rect width="1500" height="1500" fill="white"/>
</clipPath>
</defs>
      <g clip-path="url(#clip0_497_1194)">
<path d="M379.667 654.812C432.345 471.574 618.472 401.981 699.114 390.653C740.985 382.718 849.655 375.215 949.364 408.675C980 418.956 1049.88 457.388 1091.92 499.818C1144.47 552.856 1272.97 732.052 1185.05 927.725C1097.12 1123.4 758.414 1092.29 612.749 1051.82C464.472 1010.63 314.48 881.563 379.667 654.812Z" fill="#AABBFF"/>
<path d="M449.293 747.204C454.734 531.068 585.306 432.345 649.911 410C432.292 459.565 365.296 655.455 364 747.204C377.99 984.871 584.496 1053.43 681 1058C601.498 1044.46 443.853 963.339 449.293 747.204Z" fill="#001647" fill-opacity="0.2"/>
<path d="M379.667 654.812C432.345 471.574 618.472 401.981 699.114 390.653C740.985 382.718 849.655 375.215 949.364 408.675C980 418.956 1049.88 457.388 1091.92 499.818C1144.47 552.856 1272.97 732.052 1185.05 927.725C1097.12 1123.4 758.414 1092.29 612.749 1051.82C464.472 1010.63 314.48 881.563 379.667 654.812Z" stroke="black" stroke-width="22" stroke-linecap="round"/>
</g>
<defs>
    <clipPath id="prefix__clip0_299_662"><path fill="#fff" d="M0 0h1500v1500H0z"/></clipPath>
</defs>
      <g clip-path="url(#clip0_624_3550)">
<path d="M860.753 778.254C855.989 772.147 849.895 767.208 842.935 763.81C835.975 760.413 828.332 758.647 820.587 758.647C812.842 758.647 805.198 760.413 798.238 763.81C791.278 767.208 785.184 772.147 780.42 778.254" stroke="black" stroke-width="22" stroke-miterlimit="10" stroke-linecap="round"/>
<path d="M870.881 910.959C896.594 937.099 946.448 937.099 972.168 910.959" stroke="black" stroke-width="22" stroke-miterlimit="10" stroke-linecap="round"/>
<path d="M1052.5 778.254C1047.74 772.147 1041.64 767.208 1034.68 763.81C1027.72 760.413 1020.08 758.647 1012.33 758.647C1004.59 758.647 996.946 760.413 989.985 763.81C983.025 767.208 976.931 772.147 972.167 778.254" stroke="black" stroke-width="22" stroke-miterlimit="10" stroke-linecap="round"/>
</g>
<defs>
<clipPath id="clip0_624_3550">
<rect width="1500" height="1500" fill="white"/>
</clipPath>
</defs>
      <g clip-path="url(#clip0_838_2287)">
<path opacity="0.4" d="M821.549 858C843.021 857.988 863.72 849.99 879.622 835.563C895.524 821.135 905.492 801.309 907.587 779.94C909.682 758.571 903.755 737.187 890.958 719.946C878.16 702.704 859.408 690.839 838.348 686.657C817.288 682.475 795.425 686.275 777.011 697.318C758.597 708.361 744.949 725.859 738.72 746.407C732.491 766.955 734.127 789.085 743.31 808.494C752.493 827.903 768.566 843.202 788.403 851.418C798.912 855.771 810.175 858.008 821.549 858Z" fill="white"/>
<ellipse cx="932" cy="915.5" rx="131" ry="69.5" fill="#AABBFF"/>
<path opacity="0.5" d="M755.001 714.699C755.001 714.699 754.214 696.527 795.319 691L872 841.914C872 841.914 857.773 858.504 827.655 857.988L755.001 714.699Z" fill="white"/>
<path opacity="0.5" d="M808 687.959C808 687.959 809.662 687.651 823.768 678L892 817.977C892 817.977 890.955 827.356 879.411 830L808 687.959Z" fill="white"/>
<path d="M847.684 952.99C796.393 960.533 771.057 930.01 764.065 911.56C763.735 910.688 764.715 909.945 765.529 910.399C794.794 926.75 833.656 903.637 851.184 871.99C854.749 865.552 859.18 860.308 864.102 856.095C892.633 831.676 933.121 867.002 920.263 902.286C911.028 927.625 887.792 947.092 847.684 952.99Z" fill="white"/>
<path d="M999.033 952.99C1050.32 960.533 1075.66 930.01 1082.65 911.56C1082.98 910.688 1082 909.945 1081.19 910.399C1051.92 926.75 1013.06 903.637 995.533 871.99C991.967 865.552 987.536 860.308 982.614 856.095C954.083 831.676 913.595 867.002 926.454 902.286C935.688 927.625 958.924 947.092 999.033 952.99Z" fill="white"/>
<path d="M883 852.5C880.2 911.7 822.5 934.5 794 938.5L769.5 916.5L826.5 903.5L851 878.5L858 857.5L883 852.5Z" fill="#001647" fill-opacity="0.2"/>
<path d="M970 938.5C944.8 914.9 950.833 871.333 957 852.5L940 854.5L924.5 867V897L945 925.5L970 938.5Z" fill="#001647" fill-opacity="0.2"/>
<path d="M696.5 746H737.5L735.5 778H696.5V746Z" fill="#FFBF44"/>
<path fill-rule="evenodd" clip-rule="evenodd" d="M923.128 858.444C920.378 854.373 917.104 850.735 913.467 847.667C898.471 835.019 875.672 830.954 856.916 847.007C851.117 851.97 845.915 858.138 841.752 865.655C833.922 879.792 821.289 891.997 807.644 898.738C794.019 905.47 780.618 906.266 769.722 900.179C765.529 897.836 760.758 898.595 757.539 901.103C754.19 903.712 752.131 908.602 754.03 913.613C762.359 935.589 791.66 969.745 848.455 961.393C885.007 956.018 909.903 939.731 923.128 916.788C936.352 939.732 961.248 956.018 997.801 961.393C1054.6 969.746 1083.9 935.59 1092.23 913.613C1094.12 908.602 1092.07 903.712 1088.72 901.103C1085.5 898.596 1080.73 897.836 1076.53 900.179C1065.64 906.267 1052.24 905.47 1038.61 898.738C1024.97 891.997 1012.33 879.792 1004.5 865.655C1000.34 858.139 995.139 851.971 989.339 847.007C970.583 830.954 947.785 835.019 932.789 847.667C929.152 850.735 925.878 854.373 923.128 858.444ZM900.572 862.955C891.406 855.225 879.695 853.836 869.921 862.202C865.875 865.664 862.216 869.985 859.248 875.345C849.55 892.854 833.989 908.03 816.504 916.669C806.518 921.603 795.503 924.563 784.473 924.29C795.948 935.954 815.484 946.027 845.545 941.606C882.845 936.121 902.468 918.54 910.183 897.371C914.966 884.247 909.941 870.857 900.572 862.955ZM945.683 862.956C936.315 870.857 931.289 884.248 936.072 897.371C943.787 918.541 963.411 936.121 1000.71 941.606C1030.77 946.027 1050.31 935.954 1061.78 924.29C1050.75 924.563 1039.74 921.603 1029.75 916.669C1012.27 908.03 996.705 892.854 987.008 875.345C984.039 869.985 980.38 865.664 976.335 862.202C966.56 853.836 954.849 855.225 945.683 862.956Z" fill="black"/>
<path d="M738 743H710.5C700.835 743 693 750.835 693 760.5V760.5C693 770.165 700.835 778 710.5 778H738M689.5 759L671.456 767.728C636.886 784.449 631.245 831.348 660.863 855.79V855.79C682.911 873.985 686.426 906.444 668.784 928.937L660.5 939.5" stroke="black" stroke-width="20" stroke-linecap="round"/>
<circle cx="822.5" cy="768.5" r="85.5" stroke="black" stroke-width="20"/>
</g>
<defs>
<clipPath id="clip0_838_2287">
<rect width="1500" height="1500" fill="white"/>
</clipPath>
</defs>
      <g clip-path="url(#clip0_602_1931)">
<path d="M718.5 336C430.5 374.4 355.833 571 354.5 664.5L414.5 657L585 641.5L677.5 700.5L746 715.5L795 706.5L864.5 683L951 641.5L1027 629C1040.67 630 1078.8 633.9 1122 641.5C1176 651 1185 710.5 1224.5 677C1256.1 650.2 1196 608.166 1162 590.5C1163 539 1078.5 288 718.5 336Z" fill="#F56CDB"/>
<path d="M790.5 334.999C576.9 453.399 513.5 594.666 508.5 650.499L355.5 670.5C343.167 665.833 342.4 622.399 438 485.999C533.6 349.599 712.834 328.499 790.5 334.999Z" fill="#001647" fill-opacity="0.2"/>
<path d="M918 513C740.4 509.8 610.667 597.833 577.5 639.5L635 613.5L746 568.5L911.5 542.5L1081.5 557L1179.5 596C1166.33 568 1095.6 516.2 918 513Z" fill="#001647" fill-opacity="0.2"/>
<path d="M1168 594.006C1137.5 399.5 919 330 797.5 330C484.905 330 371.892 543.53 353.776 661.318C352.717 668.2 359.115 673.614 365.869 671.92C411.449 660.485 504.576 640.341 587 645M587 645C621.5 612.167 730.5 548 894.5 542C1079.59 535.228 1192.54 594.489 1230.03 642.496C1236.7 651.039 1235.02 662.819 1228.03 671.106V671.106C1218.11 682.881 1200.55 684.175 1188.11 675.098C1145.41 643.936 1080.11 612.042 1002 628C892.783 650.313 790 754 669.5 701.5L587 645Z" stroke="black" stroke-width="22" stroke-linecap="round"/>
<path d="M819.136 403.189L836.895 401.663L847.224 454.606L829.464 456.132L832.902 473.777L821.061 474.795L817.618 457.15L799.859 458.676L789.53 405.734L807.295 404.207L803.852 386.563L815.693 385.545L819.136 403.189ZM884.078 427.515L901.842 425.989L912.161 478.932L894.407 480.458L897.849 498.102L886.008 499.12L882.565 481.475L864.801 483.002L854.478 430.059L872.237 428.533L868.794 410.884L880.635 409.866L884.078 427.515Z" fill="black"/>
</g>
<defs>
<clipPath id="clip0_602_1931">
<rect width="1500" height="1500" fill="white"/>
</clipPath>
</defs>
      
    </g>
    </svg>