<svg
      xmlns="http://www.w3.org/2000/svg"
      preserveAspectRatio="xMidYMin meet"
      fill="none"
      viewBox="0 0 1500 1500"
    >
      <g>
      <path fill="url(#prefix__paint0_linear_53_28789)" d="M0 0h1500v1500H0z"/><defs><linearGradient id="prefix__paint0_linear_53_28789" x1="1500" y1="1500" x2="0" y2="0" gradientUnits="userSpaceOnUse">
<stop stop-color="#FFD130"/>
<stop offset="1" stop-color="#FFEEDB"/>
</linearGradient></defs>
      <g clip-path="url(#clip0_495_792)">
<path d="M773 1011.5C543.4 1029.9 398.667 1353.5 355 1513H1138.5C1075.7 1127 868.667 1017.83 773 1011.5Z" fill="#A760FF"/>
<path d="M741.5 1213C709.1 1241.4 650.333 1194.17 625 1167V1132.5L645 1105L708 1115.5C732.667 1136.17 773.9 1184.6 741.5 1213Z" fill="#AABBFF"/>
<path d="M768 1276.5C727.6 1271.7 715.833 1297.17 715 1310.5L735 1330.5L788.5 1320C798.5 1307.5 808.4 1281.3 768 1276.5Z" fill="#AABBFF"/>
<path d="M951.5 1230C920.3 1206.4 962.833 1169.17 988 1153.5L1033.5 1224.5C1019.17 1236.17 982.7 1253.6 951.5 1230Z" fill="#AABBFF"/>
<path d="M896 1383C837.2 1378.2 830.833 1440 835 1471.5L853 1506L935 1514L948.5 1492C955.5 1457.67 954.8 1387.8 896 1383Z" fill="#AABBFF"/>
<path d="M499.5 1441.5C527.1 1434.3 552 1481.5 561 1506H484.5C478 1487.5 471.9 1448.7 499.5 1441.5Z" fill="#AABBFF"/>
<path d="M749.5 1019.5C536 1134 457.448 1414.63 443.159 1511H353.699C350.414 1508.73 357.049 1471.27 409.87 1339.62C462.691 1207.98 569.086 1113.24 605.384 1082.33L674 1033.5L749.5 1019.5Z" fill="#001647" fill-opacity="0.2"/>
<path d="M922 1520C946 1484.4 906 1407 874 1393.5L911.5 1389.5L946 1428L951.5 1480.5C945.167 1492.67 930.4 1517.6 922 1520Z" fill="#001647" fill-opacity="0.2"/>
<path d="M756.253 1287.62L756 1287.5L794.5 1289.5L797.5 1314L760.5 1321.5C792.277 1304.12 768.339 1293.15 756.253 1287.62Z" fill="#001647" fill-opacity="0.2"/>
<path d="M702 1125.5C738 1171 718.5 1206.5 694.5 1214H740.5L749.5 1175.5L702 1125.5Z" fill="#001647" fill-opacity="0.2"/>
<path d="M1007 1190C1020.6 1214.8 989 1229 967 1233L982.5 1251L1030 1235C1032.67 1230.67 1037.6 1221.5 1036 1219.5C1034.4 1217.5 1013.67 1197.67 1007 1190Z" fill="#001647" fill-opacity="0.2"/>
<path d="M539 1507C526.6 1474.2 511.5 1453.5 496 1451.5L511.5 1440L546 1468L558.5 1503.5L539 1507Z" fill="#001647" fill-opacity="0.2"/>
<path d="M353.5 1519.5C365.5 1454.33 414.5 1313.6 483.5 1219C530.101 1155.11 577.468 1101.29 629.141 1059.66C710.278 994.299 826.037 996.323 905.02 1064.27C1000.08 1146.05 1103.44 1290.29 1142.5 1519.5M1013.5 1319C1024.83 1354.33 1048.1 1443.9 1050.5 1519.5M667 1361.5C661.167 1392.33 650.3 1467.1 653.5 1519.5M483.499 1507C478.166 1485.5 474.899 1441.7 504.499 1438.5C534.099 1435.3 555.166 1482.83 562 1507M981.5 1149L981.007 1149.41C962.792 1164.59 924.217 1196.72 948 1232C965.191 1257.5 1016 1242.17 1035 1225M856.5 1507C835.833 1479.83 821 1406.97 869 1386C922.5 1362.62 987.5 1471 929.5 1519M621.925 1133.67C614.574 1149.68 616.744 1169.44 643 1190.5C721.865 1253.76 753 1210 750 1179.5C747.464 1153.72 723.458 1126.72 693.232 1112.72C667.618 1100.86 633.703 1108.01 621.925 1133.67ZM724.656 1288.1C719.198 1292.29 715.187 1297.25 713.999 1303C707.5 1334.5 761.668 1337.41 785.999 1321C789.948 1318.34 792.733 1315.31 794.516 1312.09C810.942 1282.34 751.613 1267.4 724.656 1288.1Z" stroke="black" stroke-width="22" stroke-linecap="round"/>
</g>
<defs>
<clipPath id="clip0_495_792">
<rect width="1500" height="1500" fill="white"/>
</clipPath>
</defs>
      <g clip-path="url(#clip0_497_1194)">
<path d="M379.667 654.812C432.345 471.574 618.472 401.981 699.114 390.653C740.985 382.718 849.655 375.215 949.364 408.675C980 418.956 1049.88 457.388 1091.92 499.818C1144.47 552.856 1272.97 732.052 1185.05 927.725C1097.12 1123.4 758.414 1092.29 612.749 1051.82C464.472 1010.63 314.48 881.563 379.667 654.812Z" fill="#AABBFF"/>
<path d="M449.293 747.204C454.734 531.068 585.306 432.345 649.911 410C432.292 459.565 365.296 655.455 364 747.204C377.99 984.871 584.496 1053.43 681 1058C601.498 1044.46 443.853 963.339 449.293 747.204Z" fill="#001647" fill-opacity="0.2"/>
<path d="M379.667 654.812C432.345 471.574 618.472 401.981 699.114 390.653C740.985 382.718 849.655 375.215 949.364 408.675C980 418.956 1049.88 457.388 1091.92 499.818C1144.47 552.856 1272.97 732.052 1185.05 927.725C1097.12 1123.4 758.414 1092.29 612.749 1051.82C464.472 1010.63 314.48 881.563 379.667 654.812Z" stroke="black" stroke-width="22" stroke-linecap="round"/>
</g>
<defs>
    <clipPath id="prefix__clip0_299_662"><path fill="#fff" d="M0 0h1500v1500H0z"/></clipPath>
</defs>
      <g clip-path="url(#clip0_624_3562)">
<path d="M799.421 789.214L858.141 778.547C859.189 778.352 860.151 777.837 860.895 777.073C861.639 776.309 862.128 775.334 862.294 774.28C862.455 773.224 862.285 772.143 861.808 771.187C861.331 770.234 860.569 769.453 859.628 768.954L804.701 739.807" stroke="black" stroke-width="22" stroke-miterlimit="10" stroke-linecap="round"/>
<path d="M1037.67 789.214L979.001 778.547C977.951 778.355 976.987 777.841 976.243 777.076C975.499 776.312 975.011 775.335 974.847 774.28C974.687 773.227 974.854 772.149 975.327 771.194C975.804 770.237 976.569 769.453 977.514 768.954L1032.44 739.807" stroke="black" stroke-width="22" stroke-miterlimit="10" stroke-linecap="round"/>
<path d="M992 915.801C992 944.083 960.211 967 921 967C881.789 967 850 944.083 850 915.801C850.013 910.144 851.278 904.561 853.703 899.453C858.875 888.383 870.646 884.1 880.667 889.061C892.124 894.775 906.017 898.12 921.008 898.12C935.999 898.12 949.884 894.775 961.349 889.061C971.354 884.068 983.133 888.383 988.313 899.453C990.733 904.562 991.993 910.145 992 915.801Z" fill="white" stroke="black" stroke-width="22" stroke-miterlimit="10"/>
</g>
<defs>
<clipPath id="clip0_624_3562">
<rect width="1500" height="1500" fill="white"/>
</clipPath>
</defs>
      <g clip-path="url(#clip0_911_278)">
<path d="M741 865.42V871.56C741.01 872.669 740.781 873.767 740.33 874.78C739.07 877.64 736.99 877.78 736.99 877.78C735.893 878.033 734.754 878.046 733.651 877.818C732.548 877.59 731.507 877.127 730.6 876.46C727.96 874.35 721.36 856.25 721.36 856.25L708.65 876.46H700L717.8 848.25L712.21 836.66C711.84 835.888 711.265 835.233 710.547 834.767C709.828 834.301 708.996 834.043 708.14 834.02H708C707.225 833.94 706.442 834.054 705.721 834.351C705.001 834.647 704.365 835.118 703.87 835.72C702.98 836.61 702.66 839.5 702.66 839.5L700.88 839.63C700.634 837.881 700.59 836.109 700.75 834.35C700.862 833.001 701.324 831.705 702.09 830.59C702.61 829.783 703.325 829.12 704.169 828.664C705.014 828.208 705.96 827.972 706.92 827.98C708.535 827.979 710.11 828.479 711.43 829.41C712.762 830.35 713.801 831.646 714.43 833.15L719.69 846.2L731.13 828.8H739L723.2 853.31L727.14 862.63C727.14 862.63 730.14 871.63 734.45 871.63C738.76 871.63 739.16 865.41 739.16 865.41L741 865.42Z" fill="black"/>
</g>
<defs>
<clipPath id="clip0_911_278">
<rect width="1500" height="1500" fill="white"/>
</clipPath>
</defs>
      <g clip-path="url(#clip0_771_645)">
<path d="M863.993 527.644C890.69 533.234 953.2 543.468 977.668 523.094L1014.69 433.323L1073.2 323.725L1125.02 252.017C1125.02 252.017 1152.13 228.431 1038.06 213.369C923.981 198.307 867.998 187.656 867.998 187.656C867.998 187.656 682.771 166.635 549.728 276.66C416.686 386.684 363.177 542.213 363.177 542.213C363.177 542.213 337.135 691.713 357.999 753.5C357.999 753.5 341.001 591 490.792 472.221L501.17 475.384L603.985 437.979L697.981 441.573L810.812 485.642L842.989 516.524C848.813 522.121 856.09 525.973 863.993 527.644Z" fill="#FF6247"/>
<path d="M742.504 200.999C676.904 266.599 661.503 387.666 662.003 439.999L625.003 434.5L571.003 446L499.003 479C383.499 562.5 364.503 699.667 357.503 751.5L343.503 659.5L360.003 560.5L396.003 466.5C421.169 416.5 492.403 304.699 576.003 257.499C659.603 210.299 721.837 200.166 742.504 200.999Z" fill="#001647" fill-opacity="0.2"/>
<path d="M370.001 824.5C370.001 824.5 269.087 563.97 500.28 320.562C709.101 100.723 1055 215.728 1119.97 240.074C1121.19 240.539 1122.28 241.281 1123.16 242.241C1124.03 243.209 1124.65 244.367 1124.99 245.623C1125.32 246.881 1125.35 248.2 1125.07 249.47C1124.79 250.741 1124.21 251.926 1123.38 252.928C1034.34 361.043 992.774 481.265 982.543 514.053C981.611 517.023 980.059 519.76 977.991 522.086C975.922 524.406 973.381 526.257 970.538 527.514C952.612 535.457 910.698 548.623 858.575 529.192C851.513 525.552 848.335 523.515 843.096 518.725C818.258 491.807 652.217 366.136 494.165 482.174" stroke="black" stroke-width="20" stroke-miterlimit="10" stroke-linecap="round"/>
<path d="M847.383 522.595C847.383 522.595 830.394 316.415 907.33 193.397" stroke="black" stroke-width="20" stroke-miterlimit="10" stroke-linecap="round"/>
<path d="M940.167 529.066C940.167 529.066 943.119 444.066 997.197 349.634" stroke="black" stroke-width="20" stroke-miterlimit="10" stroke-linecap="round"/>
<path d="M754.269 459.828C754.269 459.828 740.725 382.776 759.48 315.96" stroke="black" stroke-width="20" stroke-miterlimit="10" stroke-linecap="round"/>
<path d="M595.363 246.497C595.363 246.497 573.599 298.854 593.754 375.109" stroke="black" stroke-width="20" stroke-miterlimit="10" stroke-linecap="round"/>
<path d="M920.072 268.739C920.072 268.739 927.639 235.29 953.389 205.827" stroke="black" stroke-width="20" stroke-miterlimit="10" stroke-linecap="round"/>
<path d="M472.246 499.854C472.246 499.854 460.444 481.715 458.858 444.683" stroke="black" stroke-width="20" stroke-miterlimit="10" stroke-linecap="round"/>
</g>
<defs>
<clipPath id="clip0_771_645">
<rect width="1500" height="1500" fill="white"/>
</clipPath>
</defs>
      
    </g>
    </svg>