<svg
      xmlns="http://www.w3.org/2000/svg"
      preserveAspectRatio="xMidYMin meet"
      fill="none"
      viewBox="0 0 1500 1500"
    >
      <g>
      <path fill="url(#prefix__paint0_linear_53_30459)" d="M0 0h1500v1500H0z"/><defs><linearGradient id="prefix__paint0_linear_53_30459" x1="0" y1="0" x2="1500" y2="1500" gradientUnits="userSpaceOnUse">
<stop stop-color="#FFCB9F"/>
<stop offset="1" stop-color="#FF7F11"/>
</linearGradient></defs>
      <g clip-path="url(#clip0_483_510)">
<path d="M773 1011.5C543.4 1029.9 398.667 1353.5 355 1513H1138.5C1075.7 1127 868.667 1017.83 773 1011.5Z" fill="#FF6247"/>
<path d="M409 1362.5L354 1512.5H651.5V1444.5L409 1362.5Z" fill="#AABBFF"/>
<path d="M1039.5 1426.5L1046 1512.5L1142.5 1504L1111 1393L1039.5 1426.5Z" fill="#AABBFF"/>
<path d="M749.5 1019.5C536 1134 457.448 1414.63 443.159 1511H353.699C350.414 1508.73 357.049 1471.27 409.87 1339.62C462.691 1207.98 569.086 1113.24 605.384 1082.33L674 1033.5L749.5 1019.5Z" fill="#001647" fill-opacity="0.2"/>
<path d="M353.5 1519.5C365.5 1454.33 414.5 1313.6 483.5 1219C530.101 1155.11 577.468 1101.29 629.141 1059.66C710.278 994.299 826.037 996.323 905.02 1064.27C1000.08 1146.05 1103.44 1290.29 1142.5 1519.5M1013.5 1319C1024.83 1354.33 1048.1 1443.9 1050.5 1519.5M667 1361.5C661.167 1392.33 650.3 1467.1 653.5 1519.5M408.5 1360.5L651 1446.5M1040.5 1424C1056.33 1421.5 1091.7 1411.6 1106.5 1392" stroke="black" stroke-width="22" stroke-linecap="round"/>
<path d="M867.933 1422.58C867.187 1422.49 866.882 1421.58 867.424 1421.06L889.898 1399.62C890.227 1399.31 890.265 1398.8 889.987 1398.44L845.82 1341.38C845.494 1340.96 844.873 1340.92 844.49 1341.29L797.948 1386.27C797.567 1386.64 796.949 1386.59 796.622 1386.18L731.189 1302.92C730.909 1302.56 730.943 1302.05 731.269 1301.73L755.472 1278.25C755.855 1277.88 756.479 1277.93 756.804 1278.35L800.169 1334.58C800.492 1335 801.109 1335.04 801.493 1334.68L848.021 1290.61C848.403 1290.25 849.014 1290.29 849.339 1290.7L915.467 1374.43C915.782 1374.83 916.367 1374.88 916.753 1374.55L941.524 1353.28C942.126 1352.76 943.056 1353.23 942.997 1354.02L937.287 1430.18C937.249 1430.68 936.793 1431.06 936.287 1430.99L867.933 1422.58Z" fill="white"/>
</g>
<defs>
<clipPath id="clip0_483_510">
<rect width="1500" height="1500" fill="white"/>
</clipPath>
</defs>
      <g clip-path="url(#clip0_497_1194)">
<path d="M379.667 654.812C432.345 471.574 618.472 401.981 699.114 390.653C740.985 382.718 849.655 375.215 949.364 408.675C980 418.956 1049.88 457.388 1091.92 499.818C1144.47 552.856 1272.97 732.052 1185.05 927.725C1097.12 1123.4 758.414 1092.29 612.749 1051.82C464.472 1010.63 314.48 881.563 379.667 654.812Z" fill="#AABBFF"/>
<path d="M449.293 747.204C454.734 531.068 585.306 432.345 649.911 410C432.292 459.565 365.296 655.455 364 747.204C377.99 984.871 584.496 1053.43 681 1058C601.498 1044.46 443.853 963.339 449.293 747.204Z" fill="#001647" fill-opacity="0.2"/>
<path d="M379.667 654.812C432.345 471.574 618.472 401.981 699.114 390.653C740.985 382.718 849.655 375.215 949.364 408.675C980 418.956 1049.88 457.388 1091.92 499.818C1144.47 552.856 1272.97 732.052 1185.05 927.725C1097.12 1123.4 758.414 1092.29 612.749 1051.82C464.472 1010.63 314.48 881.563 379.667 654.812Z" stroke="black" stroke-width="22" stroke-linecap="round"/>
</g>
<defs>
    <clipPath id="prefix__clip0_299_662"><path fill="#fff" d="M0 0h1500v1500H0z"/></clipPath>
</defs>
      <g clip-path="url(#clip0_624_3534)">
<path d="M780.422 771.992C785.186 778.098 791.28 783.038 798.24 786.435C805.2 789.833 812.843 791.599 820.589 791.599C828.334 791.599 835.977 789.833 842.937 786.435C849.897 783.038 855.991 778.098 860.755 771.992" stroke="black" stroke-width="22" stroke-miterlimit="10" stroke-linecap="round"/>
<path d="M972.16 771.992C976.925 778.098 983.018 783.038 989.979 786.435C996.939 789.833 1004.58 791.599 1012.33 791.599C1020.07 791.599 1027.71 789.833 1034.68 786.435C1041.64 783.038 1047.73 778.098 1052.49 771.992" stroke="black" stroke-width="22" stroke-miterlimit="10" stroke-linecap="round"/>
<path d="M922.5 961C929.521 961 936.385 958.918 942.223 955.017C948.061 951.116 952.611 945.572 955.298 939.085C957.985 932.598 958.688 925.461 957.318 918.574C955.948 911.688 952.567 905.362 947.602 900.398C942.638 895.433 936.312 892.052 929.426 890.682C922.539 889.312 915.402 890.015 908.915 892.702C902.428 895.389 896.884 899.939 892.983 905.777C889.082 911.615 887 918.479 887 925.5C887 934.915 890.74 943.945 897.398 950.602C904.055 957.26 913.085 961 922.5 961Z" fill="black" stroke="black" stroke-width="22" stroke-miterlimit="10" stroke-linecap="round"/>
</g>
<defs>
<clipPath id="clip0_624_3534">
<rect width="1500" height="1500" fill="white"/>
</clipPath>
</defs>
      <g clip-path="url(#clip0_877_2891)">
<path opacity="0.5" d="M720 750.438C720 722.417 743.895 701.078 770.199 705.609C796.226 710.091 822.774 710.091 848.801 705.609C875.105 701.078 899 722.417 899 750.438V774.93C899 825.227 860.214 866 812.37 866H806.63C758.786 866 720 825.227 720 774.93V750.438Z" fill="#FF6247"/>
<path opacity="0.5" d="M937 750.438C937 722.417 960.762 701.078 986.919 705.609C1012.8 710.091 1039.2 710.091 1065.08 705.609C1091.24 701.078 1115 722.417 1115 750.438V774.93C1115 825.227 1076.43 866 1028.85 866H1023.15C975.569 866 937 825.227 937 774.93V750.438Z" fill="#FF6247"/>
<path d="M555 792C555 797.523 559.477 802 565 802C570.523 802 575 797.523 575 792H555ZM720 747L595 747L595 767L720 767L720 747ZM555 787V792H575V787H555ZM595 747C572.909 747 555 764.909 555 787H575C575 775.955 583.954 767 595 767L595 747Z" fill="black"/>
<path d="M956.85 721.662C956.85 721.662 956.298 703.515 996.284 698.54L1068.96 850.236C1068.96 850.236 1054.94 866.613 1025.72 865.696L956.85 721.662Z" fill="white" fill-opacity="0.3"/>
<path d="M740.63 724.24C740.63 724.24 740.078 706.416 780.064 701.53L852.741 850.523C852.741 850.523 838.725 866.607 809.505 865.706L740.63 724.24Z" fill="white" fill-opacity="0.3"/>
<path d="M1009.77 706.801C1009.77 706.801 1006.07 709.846 1019.83 701.031L1084.46 832.685C1084.46 832.685 1088.66 838.122 1077.47 840.432L1009.77 706.801Z" fill="white" fill-opacity="0.3"/>
<path d="M793.546 709.643C793.546 709.643 789.847 712.634 803.615 703.975L868.238 833.283C868.238 833.283 872.442 838.623 861.249 840.892L793.546 709.643Z" fill="white" fill-opacity="0.3"/>
<path d="M937.905 788.269C944.913 829.009 980.328 860 1022.96 860H1028.68C1076.35 860 1115 821.253 1115 773.455V744.18C1115 717.552 1091.19 699.273 1064.98 701.579C1039.05 702.839 1012.6 702.839 986.664 701.579C962.761 699.652 940.855 714.173 937.184 737.31C936.83 739.543 936.645 741.837 936.645 744.18V773.455C936.645 778.506 937.077 783.455 937.905 788.269ZM937.905 788.269L937.119 787.669C926.202 779.335 910.993 779.583 900.355 788.269V788.269M902 751H933.5M772.018 701.579C797.951 702.839 824.403 702.839 850.336 701.579C876.545 699.273 900.355 717.552 900.355 744.18V773.455C900.355 821.253 861.709 860 814.037 860H808.318C760.646 860 722 821.253 722 773.455V744.18C722 717.552 745.809 699.273 772.018 701.579Z" stroke="black" stroke-width="20" stroke-linecap="round"/>
</g>
<defs>
<clipPath id="clip0_877_2891">
<rect width="1500" height="1500" fill="white"/>
</clipPath>
</defs>
      <g clip-path="url(#clip0_786_1683)">
<path d="M346 645.5L339 702L455 683L762 658H1034.5L1220 679L1216.5 623.5L1180.5 546L841.5 521L518 552L369 578L346 645.5Z" fill="white"/>
<path d="M424 474L512.5 515.5L545.5 506L584 474L600.5 440L592.5 386L523.5 353L481.5 311.5L456.5 264L437.5 208.5L424 144.5V101.5L379.5 144.5L338 242L344.5 360.5L424 474Z" fill="white"/>
<path d="M1087.5 301.5L1035 383C1057 391.8 1114.17 457 1140 488.5L1191 429.5L1212.5 347L1203.5 225L1148.5 145.5L1087.5 115.5L1104 207.5L1087.5 301.5Z" fill="white"/>
<path d="M778.98 620.335C784.206 621.024 789.52 620.147 794.248 617.816C798.977 615.484 802.908 611.803 805.544 607.238C808.18 602.673 809.404 597.428 809.06 592.168C808.715 586.907 806.819 581.867 803.61 577.684C800.401 573.501 796.024 570.364 791.032 568.669C786.04 566.974 780.657 566.797 775.565 568.161C770.473 569.525 765.899 572.368 762.423 576.332C758.947 580.295 756.723 585.2 756.035 590.427C755.111 597.435 757.01 604.524 761.313 610.133C765.616 615.742 771.971 619.412 778.98 620.335Z" fill="#CCD0DA" stroke="black" stroke-width="22" stroke-miterlimit="10"/>
<path d="M450.733 651.755C455.959 652.444 461.273 651.567 466.001 649.236C470.73 646.904 474.661 643.223 477.297 638.658C479.933 634.093 481.157 628.848 480.813 623.588C480.468 618.327 478.572 613.287 475.363 609.104C472.154 604.921 467.777 601.784 462.785 600.089C457.793 598.394 452.41 598.217 447.318 599.581C442.226 600.945 437.652 603.788 434.176 607.751C430.699 611.715 428.476 616.62 427.788 621.847C426.864 628.855 428.763 635.944 433.066 641.553C437.369 647.162 443.724 650.832 450.733 651.755Z" fill="#CCD0DA" stroke="black" stroke-width="22" stroke-miterlimit="10"/>
<path d="M615.149 629.537C620.375 630.225 625.689 629.349 630.417 627.017C635.146 624.686 639.077 621.005 641.713 616.44C644.349 611.874 645.573 606.63 645.229 601.369C644.884 596.109 642.988 591.068 639.779 586.886C636.57 582.703 632.193 579.566 627.201 577.87C622.209 576.175 616.826 575.999 611.734 577.363C606.642 578.727 602.068 581.57 598.592 585.533C595.115 589.496 592.892 594.402 592.204 599.628C591.28 606.637 593.179 613.726 597.482 619.335C601.785 624.943 608.14 628.613 615.149 629.537Z" fill="#CCD0DA" stroke="black" stroke-width="22" stroke-miterlimit="10"/>
<path d="M939.831 618.152C945.058 618.841 950.372 617.964 955.1 615.633C959.828 613.301 963.759 609.62 966.396 605.055C969.032 600.49 970.255 595.245 969.911 589.985C969.567 584.724 967.67 579.684 964.461 575.501C961.253 571.318 956.875 568.181 951.883 566.486C946.892 564.791 941.509 564.614 936.417 565.978C931.324 567.342 926.751 570.185 923.274 574.148C919.798 578.112 917.575 583.017 916.886 588.244C915.963 595.252 917.862 602.341 922.165 607.95C926.468 613.559 932.823 617.228 939.831 618.152Z" fill="#CCD0DA" stroke="black" stroke-width="22" stroke-miterlimit="10"/>
<path d="M1098.97 627.987C1104.2 628.676 1109.51 627.799 1114.24 625.468C1118.97 623.137 1122.9 619.456 1125.53 614.89C1128.17 610.325 1129.39 605.081 1129.05 599.82C1128.7 594.559 1126.81 589.519 1123.6 585.336C1120.39 581.153 1116.01 578.016 1111.02 576.321C1106.03 574.626 1100.65 574.449 1095.55 575.813C1090.46 577.177 1085.89 580.021 1082.41 583.984C1078.94 587.947 1076.71 592.852 1076.02 598.079C1075.1 605.088 1077 612.176 1081.3 617.785C1085.61 623.394 1091.96 627.064 1098.97 627.987Z" fill="#CCD0DA" stroke="black" stroke-width="22" stroke-miterlimit="10"/>
<path d="M437.5 484L418 506L384 577.5L406.5 571L583 540.5L717.5 533L875.5 527L1165.5 544L1115.5 454L1035.5 385C1022.33 367.667 963.7 328.9 834.5 312.5C705.3 296.1 602.333 344 567 370L595 385C599.167 410.167 601.2 465.2 576 484C550.8 502.8 521.167 510.833 509.5 512.5L437.5 484Z" fill="#CCD0DA"/>
<path d="M539.5 550C520.7 593.2 514.5 633 514.5 681L345.5 703L359.5 613.5L384.5 578.5L419.5 511.5L430.5 479L359.5 395L345.5 303V221L378.5 142.5L419.5 108.5C359.5 344.1 490.5 460.333 563.5 489L585.64 480.144C586.841 477.625 588.06 475.118 589.297 472.626L594 435V395L574.5 363.5L670 326L790.5 320.5C683.165 332.521 627.443 395.787 589.297 472.626L588.5 479L585.64 480.144C580.745 490.409 576.137 500.89 571.739 511.5C671.159 496 942.6 478.3 1157 515.5L1162.5 548.5L982 533L807.5 525L588.81 536.5C588.667 539.073 539.565 547.575 539.5 550Z" fill="#001647" fill-opacity="0.2"/>
<path d="M1095.5 119.5C1170.7 220.3 1119.17 360.167 1084 418L1033.5 382L1075.5 328L1101.5 261.5V200.5L1095.5 131V119.5Z" fill="#001647" fill-opacity="0.2"/>
<path d="M384 573C394.74 547.777 413.025 515.2 439.383 481.701M1164.5 543C1159.26 528.155 1150.82 510.429 1138.85 491.5M1030 382.124C969.924 342.779 888.563 313.5 782 313.5C694.204 313.5 621.688 337.524 563.35 372.143M1030 382.124C1071.82 344.84 1138.09 243.829 1087.62 125.552C1084.23 117.626 1091.03 109.307 1098.86 112.892C1147.23 135.014 1217.3 199.479 1214 329.5C1213.07 366.333 1196.73 450.3 1138.85 491.5M1030 382.124C1080.61 415.268 1116.11 455.554 1138.85 491.5M439.383 481.701C466.038 499.684 492.803 509.442 512.06 513.143C513.34 513.389 514.701 513.349 515.971 513.059C614.262 490.583 608.764 421.353 592.35 385.895C591.22 383.452 589.044 381.693 586.481 380.87C578.384 378.271 570.679 375.352 563.35 372.143M439.383 481.701C396.767 452.95 354.43 403.172 343.5 323.5C328.072 211.048 377.903 136.356 416.177 102.509C422.658 96.7767 431.871 102.605 431.096 111.223C424.06 189.456 443.382 319.62 563.35 372.143M1172.59 547.814C803.951 496.705 495.823 546.557 379.698 579.924C377.242 580.63 375.27 582.221 374.055 584.469C355.867 618.125 349.335 665.202 347.851 693.307C347.518 699.616 353.167 704.356 359.37 703.162C523.166 671.63 901.443 627.534 1207.84 677.544C1213.96 678.543 1219.51 673.83 1218.98 667.651C1215.28 623.839 1192.58 576.054 1179.89 552.8C1178.4 550.07 1175.67 548.241 1172.59 547.814Z" stroke="black" stroke-width="22" stroke-linecap="round"/>
</g>
<defs>
<clipPath id="clip0_786_1683">
<rect width="1500" height="1500" fill="white"/>
</clipPath>
</defs>
      
    </g>
    </svg>