<svg
      xmlns="http://www.w3.org/2000/svg"
      preserveAspectRatio="xMidYMin meet"
      fill="none"
      viewBox="0 0 1500 1500"
    >
      <g>
      <path fill="url(#prefix__paint0_linear_53_28788)" d="M0 0h1500v1500H0z"/><defs><linearGradient id="prefix__paint0_linear_53_28788" x1="0" y1="0" x2="1500" y2="1500" gradientUnits="userSpaceOnUse">
<stop stop-color="#DBE4E4"/>
<stop offset="1" stop-color="#A7BDBD"/>
</linearGradient></defs>
      <g clip-path="url(#clip0_614_2455)">
<path d="M388.5 1416.5L352.5 1511L1142 1512L1129 1431.5L1070.5 1276L1007 1176L1042 1113L1028 1043.5C1005.33 1055.83 926.6 1079 793 1073C659.4 1067 549.333 1018.83 511 995.5C492.833 1014.83 453.2 1067.2 440 1122C426.8 1176.8 459.5 1220.83 477.5 1236L388.5 1416.5Z" fill="#3A3A3A"/>
<path d="M353.698 1511C350.413 1508.73 360.049 1471.27 412.869 1339.62C429.682 1297.72 453.924 1259.56 477.605 1226C485.368 1215 376 1149.5 506.5 995L661 1046.5L683.5 1051C662.368 1062.33 708.557 1043.79 690 1058.04C521.079 1187.75 456.033 1424.17 443.158 1511H353.698Z" fill="black" fill-opacity="0.2"/>
<path d="M358.5 1507.5C371.341 1452.7 410.793 1338.13 480.097 1232M553.5 1137.5C526.081 1166.82 501.646 1199 480.097 1232M480.097 1232C440.958 1203.88 392.15 1116.57 509.46 992.073C509.77 991.743 510.252 991.637 510.651 991.852C600.161 1040.15 826.624 1117.43 1022.78 1043.27C1023.2 1043.11 1023.69 1043.26 1023.95 1043.63C1058.52 1092.29 1025.8 1150.61 1005.51 1174.4C1005.21 1174.76 1005.18 1175.25 1005.46 1175.62C1045.94 1229.92 1124.17 1371.22 1141.5 1507.5M721 1157C757.667 1176.33 851.2 1204.5 932 1162.5M1013.5 1319C1024.83 1354.33 1048.1 1443.9 1050.5 1519.5M667 1361.5C661.166 1392.33 650.3 1467.1 653.5 1519.5" stroke="black" stroke-width="22" stroke-linecap="round"/>
<path d="M963.65 1489.14L967.581 1515.56C968.344 1520.18 968.062 1524.9 966.756 1529.4C963.152 1541.66 954.267 1542.19 954.267 1542.19C949.534 1543.25 944.627 1543.27 939.886 1542.25C934.87 1541.19 930.106 1539.17 925.853 1536.31C913.117 1527.15 873.039 1449.06 873.039 1449.06L831.161 1535.6L793.844 1535.33L852.552 1414.55L821.006 1364.5C818.897 1361.15 816.025 1358.34 812.624 1356.31C809.339 1354.31 805.603 1353.18 801.763 1353.02H801.158C797.885 1352.63 794.567 1353.1 791.528 1354.37C788.649 1355.6 786.182 1357.62 784.421 1360.21C781.152 1364.01 781.624 1376.43 781.624 1376.43L774.028 1376.93C771.867 1369.53 770.544 1361.91 770.084 1354.22C769.662 1348.62 770.838 1343.03 773.476 1338.08C775.187 1334.64 777.877 1331.78 781.21 1329.86C784.689 1327.89 788.641 1326.9 792.64 1327.01C799.606 1327.06 806.721 1329.25 813.012 1333.3C819.356 1337.38 824.619 1342.94 828.355 1349.49L859.412 1405.8L897.615 1331.3L931.583 1331.55L879.091 1436.48L902.066 1476.71C902.066 1476.71 920.78 1515.52 939.374 1515.66C957.968 1515.79 955.696 1489.05 955.696 1489.05L963.65 1489.14Z" fill="white"/>
</g>
<defs>
<clipPath id="clip0_614_2455">
<rect width="1500" height="1500" fill="white"/>
</clipPath>
</defs>
      <g clip-path="url(#clip0_497_1194)">
<path d="M379.667 654.812C432.345 471.574 618.472 401.981 699.114 390.653C740.985 382.718 849.655 375.215 949.364 408.675C980 418.956 1049.88 457.388 1091.92 499.818C1144.47 552.856 1272.97 732.052 1185.05 927.725C1097.12 1123.4 758.414 1092.29 612.749 1051.82C464.472 1010.63 314.48 881.563 379.667 654.812Z" fill="#AABBFF"/>
<path d="M449.293 747.204C454.734 531.068 585.306 432.345 649.911 410C432.292 459.565 365.296 655.455 364 747.204C377.99 984.871 584.496 1053.43 681 1058C601.498 1044.46 443.853 963.339 449.293 747.204Z" fill="#001647" fill-opacity="0.2"/>
<path d="M379.667 654.812C432.345 471.574 618.472 401.981 699.114 390.653C740.985 382.718 849.655 375.215 949.364 408.675C980 418.956 1049.88 457.388 1091.92 499.818C1144.47 552.856 1272.97 732.052 1185.05 927.725C1097.12 1123.4 758.414 1092.29 612.749 1051.82C464.472 1010.63 314.48 881.563 379.667 654.812Z" stroke="black" stroke-width="22" stroke-linecap="round"/>
</g>
<defs>
    <clipPath id="prefix__clip0_299_662"><path fill="#fff" d="M0 0h1500v1500H0z"/></clipPath>
</defs>
      <g clip-path="url(#clip0_624_3534)">
<path d="M780.422 771.992C785.186 778.098 791.28 783.038 798.24 786.435C805.2 789.833 812.843 791.599 820.589 791.599C828.334 791.599 835.977 789.833 842.937 786.435C849.897 783.038 855.991 778.098 860.755 771.992" stroke="black" stroke-width="22" stroke-miterlimit="10" stroke-linecap="round"/>
<path d="M972.16 771.992C976.925 778.098 983.018 783.038 989.979 786.435C996.939 789.833 1004.58 791.599 1012.33 791.599C1020.07 791.599 1027.71 789.833 1034.68 786.435C1041.64 783.038 1047.73 778.098 1052.49 771.992" stroke="black" stroke-width="22" stroke-miterlimit="10" stroke-linecap="round"/>
<path d="M922.5 961C929.521 961 936.385 958.918 942.223 955.017C948.061 951.116 952.611 945.572 955.298 939.085C957.985 932.598 958.688 925.461 957.318 918.574C955.948 911.688 952.567 905.362 947.602 900.398C942.638 895.433 936.312 892.052 929.426 890.682C922.539 889.312 915.402 890.015 908.915 892.702C902.428 895.389 896.884 899.939 892.983 905.777C889.082 911.615 887 918.479 887 925.5C887 934.915 890.74 943.945 897.398 950.602C904.055 957.26 913.085 961 922.5 961Z" fill="black" stroke="black" stroke-width="22" stroke-miterlimit="10" stroke-linecap="round"/>
</g>
<defs>
<clipPath id="clip0_624_3534">
<rect width="1500" height="1500" fill="white"/>
</clipPath>
</defs>
      <g clip-path="url(#clip0_911_309)">
<ellipse cx="932" cy="915.5" rx="131" ry="69.5" fill="#AABBFF"/>
<path d="M820.569 923.549C820.28 896.513 841.822 874.289 868.854 873.737L973.808 871.592C1001.86 871.018 1024.91 893.608 1024.9 921.668C1024.89 949.203 1002.65 971.563 975.116 971.72L870.142 972.317C843.014 972.471 820.859 950.677 820.569 923.549Z" fill="#FFD700"/>
<path d="M823.859 924.756L1021.53 920.376M875.877 968.561C875.329 946.294 874.453 897.05 870.949 878.214M924.062 878.214C925.887 895.188 929.209 937.022 928.99 968.561M975.533 874.428C976.628 898.505 977.176 951.039 978.271 968.561M869.396 972.015L975.986 971.418C1004.17 971.26 1026.68 947.887 1025.77 919.717V919.717C1024.88 892.298 1002.11 870.692 974.682 871.252L868.112 873.43C841.079 873.983 819.535 896.207 819.825 923.245V923.245C820.115 950.372 842.268 972.167 869.396 972.015Z" stroke="black" stroke-width="20"/>
</g>
<defs>
<clipPath id="clip0_911_309">
<rect width="1500" height="1500" fill="white"/>
</clipPath>
</defs>
      <g clip-path="url(#clip0_708_260)">
<path d="M711.94 381.541L669.138 415.004L754.914 456.956C786.09 456.451 856.04 454.579 886.429 451.127C916.817 447.675 946.703 430.594 957.848 422.485L912.882 387.272L890.772 360.146L852.07 352.844L816.711 388.83L811.119 369.892L779.2 357.196L748.101 362.456L711.94 381.541Z" fill="#AABBFF"/>
<path d="M754.823 451.145C758.386 440.393 766.661 423.631 780.081 411.559M882.17 449.083C878.062 439.675 870.922 425.659 859.411 414.501M670.743 416.037C678.291 403.405 696.028 378.1 722.448 377.672C724.832 377.634 727.122 377.712 729.323 377.895M780.081 411.559C789.433 403.145 801.285 397.009 815.783 396.774C818.147 396.736 820.438 396.825 822.658 397.03M780.081 411.559C771.884 400.903 758.35 380.305 729.323 377.895M953.095 422.563C946.826 410.677 929.573 387.795 908.089 385.052M859.411 414.501C864.186 404.755 879.655 385.169 903.328 384.785C904.936 384.759 906.524 384.852 908.089 385.052M859.411 414.501C850.192 405.565 838.17 398.463 822.658 397.03M729.323 377.895C734.108 368.72 747.587 350.309 768.512 349.97C795.461 349.534 817.557 375.809 822.658 397.03M908.089 385.052C903.334 374.267 889.367 351.713 871.612 352C849.419 352.36 832.274 370.674 822.592 392.964" stroke="black" stroke-width="22" stroke-linecap="round"/>
<path d="M618.569 574.785L567.825 554.973C630.317 600.206 606.448 639.812 586.702 653.962C527.242 683.908 507.254 638.378 504.692 611.869L511.316 570.318L490.636 599.182C470.827 620.265 425.647 647.212 403.397 586.33C381.146 525.448 441.585 513.424 474.586 515.022L453.426 508.674C424.638 495.751 378.17 460.144 422.595 421.103C467.02 382.063 501.723 430.657 513.522 459.834L524.943 471.777L522.345 458.151C523.774 418.422 540.474 348.783 595.845 388.064C651.216 427.345 610.468 470.557 583.173 487.253L634.506 477.464C649.269 474.233 679.558 478.758 682.617 522.698C685.677 566.639 641.193 575.731 618.569 574.785Z" fill="#4AEEB9"/>
<path d="M531.578 477.918C531.578 477.918 511.312 435.004 534.518 401.634C570.061 350.432 649.221 401.98 618.177 456.074C608.705 472.599 594.08 476.691 563.51 497.557" stroke="black" stroke-width="22" stroke-miterlimit="10"/>
<path d="M513.103 554.003C513.103 554.003 505.44 600.709 467.602 615.623C409.574 638.504 370.239 550.369 426.017 522.597C443.071 514.116 458.19 517.925 495.248 517.468" stroke="black" stroke-width="22" stroke-miterlimit="10"/>
<path d="M572.003 508.802C572.003 508.802 605.229 468.731 644.671 477.236C705.078 490.256 688.791 582.988 627.471 575.269C608.742 572.908 597.335 565.93 566.505 545.764" stroke="black" stroke-width="22" stroke-miterlimit="10"/>
<path d="M560.484 554.415C560.484 554.415 602.944 568.401 606.766 608.809C612.623 670.762 519.778 682.514 508.631 621.287C505.229 602.583 505.496 594.146 523.784 560.106" stroke="black" stroke-width="22" stroke-miterlimit="10"/>
<path d="M489.538 506.574C489.538 506.574 440.777 514.364 418.081 480.704C383.272 429.114 459.528 375.584 498.625 423.98C510.562 438.768 510.616 447.744 519.059 483.805" stroke="black" stroke-width="22" stroke-miterlimit="10"/>
<path d="M541.944 563.769C550.978 562.046 559.298 557.683 565.853 551.232C572.407 544.78 576.901 536.53 578.767 527.524C580.632 518.519 579.785 509.162 576.333 500.638C572.881 492.114 566.978 484.804 559.372 479.635C551.766 474.465 542.798 471.666 533.601 471.594C524.404 471.521 515.393 474.177 507.706 479.226C500.019 484.275 494.001 491.49 490.415 499.958C486.828 508.427 485.834 517.769 487.556 526.803C489.867 538.917 496.895 549.618 507.094 556.55C517.294 563.483 529.83 566.079 541.944 563.769Z" fill="#FFBF44" stroke="black" stroke-width="22" stroke-miterlimit="10"/>
<path d="M555.522 432.902C557.559 403.973 578.633 391.596 588.915 389.024C580.072 387.671 562.064 385.016 560.78 385.217C559.497 385.418 545.04 393.168 537.972 397.017L525.885 432.62L523.126 470.048C522.358 464.277 520.235 451.1 517.894 444.561C515.553 438.023 507.941 426.529 504.427 421.6L488.861 408.833L466.744 404.083L448.119 411.115L419.631 423.395C418.654 437.25 416.831 465.269 417.353 466.503C417.875 467.736 441.509 495.597 453.261 509.373L402.342 535.86C399.213 549.093 397.453 581.185 415.45 603.682C433.448 626.18 478.866 606.201 499.326 593.399C501.749 598.363 508.86 614.347 517.922 638.575C526.985 662.803 550.633 661.942 561.324 658.483C558.716 656.7 551.761 646.255 544.813 618.736C537.864 591.216 543.483 573.591 547.161 568.218L546.091 561.398C537.641 560.806 519.338 552.771 513.723 525.371C508.109 497.972 526.557 481.43 536.483 476.584L570.564 486.857C564.701 480.926 553.485 461.831 555.522 432.902Z" fill="#001647" fill-opacity="0.2"/>
</g>
<defs>
<clipPath id="clip0_708_260">
<rect width="1500" height="1500" fill="white"/>
</clipPath>
</defs>
      
    </g>
    </svg>