<svg
      xmlns="http://www.w3.org/2000/svg"
      preserveAspectRatio="xMidYMin meet"
      fill="none"
      viewBox="0 0 1500 1500"
    >
      <g>
      <path fill="url(#prefix__a1)" d="M0 0h1500v1500H0z"/><defs><linearGradient id="prefix__a1" x1="1500" y1="1500" x2="0" y2="0" gradientUnits="userSpaceOnUse">
<stop stop-color="#1555D1"/>
<stop offset="1" stop-color="#70E5FF"/>
</linearGradient></defs>
      <g clip-path="url(#clip0_495_792)">
<path d="M773 1011.5C543.4 1029.9 398.667 1353.5 355 1513H1138.5C1075.7 1127 868.667 1017.83 773 1011.5Z" fill="#A760FF"/>
<path d="M741.5 1213C709.1 1241.4 650.333 1194.17 625 1167V1132.5L645 1105L708 1115.5C732.667 1136.17 773.9 1184.6 741.5 1213Z" fill="#AABBFF"/>
<path d="M768 1276.5C727.6 1271.7 715.833 1297.17 715 1310.5L735 1330.5L788.5 1320C798.5 1307.5 808.4 1281.3 768 1276.5Z" fill="#AABBFF"/>
<path d="M951.5 1230C920.3 1206.4 962.833 1169.17 988 1153.5L1033.5 1224.5C1019.17 1236.17 982.7 1253.6 951.5 1230Z" fill="#AABBFF"/>
<path d="M896 1383C837.2 1378.2 830.833 1440 835 1471.5L853 1506L935 1514L948.5 1492C955.5 1457.67 954.8 1387.8 896 1383Z" fill="#AABBFF"/>
<path d="M499.5 1441.5C527.1 1434.3 552 1481.5 561 1506H484.5C478 1487.5 471.9 1448.7 499.5 1441.5Z" fill="#AABBFF"/>
<path d="M749.5 1019.5C536 1134 457.448 1414.63 443.159 1511H353.699C350.414 1508.73 357.049 1471.27 409.87 1339.62C462.691 1207.98 569.086 1113.24 605.384 1082.33L674 1033.5L749.5 1019.5Z" fill="#001647" fill-opacity="0.2"/>
<path d="M922 1520C946 1484.4 906 1407 874 1393.5L911.5 1389.5L946 1428L951.5 1480.5C945.167 1492.67 930.4 1517.6 922 1520Z" fill="#001647" fill-opacity="0.2"/>
<path d="M756.253 1287.62L756 1287.5L794.5 1289.5L797.5 1314L760.5 1321.5C792.277 1304.12 768.339 1293.15 756.253 1287.62Z" fill="#001647" fill-opacity="0.2"/>
<path d="M702 1125.5C738 1171 718.5 1206.5 694.5 1214H740.5L749.5 1175.5L702 1125.5Z" fill="#001647" fill-opacity="0.2"/>
<path d="M1007 1190C1020.6 1214.8 989 1229 967 1233L982.5 1251L1030 1235C1032.67 1230.67 1037.6 1221.5 1036 1219.5C1034.4 1217.5 1013.67 1197.67 1007 1190Z" fill="#001647" fill-opacity="0.2"/>
<path d="M539 1507C526.6 1474.2 511.5 1453.5 496 1451.5L511.5 1440L546 1468L558.5 1503.5L539 1507Z" fill="#001647" fill-opacity="0.2"/>
<path d="M353.5 1519.5C365.5 1454.33 414.5 1313.6 483.5 1219C530.101 1155.11 577.468 1101.29 629.141 1059.66C710.278 994.299 826.037 996.323 905.02 1064.27C1000.08 1146.05 1103.44 1290.29 1142.5 1519.5M1013.5 1319C1024.83 1354.33 1048.1 1443.9 1050.5 1519.5M667 1361.5C661.167 1392.33 650.3 1467.1 653.5 1519.5M483.499 1507C478.166 1485.5 474.899 1441.7 504.499 1438.5C534.099 1435.3 555.166 1482.83 562 1507M981.5 1149L981.007 1149.41C962.792 1164.59 924.217 1196.72 948 1232C965.191 1257.5 1016 1242.17 1035 1225M856.5 1507C835.833 1479.83 821 1406.97 869 1386C922.5 1362.62 987.5 1471 929.5 1519M621.925 1133.67C614.574 1149.68 616.744 1169.44 643 1190.5C721.865 1253.76 753 1210 750 1179.5C747.464 1153.72 723.458 1126.72 693.232 1112.72C667.618 1100.86 633.703 1108.01 621.925 1133.67ZM724.656 1288.1C719.198 1292.29 715.187 1297.25 713.999 1303C707.5 1334.5 761.668 1337.41 785.999 1321C789.948 1318.34 792.733 1315.31 794.516 1312.09C810.942 1282.34 751.613 1267.4 724.656 1288.1Z" stroke="black" stroke-width="22" stroke-linecap="round"/>
</g>
<defs>
<clipPath id="clip0_495_792">
<rect width="1500" height="1500" fill="white"/>
</clipPath>
</defs>
      <g clip-path="url(#clip0_497_1194)">
<path d="M379.667 654.812C432.345 471.574 618.472 401.981 699.114 390.653C740.985 382.718 849.655 375.215 949.364 408.675C980 418.956 1049.88 457.388 1091.92 499.818C1144.47 552.856 1272.97 732.052 1185.05 927.725C1097.12 1123.4 758.414 1092.29 612.749 1051.82C464.472 1010.63 314.48 881.563 379.667 654.812Z" fill="#AABBFF"/>
<path d="M449.293 747.204C454.734 531.068 585.306 432.345 649.911 410C432.292 459.565 365.296 655.455 364 747.204C377.99 984.871 584.496 1053.43 681 1058C601.498 1044.46 443.853 963.339 449.293 747.204Z" fill="#001647" fill-opacity="0.2"/>
<path d="M379.667 654.812C432.345 471.574 618.472 401.981 699.114 390.653C740.985 382.718 849.655 375.215 949.364 408.675C980 418.956 1049.88 457.388 1091.92 499.818C1144.47 552.856 1272.97 732.052 1185.05 927.725C1097.12 1123.4 758.414 1092.29 612.749 1051.82C464.472 1010.63 314.48 881.563 379.667 654.812Z" stroke="black" stroke-width="22" stroke-linecap="round"/>
</g>
<defs>
    <clipPath id="prefix__clip0_299_662"><path fill="#fff" d="M0 0h1500v1500H0z"/></clipPath>
</defs>
      <g clip-path="url(#clip0_624_3324)">
<path d="M792.8 801.54L845.506 748.833" stroke="black" stroke-width="22" stroke-miterlimit="10" stroke-linecap="round"/>
<path d="M792.8 748.833L845.506 801.54" stroke="black" stroke-width="22" stroke-miterlimit="10" stroke-linecap="round"/>
<path d="M984.133 801.54L1036.84 748.833" stroke="black" stroke-width="22" stroke-miterlimit="10" stroke-linecap="round"/>
<path d="M984.133 748.833L1036.84 801.54" stroke="black" stroke-width="22" stroke-miterlimit="10" stroke-linecap="round"/>
<path d="M853.066 922.82C861.226 917.24 873.066 917.24 881.206 922.82L881.5 923.02C885.645 925.854 890.549 927.37 895.57 927.37C900.591 927.37 905.495 925.854 909.64 923.02V923.02C913.785 920.185 918.689 918.669 923.71 918.669C928.731 918.669 933.635 920.185 937.78 923.02L938.506 923.513C942.651 926.347 947.555 927.863 952.576 927.863C957.598 927.863 962.502 926.347 966.646 923.513L967.86 922.686C976.02 917.106 987.86 917.106 996 922.686" stroke="black" stroke-width="22" stroke-miterlimit="10" stroke-linecap="round"/>
</g>
<defs>
<clipPath id="clip0_624_3324">
<rect width="1500" height="1500" fill="white"/>
</clipPath>
</defs>
      <g clip-path="url(#clip0_875_2704)">
<path d="M821.441 843.266C839.551 843.267 857.015 836.532 870.435 824.371C883.855 812.209 892.271 795.491 894.047 777.467C895.823 759.444 890.832 741.404 880.044 726.857C869.256 712.31 853.443 702.296 835.681 698.762C817.918 695.228 799.476 698.427 783.942 707.738C768.407 717.048 756.892 731.804 751.634 749.134C746.376 766.465 747.753 785.132 755.496 801.504C763.239 817.876 776.795 830.782 793.527 837.713C802.377 841.378 811.862 843.265 821.441 843.266Z" fill="#3A3A3A"/>
<path d="M757.998 736.336L780.765 706.94L865.384 832.392L825.334 845L757.998 736.336Z" fill="white" fill-opacity="0.7"/>
<rect x="795.559" y="706.672" width="13.3333" height="135.981" transform="rotate(-34 795.559 706.672)" fill="white" fill-opacity="0.7"/>
<path d="M1013.38 839.717C1031.49 839.719 1048.96 832.983 1062.38 820.822C1075.8 808.66 1084.21 791.942 1085.99 773.918C1087.76 755.895 1082.77 737.855 1071.99 723.308C1061.2 708.761 1045.38 698.747 1027.62 695.213C1009.86 691.679 991.417 694.879 975.883 704.189C960.349 713.499 948.833 728.255 943.575 745.585C938.318 762.916 939.694 781.583 947.438 797.955C955.181 814.327 968.737 827.233 985.469 834.164C994.318 837.83 1003.8 839.717 1013.38 839.717Z" fill="#3A3A3A"/>
<path d="M949.935 732.788L972.703 703.392L1057.32 828.844L1017.27 841.451L949.935 732.788Z" fill="white" fill-opacity="0.7"/>
<rect x="987.496" y="703.123" width="13.3333" height="135.981" transform="rotate(-34 987.496 703.123)" fill="white" fill-opacity="0.7"/>
<path d="M1012.38 842.6C1029.26 842.593 1045.62 836.734 1058.66 826.021C1071.7 815.307 1080.63 800.403 1083.91 783.846C1087.2 767.29 1084.64 750.107 1076.68 735.225C1068.71 720.343 1055.84 708.683 1040.24 702.232C1024.64 695.781 1007.29 694.938 991.139 699.847C974.99 704.755 961.042 715.112 951.673 729.152C942.304 743.192 938.093 760.046 939.758 776.843C941.423 793.64 948.861 809.339 960.804 821.267C974.49 834.934 993.043 842.607 1012.38 842.6V842.6Z" stroke="black" stroke-width="20" stroke-miterlimit="10"/>
<path d="M821.441 842.6C839.551 842.601 857.015 835.866 870.435 823.705C883.855 811.543 892.271 794.825 894.047 776.801C895.823 758.778 890.832 740.738 880.044 726.191C869.256 711.644 853.443 701.63 835.681 698.096C817.918 694.562 799.476 697.761 783.942 707.072C768.407 716.382 756.892 731.138 751.634 748.468C746.376 765.799 747.753 784.466 755.496 800.838C763.239 817.21 776.795 830.116 793.527 837.047C802.377 840.712 811.862 842.599 821.441 842.6Z" stroke="black" stroke-width="20" stroke-miterlimit="10"/>
<path d="M582.5 804.5C582.5 810.023 586.977 814.5 592.5 814.5C598.023 814.5 602.5 810.023 602.5 804.5H582.5ZM747.334 760L622.5 760L622.5 780L747.334 780L747.334 760ZM582.5 800V804.5H602.5V800H582.5ZM622.5 760C600.409 760 582.5 777.909 582.5 800H602.5C602.5 788.955 611.454 780 622.5 780L622.5 760Z" fill="black"/>
<path d="M894.387 769.666H939.501" stroke="black" stroke-width="20" stroke-miterlimit="10"/>
</g>
<defs>
<clipPath id="clip0_875_2704">
<rect width="1500" height="1500" fill="white"/>
</clipPath>
</defs>
      <g clip-path="url(#clip0_708_531)">
<path d="M711.94 381.541L669.138 415.004L754.914 456.956C786.09 456.451 856.04 454.579 886.429 451.127C916.817 447.675 946.703 430.594 957.848 422.485L912.882 387.272L890.772 360.146L852.07 352.844L816.711 388.83L811.119 369.892L779.2 357.196L748.101 362.456L711.94 381.541Z" fill="#AABBFF"/>
<path d="M754.823 451.145C758.386 440.393 766.661 423.631 780.081 411.559M882.17 449.083C878.062 439.675 870.922 425.659 859.411 414.501M670.743 416.037C678.291 403.405 696.028 378.1 722.448 377.672C724.832 377.634 727.122 377.712 729.323 377.895M780.081 411.559C789.433 403.145 801.285 397.009 815.783 396.774C818.147 396.736 820.438 396.825 822.658 397.03M780.081 411.559C771.884 400.903 758.35 380.305 729.323 377.895M953.095 422.563C946.826 410.677 929.573 387.795 908.089 385.052M859.411 414.501C864.186 404.755 879.655 385.169 903.328 384.785C904.936 384.759 906.524 384.852 908.089 385.052M859.411 414.501C850.192 405.565 838.17 398.463 822.658 397.03M729.323 377.895C734.108 368.72 747.587 350.309 768.512 349.97C795.461 349.534 817.557 375.809 822.658 397.03M908.089 385.052C903.334 374.267 889.367 351.713 871.612 352C849.419 352.36 832.274 370.674 822.592 392.964" stroke="black" stroke-width="22" stroke-linecap="round"/>
<path d="M997.957 517.946L972.6 557.808L964.662 577.046L893.586 580.946L861.174 558.543L840.987 516.142L855.588 457.997L886.826 438.019L911.744 394.846L948.019 365.871L972.573 331.457L1005.89 297.407L1027.92 261.23L1073.34 204.845L1076.31 250.738L1045.77 347.813L1037.13 406.374L1007.13 455.754L997.957 517.946Z" fill="#F56CDB"/>
<path d="M905.244 482.859C890.573 526.542 901.882 566.524 909.37 581.055C891.184 575.243 853.071 558.479 846.103 537.922C839.134 517.365 851.146 473.07 858.023 453.492L900.659 408.065L953.382 357.132L1000.6 298.398C1016.65 276.22 1051.4 229.569 1062.04 220.392C1072.67 211.214 1077.78 218.709 1079 223.604C1043.06 251.869 1027.04 300.845 1023.98 320.882L1012.98 316.752C989.875 344.651 979.514 399.041 977.222 422.749L959.342 395.217C934.769 436.331 933.821 494.331 936.419 518.191L905.244 482.859Z" fill="#001647" fill-opacity="0.2"/>
<path d="M892.515 429.579C892.515 429.579 843.236 451.183 842.203 506.578C841.696 524.765 848.262 542.439 860.519 555.884C876.647 573.966 900.141 583.617 924.373 583.108C945.775 582.654 965.55 573.927 979.276 549.847C979.276 549.847 1008.28 514.474 1005.72 453.56C1005.72 453.56 1047.39 405.63 1041.08 350.636C1041.08 350.636 1077.25 291.348 1083.64 209.794C1083.69 208.92 1083.5 208.048 1083.08 207.281C1082.76 206.708 1082.33 206.209 1081.8 205.819C1081.27 205.429 1080.67 205.155 1080.03 205.018C1079.39 204.88 1078.73 204.882 1078.09 205.022C1077.45 205.162 1076.84 205.437 1076.32 205.83C1058.18 220.011 1021.31 258.073 1010.03 292.412C1010.03 292.412 968.636 314 955.632 358.225C955.648 358.181 908.075 377.837 892.515 429.579Z" stroke="black" stroke-width="20" stroke-miterlimit="10"/>
<path d="M892.516 429.582C892.516 429.582 900.707 515.854 979.349 549.795" stroke="black" stroke-width="20" stroke-miterlimit="10"/>
<path d="M955.848 356.821C955.848 356.821 951.691 424.093 1005.64 453.216" stroke="black" stroke-width="20" stroke-miterlimit="10"/>
<path d="M1010.06 292.373C1010.06 292.373 1014.99 332.329 1041.13 350.598" stroke="black" stroke-width="20" stroke-miterlimit="10"/>
</g>
<defs>
<clipPath id="clip0_708_531">
<rect width="1500" height="1500" fill="white"/>
</clipPath>
</defs>
      
    </g>
    </svg>