<svg
      xmlns="http://www.w3.org/2000/svg"
      preserveAspectRatio="xMidYMin meet"
      fill="none"
      viewBox="0 0 1500 1500"
    >
      <g>
      <path fill="url(#prefix__a1)" d="M0 0h1500v1500H0z"/><defs><linearGradient id="prefix__a1" x1="1500" y1="1500" x2="0" y2="0" gradientUnits="userSpaceOnUse">
<stop stop-color="#1555D1"/>
<stop offset="1" stop-color="#70E5FF"/>
</linearGradient></defs>
      <g clip-path="url(#clip0_491_610)">
<path d="M773 1011.5C543.4 1029.9 398.667 1353.5 355 1513H1138.5C1075.7 1127 868.667 1017.83 773 1011.5Z" fill="#A760FF"/>
<path d="M409 1362.5L354 1512.5H651.5V1444.5L409 1362.5Z" fill="#AABBFF"/>
<path d="M1039.5 1426.5L1046 1512.5L1142.5 1504L1111 1393L1039.5 1426.5Z" fill="#AABBFF"/>
<path d="M749.5 1019.5C536 1134 457.448 1414.63 443.159 1511H353.699C350.414 1508.73 357.049 1471.27 409.87 1339.62C462.691 1207.98 569.086 1113.24 605.384 1082.33L674 1033.5L749.5 1019.5Z" fill="#001647" fill-opacity="0.2"/>
<path d="M353.5 1519.5C365.5 1454.33 414.5 1313.6 483.5 1219C530.101 1155.11 577.468 1101.29 629.141 1059.66C710.278 994.299 826.037 996.323 905.02 1064.27C1000.08 1146.05 1103.44 1290.29 1142.5 1519.5M1013.5 1319C1024.83 1354.33 1048.1 1443.9 1050.5 1519.5M667 1361.5C661.167 1392.33 650.3 1467.1 653.5 1519.5M408.5 1360.5L651 1446.5M1040.5 1424C1056.33 1421.5 1091.7 1411.6 1106.5 1392" stroke="black" stroke-width="22" stroke-linecap="round"/>
<path d="M960.646 1323.36C960.84 1323.15 960.824 1322.82 960.61 1322.64L900.183 1269.84C899.84 1269.54 899.308 1269.82 899.357 1270.27L903.003 1304.06C903.034 1304.36 902.803 1304.61 902.505 1304.61H829.712C829.417 1304.61 829.186 1304.87 829.214 1305.16L832.641 1340.76C832.665 1341.02 832.881 1341.21 833.138 1341.21H906.136C906.391 1341.21 906.606 1341.41 906.633 1341.66L910.311 1375.74C910.357 1376.17 910.88 1376.35 911.173 1376.03L960.646 1323.36ZM792.988 1378.81C792.733 1378.81 792.519 1378.62 792.491 1378.37L788.813 1344.28C788.767 1343.86 788.244 1343.68 787.952 1343.99L738.356 1396.8C738.162 1397.01 738.179 1397.33 738.393 1397.52L798.935 1450.16C799.278 1450.46 799.809 1450.18 799.76 1449.73L796.13 1416.09C796.098 1415.79 796.33 1415.54 796.627 1415.54H869.421C869.716 1415.54 869.947 1415.28 869.918 1414.99L866.484 1379.25C866.459 1378.99 866.244 1378.8 865.986 1378.8L792.988 1378.81Z" fill="white"/>
</g>
<defs>
<clipPath id="clip0_491_610">
<rect width="1500" height="1500" fill="white"/>
</clipPath>
</defs>
      <g clip-path="url(#clip0_497_1194)">
<path d="M379.667 654.812C432.345 471.574 618.472 401.981 699.114 390.653C740.985 382.718 849.655 375.215 949.364 408.675C980 418.956 1049.88 457.388 1091.92 499.818C1144.47 552.856 1272.97 732.052 1185.05 927.725C1097.12 1123.4 758.414 1092.29 612.749 1051.82C464.472 1010.63 314.48 881.563 379.667 654.812Z" fill="#AABBFF"/>
<path d="M449.293 747.204C454.734 531.068 585.306 432.345 649.911 410C432.292 459.565 365.296 655.455 364 747.204C377.99 984.871 584.496 1053.43 681 1058C601.498 1044.46 443.853 963.339 449.293 747.204Z" fill="#001647" fill-opacity="0.2"/>
<path d="M379.667 654.812C432.345 471.574 618.472 401.981 699.114 390.653C740.985 382.718 849.655 375.215 949.364 408.675C980 418.956 1049.88 457.388 1091.92 499.818C1144.47 552.856 1272.97 732.052 1185.05 927.725C1097.12 1123.4 758.414 1092.29 612.749 1051.82C464.472 1010.63 314.48 881.563 379.667 654.812Z" stroke="black" stroke-width="22" stroke-linecap="round"/>
</g>
<defs>
    <clipPath id="prefix__clip0_299_662"><path fill="#fff" d="M0 0h1500v1500H0z"/></clipPath>
</defs>
      <g clip-path="url(#clip0_624_3246)">
<path d="M808.581 790H832.581V830.793C832.581 833.976 831.317 837.028 829.066 839.279C826.816 841.529 823.764 842.793 820.581 842.793C817.398 842.793 814.346 841.529 812.096 839.279C809.845 837.028 808.581 833.976 808.581 830.793V790Z" fill="#85FFFF"/>
<path d="M1024.34 823.314C1024.34 816.683 1018.96 811.307 1012.33 811.307C1005.7 811.307 1000.33 816.683 1000.33 823.314V830.767C1000.33 837.398 1005.7 842.774 1012.33 842.774C1018.96 842.774 1024.34 837.398 1024.34 830.767V823.314Z" fill="#85FFFF"/>
<path d="M780.419 772C785.183 778.106 791.277 783.046 798.237 786.443C805.197 789.841 812.841 791.607 820.586 791.607C828.331 791.607 835.974 789.841 842.934 786.443C849.894 783.046 855.988 778.106 860.752 772" stroke="black" stroke-width="22" stroke-miterlimit="10" stroke-linecap="round"/>
<path d="M972.167 772C976.931 778.106 983.025 783.046 989.985 786.443C996.946 789.841 1004.59 791.607 1012.33 791.607C1020.08 791.607 1027.72 789.841 1034.68 786.443C1041.64 783.046 1047.74 778.106 1052.5 772" stroke="black" stroke-width="22" stroke-miterlimit="10" stroke-linecap="round"/>
<path d="M862.333 936.24C862.333 912.907 888.6 894 921 894C953.4 894 979.666 912.907 979.666 936.24C979.656 940.906 978.611 945.513 976.606 949.727C972.333 958.86 962.606 962.393 954.326 958.3C944.86 953.587 933.38 950.827 920.993 950.827C908.606 950.827 897.133 953.587 887.66 958.3C879.393 962.42 869.66 958.86 865.38 949.727C863.38 945.512 862.339 940.906 862.333 936.24Z" fill="white" stroke="black" stroke-width="22" stroke-miterlimit="10"/>
</g>
<defs>
<clipPath id="clip0_624_3246">
<rect width="1500" height="1500" fill="white"/>
</clipPath>
</defs>
      <g clip-path="url(#clip0_877_2891)">
<path opacity="0.5" d="M720 750.438C720 722.417 743.895 701.078 770.199 705.609C796.226 710.091 822.774 710.091 848.801 705.609C875.105 701.078 899 722.417 899 750.438V774.93C899 825.227 860.214 866 812.37 866H806.63C758.786 866 720 825.227 720 774.93V750.438Z" fill="#FF6247"/>
<path opacity="0.5" d="M937 750.438C937 722.417 960.762 701.078 986.919 705.609C1012.8 710.091 1039.2 710.091 1065.08 705.609C1091.24 701.078 1115 722.417 1115 750.438V774.93C1115 825.227 1076.43 866 1028.85 866H1023.15C975.569 866 937 825.227 937 774.93V750.438Z" fill="#FF6247"/>
<path d="M555 792C555 797.523 559.477 802 565 802C570.523 802 575 797.523 575 792H555ZM720 747L595 747L595 767L720 767L720 747ZM555 787V792H575V787H555ZM595 747C572.909 747 555 764.909 555 787H575C575 775.955 583.954 767 595 767L595 747Z" fill="black"/>
<path d="M956.85 721.662C956.85 721.662 956.298 703.515 996.284 698.54L1068.96 850.236C1068.96 850.236 1054.94 866.613 1025.72 865.696L956.85 721.662Z" fill="white" fill-opacity="0.3"/>
<path d="M740.63 724.24C740.63 724.24 740.078 706.416 780.064 701.53L852.741 850.523C852.741 850.523 838.725 866.607 809.505 865.706L740.63 724.24Z" fill="white" fill-opacity="0.3"/>
<path d="M1009.77 706.801C1009.77 706.801 1006.07 709.846 1019.83 701.031L1084.46 832.685C1084.46 832.685 1088.66 838.122 1077.47 840.432L1009.77 706.801Z" fill="white" fill-opacity="0.3"/>
<path d="M793.546 709.643C793.546 709.643 789.847 712.634 803.615 703.975L868.238 833.283C868.238 833.283 872.442 838.623 861.249 840.892L793.546 709.643Z" fill="white" fill-opacity="0.3"/>
<path d="M937.905 788.269C944.913 829.009 980.328 860 1022.96 860H1028.68C1076.35 860 1115 821.253 1115 773.455V744.18C1115 717.552 1091.19 699.273 1064.98 701.579C1039.05 702.839 1012.6 702.839 986.664 701.579C962.761 699.652 940.855 714.173 937.184 737.31C936.83 739.543 936.645 741.837 936.645 744.18V773.455C936.645 778.506 937.077 783.455 937.905 788.269ZM937.905 788.269L937.119 787.669C926.202 779.335 910.993 779.583 900.355 788.269V788.269M902 751H933.5M772.018 701.579C797.951 702.839 824.403 702.839 850.336 701.579C876.545 699.273 900.355 717.552 900.355 744.18V773.455C900.355 821.253 861.709 860 814.037 860H808.318C760.646 860 722 821.253 722 773.455V744.18C722 717.552 745.809 699.273 772.018 701.579Z" stroke="black" stroke-width="20" stroke-linecap="round"/>
</g>
<defs>
<clipPath id="clip0_877_2891">
<rect width="1500" height="1500" fill="white"/>
</clipPath>
</defs>
      <path d="M1004 728.5C860.4 737.3 638.833 681.5 546 652.5L816 605.5H966C1021.2 594.7 1143.67 619 1198 632.5C1220.5 644.334 1265.7 671.6 1266.5 686C1267.5 704 1183.5 717.5 1004 728.5Z" fill="#265CC2"/>
<path d="M316 543.5L352.5 610.5L519.499 583.5L751.999 546.5L1013 542.5L1183.5 568L1219.5 468.5C1239.67 433.5 1238.3 362.3 1071.5 317.5C904.699 272.7 708.333 302.167 630.999 322.5C583.166 343 468.8 394.3 394 435.5C319.2 476.7 310.833 521.334 316 543.5Z" fill="#265CC2"/>
<path d="M356.5 608L368 683.5L517.5 647.5L721 623L909 607.5H1086.5L1194 632.5L1188.5 571.5L1117 553.5L958.5 538L618 566L356.5 608Z" fill="#FFBF44"/>
<path d="M580.501 573.5C568.901 596.3 567.667 629.667 568.501 643.5L369.5 684L357.5 612.5L580.501 573.5Z" fill="#001647" fill-opacity="0.2"/>
<path d="M695 301C632.6 340.6 618.667 494.833 619.5 567L350 607.5L318.5 556V503.5L346.5 456.5L428.5 397L603.5 321.5L695 301Z" fill="#001647" fill-opacity="0.2"/>
<path d="M357 612C354.6 636 364.667 668.334 368.5 681.5C413.37 671.347 470.05 659.873 533 648.922M357 612C557.1 568.838 1002.51 500.275 1183.3 572.283C1186.04 573.372 1188.02 575.607 1188.79 578.447C1192.39 591.621 1197.42 616.496 1196 636M357 612C330.667 589.167 289.9 538.9 337.5 480.5C397 407.5 636.999 282 888.999 293C1141 304 1227 367.5 1224 443C1221.6 503.4 1193 548.833 1179 569M1196 636C1064.06 577.22 758.351 609.72 533 648.922M1196 636C1217.76 645.41 1235.12 656.965 1248.06 667.676C1264.29 681.115 1259.01 702.632 1238.43 707.12C1194.6 716.677 1111.42 724.968 974.5 723C779.7 720.2 599 674.782 533 648.922" stroke="black" stroke-width="22" stroke-linecap="round"/>
<path d="M947.863 362.822C949.397 357.617 959.095 357.813 960.747 363.083L970.962 395.671C971.687 397.986 974.374 399.667 977.448 399.73L1012.92 400.448C1018.8 400.567 1021.82 406.081 1017.72 409.209L985.96 433.434C984.372 434.645 983.735 436.421 984.272 438.135L996.016 475.603C997.592 480.63 989.664 483.855 984.927 480.115L960.107 460.515C957.495 458.453 953.271 458.367 950.705 460.325L926.316 478.928C921.662 482.478 913.657 478.93 915.12 473.965L926.023 436.956C926.522 435.262 925.844 433.459 924.228 432.184L891.907 406.66C887.734 403.365 890.631 397.971 896.509 398.09L931.983 398.809C935.056 398.871 937.707 397.298 938.38 395.011L947.863 362.822Z" fill="#FFBF44"/>

      
    </g>
    </svg>