<svg
      xmlns="http://www.w3.org/2000/svg"
      preserveAspectRatio="xMidYMin meet"
      fill="none"
      viewBox="0 0 1500 1500"
    >
      <g>
      <path fill="url(#prefix__paint0_linear_53_30463)" d="M0 0h1500v1500H0z"/><defs><linearGradient id="prefix__paint0_linear_53_30463" x1="1500" y1="1500" x2="0" y2="0" gradientUnits="userSpaceOnUse">
<stop stop-color="#FF5A5A"/>
<stop offset="1" stop-color="#FFBDBD"/>
</linearGradient></defs>
      <g clip-path="url(#clip0_481_307)">
<path d="M791 1319.5L798 1509H912L900.5 1426.5L886 1198L855.5 1030.5L779 1012L791 1319.5Z" fill="#AABBFF"/>
<path d="M502 1194.5C430.4 1298.9 371.5 1447 351 1508H797.5L781.5 1015.5H720C677.167 1031.67 573.6 1090.1 502 1194.5Z" fill="white"/>
<path d="M895 1339.5L912.5 1508H1141.5L1115 1417L1064.5 1260.5L946 1096L853 1031.5L880.5 1157.5L895 1339.5Z" fill="white"/>
<path d="M749.5 1019.5C536 1134 457.448 1414.63 443.159 1511H353.699C350.414 1508.73 357.049 1471.27 409.87 1339.62C462.691 1207.98 569.086 1113.24 605.384 1082.33L674 1033.5L749.5 1019.5Z" fill="#001647" fill-opacity="0.2"/>
<path d="M671.025 1191.95L673 1177L721 1218.5L709.5 1231L679.097 1210.1C673.208 1206.05 670.089 1199.04 671.025 1191.95Z" fill="#001647" fill-opacity="0.2"/>
<path d="M682.197 1266.24L692.5 1252L697 1263.5L732 1339.62L790 1428V1473.5C747.359 1423.44 701.711 1333.43 680.137 1285.9C677.211 1279.45 678.047 1271.98 682.197 1266.24Z" fill="#001647" fill-opacity="0.2"/>
<path d="M878 1511C875.6 1367.4 837.167 1109 825 1027.67L854.5 1022.5L896 1309L909.5 1511H878Z" fill="#001647" fill-opacity="0.2"/>
<path d="M353.5 1519.5C365.5 1454.33 414.5 1313.6 483.5 1219C530.101 1155.11 577.468 1101.29 629.141 1059.66C710.278 994.299 826.037 996.323 905.02 1064.27C1000.08 1146.05 1103.44 1290.29 1142.5 1519.5M1013.5 1319C1024.83 1354.33 1048.1 1443.9 1050.5 1519.5M667 1361.5C661.167 1392.33 650.3 1467.1 653.5 1519.5M909.596 1514.75C909.034 1490.93 907.832 1474.83 905.846 1439.31M905.846 1439.31C899.096 1318.55 883.281 1145.62 852.698 1034.38M905.846 1439.31C922.915 1415.99 958.898 1330.51 967.577 1232.33C967.737 1230.52 966.898 1228.77 965.396 1227.76L930.39 1204.19C927.571 1202.29 927.426 1198.19 930.103 1196.1L958.849 1173.63C960.478 1172.36 961.159 1170.22 960.53 1168.25C954.773 1150.21 940.588 1111.63 922.069 1080.87M800.622 1517.15C799.493 1500.2 796.215 1469.44 794.854 1447.72M794.854 1447.72C786.313 1311.36 776.511 1103.34 777.716 1017.03M794.854 1447.72C773.798 1412.42 725.292 1332.09 697.973 1263.19C697.382 1261.7 697.556 1260.03 698.422 1258.68L723.495 1219.66C724.931 1217.42 724.369 1214.46 722.215 1212.9L684.654 1185.79C683.225 1184.76 682.439 1183.07 682.62 1181.31C686.295 1145.62 702.605 1078.96 716.913 1020.98" stroke="black" stroke-width="22" stroke-linecap="round"/>
</g>
<defs>
<clipPath id="clip0_481_307">
<rect width="1500" height="1500" fill="white"/>
</clipPath>
</defs>
      <g clip-path="url(#clip0_497_1194)">
<path d="M379.667 654.812C432.345 471.574 618.472 401.981 699.114 390.653C740.985 382.718 849.655 375.215 949.364 408.675C980 418.956 1049.88 457.388 1091.92 499.818C1144.47 552.856 1272.97 732.052 1185.05 927.725C1097.12 1123.4 758.414 1092.29 612.749 1051.82C464.472 1010.63 314.48 881.563 379.667 654.812Z" fill="#AABBFF"/>
<path d="M449.293 747.204C454.734 531.068 585.306 432.345 649.911 410C432.292 459.565 365.296 655.455 364 747.204C377.99 984.871 584.496 1053.43 681 1058C601.498 1044.46 443.853 963.339 449.293 747.204Z" fill="#001647" fill-opacity="0.2"/>
<path d="M379.667 654.812C432.345 471.574 618.472 401.981 699.114 390.653C740.985 382.718 849.655 375.215 949.364 408.675C980 418.956 1049.88 457.388 1091.92 499.818C1144.47 552.856 1272.97 732.052 1185.05 927.725C1097.12 1123.4 758.414 1092.29 612.749 1051.82C464.472 1010.63 314.48 881.563 379.667 654.812Z" stroke="black" stroke-width="22" stroke-linecap="round"/>
</g>
<defs>
    <clipPath id="prefix__clip0_299_662"><path fill="#fff" d="M0 0h1500v1500H0z"/></clipPath>
</defs>
      <g clip-path="url(#clip0_624_3204)">
<path d="M876.086 925.246H970.499" stroke="black" stroke-width="22" stroke-linecap="round"/>
<path d="M865.708 768.06L844.448 768.047L821.695 768.027L792.828 768" stroke="black" stroke-width="22" stroke-linecap="round"/>
<path d="M850.019 773.927C852.061 777.245 853.087 781.09 852.968 784.985C852.85 788.88 851.593 792.655 849.352 795.844C847.112 799.032 843.986 801.494 840.361 802.925C836.737 804.357 832.772 804.695 828.958 803.897C825.143 803.1 821.646 801.202 818.898 798.439C816.15 795.676 814.273 792.168 813.497 788.349C812.721 784.53 813.081 780.567 814.533 776.951C815.985 773.334 818.464 770.223 821.665 768H844.419C846.675 769.567 848.582 771.585 850.019 773.927Z" fill="black" stroke="black" stroke-width="22" stroke-linecap="round"/>
<path d="M1033.71 768L1004.83 768.027L982.081 768.047L960.828 768.06" stroke="black" stroke-width="22" stroke-linecap="round"/>
<path d="M976.506 773.926C974.456 777.243 973.423 781.087 973.536 784.985C973.648 788.882 974.9 792.661 977.138 795.854C979.376 799.047 982.5 801.513 986.125 802.949C989.75 804.385 993.716 804.726 997.533 803.931C1001.35 803.136 1004.85 801.24 1007.6 798.476C1010.35 795.713 1012.23 792.203 1013.01 788.383C1013.78 784.562 1013.42 780.597 1011.97 776.979C1010.52 773.361 1008.04 770.248 1004.83 768.026H982.079C979.837 769.59 977.94 771.598 976.506 773.926Z" fill="black" stroke="black" stroke-width="22" stroke-linecap="round"/>
</g>
<defs>
<clipPath id="clip0_624_3204">
<rect width="1500" height="1500" fill="white"/>
</clipPath>
</defs>
      <g clip-path="url(#clip0_838_2287)">
<path opacity="0.4" d="M821.549 858C843.021 857.988 863.72 849.99 879.622 835.563C895.524 821.135 905.492 801.309 907.587 779.94C909.682 758.571 903.755 737.187 890.958 719.946C878.16 702.704 859.408 690.839 838.348 686.657C817.288 682.475 795.425 686.275 777.011 697.318C758.597 708.361 744.949 725.859 738.72 746.407C732.491 766.955 734.127 789.085 743.31 808.494C752.493 827.903 768.566 843.202 788.403 851.418C798.912 855.771 810.175 858.008 821.549 858Z" fill="white"/>
<ellipse cx="932" cy="915.5" rx="131" ry="69.5" fill="#AABBFF"/>
<path opacity="0.5" d="M755.001 714.699C755.001 714.699 754.214 696.527 795.319 691L872 841.914C872 841.914 857.773 858.504 827.655 857.988L755.001 714.699Z" fill="white"/>
<path opacity="0.5" d="M808 687.959C808 687.959 809.662 687.651 823.768 678L892 817.977C892 817.977 890.955 827.356 879.411 830L808 687.959Z" fill="white"/>
<path d="M847.684 952.99C796.393 960.533 771.057 930.01 764.065 911.56C763.735 910.688 764.715 909.945 765.529 910.399C794.794 926.75 833.656 903.637 851.184 871.99C854.749 865.552 859.18 860.308 864.102 856.095C892.633 831.676 933.121 867.002 920.263 902.286C911.028 927.625 887.792 947.092 847.684 952.99Z" fill="white"/>
<path d="M999.033 952.99C1050.32 960.533 1075.66 930.01 1082.65 911.56C1082.98 910.688 1082 909.945 1081.19 910.399C1051.92 926.75 1013.06 903.637 995.533 871.99C991.967 865.552 987.536 860.308 982.614 856.095C954.083 831.676 913.595 867.002 926.454 902.286C935.688 927.625 958.924 947.092 999.033 952.99Z" fill="white"/>
<path d="M883 852.5C880.2 911.7 822.5 934.5 794 938.5L769.5 916.5L826.5 903.5L851 878.5L858 857.5L883 852.5Z" fill="#001647" fill-opacity="0.2"/>
<path d="M970 938.5C944.8 914.9 950.833 871.333 957 852.5L940 854.5L924.5 867V897L945 925.5L970 938.5Z" fill="#001647" fill-opacity="0.2"/>
<path d="M696.5 746H737.5L735.5 778H696.5V746Z" fill="#FFBF44"/>
<path fill-rule="evenodd" clip-rule="evenodd" d="M923.128 858.444C920.378 854.373 917.104 850.735 913.467 847.667C898.471 835.019 875.672 830.954 856.916 847.007C851.117 851.97 845.915 858.138 841.752 865.655C833.922 879.792 821.289 891.997 807.644 898.738C794.019 905.47 780.618 906.266 769.722 900.179C765.529 897.836 760.758 898.595 757.539 901.103C754.19 903.712 752.131 908.602 754.03 913.613C762.359 935.589 791.66 969.745 848.455 961.393C885.007 956.018 909.903 939.731 923.128 916.788C936.352 939.732 961.248 956.018 997.801 961.393C1054.6 969.746 1083.9 935.59 1092.23 913.613C1094.12 908.602 1092.07 903.712 1088.72 901.103C1085.5 898.596 1080.73 897.836 1076.53 900.179C1065.64 906.267 1052.24 905.47 1038.61 898.738C1024.97 891.997 1012.33 879.792 1004.5 865.655C1000.34 858.139 995.139 851.971 989.339 847.007C970.583 830.954 947.785 835.019 932.789 847.667C929.152 850.735 925.878 854.373 923.128 858.444ZM900.572 862.955C891.406 855.225 879.695 853.836 869.921 862.202C865.875 865.664 862.216 869.985 859.248 875.345C849.55 892.854 833.989 908.03 816.504 916.669C806.518 921.603 795.503 924.563 784.473 924.29C795.948 935.954 815.484 946.027 845.545 941.606C882.845 936.121 902.468 918.54 910.183 897.371C914.966 884.247 909.941 870.857 900.572 862.955ZM945.683 862.956C936.315 870.857 931.289 884.248 936.072 897.371C943.787 918.541 963.411 936.121 1000.71 941.606C1030.77 946.027 1050.31 935.954 1061.78 924.29C1050.75 924.563 1039.74 921.603 1029.75 916.669C1012.27 908.03 996.705 892.854 987.008 875.345C984.039 869.985 980.38 865.664 976.335 862.202C966.56 853.836 954.849 855.225 945.683 862.956Z" fill="black"/>
<path d="M738 743H710.5C700.835 743 693 750.835 693 760.5V760.5C693 770.165 700.835 778 710.5 778H738M689.5 759L671.456 767.728C636.886 784.449 631.245 831.348 660.863 855.79V855.79C682.911 873.985 686.426 906.444 668.784 928.937L660.5 939.5" stroke="black" stroke-width="20" stroke-linecap="round"/>
<circle cx="822.5" cy="768.5" r="85.5" stroke="black" stroke-width="20"/>
</g>
<defs>
<clipPath id="clip0_838_2287">
<rect width="1500" height="1500" fill="white"/>
</clipPath>
</defs>
      <g clip-path="url(#clip0_786_1511)">
<path d="M348 775L369 729L432 708.5L555.5 668.5L699.5 639.5L848 627H1014L1171.5 626L1194 614C1148 466 952.5 317.5 699.5 360.5C497.1 394.9 394.833 548.833 369 621.5C350.167 630 303.6 633.4 262 649C220.4 664.6 192.833 723.333 185 742L214 752L276 760L272 789.5L269.5 844.5L316.5 819.5L348 775Z" fill="#99C4CB"/>
<path d="M740.5 357.5C585.7 413.5 517 606.833 523.5 681L365.5 728L337.5 806.5L276.5 848L267.5 831.5L276.5 757L233 751.5L188.5 742.5L196 721L228.5 675.5L295.5 638.5L371 619.5C458.6 418.7 664.5 358.167 740.5 357.5Z" fill="#001647" fill-opacity="0.2"/>
<path d="M365.499 733C361.229 766.691 346.6 822.9 278.017 846.491C272.108 848.524 266.062 844.256 266.142 838.007C266.414 816.515 271.11 785.909 284.173 755.5M352.69 674C349.439 692.112 348.907 708.667 351.213 722.797C352.132 728.423 358.007 731.46 363.407 729.632C567.243 660.623 776.1 608.066 1183.08 624.375C1190.15 624.658 1195.45 617.788 1192.83 611.211C1146.56 495.051 1004.12 307.96 674.999 368.5C517.477 397.475 410.414 517.784 368.974 619.5M352.69 674C355.747 656.968 361.208 638.561 368.974 619.5M352.69 674C318.787 694.711 297.273 725.007 284.173 755.5M368.974 619.5C275.567 629.083 217.031 666.673 189.87 735.352C187.877 740.391 190.542 746.023 195.709 747.656C215.238 753.828 249.504 761.579 284.173 755.5" stroke="black" stroke-width="22" stroke-linecap="round"/>
</g>
<defs>
<clipPath id="clip0_786_1511">
<rect width="1500" height="1500" fill="white"/>
</clipPath>
</defs>
      
    </g>
    </svg>