<svg
      xmlns="http://www.w3.org/2000/svg"
      preserveAspectRatio="xMidYMin meet"
      fill="none"
      viewBox="0 0 1500 1500"
    >
      <g>
      <path fill="url(#prefix__a1)" d="M0 0h1500v1500H0z"/><defs><linearGradient id="prefix__a1" x1="1500" y1="1500" x2="0" y2="0" gradientUnits="userSpaceOnUse">
<stop stop-color="#1555D1"/>
<stop offset="1" stop-color="#70E5FF"/>
</linearGradient></defs>
      <g clip-path="url(#clip0_496_924)">
<path d="M412 1344L351 1510.5H1139.5L1072 1282L994 1158.5L934 1099L920 1158.5L842 1099L761 1168.5L702.5 1137.5L626 1061L505 1185.5L412 1344Z" fill="#53B6F9"/>
<path d="M782 1014.5C704.8 1008.9 645.5 1043.17 625.5 1061L676.5 1117L762 1167.5L834.5 1103L924 1156V1081.5C908.833 1061.5 859.2 1020.1 782 1014.5Z" fill="#F56CDB"/>
<path d="M353.5 1519.5C365.5 1454.33 414.5 1313.6 483.5 1219C529.307 1156.2 575.854 1103.13 626.504 1061.8M1142.5 1519.5C1103.44 1290.29 1000.08 1146.05 905.02 1064.27C826.037 996.323 710.273 994.302 629.137 1059.66C628.258 1060.37 627.38 1061.08 626.504 1061.8M1013.5 1319C1024.83 1354.33 1048.1 1443.9 1050.5 1519.5M667 1361.5C661.167 1392.33 650.3 1467.1 653.5 1519.5M926 1087C934.762 1114.34 929.833 1141.11 925.003 1154.27C924.105 1156.72 921.076 1157.36 919.054 1155.71C913.678 1151.34 905.408 1144.87 896 1137.66C878.238 1124.04 856.424 1107.73 842.381 1097.69C841.674 1097.19 840.824 1097.04 840.032 1097.2M840 1096.5C840.01 1096.73 840.021 1096.96 840.032 1097.2M840.032 1097.2C841.872 1137.95 845.216 1220.71 848 1239M840.032 1097.2C839.339 1097.34 838.69 1097.72 838.219 1098.32C827.763 1111.55 809.829 1128.31 793.42 1142.5C783.296 1151.26 773.753 1159.03 766.905 1164.4C766.012 1165.1 764.867 1165.39 763.753 1165.17C707.225 1153.99 651.021 1094.56 626.504 1061.8" stroke="black" stroke-width="22" stroke-linecap="round"/>
<circle cx="807" cy="1234" r="11" fill="black"/>
<circle cx="804" cy="1191" r="11" fill="black"/>
<circle cx="802" cy="1151" r="11" fill="black"/>
<path d="M409.87 1339.62C462.691 1207.98 569.086 1113.24 605.384 1082.33L632.5 1058L637.5 1059.48C599.917 1079.63 651 1067.5 648.91 1093.5L659.5 1099.5L764.5 1175C714.1 1177.8 656.5 1131.81 634 1108.47C506.332 1241.92 454.501 1434.51 443.159 1511H353.699C350.414 1508.73 357.049 1471.27 409.87 1339.62Z" fill="#001647" fill-opacity="0.2"/>
<path d="M898.993 1164.13L846 1122L848.5 1108.47L886.5 1134C902.5 1140.17 933.5 1154.7 929.5 1163.5C927.233 1168.49 922.182 1170.5 917.169 1171.06C910.478 1171.81 904.264 1168.32 898.993 1164.13Z" fill="#001647" fill-opacity="0.2"/>
<path fill-rule="evenodd" clip-rule="evenodd" d="M964.41 1287.05L945.22 1277.82L944.91 1274.73L962.15 1277.18L974.38 1257.54L970.4 1254.77L973.67 1250.15L967.51 1245.86L964.51 1250.73L960.48 1247.91L953.34 1259.35L943.47 1257.8L934.39 1231L928.3 1232.71L931.78 1242.2L928.84 1243.04L925.38 1233.58L919.06 1235.25L926.49 1255.84L910.23 1253.46L898 1273.1L902.05 1275.92L899.05 1280.79L905.21 1285.09L907.95 1279.95L911.63 1282.46L918.99 1270.77L928.38 1272.06L928.98 1277.93L911.64 1286.89L913.93 1309.36H918.43L919.08 1315.77H926.09L925.46 1309.62H929.96L928.71 1297.3L938.33 1292.34L949.21 1297.42L950.45 1309.62H954.95L955.58 1315.77H962.59L961.97 1309.62H966.72L964.41 1287.05ZM915.57 1263.96L909.6 1273.54L906.81 1271.63L913.7 1260.53L927.41 1262.57L927.75 1265.88L915.57 1263.96ZM956.57 1266.68L962.59 1257.03L965.53 1259.08L958.69 1270.12L944.23 1268.06L943.89 1264.75L956.57 1266.68ZM956.8 1303.02L955.8 1293.19L938.31 1284.94L922.29 1293.31L923.29 1303.02H919.8L918.59 1291.15L935.91 1282.19L933.67 1257.61L930.6 1249.24L933.49 1248.41L936.76 1258.66L939.15 1282.05L958.81 1291.02L960.04 1303.02H956.8Z" fill="black"/>
</g>
<defs>
<clipPath id="clip0_496_924">
<rect width="1500" height="1500" fill="white"/>
</clipPath>
</defs>
      <g clip-path="url(#clip0_497_1194)">
<path d="M379.667 654.812C432.345 471.574 618.472 401.981 699.114 390.653C740.985 382.718 849.655 375.215 949.364 408.675C980 418.956 1049.88 457.388 1091.92 499.818C1144.47 552.856 1272.97 732.052 1185.05 927.725C1097.12 1123.4 758.414 1092.29 612.749 1051.82C464.472 1010.63 314.48 881.563 379.667 654.812Z" fill="#AABBFF"/>
<path d="M449.293 747.204C454.734 531.068 585.306 432.345 649.911 410C432.292 459.565 365.296 655.455 364 747.204C377.99 984.871 584.496 1053.43 681 1058C601.498 1044.46 443.853 963.339 449.293 747.204Z" fill="#001647" fill-opacity="0.2"/>
<path d="M379.667 654.812C432.345 471.574 618.472 401.981 699.114 390.653C740.985 382.718 849.655 375.215 949.364 408.675C980 418.956 1049.88 457.388 1091.92 499.818C1144.47 552.856 1272.97 732.052 1185.05 927.725C1097.12 1123.4 758.414 1092.29 612.749 1051.82C464.472 1010.63 314.48 881.563 379.667 654.812Z" stroke="black" stroke-width="22" stroke-linecap="round"/>
</g>
<defs>
    <clipPath id="prefix__clip0_299_662"><path fill="#fff" d="M0 0h1500v1500H0z"/></clipPath>
</defs>
      <g clip-path="url(#clip0_624_3562)">
<path d="M799.421 789.214L858.141 778.547C859.189 778.352 860.151 777.837 860.895 777.073C861.639 776.309 862.128 775.334 862.294 774.28C862.455 773.224 862.285 772.143 861.808 771.187C861.331 770.234 860.569 769.453 859.628 768.954L804.701 739.807" stroke="black" stroke-width="22" stroke-miterlimit="10" stroke-linecap="round"/>
<path d="M1037.67 789.214L979.001 778.547C977.951 778.355 976.987 777.841 976.243 777.076C975.499 776.312 975.011 775.335 974.847 774.28C974.687 773.227 974.854 772.149 975.327 771.194C975.804 770.237 976.569 769.453 977.514 768.954L1032.44 739.807" stroke="black" stroke-width="22" stroke-miterlimit="10" stroke-linecap="round"/>
<path d="M992 915.801C992 944.083 960.211 967 921 967C881.789 967 850 944.083 850 915.801C850.013 910.144 851.278 904.561 853.703 899.453C858.875 888.383 870.646 884.1 880.667 889.061C892.124 894.775 906.017 898.12 921.008 898.12C935.999 898.12 949.884 894.775 961.349 889.061C971.354 884.068 983.133 888.383 988.313 899.453C990.733 904.562 991.993 910.145 992 915.801Z" fill="white" stroke="black" stroke-width="22" stroke-miterlimit="10"/>
</g>
<defs>
<clipPath id="clip0_624_3562">
<rect width="1500" height="1500" fill="white"/>
</clipPath>
</defs>
      <g clip-path="url(#clip0_838_2287)">
<path opacity="0.4" d="M821.549 858C843.021 857.988 863.72 849.99 879.622 835.563C895.524 821.135 905.492 801.309 907.587 779.94C909.682 758.571 903.755 737.187 890.958 719.946C878.16 702.704 859.408 690.839 838.348 686.657C817.288 682.475 795.425 686.275 777.011 697.318C758.597 708.361 744.949 725.859 738.72 746.407C732.491 766.955 734.127 789.085 743.31 808.494C752.493 827.903 768.566 843.202 788.403 851.418C798.912 855.771 810.175 858.008 821.549 858Z" fill="white"/>
<ellipse cx="932" cy="915.5" rx="131" ry="69.5" fill="#AABBFF"/>
<path opacity="0.5" d="M755.001 714.699C755.001 714.699 754.214 696.527 795.319 691L872 841.914C872 841.914 857.773 858.504 827.655 857.988L755.001 714.699Z" fill="white"/>
<path opacity="0.5" d="M808 687.959C808 687.959 809.662 687.651 823.768 678L892 817.977C892 817.977 890.955 827.356 879.411 830L808 687.959Z" fill="white"/>
<path d="M847.684 952.99C796.393 960.533 771.057 930.01 764.065 911.56C763.735 910.688 764.715 909.945 765.529 910.399C794.794 926.75 833.656 903.637 851.184 871.99C854.749 865.552 859.18 860.308 864.102 856.095C892.633 831.676 933.121 867.002 920.263 902.286C911.028 927.625 887.792 947.092 847.684 952.99Z" fill="white"/>
<path d="M999.033 952.99C1050.32 960.533 1075.66 930.01 1082.65 911.56C1082.98 910.688 1082 909.945 1081.19 910.399C1051.92 926.75 1013.06 903.637 995.533 871.99C991.967 865.552 987.536 860.308 982.614 856.095C954.083 831.676 913.595 867.002 926.454 902.286C935.688 927.625 958.924 947.092 999.033 952.99Z" fill="white"/>
<path d="M883 852.5C880.2 911.7 822.5 934.5 794 938.5L769.5 916.5L826.5 903.5L851 878.5L858 857.5L883 852.5Z" fill="#001647" fill-opacity="0.2"/>
<path d="M970 938.5C944.8 914.9 950.833 871.333 957 852.5L940 854.5L924.5 867V897L945 925.5L970 938.5Z" fill="#001647" fill-opacity="0.2"/>
<path d="M696.5 746H737.5L735.5 778H696.5V746Z" fill="#FFBF44"/>
<path fill-rule="evenodd" clip-rule="evenodd" d="M923.128 858.444C920.378 854.373 917.104 850.735 913.467 847.667C898.471 835.019 875.672 830.954 856.916 847.007C851.117 851.97 845.915 858.138 841.752 865.655C833.922 879.792 821.289 891.997 807.644 898.738C794.019 905.47 780.618 906.266 769.722 900.179C765.529 897.836 760.758 898.595 757.539 901.103C754.19 903.712 752.131 908.602 754.03 913.613C762.359 935.589 791.66 969.745 848.455 961.393C885.007 956.018 909.903 939.731 923.128 916.788C936.352 939.732 961.248 956.018 997.801 961.393C1054.6 969.746 1083.9 935.59 1092.23 913.613C1094.12 908.602 1092.07 903.712 1088.72 901.103C1085.5 898.596 1080.73 897.836 1076.53 900.179C1065.64 906.267 1052.24 905.47 1038.61 898.738C1024.97 891.997 1012.33 879.792 1004.5 865.655C1000.34 858.139 995.139 851.971 989.339 847.007C970.583 830.954 947.785 835.019 932.789 847.667C929.152 850.735 925.878 854.373 923.128 858.444ZM900.572 862.955C891.406 855.225 879.695 853.836 869.921 862.202C865.875 865.664 862.216 869.985 859.248 875.345C849.55 892.854 833.989 908.03 816.504 916.669C806.518 921.603 795.503 924.563 784.473 924.29C795.948 935.954 815.484 946.027 845.545 941.606C882.845 936.121 902.468 918.54 910.183 897.371C914.966 884.247 909.941 870.857 900.572 862.955ZM945.683 862.956C936.315 870.857 931.289 884.248 936.072 897.371C943.787 918.541 963.411 936.121 1000.71 941.606C1030.77 946.027 1050.31 935.954 1061.78 924.29C1050.75 924.563 1039.74 921.603 1029.75 916.669C1012.27 908.03 996.705 892.854 987.008 875.345C984.039 869.985 980.38 865.664 976.335 862.202C966.56 853.836 954.849 855.225 945.683 862.956Z" fill="black"/>
<path d="M738 743H710.5C700.835 743 693 750.835 693 760.5V760.5C693 770.165 700.835 778 710.5 778H738M689.5 759L671.456 767.728C636.886 784.449 631.245 831.348 660.863 855.79V855.79C682.911 873.985 686.426 906.444 668.784 928.937L660.5 939.5" stroke="black" stroke-width="20" stroke-linecap="round"/>
<circle cx="822.5" cy="768.5" r="85.5" stroke="black" stroke-width="20"/>
</g>
<defs>
<clipPath id="clip0_838_2287">
<rect width="1500" height="1500" fill="white"/>
</clipPath>
</defs>
      <g clip-path="url(#clip0_602_2057)">
<path d="M485.677 1069L476 991.814L552.452 973L566 1047.29L485.677 1069Z" fill="#D9D9D9"/>
<path d="M449 673.403L473.817 994L558 970.754L540.482 655L449 673.403Z" fill="#9E6740"/>
<path d="M689.715 313.65C374.516 363.906 350.687 581.458 331 683.196L347.943 689L462.674 664.815L745.386 628.538L968.071 620.798H1187.85L1227.55 620.799C1220.5 601.763 1245.1 604.927 1227.55 585.489C1212.21 568.502 1155.29 529.195 1139.92 509.064C1061.02 359.601 919.607 276.995 689.715 313.65Z" fill="#87C848"/>
<path d="M368.793 546.578L347 611L559.604 563.047L858.896 527.688L1164 538.344L1120.41 476.344C1041.96 470.048 849.114 461.232 705.376 476.344C561.638 491.457 414.478 531.563 368.793 546.578Z" fill="#578926"/>
<path d="M354.805 607.428C476.023 574.142 811.042 510.951 1162.01 534.607M369.332 537.139C486.03 506.785 798.356 445.035 1112.62 468.788M1164.32 534.607C1149.49 523.278 1137.46 508.696 1129.14 491.983C1047.12 326.146 880.881 293.35 720.231 308.202C518.553 326.856 363.721 436.62 349.7 613.269C348.955 623.079 345.867 632.567 340.696 640.933L331.696 655.366C320.498 673.332 336.414 695.934 357.073 691.416L372.823 687.974C651.433 627.078 928.584 618.104 1213.71 624.872C1238.4 625.462 1245.68 597.325 1224.68 580.983L1164.32 534.607Z" stroke="black" stroke-width="22"/>
<path d="M474.799 992.99C461.462 879.626 453.96 744.374 451 677.558C480.474 671.392 511.052 665.894 542.35 661C541.207 760.499 549.767 882.067 558.524 971.177M474.799 992.99C478.105 1021.08 481.709 1047.54 485.603 1070.82C485.705 1071.44 486.331 1071.81 486.918 1071.6C501.057 1066.6 534.737 1055.74 566.107 1048.93C566.614 1048.82 566.952 1048.34 566.888 1047.83C564.513 1028.57 561.565 1002.12 558.524 971.177M474.799 992.99C485.865 988.789 518.103 978.545 558.524 971.177" stroke="black" stroke-width="22"/>
<path d="M702.24 319C559.917 386.786 495.089 582.234 484.586 659.381L360.004 687.948C333.02 701.828 310.946 702.237 366.306 540.272C427.87 360.156 633.405 323.196 702.24 319Z" fill="#001647" fill-opacity="0.2"/>
<path d="M484.607 680.424C485.432 772.726 510.281 990.112 519.973 1058.83L484.101 1069L447.26 680.685L508.339 655.992L488.173 672.845C485.9 674.745 484.581 677.461 484.607 680.424Z" fill="#001647" fill-opacity="0.2"/>
<path d="M1187 656C944.623 649.415 655.21 672.292 547.271 689.884L540 659.381L693.999 635.172L923.288 624.035L1174.88 626.37L1187 656Z" fill="#001647" fill-opacity="0.2"/>
</g>
<defs>
<clipPath id="clip0_602_2057">
<rect width="1500" height="1500" fill="white"/>
</clipPath>
</defs>
      
    </g>
    </svg>