<svg
      xmlns="http://www.w3.org/2000/svg"
      preserveAspectRatio="xMidYMin meet"
      fill="none"
      viewBox="0 0 1500 1500"
    >
      <g>
      <path fill="url(#prefix__paint0_linear_53_30460)" d="M0 0h1500v1500H0z"/><defs><linearGradient id="prefix__paint0_linear_53_30460" x1="0" y1="0" x2="1500" y2="1500" gradientUnits="userSpaceOnUse">
<stop stop-color="#F1FFBA"/>
<stop offset="1" stop-color="#65DCBA"/>
</linearGradient></defs>
      <g clip-path="url(#clip0_481_188)">
<path d="M822.5 1233.5L646 1049.5L588 1087L661 1162.5C706.5 1217.17 798.2 1327.5 801 1331.5C803.8 1335.5 879.167 1449.83 916.5 1506.5H996L872 1300.5L956.5 1121.5L904 1065.5L822.5 1233.5Z" fill="white"/>
<path d="M416.5 1343L353.5 1506H915.5L833.5 1370.5L593 1094.5L487.5 1206.5L416.5 1343Z" fill="#FF9C07"/>
<path d="M936 1395.5L996.5 1506H1140L1121 1432.5L1096 1349.5L1050.5 1256.5L996.5 1167L959 1125L869.5 1297L936 1395.5Z" fill="#FF9C07"/>
<path d="M416.5 1343L353.5 1506H915.5L833.5 1370.5L593 1094.5L487.5 1206.5L416.5 1343Z" stroke="black"/>
<path d="M936 1395.5L996.5 1506H1140L1121 1432.5L1096 1349.5L1050.5 1256.5L996.5 1167L959 1125L869.5 1297L936 1395.5Z" stroke="black"/>
<path d="M820 1233.5L647.5 1052C665.333 1040.5 715 1016.9 771 1014.5C827 1012.1 880 1045.17 899.5 1062L820 1233.5Z" fill="#AABBFF"/>
<path d="M409.87 1339.62C462.691 1207.98 569.086 1113.24 605.384 1082.33L674 1033.5L749.5 1019.5C699.204 1046.47 656.397 1082.67 620.155 1123.5L641 1146.5L697 1200L769.5 1290.5L871.5 1426.5L914.5 1511H889.5C862.667 1465 786.9 1356.6 730.5 1287C674.1 1217.4 622.589 1160.22 605.384 1140.83C498.462 1271.37 453.613 1440.5 443.159 1511H353.699C350.414 1508.73 357.049 1471.27 409.87 1339.62Z" fill="#001647" fill-opacity="0.2"/>
<path d="M353.5 1519.5C365.5 1454.33 414.5 1313.6 483.5 1219C530.101 1155.11 577.468 1101.29 629.141 1059.66C710.278 994.299 826.037 996.323 905.02 1064.27C1000.08 1146.05 1103.44 1290.29 1142.5 1519.5M1013.5 1319C1024.83 1354.33 1048.1 1443.9 1050.5 1519.5M667 1361.5C661.167 1392.33 650.3 1467.1 653.5 1519.5M592 1093.5C677.5 1177.33 857.5 1384.5 921.5 1516.5M870.895 1302C924.689 1373.66 972.467 1449.01 998.5 1516.5M870.895 1302C892.264 1267.83 939 1185 959 1119M870.895 1302C854.413 1280.04 837.366 1258.43 820.206 1237.5M820.206 1237.5C842.304 1198 890.5 1112.6 898.5 1067M820.206 1237.5C756.694 1160.02 691.644 1091.84 648 1049.77" stroke="black" stroke-width="22" stroke-linecap="round"/>
</g>
<defs>
<clipPath id="clip0_481_188">
<rect width="1500" height="1500" fill="white"/>
</clipPath>
</defs>
      <g clip-path="url(#clip0_497_1194)">
<path d="M379.667 654.812C432.345 471.574 618.472 401.981 699.114 390.653C740.985 382.718 849.655 375.215 949.364 408.675C980 418.956 1049.88 457.388 1091.92 499.818C1144.47 552.856 1272.97 732.052 1185.05 927.725C1097.12 1123.4 758.414 1092.29 612.749 1051.82C464.472 1010.63 314.48 881.563 379.667 654.812Z" fill="#AABBFF"/>
<path d="M449.293 747.204C454.734 531.068 585.306 432.345 649.911 410C432.292 459.565 365.296 655.455 364 747.204C377.99 984.871 584.496 1053.43 681 1058C601.498 1044.46 443.853 963.339 449.293 747.204Z" fill="#001647" fill-opacity="0.2"/>
<path d="M379.667 654.812C432.345 471.574 618.472 401.981 699.114 390.653C740.985 382.718 849.655 375.215 949.364 408.675C980 418.956 1049.88 457.388 1091.92 499.818C1144.47 552.856 1272.97 732.052 1185.05 927.725C1097.12 1123.4 758.414 1092.29 612.749 1051.82C464.472 1010.63 314.48 881.563 379.667 654.812Z" stroke="black" stroke-width="22" stroke-linecap="round"/>
</g>
<defs>
    <clipPath id="prefix__clip0_299_662"><path fill="#fff" d="M0 0h1500v1500H0z"/></clipPath>
</defs>
      <g clip-path="url(#clip0_624_3413)">
<path d="M922.5 969C931.895 969 941.078 966.214 948.89 960.995C956.701 955.775 962.789 948.357 966.384 939.677C969.979 930.998 970.92 921.447 969.087 912.233C967.254 903.019 962.731 894.555 956.088 887.912C949.445 881.269 940.981 876.746 931.767 874.913C922.553 873.08 913.002 874.021 904.323 877.616C895.643 881.211 888.225 887.299 883.005 895.11C877.786 902.922 875 912.105 875 921.5C875 927.738 876.229 933.914 878.616 939.677C881.003 945.44 884.502 950.677 888.912 955.088C893.323 959.498 898.56 962.997 904.323 965.384C910.085 967.771 916.262 969 922.5 969Z" fill="white" stroke="black" stroke-width="22" stroke-miterlimit="10" stroke-linecap="round"/>
<path d="M822 818C849.062 818 871 796.062 871 769C871 741.938 849.062 720 822 720C794.938 720 773 741.938 773 769C773 796.062 794.938 818 822 818Z" fill="white" stroke="black" stroke-width="20" stroke-miterlimit="10"/>
<path d="M1012 818C1039.06 818 1061 796.062 1061 769C1061 741.938 1039.06 720 1012 720C984.938 720 963 741.938 963 769C963 796.062 984.938 818 1012 818Z" fill="white" stroke="black" stroke-width="20" stroke-miterlimit="10"/>
<path d="M822 782C829.18 782 835 776.18 835 769C835 761.82 829.18 756 822 756C814.82 756 809 761.82 809 769C809 776.18 814.82 782 822 782Z" fill="black"/>
<path d="M1012 782C1019.18 782 1025 776.18 1025 769C1025 761.82 1019.18 756 1012 756C1004.82 756 999 761.82 999 769C999 776.18 1004.82 782 1012 782Z" fill="black"/>
</g>
<defs>
<clipPath id="clip0_624_3413">
<rect width="1500" height="1500" fill="white"/>
</clipPath>
</defs>
      <g clip-path="url(#clip0_838_2238)">
<ellipse cx="932" cy="915.5" rx="131" ry="69.5" fill="#AABBFF"/>
<path d="M993 969L1016.5 1012.5L1037.5 996L1012.5 942L977 913.5L939 917L993 969Z" fill="#3A3A3A"/>
<path d="M1039.5 1003L1011 1013.5L1020 1036.5L1043.5 1028.5L1039.5 1003Z" fill="#FFBF44"/>
<path d="M1111 1190C1050.6 1187.6 1024.17 1090.67 1018.5 1042.5C1016.1 1033.3 1033.83 1025 1043 1022L1052.5 1054L1075 1091L1084.5 1077L1131 1093L1184 1091C1184.83 1125 1171.4 1192.4 1111 1190Z" fill="#9E6740"/>
<path d="M1103 1158C1127 1164.4 1158.5 1149.83 1168 1141.5L1153.5 1174L1122 1192.5L1074 1182L1042.5 1145.5L1015.5 1044.5L1002 999.5L962 936.5L953 917.5C960.333 920.833 980.4 934.2 1002 961C1029 994.5 1035.5 1060.5 1050.5 1101C1065.6 1141.76 1073 1150 1103 1158Z" fill="#001647" fill-opacity="0.2"/>
<path d="M1113.5 1058C1078.7 1060 1090.67 1074.17 1101 1081L1179 1087.5L1189.5 1070C1178.67 1065.17 1148.3 1056 1113.5 1058Z" fill="#5B3827"/>
<path d="M1184 1076C1188.5 1149.5 1158 1190 1110 1188.5C1062 1187 1030 1153 1017.5 1055.5C1005.31 960.383 954.125 927.51 925.593 915.926M1079.5 1089.5C1061 1080.5 1053.8 1050.5 1036.5 992.5C1023.91 950.292 989.218 924.962 969.059 912.307M1080.5 1114.5C1080.17 1104.5 1079.2 1078.7 1084 1065.5M1011.5 1008L1034 996.5M1022 1042L1045.5 1030.5M876 912C898 917 932.891 916.736 969.059 912.307M1014 902.5C1000.47 907.255 984.917 910.365 969.059 912.307M915.5 954C926.667 958 954.1 963.2 974.5 952" stroke="black" stroke-width="20" stroke-linecap="round"/>
<ellipse cx="1134.29" cy="1070.01" rx="50.8114" ry="18.5698" transform="rotate(6.18578 1134.29 1070.01)" stroke="black" stroke-width="21"/>
</g>
<defs>
<clipPath id="clip0_838_2238">
<rect width="1500" height="1500" fill="white"/>
</clipPath>
</defs>
      <g clip-path="url(#clip0_797_1935)">
<path d="M778.32 618.992C732.316 652.118 694.23 627.98 679.668 610.456C679.157 609.841 678.159 610.009 677.884 610.761C669.528 633.659 642.971 668.377 597.671 637.802C597.105 637.42 596.305 637.664 596.101 638.316C588.493 662.622 563.234 699.839 518.947 665.637C518.326 665.158 517.378 665.497 517.267 666.274C513.621 691.674 494.316 732.913 443.408 708.441C442.916 708.205 442.306 708.379 442.049 708.86C431.681 728.28 402.873 756.444 366.411 720.409C366.162 720.163 365.804 720.049 365.462 720.128C345.832 724.651 302.407 716.493 310.32 670.989C310.414 670.452 310.08 669.914 309.548 669.792C285.64 664.323 254.684 637.693 284.948 590.845C285.245 590.386 285.146 589.761 284.698 589.447C265.719 576.144 239.77 542.719 281.101 510.198C281.568 509.831 281.652 509.135 281.258 508.691C265.973 491.441 257.362 445.131 303.621 422.916C304.102 422.685 304.331 422.088 304.13 421.593C278.525 358.362 310.831 340.761 353.923 334.65C354.5 334.568 354.887 333.983 354.767 333.412C339.785 262.041 399.108 252.25 433.313 257.799C433.935 257.9 434.485 257.378 434.477 256.747C433.614 190.873 488.629 193.994 517.914 207.007C518.486 207.262 519.149 206.909 519.311 206.303C534.019 151.325 591.46 165.03 615.936 181.277C616.484 181.641 617.229 181.359 617.459 180.742C637.478 127.018 685.224 145.62 707.619 162.333C708.097 162.69 708.783 162.528 709.096 162.019C741.06 110.016 788.168 134.291 806.283 154.678C806.677 155.121 807.373 155.109 807.786 154.684C848.463 112.933 885.946 142.547 900.357 163.546C900.704 164.051 901.43 164.109 901.888 163.702C944.488 125.847 976.412 157.642 987.575 179.166C987.82 179.638 988.404 179.823 988.894 179.614C1034.73 160.09 1050.15 192.591 1052.37 212.628C1052.44 213.306 1053.18 213.711 1053.81 213.451C1099.59 194.592 1115.79 228.48 1118.38 248.933C1118.45 249.513 1119.02 249.901 1119.59 249.798C1170.35 240.711 1177.53 276.49 1174.69 296.774C1174.6 297.409 1175.14 297.963 1175.78 297.935C1222.29 295.882 1223.42 330.149 1217.87 348.801C1217.69 349.419 1218.15 350.052 1218.79 350.113C1265.88 354.579 1260.1 389.775 1250.91 407.714C1250.68 408.168 1250.84 408.73 1251.26 409.021C1293.6 438.395 1274.36 468.139 1258.73 479.96C1258.31 480.273 1258.22 480.859 1258.48 481.306C1281.04 519.674 1258.36 536.792 1244.61 544.854C1244.05 545.185 1243.96 545.975 1244.42 546.449C1277.86 581.608 1253.39 610.387 1232.24 617.268C1231.8 617.41 1231.52 617.843 1231.53 618.302C1233.35 668.841 1174.73 666.767 1160.03 643.385C1159.73 642.906 1159.08 642.756 1158.6 643.047C1113.14 670.393 1078.93 643.457 1066.69 624.601C1066.33 624.046 1065.54 623.996 1065.08 624.475C1029.07 662.135 988.776 640.543 972.247 624.25C971.834 623.842 971.159 623.886 970.769 624.316C938.22 660.212 898.794 639.713 882.265 624.229C881.842 623.832 881.169 623.893 880.789 624.331C847.162 663.14 799.805 637.39 779.595 619.045C779.241 618.723 778.708 618.713 778.32 618.992Z" fill="#F56CDB"/>
<path d="M778.32 618.992C732.316 652.118 694.23 627.98 679.668 610.456C679.157 609.841 678.159 610.009 677.884 610.761C669.528 633.659 642.971 668.377 597.671 637.802C597.105 637.42 596.305 637.664 596.101 638.316C588.493 662.622 563.234 699.839 518.947 665.637C518.326 665.158 517.378 665.497 517.267 666.274C513.621 691.674 494.316 732.913 443.408 708.441C442.916 708.205 442.306 708.379 442.049 708.86C431.681 728.28 402.873 756.444 366.411 720.409C366.162 720.163 365.804 720.049 365.462 720.128C345.832 724.651 302.407 716.493 310.32 670.989C310.414 670.452 310.08 669.914 309.548 669.792C285.64 664.323 254.684 637.693 284.948 590.845C285.245 590.386 285.146 589.761 284.698 589.447C265.719 576.144 239.77 542.719 281.101 510.198C281.568 509.831 281.652 509.135 281.258 508.691C265.973 491.441 257.362 445.131 303.621 422.916C304.102 422.685 304.331 422.088 304.13 421.593C278.525 358.362 310.831 340.761 353.923 334.65C354.5 334.568 354.887 333.983 354.767 333.412C339.785 262.041 399.108 252.25 433.313 257.799C433.935 257.9 434.485 257.378 434.477 256.747C433.614 190.873 488.629 193.994 517.914 207.007C518.486 207.262 519.149 206.909 519.311 206.303C534.019 151.325 591.46 165.03 615.936 181.277C616.484 181.641 617.229 181.359 617.459 180.742C637.478 127.018 685.224 145.62 707.619 162.333C708.097 162.69 708.783 162.528 709.096 162.019C741.06 110.016 788.168 134.291 806.283 154.678C806.677 155.121 807.373 155.109 807.786 154.684C848.463 112.933 885.946 142.547 900.357 163.546C900.704 164.051 901.43 164.109 901.888 163.702C944.488 125.847 976.412 157.642 987.575 179.166C987.82 179.638 988.404 179.823 988.894 179.614C1034.73 160.09 1050.15 192.591 1052.37 212.628C1052.44 213.306 1053.18 213.711 1053.81 213.451C1099.59 194.592 1115.79 228.48 1118.38 248.933C1118.45 249.513 1119.02 249.901 1119.59 249.798C1170.35 240.711 1177.53 276.49 1174.69 296.774C1174.6 297.409 1175.14 297.963 1175.78 297.935C1222.29 295.882 1223.42 330.149 1217.87 348.801C1217.69 349.419 1218.15 350.052 1218.79 350.113C1265.88 354.579 1260.1 389.775 1250.91 407.714C1250.68 408.168 1250.84 408.73 1251.26 409.021C1293.6 438.395 1274.36 468.139 1258.73 479.96C1258.31 480.273 1258.22 480.859 1258.48 481.306C1281.04 519.674 1258.36 536.792 1244.61 544.854C1244.05 545.185 1243.96 545.975 1244.42 546.449C1277.86 581.608 1253.39 610.387 1232.24 617.268C1231.8 617.41 1231.52 617.843 1231.53 618.302C1233.35 668.841 1174.73 666.767 1160.03 643.385C1159.73 642.906 1159.08 642.756 1158.6 643.047C1113.14 670.393 1078.93 643.457 1066.69 624.601C1066.33 624.046 1065.54 623.996 1065.08 624.475C1029.07 662.135 988.776 640.543 972.247 624.25C971.834 623.842 971.159 623.886 970.769 624.316C938.22 660.212 898.794 639.713 882.265 624.229C881.842 623.832 881.169 623.893 880.789 624.331C847.162 663.14 799.805 637.39 779.595 619.045C779.241 618.723 778.708 618.713 778.32 618.992Z" stroke="black" stroke-width="22" stroke-linecap="round"/>
<path d="M620.986 645.219C614.221 646.292 605.377 646.031 596.827 643.677L586.5 660L566.932 682.993C566.67 683.3 566.25 683.42 565.865 683.297L529.483 671.655C529.179 671.557 528.848 671.611 528.59 671.798L512.5 683.5L473.344 715.717C473.125 715.897 472.84 715.976 472.56 715.934L443.499 711.575C443.185 711.528 442.868 711.632 442.643 711.857L422.254 732.246C422.09 732.41 421.874 732.512 421.643 732.535L391.352 735.466C391.124 735.488 390.896 735.431 390.705 735.305L366.157 719.103C366.053 719.035 365.938 718.987 365.817 718.96L322.49 709.606C322.182 709.539 321.923 709.331 321.792 709.044L306.037 674.581C306.012 674.527 305.983 674.475 305.949 674.427L273.273 627.393C273.1 627.145 273.05 626.831 273.135 626.541L282.871 593.44C282.953 593.161 282.909 592.859 282.751 592.615L261.16 559.248C261.056 559.086 261 558.897 261 558.705V528.473C261 528.174 261.134 527.89 261.366 527.7L280.066 512.356C280.336 512.135 280.47 511.789 280.422 511.444L273.057 458.908C273.021 458.646 273.088 458.382 273.246 458.17L302.261 419.321C302.414 419.115 302.483 418.858 302.452 418.603L296.073 365.603C296.028 365.232 296.193 364.868 296.501 364.658L336.932 337.047C336.977 337.016 337.02 336.981 337.06 336.943L348.81 325.682C348.934 325.563 349.026 325.413 349.076 325.248L359.436 290.713C359.478 290.573 359.551 290.443 359.648 290.334L380.275 267.252C380.421 267.089 380.617 266.978 380.832 266.936L431.689 257.156C432.16 257.065 432.5 256.653 432.5 256.174V240.36C432.5 240.127 432.581 239.902 432.729 239.723L463.2 202.863C463.39 202.633 463.673 202.5 463.971 202.5H516.621C516.865 202.5 517.101 202.411 517.284 202.248L556.133 167.825C556.365 167.62 556.678 167.533 556.981 167.591L614.54 178.413C614.831 178.468 615.132 178.391 615.361 178.202L656.586 144.178C656.844 143.965 657.193 143.895 657.514 143.993L700.071 156.972C710.689 138.773 730.764 134.451 749.613 136.447L764.693 127.48C765.147 127.21 765.732 127.34 766.03 127.775L774.989 140.892C775.559 141.727 774.664 142.818 773.726 142.443C766.631 139.602 758.25 137.361 749.613 136.447L710.38 159.774C710.138 159.918 709.846 159.953 709.577 159.871L700.071 156.972C696.874 162.451 694.534 169.189 693.343 177.391C692.167 185.491 684.959 191.879 676.775 191.729C645.377 191.153 606.18 204.072 610.724 253.904C611.417 261.498 606.443 268.723 598.986 270.318C565.254 277.532 542.435 294.978 558.009 342.104C560.214 348.779 557.262 356.127 551.416 360.031C523.521 378.656 523.528 407.868 531.92 426.637C535.118 433.79 534.243 443.005 528.95 448.782C507.316 472.397 518.942 495.408 533.299 509.37C538.474 514.403 540.031 522.447 536.842 528.923C520.715 561.668 537.504 582.722 556.295 591.666C562.735 594.731 567.121 601.466 567.364 608.594C568.067 629.222 582.006 639.595 596.827 643.677L601.55 636.212C601.81 635.801 602.329 635.636 602.778 635.823L621.148 643.451C622.041 643.822 621.942 645.067 620.986 645.219Z" fill="#001647" fill-opacity="0.2"/>
</g>
<defs>
<clipPath id="clip0_797_1935">
<rect width="1500" height="1500" fill="white"/>
</clipPath>
</defs>
      
    </g>
    </svg>