<svg
      xmlns="http://www.w3.org/2000/svg"
      preserveAspectRatio="xMidYMin meet"
      fill="none"
      viewBox="0 0 1500 1500"
    >
      <g>
      <path fill="url(#prefix__paint0_linear_53_28788)" d="M0 0h1500v1500H0z"/><defs><linearGradient id="prefix__paint0_linear_53_28788" x1="0" y1="0" x2="1500" y2="1500" gradientUnits="userSpaceOnUse">
<stop stop-color="#DBE4E4"/>
<stop offset="1" stop-color="#A7BDBD"/>
</linearGradient></defs>
      <g clip-path="url(#clip0_483_458)">
<path d="M388.5 1416.5L352.5 1511L1142 1512L1129 1431.5L1070.5 1276L1007 1176L1042 1113L1028 1043.5C1005.33 1055.83 926.6 1079 793 1073C659.4 1067 549.333 1018.83 511 995.5C492.833 1014.83 453.2 1067.2 440 1122C426.8 1176.8 459.5 1220.83 477.5 1236L388.5 1416.5Z" fill="url(#paint0_linear_483_458)"/>
<path d="M353.698 1511C350.413 1508.73 360.049 1471.27 412.869 1339.62C429.682 1297.72 453.924 1259.56 477.605 1226C485.368 1215 376 1149.5 506.5 995L661 1046.5L683.5 1051C662.368 1062.33 708.557 1043.79 690 1058.04C521.079 1187.75 456.033 1424.17 443.158 1511H353.698Z" fill="#001647" fill-opacity="0.2"/>
<path d="M358.5 1507.5C371.341 1452.7 410.793 1338.13 480.097 1232M553.5 1137.5C526.081 1166.82 501.646 1199 480.097 1232M480.097 1232C440.958 1203.88 392.15 1116.57 509.46 992.073C509.77 991.743 510.252 991.637 510.651 991.852C600.161 1040.15 826.624 1117.43 1022.78 1043.27C1023.2 1043.11 1023.69 1043.26 1023.95 1043.63C1058.52 1092.29 1025.8 1150.61 1005.51 1174.4C1005.21 1174.76 1005.18 1175.25 1005.46 1175.62C1045.94 1229.92 1124.17 1371.22 1141.5 1507.5M721 1157C757.667 1176.33 851.2 1204.5 932 1162.5M1013.5 1319C1024.83 1354.33 1048.1 1443.9 1050.5 1519.5M667 1361.5C661.166 1392.33 650.3 1467.1 653.5 1519.5" stroke="black" stroke-width="22" stroke-linecap="round"/>
<path d="M913.864 1358.04L911.602 1362.76H926.191L928.413 1358.04H913.864ZM920.116 1345.06L917.856 1349.75H932.351L934.56 1345.06H920.121H920.116ZM920.116 1345.06L917.856 1349.75H932.351L934.56 1345.06H920.121H920.116ZM911.608 1362.75H926.197L928.419 1358.04H913.865L911.603 1362.75H911.608ZM979.288 1364.34L946.433 1286.09C945.911 1284.83 945.135 1283.8 944.186 1283.09C943.274 1282.4 942.22 1282.03 941.155 1282H941.07C939.991 1282 938.908 1282.36 937.948 1283.05L937.947 1283.06C936.986 1283.74 936.164 1284.74 935.574 1285.94L935.561 1285.97L935.546 1286L898.122 1363.8L898.108 1363.83L898.093 1363.87C897.483 1365.18 897.129 1366.68 897.076 1368.2L897.076 1368.27C897.038 1369.8 897.311 1371.31 897.851 1372.65L897.87 1372.7L897.889 1372.74C898.452 1374.06 899.283 1375.17 900.289 1375.94C901.322 1376.74 902.515 1377.16 903.733 1377.16H973.274C974.408 1377.16 975.542 1376.78 976.552 1376.06L976.569 1376.05L976.585 1376.04C977.62 1375.28 978.489 1374.19 979.098 1372.88L979.167 1372.74C979.387 1372.29 979.551 1371.81 979.663 1371.31C979.915 1370.43 980.057 1369.52 980.075 1368.59C980.11 1367.1 979.836 1365.62 979.285 1364.33L979.288 1364.34ZM938.965 1288.64C939.178 1288.21 939.476 1287.84 939.824 1287.6C940.176 1287.35 940.569 1287.22 940.959 1287.22C941.347 1287.22 941.733 1287.36 942.069 1287.62C942.401 1287.86 942.677 1288.23 942.857 1288.67L944.719 1293.1L930.749 1322.17H948.999L946.113 1315.31L945.248 1317.6H937.221L946.672 1297.97L960.454 1330.96H918.668L938.965 1288.64ZM903.857 1371.96C903.358 1371.96 902.867 1371.78 902.446 1371.46C902.029 1371.13 901.685 1370.68 901.449 1370.13C901.216 1369.56 901.106 1368.92 901.121 1368.28C901.142 1367.64 901.291 1367.01 901.549 1366.46L916.26 1335.84H947.162L930.084 1371.96H903.857ZM975.633 1370.33C975.402 1370.83 975.072 1371.24 974.679 1371.53C974.282 1371.81 973.838 1371.96 973.393 1371.96H934.365L951.447 1335.84H962.511L968.893 1350.9H960.497L958.08 1345.32H955.183L947.126 1362.48H965.357L962.524 1355.67H970.96L975.709 1366.95C975.927 1367.45 976.031 1368.02 976.019 1368.6C976.007 1369.17 975.87 1369.82 975.629 1370.32L975.633 1370.33ZM920.111 1345.06L917.851 1349.75H932.346L934.555 1345.06H920.116H920.111ZM911.603 1362.75H926.192L928.414 1358.04H913.865L911.603 1362.75Z" fill="white"/>
</g>
<defs>
<linearGradient id="paint0_linear_483_458" x1="430.86" y1="1038.92" x2="1176.73" y2="1348.31" gradientUnits="userSpaceOnUse">
<stop stop-color="#FFEB37"/>
<stop offset="0.479167" stop-color="#FF60ED"/>
<stop offset="1" stop-color="#33E5FF"/>
</linearGradient>
<clipPath id="clip0_483_458">
<rect width="1500" height="1500" fill="white"/>
</clipPath>
</defs>
      <g clip-path="url(#clip0_497_1194)">
<path d="M379.667 654.812C432.345 471.574 618.472 401.981 699.114 390.653C740.985 382.718 849.655 375.215 949.364 408.675C980 418.956 1049.88 457.388 1091.92 499.818C1144.47 552.856 1272.97 732.052 1185.05 927.725C1097.12 1123.4 758.414 1092.29 612.749 1051.82C464.472 1010.63 314.48 881.563 379.667 654.812Z" fill="#AABBFF"/>
<path d="M449.293 747.204C454.734 531.068 585.306 432.345 649.911 410C432.292 459.565 365.296 655.455 364 747.204C377.99 984.871 584.496 1053.43 681 1058C601.498 1044.46 443.853 963.339 449.293 747.204Z" fill="#001647" fill-opacity="0.2"/>
<path d="M379.667 654.812C432.345 471.574 618.472 401.981 699.114 390.653C740.985 382.718 849.655 375.215 949.364 408.675C980 418.956 1049.88 457.388 1091.92 499.818C1144.47 552.856 1272.97 732.052 1185.05 927.725C1097.12 1123.4 758.414 1092.29 612.749 1051.82C464.472 1010.63 314.48 881.563 379.667 654.812Z" stroke="black" stroke-width="22" stroke-linecap="round"/>
</g>
<defs>
    <clipPath id="prefix__clip0_299_662"><path fill="#fff" d="M0 0h1500v1500H0z"/></clipPath>
</defs>
      <g clip-path="url(#clip0_624_3293)">
<path d="M916.488 918.577L931.325 908.854C933.985 907.112 936.223 904.799 937.876 902.083C939.529 899.367 940.556 896.317 940.882 893.154C941.208 889.991 940.825 886.795 939.761 883.799C938.697 880.803 936.978 878.082 934.73 875.834V875.834C932.657 873.764 930.181 872.142 927.456 871.068C924.731 869.994 921.814 869.491 918.886 869.59C915.959 869.689 913.083 870.388 910.436 871.643C907.79 872.899 905.429 874.684 903.501 876.889L890.301 891.98" stroke="black" stroke-width="22" stroke-miterlimit="10" stroke-linecap="round"/>
<path d="M916.488 918.675L931.325 928.397C933.986 930.137 936.225 932.449 937.879 935.164C939.533 937.88 940.561 940.93 940.887 944.092C941.213 947.255 940.83 950.451 939.764 953.446C938.699 956.442 936.979 959.162 934.73 961.409V961.409C932.66 963.484 930.185 965.11 927.46 966.188C924.734 967.265 921.817 967.77 918.888 967.672C915.959 967.574 913.081 966.874 910.434 965.617C907.787 964.359 905.427 962.57 903.501 960.362L890.301 945.271" stroke="black" stroke-width="22" stroke-miterlimit="10" stroke-linecap="round"/>
<path d="M1012 817C1038.51 817 1060 795.51 1060 769C1060 742.49 1038.51 721 1012 721C985.49 721 964 742.49 964 769C964 795.51 985.49 817 1012 817Z" fill="black" stroke="black" stroke-width="22" stroke-miterlimit="10"/>
<path d="M1025.18 765.61C1035.8 765.61 1044.4 757.009 1044.4 746.398C1044.4 735.788 1035.8 727.186 1025.18 727.186C1014.57 727.186 1005.97 735.788 1005.97 746.398C1005.97 757.009 1014.57 765.61 1025.18 765.61Z" fill="white"/>
<path d="M994.295 774.185C998.822 774.185 1002.49 770.515 1002.49 765.988C1002.49 761.461 998.822 757.791 994.295 757.791C989.768 757.791 986.098 761.461 986.098 765.988C986.098 770.515 989.768 774.185 994.295 774.185Z" fill="white"/>
<path d="M1018.1 800.697C1026.05 800.697 1032.49 794.254 1032.49 786.307C1032.49 778.359 1026.05 771.917 1018.1 771.917C1010.16 771.917 1003.71 778.359 1003.71 786.307C1003.71 794.254 1010.16 800.697 1018.1 800.697Z" fill="white"/>
<path d="M822 817C848.51 817 870 795.51 870 769C870 742.49 848.51 721 822 721C795.49 721 774 742.49 774 769C774 795.51 795.49 817 822 817Z" fill="black" stroke="black" stroke-width="22" stroke-miterlimit="10"/>
<path d="M835.185 765.61C845.795 765.61 854.397 757.009 854.397 746.398C854.397 735.788 845.795 727.186 835.185 727.186C824.574 727.186 815.973 735.788 815.973 746.398C815.973 757.009 824.574 765.61 835.185 765.61Z" fill="white"/>
<path d="M804.295 774.185C808.822 774.185 812.492 770.515 812.492 765.988C812.492 761.461 808.822 757.791 804.295 757.791C799.768 757.791 796.098 761.461 796.098 765.988C796.098 770.515 799.768 774.185 804.295 774.185Z" fill="white"/>
<path d="M828.103 800.697C836.051 800.697 842.493 794.254 842.493 786.307C842.493 778.359 836.051 771.917 828.103 771.917C820.156 771.917 813.713 778.359 813.713 786.307C813.713 794.254 820.156 800.697 828.103 800.697Z" fill="white"/>
</g>
<defs>
<clipPath id="clip0_624_3293">
<rect width="1500" height="1500" fill="white"/>
</clipPath>
</defs>
      <g clip-path="url(#clip0_911_278)">
<path d="M741 865.42V871.56C741.01 872.669 740.781 873.767 740.33 874.78C739.07 877.64 736.99 877.78 736.99 877.78C735.893 878.033 734.754 878.046 733.651 877.818C732.548 877.59 731.507 877.127 730.6 876.46C727.96 874.35 721.36 856.25 721.36 856.25L708.65 876.46H700L717.8 848.25L712.21 836.66C711.84 835.888 711.265 835.233 710.547 834.767C709.828 834.301 708.996 834.043 708.14 834.02H708C707.225 833.94 706.442 834.054 705.721 834.351C705.001 834.647 704.365 835.118 703.87 835.72C702.98 836.61 702.66 839.5 702.66 839.5L700.88 839.63C700.634 837.881 700.59 836.109 700.75 834.35C700.862 833.001 701.324 831.705 702.09 830.59C702.61 829.783 703.325 829.12 704.169 828.664C705.014 828.208 705.96 827.972 706.92 827.98C708.535 827.979 710.11 828.479 711.43 829.41C712.762 830.35 713.801 831.646 714.43 833.15L719.69 846.2L731.13 828.8H739L723.2 853.31L727.14 862.63C727.14 862.63 730.14 871.63 734.45 871.63C738.76 871.63 739.16 865.41 739.16 865.41L741 865.42Z" fill="black"/>
</g>
<defs>
<clipPath id="clip0_911_278">
<rect width="1500" height="1500" fill="white"/>
</clipPath>
</defs>
      <g clip-path="url(#clip0_771_606)">
<path d="M863.993 527.644C890.69 533.234 953.2 543.468 977.668 523.094L1014.69 433.323L1073.2 323.725L1125.02 252.017C1125.02 252.017 1152.13 228.431 1038.06 213.369C923.981 198.307 867.998 187.656 867.998 187.656C867.998 187.656 682.771 166.635 549.728 276.66C416.686 386.684 363.177 542.213 363.177 542.213C363.177 542.213 337.135 691.713 357.999 753.5C357.999 753.5 341.001 591 490.792 472.221L501.17 475.384L603.985 437.979L697.981 441.573L810.812 485.642L842.989 516.524C848.813 522.121 856.09 525.973 863.993 527.644Z" fill="#4AEEB9"/>
<path d="M742.504 200.999C676.904 266.599 661.503 387.666 662.003 439.999L625.003 434.5L571.003 446L499.003 479C383.499 562.5 364.503 699.667 357.503 751.5L343.503 659.5L360.003 560.5L396.003 466.5C421.169 416.5 492.403 304.699 576.003 257.499C659.603 210.299 721.837 200.166 742.504 200.999Z" fill="#001647" fill-opacity="0.2"/>
<path d="M370.001 824.5C370.001 824.5 269.087 563.97 500.28 320.562C709.101 100.723 1055 215.728 1119.97 240.074C1121.19 240.539 1122.28 241.281 1123.16 242.241C1124.03 243.209 1124.65 244.367 1124.99 245.623C1125.32 246.881 1125.35 248.2 1125.07 249.47C1124.79 250.741 1124.21 251.926 1123.38 252.928C1034.34 361.043 992.774 481.265 982.543 514.053C981.611 517.023 980.059 519.76 977.991 522.086C975.922 524.406 973.381 526.257 970.538 527.514C952.612 535.457 910.698 548.623 858.575 529.192C851.513 525.552 848.335 523.515 843.096 518.725C818.258 491.807 652.217 366.136 494.165 482.174" stroke="black" stroke-width="20" stroke-miterlimit="10" stroke-linecap="round"/>
<path d="M847.383 522.595C847.383 522.595 830.394 316.415 907.33 193.397" stroke="black" stroke-width="20" stroke-miterlimit="10" stroke-linecap="round"/>
<path d="M940.167 529.066C940.167 529.066 943.119 444.066 997.197 349.634" stroke="black" stroke-width="20" stroke-miterlimit="10" stroke-linecap="round"/>
<path d="M754.269 459.828C754.269 459.828 740.725 382.776 759.48 315.96" stroke="black" stroke-width="20" stroke-miterlimit="10" stroke-linecap="round"/>
<path d="M595.363 246.497C595.363 246.497 573.599 298.854 593.754 375.109" stroke="black" stroke-width="20" stroke-miterlimit="10" stroke-linecap="round"/>
<path d="M920.072 268.739C920.072 268.739 927.639 235.29 953.389 205.827" stroke="black" stroke-width="20" stroke-miterlimit="10" stroke-linecap="round"/>
<path d="M472.246 499.854C472.246 499.854 460.445 481.715 458.858 444.683" stroke="black" stroke-width="20" stroke-miterlimit="10" stroke-linecap="round"/>
</g>
<defs>
<clipPath id="clip0_771_606">
<rect width="1500" height="1500" fill="white"/>
</clipPath>
</defs>
      
    </g>
    </svg>