<svg
      xmlns="http://www.w3.org/2000/svg"
      preserveAspectRatio="xMidYMin meet"
      fill="none"
      viewBox="0 0 1500 1500"
    >
      <g>
      <path fill="url(#prefix__paint0_linear_53_30461)" d="M0 0h1500v1500H0z"/><defs><linearGradient id="prefix__paint0_linear_53_30461" x1="0" y1="0" x2="1500" y2="1533.5" gradientUnits="userSpaceOnUse">
<stop stop-color="#EEB0FC"/>
<stop offset="1" stop-color="#AF55F5"/>
</linearGradient></defs>
      <g clip-path="url(#clip0_483_510)">
<path d="M773 1011.5C543.4 1029.9 398.667 1353.5 355 1513H1138.5C1075.7 1127 868.667 1017.83 773 1011.5Z" fill="#FF6247"/>
<path d="M409 1362.5L354 1512.5H651.5V1444.5L409 1362.5Z" fill="#AABBFF"/>
<path d="M1039.5 1426.5L1046 1512.5L1142.5 1504L1111 1393L1039.5 1426.5Z" fill="#AABBFF"/>
<path d="M749.5 1019.5C536 1134 457.448 1414.63 443.159 1511H353.699C350.414 1508.73 357.049 1471.27 409.87 1339.62C462.691 1207.98 569.086 1113.24 605.384 1082.33L674 1033.5L749.5 1019.5Z" fill="#001647" fill-opacity="0.2"/>
<path d="M353.5 1519.5C365.5 1454.33 414.5 1313.6 483.5 1219C530.101 1155.11 577.468 1101.29 629.141 1059.66C710.278 994.299 826.037 996.323 905.02 1064.27C1000.08 1146.05 1103.44 1290.29 1142.5 1519.5M1013.5 1319C1024.83 1354.33 1048.1 1443.9 1050.5 1519.5M667 1361.5C661.167 1392.33 650.3 1467.1 653.5 1519.5M408.5 1360.5L651 1446.5M1040.5 1424C1056.33 1421.5 1091.7 1411.6 1106.5 1392" stroke="black" stroke-width="22" stroke-linecap="round"/>
<path d="M867.933 1422.58C867.187 1422.49 866.882 1421.58 867.424 1421.06L889.898 1399.62C890.227 1399.31 890.265 1398.8 889.987 1398.44L845.82 1341.38C845.494 1340.96 844.873 1340.92 844.49 1341.29L797.948 1386.27C797.567 1386.64 796.949 1386.59 796.622 1386.18L731.189 1302.92C730.909 1302.56 730.943 1302.05 731.269 1301.73L755.472 1278.25C755.855 1277.88 756.479 1277.93 756.804 1278.35L800.169 1334.58C800.492 1335 801.109 1335.04 801.493 1334.68L848.021 1290.61C848.403 1290.25 849.014 1290.29 849.339 1290.7L915.467 1374.43C915.782 1374.83 916.367 1374.88 916.753 1374.55L941.524 1353.28C942.126 1352.76 943.056 1353.23 942.997 1354.02L937.287 1430.18C937.249 1430.68 936.793 1431.06 936.287 1430.99L867.933 1422.58Z" fill="white"/>
</g>
<defs>
<clipPath id="clip0_483_510">
<rect width="1500" height="1500" fill="white"/>
</clipPath>
</defs>
      <g clip-path="url(#clip0_497_1194)">
<path d="M379.667 654.812C432.345 471.574 618.472 401.981 699.114 390.653C740.985 382.718 849.655 375.215 949.364 408.675C980 418.956 1049.88 457.388 1091.92 499.818C1144.47 552.856 1272.97 732.052 1185.05 927.725C1097.12 1123.4 758.414 1092.29 612.749 1051.82C464.472 1010.63 314.48 881.563 379.667 654.812Z" fill="#AABBFF"/>
<path d="M449.293 747.204C454.734 531.068 585.306 432.345 649.911 410C432.292 459.565 365.296 655.455 364 747.204C377.99 984.871 584.496 1053.43 681 1058C601.498 1044.46 443.853 963.339 449.293 747.204Z" fill="#001647" fill-opacity="0.2"/>
<path d="M379.667 654.812C432.345 471.574 618.472 401.981 699.114 390.653C740.985 382.718 849.655 375.215 949.364 408.675C980 418.956 1049.88 457.388 1091.92 499.818C1144.47 552.856 1272.97 732.052 1185.05 927.725C1097.12 1123.4 758.414 1092.29 612.749 1051.82C464.472 1010.63 314.48 881.563 379.667 654.812Z" stroke="black" stroke-width="22" stroke-linecap="round"/>
</g>
<defs>
    <clipPath id="prefix__clip0_299_662"><path fill="#fff" d="M0 0h1500v1500H0z"/></clipPath>
</defs>
      <g clip-path="url(#clip0_624_3522)">
<path d="M822 818C849.062 818 871 796.062 871 769C871 741.938 849.062 720 822 720C794.938 720 773 741.938 773 769C773 796.062 794.938 818 822 818Z" fill="white" stroke="black" stroke-width="20" stroke-miterlimit="10"/>
<path d="M1012 818C1039.06 818 1061 796.062 1061 769C1061 741.938 1039.06 720 1012 720C984.938 720 963 741.938 963 769C963 796.062 984.938 818 1012 818Z" fill="white" stroke="black" stroke-width="20" stroke-miterlimit="10"/>
<path d="M809 770C816.18 770 822 764.18 822 757C822 749.82 816.18 744 809 744C801.82 744 796 749.82 796 757C796 764.18 801.82 770 809 770Z" fill="black"/>
<path d="M1024 770C1031.18 770 1037 764.18 1037 757C1037 749.82 1031.18 744 1024 744C1016.82 744 1011 749.82 1011 757C1011 764.18 1016.82 770 1024 770Z" fill="black"/>
<path d="M988.653 885.957H855.227C854.074 885.957 852.968 886.415 852.153 887.23C851.338 888.045 850.88 889.151 850.88 890.303C850.88 909.026 858.317 926.982 871.556 940.221C884.795 953.46 902.751 960.897 921.474 960.897H922.406C941.129 960.897 959.085 953.46 972.324 940.221C985.562 926.982 993 909.026 993 890.303C993 889.151 992.542 888.045 991.727 887.23C990.912 886.415 989.806 885.957 988.653 885.957Z" fill="white" stroke="black" stroke-width="20" stroke-miterlimit="10"/>
</g>
<defs>
<clipPath id="clip0_624_3522">
<rect width="1500" height="1500" fill="white"/>
</clipPath>
</defs>
      <g clip-path="url(#clip0_860_2641)">
<path d="M1085 495C1100.17 545.833 1060 659.5 900 722.5M363.5 756C447.5 798.5 624 827 745.5 782" stroke="black" stroke-width="22" stroke-linecap="round"/>
<path d="M824.517 836.985C752.228 836.158 742.628 769.813 747.489 723.407C748.399 714.714 754.784 707.644 763.327 705.794C809.814 695.728 856.527 701.675 883.131 708.164C890.817 710.038 896.608 716.244 897.779 724.068C904.127 766.46 896.835 837.812 824.517 836.985Z" fill="black" stroke="black" stroke-width="22" stroke-linecap="round"/>
</g>
<defs>
<clipPath id="clip0_860_2641">
<rect width="1500" height="1500" fill="white"/>
</clipPath>
</defs>
      <g clip-path="url(#clip0_786_1611)">
<path d="M357.167 709.64L281.948 724.785L220.285 749.18L257.601 779.228L346.128 800.677L356.882 803.141C348.457 743.106 357.167 709.64 357.167 709.64Z" fill="#9E6740"/>
<path d="M1198.25 650.336C1198.25 650.336 1219.64 700.928 1223.11 755.302L1243.5 747.613C1243.5 747.613 1290.77 721.71 1291.04 721.016C1291.3 720.322 1322.34 686.349 1323.78 684.547C1325.21 682.746 1333.93 660.452 1333.93 660.452L1221.49 652.327L1198.25 650.336Z" fill="#9E6740"/>
<path d="M220.387 740.305L285.256 658.34L541.783 407.839L754.907 245.064L840.466 281.824L1071.1 437.331L1239.4 570.877L1327.92 660.022L1073.81 643.594L933.385 643.376L654.348 661.724L354.034 709.713L220.387 740.305Z" fill="#9E6740"/>
<path d="M615.79 421.064C550.413 517.893 509.732 637.551 497.563 685.277L372.989 708.394L357 715.999L355 756.999L360.5 807.499L269.358 779.164L224.29 748.718L224.526 735.472L212.326 737.588L345.189 590.502C390.211 547.719 502.815 441.698 593.061 359.875C683.307 278.052 736.751 249.865 752.192 245.999C733.965 264.008 681.166 324.234 615.79 421.064Z" fill="#001647" fill-opacity="0.2"/>
<path d="M1286.55 718.214L1224.5 753.499L1222 745.499L1219 725.999L1213.5 698.499L1198.39 652.036L1232.97 653.87L1300.22 661.861L1327.47 668.084L1286.55 718.214Z" fill="#001647" fill-opacity="0.2"/>
<path d="M363.849 809.081C280.723 796.214 236.922 765.158 217.172 748.429C212.519 744.489 210.738 736.946 214.773 732.337C257.718 683.387 451.038 457.951 730.971 252.219C741.385 244.571 762.071 243.452 773.75 248.989C850.76 285.444 1170.67 484.003 1330.81 651.673C1335.04 656.104 1334.5 664.746 1330.99 669.802C1313.54 694.933 1288.32 732.229 1207.96 760.411" stroke="black" stroke-width="20" stroke-miterlimit="10"/>
<path d="M208.702 741.77L276.275 727.07C624.05 644.781 975.505 622.74 1330.64 660.947" stroke="black" stroke-width="20" stroke-miterlimit="10"/>
</g>
<defs>
<clipPath id="clip0_786_1611">
<rect width="1500" height="1500" fill="white"/>
</clipPath>
</defs>
      
    </g>
    </svg>