<svg
      xmlns="http://www.w3.org/2000/svg"
      preserveAspectRatio="xMidYMin meet"
      fill="none"
      viewBox="0 0 1500 1500"
    >
      <g>
      <path fill="url(#prefix__paint0_linear_53_30461)" d="M0 0h1500v1500H0z"/><defs><linearGradient id="prefix__paint0_linear_53_30461" x1="0" y1="0" x2="1500" y2="1533.5" gradientUnits="userSpaceOnUse">
<stop stop-color="#EEB0FC"/>
<stop offset="1" stop-color="#AF55F5"/>
</linearGradient></defs>
      <g clip-path="url(#clip0_496_924)">
<path d="M412 1344L351 1510.5H1139.5L1072 1282L994 1158.5L934 1099L920 1158.5L842 1099L761 1168.5L702.5 1137.5L626 1061L505 1185.5L412 1344Z" fill="#53B6F9"/>
<path d="M782 1014.5C704.8 1008.9 645.5 1043.17 625.5 1061L676.5 1117L762 1167.5L834.5 1103L924 1156V1081.5C908.833 1061.5 859.2 1020.1 782 1014.5Z" fill="#F56CDB"/>
<path d="M353.5 1519.5C365.5 1454.33 414.5 1313.6 483.5 1219C529.307 1156.2 575.854 1103.13 626.504 1061.8M1142.5 1519.5C1103.44 1290.29 1000.08 1146.05 905.02 1064.27C826.037 996.323 710.273 994.302 629.137 1059.66C628.258 1060.37 627.38 1061.08 626.504 1061.8M1013.5 1319C1024.83 1354.33 1048.1 1443.9 1050.5 1519.5M667 1361.5C661.167 1392.33 650.3 1467.1 653.5 1519.5M926 1087C934.762 1114.34 929.833 1141.11 925.003 1154.27C924.105 1156.72 921.076 1157.36 919.054 1155.71C913.678 1151.34 905.408 1144.87 896 1137.66C878.238 1124.04 856.424 1107.73 842.381 1097.69C841.674 1097.19 840.824 1097.04 840.032 1097.2M840 1096.5C840.01 1096.73 840.021 1096.96 840.032 1097.2M840.032 1097.2C841.872 1137.95 845.216 1220.71 848 1239M840.032 1097.2C839.339 1097.34 838.69 1097.72 838.219 1098.32C827.763 1111.55 809.829 1128.31 793.42 1142.5C783.296 1151.26 773.753 1159.03 766.905 1164.4C766.012 1165.1 764.867 1165.39 763.753 1165.17C707.225 1153.99 651.021 1094.56 626.504 1061.8" stroke="black" stroke-width="22" stroke-linecap="round"/>
<circle cx="807" cy="1234" r="11" fill="black"/>
<circle cx="804" cy="1191" r="11" fill="black"/>
<circle cx="802" cy="1151" r="11" fill="black"/>
<path d="M409.87 1339.62C462.691 1207.98 569.086 1113.24 605.384 1082.33L632.5 1058L637.5 1059.48C599.917 1079.63 651 1067.5 648.91 1093.5L659.5 1099.5L764.5 1175C714.1 1177.8 656.5 1131.81 634 1108.47C506.332 1241.92 454.501 1434.51 443.159 1511H353.699C350.414 1508.73 357.049 1471.27 409.87 1339.62Z" fill="#001647" fill-opacity="0.2"/>
<path d="M898.993 1164.13L846 1122L848.5 1108.47L886.5 1134C902.5 1140.17 933.5 1154.7 929.5 1163.5C927.233 1168.49 922.182 1170.5 917.169 1171.06C910.478 1171.81 904.264 1168.32 898.993 1164.13Z" fill="#001647" fill-opacity="0.2"/>
<path fill-rule="evenodd" clip-rule="evenodd" d="M964.41 1287.05L945.22 1277.82L944.91 1274.73L962.15 1277.18L974.38 1257.54L970.4 1254.77L973.67 1250.15L967.51 1245.86L964.51 1250.73L960.48 1247.91L953.34 1259.35L943.47 1257.8L934.39 1231L928.3 1232.71L931.78 1242.2L928.84 1243.04L925.38 1233.58L919.06 1235.25L926.49 1255.84L910.23 1253.46L898 1273.1L902.05 1275.92L899.05 1280.79L905.21 1285.09L907.95 1279.95L911.63 1282.46L918.99 1270.77L928.38 1272.06L928.98 1277.93L911.64 1286.89L913.93 1309.36H918.43L919.08 1315.77H926.09L925.46 1309.62H929.96L928.71 1297.3L938.33 1292.34L949.21 1297.42L950.45 1309.62H954.95L955.58 1315.77H962.59L961.97 1309.62H966.72L964.41 1287.05ZM915.57 1263.96L909.6 1273.54L906.81 1271.63L913.7 1260.53L927.41 1262.57L927.75 1265.88L915.57 1263.96ZM956.57 1266.68L962.59 1257.03L965.53 1259.08L958.69 1270.12L944.23 1268.06L943.89 1264.75L956.57 1266.68ZM956.8 1303.02L955.8 1293.19L938.31 1284.94L922.29 1293.31L923.29 1303.02H919.8L918.59 1291.15L935.91 1282.19L933.67 1257.61L930.6 1249.24L933.49 1248.41L936.76 1258.66L939.15 1282.05L958.81 1291.02L960.04 1303.02H956.8Z" fill="black"/>
</g>
<defs>
<clipPath id="clip0_496_924">
<rect width="1500" height="1500" fill="white"/>
</clipPath>
</defs>
      <g clip-path="url(#clip0_497_1194)">
<path d="M379.667 654.812C432.345 471.574 618.472 401.981 699.114 390.653C740.985 382.718 849.655 375.215 949.364 408.675C980 418.956 1049.88 457.388 1091.92 499.818C1144.47 552.856 1272.97 732.052 1185.05 927.725C1097.12 1123.4 758.414 1092.29 612.749 1051.82C464.472 1010.63 314.48 881.563 379.667 654.812Z" fill="#AABBFF"/>
<path d="M449.293 747.204C454.734 531.068 585.306 432.345 649.911 410C432.292 459.565 365.296 655.455 364 747.204C377.99 984.871 584.496 1053.43 681 1058C601.498 1044.46 443.853 963.339 449.293 747.204Z" fill="#001647" fill-opacity="0.2"/>
<path d="M379.667 654.812C432.345 471.574 618.472 401.981 699.114 390.653C740.985 382.718 849.655 375.215 949.364 408.675C980 418.956 1049.88 457.388 1091.92 499.818C1144.47 552.856 1272.97 732.052 1185.05 927.725C1097.12 1123.4 758.414 1092.29 612.749 1051.82C464.472 1010.63 314.48 881.563 379.667 654.812Z" stroke="black" stroke-width="22" stroke-linecap="round"/>
</g>
<defs>
    <clipPath id="prefix__clip0_299_662"><path fill="#fff" d="M0 0h1500v1500H0z"/></clipPath>
</defs>
      <g clip-path="url(#clip0_624_3204)">
<path d="M876.086 925.246H970.499" stroke="black" stroke-width="22" stroke-linecap="round"/>
<path d="M865.708 768.06L844.448 768.047L821.695 768.027L792.828 768" stroke="black" stroke-width="22" stroke-linecap="round"/>
<path d="M850.019 773.927C852.061 777.245 853.087 781.09 852.968 784.985C852.85 788.88 851.593 792.655 849.352 795.844C847.112 799.032 843.986 801.494 840.361 802.925C836.737 804.357 832.772 804.695 828.958 803.897C825.143 803.1 821.646 801.202 818.898 798.439C816.15 795.676 814.273 792.168 813.497 788.349C812.721 784.53 813.081 780.567 814.533 776.951C815.985 773.334 818.464 770.223 821.665 768H844.419C846.675 769.567 848.582 771.585 850.019 773.927Z" fill="black" stroke="black" stroke-width="22" stroke-linecap="round"/>
<path d="M1033.71 768L1004.83 768.027L982.081 768.047L960.828 768.06" stroke="black" stroke-width="22" stroke-linecap="round"/>
<path d="M976.506 773.926C974.456 777.243 973.423 781.087 973.536 784.985C973.648 788.882 974.9 792.661 977.138 795.854C979.376 799.047 982.5 801.513 986.125 802.949C989.75 804.385 993.716 804.726 997.533 803.931C1001.35 803.136 1004.85 801.24 1007.6 798.476C1010.35 795.713 1012.23 792.203 1013.01 788.383C1013.78 784.562 1013.42 780.597 1011.97 776.979C1010.52 773.361 1008.04 770.248 1004.83 768.026H982.079C979.837 769.59 977.94 771.598 976.506 773.926Z" fill="black" stroke="black" stroke-width="22" stroke-linecap="round"/>
</g>
<defs>
<clipPath id="clip0_624_3204">
<rect width="1500" height="1500" fill="white"/>
</clipPath>
</defs>
      <g clip-path="url(#clip0_911_10)">
<path d="M460.219 805.943C475.82 798.654 501.529 792.379 524.163 813.654C528.273 817.448 533.363 820.195 538.941 821.629C544.519 823.064 550.397 823.138 556.006 821.844C573.016 818.048 597.437 816.739 614.831 833.2C619.122 837.278 624.509 840.214 630.429 841.701C636.349 843.188 642.586 843.172 648.487 841.654C666.028 837.128 691.038 835.634 712.05 854.378C716.422 858.314 721.858 861.079 727.777 862.377C733.697 863.675 739.88 863.459 745.668 861.751C760.092 857.479 781.675 858.939 797.48 872.31C825.383 893.165 845.774 879.144 856.08 870.512C870.479 858.485 893.106 853.242 922.921 866.523C927.217 868.397 911.011 867.005 915.75 867.096C920.49 867.188 925.194 866.353 929.559 864.645C944.143 859.052 968.025 848.964 990.335 863.68C995.352 867.057 1001.27 869.088 1007.43 869.551C1013.6 870.014 1019.78 868.891 1025.3 866.304C1035.45 861.452 1049.43 848.421 1065.43 851.757C1071.13 852.957 1077.07 852.771 1082.66 851.217C1088.26 849.662 1093.33 846.792 1097.37 842.883C1104.59 835.865 1116.15 829.719 1133.7 831.455C1139.73 832.011 1145.81 831.026 1151.28 828.607C1156.75 826.188 1161.4 822.426 1164.73 817.727C1172.28 807.178 1186.55 796.425 1212.99 795.806C1212.99 795.806 1234.77 809.638 1225.67 840.375C1223.58 847.477 1224.19 855.043 1227.42 861.786C1231.51 870.369 1234.43 883.066 1224.5 894.062C1221.55 897.291 1219.34 901.052 1218.02 905.111C1216.7 909.17 1216.3 913.44 1216.82 917.657C1218.75 932.06 1211.05 942.419 1203.6 948.896C1196.92 954.64 1192.97 962.615 1192.61 971.078C1191.97 987.295 1182.39 995.66 1173.39 999.937C1169.26 1001.99 1165.63 1004.82 1162.75 1008.26C1159.87 1011.69 1157.8 1015.65 1156.67 1019.88C1152.69 1033.88 1135.86 1040.13 1128.34 1042.97C1120.83 1045.81 1111.83 1050.78 1104.8 1062.18C1097.77 1073.58 1081.12 1086.14 1068.45 1088.54C1063.95 1089.41 1059.68 1091.1 1055.9 1093.53C1052.12 1095.95 1048.9 1099.06 1046.44 1102.66C1034.48 1120.03 1012.92 1123.54 997.649 1123.54C992.899 1123.5 988.197 1124.4 983.858 1126.19C979.519 1127.97 975.643 1130.6 972.488 1133.89C959.959 1147.29 941.13 1148.29 928.218 1147.03C919.494 1146.22 910.786 1148.61 903.945 1153.68C886.051 1166.67 866.187 1163.2 852.742 1158.06C847.995 1156.23 842.86 1155.45 837.739 1155.77C832.618 1156.09 827.651 1157.52 823.228 1159.93C804.494 1170.17 786.893 1165.72 775.279 1160.03C770.81 1157.89 765.888 1156.71 760.871 1156.56C755.853 1156.41 750.868 1157.31 746.278 1159.18C720.94 1169.33 700.843 1158.33 689.532 1148.82C686.082 1145.93 682.031 1143.74 677.633 1142.37C673.235 1140.99 668.583 1140.48 663.967 1140.85C636.193 1143.07 619.776 1129.1 611.091 1117.75C608.171 1113.92 604.368 1110.74 599.961 1108.45C595.553 1106.16 590.653 1104.81 585.618 1104.5C561.872 1103.05 548.422 1092.98 541.153 1084.38C538.145 1080.8 534.353 1077.85 530.028 1075.74C525.704 1073.62 520.946 1072.39 516.073 1072.11C488.965 1070.6 478.706 1057.76 474.909 1046.89C473.409 1042.47 470.835 1038.41 467.388 1035.05C463.94 1031.69 459.709 1029.1 455.023 1027.5C429.48 1018.94 422.413 999.936 420.942 985.655C420.48 980.616 418.728 975.748 415.833 971.459C412.938 967.169 408.984 963.582 404.299 960.997C384.079 950.136 381.744 934.663 383.019 924.205C383.85 916.922 381.827 909.597 377.32 903.573C371.088 895.114 365.408 881.616 375.03 866.267C377.603 862.177 379.137 857.593 379.517 852.863C379.897 848.133 379.112 843.381 377.221 838.969C372.334 827.6 369.038 812.67 379.982 804.456C394.838 793.255 415.968 799.376 430.262 805.914C434.922 808.066 440.05 809.188 445.247 809.193C450.444 809.198 455.569 808.086 460.219 805.943Z" fill="#F56CDB"/>
<path d="M559.543 876.665C545.123 859.855 557.331 835.636 566.454 824.413C560.927 822.571 548.96 818.866 545.318 818.788C540.765 818.691 527.176 815.109 518.697 809.285C510.218 803.46 512.667 807.275 505.625 805.243C498.582 803.212 480.886 802.364 478.863 802.32C476.839 802.277 441.295 807.632 439.778 807.6C438.26 807.567 402.068 795.978 400.56 795.475C399.354 795.074 384.005 804.371 376.481 809.07L375.865 837.745C375.849 838.497 374.828 854.653 374.319 862.637L374.292 911.077L398.67 954.394L421.72 988.747L452.684 1031.73L479.964 1057.71L512.049 1072.04L576.734 1100.22L617.663 1126.96L656.354 1140.02L706.601 1157.08L749.096 1157.99L788.05 1158.82C780.022 1156.92 771.799 1149.38 766.552 1143.38C764.045 1140.51 760.276 1138.96 756.49 1139.36C715.191 1143.75 694.664 1121.11 687.589 1104.9C686.111 1101.51 683.291 1098.81 679.766 1097.7C655.194 1089.96 646.026 1071.74 643.706 1058.71C642.893 1054.15 639.87 1050.07 635.563 1048.35C613.408 1039.54 608.801 1023.1 609.835 1011C610.272 1005.89 608.173 1000.55 603.832 997.826C580.686 983.294 577.921 964.469 580.559 952.142C581.528 947.614 580.532 942.638 577.294 939.328C560.382 922.041 559.702 904.215 563.112 892.424C564.66 887.074 563.169 880.893 559.543 876.665Z" fill="#001647" fill-opacity="0.2"/>
<path d="M524.163 813.654C501.529 792.379 475.82 798.654 460.219 805.943C455.569 808.086 450.444 809.198 445.247 809.193C440.05 809.188 434.921 808.066 430.262 805.914C415.968 799.376 394.838 793.255 379.982 804.456C369.038 812.67 372.334 827.6 377.221 838.969C379.112 843.381 379.897 848.133 379.517 852.863C379.137 857.593 377.603 862.177 375.03 866.267C365.408 881.616 371.088 895.114 377.32 903.573C381.827 909.597 383.85 916.922 383.019 924.205C381.744 934.663 384.079 950.136 404.299 960.997C408.984 963.582 412.938 967.169 415.833 971.459C418.728 975.748 420.48 980.616 420.942 985.655C422.413 999.936 429.48 1018.94 455.023 1027.5C459.709 1029.1 463.94 1031.69 467.388 1035.05C470.835 1038.41 473.409 1042.47 474.909 1046.89C478.706 1057.76 488.965 1070.6 516.073 1072.11C520.946 1072.39 525.704 1073.62 530.028 1075.74C534.353 1077.85 538.145 1080.8 541.153 1084.38C548.422 1092.98 561.872 1103.05 585.618 1104.5C590.653 1104.81 595.553 1106.16 599.961 1108.45C604.368 1110.74 608.171 1113.92 611.091 1117.75C619.776 1129.1 636.193 1143.07 663.967 1140.85C668.583 1140.48 673.235 1140.99 677.633 1142.37C682.031 1143.74 686.082 1145.93 689.532 1148.82C700.843 1158.33 720.94 1169.33 746.278 1159.18C750.868 1157.31 755.853 1156.41 760.871 1156.56C765.888 1156.71 770.81 1157.89 775.278 1160.03C786.893 1165.72 804.494 1170.17 823.228 1159.93C827.651 1157.52 832.618 1156.09 837.739 1155.77C842.86 1155.45 847.995 1156.23 852.742 1158.06C866.187 1163.2 886.051 1166.67 903.945 1153.68C910.786 1148.61 919.494 1146.22 928.218 1147.03C941.13 1148.29 959.959 1147.29 972.488 1133.89C975.643 1130.6 979.519 1127.97 983.858 1126.19C988.197 1124.4 992.899 1123.5 997.649 1123.54C1012.92 1123.54 1034.48 1120.03 1046.44 1102.66C1048.9 1099.06 1052.12 1095.95 1055.9 1093.53C1059.68 1091.1 1063.94 1089.41 1068.45 1088.54C1081.12 1086.14 1097.77 1073.58 1104.8 1062.18C1111.83 1050.78 1120.83 1045.81 1128.34 1042.97L1128.55 1042.89C1136.16 1040.01 1152.72 1033.75 1156.67 1019.88C1157.8 1015.65 1159.87 1011.69 1162.75 1008.26C1165.63 1004.82 1169.26 1001.99 1173.39 999.937C1182.39 995.66 1191.97 987.295 1192.61 971.078C1192.97 962.615 1196.92 954.64 1203.6 948.896C1211.05 942.419 1218.75 932.06 1216.82 917.657C1216.3 913.44 1216.7 909.17 1218.02 905.111C1219.34 901.052 1221.55 897.291 1224.5 894.062C1234.43 883.066 1231.51 870.369 1227.42 861.786C1224.19 855.043 1223.58 847.477 1225.67 840.375C1234.77 809.638 1212.99 795.806 1212.99 795.806C1186.55 796.425 1172.28 807.178 1164.73 817.727C1161.4 822.426 1156.75 826.188 1151.28 828.607C1145.81 831.026 1139.73 832.011 1133.7 831.455C1116.15 829.719 1104.59 835.865 1097.37 842.883C1093.33 846.792 1088.26 849.662 1082.66 851.217C1077.07 852.771 1071.13 852.957 1065.43 851.757C1049.43 848.421 1035.45 861.452 1025.3 866.304C1019.78 868.891 1013.6 870.014 1007.43 869.551C1001.27 869.088 995.352 867.057 990.335 863.68C976.056 854.261 959.164 863.539 945.029 872.906C932.675 881.092 917.921 879.217 904.652 872.618C885.317 863.002 866.772 861.581 856.08 870.512C845.774 879.144 825.383 893.165 797.48 872.31C781.675 858.939 760.092 857.479 745.668 861.751C739.88 863.459 733.697 863.675 727.777 862.377C721.858 861.079 716.422 858.314 712.05 854.378C691.038 835.634 666.028 837.128 648.487 841.654C642.585 843.172 636.349 843.188 630.429 841.701C624.509 840.214 619.122 837.278 614.831 833.2C597.437 816.739 573.016 818.048 556.006 821.844C550.397 823.138 544.519 823.064 538.941 821.629C533.363 820.195 528.272 817.448 524.163 813.654Z" stroke="black" stroke-width="22" stroke-miterlimit="10"/>
<path d="M847.684 952.99C796.393 960.533 771.057 930.01 764.065 911.56C763.735 910.688 764.715 909.945 765.529 910.399C794.794 926.75 833.656 903.637 851.184 871.99C854.749 865.552 859.18 860.308 864.102 856.095C892.633 831.676 933.121 867.002 920.263 902.286C911.028 927.625 887.792 947.092 847.684 952.99Z" fill="#F56CDB"/>
<path d="M999.033 952.99C1050.32 960.533 1075.66 930.01 1082.65 911.56C1082.98 910.688 1082 909.945 1081.19 910.399C1051.92 926.75 1013.06 903.637 995.533 871.99C991.967 865.552 987.536 860.308 982.614 856.095C954.083 831.676 913.595 867.002 926.454 902.286C935.688 927.625 958.924 947.092 999.033 952.99Z" fill="#F56CDB"/>
<path d="M883 852.5C880.2 911.7 822.5 934.5 794 938.5L769.5 916.5L826.5 903.5L851 878.5L858 857.5L883 852.5Z" fill="#001647" fill-opacity="0.2"/>
<path d="M970 938.5C944.8 914.9 950.833 871.333 957 852.5L940 854.5L924.5 867V897L945 925.5L970 938.5Z" fill="#001647" fill-opacity="0.2"/>
<path fill-rule="evenodd" clip-rule="evenodd" d="M923.129 856.694C920.505 853.024 917.459 849.726 914.113 846.903C898.825 834.009 875.472 829.811 856.267 846.248C850.38 851.286 845.101 857.547 840.878 865.171C833.142 879.14 820.655 891.196 807.203 897.842C793.771 904.478 780.734 905.185 770.211 899.306C765.64 896.752 760.435 897.58 756.925 900.315C753.272 903.161 751.024 908.5 753.096 913.968C761.559 936.297 791.257 970.816 848.601 962.383C884.621 957.086 909.524 941.229 923.129 918.755C936.733 941.229 961.636 957.086 997.656 962.384C1055 970.817 1084.7 936.297 1093.16 913.968C1095.23 908.5 1092.99 903.161 1089.33 900.315C1085.82 897.58 1080.62 896.752 1076.05 899.307C1065.52 905.186 1052.49 904.479 1039.06 897.842C1025.6 891.196 1013.12 879.14 1005.38 865.171C1001.16 857.547 995.878 851.287 989.991 846.248C970.785 829.811 947.433 834.01 932.145 846.904C928.799 849.726 925.753 853.024 923.129 856.694ZM899.929 863.721C891.054 856.236 879.898 854.981 870.572 862.962C866.614 866.35 863.033 870.578 860.124 875.83C850.333 893.508 834.625 908.832 816.948 917.566C807.598 922.186 797.32 925.111 786.94 925.299C798.415 936.011 817.19 944.766 845.401 940.617C882.42 935.173 901.682 917.782 909.245 897.029C913.863 884.357 909.026 871.393 899.929 863.721ZM946.329 863.721C937.232 871.394 932.395 884.358 937.013 897.029C944.576 917.782 963.838 935.174 1000.86 940.618C1029.07 944.766 1047.84 936.011 1059.32 925.299C1048.94 925.111 1038.66 922.186 1029.31 917.566C1011.63 908.832 995.925 893.508 986.134 875.83C983.225 870.578 979.643 866.35 975.686 862.962C966.36 854.981 955.203 856.236 946.329 863.721Z" fill="black"/>
</g>
<defs>
<clipPath id="clip0_911_10">
<rect width="1500" height="1500" fill="white"/>
</clipPath>
</defs>
      <g clip-path="url(#clip0_499_1441)">
<path d="M376 874C356 831 352 775 353.5 755V739.5L479.5 706.5L646.5 687.5C701.833 680.167 835.3 652.7 926.5 601.5C1017.7 550.3 1130.83 580.167 1176 601.5C1201.2 643.1 1216.5 705.833 1221 732L1264.5 710L1335.5 644L1341 615.5C1327.83 605.667 1301.1 585.7 1299.5 584.5C1297.9 583.3 1248.5 559.333 1224 547.5L1136.5 495L1089 454C1081.5 442.667 1056.4 397.4 1016 307C975.6 216.6 873.5 214 827.5 224C771.167 234.5 635.3 261.6 542.5 286C449.7 310.4 413.5 348.834 407 365L388 489.5L382 584.5L353.5 649L239.5 806.5C247.5 813 267.6 830.8 284 850C300.4 869.2 352.167 874 376 874Z" fill="#A760FF"/>
<path d="M492 583.5C467.6 608.3 438.167 685.167 426.5 718L354 749.5C349 784 364 854 378 876L355.5 878L295.5 856.5L245.5 818V802L347 665L378 597L393.5 482.5L403.5 368.5L443.5 329.5L522.5 299.5C495 389.5 498.833 497.667 506.5 543L579.5 512.5L749 467.5L947.5 440.5L1019 452.5L1018.54 455.235C1017.4 462.096 1011.09 466.826 1004.17 466.186C831.696 450.262 592.254 528.165 492 583.5Z" fill="#001647" fill-opacity="0.2"/>
<path d="M1220 730C1215 693 1193 634 1177.5 604.5L1220 610L1289.5 616L1345.5 619.5L1331.5 653.5L1294 695.5L1253 717.5L1220 730Z" fill="#001647" fill-opacity="0.2"/>
<path d="M452.772 571.28C563.115 511.305 821.499 413.5 1022.05 447.163M1215.08 734.367C1293.13 704.467 1331.11 656.617 1344.38 628.399C1347.53 621.702 1345.42 613.97 1339.66 609.317C1322.28 595.265 1287.7 571.775 1238.64 550.176C1193.41 530.262 1142.48 497.329 1108.33 473.151C1090.34 460.41 1078.37 441.255 1070.66 420.597C1047.56 358.685 1006.85 298.749 975.149 260.245C960.235 242.133 938.188 231.705 914.759 230.46C705.3 219.332 524.534 286.218 436.125 335.612C415.64 347.058 402.082 367.059 398.853 390.302C391.557 442.833 384.121 531.205 379.99 587.396C379.191 598.258 376.802 608.945 371.678 618.556C346.077 666.577 283.741 747.752 245.106 795.488C238.549 803.591 239.171 815.376 247.135 822.1C280.404 850.188 338.468 887.386 385.999 879.581M240.444 809.859C262.015 792.823 333.043 745.637 420.195 720.843C529.136 689.851 641.153 689.404 727.401 672.098C848.465 647.807 916.79 573.215 1047.32 572.025C1177.85 570.835 1187.03 629.968 1339.22 617.077" stroke="black" stroke-width="22" stroke-linecap="round"/>
<path d="M778.287 318.16C778.395 318.004 778.345 317.799 778.177 317.709L725.393 288.599C725.124 288.453 724.793 288.697 724.88 288.978L731.374 309.937C731.431 310.12 731.303 310.313 731.1 310.351L681.368 319.643C681.167 319.681 681.039 319.872 681.093 320.054L688.072 349.642C688.12 349.802 688.29 349.898 688.466 349.866L738.337 340.547C738.511 340.515 738.681 340.609 738.73 340.767L745.281 361.91C745.362 362.174 745.74 362.218 745.903 361.983L778.287 318.16ZM664.589 380.771C664.414 380.804 664.245 380.709 664.196 380.552L657.645 359.408C657.564 359.145 657.186 359.101 657.023 359.335L625.578 403.182C625.47 403.338 625.52 403.543 625.688 403.633L677.525 432.707C677.795 432.852 678.125 432.608 678.038 432.328L671.572 411.459C671.516 411.276 671.643 411.083 671.846 411.045L721.578 401.753C721.78 401.715 721.907 401.524 721.853 401.342L714.852 371.665C714.804 371.506 714.634 371.409 714.458 371.442L664.589 380.771Z" fill="white"/>
</g>
<defs>
<clipPath id="clip0_499_1441">
<rect width="1500" height="1500" fill="white"/>
</clipPath>
</defs>
      
    </g>
    </svg>