<svg
      xmlns="http://www.w3.org/2000/svg"
      preserveAspectRatio="xMidYMin meet"
      fill="none"
      viewBox="0 0 1500 1500"
    >
      <g>
      <path fill="url(#prefix__paint0_linear_53_30460)" d="M0 0h1500v1500H0z"/><defs><linearGradient id="prefix__paint0_linear_53_30460" x1="0" y1="0" x2="1500" y2="1500" gradientUnits="userSpaceOnUse">
<stop stop-color="#F1FFBA"/>
<stop offset="1" stop-color="#65DCBA"/>
</linearGradient></defs>
      <g clip-path="url(#clip0_481_166)">
<path d="M773 1011.5C868.667 1017.83 1075.7 1127 1138.5 1513H355C361.86 1487.94 371.214 1458.84 382.999 1427.5L350.5 1396.5C343.333 1370.17 328.8 1316.3 328 1311.5C327 1305.5 328 1226.5 328 1217.5C328 1210.3 314.667 1158.17 308 1133L256 1102.5L212.5 1109.5V1158L147.5 1122.5L97.5 1039H161L227 1019.5L212.5 1053.5L292 1064.5L340.5 1092.5L355 1129L382.999 1203.5V1260L387 1329L412.451 1356.5C483.351 1200.51 605.626 1024.91 773 1011.5Z" fill="#FF6247"/>
<path d="M749.5 1019.5C536 1134 457.448 1414.63 443.159 1511H353.699C351.265 1509.32 354.277 1488.32 377.487 1424C368.324 1417.67 348.5 1396.1 342.5 1360.5C336.5 1324.9 328.333 1273.33 325 1252V1172.5L284 1114L233 1101.5L204.5 1114L217 1167C186.667 1156 121.3 1116 102.5 1044L162.5 1037L233 1014L217 1059H287L337 1085L370 1137.5L378 1196V1245V1306.5L395.5 1344L404.533 1353C406.257 1348.65 408.036 1344.2 409.87 1339.62C462.691 1207.98 569.086 1113.24 605.384 1082.33L674 1033.5L749.5 1019.5Z" fill="#001647" fill-opacity="0.2"/>
<path d="M353.5 1519.5C365.5 1454.33 414.5 1313.6 483.5 1219C530.101 1155.11 577.468 1101.29 629.141 1059.66C710.278 994.299 826.037 996.323 905.02 1064.27C1000.08 1146.05 1103.44 1290.29 1142.5 1519.5M1013.5 1319C1024.83 1354.33 1048.1 1443.9 1050.5 1519.5M667 1361.5C661.167 1392.33 650.3 1467.1 653.5 1519.5M403.999 1357.5C392.166 1349.5 371.606 1316.33 377.999 1248C385.996 1162.54 357.694 1034.33 217.866 1060.74C217.205 1060.86 216.572 1060.33 216.664 1059.66C218.118 1049.08 224.532 1027.57 235.443 1013.6C236.127 1012.72 235.086 1011.29 234.071 1011.74C203.779 1025.13 147.126 1044.29 101.47 1039.66C100.764 1039.59 100.202 1040.22 100.399 1040.9C112.755 1083.53 151.12 1149.05 220.224 1163.93C221.002 1164.1 221.657 1163.33 221.365 1162.59C215.143 1146.83 206.736 1120.9 208.375 1111.37C208.165 1110.88 208.361 1110.32 208.838 1110.09C222.979 1103.32 251.377 1099.03 280 1115.5C316.5 1136.5 330 1186.5 327 1248C324 1309.5 333.499 1392.5 377.999 1426.5" stroke="black" stroke-width="22" stroke-linecap="round"/>
</g>
<defs>
<clipPath id="clip0_481_166">
<rect width="1500" height="1500" fill="white"/>
</clipPath>
</defs>
      <g clip-path="url(#clip0_497_1194)">
<path d="M379.667 654.812C432.345 471.574 618.472 401.981 699.114 390.653C740.985 382.718 849.655 375.215 949.364 408.675C980 418.956 1049.88 457.388 1091.92 499.818C1144.47 552.856 1272.97 732.052 1185.05 927.725C1097.12 1123.4 758.414 1092.29 612.749 1051.82C464.472 1010.63 314.48 881.563 379.667 654.812Z" fill="#AABBFF"/>
<path d="M449.293 747.204C454.734 531.068 585.306 432.345 649.911 410C432.292 459.565 365.296 655.455 364 747.204C377.99 984.871 584.496 1053.43 681 1058C601.498 1044.46 443.853 963.339 449.293 747.204Z" fill="#001647" fill-opacity="0.2"/>
<path d="M379.667 654.812C432.345 471.574 618.472 401.981 699.114 390.653C740.985 382.718 849.655 375.215 949.364 408.675C980 418.956 1049.88 457.388 1091.92 499.818C1144.47 552.856 1272.97 732.052 1185.05 927.725C1097.12 1123.4 758.414 1092.29 612.749 1051.82C464.472 1010.63 314.48 881.563 379.667 654.812Z" stroke="black" stroke-width="22" stroke-linecap="round"/>
</g>
<defs>
    <clipPath id="prefix__clip0_299_662"><path fill="#fff" d="M0 0h1500v1500H0z"/></clipPath>
</defs>
      <g clip-path="url(#clip0_624_3388)">
<path d="M822 818C849.062 818 871 796.062 871 769C871 741.938 849.062 720 822 720C794.938 720 773 741.938 773 769C773 796.062 794.938 818 822 818Z" fill="white" stroke="black" stroke-width="20" stroke-miterlimit="10"/>
<path d="M1012 818C1039.06 818 1061 796.062 1061 769C1061 741.938 1039.06 720 1012 720C984.938 720 963 741.938 963 769C963 796.062 984.938 818 1012 818Z" fill="white" stroke="black" stroke-width="20" stroke-miterlimit="10"/>
<path d="M837 782C844.18 782 850 776.18 850 769C850 761.82 844.18 756 837 756C829.82 756 824 761.82 824 769C824 776.18 829.82 782 837 782Z" fill="black"/>
<path d="M1027 782C1034.18 782 1040 776.18 1040 769C1040 761.82 1034.18 756 1027 756C1019.82 756 1014 761.82 1014 769C1014 776.18 1019.82 782 1027 782Z" fill="black"/>
<path d="M988.653 960.897H855.227C854.074 960.897 852.968 960.439 852.153 959.624C851.338 958.809 850.88 957.703 850.88 956.551C850.88 937.828 858.317 919.872 871.556 906.633C884.795 893.394 902.751 885.957 921.474 885.957H922.406C941.129 885.957 959.085 893.394 972.324 906.633C985.562 919.872 993 937.828 993 956.551C993 957.703 992.542 958.809 991.727 959.624C990.912 960.439 989.806 960.897 988.653 960.897Z" fill="white" stroke="black" stroke-width="20" stroke-miterlimit="10"/>
</g>
<defs>
<clipPath id="clip0_624_3388">
<rect width="1500" height="1500" fill="white"/>
</clipPath>
</defs>
      <g clip-path="url(#clip0_845_2570)">
<ellipse cx="932" cy="915.5" rx="131" ry="69.5" fill="#AABBFF"/>
<path d="M1064.85 848.913L981.352 891.522L1001.85 918.58L1079.43 879.307L1064.85 848.913Z" fill="white"/>
<path d="M1094.79 877.072C1084.04 879.443 1070.41 855.937 1064.94 843.888L1080.91 840.718L1094.21 851.835C1098.88 859.26 1105.54 874.702 1094.79 877.072Z" fill="#FF6247"/>
<path d="M989.67 884.941L948.184 908.29L980.01 924.589L1009.27 915.418L989.67 884.941Z" fill="#FF9C07"/>
<path d="M855 933.5C868.287 922.368 899.473 908.037 940 914.627C941.978 914.948 943.978 915.32 946 915.744C957.536 918.164 969.764 922.298 982.5 928.667C983.662 929.249 984.829 929.849 986 930.468C987.824 931.432 989.657 932.442 991.5 933.5" stroke="black" stroke-width="20" stroke-linecap="round"/>
<path d="M926 913L1075.85 836.605M984.69 927.619L1096.13 874.209" stroke="black" stroke-width="20" stroke-linecap="round"/>
<ellipse cx="1086.92" cy="854.964" rx="15.8362" ry="21.2046" transform="rotate(-28.2597 1086.92 854.964)" stroke="black" stroke-width="20"/>
</g>
<defs>
<clipPath id="clip0_845_2570">
<rect width="1500" height="1500" fill="white"/>
</clipPath>
</defs>
      <g clip-path="url(#clip0_1379_1571)">
<path d="M342.258 665.941L358.32 707.415C358.68 708.344 359.67 708.867 360.64 708.64L537.136 667.323L828.203 631.654L1036.98 624.277L1188.55 632.319C1189.56 632.372 1190.45 631.667 1190.62 630.673L1199.65 580.167C1199.71 579.827 1199.68 579.476 1199.56 579.149L1180.09 524.031C1179.88 523.437 1179.95 522.804 1180.29 522.28C1217.27 466.502 1286.64 340.593 1272.44 276.496C1258.31 212.74 1197.52 183.014 1168.01 175.834C1167.43 175.693 1166.97 175.309 1166.67 174.791C1161.62 165.923 1139.96 144.292 1089.03 121.998C1038.73 99.9771 980.139 121.832 953.904 137.21C952.484 138.043 950.536 136.919 950.134 135.323C946.467 120.754 917.303 94.9648 819.98 83.233C714.649 70.5359 649.643 113.807 629.281 138.026C628.736 138.674 627.882 138.905 627.077 138.645C610.365 133.237 565.008 125.702 505.949 135.789C445.773 146.068 410.808 192.418 400.527 214.887C400.349 215.276 400.063 215.584 399.69 215.794L327.884 256.385C327.716 256.479 327.563 256.598 327.429 256.737L284.184 301.563C283.992 301.763 283.843 302 283.748 302.259L261.936 361.343C261.827 361.637 261.65 361.902 261.42 362.116L237.5 384.307C237.267 384.523 237.089 384.791 236.98 385.09L222.824 424.028C222.653 424.497 222.664 425.013 222.855 425.474L243.217 474.832L282.703 544.679C282.795 544.842 282.91 544.992 283.045 545.124L343.133 603.978C343.531 604.367 343.748 604.905 343.733 605.461L342.124 665.165C342.116 665.43 342.162 665.694 342.258 665.941Z" fill="white"/>
<path fill-rule="evenodd" clip-rule="evenodd" d="M1010.54 421.865C1016.57 422.611 1020.85 428.104 1020.1 434.133C1018.83 444.412 1015.39 460.517 1009.1 476.232C1002.93 491.627 993.308 508.489 978.622 518.044C973.5 518.5 966.716 519.915 963.402 514.823C960.089 509.73 961.532 502.916 966.624 499.603C975.56 493.79 983.046 482.103 988.672 468.054C994.168 454.326 997.196 440.095 998.269 431.43C999.015 425.401 1004.51 421.119 1010.54 421.865ZM813.119 424.72C819.1 423.658 824.81 427.647 825.871 433.629C827.596 443.353 829.729 458.864 830.558 474.089C830.973 481.701 831.073 489.442 830.587 496.456C830.116 503.252 829.042 510.296 826.59 515.976C824.183 521.554 817.71 524.124 812.132 521.717C806.554 519.309 803.984 512.836 806.391 507.258C807.354 505.027 808.222 500.953 808.64 494.935C809.042 489.135 808.977 482.367 808.591 475.285C807.82 461.122 805.813 446.511 804.209 437.472C803.148 431.49 807.137 425.781 813.119 424.72ZM1146.5 439.718C1152.11 442.05 1154.76 448.489 1152.43 454.098C1146.73 467.809 1138.33 482.605 1129.05 495.33C1121.71 505.395 1113.28 514.9 1104.64 521.415C1102.57 522.973 1100.49 518.359 1098.41 519.542C1093.13 522.544 1086.41 520.696 1083.41 515.415C1080.41 510.133 1082.26 509.418 1087.54 506.416C1094.23 502.613 1102.77 494.032 1111.28 482.365C1119.6 470.951 1127.12 457.661 1132.12 445.65C1134.45 440.041 1140.89 437.385 1146.5 439.718ZM506.111 487.405C511.616 484.836 518.162 487.216 520.731 492.721C523.594 498.853 530.109 509.541 538.484 518.818C547.235 528.511 555.976 534.392 563.037 535.08C569.083 535.668 573.508 541.047 572.919 547.093C572.331 553.14 566.952 557.565 560.906 556.976C545.217 555.449 531.665 544.095 522.154 533.56C512.268 522.609 504.554 510.076 500.796 502.026C498.226 496.521 500.606 489.975 506.111 487.405Z" fill="#001647" fill-opacity="0.2"/>
<path d="M500.499 563.5C484.899 593.1 484.999 655.833 486.999 683.5L357 712.5L350 687.5L345 612.5L465.5 563.5H500.499Z" fill="#001647" fill-opacity="0.2"/>
<path d="M365.5 338.5C368.33 422.468 460.333 517 500.499 556.5L483 557.5L444 568L352.5 601L318 582.5L262.5 524L238 483L231.5 431.5V393L262.5 370.5L260 338.5L295 286.5L362.5 237L400 205.5C390.667 214.833 362.5 249.5 365.5 338.5Z" fill="#001647" fill-opacity="0.2"/>
<path d="M433 179.5C419.542 191.061 393.481 223.562 390.317 265.473C389.94 270.471 393.421 274.838 398.29 276.03C406.278 277.986 414.057 271.498 415.564 263.412C424.15 217.339 477.709 151.52 566 134.5H498L433 179.5Z" fill="#001647" fill-opacity="0.2"/>
<path d="M841.5 96C734.3 93.6 729.833 176.667 741 218.5C733.667 214.167 718.6 204.3 717 199.5C715.4 194.7 682 168.833 665.5 156.5L633.5 137.5L669 103L764.5 82L841.5 96Z" fill="#001647" fill-opacity="0.2"/>
<path d="M1079.5 128C1021.5 122.8 1016 176.667 1020 205.5L982 164L960.5 140.5L985.5 121L1034.5 109.5L1079.5 128Z" fill="#001647" fill-opacity="0.2"/>
<path d="M1239.5 224.5C1207.9 208.5 1196.33 254.167 1194.5 279L1186 237L1177 181.5L1213 192.5L1239.5 224.5Z" fill="#001647" fill-opacity="0.2"/>
<path d="M1021.19 430.781C1018.84 449.725 1008.25 491.455 984.623 506.824M827.04 433.551C830.369 452.314 835.32 493.796 828.491 509.617M522.764 495.373C529.384 509.557 551.222 541.814 573.971 544.028M381.886 544.594C392.27 555.212 417.877 578.815 433.493 578.436M1154.27 447.874C1143.58 473.595 1122.45 504.046 1104.97 513.979M1160.44 167.939C1219.31 187.532 1295.18 251.1 1271.59 344.998C1246.99 442.896 1202.57 499.528 1182.36 519.157M1184.72 283.135C1193.37 246.855 1190.6 165.451 1110.32 130.074C1030.05 94.6982 973.668 121.555 954.554 137.879M1011.89 200.447C990.917 162.035 916.767 84.9419 787.949 83.87C701.167 83.1479 653.682 111.271 630.399 139.295M732.749 220.432C701.408 177.005 611.17 99.2819 500.946 135.805C415.736 164.039 387.614 223.538 382.208 267.502M391.09 221.725C324.52 241.939 214.806 341.818 286.237 418.971M258.04 370.194C235.617 379.426 202.067 416.702 247.255 491.947C292.444 567.192 332.781 597.29 345.295 603.13M1189.83 633.323C814.192 603.545 480.137 672.056 360.361 708.602C359.489 708.869 358.609 708.492 358.145 707.706C337.973 673.522 341.392 628.392 344.94 609.685C345.068 609.014 345.53 608.479 346.168 608.233C648.597 491.438 1024.14 500.576 1177.28 521.409C1177.94 521.499 1178.48 521.915 1178.76 522.516C1201.24 569.291 1199.19 612.715 1191.82 632.103C1191.51 632.912 1190.7 633.392 1189.83 633.323Z" stroke="black" stroke-width="22" stroke-linecap="round"/>
</g>
<defs>
<clipPath id="clip0_1379_1571">
<rect width="1500" height="1500" fill="white"/>
</clipPath>
</defs>
      
    </g>
    </svg>