<svg
      xmlns="http://www.w3.org/2000/svg"
      preserveAspectRatio="xMidYMin meet"
      fill="none"
      viewBox="0 0 1500 1500"
    >
      <g>
      <path fill="url(#prefix__paint0_linear_53_28788)" d="M0 0h1500v1500H0z"/><defs><linearGradient id="prefix__paint0_linear_53_28788" x1="0" y1="0" x2="1500" y2="1500" gradientUnits="userSpaceOnUse">
<stop stop-color="#DBE4E4"/>
<stop offset="1" stop-color="#A7BDBD"/>
</linearGradient></defs>
      <g clip-path="url(#clip0_481_100)">
<path d="M342.5 1476.5L351.5 1506C616.5 1509.33 1147.2 1513 1150 1501C1153.5 1486 1153 1471.5 1152 1466C1151 1460.5 1145.5 1446 1142.5 1433C1139.5 1420 1143 1424.5 1142.5 1415.5C1142.1 1408.3 1139.33 1400.17 1138 1397C1134.83 1394 1128.1 1386.4 1126.5 1380C1124.5 1372 1120.5 1350.5 1118.5 1341C1116.5 1331.5 1118 1334 1115 1327C1112 1320 1109.5 1320 1104.5 1311C1100.5 1303.8 1093.17 1287.67 1090 1280.5C1090.17 1274.67 1089.6 1261.3 1086 1254.5C1081.5 1246 1075.5 1242 1070 1235C1064.5 1228 1063.5 1230.5 1060.5 1226.5C1057.5 1222.5 1055.5 1212 1051 1198.5C1046.5 1185 1047 1191 1042 1183.5C1037 1176 1030 1168.5 1027 1164.5C1024 1160.5 1019.5 1144.5 1016.5 1139.5C1013.5 1134.5 1010 1132 1001.5 1122C993 1112 992 1113.5 983.5 1107C975 1100.5 973.5 1101 971 1098.5C968.5 1096 964.5 1089 957.5 1076C950.5 1063 951 1063.5 945.5 1058.5C940 1053.5 934.5 1048.5 931 1046.5C927.5 1044.5 913.5 1044.5 906 1043C898.5 1041.5 881 1029.5 875.5 1025C871.1 1021.4 858 1009.83 852 1004.5L793 1011L747 995C727.667 1001 688.4 1013 686 1013H663.5L619 1035L588.5 1058.5L566 1078L525.5 1113L497 1159L459.5 1202.5L432 1248.5C426.667 1262.5 415.6 1291.4 414 1295C412.4 1298.6 396.667 1318.5 389 1328L363.5 1384L360 1437L342.5 1476.5Z" fill="#9E6740"/>
<path d="M739.5 1003.5C526 1118 437.449 1414.63 423.16 1511H344C340.715 1508.73 337.05 1471.27 389.87 1339.62C442.691 1207.98 534.203 1104.91 570.5 1074L652 1017.5L739.5 1003.5Z" fill="#001647" fill-opacity="0.2"/>
<path fill-rule="evenodd" clip-rule="evenodd" d="M757.356 1107.02C762.316 1110.53 763.491 1117.39 759.983 1122.35L754.598 1129.97C746.409 1141.54 731.551 1146.3 718.162 1141.64L717.86 1141.53C713.821 1140.12 709.341 1141.62 706.958 1145.17C698.593 1157.65 682.565 1162.45 668.717 1156.64L662.744 1154.13C657.143 1151.78 654.509 1145.33 656.861 1139.73C659.213 1134.13 665.661 1131.49 671.262 1133.85L677.235 1136.35C681.382 1138.1 686.181 1136.66 688.686 1132.92C696.643 1121.06 711.604 1116.06 725.094 1120.75L725.396 1120.86C729.527 1122.3 734.112 1120.83 736.638 1117.26L742.023 1109.65C745.532 1104.69 752.397 1103.51 757.356 1107.02ZM992.607 1152.04C987.721 1151.08 982.785 1153.45 980.464 1157.85C973.267 1171.51 957.617 1178.43 942.669 1174.55L935.47 1172.68C929.589 1171.16 926.059 1165.15 927.584 1159.27C929.11 1153.39 935.113 1149.86 940.994 1151.39L948.193 1153.26C953.258 1154.57 958.561 1152.23 961 1147.6C967.849 1134.6 982.415 1127.63 996.836 1130.45C1002.8 1131.62 1006.68 1137.4 1005.52 1143.36C1004.35 1149.32 998.569 1153.21 992.607 1152.04ZM923.356 1246.02C928.316 1249.53 929.491 1256.39 925.983 1261.35L920.598 1268.97C912.409 1280.54 897.551 1285.3 884.162 1280.64L883.861 1280.53C879.821 1279.13 875.341 1280.62 872.958 1284.17C864.593 1296.65 848.565 1301.45 834.717 1295.64L828.744 1293.13C823.143 1290.78 820.509 1284.33 822.861 1278.73C825.213 1273.13 831.661 1270.49 837.262 1272.85L843.235 1275.35C847.382 1277.1 852.181 1275.66 854.686 1271.92C862.642 1260.06 877.603 1255.06 891.094 1259.75L891.396 1259.86C895.527 1261.3 900.112 1259.83 902.638 1256.26L908.023 1248.65C911.532 1243.69 918.397 1242.51 923.356 1246.02ZM645.695 1251.27C650.516 1254.97 651.429 1261.87 647.733 1266.69L642.333 1273.74C633.367 1285.44 618.018 1290.23 603.988 1285.72L602.952 1285.39C598.276 1283.89 593.163 1285.56 590.276 1289.53C581.375 1301.78 565.34 1306.51 551.22 1301.03L544.027 1298.24C538.363 1296.05 535.551 1289.68 537.746 1284.01C539.942 1278.35 546.314 1275.54 551.979 1277.73L559.171 1280.52C563.982 1282.38 569.445 1280.78 572.477 1276.6C580.951 1264.94 595.958 1260.03 609.684 1264.45L610.719 1264.78C615.897 1266.44 621.563 1264.67 624.872 1260.36L630.272 1253.31C633.968 1248.49 640.873 1247.57 645.695 1251.27ZM1125.35 1345.81C1126.19 1347.5 1127 1355 1126.19 1361.35C1116.8 1371.81 1102.28 1376.03 1088.74 1372.23L1073.03 1367.82C1067.18 1366.18 1063.77 1360.11 1065.41 1354.26C1067.05 1348.41 1073.13 1345 1078.98 1346.64L1094.69 1351.05C1100.16 1352.59 1106.02 1350.88 1109.82 1346.66C1113.87 1342.13 1120.83 1341.76 1125.35 1345.81ZM824.505 1389.13C829.405 1392.72 830.466 1399.6 826.876 1404.5L821.48 1411.87C812.96 1423.49 797.896 1428.27 784.234 1423.68L783.618 1423.47C779.303 1422.02 774.549 1423.59 771.952 1427.33C763.355 1439.71 747.33 1444.48 733.365 1438.82L726.87 1436.18C721.24 1433.9 718.526 1427.48 720.809 1421.85C723.092 1416.22 729.506 1413.51 735.136 1415.79L741.631 1418.43C746.065 1420.23 751.153 1418.71 753.882 1414.78C762.062 1403 777.037 1398.05 790.628 1402.62L791.244 1402.82C795.826 1404.36 800.877 1402.76 803.734 1398.86L809.13 1391.5C812.721 1386.6 819.605 1385.54 824.505 1389.13ZM542.406 1414.06C547.346 1417.59 548.483 1424.46 544.947 1429.4L539.558 1436.93C531.259 1448.52 516.333 1453.29 502.853 1448.65L502.447 1448.51C498.315 1447.09 493.743 1448.61 491.289 1452.23C482.847 1464.67 466.821 1469.46 452.934 1463.7L446.787 1461.15C441.175 1458.82 438.514 1452.38 440.843 1446.77C443.172 1441.16 449.608 1438.5 455.219 1440.83L461.366 1443.38C465.609 1445.14 470.505 1443.68 473.085 1439.87C481.116 1428.04 496.081 1423.05 509.605 1427.71L510.011 1427.85C514.293 1429.32 519.034 1427.81 521.669 1424.13L527.059 1416.6C530.595 1411.66 537.467 1410.52 542.406 1414.06ZM1042.41 1451.06C1047.35 1454.59 1048.48 1461.46 1044.95 1466.4L1039.56 1473.93C1031.26 1485.52 1016.33 1490.29 1002.85 1485.65L1002.45 1485.51C998.315 1484.09 993.743 1485.61 991.289 1489.23C982.847 1501.67 966.821 1506.46 952.934 1500.7L946.787 1498.15C941.175 1495.82 938.514 1489.38 940.843 1483.77C943.172 1478.16 949.608 1475.5 955.219 1477.83L961.366 1480.38C965.609 1482.14 970.505 1480.68 973.085 1476.87C981.116 1465.04 996.081 1460.05 1009.6 1464.71L1010.01 1464.85C1014.29 1466.32 1019.03 1464.81 1021.67 1461.13L1027.06 1453.6C1030.6 1448.66 1037.47 1447.52 1042.41 1451.06Z" fill="#001647" fill-opacity="0.2"/>
<path d="M354.847 1509.61C346.122 1496.93 332.914 1472.31 355.528 1447.41C362.758 1439.45 365.228 1427.68 362.663 1417.23C359.783 1405.51 360.364 1391.68 370.623 1380.53C379.745 1370.62 385.291 1354.5 385.942 1341.04C386.384 1331.91 390.312 1322.29 400.414 1314.37C411.247 1305.87 417.887 1289.43 418.513 1275.68C419.033 1264.25 424.175 1252.25 438.04 1244.09C449.969 1237.07 457.932 1221.91 458.354 1208.08C458.699 1196.76 463.435 1185.18 477.362 1177.85C490.381 1171.01 500.652 1153.81 504.747 1139.68C508.168 1127.88 517.458 1116.84 535.681 1111.76C547.739 1108.4 557.129 1097.03 560.458 1084.97C564.144 1071.61 574.041 1058.89 595.703 1055.95C606.503 1054.48 616.08 1046.81 621.298 1037.24C629.611 1022 647.16 1008.54 679.538 1016.24C688.493 1018.36 698.06 1015.41 705.123 1009.5C720.965 996.263 748.114 986.273 781.576 1006.5C788.602 1010.74 797.368 1011.36 804.983 1008.29C828.181 998.941 862.348 995.487 881.83 1027.23C887.255 1036.06 897.252 1041.75 907.619 1041.54C927.722 1041.14 950.938 1048.02 957.195 1074.3C959.906 1085.68 968.831 1096.33 979.552 1101.03C993.337 1107.07 1007.52 1118.48 1010.54 1135.19C1012.94 1148.53 1020.5 1163.49 1032.33 1170.1C1044 1176.63 1053.58 1187.32 1053.28 1203.67C1053.04 1217.01 1059.76 1231.5 1070.99 1238.71C1082.21 1245.93 1091.05 1257.3 1089.38 1273.98C1088.04 1287.41 1094.11 1302.66 1104.47 1311.32C1112.94 1318.41 1118.97 1328.4 1117.21 1341.27C1115.3 1355.19 1119.62 1371.93 1129.82 1381.59C1138.57 1389.87 1144.26 1401.3 1140.52 1415.93C1137.12 1429.26 1140.71 1446.7 1147.93 1458.42C1156.32 1472.06 1158.19 1491.47 1139.21 1512M1013.5 1319C1024.83 1354.33 1048.1 1443.9 1050.5 1519.5M667 1361.5C661.166 1392.33 650.3 1467.1 653.5 1519.5M832 1269.99L837.973 1272.5C846.971 1276.27 857.384 1273.15 862.819 1265.05C867.989 1257.34 877.709 1254.09 886.474 1257.14L886.776 1257.25C895.536 1260.3 905.257 1257.18 910.615 1249.61L916 1242M666 1130.99L671.973 1133.5C680.971 1137.27 691.384 1134.15 696.819 1126.05C701.989 1118.34 711.709 1115.09 720.474 1118.14L720.776 1118.25C729.536 1121.3 739.257 1118.18 744.615 1110.61L750 1103M950 1474.99L956.147 1477.54C965.212 1481.3 975.673 1478.17 981.184 1470.05C986.427 1462.32 996.195 1459.07 1005.02 1462.11L1005.43 1462.25C1014.31 1465.3 1024.14 1462.16 1029.61 1454.53L1035 1447M730 1412.99L736.495 1415.62C745.695 1419.35 756.251 1416.21 761.914 1408.06C767.302 1400.3 777.167 1397.03 786.121 1400.04L786.736 1400.25C795.858 1403.32 805.916 1400.13 811.604 1392.36L817 1385M450 1437.99L456.147 1440.54C465.212 1444.3 475.673 1441.17 481.184 1433.05C486.427 1425.32 496.195 1422.07 505.023 1425.11L505.429 1425.25C514.31 1428.3 524.143 1425.16 529.611 1417.53L535 1410M547 1274.99L554.192 1277.78C563.658 1281.44 574.407 1278.28 580.374 1270.07C586.054 1262.25 596.114 1258.96 605.315 1261.92L606.35 1262.25C615.955 1265.34 626.462 1262.05 632.599 1254.05L638 1247M937.229 1149.03L944.428 1150.9C954.435 1153.5 964.911 1148.87 969.729 1139.72C974.314 1131.02 984.065 1126.35 993.719 1128.24L1008.17 1131.07M1075 1344.23L1090.71 1348.64C1100.22 1351.31 1110.41 1348.35 1117 1341" stroke="black" stroke-width="22" stroke-linecap="round"/>
</g>
<defs>
<clipPath id="clip0_481_100">
<rect width="1500" height="1500" fill="white"/>
</clipPath>
</defs>
      <g clip-path="url(#clip0_497_1194)">
<path d="M379.667 654.812C432.345 471.574 618.472 401.981 699.114 390.653C740.985 382.718 849.655 375.215 949.364 408.675C980 418.956 1049.88 457.388 1091.92 499.818C1144.47 552.856 1272.97 732.052 1185.05 927.725C1097.12 1123.4 758.414 1092.29 612.749 1051.82C464.472 1010.63 314.48 881.563 379.667 654.812Z" fill="#AABBFF"/>
<path d="M449.293 747.204C454.734 531.068 585.306 432.345 649.911 410C432.292 459.565 365.296 655.455 364 747.204C377.99 984.871 584.496 1053.43 681 1058C601.498 1044.46 443.853 963.339 449.293 747.204Z" fill="#001647" fill-opacity="0.2"/>
<path d="M379.667 654.812C432.345 471.574 618.472 401.981 699.114 390.653C740.985 382.718 849.655 375.215 949.364 408.675C980 418.956 1049.88 457.388 1091.92 499.818C1144.47 552.856 1272.97 732.052 1185.05 927.725C1097.12 1123.4 758.414 1092.29 612.749 1051.82C464.472 1010.63 314.48 881.563 379.667 654.812Z" stroke="black" stroke-width="22" stroke-linecap="round"/>
</g>
<defs>
    <clipPath id="prefix__clip0_299_662"><path fill="#fff" d="M0 0h1500v1500H0z"/></clipPath>
</defs>
      <g clip-path="url(#clip0_624_3413)">
<path d="M922.5 969C931.895 969 941.078 966.214 948.89 960.995C956.701 955.775 962.789 948.357 966.384 939.677C969.979 930.998 970.92 921.447 969.087 912.233C967.254 903.019 962.731 894.555 956.088 887.912C949.445 881.269 940.981 876.746 931.767 874.913C922.553 873.08 913.002 874.021 904.323 877.616C895.643 881.211 888.225 887.299 883.005 895.11C877.786 902.922 875 912.105 875 921.5C875 927.738 876.229 933.914 878.616 939.677C881.003 945.44 884.502 950.677 888.912 955.088C893.323 959.498 898.56 962.997 904.323 965.384C910.085 967.771 916.262 969 922.5 969Z" fill="white" stroke="black" stroke-width="22" stroke-miterlimit="10" stroke-linecap="round"/>
<path d="M822 818C849.062 818 871 796.062 871 769C871 741.938 849.062 720 822 720C794.938 720 773 741.938 773 769C773 796.062 794.938 818 822 818Z" fill="white" stroke="black" stroke-width="20" stroke-miterlimit="10"/>
<path d="M1012 818C1039.06 818 1061 796.062 1061 769C1061 741.938 1039.06 720 1012 720C984.938 720 963 741.938 963 769C963 796.062 984.938 818 1012 818Z" fill="white" stroke="black" stroke-width="20" stroke-miterlimit="10"/>
<path d="M822 782C829.18 782 835 776.18 835 769C835 761.82 829.18 756 822 756C814.82 756 809 761.82 809 769C809 776.18 814.82 782 822 782Z" fill="black"/>
<path d="M1012 782C1019.18 782 1025 776.18 1025 769C1025 761.82 1019.18 756 1012 756C1004.82 756 999 761.82 999 769C999 776.18 1004.82 782 1012 782Z" fill="black"/>
</g>
<defs>
<clipPath id="clip0_624_3413">
<rect width="1500" height="1500" fill="white"/>
</clipPath>
</defs>
      <g clip-path="url(#clip0_875_2769)">
<path d="M1110 707V803.467H1089.72V823.747H1069.45V844H968.001V823.747H947.721V803.467H927.407V732.688H906.127V803.467H885.848V823.747H865.568V844H764.121V823.747H743.814V803.467H723.534V732.688H633.959V750.944H611V707H1110Z" fill="black"/>
<path d="M1009 804H988V824H1009V804Z" fill="white"/>
<path d="M988 783H968V804H988V783Z" fill="white"/>
<path d="M968 763H948V783H968V763Z" fill="white"/>
<path d="M805 804H784V824H805V804Z" fill="white"/>
<path d="M784 783H764V804H784V783Z" fill="white"/>
<path d="M764 763H744V783H764V763Z" fill="white"/>
</g>
<defs>
<clipPath id="clip0_875_2769">
<rect width="1500" height="1500" fill="white"/>
</clipPath>
</defs>
      <g clip-path="url(#clip0_771_500)">
<path d="M541.871 495.065L587.182 433.652L629.473 408.913L646.704 407.796L676.33 472.397L693.385 523.112C693.385 523.112 715.562 570.5 681.005 575.31C646.449 580.119 608.181 572.626 608.181 572.626L565.711 562.432L513.348 577.749C513.348 577.749 476.548 643.595 440.109 658.042C403.671 672.488 405.928 656.924 405.928 656.924L371.793 591.795L355.943 518.828C355.943 518.828 344.954 493.682 397.049 493.786C449.144 493.891 487.355 512.484 487.355 512.484L541.871 495.065Z" fill="#4AEEB9"/>
<path d="M430.677 533.465C430.359 517.2 437.959 506.756 441.799 503.567L436.237 497.189L386.586 496.392L356 503.567L365.533 553.795L398.105 643.886L418.76 669L476.356 630.333L513.297 580.105L500.189 545.424L460.467 560.173C460.467 566.817 458.322 579.228 449.743 575.72C439.018 571.335 431.074 553.795 430.677 533.465Z" fill="#001647" fill-opacity="0.2"/>
<path d="M540.307 564.957C516.475 543.59 516.607 516.191 519.652 505.162L494.231 510.344L513.297 572.929L540.307 564.957Z" fill="#001647" fill-opacity="0.2"/>
<path d="M623.325 520.708C629.363 504.125 617.632 495.993 611.012 494C605.848 500.378 595.441 513.294 595.123 513.932C594.805 514.569 573.806 524.296 563.346 529.08C563.214 535.059 564.22 547.178 569.304 547.815C575.66 548.613 615.778 541.437 623.325 520.708Z" fill="#001647" fill-opacity="0.2"/>
<path d="M544.174 494.298L490.359 513.598L513.366 577.748L567.181 558.448L544.174 494.298Z" stroke="black" stroke-width="22" stroke-miterlimit="10"/>
<path d="M567.212 557.978C567.212 557.978 631.445 590.594 691.537 572.212C694.695 571.234 697.408 569.182 699.202 566.414C700.996 563.646 701.758 560.337 701.353 557.066C694.958 504.637 676.725 454.333 648.025 409.934L647.939 409.808C646.161 407.043 643.468 404.985 640.326 403.993C637.185 403.002 633.794 403.138 630.743 404.378C572.608 428.212 543.822 494.106 543.822 494.106" stroke="black" stroke-width="22" stroke-miterlimit="10"/>
<path d="M490.33 513.988C490.33 513.988 426.095 481.367 365.986 499.752C362.829 500.728 360.115 502.779 358.321 505.546C356.526 508.314 355.764 511.622 356.168 514.892V514.892C362.559 567.323 380.786 617.629 409.481 662.033L409.567 662.166C411.347 664.929 414.042 666.984 417.184 667.973C420.326 668.962 423.716 668.823 426.766 667.581C484.91 643.751 513.7 577.847 513.7 577.847" stroke="black" stroke-width="22" stroke-miterlimit="10"/>
<path d="M555.844 526.597C555.844 526.597 592.013 530.268 604.537 494.857" stroke="black" stroke-width="22" stroke-miterlimit="10" stroke-linecap="round"/>
<path d="M501.683 546.407C501.683 546.407 460.223 543.612 454.093 578.202" stroke="black" stroke-width="22" stroke-miterlimit="10" stroke-linecap="round"/>
<path d="M711.94 381.541L669.138 415.004L754.914 456.956C786.09 456.451 856.04 454.579 886.429 451.127C916.817 447.675 946.703 430.594 957.848 422.485L912.882 387.272L890.772 360.146L852.07 352.844L816.711 388.83L811.119 369.892L779.2 357.196L748.101 362.456L711.94 381.541Z" fill="#AABBFF"/>
<path d="M754.823 451.145C758.386 440.393 766.661 423.631 780.081 411.559M882.17 449.083C878.062 439.675 870.922 425.659 859.411 414.501M670.743 416.037C678.291 403.405 696.028 378.1 722.448 377.672C724.832 377.634 727.122 377.712 729.323 377.895M780.081 411.559C789.433 403.145 801.285 397.009 815.783 396.774C818.147 396.736 820.438 396.825 822.658 397.03M780.081 411.559C771.884 400.903 758.35 380.305 729.323 377.895M953.095 422.563C946.826 410.677 929.573 387.795 908.089 385.052M859.411 414.501C864.186 404.755 879.655 385.169 903.328 384.785C904.936 384.759 906.524 384.852 908.089 385.052M859.411 414.501C850.192 405.565 838.17 398.463 822.658 397.03M729.323 377.895C734.108 368.72 747.587 350.309 768.512 349.97C795.461 349.534 817.557 375.809 822.658 397.03M908.089 385.052C903.334 374.267 889.367 351.713 871.612 352C849.419 352.36 832.274 370.674 822.592 392.964" stroke="black" stroke-width="22" stroke-linecap="round"/>
</g>
<defs>
<clipPath id="clip0_771_500">
<rect width="1500" height="1500" fill="white"/>
</clipPath>
</defs>
      
    </g>
    </svg>