<svg
      xmlns="http://www.w3.org/2000/svg"
      preserveAspectRatio="xMidYMin meet"
      fill="none"
      viewBox="0 0 1500 1500"
    >
      <g>
      <path fill="url(#prefix__paint0_linear_53_30461)" d="M0 0h1500v1500H0z"/><defs><linearGradient id="prefix__paint0_linear_53_30461" x1="0" y1="0" x2="1500" y2="1533.5" gradientUnits="userSpaceOnUse">
<stop stop-color="#EEB0FC"/>
<stop offset="1" stop-color="#AF55F5"/>
</linearGradient></defs>
      <g clip-path="url(#clip0_496_948)">
<path d="M773 1011.5C543.4 1029.9 398.667 1353.5 355 1513H1138.5C1075.7 1127 868.667 1017.83 773 1011.5Z" fill="white"/>
<path d="M353.699 1511C350.414 1508.73 357.049 1471.27 409.87 1339.62C436.322 1273.7 476.209 1217.03 514 1173L524 1176.5L570.032 1188.5C488.342 1309.97 452.378 1448.83 443.159 1511H353.699Z" fill="#001647" fill-opacity="0.2"/>
<path d="M939.5 1511C927.5 1360.2 870.5 1116.5 841.5 1033.5H866.5L906.5 1137.5L947.5 1325.5L970 1511H939.5Z" fill="#001647" fill-opacity="0.2"/>
<path d="M805 1365L817 1517.5L971 1510.5L960 1428.5L932 1270.5L901 1137L877 1040L867 1029L828 1018C815.167 1015 787.1 1012.7 779.5 1011.5C771.9 1010.3 740.333 1005.83 725 1011.5L654.5 1045C674.5 1057 714.9 1081.6 716.5 1084C718.1 1086.4 756.833 1166.33 776 1206L805 1365Z" fill="#FF6247"/>
<path d="M656 1439.5L649.5 1511H809.5L806.5 1372.5L783.5 1254.5L753.5 1146L692.5 1064.5L657.5 1032.5C627.9 1044.1 554.833 1131.67 522 1174L610.5 1211.5L649.5 1251.5L670 1334.5L656 1439.5Z" fill="#3A3A3A"/>
<path d="M957.5 1385.5L974.5 1511H1050.5L1042 1448.5L1022 1352.5L1000.5 1266.5L1022 1206.5L936 1096L877.5 1048L916.5 1194L957.5 1385.5Z" fill="#3A3A3A"/>
<path d="M523.499 1182C523.499 1182 505.5 1187.8 513.141 1174C541.446 1122.86 587.126 1097.88 605.384 1082.33L674 1033.5L749.5 1019.5C673.999 1059.99 615.375 1121.26 570.5 1187.8H570.499L523.499 1182Z" fill="black" fill-opacity="0.2"/>
<path d="M353.5 1519.5C365.5 1454.33 414.5 1313.6 483.5 1219C530.101 1155.11 577.468 1101.29 629.141 1059.66C710.278 994.299 826.037 996.323 905.02 1064.27C1000.08 1146.05 1103.44 1290.29 1142.5 1519.5M1050.5 1519.5C1048.1 1443.9 1024.83 1354.33 1013.5 1319C999.5 1268 1009.7 1225.3 1020.5 1204.5M653.5 1519.5C650.3 1467.1 661.167 1392.33 667 1361.5C674 1324.5 668 1288.8 642 1250C609.5 1201.5 554.5 1171 517 1179.5M811.847 1484C812.631 1496.77 813.349 1509.94 814 1523.5M811.847 1484L964.471 1466M811.847 1484C810.341 1459.43 808.594 1436.3 806.617 1414.5M969.5 1523.5C968.476 1507.52 966.802 1488.03 964.471 1466M964.471 1466C962.326 1445.74 959.626 1423.32 956.362 1399.5M806.617 1414.5L956.362 1399.5M806.617 1414.5C804.398 1390.03 801.89 1367.24 799.11 1346M956.362 1399.5C953.348 1377.51 949.855 1354.31 945.877 1330.5M799.11 1346L945.877 1330.5M799.11 1346C795.695 1319.92 791.87 1296.17 787.664 1274.5M945.877 1330.5C941.963 1307.08 937.58 1283.06 932.722 1259M787.664 1274.5L932.722 1259M787.664 1274.5C781.729 1243.93 775.036 1217.5 767.671 1194.5M932.722 1259C927.26 1231.95 921.197 1204.85 914.528 1178.5M767.671 1194.5L914.528 1178.5M767.671 1194.5C758.702 1166.5 748.736 1143.59 737.926 1124.5M914.528 1178.5C908.183 1153.43 901.289 1129.04 893.84 1106M893.84 1106C887.615 1086.75 879.003 1058.95 872 1042M893.84 1106L737.926 1124.5M737.926 1124.5C714.675 1083.43 687.521 1060.02 658 1041.55" stroke="black" stroke-width="22" stroke-linecap="round"/>
<path d="M698.265 1257.79C698.91 1259.21 699.577 1260.67 700.046 1262.15C700.237 1262.75 701.353 1267.16 701.964 1269.58C702.088 1270.04 702.327 1270.45 702.653 1270.77C702.978 1271.08 703.375 1271.27 703.795 1271.33L706.726 1271.68C706.939 1271.71 707.141 1271.81 707.313 1271.96C707.485 1272.1 707.619 1272.3 707.701 1272.53L708.467 1274.68C708.801 1275.62 709.654 1276.26 710.501 1276.22L732.54 1275.14C733.373 1275.1 733.974 1274.41 733.985 1273.48L734.011 1271.22C734.015 1271.01 734.083 1270.8 734.203 1270.64C734.324 1270.48 734.489 1270.38 734.672 1270.34L738.029 1269.6C738.836 1269.42 739.329 1268.61 739.207 1267.66C738.889 1265.15 738.314 1260.59 738.284 1259.96C738.2 1258.48 738.321 1257.01 738.434 1255.57C738.596 1253.57 738.764 1251.5 738.38 1249.37C735.931 1235.8 724.429 1225.22 712.739 1225.79C701.048 1226.35 693.529 1237.86 695.978 1251.44C696.379 1253.67 697.337 1255.76 698.265 1257.79ZM720.871 1255.44C720.311 1251.58 723.184 1250.46 726.61 1250.45C730.036 1250.44 732.719 1251.54 733.279 1255.4C733.84 1259.26 731.521 1262.4 728.091 1262.41C724.66 1262.43 721.432 1259.3 720.871 1255.44L720.871 1255.44ZM720.237 1263.1L723.111 1266.7C723.234 1266.85 723.323 1267.03 723.371 1267.22C723.419 1267.41 723.424 1267.61 723.385 1267.81L723.201 1268.57C723.152 1268.76 723.052 1268.93 722.913 1269.05C722.774 1269.17 722.605 1269.23 722.43 1269.23L718.651 1269.42C718.457 1269.42 718.264 1269.37 718.09 1269.27C717.916 1269.17 717.766 1269.02 717.654 1268.84L717.203 1268.11C717.098 1267.95 717.031 1267.77 717.008 1267.57C716.986 1267.37 717.008 1267.18 717.074 1267L718.612 1263.18C718.881 1262.51 719.729 1262.47 720.237 1263.1L720.237 1263.1ZM707.923 1251.35C711.294 1251.04 714.516 1251.86 715.346 1255.71C716.175 1259.56 714.115 1262.94 710.746 1263.25C707.376 1263.57 703.969 1260.71 703.139 1256.86C702.31 1253.01 704.551 1251.67 707.923 1251.34L707.923 1251.35Z" fill="white"/>
<path d="M739.748 1220.9C739.68 1219.05 738.833 1217.12 737.321 1215.76C734.899 1213.58 731.594 1213.7 729.942 1216.03C728.208 1218.46 728.876 1222.33 731.396 1224.61L729.866 1226.88C729.255 1227.79 729.51 1229.2 730.436 1230.04L734.387 1233.6C735.31 1234.44 736.558 1234.38 737.17 1233.47L738.699 1231.19C741.22 1233.46 744.624 1233.27 746.237 1230.72C747.777 1228.29 747.067 1224.56 744.644 1222.37C743.144 1221 741.317 1220.53 739.748 1220.9Z" fill="white"/>
<path d="M689.345 1233.58L691.666 1235.67C692.59 1236.5 693.838 1236.44 694.449 1235.53L697.058 1231.65C697.67 1230.74 697.415 1229.33 696.489 1228.49L694.172 1226.4C695.837 1223.93 695.109 1220.06 692.535 1217.83C690.075 1215.71 686.791 1215.91 685.185 1218.28C684.185 1219.76 684.042 1221.74 684.639 1223.57C682.962 1223.35 681.34 1223.99 680.347 1225.48C678.752 1227.86 679.389 1231.6 681.774 1233.84C684.263 1236.18 687.68 1236.05 689.345 1233.58Z" fill="white"/>
<path d="M753.755 1272.43C751.261 1270.09 747.844 1270.22 746.179 1272.7L743.863 1270.61C742.94 1269.77 741.691 1269.83 741.081 1270.74L738.472 1274.62C737.861 1275.53 738.115 1276.95 739.041 1277.78L741.357 1279.86C739.692 1282.34 740.421 1286.21 742.994 1288.43C745.454 1290.56 748.738 1290.36 750.345 1287.99C751.345 1286.51 751.487 1284.53 750.891 1282.7C752.568 1282.92 754.19 1282.28 755.183 1280.79C756.777 1278.41 756.14 1274.67 753.755 1272.43Z" fill="white"/>
<path d="M695.773 1285.37C695.842 1287.22 696.689 1289.15 698.2 1290.51C700.622 1292.69 703.926 1292.57 705.579 1290.24C707.312 1287.81 706.645 1283.94 704.124 1281.66L705.654 1279.39C706.265 1278.48 706.01 1277.07 705.085 1276.23L701.133 1272.67C700.21 1271.83 698.961 1271.89 698.35 1272.8L696.821 1275.08C694.301 1272.81 690.896 1273 689.282 1275.55C687.74 1277.98 688.45 1281.71 690.869 1283.9C692.38 1285.27 694.204 1285.74 695.773 1285.37Z" fill="white"/>
</g>
<defs>
<clipPath id="clip0_496_948">
<rect width="1500" height="1500" fill="white"/>
</clipPath>
</defs>
      <g clip-path="url(#clip0_497_1194)">
<path d="M379.667 654.812C432.345 471.574 618.472 401.981 699.114 390.653C740.985 382.718 849.655 375.215 949.364 408.675C980 418.956 1049.88 457.388 1091.92 499.818C1144.47 552.856 1272.97 732.052 1185.05 927.725C1097.12 1123.4 758.414 1092.29 612.749 1051.82C464.472 1010.63 314.48 881.563 379.667 654.812Z" fill="#AABBFF"/>
<path d="M449.293 747.204C454.734 531.068 585.306 432.345 649.911 410C432.292 459.565 365.296 655.455 364 747.204C377.99 984.871 584.496 1053.43 681 1058C601.498 1044.46 443.853 963.339 449.293 747.204Z" fill="#001647" fill-opacity="0.2"/>
<path d="M379.667 654.812C432.345 471.574 618.472 401.981 699.114 390.653C740.985 382.718 849.655 375.215 949.364 408.675C980 418.956 1049.88 457.388 1091.92 499.818C1144.47 552.856 1272.97 732.052 1185.05 927.725C1097.12 1123.4 758.414 1092.29 612.749 1051.82C464.472 1010.63 314.48 881.563 379.667 654.812Z" stroke="black" stroke-width="22" stroke-linecap="round"/>
</g>
<defs>
    <clipPath id="prefix__clip0_299_662"><path fill="#fff" d="M0 0h1500v1500H0z"/></clipPath>
</defs>
      <g clip-path="url(#clip0_624_3437)">
<path d="M874 925.246H968.413" stroke="black" stroke-width="20" stroke-linecap="round"/>
<path d="M822 818C849.062 818 871 796.062 871 769C871 741.938 849.062 720 822 720C794.938 720 773 741.938 773 769C773 796.062 794.938 818 822 818Z" fill="white" stroke="black" stroke-width="20" stroke-miterlimit="10"/>
<path d="M1012 818C1039.06 818 1061 796.062 1061 769C1061 741.938 1039.06 720 1012 720C984.938 720 963 741.938 963 769C963 796.062 984.938 818 1012 818Z" fill="white" stroke="black" stroke-width="20" stroke-miterlimit="10"/>
<path d="M822 767C829.18 767 835 761.18 835 754C835 746.82 829.18 741 822 741C814.82 741 809 746.82 809 754C809 761.18 814.82 767 822 767Z" fill="black"/>
<path d="M1012 767C1019.18 767 1025 761.18 1025 754C1025 746.82 1019.18 741 1012 741C1004.82 741 999 746.82 999 754C999 761.18 1004.82 767 1012 767Z" fill="black"/>
</g>
<defs>
<clipPath id="clip0_624_3437">
<rect width="1500" height="1500" fill="white"/>
</clipPath>
</defs>
      <g clip-path="url(#clip0_860_2641)">
<path d="M1085 495C1100.17 545.833 1060 659.5 900 722.5M363.5 756C447.5 798.5 624 827 745.5 782" stroke="black" stroke-width="22" stroke-linecap="round"/>
<path d="M824.517 836.985C752.228 836.158 742.628 769.813 747.489 723.407C748.399 714.714 754.784 707.644 763.327 705.794C809.814 695.728 856.527 701.675 883.131 708.164C890.817 710.038 896.608 716.244 897.779 724.068C904.127 766.46 896.835 837.812 824.517 836.985Z" fill="black" stroke="black" stroke-width="22" stroke-linecap="round"/>
</g>
<defs>
<clipPath id="clip0_860_2641">
<rect width="1500" height="1500" fill="white"/>
</clipPath>
</defs>
      <g clip-path="url(#clip0_708_296)">
<path d="M711.94 381.541L669.138 415.004L754.914 456.956C786.09 456.451 856.04 454.579 886.429 451.127C916.817 447.675 946.703 430.594 957.848 422.485L912.882 387.272L890.772 360.146L852.07 352.844L816.711 388.83L811.119 369.892L779.2 357.196L748.101 362.456L711.94 381.541Z" fill="#AABBFF"/>
<path d="M754.823 451.145C758.386 440.393 766.661 423.631 780.081 411.559M882.17 449.083C878.062 439.675 870.922 425.659 859.411 414.501M670.743 416.037C678.291 403.405 696.028 378.1 722.448 377.672C724.832 377.634 727.122 377.712 729.323 377.895M780.081 411.559C789.433 403.145 801.285 397.009 815.783 396.774C818.147 396.736 820.438 396.825 822.658 397.03M780.081 411.559C771.884 400.903 758.35 380.305 729.323 377.895M953.095 422.563C946.826 410.677 929.573 387.795 908.089 385.052M859.411 414.501C864.186 404.755 879.655 385.169 903.328 384.785C904.936 384.759 906.524 384.852 908.089 385.052M859.411 414.501C850.192 405.565 838.17 398.463 822.658 397.03M729.323 377.895C734.108 368.72 747.587 350.309 768.512 349.97C795.461 349.534 817.557 375.809 822.658 397.03M908.089 385.052C903.334 374.267 889.367 351.713 871.612 352C849.419 352.36 832.274 370.674 822.592 392.964" stroke="black" stroke-width="22" stroke-linecap="round"/>
<path d="M618.569 574.785L567.825 554.973C630.317 600.206 606.448 639.812 586.702 653.962C527.242 683.908 507.254 638.378 504.692 611.869L511.316 570.318L490.636 599.182C470.827 620.265 425.647 647.212 403.397 586.33C381.146 525.448 441.585 513.424 474.586 515.022L453.426 508.674C424.638 495.751 378.17 460.144 422.595 421.103C467.02 382.063 501.723 430.657 513.522 459.834L524.943 471.777L522.345 458.151C523.774 418.422 540.474 348.783 595.845 388.064C651.216 427.345 610.468 470.557 583.173 487.253L634.506 477.464C649.269 474.233 679.558 478.758 682.617 522.698C685.677 566.639 641.193 575.731 618.569 574.785Z" fill="#53B6F9"/>
<path d="M531.578 477.918C531.578 477.918 511.312 435.004 534.518 401.634C570.061 350.432 649.221 401.98 618.177 456.074C608.705 472.599 594.08 476.691 563.51 497.557" stroke="black" stroke-width="22" stroke-miterlimit="10"/>
<path d="M513.103 554.003C513.103 554.003 505.44 600.709 467.602 615.623C409.574 638.504 370.239 550.369 426.017 522.597C443.071 514.116 458.19 517.925 495.248 517.468" stroke="black" stroke-width="22" stroke-miterlimit="10"/>
<path d="M572.003 508.802C572.003 508.802 605.229 468.731 644.671 477.236C705.078 490.256 688.791 582.988 627.471 575.269C608.742 572.908 597.335 565.93 566.505 545.764" stroke="black" stroke-width="22" stroke-miterlimit="10"/>
<path d="M560.484 554.415C560.484 554.415 602.944 568.401 606.766 608.809C612.623 670.762 519.778 682.514 508.631 621.287C505.229 602.583 505.496 594.146 523.784 560.106" stroke="black" stroke-width="22" stroke-miterlimit="10"/>
<path d="M489.538 506.574C489.538 506.574 440.777 514.364 418.081 480.704C383.272 429.114 459.528 375.584 498.625 423.98C510.562 438.768 510.616 447.744 519.059 483.805" stroke="black" stroke-width="22" stroke-miterlimit="10"/>
<path d="M541.944 563.769C550.978 562.046 559.298 557.683 565.853 551.232C572.407 544.78 576.901 536.53 578.767 527.524C580.632 518.519 579.785 509.162 576.333 500.638C572.881 492.114 566.978 484.804 559.372 479.635C551.766 474.465 542.798 471.666 533.601 471.594C524.404 471.521 515.393 474.177 507.706 479.226C500.019 484.275 494.001 491.49 490.415 499.958C486.828 508.427 485.834 517.769 487.556 526.803C489.867 538.917 496.895 549.618 507.094 556.55C517.294 563.483 529.83 566.079 541.944 563.769Z" fill="#FFBF44" stroke="black" stroke-width="22" stroke-miterlimit="10"/>
<path d="M555.522 432.902C557.559 403.973 578.633 391.596 588.915 389.024C580.072 387.671 562.064 385.016 560.78 385.217C559.497 385.418 545.04 393.168 537.972 397.017L525.885 432.62L523.126 470.048C522.358 464.277 520.235 451.1 517.894 444.561C515.553 438.023 507.941 426.529 504.427 421.6L488.861 408.833L466.744 404.083L448.119 411.115L419.631 423.395C418.654 437.25 416.831 465.269 417.353 466.503C417.875 467.736 441.509 495.597 453.261 509.373L402.342 535.86C399.213 549.093 397.453 581.185 415.45 603.682C433.448 626.18 478.866 606.201 499.326 593.399C501.749 598.363 508.86 614.347 517.922 638.575C526.985 662.803 550.633 661.942 561.324 658.483C558.716 656.7 551.761 646.255 544.813 618.736C537.864 591.216 543.483 573.591 547.161 568.218L546.091 561.398C537.641 560.806 519.338 552.771 513.723 525.371C508.109 497.972 526.557 481.43 536.483 476.584L570.564 486.857C564.701 480.926 553.485 461.831 555.522 432.902Z" fill="#001647" fill-opacity="0.2"/>
</g>
<defs>
<clipPath id="clip0_708_296">
<rect width="1500" height="1500" fill="white"/>
</clipPath>
</defs>
      
    </g>
    </svg>