<svg
      xmlns="http://www.w3.org/2000/svg"
      preserveAspectRatio="xMidYMin meet"
      fill="none"
      viewBox="0 0 1500 1500"
    >
      <g>
      <path fill="url(#prefix__paint0_linear_53_30460)" d="M0 0h1500v1500H0z"/><defs><linearGradient id="prefix__paint0_linear_53_30460" x1="0" y1="0" x2="1500" y2="1500" gradientUnits="userSpaceOnUse">
<stop stop-color="#F1FFBA"/>
<stop offset="1" stop-color="#65DCBA"/>
</linearGradient></defs>
      <g clip-path="url(#clip0_483_439)">
<path d="M773 1011.5C543.4 1029.9 398.667 1353.5 355 1513H1138.5C1075.7 1127 868.667 1017.83 773 1011.5Z" fill="#AABBFF"/>
<path d="M661.5 1284C651.1 1208.4 559.5 1181.83 515 1178C583.5 1088.5 654 1030.5 768.5 1008.5C860.1 990.9 976.333 1131.17 1023 1203.5L1007 1267.5L1011.5 1323.5L1036 1427.5L1054 1508H654V1457C660.833 1430.83 671.9 1359.6 661.5 1284Z" fill="#FF6247"/>
<path d="M691 1281C658 1185.5 577 1152.5 538.5 1150.5L517.5 1174L607.5 1204L647.5 1259L674.5 1331.5L657 1443.5L652 1506.5H685C684.752 1490.12 685.132 1463.27 685.975 1439.63C686.843 1415.25 692.482 1391.39 696.842 1367.39C704.309 1326.28 698.07 1301.46 691 1281Z" fill="white"/>
<path d="M982.5 1303C973.3 1248.2 991.333 1198.5 1001.5 1180.5L1024 1199.5L1011.5 1239.5L1015 1315L1041.5 1437.5L1050 1506.5H1024C1012.5 1395 994 1371.5 982.5 1303Z" fill="white"/>
<path d="M834 1189C756.4 1183.4 696 1082 675.5 1032L711 1023.5L721.5 1044.5L774 1117.5L824 1142.5C856.4 1133.7 870.167 1075.83 873 1048C885.333 1054 910.6 1066.5 913 1068.5C915.4 1070.5 902.667 1102 896 1117.5L868 1164.5L834 1189Z" fill="white"/>
<path d="M749.5 1019.5C536 1134 457.448 1414.63 443.159 1511H353.699C350.414 1508.73 357.049 1471.27 409.87 1339.62C462.691 1207.98 569.086 1113.24 605.384 1082.33L674 1033.5L749.5 1019.5Z" fill="#001647" fill-opacity="0.2"/>
<path d="M818.5 1143.5C778.1 1131.9 731.667 1054 713.5 1016.5L795.5 1019.5L872 1043L854 1126.5L818.5 1143.5Z" fill="#AABBFF"/>
<path d="M353.5 1519.5C365.5 1454.33 414.5 1313.6 483.5 1219C530.101 1155.11 577.468 1101.29 629.141 1059.66C710.278 994.299 826.037 996.323 905.02 1064.27C1000.08 1146.05 1103.44 1290.29 1142.5 1519.5M1050.5 1519.5C1048.1 1443.9 1024.83 1354.33 1013.5 1319C999.5 1268 1009.7 1225.3 1020.5 1204.5M653.5 1519.5C650.3 1467.1 661.167 1392.33 667 1361.5C674 1324.5 668 1288.8 642 1250C609.5 1201.5 554.5 1171 517 1179.5M716.5 1021C729.247 1059.57 769.06 1137.84 826.826 1144.38C827.577 1144.46 828.321 1144.26 828.913 1143.79C845.329 1130.77 875.856 1093.54 873.5 1042.5M682 1039C700.209 1094.08 754.185 1179.21 836.775 1187.88C837.527 1187.96 838.267 1187.76 838.866 1187.3C859.814 1171.19 904.649 1131.93 911.953 1072" stroke="black" stroke-width="22" stroke-linecap="round"/>
<path d="M888.198 1393C886.25 1395.6 883.612 1397.6 880.584 1398.77C877.454 1400.17 874.061 1400.87 870.636 1400.83L867.94 1376.85C873.169 1376.06 878.147 1374.07 882.486 1371.04C887.013 1368.1 890.363 1363.66 891.95 1358.5L915.977 1359.01L932.815 1509.56L901.132 1508.88L888.198 1393Z" fill="white"/>
<path d="M801.438 1500.84C793.883 1493.52 789.375 1483.22 787.915 1469.93L780.467 1402.1C778.917 1387.88 780.995 1377.11 786.704 1369.79C792.412 1362.47 801.771 1358.95 814.781 1359.23C827.865 1359.52 838.086 1363.46 845.446 1371.06C852.806 1378.66 857.266 1389.57 858.827 1403.79L866.275 1471.62C867.744 1485.01 865.482 1495.2 859.491 1502.18C853.5 1509.16 844.195 1512.5 831.575 1512.21C819.066 1511.94 809.021 1508.15 801.438 1500.84ZM833.509 1481.65C834.689 1479.45 835.135 1476.93 834.78 1474.46L826.644 1400.34C826.167 1396.03 825.313 1392.72 824.096 1390.42C822.879 1388.13 820.76 1386.95 817.777 1386.89C814.795 1386.83 813.007 1387.92 812.301 1390.17C811.596 1392.42 811.533 1395.71 812.01 1400.02L820.145 1474.15C820.394 1476.78 821.353 1479.3 822.917 1481.42C823.534 1482.36 824.362 1483.14 825.334 1483.69C826.306 1484.24 827.393 1484.55 828.507 1484.59C829.538 1484.65 830.563 1484.4 831.458 1483.88C832.353 1483.35 833.079 1482.58 833.548 1481.65L833.509 1481.65Z" fill="white"/>
<path d="M903.576 1276.75C902.196 1276.75 901.23 1275.39 901.687 1274.08L909.159 1252.81C909.713 1251.23 911.84 1250.99 912.735 1252.4L935.336 1288.03C935.707 1288.61 936.353 1288.96 937.045 1288.96L946.363 1288.86C947.926 1288.85 948.868 1287.13 948.037 1285.8L908.618 1222.93C907.728 1221.51 905.591 1221.75 905.036 1223.33L882.743 1286.81C882.283 1288.12 883.262 1289.49 884.649 1289.47L925.683 1289.07C927.251 1289.05 928.192 1287.32 927.352 1286L914.651 1265.96C913.756 1264.55 911.626 1264.79 911.074 1266.37L907.908 1275.41C907.628 1276.21 906.872 1276.74 906.023 1276.74L903.576 1276.75Z" fill="white"/>
</g>
<defs>
<clipPath id="clip0_483_439">
<rect width="1500" height="1500" fill="white"/>
</clipPath>
</defs>
      <g clip-path="url(#clip0_497_1194)">
<path d="M379.667 654.812C432.345 471.574 618.472 401.981 699.114 390.653C740.985 382.718 849.655 375.215 949.364 408.675C980 418.956 1049.88 457.388 1091.92 499.818C1144.47 552.856 1272.97 732.052 1185.05 927.725C1097.12 1123.4 758.414 1092.29 612.749 1051.82C464.472 1010.63 314.48 881.563 379.667 654.812Z" fill="#AABBFF"/>
<path d="M449.293 747.204C454.734 531.068 585.306 432.345 649.911 410C432.292 459.565 365.296 655.455 364 747.204C377.99 984.871 584.496 1053.43 681 1058C601.498 1044.46 443.853 963.339 449.293 747.204Z" fill="#001647" fill-opacity="0.2"/>
<path d="M379.667 654.812C432.345 471.574 618.472 401.981 699.114 390.653C740.985 382.718 849.655 375.215 949.364 408.675C980 418.956 1049.88 457.388 1091.92 499.818C1144.47 552.856 1272.97 732.052 1185.05 927.725C1097.12 1123.4 758.414 1092.29 612.749 1051.82C464.472 1010.63 314.48 881.563 379.667 654.812Z" stroke="black" stroke-width="22" stroke-linecap="round"/>
</g>
<defs>
    <clipPath id="prefix__clip0_299_662"><path fill="#fff" d="M0 0h1500v1500H0z"/></clipPath>
</defs>
      <g clip-path="url(#clip0_624_3550)">
<path d="M860.753 778.254C855.989 772.147 849.895 767.208 842.935 763.81C835.975 760.413 828.332 758.647 820.587 758.647C812.842 758.647 805.198 760.413 798.238 763.81C791.278 767.208 785.184 772.147 780.42 778.254" stroke="black" stroke-width="22" stroke-miterlimit="10" stroke-linecap="round"/>
<path d="M870.881 910.959C896.594 937.099 946.448 937.099 972.168 910.959" stroke="black" stroke-width="22" stroke-miterlimit="10" stroke-linecap="round"/>
<path d="M1052.5 778.254C1047.74 772.147 1041.64 767.208 1034.68 763.81C1027.72 760.413 1020.08 758.647 1012.33 758.647C1004.59 758.647 996.946 760.413 989.985 763.81C983.025 767.208 976.931 772.147 972.167 778.254" stroke="black" stroke-width="22" stroke-miterlimit="10" stroke-linecap="round"/>
</g>
<defs>
<clipPath id="clip0_624_3550">
<rect width="1500" height="1500" fill="white"/>
</clipPath>
</defs>
      <g clip-path="url(#clip0_840_2513)">
<path d="M691 957.5L701.5 894L714.5 863.5L740 855L901 863.5L1076 851L1103 847.5L1129 859.5L1140 892.5L1130 957.5L1111.5 1013.5L1075.5 1037L980.5 1068L869.5 1084L723 1073L687.5 1060.5V1017L691 957.5Z" fill="#4AEEB9"/>
<path d="M864.5 1078C810.5 1078 763.5 944 783.5 859.5L753 854.5L726.5 856.5L708 870.5L689.5 972.5L680.5 1034L704.5 1066.5L747.5 1078H864.5Z" fill="#001647" fill-opacity="0.2"/>
<path d="M370 697C401.167 729.333 503.36 809.8 700.16 887M379.5 853.5C413.167 883.5 523.917 956.8 687.117 1010M1132.53 876.5C1144.36 872.167 1191.5 848.4 1211.5 828M721 1073.5V1073.5C700.907 1070.71 686.155 1052.49 686.594 1032.21C687.501 990.382 688.367 931.545 704.989 876.761C710.804 857.597 731.009 847.753 750.813 850.733C828.071 862.358 965.043 869.001 1087.71 846.808C1107.13 843.295 1128 855.049 1132.09 874.357C1138.88 906.434 1141.36 954.7 1106.5 1019C995 1094 801 1084.83 721 1073.5Z" stroke="black" stroke-width="22" stroke-linecap="round"/>
</g>
<defs>
<clipPath id="clip0_840_2513">
<rect width="1500" height="1500" fill="white"/>
</clipPath>
</defs>
      <style type="text/css">
	.st0{fill:#AABBFF;}
	.st1{fill:none;stroke:#000000;stroke-width:22;stroke-linecap:round;}
	.st2{fill:#A760FF;}
	.st3{fill:#001647;fill-opacity:0.2;}
	.st4{fill:none;stroke:#000000;stroke-width:22;}
</style>
<path class="st0" d="M711.9,381.5L669.1,415l85.8,42c31.2-0.5,101.1-2.4,131.5-5.8c30.4-3.5,60.3-20.5,71.4-28.6l-45-35.2
	l-22.1-27.1l-38.7-7.3l-35.4,36l-5.6-18.9l-31.9-12.7l-31.1,5.3L711.9,381.5z"/>
<path class="st1" d="M754.8,451.1c3.6-10.8,11.8-27.5,25.3-39.6 M882.2,449.1c-4.1-9.4-11.2-23.4-22.8-34.6 M670.7,416
	c7.5-12.6,25.3-37.9,51.7-38.4c2.4,0,4.7,0,6.9,0.2 M780.1,411.6c9.4-8.4,21.2-14.5,35.7-14.8c2.4,0,4.7,0.1,6.9,0.3 M780.1,411.6
	c-8.2-10.7-21.7-31.3-50.8-33.7 M953.1,422.6c-6.3-11.9-23.5-34.8-45-37.5 M859.4,414.5c4.8-9.7,20.2-29.3,43.9-29.7
	c1.6,0,3.2,0.1,4.8,0.3 M859.4,414.5c-9.2-8.9-21.2-16-36.8-17.5 M729.3,377.9c4.8-9.2,18.3-27.6,39.2-27.9
	c26.9-0.4,49,25.8,54.1,47.1 M908.1,385.1c-4.8-10.8-18.7-33.3-36.5-33.1c-22.2,0.4-39.3,18.7-49,41"/>
<path class="st2" d="M370.4,649.9c-3.5,11-6.3,22.8-8.2,31c-0.2,0.9-0.7,1.7-1.3,2.3c-0.7,0.6-1.5,1-2.4,1.1
	c-0.9,0.1-1.8-0.1-2.6-0.5c-0.8-0.4-1.4-1.1-1.8-1.9c-1.2-2.4-2.2-5-3-7.6c-3-9.8,2.8-22.3,0.4-27.3c-2.4-5.1-0.8-14.6,1.1-22.2
	c1.5-6,2.6-12.2,3.3-18.3c0.2-2-0.5-14.4,0.9-18c1.1-3,6.9-15.4,8.9-19.6c0.4-0.9,1.1-1.6,1.9-2l30.1-19.9c0.2-0.1,3.5-12,3.7-12.1
	l84.5-18.8c0.1-0.1,0.3-0.1,0.4-0.1l97.6-23.3c0.2,0,0.4-0.1,0.5-0.1l95.5-10.7l127.1-17.4c0.2,0,0.3,0,0.5,0l163.3-2.5l0.5,0l0.1,0
	c4.3,0.4,54.5,4.6,67.9,4.9c14,0.3,47,2.7,62.9,4.9c15.8,2.3,23.6,7.6,29.2,11.7c5.6,4,25.9,9.2,32.6,16.8
	c6.7,7.6,23.8,40.3,22.8,41.1c-4.3,3.3,19.8,35.2,22.2,41.4c0.2,0.6,0.3,1.2,0.3,1.8l4,29.9c0,1.1-0.5,2-1.2,2.8l-14.4,15.2
	c-0.5,0.5-1.1,0.9-1.8,1.2c-0.7,0.2-1.4,0.3-2.2,0.1c-0.7-0.1-1.4-0.4-2-0.9c-0.6-0.5-1-1.1-1.3-1.7l-21.6-41.1
	c-2.4-4.6-7-7.6-12.2-8l-18.7-1.4l-114.8,2.4L812,589.5l-0.4,0l-281,34.1l-0.2,0l-116.9,20.5c-0.8,0.1-1.6,0.1-2.3-0.2l-14.1-5.4
	c-0.7-0.3-1.6-0.4-2.3-0.2l-5.8,0.2l-7.4,1.4C376.3,640.9,372,644.7,370.4,649.9z"/>
<path class="st3" d="M604.4,493.6c-29.7,32-45.2,96.8-49.3,125.1c-51.4,7.1-156.6,21.9-166.4,23.8c-9.8,2-21.7,25.5-26.4,37
	l-12.6-31.8l6.8-50.1c3-6.9,3.2-26.6,27.7-50c24.5-23.4,95.5-37,127.9-40.8L604.4,493.6z"/>
<path class="st4" d="M1185.7,645.2l15.8-13.9c16.2-14.2,11.4-37.7,2.7-57.4c-12-27.6-33.9-59.1-49-74.2
	c-15.1-15.1-34.6-25.9-55.9-28c-311.8-30.6-547.8,17.7-670.9,54.3c-52.9,15.8-98.2,85.6-60.4,178.9"/>
<path class="st4" d="M385,650.5c0,0,313-63.3,499.3-62.7c0,0,164.2-4.1,272.7,5.2"/>
<g>
	<path d="M753.8,534.4c-0.7-0.5-1.5-0.9-2.4-1c-0.9-0.2-1.7-0.2-2.6,0c-2,0.4-4.1,0.7-6.1,0.8c-1.7,0.1-3.5,0.2-5.3,0.2
		c-0.7,0-1.5,0-2.3,0.1c-0.7,0-1.5,0.1-2.3,0.1l-0.1,0l-0.1,0c-0.9,0.1-1.7,0.3-2.4,0.7c-0.8,0.4-1.4,0.9-1.9,1.6
		c-0.5,0.6-1,1.4-1.2,2.2c-0.2,0.8-0.3,1.6-0.2,2.4c0.1,0.9,0.3,1.7,0.7,2.5c0.4,0.8,1,1.5,1.6,2c0.7,0.6,1.4,1,2.3,1.3
		c0.8,0.3,1.7,0.3,2.5,0.3c0.3,0,0.6,0,0.8,0c-0.3,0.6-0.7,1.1-1.2,1.5l-0.1,0.1c-1.3,1.5-3.1,2.5-5.1,2.7c-0.6,0-1.3-0.1-1.9-0.4
		c-0.6-0.3-1.1-0.7-1.5-1.3c-1-1.2-1.7-2.6-2.3-4.1c-1-2.7-1.6-5.6-1.9-8.5c-0.6-5.6-0.4-9.9,0.7-12.9l0-0.1c0.2-0.7,0.5-1.4,1-2
		c0.4-0.6,1-1,1.6-1.4c0.5-0.2,1.1-0.4,1.7-0.4c0.6,0,1.3,0,1.9,0.1c0.6,0.1,1.1,0.2,1.7,0.4c0.3,0.1,0.6,0.2,0.8,0.3
		c0.6,0.9,1.5,1.7,2.4,2.3c1.2,0.7,2.5,1,3.9,0.9c0.9-0.1,1.7-0.3,2.4-0.7c0.8-0.4,1.4-0.9,1.9-1.6c0.5-0.7,0.9-1.4,1.2-2.3
		c0.2-0.8,0.3-1.7,0.1-2.6c-0.2-0.9-0.5-1.8-0.9-2.6c-0.6-1.2-1.5-2.3-2.6-3c-1.2-1-2.6-1.8-4-2.4c-1.6-0.8-3.3-1.3-5.1-1.6
		c-1.7-0.3-3.5-0.4-5.2-0.2c-1.3,0-2.6,0.3-3.9,0.7c-1.2,0.4-2.4,0.9-3.5,1.5c-1.3,0.7-2.4,1.6-3.4,2.6c-1.1,1-2,2.2-2.8,3.5
		c-1.7,3-2.7,6.2-3.1,9.6c-0.5,4.3-0.5,8.6,0.1,12.9c1,8.5,3.4,15.1,7.2,19.7c1.8,2.2,4.1,4,6.7,5.2c2.2,1,4.6,1.5,7,1.5
		c0.3,0,0.7,0,1,0l0.4,0l0.1,0c2.5-0.2,4.9-0.9,7.2-2.1c4.5-2.3,8-6.1,10.1-10.8c0.8-1.7,1.2-3.6,1.4-5.5c0.3,0,0.5-0.1,0.8-0.1
		c0.7-0.1,1.4-0.3,2.1-0.4c0.9-0.1,1.7-0.5,2.4-1c0.7-0.5,1.3-1.1,1.8-1.8c0.5-0.7,0.8-1.5,0.9-2.4c0.1-0.9,0.1-1.7-0.1-2.6
		C756.2,536.7,755.2,535.3,753.8,534.4z"/>
	<path d="M812.2,544.3c-0.3-2-0.6-4.2-0.9-6.7c-0.2-1.1-0.3-2.2-0.5-3.3c-0.2-1.4-0.4-2.9-0.7-4.4c-0.4-2.5-0.8-4.9-1.2-7l-0.3-1.5
		c-0.4-2.5-0.9-4.8-1.4-6.8c-0.4-1.8-0.8-3.2-1.2-4.4c-0.3-1.1-0.8-2.3-1.2-3.3c-0.4-0.9-0.9-1.7-1.5-2.5c-0.5-0.7-1.2-1.3-1.9-1.7
		c-0.8-0.6-1.8-1-2.8-1.2c-1-0.2-2.1-0.1-3.1,0.1c-1,0.3-1.9,0.7-2.7,1.4c-0.8,0.7-1.4,1.5-1.9,2.4c-0.4,0.8-0.7,1.6-0.9,2.4
		c-0.3,0.8-0.6,1.7-0.8,2.6c-0.2,0.9-0.5,2-0.8,3.3c-0.5,1.9-1,4.3-1.5,6.9c-0.4,2.4-0.9,5-1.4,7.8c-2.5-5.9-4.7-10.7-6.6-14.2
		c-1-2-2.2-3.9-3.6-5.7c-0.4-0.5-0.8-0.9-1.2-1.4c-0.4-0.4-0.8-0.8-1.3-1.1c-0.9-0.8-2-1.4-3.3-1.7c-0.8-0.2-1.7-0.3-2.5-0.2l-0.1,0
		c-1,0.1-1.9,0.4-2.8,0.9c-0.9,0.5-1.6,1.1-2.2,1.9c-0.4,0.6-0.8,1.2-1.1,1.9c-0.4,0.8-0.6,1.7-0.8,2.5c-0.2,1.1-0.3,2.3-0.4,3.5
		c-0.1,1.4-0.1,3,0,4.8c0.1,2,0.2,4.3,0.4,6.8c0.2,2.6,0.5,5.4,0.8,8.5c0.3,2.6,0.6,5.1,0.9,7.6c0.3,2.5,0.6,4.6,0.9,6.5
		c0.3,1.9,0.6,4,1,6.3c0.1,0.9,0.4,1.7,0.8,2.5c0.4,0.8,1,1.4,1.7,1.9c1.2,1,2.7,1.5,4.2,1.5c0.2,0,0.4,0,0.5,0l0.3,0l0.2-0.1
		c0.7-0.1,1.4-0.4,2.1-0.7c0.8-0.4,1.4-1,1.9-1.7c0.5-0.7,0.9-1.5,1.1-2.3c0.2-0.9,0.2-1.7,0.1-2.5c-0.3-2.1-0.6-4-0.8-5.7l-0.8-5.9
		c-0.3-2.2-0.6-4.5-0.9-6.9l0-0.3c0.2,0.4,0.4,0.9,0.6,1.4l3.6,9.2c0.5,1.3,1,2.6,1.5,3.7c0.7,1.7,1.4,3.7,2.1,5.8
		c0.5,1.4,1.4,2.6,2.7,3.4c1.2,0.8,2.7,1.2,4.1,1.2l0.1,0l0.1,0c1.4-0.1,2.8-0.7,3.9-1.6c1-1,1.7-2.3,1.9-3.7l0-0.2l0,0
		c0-0.2,0.1-0.7,0.2-1.5c0.2-1.1,0.4-2.6,0.7-4.4c0.3-1.8,0.6-4,1-6.4c0.3-1.9,0.6-4,1-6c0.2,1.5,0.4,3,0.6,4.5
		c0.3,2.3,0.5,4.3,0.8,6c0.3,1.7,0.5,3.7,0.7,5.8c0.2,1.8,1.1,3.3,2.4,4.4c0.7,0.6,1.4,1,2.3,1.3c0.8,0.3,1.6,0.3,2.5,0.3l0.1,0
		l0.1,0c0.9,0,1.7-0.3,2.5-0.7c0.8-0.4,1.4-0.9,2-1.6c0.6-0.7,1-1.4,1.2-2.3c0.2-0.8,0.3-1.7,0.2-2.5
		C812.7,548.5,812.5,546.3,812.2,544.3z"/>
	<path d="M848.4,552.2c-0.5-0.7-1.2-1.3-2-1.7c-0.8-0.4-1.6-0.7-2.5-0.8c-1.9-0.3-3.7-1.1-5.1-2.4c-1.6-1.4-2.9-3-4-4.8
		c-1.1-1.9-2.1-3.8-2.8-5.9c-0.6-1.8-1.1-3.7-1.5-5.5c-0.4-2.3-0.6-4.7-0.4-7c0.1-2.2,0.5-4.5,1.2-6.6c0.6-2,1.5-3.9,2.6-5.7
		c1-1.7,2.3-3.2,3.8-4.4c0.7-0.5,1.3-1.2,1.7-2c0.4-0.8,0.6-1.6,0.7-2.5c0.1-1.8-0.5-3.5-1.6-4.8c-0.5-0.7-1.2-1.3-2-1.7
		c-0.8-0.4-1.6-0.7-2.4-0.8c-0.9-0.1-1.7-0.1-2.6,0.2c-0.8,0.2-1.6,0.6-2.3,1.2c-2.5,2.1-4.7,4.5-6.5,7.3c-1.8,2.9-3.2,6-4.2,9.2
		c-1.8,6.2-2.1,12.9-0.9,19.3c0.2,1,0.5,2.2,0.7,3.4c0.4,1.5,0.8,3,1.3,4.4c0.6,1.6,1.2,3.2,2,4.9c0.8,1.8,1.8,3.5,3,5.1
		c4.8,6.9,10.8,10.9,17.9,12c0.2,0,0.5,0.1,0.7,0.1c0.1,0,0.2,0,0.3,0l0.5,0c1.5-0.1,2.9-0.7,4-1.7c1.1-1,1.8-2.4,1.9-3.9
		c0.1-0.9,0-1.7-0.3-2.6C849.3,553.6,848.9,552.8,848.4,552.2z"/>
	<path d="M887.5,542.2c-2.2-2.9-4.3-5.8-6.2-8.5c-1.8-2.4-3.5-4.9-5.1-7.3c1.4-3.2,2.8-6.6,4-10c1.4-3.8,2.6-7.9,3.8-12.2
		c0.2-0.8,0.3-1.7,0.2-2.6c-0.1-0.9-0.4-1.7-0.9-2.4c-0.9-1.5-2.3-2.6-3.9-3.1c-0.8-0.3-1.7-0.4-2.5-0.3c-0.9,0.1-1.7,0.3-2.5,0.7
		c-0.8,0.4-1.4,1-2,1.7c-0.5,0.7-0.9,1.5-1.1,2.3c-0.8,3-1.6,5.6-2.3,7.9c-0.5,1.5-1,3-1.6,4.4c-1-1.6-1.9-3.2-2.8-4.7
		c-1.4-2.4-2.8-4.8-4.1-7.2c-0.4-0.8-1-1.5-1.6-2.1c-0.7-0.6-1.5-1-2.3-1.3c-0.8-0.3-1.7-0.4-2.6-0.3c-0.9,0.1-1.7,0.3-2.4,0.7
		c-0.8,0.4-1.5,0.9-2.1,1.6c-0.6,0.7-1,1.5-1.2,2.3c-0.2,0.8-0.3,1.7-0.2,2.6c0.1,0.9,0.4,1.7,0.8,2.4c3.6,6.8,7.8,13.7,12.2,20.5
		c-1.4,2.8-2.8,5.5-4.3,8c-1.6,2.8-3.2,5.7-4.8,8.6l-0.5,0.9c-0.4,0.8-0.7,1.6-0.8,2.4c-0.1,0.9,0,1.7,0.2,2.5
		c0.2,0.9,0.6,1.6,1.2,2.3c0.5,0.7,1.2,1.3,1.9,1.7c1.1,0.6,2.3,1,3.6,1c0.2,0,0.3,0,0.5,0c1-0.1,2.1-0.4,2.9-1
		c0.9-0.6,1.6-1.4,2.1-2.3l0.4-0.8c1.1-1.9,2.2-3.9,3.3-5.8l0.4-0.7c0.8-1.4,1.6-2.9,2.5-4.4c0.4,0.5,0.7,1,1.1,1.5
		c0.6,0.8,1.1,1.6,1.7,2.4c1,1.5,2.1,2.9,3.2,4.4l1.4,1.9c0.7,1,1.7,1.7,2.8,2.2c1,0.5,2.2,0.7,3.3,0.6c1.2-0.1,2.3-0.5,3.2-1.2
		c0.7-0.5,1.3-1.1,1.7-1.9c0.4-0.7,0.7-1.6,0.8-2.4c0.1-0.9,0.1-1.8-0.1-2.6C888.4,543.7,888,542.9,887.5,542.2z"/>
	<path d="M919.2,528.1c0-1.2-0.1-2.3-0.2-3.5c-0.3-3.3-0.9-6.5-2-9.6c-1-3.1-2.4-6.2-4.1-9c-1.8-3-4-5.8-6.5-8.3
		c-2.4-2.4-5.2-4.4-8.2-6c-0.8-0.4-1.6-0.7-2.5-0.8c-0.9-0.1-1.8,0-2.6,0.2c-0.8,0.2-1.6,0.6-2.3,1.2c-0.7,0.5-1.2,1.2-1.5,2
		c-0.4,0.8-0.6,1.6-0.7,2.5c-0.1,0.9,0.1,1.7,0.3,2.5c0.3,0.9,0.7,1.6,1.3,2.3c0.6,0.7,1.3,1.2,2.1,1.5c1.8,1,3.5,2.3,5,3.8
		c1.6,1.6,3,3.3,4.1,5.2c1.2,2,2.2,4.1,2.9,6.3c0.7,2.2,1.2,4.6,1.4,6.9c0.1,1.9,0.1,3.8,0,5.7c-0.1,2.1-0.5,4.2-1.1,6.2
		c-0.6,1.9-1.5,3.7-2.6,5.3c-1.1,1.4-2.6,2.5-4.3,3c-0.8,0.3-1.6,0.7-2.2,1.2c-0.7,0.6-1.2,1.3-1.5,2c-0.4,0.8-0.6,1.6-0.7,2.5
		c0,0.9,0.1,1.7,0.4,2.5c0.5,1.5,1.5,2.7,2.8,3.5c1.1,0.7,2.4,1,3.7,1c0.2,0,0.3,0,0.5,0l0.6,0l0.1,0c0.3,0,0.6-0.1,0.9-0.2
		c6.7-2.2,11.6-7.1,14.5-14.7c0.7-1.8,1.2-3.6,1.5-5.5c0.3-1.8,0.6-3.5,0.7-5.1C919.2,531.1,919.2,529.6,919.2,528.1z"/>
</g>
      
    </g>
    </svg>