<svg
      xmlns="http://www.w3.org/2000/svg"
      preserveAspectRatio="xMidYMin meet"
      fill="none"
      viewBox="0 0 1500 1500"
    >
      <g>
      <path fill="url(#prefix__paint0_linear_53_28789)" d="M0 0h1500v1500H0z"/><defs><linearGradient id="prefix__paint0_linear_53_28789" x1="1500" y1="1500" x2="0" y2="0" gradientUnits="userSpaceOnUse">
<stop stop-color="#FFD130"/>
<stop offset="1" stop-color="#FFEEDB"/>
</linearGradient></defs>
      <g clip-path="url(#clip0_491_619)">
<path d="M773 1011.5C868.667 1017.83 1075.7 1127 1138.5 1513H355C359.921 1495.03 366.125 1474.97 373.589 1453.5L307.5 1427.5L266.5 1377C256 1364.5 239.2 1321.9 256 1251.5C272.8 1181.1 242.667 1126.17 225.5 1107.5L253.5 1099C272.5 1107.33 309.9 1138.7 307.5 1197.5C304.5 1271 281.5 1324.5 335.5 1348C378.7 1366.8 401.662 1368.5 407.743 1367C477.87 1208.5 601.859 1025.22 773 1011.5Z" fill="#9E6740"/>
<path d="M749.5 1019.5C536 1134 457.448 1414.63 443.159 1511H353.699C351.701 1509.62 353.374 1495.21 366.884 1454.5L286 1417L243 1331L254 1240L261.5 1199V1151.5L221.5 1109L254 1097L286 1117L308.5 1171L312.5 1229L297.5 1287.5L316 1331L379.5 1360L400.388 1363.5C403.37 1355.91 406.527 1347.95 409.87 1339.62C462.691 1207.98 569.086 1113.24 605.384 1082.33L674 1033.5L749.5 1019.5Z" fill="#001647" fill-opacity="0.2"/>
<path d="M842.5 1261C742.1 1266.2 731.333 1430.83 738.5 1512.5H973C971.333 1426.5 942.9 1255.8 842.5 1261Z" fill="#72411F"/>
<path d="M163 1083.5C179 1124.7 227.667 1106.33 250 1092L269.5 1073.5L263.5 1031.5L241 988L198.5 957L191 978L140.5 963L105.5 978L140.5 1019L116 1035.5C125 1034.33 147 1042.3 163 1083.5Z" fill="#72411F"/>
<path d="M353.5 1519.5C365.5 1454.33 414.5 1313.6 483.5 1219C530.102 1155.11 577.468 1101.29 629.142 1059.66C710.278 994.299 826.037 996.324 905.021 1064.27C1000.08 1146.05 1103.44 1290.29 1142.5 1519.5M1013.5 1319C1024.83 1354.33 1048.1 1443.9 1050.5 1519.5M667 1361.5C661.167 1392.33 650.3 1467.1 653.5 1519.5M404 1364C365.167 1363.67 287.352 1342.63 300 1270C315.5 1181 314 1123 250.5 1094.5M213 1106.19C246.5 1124 279 1159.5 258.5 1237C234.887 1326.27 241 1419 371 1451.5M213 1106.19C222.129 1105.45 231.631 1103.06 241 1099C274.5 1084.5 275.169 1041.43 258.5 1007.5C244.884 979.781 212.348 955.845 192.634 947.654C191.916 947.356 191.17 947.976 191.298 948.743C194.267 966.525 193.499 975.609 190.537 980.239C190.254 980.682 189.647 980.762 189.209 980.47C140.186 947.763 113.943 958.199 98.8749 981.135C98.4667 981.757 98.8732 982.586 99.6102 982.683C122.868 985.739 140.868 1006.33 148.018 1017.86C148.445 1018.54 147.887 1019.41 147.077 1019.38C130 1021 115.858 1029.12 111.622 1034.17C111.257 1034.61 111.405 1035.24 111.9 1035.52C122.498 1041.52 142.466 1047.92 158.5 1079.5C168.451 1099.1 189.49 1108.1 213 1106.19ZM736.888 1512C729.925 1427.33 737.454 1258 843.104 1258C953.004 1258 974.459 1434 978 1522" stroke="black" stroke-width="22" stroke-linecap="round"/>
</g>
<defs>
<clipPath id="clip0_491_619">
<rect width="1500" height="1500" fill="white"/>
</clipPath>
</defs>
      <g clip-path="url(#clip0_497_1194)">
<path d="M379.667 654.812C432.345 471.574 618.472 401.981 699.114 390.653C740.985 382.718 849.655 375.215 949.364 408.675C980 418.956 1049.88 457.388 1091.92 499.818C1144.47 552.856 1272.97 732.052 1185.05 927.725C1097.12 1123.4 758.414 1092.29 612.749 1051.82C464.472 1010.63 314.48 881.563 379.667 654.812Z" fill="#AABBFF"/>
<path d="M449.293 747.204C454.734 531.068 585.306 432.345 649.911 410C432.292 459.565 365.296 655.455 364 747.204C377.99 984.871 584.496 1053.43 681 1058C601.498 1044.46 443.853 963.339 449.293 747.204Z" fill="#001647" fill-opacity="0.2"/>
<path d="M379.667 654.812C432.345 471.574 618.472 401.981 699.114 390.653C740.985 382.718 849.655 375.215 949.364 408.675C980 418.956 1049.88 457.388 1091.92 499.818C1144.47 552.856 1272.97 732.052 1185.05 927.725C1097.12 1123.4 758.414 1092.29 612.749 1051.82C464.472 1010.63 314.48 881.563 379.667 654.812Z" stroke="black" stroke-width="22" stroke-linecap="round"/>
</g>
<defs>
    <clipPath id="prefix__clip0_299_662"><path fill="#fff" d="M0 0h1500v1500H0z"/></clipPath>
</defs>
      <g clip-path="url(#clip0_624_3473)">
<path d="M1010.33 800C1015.74 800 1021.02 798.397 1025.52 795.394C1030.01 792.39 1033.52 788.121 1035.59 783.127C1037.65 778.132 1038.2 772.637 1037.14 767.334C1036.09 762.032 1033.48 757.162 1029.66 753.339C1025.84 749.517 1020.97 746.913 1015.67 745.859C1010.36 744.804 1004.87 745.345 999.873 747.414C994.879 749.483 990.61 752.986 987.606 757.481C984.603 761.976 983 767.261 983 772.667C983 779.916 985.88 786.868 991.006 791.994C996.132 797.12 1003.08 800 1010.33 800Z" fill="black"/>
<path d="M799.421 789.214L858.141 778.547C859.189 778.352 860.151 777.837 860.895 777.073C861.639 776.309 862.128 775.334 862.294 774.28C862.455 773.224 862.285 772.143 861.808 771.187C861.331 770.234 860.569 769.453 859.628 768.954L804.701 739.807" stroke="black" stroke-width="22" stroke-miterlimit="10" stroke-linecap="round"/>
<path d="M870.88 910.959C896.593 937.099 946.447 937.099 972.167 910.959" stroke="black" stroke-width="22" stroke-miterlimit="10" stroke-linecap="round"/>
</g>
<defs>
<clipPath id="clip0_624_3473">
<rect width="1500" height="1500" fill="white"/>
</clipPath>
</defs>
      <g clip-path="url(#clip0_911_278)">
<path d="M741 865.42V871.56C741.01 872.669 740.781 873.767 740.33 874.78C739.07 877.64 736.99 877.78 736.99 877.78C735.893 878.033 734.754 878.046 733.651 877.818C732.548 877.59 731.507 877.127 730.6 876.46C727.96 874.35 721.36 856.25 721.36 856.25L708.65 876.46H700L717.8 848.25L712.21 836.66C711.84 835.888 711.265 835.233 710.547 834.767C709.828 834.301 708.996 834.043 708.14 834.02H708C707.225 833.94 706.442 834.054 705.721 834.351C705.001 834.647 704.365 835.118 703.87 835.72C702.98 836.61 702.66 839.5 702.66 839.5L700.88 839.63C700.634 837.881 700.59 836.109 700.75 834.35C700.862 833.001 701.324 831.705 702.09 830.59C702.61 829.783 703.325 829.12 704.169 828.664C705.014 828.208 705.96 827.972 706.92 827.98C708.535 827.979 710.11 828.479 711.43 829.41C712.762 830.35 713.801 831.646 714.43 833.15L719.69 846.2L731.13 828.8H739L723.2 853.31L727.14 862.63C727.14 862.63 730.14 871.63 734.45 871.63C738.76 871.63 739.16 865.41 739.16 865.41L741 865.42Z" fill="black"/>
</g>
<defs>
<clipPath id="clip0_911_278">
<rect width="1500" height="1500" fill="white"/>
</clipPath>
</defs>
      <g clip-path="url(#clip0_708_104)">
<path d="M897.736 617.618L881.079 614.086C881.079 614.086 866.198 610.584 860.384 617.618C854.569 624.652 841.111 606.134 840.193 611.058C839.274 615.983 793.249 617.114 793.249 617.114H752.868C752.868 617.114 707.792 611.654 689.772 617.618C671.751 623.583 639.012 615.842 634.752 617.114C630.492 618.385 581.862 619.445 579.732 621.15C577.602 622.856 570.252 648.711 568.122 650.417C565.992 652.122 563.499 671.226 563.075 682.711C562.651 694.196 552.848 701.805 552.475 709.455C552.101 717.104 532.062 737.631 528.236 750.387C524.409 763.143 519.059 764.607 515.233 772.256C511.407 779.906 495.375 780.814 492.407 784.639C489.439 788.464 477.133 791.996 473.731 796.245C469.593 801.754 467.564 805.947 461.899 809.869C454.64 814.804 452.248 815.551 452.248 815.551C452.248 815.551 418.156 814.471 415.016 815.753C411.876 817.034 366.558 827.409 366.558 827.409L354.595 824.381C354.595 824.381 379.228 837.894 374.968 823.009C370.707 808.123 368.173 826.036 365.226 806.195C362.278 786.355 359.653 780.269 354.979 765.687C350.305 751.104 346.468 735.613 342.683 721.161C338.897 706.709 342.683 691.39 342.683 691.39C342.683 691.39 344.005 664.828 348.043 648.388C352.081 631.949 353.575 624.995 353.999 621.342C354.423 617.689 364.63 590.128 365.478 588.039C366.326 585.95 390.999 520.857 390.999 520.857L420.437 490.238L487.561 425.175C487.561 425.175 603.658 389.854 610.069 386.705C616.479 383.556 630.906 380.105 632.188 379.257C633.47 378.41 674.942 363.907 682.604 360.507C690.266 357.106 701.472 362.283 707.842 360.507C714.213 358.73 750.334 357.065 757.562 356.217C764.791 355.37 784.82 344.733 803.637 346.126C822.455 347.518 852.378 345.742 874.578 348.921C896.777 352.1 938.704 362.151 938.704 362.151L1069.02 429.898L1161.55 513.278L1222 627.932L1216.9 708.445C1193 617 1172.07 598.525 1172.07 598.525C1172.07 598.525 1118.32 617.618 1025.79 611.401C1023.83 610.978 970.06 617.78 967.395 615.6C964.729 613.42 918.937 614.086 918.937 614.086L897.736 617.618Z" fill="#A760FF"/>
<path d="M445 548.267C445 548.267 492.54 607.041 554.165 553.465C615.791 499.89 579.238 451 579.238 451L549.47 495.244L511.846 524.868L451.261 545.672L445 548.267Z" fill="#FFBF44"/>
<path d="M1040 401.139C1040 401.139 1087.44 365.088 1144.64 422.698C1201.84 480.308 1183.05 513.346 1183.05 513.346L1177.62 528C1177.62 528 1096.93 442.694 1093.26 441.323C1089.59 439.953 1040 401.139 1040 401.139Z" fill="#FFBF44"/>
<path d="M415 549C514.964 549 596 468.187 596 368.5C596 268.813 514.964 188 415 188C315.036 188 234 268.813 234 368.5C234 468.187 315.036 549 415 549Z" fill="#A760FF"/>
<path d="M1118.11 214.423C1118.11 214.423 1237.35 183.413 1333.33 308.069C1429.3 432.726 1261.74 581.54 1261.74 581.54L1213.76 597L1176.8 539.157C1176.8 539.157 1216.31 505.594 1154.46 434.32C1092.6 363.046 1032.37 401.917 1032.37 401.917L954 367.547C954 367.547 992.035 241.548 1118.11 214.423Z" fill="#A760FF"/>
<path d="M382.963 196C353.376 233.807 321.435 344.205 406.162 418.812C487.757 490.662 552.594 462.703 580.026 434.192C580.988 416.977 583.944 398.87 591.031 403.254L592.761 388.062L683.035 361.849C702.871 361.177 743.957 361.546 749.605 368.402C755.254 375.258 742.209 380.332 734.98 382.013C652.674 415.888 611.253 475.439 600.83 500.98L585.7 450.066L588.746 423.32C586.494 426.81 583.573 430.505 580.026 434.192C579.71 439.858 579.609 445.427 579.648 450.066L541.32 505.517C545.859 514.087 559.072 530.218 575.614 526.185C592.156 522.152 563.342 546.685 546.868 559.456C534.214 565.141 510.466 573.455 490.471 574.471L501.479 580.124L543.337 570.546C495.538 630.231 489.799 731.858 492.905 775.21C470.042 790.333 417.963 821.386 392.545 824.612C367.127 827.838 356.738 810.161 354.721 800.919L347.156 711.694L354.721 635.575L389.519 551.894H440.728C438.218 549.461 436.658 547.546 435.917 546.349C396.243 555.255 303.582 547.156 250.326 443.513C183.755 313.959 304.288 214.148 382.963 196Z" fill="#001647" fill-opacity="0.2"/>
<path d="M1204 224.23C1109.99 250.846 1072.04 345.886 1064.81 390.078L1079.43 395.119C1095.91 397.136 1124.12 401.975 1105.15 405.201C1086.19 408.427 1080.1 427.718 1079.43 436.959L1039.59 409.738L960.917 367.898C968.818 342.021 999.245 280.285 1057.75 240.361C1116.25 200.436 1179.62 212.971 1204 224.23Z" fill="#001647" fill-opacity="0.2"/>
<path d="M595 386.03C632.39 374.373 647.497 361.12 729.543 361.12C747.775 361.12 743.743 360.71 759.899 356.878C824.369 341.584 944.158 332.988 1084.58 445.709C1251.35 579.581 1230.85 692.837 1207.22 733" stroke="black" stroke-width="22" stroke-miterlimit="10"/>
<path d="M1175.05 614.543C1181.1 613.962 1185.53 608.588 1184.95 602.541C1184.37 596.494 1179 592.063 1172.95 592.644L1175.05 614.543ZM571.098 632.245L560.118 631.595L571.098 632.245ZM376.743 826.963L376.036 815.985L376.022 815.986L376.008 815.987L376.743 826.963ZM359.309 814.04L348.596 816.536L348.598 816.546L359.309 814.04ZM1172.95 592.644C893.968 619.452 602.922 605.25 590.57 605.25V627.25C601.41 627.25 894.673 641.486 1175.05 614.543L1172.95 592.644ZM590.57 605.25C574.091 605.25 561.042 615.966 560.118 631.595L582.079 632.894C582.169 631.37 582.789 630.159 583.856 629.241C584.947 628.303 587.03 627.25 590.57 627.25V605.25ZM560.118 631.595C555.888 703.131 519.577 748.317 479.304 776.263C438.586 804.516 394.182 814.817 376.036 815.985L377.45 837.94C399.315 836.532 447.622 825.024 491.845 794.338C536.513 763.343 577.375 712.459 582.079 632.894L560.118 631.595ZM376.008 815.987C374.652 816.078 373.306 815.684 372.209 814.871L359.109 832.545C364.398 836.465 370.908 838.378 377.478 837.938L376.008 815.987ZM372.209 814.871C371.112 814.057 370.334 812.876 370.02 811.534L348.598 816.546C350.097 822.954 353.82 828.625 359.109 832.545L372.209 814.871ZM370.022 811.544C360.562 770.933 340.975 663.055 398.226 552.042L378.673 541.958C317.789 660.015 338.757 774.297 348.596 816.536L370.022 811.544Z" fill="black"/>
<path d="M1040 406.92C1040 406.92 1077.75 364.311 1148.52 433.85C1215.3 499.446 1177.16 539 1177.16 539" stroke="black" stroke-width="22" stroke-miterlimit="10"/>
<path d="M1213.36 603C1247.34 592.982 1278.06 574.1 1302.37 548.283C1326.68 522.467 1343.72 490.643 1351.74 456.064C1376.8 348.198 1309.88 240.392 1202.25 215.271C1094.63 190.151 987.064 257.23 962 365.106" stroke="black" stroke-width="22" stroke-miterlimit="10"/>
<path d="M415 549C514.964 549 596 468.187 596 368.5C596 268.813 514.964 188 415 188C315.036 188 234 268.813 234 368.5C234 468.187 315.036 549 415 549Z" stroke="black" stroke-width="22" stroke-miterlimit="10"/>
<path d="M440 547.868C440 547.868 481.455 608.65 556.206 551.527C632.92 492.91 577.894 441 577.894 441" stroke="black" stroke-width="22" stroke-miterlimit="10"/>
</g>
<defs>
<clipPath id="clip0_708_104">
<rect width="1500" height="1500" fill="white"/>
</clipPath>
</defs>
      
    </g>
    </svg>