<svg
      xmlns="http://www.w3.org/2000/svg"
      preserveAspectRatio="xMidYMin meet"
      fill="none"
      viewBox="0 0 1500 1500"
    >
      <g>
      <path fill="url(#prefix__paint0_linear_53_30462)" d="M0 0h1500v1500H0z"/><defs><linearGradient id="prefix__paint0_linear_53_30462" x1="0" y1="0" x2="1500" y2="1500" gradientUnits="userSpaceOnUse">
<stop stop-color="#FFC4F6"/>
<stop offset="1" stop-color="#FF3DB1"/>
</linearGradient></defs>
      <g clip-path="url(#clip0_494_770)">
<path d="M773 1011.5C543.4 1029.9 398.667 1353.5 355 1513H1138.5C1075.7 1127 868.667 1017.83 773 1011.5Z" fill="#AABBFF"/>
<path d="M665.5 1302.5C658.3 1195.7 560.833 1178.67 513 1183.5L587.5 1096L665.5 1040L704 1029.5C714 1075.5 753 1164.5 822 1164.5C877.2 1164.5 900.333 1094.5 905 1059.5L1021 1201.5L1016.5 1236V1287L1028.5 1354L1043.5 1423L1047.5 1509.5H650V1503C658.167 1480.67 672.7 1409.3 665.5 1302.5Z" fill="white"/>
<path d="M749.5 1019.5C536 1134 457.448 1414.63 443.159 1511H353.699C350.414 1508.73 357.049 1471.27 409.87 1339.62C462.691 1207.98 569.086 1113.24 605.384 1082.33L674 1033.5L749.5 1019.5Z" fill="#001647" fill-opacity="0.2"/>
<path d="M353.5 1519.5C365.5 1454.33 414.5 1313.6 483.5 1219C530.101 1155.11 577.468 1101.29 629.141 1059.66C710.278 994.299 826.037 996.323 905.02 1064.27C1000.08 1146.05 1103.44 1290.29 1142.5 1519.5M1050.5 1519.5C1048.1 1443.9 1024.83 1354.33 1013.5 1319C999.5 1268 1009.7 1225.3 1020.5 1204.5M653.5 1519.5C650.3 1467.1 661.167 1392.33 667 1361.5C674 1324.5 668 1288.8 642 1250C609.5 1201.5 554.5 1171 517 1179.5M709 1016C709 1064.17 732.1 1164.5 824.5 1164.5C884 1164.5 902.33 1109.22 895.355 1059.5" stroke="black" stroke-width="22" stroke-linecap="round"/>
<path d="M933.223 1272.02L937.932 1261.68L954.916 1287.26L955.318 1292.17L952.556 1258.38C952.5 1257.97 952.361 1257.57 952.148 1257.22C951.935 1256.87 951.653 1256.57 951.324 1256.36L923.078 1239.35C922.758 1239.18 922.407 1239.09 922.052 1239.09C921.696 1239.09 921.346 1239.18 921.025 1239.35C920.943 1239.4 920.864 1239.45 920.789 1239.5L920.701 1239.57L895.946 1256.2L895.849 1256.25C895.719 1256.32 895.596 1256.41 895.482 1256.51C895.254 1256.7 895.065 1256.95 894.928 1257.22C894.79 1257.5 894.707 1257.81 894.683 1258.12C894.677 1258.22 894.677 1258.32 894.683 1258.42L896.932 1285.96L908.934 1262.25C910.433 1259.11 914.167 1258.09 917.712 1258.15L921.877 1258.26L900.858 1301.46L903.892 1303.28L925.062 1258.29L936.011 1258.25L914.997 1304.37L925.824 1310.89L927.117 1311.67C927.647 1311.9 928.235 1311.91 928.773 1311.7L954.632 1294.33L949.695 1297.66L933.223 1272.02ZM938.026 1305.5L926.181 1287.55L931.577 1275.69L947.138 1299.37L938.026 1305.5Z" fill="#2D374B"/>
<path d="M926.181 1287.54L938.026 1305.48L947.138 1299.37L931.573 1275.68L926.181 1287.54Z" fill="#28A0F0"/>
<path d="M955.32 1292.16L954.918 1287.26L937.934 1261.68L933.221 1272.01L949.694 1297.66L954.642 1294.34C954.879 1294.11 955.065 1293.83 955.188 1293.51C955.311 1293.19 955.367 1292.84 955.351 1292.49L955.32 1292.16Z" fill="#28A0F0"/>
<path d="M893.127 1296.79L900.86 1301.46L921.879 1258.26L917.714 1258.14C914.167 1258.09 910.435 1259.1 908.936 1262.24L896.934 1285.96L892.893 1293.86L893.129 1296.8L893.127 1296.79Z" fill="white"/>
<path d="M936.023 1258.26L925.072 1258.3L903.904 1303.29L913.006 1308.77L915.009 1304.38L936.023 1258.26Z" fill="white"/>
<path d="M957.205 1258.19C957.036 1256.92 956.608 1255.7 955.953 1254.63C955.298 1253.57 954.433 1252.67 953.422 1252.02L924.807 1234.8C923.835 1234.27 922.766 1234 921.683 1234C920.599 1234 919.531 1234.27 918.559 1234.8C918.341 1234.93 893.432 1251.68 893.432 1251.68C892.347 1252.27 891.444 1253.21 890.836 1254.36C890.228 1255.52 889.941 1256.85 890.01 1258.18L892.888 1293.86L896.93 1285.95L894.681 1258.42C894.668 1258.06 894.736 1257.69 894.877 1257.36C895.018 1257.03 895.228 1256.73 895.492 1256.51C895.608 1256.41 920.945 1239.41 921.032 1239.36C921.353 1239.19 921.703 1239.11 922.059 1239.11C922.414 1239.11 922.765 1239.19 923.085 1239.36L951.331 1256.37C951.66 1256.59 951.942 1256.88 952.155 1257.23C952.368 1257.58 952.508 1257.98 952.563 1258.4L955.302 1292.5C955.327 1292.84 955.282 1293.18 955.168 1293.5C955.055 1293.83 954.876 1294.11 954.647 1294.35L949.692 1297.66L947.143 1299.38L938.024 1305.51L928.777 1311.71C928.24 1311.92 927.652 1311.91 927.122 1311.68L915.004 1304.38L913.001 1308.77L923.894 1315.34C924.253 1315.55 924.573 1315.74 924.84 1315.9C925.247 1316.13 925.523 1316.3 925.62 1316.35C926.506 1316.76 927.458 1316.97 928.42 1316.97C929.275 1316.98 930.122 1316.8 930.915 1316.45L957.78 1298.41C958.529 1297.71 959.119 1296.83 959.502 1295.83C959.885 1294.84 960.051 1293.75 959.986 1292.68L957.205 1258.19Z" fill="#8BBFDF"/>
</g>
<defs>
<clipPath id="clip0_494_770">
<rect width="1500" height="1500" fill="white"/>
</clipPath>
</defs>
      <g clip-path="url(#clip0_497_1194)">
<path d="M379.667 654.812C432.345 471.574 618.472 401.981 699.114 390.653C740.985 382.718 849.655 375.215 949.364 408.675C980 418.956 1049.88 457.388 1091.92 499.818C1144.47 552.856 1272.97 732.052 1185.05 927.725C1097.12 1123.4 758.414 1092.29 612.749 1051.82C464.472 1010.63 314.48 881.563 379.667 654.812Z" fill="#AABBFF"/>
<path d="M449.293 747.204C454.734 531.068 585.306 432.345 649.911 410C432.292 459.565 365.296 655.455 364 747.204C377.99 984.871 584.496 1053.43 681 1058C601.498 1044.46 443.853 963.339 449.293 747.204Z" fill="#001647" fill-opacity="0.2"/>
<path d="M379.667 654.812C432.345 471.574 618.472 401.981 699.114 390.653C740.985 382.718 849.655 375.215 949.364 408.675C980 418.956 1049.88 457.388 1091.92 499.818C1144.47 552.856 1272.97 732.052 1185.05 927.725C1097.12 1123.4 758.414 1092.29 612.749 1051.82C464.472 1010.63 314.48 881.563 379.667 654.812Z" stroke="black" stroke-width="22" stroke-linecap="round"/>
</g>
<defs>
    <clipPath id="prefix__clip0_299_662"><path fill="#fff" d="M0 0h1500v1500H0z"/></clipPath>
</defs>
      <g clip-path="url(#clip0_624_3522)">
<path d="M822 818C849.062 818 871 796.062 871 769C871 741.938 849.062 720 822 720C794.938 720 773 741.938 773 769C773 796.062 794.938 818 822 818Z" fill="white" stroke="black" stroke-width="20" stroke-miterlimit="10"/>
<path d="M1012 818C1039.06 818 1061 796.062 1061 769C1061 741.938 1039.06 720 1012 720C984.938 720 963 741.938 963 769C963 796.062 984.938 818 1012 818Z" fill="white" stroke="black" stroke-width="20" stroke-miterlimit="10"/>
<path d="M809 770C816.18 770 822 764.18 822 757C822 749.82 816.18 744 809 744C801.82 744 796 749.82 796 757C796 764.18 801.82 770 809 770Z" fill="black"/>
<path d="M1024 770C1031.18 770 1037 764.18 1037 757C1037 749.82 1031.18 744 1024 744C1016.82 744 1011 749.82 1011 757C1011 764.18 1016.82 770 1024 770Z" fill="black"/>
<path d="M988.653 885.957H855.227C854.074 885.957 852.968 886.415 852.153 887.23C851.338 888.045 850.88 889.151 850.88 890.303C850.88 909.026 858.317 926.982 871.556 940.221C884.795 953.46 902.751 960.897 921.474 960.897H922.406C941.129 960.897 959.085 953.46 972.324 940.221C985.562 926.982 993 909.026 993 890.303C993 889.151 992.542 888.045 991.727 887.23C990.912 886.415 989.806 885.957 988.653 885.957Z" fill="white" stroke="black" stroke-width="20" stroke-miterlimit="10"/>
</g>
<defs>
<clipPath id="clip0_624_3522">
<rect width="1500" height="1500" fill="white"/>
</clipPath>
</defs>
      <g clip-path="url(#clip0_877_2891)">
<path opacity="0.5" d="M720 750.438C720 722.417 743.895 701.078 770.199 705.609C796.226 710.091 822.774 710.091 848.801 705.609C875.105 701.078 899 722.417 899 750.438V774.93C899 825.227 860.214 866 812.37 866H806.63C758.786 866 720 825.227 720 774.93V750.438Z" fill="#FF6247"/>
<path opacity="0.5" d="M937 750.438C937 722.417 960.762 701.078 986.919 705.609C1012.8 710.091 1039.2 710.091 1065.08 705.609C1091.24 701.078 1115 722.417 1115 750.438V774.93C1115 825.227 1076.43 866 1028.85 866H1023.15C975.569 866 937 825.227 937 774.93V750.438Z" fill="#FF6247"/>
<path d="M555 792C555 797.523 559.477 802 565 802C570.523 802 575 797.523 575 792H555ZM720 747L595 747L595 767L720 767L720 747ZM555 787V792H575V787H555ZM595 747C572.909 747 555 764.909 555 787H575C575 775.955 583.954 767 595 767L595 747Z" fill="black"/>
<path d="M956.85 721.662C956.85 721.662 956.298 703.515 996.284 698.54L1068.96 850.236C1068.96 850.236 1054.94 866.613 1025.72 865.696L956.85 721.662Z" fill="white" fill-opacity="0.3"/>
<path d="M740.63 724.24C740.63 724.24 740.078 706.416 780.064 701.53L852.741 850.523C852.741 850.523 838.725 866.607 809.505 865.706L740.63 724.24Z" fill="white" fill-opacity="0.3"/>
<path d="M1009.77 706.801C1009.77 706.801 1006.07 709.846 1019.83 701.031L1084.46 832.685C1084.46 832.685 1088.66 838.122 1077.47 840.432L1009.77 706.801Z" fill="white" fill-opacity="0.3"/>
<path d="M793.546 709.643C793.546 709.643 789.847 712.634 803.615 703.975L868.238 833.283C868.238 833.283 872.442 838.623 861.249 840.892L793.546 709.643Z" fill="white" fill-opacity="0.3"/>
<path d="M937.905 788.269C944.913 829.009 980.328 860 1022.96 860H1028.68C1076.35 860 1115 821.253 1115 773.455V744.18C1115 717.552 1091.19 699.273 1064.98 701.579C1039.05 702.839 1012.6 702.839 986.664 701.579C962.761 699.652 940.855 714.173 937.184 737.31C936.83 739.543 936.645 741.837 936.645 744.18V773.455C936.645 778.506 937.077 783.455 937.905 788.269ZM937.905 788.269L937.119 787.669C926.202 779.335 910.993 779.583 900.355 788.269V788.269M902 751H933.5M772.018 701.579C797.951 702.839 824.403 702.839 850.336 701.579C876.545 699.273 900.355 717.552 900.355 744.18V773.455C900.355 821.253 861.709 860 814.037 860H808.318C760.646 860 722 821.253 722 773.455V744.18C722 717.552 745.809 699.273 772.018 701.579Z" stroke="black" stroke-width="20" stroke-linecap="round"/>
</g>
<defs>
<clipPath id="clip0_877_2891">
<rect width="1500" height="1500" fill="white"/>
</clipPath>
</defs>
      <g clip-path="url(#clip0_602_2057)">
<path d="M485.677 1069L476 991.814L552.452 973L566 1047.29L485.677 1069Z" fill="#D9D9D9"/>
<path d="M449 673.403L473.817 994L558 970.754L540.482 655L449 673.403Z" fill="#9E6740"/>
<path d="M689.715 313.65C374.516 363.906 350.687 581.458 331 683.196L347.943 689L462.674 664.815L745.386 628.538L968.071 620.798H1187.85L1227.55 620.799C1220.5 601.763 1245.1 604.927 1227.55 585.489C1212.21 568.502 1155.29 529.195 1139.92 509.064C1061.02 359.601 919.607 276.995 689.715 313.65Z" fill="#87C848"/>
<path d="M368.793 546.578L347 611L559.604 563.047L858.896 527.688L1164 538.344L1120.41 476.344C1041.96 470.048 849.114 461.232 705.376 476.344C561.638 491.457 414.478 531.563 368.793 546.578Z" fill="#578926"/>
<path d="M354.805 607.428C476.023 574.142 811.042 510.951 1162.01 534.607M369.332 537.139C486.03 506.785 798.356 445.035 1112.62 468.788M1164.32 534.607C1149.49 523.278 1137.46 508.696 1129.14 491.983C1047.12 326.146 880.881 293.35 720.231 308.202C518.553 326.856 363.721 436.62 349.7 613.269C348.955 623.079 345.867 632.567 340.696 640.933L331.696 655.366C320.498 673.332 336.414 695.934 357.073 691.416L372.823 687.974C651.433 627.078 928.584 618.104 1213.71 624.872C1238.4 625.462 1245.68 597.325 1224.68 580.983L1164.32 534.607Z" stroke="black" stroke-width="22"/>
<path d="M474.799 992.99C461.462 879.626 453.96 744.374 451 677.558C480.474 671.392 511.052 665.894 542.35 661C541.207 760.499 549.767 882.067 558.524 971.177M474.799 992.99C478.105 1021.08 481.709 1047.54 485.603 1070.82C485.705 1071.44 486.331 1071.81 486.918 1071.6C501.057 1066.6 534.737 1055.74 566.107 1048.93C566.614 1048.82 566.952 1048.34 566.888 1047.83C564.513 1028.57 561.565 1002.12 558.524 971.177M474.799 992.99C485.865 988.789 518.103 978.545 558.524 971.177" stroke="black" stroke-width="22"/>
<path d="M702.24 319C559.917 386.786 495.089 582.234 484.586 659.381L360.004 687.948C333.02 701.828 310.946 702.237 366.306 540.272C427.87 360.156 633.405 323.196 702.24 319Z" fill="#001647" fill-opacity="0.2"/>
<path d="M484.607 680.424C485.432 772.726 510.281 990.112 519.973 1058.83L484.101 1069L447.26 680.685L508.339 655.992L488.173 672.845C485.9 674.745 484.581 677.461 484.607 680.424Z" fill="#001647" fill-opacity="0.2"/>
<path d="M1187 656C944.623 649.415 655.21 672.292 547.271 689.884L540 659.381L693.999 635.172L923.288 624.035L1174.88 626.37L1187 656Z" fill="#001647" fill-opacity="0.2"/>
</g>
<defs>
<clipPath id="clip0_602_2057">
<rect width="1500" height="1500" fill="white"/>
</clipPath>
</defs>
      
    </g>
    </svg>