<svg
      xmlns="http://www.w3.org/2000/svg"
      preserveAspectRatio="xMidYMin meet"
      fill="none"
      viewBox="0 0 1500 1500"
    >
      <g>
      <path fill="url(#prefix__paint0_linear_53_28789)" d="M0 0h1500v1500H0z"/><defs><linearGradient id="prefix__paint0_linear_53_28789" x1="1500" y1="1500" x2="0" y2="0" gradientUnits="userSpaceOnUse">
<stop stop-color="#FFD130"/>
<stop offset="1" stop-color="#FFEEDB"/>
</linearGradient></defs>
      <g clip-path="url(#clip0_482_324)">
<path d="M407.5 1353.5L353.5 1511H1139L1134.5 1455.5L1054 1252L962.5 1115V1063C940.833 1067.67 875.7 1076.5 788.5 1074.5C701.3 1072.5 610.833 1044.67 576.5 1031L581 1103.5L493.5 1201.5L407.5 1353.5Z" fill="white"/>
<path d="M409.87 1339.62C462.691 1207.98 547.202 1128.91 583.5 1098L575.5 1067.5L591.5 1027.5L634.5 1042L631.597 1111L764 1133L780 1511H754.5L740.5 1158C693.7 1155.2 635.274 1140.17 611.91 1133C500.28 1264.53 453.823 1439.08 443.159 1511H353.699C350.414 1508.73 357.049 1471.27 409.87 1339.62Z" fill="#001647" fill-opacity="0.2"/>
<path d="M353.5 1519.5C365.5 1454.33 414.5 1313.6 483.5 1219C516.929 1173.17 550.751 1132.52 586.275 1097.84M1142.5 1519.5C1110.35 1330.88 1034.67 1199.8 955.894 1113.71M1013.5 1319C1024.83 1354.33 1048.1 1443.9 1050.5 1519.5M667 1361.5C661.167 1392.33 650.3 1467.1 653.5 1519.5M767.5 1135C771 1222.17 780.5 1379.5 783.5 1512.5M586.275 1097.84C583.015 1096.62 579.96 1095.42 577.118 1094.25C576.743 1094.1 576.5 1093.74 576.5 1093.33V1028.5C730.5 1092.9 897.667 1077 962 1061V1112C959.965 1112.58 957.929 1113.16 955.894 1113.71M586.275 1097.84C652.817 1122.64 804.285 1155.24 955.894 1113.71M843.729 1186.27C843.511 1195.1 836.174 1202.09 827.34 1201.87C818.506 1201.65 811.521 1194.32 811.739 1185.48C811.956 1176.65 819.294 1169.66 828.128 1169.88C836.962 1170.1 843.947 1177.44 843.729 1186.27ZM847.831 1263.39C847.613 1272.23 840.275 1279.21 831.441 1279C822.607 1278.78 815.623 1271.44 815.84 1262.61C816.058 1253.77 823.396 1246.79 832.23 1247.01C841.063 1247.22 848.048 1254.56 847.831 1263.39ZM852.833 1340.52C852.616 1349.35 845.278 1356.34 836.444 1356.12C827.61 1355.9 820.625 1348.56 820.843 1339.73C821.061 1330.9 828.399 1323.91 837.232 1324.13C846.066 1324.35 853.051 1331.68 852.833 1340.52ZM856.008 1418.64C855.791 1427.48 848.453 1434.46 839.619 1434.24C830.785 1434.03 823.8 1426.69 824.018 1417.85C824.236 1409.02 831.573 1402.04 840.407 1402.25C849.241 1402.47 856.226 1409.81 856.008 1418.64ZM861.184 1492.79C860.966 1501.63 853.629 1508.61 844.795 1508.39C835.961 1508.18 828.976 1500.84 829.194 1492C829.411 1483.17 836.749 1476.19 845.583 1476.4C854.417 1476.62 861.402 1483.96 861.184 1492.79ZM913.807 1184C913.589 1192.83 906.252 1199.82 897.418 1199.6C888.584 1199.38 881.599 1192.04 881.817 1183.21C882.034 1174.37 889.372 1167.39 898.206 1167.61C907.04 1167.82 914.025 1175.16 913.807 1184ZM917.908 1261.12C917.69 1269.95 910.352 1276.94 901.518 1276.72C892.684 1276.5 885.7 1269.16 885.917 1260.33C886.135 1251.5 893.473 1244.51 902.307 1244.73C911.141 1244.95 918.125 1252.29 917.908 1261.12ZM922.911 1338.24C922.693 1347.08 915.355 1354.06 906.521 1353.84C897.687 1353.63 890.703 1346.29 890.92 1337.45C891.138 1328.62 898.476 1321.64 907.31 1321.85C916.143 1322.07 923.128 1329.41 922.911 1338.24ZM926.086 1416.37C925.869 1425.2 918.531 1432.19 909.697 1431.97C900.863 1431.75 893.878 1424.41 894.096 1415.58C894.314 1406.75 901.651 1399.76 910.485 1399.98C919.319 1400.2 926.304 1407.54 926.086 1416.37ZM931.261 1490.52C931.043 1499.35 923.706 1506.34 914.872 1506.12C906.038 1505.9 899.053 1498.56 899.271 1489.73C899.489 1480.9 906.826 1473.91 915.66 1474.13C924.494 1474.35 931.479 1481.68 931.261 1490.52Z" stroke="black" stroke-width="22" stroke-linecap="round"/>
</g>
<defs>
<clipPath id="clip0_482_324">
<rect width="1500" height="1500" fill="white"/>
</clipPath>
</defs>
      <g clip-path="url(#clip0_497_1194)">
<path d="M379.667 654.812C432.345 471.574 618.472 401.981 699.114 390.653C740.985 382.718 849.655 375.215 949.364 408.675C980 418.956 1049.88 457.388 1091.92 499.818C1144.47 552.856 1272.97 732.052 1185.05 927.725C1097.12 1123.4 758.414 1092.29 612.749 1051.82C464.472 1010.63 314.48 881.563 379.667 654.812Z" fill="#AABBFF"/>
<path d="M449.293 747.204C454.734 531.068 585.306 432.345 649.911 410C432.292 459.565 365.296 655.455 364 747.204C377.99 984.871 584.496 1053.43 681 1058C601.498 1044.46 443.853 963.339 449.293 747.204Z" fill="#001647" fill-opacity="0.2"/>
<path d="M379.667 654.812C432.345 471.574 618.472 401.981 699.114 390.653C740.985 382.718 849.655 375.215 949.364 408.675C980 418.956 1049.88 457.388 1091.92 499.818C1144.47 552.856 1272.97 732.052 1185.05 927.725C1097.12 1123.4 758.414 1092.29 612.749 1051.82C464.472 1010.63 314.48 881.563 379.667 654.812Z" stroke="black" stroke-width="22" stroke-linecap="round"/>
</g>
<defs>
    <clipPath id="prefix__clip0_299_662"><path fill="#fff" d="M0 0h1500v1500H0z"/></clipPath>
</defs>
      <g clip-path="url(#clip0_624_3473)">
<path d="M1010.33 800C1015.74 800 1021.02 798.397 1025.52 795.394C1030.01 792.39 1033.52 788.121 1035.59 783.127C1037.65 778.132 1038.2 772.637 1037.14 767.334C1036.09 762.032 1033.48 757.162 1029.66 753.339C1025.84 749.517 1020.97 746.913 1015.67 745.859C1010.36 744.804 1004.87 745.345 999.873 747.414C994.879 749.483 990.61 752.986 987.606 757.481C984.603 761.976 983 767.261 983 772.667C983 779.916 985.88 786.868 991.006 791.994C996.132 797.12 1003.08 800 1010.33 800Z" fill="black"/>
<path d="M799.421 789.214L858.141 778.547C859.189 778.352 860.151 777.837 860.895 777.073C861.639 776.309 862.128 775.334 862.294 774.28C862.455 773.224 862.285 772.143 861.808 771.187C861.331 770.234 860.569 769.453 859.628 768.954L804.701 739.807" stroke="black" stroke-width="22" stroke-miterlimit="10" stroke-linecap="round"/>
<path d="M870.88 910.959C896.593 937.099 946.447 937.099 972.167 910.959" stroke="black" stroke-width="22" stroke-miterlimit="10" stroke-linecap="round"/>
</g>
<defs>
<clipPath id="clip0_624_3473">
<rect width="1500" height="1500" fill="white"/>
</clipPath>
</defs>
      <g clip-path="url(#clip0_2507_54)">
<path d="M465.702 816.438C480.86 808.672 506.017 801.608 528.977 822.177C533.144 825.842 538.246 828.431 543.789 829.693C549.333 830.955 555.13 830.848 560.62 829.382C577.275 825.065 601.312 823.004 618.961 838.922C623.315 842.866 628.715 845.635 634.597 846.939C640.479 848.243 646.627 848.034 652.399 846.335C669.555 841.272 694.168 839.009 715.452 857.097C719.883 860.896 725.325 863.492 731.201 864.607C737.076 865.723 743.165 865.316 748.82 863.431C762.912 858.716 784.234 859.512 800.222 872.39C828.365 892.375 848.043 877.733 857.942 868.788C871.772 856.323 893.921 850.386 923.719 862.743C928.011 864.484 911.991 863.591 916.667 863.537C921.342 863.482 925.955 862.503 930.206 860.662C944.415 854.622 967.654 843.804 990.096 857.826C995.145 861.047 1001.04 862.895 1007.13 863.168C1013.23 863.441 1019.29 862.128 1024.64 859.372C1034.51 854.21 1047.89 840.755 1063.77 843.596C1069.43 844.621 1075.27 844.252 1080.74 842.526C1086.21 840.8 1091.12 837.775 1094.99 833.743C1101.9 826.507 1113.11 820.008 1130.46 821.203C1136.43 821.572 1142.39 820.401 1147.71 817.815C1153.02 815.228 1157.49 811.325 1160.63 806.526C1167.76 795.749 1181.5 784.561 1207.55 783.129C1207.55 783.129 1229.44 796.284 1221.41 827.286C1219.56 834.45 1220.39 841.993 1223.78 848.634C1228.07 857.086 1231.34 869.688 1221.88 880.984C1219.07 884.303 1217.01 888.13 1215.83 892.227C1214.65 896.325 1214.38 900.606 1215.03 904.804C1217.37 919.141 1210.09 929.732 1202.94 936.436C1196.53 942.382 1192.88 950.476 1192.78 958.945C1192.64 975.174 1183.45 983.831 1174.71 988.382C1170.7 990.558 1167.21 993.503 1164.47 997.026C1161.74 1000.55 1159.82 1004.57 1158.83 1008.83C1155.33 1022.95 1138.92 1029.71 1131.6 1032.78C1124.28 1035.86 1115.56 1041.1 1108.97 1052.71C1102.39 1064.32 1086.36 1077.38 1073.94 1080.18C1069.52 1081.18 1065.37 1083 1061.71 1085.54C1058.06 1088.08 1054.98 1091.29 1052.67 1094.97C1041.4 1112.69 1020.26 1116.86 1005.2 1117.34C1000.51 1117.44 995.906 1118.49 991.682 1120.41C987.459 1122.33 983.717 1125.07 980.707 1128.46C968.761 1142.24 950.228 1143.81 937.46 1142.95C928.834 1142.41 920.321 1145.07 913.731 1150.35C896.484 1163.89 876.794 1161.03 863.383 1156.3C858.647 1154.62 853.56 1153.99 848.522 1154.47C843.483 1154.96 838.63 1156.53 834.342 1159.08C816.183 1169.89 798.695 1165.99 787.072 1160.66C782.601 1158.66 777.713 1157.62 772.762 1157.63C767.811 1157.64 762.922 1158.69 758.454 1160.7C733.781 1171.63 713.634 1161.25 702.194 1152.09C698.704 1149.31 694.644 1147.24 690.267 1146.01C685.889 1144.77 681.287 1144.4 676.747 1144.91C649.432 1147.99 632.822 1134.53 623.915 1123.46C620.92 1119.72 617.074 1116.66 612.659 1114.5C608.244 1112.34 603.372 1111.14 598.399 1110.99C574.944 1110.28 561.378 1100.62 553.949 1092.25C550.876 1088.77 547.047 1085.94 542.72 1083.96C538.392 1081.97 533.664 1080.89 528.851 1080.76C502.079 1080.08 491.575 1067.57 487.501 1056.82C485.888 1052.44 483.228 1048.47 479.726 1045.22C476.225 1041.96 471.976 1039.51 467.306 1038.05C441.864 1030.28 434.319 1011.5 432.435 997.274C431.827 992.251 429.952 987.44 426.968 983.242C423.983 979.043 419.975 975.58 415.279 973.14C395.013 962.907 392.242 947.513 393.181 937.021C393.779 929.716 391.562 922.456 386.936 916.574C380.535 908.31 374.525 894.994 383.545 879.356C385.957 875.189 387.331 870.559 387.562 865.82C387.793 861.081 386.874 856.356 384.876 852.004C379.713 840.791 376.01 825.969 386.55 817.421C400.856 805.769 421.875 811.236 436.165 817.331C440.825 819.338 445.915 820.302 451.039 820.147C456.163 819.992 461.181 818.723 465.702 816.438Z" fill="#F56CDB"/>
<path d="M565.801 884.099C551.032 867.741 562.342 843.135 571.001 831.629C565.495 829.957 553.585 826.623 549.992 826.658C545.5 826.701 531.994 823.539 523.458 817.978C514.921 812.417 517.451 816.155 510.447 814.341C503.442 812.527 485.97 812.224 483.973 812.243C481.977 812.263 447.097 818.709 445.6 818.724C444.102 818.738 408.068 808.268 406.567 807.813C405.365 807.448 390.515 817.214 383.24 822.142L383.504 850.822C383.511 851.575 382.995 867.755 382.736 875.751L384.18 924.168L409.529 966.714L433.298 1000.34L465.131 1042.35L492.815 1067.48L524.882 1080.81L589.512 1106.99L630.675 1132.46L669.218 1144.32L719.274 1159.82L761.198 1159.42L799.627 1159.05C791.688 1157.41 783.387 1150.18 778.03 1144.35C775.429 1141.53 771.581 1140.07 767.776 1140.6C727.302 1146.18 706.418 1124.24 698.952 1108.27C697.386 1104.91 694.491 1102.29 690.934 1101.27C666.516 1094.28 656.946 1076.35 654.273 1063.41C653.338 1058.89 650.206 1054.91 645.869 1053.31C623.767 1045.16 618.763 1028.83 619.441 1016.71C619.725 1011.63 617.484 1006.4 613.109 1003.8C589.803 989.959 586.544 971.178 588.801 958.778C589.622 954.265 588.49 949.38 585.204 946.181C567.933 929.37 566.759 911.509 569.796 899.613C571.162 894.262 569.5 888.197 565.801 884.099Z" fill="#001647" fill-opacity="0.2"/>
<path d="M528.978 822.176C506.017 801.608 480.861 808.672 465.702 816.438C461.182 818.722 456.163 819.992 451.04 820.147C445.916 820.302 440.825 819.338 436.165 817.331C421.875 811.236 400.856 805.768 386.55 817.421C376.01 825.969 381.713 840.79 386.877 852.003C388.874 856.355 389.793 861.08 389.562 865.82C389.331 870.559 387.958 875.188 385.545 879.356C376.525 894.993 382.535 908.31 388.936 916.573C393.562 922.456 395.779 929.715 395.181 937.021C394.242 947.513 397.013 962.906 417.279 973.139C421.976 975.579 425.983 979.043 428.968 983.241C431.952 987.439 433.827 992.251 434.435 997.274C436.32 1011.5 441.864 1030.28 467.306 1038.05C471.976 1039.51 476.225 1041.96 479.726 1045.22C483.228 1048.47 485.888 1052.44 487.501 1056.82C491.575 1067.57 502.08 1080.08 528.851 1080.76C533.664 1080.89 538.392 1081.97 542.72 1083.96C547.048 1085.94 550.876 1088.77 553.949 1092.25C561.378 1100.62 574.944 1110.28 598.399 1110.99C603.372 1111.14 608.245 1112.34 612.659 1114.5C617.074 1116.66 620.92 1119.72 623.915 1123.46C632.823 1134.53 649.432 1147.99 676.747 1144.91C681.287 1144.4 685.889 1144.77 690.267 1146.01C694.645 1147.24 698.704 1149.31 702.194 1152.09C713.634 1161.25 733.781 1171.63 758.454 1160.7C762.923 1158.69 767.811 1157.64 772.762 1157.63C777.713 1157.62 782.602 1158.66 787.072 1160.65C798.696 1165.99 816.183 1169.89 834.342 1159.08C838.63 1156.53 843.483 1154.96 848.522 1154.47C853.561 1153.99 858.647 1154.62 863.383 1156.3C876.794 1161.02 896.484 1163.89 913.731 1150.35C920.322 1145.07 928.835 1142.41 937.46 1142.95C950.228 1143.81 968.761 1142.24 980.707 1128.46C983.717 1125.07 987.459 1122.33 991.683 1120.41C995.906 1118.49 1000.51 1117.44 1005.2 1117.34C1020.26 1116.86 1041.4 1112.69 1052.67 1094.97C1054.98 1091.29 1058.06 1088.08 1061.71 1085.54C1065.37 1083 1069.52 1081.18 1073.94 1080.18C1086.36 1077.38 1102.39 1064.32 1108.97 1052.71C1115.56 1041.1 1124.28 1035.86 1131.6 1032.78L1131.8 1032.7C1139.22 1029.59 1155.36 1022.82 1158.83 1008.83C1159.82 1004.57 1161.74 1000.55 1164.48 997.025C1167.21 993.502 1170.7 990.558 1174.71 988.381C1183.45 983.83 1192.64 975.174 1192.78 958.945C1192.88 950.475 1196.53 942.382 1202.94 936.436C1210.09 929.732 1217.37 919.141 1215.03 904.804C1214.38 900.605 1214.65 896.324 1215.83 892.227C1217.01 888.129 1219.07 884.302 1221.88 880.984C1231.34 869.687 1228.07 857.086 1223.78 848.633C1220.39 841.992 1219.56 834.449 1221.41 827.286C1229.44 796.284 1207.55 783.129 1207.55 783.129C1181.5 784.561 1167.76 795.749 1160.63 806.525C1157.49 811.325 1153.02 815.228 1147.71 817.814C1142.39 820.4 1136.43 821.572 1130.46 821.202C1113.11 820.007 1101.9 826.506 1094.99 833.743C1091.12 837.775 1086.21 840.8 1080.74 842.526C1075.28 844.251 1069.43 844.62 1063.77 843.596C1047.89 840.754 1034.51 854.21 1024.65 859.372C1019.29 862.127 1013.23 863.44 1007.13 863.168C1001.04 862.895 995.145 861.047 990.096 857.826C975.888 848.949 959.716 858.434 946.155 868.123C933.956 876.839 919.01 875.415 905.387 869.164C886.22 860.368 868.122 859.612 857.942 868.788C848.043 877.733 828.366 892.375 800.222 872.39C784.234 859.511 762.912 858.716 748.82 863.431C743.166 865.316 737.077 865.722 731.201 864.607C725.325 863.492 719.883 860.896 715.452 857.096C694.168 839.008 669.555 841.271 652.399 846.335C646.627 848.034 640.479 848.242 634.597 846.938C628.715 845.634 623.315 842.866 618.961 838.921C601.313 823.004 577.276 825.064 560.621 829.381C555.13 830.848 549.333 830.955 543.79 829.692C538.246 828.43 533.145 825.841 528.978 822.176Z" stroke="black" stroke-width="22" stroke-miterlimit="10"/>
<path d="M847.684 952.99C796.393 960.533 771.057 930.01 764.065 911.56C763.735 910.688 764.715 909.945 765.529 910.399C794.794 926.75 833.656 903.637 851.184 871.99C854.749 865.552 859.18 860.308 864.102 856.095C892.633 831.676 933.121 867.002 920.263 902.286C911.028 927.625 887.792 947.092 847.684 952.99Z" fill="#F56CDB"/>
<path d="M999.033 952.99C1050.32 960.533 1075.66 930.01 1082.65 911.56C1082.98 910.688 1082 909.945 1081.19 910.399C1051.92 926.75 1013.06 903.637 995.533 871.99C991.967 865.552 987.536 860.308 982.614 856.095C954.083 831.676 913.595 867.002 926.454 902.286C935.688 927.625 958.924 947.092 999.033 952.99Z" fill="#F56CDB"/>
<path d="M883 852.5C880.2 911.7 822.5 934.5 794 938.5L769.5 916.5L826.5 903.5L851 878.5L858 857.5L883 852.5Z" fill="#001647" fill-opacity="0.2"/>
<path d="M970 938.5C944.8 914.9 950.833 871.333 957 852.5L940 854.5L924.5 867V897L945 925.5L970 938.5Z" fill="#001647" fill-opacity="0.2"/>
<path fill-rule="evenodd" clip-rule="evenodd" d="M923.129 856.694C920.505 853.024 917.459 849.726 914.113 846.903C898.825 834.009 875.472 829.811 856.267 846.248C850.38 851.286 845.101 857.547 840.878 865.171C833.142 879.14 820.655 891.196 807.203 897.842C793.771 904.478 780.734 905.185 770.211 899.306C765.64 896.752 760.435 897.58 756.925 900.315C753.272 903.161 751.024 908.5 753.096 913.968C761.559 936.297 791.257 970.816 848.601 962.383C884.621 957.086 909.524 941.229 923.129 918.755C936.733 941.229 961.636 957.086 997.656 962.384C1055 970.817 1084.7 936.297 1093.16 913.968C1095.23 908.5 1092.99 903.161 1089.33 900.315C1085.82 897.58 1080.62 896.752 1076.05 899.307C1065.52 905.186 1052.49 904.479 1039.06 897.842C1025.6 891.196 1013.12 879.14 1005.38 865.171C1001.16 857.547 995.878 851.287 989.991 846.248C970.785 829.811 947.433 834.01 932.145 846.904C928.799 849.726 925.753 853.024 923.129 856.694ZM899.929 863.721C891.054 856.236 879.898 854.981 870.572 862.962C866.614 866.35 863.033 870.578 860.124 875.83C850.333 893.508 834.625 908.832 816.948 917.566C807.598 922.186 797.32 925.111 786.94 925.299C798.415 936.011 817.19 944.766 845.401 940.617C882.42 935.173 901.682 917.782 909.245 897.029C913.863 884.357 909.026 871.393 899.929 863.721ZM946.329 863.721C937.232 871.394 932.395 884.358 937.013 897.029C944.576 917.782 963.838 935.174 1000.86 940.618C1029.07 944.766 1047.84 936.011 1059.32 925.299C1048.94 925.111 1038.66 922.186 1029.31 917.566C1011.63 908.832 995.925 893.508 986.134 875.83C983.225 870.578 979.643 866.35 975.686 862.962C966.36 854.981 955.203 856.236 946.329 863.721Z" fill="black"/>
</g>
<defs>
<clipPath id="clip0_2507_54">
<rect width="1500" height="1500" fill="white"/>
</clipPath>
</defs>
      <g clip-path="url(#clip0_499_1429)">
<path d="M376 874C356 831 352 775 353.5 755V739.5L479.5 706.5L646.5 687.5C701.833 680.167 835.3 652.7 926.5 601.5C1017.7 550.3 1130.83 580.167 1176 601.5C1201.2 643.1 1216.5 705.833 1221 732L1264.5 710L1335.5 644L1341 615.5C1327.83 605.667 1301.1 585.7 1299.5 584.5C1297.9 583.3 1248.5 559.333 1224 547.5L1136.5 495L1089 454C1081.5 442.667 1056.4 397.4 1016 307C975.6 216.6 873.5 214 827.5 224C771.167 234.5 635.3 261.6 542.5 286C449.7 310.4 413.5 348.834 407 365L388 489.5L382 584.5L353.5 649L239.5 806.5C247.5 813 267.6 830.8 284 850C300.4 869.2 352.167 874 376 874Z" fill="#FF6247"/>
<path d="M739.331 405.311C738.814 405.371 738.478 404.855 738.771 404.45L750.893 387.704C751.07 387.46 751.024 387.139 750.785 386.96L712.842 358.567C712.562 358.357 712.136 358.427 711.931 358.715L686.908 393.752C686.703 394.038 686.28 394.109 686 393.902L626.95 350.202C626.71 350.025 626.66 349.705 626.835 349.459L641.668 329.263C641.873 328.974 642.301 328.904 642.581 329.115L679.864 357.122C680.142 357.33 680.565 357.264 680.773 356.979L707.748 320.588C707.954 320.305 708.373 320.237 708.652 320.441L768.237 364.32C768.506 364.517 768.909 364.461 769.123 364.196L782.82 347.197C783.153 346.784 783.848 346.927 783.92 347.424L789.072 397.301C789.119 397.619 788.864 397.92 788.513 397.96L739.331 405.311Z" fill="white"/>
<path d="M492 583.5C467.6 608.3 438.167 685.167 426.5 718L354 749.5C349 784 364 854 378 876L355.5 878L295.5 856.5L245.5 818V802L347 665L378 597L393.5 482.5L403.5 368.5L443.5 329.5L522.5 299.5C495 389.5 498.833 497.667 506.5 543L579.5 512.5L749 467.5L947.5 440.5L1019 452.5L1018.54 455.235C1017.4 462.096 1011.09 466.826 1004.17 466.186C831.696 450.262 592.254 528.165 492 583.5Z" fill="#001647" fill-opacity="0.2"/>
<path d="M1220 730C1215 693 1193 634 1177.5 604.5L1220 610L1289.5 616L1345.5 619.5L1331.5 653.5L1294 695.5L1253 717.5L1220 730Z" fill="#001647" fill-opacity="0.2"/>
<path d="M452.773 571.28C563.116 511.305 821.5 413.5 1022.05 447.163M1215.09 734.367C1293.13 704.467 1331.11 656.617 1344.38 628.399C1347.53 621.702 1345.42 613.97 1339.66 609.317C1322.28 595.265 1287.7 571.775 1238.64 550.176C1193.41 530.262 1142.48 497.329 1108.33 473.151C1090.34 460.41 1078.37 441.255 1070.66 420.597C1047.56 358.685 1006.86 298.749 975.15 260.245C960.236 242.133 938.189 231.705 914.76 230.46C705.301 219.332 524.535 286.218 436.126 335.612C415.641 347.058 402.083 367.059 398.854 390.302C391.558 442.833 384.122 531.205 379.99 587.396C379.192 598.258 376.803 608.945 371.679 618.556C346.078 666.577 283.742 747.752 245.107 795.488C238.55 803.591 239.172 815.376 247.136 822.1C280.405 850.188 338.469 887.386 386 879.581M240.445 809.859C262.016 792.823 333.044 745.637 420.196 720.843C529.137 689.851 641.153 689.404 727.402 672.098C848.466 647.807 916.791 573.215 1047.32 572.025C1177.85 570.835 1187.03 629.968 1339.22 617.077" stroke="black" stroke-width="22" stroke-linecap="round"/>
</g>
<defs>
<clipPath id="clip0_499_1429">
<rect width="1500" height="1500" fill="white"/>
</clipPath>
</defs>
      
    </g>
    </svg>