<svg
      xmlns="http://www.w3.org/2000/svg"
      preserveAspectRatio="xMidYMin meet"
      fill="none"
      viewBox="0 0 1500 1500"
    >
      <g>
      <path fill="url(#prefix__paint0_linear_53_28789)" d="M0 0h1500v1500H0z"/><defs><linearGradient id="prefix__paint0_linear_53_28789" x1="1500" y1="1500" x2="0" y2="0" gradientUnits="userSpaceOnUse">
<stop stop-color="#FFD130"/>
<stop offset="1" stop-color="#FFEEDB"/>
</linearGradient></defs>
      <g clip-path="url(#clip0_614_2455)">
<path d="M388.5 1416.5L352.5 1511L1142 1512L1129 1431.5L1070.5 1276L1007 1176L1042 1113L1028 1043.5C1005.33 1055.83 926.6 1079 793 1073C659.4 1067 549.333 1018.83 511 995.5C492.833 1014.83 453.2 1067.2 440 1122C426.8 1176.8 459.5 1220.83 477.5 1236L388.5 1416.5Z" fill="#3A3A3A"/>
<path d="M353.698 1511C350.413 1508.73 360.049 1471.27 412.869 1339.62C429.682 1297.72 453.924 1259.56 477.605 1226C485.368 1215 376 1149.5 506.5 995L661 1046.5L683.5 1051C662.368 1062.33 708.557 1043.79 690 1058.04C521.079 1187.75 456.033 1424.17 443.158 1511H353.698Z" fill="black" fill-opacity="0.2"/>
<path d="M358.5 1507.5C371.341 1452.7 410.793 1338.13 480.097 1232M553.5 1137.5C526.081 1166.82 501.646 1199 480.097 1232M480.097 1232C440.958 1203.88 392.15 1116.57 509.46 992.073C509.77 991.743 510.252 991.637 510.651 991.852C600.161 1040.15 826.624 1117.43 1022.78 1043.27C1023.2 1043.11 1023.69 1043.26 1023.95 1043.63C1058.52 1092.29 1025.8 1150.61 1005.51 1174.4C1005.21 1174.76 1005.18 1175.25 1005.46 1175.62C1045.94 1229.92 1124.17 1371.22 1141.5 1507.5M721 1157C757.667 1176.33 851.2 1204.5 932 1162.5M1013.5 1319C1024.83 1354.33 1048.1 1443.9 1050.5 1519.5M667 1361.5C661.166 1392.33 650.3 1467.1 653.5 1519.5" stroke="black" stroke-width="22" stroke-linecap="round"/>
<path d="M963.65 1489.14L967.581 1515.56C968.344 1520.18 968.062 1524.9 966.756 1529.4C963.152 1541.66 954.267 1542.19 954.267 1542.19C949.534 1543.25 944.627 1543.27 939.886 1542.25C934.87 1541.19 930.106 1539.17 925.853 1536.31C913.117 1527.15 873.039 1449.06 873.039 1449.06L831.161 1535.6L793.844 1535.33L852.552 1414.55L821.006 1364.5C818.897 1361.15 816.025 1358.34 812.624 1356.31C809.339 1354.31 805.603 1353.18 801.763 1353.02H801.158C797.885 1352.63 794.567 1353.1 791.528 1354.37C788.649 1355.6 786.182 1357.62 784.421 1360.21C781.152 1364.01 781.624 1376.43 781.624 1376.43L774.028 1376.93C771.867 1369.53 770.544 1361.91 770.084 1354.22C769.662 1348.62 770.838 1343.03 773.476 1338.08C775.187 1334.64 777.877 1331.78 781.21 1329.86C784.689 1327.89 788.641 1326.9 792.64 1327.01C799.606 1327.06 806.721 1329.25 813.012 1333.3C819.356 1337.38 824.619 1342.94 828.355 1349.49L859.412 1405.8L897.615 1331.3L931.583 1331.55L879.091 1436.48L902.066 1476.71C902.066 1476.71 920.78 1515.52 939.374 1515.66C957.968 1515.79 955.696 1489.05 955.696 1489.05L963.65 1489.14Z" fill="white"/>
</g>
<defs>
<clipPath id="clip0_614_2455">
<rect width="1500" height="1500" fill="white"/>
</clipPath>
</defs>
      <g clip-path="url(#clip0_497_1194)">
<path d="M379.667 654.812C432.345 471.574 618.472 401.981 699.114 390.653C740.985 382.718 849.655 375.215 949.364 408.675C980 418.956 1049.88 457.388 1091.92 499.818C1144.47 552.856 1272.97 732.052 1185.05 927.725C1097.12 1123.4 758.414 1092.29 612.749 1051.82C464.472 1010.63 314.48 881.563 379.667 654.812Z" fill="#AABBFF"/>
<path d="M449.293 747.204C454.734 531.068 585.306 432.345 649.911 410C432.292 459.565 365.296 655.455 364 747.204C377.99 984.871 584.496 1053.43 681 1058C601.498 1044.46 443.853 963.339 449.293 747.204Z" fill="#001647" fill-opacity="0.2"/>
<path d="M379.667 654.812C432.345 471.574 618.472 401.981 699.114 390.653C740.985 382.718 849.655 375.215 949.364 408.675C980 418.956 1049.88 457.388 1091.92 499.818C1144.47 552.856 1272.97 732.052 1185.05 927.725C1097.12 1123.4 758.414 1092.29 612.749 1051.82C464.472 1010.63 314.48 881.563 379.667 654.812Z" stroke="black" stroke-width="22" stroke-linecap="round"/>
</g>
<defs>
    <clipPath id="prefix__clip0_299_662"><path fill="#fff" d="M0 0h1500v1500H0z"/></clipPath>
</defs>
      <g clip-path="url(#clip0_624_3437)">
<path d="M874 925.246H968.413" stroke="black" stroke-width="20" stroke-linecap="round"/>
<path d="M822 818C849.062 818 871 796.062 871 769C871 741.938 849.062 720 822 720C794.938 720 773 741.938 773 769C773 796.062 794.938 818 822 818Z" fill="white" stroke="black" stroke-width="20" stroke-miterlimit="10"/>
<path d="M1012 818C1039.06 818 1061 796.062 1061 769C1061 741.938 1039.06 720 1012 720C984.938 720 963 741.938 963 769C963 796.062 984.938 818 1012 818Z" fill="white" stroke="black" stroke-width="20" stroke-miterlimit="10"/>
<path d="M822 767C829.18 767 835 761.18 835 754C835 746.82 829.18 741 822 741C814.82 741 809 746.82 809 754C809 761.18 814.82 767 822 767Z" fill="black"/>
<path d="M1012 767C1019.18 767 1025 761.18 1025 754C1025 746.82 1019.18 741 1012 741C1004.82 741 999 746.82 999 754C999 761.18 1004.82 767 1012 767Z" fill="black"/>
</g>
<defs>
<clipPath id="clip0_624_3437">
<rect width="1500" height="1500" fill="white"/>
</clipPath>
</defs>
      <g clip-path="url(#clip0_838_2238)">
<ellipse cx="932" cy="915.5" rx="131" ry="69.5" fill="#AABBFF"/>
<path d="M993 969L1016.5 1012.5L1037.5 996L1012.5 942L977 913.5L939 917L993 969Z" fill="#3A3A3A"/>
<path d="M1039.5 1003L1011 1013.5L1020 1036.5L1043.5 1028.5L1039.5 1003Z" fill="#FFBF44"/>
<path d="M1111 1190C1050.6 1187.6 1024.17 1090.67 1018.5 1042.5C1016.1 1033.3 1033.83 1025 1043 1022L1052.5 1054L1075 1091L1084.5 1077L1131 1093L1184 1091C1184.83 1125 1171.4 1192.4 1111 1190Z" fill="#9E6740"/>
<path d="M1103 1158C1127 1164.4 1158.5 1149.83 1168 1141.5L1153.5 1174L1122 1192.5L1074 1182L1042.5 1145.5L1015.5 1044.5L1002 999.5L962 936.5L953 917.5C960.333 920.833 980.4 934.2 1002 961C1029 994.5 1035.5 1060.5 1050.5 1101C1065.6 1141.76 1073 1150 1103 1158Z" fill="#001647" fill-opacity="0.2"/>
<path d="M1113.5 1058C1078.7 1060 1090.67 1074.17 1101 1081L1179 1087.5L1189.5 1070C1178.67 1065.17 1148.3 1056 1113.5 1058Z" fill="#5B3827"/>
<path d="M1184 1076C1188.5 1149.5 1158 1190 1110 1188.5C1062 1187 1030 1153 1017.5 1055.5C1005.31 960.383 954.125 927.51 925.593 915.926M1079.5 1089.5C1061 1080.5 1053.8 1050.5 1036.5 992.5C1023.91 950.292 989.218 924.962 969.059 912.307M1080.5 1114.5C1080.17 1104.5 1079.2 1078.7 1084 1065.5M1011.5 1008L1034 996.5M1022 1042L1045.5 1030.5M876 912C898 917 932.891 916.736 969.059 912.307M1014 902.5C1000.47 907.255 984.917 910.365 969.059 912.307M915.5 954C926.667 958 954.1 963.2 974.5 952" stroke="black" stroke-width="20" stroke-linecap="round"/>
<ellipse cx="1134.29" cy="1070.01" rx="50.8114" ry="18.5698" transform="rotate(6.18578 1134.29 1070.01)" stroke="black" stroke-width="21"/>
</g>
<defs>
<clipPath id="clip0_838_2238">
<rect width="1500" height="1500" fill="white"/>
</clipPath>
</defs>
      <svg width="1500" height="1500" viewBox="0 0 1500 1500" fill="none" xmlns="http://www.w3.org/2000/svg">
<g clip-path="url(#clip0_791_1765)">
<path d="M299 577C191.4 605 167.834 632.667 169.5 643L261.5 663L497.5 678.5L573 622.5L564 678.5L763.5 675.5L971.5 667.5C1106 655.333 1374.7 622.3 1373.5 587.5C1372.3 552.7 1196 519 1108 506.5C1103.5 497.333 1091.4 468.3 1079 425.5C1066.6 382.7 1052.17 377.333 1046.5 380L1025.5 311.5L991 272L968 207.5L917.5 133.5C887.333 109.167 807.2 57.9001 728 47.5001C629 34.5001 478.5 79.0001 438.5 140.5C406.5 189.7 415.833 219.667 424.5 228.5L474 214.5L552.5 195.5L535.5 245.5L547.5 294L524 316L509 390.5L478.5 405.5L440.5 540C438.167 540.667 406.6 549 299 577Z" fill="#53B6F9"/>
<path d="M482 401L440 541L623.5 517L893 509L1109 505.5L1063.5 394L1040.5 374L838 360.5L636 374L482 401Z" fill="#FFBF44"/>
<path d="M581 528.5C504 568 444.5 604 395.5 670.5H348.5L176 650.5L173 621L303.5 578L442.5 540.5L480 409L504 402.5L515 356.5L538 304.5L590.775 261.565C594.241 258.744 599.322 259.194 602.24 262.578C605.856 266.773 605.832 275.172 602.106 279.269C598.668 283.05 593.707 288.124 586.5 294.5C570.403 308.739 565.23 333.519 563.032 356.5C561.679 370.639 561.452 384.097 560.5 394L596.5 381C576.924 426.477 567.457 471.784 563.619 501C644.746 487.833 865.4 466.2 1099 485L1105 510.5L882.5 501L624.5 524L561.768 519C561.644 520.827 561.556 522.497 561.5 524L581 528.5Z" fill="#001647" fill-opacity="0.2"/>
<path d="M593.314 179.95C565.986 221.93 569.515 252.972 574.5 264.5L548 285.5L541 264.5L548 217.5L576.355 168.832C579.179 163.984 585.435 162.405 590.222 165.33C595.217 168.383 596.508 175.044 593.314 179.95Z" fill="#001647" fill-opacity="0.2"/>
<path d="M429 222.5C420.6 195.3 517.167 174.167 566.5 167L548 194.5L472 211.5C461.167 226.5 437.4 249.7 429 222.5Z" fill="#001647" fill-opacity="0.2"/>
<path d="M620.377 337.183L630.63 305.444L606.546 282.33C606.122 281.915 605.83 281.384 605.707 280.804C605.585 280.224 605.637 279.621 605.857 279.07C606.077 278.519 606.455 278.046 606.944 277.711C607.433 277.375 608.011 277.192 608.604 277.184L641.977 277.116L656.577 247.387C656.84 246.855 657.255 246.413 657.77 246.117C658.285 245.821 658.875 245.685 659.468 245.725C660.06 245.765 660.627 245.98 661.097 246.342C661.567 246.704 661.919 247.198 662.109 247.76L672.376 279.18L705.425 283.718C707.838 284.051 708.739 287.65 706.772 289.099L679.836 308.726L685.659 341.267C685.761 341.854 685.685 342.457 685.442 343.001C685.2 343.545 684.801 344.004 684.296 344.32C683.792 344.636 683.204 344.795 682.609 344.777C682.014 344.758 681.438 344.563 680.954 344.216L654.012 324.948L624.609 340.698C624.083 340.971 623.489 341.082 622.9 341.018C622.311 340.953 621.754 340.716 621.3 340.335C620.846 339.955 620.514 339.448 620.348 338.88C620.181 338.311 620.186 337.706 620.363 337.14L620.377 337.183Z" fill="white"/>
<path d="M1139.12 604.324L1121.68 585.562L1088.53 589.446C1087.95 589.511 1087.35 589.455 1086.83 589.284C1086.31 589.114 1085.89 588.837 1085.61 588.488C1085.34 588.139 1085.23 587.733 1085.29 587.323C1085.35 586.913 1085.59 586.517 1085.96 586.184L1107.54 567.594L1094.44 547.241C1094.2 546.876 1094.14 546.463 1094.25 546.055C1094.36 545.647 1094.64 545.263 1095.05 544.95C1095.46 544.637 1095.99 544.41 1096.57 544.297C1097.15 544.185 1097.76 544.192 1098.31 544.319L1128.8 551.537L1153.66 535.023C1155.47 533.818 1158.79 534.798 1158.61 536.487L1156.05 559.545L1184.51 569.696C1185.03 569.881 1185.43 570.172 1185.69 570.53C1185.95 570.889 1186.04 571.3 1185.95 571.711C1185.86 572.121 1185.6 572.513 1185.2 572.837C1184.8 573.16 1184.28 573.4 1183.7 573.526L1151.63 580.583L1144.53 603.417C1144.39 603.821 1144.09 604.198 1143.66 604.499C1143.23 604.8 1142.69 605.012 1142.11 605.108C1141.52 605.204 1140.92 605.18 1140.39 605.039C1139.85 604.897 1139.39 604.645 1139.08 604.314L1139.12 604.324Z" fill="white"/>
<path d="M380.906 620.312L402.217 602.851L387.173 583.464C386.911 583.118 386.819 582.728 386.908 582.344C386.997 581.959 387.264 581.597 387.675 581.303C388.085 581.009 388.622 580.796 389.216 580.692C389.809 580.588 390.434 580.597 391.012 580.717L423.365 587.731L448.166 572.432C448.612 572.159 449.173 571.973 449.777 571.899C450.382 571.825 451.003 571.865 451.562 572.015C452.122 572.165 452.594 572.418 452.919 572.742C453.245 573.065 453.409 573.445 453.391 573.833L452.072 595.435L482.46 605.228C484.679 605.945 484.26 608.361 481.836 608.841L448.706 615.284L442.681 636.64C442.569 637.024 442.279 637.382 441.849 637.666C441.419 637.951 440.868 638.151 440.266 638.24C439.664 638.329 439.038 638.303 438.468 638.166C437.898 638.028 437.41 637.786 437.066 637.469L417.874 619.856L383.745 623.381C383.138 623.438 382.522 623.381 381.975 623.217C381.427 623.053 380.973 622.788 380.67 622.457C380.366 622.125 380.227 621.742 380.269 621.355C380.312 620.968 380.534 620.595 380.908 620.283L380.906 620.312Z" fill="white"/>
<path d="M688.207 622.41L685.674 598.316L654.74 592.63C654.193 592.526 653.723 592.297 653.391 591.973C653.059 591.649 652.879 591.245 652.874 590.811C652.869 590.377 653.039 589.933 653.363 589.535C653.687 589.137 654.15 588.804 654.694 588.576L685.437 575.987L687.67 551.542C687.712 551.104 687.928 550.666 688.291 550.284C688.653 549.902 689.146 549.593 689.707 549.395C690.269 549.198 690.872 549.122 691.443 549.176C692.013 549.231 692.524 549.413 692.911 549.701L714.243 565.877L746.426 556.347C748.777 555.652 750.967 557.609 749.7 559.272L732.279 581.913L749.937 600.474C750.252 600.81 750.411 601.223 750.392 601.661C750.374 602.099 750.179 602.542 749.833 602.933C749.488 603.325 749.006 603.647 748.451 603.858C747.895 604.07 747.29 604.162 746.713 604.123L714.596 601.964L693.437 623.06C693.055 623.432 692.549 623.726 691.982 623.907C691.414 624.087 690.811 624.145 690.249 624.073C689.686 624.001 689.19 623.802 688.821 623.502C688.453 623.202 688.229 622.814 688.179 622.387L688.207 622.41Z" fill="white"/>
<path d="M888.545 634.543L908.277 616.51L891.631 594.624C891.34 594.234 891.215 593.804 891.27 593.388C891.326 592.972 891.561 592.59 891.945 592.289C892.329 591.988 892.845 591.781 893.428 591.696C894.01 591.611 894.633 591.651 895.219 591.81L928.047 601.025L951.441 585.52C951.861 585.243 952.404 585.068 953 585.016C953.595 584.964 954.218 585.038 954.788 585.229C955.358 585.42 955.85 585.718 956.202 586.087C956.554 586.456 956.75 586.878 956.765 587.301L957.302 610.817L989.409 618.888C991.68 619.777 991.47 622.394 989.097 622.801L955.65 632.322L951.478 655.342C951.399 655.756 951.142 656.133 950.738 656.423C950.334 656.713 949.802 656.904 949.21 656.972C948.618 657.04 947.992 656.982 947.413 656.805C946.833 656.627 946.326 656.339 945.956 655.976L925.33 635.827L891.637 638.03C891.037 638.063 890.418 637.972 889.859 637.766C889.299 637.56 888.824 637.249 888.494 636.873C888.163 636.497 887.991 636.071 888 635.651C888.009 635.231 888.199 634.834 888.545 634.511L888.545 634.543Z" fill="white"/>
<path d="M859.443 237.838L843.54 208.519L810.192 210.007C809.599 210.029 809.013 209.874 808.509 209.562C808.004 209.251 807.603 208.796 807.357 208.257C807.11 207.718 807.029 207.118 807.123 206.532C807.217 205.947 807.483 205.402 807.886 204.968L830.861 180.761L819.412 149.682C819.209 149.125 819.175 148.519 819.316 147.943C819.457 147.366 819.766 146.844 820.203 146.443C820.641 146.042 821.187 145.78 821.774 145.689C822.361 145.599 822.961 145.685 823.499 145.936L853.328 160.179L879.412 139.385C881.319 137.868 884.546 139.699 884.237 142.122L879.863 175.163L907.437 193.397C907.932 193.728 908.317 194.199 908.543 194.75C908.769 195.301 908.826 195.906 908.707 196.489C908.588 197.073 908.298 197.608 907.873 198.026C907.449 198.444 906.911 198.726 906.326 198.837L873.79 205.048L864.907 237.199C864.742 237.768 864.412 238.275 863.959 238.657C863.506 239.039 862.95 239.278 862.361 239.344C861.773 239.41 861.177 239.301 860.651 239.029C860.124 238.758 859.69 238.336 859.403 237.818L859.443 237.838Z" fill="white"/>
<path d="M923.045 372.01L918.852 367.352L891.221 358.589C890.732 358.429 890.301 358.127 889.983 357.722C889.664 357.317 889.473 356.827 889.434 356.314C889.394 355.801 889.507 355.287 889.759 354.838C890.011 354.389 890.391 354.024 890.85 353.791L916.82 340.931L916.785 312.17C916.786 311.655 916.939 311.151 917.227 310.723C917.514 310.295 917.922 309.962 918.398 309.766C918.875 309.57 919.399 309.52 919.905 309.622C920.41 309.724 920.873 309.973 921.237 310.338L941.292 330.873L968.777 321.725C970.785 321.059 972.868 323.517 971.892 325.4L958.441 351.026L975.465 370.139C975.769 370.558 975.942 371.057 975.962 371.573C975.981 372.09 975.847 372.601 975.575 373.041C975.303 373.481 974.907 373.83 974.436 374.044C973.965 374.258 973.442 374.327 972.932 374.242L944.55 373.572L927.691 373.124C927.386 373.538 926.965 373.853 926.482 374.029C925.998 374.205 925.473 374.233 924.974 374.111C924.474 373.989 924.021 373.722 923.673 373.343C923.325 372.964 923.097 372.49 923.018 371.982L923.045 372.01Z" fill="white"/>
<path d="M643.004 157.825L638.026 129.051L606.085 120.363C605.519 120.204 605.02 119.903 604.65 119.497C604.281 119.092 604.058 118.6 604.01 118.085C603.962 117.569 604.09 117.053 604.379 116.6C604.668 116.148 605.104 115.781 605.633 115.544L635.553 102.516L635.375 73.6229C635.374 73.1051 635.549 72.5986 635.879 72.1674C636.208 71.7363 636.677 71.4 637.227 71.201C637.776 71.002 638.381 70.9493 638.965 71.0495C639.549 71.1497 640.085 71.3984 640.506 71.7641L663.758 92.3106L695.446 83.0059C697.761 82.328 700.177 84.7888 699.059 86.6844L683.653 112.485L703.417 135.635C703.77 136.053 703.972 136.554 703.997 137.073C704.022 137.592 703.869 138.106 703.558 138.549C703.246 138.992 702.79 139.344 702.248 139.561C701.706 139.778 701.101 139.85 700.512 139.767L667.724 135.193L648.373 158.925C648.023 159.342 647.538 159.66 646.981 159.839C646.424 160.017 645.818 160.048 645.24 159.928C644.663 159.807 644.139 159.54 643.736 159.161C643.332 158.782 643.067 158.307 642.973 157.797L643.004 157.825Z" fill="white"/>
<path d="M436 543C374 554.066 243.717 583.683 178.202 623.338C164.903 631.387 169.893 648.694 185.249 651.111C260.064 662.889 368.269 672.307 493.317 676.356C496.275 676.452 499.123 675.214 501.168 673.074C516.893 656.617 539.363 641.229 578.399 618.904C580.054 617.957 581.976 619.642 581.244 621.403C574.552 637.511 565.609 659.776 561.108 674.239C560.523 676.119 561.905 677.995 563.873 678.025C818.108 681.863 1124.58 663.282 1361.47 600.115C1379.48 595.312 1380.38 572.051 1362.69 566.179C1299.65 545.263 1202.31 518.91 1111 508.5M436 543L473.39 423.262C476.283 414 483.458 406.642 492.792 403.993C496.136 403.043 499.54 402.121 503 401.226M436 543C539.167 524.667 818.6 492.1 1111 508.5M1111 508.5L1064.92 393.067C1061.59 384.724 1053.63 380.554 1045 378.046V378.046M503 401.226C505.922 386.954 513.269 352.099 522.813 325.373C527.224 313.019 535.946 302.895 546.421 295V295M503 401.226C654.609 361.985 960.5 356 1045 378.046M597.5 256.5L546.421 295M546.421 295C545.392 288.83 543.776 278.355 542.197 266.561C538.797 241.156 544.691 215.595 557.25 193.25V193.25M576.5 159L557.25 193.25M557.25 193.25C532.945 196.722 484.281 207.558 448.059 226.61C435.109 233.421 418.133 227.525 418.855 212.91C420.784 173.832 442.766 117.371 519.5 73.9997C646 2.49975 944 41.5002 992 276.254M978 268C1000.33 278.364 1045 314.884 1045 378.046" stroke="black" stroke-width="22" stroke-linecap="round"/>
</g>
<defs>
<clipPath id="clip0_791_1765">
<rect width="1500" height="1500" fill="white"/>
</clipPath>
</defs>
      
    </g>
    </svg>