<svg
      xmlns="http://www.w3.org/2000/svg"
      preserveAspectRatio="xMidYMin meet"
      fill="none"
      viewBox="0 0 1500 1500"
    >
      <g>
      <path fill="url(#prefix__paint0_linear_53_30460)" d="M0 0h1500v1500H0z"/><defs><linearGradient id="prefix__paint0_linear_53_30460" x1="0" y1="0" x2="1500" y2="1500" gradientUnits="userSpaceOnUse">
<stop stop-color="#F1FFBA"/>
<stop offset="1" stop-color="#65DCBA"/>
</linearGradient></defs>
      <g clip-path="url(#clip0_483_418)">
<path d="M773 1011.5C543.4 1029.9 398.667 1353.5 355 1513H1138.5C1075.7 1127 868.667 1017.83 773 1011.5Z" fill="#AABBFF"/>
<path d="M661.5 1284C651.1 1208.4 559.5 1181.83 515 1178C583.5 1088.5 654 1030.5 768.5 1008.5C860.1 990.9 976.333 1131.17 1023 1203.5L1007 1267.5L1011.5 1323.5L1036 1427.5L1054 1508H654V1457C660.833 1430.83 671.9 1359.6 661.5 1284Z" fill="#4AEEB9"/>
<path d="M691 1281C658 1185.5 577 1152.5 538.5 1150.5L517.5 1174L607.5 1204L647.5 1259L674.5 1331.5L657 1443.5L652 1506.5H685C684.752 1490.12 685.132 1463.27 685.975 1439.63C686.843 1415.25 692.482 1391.39 696.842 1367.39C704.309 1326.28 698.07 1301.46 691 1281Z" fill="white"/>
<path d="M982.5 1303C973.3 1248.2 991.333 1198.5 1001.5 1180.5L1024 1199.5L1011.5 1239.5L1015 1315L1041.5 1437.5L1050 1506.5H1024C1012.5 1395 994 1371.5 982.5 1303Z" fill="white"/>
<path d="M834 1189C756.4 1183.4 696 1082 675.5 1032L711 1023.5L721.5 1044.5L774 1117.5L824 1142.5C856.4 1133.7 870.167 1075.83 873 1048C885.333 1054 910.6 1066.5 913 1068.5C915.4 1070.5 902.667 1102 896 1117.5L868 1164.5L834 1189Z" fill="white"/>
<path d="M749.5 1019.5C536 1134 457.448 1414.63 443.159 1511H353.699C350.414 1508.73 357.049 1471.27 409.87 1339.62C462.691 1207.98 569.086 1113.24 605.384 1082.33L674 1033.5L749.5 1019.5Z" fill="#001647" fill-opacity="0.2"/>
<path d="M818.5 1143.5C778.1 1131.9 731.667 1054 713.5 1016.5L795.5 1019.5L872 1043L854 1126.5L818.5 1143.5Z" fill="#AABBFF"/>
<path d="M353.5 1519.5C365.5 1454.33 414.5 1313.6 483.5 1219C530.101 1155.11 577.468 1101.29 629.141 1059.66C710.278 994.299 826.037 996.323 905.02 1064.27C1000.08 1146.05 1103.44 1290.29 1142.5 1519.5M1050.5 1519.5C1048.1 1443.9 1024.83 1354.33 1013.5 1319C999.5 1268 1009.7 1225.3 1020.5 1204.5M653.5 1519.5C650.3 1467.1 661.167 1392.33 667 1361.5C674 1324.5 668 1288.8 642 1250C609.5 1201.5 554.5 1171 517 1179.5" stroke="black" stroke-width="22" stroke-linecap="round"/>
<path d="M716.5 1021C729.247 1059.57 769.06 1137.84 826.825 1144.38C827.577 1144.46 828.321 1144.26 828.913 1143.79C845.329 1130.77 875.856 1093.54 873.5 1042.5" stroke="black" stroke-width="22" stroke-linecap="round"/>
<path d="M682 1039C700.209 1094.08 754.185 1179.21 836.775 1187.88C837.527 1187.96 838.267 1187.76 838.866 1187.3C859.814 1171.19 904.649 1131.93 911.953 1072" stroke="black" stroke-width="22" stroke-linecap="round"/>
<path d="M791.438 1500.84C783.883 1493.52 779.375 1483.22 777.915 1469.93L770.467 1402.1C768.917 1387.88 770.995 1377.11 776.704 1369.79C782.412 1362.47 791.771 1358.95 804.781 1359.23C817.865 1359.52 828.086 1363.46 835.446 1371.06C842.806 1378.66 847.266 1389.57 848.827 1403.79L856.275 1471.62C857.744 1485.01 855.482 1495.2 849.491 1502.18C843.5 1509.16 834.195 1512.5 821.575 1512.21C809.066 1511.94 799.021 1508.15 791.438 1500.84ZM823.509 1481.65C824.689 1479.45 825.135 1476.93 824.78 1474.46L816.644 1400.34C816.167 1396.03 815.313 1392.72 814.096 1390.42C812.879 1388.13 810.76 1386.95 807.777 1386.89C804.795 1386.83 803.007 1387.92 802.301 1390.17C801.596 1392.42 801.533 1395.71 802.01 1400.02L810.145 1474.15C810.394 1476.78 811.353 1479.3 812.917 1481.42C813.534 1482.36 814.362 1483.14 815.334 1483.69C816.306 1484.24 817.393 1484.55 818.507 1484.59C819.538 1484.65 820.563 1484.4 821.458 1483.88C822.353 1483.35 823.079 1482.58 823.548 1481.65L823.509 1481.65Z" fill="white"/>
<path d="M894.056 1507.85C888.625 1505.6 883.819 1502.06 880.051 1497.52C876.289 1492.92 873.98 1487.29 873.421 1481.36L871.643 1465.3L900.181 1465.91L900.507 1468.88C900.843 1472.96 901.75 1476.97 903.202 1480.8C903.687 1482.14 904.578 1483.3 905.752 1484.11C906.925 1484.92 908.321 1485.33 909.741 1485.3C912.979 1485.37 915.153 1484.52 916.282 1482.73C917.411 1480.94 917.779 1478.26 917.379 1474.65L914.049 1444.59C912.906 1447.27 910.895 1449.49 908.343 1450.87C905.29 1452.51 901.849 1453.27 898.397 1453.06C890.316 1452.89 883.877 1451.12 879.08 1447.76C874.282 1444.4 870.677 1439.51 868.264 1433.1C865.825 1426.63 864.026 1418.17 862.867 1407.69C861.09 1391.73 862.733 1379.5 867.796 1371.01C872.86 1362.52 882.304 1358.42 896.127 1358.72C906.276 1358.93 914.489 1360.85 920.766 1364.48C927.079 1368.14 932.056 1373.75 934.967 1380.48C938.169 1387.49 940.386 1396.62 941.618 1407.86L946.098 1448.42C947.812 1463.92 948.236 1476.1 947.371 1484.97C946.506 1493.84 943.395 1500.58 938.039 1505.18C932.672 1509.77 924.045 1511.94 912.157 1511.68C905.936 1511.57 899.792 1510.27 894.056 1507.85ZM910.961 1416.23L908.889 1397.53C908.087 1390.19 905.202 1386.46 900.234 1386.36C897.116 1386.29 895.262 1387.5 894.673 1389.99C894.084 1392.47 894.1 1396.51 894.722 1402.11L896.049 1414.34C896.935 1422.5 899.692 1426.63 904.321 1426.73C909.549 1426.84 911.762 1423.34 910.961 1416.23Z" fill="white"/>
<path d="M903.576 1276.75C902.196 1276.75 901.23 1275.39 901.687 1274.08L909.159 1252.81C909.713 1251.23 911.84 1250.99 912.735 1252.4L935.336 1288.03C935.707 1288.61 936.353 1288.96 937.045 1288.96L946.363 1288.86C947.926 1288.85 948.868 1287.13 948.037 1285.8L908.618 1222.93C907.728 1221.51 905.591 1221.75 905.036 1223.33L882.743 1286.81C882.283 1288.12 883.262 1289.49 884.649 1289.47L925.683 1289.07C927.251 1289.05 928.192 1287.32 927.352 1286L914.651 1265.96C913.756 1264.55 911.626 1264.79 911.074 1266.37L907.908 1275.41C907.628 1276.21 906.872 1276.74 906.023 1276.74L903.576 1276.75Z" fill="white"/>
</g>
<defs>
<clipPath id="clip0_483_418">
<rect width="1500" height="1500" fill="white"/>
</clipPath>
</defs>
      <g clip-path="url(#clip0_497_1194)">
<path d="M379.667 654.812C432.345 471.574 618.472 401.981 699.114 390.653C740.985 382.718 849.655 375.215 949.364 408.675C980 418.956 1049.88 457.388 1091.92 499.818C1144.47 552.856 1272.97 732.052 1185.05 927.725C1097.12 1123.4 758.414 1092.29 612.749 1051.82C464.472 1010.63 314.48 881.563 379.667 654.812Z" fill="#AABBFF"/>
<path d="M449.293 747.204C454.734 531.068 585.306 432.345 649.911 410C432.292 459.565 365.296 655.455 364 747.204C377.99 984.871 584.496 1053.43 681 1058C601.498 1044.46 443.853 963.339 449.293 747.204Z" fill="#001647" fill-opacity="0.2"/>
<path d="M379.667 654.812C432.345 471.574 618.472 401.981 699.114 390.653C740.985 382.718 849.655 375.215 949.364 408.675C980 418.956 1049.88 457.388 1091.92 499.818C1144.47 552.856 1272.97 732.052 1185.05 927.725C1097.12 1123.4 758.414 1092.29 612.749 1051.82C464.472 1010.63 314.48 881.563 379.667 654.812Z" stroke="black" stroke-width="22" stroke-linecap="round"/>
</g>
<defs>
    <clipPath id="prefix__clip0_299_662"><path fill="#fff" d="M0 0h1500v1500H0z"/></clipPath>
</defs>
      <g clip-path="url(#clip0_624_2936)">
<path d="M876.088 925.246H970.501" stroke="black" stroke-width="22" stroke-linecap="round"/>
<path d="M864.633 785.967L846.559 774.78L827.213 762.8L802.666 747.607" stroke="black" stroke-width="22" stroke-linecap="round"/>
<path d="M848.206 782.713C848.206 786.612 847.063 790.425 844.918 793.681C842.773 796.937 839.721 799.492 836.139 801.032C832.557 802.571 828.602 803.027 824.764 802.342C820.925 801.657 817.372 799.862 814.544 797.179C811.715 794.495 809.735 791.042 808.848 787.245C807.962 783.448 808.208 779.475 809.556 775.817C810.904 772.158 813.295 768.976 816.434 766.662C819.572 764.348 823.319 763.006 827.213 762.8L846.546 774.8C847.638 777.295 848.203 779.989 848.206 782.713Z" fill="black" stroke="black" stroke-width="22" stroke-linecap="round"/>
<path d="M1024.63 747.607L1000.09 762.8L980.739 774.78L962.666 785.967" stroke="black" stroke-width="22" stroke-linecap="round"/>
<path d="M979.094 782.713C979.094 786.612 980.237 790.425 982.382 793.681C984.527 796.937 987.579 799.492 991.161 801.032C994.743 802.571 998.698 803.027 1002.54 802.342C1006.37 801.657 1009.93 799.862 1012.76 797.179C1015.59 794.495 1017.57 791.042 1018.45 787.245C1019.34 783.448 1019.09 779.475 1017.74 775.817C1016.4 772.158 1014 768.976 1010.87 766.662C1007.73 764.348 1003.98 763.006 1000.09 762.8L980.754 774.8C979.662 777.295 979.097 779.989 979.094 782.713Z" fill="black" stroke="black" stroke-width="22" stroke-linecap="round"/>
</g>
<defs>
<clipPath id="clip0_624_2936">
<rect width="1500" height="1500" fill="white"/>
</clipPath>
</defs>
      <g clip-path="url(#clip0_884_3075)">
<path opacity="0.5" d="M720 750.438C720 722.417 743.895 701.078 770.199 705.609C796.226 710.091 822.774 710.091 848.801 705.609C875.105 701.078 899 722.417 899 750.438V774.93C899 825.227 860.214 866 812.37 866H806.63C758.786 866 720 825.227 720 774.93V750.438Z" fill="#A5F15C"/>
<path opacity="0.5" d="M937 750.438C937 722.417 960.762 701.078 986.919 705.609C1012.8 710.091 1039.2 710.091 1065.08 705.609C1091.24 701.078 1115 722.417 1115 750.438V774.93C1115 825.227 1076.43 866 1028.85 866H1023.15C975.569 866 937 825.227 937 774.93V750.438Z" fill="#A5F15C"/>
<path d="M555 792C555 797.523 559.477 802 565 802C570.523 802 575 797.523 575 792H555ZM720 747L595 747L595 767L720 767L720 747ZM555 787V792H575V787H555ZM595 747C572.909 747 555 764.909 555 787H575C575 775.955 583.954 767 595 767L595 747Z" fill="black"/>
<path d="M956.85 721.662C956.85 721.662 956.298 703.515 996.284 698.54L1068.96 850.236C1068.96 850.236 1054.94 866.613 1025.72 865.696L956.85 721.662Z" fill="white" fill-opacity="0.3"/>
<path d="M740.63 724.24C740.63 724.24 740.078 706.416 780.064 701.53L852.741 850.523C852.741 850.523 838.725 866.607 809.505 865.706L740.63 724.24Z" fill="white" fill-opacity="0.3"/>
<path d="M1009.77 706.801C1009.77 706.801 1006.07 709.846 1019.83 701.031L1084.46 832.685C1084.46 832.685 1088.66 838.122 1077.47 840.432L1009.77 706.801Z" fill="white" fill-opacity="0.3"/>
<path d="M793.546 709.643C793.546 709.643 789.847 712.634 803.615 703.975L868.238 833.283C868.238 833.283 872.442 838.623 861.249 840.892L793.546 709.643Z" fill="white" fill-opacity="0.3"/>
<path d="M937.905 788.269C944.913 829.009 980.328 860 1022.96 860H1028.68C1076.35 860 1115 821.253 1115 773.455V744.18C1115 717.552 1091.19 699.273 1064.98 701.579C1039.05 702.839 1012.6 702.839 986.664 701.579C962.761 699.652 940.855 714.173 937.184 737.31C936.83 739.543 936.645 741.837 936.645 744.18V773.455C936.645 778.506 937.077 783.455 937.905 788.269ZM937.905 788.269L937.119 787.669C926.202 779.335 910.993 779.583 900.355 788.269V788.269M902 751H933.5M772.018 701.579C797.951 702.839 824.403 702.839 850.336 701.579C876.545 699.273 900.355 717.552 900.355 744.18V773.455C900.355 821.253 861.709 860 814.037 860H808.318C760.646 860 722 821.253 722 773.455V744.18C722 717.552 745.809 699.273 772.018 701.579Z" stroke="black" stroke-width="20" stroke-linecap="round"/>
</g>
<defs>
<clipPath id="clip0_884_3075">
<rect width="1500" height="1500" fill="white"/>
</clipPath>
</defs>
      <g clip-path="url(#clip0_499_1441)">
<path d="M376 874C356 831 352 775 353.5 755V739.5L479.5 706.5L646.5 687.5C701.833 680.167 835.3 652.7 926.5 601.5C1017.7 550.3 1130.83 580.167 1176 601.5C1201.2 643.1 1216.5 705.833 1221 732L1264.5 710L1335.5 644L1341 615.5C1327.83 605.667 1301.1 585.7 1299.5 584.5C1297.9 583.3 1248.5 559.333 1224 547.5L1136.5 495L1089 454C1081.5 442.667 1056.4 397.4 1016 307C975.6 216.6 873.5 214 827.5 224C771.167 234.5 635.3 261.6 542.5 286C449.7 310.4 413.5 348.834 407 365L388 489.5L382 584.5L353.5 649L239.5 806.5C247.5 813 267.6 830.8 284 850C300.4 869.2 352.167 874 376 874Z" fill="#A760FF"/>
<path d="M492 583.5C467.6 608.3 438.167 685.167 426.5 718L354 749.5C349 784 364 854 378 876L355.5 878L295.5 856.5L245.5 818V802L347 665L378 597L393.5 482.5L403.5 368.5L443.5 329.5L522.5 299.5C495 389.5 498.833 497.667 506.5 543L579.5 512.5L749 467.5L947.5 440.5L1019 452.5L1018.54 455.235C1017.4 462.096 1011.09 466.826 1004.17 466.186C831.696 450.262 592.254 528.165 492 583.5Z" fill="#001647" fill-opacity="0.2"/>
<path d="M1220 730C1215 693 1193 634 1177.5 604.5L1220 610L1289.5 616L1345.5 619.5L1331.5 653.5L1294 695.5L1253 717.5L1220 730Z" fill="#001647" fill-opacity="0.2"/>
<path d="M452.772 571.28C563.115 511.305 821.499 413.5 1022.05 447.163M1215.08 734.367C1293.13 704.467 1331.11 656.617 1344.38 628.399C1347.53 621.702 1345.42 613.97 1339.66 609.317C1322.28 595.265 1287.7 571.775 1238.64 550.176C1193.41 530.262 1142.48 497.329 1108.33 473.151C1090.34 460.41 1078.37 441.255 1070.66 420.597C1047.56 358.685 1006.85 298.749 975.149 260.245C960.235 242.133 938.188 231.705 914.759 230.46C705.3 219.332 524.534 286.218 436.125 335.612C415.64 347.058 402.082 367.059 398.853 390.302C391.557 442.833 384.121 531.205 379.99 587.396C379.191 598.258 376.802 608.945 371.678 618.556C346.077 666.577 283.741 747.752 245.106 795.488C238.549 803.591 239.171 815.376 247.135 822.1C280.404 850.188 338.468 887.386 385.999 879.581M240.444 809.859C262.015 792.823 333.043 745.637 420.195 720.843C529.136 689.851 641.153 689.404 727.401 672.098C848.465 647.807 916.79 573.215 1047.32 572.025C1177.85 570.835 1187.03 629.968 1339.22 617.077" stroke="black" stroke-width="22" stroke-linecap="round"/>
<path d="M778.287 318.16C778.395 318.004 778.345 317.799 778.177 317.709L725.393 288.599C725.124 288.453 724.793 288.697 724.88 288.978L731.374 309.937C731.431 310.12 731.303 310.313 731.1 310.351L681.368 319.643C681.167 319.681 681.039 319.872 681.093 320.054L688.072 349.642C688.12 349.802 688.29 349.898 688.466 349.866L738.337 340.547C738.511 340.515 738.681 340.609 738.73 340.767L745.281 361.91C745.362 362.174 745.74 362.218 745.903 361.983L778.287 318.16ZM664.589 380.771C664.414 380.804 664.245 380.709 664.196 380.552L657.645 359.408C657.564 359.145 657.186 359.101 657.023 359.335L625.578 403.182C625.47 403.338 625.52 403.543 625.688 403.633L677.525 432.707C677.795 432.852 678.125 432.608 678.038 432.328L671.572 411.459C671.516 411.276 671.643 411.083 671.846 411.045L721.578 401.753C721.78 401.715 721.907 401.524 721.853 401.342L714.852 371.665C714.804 371.506 714.634 371.409 714.458 371.442L664.589 380.771Z" fill="white"/>
</g>
<defs>
<clipPath id="clip0_499_1441">
<rect width="1500" height="1500" fill="white"/>
</clipPath>
</defs>
      
    </g>
    </svg>