<svg
      xmlns="http://www.w3.org/2000/svg"
      preserveAspectRatio="xMidYMin meet"
      fill="none"
      viewBox="0 0 1500 1500"
    >
      <g>
      <path fill="url(#prefix__paint0_linear_53_28788)" d="M0 0h1500v1500H0z"/><defs><linearGradient id="prefix__paint0_linear_53_28788" x1="0" y1="0" x2="1500" y2="1500" gradientUnits="userSpaceOnUse">
<stop stop-color="#DBE4E4"/>
<stop offset="1" stop-color="#A7BDBD"/>
</linearGradient></defs>
      <g clip-path="url(#clip0_494_770)">
<path d="M773 1011.5C543.4 1029.9 398.667 1353.5 355 1513H1138.5C1075.7 1127 868.667 1017.83 773 1011.5Z" fill="#AABBFF"/>
<path d="M665.5 1302.5C658.3 1195.7 560.833 1178.67 513 1183.5L587.5 1096L665.5 1040L704 1029.5C714 1075.5 753 1164.5 822 1164.5C877.2 1164.5 900.333 1094.5 905 1059.5L1021 1201.5L1016.5 1236V1287L1028.5 1354L1043.5 1423L1047.5 1509.5H650V1503C658.167 1480.67 672.7 1409.3 665.5 1302.5Z" fill="white"/>
<path d="M749.5 1019.5C536 1134 457.448 1414.63 443.159 1511H353.699C350.414 1508.73 357.049 1471.27 409.87 1339.62C462.691 1207.98 569.086 1113.24 605.384 1082.33L674 1033.5L749.5 1019.5Z" fill="#001647" fill-opacity="0.2"/>
<path d="M353.5 1519.5C365.5 1454.33 414.5 1313.6 483.5 1219C530.101 1155.11 577.468 1101.29 629.141 1059.66C710.278 994.299 826.037 996.323 905.02 1064.27C1000.08 1146.05 1103.44 1290.29 1142.5 1519.5M1050.5 1519.5C1048.1 1443.9 1024.83 1354.33 1013.5 1319C999.5 1268 1009.7 1225.3 1020.5 1204.5M653.5 1519.5C650.3 1467.1 661.167 1392.33 667 1361.5C674 1324.5 668 1288.8 642 1250C609.5 1201.5 554.5 1171 517 1179.5M709 1016C709 1064.17 732.1 1164.5 824.5 1164.5C884 1164.5 902.33 1109.22 895.355 1059.5" stroke="black" stroke-width="22" stroke-linecap="round"/>
<path d="M933.223 1272.02L937.932 1261.68L954.916 1287.26L955.318 1292.17L952.556 1258.38C952.5 1257.97 952.361 1257.57 952.148 1257.22C951.935 1256.87 951.653 1256.57 951.324 1256.36L923.078 1239.35C922.758 1239.18 922.407 1239.09 922.052 1239.09C921.696 1239.09 921.346 1239.18 921.025 1239.35C920.943 1239.4 920.864 1239.45 920.789 1239.5L920.701 1239.57L895.946 1256.2L895.849 1256.25C895.719 1256.32 895.596 1256.41 895.482 1256.51C895.254 1256.7 895.065 1256.95 894.928 1257.22C894.79 1257.5 894.707 1257.81 894.683 1258.12C894.677 1258.22 894.677 1258.32 894.683 1258.42L896.932 1285.96L908.934 1262.25C910.433 1259.11 914.167 1258.09 917.712 1258.15L921.877 1258.26L900.858 1301.46L903.892 1303.28L925.062 1258.29L936.011 1258.25L914.997 1304.37L925.824 1310.89L927.117 1311.67C927.647 1311.9 928.235 1311.91 928.773 1311.7L954.632 1294.33L949.695 1297.66L933.223 1272.02ZM938.026 1305.5L926.181 1287.55L931.577 1275.69L947.138 1299.37L938.026 1305.5Z" fill="#2D374B"/>
<path d="M926.181 1287.54L938.026 1305.48L947.138 1299.37L931.573 1275.68L926.181 1287.54Z" fill="#28A0F0"/>
<path d="M955.32 1292.16L954.918 1287.26L937.934 1261.68L933.221 1272.01L949.694 1297.66L954.642 1294.34C954.879 1294.11 955.065 1293.83 955.188 1293.51C955.311 1293.19 955.367 1292.84 955.351 1292.49L955.32 1292.16Z" fill="#28A0F0"/>
<path d="M893.127 1296.79L900.86 1301.46L921.879 1258.26L917.714 1258.14C914.167 1258.09 910.435 1259.1 908.936 1262.24L896.934 1285.96L892.893 1293.86L893.129 1296.8L893.127 1296.79Z" fill="white"/>
<path d="M936.023 1258.26L925.072 1258.3L903.904 1303.29L913.006 1308.77L915.009 1304.38L936.023 1258.26Z" fill="white"/>
<path d="M957.205 1258.19C957.036 1256.92 956.608 1255.7 955.953 1254.63C955.298 1253.57 954.433 1252.67 953.422 1252.02L924.807 1234.8C923.835 1234.27 922.766 1234 921.683 1234C920.599 1234 919.531 1234.27 918.559 1234.8C918.341 1234.93 893.432 1251.68 893.432 1251.68C892.347 1252.27 891.444 1253.21 890.836 1254.36C890.228 1255.52 889.941 1256.85 890.01 1258.18L892.888 1293.86L896.93 1285.95L894.681 1258.42C894.668 1258.06 894.736 1257.69 894.877 1257.36C895.018 1257.03 895.228 1256.73 895.492 1256.51C895.608 1256.41 920.945 1239.41 921.032 1239.36C921.353 1239.19 921.703 1239.11 922.059 1239.11C922.414 1239.11 922.765 1239.19 923.085 1239.36L951.331 1256.37C951.66 1256.59 951.942 1256.88 952.155 1257.23C952.368 1257.58 952.508 1257.98 952.563 1258.4L955.302 1292.5C955.327 1292.84 955.282 1293.18 955.168 1293.5C955.055 1293.83 954.876 1294.11 954.647 1294.35L949.692 1297.66L947.143 1299.38L938.024 1305.51L928.777 1311.71C928.24 1311.92 927.652 1311.91 927.122 1311.68L915.004 1304.38L913.001 1308.77L923.894 1315.34C924.253 1315.55 924.573 1315.74 924.84 1315.9C925.247 1316.13 925.523 1316.3 925.62 1316.35C926.506 1316.76 927.458 1316.97 928.42 1316.97C929.275 1316.98 930.122 1316.8 930.915 1316.45L957.78 1298.41C958.529 1297.71 959.119 1296.83 959.502 1295.83C959.885 1294.84 960.051 1293.75 959.986 1292.68L957.205 1258.19Z" fill="#8BBFDF"/>
</g>
<defs>
<clipPath id="clip0_494_770">
<rect width="1500" height="1500" fill="white"/>
</clipPath>
</defs>
      <g clip-path="url(#clip0_497_1194)">
<path d="M379.667 654.812C432.345 471.574 618.472 401.981 699.114 390.653C740.985 382.718 849.655 375.215 949.364 408.675C980 418.956 1049.88 457.388 1091.92 499.818C1144.47 552.856 1272.97 732.052 1185.05 927.725C1097.12 1123.4 758.414 1092.29 612.749 1051.82C464.472 1010.63 314.48 881.563 379.667 654.812Z" fill="#AABBFF"/>
<path d="M449.293 747.204C454.734 531.068 585.306 432.345 649.911 410C432.292 459.565 365.296 655.455 364 747.204C377.99 984.871 584.496 1053.43 681 1058C601.498 1044.46 443.853 963.339 449.293 747.204Z" fill="#001647" fill-opacity="0.2"/>
<path d="M379.667 654.812C432.345 471.574 618.472 401.981 699.114 390.653C740.985 382.718 849.655 375.215 949.364 408.675C980 418.956 1049.88 457.388 1091.92 499.818C1144.47 552.856 1272.97 732.052 1185.05 927.725C1097.12 1123.4 758.414 1092.29 612.749 1051.82C464.472 1010.63 314.48 881.563 379.667 654.812Z" stroke="black" stroke-width="22" stroke-linecap="round"/>
</g>
<defs>
    <clipPath id="prefix__clip0_299_662"><path fill="#fff" d="M0 0h1500v1500H0z"/></clipPath>
</defs>
      <g clip-path="url(#clip0_624_3293)">
<path d="M916.488 918.577L931.325 908.854C933.985 907.112 936.223 904.799 937.876 902.083C939.529 899.367 940.556 896.317 940.882 893.154C941.208 889.991 940.825 886.795 939.761 883.799C938.697 880.803 936.978 878.082 934.73 875.834V875.834C932.657 873.764 930.181 872.142 927.456 871.068C924.731 869.994 921.814 869.491 918.886 869.59C915.959 869.689 913.083 870.388 910.436 871.643C907.79 872.899 905.429 874.684 903.501 876.889L890.301 891.98" stroke="black" stroke-width="22" stroke-miterlimit="10" stroke-linecap="round"/>
<path d="M916.488 918.675L931.325 928.397C933.986 930.137 936.225 932.449 937.879 935.164C939.533 937.88 940.561 940.93 940.887 944.092C941.213 947.255 940.83 950.451 939.764 953.446C938.699 956.442 936.979 959.162 934.73 961.409V961.409C932.66 963.484 930.185 965.11 927.46 966.188C924.734 967.265 921.817 967.77 918.888 967.672C915.959 967.574 913.081 966.874 910.434 965.617C907.787 964.359 905.427 962.57 903.501 960.362L890.301 945.271" stroke="black" stroke-width="22" stroke-miterlimit="10" stroke-linecap="round"/>
<path d="M1012 817C1038.51 817 1060 795.51 1060 769C1060 742.49 1038.51 721 1012 721C985.49 721 964 742.49 964 769C964 795.51 985.49 817 1012 817Z" fill="black" stroke="black" stroke-width="22" stroke-miterlimit="10"/>
<path d="M1025.18 765.61C1035.8 765.61 1044.4 757.009 1044.4 746.398C1044.4 735.788 1035.8 727.186 1025.18 727.186C1014.57 727.186 1005.97 735.788 1005.97 746.398C1005.97 757.009 1014.57 765.61 1025.18 765.61Z" fill="white"/>
<path d="M994.295 774.185C998.822 774.185 1002.49 770.515 1002.49 765.988C1002.49 761.461 998.822 757.791 994.295 757.791C989.768 757.791 986.098 761.461 986.098 765.988C986.098 770.515 989.768 774.185 994.295 774.185Z" fill="white"/>
<path d="M1018.1 800.697C1026.05 800.697 1032.49 794.254 1032.49 786.307C1032.49 778.359 1026.05 771.917 1018.1 771.917C1010.16 771.917 1003.71 778.359 1003.71 786.307C1003.71 794.254 1010.16 800.697 1018.1 800.697Z" fill="white"/>
<path d="M822 817C848.51 817 870 795.51 870 769C870 742.49 848.51 721 822 721C795.49 721 774 742.49 774 769C774 795.51 795.49 817 822 817Z" fill="black" stroke="black" stroke-width="22" stroke-miterlimit="10"/>
<path d="M835.185 765.61C845.795 765.61 854.397 757.009 854.397 746.398C854.397 735.788 845.795 727.186 835.185 727.186C824.574 727.186 815.973 735.788 815.973 746.398C815.973 757.009 824.574 765.61 835.185 765.61Z" fill="white"/>
<path d="M804.295 774.185C808.822 774.185 812.492 770.515 812.492 765.988C812.492 761.461 808.822 757.791 804.295 757.791C799.768 757.791 796.098 761.461 796.098 765.988C796.098 770.515 799.768 774.185 804.295 774.185Z" fill="white"/>
<path d="M828.103 800.697C836.051 800.697 842.493 794.254 842.493 786.307C842.493 778.359 836.051 771.917 828.103 771.917C820.156 771.917 813.713 778.359 813.713 786.307C813.713 794.254 820.156 800.697 828.103 800.697Z" fill="white"/>
</g>
<defs>
<clipPath id="clip0_624_3293">
<rect width="1500" height="1500" fill="white"/>
</clipPath>
</defs>
      <g clip-path="url(#clip0_911_278)">
<path d="M741 865.42V871.56C741.01 872.669 740.781 873.767 740.33 874.78C739.07 877.64 736.99 877.78 736.99 877.78C735.893 878.033 734.754 878.046 733.651 877.818C732.548 877.59 731.507 877.127 730.6 876.46C727.96 874.35 721.36 856.25 721.36 856.25L708.65 876.46H700L717.8 848.25L712.21 836.66C711.84 835.888 711.265 835.233 710.547 834.767C709.828 834.301 708.996 834.043 708.14 834.02H708C707.225 833.94 706.442 834.054 705.721 834.351C705.001 834.647 704.365 835.118 703.87 835.72C702.98 836.61 702.66 839.5 702.66 839.5L700.88 839.63C700.634 837.881 700.59 836.109 700.75 834.35C700.862 833.001 701.324 831.705 702.09 830.59C702.61 829.783 703.325 829.12 704.169 828.664C705.014 828.208 705.96 827.972 706.92 827.98C708.535 827.979 710.11 828.479 711.43 829.41C712.762 830.35 713.801 831.646 714.43 833.15L719.69 846.2L731.13 828.8H739L723.2 853.31L727.14 862.63C727.14 862.63 730.14 871.63 734.45 871.63C738.76 871.63 739.16 865.41 739.16 865.41L741 865.42Z" fill="black"/>
</g>
<defs>
<clipPath id="clip0_911_278">
<rect width="1500" height="1500" fill="white"/>
</clipPath>
</defs>
      <g clip-path="url(#clip0_1379_1571)">
<path d="M342.258 665.941L358.32 707.415C358.68 708.344 359.67 708.867 360.64 708.64L537.136 667.323L828.203 631.654L1036.98 624.277L1188.55 632.319C1189.56 632.372 1190.45 631.667 1190.62 630.673L1199.65 580.167C1199.71 579.827 1199.68 579.476 1199.56 579.149L1180.09 524.031C1179.88 523.437 1179.95 522.804 1180.29 522.28C1217.27 466.502 1286.64 340.593 1272.44 276.496C1258.31 212.74 1197.52 183.014 1168.01 175.834C1167.43 175.693 1166.97 175.309 1166.67 174.791C1161.62 165.923 1139.96 144.292 1089.03 121.998C1038.73 99.9771 980.139 121.832 953.904 137.21C952.484 138.043 950.536 136.919 950.134 135.323C946.467 120.754 917.303 94.9648 819.98 83.233C714.649 70.5359 649.643 113.807 629.281 138.026C628.736 138.674 627.882 138.905 627.077 138.645C610.365 133.237 565.008 125.702 505.949 135.789C445.773 146.068 410.808 192.418 400.527 214.887C400.349 215.276 400.063 215.584 399.69 215.794L327.884 256.385C327.716 256.479 327.563 256.598 327.429 256.737L284.184 301.563C283.992 301.763 283.843 302 283.748 302.259L261.936 361.343C261.827 361.637 261.65 361.902 261.42 362.116L237.5 384.307C237.267 384.523 237.089 384.791 236.98 385.09L222.824 424.028C222.653 424.497 222.664 425.013 222.855 425.474L243.217 474.832L282.703 544.679C282.795 544.842 282.91 544.992 283.045 545.124L343.133 603.978C343.531 604.367 343.748 604.905 343.733 605.461L342.124 665.165C342.116 665.43 342.162 665.694 342.258 665.941Z" fill="white"/>
<path fill-rule="evenodd" clip-rule="evenodd" d="M1010.54 421.865C1016.57 422.611 1020.85 428.104 1020.1 434.133C1018.83 444.412 1015.39 460.517 1009.1 476.232C1002.93 491.627 993.308 508.489 978.622 518.044C973.5 518.5 966.716 519.915 963.402 514.823C960.089 509.73 961.532 502.916 966.624 499.603C975.56 493.79 983.046 482.103 988.672 468.054C994.168 454.326 997.196 440.095 998.269 431.43C999.015 425.401 1004.51 421.119 1010.54 421.865ZM813.119 424.72C819.1 423.658 824.81 427.647 825.871 433.629C827.596 443.353 829.729 458.864 830.558 474.089C830.973 481.701 831.073 489.442 830.587 496.456C830.116 503.252 829.042 510.296 826.59 515.976C824.183 521.554 817.71 524.124 812.132 521.717C806.554 519.309 803.984 512.836 806.391 507.258C807.354 505.027 808.222 500.953 808.64 494.935C809.042 489.135 808.977 482.367 808.591 475.285C807.82 461.122 805.813 446.511 804.209 437.472C803.148 431.49 807.137 425.781 813.119 424.72ZM1146.5 439.718C1152.11 442.05 1154.76 448.489 1152.43 454.098C1146.73 467.809 1138.33 482.605 1129.05 495.33C1121.71 505.395 1113.28 514.9 1104.64 521.415C1102.57 522.973 1100.49 518.359 1098.41 519.542C1093.13 522.544 1086.41 520.696 1083.41 515.415C1080.41 510.133 1082.26 509.418 1087.54 506.416C1094.23 502.613 1102.77 494.032 1111.28 482.365C1119.6 470.951 1127.12 457.661 1132.12 445.65C1134.45 440.041 1140.89 437.385 1146.5 439.718ZM506.111 487.405C511.616 484.836 518.162 487.216 520.731 492.721C523.594 498.853 530.109 509.541 538.484 518.818C547.235 528.511 555.976 534.392 563.037 535.08C569.083 535.668 573.508 541.047 572.919 547.093C572.331 553.14 566.952 557.565 560.906 556.976C545.217 555.449 531.665 544.095 522.154 533.56C512.268 522.609 504.554 510.076 500.796 502.026C498.226 496.521 500.606 489.975 506.111 487.405Z" fill="#001647" fill-opacity="0.2"/>
<path d="M500.499 563.5C484.899 593.1 484.999 655.833 486.999 683.5L357 712.5L350 687.5L345 612.5L465.5 563.5H500.499Z" fill="#001647" fill-opacity="0.2"/>
<path d="M365.5 338.5C368.33 422.468 460.333 517 500.499 556.5L483 557.5L444 568L352.5 601L318 582.5L262.5 524L238 483L231.5 431.5V393L262.5 370.5L260 338.5L295 286.5L362.5 237L400 205.5C390.667 214.833 362.5 249.5 365.5 338.5Z" fill="#001647" fill-opacity="0.2"/>
<path d="M433 179.5C419.542 191.061 393.481 223.562 390.317 265.473C389.94 270.471 393.421 274.838 398.29 276.03C406.278 277.986 414.057 271.498 415.564 263.412C424.15 217.339 477.709 151.52 566 134.5H498L433 179.5Z" fill="#001647" fill-opacity="0.2"/>
<path d="M841.5 96C734.3 93.6 729.833 176.667 741 218.5C733.667 214.167 718.6 204.3 717 199.5C715.4 194.7 682 168.833 665.5 156.5L633.5 137.5L669 103L764.5 82L841.5 96Z" fill="#001647" fill-opacity="0.2"/>
<path d="M1079.5 128C1021.5 122.8 1016 176.667 1020 205.5L982 164L960.5 140.5L985.5 121L1034.5 109.5L1079.5 128Z" fill="#001647" fill-opacity="0.2"/>
<path d="M1239.5 224.5C1207.9 208.5 1196.33 254.167 1194.5 279L1186 237L1177 181.5L1213 192.5L1239.5 224.5Z" fill="#001647" fill-opacity="0.2"/>
<path d="M1021.19 430.781C1018.84 449.725 1008.25 491.455 984.623 506.824M827.04 433.551C830.369 452.314 835.32 493.796 828.491 509.617M522.764 495.373C529.384 509.557 551.222 541.814 573.971 544.028M381.886 544.594C392.27 555.212 417.877 578.815 433.493 578.436M1154.27 447.874C1143.58 473.595 1122.45 504.046 1104.97 513.979M1160.44 167.939C1219.31 187.532 1295.18 251.1 1271.59 344.998C1246.99 442.896 1202.57 499.528 1182.36 519.157M1184.72 283.135C1193.37 246.855 1190.6 165.451 1110.32 130.074C1030.05 94.6982 973.668 121.555 954.554 137.879M1011.89 200.447C990.917 162.035 916.767 84.9419 787.949 83.87C701.167 83.1479 653.682 111.271 630.399 139.295M732.749 220.432C701.408 177.005 611.17 99.2819 500.946 135.805C415.736 164.039 387.614 223.538 382.208 267.502M391.09 221.725C324.52 241.939 214.806 341.818 286.237 418.971M258.04 370.194C235.617 379.426 202.067 416.702 247.255 491.947C292.444 567.192 332.781 597.29 345.295 603.13M1189.83 633.323C814.192 603.545 480.137 672.056 360.361 708.602C359.489 708.869 358.609 708.492 358.145 707.706C337.973 673.522 341.392 628.392 344.94 609.685C345.068 609.014 345.53 608.479 346.168 608.233C648.597 491.438 1024.14 500.576 1177.28 521.409C1177.94 521.499 1178.48 521.915 1178.76 522.516C1201.24 569.291 1199.19 612.715 1191.82 632.103C1191.51 632.912 1190.7 633.392 1189.83 633.323Z" stroke="black" stroke-width="22" stroke-linecap="round"/>
</g>
<defs>
<clipPath id="clip0_1379_1571">
<rect width="1500" height="1500" fill="white"/>
</clipPath>
</defs>
      
    </g>
    </svg>