<svg
      xmlns="http://www.w3.org/2000/svg"
      preserveAspectRatio="xMidYMin meet"
      fill="none"
      viewBox="0 0 1500 1500"
    >
      <g>
      <path fill="url(#prefix__paint0_linear_53_30462)" d="M0 0h1500v1500H0z"/><defs><linearGradient id="prefix__paint0_linear_53_30462" x1="0" y1="0" x2="1500" y2="1500" gradientUnits="userSpaceOnUse">
<stop stop-color="#FFC4F6"/>
<stop offset="1" stop-color="#FF3DB1"/>
</linearGradient></defs>
      <g clip-path="url(#clip0_481_295)">
<path d="M380.5 1417.5L349.5 1509L1140 1510L1111 1376.5L1038 1230L991.5 1152C965.167 1110.5 892.5 1024.6 812.5 1013C732.5 1001.4 660.167 1039.17 634 1059.5L568.5 1115.5L465 1243.5L380.5 1417.5Z" fill="#265CC2"/>
<path d="M409.87 1339.62C462.691 1207.98 569.086 1113.24 605.384 1082.33L632.5 1058L637.5 1059.48C599.917 1079.63 651 1067.5 648.91 1093.5L659.5 1099.5L764.5 1175C714.1 1177.8 656.5 1131.81 634 1108.47C506.332 1241.92 454.501 1434.51 443.159 1511H353.699C350.414 1508.73 357.049 1471.27 409.87 1339.62Z" fill="#001647" fill-opacity="0.2"/>
<path d="M842 1179L826.5 1505H806L819 1213.5L824 1160.5L871.5 1156.5C874.333 1159.5 879.4 1166.7 877 1171.5C874.6 1176.3 852.667 1178.5 842 1179Z" fill="#001647" fill-opacity="0.2"/>
<path d="M804 1171.5L782.5 1505H798.5L817.5 1158L794 1147.5C788.667 1150.5 779.2 1157.3 784 1160.5C788.8 1163.7 799.333 1169.17 804 1171.5Z" fill="#001647" fill-opacity="0.2"/>
<path d="M887.5 1154.5C899.9 1168.5 916.667 1168.33 921 1167.5L899 1147.5L887.5 1154.5Z" fill="#001647" fill-opacity="0.2"/>
<path d="M550 1130.5L486 1207L466 1181.5L522.5 1113.5L550 1130.5Z" fill="#FFBF44"/>
<path d="M1014.5 1126.5L988.5 1145.5L1034 1215.5L1059.5 1197L1014.5 1126.5Z" fill="#FFBF44"/>
<path d="M821.5 1160L798 1507.5H936L875 1145L902.5 1139.5L842.5 1101L792 1145L821.5 1160Z" fill="#3A3A3A"/>
<path d="M353.5 1519.5C365.5 1454.33 414.5 1313.6 483.5 1219C529.307 1156.2 575.854 1103.13 626.504 1061.8M1142.5 1519.5C1103.44 1290.29 1000.08 1146.05 905.02 1064.27C826.037 996.323 710.273 994.302 629.137 1059.66C628.258 1060.37 627.38 1061.08 626.504 1061.8M1013.5 1319C1024.83 1354.33 1048.1 1443.9 1050.5 1519.5M667 1361.5C661.167 1392.33 650.3 1467.1 653.5 1519.5M926 1087C934.762 1114.34 929.833 1141.11 925.003 1154.27C924.105 1156.72 921.076 1157.36 919.054 1155.71C913.678 1151.34 905.408 1144.87 896 1137.66M793.42 1142.5C783.296 1151.26 773.753 1159.03 766.905 1164.4C766.012 1165.1 764.867 1165.39 763.753 1165.17C707.225 1153.99 651.021 1094.56 626.504 1061.8M793.42 1142.5C809.829 1128.31 827.763 1111.55 838.219 1098.32C839.228 1097.04 841.056 1096.75 842.381 1097.69C856.424 1107.73 878.238 1124.04 896 1137.66M793.42 1142.5C800.317 1146.99 810.966 1152 823.5 1154.93M896 1137.66C888.793 1144.19 881.197 1148.81 873.5 1151.94M823.5 1154.93L802 1508M823.5 1154.93C838.529 1158.44 856.268 1158.95 873.5 1151.94M873.5 1151.94L932.5 1508M490.5 1205L465.114 1181.08C464.759 1180.74 464.686 1180.22 464.956 1179.81C476.299 1162.78 502.545 1125.78 528.398 1111.33C528.762 1111.13 529.209 1111.18 529.524 1111.45L551.5 1130.5M985 1137.5L1007.7 1116.72C1008.13 1116.33 1008.79 1116.37 1009.15 1116.83C1022.41 1133.79 1048.09 1165.95 1060.15 1190.77C1060.36 1191.2 1060.22 1191.71 1059.83 1191.99L1034 1211.5" stroke="black" stroke-width="22" stroke-linecap="round"/>
<path d="M948.828 1225.43C949.312 1222.29 953.697 1221.96 954.654 1224.98L960.57 1243.69C960.99 1245.01 962.271 1245.88 963.66 1245.77L979.699 1244.54C982.357 1244.34 983.941 1247.44 982.216 1249.47L968.853 1265.21C968.185 1266 967.969 1267.08 968.28 1268.06L975.083 1289.57C975.995 1292.45 972.547 1294.72 970.259 1292.74L958.271 1282.36C957.01 1281.27 955.1 1281.42 954.02 1282.69L943.759 1294.78C941.801 1297.08 938.046 1295.37 938.507 1292.38L941.944 1270.08C942.101 1269.06 941.723 1268.03 940.943 1267.36L925.332 1253.84C923.316 1252.1 924.408 1248.79 927.066 1248.58L943.104 1247.35C944.494 1247.25 945.627 1246.2 945.839 1244.82L948.828 1225.43Z" fill="#FFBF44"/>
</g>
<defs>
<clipPath id="clip0_481_295">
<rect width="1500" height="1500" fill="white"/>
</clipPath>
</defs>
      <g clip-path="url(#clip0_497_1194)">
<path d="M379.667 654.812C432.345 471.574 618.472 401.981 699.114 390.653C740.985 382.718 849.655 375.215 949.364 408.675C980 418.956 1049.88 457.388 1091.92 499.818C1144.47 552.856 1272.97 732.052 1185.05 927.725C1097.12 1123.4 758.414 1092.29 612.749 1051.82C464.472 1010.63 314.48 881.563 379.667 654.812Z" fill="#AABBFF"/>
<path d="M449.293 747.204C454.734 531.068 585.306 432.345 649.911 410C432.292 459.565 365.296 655.455 364 747.204C377.99 984.871 584.496 1053.43 681 1058C601.498 1044.46 443.853 963.339 449.293 747.204Z" fill="#001647" fill-opacity="0.2"/>
<path d="M379.667 654.812C432.345 471.574 618.472 401.981 699.114 390.653C740.985 382.718 849.655 375.215 949.364 408.675C980 418.956 1049.88 457.388 1091.92 499.818C1144.47 552.856 1272.97 732.052 1185.05 927.725C1097.12 1123.4 758.414 1092.29 612.749 1051.82C464.472 1010.63 314.48 881.563 379.667 654.812Z" stroke="black" stroke-width="22" stroke-linecap="round"/>
</g>
<defs>
    <clipPath id="prefix__clip0_299_662"><path fill="#fff" d="M0 0h1500v1500H0z"/></clipPath>
</defs>
      <g clip-path="url(#clip0_624_3293)">
<path d="M916.488 918.577L931.325 908.854C933.985 907.112 936.223 904.799 937.876 902.083C939.529 899.367 940.556 896.317 940.882 893.154C941.208 889.991 940.825 886.795 939.761 883.799C938.697 880.803 936.978 878.082 934.73 875.834V875.834C932.657 873.764 930.181 872.142 927.456 871.068C924.731 869.994 921.814 869.491 918.886 869.59C915.959 869.689 913.083 870.388 910.436 871.643C907.79 872.899 905.429 874.684 903.501 876.889L890.301 891.98" stroke="black" stroke-width="22" stroke-miterlimit="10" stroke-linecap="round"/>
<path d="M916.488 918.675L931.325 928.397C933.986 930.137 936.225 932.449 937.879 935.164C939.533 937.88 940.561 940.93 940.887 944.092C941.213 947.255 940.83 950.451 939.764 953.446C938.699 956.442 936.979 959.162 934.73 961.409V961.409C932.66 963.484 930.185 965.11 927.46 966.188C924.734 967.265 921.817 967.77 918.888 967.672C915.959 967.574 913.081 966.874 910.434 965.617C907.787 964.359 905.427 962.57 903.501 960.362L890.301 945.271" stroke="black" stroke-width="22" stroke-miterlimit="10" stroke-linecap="round"/>
<path d="M1012 817C1038.51 817 1060 795.51 1060 769C1060 742.49 1038.51 721 1012 721C985.49 721 964 742.49 964 769C964 795.51 985.49 817 1012 817Z" fill="black" stroke="black" stroke-width="22" stroke-miterlimit="10"/>
<path d="M1025.18 765.61C1035.8 765.61 1044.4 757.009 1044.4 746.398C1044.4 735.788 1035.8 727.186 1025.18 727.186C1014.57 727.186 1005.97 735.788 1005.97 746.398C1005.97 757.009 1014.57 765.61 1025.18 765.61Z" fill="white"/>
<path d="M994.295 774.185C998.822 774.185 1002.49 770.515 1002.49 765.988C1002.49 761.461 998.822 757.791 994.295 757.791C989.768 757.791 986.098 761.461 986.098 765.988C986.098 770.515 989.768 774.185 994.295 774.185Z" fill="white"/>
<path d="M1018.1 800.697C1026.05 800.697 1032.49 794.254 1032.49 786.307C1032.49 778.359 1026.05 771.917 1018.1 771.917C1010.16 771.917 1003.71 778.359 1003.71 786.307C1003.71 794.254 1010.16 800.697 1018.1 800.697Z" fill="white"/>
<path d="M822 817C848.51 817 870 795.51 870 769C870 742.49 848.51 721 822 721C795.49 721 774 742.49 774 769C774 795.51 795.49 817 822 817Z" fill="black" stroke="black" stroke-width="22" stroke-miterlimit="10"/>
<path d="M835.185 765.61C845.795 765.61 854.397 757.009 854.397 746.398C854.397 735.788 845.795 727.186 835.185 727.186C824.574 727.186 815.973 735.788 815.973 746.398C815.973 757.009 824.574 765.61 835.185 765.61Z" fill="white"/>
<path d="M804.295 774.185C808.822 774.185 812.492 770.515 812.492 765.988C812.492 761.461 808.822 757.791 804.295 757.791C799.768 757.791 796.098 761.461 796.098 765.988C796.098 770.515 799.768 774.185 804.295 774.185Z" fill="white"/>
<path d="M828.103 800.697C836.051 800.697 842.493 794.254 842.493 786.307C842.493 778.359 836.051 771.917 828.103 771.917C820.156 771.917 813.713 778.359 813.713 786.307C813.713 794.254 820.156 800.697 828.103 800.697Z" fill="white"/>
</g>
<defs>
<clipPath id="clip0_624_3293">
<rect width="1500" height="1500" fill="white"/>
</clipPath>
</defs>
      <g clip-path="url(#clip0_911_278)">
<path d="M741 865.42V871.56C741.01 872.669 740.781 873.767 740.33 874.78C739.07 877.64 736.99 877.78 736.99 877.78C735.893 878.033 734.754 878.046 733.651 877.818C732.548 877.59 731.507 877.127 730.6 876.46C727.96 874.35 721.36 856.25 721.36 856.25L708.65 876.46H700L717.8 848.25L712.21 836.66C711.84 835.888 711.265 835.233 710.547 834.767C709.828 834.301 708.996 834.043 708.14 834.02H708C707.225 833.94 706.442 834.054 705.721 834.351C705.001 834.647 704.365 835.118 703.87 835.72C702.98 836.61 702.66 839.5 702.66 839.5L700.88 839.63C700.634 837.881 700.59 836.109 700.75 834.35C700.862 833.001 701.324 831.705 702.09 830.59C702.61 829.783 703.325 829.12 704.169 828.664C705.014 828.208 705.96 827.972 706.92 827.98C708.535 827.979 710.11 828.479 711.43 829.41C712.762 830.35 713.801 831.646 714.43 833.15L719.69 846.2L731.13 828.8H739L723.2 853.31L727.14 862.63C727.14 862.63 730.14 871.63 734.45 871.63C738.76 871.63 739.16 865.41 739.16 865.41L741 865.42Z" fill="black"/>
</g>
<defs>
<clipPath id="clip0_911_278">
<rect width="1500" height="1500" fill="white"/>
</clipPath>
</defs>
      <g clip-path="url(#clip0_1319_8010)">
<path d="M159.132 369.43C259.88 316.197 450.027 362.233 522.46 391.084C523.029 391.31 523.626 390.963 523.766 390.367L549 283C570 221.333 617.6 94 720 78C822.4 62 910.667 139.333 932 185L970.181 294.088C970.359 294.597 970.908 294.873 971.422 294.713L1069.92 264.024C1069.97 264.008 1070.03 263.996 1070.08 263.989L1202 245.5H1289.85C1289.95 245.5 1290.05 245.515 1290.14 245.544L1351.76 264.425C1351.92 264.474 1352.06 264.563 1352.18 264.682L1398.37 311.865C1398.46 311.954 1398.53 312.059 1398.57 312.174L1423.41 370.782C1423.47 370.925 1423.49 371.081 1423.48 371.237L1419.01 440.324C1419 440.44 1418.98 440.555 1418.93 440.662L1377.07 535.837C1377.02 535.945 1376.96 536.043 1376.88 536.128L1298.7 617.291C1298.57 617.427 1298.4 617.524 1298.22 617.569L1196.47 642.266C1195.93 642.395 1195.4 642.082 1195.25 641.552C1191.2 626.891 1174.54 596.212 1166.76 581.969C1166.59 581.67 1166.29 581.486 1165.95 581.463L1093.11 576.508C1093.04 576.503 1092.96 576.506 1092.89 576.518L932.5 602C801 630.833 514.4 687.8 420 685C325.76 682.205 238.629 644.296 206.662 625.595C206.55 625.53 206.459 625.447 206.381 625.344L163.087 568.614C163.029 568.538 162.983 568.455 162.949 568.367L139.567 507.674C139.523 507.559 139.5 507.437 139.5 507.314V457V389.414C139.5 389.149 139.605 388.895 139.793 388.707L158.894 369.606C158.964 369.536 159.044 369.477 159.132 369.43Z" fill="#FFBF44"/>
<path d="M1347 406.5L1412 469.5L1426 386.5L1399.5 313.5L1347 266.5L1251 239.5L1097 255.5L931.5 313.5L710 411L513 497.5L384.5 514L288.5 502L174.5 452L136 414.5L144 521L296.5 588L430.5 592.5L604.5 564.5L804 497.5L1101.5 413L1227.5 391L1347 406.5Z" fill="#FF6247"/>
<path d="M341 418.5L471.5 452L484.5 443.5L504 418.5L516.5 389L487.5 377L364 350L227 345.5L145.5 373.5L136 397.5L170 443L186.5 446.5L245.5 418.5H341Z" fill="#FF6247"/>
<path d="M1361.94 416.025L1414.24 361.806C1414.79 361.239 1415.74 361.497 1415.93 362.262L1427.43 409.224C1427.48 409.404 1427.47 409.594 1427.41 409.77L1409.98 463.535C1409.75 464.223 1408.89 464.454 1408.35 463.97L1384.57 442.559C1384.52 442.52 1384.47 442.484 1384.42 442.453L1337.11 413.07C1337.04 413.024 1336.96 412.987 1336.87 412.962L1292.16 399.548C1292.05 399.516 1291.94 399.502 1291.83 399.506L1174 404L1132.08 406.495C1132.03 406.498 1131.97 406.506 1131.92 406.517L1027 429.5L829.5 495L617.5 563L453.599 596.48C453.533 596.493 453.466 596.5 453.399 596.5H324.147C324.05 596.5 323.953 596.486 323.859 596.458L212.635 563.041C212.546 563.014 212.46 562.974 212.381 562.923L146.746 520.625C146.041 520.171 146.174 519.104 146.968 518.837L234.668 489.281C235.144 489.12 235.665 489.338 235.886 489.789L277.436 574.845C277.722 575.431 278.483 575.591 278.981 575.17L352.243 513.141C352.662 512.786 353.289 512.836 353.647 513.252L419.728 590.103C420.132 590.572 420.861 590.566 421.256 590.09L493.441 503.173C493.761 502.788 494.317 502.699 494.741 502.965L589.534 562.394C590.046 562.715 590.723 562.512 590.974 561.963L643.534 447.018C643.783 446.476 644.448 446.27 644.959 446.577L753.514 511.906C754.035 512.22 754.712 512 754.95 511.441L816.044 367.575C816.284 367.01 816.971 366.792 817.492 367.116L943.558 445.415C944.062 445.728 944.726 445.536 944.985 445.002L1020.45 289.635C1020.73 289.055 1021.48 288.889 1021.98 289.296L1159.15 400.808C1159.61 401.179 1160.28 401.078 1160.61 400.589L1264.59 245.363C1265 244.741 1265.93 244.781 1266.29 245.437L1360.35 415.814C1360.67 416.403 1361.47 416.509 1361.94 416.025Z" fill="#87C848"/>
<path d="M409.082 359.8L472.844 447.412C473.325 448.072 472.853 449 472.035 449H460.646C460.549 449 460.453 448.986 460.36 448.958L395.099 429.53C395.033 429.51 394.965 429.497 394.897 429.491L311 422.5H238.733C238.58 422.5 238.429 422.535 238.291 422.603L207 438L179.137 451.198C178.755 451.379 178.301 451.301 178.002 451.002L145.225 418.225C145.079 418.079 144.981 417.89 144.947 417.686L140.83 393.443C140.693 392.636 141.531 392.015 142.263 392.382L211.601 427.051C212.097 427.298 212.7 427.096 212.945 426.599L252.442 346.629C252.727 346.052 253.476 345.891 253.973 346.299L333.409 411.515C333.758 411.801 334.255 411.818 334.623 411.557L407.694 359.573C408.141 359.256 408.76 359.357 409.082 359.8Z" fill="#87C848"/>
<path d="M468.5 445L410.073 357.359C409.759 356.889 409.119 356.771 408.66 357.099L331.651 412.036C331.27 412.307 330.752 412.279 330.404 411.968L257.38 346.785C256.919 346.374 256.199 346.474 255.869 346.996L205.993 425.722C205.714 426.162 205.145 426.314 204.684 426.073L141.5 393M151.5 515L235.128 487.289C235.621 487.126 236.157 487.367 236.362 487.844L274.483 576.794C274.743 577.401 275.51 577.594 276.026 577.182L353.227 515.617C353.655 515.275 354.279 515.342 354.625 515.767L417.244 592.573C417.638 593.056 418.373 593.065 418.778 592.592L495.425 503.171C495.753 502.788 496.316 502.71 496.737 502.988L588.527 563.855C589.038 564.194 589.732 563.997 589.988 563.44L644.023 446.036C644.276 445.487 644.954 445.286 645.465 445.608L754.515 514.379C755.033 514.705 755.72 514.494 755.965 513.932L819.031 369.077C819.277 368.512 819.97 368.302 820.488 368.635L941.551 446.391C942.056 446.715 942.73 446.525 942.992 445.985L1019.94 287.155C1020.22 286.569 1020.98 286.406 1021.48 286.825L1156.66 400.294C1157.11 400.673 1157.79 400.582 1158.12 400.098L1264.6 246.296C1265.02 245.693 1265.92 245.73 1266.29 246.364L1361.82 411.333C1362.16 411.914 1362.96 412.005 1363.42 411.515L1412.5 359" stroke="white" stroke-width="18"/>
<path d="M970.5 298.5C943.5 204 896 77.5 747 77.5C701 77.5 618 95.5 573.5 237C529 378.5 506.5 447 464.5 473M1186 584C1151.5 574.5 1032.1 569.2 830.5 624C578.5 692.5 183 750.5 144 514.5C139.833 482.833 133.5 421 140 393.5M515.5 387C498.333 378.333 428.5 352.4 338.5 342C272.106 334.328 208.705 350.13 168.773 364.835C147.522 372.661 132.138 393.278 142.233 413.549C155.986 441.165 192.731 475.314 275.5 499C318 512.833 433.5 528.2 555.5 479C708 417.5 1093.5 199.5 1305.5 249C1416.64 274.95 1443.13 378.813 1409.25 474M1186 647C1298.04 639.626 1378.51 560.385 1409.25 474M478 451.5C406.5 425.667 241.8 387.5 183 449.5M147 514.5C178.5 552 292.5 619.3 496.5 588.5C751.5 550 1287.51 252 1409.25 474" stroke="black" stroke-width="22" stroke-linecap="round"/>
<path d="M514.5 587C497.3 609.8 484.667 661.167 480.5 684L334.5 675L247 651.5L190.5 610.5L168 568.5L142 502.5V419L168 450.5C172.167 454 201.3 468.4 284.5 498C367.7 527.6 447 520.833 498.5 504C495.5 534.5 501 558.5 514.5 587Z" fill="#001647" fill-opacity="0.2"/>
<path d="M455 498.5L385.5 506L346.5 504L266 488.5L209 467.5L188 451L221 429L296 415L389 429L470 444L475.25 449.5L504 434.5L577 230.5L614 139.5L676.5 95L725 87C687.5 114.833 631.5 150.5 604.5 274C586.763 355.131 568.5 426.718 554.5 451.327C559.875 449.097 565.232 446.66 570.5 444C622 418 801 332 959 274L966 305L859 343.5L705 411L554.5 476L455 498.5Z" fill="#001647" fill-opacity="0.2"/>
</g>
<defs>
<clipPath id="clip0_1319_8010">
<rect width="1500" height="1500" fill="white"/>
</clipPath>
</defs>
      
    </g>
    </svg>