<svg
      xmlns="http://www.w3.org/2000/svg"
      preserveAspectRatio="xMidYMin meet"
      fill="none"
      viewBox="0 0 1500 1500"
    >
      <g>
      <path fill="url(#prefix__paint0_linear_53_30462)" d="M0 0h1500v1500H0z"/><defs><linearGradient id="prefix__paint0_linear_53_30462" x1="0" y1="0" x2="1500" y2="1500" gradientUnits="userSpaceOnUse">
<stop stop-color="#FFC4F6"/>
<stop offset="1" stop-color="#FF3DB1"/>
</linearGradient></defs>
      <g clip-path="url(#clip0_481_295)">
<path d="M380.5 1417.5L349.5 1509L1140 1510L1111 1376.5L1038 1230L991.5 1152C965.167 1110.5 892.5 1024.6 812.5 1013C732.5 1001.4 660.167 1039.17 634 1059.5L568.5 1115.5L465 1243.5L380.5 1417.5Z" fill="#265CC2"/>
<path d="M409.87 1339.62C462.691 1207.98 569.086 1113.24 605.384 1082.33L632.5 1058L637.5 1059.48C599.917 1079.63 651 1067.5 648.91 1093.5L659.5 1099.5L764.5 1175C714.1 1177.8 656.5 1131.81 634 1108.47C506.332 1241.92 454.501 1434.51 443.159 1511H353.699C350.414 1508.73 357.049 1471.27 409.87 1339.62Z" fill="#001647" fill-opacity="0.2"/>
<path d="M842 1179L826.5 1505H806L819 1213.5L824 1160.5L871.5 1156.5C874.333 1159.5 879.4 1166.7 877 1171.5C874.6 1176.3 852.667 1178.5 842 1179Z" fill="#001647" fill-opacity="0.2"/>
<path d="M804 1171.5L782.5 1505H798.5L817.5 1158L794 1147.5C788.667 1150.5 779.2 1157.3 784 1160.5C788.8 1163.7 799.333 1169.17 804 1171.5Z" fill="#001647" fill-opacity="0.2"/>
<path d="M887.5 1154.5C899.9 1168.5 916.667 1168.33 921 1167.5L899 1147.5L887.5 1154.5Z" fill="#001647" fill-opacity="0.2"/>
<path d="M550 1130.5L486 1207L466 1181.5L522.5 1113.5L550 1130.5Z" fill="#FFBF44"/>
<path d="M1014.5 1126.5L988.5 1145.5L1034 1215.5L1059.5 1197L1014.5 1126.5Z" fill="#FFBF44"/>
<path d="M821.5 1160L798 1507.5H936L875 1145L902.5 1139.5L842.5 1101L792 1145L821.5 1160Z" fill="#3A3A3A"/>
<path d="M353.5 1519.5C365.5 1454.33 414.5 1313.6 483.5 1219C529.307 1156.2 575.854 1103.13 626.504 1061.8M1142.5 1519.5C1103.44 1290.29 1000.08 1146.05 905.02 1064.27C826.037 996.323 710.273 994.302 629.137 1059.66C628.258 1060.37 627.38 1061.08 626.504 1061.8M1013.5 1319C1024.83 1354.33 1048.1 1443.9 1050.5 1519.5M667 1361.5C661.167 1392.33 650.3 1467.1 653.5 1519.5M926 1087C934.762 1114.34 929.833 1141.11 925.003 1154.27C924.105 1156.72 921.076 1157.36 919.054 1155.71C913.678 1151.34 905.408 1144.87 896 1137.66M793.42 1142.5C783.296 1151.26 773.753 1159.03 766.905 1164.4C766.012 1165.1 764.867 1165.39 763.753 1165.17C707.225 1153.99 651.021 1094.56 626.504 1061.8M793.42 1142.5C809.829 1128.31 827.763 1111.55 838.219 1098.32C839.228 1097.04 841.056 1096.75 842.381 1097.69C856.424 1107.73 878.238 1124.04 896 1137.66M793.42 1142.5C800.317 1146.99 810.966 1152 823.5 1154.93M896 1137.66C888.793 1144.19 881.197 1148.81 873.5 1151.94M823.5 1154.93L802 1508M823.5 1154.93C838.529 1158.44 856.268 1158.95 873.5 1151.94M873.5 1151.94L932.5 1508M490.5 1205L465.114 1181.08C464.759 1180.74 464.686 1180.22 464.956 1179.81C476.299 1162.78 502.545 1125.78 528.398 1111.33C528.762 1111.13 529.209 1111.18 529.524 1111.45L551.5 1130.5M985 1137.5L1007.7 1116.72C1008.13 1116.33 1008.79 1116.37 1009.15 1116.83C1022.41 1133.79 1048.09 1165.95 1060.15 1190.77C1060.36 1191.2 1060.22 1191.71 1059.83 1191.99L1034 1211.5" stroke="black" stroke-width="22" stroke-linecap="round"/>
<path d="M948.828 1225.43C949.312 1222.29 953.697 1221.96 954.654 1224.98L960.57 1243.69C960.99 1245.01 962.271 1245.88 963.66 1245.77L979.699 1244.54C982.357 1244.34 983.941 1247.44 982.216 1249.47L968.853 1265.21C968.185 1266 967.969 1267.08 968.28 1268.06L975.083 1289.57C975.995 1292.45 972.547 1294.72 970.259 1292.74L958.271 1282.36C957.01 1281.27 955.1 1281.42 954.02 1282.69L943.759 1294.78C941.801 1297.08 938.046 1295.37 938.507 1292.38L941.944 1270.08C942.101 1269.06 941.723 1268.03 940.943 1267.36L925.332 1253.84C923.316 1252.1 924.408 1248.79 927.066 1248.58L943.104 1247.35C944.494 1247.25 945.627 1246.2 945.839 1244.82L948.828 1225.43Z" fill="#FFBF44"/>
</g>
<defs>
<clipPath id="clip0_481_295">
<rect width="1500" height="1500" fill="white"/>
</clipPath>
</defs>
      <g clip-path="url(#clip0_497_1194)">
<path d="M379.667 654.812C432.345 471.574 618.472 401.981 699.114 390.653C740.985 382.718 849.655 375.215 949.364 408.675C980 418.956 1049.88 457.388 1091.92 499.818C1144.47 552.856 1272.97 732.052 1185.05 927.725C1097.12 1123.4 758.414 1092.29 612.749 1051.82C464.472 1010.63 314.48 881.563 379.667 654.812Z" fill="#AABBFF"/>
<path d="M449.293 747.204C454.734 531.068 585.306 432.345 649.911 410C432.292 459.565 365.296 655.455 364 747.204C377.99 984.871 584.496 1053.43 681 1058C601.498 1044.46 443.853 963.339 449.293 747.204Z" fill="#001647" fill-opacity="0.2"/>
<path d="M379.667 654.812C432.345 471.574 618.472 401.981 699.114 390.653C740.985 382.718 849.655 375.215 949.364 408.675C980 418.956 1049.88 457.388 1091.92 499.818C1144.47 552.856 1272.97 732.052 1185.05 927.725C1097.12 1123.4 758.414 1092.29 612.749 1051.82C464.472 1010.63 314.48 881.563 379.667 654.812Z" stroke="black" stroke-width="22" stroke-linecap="round"/>
</g>
<defs>
    <clipPath id="prefix__clip0_299_662"><path fill="#fff" d="M0 0h1500v1500H0z"/></clipPath>
</defs>
      <g clip-path="url(#clip0_624_3413)">
<path d="M922.5 969C931.895 969 941.078 966.214 948.89 960.995C956.701 955.775 962.789 948.357 966.384 939.677C969.979 930.998 970.92 921.447 969.087 912.233C967.254 903.019 962.731 894.555 956.088 887.912C949.445 881.269 940.981 876.746 931.767 874.913C922.553 873.08 913.002 874.021 904.323 877.616C895.643 881.211 888.225 887.299 883.005 895.11C877.786 902.922 875 912.105 875 921.5C875 927.738 876.229 933.914 878.616 939.677C881.003 945.44 884.502 950.677 888.912 955.088C893.323 959.498 898.56 962.997 904.323 965.384C910.085 967.771 916.262 969 922.5 969Z" fill="white" stroke="black" stroke-width="22" stroke-miterlimit="10" stroke-linecap="round"/>
<path d="M822 818C849.062 818 871 796.062 871 769C871 741.938 849.062 720 822 720C794.938 720 773 741.938 773 769C773 796.062 794.938 818 822 818Z" fill="white" stroke="black" stroke-width="20" stroke-miterlimit="10"/>
<path d="M1012 818C1039.06 818 1061 796.062 1061 769C1061 741.938 1039.06 720 1012 720C984.938 720 963 741.938 963 769C963 796.062 984.938 818 1012 818Z" fill="white" stroke="black" stroke-width="20" stroke-miterlimit="10"/>
<path d="M822 782C829.18 782 835 776.18 835 769C835 761.82 829.18 756 822 756C814.82 756 809 761.82 809 769C809 776.18 814.82 782 822 782Z" fill="black"/>
<path d="M1012 782C1019.18 782 1025 776.18 1025 769C1025 761.82 1019.18 756 1012 756C1004.82 756 999 761.82 999 769C999 776.18 1004.82 782 1012 782Z" fill="black"/>
</g>
<defs>
<clipPath id="clip0_624_3413">
<rect width="1500" height="1500" fill="white"/>
</clipPath>
</defs>
      <g clip-path="url(#clip0_877_2891)">
<path opacity="0.5" d="M720 750.438C720 722.417 743.895 701.078 770.199 705.609C796.226 710.091 822.774 710.091 848.801 705.609C875.105 701.078 899 722.417 899 750.438V774.93C899 825.227 860.214 866 812.37 866H806.63C758.786 866 720 825.227 720 774.93V750.438Z" fill="#FF6247"/>
<path opacity="0.5" d="M937 750.438C937 722.417 960.762 701.078 986.919 705.609C1012.8 710.091 1039.2 710.091 1065.08 705.609C1091.24 701.078 1115 722.417 1115 750.438V774.93C1115 825.227 1076.43 866 1028.85 866H1023.15C975.569 866 937 825.227 937 774.93V750.438Z" fill="#FF6247"/>
<path d="M555 792C555 797.523 559.477 802 565 802C570.523 802 575 797.523 575 792H555ZM720 747L595 747L595 767L720 767L720 747ZM555 787V792H575V787H555ZM595 747C572.909 747 555 764.909 555 787H575C575 775.955 583.954 767 595 767L595 747Z" fill="black"/>
<path d="M956.85 721.662C956.85 721.662 956.298 703.515 996.284 698.54L1068.96 850.236C1068.96 850.236 1054.94 866.613 1025.72 865.696L956.85 721.662Z" fill="white" fill-opacity="0.3"/>
<path d="M740.63 724.24C740.63 724.24 740.078 706.416 780.064 701.53L852.741 850.523C852.741 850.523 838.725 866.607 809.505 865.706L740.63 724.24Z" fill="white" fill-opacity="0.3"/>
<path d="M1009.77 706.801C1009.77 706.801 1006.07 709.846 1019.83 701.031L1084.46 832.685C1084.46 832.685 1088.66 838.122 1077.47 840.432L1009.77 706.801Z" fill="white" fill-opacity="0.3"/>
<path d="M793.546 709.643C793.546 709.643 789.847 712.634 803.615 703.975L868.238 833.283C868.238 833.283 872.442 838.623 861.249 840.892L793.546 709.643Z" fill="white" fill-opacity="0.3"/>
<path d="M937.905 788.269C944.913 829.009 980.328 860 1022.96 860H1028.68C1076.35 860 1115 821.253 1115 773.455V744.18C1115 717.552 1091.19 699.273 1064.98 701.579C1039.05 702.839 1012.6 702.839 986.664 701.579C962.761 699.652 940.855 714.173 937.184 737.31C936.83 739.543 936.645 741.837 936.645 744.18V773.455C936.645 778.506 937.077 783.455 937.905 788.269ZM937.905 788.269L937.119 787.669C926.202 779.335 910.993 779.583 900.355 788.269V788.269M902 751H933.5M772.018 701.579C797.951 702.839 824.403 702.839 850.336 701.579C876.545 699.273 900.355 717.552 900.355 744.18V773.455C900.355 821.253 861.709 860 814.037 860H808.318C760.646 860 722 821.253 722 773.455V744.18C722 717.552 745.809 699.273 772.018 701.579Z" stroke="black" stroke-width="20" stroke-linecap="round"/>
</g>
<defs>
<clipPath id="clip0_877_2891">
<rect width="1500" height="1500" fill="white"/>
</clipPath>
</defs>
      <g clip-path="url(#clip0_771_459)">
<path d="M541.871 495.065L587.182 433.652L629.473 408.913L646.704 407.796L676.33 472.397L693.385 523.112C693.385 523.112 715.562 570.5 681.005 575.31C646.449 580.119 608.181 572.626 608.181 572.626L565.711 562.432L513.348 577.749C513.348 577.749 476.548 643.595 440.109 658.042C403.671 672.488 405.928 656.924 405.928 656.924L371.793 591.795L355.943 518.828C355.943 518.828 344.954 493.682 397.049 493.786C449.144 493.891 487.355 512.484 487.355 512.484L541.871 495.065Z" fill="#F56CDB"/>
<path d="M430.677 533.465C430.359 517.2 437.959 506.756 441.799 503.567L436.237 497.189L386.586 496.392L356 503.567L365.533 553.795L398.105 643.886L418.76 669L476.356 630.333L513.297 580.105L500.189 545.424L460.467 560.173C460.467 566.817 458.322 579.228 449.743 575.72C439.018 571.335 431.074 553.795 430.677 533.465Z" fill="#001647" fill-opacity="0.2"/>
<path d="M540.307 564.957C516.475 543.59 516.607 516.191 519.652 505.162L494.231 510.344L513.297 572.929L540.307 564.957Z" fill="#001647" fill-opacity="0.2"/>
<path d="M623.325 520.708C629.363 504.125 617.632 495.993 611.012 494C605.848 500.378 595.441 513.294 595.123 513.932C594.805 514.569 573.806 524.296 563.346 529.08C563.214 535.059 564.22 547.178 569.304 547.815C575.66 548.613 615.778 541.437 623.325 520.708Z" fill="#001647" fill-opacity="0.2"/>
<path d="M544.174 494.298L490.359 513.598L513.366 577.748L567.181 558.448L544.174 494.298Z" stroke="black" stroke-width="22" stroke-miterlimit="10"/>
<path d="M567.212 557.978C567.212 557.978 631.445 590.594 691.537 572.212C694.695 571.234 697.408 569.182 699.202 566.414C700.996 563.646 701.758 560.337 701.353 557.066C694.958 504.637 676.725 454.333 648.025 409.934L647.939 409.808C646.161 407.043 643.468 404.985 640.326 403.993C637.185 403.002 633.794 403.138 630.743 404.378C572.608 428.212 543.822 494.106 543.822 494.106" stroke="black" stroke-width="22" stroke-miterlimit="10"/>
<path d="M490.33 513.988C490.33 513.988 426.095 481.367 365.986 499.752C362.829 500.728 360.115 502.779 358.321 505.546C356.526 508.314 355.764 511.622 356.168 514.892V514.892C362.559 567.323 380.786 617.629 409.481 662.033L409.567 662.166C411.347 664.929 414.042 666.984 417.184 667.973C420.326 668.962 423.716 668.823 426.766 667.581C484.91 643.751 513.7 577.847 513.7 577.847" stroke="black" stroke-width="22" stroke-miterlimit="10"/>
<path d="M555.844 526.597C555.844 526.597 592.013 530.268 604.537 494.857" stroke="black" stroke-width="22" stroke-miterlimit="10" stroke-linecap="round"/>
<path d="M501.683 546.407C501.683 546.407 460.223 543.612 454.093 578.202" stroke="black" stroke-width="22" stroke-miterlimit="10" stroke-linecap="round"/>
<path d="M711.94 381.541L669.138 415.004L754.914 456.956C786.09 456.451 856.04 454.579 886.429 451.127C916.817 447.675 946.703 430.594 957.848 422.485L912.882 387.272L890.772 360.146L852.07 352.844L816.711 388.83L811.119 369.892L779.2 357.196L748.101 362.456L711.94 381.541Z" fill="#AABBFF"/>
<path d="M754.823 451.145C758.386 440.393 766.661 423.631 780.081 411.559M882.17 449.083C878.062 439.675 870.922 425.659 859.411 414.501M670.743 416.037C678.291 403.405 696.028 378.1 722.448 377.672C724.832 377.634 727.122 377.712 729.323 377.895M780.081 411.559C789.433 403.145 801.285 397.009 815.783 396.774C818.147 396.736 820.438 396.825 822.658 397.03M780.081 411.559C771.884 400.903 758.35 380.305 729.323 377.895M953.095 422.563C946.826 410.677 929.573 387.795 908.089 385.052M859.411 414.501C864.186 404.755 879.655 385.169 903.328 384.785C904.936 384.759 906.524 384.852 908.089 385.052M859.411 414.501C850.192 405.565 838.17 398.463 822.658 397.03M729.323 377.895C734.108 368.72 747.587 350.309 768.512 349.97C795.461 349.534 817.557 375.809 822.658 397.03M908.089 385.052C903.334 374.267 889.367 351.713 871.612 352C849.419 352.36 832.274 370.674 822.592 392.964" stroke="black" stroke-width="22" stroke-linecap="round"/>
</g>
<defs>
<clipPath id="clip0_771_459">
<rect width="1500" height="1500" fill="white"/>
</clipPath>
</defs>
      
    </g>
    </svg>