<svg
      xmlns="http://www.w3.org/2000/svg"
      preserveAspectRatio="xMidYMin meet"
      fill="none"
      viewBox="0 0 1500 1500"
    >
      <g>
      <path fill="url(#prefix__paint0_linear_53_30460)" d="M0 0h1500v1500H0z"/><defs><linearGradient id="prefix__paint0_linear_53_30460" x1="0" y1="0" x2="1500" y2="1500" gradientUnits="userSpaceOnUse">
<stop stop-color="#F1FFBA"/>
<stop offset="1" stop-color="#65DCBA"/>
</linearGradient></defs>
      <g clip-path="url(#prefix__clip0_53_27868)"><path d="M295.8 1500s-47.94-91.54 28.64-134.76c0 0-62-101.54 67.13-159.88 0 0-37.4-104.09 81.15-137.65 0 0 144.28-18.07 334.85-18.07 0 0 171.93-9.14 272.93 4.86 0 0 48.6 26.91 76.51 133.04 0 0 102.26 45.87 83.4 145.87 0 0 95.08 77.12 34 166.56l-978.61.03z" fill="url(#prefix__paint0_linear_53_27868)"/><path d="M413.5 1436.5c-54 14.8-41.833 56.83-29 76H309c-8.833-12.83-26.5-48.1-26.5-86.5s29.667-63.33 44.5-71l-18-50c3.833-14.67 16.4-49.7 36-72.5 18.829-21.9 42.242-22.8 52.773-20.32-4.833-2.49-11.288-20.19-5.773-77.18 6-62 116.5-77.5 171-77.5l241.5-11 7 36c-17.167-2.17-61.1-4.2-99.5 5-48 11.5-80.5 77.5-76 125s48.5 68 69 76c16.4 6.4 11.5 13.67 7 16.5-49.667-3.83-159.1-14.1-199.5-24.5-50.5-13-74.5 13.5-92 47s3 79 17.5 92c11.6 10.4 7.5 15.67 4 17h-28.5zM678.5 1465.5c-20-4.8-18.667-17-15.5-22.5l169.5 1.5 157-10.5c19 28-73 38.5-157 41s-129-3.5-154-9.5zM913 1321.5c-15.2-3.6-15-12.83-13-17l49-6.5c2.333-3.33 20.5-12.3 74.5-21.5s109.83-61.5 131-86.5l25.5 11.5c-14.33 17-57.5 58.1-115.5 86.5-72.5 35.5-132.5 38-151.5 33.5zM1179.5 1422.5c-23.2 0-24-9.67-21.5-14.5 37.6-11.6 66.67-41.83 76.5-55.5 8.5-9.83 24.8-22.5 22 5.5-3.5 35-48 64.5-77 64.5z" fill="#001647" fill-opacity=".2"/><path d="M1084.5 1337c12.33 37 29.5 110.3 43.5 175.5m-646.5 0c.333-32.83 7.7-107.6 20.5-157M301.5 1508.5c-25.5-42-37.6-117.3 23-149.5m0 0c-22-46-25-128.1 67-152.5m-67 152.5c11.333 20.83 47.5 64.6 110.5 79m-43.5-231.5c-10.5-36.17-17.4-111.6 71-136 53.112-14.66 199.972-21.87 344-24.82m-415 160.82c38.167 32.17 156.3 99.1 315.5 97.5m450-116c-10.37-60.53-39.49-100.92-65.94-123.9-17.73-15.41-41.66-19.79-65.15-19.96-61.49-.42-140.02-.09-219.41 1.54M1157 1188c35.17 12.5 94.3 55.9 83.5 145.5M1157 1188c-97.6 94-206 116.5-248 116m331.5 29.5c35.83 26.17 81.7 104.2 28.5 180m-28.5-180c-4.8 43.2-51.67 65.33-74.5 71m-330.5 109l-29-467.82M672 1444c61.333 6.17 208.7 12.7 307.5-10.5" stroke="#000" stroke-width="20" stroke-linecap="round"/></g><defs><linearGradient id="prefix__paint0_linear_53_27868" x1="461" y1="1064" x2="1157" y2="1546" gradientUnits="userSpaceOnUse"><stop stop-color="#FFEB37"/><stop offset=".522" stop-color="#FF60ED"/><stop offset="1" stop-color="#33E5FF"/></linearGradient><clipPath id="prefix__clip0_53_27868"><path fill="#fff" d="M0 0h1500v1500H0z"/></clipPath></defs>
      <g clip-path="url(#clip0_497_1194)">
<path d="M379.667 654.812C432.345 471.574 618.472 401.981 699.114 390.653C740.985 382.718 849.655 375.215 949.364 408.675C980 418.956 1049.88 457.388 1091.92 499.818C1144.47 552.856 1272.97 732.052 1185.05 927.725C1097.12 1123.4 758.414 1092.29 612.749 1051.82C464.472 1010.63 314.48 881.563 379.667 654.812Z" fill="#AABBFF"/>
<path d="M449.293 747.204C454.734 531.068 585.306 432.345 649.911 410C432.292 459.565 365.296 655.455 364 747.204C377.99 984.871 584.496 1053.43 681 1058C601.498 1044.46 443.853 963.339 449.293 747.204Z" fill="#001647" fill-opacity="0.2"/>
<path d="M379.667 654.812C432.345 471.574 618.472 401.981 699.114 390.653C740.985 382.718 849.655 375.215 949.364 408.675C980 418.956 1049.88 457.388 1091.92 499.818C1144.47 552.856 1272.97 732.052 1185.05 927.725C1097.12 1123.4 758.414 1092.29 612.749 1051.82C464.472 1010.63 314.48 881.563 379.667 654.812Z" stroke="black" stroke-width="22" stroke-linecap="round"/>
</g>
<defs>
    <clipPath id="prefix__clip0_299_662"><path fill="#fff" d="M0 0h1500v1500H0z"/></clipPath>
</defs>
      <g clip-path="url(#clip0_624_3473)">
<path d="M1010.33 800C1015.74 800 1021.02 798.397 1025.52 795.394C1030.01 792.39 1033.52 788.121 1035.59 783.127C1037.65 778.132 1038.2 772.637 1037.14 767.334C1036.09 762.032 1033.48 757.162 1029.66 753.339C1025.84 749.517 1020.97 746.913 1015.67 745.859C1010.36 744.804 1004.87 745.345 999.873 747.414C994.879 749.483 990.61 752.986 987.606 757.481C984.603 761.976 983 767.261 983 772.667C983 779.916 985.88 786.868 991.006 791.994C996.132 797.12 1003.08 800 1010.33 800Z" fill="black"/>
<path d="M799.421 789.214L858.141 778.547C859.189 778.352 860.151 777.837 860.895 777.073C861.639 776.309 862.128 775.334 862.294 774.28C862.455 773.224 862.285 772.143 861.808 771.187C861.331 770.234 860.569 769.453 859.628 768.954L804.701 739.807" stroke="black" stroke-width="22" stroke-miterlimit="10" stroke-linecap="round"/>
<path d="M870.88 910.959C896.593 937.099 946.447 937.099 972.167 910.959" stroke="black" stroke-width="22" stroke-miterlimit="10" stroke-linecap="round"/>
</g>
<defs>
<clipPath id="clip0_624_3473">
<rect width="1500" height="1500" fill="white"/>
</clipPath>
</defs>
      <g clip-path="url(#clip0_911_331)">
<ellipse cx="932" cy="915.5" rx="131" ry="69.5" fill="#AABBFF"/>
<path d="M820.569 923.549C820.28 896.513 841.822 874.289 868.854 873.737L973.808 871.592C1001.86 871.018 1024.91 893.608 1024.9 921.668C1024.89 949.203 1002.65 971.563 975.116 971.72L870.142 972.317C843.014 972.471 820.859 950.677 820.569 923.549Z" fill="#D9D7D7"/>
<path d="M823.858 924.756L1021.53 920.376M875.876 968.561C875.328 946.294 874.452 897.05 870.948 878.214M924.061 878.214C925.886 895.188 929.208 937.022 928.989 968.561M975.532 874.428C976.627 898.505 977.175 951.039 978.27 968.561M869.395 972.015L975.985 971.418C1004.17 971.26 1026.67 947.887 1025.77 919.717V919.717C1024.88 892.298 1002.11 870.692 974.681 871.252L868.111 873.43C841.078 873.983 819.535 896.207 819.824 923.245V923.245C820.114 950.372 842.267 972.167 869.395 972.015Z" stroke="black" stroke-width="20"/>
</g>
<defs>
<clipPath id="clip0_911_331">
<rect width="1500" height="1500" fill="white"/>
</clipPath>
</defs>
      <g clip-path="url(#clip0_786_1362)">
<path d="M711.94 381.541L669.138 415.004L754.914 456.956C786.09 456.451 856.04 454.579 886.429 451.127C916.817 447.675 946.703 430.594 957.848 422.485L912.882 387.272L890.772 360.146L852.07 352.844L816.711 388.83L811.119 369.892L779.2 357.196L748.101 362.456L711.94 381.541Z" fill="#AABBFF"/>
<path d="M754.823 451.145C758.386 440.393 766.661 423.631 780.081 411.559M882.17 449.083C878.062 439.675 870.922 425.659 859.411 414.501M670.743 416.037C678.291 403.405 696.028 378.1 722.448 377.672C724.832 377.634 727.122 377.712 729.323 377.895M780.081 411.559C789.433 403.145 801.285 397.009 815.783 396.774C818.147 396.736 820.438 396.825 822.658 397.03M780.081 411.559C771.884 400.903 758.35 380.305 729.323 377.895M953.095 422.563C946.826 410.677 929.573 387.795 908.089 385.052M859.411 414.501C864.186 404.755 879.655 385.169 903.328 384.785C904.936 384.759 906.524 384.852 908.089 385.052M859.411 414.501C850.192 405.565 838.17 398.463 822.658 397.03M729.323 377.895C734.108 368.72 747.587 350.309 768.512 349.97C795.461 349.534 817.557 375.809 822.658 397.03M908.089 385.052C903.334 374.267 889.367 351.713 871.612 352C849.419 352.36 832.274 370.674 822.592 392.964" stroke="black" stroke-width="22" stroke-linecap="round"/>
<path d="M608.491 564.745L416.38 556.98L362.812 529.743C362.812 529.743 272.363 496.123 253.198 563.225C234.033 630.327 294.892 621.442 294.892 621.442C294.892 621.442 234.693 674.211 270.378 706.733C306.063 739.255 343.827 713.758 343.827 713.758L416.58 661.471L498.131 638.01L615.409 626.272L608.491 564.745Z" fill="white"/>
<path d="M1313.95 616.67C1343.53 624.964 1353.97 603.922 1355.5 592.365L1365.24 602.265L1358.04 623.522L1325.76 653.906L1280.89 634.981L1240.1 609.249L1176.5 604L1167.5 587.5C1192.71 585.773 1215.27 583.908 1246.09 586.675C1284.61 590.133 1276.98 606.303 1313.95 616.67Z" fill="#001647" fill-opacity="0.2"/>
<path d="M376.041 543.941L451.5 564C445.667 578.482 433.8 616.452 433 652.473L423.636 652.473L373.93 690.257C360.188 706.18 322.679 735.212 282.572 723.957C242.466 712.703 264.742 652.888 280.893 624.388L256.504 600.586C252.576 593.245 251.141 570.202 276.83 536.763C302.518 503.324 353.674 527.616 376.041 543.941Z" fill="#001647" fill-opacity="0.2"/>
<path d="M1147.68 552.365C1135.98 538.355 1219.43 538.929 1219.43 538.929C1219.43 538.929 1254.66 534.738 1267.43 502.145C1280.19 469.553 1317.73 465.798 1317.73 465.798C1317.73 465.798 1365.46 483.33 1352.18 522.962C1338.9 562.593 1363.22 579.179 1363.22 579.179C1363.22 579.179 1376.45 653.536 1308.8 647.658C1254.5 641.001 1240.52 605.909 1240.52 605.909L1180.71 610.518C1180.71 610.518 1160.41 571.117 1147.68 552.365Z" fill="white"/>
<path d="M611.835 564.803L427.763 560.735C406.985 560.413 387.112 552.175 372.2 537.702C356.523 522.276 329.415 507.111 289.65 523.161C289.65 523.161 205.1 571.269 285.459 626.853" stroke="black" stroke-width="22" stroke-miterlimit="10" stroke-linecap="round"/>
<path d="M318.465 579.12C318.465 579.12 317.24 603.8 280.903 634.768C258.494 653.851 252.41 686.156 271.707 708.306C282.308 720.434 299.031 727.853 325.438 721.163C341.011 717.065 354.922 708.217 365.235 695.849C383.056 674.844 439.333 633.819 609.357 626.064" stroke="black" stroke-width="22" stroke-miterlimit="10" stroke-linecap="round"/>
<path d="M1138.98 548.869L1228.83 537.633C1236.45 536.441 1243.65 533.332 1249.75 528.597C1255.85 523.862 1260.64 517.656 1263.69 510.561C1273.66 487.565 1285.19 462.11 1322.31 466.158C1357.24 469.953 1362.46 494.653 1354.02 518.318C1349.17 531.539 1342.05 543.814 1332.99 554.595C1327.1 561.734 1321.25 568.811 1319.85 577.526" stroke="black" stroke-width="22" stroke-miterlimit="10" stroke-linecap="round"/>
<path d="M1175 610.751L1231.5 610.75C1237.54 610.698 1243.53 611.84 1249.13 614.111C1254.73 616.382 1259.83 619.737 1264.12 623.984C1279.21 638.777 1307.01 658.318 1337.22 641.261C1382.38 615.771 1365.61 562.554 1341.07 546.161" stroke="black" stroke-width="22" stroke-miterlimit="10" stroke-linecap="round"/>
<path d="M600.396 536.211C619.215 578.661 618.881 598.206 612.064 645.818L609.583 655.148" stroke="black" stroke-width="22" stroke-miterlimit="10" stroke-linecap="round"/>
</g>
<defs>
<clipPath id="clip0_786_1362">
<rect width="1500" height="1500" fill="white"/>
</clipPath>
</defs>
      
    </g>
    </svg>