<svg
      xmlns="http://www.w3.org/2000/svg"
      preserveAspectRatio="xMidYMin meet"
      fill="none"
      viewBox="0 0 1500 1500"
    >
      <g>
      <path fill="url(#prefix__paint0_linear_53_30463)" d="M0 0h1500v1500H0z"/><defs><linearGradient id="prefix__paint0_linear_53_30463" x1="1500" y1="1500" x2="0" y2="0" gradientUnits="userSpaceOnUse">
<stop stop-color="#FF5A5A"/>
<stop offset="1" stop-color="#FFBDBD"/>
</linearGradient></defs>
      <g clip-path="url(#clip0_483_510)">
<path d="M773 1011.5C543.4 1029.9 398.667 1353.5 355 1513H1138.5C1075.7 1127 868.667 1017.83 773 1011.5Z" fill="#FF6247"/>
<path d="M409 1362.5L354 1512.5H651.5V1444.5L409 1362.5Z" fill="#AABBFF"/>
<path d="M1039.5 1426.5L1046 1512.5L1142.5 1504L1111 1393L1039.5 1426.5Z" fill="#AABBFF"/>
<path d="M749.5 1019.5C536 1134 457.448 1414.63 443.159 1511H353.699C350.414 1508.73 357.049 1471.27 409.87 1339.62C462.691 1207.98 569.086 1113.24 605.384 1082.33L674 1033.5L749.5 1019.5Z" fill="#001647" fill-opacity="0.2"/>
<path d="M353.5 1519.5C365.5 1454.33 414.5 1313.6 483.5 1219C530.101 1155.11 577.468 1101.29 629.141 1059.66C710.278 994.299 826.037 996.323 905.02 1064.27C1000.08 1146.05 1103.44 1290.29 1142.5 1519.5M1013.5 1319C1024.83 1354.33 1048.1 1443.9 1050.5 1519.5M667 1361.5C661.167 1392.33 650.3 1467.1 653.5 1519.5M408.5 1360.5L651 1446.5M1040.5 1424C1056.33 1421.5 1091.7 1411.6 1106.5 1392" stroke="black" stroke-width="22" stroke-linecap="round"/>
<path d="M867.933 1422.58C867.187 1422.49 866.882 1421.58 867.424 1421.06L889.898 1399.62C890.227 1399.31 890.265 1398.8 889.987 1398.44L845.82 1341.38C845.494 1340.96 844.873 1340.92 844.49 1341.29L797.948 1386.27C797.567 1386.64 796.949 1386.59 796.622 1386.18L731.189 1302.92C730.909 1302.56 730.943 1302.05 731.269 1301.73L755.472 1278.25C755.855 1277.88 756.479 1277.93 756.804 1278.35L800.169 1334.58C800.492 1335 801.109 1335.04 801.493 1334.68L848.021 1290.61C848.403 1290.25 849.014 1290.29 849.339 1290.7L915.467 1374.43C915.782 1374.83 916.367 1374.88 916.753 1374.55L941.524 1353.28C942.126 1352.76 943.056 1353.23 942.997 1354.02L937.287 1430.18C937.249 1430.68 936.793 1431.06 936.287 1430.99L867.933 1422.58Z" fill="white"/>
</g>
<defs>
<clipPath id="clip0_483_510">
<rect width="1500" height="1500" fill="white"/>
</clipPath>
</defs>
      <g clip-path="url(#clip0_497_1194)">
<path d="M379.667 654.812C432.345 471.574 618.472 401.981 699.114 390.653C740.985 382.718 849.655 375.215 949.364 408.675C980 418.956 1049.88 457.388 1091.92 499.818C1144.47 552.856 1272.97 732.052 1185.05 927.725C1097.12 1123.4 758.414 1092.29 612.749 1051.82C464.472 1010.63 314.48 881.563 379.667 654.812Z" fill="#AABBFF"/>
<path d="M449.293 747.204C454.734 531.068 585.306 432.345 649.911 410C432.292 459.565 365.296 655.455 364 747.204C377.99 984.871 584.496 1053.43 681 1058C601.498 1044.46 443.853 963.339 449.293 747.204Z" fill="#001647" fill-opacity="0.2"/>
<path d="M379.667 654.812C432.345 471.574 618.472 401.981 699.114 390.653C740.985 382.718 849.655 375.215 949.364 408.675C980 418.956 1049.88 457.388 1091.92 499.818C1144.47 552.856 1272.97 732.052 1185.05 927.725C1097.12 1123.4 758.414 1092.29 612.749 1051.82C464.472 1010.63 314.48 881.563 379.667 654.812Z" stroke="black" stroke-width="22" stroke-linecap="round"/>
</g>
<defs>
    <clipPath id="prefix__clip0_299_662"><path fill="#fff" d="M0 0h1500v1500H0z"/></clipPath>
</defs>
      <g clip-path="url(#clip0_624_3503)">
<path d="M820.579 731.479C807.38 731.491 794.726 736.74 785.393 746.073C776.06 755.406 770.811 768.06 770.799 781.259C770.855 783.107 771.629 784.86 772.957 786.148C774.284 787.435 776.06 788.155 777.909 788.155C779.758 788.155 781.534 787.435 782.861 786.148C784.188 784.86 784.962 783.107 785.019 781.259C784.954 776.549 785.826 771.872 787.584 767.502C789.342 763.132 791.951 759.154 795.259 755.8C798.567 752.446 802.509 749.783 806.855 747.966C811.201 746.148 815.865 745.212 820.575 745.212C825.286 745.212 829.95 746.148 834.296 747.966C838.642 749.783 842.584 752.446 845.892 755.8C849.2 759.154 851.809 763.132 853.567 767.502C855.325 771.872 856.197 776.549 856.132 781.259C856.132 786.917 853.885 792.343 849.884 796.344C845.883 800.345 840.457 802.592 834.799 802.592C829.141 802.592 823.715 800.345 819.714 796.344C815.713 792.343 813.465 786.917 813.465 781.259C813.438 780.308 813.599 779.361 813.939 778.472C814.284 777.582 814.806 776.77 815.472 776.086C816.302 775.229 817.335 774.595 818.474 774.243C819.613 773.89 820.823 773.83 821.992 774.067C823.161 774.305 824.251 774.833 825.162 775.603C826.073 776.373 826.776 777.36 827.205 778.472C827.551 779.36 827.714 780.307 827.686 781.259C827.686 783.146 828.435 784.955 829.769 786.289C831.103 787.623 832.912 788.372 834.799 788.372C836.685 788.372 838.495 787.623 839.829 786.289C841.163 784.955 841.912 783.146 841.912 781.259C841.912 775.601 839.665 770.175 835.664 766.174C831.663 762.173 826.237 759.926 820.579 759.926C814.921 759.926 809.495 762.173 805.494 766.174C801.493 770.175 799.245 775.601 799.245 781.259C799.245 790.688 802.991 799.731 809.659 806.399C816.326 813.067 825.369 816.812 834.799 816.812C844.228 816.812 853.271 813.067 859.939 806.399C866.606 799.731 870.352 790.688 870.352 781.259C870.34 768.062 865.092 755.408 855.761 746.075C846.429 736.743 833.776 731.493 820.579 731.479Z" fill="black" stroke="black" stroke-width="5"/>
<path d="M1011.91 731.479C998.714 731.491 986.06 736.74 976.727 746.073C967.394 755.406 962.145 768.06 962.133 781.259C962.189 783.107 962.963 784.86 964.29 786.148C965.618 787.435 967.394 788.155 969.243 788.155C971.092 788.155 972.868 787.435 974.195 786.148C975.522 784.86 976.296 783.107 976.353 781.259C976.288 776.549 977.16 771.872 978.918 767.502C980.676 763.132 983.285 759.154 986.593 755.8C989.901 752.446 993.843 749.783 998.189 747.966C1002.53 746.148 1007.2 745.212 1011.91 745.212C1016.62 745.212 1021.28 746.148 1025.63 747.966C1029.98 749.783 1033.92 752.446 1037.23 755.8C1040.53 759.154 1043.14 763.132 1044.9 767.502C1046.66 771.872 1047.53 776.549 1047.47 781.259C1047.47 786.917 1045.22 792.343 1041.22 796.344C1037.22 800.345 1031.79 802.592 1026.13 802.592C1020.47 802.592 1015.05 800.345 1011.05 796.344C1007.05 792.343 1004.8 786.917 1004.8 781.259C1004.76 780.067 1005.02 778.884 1005.56 777.82C1006.1 776.756 1006.9 775.845 1007.89 775.171C1008.87 774.497 1010.01 774.081 1011.2 773.963C1012.38 773.844 1013.58 774.026 1014.68 774.492C1015.56 774.864 1016.36 775.41 1017.02 776.097C1017.68 776.785 1018.2 777.599 1018.54 778.492C1018.88 779.38 1019.05 780.327 1019.02 781.279C1019.02 783.166 1019.77 784.975 1021.1 786.309C1022.44 787.643 1024.25 788.392 1026.13 788.392C1028.02 788.392 1029.83 787.643 1031.16 786.309C1032.5 784.975 1033.25 783.166 1033.25 781.279C1033.25 775.621 1031 770.195 1027 766.194C1023 762.193 1017.57 759.946 1011.91 759.946C1006.25 759.946 1000.83 762.193 996.828 766.194C992.827 770.195 990.579 775.621 990.579 781.279C990.579 790.708 994.325 799.751 1000.99 806.419C1007.66 813.087 1016.7 816.832 1026.13 816.832C1035.56 816.832 1044.61 813.087 1051.27 806.419C1057.94 799.751 1061.69 790.708 1061.69 781.279C1061.67 768.081 1056.43 755.428 1047.09 746.095C1037.76 736.763 1025.11 731.513 1011.91 731.499V731.479Z" fill="black" stroke="black" stroke-width="5"/>
<path d="M921.5 970C930.895 970 940.078 967.214 947.89 961.995C955.701 956.775 961.789 949.357 965.384 940.677C968.979 931.998 969.92 922.447 968.087 913.233C966.254 904.019 961.731 895.555 955.088 888.912C948.445 882.269 939.981 877.746 930.767 875.913C921.553 874.08 912.002 875.021 903.323 878.616C894.643 882.211 887.225 888.299 882.005 896.11C876.786 903.922 874 913.105 874 922.5C874 928.738 875.229 934.914 877.616 940.677C880.003 946.44 883.502 951.677 887.912 956.088C892.323 960.498 897.56 963.997 903.323 966.384C909.085 968.771 915.262 970 921.5 970Z" fill="white" stroke="black" stroke-width="22" stroke-miterlimit="10" stroke-linecap="round"/>
</g>
<defs>
<clipPath id="clip0_624_3503">
<rect width="1500" height="1500" fill="white"/>
</clipPath>
</defs>
      <g clip-path="url(#clip0_911_60)">
<path d="M460.219 805.943C475.82 798.654 501.529 792.379 524.163 813.654C528.273 817.448 533.363 820.195 538.941 821.629C544.519 823.064 550.397 823.138 556.006 821.844C573.016 818.048 597.437 816.739 614.831 833.2C619.122 837.278 624.509 840.214 630.429 841.701C636.349 843.188 642.586 843.172 648.487 841.654C666.028 837.128 691.038 835.634 712.05 854.378C716.422 858.314 721.858 861.079 727.777 862.377C733.697 863.675 739.88 863.459 745.668 861.751C760.092 857.479 781.675 858.939 797.48 872.31C825.383 893.165 845.774 879.144 856.08 870.512C870.479 858.485 893.106 853.242 922.921 866.523C927.217 868.397 911.011 867.005 915.75 867.096C920.49 867.188 925.194 866.353 929.559 864.645C944.143 859.052 968.025 848.964 990.335 863.68C995.352 867.057 1001.27 869.088 1007.43 869.551C1013.6 870.014 1019.78 868.891 1025.3 866.304C1035.45 861.452 1049.43 848.421 1065.43 851.757C1071.13 852.957 1077.07 852.771 1082.66 851.217C1088.26 849.662 1093.33 846.792 1097.37 842.883C1104.59 835.865 1116.15 829.719 1133.7 831.455C1139.73 832.011 1145.81 831.026 1151.28 828.607C1156.75 826.188 1161.4 822.426 1164.73 817.727C1172.28 807.178 1186.55 796.425 1212.99 795.806C1212.99 795.806 1234.77 809.638 1225.67 840.375C1223.58 847.477 1224.19 855.043 1227.42 861.786C1231.51 870.369 1234.43 883.066 1224.5 894.062C1221.55 897.291 1219.34 901.052 1218.02 905.111C1216.7 909.17 1216.3 913.44 1216.82 917.657C1218.75 932.06 1211.05 942.419 1203.6 948.896C1196.92 954.64 1192.97 962.615 1192.61 971.078C1191.97 987.295 1182.39 995.66 1173.39 999.937C1169.26 1001.99 1165.63 1004.82 1162.75 1008.26C1159.87 1011.69 1157.8 1015.65 1156.67 1019.88C1152.69 1033.88 1135.86 1040.13 1128.34 1042.97C1120.83 1045.81 1111.83 1050.78 1104.8 1062.18C1097.77 1073.58 1081.12 1086.14 1068.45 1088.54C1063.95 1089.41 1059.68 1091.1 1055.9 1093.53C1052.12 1095.95 1048.9 1099.06 1046.44 1102.66C1034.48 1120.03 1012.92 1123.54 997.649 1123.54C992.899 1123.5 988.197 1124.4 983.858 1126.19C979.519 1127.97 975.643 1130.6 972.488 1133.89C959.959 1147.29 941.13 1148.29 928.218 1147.03C919.494 1146.22 910.786 1148.61 903.945 1153.68C886.051 1166.67 866.187 1163.2 852.742 1158.06C847.995 1156.23 842.86 1155.45 837.739 1155.77C832.618 1156.09 827.651 1157.52 823.228 1159.93C804.494 1170.17 786.893 1165.72 775.279 1160.03C770.81 1157.89 765.888 1156.71 760.871 1156.56C755.853 1156.41 750.868 1157.31 746.278 1159.18C720.94 1169.33 700.843 1158.33 689.532 1148.82C686.082 1145.93 682.031 1143.74 677.633 1142.37C673.235 1140.99 668.583 1140.48 663.967 1140.85C636.193 1143.07 619.776 1129.1 611.091 1117.75C608.171 1113.92 604.368 1110.74 599.961 1108.45C595.553 1106.16 590.653 1104.81 585.618 1104.5C561.872 1103.05 548.422 1092.98 541.153 1084.38C538.145 1080.8 534.353 1077.85 530.028 1075.74C525.704 1073.62 520.946 1072.39 516.073 1072.11C488.965 1070.6 478.706 1057.76 474.909 1046.89C473.409 1042.47 470.835 1038.41 467.388 1035.05C463.94 1031.69 459.709 1029.1 455.023 1027.5C429.48 1018.94 422.413 999.936 420.942 985.655C420.48 980.616 418.728 975.748 415.833 971.459C412.938 967.169 408.984 963.582 404.299 960.997C384.079 950.136 381.744 934.663 383.019 924.205C383.85 916.922 381.827 909.597 377.32 903.573C371.088 895.114 365.408 881.616 375.03 866.267C377.603 862.177 379.137 857.593 379.517 852.863C379.897 848.133 379.112 843.381 377.221 838.969C372.334 827.6 369.038 812.67 379.982 804.456C394.838 793.255 415.968 799.376 430.262 805.914C434.922 808.066 440.05 809.188 445.247 809.193C450.444 809.198 455.569 808.086 460.219 805.943Z" fill="#4AEEB9"/>
<path d="M559.543 876.665C545.123 859.855 557.331 835.636 566.454 824.413C560.927 822.571 548.96 818.866 545.318 818.788C540.765 818.691 527.176 815.109 518.697 809.285C510.218 803.46 512.667 807.275 505.625 805.243C498.582 803.212 480.886 802.364 478.863 802.32C476.839 802.277 441.295 807.632 439.778 807.6C438.26 807.567 402.068 795.978 400.56 795.475C399.354 795.074 384.005 804.371 376.481 809.07L375.865 837.745C375.849 838.497 374.828 854.653 374.319 862.637L374.292 911.077L398.67 954.394L421.72 988.747L452.684 1031.73L479.964 1057.71L512.049 1072.04L576.734 1100.22L617.663 1126.96L656.354 1140.02L706.601 1157.08L749.096 1157.99L788.05 1158.82C780.022 1156.92 771.799 1149.38 766.552 1143.38C764.045 1140.51 760.276 1138.96 756.49 1139.36C715.191 1143.75 694.664 1121.11 687.589 1104.9C686.111 1101.51 683.291 1098.81 679.766 1097.7C655.194 1089.96 646.026 1071.74 643.706 1058.71C642.893 1054.15 639.87 1050.07 635.563 1048.35C613.408 1039.54 608.801 1023.1 609.835 1011C610.272 1005.89 608.173 1000.55 603.832 997.826C580.686 983.294 577.921 964.469 580.559 952.142C581.528 947.614 580.532 942.638 577.294 939.328C560.382 922.041 559.702 904.215 563.112 892.424C564.66 887.074 563.169 880.893 559.543 876.665Z" fill="#001647" fill-opacity="0.2"/>
<path d="M524.163 813.654C501.529 792.379 475.82 798.654 460.219 805.943C455.569 808.086 450.444 809.198 445.247 809.193C440.05 809.188 434.921 808.066 430.262 805.914C415.968 799.376 394.838 793.255 379.982 804.456C369.038 812.67 372.334 827.6 377.221 838.969C379.112 843.381 379.897 848.133 379.517 852.863C379.137 857.593 377.603 862.177 375.03 866.267C365.408 881.616 371.088 895.114 377.32 903.573C381.827 909.597 383.85 916.922 383.019 924.205C381.744 934.663 384.079 950.136 404.299 960.997C408.984 963.582 412.938 967.169 415.833 971.459C418.728 975.748 420.48 980.616 420.942 985.655C422.413 999.936 429.48 1018.94 455.023 1027.5C459.709 1029.1 463.94 1031.69 467.388 1035.05C470.835 1038.41 473.409 1042.47 474.909 1046.89C478.706 1057.76 488.965 1070.6 516.073 1072.11C520.946 1072.39 525.704 1073.62 530.028 1075.74C534.353 1077.85 538.145 1080.8 541.153 1084.38C548.422 1092.98 561.872 1103.05 585.618 1104.5C590.653 1104.81 595.553 1106.16 599.961 1108.45C604.368 1110.74 608.171 1113.92 611.091 1117.75C619.776 1129.1 636.193 1143.07 663.967 1140.85C668.583 1140.48 673.235 1140.99 677.633 1142.37C682.031 1143.74 686.082 1145.93 689.532 1148.82C700.843 1158.33 720.94 1169.33 746.278 1159.18C750.868 1157.31 755.853 1156.41 760.871 1156.56C765.888 1156.71 770.81 1157.89 775.278 1160.03C786.893 1165.72 804.494 1170.17 823.228 1159.93C827.651 1157.52 832.618 1156.09 837.739 1155.77C842.86 1155.45 847.995 1156.23 852.742 1158.06C866.187 1163.2 886.051 1166.67 903.945 1153.68C910.786 1148.61 919.494 1146.22 928.218 1147.03C941.13 1148.29 959.959 1147.29 972.488 1133.89C975.643 1130.6 979.519 1127.97 983.858 1126.19C988.197 1124.4 992.899 1123.5 997.649 1123.54C1012.92 1123.54 1034.48 1120.03 1046.44 1102.66C1048.9 1099.06 1052.12 1095.95 1055.9 1093.53C1059.68 1091.1 1063.94 1089.41 1068.45 1088.54C1081.12 1086.14 1097.77 1073.58 1104.8 1062.18C1111.83 1050.78 1120.83 1045.81 1128.34 1042.97L1128.55 1042.89C1136.16 1040.01 1152.72 1033.75 1156.67 1019.88C1157.8 1015.65 1159.87 1011.69 1162.75 1008.26C1165.63 1004.82 1169.26 1001.99 1173.39 999.937C1182.39 995.66 1191.97 987.295 1192.61 971.078C1192.97 962.615 1196.92 954.64 1203.6 948.896C1211.05 942.419 1218.75 932.06 1216.82 917.657C1216.3 913.44 1216.7 909.17 1218.02 905.111C1219.34 901.052 1221.55 897.291 1224.5 894.062C1234.43 883.066 1231.51 870.369 1227.42 861.786C1224.19 855.043 1223.58 847.477 1225.67 840.375C1234.77 809.638 1212.99 795.806 1212.99 795.806C1186.55 796.425 1172.28 807.178 1164.73 817.727C1161.4 822.426 1156.75 826.188 1151.28 828.607C1145.81 831.026 1139.73 832.011 1133.7 831.455C1116.15 829.719 1104.59 835.865 1097.37 842.883C1093.33 846.792 1088.26 849.662 1082.66 851.217C1077.07 852.771 1071.13 852.957 1065.43 851.757C1049.43 848.421 1035.45 861.452 1025.3 866.304C1019.78 868.891 1013.6 870.014 1007.43 869.551C1001.27 869.088 995.352 867.057 990.335 863.68C976.056 854.261 959.164 863.539 945.029 872.906C932.675 881.092 917.921 879.217 904.652 872.618C885.317 863.002 866.772 861.581 856.08 870.512C845.774 879.144 825.383 893.165 797.48 872.31C781.675 858.939 760.092 857.479 745.668 861.751C739.88 863.459 733.697 863.675 727.777 862.377C721.858 861.079 716.422 858.314 712.05 854.378C691.038 835.634 666.028 837.128 648.487 841.654C642.585 843.172 636.349 843.188 630.429 841.701C624.509 840.214 619.122 837.278 614.831 833.2C597.437 816.739 573.016 818.048 556.006 821.844C550.397 823.138 544.519 823.064 538.941 821.629C533.363 820.195 528.272 817.448 524.163 813.654Z" stroke="black" stroke-width="22" stroke-miterlimit="10"/>
<path d="M847.684 952.99C796.393 960.533 771.057 930.01 764.065 911.56C763.735 910.688 764.715 909.945 765.529 910.399C794.794 926.75 833.656 903.637 851.184 871.99C854.749 865.552 859.18 860.308 864.102 856.095C892.633 831.676 933.121 867.002 920.263 902.286C911.028 927.625 887.792 947.092 847.684 952.99Z" fill="#4AEEB9"/>
<path d="M999.033 952.99C1050.32 960.533 1075.66 930.01 1082.65 911.56C1082.98 910.688 1082 909.945 1081.19 910.399C1051.92 926.75 1013.06 903.637 995.533 871.99C991.967 865.552 987.536 860.308 982.614 856.095C954.083 831.676 913.595 867.002 926.454 902.286C935.688 927.625 958.924 947.092 999.033 952.99Z" fill="#4AEEB9"/>
<path d="M883 852.5C880.2 911.7 822.5 934.5 794 938.5L769.5 916.5L826.5 903.5L851 878.5L858 857.5L883 852.5Z" fill="#001647" fill-opacity="0.2"/>
<path d="M970 938.5C944.8 914.9 950.833 871.333 957 852.5L940 854.5L924.5 867V897L945 925.5L970 938.5Z" fill="#001647" fill-opacity="0.2"/>
<path fill-rule="evenodd" clip-rule="evenodd" d="M923.129 856.694C920.505 853.024 917.459 849.726 914.113 846.903C898.825 834.009 875.472 829.811 856.267 846.248C850.38 851.286 845.101 857.547 840.878 865.171C833.142 879.14 820.655 891.196 807.203 897.842C793.771 904.478 780.734 905.185 770.211 899.306C765.64 896.752 760.435 897.58 756.925 900.315C753.272 903.161 751.024 908.5 753.096 913.968C761.559 936.297 791.257 970.816 848.601 962.383C884.621 957.086 909.524 941.229 923.129 918.755C936.733 941.229 961.636 957.086 997.656 962.384C1055 970.817 1084.7 936.297 1093.16 913.968C1095.23 908.5 1092.99 903.161 1089.33 900.315C1085.82 897.58 1080.62 896.752 1076.05 899.307C1065.52 905.186 1052.49 904.479 1039.06 897.842C1025.6 891.196 1013.12 879.14 1005.38 865.171C1001.16 857.547 995.878 851.287 989.991 846.248C970.785 829.811 947.433 834.01 932.145 846.904C928.799 849.726 925.753 853.024 923.129 856.694ZM899.929 863.721C891.054 856.236 879.898 854.981 870.572 862.962C866.614 866.35 863.033 870.578 860.124 875.83C850.333 893.508 834.625 908.832 816.948 917.566C807.598 922.186 797.32 925.111 786.94 925.299C798.415 936.011 817.19 944.766 845.401 940.617C882.42 935.173 901.682 917.782 909.245 897.029C913.863 884.357 909.026 871.393 899.929 863.721ZM946.329 863.721C937.232 871.394 932.395 884.358 937.013 897.029C944.576 917.782 963.838 935.174 1000.86 940.618C1029.07 944.766 1047.84 936.011 1059.32 925.299C1048.94 925.111 1038.66 922.186 1029.31 917.566C1011.63 908.832 995.925 893.508 986.134 875.83C983.225 870.578 979.643 866.35 975.686 862.962C966.36 854.981 955.203 856.236 946.329 863.721Z" fill="black"/>
</g>
<defs>
<clipPath id="clip0_911_60">
<rect width="1500" height="1500" fill="white"/>
</clipPath>
</defs>
      <g clip-path="url(#clip0_602_1952)">
<path d="M718.5 336C430.5 374.4 355.833 571 354.5 664.5L414.5 657L585 641.5L677.5 700.5L746 715.5L795 706.5L864.5 683L951 641.5L1027 629C1040.67 630 1078.8 633.9 1122 641.5C1176 651 1185 710.5 1224.5 677C1256.1 650.2 1196 608.166 1162 590.5C1163 539 1078.5 288 718.5 336Z" fill="#F8CF47"/>
<path d="M790.5 334.999C576.9 453.399 513.5 594.666 508.5 650.499L355.5 670.5C343.167 665.833 342.4 622.399 438 485.999C533.6 349.599 712.834 328.499 790.5 334.999Z" fill="#001647" fill-opacity="0.2"/>
<path d="M809 433L789.5 452V458.5C789.5 459.5 793.5 469.5 794.5 473.5C795.5 477.5 800.5 477.5 804.5 482C808.5 486.5 812.5 489 815.5 491C818.5 493 821 492 822 492H839.5C841.1 492 847.5 488 850.5 486L854 483C855 483.5 857.3 484.8 858.5 486C860 487.5 868.5 492 872.5 493C876.5 494 880.5 494 890 495C899.5 496 900.5 493 902.5 492C904.5 491 908.5 485 909 484.5C909.5 484 913.5 474.5 916.5 460C918.9 448.4 908.167 434.833 902.5 429.5L883.5 421.5C884.5 415.833 881.7 401.9 862.5 391.5C843.3 381.1 828.5 399.5 823.5 410L809 433Z" fill="#97A5DE"/>
<path d="M819.499 456.5C819.099 456.1 812.666 455 809.499 454.5C809.499 455.833 809.399 458.9 808.999 460.5C808.499 462.5 811.999 466 815.499 467.5C818.999 469 818.999 467.5 819.499 467.5C819.999 467.5 824.499 462.5 824.999 461C825.499 459.5 819.999 457 819.499 456.5Z" fill="#7985B4"/>
<path d="M890 466.5C889.6 466.1 885.167 465 883 464.5L881.5 465C880.5 465.833 878.5 467.7 878.5 468.5C878.5 469.5 878.5 474.5 879 476C879.5 477.5 880 477 891 477C902 477 892.5 474 892.5 472C892.5 470 890.5 467 890 466.5Z" fill="#7985B4"/>
<path d="M918 513C740.4 509.8 610.667 597.833 577.5 639.5L635 613.5L746 568.5L911.5 542.5L1081.5 557L1179.5 596C1166.33 568 1095.6 516.2 918 513Z" fill="#001647" fill-opacity="0.2"/>
<path d="M1168 594.006C1137.5 399.5 919 330 797.5 330C484.905 330 371.892 543.53 353.776 661.318C352.717 668.2 359.115 673.614 365.869 671.92C411.449 660.485 504.576 640.341 587 645M587 645C621.5 612.167 730.5 548 894.5 542C1079.59 535.228 1192.54 594.489 1230.03 642.496C1236.7 651.039 1235.02 662.819 1228.03 671.106V671.106C1218.11 682.881 1200.55 684.175 1188.11 675.098C1145.41 643.936 1080.11 612.042 1002 628C892.783 650.313 790 754 669.5 701.5L587 645Z" stroke="black" stroke-width="22" stroke-linecap="round"/>
<path d="M923.989 458.033L923.987 457.9C923.178 445.619 919.136 435.598 911.975 428.115C905.995 421.874 897.844 417.403 887.744 414.822C885.101 404.349 879.156 395.445 871.367 390.325L871.273 390.268C857.182 381.803 840.666 381.918 828.172 390.569C822.574 394.443 818.265 399.77 815.708 405.973C813.269 411.89 812.425 418.606 813.253 425.451C806.606 427.485 800.685 431.335 796.082 436.628C791.262 442.169 788.224 448.908 787.294 456.115C785.659 468.818 790.908 481.65 801.339 490.443C808.644 496.605 817.627 499.999 826.635 499.999C830.21 499.999 833.73 499.468 837.098 498.423C843.562 496.488 849.439 492.737 853.767 487.805C855.333 489.249 856.95 490.559 858.586 491.708C871.664 501.268 888.501 502.647 902.531 495.306C916.318 488.091 924.339 474.158 923.99 458.033H923.989ZM875.991 487.078C873.98 486.548 871.841 485.731 869.64 484.653C867.6 483.634 865.703 482.439 864 481.103C863.183 480.44 862.45 479.837 861.761 479.195C860.985 478.472 860.367 477.841 859.82 477.213C859.723 477.079 859.621 476.979 859.552 476.909C859.547 476.905 859.543 476.901 859.539 476.896C859.454 476.718 859.323 476.567 859.162 476.457C859.098 476.362 859.019 476.277 858.929 476.207C858.893 476.163 858.852 476.107 858.793 476.026C858.768 475.991 858.742 475.955 858.713 475.916L858.706 475.905C858.718 475.867 858.734 475.819 858.745 475.793L858.808 475.702L858.855 475.573C859.417 474.021 859.89 472.311 860.259 470.493C860.41 469.843 860.518 469.127 860.571 468.419C860.701 467.492 860.781 466.763 860.822 466.125L860.824 466.058C860.824 465.989 860.833 465.895 860.844 465.796C860.859 465.655 860.876 465.497 860.876 465.322C860.876 465.21 860.876 465 860.894 464.924L860.907 464.866L860.915 464.806C860.974 464.31 860.976 463.804 860.922 463.302V462.825C860.922 462.38 860.922 461.878 860.877 461.397C860.877 461.256 860.87 461.072 860.825 460.868C860.823 460.67 860.811 460.439 860.754 460.192C860.729 460.067 860.728 459.961 860.728 459.735V459.653L860.715 459.572C860.7 459.475 860.691 459.366 860.68 459.25C860.666 459.092 860.651 458.914 860.617 458.732C860.517 457.947 860.372 457.18 860.219 456.393C859.855 454.583 859.344 452.814 858.704 451.142C858.012 449.286 857.354 447.797 856.638 446.461C856.271 445.769 855.891 445.095 855.442 444.346C855.404 444.26 855.356 444.18 855.297 444.109C855.297 444.106 855.295 444.104 855.294 444.102L855.2 443.905L855.124 443.838C855.063 443.741 855.001 443.644 854.939 443.545C854.621 443.041 854.293 442.523 853.912 442.026C853.929 441.994 853.947 441.962 853.965 441.927C854.041 441.815 854.132 441.655 854.181 441.461C854.223 441.358 854.299 441.221 854.373 441.088C854.432 440.983 854.492 440.877 854.546 440.771L854.593 440.67C855.278 439.403 856.031 438.24 856.831 437.213L856.841 437.199C857.655 436.12 858.622 435.042 859.713 434.002C861.435 432.378 863.328 430.961 865.339 429.79C866.807 428.961 868.315 428.263 869.814 427.719C871.635 427.077 873.258 426.643 874.777 426.39C876.168 426.152 877.552 426.01 878.893 425.967L878.933 425.965C879.616 425.916 880.253 425.916 880.936 425.965H880.958C881.919 426.013 882.855 426.064 883.74 426.157C884.619 426.249 885.483 426.378 886.255 426.532L886.362 426.651H886.836C887.117 426.651 887.349 426.681 887.526 426.74L887.69 426.795H887.826C887.853 426.802 887.897 426.816 887.931 426.826L887.967 426.838C888.033 426.867 888.126 426.902 888.24 426.924C890.675 427.573 893.085 428.511 895.407 429.715C897.135 430.605 898.788 431.685 900.317 432.926L900.329 432.935C901.35 433.74 902.346 434.628 903.368 435.646C904.48 436.76 905.392 437.796 906.159 438.815L906.168 438.828C907.238 440.205 908.162 441.578 908.915 442.91C909.808 444.541 910.513 445.93 911.05 447.409L911.054 447.422C911.702 449.144 912.229 450.983 912.619 452.886L912.625 452.922C912.771 453.691 912.91 454.417 913.001 455.153C913.095 456.044 913.191 456.964 913.236 457.925L913.239 457.954C913.285 458.583 913.285 459.171 913.239 459.805L913.235 460.223C913.235 460.644 913.184 461.14 913.144 461.476L913.137 461.536V461.598C913.137 461.624 913.131 461.668 913.123 461.723C913.11 461.822 913.092 461.957 913.091 462.122L913.065 462.17L913.045 462.372C912.911 463.703 912.679 465.014 912.339 466.378C911.979 467.727 911.591 468.94 911.153 470.081C910.56 471.618 909.848 473.058 909.038 474.359C907.909 476.162 906.717 477.74 905.495 479.048L905.474 479.071C904.807 479.827 904.052 480.495 903.253 481.203L903.17 481.276C902.137 482.178 900.967 483.034 899.688 483.818C897.885 484.939 896.03 485.827 894.171 486.461C893.1 486.833 891.82 487.247 890.461 487.495L890.425 487.503C889.757 487.648 889.132 487.742 888.497 487.834L888.458 487.84C887.974 487.928 887.53 487.971 887.015 488.019L886.719 488.044C886.256 488.08 885.819 488.116 885.365 488.116H883.407C882.935 488.116 882.408 488.071 881.899 488.028L881.804 488.02C880.934 487.97 880.042 487.873 879.226 487.74C878.137 487.551 877.07 487.357 875.991 487.076V487.078ZM823.828 488.02C823.085 487.973 822.323 487.843 821.472 487.691C819.608 487.368 817.743 486.814 815.927 486.044C814.658 485.512 813.434 484.892 812.292 484.204L812.27 484.191C811.074 483.509 809.861 482.649 808.562 481.56C807.843 480.94 807.143 480.327 806.497 479.636L806.474 479.612C805.322 478.458 804.245 477.159 803.271 475.75C802.654 474.823 801.863 473.59 801.193 472.254C800.52 470.857 800.006 469.61 799.624 468.446C799.607 468.329 799.57 468.181 799.484 468.027C799.385 467.755 799.314 467.511 799.246 467.25V467.159L799.217 467.039C798.917 465.782 798.682 464.594 798.502 463.41C798.326 462.037 798.264 460.533 798.316 458.94C798.355 457.838 798.508 456.579 798.785 455.091C799.066 453.727 799.447 452.399 799.916 451.141C800.325 450.033 800.877 448.869 801.653 447.476C802.297 446.352 803.121 445.208 804.324 443.773C805.034 442.969 805.733 442.271 806.525 441.575C807.583 440.638 808.811 439.747 810.275 438.852C811.744 438.016 813.071 437.404 814.34 436.98C815.608 436.546 816.825 436.221 818.069 435.988C818.694 435.866 819.368 435.776 820.02 435.69L820.235 435.662C821.237 435.567 822.237 435.519 823.203 435.519C823.93 435.519 824.675 435.567 825.358 435.659L825.391 435.663C827.092 435.838 828.9 436.064 830.588 436.517C832.15 436.941 833.632 437.532 834.87 438.224L835.164 438.389C837.018 439.429 838.935 440.503 840.534 441.834C841.248 442.433 842.172 443.231 842.984 444.099L842.992 444.106C844.16 445.33 845.028 446.376 845.723 447.399L845.739 447.422C847.032 449.222 848.114 451.172 849.048 453.382C849.61 454.763 850.009 456.016 850.266 457.219C850.451 458.057 850.641 458.956 850.788 459.865C850.811 460.123 850.834 460.371 850.857 460.619C850.88 460.859 850.903 461.1 850.925 461.352V461.451L850.929 461.551C850.976 462.042 850.976 462.496 850.976 463.021V463.412C850.976 463.938 850.976 464.391 850.929 464.876L850.924 465.27C850.924 465.35 850.914 465.459 850.905 465.576C850.893 465.718 850.879 465.878 850.878 466.039L850.848 466.098L850.831 466.314C850.731 467.563 850.467 468.737 850.219 469.731C849.686 471.961 848.772 474.188 847.499 476.353C846.722 477.687 845.742 478.986 844.504 480.325C843.2 481.728 841.78 482.943 840.286 483.936L840.274 483.945C838.573 485.108 836.617 486.071 834.454 486.811C833.119 487.28 831.645 487.63 829.953 487.883C829.286 487.979 828.532 488.03 827.934 488.07C827.087 488.121 826.207 488.121 825.357 488.121C825.223 488.121 825.062 488.109 824.893 488.097C824.697 488.084 824.494 488.069 824.288 488.069C824.266 488.067 824.215 488.06 824.181 488.056C824.083 488.043 823.962 488.027 823.831 488.024L823.828 488.02ZM859.92 396.736L859.936 396.743C862.296 397.746 864.391 398.951 866.164 400.327L866.178 400.337C867.409 401.261 868.567 402.299 869.82 403.604C870.879 404.713 871.869 405.949 872.845 407.387C873.883 408.906 874.791 410.647 875.62 412.709C875.974 413.652 876.396 414.841 876.702 416.09C876.649 416.097 876.602 416.104 876.562 416.11C876.54 416.114 876.517 416.118 876.494 416.121L876.443 416.123C875.588 416.176 874.77 416.276 873.941 416.428C872.473 416.631 871.004 416.937 869.574 417.337C868.022 417.737 866.496 418.246 865.044 418.845C862.594 419.836 860.326 421.023 858.299 422.374C856.614 423.499 855.069 424.7 853.575 426.045L853.566 426.053C852.287 427.231 851.089 428.479 849.903 429.865L849.888 429.883C848.901 431.094 848.075 432.236 847.368 433.369C847.246 433.565 847.124 433.759 847.003 433.954C846.925 434.078 846.847 434.203 846.769 434.327C846.244 433.896 845.697 433.477 845.072 433.029C843.869 432.13 842.596 431.315 841.287 430.606C839.595 429.643 837.779 428.798 835.574 427.949L835.554 427.942C834.116 427.421 832.898 427.052 831.721 426.781C830.363 426.442 829.14 426.211 827.984 426.075C827.266 425.98 826.498 425.885 825.73 425.83C825.665 425.57 825.604 425.294 825.574 425.038L825.553 424.855L825.484 424.718C825.478 424.689 825.469 424.633 825.462 424.591C825.451 424.526 825.44 424.45 825.423 424.369C825.413 424.289 825.399 424.221 825.386 424.166L825.358 424.042C825.227 423.481 825.135 422.86 825.091 422.244L825.084 422.182C825.061 422.008 825.049 421.836 825.038 421.654C825.026 421.479 825.015 421.299 824.991 421.099C824.944 420.456 824.9 419.777 824.942 419.158L824.944 419.088C824.944 418.111 825.04 417.143 825.133 416.213C825.269 414.91 825.544 413.535 825.928 412.235C826.421 410.556 827.05 409.014 827.799 407.648L827.811 407.626C828.511 406.275 829.426 404.902 830.526 403.553C831.936 401.86 833.578 400.359 835.404 399.095C837.597 397.585 840.089 396.432 842.811 395.668C844.395 395.261 845.844 394.998 847.245 394.864C848.271 394.762 849.181 394.73 850.028 394.77H850.078C850.949 394.771 851.823 394.863 852.748 394.96C852.861 394.974 854.587 395.183 856.075 395.439C857.472 395.788 858.766 396.226 859.922 396.739L859.92 396.736Z" fill="black"/>
<path d="M887.264 482.787H887.272C887.789 482.733 888.432 482.667 889.078 482.472C891.328 481.863 893.189 480.776 894.769 479.149L894.777 479.14C895.83 478.027 896.672 476.728 897.276 475.277L897.285 475.253C897.707 474.167 897.99 473.014 898.102 471.919C898.231 470.789 898.154 469.77 898.05 468.838V468.827C897.933 467.872 897.693 466.919 897.353 466.067C896.781 464.421 895.859 462.894 894.611 461.525C893.504 460.316 892.131 459.299 890.522 458.499C888.687 457.608 886.737 457.155 884.726 457.155C884.25 457.155 883.712 457.155 883.144 457.286C881.639 457.486 880.265 457.922 879.06 458.58C876.482 459.928 874.597 461.973 873.459 464.661L873.45 464.683C872.691 466.597 872.396 468.604 872.57 470.641C872.738 472.765 873.43 474.779 874.625 476.63C875.92 478.626 877.625 480.189 879.69 481.274C881.667 482.317 883.787 482.846 885.994 482.846C886.363 482.846 886.822 482.846 887.262 482.787H887.264ZM882.123 470.388C882.004 469.224 882.315 468.29 883.074 467.534C883.481 467.13 883.978 466.885 884.599 466.785C884.764 466.758 884.927 466.744 885.087 466.744C885.775 466.744 886.434 466.996 887.089 467.508C887.703 467.987 888.157 468.647 888.405 469.423C888.919 471.008 888.353 472.707 887.063 473.463C886.629 473.716 886.144 473.848 885.663 473.838C884.675 473.815 883.844 473.415 883.121 472.611L883.117 472.607C882.541 471.974 882.207 471.229 882.123 470.389V470.388Z" fill="black"/>
<path d="M827.565 468.695C828.742 466.733 829.339 464.557 829.339 462.23C829.339 460.953 829.159 459.67 828.806 458.414L828.794 458.375C828.148 456.384 827.138 454.63 825.79 453.161H825.789C824.382 451.631 822.702 450.473 820.798 449.718C819.616 449.249 818.368 448.953 817.087 448.837L817.06 448.835C816.087 448.772 815.174 448.794 814.355 448.898C812.922 449.073 811.57 449.49 810.336 450.137C808.503 451.03 806.992 452.345 805.85 454.034C804.258 456.346 803.54 458.971 803.715 461.837C803.776 462.786 803.911 463.644 804.128 464.464C804.442 465.637 804.969 466.835 805.739 468.125L805.753 468.147C806.48 469.297 807.294 470.269 808.25 471.12C809.279 472.024 810.332 472.714 811.461 473.224C813.305 474.076 815.147 474.49 817.094 474.49C817.44 474.49 817.782 474.477 818.14 474.453C819.907 474.326 821.55 473.844 823.023 473.02C824.891 472.019 826.417 470.567 827.565 468.697V468.695ZM813.98 463.486C813.529 462.873 813.289 462.184 813.267 461.438C813.245 460.549 813.501 459.818 814.051 459.203C814.417 458.791 814.876 458.529 815.379 458.443L815.394 458.44C816.509 458.233 817.433 458.591 818.304 459.568C818.71 460.02 818.984 460.595 819.142 461.321C819.178 461.49 819.183 461.702 819.187 461.928C819.17 463.017 818.799 463.818 818.052 464.379C817.469 464.818 816.847 464.978 816.151 464.869C815.267 464.727 814.558 464.276 813.979 463.486H813.98Z" fill="black"/>
</g>
<defs>
<clipPath id="clip0_602_1952">
<rect width="1500" height="1500" fill="white"/>
</clipPath>
</defs>
      
    </g>
    </svg>