<svg
      xmlns="http://www.w3.org/2000/svg"
      preserveAspectRatio="xMidYMin meet"
      fill="none"
      viewBox="0 0 1500 1500"
    >
      <g>
      <path fill="url(#prefix__paint0_linear_53_28788)" d="M0 0h1500v1500H0z"/><defs><linearGradient id="prefix__paint0_linear_53_28788" x1="0" y1="0" x2="1500" y2="1500" gradientUnits="userSpaceOnUse">
<stop stop-color="#DBE4E4"/>
<stop offset="1" stop-color="#A7BDBD"/>
</linearGradient></defs>
      <g clip-path="url(#clip0_491_602)">
<path d="M773 1011.5C543.4 1029.9 398.667 1353.5 355 1513H1138.5C1075.7 1127 868.667 1017.83 773 1011.5Z" fill="#4AEEB9"/>
<path d="M409 1362.5L354 1512.5H651.5V1444.5L409 1362.5Z" fill="#AABBFF"/>
<path d="M1039.5 1426.5L1046 1512.5L1142.5 1504L1111 1393L1039.5 1426.5Z" fill="#AABBFF"/>
<path d="M749.5 1019.5C536 1134 457.448 1414.63 443.159 1511H353.699C350.414 1508.73 357.049 1471.27 409.87 1339.62C462.691 1207.98 569.086 1113.24 605.384 1082.33L674 1033.5L749.5 1019.5Z" fill="#001647" fill-opacity="0.2"/>
<path d="M353.5 1519.5C365.5 1454.33 414.5 1313.6 483.5 1219C530.101 1155.11 577.468 1101.29 629.141 1059.66C710.278 994.299 826.037 996.323 905.02 1064.27C1000.08 1146.05 1103.44 1290.29 1142.5 1519.5M1013.5 1319C1024.83 1354.33 1048.1 1443.9 1050.5 1519.5M667 1361.5C661.167 1392.33 650.3 1467.1 653.5 1519.5M408.5 1360.5L651 1446.5M1040.5 1424C1056.33 1421.5 1091.7 1411.6 1106.5 1392" stroke="black" stroke-width="22" stroke-linecap="round"/>
<path d="M867.641 1286.42C866.902 1286.51 866.6 1287.42 867.137 1287.94L889.399 1309.38C889.724 1309.69 889.763 1310.2 889.487 1310.56L845.736 1367.62C845.414 1368.04 844.798 1368.08 844.419 1367.71L798.316 1322.73C797.939 1322.36 797.327 1322.41 797.003 1322.82L732.188 1406.08C731.91 1406.44 731.944 1406.95 732.267 1407.27L756.242 1430.75C756.621 1431.12 757.238 1431.07 757.561 1430.65L800.516 1374.42C800.836 1374 801.447 1373.96 801.828 1374.32L847.917 1418.39C848.295 1418.75 848.9 1418.71 849.223 1418.3L914.727 1334.57C915.038 1334.17 915.618 1334.12 916 1334.45L940.538 1355.72C941.134 1356.24 942.056 1355.77 941.997 1354.98L936.341 1278.82C936.303 1278.32 935.852 1277.94 935.35 1278.01L867.641 1286.42Z" fill="white"/>
</g>
<defs>
<clipPath id="clip0_491_602">
<rect width="1500" height="1500" fill="white"/>
</clipPath>
</defs>
      <g clip-path="url(#clip0_497_1194)">
<path d="M379.667 654.812C432.345 471.574 618.472 401.981 699.114 390.653C740.985 382.718 849.655 375.215 949.364 408.675C980 418.956 1049.88 457.388 1091.92 499.818C1144.47 552.856 1272.97 732.052 1185.05 927.725C1097.12 1123.4 758.414 1092.29 612.749 1051.82C464.472 1010.63 314.48 881.563 379.667 654.812Z" fill="#AABBFF"/>
<path d="M449.293 747.204C454.734 531.068 585.306 432.345 649.911 410C432.292 459.565 365.296 655.455 364 747.204C377.99 984.871 584.496 1053.43 681 1058C601.498 1044.46 443.853 963.339 449.293 747.204Z" fill="#001647" fill-opacity="0.2"/>
<path d="M379.667 654.812C432.345 471.574 618.472 401.981 699.114 390.653C740.985 382.718 849.655 375.215 949.364 408.675C980 418.956 1049.88 457.388 1091.92 499.818C1144.47 552.856 1272.97 732.052 1185.05 927.725C1097.12 1123.4 758.414 1092.29 612.749 1051.82C464.472 1010.63 314.48 881.563 379.667 654.812Z" stroke="black" stroke-width="22" stroke-linecap="round"/>
</g>
<defs>
    <clipPath id="prefix__clip0_299_662"><path fill="#fff" d="M0 0h1500v1500H0z"/></clipPath>
</defs>
      <g clip-path="url(#clip0_624_3204)">
<path d="M876.086 925.246H970.499" stroke="black" stroke-width="22" stroke-linecap="round"/>
<path d="M865.708 768.06L844.448 768.047L821.695 768.027L792.828 768" stroke="black" stroke-width="22" stroke-linecap="round"/>
<path d="M850.019 773.927C852.061 777.245 853.087 781.09 852.968 784.985C852.85 788.88 851.593 792.655 849.352 795.844C847.112 799.032 843.986 801.494 840.361 802.925C836.737 804.357 832.772 804.695 828.958 803.897C825.143 803.1 821.646 801.202 818.898 798.439C816.15 795.676 814.273 792.168 813.497 788.349C812.721 784.53 813.081 780.567 814.533 776.951C815.985 773.334 818.464 770.223 821.665 768H844.419C846.675 769.567 848.582 771.585 850.019 773.927Z" fill="black" stroke="black" stroke-width="22" stroke-linecap="round"/>
<path d="M1033.71 768L1004.83 768.027L982.081 768.047L960.828 768.06" stroke="black" stroke-width="22" stroke-linecap="round"/>
<path d="M976.506 773.926C974.456 777.243 973.423 781.087 973.536 784.985C973.648 788.882 974.9 792.661 977.138 795.854C979.376 799.047 982.5 801.513 986.125 802.949C989.75 804.385 993.716 804.726 997.533 803.931C1001.35 803.136 1004.85 801.24 1007.6 798.476C1010.35 795.713 1012.23 792.203 1013.01 788.383C1013.78 784.562 1013.42 780.597 1011.97 776.979C1010.52 773.361 1008.04 770.248 1004.83 768.026H982.079C979.837 769.59 977.94 771.598 976.506 773.926Z" fill="black" stroke="black" stroke-width="22" stroke-linecap="round"/>
</g>
<defs>
<clipPath id="clip0_624_3204">
<rect width="1500" height="1500" fill="white"/>
</clipPath>
</defs>
      <g clip-path="url(#clip0_925_1145)">
<path d="M1185.05 927.725C1097.12 1123.4 758.414 1092.29 612.749 1051.82C504.292 1021.69 394.918 944.548 369.504 816.551C369.315 815.6 370.389 814.872 371.115 815.515C434.364 871.473 683.76 932.969 904.561 837.979C919.236 831.666 936.246 834.058 950.385 841.496C1012.61 874.234 1135.31 886.116 1210.95 828.952C1211.66 828.418 1212.67 828.985 1212.56 829.865C1208.69 861.649 1200 894.449 1185.05 927.725Z" fill="#3A3A3A" stroke="black" stroke-width="22" stroke-linecap="round"/>
<path d="M703 1070C616.2 1020 547 924 542 873L518 870.5L427.5 847.5L371.5 823C415.5 1007.4 610.833 1064.5 703 1070Z" fill="black" fill-opacity="0.2"/>
</g>
<defs>
<clipPath id="clip0_925_1145">
<rect width="1500" height="1500" fill="white"/>
</clipPath>
</defs>
      <g clip-path="url(#clip0_501_1469)">
<path d="M345 652C344.833 676.167 344.6 725.1 345 727.5L385 718L533.5 670.5L668.5 631.5L893 606L1044 612.5L1198.5 642C1198.67 636 1198.9 623.1 1198.5 619.5C1198 615 1194 597 1191.5 584C1189 571 1187.5 576.5 1185 571C1182.5 565.5 1176 556.5 1170 547.5C1165.2 540.3 1149 526.5 1141.5 520.5L1115.5 495L1071 455.5L997 398.5L893 344.5C882.167 339.167 844.7 325.2 781.5 312C718.3 298.8 665.5 331.167 647 349L584 363.5C484 413.5 414 526.333 391.5 576.5L365 591L345 652Z" fill="#99C4CB"/>
<path d="M577.5 516.999L583.5 657.5L405.5 710L347 734.5V698L360.5 594L391 578L422 512.5L488.5 436.5L547.5 388.5L623.5 356.5L683.5 326.5C615.5 373 586.5 448 577.5 483.499C860.3 405.899 1042.67 444.833 1098.5 473.999L1123 506.999L1032.5 483.499L913 473.999L740 483.499L577.5 516.999Z" fill="#001647" fill-opacity="0.2"/>
<path d="M391.529 573.956C419.255 510.862 516.308 375.748 649 346.316M636.117 359.987C657.752 332.613 719.007 288.028 795.763 320.216C801.571 322.651 807.621 324.342 813.864 325.167C883.382 334.353 1037.28 390.105 1136.68 516.12M450.943 554.701C417.562 566.596 390.059 577.818 370.832 586.784C369.151 587.568 367.764 588.845 366.894 590.484C346.466 628.965 342.694 690.701 344.345 725.675C344.658 732.317 352.028 735.865 357.843 732.64C378.396 721.244 408.233 708.086 445.001 694.619M450.943 554.701C442.691 569.593 429.95 618.425 445.001 694.619M450.943 554.701C487.517 541.669 531.148 527.828 578.684 515.261M445.001 694.619C484.265 680.237 531.431 665.503 583.635 652.186M578.684 515.261C574.558 538.57 569.772 598.588 583.635 652.186M578.684 515.261C617.576 504.979 659.081 495.549 701.473 488.111M583.635 652.186C622.942 642.159 665.105 632.934 708.9 625.269M701.473 488.111C726.86 483.657 752.565 479.918 778.217 477.137C795.009 475.317 811.175 473.937 826.738 472.951M701.473 488.111C696.522 506.076 691.076 558.657 708.9 625.269M708.9 625.269C757.929 616.687 809.003 610.058 860.407 606.442M826.738 472.951C833.175 488.904 848.92 537.937 860.407 606.442M826.738 472.951C880.913 469.518 927.787 470.862 968.343 475.053M860.407 606.442C908.616 603.051 957.115 602.31 1004.49 605.094M968.343 475.053C979.73 494.893 1002.9 548.677 1004.49 605.094M968.343 475.053C1010.26 479.385 1045.42 486.76 1074.92 495.048M1004.49 605.094C1043.47 607.384 1081.69 612.062 1118.36 619.614M1074.92 495.048C1089.39 499.115 1102.5 503.401 1114.37 507.657C1149.48 520.241 1178.51 545.737 1190.09 581.193C1196.1 599.603 1201.58 620.481 1205.38 641.185C1205.66 642.708 1204.17 643.944 1202.72 643.408C1175.85 633.484 1147.6 625.636 1118.36 619.614M1074.92 495.048C1088.41 514.031 1115.99 565.519 1118.36 619.614" stroke="black" stroke-width="21" stroke-linecap="round"/>
</g>
<defs>
<clipPath id="clip0_501_1469">
<rect width="1500" height="1500" fill="white"/>
</clipPath>
</defs>
      
    </g>
    </svg>