<svg
      xmlns="http://www.w3.org/2000/svg"
      preserveAspectRatio="xMidYMin meet"
      fill="none"
      viewBox="0 0 1500 1500"
    >
      <g>
      <path fill="url(#prefix__paint0_linear_53_28789)" d="M0 0h1500v1500H0z"/><defs><linearGradient id="prefix__paint0_linear_53_28789" x1="1500" y1="1500" x2="0" y2="0" gradientUnits="userSpaceOnUse">
<stop stop-color="#FFD130"/>
<stop offset="1" stop-color="#FFEEDB"/>
</linearGradient></defs>
      <g clip-path="url(#clip0_482_324)">
<path d="M407.5 1353.5L353.5 1511H1139L1134.5 1455.5L1054 1252L962.5 1115V1063C940.833 1067.67 875.7 1076.5 788.5 1074.5C701.3 1072.5 610.833 1044.67 576.5 1031L581 1103.5L493.5 1201.5L407.5 1353.5Z" fill="white"/>
<path d="M409.87 1339.62C462.691 1207.98 547.202 1128.91 583.5 1098L575.5 1067.5L591.5 1027.5L634.5 1042L631.597 1111L764 1133L780 1511H754.5L740.5 1158C693.7 1155.2 635.274 1140.17 611.91 1133C500.28 1264.53 453.823 1439.08 443.159 1511H353.699C350.414 1508.73 357.049 1471.27 409.87 1339.62Z" fill="#001647" fill-opacity="0.2"/>
<path d="M353.5 1519.5C365.5 1454.33 414.5 1313.6 483.5 1219C516.929 1173.17 550.751 1132.52 586.275 1097.84M1142.5 1519.5C1110.35 1330.88 1034.67 1199.8 955.894 1113.71M1013.5 1319C1024.83 1354.33 1048.1 1443.9 1050.5 1519.5M667 1361.5C661.167 1392.33 650.3 1467.1 653.5 1519.5M767.5 1135C771 1222.17 780.5 1379.5 783.5 1512.5M586.275 1097.84C583.015 1096.62 579.96 1095.42 577.118 1094.25C576.743 1094.1 576.5 1093.74 576.5 1093.33V1028.5C730.5 1092.9 897.667 1077 962 1061V1112C959.965 1112.58 957.929 1113.16 955.894 1113.71M586.275 1097.84C652.817 1122.64 804.285 1155.24 955.894 1113.71M843.729 1186.27C843.511 1195.1 836.174 1202.09 827.34 1201.87C818.506 1201.65 811.521 1194.32 811.739 1185.48C811.956 1176.65 819.294 1169.66 828.128 1169.88C836.962 1170.1 843.947 1177.44 843.729 1186.27ZM847.831 1263.39C847.613 1272.23 840.275 1279.21 831.441 1279C822.607 1278.78 815.623 1271.44 815.84 1262.61C816.058 1253.77 823.396 1246.79 832.23 1247.01C841.063 1247.22 848.048 1254.56 847.831 1263.39ZM852.833 1340.52C852.616 1349.35 845.278 1356.34 836.444 1356.12C827.61 1355.9 820.625 1348.56 820.843 1339.73C821.061 1330.9 828.399 1323.91 837.232 1324.13C846.066 1324.35 853.051 1331.68 852.833 1340.52ZM856.008 1418.64C855.791 1427.48 848.453 1434.46 839.619 1434.24C830.785 1434.03 823.8 1426.69 824.018 1417.85C824.236 1409.02 831.573 1402.04 840.407 1402.25C849.241 1402.47 856.226 1409.81 856.008 1418.64ZM861.184 1492.79C860.966 1501.63 853.629 1508.61 844.795 1508.39C835.961 1508.18 828.976 1500.84 829.194 1492C829.411 1483.17 836.749 1476.19 845.583 1476.4C854.417 1476.62 861.402 1483.96 861.184 1492.79ZM913.807 1184C913.589 1192.83 906.252 1199.82 897.418 1199.6C888.584 1199.38 881.599 1192.04 881.817 1183.21C882.034 1174.37 889.372 1167.39 898.206 1167.61C907.04 1167.82 914.025 1175.16 913.807 1184ZM917.908 1261.12C917.69 1269.95 910.352 1276.94 901.518 1276.72C892.684 1276.5 885.7 1269.16 885.917 1260.33C886.135 1251.5 893.473 1244.51 902.307 1244.73C911.141 1244.95 918.125 1252.29 917.908 1261.12ZM922.911 1338.24C922.693 1347.08 915.355 1354.06 906.521 1353.84C897.687 1353.63 890.703 1346.29 890.92 1337.45C891.138 1328.62 898.476 1321.64 907.31 1321.85C916.143 1322.07 923.128 1329.41 922.911 1338.24ZM926.086 1416.37C925.869 1425.2 918.531 1432.19 909.697 1431.97C900.863 1431.75 893.878 1424.41 894.096 1415.58C894.314 1406.75 901.651 1399.76 910.485 1399.98C919.319 1400.2 926.304 1407.54 926.086 1416.37ZM931.261 1490.52C931.043 1499.35 923.706 1506.34 914.872 1506.12C906.038 1505.9 899.053 1498.56 899.271 1489.73C899.489 1480.9 906.826 1473.91 915.66 1474.13C924.494 1474.35 931.479 1481.68 931.261 1490.52Z" stroke="black" stroke-width="22" stroke-linecap="round"/>
</g>
<defs>
<clipPath id="clip0_482_324">
<rect width="1500" height="1500" fill="white"/>
</clipPath>
</defs>
      <g clip-path="url(#clip0_497_1194)">
<path d="M379.667 654.812C432.345 471.574 618.472 401.981 699.114 390.653C740.985 382.718 849.655 375.215 949.364 408.675C980 418.956 1049.88 457.388 1091.92 499.818C1144.47 552.856 1272.97 732.052 1185.05 927.725C1097.12 1123.4 758.414 1092.29 612.749 1051.82C464.472 1010.63 314.48 881.563 379.667 654.812Z" fill="#AABBFF"/>
<path d="M449.293 747.204C454.734 531.068 585.306 432.345 649.911 410C432.292 459.565 365.296 655.455 364 747.204C377.99 984.871 584.496 1053.43 681 1058C601.498 1044.46 443.853 963.339 449.293 747.204Z" fill="#001647" fill-opacity="0.2"/>
<path d="M379.667 654.812C432.345 471.574 618.472 401.981 699.114 390.653C740.985 382.718 849.655 375.215 949.364 408.675C980 418.956 1049.88 457.388 1091.92 499.818C1144.47 552.856 1272.97 732.052 1185.05 927.725C1097.12 1123.4 758.414 1092.29 612.749 1051.82C464.472 1010.63 314.48 881.563 379.667 654.812Z" stroke="black" stroke-width="22" stroke-linecap="round"/>
</g>
<defs>
    <clipPath id="prefix__clip0_299_662"><path fill="#fff" d="M0 0h1500v1500H0z"/></clipPath>
</defs>
      <g clip-path="url(#clip0_624_3293)">
<path d="M916.488 918.577L931.325 908.854C933.985 907.112 936.223 904.799 937.876 902.083C939.529 899.367 940.556 896.317 940.882 893.154C941.208 889.991 940.825 886.795 939.761 883.799C938.697 880.803 936.978 878.082 934.73 875.834V875.834C932.657 873.764 930.181 872.142 927.456 871.068C924.731 869.994 921.814 869.491 918.886 869.59C915.959 869.689 913.083 870.388 910.436 871.643C907.79 872.899 905.429 874.684 903.501 876.889L890.301 891.98" stroke="black" stroke-width="22" stroke-miterlimit="10" stroke-linecap="round"/>
<path d="M916.488 918.675L931.325 928.397C933.986 930.137 936.225 932.449 937.879 935.164C939.533 937.88 940.561 940.93 940.887 944.092C941.213 947.255 940.83 950.451 939.764 953.446C938.699 956.442 936.979 959.162 934.73 961.409V961.409C932.66 963.484 930.185 965.11 927.46 966.188C924.734 967.265 921.817 967.77 918.888 967.672C915.959 967.574 913.081 966.874 910.434 965.617C907.787 964.359 905.427 962.57 903.501 960.362L890.301 945.271" stroke="black" stroke-width="22" stroke-miterlimit="10" stroke-linecap="round"/>
<path d="M1012 817C1038.51 817 1060 795.51 1060 769C1060 742.49 1038.51 721 1012 721C985.49 721 964 742.49 964 769C964 795.51 985.49 817 1012 817Z" fill="black" stroke="black" stroke-width="22" stroke-miterlimit="10"/>
<path d="M1025.18 765.61C1035.8 765.61 1044.4 757.009 1044.4 746.398C1044.4 735.788 1035.8 727.186 1025.18 727.186C1014.57 727.186 1005.97 735.788 1005.97 746.398C1005.97 757.009 1014.57 765.61 1025.18 765.61Z" fill="white"/>
<path d="M994.295 774.185C998.822 774.185 1002.49 770.515 1002.49 765.988C1002.49 761.461 998.822 757.791 994.295 757.791C989.768 757.791 986.098 761.461 986.098 765.988C986.098 770.515 989.768 774.185 994.295 774.185Z" fill="white"/>
<path d="M1018.1 800.697C1026.05 800.697 1032.49 794.254 1032.49 786.307C1032.49 778.359 1026.05 771.917 1018.1 771.917C1010.16 771.917 1003.71 778.359 1003.71 786.307C1003.71 794.254 1010.16 800.697 1018.1 800.697Z" fill="white"/>
<path d="M822 817C848.51 817 870 795.51 870 769C870 742.49 848.51 721 822 721C795.49 721 774 742.49 774 769C774 795.51 795.49 817 822 817Z" fill="black" stroke="black" stroke-width="22" stroke-miterlimit="10"/>
<path d="M835.185 765.61C845.795 765.61 854.397 757.009 854.397 746.398C854.397 735.788 845.795 727.186 835.185 727.186C824.574 727.186 815.973 735.788 815.973 746.398C815.973 757.009 824.574 765.61 835.185 765.61Z" fill="white"/>
<path d="M804.295 774.185C808.822 774.185 812.492 770.515 812.492 765.988C812.492 761.461 808.822 757.791 804.295 757.791C799.768 757.791 796.098 761.461 796.098 765.988C796.098 770.515 799.768 774.185 804.295 774.185Z" fill="white"/>
<path d="M828.103 800.697C836.051 800.697 842.493 794.254 842.493 786.307C842.493 778.359 836.051 771.917 828.103 771.917C820.156 771.917 813.713 778.359 813.713 786.307C813.713 794.254 820.156 800.697 828.103 800.697Z" fill="white"/>
</g>
<defs>
<clipPath id="clip0_624_3293">
<rect width="1500" height="1500" fill="white"/>
</clipPath>
</defs>
      <g clip-path="url(#clip0_911_278)">
<path d="M741 865.42V871.56C741.01 872.669 740.781 873.767 740.33 874.78C739.07 877.64 736.99 877.78 736.99 877.78C735.893 878.033 734.754 878.046 733.651 877.818C732.548 877.59 731.507 877.127 730.6 876.46C727.96 874.35 721.36 856.25 721.36 856.25L708.65 876.46H700L717.8 848.25L712.21 836.66C711.84 835.888 711.265 835.233 710.547 834.767C709.828 834.301 708.996 834.043 708.14 834.02H708C707.225 833.94 706.442 834.054 705.721 834.351C705.001 834.647 704.365 835.118 703.87 835.72C702.98 836.61 702.66 839.5 702.66 839.5L700.88 839.63C700.634 837.881 700.59 836.109 700.75 834.35C700.862 833.001 701.324 831.705 702.09 830.59C702.61 829.783 703.325 829.12 704.169 828.664C705.014 828.208 705.96 827.972 706.92 827.98C708.535 827.979 710.11 828.479 711.43 829.41C712.762 830.35 713.801 831.646 714.43 833.15L719.69 846.2L731.13 828.8H739L723.2 853.31L727.14 862.63C727.14 862.63 730.14 871.63 734.45 871.63C738.76 871.63 739.16 865.41 739.16 865.41L741 865.42Z" fill="black"/>
</g>
<defs>
<clipPath id="clip0_911_278">
<rect width="1500" height="1500" fill="white"/>
</clipPath>
</defs>
      <g clip-path="url(#clip0_771_500)">
<path d="M541.871 495.065L587.182 433.652L629.473 408.913L646.704 407.796L676.33 472.397L693.385 523.112C693.385 523.112 715.562 570.5 681.005 575.31C646.449 580.119 608.181 572.626 608.181 572.626L565.711 562.432L513.348 577.749C513.348 577.749 476.548 643.595 440.109 658.042C403.671 672.488 405.928 656.924 405.928 656.924L371.793 591.795L355.943 518.828C355.943 518.828 344.954 493.682 397.049 493.786C449.144 493.891 487.355 512.484 487.355 512.484L541.871 495.065Z" fill="#4AEEB9"/>
<path d="M430.677 533.465C430.359 517.2 437.959 506.756 441.799 503.567L436.237 497.189L386.586 496.392L356 503.567L365.533 553.795L398.105 643.886L418.76 669L476.356 630.333L513.297 580.105L500.189 545.424L460.467 560.173C460.467 566.817 458.322 579.228 449.743 575.72C439.018 571.335 431.074 553.795 430.677 533.465Z" fill="#001647" fill-opacity="0.2"/>
<path d="M540.307 564.957C516.475 543.59 516.607 516.191 519.652 505.162L494.231 510.344L513.297 572.929L540.307 564.957Z" fill="#001647" fill-opacity="0.2"/>
<path d="M623.325 520.708C629.363 504.125 617.632 495.993 611.012 494C605.848 500.378 595.441 513.294 595.123 513.932C594.805 514.569 573.806 524.296 563.346 529.08C563.214 535.059 564.22 547.178 569.304 547.815C575.66 548.613 615.778 541.437 623.325 520.708Z" fill="#001647" fill-opacity="0.2"/>
<path d="M544.174 494.298L490.359 513.598L513.366 577.748L567.181 558.448L544.174 494.298Z" stroke="black" stroke-width="22" stroke-miterlimit="10"/>
<path d="M567.212 557.978C567.212 557.978 631.445 590.594 691.537 572.212C694.695 571.234 697.408 569.182 699.202 566.414C700.996 563.646 701.758 560.337 701.353 557.066C694.958 504.637 676.725 454.333 648.025 409.934L647.939 409.808C646.161 407.043 643.468 404.985 640.326 403.993C637.185 403.002 633.794 403.138 630.743 404.378C572.608 428.212 543.822 494.106 543.822 494.106" stroke="black" stroke-width="22" stroke-miterlimit="10"/>
<path d="M490.33 513.988C490.33 513.988 426.095 481.367 365.986 499.752C362.829 500.728 360.115 502.779 358.321 505.546C356.526 508.314 355.764 511.622 356.168 514.892V514.892C362.559 567.323 380.786 617.629 409.481 662.033L409.567 662.166C411.347 664.929 414.042 666.984 417.184 667.973C420.326 668.962 423.716 668.823 426.766 667.581C484.91 643.751 513.7 577.847 513.7 577.847" stroke="black" stroke-width="22" stroke-miterlimit="10"/>
<path d="M555.844 526.597C555.844 526.597 592.013 530.268 604.537 494.857" stroke="black" stroke-width="22" stroke-miterlimit="10" stroke-linecap="round"/>
<path d="M501.683 546.407C501.683 546.407 460.223 543.612 454.093 578.202" stroke="black" stroke-width="22" stroke-miterlimit="10" stroke-linecap="round"/>
<path d="M711.94 381.541L669.138 415.004L754.914 456.956C786.09 456.451 856.04 454.579 886.429 451.127C916.817 447.675 946.703 430.594 957.848 422.485L912.882 387.272L890.772 360.146L852.07 352.844L816.711 388.83L811.119 369.892L779.2 357.196L748.101 362.456L711.94 381.541Z" fill="#AABBFF"/>
<path d="M754.823 451.145C758.386 440.393 766.661 423.631 780.081 411.559M882.17 449.083C878.062 439.675 870.922 425.659 859.411 414.501M670.743 416.037C678.291 403.405 696.028 378.1 722.448 377.672C724.832 377.634 727.122 377.712 729.323 377.895M780.081 411.559C789.433 403.145 801.285 397.009 815.783 396.774C818.147 396.736 820.438 396.825 822.658 397.03M780.081 411.559C771.884 400.903 758.35 380.305 729.323 377.895M953.095 422.563C946.826 410.677 929.573 387.795 908.089 385.052M859.411 414.501C864.186 404.755 879.655 385.169 903.328 384.785C904.936 384.759 906.524 384.852 908.089 385.052M859.411 414.501C850.192 405.565 838.17 398.463 822.658 397.03M729.323 377.895C734.108 368.72 747.587 350.309 768.512 349.97C795.461 349.534 817.557 375.809 822.658 397.03M908.089 385.052C903.334 374.267 889.367 351.713 871.612 352C849.419 352.36 832.274 370.674 822.592 392.964" stroke="black" stroke-width="22" stroke-linecap="round"/>
</g>
<defs>
<clipPath id="clip0_771_500">
<rect width="1500" height="1500" fill="white"/>
</clipPath>
</defs>
      
    </g>
    </svg>