<svg
      xmlns="http://www.w3.org/2000/svg"
      preserveAspectRatio="xMidYMin meet"
      fill="none"
      viewBox="0 0 1500 1500"
    >
      <g>
      <path fill="url(#prefix__paint0_linear_53_30459)" d="M0 0h1500v1500H0z"/><defs><linearGradient id="prefix__paint0_linear_53_30459" x1="0" y1="0" x2="1500" y2="1500" gradientUnits="userSpaceOnUse">
<stop stop-color="#FFCB9F"/>
<stop offset="1" stop-color="#FF7F11"/>
</linearGradient></defs>
      <g clip-path="url(#clip0_481_295)">
<path d="M380.5 1417.5L349.5 1509L1140 1510L1111 1376.5L1038 1230L991.5 1152C965.167 1110.5 892.5 1024.6 812.5 1013C732.5 1001.4 660.167 1039.17 634 1059.5L568.5 1115.5L465 1243.5L380.5 1417.5Z" fill="#265CC2"/>
<path d="M409.87 1339.62C462.691 1207.98 569.086 1113.24 605.384 1082.33L632.5 1058L637.5 1059.48C599.917 1079.63 651 1067.5 648.91 1093.5L659.5 1099.5L764.5 1175C714.1 1177.8 656.5 1131.81 634 1108.47C506.332 1241.92 454.501 1434.51 443.159 1511H353.699C350.414 1508.73 357.049 1471.27 409.87 1339.62Z" fill="#001647" fill-opacity="0.2"/>
<path d="M842 1179L826.5 1505H806L819 1213.5L824 1160.5L871.5 1156.5C874.333 1159.5 879.4 1166.7 877 1171.5C874.6 1176.3 852.667 1178.5 842 1179Z" fill="#001647" fill-opacity="0.2"/>
<path d="M804 1171.5L782.5 1505H798.5L817.5 1158L794 1147.5C788.667 1150.5 779.2 1157.3 784 1160.5C788.8 1163.7 799.333 1169.17 804 1171.5Z" fill="#001647" fill-opacity="0.2"/>
<path d="M887.5 1154.5C899.9 1168.5 916.667 1168.33 921 1167.5L899 1147.5L887.5 1154.5Z" fill="#001647" fill-opacity="0.2"/>
<path d="M550 1130.5L486 1207L466 1181.5L522.5 1113.5L550 1130.5Z" fill="#FFBF44"/>
<path d="M1014.5 1126.5L988.5 1145.5L1034 1215.5L1059.5 1197L1014.5 1126.5Z" fill="#FFBF44"/>
<path d="M821.5 1160L798 1507.5H936L875 1145L902.5 1139.5L842.5 1101L792 1145L821.5 1160Z" fill="#3A3A3A"/>
<path d="M353.5 1519.5C365.5 1454.33 414.5 1313.6 483.5 1219C529.307 1156.2 575.854 1103.13 626.504 1061.8M1142.5 1519.5C1103.44 1290.29 1000.08 1146.05 905.02 1064.27C826.037 996.323 710.273 994.302 629.137 1059.66C628.258 1060.37 627.38 1061.08 626.504 1061.8M1013.5 1319C1024.83 1354.33 1048.1 1443.9 1050.5 1519.5M667 1361.5C661.167 1392.33 650.3 1467.1 653.5 1519.5M926 1087C934.762 1114.34 929.833 1141.11 925.003 1154.27C924.105 1156.72 921.076 1157.36 919.054 1155.71C913.678 1151.34 905.408 1144.87 896 1137.66M793.42 1142.5C783.296 1151.26 773.753 1159.03 766.905 1164.4C766.012 1165.1 764.867 1165.39 763.753 1165.17C707.225 1153.99 651.021 1094.56 626.504 1061.8M793.42 1142.5C809.829 1128.31 827.763 1111.55 838.219 1098.32C839.228 1097.04 841.056 1096.75 842.381 1097.69C856.424 1107.73 878.238 1124.04 896 1137.66M793.42 1142.5C800.317 1146.99 810.966 1152 823.5 1154.93M896 1137.66C888.793 1144.19 881.197 1148.81 873.5 1151.94M823.5 1154.93L802 1508M823.5 1154.93C838.529 1158.44 856.268 1158.95 873.5 1151.94M873.5 1151.94L932.5 1508M490.5 1205L465.114 1181.08C464.759 1180.74 464.686 1180.22 464.956 1179.81C476.299 1162.78 502.545 1125.78 528.398 1111.33C528.762 1111.13 529.209 1111.18 529.524 1111.45L551.5 1130.5M985 1137.5L1007.7 1116.72C1008.13 1116.33 1008.79 1116.37 1009.15 1116.83C1022.41 1133.79 1048.09 1165.95 1060.15 1190.77C1060.36 1191.2 1060.22 1191.71 1059.83 1191.99L1034 1211.5" stroke="black" stroke-width="22" stroke-linecap="round"/>
<path d="M948.828 1225.43C949.312 1222.29 953.697 1221.96 954.654 1224.98L960.57 1243.69C960.99 1245.01 962.271 1245.88 963.66 1245.77L979.699 1244.54C982.357 1244.34 983.941 1247.44 982.216 1249.47L968.853 1265.21C968.185 1266 967.969 1267.08 968.28 1268.06L975.083 1289.57C975.995 1292.45 972.547 1294.72 970.259 1292.74L958.271 1282.36C957.01 1281.27 955.1 1281.42 954.02 1282.69L943.759 1294.78C941.801 1297.08 938.046 1295.37 938.507 1292.38L941.944 1270.08C942.101 1269.06 941.723 1268.03 940.943 1267.36L925.332 1253.84C923.316 1252.1 924.408 1248.79 927.066 1248.58L943.104 1247.35C944.494 1247.25 945.627 1246.2 945.839 1244.82L948.828 1225.43Z" fill="#FFBF44"/>
</g>
<defs>
<clipPath id="clip0_481_295">
<rect width="1500" height="1500" fill="white"/>
</clipPath>
</defs>
      <g clip-path="url(#clip0_497_1194)">
<path d="M379.667 654.812C432.345 471.574 618.472 401.981 699.114 390.653C740.985 382.718 849.655 375.215 949.364 408.675C980 418.956 1049.88 457.388 1091.92 499.818C1144.47 552.856 1272.97 732.052 1185.05 927.725C1097.12 1123.4 758.414 1092.29 612.749 1051.82C464.472 1010.63 314.48 881.563 379.667 654.812Z" fill="#AABBFF"/>
<path d="M449.293 747.204C454.734 531.068 585.306 432.345 649.911 410C432.292 459.565 365.296 655.455 364 747.204C377.99 984.871 584.496 1053.43 681 1058C601.498 1044.46 443.853 963.339 449.293 747.204Z" fill="#001647" fill-opacity="0.2"/>
<path d="M379.667 654.812C432.345 471.574 618.472 401.981 699.114 390.653C740.985 382.718 849.655 375.215 949.364 408.675C980 418.956 1049.88 457.388 1091.92 499.818C1144.47 552.856 1272.97 732.052 1185.05 927.725C1097.12 1123.4 758.414 1092.29 612.749 1051.82C464.472 1010.63 314.48 881.563 379.667 654.812Z" stroke="black" stroke-width="22" stroke-linecap="round"/>
</g>
<defs>
    <clipPath id="prefix__clip0_299_662"><path fill="#fff" d="M0 0h1500v1500H0z"/></clipPath>
</defs>
      <g clip-path="url(#clip0_624_3413)">
<path d="M922.5 969C931.895 969 941.078 966.214 948.89 960.995C956.701 955.775 962.789 948.357 966.384 939.677C969.979 930.998 970.92 921.447 969.087 912.233C967.254 903.019 962.731 894.555 956.088 887.912C949.445 881.269 940.981 876.746 931.767 874.913C922.553 873.08 913.002 874.021 904.323 877.616C895.643 881.211 888.225 887.299 883.005 895.11C877.786 902.922 875 912.105 875 921.5C875 927.738 876.229 933.914 878.616 939.677C881.003 945.44 884.502 950.677 888.912 955.088C893.323 959.498 898.56 962.997 904.323 965.384C910.085 967.771 916.262 969 922.5 969Z" fill="white" stroke="black" stroke-width="22" stroke-miterlimit="10" stroke-linecap="round"/>
<path d="M822 818C849.062 818 871 796.062 871 769C871 741.938 849.062 720 822 720C794.938 720 773 741.938 773 769C773 796.062 794.938 818 822 818Z" fill="white" stroke="black" stroke-width="20" stroke-miterlimit="10"/>
<path d="M1012 818C1039.06 818 1061 796.062 1061 769C1061 741.938 1039.06 720 1012 720C984.938 720 963 741.938 963 769C963 796.062 984.938 818 1012 818Z" fill="white" stroke="black" stroke-width="20" stroke-miterlimit="10"/>
<path d="M822 782C829.18 782 835 776.18 835 769C835 761.82 829.18 756 822 756C814.82 756 809 761.82 809 769C809 776.18 814.82 782 822 782Z" fill="black"/>
<path d="M1012 782C1019.18 782 1025 776.18 1025 769C1025 761.82 1019.18 756 1012 756C1004.82 756 999 761.82 999 769C999 776.18 1004.82 782 1012 782Z" fill="black"/>
</g>
<defs>
<clipPath id="clip0_624_3413">
<rect width="1500" height="1500" fill="white"/>
</clipPath>
</defs>
      <g clip-path="url(#clip0_884_3075)">
<path opacity="0.5" d="M720 750.438C720 722.417 743.895 701.078 770.199 705.609C796.226 710.091 822.774 710.091 848.801 705.609C875.105 701.078 899 722.417 899 750.438V774.93C899 825.227 860.214 866 812.37 866H806.63C758.786 866 720 825.227 720 774.93V750.438Z" fill="#A5F15C"/>
<path opacity="0.5" d="M937 750.438C937 722.417 960.762 701.078 986.919 705.609C1012.8 710.091 1039.2 710.091 1065.08 705.609C1091.24 701.078 1115 722.417 1115 750.438V774.93C1115 825.227 1076.43 866 1028.85 866H1023.15C975.569 866 937 825.227 937 774.93V750.438Z" fill="#A5F15C"/>
<path d="M555 792C555 797.523 559.477 802 565 802C570.523 802 575 797.523 575 792H555ZM720 747L595 747L595 767L720 767L720 747ZM555 787V792H575V787H555ZM595 747C572.909 747 555 764.909 555 787H575C575 775.955 583.954 767 595 767L595 747Z" fill="black"/>
<path d="M956.85 721.662C956.85 721.662 956.298 703.515 996.284 698.54L1068.96 850.236C1068.96 850.236 1054.94 866.613 1025.72 865.696L956.85 721.662Z" fill="white" fill-opacity="0.3"/>
<path d="M740.63 724.24C740.63 724.24 740.078 706.416 780.064 701.53L852.741 850.523C852.741 850.523 838.725 866.607 809.505 865.706L740.63 724.24Z" fill="white" fill-opacity="0.3"/>
<path d="M1009.77 706.801C1009.77 706.801 1006.07 709.846 1019.83 701.031L1084.46 832.685C1084.46 832.685 1088.66 838.122 1077.47 840.432L1009.77 706.801Z" fill="white" fill-opacity="0.3"/>
<path d="M793.546 709.643C793.546 709.643 789.847 712.634 803.615 703.975L868.238 833.283C868.238 833.283 872.442 838.623 861.249 840.892L793.546 709.643Z" fill="white" fill-opacity="0.3"/>
<path d="M937.905 788.269C944.913 829.009 980.328 860 1022.96 860H1028.68C1076.35 860 1115 821.253 1115 773.455V744.18C1115 717.552 1091.19 699.273 1064.98 701.579C1039.05 702.839 1012.6 702.839 986.664 701.579C962.761 699.652 940.855 714.173 937.184 737.31C936.83 739.543 936.645 741.837 936.645 744.18V773.455C936.645 778.506 937.077 783.455 937.905 788.269ZM937.905 788.269L937.119 787.669C926.202 779.335 910.993 779.583 900.355 788.269V788.269M902 751H933.5M772.018 701.579C797.951 702.839 824.403 702.839 850.336 701.579C876.545 699.273 900.355 717.552 900.355 744.18V773.455C900.355 821.253 861.709 860 814.037 860H808.318C760.646 860 722 821.253 722 773.455V744.18C722 717.552 745.809 699.273 772.018 701.579Z" stroke="black" stroke-width="20" stroke-linecap="round"/>
</g>
<defs>
<clipPath id="clip0_884_3075">
<rect width="1500" height="1500" fill="white"/>
</clipPath>
</defs>
      <g clip-path="url(#clip0_786_1611)">
<path d="M357.167 709.64L281.948 724.785L220.285 749.18L257.601 779.228L346.128 800.677L356.882 803.141C348.457 743.106 357.167 709.64 357.167 709.64Z" fill="#9E6740"/>
<path d="M1198.25 650.336C1198.25 650.336 1219.64 700.928 1223.11 755.302L1243.5 747.613C1243.5 747.613 1290.77 721.71 1291.04 721.016C1291.3 720.322 1322.34 686.349 1323.78 684.547C1325.21 682.746 1333.93 660.452 1333.93 660.452L1221.49 652.327L1198.25 650.336Z" fill="#9E6740"/>
<path d="M220.387 740.305L285.256 658.34L541.783 407.839L754.907 245.064L840.466 281.824L1071.1 437.331L1239.4 570.877L1327.92 660.022L1073.81 643.594L933.385 643.376L654.348 661.724L354.034 709.713L220.387 740.305Z" fill="#9E6740"/>
<path d="M615.79 421.064C550.413 517.893 509.732 637.551 497.563 685.277L372.989 708.394L357 715.999L355 756.999L360.5 807.499L269.358 779.164L224.29 748.718L224.526 735.472L212.326 737.588L345.189 590.502C390.211 547.719 502.815 441.698 593.061 359.875C683.307 278.052 736.751 249.865 752.192 245.999C733.965 264.008 681.166 324.234 615.79 421.064Z" fill="#001647" fill-opacity="0.2"/>
<path d="M1286.55 718.214L1224.5 753.499L1222 745.499L1219 725.999L1213.5 698.499L1198.39 652.036L1232.97 653.87L1300.22 661.861L1327.47 668.084L1286.55 718.214Z" fill="#001647" fill-opacity="0.2"/>
<path d="M363.849 809.081C280.723 796.214 236.922 765.158 217.172 748.429C212.519 744.489 210.738 736.946 214.773 732.337C257.718 683.387 451.038 457.951 730.971 252.219C741.385 244.571 762.071 243.452 773.75 248.989C850.76 285.444 1170.67 484.003 1330.81 651.673C1335.04 656.104 1334.5 664.746 1330.99 669.802C1313.54 694.933 1288.32 732.229 1207.96 760.411" stroke="black" stroke-width="20" stroke-miterlimit="10"/>
<path d="M208.702 741.77L276.275 727.07C624.05 644.781 975.505 622.74 1330.64 660.947" stroke="black" stroke-width="20" stroke-miterlimit="10"/>
</g>
<defs>
<clipPath id="clip0_786_1611">
<rect width="1500" height="1500" fill="white"/>
</clipPath>
</defs>
      
    </g>
    </svg>