<svg
      xmlns="http://www.w3.org/2000/svg"
      preserveAspectRatio="xMidYMin meet"
      fill="none"
      viewBox="0 0 1500 1500"
    >
      <g>
      <path fill="url(#prefix__paint0_linear_53_30461)" d="M0 0h1500v1500H0z"/><defs><linearGradient id="prefix__paint0_linear_53_30461" x1="0" y1="0" x2="1500" y2="1533.5" gradientUnits="userSpaceOnUse">
<stop stop-color="#EEB0FC"/>
<stop offset="1" stop-color="#AF55F5"/>
</linearGradient></defs>
      <g clip-path="url(#clip0_483_418)">
<path d="M773 1011.5C543.4 1029.9 398.667 1353.5 355 1513H1138.5C1075.7 1127 868.667 1017.83 773 1011.5Z" fill="#AABBFF"/>
<path d="M661.5 1284C651.1 1208.4 559.5 1181.83 515 1178C583.5 1088.5 654 1030.5 768.5 1008.5C860.1 990.9 976.333 1131.17 1023 1203.5L1007 1267.5L1011.5 1323.5L1036 1427.5L1054 1508H654V1457C660.833 1430.83 671.9 1359.6 661.5 1284Z" fill="#4AEEB9"/>
<path d="M691 1281C658 1185.5 577 1152.5 538.5 1150.5L517.5 1174L607.5 1204L647.5 1259L674.5 1331.5L657 1443.5L652 1506.5H685C684.752 1490.12 685.132 1463.27 685.975 1439.63C686.843 1415.25 692.482 1391.39 696.842 1367.39C704.309 1326.28 698.07 1301.46 691 1281Z" fill="white"/>
<path d="M982.5 1303C973.3 1248.2 991.333 1198.5 1001.5 1180.5L1024 1199.5L1011.5 1239.5L1015 1315L1041.5 1437.5L1050 1506.5H1024C1012.5 1395 994 1371.5 982.5 1303Z" fill="white"/>
<path d="M834 1189C756.4 1183.4 696 1082 675.5 1032L711 1023.5L721.5 1044.5L774 1117.5L824 1142.5C856.4 1133.7 870.167 1075.83 873 1048C885.333 1054 910.6 1066.5 913 1068.5C915.4 1070.5 902.667 1102 896 1117.5L868 1164.5L834 1189Z" fill="white"/>
<path d="M749.5 1019.5C536 1134 457.448 1414.63 443.159 1511H353.699C350.414 1508.73 357.049 1471.27 409.87 1339.62C462.691 1207.98 569.086 1113.24 605.384 1082.33L674 1033.5L749.5 1019.5Z" fill="#001647" fill-opacity="0.2"/>
<path d="M818.5 1143.5C778.1 1131.9 731.667 1054 713.5 1016.5L795.5 1019.5L872 1043L854 1126.5L818.5 1143.5Z" fill="#AABBFF"/>
<path d="M353.5 1519.5C365.5 1454.33 414.5 1313.6 483.5 1219C530.101 1155.11 577.468 1101.29 629.141 1059.66C710.278 994.299 826.037 996.323 905.02 1064.27C1000.08 1146.05 1103.44 1290.29 1142.5 1519.5M1050.5 1519.5C1048.1 1443.9 1024.83 1354.33 1013.5 1319C999.5 1268 1009.7 1225.3 1020.5 1204.5M653.5 1519.5C650.3 1467.1 661.167 1392.33 667 1361.5C674 1324.5 668 1288.8 642 1250C609.5 1201.5 554.5 1171 517 1179.5" stroke="black" stroke-width="22" stroke-linecap="round"/>
<path d="M716.5 1021C729.247 1059.57 769.06 1137.84 826.825 1144.38C827.577 1144.46 828.321 1144.26 828.913 1143.79C845.329 1130.77 875.856 1093.54 873.5 1042.5" stroke="black" stroke-width="22" stroke-linecap="round"/>
<path d="M682 1039C700.209 1094.08 754.185 1179.21 836.775 1187.88C837.527 1187.96 838.267 1187.76 838.866 1187.3C859.814 1171.19 904.649 1131.93 911.953 1072" stroke="black" stroke-width="22" stroke-linecap="round"/>
<path d="M791.438 1500.84C783.883 1493.52 779.375 1483.22 777.915 1469.93L770.467 1402.1C768.917 1387.88 770.995 1377.11 776.704 1369.79C782.412 1362.47 791.771 1358.95 804.781 1359.23C817.865 1359.52 828.086 1363.46 835.446 1371.06C842.806 1378.66 847.266 1389.57 848.827 1403.79L856.275 1471.62C857.744 1485.01 855.482 1495.2 849.491 1502.18C843.5 1509.16 834.195 1512.5 821.575 1512.21C809.066 1511.94 799.021 1508.15 791.438 1500.84ZM823.509 1481.65C824.689 1479.45 825.135 1476.93 824.78 1474.46L816.644 1400.34C816.167 1396.03 815.313 1392.72 814.096 1390.42C812.879 1388.13 810.76 1386.95 807.777 1386.89C804.795 1386.83 803.007 1387.92 802.301 1390.17C801.596 1392.42 801.533 1395.71 802.01 1400.02L810.145 1474.15C810.394 1476.78 811.353 1479.3 812.917 1481.42C813.534 1482.36 814.362 1483.14 815.334 1483.69C816.306 1484.24 817.393 1484.55 818.507 1484.59C819.538 1484.65 820.563 1484.4 821.458 1483.88C822.353 1483.35 823.079 1482.58 823.548 1481.65L823.509 1481.65Z" fill="white"/>
<path d="M894.056 1507.85C888.625 1505.6 883.819 1502.06 880.051 1497.52C876.289 1492.92 873.98 1487.29 873.421 1481.36L871.643 1465.3L900.181 1465.91L900.507 1468.88C900.843 1472.96 901.75 1476.97 903.202 1480.8C903.687 1482.14 904.578 1483.3 905.752 1484.11C906.925 1484.92 908.321 1485.33 909.741 1485.3C912.979 1485.37 915.153 1484.52 916.282 1482.73C917.411 1480.94 917.779 1478.26 917.379 1474.65L914.049 1444.59C912.906 1447.27 910.895 1449.49 908.343 1450.87C905.29 1452.51 901.849 1453.27 898.397 1453.06C890.316 1452.89 883.877 1451.12 879.08 1447.76C874.282 1444.4 870.677 1439.51 868.264 1433.1C865.825 1426.63 864.026 1418.17 862.867 1407.69C861.09 1391.73 862.733 1379.5 867.796 1371.01C872.86 1362.52 882.304 1358.42 896.127 1358.72C906.276 1358.93 914.489 1360.85 920.766 1364.48C927.079 1368.14 932.056 1373.75 934.967 1380.48C938.169 1387.49 940.386 1396.62 941.618 1407.86L946.098 1448.42C947.812 1463.92 948.236 1476.1 947.371 1484.97C946.506 1493.84 943.395 1500.58 938.039 1505.18C932.672 1509.77 924.045 1511.94 912.157 1511.68C905.936 1511.57 899.792 1510.27 894.056 1507.85ZM910.961 1416.23L908.889 1397.53C908.087 1390.19 905.202 1386.46 900.234 1386.36C897.116 1386.29 895.262 1387.5 894.673 1389.99C894.084 1392.47 894.1 1396.51 894.722 1402.11L896.049 1414.34C896.935 1422.5 899.692 1426.63 904.321 1426.73C909.549 1426.84 911.762 1423.34 910.961 1416.23Z" fill="white"/>
<path d="M903.576 1276.75C902.196 1276.75 901.23 1275.39 901.687 1274.08L909.159 1252.81C909.713 1251.23 911.84 1250.99 912.735 1252.4L935.336 1288.03C935.707 1288.61 936.353 1288.96 937.045 1288.96L946.363 1288.86C947.926 1288.85 948.868 1287.13 948.037 1285.8L908.618 1222.93C907.728 1221.51 905.591 1221.75 905.036 1223.33L882.743 1286.81C882.283 1288.12 883.262 1289.49 884.649 1289.47L925.683 1289.07C927.251 1289.05 928.192 1287.32 927.352 1286L914.651 1265.96C913.756 1264.55 911.626 1264.79 911.074 1266.37L907.908 1275.41C907.628 1276.21 906.872 1276.74 906.023 1276.74L903.576 1276.75Z" fill="white"/>
</g>
<defs>
<clipPath id="clip0_483_418">
<rect width="1500" height="1500" fill="white"/>
</clipPath>
</defs>
      <g clip-path="url(#clip0_497_1194)">
<path d="M379.667 654.812C432.345 471.574 618.472 401.981 699.114 390.653C740.985 382.718 849.655 375.215 949.364 408.675C980 418.956 1049.88 457.388 1091.92 499.818C1144.47 552.856 1272.97 732.052 1185.05 927.725C1097.12 1123.4 758.414 1092.29 612.749 1051.82C464.472 1010.63 314.48 881.563 379.667 654.812Z" fill="#AABBFF"/>
<path d="M449.293 747.204C454.734 531.068 585.306 432.345 649.911 410C432.292 459.565 365.296 655.455 364 747.204C377.99 984.871 584.496 1053.43 681 1058C601.498 1044.46 443.853 963.339 449.293 747.204Z" fill="#001647" fill-opacity="0.2"/>
<path d="M379.667 654.812C432.345 471.574 618.472 401.981 699.114 390.653C740.985 382.718 849.655 375.215 949.364 408.675C980 418.956 1049.88 457.388 1091.92 499.818C1144.47 552.856 1272.97 732.052 1185.05 927.725C1097.12 1123.4 758.414 1092.29 612.749 1051.82C464.472 1010.63 314.48 881.563 379.667 654.812Z" stroke="black" stroke-width="22" stroke-linecap="round"/>
</g>
<defs>
    <clipPath id="prefix__clip0_299_662"><path fill="#fff" d="M0 0h1500v1500H0z"/></clipPath>
</defs>
      <g clip-path="url(#clip0_624_3534)">
<path d="M780.422 771.992C785.186 778.098 791.28 783.038 798.24 786.435C805.2 789.833 812.843 791.599 820.589 791.599C828.334 791.599 835.977 789.833 842.937 786.435C849.897 783.038 855.991 778.098 860.755 771.992" stroke="black" stroke-width="22" stroke-miterlimit="10" stroke-linecap="round"/>
<path d="M972.16 771.992C976.925 778.098 983.018 783.038 989.979 786.435C996.939 789.833 1004.58 791.599 1012.33 791.599C1020.07 791.599 1027.71 789.833 1034.68 786.435C1041.64 783.038 1047.73 778.098 1052.49 771.992" stroke="black" stroke-width="22" stroke-miterlimit="10" stroke-linecap="round"/>
<path d="M922.5 961C929.521 961 936.385 958.918 942.223 955.017C948.061 951.116 952.611 945.572 955.298 939.085C957.985 932.598 958.688 925.461 957.318 918.574C955.948 911.688 952.567 905.362 947.602 900.398C942.638 895.433 936.312 892.052 929.426 890.682C922.539 889.312 915.402 890.015 908.915 892.702C902.428 895.389 896.884 899.939 892.983 905.777C889.082 911.615 887 918.479 887 925.5C887 934.915 890.74 943.945 897.398 950.602C904.055 957.26 913.085 961 922.5 961Z" fill="black" stroke="black" stroke-width="22" stroke-miterlimit="10" stroke-linecap="round"/>
</g>
<defs>
<clipPath id="clip0_624_3534">
<rect width="1500" height="1500" fill="white"/>
</clipPath>
</defs>
      <g clip-path="url(#clip0_924_929)">
<path d="M821.441 843.267C839.551 843.268 857.015 836.533 870.435 824.371C883.855 812.21 892.271 795.491 894.047 777.468C895.823 759.444 890.832 741.405 880.044 726.858C869.256 712.311 853.443 702.296 835.681 698.762C817.918 695.228 799.476 698.428 783.942 707.738C768.407 717.049 756.892 731.804 751.634 749.135C746.376 766.466 747.753 785.132 755.496 801.504C763.239 817.876 776.795 830.783 793.527 837.713C802.377 841.379 811.862 843.266 821.441 843.267Z" fill="#3A3A3A"/>
<path d="M582.5 804.5C582.5 810.023 586.977 814.5 592.5 814.5C598.023 814.5 602.5 810.023 602.5 804.5H582.5ZM747.334 760L622.5 760L622.5 780L747.334 780L747.334 760ZM582.5 800V804.5H602.5V800H582.5ZM622.5 760C600.409 760 582.5 777.908 582.5 800H602.5C602.5 788.954 611.454 780 622.5 780L622.5 760Z" fill="black"/>
<path d="M898 770H936" stroke="black" stroke-width="20" stroke-miterlimit="10"/>
<path d="M1014 705.605C988.007 687.573 950.464 699.18 937.571 727.664C923.496 758.76 940.008 802.21 1005.58 846.404C1010.62 849.799 1017.38 849.799 1022.42 846.403C1087.99 802.206 1104.5 758.755 1090.43 727.66C1077.54 699.176 1039.99 687.573 1014 705.605Z" fill="#FF6247" stroke="black" stroke-width="20"/>
<path d="M820 705.605C794.007 687.573 756.464 699.18 743.571 727.664C729.496 758.76 746.008 802.21 811.579 846.404C816.618 849.799 823.383 849.799 828.421 846.403C893.992 802.206 910.504 758.755 896.429 727.66C883.536 699.176 845.992 687.573 820 705.605Z" fill="#FF6247" stroke="black" stroke-width="20"/>
<path d="M944.92 717.728L976.004 699.329L1056.27 818.334L1024.16 841.5L944.92 717.728Z" fill="white"/>
<rect x="990.037" y="699.073" width="12.6482" height="128.993" transform="rotate(-34 990.037 699.073)" fill="white"/>
<path d="M752.92 717.728L784.004 699.329L864.274 818.334L832.157 841.5L752.92 717.728Z" fill="white"/>
<rect x="798.037" y="699.073" width="12.6482" height="128.993" transform="rotate(-34 798.037 699.073)" fill="white"/>
<path d="M1014 705.605C988.007 687.573 950.464 699.18 937.571 727.664C923.496 758.76 940.008 802.21 1005.58 846.404C1010.62 849.799 1017.38 849.799 1022.42 846.403C1087.99 802.206 1104.5 758.755 1090.43 727.66C1077.54 699.176 1039.99 687.573 1014 705.605Z" stroke="black" stroke-width="20"/>
<path d="M820 705.605C794.007 687.573 756.464 699.18 743.571 727.664C729.496 758.76 746.008 802.21 811.579 846.404C816.618 849.799 823.383 849.799 828.421 846.403C893.992 802.206 910.504 758.755 896.429 727.66C883.536 699.176 845.992 687.573 820 705.605Z" stroke="black" stroke-width="20"/>
</g>
<defs>
<clipPath id="clip0_924_929">
<rect width="1500" height="1500" fill="white"/>
</clipPath>
</defs>
      <g clip-path="url(#clip0_771_606)">
<path d="M863.993 527.644C890.69 533.234 953.2 543.468 977.668 523.094L1014.69 433.323L1073.2 323.725L1125.02 252.017C1125.02 252.017 1152.13 228.431 1038.06 213.369C923.981 198.307 867.998 187.656 867.998 187.656C867.998 187.656 682.771 166.635 549.728 276.66C416.686 386.684 363.177 542.213 363.177 542.213C363.177 542.213 337.135 691.713 357.999 753.5C357.999 753.5 341.001 591 490.792 472.221L501.17 475.384L603.985 437.979L697.981 441.573L810.812 485.642L842.989 516.524C848.813 522.121 856.09 525.973 863.993 527.644Z" fill="#4AEEB9"/>
<path d="M742.504 200.999C676.904 266.599 661.503 387.666 662.003 439.999L625.003 434.5L571.003 446L499.003 479C383.499 562.5 364.503 699.667 357.503 751.5L343.503 659.5L360.003 560.5L396.003 466.5C421.169 416.5 492.403 304.699 576.003 257.499C659.603 210.299 721.837 200.166 742.504 200.999Z" fill="#001647" fill-opacity="0.2"/>
<path d="M370.001 824.5C370.001 824.5 269.087 563.97 500.28 320.562C709.101 100.723 1055 215.728 1119.97 240.074C1121.19 240.539 1122.28 241.281 1123.16 242.241C1124.03 243.209 1124.65 244.367 1124.99 245.623C1125.32 246.881 1125.35 248.2 1125.07 249.47C1124.79 250.741 1124.21 251.926 1123.38 252.928C1034.34 361.043 992.774 481.265 982.543 514.053C981.611 517.023 980.059 519.76 977.991 522.086C975.922 524.406 973.381 526.257 970.538 527.514C952.612 535.457 910.698 548.623 858.575 529.192C851.513 525.552 848.335 523.515 843.096 518.725C818.258 491.807 652.217 366.136 494.165 482.174" stroke="black" stroke-width="20" stroke-miterlimit="10" stroke-linecap="round"/>
<path d="M847.383 522.595C847.383 522.595 830.394 316.415 907.33 193.397" stroke="black" stroke-width="20" stroke-miterlimit="10" stroke-linecap="round"/>
<path d="M940.167 529.066C940.167 529.066 943.119 444.066 997.197 349.634" stroke="black" stroke-width="20" stroke-miterlimit="10" stroke-linecap="round"/>
<path d="M754.269 459.828C754.269 459.828 740.725 382.776 759.48 315.96" stroke="black" stroke-width="20" stroke-miterlimit="10" stroke-linecap="round"/>
<path d="M595.363 246.497C595.363 246.497 573.599 298.854 593.754 375.109" stroke="black" stroke-width="20" stroke-miterlimit="10" stroke-linecap="round"/>
<path d="M920.072 268.739C920.072 268.739 927.639 235.29 953.389 205.827" stroke="black" stroke-width="20" stroke-miterlimit="10" stroke-linecap="round"/>
<path d="M472.246 499.854C472.246 499.854 460.445 481.715 458.858 444.683" stroke="black" stroke-width="20" stroke-miterlimit="10" stroke-linecap="round"/>
</g>
<defs>
<clipPath id="clip0_771_606">
<rect width="1500" height="1500" fill="white"/>
</clipPath>
</defs>
      
    </g>
    </svg>