<svg
      xmlns="http://www.w3.org/2000/svg"
      preserveAspectRatio="xMidYMin meet"
      fill="none"
      viewBox="0 0 1500 1500"
    >
      <g>
      <path fill="url(#prefix__paint0_linear_53_30460)" d="M0 0h1500v1500H0z"/><defs><linearGradient id="prefix__paint0_linear_53_30460" x1="0" y1="0" x2="1500" y2="1500" gradientUnits="userSpaceOnUse">
<stop stop-color="#F1FFBA"/>
<stop offset="1" stop-color="#65DCBA"/>
</linearGradient></defs>
      <g clip-path="url(#clip0_483_490)">
<path d="M773 1011.5C543.4 1029.9 398.667 1353.5 355 1513H1138.5C1075.7 1127 868.667 1017.83 773 1011.5Z" fill="#3A3A3A"/>
<path d="M769 1151L789 1174L828 1096.5L879 1169.5L895.5 1162L885 1099L854 1033.5L799 1014L781 1067.5L769 1151Z" fill="white"/>
<path d="M775.5 1314.5L769 1174C770.5 1172 774.5 1168.7 778.5 1171.5C782.5 1174.3 791.5 1174.33 795.5 1174L816.5 1162L808 1273.5V1431.5L857 1479.5L894 1428L876 1306.5L851.5 1162L862.5 1158.5L870.5 1171L886 1174H895.5L912.5 1256.5V1421L906 1507L816.5 1504.5L797.5 1446.5L786 1377.5L775.5 1314.5Z" fill="white"/>
<path d="M749.5 1019.5C536 1134 457.448 1414.63 443.159 1511H353.699C350.414 1508.73 357.049 1471.27 409.87 1339.62C462.691 1207.98 569.086 1113.24 605.384 1082.33L674 1033.5L749.5 1019.5Z" fill="black" fill-opacity="0.2"/>
<path d="M678.896 1219.72L679 1219.5L730.5 1241.5L719.5 1262.5L686.882 1244.68C677.988 1239.82 674.474 1228.83 678.896 1219.72Z" fill="black" fill-opacity="0.2"/>
<path d="M681.576 1320.46L688.5 1313L743 1511H726.5C699.73 1459.32 682.982 1377.71 676.739 1335.82C675.905 1330.22 677.727 1324.6 681.576 1320.46Z" fill="black" fill-opacity="0.2"/>
<path d="M846.5 1163L817 1118.5L826.5 1097L862 1152L846.5 1163Z" fill="black" fill-opacity="0.2"/>
<path d="M785 1345C782.2 1298.6 789.5 1212.67 793.5 1175.5L796.5 1163H810C809 1225.33 807 1351.6 807 1358C807 1364.4 800 1378 796.5 1384L785 1345Z" fill="black" fill-opacity="0.2"/>
<path d="M893.5 1364.5C889.1 1280.9 881 1207 877.5 1180.5L892.5 1168L904.5 1211L910.5 1317L904.5 1393L893.5 1364.5Z" fill="black" fill-opacity="0.2"/>
<path d="M875.5 1165L852.5 1087L873.5 1082.33L892.5 1157L875.5 1165Z" fill="black" fill-opacity="0.2"/>
<path d="M879.5 1511L889 1450C890.869 1438 902.779 1438.33 908.5 1440L899.5 1511H879.5Z" fill="black" fill-opacity="0.2"/>
<path d="M768.498 1017C749.683 1045.07 696.85 1151.63 687.526 1215.84C687.466 1216.24 687.669 1216.63 688.031 1216.84L731.746 1241.13C732.21 1241.38 732.392 1241.96 732.159 1242.44L696.152 1316.43C696.053 1316.63 696.024 1316.86 696.073 1317.08C705.932 1361.02 719.01 1446.25 749.202 1513.1M796.5 1023.5C786.687 1043.22 770.839 1111.23 768.498 1172.05C765.452 1251.21 776.119 1364.72 819.727 1511.42M853.868 1035.5C862.489 1049.62 888.202 1122.63 897.08 1173.23C909.628 1244.75 917.281 1354.82 905.476 1509.42M924.5 1084C931.721 1098.4 954.398 1175.29 962.62 1220.04C962.692 1220.43 962.522 1220.82 962.191 1221.04L939.653 1236.13C939.209 1236.43 939.068 1237 939.343 1237.46C950.523 1256.04 973.65 1296.18 980.791 1314.88C980.843 1315.02 980.862 1315.15 980.852 1315.29C978.17 1351.78 968.492 1441.09 951.08 1508.28M813.981 1165.66C812.009 1218.29 804.412 1385.49 806.233 1433.98C806.24 1434.15 806.285 1434.29 806.375 1434.44C816.072 1449.96 851.746 1473.72 856.882 1477.1C857.26 1477.34 857.724 1477.3 858.055 1476.99C861.76 1473.55 883.178 1453.08 896.927 1426.79C897.026 1426.6 897.065 1426.41 897.031 1426.19C890.239 1383.92 868.036 1241.41 853 1164.5" stroke="black" stroke-width="22" stroke-linecap="round"/>
<path d="M770 1160.89L787.373 1174.98C787.876 1175.39 788.628 1175.22 788.906 1174.63L798.011 1155.46M890 1160.89L878.288 1172.75C877.834 1173.21 877.07 1173.13 876.728 1172.58L865.046 1153.86M798.011 1155.46L826.629 1095.21C826.968 1094.49 827.962 1094.43 828.381 1095.1L865.046 1153.86M798.011 1155.46C800.92 1157.74 805.655 1160.29 811.848 1162.05C821.254 1164.71 834.023 1165.56 848.868 1160.89C854.028 1159.26 859.438 1156.97 865.046 1153.86" stroke="black" stroke-width="22" stroke-linecap="round"/>
<path d="M353.5 1519.5C365.5 1454.33 414.5 1313.6 483.5 1219C530.101 1155.11 577.468 1101.29 629.141 1059.66C710.278 994.299 826.037 996.323 905.02 1064.27C1000.08 1146.05 1103.44 1290.29 1142.5 1519.5M1013.5 1319C1024.83 1354.33 1048.1 1443.9 1050.5 1519.5M667 1361.5C661.167 1392.33 650.3 1467.1 653.5 1519.5" stroke="black" stroke-width="22" stroke-linecap="round"/>
</g>
<defs>
<clipPath id="clip0_483_490">
<rect width="1500" height="1500" fill="white"/>
</clipPath>
</defs>
      <g clip-path="url(#clip0_497_1194)">
<path d="M379.667 654.812C432.345 471.574 618.472 401.981 699.114 390.653C740.985 382.718 849.655 375.215 949.364 408.675C980 418.956 1049.88 457.388 1091.92 499.818C1144.47 552.856 1272.97 732.052 1185.05 927.725C1097.12 1123.4 758.414 1092.29 612.749 1051.82C464.472 1010.63 314.48 881.563 379.667 654.812Z" fill="#AABBFF"/>
<path d="M449.293 747.204C454.734 531.068 585.306 432.345 649.911 410C432.292 459.565 365.296 655.455 364 747.204C377.99 984.871 584.496 1053.43 681 1058C601.498 1044.46 443.853 963.339 449.293 747.204Z" fill="#001647" fill-opacity="0.2"/>
<path d="M379.667 654.812C432.345 471.574 618.472 401.981 699.114 390.653C740.985 382.718 849.655 375.215 949.364 408.675C980 418.956 1049.88 457.388 1091.92 499.818C1144.47 552.856 1272.97 732.052 1185.05 927.725C1097.12 1123.4 758.414 1092.29 612.749 1051.82C464.472 1010.63 314.48 881.563 379.667 654.812Z" stroke="black" stroke-width="22" stroke-linecap="round"/>
</g>
<defs>
    <clipPath id="prefix__clip0_299_662"><path fill="#fff" d="M0 0h1500v1500H0z"/></clipPath>
</defs>
      <g clip-path="url(#clip0_624_3324)">
<path d="M792.8 801.54L845.506 748.833" stroke="black" stroke-width="22" stroke-miterlimit="10" stroke-linecap="round"/>
<path d="M792.8 748.833L845.506 801.54" stroke="black" stroke-width="22" stroke-miterlimit="10" stroke-linecap="round"/>
<path d="M984.133 801.54L1036.84 748.833" stroke="black" stroke-width="22" stroke-miterlimit="10" stroke-linecap="round"/>
<path d="M984.133 748.833L1036.84 801.54" stroke="black" stroke-width="22" stroke-miterlimit="10" stroke-linecap="round"/>
<path d="M853.066 922.82C861.226 917.24 873.066 917.24 881.206 922.82L881.5 923.02C885.645 925.854 890.549 927.37 895.57 927.37C900.591 927.37 905.495 925.854 909.64 923.02V923.02C913.785 920.185 918.689 918.669 923.71 918.669C928.731 918.669 933.635 920.185 937.78 923.02L938.506 923.513C942.651 926.347 947.555 927.863 952.576 927.863C957.598 927.863 962.502 926.347 966.646 923.513L967.86 922.686C976.02 917.106 987.86 917.106 996 922.686" stroke="black" stroke-width="22" stroke-miterlimit="10" stroke-linecap="round"/>
</g>
<defs>
<clipPath id="clip0_624_3324">
<rect width="1500" height="1500" fill="white"/>
</clipPath>
</defs>
      <g clip-path="url(#clip0_924_929)">
<path d="M821.441 843.267C839.551 843.268 857.015 836.533 870.435 824.371C883.855 812.21 892.271 795.491 894.047 777.468C895.823 759.444 890.832 741.405 880.044 726.858C869.256 712.311 853.443 702.296 835.681 698.762C817.918 695.228 799.476 698.428 783.942 707.738C768.407 717.049 756.892 731.804 751.634 749.135C746.376 766.466 747.753 785.132 755.496 801.504C763.239 817.876 776.795 830.783 793.527 837.713C802.377 841.379 811.862 843.266 821.441 843.267Z" fill="#3A3A3A"/>
<path d="M582.5 804.5C582.5 810.023 586.977 814.5 592.5 814.5C598.023 814.5 602.5 810.023 602.5 804.5H582.5ZM747.334 760L622.5 760L622.5 780L747.334 780L747.334 760ZM582.5 800V804.5H602.5V800H582.5ZM622.5 760C600.409 760 582.5 777.908 582.5 800H602.5C602.5 788.954 611.454 780 622.5 780L622.5 760Z" fill="black"/>
<path d="M898 770H936" stroke="black" stroke-width="20" stroke-miterlimit="10"/>
<path d="M1014 705.605C988.007 687.573 950.464 699.18 937.571 727.664C923.496 758.76 940.008 802.21 1005.58 846.404C1010.62 849.799 1017.38 849.799 1022.42 846.403C1087.99 802.206 1104.5 758.755 1090.43 727.66C1077.54 699.176 1039.99 687.573 1014 705.605Z" fill="#FF6247" stroke="black" stroke-width="20"/>
<path d="M820 705.605C794.007 687.573 756.464 699.18 743.571 727.664C729.496 758.76 746.008 802.21 811.579 846.404C816.618 849.799 823.383 849.799 828.421 846.403C893.992 802.206 910.504 758.755 896.429 727.66C883.536 699.176 845.992 687.573 820 705.605Z" fill="#FF6247" stroke="black" stroke-width="20"/>
<path d="M944.92 717.728L976.004 699.329L1056.27 818.334L1024.16 841.5L944.92 717.728Z" fill="white"/>
<rect x="990.037" y="699.073" width="12.6482" height="128.993" transform="rotate(-34 990.037 699.073)" fill="white"/>
<path d="M752.92 717.728L784.004 699.329L864.274 818.334L832.157 841.5L752.92 717.728Z" fill="white"/>
<rect x="798.037" y="699.073" width="12.6482" height="128.993" transform="rotate(-34 798.037 699.073)" fill="white"/>
<path d="M1014 705.605C988.007 687.573 950.464 699.18 937.571 727.664C923.496 758.76 940.008 802.21 1005.58 846.404C1010.62 849.799 1017.38 849.799 1022.42 846.403C1087.99 802.206 1104.5 758.755 1090.43 727.66C1077.54 699.176 1039.99 687.573 1014 705.605Z" stroke="black" stroke-width="20"/>
<path d="M820 705.605C794.007 687.573 756.464 699.18 743.571 727.664C729.496 758.76 746.008 802.21 811.579 846.404C816.618 849.799 823.383 849.799 828.421 846.403C893.992 802.206 910.504 758.755 896.429 727.66C883.536 699.176 845.992 687.573 820 705.605Z" stroke="black" stroke-width="20"/>
</g>
<defs>
<clipPath id="clip0_924_929">
<rect width="1500" height="1500" fill="white"/>
</clipPath>
</defs>
      <g clip-path="url(#clip0_786_1511)">
<path d="M348 775L369 729L432 708.5L555.5 668.5L699.5 639.5L848 627H1014L1171.5 626L1194 614C1148 466 952.5 317.5 699.5 360.5C497.1 394.9 394.833 548.833 369 621.5C350.167 630 303.6 633.4 262 649C220.4 664.6 192.833 723.333 185 742L214 752L276 760L272 789.5L269.5 844.5L316.5 819.5L348 775Z" fill="#99C4CB"/>
<path d="M740.5 357.5C585.7 413.5 517 606.833 523.5 681L365.5 728L337.5 806.5L276.5 848L267.5 831.5L276.5 757L233 751.5L188.5 742.5L196 721L228.5 675.5L295.5 638.5L371 619.5C458.6 418.7 664.5 358.167 740.5 357.5Z" fill="#001647" fill-opacity="0.2"/>
<path d="M365.499 733C361.229 766.691 346.6 822.9 278.017 846.491C272.108 848.524 266.062 844.256 266.142 838.007C266.414 816.515 271.11 785.909 284.173 755.5M352.69 674C349.439 692.112 348.907 708.667 351.213 722.797C352.132 728.423 358.007 731.46 363.407 729.632C567.243 660.623 776.1 608.066 1183.08 624.375C1190.15 624.658 1195.45 617.788 1192.83 611.211C1146.56 495.051 1004.12 307.96 674.999 368.5C517.477 397.475 410.414 517.784 368.974 619.5M352.69 674C355.747 656.968 361.208 638.561 368.974 619.5M352.69 674C318.787 694.711 297.273 725.007 284.173 755.5M368.974 619.5C275.567 629.083 217.031 666.673 189.87 735.352C187.877 740.391 190.542 746.023 195.709 747.656C215.238 753.828 249.504 761.579 284.173 755.5" stroke="black" stroke-width="22" stroke-linecap="round"/>
</g>
<defs>
<clipPath id="clip0_786_1511">
<rect width="1500" height="1500" fill="white"/>
</clipPath>
</defs>
      
    </g>
    </svg>