<svg
      xmlns="http://www.w3.org/2000/svg"
      preserveAspectRatio="xMidYMin meet"
      fill="none"
      viewBox="0 0 1500 1500"
    >
      <g>
      <path fill="url(#prefix__paint0_linear_53_30463)" d="M0 0h1500v1500H0z"/><defs><linearGradient id="prefix__paint0_linear_53_30463" x1="1500" y1="1500" x2="0" y2="0" gradientUnits="userSpaceOnUse">
<stop stop-color="#FF5A5A"/>
<stop offset="1" stop-color="#FFBDBD"/>
</linearGradient></defs>
      <g clip-path="url(#clip0_481_201)">
<path d="M822.5 1233.5L646 1049.5L588 1087L661 1162.5C706.5 1217.17 798.2 1327.5 801 1331.5C803.8 1335.5 879.167 1449.83 916.5 1506.5H996L872 1300.5L956.5 1121.5L904 1065.5L822.5 1233.5Z" fill="white"/>
<path d="M416.5 1343L353.5 1506H915.5L833.5 1370.5L593 1094.5L487.5 1206.5L416.5 1343Z" fill="#99C4CB"/>
<path d="M936 1395.5L996.5 1506H1140L1121 1432.5L1096 1349.5L1050.5 1256.5L996.5 1167L959 1125L869.5 1297L936 1395.5Z" fill="#99C4CB"/>
<path d="M416.5 1343L353.5 1506H915.5L833.5 1370.5L593 1094.5L487.5 1206.5L416.5 1343Z" stroke="black"/>
<path d="M936 1395.5L996.5 1506H1140L1121 1432.5L1096 1349.5L1050.5 1256.5L996.5 1167L959 1125L869.5 1297L936 1395.5Z" stroke="black"/>
<path d="M820 1233.5L647.5 1052C665.333 1040.5 715 1016.9 771 1014.5C827 1012.1 880 1045.17 899.5 1062L820 1233.5Z" fill="#AABBFF"/>
<path d="M409.87 1339.62C462.691 1207.98 569.086 1113.24 605.384 1082.33L674 1033.5L749.5 1019.5C699.204 1046.47 656.397 1082.67 620.155 1123.5L641 1146.5L697 1200L769.5 1290.5L871.5 1426.5L914.5 1511H889.5C862.667 1465 786.9 1356.6 730.5 1287C674.1 1217.4 622.589 1160.22 605.384 1140.83C498.462 1271.37 453.613 1440.5 443.159 1511H353.699C350.414 1508.73 357.049 1471.27 409.87 1339.62Z" fill="#001647" fill-opacity="0.2"/>
<path d="M353.5 1519.5C365.5 1454.33 414.5 1313.6 483.5 1219C530.101 1155.11 577.468 1101.29 629.141 1059.66C710.278 994.299 826.037 996.323 905.02 1064.27C1000.08 1146.05 1103.44 1290.29 1142.5 1519.5M1013.5 1319C1024.83 1354.33 1048.1 1443.9 1050.5 1519.5M667 1361.5C661.167 1392.33 650.3 1467.1 653.5 1519.5M592 1093.5C677.5 1177.33 857.5 1384.5 921.5 1516.5M870.895 1302C924.689 1373.66 972.467 1449.01 998.5 1516.5M870.895 1302C892.264 1267.83 939 1185 959 1119M870.895 1302C854.413 1280.04 837.366 1258.43 820.206 1237.5M820.206 1237.5C842.304 1198 890.5 1112.6 898.5 1067M820.206 1237.5C756.694 1160.02 691.644 1091.84 648 1049.77" stroke="black" stroke-width="22" stroke-linecap="round"/>
</g>
<defs>
<clipPath id="clip0_481_201">
<rect width="1500" height="1500" fill="white"/>
</clipPath>
</defs>
      <g clip-path="url(#clip0_497_1194)">
<path d="M379.667 654.812C432.345 471.574 618.472 401.981 699.114 390.653C740.985 382.718 849.655 375.215 949.364 408.675C980 418.956 1049.88 457.388 1091.92 499.818C1144.47 552.856 1272.97 732.052 1185.05 927.725C1097.12 1123.4 758.414 1092.29 612.749 1051.82C464.472 1010.63 314.48 881.563 379.667 654.812Z" fill="#AABBFF"/>
<path d="M449.293 747.204C454.734 531.068 585.306 432.345 649.911 410C432.292 459.565 365.296 655.455 364 747.204C377.99 984.871 584.496 1053.43 681 1058C601.498 1044.46 443.853 963.339 449.293 747.204Z" fill="#001647" fill-opacity="0.2"/>
<path d="M379.667 654.812C432.345 471.574 618.472 401.981 699.114 390.653C740.985 382.718 849.655 375.215 949.364 408.675C980 418.956 1049.88 457.388 1091.92 499.818C1144.47 552.856 1272.97 732.052 1185.05 927.725C1097.12 1123.4 758.414 1092.29 612.749 1051.82C464.472 1010.63 314.48 881.563 379.667 654.812Z" stroke="black" stroke-width="22" stroke-linecap="round"/>
</g>
<defs>
    <clipPath id="prefix__clip0_299_662"><path fill="#fff" d="M0 0h1500v1500H0z"/></clipPath>
</defs>
      <g clip-path="url(#clip0_624_3562)">
<path d="M799.421 789.214L858.141 778.547C859.189 778.352 860.151 777.837 860.895 777.073C861.639 776.309 862.128 775.334 862.294 774.28C862.455 773.224 862.285 772.143 861.808 771.187C861.331 770.234 860.569 769.453 859.628 768.954L804.701 739.807" stroke="black" stroke-width="22" stroke-miterlimit="10" stroke-linecap="round"/>
<path d="M1037.67 789.214L979.001 778.547C977.951 778.355 976.987 777.841 976.243 777.076C975.499 776.312 975.011 775.335 974.847 774.28C974.687 773.227 974.854 772.149 975.327 771.194C975.804 770.237 976.569 769.453 977.514 768.954L1032.44 739.807" stroke="black" stroke-width="22" stroke-miterlimit="10" stroke-linecap="round"/>
<path d="M992 915.801C992 944.083 960.211 967 921 967C881.789 967 850 944.083 850 915.801C850.013 910.144 851.278 904.561 853.703 899.453C858.875 888.383 870.646 884.1 880.667 889.061C892.124 894.775 906.017 898.12 921.008 898.12C935.999 898.12 949.884 894.775 961.349 889.061C971.354 884.068 983.133 888.383 988.313 899.453C990.733 904.562 991.993 910.145 992 915.801Z" fill="white" stroke="black" stroke-width="22" stroke-miterlimit="10"/>
</g>
<defs>
<clipPath id="clip0_624_3562">
<rect width="1500" height="1500" fill="white"/>
</clipPath>
</defs>
      <g clip-path="url(#clip0_884_3075)">
<path opacity="0.5" d="M720 750.438C720 722.417 743.895 701.078 770.199 705.609C796.226 710.091 822.774 710.091 848.801 705.609C875.105 701.078 899 722.417 899 750.438V774.93C899 825.227 860.214 866 812.37 866H806.63C758.786 866 720 825.227 720 774.93V750.438Z" fill="#A5F15C"/>
<path opacity="0.5" d="M937 750.438C937 722.417 960.762 701.078 986.919 705.609C1012.8 710.091 1039.2 710.091 1065.08 705.609C1091.24 701.078 1115 722.417 1115 750.438V774.93C1115 825.227 1076.43 866 1028.85 866H1023.15C975.569 866 937 825.227 937 774.93V750.438Z" fill="#A5F15C"/>
<path d="M555 792C555 797.523 559.477 802 565 802C570.523 802 575 797.523 575 792H555ZM720 747L595 747L595 767L720 767L720 747ZM555 787V792H575V787H555ZM595 747C572.909 747 555 764.909 555 787H575C575 775.955 583.954 767 595 767L595 747Z" fill="black"/>
<path d="M956.85 721.662C956.85 721.662 956.298 703.515 996.284 698.54L1068.96 850.236C1068.96 850.236 1054.94 866.613 1025.72 865.696L956.85 721.662Z" fill="white" fill-opacity="0.3"/>
<path d="M740.63 724.24C740.63 724.24 740.078 706.416 780.064 701.53L852.741 850.523C852.741 850.523 838.725 866.607 809.505 865.706L740.63 724.24Z" fill="white" fill-opacity="0.3"/>
<path d="M1009.77 706.801C1009.77 706.801 1006.07 709.846 1019.83 701.031L1084.46 832.685C1084.46 832.685 1088.66 838.122 1077.47 840.432L1009.77 706.801Z" fill="white" fill-opacity="0.3"/>
<path d="M793.546 709.643C793.546 709.643 789.847 712.634 803.615 703.975L868.238 833.283C868.238 833.283 872.442 838.623 861.249 840.892L793.546 709.643Z" fill="white" fill-opacity="0.3"/>
<path d="M937.905 788.269C944.913 829.009 980.328 860 1022.96 860H1028.68C1076.35 860 1115 821.253 1115 773.455V744.18C1115 717.552 1091.19 699.273 1064.98 701.579C1039.05 702.839 1012.6 702.839 986.664 701.579C962.761 699.652 940.855 714.173 937.184 737.31C936.83 739.543 936.645 741.837 936.645 744.18V773.455C936.645 778.506 937.077 783.455 937.905 788.269ZM937.905 788.269L937.119 787.669C926.202 779.335 910.993 779.583 900.355 788.269V788.269M902 751H933.5M772.018 701.579C797.951 702.839 824.403 702.839 850.336 701.579C876.545 699.273 900.355 717.552 900.355 744.18V773.455C900.355 821.253 861.709 860 814.037 860H808.318C760.646 860 722 821.253 722 773.455V744.18C722 717.552 745.809 699.273 772.018 701.579Z" stroke="black" stroke-width="20" stroke-linecap="round"/>
</g>
<defs>
<clipPath id="clip0_884_3075">
<rect width="1500" height="1500" fill="white"/>
</clipPath>
</defs>
      <g clip-path="url(#clip0_786_1591)">
<path d="M348 775L369 729L432 708.5L555.5 668.5L699.5 639.5L848 627H1014L1171.5 626L1194 614C1148 466 952.5 317.5 699.5 360.5C497.1 394.9 394.833 548.833 369 621.5C350.167 630 303.6 633.4 262 649C220.4 664.6 192.833 723.333 185 742L214 752L276 760L272 789.5L269.5 844.5L316.5 819.5L348 775Z" fill="#53B6F9"/>
<path d="M740.5 357.5C585.7 413.5 517 606.833 523.5 681L365.5 728L337.5 806.5L276.5 848L267.5 831.5L276.5 757L233 751.5L188.5 742.5L196 721L228.5 675.5L295.5 638.5L371 619.5C458.6 418.7 664.5 358.167 740.5 357.5Z" fill="#001647" fill-opacity="0.2"/>
<path d="M365.499 733C361.229 766.691 346.6 822.9 278.017 846.491C272.108 848.524 266.062 844.256 266.142 838.007C266.414 816.515 271.11 785.909 284.173 755.5M352.69 674C349.439 692.112 348.907 708.667 351.213 722.797C352.132 728.423 358.007 731.46 363.407 729.632C567.243 660.623 776.1 608.066 1183.08 624.375C1190.15 624.658 1195.45 617.788 1192.83 611.211C1146.56 495.051 1004.12 307.96 674.999 368.5C517.477 397.475 410.414 517.784 368.974 619.5M352.69 674C355.747 656.968 361.208 638.561 368.974 619.5M352.69 674C318.787 694.711 297.273 725.007 284.173 755.5M368.974 619.5C275.567 629.083 217.031 666.673 189.87 735.352C187.877 740.391 190.542 746.023 195.709 747.656C215.238 753.828 249.504 761.579 284.173 755.5" stroke="black" stroke-width="22" stroke-linecap="round"/>
</g>
<defs>
<clipPath id="clip0_786_1591">
<rect width="1500" height="1500" fill="white"/>
</clipPath>
</defs>
      
    </g>
    </svg>