<svg
      xmlns="http://www.w3.org/2000/svg"
      preserveAspectRatio="xMidYMin meet"
      fill="none"
      viewBox="0 0 1500 1500"
    >
      <g>
      <path fill="url(#prefix__paint0_linear_53_28788)" d="M0 0h1500v1500H0z"/><defs><linearGradient id="prefix__paint0_linear_53_28788" x1="0" y1="0" x2="1500" y2="1500" gradientUnits="userSpaceOnUse">
<stop stop-color="#DBE4E4"/>
<stop offset="1" stop-color="#A7BDBD"/>
</linearGradient></defs>
      <g clip-path="url(#clip0_481_295)">
<path d="M380.5 1417.5L349.5 1509L1140 1510L1111 1376.5L1038 1230L991.5 1152C965.167 1110.5 892.5 1024.6 812.5 1013C732.5 1001.4 660.167 1039.17 634 1059.5L568.5 1115.5L465 1243.5L380.5 1417.5Z" fill="#265CC2"/>
<path d="M409.87 1339.62C462.691 1207.98 569.086 1113.24 605.384 1082.33L632.5 1058L637.5 1059.48C599.917 1079.63 651 1067.5 648.91 1093.5L659.5 1099.5L764.5 1175C714.1 1177.8 656.5 1131.81 634 1108.47C506.332 1241.92 454.501 1434.51 443.159 1511H353.699C350.414 1508.73 357.049 1471.27 409.87 1339.62Z" fill="#001647" fill-opacity="0.2"/>
<path d="M842 1179L826.5 1505H806L819 1213.5L824 1160.5L871.5 1156.5C874.333 1159.5 879.4 1166.7 877 1171.5C874.6 1176.3 852.667 1178.5 842 1179Z" fill="#001647" fill-opacity="0.2"/>
<path d="M804 1171.5L782.5 1505H798.5L817.5 1158L794 1147.5C788.667 1150.5 779.2 1157.3 784 1160.5C788.8 1163.7 799.333 1169.17 804 1171.5Z" fill="#001647" fill-opacity="0.2"/>
<path d="M887.5 1154.5C899.9 1168.5 916.667 1168.33 921 1167.5L899 1147.5L887.5 1154.5Z" fill="#001647" fill-opacity="0.2"/>
<path d="M550 1130.5L486 1207L466 1181.5L522.5 1113.5L550 1130.5Z" fill="#FFBF44"/>
<path d="M1014.5 1126.5L988.5 1145.5L1034 1215.5L1059.5 1197L1014.5 1126.5Z" fill="#FFBF44"/>
<path d="M821.5 1160L798 1507.5H936L875 1145L902.5 1139.5L842.5 1101L792 1145L821.5 1160Z" fill="#3A3A3A"/>
<path d="M353.5 1519.5C365.5 1454.33 414.5 1313.6 483.5 1219C529.307 1156.2 575.854 1103.13 626.504 1061.8M1142.5 1519.5C1103.44 1290.29 1000.08 1146.05 905.02 1064.27C826.037 996.323 710.273 994.302 629.137 1059.66C628.258 1060.37 627.38 1061.08 626.504 1061.8M1013.5 1319C1024.83 1354.33 1048.1 1443.9 1050.5 1519.5M667 1361.5C661.167 1392.33 650.3 1467.1 653.5 1519.5M926 1087C934.762 1114.34 929.833 1141.11 925.003 1154.27C924.105 1156.72 921.076 1157.36 919.054 1155.71C913.678 1151.34 905.408 1144.87 896 1137.66M793.42 1142.5C783.296 1151.26 773.753 1159.03 766.905 1164.4C766.012 1165.1 764.867 1165.39 763.753 1165.17C707.225 1153.99 651.021 1094.56 626.504 1061.8M793.42 1142.5C809.829 1128.31 827.763 1111.55 838.219 1098.32C839.228 1097.04 841.056 1096.75 842.381 1097.69C856.424 1107.73 878.238 1124.04 896 1137.66M793.42 1142.5C800.317 1146.99 810.966 1152 823.5 1154.93M896 1137.66C888.793 1144.19 881.197 1148.81 873.5 1151.94M823.5 1154.93L802 1508M823.5 1154.93C838.529 1158.44 856.268 1158.95 873.5 1151.94M873.5 1151.94L932.5 1508M490.5 1205L465.114 1181.08C464.759 1180.74 464.686 1180.22 464.956 1179.81C476.299 1162.78 502.545 1125.78 528.398 1111.33C528.762 1111.13 529.209 1111.18 529.524 1111.45L551.5 1130.5M985 1137.5L1007.7 1116.72C1008.13 1116.33 1008.79 1116.37 1009.15 1116.83C1022.41 1133.79 1048.09 1165.95 1060.15 1190.77C1060.36 1191.2 1060.22 1191.71 1059.83 1191.99L1034 1211.5" stroke="black" stroke-width="22" stroke-linecap="round"/>
<path d="M948.828 1225.43C949.312 1222.29 953.697 1221.96 954.654 1224.98L960.57 1243.69C960.99 1245.01 962.271 1245.88 963.66 1245.77L979.699 1244.54C982.357 1244.34 983.941 1247.44 982.216 1249.47L968.853 1265.21C968.185 1266 967.969 1267.08 968.28 1268.06L975.083 1289.57C975.995 1292.45 972.547 1294.72 970.259 1292.74L958.271 1282.36C957.01 1281.27 955.1 1281.42 954.02 1282.69L943.759 1294.78C941.801 1297.08 938.046 1295.37 938.507 1292.38L941.944 1270.08C942.101 1269.06 941.723 1268.03 940.943 1267.36L925.332 1253.84C923.316 1252.1 924.408 1248.79 927.066 1248.58L943.104 1247.35C944.494 1247.25 945.627 1246.2 945.839 1244.82L948.828 1225.43Z" fill="#FFBF44"/>
</g>
<defs>
<clipPath id="clip0_481_295">
<rect width="1500" height="1500" fill="white"/>
</clipPath>
</defs>
      <g clip-path="url(#clip0_497_1194)">
<path d="M379.667 654.812C432.345 471.574 618.472 401.981 699.114 390.653C740.985 382.718 849.655 375.215 949.364 408.675C980 418.956 1049.88 457.388 1091.92 499.818C1144.47 552.856 1272.97 732.052 1185.05 927.725C1097.12 1123.4 758.414 1092.29 612.749 1051.82C464.472 1010.63 314.48 881.563 379.667 654.812Z" fill="#AABBFF"/>
<path d="M449.293 747.204C454.734 531.068 585.306 432.345 649.911 410C432.292 459.565 365.296 655.455 364 747.204C377.99 984.871 584.496 1053.43 681 1058C601.498 1044.46 443.853 963.339 449.293 747.204Z" fill="#001647" fill-opacity="0.2"/>
<path d="M379.667 654.812C432.345 471.574 618.472 401.981 699.114 390.653C740.985 382.718 849.655 375.215 949.364 408.675C980 418.956 1049.88 457.388 1091.92 499.818C1144.47 552.856 1272.97 732.052 1185.05 927.725C1097.12 1123.4 758.414 1092.29 612.749 1051.82C464.472 1010.63 314.48 881.563 379.667 654.812Z" stroke="black" stroke-width="22" stroke-linecap="round"/>
</g>
<defs>
    <clipPath id="prefix__clip0_299_662"><path fill="#fff" d="M0 0h1500v1500H0z"/></clipPath>
</defs>
      <g clip-path="url(#clip0_624_3534)">
<path d="M780.422 771.992C785.186 778.098 791.28 783.038 798.24 786.435C805.2 789.833 812.843 791.599 820.589 791.599C828.334 791.599 835.977 789.833 842.937 786.435C849.897 783.038 855.991 778.098 860.755 771.992" stroke="black" stroke-width="22" stroke-miterlimit="10" stroke-linecap="round"/>
<path d="M972.16 771.992C976.925 778.098 983.018 783.038 989.979 786.435C996.939 789.833 1004.58 791.599 1012.33 791.599C1020.07 791.599 1027.71 789.833 1034.68 786.435C1041.64 783.038 1047.73 778.098 1052.49 771.992" stroke="black" stroke-width="22" stroke-miterlimit="10" stroke-linecap="round"/>
<path d="M922.5 961C929.521 961 936.385 958.918 942.223 955.017C948.061 951.116 952.611 945.572 955.298 939.085C957.985 932.598 958.688 925.461 957.318 918.574C955.948 911.688 952.567 905.362 947.602 900.398C942.638 895.433 936.312 892.052 929.426 890.682C922.539 889.312 915.402 890.015 908.915 892.702C902.428 895.389 896.884 899.939 892.983 905.777C889.082 911.615 887 918.479 887 925.5C887 934.915 890.74 943.945 897.398 950.602C904.055 957.26 913.085 961 922.5 961Z" fill="black" stroke="black" stroke-width="22" stroke-miterlimit="10" stroke-linecap="round"/>
</g>
<defs>
<clipPath id="clip0_624_3534">
<rect width="1500" height="1500" fill="white"/>
</clipPath>
</defs>
      <g clip-path="url(#clip0_884_3075)">
<path opacity="0.5" d="M720 750.438C720 722.417 743.895 701.078 770.199 705.609C796.226 710.091 822.774 710.091 848.801 705.609C875.105 701.078 899 722.417 899 750.438V774.93C899 825.227 860.214 866 812.37 866H806.63C758.786 866 720 825.227 720 774.93V750.438Z" fill="#A5F15C"/>
<path opacity="0.5" d="M937 750.438C937 722.417 960.762 701.078 986.919 705.609C1012.8 710.091 1039.2 710.091 1065.08 705.609C1091.24 701.078 1115 722.417 1115 750.438V774.93C1115 825.227 1076.43 866 1028.85 866H1023.15C975.569 866 937 825.227 937 774.93V750.438Z" fill="#A5F15C"/>
<path d="M555 792C555 797.523 559.477 802 565 802C570.523 802 575 797.523 575 792H555ZM720 747L595 747L595 767L720 767L720 747ZM555 787V792H575V787H555ZM595 747C572.909 747 555 764.909 555 787H575C575 775.955 583.954 767 595 767L595 747Z" fill="black"/>
<path d="M956.85 721.662C956.85 721.662 956.298 703.515 996.284 698.54L1068.96 850.236C1068.96 850.236 1054.94 866.613 1025.72 865.696L956.85 721.662Z" fill="white" fill-opacity="0.3"/>
<path d="M740.63 724.24C740.63 724.24 740.078 706.416 780.064 701.53L852.741 850.523C852.741 850.523 838.725 866.607 809.505 865.706L740.63 724.24Z" fill="white" fill-opacity="0.3"/>
<path d="M1009.77 706.801C1009.77 706.801 1006.07 709.846 1019.83 701.031L1084.46 832.685C1084.46 832.685 1088.66 838.122 1077.47 840.432L1009.77 706.801Z" fill="white" fill-opacity="0.3"/>
<path d="M793.546 709.643C793.546 709.643 789.847 712.634 803.615 703.975L868.238 833.283C868.238 833.283 872.442 838.623 861.249 840.892L793.546 709.643Z" fill="white" fill-opacity="0.3"/>
<path d="M937.905 788.269C944.913 829.009 980.328 860 1022.96 860H1028.68C1076.35 860 1115 821.253 1115 773.455V744.18C1115 717.552 1091.19 699.273 1064.98 701.579C1039.05 702.839 1012.6 702.839 986.664 701.579C962.761 699.652 940.855 714.173 937.184 737.31C936.83 739.543 936.645 741.837 936.645 744.18V773.455C936.645 778.506 937.077 783.455 937.905 788.269ZM937.905 788.269L937.119 787.669C926.202 779.335 910.993 779.583 900.355 788.269V788.269M902 751H933.5M772.018 701.579C797.951 702.839 824.403 702.839 850.336 701.579C876.545 699.273 900.355 717.552 900.355 744.18V773.455C900.355 821.253 861.709 860 814.037 860H808.318C760.646 860 722 821.253 722 773.455V744.18C722 717.552 745.809 699.273 772.018 701.579Z" stroke="black" stroke-width="20" stroke-linecap="round"/>
</g>
<defs>
<clipPath id="clip0_884_3075">
<rect width="1500" height="1500" fill="white"/>
</clipPath>
</defs>
      <style type="text/css">
	.st0{fill:#AABBFF;}
	.st1{fill:none;stroke:#000000;stroke-width:22;stroke-linecap:round;}
	.st2{fill:#A760FF;}
	.st3{fill:#001647;fill-opacity:0.2;}
	.st4{fill:none;stroke:#000000;stroke-width:22;}
</style>
<path class="st0" d="M711.9,381.5L669.1,415l85.8,42c31.2-0.5,101.1-2.4,131.5-5.8c30.4-3.5,60.3-20.5,71.4-28.6l-45-35.2
	l-22.1-27.1l-38.7-7.3l-35.4,36l-5.6-18.9l-31.9-12.7l-31.1,5.3L711.9,381.5z"/>
<path class="st1" d="M754.8,451.1c3.6-10.8,11.8-27.5,25.3-39.6 M882.2,449.1c-4.1-9.4-11.2-23.4-22.8-34.6 M670.7,416
	c7.5-12.6,25.3-37.9,51.7-38.4c2.4,0,4.7,0,6.9,0.2 M780.1,411.6c9.4-8.4,21.2-14.5,35.7-14.8c2.4,0,4.7,0.1,6.9,0.3 M780.1,411.6
	c-8.2-10.7-21.7-31.3-50.8-33.7 M953.1,422.6c-6.3-11.9-23.5-34.8-45-37.5 M859.4,414.5c4.8-9.7,20.2-29.3,43.9-29.7
	c1.6,0,3.2,0.1,4.8,0.3 M859.4,414.5c-9.2-8.9-21.2-16-36.8-17.5 M729.3,377.9c4.8-9.2,18.3-27.6,39.2-27.9
	c26.9-0.4,49,25.8,54.1,47.1 M908.1,385.1c-4.8-10.8-18.7-33.3-36.5-33.1c-22.2,0.4-39.3,18.7-49,41"/>
<path class="st2" d="M370.4,649.9c-3.5,11-6.3,22.8-8.2,31c-0.2,0.9-0.7,1.7-1.3,2.3c-0.7,0.6-1.5,1-2.4,1.1
	c-0.9,0.1-1.8-0.1-2.6-0.5c-0.8-0.4-1.4-1.1-1.8-1.9c-1.2-2.4-2.2-5-3-7.6c-3-9.8,2.8-22.3,0.4-27.3c-2.4-5.1-0.8-14.6,1.1-22.2
	c1.5-6,2.6-12.2,3.3-18.3c0.2-2-0.5-14.4,0.9-18c1.1-3,6.9-15.4,8.9-19.6c0.4-0.9,1.1-1.6,1.9-2l30.1-19.9c0.2-0.1,3.5-12,3.7-12.1
	l84.5-18.8c0.1-0.1,0.3-0.1,0.4-0.1l97.6-23.3c0.2,0,0.4-0.1,0.5-0.1l95.5-10.7l127.1-17.4c0.2,0,0.3,0,0.5,0l163.3-2.5l0.5,0l0.1,0
	c4.3,0.4,54.5,4.6,67.9,4.9c14,0.3,47,2.7,62.9,4.9c15.8,2.3,23.6,7.6,29.2,11.7c5.6,4,25.9,9.2,32.6,16.8
	c6.7,7.6,23.8,40.3,22.8,41.1c-4.3,3.3,19.8,35.2,22.2,41.4c0.2,0.6,0.3,1.2,0.3,1.8l4,29.9c0,1.1-0.5,2-1.2,2.8l-14.4,15.2
	c-0.5,0.5-1.1,0.9-1.8,1.2c-0.7,0.2-1.4,0.3-2.2,0.1c-0.7-0.1-1.4-0.4-2-0.9c-0.6-0.5-1-1.1-1.3-1.7l-21.6-41.1
	c-2.4-4.6-7-7.6-12.2-8l-18.7-1.4l-114.8,2.4L812,589.5l-0.4,0l-281,34.1l-0.2,0l-116.9,20.5c-0.8,0.1-1.6,0.1-2.3-0.2l-14.1-5.4
	c-0.7-0.3-1.6-0.4-2.3-0.2l-5.8,0.2l-7.4,1.4C376.3,640.9,372,644.7,370.4,649.9z"/>
<path class="st3" d="M604.4,493.6c-29.7,32-45.2,96.8-49.3,125.1c-51.4,7.1-156.6,21.9-166.4,23.8c-9.8,2-21.7,25.5-26.4,37
	l-12.6-31.8l6.8-50.1c3-6.9,3.2-26.6,27.7-50c24.5-23.4,95.5-37,127.9-40.8L604.4,493.6z"/>
<path class="st4" d="M1185.7,645.2l15.8-13.9c16.2-14.2,11.4-37.7,2.7-57.4c-12-27.6-33.9-59.1-49-74.2
	c-15.1-15.1-34.6-25.9-55.9-28c-311.8-30.6-547.8,17.7-670.9,54.3c-52.9,15.8-98.2,85.6-60.4,178.9"/>
<path class="st4" d="M385,650.5c0,0,313-63.3,499.3-62.7c0,0,164.2-4.1,272.7,5.2"/>
<g>
	<path d="M753.8,534.4c-0.7-0.5-1.5-0.9-2.4-1c-0.9-0.2-1.7-0.2-2.6,0c-2,0.4-4.1,0.7-6.1,0.8c-1.7,0.1-3.5,0.2-5.3,0.2
		c-0.7,0-1.5,0-2.3,0.1c-0.7,0-1.5,0.1-2.3,0.1l-0.1,0l-0.1,0c-0.9,0.1-1.7,0.3-2.4,0.7c-0.8,0.4-1.4,0.9-1.9,1.6
		c-0.5,0.6-1,1.4-1.2,2.2c-0.2,0.8-0.3,1.6-0.2,2.4c0.1,0.9,0.3,1.7,0.7,2.5c0.4,0.8,1,1.5,1.6,2c0.7,0.6,1.4,1,2.3,1.3
		c0.8,0.3,1.7,0.3,2.5,0.3c0.3,0,0.6,0,0.8,0c-0.3,0.6-0.7,1.1-1.2,1.5l-0.1,0.1c-1.3,1.5-3.1,2.5-5.1,2.7c-0.6,0-1.3-0.1-1.9-0.4
		c-0.6-0.3-1.1-0.7-1.5-1.3c-1-1.2-1.7-2.6-2.3-4.1c-1-2.7-1.6-5.6-1.9-8.5c-0.6-5.6-0.4-9.9,0.7-12.9l0-0.1c0.2-0.7,0.5-1.4,1-2
		c0.4-0.6,1-1,1.6-1.4c0.5-0.2,1.1-0.4,1.7-0.4c0.6,0,1.3,0,1.9,0.1c0.6,0.1,1.1,0.2,1.7,0.4c0.3,0.1,0.6,0.2,0.8,0.3
		c0.6,0.9,1.5,1.7,2.4,2.3c1.2,0.7,2.5,1,3.9,0.9c0.9-0.1,1.7-0.3,2.4-0.7c0.8-0.4,1.4-0.9,1.9-1.6c0.5-0.7,0.9-1.4,1.2-2.3
		c0.2-0.8,0.3-1.7,0.1-2.6c-0.2-0.9-0.5-1.8-0.9-2.6c-0.6-1.2-1.5-2.3-2.6-3c-1.2-1-2.6-1.8-4-2.4c-1.6-0.8-3.3-1.3-5.1-1.6
		c-1.7-0.3-3.5-0.4-5.2-0.2c-1.3,0-2.6,0.3-3.9,0.7c-1.2,0.4-2.4,0.9-3.5,1.5c-1.3,0.7-2.4,1.6-3.4,2.6c-1.1,1-2,2.2-2.8,3.5
		c-1.7,3-2.7,6.2-3.1,9.6c-0.5,4.3-0.5,8.6,0.1,12.9c1,8.5,3.4,15.1,7.2,19.7c1.8,2.2,4.1,4,6.7,5.2c2.2,1,4.6,1.5,7,1.5
		c0.3,0,0.7,0,1,0l0.4,0l0.1,0c2.5-0.2,4.9-0.9,7.2-2.1c4.5-2.3,8-6.1,10.1-10.8c0.8-1.7,1.2-3.6,1.4-5.5c0.3,0,0.5-0.1,0.8-0.1
		c0.7-0.1,1.4-0.3,2.1-0.4c0.9-0.1,1.7-0.5,2.4-1c0.7-0.5,1.3-1.1,1.8-1.8c0.5-0.7,0.8-1.5,0.9-2.4c0.1-0.9,0.1-1.7-0.1-2.6
		C756.2,536.7,755.2,535.3,753.8,534.4z"/>
	<path d="M812.2,544.3c-0.3-2-0.6-4.2-0.9-6.7c-0.2-1.1-0.3-2.2-0.5-3.3c-0.2-1.4-0.4-2.9-0.7-4.4c-0.4-2.5-0.8-4.9-1.2-7l-0.3-1.5
		c-0.4-2.5-0.9-4.8-1.4-6.8c-0.4-1.8-0.8-3.2-1.2-4.4c-0.3-1.1-0.8-2.3-1.2-3.3c-0.4-0.9-0.9-1.7-1.5-2.5c-0.5-0.7-1.2-1.3-1.9-1.7
		c-0.8-0.6-1.8-1-2.8-1.2c-1-0.2-2.1-0.1-3.1,0.1c-1,0.3-1.9,0.7-2.7,1.4c-0.8,0.7-1.4,1.5-1.9,2.4c-0.4,0.8-0.7,1.6-0.9,2.4
		c-0.3,0.8-0.6,1.7-0.8,2.6c-0.2,0.9-0.5,2-0.8,3.3c-0.5,1.9-1,4.3-1.5,6.9c-0.4,2.4-0.9,5-1.4,7.8c-2.5-5.9-4.7-10.7-6.6-14.2
		c-1-2-2.2-3.9-3.6-5.7c-0.4-0.5-0.8-0.9-1.2-1.4c-0.4-0.4-0.8-0.8-1.3-1.1c-0.9-0.8-2-1.4-3.3-1.7c-0.8-0.2-1.7-0.3-2.5-0.2l-0.1,0
		c-1,0.1-1.9,0.4-2.8,0.9c-0.9,0.5-1.6,1.1-2.2,1.9c-0.4,0.6-0.8,1.2-1.1,1.9c-0.4,0.8-0.6,1.7-0.8,2.5c-0.2,1.1-0.3,2.3-0.4,3.5
		c-0.1,1.4-0.1,3,0,4.8c0.1,2,0.2,4.3,0.4,6.8c0.2,2.6,0.5,5.4,0.8,8.5c0.3,2.6,0.6,5.1,0.9,7.6c0.3,2.5,0.6,4.6,0.9,6.5
		c0.3,1.9,0.6,4,1,6.3c0.1,0.9,0.4,1.7,0.8,2.5c0.4,0.8,1,1.4,1.7,1.9c1.2,1,2.7,1.5,4.2,1.5c0.2,0,0.4,0,0.5,0l0.3,0l0.2-0.1
		c0.7-0.1,1.4-0.4,2.1-0.7c0.8-0.4,1.4-1,1.9-1.7c0.5-0.7,0.9-1.5,1.1-2.3c0.2-0.9,0.2-1.7,0.1-2.5c-0.3-2.1-0.6-4-0.8-5.7l-0.8-5.9
		c-0.3-2.2-0.6-4.5-0.9-6.9l0-0.3c0.2,0.4,0.4,0.9,0.6,1.4l3.6,9.2c0.5,1.3,1,2.6,1.5,3.7c0.7,1.7,1.4,3.7,2.1,5.8
		c0.5,1.4,1.4,2.6,2.7,3.4c1.2,0.8,2.7,1.2,4.1,1.2l0.1,0l0.1,0c1.4-0.1,2.8-0.7,3.9-1.6c1-1,1.7-2.3,1.9-3.7l0-0.2l0,0
		c0-0.2,0.1-0.7,0.2-1.5c0.2-1.1,0.4-2.6,0.7-4.4c0.3-1.8,0.6-4,1-6.4c0.3-1.9,0.6-4,1-6c0.2,1.5,0.4,3,0.6,4.5
		c0.3,2.3,0.5,4.3,0.8,6c0.3,1.7,0.5,3.7,0.7,5.8c0.2,1.8,1.1,3.3,2.4,4.4c0.7,0.6,1.4,1,2.3,1.3c0.8,0.3,1.6,0.3,2.5,0.3l0.1,0
		l0.1,0c0.9,0,1.7-0.3,2.5-0.7c0.8-0.4,1.4-0.9,2-1.6c0.6-0.7,1-1.4,1.2-2.3c0.2-0.8,0.3-1.7,0.2-2.5
		C812.7,548.5,812.5,546.3,812.2,544.3z"/>
	<path d="M848.4,552.2c-0.5-0.7-1.2-1.3-2-1.7c-0.8-0.4-1.6-0.7-2.5-0.8c-1.9-0.3-3.7-1.1-5.1-2.4c-1.6-1.4-2.9-3-4-4.8
		c-1.1-1.9-2.1-3.8-2.8-5.9c-0.6-1.8-1.1-3.7-1.5-5.5c-0.4-2.3-0.6-4.7-0.4-7c0.1-2.2,0.5-4.5,1.2-6.6c0.6-2,1.5-3.9,2.6-5.7
		c1-1.7,2.3-3.2,3.8-4.4c0.7-0.5,1.3-1.2,1.7-2c0.4-0.8,0.6-1.6,0.7-2.5c0.1-1.8-0.5-3.5-1.6-4.8c-0.5-0.7-1.2-1.3-2-1.7
		c-0.8-0.4-1.6-0.7-2.4-0.8c-0.9-0.1-1.7-0.1-2.6,0.2c-0.8,0.2-1.6,0.6-2.3,1.2c-2.5,2.1-4.7,4.5-6.5,7.3c-1.8,2.9-3.2,6-4.2,9.2
		c-1.8,6.2-2.1,12.9-0.9,19.3c0.2,1,0.5,2.2,0.7,3.4c0.4,1.5,0.8,3,1.3,4.4c0.6,1.6,1.2,3.2,2,4.9c0.8,1.8,1.8,3.5,3,5.1
		c4.8,6.9,10.8,10.9,17.9,12c0.2,0,0.5,0.1,0.7,0.1c0.1,0,0.2,0,0.3,0l0.5,0c1.5-0.1,2.9-0.7,4-1.7c1.1-1,1.8-2.4,1.9-3.9
		c0.1-0.9,0-1.7-0.3-2.6C849.3,553.6,848.9,552.8,848.4,552.2z"/>
	<path d="M887.5,542.2c-2.2-2.9-4.3-5.8-6.2-8.5c-1.8-2.4-3.5-4.9-5.1-7.3c1.4-3.2,2.8-6.6,4-10c1.4-3.8,2.6-7.9,3.8-12.2
		c0.2-0.8,0.3-1.7,0.2-2.6c-0.1-0.9-0.4-1.7-0.9-2.4c-0.9-1.5-2.3-2.6-3.9-3.1c-0.8-0.3-1.7-0.4-2.5-0.3c-0.9,0.1-1.7,0.3-2.5,0.7
		c-0.8,0.4-1.4,1-2,1.7c-0.5,0.7-0.9,1.5-1.1,2.3c-0.8,3-1.6,5.6-2.3,7.9c-0.5,1.5-1,3-1.6,4.4c-1-1.6-1.9-3.2-2.8-4.7
		c-1.4-2.4-2.8-4.8-4.1-7.2c-0.4-0.8-1-1.5-1.6-2.1c-0.7-0.6-1.5-1-2.3-1.3c-0.8-0.3-1.7-0.4-2.6-0.3c-0.9,0.1-1.7,0.3-2.4,0.7
		c-0.8,0.4-1.5,0.9-2.1,1.6c-0.6,0.7-1,1.5-1.2,2.3c-0.2,0.8-0.3,1.7-0.2,2.6c0.1,0.9,0.4,1.7,0.8,2.4c3.6,6.8,7.8,13.7,12.2,20.5
		c-1.4,2.8-2.8,5.5-4.3,8c-1.6,2.8-3.2,5.7-4.8,8.6l-0.5,0.9c-0.4,0.8-0.7,1.6-0.8,2.4c-0.1,0.9,0,1.7,0.2,2.5
		c0.2,0.9,0.6,1.6,1.2,2.3c0.5,0.7,1.2,1.3,1.9,1.7c1.1,0.6,2.3,1,3.6,1c0.2,0,0.3,0,0.5,0c1-0.1,2.1-0.4,2.9-1
		c0.9-0.6,1.6-1.4,2.1-2.3l0.4-0.8c1.1-1.9,2.2-3.9,3.3-5.8l0.4-0.7c0.8-1.4,1.6-2.9,2.5-4.4c0.4,0.5,0.7,1,1.1,1.5
		c0.6,0.8,1.1,1.6,1.7,2.4c1,1.5,2.1,2.9,3.2,4.4l1.4,1.9c0.7,1,1.7,1.7,2.8,2.2c1,0.5,2.2,0.7,3.3,0.6c1.2-0.1,2.3-0.5,3.2-1.2
		c0.7-0.5,1.3-1.1,1.7-1.9c0.4-0.7,0.7-1.6,0.8-2.4c0.1-0.9,0.1-1.8-0.1-2.6C888.4,543.7,888,542.9,887.5,542.2z"/>
	<path d="M919.2,528.1c0-1.2-0.1-2.3-0.2-3.5c-0.3-3.3-0.9-6.5-2-9.6c-1-3.1-2.4-6.2-4.1-9c-1.8-3-4-5.8-6.5-8.3
		c-2.4-2.4-5.2-4.4-8.2-6c-0.8-0.4-1.6-0.7-2.5-0.8c-0.9-0.1-1.8,0-2.6,0.2c-0.8,0.2-1.6,0.6-2.3,1.2c-0.7,0.5-1.2,1.2-1.5,2
		c-0.4,0.8-0.6,1.6-0.7,2.5c-0.1,0.9,0.1,1.7,0.3,2.5c0.3,0.9,0.7,1.6,1.3,2.3c0.6,0.7,1.3,1.2,2.1,1.5c1.8,1,3.5,2.3,5,3.8
		c1.6,1.6,3,3.3,4.1,5.2c1.2,2,2.2,4.1,2.9,6.3c0.7,2.2,1.2,4.6,1.4,6.9c0.1,1.9,0.1,3.8,0,5.7c-0.1,2.1-0.5,4.2-1.1,6.2
		c-0.6,1.9-1.5,3.7-2.6,5.3c-1.1,1.4-2.6,2.5-4.3,3c-0.8,0.3-1.6,0.7-2.2,1.2c-0.7,0.6-1.2,1.3-1.5,2c-0.4,0.8-0.6,1.6-0.7,2.5
		c0,0.9,0.1,1.7,0.4,2.5c0.5,1.5,1.5,2.7,2.8,3.5c1.1,0.7,2.4,1,3.7,1c0.2,0,0.3,0,0.5,0l0.6,0l0.1,0c0.3,0,0.6-0.1,0.9-0.2
		c6.7-2.2,11.6-7.1,14.5-14.7c0.7-1.8,1.2-3.6,1.5-5.5c0.3-1.8,0.6-3.5,0.7-5.1C919.2,531.1,919.2,529.6,919.2,528.1z"/>
</g>
      
    </g>
    </svg>