<svg
      xmlns="http://www.w3.org/2000/svg"
      preserveAspectRatio="xMidYMin meet"
      fill="none"
      viewBox="0 0 1500 1500"
    >
      <g>
      <path fill="url(#prefix__paint0_linear_53_30463)" d="M0 0h1500v1500H0z"/><defs><linearGradient id="prefix__paint0_linear_53_30463" x1="1500" y1="1500" x2="0" y2="0" gradientUnits="userSpaceOnUse">
<stop stop-color="#FF5A5A"/>
<stop offset="1" stop-color="#FFBDBD"/>
</linearGradient></defs>
      <g clip-path="url(#clip0_491_661)">
<path d="M773 1011.5C543.4 1029.9 398.667 1353.5 355 1513H1138.5C1075.7 1127 868.667 1017.83 773 1011.5Z" fill="white"/>
<path d="M659 1426.5L652 1506.5H1049.5L1030 1393L970 1295L962.5 1122L889 1052L903 1295L790.5 1306.5L693 1082.5L646.5 1039.5L602.5 1082.5L714 1306.5L699.5 1310C693.833 1329.17 682 1369.4 680 1377C678 1384.6 665.167 1413.17 659 1426.5Z" fill="#4AEEB9"/>
<path d="M409.87 1339.62C462.691 1207.98 569.086 1113.24 605.384 1082.33L674 1033.5L749.5 1019.5C700.439 1045.81 658.504 1080.9 622.837 1120.5L648 1146L686 1225.5L711 1304L699.5 1310.5L688 1325.5C670.8 1260.7 622.964 1178.83 601.196 1146C497.288 1275.8 453.476 1441.42 443.159 1511H353.699C350.414 1508.73 357.049 1471.27 409.87 1339.62Z" fill="#001647" fill-opacity="0.2"/>
<path d="M353.5 1519.5C365.5 1454.33 414.5 1313.6 483.5 1219C530.101 1155.11 577.468 1101.29 629.141 1059.66C710.278 994.299 826.037 996.323 905.02 1064.27C1000.08 1146.05 1103.44 1290.29 1142.5 1519.5M1013.5 1319C1024.83 1354.33 1048.1 1443.9 1050.5 1519.5M667 1361.5C661.167 1392.33 650.3 1467.1 653.5 1519.5M604.5 1084C635.258 1130.06 695.902 1235.08 721.061 1325.99C726.673 1346.27 746.935 1359.9 767.42 1355.09C787.404 1350.4 799.478 1330.11 793.043 1310.61C771.029 1243.93 726.704 1133.05 664 1038M962 1121.5C964.844 1156.07 968.134 1219.1 968.588 1273.5M968.588 1273.5C968.712 1288.36 968.625 1302.57 968.259 1315.38C967.766 1332.63 952.618 1345.24 935.427 1343.68C918.895 1342.17 906.385 1328.09 906.315 1311.49C906.045 1246.8 900.499 1137.84 884.5 1057.5M968.588 1273.5C973.442 1318.3 1011.5 1378 1030 1387.5M657 1436.5C667.459 1422.72 689.328 1378.85 693.452 1313.28C693.481 1312.82 693.81 1312.44 694.255 1312.35L708.5 1309.5M792.5 1301L899.5 1293.5" stroke="black" stroke-width="22" stroke-linecap="round"/>
<circle cx="758" cy="1319" r="11" fill="black"/>
<circle cx="938" cy="1309" r="11" fill="black"/>
<path d="M834.397 1435.53C832.697 1434.23 830.587 1433.66 828.447 1433.91C826.327 1434.17 824.167 1434.3 822.017 1434.31C820.167 1434.32 818.317 1434.23 816.357 1434.13L815.587 1434.09C815.037 1434.06 814.477 1434.03 813.907 1434.01C813.097 1433.99 812.247 1433.98 811.357 1433.98H811.267C810.237 1433.94 809.187 1434.16 808.237 1434.59C807.297 1435.02 806.447 1435.67 805.817 1436.44C805.137 1437.23 804.657 1438.14 804.367 1439.14C804.077 1440.14 804.017 1441.17 804.157 1442.13C804.417 1444.27 805.457 1446.21 807.097 1447.61C808.537 1448.94 810.357 1449.72 812.297 1449.85C812.217 1449.94 812.137 1450.02 812.057 1450.1L811.927 1450.24C811.337 1450.91 810.617 1451.45 809.807 1451.83C809.027 1452.19 808.207 1452.4 807.347 1452.44C806.747 1452.39 806.167 1452.21 805.647 1451.92C805.097 1451.61 804.607 1451.17 804.197 1450.59C803.167 1449.23 802.327 1447.73 801.707 1446.16C800.577 1443.23 799.847 1440.15 799.517 1436.93C798.677 1430.96 798.787 1426.41 799.857 1423.35C800.527 1421.21 801.457 1420.7 801.847 1420.53C802.317 1420.37 802.807 1420.3 803.317 1420.31C803.937 1420.32 804.547 1420.41 805.127 1420.55C805.707 1420.7 806.287 1420.9 806.837 1421.13C807.077 1421.23 807.317 1421.35 807.557 1421.47C808.297 1422.53 809.237 1423.46 810.297 1424.18C811.667 1425.11 813.267 1425.6 814.857 1425.6C814.857 1425.6 814.867 1425.6 814.877 1425.6C815.917 1425.63 816.977 1425.41 817.917 1424.97C818.867 1424.53 819.707 1423.87 820.347 1423.07C821.017 1422.25 821.507 1421.28 821.757 1420.25C822.007 1419.22 822.037 1418.13 821.827 1417.09C821.597 1416.01 821.227 1414.96 820.717 1413.99C819.967 1412.57 818.957 1411.33 817.717 1410.31C816.367 1409.11 814.867 1408.1 813.237 1407.31C809.717 1405.41 805.747 1404.4 801.747 1404.4C800.277 1404.34 798.797 1404.48 797.377 1404.82C796.017 1405.13 794.697 1405.6 793.427 1406.23C791.987 1406.96 790.667 1407.89 789.507 1408.99C788.327 1410.11 787.297 1411.39 786.427 1412.87C784.627 1416.15 783.547 1419.69 783.217 1423.41C782.807 1428.12 782.977 1432.87 783.727 1437.48C785.037 1446.9 787.867 1454.38 792.107 1459.68C794.157 1462.3 796.687 1464.43 799.627 1466.01C802.397 1467.48 805.527 1468.29 808.587 1468.33L809.117 1468.35C811.927 1468.35 814.647 1467.77 817.237 1466.61C822.237 1464.32 826.167 1460.26 828.307 1455.17C828.977 1453.52 829.407 1451.76 829.577 1449.98C830.417 1449.91 831.177 1449.82 831.887 1449.7C832.917 1449.6 833.917 1449.26 834.797 1448.72C835.707 1448.16 836.487 1447.39 837.027 1446.51C837.597 1445.61 837.967 1444.58 838.107 1443.52C838.237 1442.48 838.147 1441.41 837.837 1440.41C837.287 1438.43 836.067 1436.7 834.397 1435.52V1435.53Z" fill="black"/>
<path d="M886.648 1453.34C884.998 1451.96 882.918 1451.29 880.778 1451.45C878.818 1451.59 877.008 1451.7 875.248 1451.78C873.228 1451.87 871.198 1451.93 869.168 1451.97C867.448 1452.01 865.608 1452.02 863.358 1452.01C862.448 1452.01 861.528 1451.99 860.618 1451.93C860.548 1451.66 860.478 1451.39 860.398 1451.12L860.348 1450.93C860.078 1449.88 859.728 1448.58 859.398 1446.81L859.338 1446.51C858.988 1444.66 858.588 1442.56 858.278 1440.27C857.938 1437.76 857.588 1434.99 857.238 1432.05C856.958 1429.64 856.708 1427.18 856.488 1424.73C856.278 1422.34 856.088 1420.24 855.948 1418.41C855.798 1416.6 855.708 1415.17 855.638 1414.08L855.568 1412.91C855.558 1412.73 855.548 1412.59 855.538 1412.5V1412.48V1412.35C855.418 1410.24 854.528 1408.27 853.028 1406.78C851.578 1405.22 849.608 1404.25 847.508 1404.04C846.458 1403.93 845.388 1404.04 844.388 1404.38C843.388 1404.72 842.468 1405.28 841.728 1405.97C840.948 1406.69 840.338 1407.6 839.968 1408.59C839.598 1409.59 839.468 1410.67 839.588 1411.7C839.598 1411.85 839.628 1412.36 839.678 1413.2L839.718 1413.83C839.798 1415.22 839.928 1417.01 840.098 1419.21L840.728 1426.6C840.968 1429.39 841.298 1432.31 841.708 1435.22C842.138 1438.7 842.598 1441.91 843.048 1444.74C843.438 1447.31 843.958 1449.89 844.588 1452.36C844.928 1453.83 845.308 1455.16 845.698 1456.34C846.068 1457.45 846.508 1458.54 846.988 1459.58C847.598 1460.93 848.408 1462.18 849.318 1463.22C850.198 1464.31 851.258 1465.23 852.488 1465.94C853.358 1466.44 854.298 1466.81 855.188 1467.01C855.358 1467.06 855.608 1467.11 855.928 1467.17L856.478 1467.28C856.898 1467.37 857.418 1467.44 858.058 1467.53L858.918 1467.65C859.998 1467.8 861.258 1467.87 862.858 1467.95C864.148 1468.01 865.648 1468.05 867.318 1468.05C867.728 1468.05 868.148 1468.05 868.588 1468.05L870.538 1468C871.218 1468 871.958 1467.96 872.748 1467.91C874.008 1467.9 875.328 1467.86 876.808 1467.8L880.198 1467.61L883.588 1467.43C884.628 1467.37 885.658 1467.07 886.558 1466.56C887.468 1466.05 888.258 1465.33 888.828 1464.5C889.448 1463.63 889.868 1462.62 890.058 1461.58C890.238 1460.55 890.198 1459.47 889.928 1458.46C889.448 1456.44 888.288 1454.62 886.648 1453.34Z" fill="black"/>
<path d="M937.599 1429.02C937.509 1427.88 937.339 1426.72 937.099 1425.58L937.049 1425.38C935.919 1421.61 933.789 1418.19 930.909 1415.51C928.029 1412.83 924.729 1410.68 921.119 1409.1C917.109 1407.35 912.879 1406.16 908.539 1405.56C903.819 1404.91 899.019 1404.81 894.279 1405.26C893.269 1405.32 892.269 1405.61 891.379 1406.09C890.469 1406.58 889.679 1407.29 889.069 1408.13C888.449 1408.99 888.029 1409.99 887.849 1411.04C887.669 1412.05 887.729 1413.11 887.999 1414.1C889.619 1421.53 891.129 1429.42 892.469 1437.54C893.809 1445.65 894.969 1453.61 895.919 1461.21C896.109 1463.35 897.099 1465.3 898.709 1466.71C900.229 1468.13 902.199 1469 904.279 1469.15L904.489 1469.17L904.829 1469.14H904.839C905.819 1469.14 906.789 1468.93 907.679 1468.52C908.629 1468.08 909.469 1467.42 910.089 1466.64C910.749 1465.84 911.219 1464.93 911.489 1463.94C911.759 1462.97 911.819 1461.98 911.669 1460.98C911.509 1459.21 911.299 1457.48 911.069 1455.82C910.929 1454.86 910.799 1453.9 910.679 1452.94C918.969 1451.01 925.489 1448.13 930.059 1444.39C931.949 1442.9 933.559 1441.13 934.859 1439.11C935.889 1437.49 936.669 1435.73 937.159 1433.87C937.579 1432.3 937.719 1430.68 937.599 1429.05V1429.02ZM919.269 1431.48C917.839 1432.61 916.269 1433.57 914.629 1434.32C912.539 1435.26 910.369 1436.03 908.159 1436.63C907.289 1431.31 906.329 1426.04 905.309 1420.89C908.659 1421.09 912.089 1421.95 916.099 1423.57C917.589 1424.19 918.969 1425.03 920.289 1426.11C920.919 1426.59 921.399 1427.24 921.679 1427.98C921.699 1428.13 921.699 1428.29 921.679 1428.44C921.649 1428.63 921.579 1428.81 921.429 1429.04C920.889 1429.98 920.169 1430.79 919.269 1431.47V1431.48Z" fill="black"/>
</g>
<defs>
<clipPath id="clip0_491_661">
<rect width="1500" height="1500" fill="white"/>
</clipPath>
</defs>
      <g clip-path="url(#clip0_497_1194)">
<path d="M379.667 654.812C432.345 471.574 618.472 401.981 699.114 390.653C740.985 382.718 849.655 375.215 949.364 408.675C980 418.956 1049.88 457.388 1091.92 499.818C1144.47 552.856 1272.97 732.052 1185.05 927.725C1097.12 1123.4 758.414 1092.29 612.749 1051.82C464.472 1010.63 314.48 881.563 379.667 654.812Z" fill="#AABBFF"/>
<path d="M449.293 747.204C454.734 531.068 585.306 432.345 649.911 410C432.292 459.565 365.296 655.455 364 747.204C377.99 984.871 584.496 1053.43 681 1058C601.498 1044.46 443.853 963.339 449.293 747.204Z" fill="#001647" fill-opacity="0.2"/>
<path d="M379.667 654.812C432.345 471.574 618.472 401.981 699.114 390.653C740.985 382.718 849.655 375.215 949.364 408.675C980 418.956 1049.88 457.388 1091.92 499.818C1144.47 552.856 1272.97 732.052 1185.05 927.725C1097.12 1123.4 758.414 1092.29 612.749 1051.82C464.472 1010.63 314.48 881.563 379.667 654.812Z" stroke="black" stroke-width="22" stroke-linecap="round"/>
</g>
<defs>
    <clipPath id="prefix__clip0_299_662"><path fill="#fff" d="M0 0h1500v1500H0z"/></clipPath>
</defs>
      <g clip-path="url(#clip0_624_3503)">
<path d="M820.579 731.479C807.38 731.491 794.726 736.74 785.393 746.073C776.06 755.406 770.811 768.06 770.799 781.259C770.855 783.107 771.629 784.86 772.957 786.148C774.284 787.435 776.06 788.155 777.909 788.155C779.758 788.155 781.534 787.435 782.861 786.148C784.188 784.86 784.962 783.107 785.019 781.259C784.954 776.549 785.826 771.872 787.584 767.502C789.342 763.132 791.951 759.154 795.259 755.8C798.567 752.446 802.509 749.783 806.855 747.966C811.201 746.148 815.865 745.212 820.575 745.212C825.286 745.212 829.95 746.148 834.296 747.966C838.642 749.783 842.584 752.446 845.892 755.8C849.2 759.154 851.809 763.132 853.567 767.502C855.325 771.872 856.197 776.549 856.132 781.259C856.132 786.917 853.885 792.343 849.884 796.344C845.883 800.345 840.457 802.592 834.799 802.592C829.141 802.592 823.715 800.345 819.714 796.344C815.713 792.343 813.465 786.917 813.465 781.259C813.438 780.308 813.599 779.361 813.939 778.472C814.284 777.582 814.806 776.77 815.472 776.086C816.302 775.229 817.335 774.595 818.474 774.243C819.613 773.89 820.823 773.83 821.992 774.067C823.161 774.305 824.251 774.833 825.162 775.603C826.073 776.373 826.776 777.36 827.205 778.472C827.551 779.36 827.714 780.307 827.686 781.259C827.686 783.146 828.435 784.955 829.769 786.289C831.103 787.623 832.912 788.372 834.799 788.372C836.685 788.372 838.495 787.623 839.829 786.289C841.163 784.955 841.912 783.146 841.912 781.259C841.912 775.601 839.665 770.175 835.664 766.174C831.663 762.173 826.237 759.926 820.579 759.926C814.921 759.926 809.495 762.173 805.494 766.174C801.493 770.175 799.245 775.601 799.245 781.259C799.245 790.688 802.991 799.731 809.659 806.399C816.326 813.067 825.369 816.812 834.799 816.812C844.228 816.812 853.271 813.067 859.939 806.399C866.606 799.731 870.352 790.688 870.352 781.259C870.34 768.062 865.092 755.408 855.761 746.075C846.429 736.743 833.776 731.493 820.579 731.479Z" fill="black" stroke="black" stroke-width="5"/>
<path d="M1011.91 731.479C998.714 731.491 986.06 736.74 976.727 746.073C967.394 755.406 962.145 768.06 962.133 781.259C962.189 783.107 962.963 784.86 964.29 786.148C965.618 787.435 967.394 788.155 969.243 788.155C971.092 788.155 972.868 787.435 974.195 786.148C975.522 784.86 976.296 783.107 976.353 781.259C976.288 776.549 977.16 771.872 978.918 767.502C980.676 763.132 983.285 759.154 986.593 755.8C989.901 752.446 993.843 749.783 998.189 747.966C1002.53 746.148 1007.2 745.212 1011.91 745.212C1016.62 745.212 1021.28 746.148 1025.63 747.966C1029.98 749.783 1033.92 752.446 1037.23 755.8C1040.53 759.154 1043.14 763.132 1044.9 767.502C1046.66 771.872 1047.53 776.549 1047.47 781.259C1047.47 786.917 1045.22 792.343 1041.22 796.344C1037.22 800.345 1031.79 802.592 1026.13 802.592C1020.47 802.592 1015.05 800.345 1011.05 796.344C1007.05 792.343 1004.8 786.917 1004.8 781.259C1004.76 780.067 1005.02 778.884 1005.56 777.82C1006.1 776.756 1006.9 775.845 1007.89 775.171C1008.87 774.497 1010.01 774.081 1011.2 773.963C1012.38 773.844 1013.58 774.026 1014.68 774.492C1015.56 774.864 1016.36 775.41 1017.02 776.097C1017.68 776.785 1018.2 777.599 1018.54 778.492C1018.88 779.38 1019.05 780.327 1019.02 781.279C1019.02 783.166 1019.77 784.975 1021.1 786.309C1022.44 787.643 1024.25 788.392 1026.13 788.392C1028.02 788.392 1029.83 787.643 1031.16 786.309C1032.5 784.975 1033.25 783.166 1033.25 781.279C1033.25 775.621 1031 770.195 1027 766.194C1023 762.193 1017.57 759.946 1011.91 759.946C1006.25 759.946 1000.83 762.193 996.828 766.194C992.827 770.195 990.579 775.621 990.579 781.279C990.579 790.708 994.325 799.751 1000.99 806.419C1007.66 813.087 1016.7 816.832 1026.13 816.832C1035.56 816.832 1044.61 813.087 1051.27 806.419C1057.94 799.751 1061.69 790.708 1061.69 781.279C1061.67 768.081 1056.43 755.428 1047.09 746.095C1037.76 736.763 1025.11 731.513 1011.91 731.499V731.479Z" fill="black" stroke="black" stroke-width="5"/>
<path d="M921.5 970C930.895 970 940.078 967.214 947.89 961.995C955.701 956.775 961.789 949.357 965.384 940.677C968.979 931.998 969.92 922.447 968.087 913.233C966.254 904.019 961.731 895.555 955.088 888.912C948.445 882.269 939.981 877.746 930.767 875.913C921.553 874.08 912.002 875.021 903.323 878.616C894.643 882.211 887.225 888.299 882.005 896.11C876.786 903.922 874 913.105 874 922.5C874 928.738 875.229 934.914 877.616 940.677C880.003 946.44 883.502 951.677 887.912 956.088C892.323 960.498 897.56 963.997 903.323 966.384C909.085 968.771 915.262 970 921.5 970Z" fill="white" stroke="black" stroke-width="22" stroke-miterlimit="10" stroke-linecap="round"/>
</g>
<defs>
<clipPath id="clip0_624_3503">
<rect width="1500" height="1500" fill="white"/>
</clipPath>
</defs>
      <g clip-path="url(#clip0_845_2570)">
<ellipse cx="932" cy="915.5" rx="131" ry="69.5" fill="#AABBFF"/>
<path d="M1064.85 848.913L981.352 891.522L1001.85 918.58L1079.43 879.307L1064.85 848.913Z" fill="white"/>
<path d="M1094.79 877.072C1084.04 879.443 1070.41 855.937 1064.94 843.888L1080.91 840.718L1094.21 851.835C1098.88 859.26 1105.54 874.702 1094.79 877.072Z" fill="#FF6247"/>
<path d="M989.67 884.941L948.184 908.29L980.01 924.589L1009.27 915.418L989.67 884.941Z" fill="#FF9C07"/>
<path d="M855 933.5C868.287 922.368 899.473 908.037 940 914.627C941.978 914.948 943.978 915.32 946 915.744C957.536 918.164 969.764 922.298 982.5 928.667C983.662 929.249 984.829 929.849 986 930.468C987.824 931.432 989.657 932.442 991.5 933.5" stroke="black" stroke-width="20" stroke-linecap="round"/>
<path d="M926 913L1075.85 836.605M984.69 927.619L1096.13 874.209" stroke="black" stroke-width="20" stroke-linecap="round"/>
<ellipse cx="1086.92" cy="854.964" rx="15.8362" ry="21.2046" transform="rotate(-28.2597 1086.92 854.964)" stroke="black" stroke-width="20"/>
</g>
<defs>
<clipPath id="clip0_845_2570">
<rect width="1500" height="1500" fill="white"/>
</clipPath>
</defs>
      <g clip-path="url(#clip0_501_1463)">
<path d="M345 652C344.833 676.167 344.6 725.1 345 727.5L385 718L533.5 670.5L668.5 631.5L893 606L1044 612.5L1198.5 642C1198.67 636 1198.9 623.1 1198.5 619.5C1198 615 1194 597 1191.5 584C1189 571 1187.5 576.5 1185 571C1182.5 565.5 1176 556.5 1170 547.5C1165.2 540.3 1149 526.5 1141.5 520.5L1115.5 495L1071 455.5L997 398.5L893 344.5C882.167 339.167 844.7 325.2 781.5 312C718.3 298.8 665.5 331.167 647 349L584 363.5C484 413.5 414 526.333 391.5 576.5L365 591L345 652Z" fill="#FF6247"/>
<path d="M577.5 516.999L583.5 657.5L405.5 710L347 734.5V698L360.5 594L391 578L422 512.5L488.5 436.5L547.5 388.5L623.5 356.5L683.5 326.5C615.5 373 586.5 448 577.5 483.499C860.3 405.899 1042.67 444.833 1098.5 473.999L1123 506.999L1032.5 483.499L913 473.999L740 483.499L577.5 516.999Z" fill="#001647" fill-opacity="0.2"/>
<path d="M391.529 573.956C419.255 510.862 516.308 375.748 649 346.316M636.117 359.987C657.752 332.613 719.007 288.028 795.763 320.216C801.571 322.651 807.621 324.342 813.864 325.167C883.382 334.353 1037.28 390.105 1136.68 516.12M450.943 554.701C417.562 566.596 390.059 577.818 370.832 586.784C369.151 587.568 367.764 588.845 366.894 590.484C346.466 628.965 342.694 690.701 344.345 725.675C344.658 732.317 352.028 735.865 357.843 732.64C378.396 721.244 408.233 708.086 445.001 694.619M450.943 554.701C442.691 569.593 429.95 618.425 445.001 694.619M450.943 554.701C487.517 541.669 531.148 527.828 578.684 515.261M445.001 694.619C484.265 680.237 531.431 665.503 583.635 652.186M578.684 515.261C574.558 538.57 569.772 598.588 583.635 652.186M578.684 515.261C617.576 504.979 659.081 495.549 701.473 488.111M583.635 652.186C622.942 642.159 665.105 632.934 708.9 625.269M701.473 488.111C726.86 483.657 752.565 479.918 778.217 477.137C795.009 475.317 811.175 473.937 826.738 472.951M701.473 488.111C696.522 506.076 691.076 558.657 708.9 625.269M708.9 625.269C757.929 616.687 809.003 610.058 860.407 606.442M826.738 472.951C833.175 488.904 848.92 537.937 860.407 606.442M826.738 472.951C880.913 469.518 927.787 470.862 968.343 475.053M860.407 606.442C908.616 603.051 957.115 602.31 1004.49 605.094M968.343 475.053C979.73 494.893 1002.9 548.677 1004.49 605.094M968.343 475.053C1010.26 479.385 1045.42 486.76 1074.92 495.048M1004.49 605.094C1043.47 607.384 1081.69 612.062 1118.36 619.614M1074.92 495.048C1089.39 499.115 1102.5 503.401 1114.37 507.657C1149.48 520.241 1178.51 545.737 1190.09 581.193C1196.1 599.603 1201.58 620.481 1205.38 641.185C1205.66 642.708 1204.17 643.944 1202.72 643.408C1175.85 633.484 1147.6 625.636 1118.36 619.614M1074.92 495.048C1088.41 514.031 1115.99 565.519 1118.36 619.614" stroke="black" stroke-width="21" stroke-linecap="round"/>
</g>
<defs>
<clipPath id="clip0_501_1463">
<rect width="1500" height="1500" fill="white"/>
</clipPath>
</defs>
      
    </g>
    </svg>