<svg
      xmlns="http://www.w3.org/2000/svg"
      preserveAspectRatio="xMidYMin meet"
      fill="none"
      viewBox="0 0 1500 1500"
    >
      <g>
      <path fill="url(#prefix__paint0_linear_53_28789)" d="M0 0h1500v1500H0z"/><defs><linearGradient id="prefix__paint0_linear_53_28789" x1="1500" y1="1500" x2="0" y2="0" gradientUnits="userSpaceOnUse">
<stop stop-color="#FFD130"/>
<stop offset="1" stop-color="#FFEEDB"/>
</linearGradient></defs>
      <g clip-path="url(#clip0_483_526)">
<path d="M366.5 1327.5C264.5 1394.3 286.333 1481.33 310 1516.5L1208 1510C1237.2 1434.8 1183.17 1369.33 1152.5 1346C1198.9 1256 1109.83 1182.17 1059.5 1156.5C1089.1 1116.1 1063.83 1061 1047.5 1038.5C819.5 1116.1 602.5 1048.83 522.5 1005.5C452.9 1045.5 475.833 1117.83 496 1149C358.8 1177.8 352.5 1280 366.5 1327.5Z" fill="#A760FF"/>
<path d="M1069.32 1160.2C1064.35 1156.71 1057.49 1157.91 1054 1162.88C1039.23 1183.91 1016.26 1201.27 992.35 1214.66C968.55 1227.99 944.65 1236.92 928.96 1241.44C923.12 1243.12 919.75 1249.21 921.43 1255.05C923.11 1260.89 929.2 1264.26 935.04 1262.58C952.15 1257.66 977.65 1248.11 1003.1 1233.85C1028.44 1219.66 1054.57 1200.33 1072 1175.52C1075.49 1170.55 1074.29 1163.69 1069.32 1160.2Z" fill="#001647" fill-opacity="0.2"/>
<path d="M1164.1 1354.75C1159.24 1351.11 1152.34 1352.1 1148.7 1356.96C1133.03 1377.87 1104.14 1383.83 1083.64 1384.51C1077.57 1384.71 1072.81 1389.8 1073.01 1395.87C1073.21 1401.94 1078.3 1406.7 1084.37 1406.5C1106.4 1405.77 1144.34 1399.48 1166.31 1370.15C1169.95 1365.29 1168.97 1358.39 1164.1 1354.75Z" fill="#001647" fill-opacity="0.2"/>
<path d="M974 1404.68C955.73 1408.06 923.06 1412.42 884.83 1413.9C846.05 1415.41 802.01 1413.94 761.7 1405.72C755.75 1404.51 749.94 1408.35 748.72 1414.3C747.51 1420.25 751.35 1426.06 757.3 1427.28C799.95 1435.98 845.9 1437.43 885.68 1435.89C924.97 1434.36 958.69 1429.89 978 1426.32C983.97 1425.21 987.92 1419.48 986.82 1413.5C985.72 1407.53 979.98 1403.58 974 1404.68Z" fill="#001647" fill-opacity="0.2"/>
<path d="M526 1158.5L571 1186L615.26 1203.5L680 1225L731.5 1232.5L752.18 1235C707.21 1216.67 630.42 1157.5 683 1067.5L509.66 1009L484 1061.5L480 1115L501 1137.5L526 1158.5Z" fill="#001647" fill-opacity="0.2"/>
<path d="M575.64 1215.68C588.5 1221.37 601.86 1226.63 615.26 1231.41C664.47 1248.96 716.66 1260.84 750.81 1262.98C756.87 1263.36 762.1 1258.75 762.48 1252.69C762.86 1246.63 758.25 1241.41 752.19 1241.03C720.76 1239.07 670.68 1227.82 622.65 1210.7C574.19 1193.42 530.41 1171.05 509.66 1148.1C505.59 1143.59 498.63 1143.24 494.12 1147.32C493.29 1148.07 492.61 1148.91 492.06 1149.82L491.49 1149.51L400.99 1186.01L372.99 1242.51L360.99 1305.51L372.66 1327.65C371.89 1327.77 371.12 1327.97 370.37 1328.26L363.99 1321.01L321.49 1356.01L287 1432L300.5 1513H401C381.17 1457.08 423.35 1428.94 465.37 1415.96C483.49 1420.94 504.21 1424.83 527.79 1427.43C533.83 1428.1 539.26 1423.74 539.93 1417.7C540.6 1411.66 536.24 1406.23 530.2 1405.56C520.59 1404.5 511.58 1403.23 503.1 1401.77L493.44 1398.36L525.99 1401.49C506.16 1380.99 471.49 1327.59 491.49 1277.99C506.17 1241.57 544.58 1223.41 575.63 1215.67L575.64 1215.68Z" fill="#001647" fill-opacity="0.2"/>
<path d="M1013.5 1319C1024.83 1354.33 1048.1 1443.9 1050.5 1519.5M667 1361.5C661.166 1392.33 650.3 1467.1 653.5 1519.5M1205 1519.5C1216 1480.17 1221.2 1391.6 1154 1352M1079 1384C1114 1382.83 1181.89 1367 1163.5 1276C1148.04 1199.52 1089.25 1170.37 1058 1157.7M926.999 1240.5C959.802 1231.06 1025.8 1203.54 1058 1157.7M1058 1157.7C1061.62 1152.53 1064.82 1147.13 1067.5 1141.5C1080.32 1114.5 1076.3 1065.5 1047.5 1035.5C1019.19 1047.48 944.091 1070.65 852.5 1076.66M746.499 1240.5C674.499 1236 514.065 1185.63 485.999 1129C457.5 1071.5 493.833 1020 517.999 1002C574.999 1028.17 715.399 1080 820.999 1078C831.68 1077.8 842.194 1077.34 852.5 1076.66M491 1148.5C462.5 1154.17 399.8 1178 377 1228C348.5 1290.5 343 1385 524 1405M311.5 1513.5C285.667 1480.17 259.201 1396.2 360 1327M852.5 1076.66L880.255 1413.39M880.255 1413.39L889 1519.5M880.255 1413.39C919.011 1411.89 952.211 1407.48 971 1404M880.255 1413.39C840.971 1414.92 795.978 1413.46 754.5 1405" stroke="black" stroke-width="22" stroke-linecap="round"/>
</g>
<defs>
<clipPath id="clip0_483_526">
<rect width="1500" height="1500" fill="white"/>
</clipPath>
</defs>
      <g clip-path="url(#clip0_497_1194)">
<path d="M379.667 654.812C432.345 471.574 618.472 401.981 699.114 390.653C740.985 382.718 849.655 375.215 949.364 408.675C980 418.956 1049.88 457.388 1091.92 499.818C1144.47 552.856 1272.97 732.052 1185.05 927.725C1097.12 1123.4 758.414 1092.29 612.749 1051.82C464.472 1010.63 314.48 881.563 379.667 654.812Z" fill="#AABBFF"/>
<path d="M449.293 747.204C454.734 531.068 585.306 432.345 649.911 410C432.292 459.565 365.296 655.455 364 747.204C377.99 984.871 584.496 1053.43 681 1058C601.498 1044.46 443.853 963.339 449.293 747.204Z" fill="#001647" fill-opacity="0.2"/>
<path d="M379.667 654.812C432.345 471.574 618.472 401.981 699.114 390.653C740.985 382.718 849.655 375.215 949.364 408.675C980 418.956 1049.88 457.388 1091.92 499.818C1144.47 552.856 1272.97 732.052 1185.05 927.725C1097.12 1123.4 758.414 1092.29 612.749 1051.82C464.472 1010.63 314.48 881.563 379.667 654.812Z" stroke="black" stroke-width="22" stroke-linecap="round"/>
</g>
<defs>
    <clipPath id="prefix__clip0_299_662"><path fill="#fff" d="M0 0h1500v1500H0z"/></clipPath>
</defs>
      <g clip-path="url(#clip0_624_3473)">
<path d="M1010.33 800C1015.74 800 1021.02 798.397 1025.52 795.394C1030.01 792.39 1033.52 788.121 1035.59 783.127C1037.65 778.132 1038.2 772.637 1037.14 767.334C1036.09 762.032 1033.48 757.162 1029.66 753.339C1025.84 749.517 1020.97 746.913 1015.67 745.859C1010.36 744.804 1004.87 745.345 999.873 747.414C994.879 749.483 990.61 752.986 987.606 757.481C984.603 761.976 983 767.261 983 772.667C983 779.916 985.88 786.868 991.006 791.994C996.132 797.12 1003.08 800 1010.33 800Z" fill="black"/>
<path d="M799.421 789.214L858.141 778.547C859.189 778.352 860.151 777.837 860.895 777.073C861.639 776.309 862.128 775.334 862.294 774.28C862.455 773.224 862.285 772.143 861.808 771.187C861.331 770.234 860.569 769.453 859.628 768.954L804.701 739.807" stroke="black" stroke-width="22" stroke-miterlimit="10" stroke-linecap="round"/>
<path d="M870.88 910.959C896.593 937.099 946.447 937.099 972.167 910.959" stroke="black" stroke-width="22" stroke-miterlimit="10" stroke-linecap="round"/>
</g>
<defs>
<clipPath id="clip0_624_3473">
<rect width="1500" height="1500" fill="white"/>
</clipPath>
</defs>
      <g clip-path="url(#clip0_924_758)">
<path d="M821.495 847C840.486 847.001 858.799 839.939 872.871 827.186C886.943 814.433 895.769 796.902 897.631 778.002C899.493 759.103 894.26 740.186 882.947 724.932C871.635 709.678 855.053 699.176 836.427 695.471C817.801 691.765 798.462 695.12 782.173 704.883C765.883 714.646 753.808 730.119 748.295 748.292C742.781 766.465 744.225 786.039 752.344 803.207C760.464 820.375 774.679 833.909 792.224 841.177C801.504 845.02 811.45 846.999 821.495 847Z" fill="white" fill-opacity="0.5"/>
<path d="M1012.49 852C1031.98 852.001 1050.77 844.477 1065.21 830.891C1079.65 817.304 1088.71 798.627 1090.62 778.493C1092.53 758.358 1087.16 738.205 1075.55 721.954C1063.95 705.702 1046.93 694.515 1027.82 690.567C1008.7 686.619 988.86 690.193 972.145 700.594C955.429 710.995 943.038 727.479 937.381 746.84C931.723 766.201 933.205 787.055 941.536 805.345C949.868 823.635 964.455 838.053 982.459 845.796C991.982 849.891 1002.19 851.999 1012.49 852Z" fill="white" fill-opacity="0.5"/>
<path d="M954.529 715.266C954.529 715.266 954.033 698.956 989.971 694.485L1055.29 830.825C1055.29 830.825 1042.69 845.543 1016.43 844.719L954.529 715.266Z" fill="white" fill-opacity="0.5"/>
<path d="M1002.09 701.909C1002.09 701.909 998.763 704.646 1011.14 696.723L1069.22 815.049C1069.22 815.049 1073 819.935 1062.94 822.012L1002.09 701.909Z" fill="white" fill-opacity="0.5"/>
<path d="M763.529 715.266C763.529 715.266 763.033 698.956 798.971 694.485L864.291 830.825C864.291 830.825 851.694 845.543 825.432 844.719L763.529 715.266Z" fill="white" fill-opacity="0.5"/>
<path d="M811.088 701.909C811.088 701.909 807.763 704.646 820.138 696.723L878.219 815.049C878.219 815.049 881.997 819.935 871.937 822.012L811.088 701.909Z" fill="white" fill-opacity="0.5"/>
<path d="M1012.53 850C1031.16 849.993 1049.2 843.527 1063.59 831.706C1077.99 819.884 1087.84 803.437 1091.46 785.169C1095.09 766.9 1092.26 747.939 1083.48 731.518C1074.69 715.096 1060.48 702.23 1043.27 695.112C1026.06 687.993 1006.91 687.063 989.089 692.479C971.269 697.896 955.878 709.324 945.54 724.816C935.202 740.309 930.556 758.907 932.393 777.441C934.23 795.975 942.437 813.299 955.616 826.46C970.717 841.54 991.189 850.007 1012.53 850V850Z" stroke="black" stroke-width="20" stroke-miterlimit="10"/>
<path d="M821.494 850C841.479 850.001 860.749 842.569 875.557 829.15C890.365 815.73 899.652 797.282 901.612 777.395C903.572 757.507 898.064 737.601 886.16 721.549C874.256 705.497 856.807 694.447 837.207 690.548C817.608 686.648 797.258 690.179 780.117 700.452C762.975 710.725 750.268 727.007 744.467 746.131C738.665 765.254 740.184 785.852 748.729 803.917C757.273 821.983 772.231 836.225 790.694 843.872C800.459 847.917 810.925 849.999 821.494 850Z" stroke="black" stroke-width="20" stroke-miterlimit="10"/>
<path d="M582.499 804.5C582.499 810.023 586.976 814.5 592.499 814.5C598.022 814.5 602.499 810.023 602.499 804.5H582.499ZM622.499 770L622.499 780L622.499 770ZM741.333 760L622.499 760L622.499 780L741.333 780L741.333 760ZM582.499 800V804.5H602.499V800H582.499ZM622.499 760C600.408 760 582.499 777.908 582.499 800H602.499C602.499 788.954 611.453 780 622.499 780L622.499 760Z" fill="black"/>
<path d="M894.386 769.667H939.5" stroke="black" stroke-width="20" stroke-miterlimit="10"/>
</g>
<defs>
<clipPath id="clip0_924_758">
<rect width="1500" height="1500" fill="white"/>
</clipPath>
</defs>
      <g clip-path="url(#clip0_708_296)">
<path d="M711.94 381.541L669.138 415.004L754.914 456.956C786.09 456.451 856.04 454.579 886.429 451.127C916.817 447.675 946.703 430.594 957.848 422.485L912.882 387.272L890.772 360.146L852.07 352.844L816.711 388.83L811.119 369.892L779.2 357.196L748.101 362.456L711.94 381.541Z" fill="#AABBFF"/>
<path d="M754.823 451.145C758.386 440.393 766.661 423.631 780.081 411.559M882.17 449.083C878.062 439.675 870.922 425.659 859.411 414.501M670.743 416.037C678.291 403.405 696.028 378.1 722.448 377.672C724.832 377.634 727.122 377.712 729.323 377.895M780.081 411.559C789.433 403.145 801.285 397.009 815.783 396.774C818.147 396.736 820.438 396.825 822.658 397.03M780.081 411.559C771.884 400.903 758.35 380.305 729.323 377.895M953.095 422.563C946.826 410.677 929.573 387.795 908.089 385.052M859.411 414.501C864.186 404.755 879.655 385.169 903.328 384.785C904.936 384.759 906.524 384.852 908.089 385.052M859.411 414.501C850.192 405.565 838.17 398.463 822.658 397.03M729.323 377.895C734.108 368.72 747.587 350.309 768.512 349.97C795.461 349.534 817.557 375.809 822.658 397.03M908.089 385.052C903.334 374.267 889.367 351.713 871.612 352C849.419 352.36 832.274 370.674 822.592 392.964" stroke="black" stroke-width="22" stroke-linecap="round"/>
<path d="M618.569 574.785L567.825 554.973C630.317 600.206 606.448 639.812 586.702 653.962C527.242 683.908 507.254 638.378 504.692 611.869L511.316 570.318L490.636 599.182C470.827 620.265 425.647 647.212 403.397 586.33C381.146 525.448 441.585 513.424 474.586 515.022L453.426 508.674C424.638 495.751 378.17 460.144 422.595 421.103C467.02 382.063 501.723 430.657 513.522 459.834L524.943 471.777L522.345 458.151C523.774 418.422 540.474 348.783 595.845 388.064C651.216 427.345 610.468 470.557 583.173 487.253L634.506 477.464C649.269 474.233 679.558 478.758 682.617 522.698C685.677 566.639 641.193 575.731 618.569 574.785Z" fill="#53B6F9"/>
<path d="M531.578 477.918C531.578 477.918 511.312 435.004 534.518 401.634C570.061 350.432 649.221 401.98 618.177 456.074C608.705 472.599 594.08 476.691 563.51 497.557" stroke="black" stroke-width="22" stroke-miterlimit="10"/>
<path d="M513.103 554.003C513.103 554.003 505.44 600.709 467.602 615.623C409.574 638.504 370.239 550.369 426.017 522.597C443.071 514.116 458.19 517.925 495.248 517.468" stroke="black" stroke-width="22" stroke-miterlimit="10"/>
<path d="M572.003 508.802C572.003 508.802 605.229 468.731 644.671 477.236C705.078 490.256 688.791 582.988 627.471 575.269C608.742 572.908 597.335 565.93 566.505 545.764" stroke="black" stroke-width="22" stroke-miterlimit="10"/>
<path d="M560.484 554.415C560.484 554.415 602.944 568.401 606.766 608.809C612.623 670.762 519.778 682.514 508.631 621.287C505.229 602.583 505.496 594.146 523.784 560.106" stroke="black" stroke-width="22" stroke-miterlimit="10"/>
<path d="M489.538 506.574C489.538 506.574 440.777 514.364 418.081 480.704C383.272 429.114 459.528 375.584 498.625 423.98C510.562 438.768 510.616 447.744 519.059 483.805" stroke="black" stroke-width="22" stroke-miterlimit="10"/>
<path d="M541.944 563.769C550.978 562.046 559.298 557.683 565.853 551.232C572.407 544.78 576.901 536.53 578.767 527.524C580.632 518.519 579.785 509.162 576.333 500.638C572.881 492.114 566.978 484.804 559.372 479.635C551.766 474.465 542.798 471.666 533.601 471.594C524.404 471.521 515.393 474.177 507.706 479.226C500.019 484.275 494.001 491.49 490.415 499.958C486.828 508.427 485.834 517.769 487.556 526.803C489.867 538.917 496.895 549.618 507.094 556.55C517.294 563.483 529.83 566.079 541.944 563.769Z" fill="#FFBF44" stroke="black" stroke-width="22" stroke-miterlimit="10"/>
<path d="M555.522 432.902C557.559 403.973 578.633 391.596 588.915 389.024C580.072 387.671 562.064 385.016 560.78 385.217C559.497 385.418 545.04 393.168 537.972 397.017L525.885 432.62L523.126 470.048C522.358 464.277 520.235 451.1 517.894 444.561C515.553 438.023 507.941 426.529 504.427 421.6L488.861 408.833L466.744 404.083L448.119 411.115L419.631 423.395C418.654 437.25 416.831 465.269 417.353 466.503C417.875 467.736 441.509 495.597 453.261 509.373L402.342 535.86C399.213 549.093 397.453 581.185 415.45 603.682C433.448 626.18 478.866 606.201 499.326 593.399C501.749 598.363 508.86 614.347 517.922 638.575C526.985 662.803 550.633 661.942 561.324 658.483C558.716 656.7 551.761 646.255 544.813 618.736C537.864 591.216 543.483 573.591 547.161 568.218L546.091 561.398C537.641 560.806 519.338 552.771 513.723 525.371C508.109 497.972 526.557 481.43 536.483 476.584L570.564 486.857C564.701 480.926 553.485 461.831 555.522 432.902Z" fill="#001647" fill-opacity="0.2"/>
</g>
<defs>
<clipPath id="clip0_708_296">
<rect width="1500" height="1500" fill="white"/>
</clipPath>
</defs>
      
    </g>
    </svg>