<svg
      xmlns="http://www.w3.org/2000/svg"
      preserveAspectRatio="xMidYMin meet"
      fill="none"
      viewBox="0 0 1500 1500"
    >
      <g>
      <path fill="url(#prefix__paint0_linear_53_30461)" d="M0 0h1500v1500H0z"/><defs><linearGradient id="prefix__paint0_linear_53_30461" x1="0" y1="0" x2="1500" y2="1533.5" gradientUnits="userSpaceOnUse">
<stop stop-color="#EEB0FC"/>
<stop offset="1" stop-color="#AF55F5"/>
</linearGradient></defs>
      <g clip-path="url(#clip0_483_471)">
<path d="M388.5 1416.5L352.5 1511L1142 1512L1129 1431.5L1070.5 1276L1007 1176L1042 1113L1028 1043.5C1005.33 1055.83 926.6 1079 793 1073C659.4 1067 549.333 1018.83 511 995.5C492.833 1014.83 453.2 1067.2 440 1122C426.8 1176.8 459.5 1220.83 477.5 1236L388.5 1416.5Z" fill="#F56CDB"/>
<path d="M353.698 1511C350.413 1508.73 360.049 1471.27 412.869 1339.62C429.682 1297.72 453.924 1259.56 477.605 1226C485.368 1215 376 1149.5 506.5 995L661 1046.5L683.5 1051C662.368 1062.33 708.557 1043.79 690 1058.04C521.079 1187.75 456.033 1424.17 443.158 1511H353.698Z" fill="#001647" fill-opacity="0.2"/>
<path d="M358.5 1507.5C371.341 1452.7 410.793 1338.13 480.097 1232M553.5 1137.5C526.081 1166.82 501.646 1199 480.097 1232M480.097 1232C440.958 1203.88 392.15 1116.57 509.46 992.073C509.77 991.743 510.252 991.637 510.651 991.852C600.161 1040.15 826.624 1117.43 1022.78 1043.27C1023.2 1043.11 1023.69 1043.26 1023.95 1043.63C1058.52 1092.29 1025.8 1150.61 1005.51 1174.4C1005.21 1174.76 1005.18 1175.25 1005.46 1175.62C1045.94 1229.92 1124.17 1371.22 1141.5 1507.5M721 1157C757.667 1176.33 851.2 1204.5 932 1162.5M1013.5 1319C1024.83 1354.33 1048.1 1443.9 1050.5 1519.5M667 1361.5C661.166 1392.33 650.3 1467.1 653.5 1519.5" stroke="black" stroke-width="22" stroke-linecap="round"/>
<path d="M913.864 1358.04L911.602 1362.76H926.191L928.413 1358.04H913.864ZM920.116 1345.06L917.856 1349.75H932.351L934.56 1345.06H920.121H920.116ZM920.116 1345.06L917.856 1349.75H932.351L934.56 1345.06H920.121H920.116ZM911.608 1362.75H926.197L928.419 1358.04H913.865L911.603 1362.75H911.608ZM979.288 1364.34L946.433 1286.09C945.911 1284.83 945.135 1283.8 944.186 1283.09C943.274 1282.4 942.22 1282.03 941.155 1282H941.07C939.991 1282 938.908 1282.36 937.948 1283.05L937.947 1283.06C936.986 1283.74 936.164 1284.74 935.574 1285.94L935.561 1285.97L935.546 1286L898.122 1363.8L898.108 1363.83L898.093 1363.87C897.483 1365.18 897.129 1366.68 897.076 1368.2L897.076 1368.27C897.038 1369.8 897.311 1371.31 897.851 1372.65L897.87 1372.7L897.889 1372.74C898.452 1374.06 899.283 1375.17 900.289 1375.94C901.322 1376.74 902.515 1377.16 903.733 1377.16H973.274C974.408 1377.16 975.542 1376.78 976.552 1376.06L976.569 1376.05L976.585 1376.04C977.62 1375.28 978.489 1374.19 979.098 1372.88L979.167 1372.74C979.387 1372.29 979.551 1371.81 979.663 1371.31C979.915 1370.43 980.057 1369.52 980.075 1368.59C980.11 1367.1 979.836 1365.62 979.285 1364.33L979.288 1364.34ZM938.965 1288.64C939.178 1288.21 939.476 1287.84 939.824 1287.6C940.176 1287.35 940.569 1287.22 940.959 1287.22C941.347 1287.22 941.733 1287.36 942.069 1287.62C942.401 1287.86 942.677 1288.23 942.857 1288.67L944.719 1293.1L930.749 1322.17H948.999L946.113 1315.31L945.248 1317.6H937.221L946.672 1297.97L960.454 1330.96H918.668L938.965 1288.64ZM903.857 1371.96C903.358 1371.96 902.867 1371.78 902.446 1371.46C902.029 1371.13 901.685 1370.68 901.449 1370.13C901.216 1369.56 901.106 1368.92 901.121 1368.28C901.142 1367.64 901.291 1367.01 901.549 1366.46L916.26 1335.84H947.162L930.084 1371.96H903.857ZM975.633 1370.33C975.402 1370.83 975.072 1371.24 974.679 1371.53C974.282 1371.81 973.838 1371.96 973.393 1371.96H934.365L951.447 1335.84H962.511L968.893 1350.9H960.497L958.08 1345.32H955.183L947.126 1362.48H965.357L962.524 1355.67H970.96L975.709 1366.95C975.927 1367.45 976.031 1368.02 976.019 1368.6C976.007 1369.17 975.87 1369.82 975.629 1370.32L975.633 1370.33ZM920.111 1345.06L917.851 1349.75H932.346L934.555 1345.06H920.116H920.111ZM911.603 1362.75H926.192L928.414 1358.04H913.865L911.603 1362.75Z" fill="white"/>
</g>
<defs>
<clipPath id="clip0_483_471">
<rect width="1500" height="1500" fill="white"/>
</clipPath>
</defs>
      <g clip-path="url(#clip0_497_1194)">
<path d="M379.667 654.812C432.345 471.574 618.472 401.981 699.114 390.653C740.985 382.718 849.655 375.215 949.364 408.675C980 418.956 1049.88 457.388 1091.92 499.818C1144.47 552.856 1272.97 732.052 1185.05 927.725C1097.12 1123.4 758.414 1092.29 612.749 1051.82C464.472 1010.63 314.48 881.563 379.667 654.812Z" fill="#AABBFF"/>
<path d="M449.293 747.204C454.734 531.068 585.306 432.345 649.911 410C432.292 459.565 365.296 655.455 364 747.204C377.99 984.871 584.496 1053.43 681 1058C601.498 1044.46 443.853 963.339 449.293 747.204Z" fill="#001647" fill-opacity="0.2"/>
<path d="M379.667 654.812C432.345 471.574 618.472 401.981 699.114 390.653C740.985 382.718 849.655 375.215 949.364 408.675C980 418.956 1049.88 457.388 1091.92 499.818C1144.47 552.856 1272.97 732.052 1185.05 927.725C1097.12 1123.4 758.414 1092.29 612.749 1051.82C464.472 1010.63 314.48 881.563 379.667 654.812Z" stroke="black" stroke-width="22" stroke-linecap="round"/>
</g>
<defs>
    <clipPath id="prefix__clip0_299_662"><path fill="#fff" d="M0 0h1500v1500H0z"/></clipPath>
</defs>
      <g clip-path="url(#clip0_624_2936)">
<path d="M876.088 925.246H970.501" stroke="black" stroke-width="22" stroke-linecap="round"/>
<path d="M864.633 785.967L846.559 774.78L827.213 762.8L802.666 747.607" stroke="black" stroke-width="22" stroke-linecap="round"/>
<path d="M848.206 782.713C848.206 786.612 847.063 790.425 844.918 793.681C842.773 796.937 839.721 799.492 836.139 801.032C832.557 802.571 828.602 803.027 824.764 802.342C820.925 801.657 817.372 799.862 814.544 797.179C811.715 794.495 809.735 791.042 808.848 787.245C807.962 783.448 808.208 779.475 809.556 775.817C810.904 772.158 813.295 768.976 816.434 766.662C819.572 764.348 823.319 763.006 827.213 762.8L846.546 774.8C847.638 777.295 848.203 779.989 848.206 782.713Z" fill="black" stroke="black" stroke-width="22" stroke-linecap="round"/>
<path d="M1024.63 747.607L1000.09 762.8L980.739 774.78L962.666 785.967" stroke="black" stroke-width="22" stroke-linecap="round"/>
<path d="M979.094 782.713C979.094 786.612 980.237 790.425 982.382 793.681C984.527 796.937 987.579 799.492 991.161 801.032C994.743 802.571 998.698 803.027 1002.54 802.342C1006.37 801.657 1009.93 799.862 1012.76 797.179C1015.59 794.495 1017.57 791.042 1018.45 787.245C1019.34 783.448 1019.09 779.475 1017.74 775.817C1016.4 772.158 1014 768.976 1010.87 766.662C1007.73 764.348 1003.98 763.006 1000.09 762.8L980.754 774.8C979.662 777.295 979.097 779.989 979.094 782.713Z" fill="black" stroke="black" stroke-width="22" stroke-linecap="round"/>
</g>
<defs>
<clipPath id="clip0_624_2936">
<rect width="1500" height="1500" fill="white"/>
</clipPath>
</defs>
      <g clip-path="url(#clip0_925_1372)">
<path d="M777.796 860C685.697 848.775 660.871 768.614 659.97 729.937C656.078 723.892 664.834 710.508 669.699 704.571L759.419 694.857L912.917 690L1139.92 698.635L1161 711.587L1157.22 758L1137.22 800.635L1113.44 838.952L1058.85 856.222L1022.64 849.206L962.101 828.159L920.484 813.587L863.192 842.19L777.796 860Z" fill="#53B6F9"/>
<path d="M690.196 699.224L763.942 693.424L860.722 851.244L833.96 864.946L794.601 869.089L690.196 699.224Z" fill="white" fill-opacity="0.9"/>
<path d="M781.871 695.304L801.049 695.304L884.919 828.487L873.319 837.602L781.871 695.304Z" fill="white" fill-opacity="0.9"/>
<path d="M958.357 690.074L1034.53 694.827L1119.67 818.835L1095.84 839.835L1062.61 854.919L958.357 690.074Z" fill="white" fill-opacity="0.9"/>
<path d="M1054 703.114L1068.91 703.114L1136.86 798.404L1127.74 811.662L1054 703.114Z" fill="white" fill-opacity="0.9"/>
<path d="M380.533 812.923C375.5 796.5 374.5 765 374.5 751L651.28 726.616L670.756 799.308L380.533 812.923Z" fill="white"/>
<path d="M1152.8 782.616L1167.95 724.462L1197.05 722.039C1201.5 741 1204.5 770 1204 784.5L1152.8 782.616Z" fill="white"/>
<path d="M501 809C493.8 789.4 494.333 761.833 495.5 750.5L373 754.5C370.2 772.1 377.166 802.167 379.5 815L501 809Z" fill="#001647" fill-opacity="0.2"/>
<path d="M653.87 725.984L365.663 749.005M669.935 798.066L372 811M1152.99 785.259L1210.28 779.417M1165.96 721.569L1206.5 721.569M781.167 861.953C682.013 851.636 657.16 770.149 656.503 719.768C656.395 711.426 662.733 704.694 671.004 703.598C763.882 691.282 967.052 676.004 1150.78 699.286C1158.48 700.261 1164.71 706.141 1164.73 713.901C1164.84 756.804 1137.12 837.115 1065.29 855.363C1017.69 867.452 975.216 843.757 948.769 820.361C936.589 809.587 917.535 808.228 904.418 817.837C856.527 852.92 804.134 862.105 781.167 861.953Z" stroke="black" stroke-width="22" stroke-linecap="round"/>
</g>
<defs>
<clipPath id="clip0_925_1372">
<rect width="1500" height="1500" fill="white"/>
</clipPath>
</defs>
      <g clip-path="url(#clip0_786_1571)">
<path d="M348 775L369 729L432 708.5L555.5 668.5L699.5 639.5L848 627H1014L1171.5 626L1194 614C1148 466 952.5 317.5 699.5 360.5C497.1 394.9 394.833 548.833 369 621.5C350.167 630 303.6 633.4 262 649C220.4 664.6 192.833 723.333 185 742L214 752L276 760L272 789.5L269.5 844.5L316.5 819.5L348 775Z" fill="#FF9C07"/>
<path d="M740.5 357.5C585.7 413.5 517 606.833 523.5 681L365.5 728L337.5 806.5L276.5 848L267.5 831.5L276.5 757L233 751.5L188.5 742.5L196 721L228.5 675.5L295.5 638.5L371 619.5C458.6 418.7 664.5 358.167 740.5 357.5Z" fill="#001647" fill-opacity="0.2"/>
<path d="M365.499 733C361.229 766.691 346.6 822.9 278.017 846.491C272.108 848.524 266.062 844.256 266.142 838.007C266.414 816.515 271.11 785.909 284.173 755.5M352.69 674C349.439 692.112 348.907 708.667 351.213 722.797C352.132 728.423 358.007 731.46 363.407 729.632C567.243 660.623 776.1 608.066 1183.08 624.375C1190.15 624.658 1195.45 617.788 1192.83 611.211C1146.56 495.051 1004.12 307.96 674.999 368.5C517.477 397.475 410.414 517.784 368.974 619.5M352.69 674C355.747 656.968 361.208 638.561 368.974 619.5M352.69 674C318.787 694.711 297.273 725.007 284.173 755.5M368.974 619.5C275.567 629.083 217.031 666.673 189.87 735.352C187.877 740.391 190.542 746.023 195.709 747.656C215.238 753.828 249.504 761.579 284.173 755.5" stroke="black" stroke-width="22" stroke-linecap="round"/>
</g>
<defs>
<clipPath id="clip0_786_1571">
<rect width="1500" height="1500" fill="white"/>
</clipPath>
</defs>
      
    </g>
    </svg>