<svg
      xmlns="http://www.w3.org/2000/svg"
      preserveAspectRatio="xMidYMin meet"
      fill="none"
      viewBox="0 0 1500 1500"
    >
      <g>
      <path fill="url(#prefix__paint0_linear_53_30463)" d="M0 0h1500v1500H0z"/><defs><linearGradient id="prefix__paint0_linear_53_30463" x1="1500" y1="1500" x2="0" y2="0" gradientUnits="userSpaceOnUse">
<stop stop-color="#FF5A5A"/>
<stop offset="1" stop-color="#FFBDBD"/>
</linearGradient></defs>
      <g clip-path="url(#clip0_483_418)">
<path d="M773 1011.5C543.4 1029.9 398.667 1353.5 355 1513H1138.5C1075.7 1127 868.667 1017.83 773 1011.5Z" fill="#AABBFF"/>
<path d="M661.5 1284C651.1 1208.4 559.5 1181.83 515 1178C583.5 1088.5 654 1030.5 768.5 1008.5C860.1 990.9 976.333 1131.17 1023 1203.5L1007 1267.5L1011.5 1323.5L1036 1427.5L1054 1508H654V1457C660.833 1430.83 671.9 1359.6 661.5 1284Z" fill="#4AEEB9"/>
<path d="M691 1281C658 1185.5 577 1152.5 538.5 1150.5L517.5 1174L607.5 1204L647.5 1259L674.5 1331.5L657 1443.5L652 1506.5H685C684.752 1490.12 685.132 1463.27 685.975 1439.63C686.843 1415.25 692.482 1391.39 696.842 1367.39C704.309 1326.28 698.07 1301.46 691 1281Z" fill="white"/>
<path d="M982.5 1303C973.3 1248.2 991.333 1198.5 1001.5 1180.5L1024 1199.5L1011.5 1239.5L1015 1315L1041.5 1437.5L1050 1506.5H1024C1012.5 1395 994 1371.5 982.5 1303Z" fill="white"/>
<path d="M834 1189C756.4 1183.4 696 1082 675.5 1032L711 1023.5L721.5 1044.5L774 1117.5L824 1142.5C856.4 1133.7 870.167 1075.83 873 1048C885.333 1054 910.6 1066.5 913 1068.5C915.4 1070.5 902.667 1102 896 1117.5L868 1164.5L834 1189Z" fill="white"/>
<path d="M749.5 1019.5C536 1134 457.448 1414.63 443.159 1511H353.699C350.414 1508.73 357.049 1471.27 409.87 1339.62C462.691 1207.98 569.086 1113.24 605.384 1082.33L674 1033.5L749.5 1019.5Z" fill="#001647" fill-opacity="0.2"/>
<path d="M818.5 1143.5C778.1 1131.9 731.667 1054 713.5 1016.5L795.5 1019.5L872 1043L854 1126.5L818.5 1143.5Z" fill="#AABBFF"/>
<path d="M353.5 1519.5C365.5 1454.33 414.5 1313.6 483.5 1219C530.101 1155.11 577.468 1101.29 629.141 1059.66C710.278 994.299 826.037 996.323 905.02 1064.27C1000.08 1146.05 1103.44 1290.29 1142.5 1519.5M1050.5 1519.5C1048.1 1443.9 1024.83 1354.33 1013.5 1319C999.5 1268 1009.7 1225.3 1020.5 1204.5M653.5 1519.5C650.3 1467.1 661.167 1392.33 667 1361.5C674 1324.5 668 1288.8 642 1250C609.5 1201.5 554.5 1171 517 1179.5" stroke="black" stroke-width="22" stroke-linecap="round"/>
<path d="M716.5 1021C729.247 1059.57 769.06 1137.84 826.825 1144.38C827.577 1144.46 828.321 1144.26 828.913 1143.79C845.329 1130.77 875.856 1093.54 873.5 1042.5" stroke="black" stroke-width="22" stroke-linecap="round"/>
<path d="M682 1039C700.209 1094.08 754.185 1179.21 836.775 1187.88C837.527 1187.96 838.267 1187.76 838.866 1187.3C859.814 1171.19 904.649 1131.93 911.953 1072" stroke="black" stroke-width="22" stroke-linecap="round"/>
<path d="M791.438 1500.84C783.883 1493.52 779.375 1483.22 777.915 1469.93L770.467 1402.1C768.917 1387.88 770.995 1377.11 776.704 1369.79C782.412 1362.47 791.771 1358.95 804.781 1359.23C817.865 1359.52 828.086 1363.46 835.446 1371.06C842.806 1378.66 847.266 1389.57 848.827 1403.79L856.275 1471.62C857.744 1485.01 855.482 1495.2 849.491 1502.18C843.5 1509.16 834.195 1512.5 821.575 1512.21C809.066 1511.94 799.021 1508.15 791.438 1500.84ZM823.509 1481.65C824.689 1479.45 825.135 1476.93 824.78 1474.46L816.644 1400.34C816.167 1396.03 815.313 1392.72 814.096 1390.42C812.879 1388.13 810.76 1386.95 807.777 1386.89C804.795 1386.83 803.007 1387.92 802.301 1390.17C801.596 1392.42 801.533 1395.71 802.01 1400.02L810.145 1474.15C810.394 1476.78 811.353 1479.3 812.917 1481.42C813.534 1482.36 814.362 1483.14 815.334 1483.69C816.306 1484.24 817.393 1484.55 818.507 1484.59C819.538 1484.65 820.563 1484.4 821.458 1483.88C822.353 1483.35 823.079 1482.58 823.548 1481.65L823.509 1481.65Z" fill="white"/>
<path d="M894.056 1507.85C888.625 1505.6 883.819 1502.06 880.051 1497.52C876.289 1492.92 873.98 1487.29 873.421 1481.36L871.643 1465.3L900.181 1465.91L900.507 1468.88C900.843 1472.96 901.75 1476.97 903.202 1480.8C903.687 1482.14 904.578 1483.3 905.752 1484.11C906.925 1484.92 908.321 1485.33 909.741 1485.3C912.979 1485.37 915.153 1484.52 916.282 1482.73C917.411 1480.94 917.779 1478.26 917.379 1474.65L914.049 1444.59C912.906 1447.27 910.895 1449.49 908.343 1450.87C905.29 1452.51 901.849 1453.27 898.397 1453.06C890.316 1452.89 883.877 1451.12 879.08 1447.76C874.282 1444.4 870.677 1439.51 868.264 1433.1C865.825 1426.63 864.026 1418.17 862.867 1407.69C861.09 1391.73 862.733 1379.5 867.796 1371.01C872.86 1362.52 882.304 1358.42 896.127 1358.72C906.276 1358.93 914.489 1360.85 920.766 1364.48C927.079 1368.14 932.056 1373.75 934.967 1380.48C938.169 1387.49 940.386 1396.62 941.618 1407.86L946.098 1448.42C947.812 1463.92 948.236 1476.1 947.371 1484.97C946.506 1493.84 943.395 1500.58 938.039 1505.18C932.672 1509.77 924.045 1511.94 912.157 1511.68C905.936 1511.57 899.792 1510.27 894.056 1507.85ZM910.961 1416.23L908.889 1397.53C908.087 1390.19 905.202 1386.46 900.234 1386.36C897.116 1386.29 895.262 1387.5 894.673 1389.99C894.084 1392.47 894.1 1396.51 894.722 1402.11L896.049 1414.34C896.935 1422.5 899.692 1426.63 904.321 1426.73C909.549 1426.84 911.762 1423.34 910.961 1416.23Z" fill="white"/>
<path d="M903.576 1276.75C902.196 1276.75 901.23 1275.39 901.687 1274.08L909.159 1252.81C909.713 1251.23 911.84 1250.99 912.735 1252.4L935.336 1288.03C935.707 1288.61 936.353 1288.96 937.045 1288.96L946.363 1288.86C947.926 1288.85 948.868 1287.13 948.037 1285.8L908.618 1222.93C907.728 1221.51 905.591 1221.75 905.036 1223.33L882.743 1286.81C882.283 1288.12 883.262 1289.49 884.649 1289.47L925.683 1289.07C927.251 1289.05 928.192 1287.32 927.352 1286L914.651 1265.96C913.756 1264.55 911.626 1264.79 911.074 1266.37L907.908 1275.41C907.628 1276.21 906.872 1276.74 906.023 1276.74L903.576 1276.75Z" fill="white"/>
</g>
<defs>
<clipPath id="clip0_483_418">
<rect width="1500" height="1500" fill="white"/>
</clipPath>
</defs>
      <g clip-path="url(#clip0_497_1194)">
<path d="M379.667 654.812C432.345 471.574 618.472 401.981 699.114 390.653C740.985 382.718 849.655 375.215 949.364 408.675C980 418.956 1049.88 457.388 1091.92 499.818C1144.47 552.856 1272.97 732.052 1185.05 927.725C1097.12 1123.4 758.414 1092.29 612.749 1051.82C464.472 1010.63 314.48 881.563 379.667 654.812Z" fill="#AABBFF"/>
<path d="M449.293 747.204C454.734 531.068 585.306 432.345 649.911 410C432.292 459.565 365.296 655.455 364 747.204C377.99 984.871 584.496 1053.43 681 1058C601.498 1044.46 443.853 963.339 449.293 747.204Z" fill="#001647" fill-opacity="0.2"/>
<path d="M379.667 654.812C432.345 471.574 618.472 401.981 699.114 390.653C740.985 382.718 849.655 375.215 949.364 408.675C980 418.956 1049.88 457.388 1091.92 499.818C1144.47 552.856 1272.97 732.052 1185.05 927.725C1097.12 1123.4 758.414 1092.29 612.749 1051.82C464.472 1010.63 314.48 881.563 379.667 654.812Z" stroke="black" stroke-width="22" stroke-linecap="round"/>
</g>
<defs>
    <clipPath id="prefix__clip0_299_662"><path fill="#fff" d="M0 0h1500v1500H0z"/></clipPath>
</defs>
      <g clip-path="url(#clip0_624_3293)">
<path d="M916.488 918.577L931.325 908.854C933.985 907.112 936.223 904.799 937.876 902.083C939.529 899.367 940.556 896.317 940.882 893.154C941.208 889.991 940.825 886.795 939.761 883.799C938.697 880.803 936.978 878.082 934.73 875.834V875.834C932.657 873.764 930.181 872.142 927.456 871.068C924.731 869.994 921.814 869.491 918.886 869.59C915.959 869.689 913.083 870.388 910.436 871.643C907.79 872.899 905.429 874.684 903.501 876.889L890.301 891.98" stroke="black" stroke-width="22" stroke-miterlimit="10" stroke-linecap="round"/>
<path d="M916.488 918.675L931.325 928.397C933.986 930.137 936.225 932.449 937.879 935.164C939.533 937.88 940.561 940.93 940.887 944.092C941.213 947.255 940.83 950.451 939.764 953.446C938.699 956.442 936.979 959.162 934.73 961.409V961.409C932.66 963.484 930.185 965.11 927.46 966.188C924.734 967.265 921.817 967.77 918.888 967.672C915.959 967.574 913.081 966.874 910.434 965.617C907.787 964.359 905.427 962.57 903.501 960.362L890.301 945.271" stroke="black" stroke-width="22" stroke-miterlimit="10" stroke-linecap="round"/>
<path d="M1012 817C1038.51 817 1060 795.51 1060 769C1060 742.49 1038.51 721 1012 721C985.49 721 964 742.49 964 769C964 795.51 985.49 817 1012 817Z" fill="black" stroke="black" stroke-width="22" stroke-miterlimit="10"/>
<path d="M1025.18 765.61C1035.8 765.61 1044.4 757.009 1044.4 746.398C1044.4 735.788 1035.8 727.186 1025.18 727.186C1014.57 727.186 1005.97 735.788 1005.97 746.398C1005.97 757.009 1014.57 765.61 1025.18 765.61Z" fill="white"/>
<path d="M994.295 774.185C998.822 774.185 1002.49 770.515 1002.49 765.988C1002.49 761.461 998.822 757.791 994.295 757.791C989.768 757.791 986.098 761.461 986.098 765.988C986.098 770.515 989.768 774.185 994.295 774.185Z" fill="white"/>
<path d="M1018.1 800.697C1026.05 800.697 1032.49 794.254 1032.49 786.307C1032.49 778.359 1026.05 771.917 1018.1 771.917C1010.16 771.917 1003.71 778.359 1003.71 786.307C1003.71 794.254 1010.16 800.697 1018.1 800.697Z" fill="white"/>
<path d="M822 817C848.51 817 870 795.51 870 769C870 742.49 848.51 721 822 721C795.49 721 774 742.49 774 769C774 795.51 795.49 817 822 817Z" fill="black" stroke="black" stroke-width="22" stroke-miterlimit="10"/>
<path d="M835.185 765.61C845.795 765.61 854.397 757.009 854.397 746.398C854.397 735.788 845.795 727.186 835.185 727.186C824.574 727.186 815.973 735.788 815.973 746.398C815.973 757.009 824.574 765.61 835.185 765.61Z" fill="white"/>
<path d="M804.295 774.185C808.822 774.185 812.492 770.515 812.492 765.988C812.492 761.461 808.822 757.791 804.295 757.791C799.768 757.791 796.098 761.461 796.098 765.988C796.098 770.515 799.768 774.185 804.295 774.185Z" fill="white"/>
<path d="M828.103 800.697C836.051 800.697 842.493 794.254 842.493 786.307C842.493 778.359 836.051 771.917 828.103 771.917C820.156 771.917 813.713 778.359 813.713 786.307C813.713 794.254 820.156 800.697 828.103 800.697Z" fill="white"/>
</g>
<defs>
<clipPath id="clip0_624_3293">
<rect width="1500" height="1500" fill="white"/>
</clipPath>
</defs>
      <g clip-path="url(#clip0_911_278)">
<path d="M741 865.42V871.56C741.01 872.669 740.781 873.767 740.33 874.78C739.07 877.64 736.99 877.78 736.99 877.78C735.893 878.033 734.754 878.046 733.651 877.818C732.548 877.59 731.507 877.127 730.6 876.46C727.96 874.35 721.36 856.25 721.36 856.25L708.65 876.46H700L717.8 848.25L712.21 836.66C711.84 835.888 711.265 835.233 710.547 834.767C709.828 834.301 708.996 834.043 708.14 834.02H708C707.225 833.94 706.442 834.054 705.721 834.351C705.001 834.647 704.365 835.118 703.87 835.72C702.98 836.61 702.66 839.5 702.66 839.5L700.88 839.63C700.634 837.881 700.59 836.109 700.75 834.35C700.862 833.001 701.324 831.705 702.09 830.59C702.61 829.783 703.325 829.12 704.169 828.664C705.014 828.208 705.96 827.972 706.92 827.98C708.535 827.979 710.11 828.479 711.43 829.41C712.762 830.35 713.801 831.646 714.43 833.15L719.69 846.2L731.13 828.8H739L723.2 853.31L727.14 862.63C727.14 862.63 730.14 871.63 734.45 871.63C738.76 871.63 739.16 865.41 739.16 865.41L741 865.42Z" fill="black"/>
</g>
<defs>
<clipPath id="clip0_911_278">
<rect width="1500" height="1500" fill="white"/>
</clipPath>
</defs>
      <g clip-path="url(#prefix__clip0_53_30392)"><path d="M661.719 466.274s.681-50.314 11.212-50.049c10.53.266 30.241-4.165 30.241-4.165l31.002 15.989 25.638-5.424 28.99-24.747 27.071-1.791 27.883 14.121 15.446 18.681 23.411.145 50.96-13.954 24.276 23.68-19.232 52.574-44.507-21.369-17.617-6.041-23.175-7.036-28.05-1.943-32.388-.112-55.638 3.68-50.45 8.949-25.073-1.188z" fill="#97A5DE"/><path d="M718.506 479.214s19.322 40.453 64.014 34.31c44.692-6.143 83.522-32.583 83.522-32.583l10.406-17.065-81.463-14.775-84.096 14.041s-8.664 11.898 7.617 16.072z" fill="#7985B4"/><path d="M662.843 469.488s-13.534-58.554 30.087-60.287c15.493-.614 25.434 4.992 32.226 12.21 13.894 14.755 29.392 7.707 38.346-2.386 11.842-13.391 27.482-26.021 44.854-27.17 20.226-1.338 34.215 14.393 42.889 29.474 6.094 10.621 21.799 13.651 33.204 6.683 11.953-7.315 28.35-12.9 48.081-8.683 42.964 9.245 6.064 69.091 6.064 69.091" stroke="#000" stroke-width="18.1" stroke-miterlimit="10" stroke-linecap="round"/><path d="M630.048 507.636s25.276-45.068 51.452-39.634c40.502 8.395 74.399 69.733 74.399 69.733M800.818 537.27s38.761-65.501 93.251-67.301c54.49-1.801 48.429 57.93 48.429 57.93M682 468s137.209-40.275 226.409 2.982M736.796 506.5s35.104 14.655 86.489 1.675" stroke="#000" stroke-width="20" stroke-miterlimit="10" stroke-linecap="round"/><path d="M351.4 750.771c1.45-8.17 3.76-20 6.67-31.13a13.136 13.136 0 019.81-9.48l13.84-3.16a4.275 4.275 0 012.33.11l14.27 4.69c.745.25 1.545.288 2.31.11l115.08-25.85h.23l277.24-47.09h.39l209.23-16.47 118.94-6.24h14.49a16.295 16.295 0 0113.74 7.56 339.734 339.734 0 0121.14 38.49c.31.658.77 1.23 1.36 1.662.58.431 1.27.71 1.99.809.72.1 1.45.017 2.13-.24.68-.257 1.29-.68 1.76-1.231l13.59-15.75a4.384 4.384 0 001.06-2.85l-5.42-29.45c0-.618-.13-1.229-.39-1.79-2.71-6-28.15-36.5-24-40 .93-.8-17.57-32.49-24.61-39.71-7.04-7.22-27.4-11.36-33.18-15.1-5.78-3.74-13.77-8.69-29.57-10.2-15.8-1.51-48.68-2.29-62.62-1.94-13.42.34-64-1.57-67.72-1.71H945l-162 10.19a4.14 4.14 0 00-.52.06l-125.3 23.27-94.3 15.07a4.78 4.78 0 00-.53.12l-95.73 27.73c-.14 0-.28.09-.41.15l-83 22.6c-.19.08-2.92 12.07-3.11 12.17l-36.86 21.51a4.413 4.413 0 00-1.84 2.1c-1.72 4.2-6.89 16.83-7.88 19.84-1.18 3.62.06 15.86 0 17.9a151.534 151.534 0 01-2.43 18.35c-1.51 7.64-2.64 17.18 0 22.1 2.64 4.92 5.44 17.14 8.84 26.76a49.484 49.484 0 003.34 7.37 4.361 4.361 0 008.13-1.33z" fill="#F8CF47"/><path d="M583 553.5c-28 33.2-40.333 98.167-43 126.5-50.667 9.5-154.4 29.1-164 31.5-9.6 2.4-20.333 26.333-24.5 38l-14-31L330 669c2.667-7 13.8-27.1 37-51.5s93-41.167 125-46.5l91-17.5z" fill="#001647" fill-opacity=".2"/><path d="M664.723 621.964a4.421 4.421 0 011.632 2.886 3.994 3.994 0 01-.836 3.019l-.069.071a4.322 4.322 0 01-2.243 1.268 4.6 4.6 0 01-2.002-.048 4.284 4.284 0 01-1.881-.96l-.428-.381-4.01-3.236c-1.016-.788-1.964-1.598-2.941-2.418-.096.232-.181.454-.276.666-.495 1.181-.95 2.391-1.454 3.622a55.426 55.426 0 00-1.352 3.689 3.77 3.77 0 01-2.947 2.533 4.237 4.237 0 01-2.576-.275 4.394 4.394 0 01-2.497-2.197 3.996 3.996 0 01-.278-3.195c.512-1.331.945-2.611 1.467-3.892.523-1.282.947-2.531 1.441-3.762a30.47 30.47 0 00.817-2.018c.18-.473.37-.958.54-1.431a124.678 124.678 0 01-5.439-5.566 68.723 68.723 0 01-5.393-6.667 4.09 4.09 0 01-.719-1.501 4.054 4.054 0 01-.058-1.663 3.686 3.686 0 011.825-2.59 4.54 4.54 0 013.321-.47c1.17.25 2.196.945 2.862 1.939a65.875 65.875 0 003.732 4.752 69.181 69.181 0 002.907 3.149 85.767 85.767 0 001.092-4.154 52.819 52.819 0 001.076-6.334 3.817 3.817 0 011.633-2.695 4.176 4.176 0 013.298-.63c1.16.175 2.21.786 2.936 1.708a3.873 3.873 0 01.878 3.162 66.55 66.55 0 01-1.637 8.676 98.98 98.98 0 01-2.102 6.987 243.8 243.8 0 004.238 3.601l4.977 4.075.466.28zM688.412 623.561a31.506 31.506 0 01-3.571.425c-3.048.219-6.11.045-9.113-.516a5.001 5.001 0 01-3.191-1.893 4.712 4.712 0 01-1.074-3.448 4.156 4.156 0 011.736-3.038 4.596 4.596 0 011.715-.748 4.584 4.584 0 011.87.002c2.124.355 4.279.487 6.43.394a18.355 18.355 0 005.44-1.026 8.591 8.591 0 005.12-3.789c.249-.436.435-.904.551-1.392a1.993 1.993 0 00-.5-1.87c-.678-.856-2.031-1.457-4.039-1.785a23.13 23.13 0 00-4.323-.108c-2.363.182-4.7.61-6.974 1.278a5.116 5.116 0 01-3.518-.305 5 5 0 01-2.534-2.557 4.078 4.078 0 01-.242-3.356 4.407 4.407 0 012.298-2.499 21.259 21.259 0 004.552-2.797 16.711 16.711 0 003.091-3.267 12.156 12.156 0 001.709-3.337 7.731 7.731 0 00.355-3.088 3.234 3.234 0 00-.296-1.234 1.678 1.678 0 00-.739-.864 4.009 4.009 0 00-1.131-.056 6.6 6.6 0 00-1.991.472 26.291 26.291 0 00-3.144 1.717 28.674 28.674 0 00-4.651 3.78 4.616 4.616 0 01-3.432 1.353 4.938 4.938 0 01-3.521-1.446 4.781 4.781 0 01-1.681-3.335 3.842 3.842 0 011.281-3.248 33.889 33.889 0 0110.814-7.481 15.16 15.16 0 016.237-1.133 15.58 15.58 0 014.369.838 11.302 11.302 0 015.257 4.059 13.345 13.345 0 012.338 6.482 16.99 16.99 0 01-.551 5.593 20.545 20.545 0 01-2.365 5.441 17.252 17.252 0 016.509 2.253 15.612 15.612 0 013.645 3.053 11.482 11.482 0 012.822 6.632 12.059 12.059 0 01-1.68 7.107 14.24 14.24 0 01-3.995 4.526 21.59 21.59 0 01-5.845 3.125c-.645.213-1.301.417-1.987.612-.686.195-1.333.338-2.051.474zM731.08 616.333a16.846 16.846 0 01-7.544-.58 21.899 21.899 0 01-7.334-3.846 27.268 27.268 0 01-6.145-6.801 35.185 35.185 0 01-4.082-8.985 38.264 38.264 0 01-1.233-6.245 26.68 26.68 0 01.003-5.992 22.92 22.92 0 011.149-5.245 24.165 24.165 0 012.163-4.607 17.008 17.008 0 014.738-4.872 15.116 15.116 0 016.15-2.421c2.411-.391 4.881-.2 7.203.557a18.664 18.664 0 016.726 3.979c4.079 3.701 7.123 9.157 9.129 16.37a42.15 42.15 0 011.58 7.968 31.13 31.13 0 01-.037 6.292 19.459 19.459 0 01-1.109 4.765 19.776 19.776 0 01-1.649 3.375 13.442 13.442 0 01-4.161 4.2 14.414 14.414 0 01-5.547 2.088zm-9.859-40.38a5.627 5.627 0 00-2.477 1.133 9.866 9.866 0 00-2.181 2.327 14.727 14.727 0 00-2.08 6.625c-.193 2.761.12 5.534.924 8.182a24.418 24.418 0 002.69 6.085 18.204 18.204 0 003.876 4.478 10.882 10.882 0 003.513 2.006 7.065 7.065 0 003.328.35 4.945 4.945 0 003.549-2.456 8.228 8.228 0 00.87-1.859c.327-.975.528-1.987.597-3.013.101-1.453.07-2.912-.093-4.359a36.91 36.91 0 00-4.41-13.62 19.292 19.292 0 00-3.084-3.935c-1.779-1.529-3.457-2.171-5.032-1.924l.01-.02zM792.61 607.657a23.77 23.77 0 01-8.714-.535 26.613 26.613 0 01-8.453-3.822 28.457 28.457 0 01-6.998-6.913 29.982 29.982 0 01-4.628-9.754 28.315 28.315 0 01-.851-10.884 21 21 0 013.432-8.895 21.518 21.518 0 016.531-6.14 21.79 21.79 0 018.649-2.954 22.785 22.785 0 018.765.574 24.214 24.214 0 017.953 3.832 25.466 25.466 0 016.686 7.32 33.684 33.684 0 014.052 9.916c.572 2.286.89 4.627.948 6.982a27.455 27.455 0 01-.499 5.692 19.886 19.886 0 01-1.417 4.431 22.416 22.416 0 01-1.82 3.279 17.585 17.585 0 01-5.889 5.316 21.002 21.002 0 01-7.747 2.555zm-9.004-40.628a12.558 12.558 0 00-8.78 5.278 12.294 12.294 0 00-2.1 5.695 18.997 18.997 0 00.606 6.889 19.368 19.368 0 002.877 6.44 17.768 17.768 0 004.294 4.36 14.823 14.823 0 005.05 2.324c1.677.433 3.419.555 5.139.361a10.44 10.44 0 007.484-4.16c2.28-3.289 2.746-7.73 1.357-13.332a22.7 22.7 0 00-2.808-6.942 16.473 16.473 0 00-3.954-4.407 12.56 12.56 0 00-4.547-2.164 13.182 13.182 0 00-4.618-.342zM826.58 604.007a5 5 0 01-3.491-.926 5.173 5.173 0 01-2.063-2.957c-.001-.05-.153-.647-.458-1.811-.305-1.164-.658-2.696-1.098-4.598-.44-1.901-.936-4.051-1.467-6.46-.532-2.409-1.104-4.868-1.558-7.398a173.038 173.038 0 01-1.542-8.09 116.338 116.338 0 01-.893-6.262 29.553 29.553 0 01-.119-5.619c.07-.923.277-1.831.613-2.693a4.396 4.396 0 011.952-2.292 7.914 7.914 0 011.984-.753 6.002 6.002 0 012.513.107 8.5 8.5 0 012.119.875c.58.336 1.122.733 1.616 1.186.429.421.756.744.951.98l1.786 2.153a50.395 50.395 0 012.141 2.855 199.01 199.01 0 014.291 6.601c1.522 2.438 3.025 4.937 4.537 7.375l1.937 3.14c.643 1.036 1.244 2.034 1.824 2.962a82.946 82.946 0 00-.622-3.848c-.26-1.415-.514-2.99-.759-4.635a312.084 312.084 0 00-1.245-6.375c-.424-2.051-.803-3.884-1.117-5.478a97.993 97.993 0 00-.821-3.833 92.03 92.03 0 01-.352-1.503 3.988 3.988 0 01.708-3.416 4.406 4.406 0 013.172-1.827 5.21 5.21 0 013.76.92 5 5 0 012.147 3.135c.506 2.19.919 4.182 1.267 5.975.348 1.793.741 3.835 1.13 6.107.388 2.272.858 4.623 1.29 7.064 1.009 5.754 1.678 10.437 2.008 14.051a35.83 35.83 0 01.15 7.068 6.81 6.81 0 01-1.48 3.773 5.193 5.193 0 01-4.034 1.745 5.522 5.522 0 01-3.455-1.176 20.119 20.119 0 01-2.47-2.289 44.516 44.516 0 01-3.389-4.639 169.452 169.452 0 01-3.786-5.921c-1.358-2.221-2.755-4.462-4.217-6.852l-2.658-4.144a315.386 315.386 0 00-2.608-4.126c.423 2.492 1.019 5.6 1.768 9.325.474 2.243.93 4.388 1.367 6.432.437 2.045.838 3.853 1.205 5.426.367 1.572.804 3.33 1.312 5.273a3.996 3.996 0 01-.586 3.493 4.47 4.47 0 01-1.32 1.275 4.466 4.466 0 01-1.72.64l-.22-.015zM880.291 599.246c-1.998.143-3.616.227-4.996.256-1.379.029-2.429.052-3.28 0-.852-.052-1.522-.078-2.004-.138l-1.003-.139a6.702 6.702 0 01-1.853-.58 7.191 7.191 0 01-2.195-1.654 10.162 10.162 0 01-1.775-2.553 21.538 21.538 0 01-1.053-2.498 37.368 37.368 0 01-.948-3.171 59.72 59.72 0 01-1.364-6.302c-.41-2.392-.821-5.081-1.231-8.066a133.261 133.261 0 01-.915-7.282 939.26 939.26 0 01-.604-6.339c-.17-1.867-.302-3.374-.377-4.563-.076-1.189-.129-1.818-.151-1.917a3.844 3.844 0 011.212-3.237 4.814 4.814 0 013.461-1.373 5.409 5.409 0 013.632 1.463 4.629 4.629 0 011.64 3.296s.012.54.102 1.488.157 2.197.3 3.765c.143 1.567.302 3.384.495 5.43.194 2.047.418 4.152.685 6.327.321 2.594.638 4.948.95 7.062a86.788 86.788 0 001.01 5.679 88.98 88.98 0 00.921 3.802c.261.954.466 1.66.646 2.127 1.383.049 2.768.019 4.149-.089 1.648-.104 3.395-.232 5.213-.38 1.817-.149 3.633-.337 5.45-.536 1.816-.199 3.482-.384 4.988-.586a4.92 4.92 0 013.661.923 5.128 5.128 0 012.067 3.136 4.01 4.01 0 01-.677 3.466 4.282 4.282 0 01-2.963 1.793l-.888.099-2.115.245-2.993.353a86.841 86.841 0 01-3.594.317c-.678.094-1.317.168-1.906.21l-1.697.166zM918.796 546.334a5.656 5.656 0 013.052 2.436 4.428 4.428 0 01.536 3.579c-.576 2.063-1.085 4.024-1.548 5.784a90.86 90.86 0 00-1.181 5.116 275.773 275.773 0 00-.902 4.631c-.269 1.466-.539 2.912-.788 4.337-.325 1.668-.63 3.324-.894 5.02-.264 1.696-.638 3.395-1.04 5.184a177.654 177.654 0 01-1.38 5.68 123.936 123.936 0 01-1.865 6.391 4.241 4.241 0 01-1.495 2.152 4.287 4.287 0 01-2.471.903 4.618 4.618 0 01-2.007-.317 5.151 5.151 0 01-2.913-2.459 4.555 4.555 0 01-.417-3.612 266.98 266.98 0 001.536-5.404c.455-1.67.85-3.279 1.178-4.796a155.624 155.624 0 01-4.476-5.416c-1.663-2.035-3.36-4.21-5.139-6.503-1.779-2.292-3.409-4.648-5.031-7.075-1.622-2.426-3.031-4.746-4.249-7.001a4.42 4.42 0 01-.387-3.613 4.124 4.124 0 012.456-2.572 5.354 5.354 0 013.821.009 5.271 5.271 0 012.915 2.548 77.3 77.3 0 005.631 8.983 199.348 199.348 0 006.678 8.79c.5-2.841 1.047-5.813 1.661-8.937.614-3.124 1.468-6.733 2.6-10.868a4.317 4.317 0 012.313-2.709 5 5 0 013.806-.261z" fill="#000"/><path d="M1167 676.66l15-14.51c15.36-14.83 9.49-37.91 0-57.06-13.24-26.85-36.46-57.08-52.15-71.35-15.69-14.27-35.56-24.09-56.77-25.16-310.93-15.72-555.58 46.89-676 89.09-51.8 18.15-91.49 89-40.2 172.16" stroke="#000" stroke-width="20"/><path d="M367.76 720.799S680.27 642 865.21 633.9c0 0 164.52-11.68 272.65-7.57" stroke="#000" stroke-width="20"/></g><defs><clipPath id="prefix__clip0_53_30392"><path fill="#fff" d="M0 0h1500v1500H0z"/></clipPath></defs>
      
    </g>
    </svg>