<svg
      xmlns="http://www.w3.org/2000/svg"
      preserveAspectRatio="xMidYMin meet"
      fill="none"
      viewBox="0 0 1500 1500"
    >
      <g>
      <path fill="url(#prefix__paint0_linear_53_28789)" d="M0 0h1500v1500H0z"/><defs><linearGradient id="prefix__paint0_linear_53_28789" x1="1500" y1="1500" x2="0" y2="0" gradientUnits="userSpaceOnUse">
<stop stop-color="#FFD130"/>
<stop offset="1" stop-color="#FFEEDB"/>
</linearGradient></defs>
      <g clip-path="url(#clip0_495_792)">
<path d="M773 1011.5C543.4 1029.9 398.667 1353.5 355 1513H1138.5C1075.7 1127 868.667 1017.83 773 1011.5Z" fill="#A760FF"/>
<path d="M741.5 1213C709.1 1241.4 650.333 1194.17 625 1167V1132.5L645 1105L708 1115.5C732.667 1136.17 773.9 1184.6 741.5 1213Z" fill="#AABBFF"/>
<path d="M768 1276.5C727.6 1271.7 715.833 1297.17 715 1310.5L735 1330.5L788.5 1320C798.5 1307.5 808.4 1281.3 768 1276.5Z" fill="#AABBFF"/>
<path d="M951.5 1230C920.3 1206.4 962.833 1169.17 988 1153.5L1033.5 1224.5C1019.17 1236.17 982.7 1253.6 951.5 1230Z" fill="#AABBFF"/>
<path d="M896 1383C837.2 1378.2 830.833 1440 835 1471.5L853 1506L935 1514L948.5 1492C955.5 1457.67 954.8 1387.8 896 1383Z" fill="#AABBFF"/>
<path d="M499.5 1441.5C527.1 1434.3 552 1481.5 561 1506H484.5C478 1487.5 471.9 1448.7 499.5 1441.5Z" fill="#AABBFF"/>
<path d="M749.5 1019.5C536 1134 457.448 1414.63 443.159 1511H353.699C350.414 1508.73 357.049 1471.27 409.87 1339.62C462.691 1207.98 569.086 1113.24 605.384 1082.33L674 1033.5L749.5 1019.5Z" fill="#001647" fill-opacity="0.2"/>
<path d="M922 1520C946 1484.4 906 1407 874 1393.5L911.5 1389.5L946 1428L951.5 1480.5C945.167 1492.67 930.4 1517.6 922 1520Z" fill="#001647" fill-opacity="0.2"/>
<path d="M756.253 1287.62L756 1287.5L794.5 1289.5L797.5 1314L760.5 1321.5C792.277 1304.12 768.339 1293.15 756.253 1287.62Z" fill="#001647" fill-opacity="0.2"/>
<path d="M702 1125.5C738 1171 718.5 1206.5 694.5 1214H740.5L749.5 1175.5L702 1125.5Z" fill="#001647" fill-opacity="0.2"/>
<path d="M1007 1190C1020.6 1214.8 989 1229 967 1233L982.5 1251L1030 1235C1032.67 1230.67 1037.6 1221.5 1036 1219.5C1034.4 1217.5 1013.67 1197.67 1007 1190Z" fill="#001647" fill-opacity="0.2"/>
<path d="M539 1507C526.6 1474.2 511.5 1453.5 496 1451.5L511.5 1440L546 1468L558.5 1503.5L539 1507Z" fill="#001647" fill-opacity="0.2"/>
<path d="M353.5 1519.5C365.5 1454.33 414.5 1313.6 483.5 1219C530.101 1155.11 577.468 1101.29 629.141 1059.66C710.278 994.299 826.037 996.323 905.02 1064.27C1000.08 1146.05 1103.44 1290.29 1142.5 1519.5M1013.5 1319C1024.83 1354.33 1048.1 1443.9 1050.5 1519.5M667 1361.5C661.167 1392.33 650.3 1467.1 653.5 1519.5M483.499 1507C478.166 1485.5 474.899 1441.7 504.499 1438.5C534.099 1435.3 555.166 1482.83 562 1507M981.5 1149L981.007 1149.41C962.792 1164.59 924.217 1196.72 948 1232C965.191 1257.5 1016 1242.17 1035 1225M856.5 1507C835.833 1479.83 821 1406.97 869 1386C922.5 1362.62 987.5 1471 929.5 1519M621.925 1133.67C614.574 1149.68 616.744 1169.44 643 1190.5C721.865 1253.76 753 1210 750 1179.5C747.464 1153.72 723.458 1126.72 693.232 1112.72C667.618 1100.86 633.703 1108.01 621.925 1133.67ZM724.656 1288.1C719.198 1292.29 715.187 1297.25 713.999 1303C707.5 1334.5 761.668 1337.41 785.999 1321C789.948 1318.34 792.733 1315.31 794.516 1312.09C810.942 1282.34 751.613 1267.4 724.656 1288.1Z" stroke="black" stroke-width="22" stroke-linecap="round"/>
</g>
<defs>
<clipPath id="clip0_495_792">
<rect width="1500" height="1500" fill="white"/>
</clipPath>
</defs>
      <g clip-path="url(#clip0_497_1194)">
<path d="M379.667 654.812C432.345 471.574 618.472 401.981 699.114 390.653C740.985 382.718 849.655 375.215 949.364 408.675C980 418.956 1049.88 457.388 1091.92 499.818C1144.47 552.856 1272.97 732.052 1185.05 927.725C1097.12 1123.4 758.414 1092.29 612.749 1051.82C464.472 1010.63 314.48 881.563 379.667 654.812Z" fill="#AABBFF"/>
<path d="M449.293 747.204C454.734 531.068 585.306 432.345 649.911 410C432.292 459.565 365.296 655.455 364 747.204C377.99 984.871 584.496 1053.43 681 1058C601.498 1044.46 443.853 963.339 449.293 747.204Z" fill="#001647" fill-opacity="0.2"/>
<path d="M379.667 654.812C432.345 471.574 618.472 401.981 699.114 390.653C740.985 382.718 849.655 375.215 949.364 408.675C980 418.956 1049.88 457.388 1091.92 499.818C1144.47 552.856 1272.97 732.052 1185.05 927.725C1097.12 1123.4 758.414 1092.29 612.749 1051.82C464.472 1010.63 314.48 881.563 379.667 654.812Z" stroke="black" stroke-width="22" stroke-linecap="round"/>
</g>
<defs>
    <clipPath id="prefix__clip0_299_662"><path fill="#fff" d="M0 0h1500v1500H0z"/></clipPath>
</defs>
      <g clip-path="url(#clip0_624_3293)">
<path d="M916.488 918.577L931.325 908.854C933.985 907.112 936.223 904.799 937.876 902.083C939.529 899.367 940.556 896.317 940.882 893.154C941.208 889.991 940.825 886.795 939.761 883.799C938.697 880.803 936.978 878.082 934.73 875.834V875.834C932.657 873.764 930.181 872.142 927.456 871.068C924.731 869.994 921.814 869.491 918.886 869.59C915.959 869.689 913.083 870.388 910.436 871.643C907.79 872.899 905.429 874.684 903.501 876.889L890.301 891.98" stroke="black" stroke-width="22" stroke-miterlimit="10" stroke-linecap="round"/>
<path d="M916.488 918.675L931.325 928.397C933.986 930.137 936.225 932.449 937.879 935.164C939.533 937.88 940.561 940.93 940.887 944.092C941.213 947.255 940.83 950.451 939.764 953.446C938.699 956.442 936.979 959.162 934.73 961.409V961.409C932.66 963.484 930.185 965.11 927.46 966.188C924.734 967.265 921.817 967.77 918.888 967.672C915.959 967.574 913.081 966.874 910.434 965.617C907.787 964.359 905.427 962.57 903.501 960.362L890.301 945.271" stroke="black" stroke-width="22" stroke-miterlimit="10" stroke-linecap="round"/>
<path d="M1012 817C1038.51 817 1060 795.51 1060 769C1060 742.49 1038.51 721 1012 721C985.49 721 964 742.49 964 769C964 795.51 985.49 817 1012 817Z" fill="black" stroke="black" stroke-width="22" stroke-miterlimit="10"/>
<path d="M1025.18 765.61C1035.8 765.61 1044.4 757.009 1044.4 746.398C1044.4 735.788 1035.8 727.186 1025.18 727.186C1014.57 727.186 1005.97 735.788 1005.97 746.398C1005.97 757.009 1014.57 765.61 1025.18 765.61Z" fill="white"/>
<path d="M994.295 774.185C998.822 774.185 1002.49 770.515 1002.49 765.988C1002.49 761.461 998.822 757.791 994.295 757.791C989.768 757.791 986.098 761.461 986.098 765.988C986.098 770.515 989.768 774.185 994.295 774.185Z" fill="white"/>
<path d="M1018.1 800.697C1026.05 800.697 1032.49 794.254 1032.49 786.307C1032.49 778.359 1026.05 771.917 1018.1 771.917C1010.16 771.917 1003.71 778.359 1003.71 786.307C1003.71 794.254 1010.16 800.697 1018.1 800.697Z" fill="white"/>
<path d="M822 817C848.51 817 870 795.51 870 769C870 742.49 848.51 721 822 721C795.49 721 774 742.49 774 769C774 795.51 795.49 817 822 817Z" fill="black" stroke="black" stroke-width="22" stroke-miterlimit="10"/>
<path d="M835.185 765.61C845.795 765.61 854.397 757.009 854.397 746.398C854.397 735.788 845.795 727.186 835.185 727.186C824.574 727.186 815.973 735.788 815.973 746.398C815.973 757.009 824.574 765.61 835.185 765.61Z" fill="white"/>
<path d="M804.295 774.185C808.822 774.185 812.492 770.515 812.492 765.988C812.492 761.461 808.822 757.791 804.295 757.791C799.768 757.791 796.098 761.461 796.098 765.988C796.098 770.515 799.768 774.185 804.295 774.185Z" fill="white"/>
<path d="M828.103 800.697C836.051 800.697 842.493 794.254 842.493 786.307C842.493 778.359 836.051 771.917 828.103 771.917C820.156 771.917 813.713 778.359 813.713 786.307C813.713 794.254 820.156 800.697 828.103 800.697Z" fill="white"/>
</g>
<defs>
<clipPath id="clip0_624_3293">
<rect width="1500" height="1500" fill="white"/>
</clipPath>
</defs>
      <g clip-path="url(#clip0_877_2891)">
<path opacity="0.5" d="M720 750.438C720 722.417 743.895 701.078 770.199 705.609C796.226 710.091 822.774 710.091 848.801 705.609C875.105 701.078 899 722.417 899 750.438V774.93C899 825.227 860.214 866 812.37 866H806.63C758.786 866 720 825.227 720 774.93V750.438Z" fill="#FF6247"/>
<path opacity="0.5" d="M937 750.438C937 722.417 960.762 701.078 986.919 705.609C1012.8 710.091 1039.2 710.091 1065.08 705.609C1091.24 701.078 1115 722.417 1115 750.438V774.93C1115 825.227 1076.43 866 1028.85 866H1023.15C975.569 866 937 825.227 937 774.93V750.438Z" fill="#FF6247"/>
<path d="M555 792C555 797.523 559.477 802 565 802C570.523 802 575 797.523 575 792H555ZM720 747L595 747L595 767L720 767L720 747ZM555 787V792H575V787H555ZM595 747C572.909 747 555 764.909 555 787H575C575 775.955 583.954 767 595 767L595 747Z" fill="black"/>
<path d="M956.85 721.662C956.85 721.662 956.298 703.515 996.284 698.54L1068.96 850.236C1068.96 850.236 1054.94 866.613 1025.72 865.696L956.85 721.662Z" fill="white" fill-opacity="0.3"/>
<path d="M740.63 724.24C740.63 724.24 740.078 706.416 780.064 701.53L852.741 850.523C852.741 850.523 838.725 866.607 809.505 865.706L740.63 724.24Z" fill="white" fill-opacity="0.3"/>
<path d="M1009.77 706.801C1009.77 706.801 1006.07 709.846 1019.83 701.031L1084.46 832.685C1084.46 832.685 1088.66 838.122 1077.47 840.432L1009.77 706.801Z" fill="white" fill-opacity="0.3"/>
<path d="M793.546 709.643C793.546 709.643 789.847 712.634 803.615 703.975L868.238 833.283C868.238 833.283 872.442 838.623 861.249 840.892L793.546 709.643Z" fill="white" fill-opacity="0.3"/>
<path d="M937.905 788.269C944.913 829.009 980.328 860 1022.96 860H1028.68C1076.35 860 1115 821.253 1115 773.455V744.18C1115 717.552 1091.19 699.273 1064.98 701.579C1039.05 702.839 1012.6 702.839 986.664 701.579C962.761 699.652 940.855 714.173 937.184 737.31C936.83 739.543 936.645 741.837 936.645 744.18V773.455C936.645 778.506 937.077 783.455 937.905 788.269ZM937.905 788.269L937.119 787.669C926.202 779.335 910.993 779.583 900.355 788.269V788.269M902 751H933.5M772.018 701.579C797.951 702.839 824.403 702.839 850.336 701.579C876.545 699.273 900.355 717.552 900.355 744.18V773.455C900.355 821.253 861.709 860 814.037 860H808.318C760.646 860 722 821.253 722 773.455V744.18C722 717.552 745.809 699.273 772.018 701.579Z" stroke="black" stroke-width="20" stroke-linecap="round"/>
</g>
<defs>
<clipPath id="clip0_877_2891">
<rect width="1500" height="1500" fill="white"/>
</clipPath>
</defs>
      <g clip-path="url(#clip0_602_1969)">
<path d="M718.5 336C430.5 374.4 355.833 571 354.5 664.5L414.5 657L585 641.5L677.5 700.5L746 715.5L795 706.5L864.5 683L951 641.5L1027 629C1040.67 630 1078.8 633.9 1122 641.5C1176 651 1185 710.5 1224.5 677C1256.1 650.2 1196 608.166 1162 590.5C1163 539 1078.5 288 718.5 336Z" fill="#53B6F9"/>
<path d="M790.5 334.999C576.9 453.399 513.5 594.666 508.5 650.499L355.5 670.5C343.167 665.833 342.4 622.399 438 485.999C533.6 349.599 712.834 328.499 790.5 334.999Z" fill="#001647" fill-opacity="0.2"/>
<path d="M918 513C740.4 509.8 610.667 597.833 577.5 639.5L635 613.5L746 568.5L911.5 542.5L1081.5 557L1179.5 596C1166.33 568 1095.6 516.2 918 513Z" fill="#001647" fill-opacity="0.2"/>
<path d="M1168 594.006C1137.5 399.5 919 330 797.5 330C484.905 330 371.892 543.53 353.776 661.318C352.717 668.2 359.115 673.614 365.869 671.92C411.449 660.485 504.576 640.341 587 645M587 645C621.5 612.167 730.5 548 894.5 542C1079.59 535.228 1192.54 594.489 1230.03 642.496C1236.7 651.039 1235.02 662.819 1228.03 671.106V671.106C1218.11 682.881 1200.55 684.175 1188.11 675.098C1145.41 643.936 1080.11 612.042 1002 628C892.783 650.313 790 754 669.5 701.5L587 645Z" stroke="black" stroke-width="22" stroke-linecap="round"/>
<path d="M838.366 475.509C836.856 475.608 835.778 474.066 836.407 472.689C842.353 459.667 848.888 446.749 856.012 433.934C856.614 432.851 858.048 432.576 859.007 433.361C881.566 451.831 902.186 472.231 920.592 494.29C920.936 494.702 921.431 494.96 921.966 495.005C931.259 495.79 940.52 496.828 949.751 498.121C951.495 498.366 952.694 496.41 951.663 494.984C923.868 456.525 887.824 420.285 844.101 388.575C843.148 387.884 841.805 388.166 841.213 389.184C821.137 423.685 804.937 459.991 792.869 497.531C792.411 498.957 793.633 500.356 795.11 500.11C829.825 494.333 865.122 492.163 900.342 493.638C902.115 493.712 903.114 491.621 901.921 490.307C890.382 477.6 878.064 465.513 865.028 454.107C864.069 453.268 862.581 453.536 861.974 454.657C858.546 460.984 855.264 467.342 852.127 473.732C851.803 474.392 851.145 474.822 850.41 474.854C846.399 475.027 842.384 475.246 838.366 475.509Z" fill="white"/>
</g>
<defs>
<clipPath id="clip0_602_1969">
<rect width="1500" height="1500" fill="white"/>
</clipPath>
</defs>
      
    </g>
    </svg>