<svg
      xmlns="http://www.w3.org/2000/svg"
      preserveAspectRatio="xMidYMin meet"
      fill="none"
      viewBox="0 0 1500 1500"
    >
      <g>
      <path fill="url(#prefix__a1)" d="M0 0h1500v1500H0z"/><defs><linearGradient id="prefix__a1" x1="1500" y1="1500" x2="0" y2="0" gradientUnits="userSpaceOnUse">
<stop stop-color="#1555D1"/>
<stop offset="1" stop-color="#70E5FF"/>
</linearGradient></defs>
      <g clip-path="url(#clip0_491_685)">
<path d="M773 1011.5C543.4 1029.9 398.667 1353.5 355 1513H1138.5C1075.7 1127 868.667 1017.83 773 1011.5Z" fill="#99C4CB"/>
<path d="M962.5 1126C854.1 1166.8 658.333 1130.67 574 1107.5C598 1077.17 671.6 1016.1 774 1014.5C876.4 1012.9 942.333 1088.17 962.5 1126Z" fill="white"/>
<path d="M409.87 1339.62C462.691 1207.98 569.086 1113.24 605.384 1082.33L674 1033.5L749.5 1019.5C701.059 1045.48 675.372 1081.51 640 1120.5L648.5 1131.5L832 1155C723.6 1169.8 633.231 1154.83 601.597 1145.5C497.4 1275.38 453.489 1441.33 443.159 1511H353.699C350.414 1508.73 357.049 1471.27 409.87 1339.62Z" fill="#001647" fill-opacity="0.2"/>
<path d="M353.5 1519.5C365.5 1454.33 414.5 1313.6 483.5 1219C530.101 1155.11 577.468 1101.29 629.141 1059.66C710.278 994.299 826.037 996.323 905.02 1064.27C1000.08 1146.05 1103.44 1290.29 1142.5 1519.5M1013.5 1319C1024.83 1354.33 1048.1 1443.9 1050.5 1519.5M667 1361.5C661.167 1392.33 650.3 1467.1 653.5 1519.5M650.709 1114.61L701.499 1022.5M715.831 1124.68L740.999 1017M779.554 1134.48L776.499 1017M847.516 1137.5L802.499 1017M906.146 1132.43L844.499 1028M583 1106C661.315 1137.44 846.556 1163.72 963 1128.29" stroke="black" stroke-width="22" stroke-linecap="round"/>
</g>
<defs>
<clipPath id="clip0_491_685">
<rect width="1500" height="1500" fill="white"/>
</clipPath>
</defs>
      <g clip-path="url(#clip0_497_1194)">
<path d="M379.667 654.812C432.345 471.574 618.472 401.981 699.114 390.653C740.985 382.718 849.655 375.215 949.364 408.675C980 418.956 1049.88 457.388 1091.92 499.818C1144.47 552.856 1272.97 732.052 1185.05 927.725C1097.12 1123.4 758.414 1092.29 612.749 1051.82C464.472 1010.63 314.48 881.563 379.667 654.812Z" fill="#AABBFF"/>
<path d="M449.293 747.204C454.734 531.068 585.306 432.345 649.911 410C432.292 459.565 365.296 655.455 364 747.204C377.99 984.871 584.496 1053.43 681 1058C601.498 1044.46 443.853 963.339 449.293 747.204Z" fill="#001647" fill-opacity="0.2"/>
<path d="M379.667 654.812C432.345 471.574 618.472 401.981 699.114 390.653C740.985 382.718 849.655 375.215 949.364 408.675C980 418.956 1049.88 457.388 1091.92 499.818C1144.47 552.856 1272.97 732.052 1185.05 927.725C1097.12 1123.4 758.414 1092.29 612.749 1051.82C464.472 1010.63 314.48 881.563 379.667 654.812Z" stroke="black" stroke-width="22" stroke-linecap="round"/>
</g>
<defs>
    <clipPath id="prefix__clip0_299_662"><path fill="#fff" d="M0 0h1500v1500H0z"/></clipPath>
</defs>
      <g clip-path="url(#clip0_624_3204)">
<path d="M876.086 925.246H970.499" stroke="black" stroke-width="22" stroke-linecap="round"/>
<path d="M865.708 768.06L844.448 768.047L821.695 768.027L792.828 768" stroke="black" stroke-width="22" stroke-linecap="round"/>
<path d="M850.019 773.927C852.061 777.245 853.087 781.09 852.968 784.985C852.85 788.88 851.593 792.655 849.352 795.844C847.112 799.032 843.986 801.494 840.361 802.925C836.737 804.357 832.772 804.695 828.958 803.897C825.143 803.1 821.646 801.202 818.898 798.439C816.15 795.676 814.273 792.168 813.497 788.349C812.721 784.53 813.081 780.567 814.533 776.951C815.985 773.334 818.464 770.223 821.665 768H844.419C846.675 769.567 848.582 771.585 850.019 773.927Z" fill="black" stroke="black" stroke-width="22" stroke-linecap="round"/>
<path d="M1033.71 768L1004.83 768.027L982.081 768.047L960.828 768.06" stroke="black" stroke-width="22" stroke-linecap="round"/>
<path d="M976.506 773.926C974.456 777.243 973.423 781.087 973.536 784.985C973.648 788.882 974.9 792.661 977.138 795.854C979.376 799.047 982.5 801.513 986.125 802.949C989.75 804.385 993.716 804.726 997.533 803.931C1001.35 803.136 1004.85 801.24 1007.6 798.476C1010.35 795.713 1012.23 792.203 1013.01 788.383C1013.78 784.562 1013.42 780.597 1011.97 776.979C1010.52 773.361 1008.04 770.248 1004.83 768.026H982.079C979.837 769.59 977.94 771.598 976.506 773.926Z" fill="black" stroke="black" stroke-width="22" stroke-linecap="round"/>
</g>
<defs>
<clipPath id="clip0_624_3204">
<rect width="1500" height="1500" fill="white"/>
</clipPath>
</defs>
      <g clip-path="url(#clip0_911_278)">
<path d="M741 865.42V871.56C741.01 872.669 740.781 873.767 740.33 874.78C739.07 877.64 736.99 877.78 736.99 877.78C735.893 878.033 734.754 878.046 733.651 877.818C732.548 877.59 731.507 877.127 730.6 876.46C727.96 874.35 721.36 856.25 721.36 856.25L708.65 876.46H700L717.8 848.25L712.21 836.66C711.84 835.888 711.265 835.233 710.547 834.767C709.828 834.301 708.996 834.043 708.14 834.02H708C707.225 833.94 706.442 834.054 705.721 834.351C705.001 834.647 704.365 835.118 703.87 835.72C702.98 836.61 702.66 839.5 702.66 839.5L700.88 839.63C700.634 837.881 700.59 836.109 700.75 834.35C700.862 833.001 701.324 831.705 702.09 830.59C702.61 829.783 703.325 829.12 704.169 828.664C705.014 828.208 705.96 827.972 706.92 827.98C708.535 827.979 710.11 828.479 711.43 829.41C712.762 830.35 713.801 831.646 714.43 833.15L719.69 846.2L731.13 828.8H739L723.2 853.31L727.14 862.63C727.14 862.63 730.14 871.63 734.45 871.63C738.76 871.63 739.16 865.41 739.16 865.41L741 865.42Z" fill="black"/>
</g>
<defs>
<clipPath id="clip0_911_278">
<rect width="1500" height="1500" fill="white"/>
</clipPath>
</defs>
      <g clip-path="url(#clip0_771_818)">
<path d="M466 531L495 567L539.5 577.5L674.5 602L807.5 605L942 602L1093.5 572C1101.17 570.333 1114.9 558.8 1108.5 526C1102.1 493.2 1077.17 484.333 1065.5 484C1067.17 480.5 1067.2 465.7 1054 434.5C1040.8 403.3 1002.5 403.833 985 408C980.333 397.333 966.3 372.5 947.5 358.5C928.7 344.5 890.667 350 874 354.5C872.333 343.833 860.5 320.9 826.5 314.5C792.5 308.1 760.667 326.167 749 336C742 332 721.7 324.5 696.5 326.5C671.3 328.5 646.333 351.333 637 362.5L630.5 366L610 362.5L576.5 376L552.5 400C542.667 403 522.5 409.7 520.5 412.5C518 416 515.5 422.5 514.5 425.5C513.5 428.5 498.5 466 495 468.5C492.2 470.5 478.167 484.667 471.5 491.5L466 531Z" fill="#F56CDB"/>
<path d="M504.5 567.988C489 560.847 465.1 553.6 467.5 518C468.714 499.991 477.231 487.919 486.769 481.102C495.04 475.19 504.467 461.916 504.414 451.749C504.279 425.542 518.145 395.338 557.5 399.5C599.645 403.957 602 449.334 589 469.5M589 530.5C599.5 535.834 624.361 540.612 631 513.5C638.239 483.935 590.17 454.806 559.5 481.5C532.5 505 527.5 567.806 587.5 588.806M698 463C695.009 479.152 694.457 507.929 707.553 525.841C718.294 540.533 740.808 541.523 754.795 529.878C763.905 522.292 772.497 509.913 776.5 490.5M687 599.765C698.667 597.932 718.3 578.135 728.5 540.135M948.5 542.5C975.5 534.5 1032.8 534.499 1044 582.899M807 552.5C804.895 538.516 809.617 513.038 835 512.683M858.5 605.929C852.5 577.929 887.5 521.5 844 513.5C840.746 512.902 837.751 512.645 835 512.683M955.5 471C919.5 466.5 872 492.501 865.717 534.5M561 397.5C566.333 379.5 587.8 349.901 631 367.501C633.67 368.589 636.167 369.738 638.5 370.941M665.5 434.5C671.598 419.802 673.912 389.202 638.5 370.941M665.5 390.501C680.333 380 716.8 367.1 744 399.5C752.185 409.25 756.243 418.519 757.61 427.001M741.5 469.5C749.423 462.16 760.784 446.706 757.61 427.001M1028 492.501C1035.06 489.273 1054.11 481.289 1066.5 481M1099.5 565.201C1109 556.201 1127 529 1108.5 503C1097.11 486.999 1081.63 480.647 1066.5 481M959 430.501C962.686 423.48 971.195 414.122 984.5 409.695M1066.5 481C1074.83 465.667 1064.9 430.501 1032 415.001C1012.3 405.721 996.463 405.714 984.5 409.695M870.981 362C883.147 353.167 911.46 341.192 942 353.001C979.5 367.501 982.667 396.63 984.5 409.695M757.61 427.001C772.063 424.737 803.372 425.179 822.823 442.501M835 512.683C840.5 500.956 846.9 471.701 828.5 448.501C826.759 446.305 824.856 444.311 822.823 442.501M892 421.001C882.382 432.167 855.081 452.1 822.823 442.501M752.699 342.001C742.699 333.001 715.8 317.701 683 328.501C650.2 339.301 639.667 361.294 638.5 370.941M854.5 386.001C869 373.001 888.7 341.901 851.5 321.501C805 296.001 751.941 330.044 744 360.001C740.333 372.436 732.8 400.044 754 405C776.5 410.26 794.667 389.565 799 379.5M1127 552.5C1094.33 570.667 988.398 611.716 799 605.5C540 597 474 568.5 451 525" stroke="black" stroke-width="22" stroke-linecap="round"/>
<path d="M594 501C609.6 504.6 606.5 519.833 603 527C606.667 528.833 614.5 532.7 616.5 533.5C618.5 534.3 624 524.5 626.5 519.5C626.667 509.167 624.4 486.5 614 478.5C603.6 470.5 573.333 478.833 559.5 484L578 470H609.5C610.3 420.4 648.5 404.667 667.5 403L677 381H725L741 374.5L747.5 337.5L716.5 323L650.5 342.5L636.5 367C630 365.667 616.4 362.8 614 362C611.6 361.2 589 366.334 578 369L565 398H544.5L512.5 428L495 475.5L467 504.5L476 548.5L544.5 581C547.167 580.667 552.4 573.7 552 548.5C551.5 517 574.5 496.5 594 501Z" fill="#001647" fill-opacity="0.2"/>
<path d="M776.5 395.5C759 373 787.5 337.5 817 320.5C812.5 318 795.8 315.5 795 315.5C794.2 315.5 770.667 327.167 759 333L747.5 367L745 395.5C747.667 398 753.3 403.5 754.5 405.5C755.7 407.5 773.333 398.833 776.5 395.5Z" fill="#001647" fill-opacity="0.2"/>
<path d="M896 358C896 376.726 883.737 392.8 874.592 400.557C871.41 403.256 866.882 402.853 863.588 400.291C859.077 396.782 858.158 390.33 861.51 385.701L866 379.5L878.5 363L896 358Z" fill="#001647" fill-opacity="0.2"/>
<path d="M1103 510C1094.36 499.284 1063.06 507.338 1042.35 514.349C1037.38 516.03 1031.92 513.652 1029.92 508.804C1027.99 504.116 1029.99 498.731 1034.51 496.437L1061 483L1084.5 487L1103 510Z" fill="#001647" fill-opacity="0.2"/>
<path d="M1030 576C1019.42 558.933 984.296 560.799 960.861 565.132C954.991 566.217 949.195 562.405 948.264 556.508C947.525 551.827 950.131 547.259 954.536 545.511L976 537L1015.5 548.5L1037.5 573L1030 576Z" fill="#001647" fill-opacity="0.2"/>
<path d="M752 542C755.6 560 738.833 587.833 731.5 599.5C723.333 598.833 706.4 597.4 704 597C701.6 596.6 710 584.833 714.5 579L729.5 548.5L752 542Z" fill="#001647" fill-opacity="0.2"/>
<path d="M735 529C719.357 518.571 719.323 487.372 720.457 466.909C720.715 462.261 717.232 458.24 712.587 457.92C708.955 457.669 705.583 459.783 704.389 463.221C702.192 469.547 699.706 477.617 700 478.5C700.4 479.7 701.833 501 702.5 511.5L723 531L735 529Z" fill="#001647" fill-opacity="0.2"/>
<path d="M863.5 513C878.7 432.2 825.5 404.5 781 404.5L771.5 409.5L762 422.5L811 428.5L840 458.5L843 508.5L863.5 513Z" fill="#001647" fill-opacity="0.2"/>
<path d="M890.708 549.628C889.654 565.029 884.579 588.352 882 601H860C859.833 599 859.9 593.2 861.5 586C863.5 577 863.5 570.5 866 561C868.5 551.5 868 542 869.5 533.5C870.7 526.7 873 521.333 874 519.5L884.5 499.5L915.5 484L948.018 479.69C952.775 479.06 957 482.762 957 487.561C957 491.945 953.427 495.452 949.071 495.952C925.095 498.708 907.201 513.544 897.011 526.405C891.974 532.764 891.262 541.534 890.708 549.628Z" fill="#001647" fill-opacity="0.2"/>
<path d="M1057 445.5C1027.49 420.8 1001.15 429.821 986.029 441.927C980.607 446.268 972.591 447.095 967.392 442.49C962.877 438.491 962.03 431.765 965.412 426.772L970 420L990.5 412H1015.5L1048 428.5L1057 445.5Z" fill="#001647" fill-opacity="0.2"/>
</g>
<defs>
<clipPath id="clip0_771_818">
<rect width="1500" height="1500" fill="white"/>
</clipPath>
</defs>
      
    </g>
    </svg>