<svg
      xmlns="http://www.w3.org/2000/svg"
      preserveAspectRatio="xMidYMin meet"
      fill="none"
      viewBox="0 0 1500 1500"
    >
      <g>
      <path fill="url(#prefix__paint0_linear_53_30461)" d="M0 0h1500v1500H0z"/><defs><linearGradient id="prefix__paint0_linear_53_30461" x1="0" y1="0" x2="1500" y2="1533.5" gradientUnits="userSpaceOnUse">
<stop stop-color="#EEB0FC"/>
<stop offset="1" stop-color="#AF55F5"/>
</linearGradient></defs>
      <g clip-path="url(#clip0_481_264)">
<path d="M773 1011.5C543.4 1029.9 398.667 1353.5 355 1513H1138.5C1075.7 1127 868.667 1017.83 773 1011.5Z" fill="#FF9C07"/>
<path d="M749.5 1019.5C536 1134 457.448 1414.63 443.159 1511H353.699C350.414 1508.73 357.049 1471.27 409.87 1339.62C462.691 1207.98 569.086 1113.24 605.384 1082.33L674 1033.5L749.5 1019.5Z" fill="#001647" fill-opacity="0.2"/>
<path d="M790.5 1299.5L764 1344L861.5 1424L937.5 1336.5L905.5 1299.5H790.5Z" fill="#53B6F9"/>
<path d="M353.5 1519.5C365.5 1454.33 414.5 1313.6 483.5 1219C530.101 1155.11 577.468 1101.29 629.141 1059.66C710.278 994.299 826.037 996.323 905.02 1064.27C1000.08 1146.05 1103.44 1290.29 1142.5 1519.5M1013.5 1319C1024.83 1354.33 1048.1 1443.9 1050.5 1519.5M667 1361.5C661.167 1392.33 650.3 1467.1 653.5 1519.5" stroke="black" stroke-width="22" stroke-linecap="round"/>
<path d="M945.201 1335.84L910.271 1292.89C909.521 1291.97 908.551 1291.23 907.481 1290.73C906.401 1290.23 905.231 1289.97 904.001 1290L787.021 1293.3C785.841 1293.31 784.671 1293.63 783.641 1294.22C782.621 1294.81 781.751 1295.65 781.121 1296.67L756.011 1338.36C754.181 1341.41 754.891 1345.42 757.691 1347.9L854.321 1433.01C855.771 1434.28 857.641 1434.99 859.511 1434.99C859.671 1434.99 859.831 1434.99 859.991 1434.98C861.901 1434.85 863.631 1434.01 864.871 1432.61L943.751 1342.56C945.381 1340.7 945.861 1338.17 945.201 1335.84ZM922.661 1330.48L893.161 1331.31L905.831 1310.29L922.661 1330.48ZM920.841 1345.46L873.301 1399.71L885.581 1346.45L920.841 1345.46ZM861.431 1306.13L890.941 1305.3L878.271 1326.33L861.431 1306.13ZM869.941 1346.9L856.771 1403.98L832.151 1347.96L869.941 1346.9ZM834.641 1332.95L847.321 1311.93L864.151 1332.12L834.641 1332.95ZM816.321 1348.4L839.101 1400.24L781.361 1349.39L816.321 1348.4ZM802.931 1307.8L832.441 1306.96L819.771 1327.99L802.931 1307.8ZM805.661 1333.77L776.151 1334.6L788.821 1313.56L805.661 1333.77Z" fill="black"/>
</g>
<defs>
<clipPath id="clip0_481_264">
<rect width="1500" height="1500" fill="white"/>
</clipPath>
</defs>
      <g clip-path="url(#clip0_497_1194)">
<path d="M379.667 654.812C432.345 471.574 618.472 401.981 699.114 390.653C740.985 382.718 849.655 375.215 949.364 408.675C980 418.956 1049.88 457.388 1091.92 499.818C1144.47 552.856 1272.97 732.052 1185.05 927.725C1097.12 1123.4 758.414 1092.29 612.749 1051.82C464.472 1010.63 314.48 881.563 379.667 654.812Z" fill="#AABBFF"/>
<path d="M449.293 747.204C454.734 531.068 585.306 432.345 649.911 410C432.292 459.565 365.296 655.455 364 747.204C377.99 984.871 584.496 1053.43 681 1058C601.498 1044.46 443.853 963.339 449.293 747.204Z" fill="#001647" fill-opacity="0.2"/>
<path d="M379.667 654.812C432.345 471.574 618.472 401.981 699.114 390.653C740.985 382.718 849.655 375.215 949.364 408.675C980 418.956 1049.88 457.388 1091.92 499.818C1144.47 552.856 1272.97 732.052 1185.05 927.725C1097.12 1123.4 758.414 1092.29 612.749 1051.82C464.472 1010.63 314.48 881.563 379.667 654.812Z" stroke="black" stroke-width="22" stroke-linecap="round"/>
</g>
<defs>
    <clipPath id="prefix__clip0_299_662"><path fill="#fff" d="M0 0h1500v1500H0z"/></clipPath>
</defs>
      <g clip-path="url(#clip0_624_3293)">
<path d="M916.488 918.577L931.325 908.854C933.985 907.112 936.223 904.799 937.876 902.083C939.529 899.367 940.556 896.317 940.882 893.154C941.208 889.991 940.825 886.795 939.761 883.799C938.697 880.803 936.978 878.082 934.73 875.834V875.834C932.657 873.764 930.181 872.142 927.456 871.068C924.731 869.994 921.814 869.491 918.886 869.59C915.959 869.689 913.083 870.388 910.436 871.643C907.79 872.899 905.429 874.684 903.501 876.889L890.301 891.98" stroke="black" stroke-width="22" stroke-miterlimit="10" stroke-linecap="round"/>
<path d="M916.488 918.675L931.325 928.397C933.986 930.137 936.225 932.449 937.879 935.164C939.533 937.88 940.561 940.93 940.887 944.092C941.213 947.255 940.83 950.451 939.764 953.446C938.699 956.442 936.979 959.162 934.73 961.409V961.409C932.66 963.484 930.185 965.11 927.46 966.188C924.734 967.265 921.817 967.77 918.888 967.672C915.959 967.574 913.081 966.874 910.434 965.617C907.787 964.359 905.427 962.57 903.501 960.362L890.301 945.271" stroke="black" stroke-width="22" stroke-miterlimit="10" stroke-linecap="round"/>
<path d="M1012 817C1038.51 817 1060 795.51 1060 769C1060 742.49 1038.51 721 1012 721C985.49 721 964 742.49 964 769C964 795.51 985.49 817 1012 817Z" fill="black" stroke="black" stroke-width="22" stroke-miterlimit="10"/>
<path d="M1025.18 765.61C1035.8 765.61 1044.4 757.009 1044.4 746.398C1044.4 735.788 1035.8 727.186 1025.18 727.186C1014.57 727.186 1005.97 735.788 1005.97 746.398C1005.97 757.009 1014.57 765.61 1025.18 765.61Z" fill="white"/>
<path d="M994.295 774.185C998.822 774.185 1002.49 770.515 1002.49 765.988C1002.49 761.461 998.822 757.791 994.295 757.791C989.768 757.791 986.098 761.461 986.098 765.988C986.098 770.515 989.768 774.185 994.295 774.185Z" fill="white"/>
<path d="M1018.1 800.697C1026.05 800.697 1032.49 794.254 1032.49 786.307C1032.49 778.359 1026.05 771.917 1018.1 771.917C1010.16 771.917 1003.71 778.359 1003.71 786.307C1003.71 794.254 1010.16 800.697 1018.1 800.697Z" fill="white"/>
<path d="M822 817C848.51 817 870 795.51 870 769C870 742.49 848.51 721 822 721C795.49 721 774 742.49 774 769C774 795.51 795.49 817 822 817Z" fill="black" stroke="black" stroke-width="22" stroke-miterlimit="10"/>
<path d="M835.185 765.61C845.795 765.61 854.397 757.009 854.397 746.398C854.397 735.788 845.795 727.186 835.185 727.186C824.574 727.186 815.973 735.788 815.973 746.398C815.973 757.009 824.574 765.61 835.185 765.61Z" fill="white"/>
<path d="M804.295 774.185C808.822 774.185 812.492 770.515 812.492 765.988C812.492 761.461 808.822 757.791 804.295 757.791C799.768 757.791 796.098 761.461 796.098 765.988C796.098 770.515 799.768 774.185 804.295 774.185Z" fill="white"/>
<path d="M828.103 800.697C836.051 800.697 842.493 794.254 842.493 786.307C842.493 778.359 836.051 771.917 828.103 771.917C820.156 771.917 813.713 778.359 813.713 786.307C813.713 794.254 820.156 800.697 828.103 800.697Z" fill="white"/>
</g>
<defs>
<clipPath id="clip0_624_3293">
<rect width="1500" height="1500" fill="white"/>
</clipPath>
</defs>
      <g clip-path="url(#clip0_924_929)">
<path d="M821.441 843.267C839.551 843.268 857.015 836.533 870.435 824.371C883.855 812.21 892.271 795.491 894.047 777.468C895.823 759.444 890.832 741.405 880.044 726.858C869.256 712.311 853.443 702.296 835.681 698.762C817.918 695.228 799.476 698.428 783.942 707.738C768.407 717.049 756.892 731.804 751.634 749.135C746.376 766.466 747.753 785.132 755.496 801.504C763.239 817.876 776.795 830.783 793.527 837.713C802.377 841.379 811.862 843.266 821.441 843.267Z" fill="#3A3A3A"/>
<path d="M582.5 804.5C582.5 810.023 586.977 814.5 592.5 814.5C598.023 814.5 602.5 810.023 602.5 804.5H582.5ZM747.334 760L622.5 760L622.5 780L747.334 780L747.334 760ZM582.5 800V804.5H602.5V800H582.5ZM622.5 760C600.409 760 582.5 777.908 582.5 800H602.5C602.5 788.954 611.454 780 622.5 780L622.5 760Z" fill="black"/>
<path d="M898 770H936" stroke="black" stroke-width="20" stroke-miterlimit="10"/>
<path d="M1014 705.605C988.007 687.573 950.464 699.18 937.571 727.664C923.496 758.76 940.008 802.21 1005.58 846.404C1010.62 849.799 1017.38 849.799 1022.42 846.403C1087.99 802.206 1104.5 758.755 1090.43 727.66C1077.54 699.176 1039.99 687.573 1014 705.605Z" fill="#FF6247" stroke="black" stroke-width="20"/>
<path d="M820 705.605C794.007 687.573 756.464 699.18 743.571 727.664C729.496 758.76 746.008 802.21 811.579 846.404C816.618 849.799 823.383 849.799 828.421 846.403C893.992 802.206 910.504 758.755 896.429 727.66C883.536 699.176 845.992 687.573 820 705.605Z" fill="#FF6247" stroke="black" stroke-width="20"/>
<path d="M944.92 717.728L976.004 699.329L1056.27 818.334L1024.16 841.5L944.92 717.728Z" fill="white"/>
<rect x="990.037" y="699.073" width="12.6482" height="128.993" transform="rotate(-34 990.037 699.073)" fill="white"/>
<path d="M752.92 717.728L784.004 699.329L864.274 818.334L832.157 841.5L752.92 717.728Z" fill="white"/>
<rect x="798.037" y="699.073" width="12.6482" height="128.993" transform="rotate(-34 798.037 699.073)" fill="white"/>
<path d="M1014 705.605C988.007 687.573 950.464 699.18 937.571 727.664C923.496 758.76 940.008 802.21 1005.58 846.404C1010.62 849.799 1017.38 849.799 1022.42 846.403C1087.99 802.206 1104.5 758.755 1090.43 727.66C1077.54 699.176 1039.99 687.573 1014 705.605Z" stroke="black" stroke-width="20"/>
<path d="M820 705.605C794.007 687.573 756.464 699.18 743.571 727.664C729.496 758.76 746.008 802.21 811.579 846.404C816.618 849.799 823.383 849.799 828.421 846.403C893.992 802.206 910.504 758.755 896.429 727.66C883.536 699.176 845.992 687.573 820 705.605Z" stroke="black" stroke-width="20"/>
</g>
<defs>
<clipPath id="clip0_924_929">
<rect width="1500" height="1500" fill="white"/>
</clipPath>
</defs>
      <style type="text/css">
	.st0{fill:#AABBFF;}
	.st1{fill:none;stroke:#000000;stroke-width:22;stroke-linecap:round;}
	.st2{fill:#A760FF;}
	.st3{fill:#001647;fill-opacity:0.2;}
	.st4{fill:none;stroke:#000000;stroke-width:22;}
</style>
<path class="st0" d="M711.9,381.5L669.1,415l85.8,42c31.2-0.5,101.1-2.4,131.5-5.8c30.4-3.5,60.3-20.5,71.4-28.6l-45-35.2
	l-22.1-27.1l-38.7-7.3l-35.4,36l-5.6-18.9l-31.9-12.7l-31.1,5.3L711.9,381.5z"/>
<path class="st1" d="M754.8,451.1c3.6-10.8,11.8-27.5,25.3-39.6 M882.2,449.1c-4.1-9.4-11.2-23.4-22.8-34.6 M670.7,416
	c7.5-12.6,25.3-37.9,51.7-38.4c2.4,0,4.7,0,6.9,0.2 M780.1,411.6c9.4-8.4,21.2-14.5,35.7-14.8c2.4,0,4.7,0.1,6.9,0.3 M780.1,411.6
	c-8.2-10.7-21.7-31.3-50.8-33.7 M953.1,422.6c-6.3-11.9-23.5-34.8-45-37.5 M859.4,414.5c4.8-9.7,20.2-29.3,43.9-29.7
	c1.6,0,3.2,0.1,4.8,0.3 M859.4,414.5c-9.2-8.9-21.2-16-36.8-17.5 M729.3,377.9c4.8-9.2,18.3-27.6,39.2-27.9
	c26.9-0.4,49,25.8,54.1,47.1 M908.1,385.1c-4.8-10.8-18.7-33.3-36.5-33.1c-22.2,0.4-39.3,18.7-49,41"/>
<path class="st2" d="M370.4,649.9c-3.5,11-6.3,22.8-8.2,31c-0.2,0.9-0.7,1.7-1.3,2.3c-0.7,0.6-1.5,1-2.4,1.1
	c-0.9,0.1-1.8-0.1-2.6-0.5c-0.8-0.4-1.4-1.1-1.8-1.9c-1.2-2.4-2.2-5-3-7.6c-3-9.8,2.8-22.3,0.4-27.3c-2.4-5.1-0.8-14.6,1.1-22.2
	c1.5-6,2.6-12.2,3.3-18.3c0.2-2-0.5-14.4,0.9-18c1.1-3,6.9-15.4,8.9-19.6c0.4-0.9,1.1-1.6,1.9-2l30.1-19.9c0.2-0.1,3.5-12,3.7-12.1
	l84.5-18.8c0.1-0.1,0.3-0.1,0.4-0.1l97.6-23.3c0.2,0,0.4-0.1,0.5-0.1l95.5-10.7l127.1-17.4c0.2,0,0.3,0,0.5,0l163.3-2.5l0.5,0l0.1,0
	c4.3,0.4,54.5,4.6,67.9,4.9c14,0.3,47,2.7,62.9,4.9c15.8,2.3,23.6,7.6,29.2,11.7c5.6,4,25.9,9.2,32.6,16.8
	c6.7,7.6,23.8,40.3,22.8,41.1c-4.3,3.3,19.8,35.2,22.2,41.4c0.2,0.6,0.3,1.2,0.3,1.8l4,29.9c0,1.1-0.5,2-1.2,2.8l-14.4,15.2
	c-0.5,0.5-1.1,0.9-1.8,1.2c-0.7,0.2-1.4,0.3-2.2,0.1c-0.7-0.1-1.4-0.4-2-0.9c-0.6-0.5-1-1.1-1.3-1.7l-21.6-41.1
	c-2.4-4.6-7-7.6-12.2-8l-18.7-1.4l-114.8,2.4L812,589.5l-0.4,0l-281,34.1l-0.2,0l-116.9,20.5c-0.8,0.1-1.6,0.1-2.3-0.2l-14.1-5.4
	c-0.7-0.3-1.6-0.4-2.3-0.2l-5.8,0.2l-7.4,1.4C376.3,640.9,372,644.7,370.4,649.9z"/>
<path class="st3" d="M604.4,493.6c-29.7,32-45.2,96.8-49.3,125.1c-51.4,7.1-156.6,21.9-166.4,23.8c-9.8,2-21.7,25.5-26.4,37
	l-12.6-31.8l6.8-50.1c3-6.9,3.2-26.6,27.7-50c24.5-23.4,95.5-37,127.9-40.8L604.4,493.6z"/>
<path class="st4" d="M1185.7,645.2l15.8-13.9c16.2-14.2,11.4-37.7,2.7-57.4c-12-27.6-33.9-59.1-49-74.2
	c-15.1-15.1-34.6-25.9-55.9-28c-311.8-30.6-547.8,17.7-670.9,54.3c-52.9,15.8-98.2,85.6-60.4,178.9"/>
<path class="st4" d="M385,650.5c0,0,313-63.3,499.3-62.7c0,0,164.2-4.1,272.7,5.2"/>
<g>
	<path d="M753.8,534.4c-0.7-0.5-1.5-0.9-2.4-1c-0.9-0.2-1.7-0.2-2.6,0c-2,0.4-4.1,0.7-6.1,0.8c-1.7,0.1-3.5,0.2-5.3,0.2
		c-0.7,0-1.5,0-2.3,0.1c-0.7,0-1.5,0.1-2.3,0.1l-0.1,0l-0.1,0c-0.9,0.1-1.7,0.3-2.4,0.7c-0.8,0.4-1.4,0.9-1.9,1.6
		c-0.5,0.6-1,1.4-1.2,2.2c-0.2,0.8-0.3,1.6-0.2,2.4c0.1,0.9,0.3,1.7,0.7,2.5c0.4,0.8,1,1.5,1.6,2c0.7,0.6,1.4,1,2.3,1.3
		c0.8,0.3,1.7,0.3,2.5,0.3c0.3,0,0.6,0,0.8,0c-0.3,0.6-0.7,1.1-1.2,1.5l-0.1,0.1c-1.3,1.5-3.1,2.5-5.1,2.7c-0.6,0-1.3-0.1-1.9-0.4
		c-0.6-0.3-1.1-0.7-1.5-1.3c-1-1.2-1.7-2.6-2.3-4.1c-1-2.7-1.6-5.6-1.9-8.5c-0.6-5.6-0.4-9.9,0.7-12.9l0-0.1c0.2-0.7,0.5-1.4,1-2
		c0.4-0.6,1-1,1.6-1.4c0.5-0.2,1.1-0.4,1.7-0.4c0.6,0,1.3,0,1.9,0.1c0.6,0.1,1.1,0.2,1.7,0.4c0.3,0.1,0.6,0.2,0.8,0.3
		c0.6,0.9,1.5,1.7,2.4,2.3c1.2,0.7,2.5,1,3.9,0.9c0.9-0.1,1.7-0.3,2.4-0.7c0.8-0.4,1.4-0.9,1.9-1.6c0.5-0.7,0.9-1.4,1.2-2.3
		c0.2-0.8,0.3-1.7,0.1-2.6c-0.2-0.9-0.5-1.8-0.9-2.6c-0.6-1.2-1.5-2.3-2.6-3c-1.2-1-2.6-1.8-4-2.4c-1.6-0.8-3.3-1.3-5.1-1.6
		c-1.7-0.3-3.5-0.4-5.2-0.2c-1.3,0-2.6,0.3-3.9,0.7c-1.2,0.4-2.4,0.9-3.5,1.5c-1.3,0.7-2.4,1.6-3.4,2.6c-1.1,1-2,2.2-2.8,3.5
		c-1.7,3-2.7,6.2-3.1,9.6c-0.5,4.3-0.5,8.6,0.1,12.9c1,8.5,3.4,15.1,7.2,19.7c1.8,2.2,4.1,4,6.7,5.2c2.2,1,4.6,1.5,7,1.5
		c0.3,0,0.7,0,1,0l0.4,0l0.1,0c2.5-0.2,4.9-0.9,7.2-2.1c4.5-2.3,8-6.1,10.1-10.8c0.8-1.7,1.2-3.6,1.4-5.5c0.3,0,0.5-0.1,0.8-0.1
		c0.7-0.1,1.4-0.3,2.1-0.4c0.9-0.1,1.7-0.5,2.4-1c0.7-0.5,1.3-1.1,1.8-1.8c0.5-0.7,0.8-1.5,0.9-2.4c0.1-0.9,0.1-1.7-0.1-2.6
		C756.2,536.7,755.2,535.3,753.8,534.4z"/>
	<path d="M812.2,544.3c-0.3-2-0.6-4.2-0.9-6.7c-0.2-1.1-0.3-2.2-0.5-3.3c-0.2-1.4-0.4-2.9-0.7-4.4c-0.4-2.5-0.8-4.9-1.2-7l-0.3-1.5
		c-0.4-2.5-0.9-4.8-1.4-6.8c-0.4-1.8-0.8-3.2-1.2-4.4c-0.3-1.1-0.8-2.3-1.2-3.3c-0.4-0.9-0.9-1.7-1.5-2.5c-0.5-0.7-1.2-1.3-1.9-1.7
		c-0.8-0.6-1.8-1-2.8-1.2c-1-0.2-2.1-0.1-3.1,0.1c-1,0.3-1.9,0.7-2.7,1.4c-0.8,0.7-1.4,1.5-1.9,2.4c-0.4,0.8-0.7,1.6-0.9,2.4
		c-0.3,0.8-0.6,1.7-0.8,2.6c-0.2,0.9-0.5,2-0.8,3.3c-0.5,1.9-1,4.3-1.5,6.9c-0.4,2.4-0.9,5-1.4,7.8c-2.5-5.9-4.7-10.7-6.6-14.2
		c-1-2-2.2-3.9-3.6-5.7c-0.4-0.5-0.8-0.9-1.2-1.4c-0.4-0.4-0.8-0.8-1.3-1.1c-0.9-0.8-2-1.4-3.3-1.7c-0.8-0.2-1.7-0.3-2.5-0.2l-0.1,0
		c-1,0.1-1.9,0.4-2.8,0.9c-0.9,0.5-1.6,1.1-2.2,1.9c-0.4,0.6-0.8,1.2-1.1,1.9c-0.4,0.8-0.6,1.7-0.8,2.5c-0.2,1.1-0.3,2.3-0.4,3.5
		c-0.1,1.4-0.1,3,0,4.8c0.1,2,0.2,4.3,0.4,6.8c0.2,2.6,0.5,5.4,0.8,8.5c0.3,2.6,0.6,5.1,0.9,7.6c0.3,2.5,0.6,4.6,0.9,6.5
		c0.3,1.9,0.6,4,1,6.3c0.1,0.9,0.4,1.7,0.8,2.5c0.4,0.8,1,1.4,1.7,1.9c1.2,1,2.7,1.5,4.2,1.5c0.2,0,0.4,0,0.5,0l0.3,0l0.2-0.1
		c0.7-0.1,1.4-0.4,2.1-0.7c0.8-0.4,1.4-1,1.9-1.7c0.5-0.7,0.9-1.5,1.1-2.3c0.2-0.9,0.2-1.7,0.1-2.5c-0.3-2.1-0.6-4-0.8-5.7l-0.8-5.9
		c-0.3-2.2-0.6-4.5-0.9-6.9l0-0.3c0.2,0.4,0.4,0.9,0.6,1.4l3.6,9.2c0.5,1.3,1,2.6,1.5,3.7c0.7,1.7,1.4,3.7,2.1,5.8
		c0.5,1.4,1.4,2.6,2.7,3.4c1.2,0.8,2.7,1.2,4.1,1.2l0.1,0l0.1,0c1.4-0.1,2.8-0.7,3.9-1.6c1-1,1.7-2.3,1.9-3.7l0-0.2l0,0
		c0-0.2,0.1-0.7,0.2-1.5c0.2-1.1,0.4-2.6,0.7-4.4c0.3-1.8,0.6-4,1-6.4c0.3-1.9,0.6-4,1-6c0.2,1.5,0.4,3,0.6,4.5
		c0.3,2.3,0.5,4.3,0.8,6c0.3,1.7,0.5,3.7,0.7,5.8c0.2,1.8,1.1,3.3,2.4,4.4c0.7,0.6,1.4,1,2.3,1.3c0.8,0.3,1.6,0.3,2.5,0.3l0.1,0
		l0.1,0c0.9,0,1.7-0.3,2.5-0.7c0.8-0.4,1.4-0.9,2-1.6c0.6-0.7,1-1.4,1.2-2.3c0.2-0.8,0.3-1.7,0.2-2.5
		C812.7,548.5,812.5,546.3,812.2,544.3z"/>
	<path d="M848.4,552.2c-0.5-0.7-1.2-1.3-2-1.7c-0.8-0.4-1.6-0.7-2.5-0.8c-1.9-0.3-3.7-1.1-5.1-2.4c-1.6-1.4-2.9-3-4-4.8
		c-1.1-1.9-2.1-3.8-2.8-5.9c-0.6-1.8-1.1-3.7-1.5-5.5c-0.4-2.3-0.6-4.7-0.4-7c0.1-2.2,0.5-4.5,1.2-6.6c0.6-2,1.5-3.9,2.6-5.7
		c1-1.7,2.3-3.2,3.8-4.4c0.7-0.5,1.3-1.2,1.7-2c0.4-0.8,0.6-1.6,0.7-2.5c0.1-1.8-0.5-3.5-1.6-4.8c-0.5-0.7-1.2-1.3-2-1.7
		c-0.8-0.4-1.6-0.7-2.4-0.8c-0.9-0.1-1.7-0.1-2.6,0.2c-0.8,0.2-1.6,0.6-2.3,1.2c-2.5,2.1-4.7,4.5-6.5,7.3c-1.8,2.9-3.2,6-4.2,9.2
		c-1.8,6.2-2.1,12.9-0.9,19.3c0.2,1,0.5,2.2,0.7,3.4c0.4,1.5,0.8,3,1.3,4.4c0.6,1.6,1.2,3.2,2,4.9c0.8,1.8,1.8,3.5,3,5.1
		c4.8,6.9,10.8,10.9,17.9,12c0.2,0,0.5,0.1,0.7,0.1c0.1,0,0.2,0,0.3,0l0.5,0c1.5-0.1,2.9-0.7,4-1.7c1.1-1,1.8-2.4,1.9-3.9
		c0.1-0.9,0-1.7-0.3-2.6C849.3,553.6,848.9,552.8,848.4,552.2z"/>
	<path d="M887.5,542.2c-2.2-2.9-4.3-5.8-6.2-8.5c-1.8-2.4-3.5-4.9-5.1-7.3c1.4-3.2,2.8-6.6,4-10c1.4-3.8,2.6-7.9,3.8-12.2
		c0.2-0.8,0.3-1.7,0.2-2.6c-0.1-0.9-0.4-1.7-0.9-2.4c-0.9-1.5-2.3-2.6-3.9-3.1c-0.8-0.3-1.7-0.4-2.5-0.3c-0.9,0.1-1.7,0.3-2.5,0.7
		c-0.8,0.4-1.4,1-2,1.7c-0.5,0.7-0.9,1.5-1.1,2.3c-0.8,3-1.6,5.6-2.3,7.9c-0.5,1.5-1,3-1.6,4.4c-1-1.6-1.9-3.2-2.8-4.7
		c-1.4-2.4-2.8-4.8-4.1-7.2c-0.4-0.8-1-1.5-1.6-2.1c-0.7-0.6-1.5-1-2.3-1.3c-0.8-0.3-1.7-0.4-2.6-0.3c-0.9,0.1-1.7,0.3-2.4,0.7
		c-0.8,0.4-1.5,0.9-2.1,1.6c-0.6,0.7-1,1.5-1.2,2.3c-0.2,0.8-0.3,1.7-0.2,2.6c0.1,0.9,0.4,1.7,0.8,2.4c3.6,6.8,7.8,13.7,12.2,20.5
		c-1.4,2.8-2.8,5.5-4.3,8c-1.6,2.8-3.2,5.7-4.8,8.6l-0.5,0.9c-0.4,0.8-0.7,1.6-0.8,2.4c-0.1,0.9,0,1.7,0.2,2.5
		c0.2,0.9,0.6,1.6,1.2,2.3c0.5,0.7,1.2,1.3,1.9,1.7c1.1,0.6,2.3,1,3.6,1c0.2,0,0.3,0,0.5,0c1-0.1,2.1-0.4,2.9-1
		c0.9-0.6,1.6-1.4,2.1-2.3l0.4-0.8c1.1-1.9,2.2-3.9,3.3-5.8l0.4-0.7c0.8-1.4,1.6-2.9,2.5-4.4c0.4,0.5,0.7,1,1.1,1.5
		c0.6,0.8,1.1,1.6,1.7,2.4c1,1.5,2.1,2.9,3.2,4.4l1.4,1.9c0.7,1,1.7,1.7,2.8,2.2c1,0.5,2.2,0.7,3.3,0.6c1.2-0.1,2.3-0.5,3.2-1.2
		c0.7-0.5,1.3-1.1,1.7-1.9c0.4-0.7,0.7-1.6,0.8-2.4c0.1-0.9,0.1-1.8-0.1-2.6C888.4,543.7,888,542.9,887.5,542.2z"/>
	<path d="M919.2,528.1c0-1.2-0.1-2.3-0.2-3.5c-0.3-3.3-0.9-6.5-2-9.6c-1-3.1-2.4-6.2-4.1-9c-1.8-3-4-5.8-6.5-8.3
		c-2.4-2.4-5.2-4.4-8.2-6c-0.8-0.4-1.6-0.7-2.5-0.8c-0.9-0.1-1.8,0-2.6,0.2c-0.8,0.2-1.6,0.6-2.3,1.2c-0.7,0.5-1.2,1.2-1.5,2
		c-0.4,0.8-0.6,1.6-0.7,2.5c-0.1,0.9,0.1,1.7,0.3,2.5c0.3,0.9,0.7,1.6,1.3,2.3c0.6,0.7,1.3,1.2,2.1,1.5c1.8,1,3.5,2.3,5,3.8
		c1.6,1.6,3,3.3,4.1,5.2c1.2,2,2.2,4.1,2.9,6.3c0.7,2.2,1.2,4.6,1.4,6.9c0.1,1.9,0.1,3.8,0,5.7c-0.1,2.1-0.5,4.2-1.1,6.2
		c-0.6,1.9-1.5,3.7-2.6,5.3c-1.1,1.4-2.6,2.5-4.3,3c-0.8,0.3-1.6,0.7-2.2,1.2c-0.7,0.6-1.2,1.3-1.5,2c-0.4,0.8-0.6,1.6-0.7,2.5
		c0,0.9,0.1,1.7,0.4,2.5c0.5,1.5,1.5,2.7,2.8,3.5c1.1,0.7,2.4,1,3.7,1c0.2,0,0.3,0,0.5,0l0.6,0l0.1,0c0.3,0,0.6-0.1,0.9-0.2
		c6.7-2.2,11.6-7.1,14.5-14.7c0.7-1.8,1.2-3.6,1.5-5.5c0.3-1.8,0.6-3.5,0.7-5.1C919.2,531.1,919.2,529.6,919.2,528.1z"/>
</g>
      
    </g>
    </svg>