<svg
      xmlns="http://www.w3.org/2000/svg"
      preserveAspectRatio="xMidYMin meet"
      fill="none"
      viewBox="0 0 1500 1500"
    >
      <g>
      <path fill="url(#prefix__paint0_linear_53_30463)" d="M0 0h1500v1500H0z"/><defs><linearGradient id="prefix__paint0_linear_53_30463" x1="1500" y1="1500" x2="0" y2="0" gradientUnits="userSpaceOnUse">
<stop stop-color="#FF5A5A"/>
<stop offset="1" stop-color="#FFBDBD"/>
</linearGradient></defs>
      <g clip-path="url(#clip0_495_785)">
<path d="M773 1011.5C543.4 1029.9 398.667 1353.5 355 1513H1138.5C1075.7 1127 868.667 1017.83 773 1011.5Z" fill="#99C4CB"/>
<path d="M741.5 1213C709.1 1241.4 650.333 1194.17 625 1167V1132.5L645 1105L708 1115.5C732.667 1136.17 773.9 1184.6 741.5 1213Z" fill="#AABBFF"/>
<path d="M768 1276.5C727.6 1271.7 715.833 1297.17 715 1310.5L735 1330.5L788.5 1320C798.5 1307.5 808.4 1281.3 768 1276.5Z" fill="#AABBFF"/>
<path d="M951.5 1230C920.3 1206.4 962.833 1169.17 988 1153.5L1033.5 1224.5C1019.17 1236.17 982.7 1253.6 951.5 1230Z" fill="#AABBFF"/>
<path d="M896 1383C837.2 1378.2 830.833 1440 835 1471.5L853 1506L935 1514L948.5 1492C955.5 1457.67 954.8 1387.8 896 1383Z" fill="#AABBFF"/>
<path d="M499.5 1441.5C527.1 1434.3 552 1481.5 561 1506H484.5C478 1487.5 471.9 1448.7 499.5 1441.5Z" fill="#AABBFF"/>
<path d="M749.5 1019.5C536 1134 457.448 1414.63 443.159 1511H353.699C350.414 1508.73 357.049 1471.27 409.87 1339.62C462.691 1207.98 569.086 1113.24 605.384 1082.33L674 1033.5L749.5 1019.5Z" fill="#001647" fill-opacity="0.2"/>
<path d="M922 1520C946 1484.4 906 1407 874 1393.5L911.5 1389.5L946 1428L951.5 1480.5C945.167 1492.67 930.4 1517.6 922 1520Z" fill="#001647" fill-opacity="0.2"/>
<path d="M756.253 1287.62L756 1287.5L794.5 1289.5L797.5 1314L760.5 1321.5C792.277 1304.12 768.339 1293.15 756.253 1287.62Z" fill="#001647" fill-opacity="0.2"/>
<path d="M702 1125.5C738 1171 718.5 1206.5 694.5 1214H740.5L749.5 1175.5L702 1125.5Z" fill="#001647" fill-opacity="0.2"/>
<path d="M1007 1190C1020.6 1214.8 989 1229 967 1233L982.5 1251L1030 1235C1032.67 1230.67 1037.6 1221.5 1036 1219.5C1034.4 1217.5 1013.67 1197.67 1007 1190Z" fill="#001647" fill-opacity="0.2"/>
<path d="M539 1507C526.6 1474.2 511.5 1453.5 496 1451.5L511.5 1440L546 1468L558.5 1503.5L539 1507Z" fill="#001647" fill-opacity="0.2"/>
<path d="M353.5 1519.5C365.5 1454.33 414.5 1313.6 483.5 1219C530.101 1155.11 577.468 1101.29 629.141 1059.66C710.278 994.299 826.037 996.323 905.02 1064.27C1000.08 1146.05 1103.44 1290.29 1142.5 1519.5M1013.5 1319C1024.83 1354.33 1048.1 1443.9 1050.5 1519.5M667 1361.5C661.167 1392.33 650.3 1467.1 653.5 1519.5M483.499 1507C478.166 1485.5 474.899 1441.7 504.499 1438.5C534.099 1435.3 555.166 1482.83 562 1507M981.5 1149L981.007 1149.41C962.792 1164.59 924.217 1196.72 948 1232C965.191 1257.5 1016 1242.17 1035 1225M856.5 1507C835.833 1479.83 821 1406.97 869 1386C922.5 1362.62 987.5 1471 929.5 1519M621.925 1133.67C614.574 1149.68 616.744 1169.44 643 1190.5C721.865 1253.76 753 1210 750 1179.5C747.464 1153.72 723.458 1126.72 693.232 1112.72C667.618 1100.86 633.703 1108.01 621.925 1133.67ZM724.656 1288.1C719.198 1292.29 715.187 1297.25 713.999 1303C707.5 1334.5 761.668 1337.41 785.999 1321C789.948 1318.34 792.733 1315.31 794.516 1312.09C810.942 1282.34 751.613 1267.4 724.656 1288.1Z" stroke="black" stroke-width="22" stroke-linecap="round"/>
</g>
<defs>
<clipPath id="clip0_495_785">
<rect width="1500" height="1500" fill="white"/>
</clipPath>
</defs>
      <g clip-path="url(#clip0_497_1194)">
<path d="M379.667 654.812C432.345 471.574 618.472 401.981 699.114 390.653C740.985 382.718 849.655 375.215 949.364 408.675C980 418.956 1049.88 457.388 1091.92 499.818C1144.47 552.856 1272.97 732.052 1185.05 927.725C1097.12 1123.4 758.414 1092.29 612.749 1051.82C464.472 1010.63 314.48 881.563 379.667 654.812Z" fill="#AABBFF"/>
<path d="M449.293 747.204C454.734 531.068 585.306 432.345 649.911 410C432.292 459.565 365.296 655.455 364 747.204C377.99 984.871 584.496 1053.43 681 1058C601.498 1044.46 443.853 963.339 449.293 747.204Z" fill="#001647" fill-opacity="0.2"/>
<path d="M379.667 654.812C432.345 471.574 618.472 401.981 699.114 390.653C740.985 382.718 849.655 375.215 949.364 408.675C980 418.956 1049.88 457.388 1091.92 499.818C1144.47 552.856 1272.97 732.052 1185.05 927.725C1097.12 1123.4 758.414 1092.29 612.749 1051.82C464.472 1010.63 314.48 881.563 379.667 654.812Z" stroke="black" stroke-width="22" stroke-linecap="round"/>
</g>
<defs>
    <clipPath id="prefix__clip0_299_662"><path fill="#fff" d="M0 0h1500v1500H0z"/></clipPath>
</defs>
      <g clip-path="url(#clip0_624_3550)">
<path d="M860.753 778.254C855.989 772.147 849.895 767.208 842.935 763.81C835.975 760.413 828.332 758.647 820.587 758.647C812.842 758.647 805.198 760.413 798.238 763.81C791.278 767.208 785.184 772.147 780.42 778.254" stroke="black" stroke-width="22" stroke-miterlimit="10" stroke-linecap="round"/>
<path d="M870.881 910.959C896.594 937.099 946.448 937.099 972.168 910.959" stroke="black" stroke-width="22" stroke-miterlimit="10" stroke-linecap="round"/>
<path d="M1052.5 778.254C1047.74 772.147 1041.64 767.208 1034.68 763.81C1027.72 760.413 1020.08 758.647 1012.33 758.647C1004.59 758.647 996.946 760.413 989.985 763.81C983.025 767.208 976.931 772.147 972.167 778.254" stroke="black" stroke-width="22" stroke-miterlimit="10" stroke-linecap="round"/>
</g>
<defs>
<clipPath id="clip0_624_3550">
<rect width="1500" height="1500" fill="white"/>
</clipPath>
</defs>
      <g clip-path="url(#clip0_2507_54)">
<path d="M465.702 816.438C480.86 808.672 506.017 801.608 528.977 822.177C533.144 825.842 538.246 828.431 543.789 829.693C549.333 830.955 555.13 830.848 560.62 829.382C577.275 825.065 601.312 823.004 618.961 838.922C623.315 842.866 628.715 845.635 634.597 846.939C640.479 848.243 646.627 848.034 652.399 846.335C669.555 841.272 694.168 839.009 715.452 857.097C719.883 860.896 725.325 863.492 731.201 864.607C737.076 865.723 743.165 865.316 748.82 863.431C762.912 858.716 784.234 859.512 800.222 872.39C828.365 892.375 848.043 877.733 857.942 868.788C871.772 856.323 893.921 850.386 923.719 862.743C928.011 864.484 911.991 863.591 916.667 863.537C921.342 863.482 925.955 862.503 930.206 860.662C944.415 854.622 967.654 843.804 990.096 857.826C995.145 861.047 1001.04 862.895 1007.13 863.168C1013.23 863.441 1019.29 862.128 1024.64 859.372C1034.51 854.21 1047.89 840.755 1063.77 843.596C1069.43 844.621 1075.27 844.252 1080.74 842.526C1086.21 840.8 1091.12 837.775 1094.99 833.743C1101.9 826.507 1113.11 820.008 1130.46 821.203C1136.43 821.572 1142.39 820.401 1147.71 817.815C1153.02 815.228 1157.49 811.325 1160.63 806.526C1167.76 795.749 1181.5 784.561 1207.55 783.129C1207.55 783.129 1229.44 796.284 1221.41 827.286C1219.56 834.45 1220.39 841.993 1223.78 848.634C1228.07 857.086 1231.34 869.688 1221.88 880.984C1219.07 884.303 1217.01 888.13 1215.83 892.227C1214.65 896.325 1214.38 900.606 1215.03 904.804C1217.37 919.141 1210.09 929.732 1202.94 936.436C1196.53 942.382 1192.88 950.476 1192.78 958.945C1192.64 975.174 1183.45 983.831 1174.71 988.382C1170.7 990.558 1167.21 993.503 1164.47 997.026C1161.74 1000.55 1159.82 1004.57 1158.83 1008.83C1155.33 1022.95 1138.92 1029.71 1131.6 1032.78C1124.28 1035.86 1115.56 1041.1 1108.97 1052.71C1102.39 1064.32 1086.36 1077.38 1073.94 1080.18C1069.52 1081.18 1065.37 1083 1061.71 1085.54C1058.06 1088.08 1054.98 1091.29 1052.67 1094.97C1041.4 1112.69 1020.26 1116.86 1005.2 1117.34C1000.51 1117.44 995.906 1118.49 991.682 1120.41C987.459 1122.33 983.717 1125.07 980.707 1128.46C968.761 1142.24 950.228 1143.81 937.46 1142.95C928.834 1142.41 920.321 1145.07 913.731 1150.35C896.484 1163.89 876.794 1161.03 863.383 1156.3C858.647 1154.62 853.56 1153.99 848.522 1154.47C843.483 1154.96 838.63 1156.53 834.342 1159.08C816.183 1169.89 798.695 1165.99 787.072 1160.66C782.601 1158.66 777.713 1157.62 772.762 1157.63C767.811 1157.64 762.922 1158.69 758.454 1160.7C733.781 1171.63 713.634 1161.25 702.194 1152.09C698.704 1149.31 694.644 1147.24 690.267 1146.01C685.889 1144.77 681.287 1144.4 676.747 1144.91C649.432 1147.99 632.822 1134.53 623.915 1123.46C620.92 1119.72 617.074 1116.66 612.659 1114.5C608.244 1112.34 603.372 1111.14 598.399 1110.99C574.944 1110.28 561.378 1100.62 553.949 1092.25C550.876 1088.77 547.047 1085.94 542.72 1083.96C538.392 1081.97 533.664 1080.89 528.851 1080.76C502.079 1080.08 491.575 1067.57 487.501 1056.82C485.888 1052.44 483.228 1048.47 479.726 1045.22C476.225 1041.96 471.976 1039.51 467.306 1038.05C441.864 1030.28 434.319 1011.5 432.435 997.274C431.827 992.251 429.952 987.44 426.968 983.242C423.983 979.043 419.975 975.58 415.279 973.14C395.013 962.907 392.242 947.513 393.181 937.021C393.779 929.716 391.562 922.456 386.936 916.574C380.535 908.31 374.525 894.994 383.545 879.356C385.957 875.189 387.331 870.559 387.562 865.82C387.793 861.081 386.874 856.356 384.876 852.004C379.713 840.791 376.01 825.969 386.55 817.421C400.856 805.769 421.875 811.236 436.165 817.331C440.825 819.338 445.915 820.302 451.039 820.147C456.163 819.992 461.181 818.723 465.702 816.438Z" fill="#F56CDB"/>
<path d="M565.801 884.099C551.032 867.741 562.342 843.135 571.001 831.629C565.495 829.957 553.585 826.623 549.992 826.658C545.5 826.701 531.994 823.539 523.458 817.978C514.921 812.417 517.451 816.155 510.447 814.341C503.442 812.527 485.97 812.224 483.973 812.243C481.977 812.263 447.097 818.709 445.6 818.724C444.102 818.738 408.068 808.268 406.567 807.813C405.365 807.448 390.515 817.214 383.24 822.142L383.504 850.822C383.511 851.575 382.995 867.755 382.736 875.751L384.18 924.168L409.529 966.714L433.298 1000.34L465.131 1042.35L492.815 1067.48L524.882 1080.81L589.512 1106.99L630.675 1132.46L669.218 1144.32L719.274 1159.82L761.198 1159.42L799.627 1159.05C791.688 1157.41 783.387 1150.18 778.03 1144.35C775.429 1141.53 771.581 1140.07 767.776 1140.6C727.302 1146.18 706.418 1124.24 698.952 1108.27C697.386 1104.91 694.491 1102.29 690.934 1101.27C666.516 1094.28 656.946 1076.35 654.273 1063.41C653.338 1058.89 650.206 1054.91 645.869 1053.31C623.767 1045.16 618.763 1028.83 619.441 1016.71C619.725 1011.63 617.484 1006.4 613.109 1003.8C589.803 989.959 586.544 971.178 588.801 958.778C589.622 954.265 588.49 949.38 585.204 946.181C567.933 929.37 566.759 911.509 569.796 899.613C571.162 894.262 569.5 888.197 565.801 884.099Z" fill="#001647" fill-opacity="0.2"/>
<path d="M528.978 822.176C506.017 801.608 480.861 808.672 465.702 816.438C461.182 818.722 456.163 819.992 451.04 820.147C445.916 820.302 440.825 819.338 436.165 817.331C421.875 811.236 400.856 805.768 386.55 817.421C376.01 825.969 381.713 840.79 386.877 852.003C388.874 856.355 389.793 861.08 389.562 865.82C389.331 870.559 387.958 875.188 385.545 879.356C376.525 894.993 382.535 908.31 388.936 916.573C393.562 922.456 395.779 929.715 395.181 937.021C394.242 947.513 397.013 962.906 417.279 973.139C421.976 975.579 425.983 979.043 428.968 983.241C431.952 987.439 433.827 992.251 434.435 997.274C436.32 1011.5 441.864 1030.28 467.306 1038.05C471.976 1039.51 476.225 1041.96 479.726 1045.22C483.228 1048.47 485.888 1052.44 487.501 1056.82C491.575 1067.57 502.08 1080.08 528.851 1080.76C533.664 1080.89 538.392 1081.97 542.72 1083.96C547.048 1085.94 550.876 1088.77 553.949 1092.25C561.378 1100.62 574.944 1110.28 598.399 1110.99C603.372 1111.14 608.245 1112.34 612.659 1114.5C617.074 1116.66 620.92 1119.72 623.915 1123.46C632.823 1134.53 649.432 1147.99 676.747 1144.91C681.287 1144.4 685.889 1144.77 690.267 1146.01C694.645 1147.24 698.704 1149.31 702.194 1152.09C713.634 1161.25 733.781 1171.63 758.454 1160.7C762.923 1158.69 767.811 1157.64 772.762 1157.63C777.713 1157.62 782.602 1158.66 787.072 1160.65C798.696 1165.99 816.183 1169.89 834.342 1159.08C838.63 1156.53 843.483 1154.96 848.522 1154.47C853.561 1153.99 858.647 1154.62 863.383 1156.3C876.794 1161.02 896.484 1163.89 913.731 1150.35C920.322 1145.07 928.835 1142.41 937.46 1142.95C950.228 1143.81 968.761 1142.24 980.707 1128.46C983.717 1125.07 987.459 1122.33 991.683 1120.41C995.906 1118.49 1000.51 1117.44 1005.2 1117.34C1020.26 1116.86 1041.4 1112.69 1052.67 1094.97C1054.98 1091.29 1058.06 1088.08 1061.71 1085.54C1065.37 1083 1069.52 1081.18 1073.94 1080.18C1086.36 1077.38 1102.39 1064.32 1108.97 1052.71C1115.56 1041.1 1124.28 1035.86 1131.6 1032.78L1131.8 1032.7C1139.22 1029.59 1155.36 1022.82 1158.83 1008.83C1159.82 1004.57 1161.74 1000.55 1164.48 997.025C1167.21 993.502 1170.7 990.558 1174.71 988.381C1183.45 983.83 1192.64 975.174 1192.78 958.945C1192.88 950.475 1196.53 942.382 1202.94 936.436C1210.09 929.732 1217.37 919.141 1215.03 904.804C1214.38 900.605 1214.65 896.324 1215.83 892.227C1217.01 888.129 1219.07 884.302 1221.88 880.984C1231.34 869.687 1228.07 857.086 1223.78 848.633C1220.39 841.992 1219.56 834.449 1221.41 827.286C1229.44 796.284 1207.55 783.129 1207.55 783.129C1181.5 784.561 1167.76 795.749 1160.63 806.525C1157.49 811.325 1153.02 815.228 1147.71 817.814C1142.39 820.4 1136.43 821.572 1130.46 821.202C1113.11 820.007 1101.9 826.506 1094.99 833.743C1091.12 837.775 1086.21 840.8 1080.74 842.526C1075.28 844.251 1069.43 844.62 1063.77 843.596C1047.89 840.754 1034.51 854.21 1024.65 859.372C1019.29 862.127 1013.23 863.44 1007.13 863.168C1001.04 862.895 995.145 861.047 990.096 857.826C975.888 848.949 959.716 858.434 946.155 868.123C933.956 876.839 919.01 875.415 905.387 869.164C886.22 860.368 868.122 859.612 857.942 868.788C848.043 877.733 828.366 892.375 800.222 872.39C784.234 859.511 762.912 858.716 748.82 863.431C743.166 865.316 737.077 865.722 731.201 864.607C725.325 863.492 719.883 860.896 715.452 857.096C694.168 839.008 669.555 841.271 652.399 846.335C646.627 848.034 640.479 848.242 634.597 846.938C628.715 845.634 623.315 842.866 618.961 838.921C601.313 823.004 577.276 825.064 560.621 829.381C555.13 830.848 549.333 830.955 543.79 829.692C538.246 828.43 533.145 825.841 528.978 822.176Z" stroke="black" stroke-width="22" stroke-miterlimit="10"/>
<path d="M847.684 952.99C796.393 960.533 771.057 930.01 764.065 911.56C763.735 910.688 764.715 909.945 765.529 910.399C794.794 926.75 833.656 903.637 851.184 871.99C854.749 865.552 859.18 860.308 864.102 856.095C892.633 831.676 933.121 867.002 920.263 902.286C911.028 927.625 887.792 947.092 847.684 952.99Z" fill="#F56CDB"/>
<path d="M999.033 952.99C1050.32 960.533 1075.66 930.01 1082.65 911.56C1082.98 910.688 1082 909.945 1081.19 910.399C1051.92 926.75 1013.06 903.637 995.533 871.99C991.967 865.552 987.536 860.308 982.614 856.095C954.083 831.676 913.595 867.002 926.454 902.286C935.688 927.625 958.924 947.092 999.033 952.99Z" fill="#F56CDB"/>
<path d="M883 852.5C880.2 911.7 822.5 934.5 794 938.5L769.5 916.5L826.5 903.5L851 878.5L858 857.5L883 852.5Z" fill="#001647" fill-opacity="0.2"/>
<path d="M970 938.5C944.8 914.9 950.833 871.333 957 852.5L940 854.5L924.5 867V897L945 925.5L970 938.5Z" fill="#001647" fill-opacity="0.2"/>
<path fill-rule="evenodd" clip-rule="evenodd" d="M923.129 856.694C920.505 853.024 917.459 849.726 914.113 846.903C898.825 834.009 875.472 829.811 856.267 846.248C850.38 851.286 845.101 857.547 840.878 865.171C833.142 879.14 820.655 891.196 807.203 897.842C793.771 904.478 780.734 905.185 770.211 899.306C765.64 896.752 760.435 897.58 756.925 900.315C753.272 903.161 751.024 908.5 753.096 913.968C761.559 936.297 791.257 970.816 848.601 962.383C884.621 957.086 909.524 941.229 923.129 918.755C936.733 941.229 961.636 957.086 997.656 962.384C1055 970.817 1084.7 936.297 1093.16 913.968C1095.23 908.5 1092.99 903.161 1089.33 900.315C1085.82 897.58 1080.62 896.752 1076.05 899.307C1065.52 905.186 1052.49 904.479 1039.06 897.842C1025.6 891.196 1013.12 879.14 1005.38 865.171C1001.16 857.547 995.878 851.287 989.991 846.248C970.785 829.811 947.433 834.01 932.145 846.904C928.799 849.726 925.753 853.024 923.129 856.694ZM899.929 863.721C891.054 856.236 879.898 854.981 870.572 862.962C866.614 866.35 863.033 870.578 860.124 875.83C850.333 893.508 834.625 908.832 816.948 917.566C807.598 922.186 797.32 925.111 786.94 925.299C798.415 936.011 817.19 944.766 845.401 940.617C882.42 935.173 901.682 917.782 909.245 897.029C913.863 884.357 909.026 871.393 899.929 863.721ZM946.329 863.721C937.232 871.394 932.395 884.358 937.013 897.029C944.576 917.782 963.838 935.174 1000.86 940.618C1029.07 944.766 1047.84 936.011 1059.32 925.299C1048.94 925.111 1038.66 922.186 1029.31 917.566C1011.63 908.832 995.925 893.508 986.134 875.83C983.225 870.578 979.643 866.35 975.686 862.962C966.36 854.981 955.203 856.236 946.329 863.721Z" fill="black"/>
</g>
<defs>
<clipPath id="clip0_2507_54">
<rect width="1500" height="1500" fill="white"/>
</clipPath>
</defs>
      <g clip-path="url(#clip0_708_296)">
<path d="M711.94 381.541L669.138 415.004L754.914 456.956C786.09 456.451 856.04 454.579 886.429 451.127C916.817 447.675 946.703 430.594 957.848 422.485L912.882 387.272L890.772 360.146L852.07 352.844L816.711 388.83L811.119 369.892L779.2 357.196L748.101 362.456L711.94 381.541Z" fill="#AABBFF"/>
<path d="M754.823 451.145C758.386 440.393 766.661 423.631 780.081 411.559M882.17 449.083C878.062 439.675 870.922 425.659 859.411 414.501M670.743 416.037C678.291 403.405 696.028 378.1 722.448 377.672C724.832 377.634 727.122 377.712 729.323 377.895M780.081 411.559C789.433 403.145 801.285 397.009 815.783 396.774C818.147 396.736 820.438 396.825 822.658 397.03M780.081 411.559C771.884 400.903 758.35 380.305 729.323 377.895M953.095 422.563C946.826 410.677 929.573 387.795 908.089 385.052M859.411 414.501C864.186 404.755 879.655 385.169 903.328 384.785C904.936 384.759 906.524 384.852 908.089 385.052M859.411 414.501C850.192 405.565 838.17 398.463 822.658 397.03M729.323 377.895C734.108 368.72 747.587 350.309 768.512 349.97C795.461 349.534 817.557 375.809 822.658 397.03M908.089 385.052C903.334 374.267 889.367 351.713 871.612 352C849.419 352.36 832.274 370.674 822.592 392.964" stroke="black" stroke-width="22" stroke-linecap="round"/>
<path d="M618.569 574.785L567.825 554.973C630.317 600.206 606.448 639.812 586.702 653.962C527.242 683.908 507.254 638.378 504.692 611.869L511.316 570.318L490.636 599.182C470.827 620.265 425.647 647.212 403.397 586.33C381.146 525.448 441.585 513.424 474.586 515.022L453.426 508.674C424.638 495.751 378.17 460.144 422.595 421.103C467.02 382.063 501.723 430.657 513.522 459.834L524.943 471.777L522.345 458.151C523.774 418.422 540.474 348.783 595.845 388.064C651.216 427.345 610.468 470.557 583.173 487.253L634.506 477.464C649.269 474.233 679.558 478.758 682.617 522.698C685.677 566.639 641.193 575.731 618.569 574.785Z" fill="#53B6F9"/>
<path d="M531.578 477.918C531.578 477.918 511.312 435.004 534.518 401.634C570.061 350.432 649.221 401.98 618.177 456.074C608.705 472.599 594.08 476.691 563.51 497.557" stroke="black" stroke-width="22" stroke-miterlimit="10"/>
<path d="M513.103 554.003C513.103 554.003 505.44 600.709 467.602 615.623C409.574 638.504 370.239 550.369 426.017 522.597C443.071 514.116 458.19 517.925 495.248 517.468" stroke="black" stroke-width="22" stroke-miterlimit="10"/>
<path d="M572.003 508.802C572.003 508.802 605.229 468.731 644.671 477.236C705.078 490.256 688.791 582.988 627.471 575.269C608.742 572.908 597.335 565.93 566.505 545.764" stroke="black" stroke-width="22" stroke-miterlimit="10"/>
<path d="M560.484 554.415C560.484 554.415 602.944 568.401 606.766 608.809C612.623 670.762 519.778 682.514 508.631 621.287C505.229 602.583 505.496 594.146 523.784 560.106" stroke="black" stroke-width="22" stroke-miterlimit="10"/>
<path d="M489.538 506.574C489.538 506.574 440.777 514.364 418.081 480.704C383.272 429.114 459.528 375.584 498.625 423.98C510.562 438.768 510.616 447.744 519.059 483.805" stroke="black" stroke-width="22" stroke-miterlimit="10"/>
<path d="M541.944 563.769C550.978 562.046 559.298 557.683 565.853 551.232C572.407 544.78 576.901 536.53 578.767 527.524C580.632 518.519 579.785 509.162 576.333 500.638C572.881 492.114 566.978 484.804 559.372 479.635C551.766 474.465 542.798 471.666 533.601 471.594C524.404 471.521 515.393 474.177 507.706 479.226C500.019 484.275 494.001 491.49 490.415 499.958C486.828 508.427 485.834 517.769 487.556 526.803C489.867 538.917 496.895 549.618 507.094 556.55C517.294 563.483 529.83 566.079 541.944 563.769Z" fill="#FFBF44" stroke="black" stroke-width="22" stroke-miterlimit="10"/>
<path d="M555.522 432.902C557.559 403.973 578.633 391.596 588.915 389.024C580.072 387.671 562.064 385.016 560.78 385.217C559.497 385.418 545.04 393.168 537.972 397.017L525.885 432.62L523.126 470.048C522.358 464.277 520.235 451.1 517.894 444.561C515.553 438.023 507.941 426.529 504.427 421.6L488.861 408.833L466.744 404.083L448.119 411.115L419.631 423.395C418.654 437.25 416.831 465.269 417.353 466.503C417.875 467.736 441.509 495.597 453.261 509.373L402.342 535.86C399.213 549.093 397.453 581.185 415.45 603.682C433.448 626.18 478.866 606.201 499.326 593.399C501.749 598.363 508.86 614.347 517.922 638.575C526.985 662.803 550.633 661.942 561.324 658.483C558.716 656.7 551.761 646.255 544.813 618.736C537.864 591.216 543.483 573.591 547.161 568.218L546.091 561.398C537.641 560.806 519.338 552.771 513.723 525.371C508.109 497.972 526.557 481.43 536.483 476.584L570.564 486.857C564.701 480.926 553.485 461.831 555.522 432.902Z" fill="#001647" fill-opacity="0.2"/>
</g>
<defs>
<clipPath id="clip0_708_296">
<rect width="1500" height="1500" fill="white"/>
</clipPath>
</defs>
      
    </g>
    </svg>