<svg
      xmlns="http://www.w3.org/2000/svg"
      preserveAspectRatio="xMidYMin meet"
      fill="none"
      viewBox="0 0 1500 1500"
    >
      <g>
      <path fill="url(#prefix__paint0_linear_53_30461)" d="M0 0h1500v1500H0z"/><defs><linearGradient id="prefix__paint0_linear_53_30461" x1="0" y1="0" x2="1500" y2="1533.5" gradientUnits="userSpaceOnUse">
<stop stop-color="#EEB0FC"/>
<stop offset="1" stop-color="#AF55F5"/>
</linearGradient></defs>
      <g clip-path="url(#clip0_494_770)">
<path d="M773 1011.5C543.4 1029.9 398.667 1353.5 355 1513H1138.5C1075.7 1127 868.667 1017.83 773 1011.5Z" fill="#AABBFF"/>
<path d="M665.5 1302.5C658.3 1195.7 560.833 1178.67 513 1183.5L587.5 1096L665.5 1040L704 1029.5C714 1075.5 753 1164.5 822 1164.5C877.2 1164.5 900.333 1094.5 905 1059.5L1021 1201.5L1016.5 1236V1287L1028.5 1354L1043.5 1423L1047.5 1509.5H650V1503C658.167 1480.67 672.7 1409.3 665.5 1302.5Z" fill="white"/>
<path d="M749.5 1019.5C536 1134 457.448 1414.63 443.159 1511H353.699C350.414 1508.73 357.049 1471.27 409.87 1339.62C462.691 1207.98 569.086 1113.24 605.384 1082.33L674 1033.5L749.5 1019.5Z" fill="#001647" fill-opacity="0.2"/>
<path d="M353.5 1519.5C365.5 1454.33 414.5 1313.6 483.5 1219C530.101 1155.11 577.468 1101.29 629.141 1059.66C710.278 994.299 826.037 996.323 905.02 1064.27C1000.08 1146.05 1103.44 1290.29 1142.5 1519.5M1050.5 1519.5C1048.1 1443.9 1024.83 1354.33 1013.5 1319C999.5 1268 1009.7 1225.3 1020.5 1204.5M653.5 1519.5C650.3 1467.1 661.167 1392.33 667 1361.5C674 1324.5 668 1288.8 642 1250C609.5 1201.5 554.5 1171 517 1179.5M709 1016C709 1064.17 732.1 1164.5 824.5 1164.5C884 1164.5 902.33 1109.22 895.355 1059.5" stroke="black" stroke-width="22" stroke-linecap="round"/>
<path d="M933.223 1272.02L937.932 1261.68L954.916 1287.26L955.318 1292.17L952.556 1258.38C952.5 1257.97 952.361 1257.57 952.148 1257.22C951.935 1256.87 951.653 1256.57 951.324 1256.36L923.078 1239.35C922.758 1239.18 922.407 1239.09 922.052 1239.09C921.696 1239.09 921.346 1239.18 921.025 1239.35C920.943 1239.4 920.864 1239.45 920.789 1239.5L920.701 1239.57L895.946 1256.2L895.849 1256.25C895.719 1256.32 895.596 1256.41 895.482 1256.51C895.254 1256.7 895.065 1256.95 894.928 1257.22C894.79 1257.5 894.707 1257.81 894.683 1258.12C894.677 1258.22 894.677 1258.32 894.683 1258.42L896.932 1285.96L908.934 1262.25C910.433 1259.11 914.167 1258.09 917.712 1258.15L921.877 1258.26L900.858 1301.46L903.892 1303.28L925.062 1258.29L936.011 1258.25L914.997 1304.37L925.824 1310.89L927.117 1311.67C927.647 1311.9 928.235 1311.91 928.773 1311.7L954.632 1294.33L949.695 1297.66L933.223 1272.02ZM938.026 1305.5L926.181 1287.55L931.577 1275.69L947.138 1299.37L938.026 1305.5Z" fill="#2D374B"/>
<path d="M926.181 1287.54L938.026 1305.48L947.138 1299.37L931.573 1275.68L926.181 1287.54Z" fill="#28A0F0"/>
<path d="M955.32 1292.16L954.918 1287.26L937.934 1261.68L933.221 1272.01L949.694 1297.66L954.642 1294.34C954.879 1294.11 955.065 1293.83 955.188 1293.51C955.311 1293.19 955.367 1292.84 955.351 1292.49L955.32 1292.16Z" fill="#28A0F0"/>
<path d="M893.127 1296.79L900.86 1301.46L921.879 1258.26L917.714 1258.14C914.167 1258.09 910.435 1259.1 908.936 1262.24L896.934 1285.96L892.893 1293.86L893.129 1296.8L893.127 1296.79Z" fill="white"/>
<path d="M936.023 1258.26L925.072 1258.3L903.904 1303.29L913.006 1308.77L915.009 1304.38L936.023 1258.26Z" fill="white"/>
<path d="M957.205 1258.19C957.036 1256.92 956.608 1255.7 955.953 1254.63C955.298 1253.57 954.433 1252.67 953.422 1252.02L924.807 1234.8C923.835 1234.27 922.766 1234 921.683 1234C920.599 1234 919.531 1234.27 918.559 1234.8C918.341 1234.93 893.432 1251.68 893.432 1251.68C892.347 1252.27 891.444 1253.21 890.836 1254.36C890.228 1255.52 889.941 1256.85 890.01 1258.18L892.888 1293.86L896.93 1285.95L894.681 1258.42C894.668 1258.06 894.736 1257.69 894.877 1257.36C895.018 1257.03 895.228 1256.73 895.492 1256.51C895.608 1256.41 920.945 1239.41 921.032 1239.36C921.353 1239.19 921.703 1239.11 922.059 1239.11C922.414 1239.11 922.765 1239.19 923.085 1239.36L951.331 1256.37C951.66 1256.59 951.942 1256.88 952.155 1257.23C952.368 1257.58 952.508 1257.98 952.563 1258.4L955.302 1292.5C955.327 1292.84 955.282 1293.18 955.168 1293.5C955.055 1293.83 954.876 1294.11 954.647 1294.35L949.692 1297.66L947.143 1299.38L938.024 1305.51L928.777 1311.71C928.24 1311.92 927.652 1311.91 927.122 1311.68L915.004 1304.38L913.001 1308.77L923.894 1315.34C924.253 1315.55 924.573 1315.74 924.84 1315.9C925.247 1316.13 925.523 1316.3 925.62 1316.35C926.506 1316.76 927.458 1316.97 928.42 1316.97C929.275 1316.98 930.122 1316.8 930.915 1316.45L957.78 1298.41C958.529 1297.71 959.119 1296.83 959.502 1295.83C959.885 1294.84 960.051 1293.75 959.986 1292.68L957.205 1258.19Z" fill="#8BBFDF"/>
</g>
<defs>
<clipPath id="clip0_494_770">
<rect width="1500" height="1500" fill="white"/>
</clipPath>
</defs>
      <g clip-path="url(#clip0_497_1194)">
<path d="M379.667 654.812C432.345 471.574 618.472 401.981 699.114 390.653C740.985 382.718 849.655 375.215 949.364 408.675C980 418.956 1049.88 457.388 1091.92 499.818C1144.47 552.856 1272.97 732.052 1185.05 927.725C1097.12 1123.4 758.414 1092.29 612.749 1051.82C464.472 1010.63 314.48 881.563 379.667 654.812Z" fill="#AABBFF"/>
<path d="M449.293 747.204C454.734 531.068 585.306 432.345 649.911 410C432.292 459.565 365.296 655.455 364 747.204C377.99 984.871 584.496 1053.43 681 1058C601.498 1044.46 443.853 963.339 449.293 747.204Z" fill="#001647" fill-opacity="0.2"/>
<path d="M379.667 654.812C432.345 471.574 618.472 401.981 699.114 390.653C740.985 382.718 849.655 375.215 949.364 408.675C980 418.956 1049.88 457.388 1091.92 499.818C1144.47 552.856 1272.97 732.052 1185.05 927.725C1097.12 1123.4 758.414 1092.29 612.749 1051.82C464.472 1010.63 314.48 881.563 379.667 654.812Z" stroke="black" stroke-width="22" stroke-linecap="round"/>
</g>
<defs>
    <clipPath id="prefix__clip0_299_662"><path fill="#fff" d="M0 0h1500v1500H0z"/></clipPath>
</defs>
      <g clip-path="url(#clip0_624_3473)">
<path d="M1010.33 800C1015.74 800 1021.02 798.397 1025.52 795.394C1030.01 792.39 1033.52 788.121 1035.59 783.127C1037.65 778.132 1038.2 772.637 1037.14 767.334C1036.09 762.032 1033.48 757.162 1029.66 753.339C1025.84 749.517 1020.97 746.913 1015.67 745.859C1010.36 744.804 1004.87 745.345 999.873 747.414C994.879 749.483 990.61 752.986 987.606 757.481C984.603 761.976 983 767.261 983 772.667C983 779.916 985.88 786.868 991.006 791.994C996.132 797.12 1003.08 800 1010.33 800Z" fill="black"/>
<path d="M799.421 789.214L858.141 778.547C859.189 778.352 860.151 777.837 860.895 777.073C861.639 776.309 862.128 775.334 862.294 774.28C862.455 773.224 862.285 772.143 861.808 771.187C861.331 770.234 860.569 769.453 859.628 768.954L804.701 739.807" stroke="black" stroke-width="22" stroke-miterlimit="10" stroke-linecap="round"/>
<path d="M870.88 910.959C896.593 937.099 946.447 937.099 972.167 910.959" stroke="black" stroke-width="22" stroke-miterlimit="10" stroke-linecap="round"/>
</g>
<defs>
<clipPath id="clip0_624_3473">
<rect width="1500" height="1500" fill="white"/>
</clipPath>
</defs>
      <g clip-path="url(#clip0_838_2287)">
<path opacity="0.4" d="M821.549 858C843.021 857.988 863.72 849.99 879.622 835.563C895.524 821.135 905.492 801.309 907.587 779.94C909.682 758.571 903.755 737.187 890.958 719.946C878.16 702.704 859.408 690.839 838.348 686.657C817.288 682.475 795.425 686.275 777.011 697.318C758.597 708.361 744.949 725.859 738.72 746.407C732.491 766.955 734.127 789.085 743.31 808.494C752.493 827.903 768.566 843.202 788.403 851.418C798.912 855.771 810.175 858.008 821.549 858Z" fill="white"/>
<ellipse cx="932" cy="915.5" rx="131" ry="69.5" fill="#AABBFF"/>
<path opacity="0.5" d="M755.001 714.699C755.001 714.699 754.214 696.527 795.319 691L872 841.914C872 841.914 857.773 858.504 827.655 857.988L755.001 714.699Z" fill="white"/>
<path opacity="0.5" d="M808 687.959C808 687.959 809.662 687.651 823.768 678L892 817.977C892 817.977 890.955 827.356 879.411 830L808 687.959Z" fill="white"/>
<path d="M847.684 952.99C796.393 960.533 771.057 930.01 764.065 911.56C763.735 910.688 764.715 909.945 765.529 910.399C794.794 926.75 833.656 903.637 851.184 871.99C854.749 865.552 859.18 860.308 864.102 856.095C892.633 831.676 933.121 867.002 920.263 902.286C911.028 927.625 887.792 947.092 847.684 952.99Z" fill="white"/>
<path d="M999.033 952.99C1050.32 960.533 1075.66 930.01 1082.65 911.56C1082.98 910.688 1082 909.945 1081.19 910.399C1051.92 926.75 1013.06 903.637 995.533 871.99C991.967 865.552 987.536 860.308 982.614 856.095C954.083 831.676 913.595 867.002 926.454 902.286C935.688 927.625 958.924 947.092 999.033 952.99Z" fill="white"/>
<path d="M883 852.5C880.2 911.7 822.5 934.5 794 938.5L769.5 916.5L826.5 903.5L851 878.5L858 857.5L883 852.5Z" fill="#001647" fill-opacity="0.2"/>
<path d="M970 938.5C944.8 914.9 950.833 871.333 957 852.5L940 854.5L924.5 867V897L945 925.5L970 938.5Z" fill="#001647" fill-opacity="0.2"/>
<path d="M696.5 746H737.5L735.5 778H696.5V746Z" fill="#FFBF44"/>
<path fill-rule="evenodd" clip-rule="evenodd" d="M923.128 858.444C920.378 854.373 917.104 850.735 913.467 847.667C898.471 835.019 875.672 830.954 856.916 847.007C851.117 851.97 845.915 858.138 841.752 865.655C833.922 879.792 821.289 891.997 807.644 898.738C794.019 905.47 780.618 906.266 769.722 900.179C765.529 897.836 760.758 898.595 757.539 901.103C754.19 903.712 752.131 908.602 754.03 913.613C762.359 935.589 791.66 969.745 848.455 961.393C885.007 956.018 909.903 939.731 923.128 916.788C936.352 939.732 961.248 956.018 997.801 961.393C1054.6 969.746 1083.9 935.59 1092.23 913.613C1094.12 908.602 1092.07 903.712 1088.72 901.103C1085.5 898.596 1080.73 897.836 1076.53 900.179C1065.64 906.267 1052.24 905.47 1038.61 898.738C1024.97 891.997 1012.33 879.792 1004.5 865.655C1000.34 858.139 995.139 851.971 989.339 847.007C970.583 830.954 947.785 835.019 932.789 847.667C929.152 850.735 925.878 854.373 923.128 858.444ZM900.572 862.955C891.406 855.225 879.695 853.836 869.921 862.202C865.875 865.664 862.216 869.985 859.248 875.345C849.55 892.854 833.989 908.03 816.504 916.669C806.518 921.603 795.503 924.563 784.473 924.29C795.948 935.954 815.484 946.027 845.545 941.606C882.845 936.121 902.468 918.54 910.183 897.371C914.966 884.247 909.941 870.857 900.572 862.955ZM945.683 862.956C936.315 870.857 931.289 884.248 936.072 897.371C943.787 918.541 963.411 936.121 1000.71 941.606C1030.77 946.027 1050.31 935.954 1061.78 924.29C1050.75 924.563 1039.74 921.603 1029.75 916.669C1012.27 908.03 996.705 892.854 987.008 875.345C984.039 869.985 980.38 865.664 976.335 862.202C966.56 853.836 954.849 855.225 945.683 862.956Z" fill="black"/>
<path d="M738 743H710.5C700.835 743 693 750.835 693 760.5V760.5C693 770.165 700.835 778 710.5 778H738M689.5 759L671.456 767.728C636.886 784.449 631.245 831.348 660.863 855.79V855.79C682.911 873.985 686.426 906.444 668.784 928.937L660.5 939.5" stroke="black" stroke-width="20" stroke-linecap="round"/>
<circle cx="822.5" cy="768.5" r="85.5" stroke="black" stroke-width="20"/>
</g>
<defs>
<clipPath id="clip0_838_2287">
<rect width="1500" height="1500" fill="white"/>
</clipPath>
</defs>
      <g clip-path="url(#clip0_708_260)">
<path d="M711.94 381.541L669.138 415.004L754.914 456.956C786.09 456.451 856.04 454.579 886.429 451.127C916.817 447.675 946.703 430.594 957.848 422.485L912.882 387.272L890.772 360.146L852.07 352.844L816.711 388.83L811.119 369.892L779.2 357.196L748.101 362.456L711.94 381.541Z" fill="#AABBFF"/>
<path d="M754.823 451.145C758.386 440.393 766.661 423.631 780.081 411.559M882.17 449.083C878.062 439.675 870.922 425.659 859.411 414.501M670.743 416.037C678.291 403.405 696.028 378.1 722.448 377.672C724.832 377.634 727.122 377.712 729.323 377.895M780.081 411.559C789.433 403.145 801.285 397.009 815.783 396.774C818.147 396.736 820.438 396.825 822.658 397.03M780.081 411.559C771.884 400.903 758.35 380.305 729.323 377.895M953.095 422.563C946.826 410.677 929.573 387.795 908.089 385.052M859.411 414.501C864.186 404.755 879.655 385.169 903.328 384.785C904.936 384.759 906.524 384.852 908.089 385.052M859.411 414.501C850.192 405.565 838.17 398.463 822.658 397.03M729.323 377.895C734.108 368.72 747.587 350.309 768.512 349.97C795.461 349.534 817.557 375.809 822.658 397.03M908.089 385.052C903.334 374.267 889.367 351.713 871.612 352C849.419 352.36 832.274 370.674 822.592 392.964" stroke="black" stroke-width="22" stroke-linecap="round"/>
<path d="M618.569 574.785L567.825 554.973C630.317 600.206 606.448 639.812 586.702 653.962C527.242 683.908 507.254 638.378 504.692 611.869L511.316 570.318L490.636 599.182C470.827 620.265 425.647 647.212 403.397 586.33C381.146 525.448 441.585 513.424 474.586 515.022L453.426 508.674C424.638 495.751 378.17 460.144 422.595 421.103C467.02 382.063 501.723 430.657 513.522 459.834L524.943 471.777L522.345 458.151C523.774 418.422 540.474 348.783 595.845 388.064C651.216 427.345 610.468 470.557 583.173 487.253L634.506 477.464C649.269 474.233 679.558 478.758 682.617 522.698C685.677 566.639 641.193 575.731 618.569 574.785Z" fill="#4AEEB9"/>
<path d="M531.578 477.918C531.578 477.918 511.312 435.004 534.518 401.634C570.061 350.432 649.221 401.98 618.177 456.074C608.705 472.599 594.08 476.691 563.51 497.557" stroke="black" stroke-width="22" stroke-miterlimit="10"/>
<path d="M513.103 554.003C513.103 554.003 505.44 600.709 467.602 615.623C409.574 638.504 370.239 550.369 426.017 522.597C443.071 514.116 458.19 517.925 495.248 517.468" stroke="black" stroke-width="22" stroke-miterlimit="10"/>
<path d="M572.003 508.802C572.003 508.802 605.229 468.731 644.671 477.236C705.078 490.256 688.791 582.988 627.471 575.269C608.742 572.908 597.335 565.93 566.505 545.764" stroke="black" stroke-width="22" stroke-miterlimit="10"/>
<path d="M560.484 554.415C560.484 554.415 602.944 568.401 606.766 608.809C612.623 670.762 519.778 682.514 508.631 621.287C505.229 602.583 505.496 594.146 523.784 560.106" stroke="black" stroke-width="22" stroke-miterlimit="10"/>
<path d="M489.538 506.574C489.538 506.574 440.777 514.364 418.081 480.704C383.272 429.114 459.528 375.584 498.625 423.98C510.562 438.768 510.616 447.744 519.059 483.805" stroke="black" stroke-width="22" stroke-miterlimit="10"/>
<path d="M541.944 563.769C550.978 562.046 559.298 557.683 565.853 551.232C572.407 544.78 576.901 536.53 578.767 527.524C580.632 518.519 579.785 509.162 576.333 500.638C572.881 492.114 566.978 484.804 559.372 479.635C551.766 474.465 542.798 471.666 533.601 471.594C524.404 471.521 515.393 474.177 507.706 479.226C500.019 484.275 494.001 491.49 490.415 499.958C486.828 508.427 485.834 517.769 487.556 526.803C489.867 538.917 496.895 549.618 507.094 556.55C517.294 563.483 529.83 566.079 541.944 563.769Z" fill="#FFBF44" stroke="black" stroke-width="22" stroke-miterlimit="10"/>
<path d="M555.522 432.902C557.559 403.973 578.633 391.596 588.915 389.024C580.072 387.671 562.064 385.016 560.78 385.217C559.497 385.418 545.04 393.168 537.972 397.017L525.885 432.62L523.126 470.048C522.358 464.277 520.235 451.1 517.894 444.561C515.553 438.023 507.941 426.529 504.427 421.6L488.861 408.833L466.744 404.083L448.119 411.115L419.631 423.395C418.654 437.25 416.831 465.269 417.353 466.503C417.875 467.736 441.509 495.597 453.261 509.373L402.342 535.86C399.213 549.093 397.453 581.185 415.45 603.682C433.448 626.18 478.866 606.201 499.326 593.399C501.749 598.363 508.86 614.347 517.922 638.575C526.985 662.803 550.633 661.942 561.324 658.483C558.716 656.7 551.761 646.255 544.813 618.736C537.864 591.216 543.483 573.591 547.161 568.218L546.091 561.398C537.641 560.806 519.338 552.771 513.723 525.371C508.109 497.972 526.557 481.43 536.483 476.584L570.564 486.857C564.701 480.926 553.485 461.831 555.522 432.902Z" fill="#001647" fill-opacity="0.2"/>
</g>
<defs>
<clipPath id="clip0_708_260">
<rect width="1500" height="1500" fill="white"/>
</clipPath>
</defs>
      
    </g>
    </svg>