<svg
      xmlns="http://www.w3.org/2000/svg"
      preserveAspectRatio="xMidYMin meet"
      fill="none"
      viewBox="0 0 1500 1500"
    >
      <g>
      <path fill="url(#prefix__paint0_linear_53_28788)" d="M0 0h1500v1500H0z"/><defs><linearGradient id="prefix__paint0_linear_53_28788" x1="0" y1="0" x2="1500" y2="1500" gradientUnits="userSpaceOnUse">
<stop stop-color="#DBE4E4"/>
<stop offset="1" stop-color="#A7BDBD"/>
</linearGradient></defs>
      <g clip-path="url(#clip0_483_539)">
<path d="M773 1011.5C543.4 1029.9 398.667 1353.5 355 1513H1138.5C1075.7 1127 868.667 1017.83 773 1011.5Z" fill="#53B6F9"/>
<path d="M453.835 1435.59L472.342 1412.37L459.531 1385.55C459.308 1385.07 459.231 1384.54 459.311 1384.01C459.391 1383.49 459.624 1383.01 459.981 1382.62C460.337 1382.23 460.801 1381.95 461.313 1381.82C461.826 1381.7 462.365 1381.73 462.861 1381.91L490.69 1392.33L512.188 1372.14C512.574 1371.78 513.059 1371.54 513.58 1371.46C514.102 1371.37 514.637 1371.44 515.118 1371.66C515.599 1371.88 516.004 1372.24 516.282 1372.69C516.56 1373.14 516.698 1373.66 516.679 1374.19L515.37 1403.59L541.482 1417.75C543.389 1418.78 543.009 1422.06 540.916 1422.65L512.31 1430.55L506.946 1459.49C506.847 1460.01 506.594 1460.49 506.221 1460.87C505.849 1461.25 505.372 1461.5 504.852 1461.61C504.333 1461.71 503.794 1461.66 503.303 1461.46C502.813 1461.26 502.395 1460.91 502.101 1460.47L485.701 1435.96L456.258 1439.85C455.734 1439.91 455.203 1439.82 454.733 1439.58C454.262 1439.34 453.873 1438.97 453.614 1438.51C453.355 1438.05 453.238 1437.53 453.278 1437C453.317 1436.47 453.512 1435.97 453.837 1435.55L453.835 1435.59Z" fill="white"/>
<path d="M594.58 1160.2L613.817 1139.8L603.606 1121.28C603.429 1120.95 603.395 1120.55 603.509 1120.14C603.623 1119.73 603.879 1119.33 604.245 1118.98C604.611 1118.63 605.071 1118.35 605.567 1118.18C606.062 1118.01 606.571 1117.95 607.029 1118.02L632.673 1121.85L654.528 1103.33C654.921 1103 655.398 1102.74 655.899 1102.6C656.4 1102.46 656.902 1102.44 657.342 1102.53C657.783 1102.63 658.141 1102.84 658.372 1103.14C658.603 1103.44 658.697 1103.82 658.641 1104.23L655.271 1126.8L679.016 1133.73C680.75 1134.24 680.152 1136.79 678.124 1137.55L650.416 1147.76L643.233 1170.58C643.101 1170.99 642.827 1171.39 642.446 1171.73C642.065 1172.07 641.594 1172.34 641.093 1172.5C640.593 1172.65 640.085 1172.69 639.635 1172.61C639.185 1172.53 638.812 1172.33 638.565 1172.04L624.782 1155.79L596.57 1163.09C596.069 1163.21 595.572 1163.22 595.143 1163.1C594.714 1162.99 594.372 1162.77 594.16 1162.45C593.947 1162.14 593.874 1161.76 593.95 1161.35C594.026 1160.95 594.247 1160.54 594.585 1160.17L594.58 1160.2Z" fill="white"/>
<path d="M749.5 1019.5C536 1134 457.448 1414.63 443.159 1511H353.699C350.414 1508.73 357.049 1471.27 409.87 1339.62C462.691 1207.98 569.086 1113.24 605.384 1082.33L674 1033.5L749.5 1019.5Z" fill="#001647" fill-opacity="0.2"/>
<path d="M940.224 1185.75L950.468 1165.46L936.764 1140.6C936.523 1140.15 936.383 1139.67 936.363 1139.2C936.342 1138.73 936.441 1138.29 936.647 1137.96C936.853 1137.62 937.157 1137.39 937.521 1137.29C937.884 1137.2 938.291 1137.25 938.69 1137.43L961.085 1148.06L974.032 1130.66C974.265 1130.35 974.591 1130.16 974.967 1130.1C975.344 1130.05 975.754 1130.13 976.147 1130.35C976.54 1130.57 976.898 1130.91 977.175 1131.33C977.452 1131.75 977.636 1132.23 977.703 1132.71L981.259 1159.32L1002.95 1173.27C1004.53 1174.29 1004.75 1177.25 1003.28 1177.69L983.129 1183.65L983.585 1209.67C983.591 1210.14 983.476 1210.56 983.255 1210.89C983.035 1211.21 982.719 1211.43 982.347 1211.5C981.975 1211.57 981.564 1211.5 981.167 1211.3C980.769 1211.09 980.404 1210.76 980.116 1210.35L964.085 1187.43L942.691 1189.71C942.309 1189.75 941.898 1189.64 941.51 1189.4C941.122 1189.17 940.773 1188.81 940.509 1188.38C940.245 1187.96 940.076 1187.47 940.025 1187C939.973 1186.52 940.041 1186.07 940.22 1185.71L940.224 1185.75Z" fill="white"/>
<path d="M353.5 1519.5C365.5 1454.33 414.5 1313.6 483.5 1219C530.101 1155.11 577.468 1101.29 629.141 1059.66C710.278 994.299 826.037 996.323 905.02 1064.27C1000.08 1146.05 1103.44 1290.29 1142.5 1519.5M1013.5 1319C1024.83 1354.33 1048.1 1443.9 1050.5 1519.5M667 1361.5C661.167 1392.33 650.3 1467.1 653.5 1519.5" stroke="black" stroke-width="22" stroke-linecap="round"/>
<path d="M939.372 1459.98L925.446 1433.75L895.742 1434.81C895.215 1434.82 894.695 1434.68 894.248 1434.4C893.801 1434.12 893.448 1433.71 893.232 1433.23C893.017 1432.74 892.949 1432.21 893.038 1431.69C893.127 1431.17 893.367 1430.69 893.73 1430.3L914.378 1408.93L904.433 1381.17C904.256 1380.67 904.231 1380.13 904.361 1379.62C904.491 1379.11 904.77 1378.65 905.163 1378.29C905.556 1377.94 906.044 1377.71 906.567 1377.63C907.09 1377.56 907.624 1377.64 908.101 1377.87L934.546 1390.79L957.936 1372.48C959.646 1371.14 962.504 1372.8 962.21 1374.95L958.052 1404.34L982.458 1420.79C982.896 1421.09 983.234 1421.51 983.431 1422.01C983.628 1422.5 983.674 1423.04 983.564 1423.56C983.453 1424.07 983.19 1424.55 982.81 1424.92C982.429 1425.29 981.947 1425.53 981.425 1425.63L952.407 1430.9L944.242 1459.45C944.091 1459.96 943.793 1460.41 943.386 1460.74C942.98 1461.08 942.483 1461.29 941.958 1461.34C941.434 1461.4 940.905 1461.29 940.438 1461.05C939.971 1460.8 939.588 1460.42 939.336 1459.96L939.372 1459.98Z" fill="white"/>
<path d="M781.868 1306.32L777.304 1276.97L748.893 1268.24C748.39 1268.08 747.945 1267.77 747.615 1267.36C747.285 1266.95 747.085 1266.45 747.039 1265.92C746.994 1265.4 747.105 1264.87 747.36 1264.41C747.614 1263.94 748 1263.57 748.468 1263.32L774.978 1249.9L774.676 1220.41C774.673 1219.88 774.826 1219.36 775.116 1218.92C775.407 1218.48 775.822 1218.14 776.309 1217.93C776.796 1217.72 777.333 1217.67 777.852 1217.77C778.371 1217.87 778.849 1218.12 779.225 1218.49L799.977 1239.36L828.074 1229.73C830.127 1229.03 832.285 1231.53 831.301 1233.47L817.746 1259.87L835.414 1283.41C835.73 1283.83 835.912 1284.34 835.936 1284.87C835.961 1285.4 835.828 1285.93 835.553 1286.38C835.279 1286.83 834.876 1287.2 834.395 1287.42C833.914 1287.64 833.378 1287.72 832.854 1287.64L803.711 1283.11L786.641 1307.41C786.333 1307.84 785.904 1308.17 785.41 1308.35C784.916 1308.54 784.378 1308.57 783.865 1308.45C783.351 1308.33 782.885 1308.06 782.524 1307.68C782.164 1307.29 781.926 1306.81 781.84 1306.29L781.868 1306.32Z" fill="white"/>
<path d="M704.849 1508.19L710.763 1480.06L689.852 1466.16C689.483 1465.91 689.211 1465.54 689.072 1465.09C688.932 1464.64 688.93 1464.13 689.067 1463.64C689.203 1463.14 689.472 1462.67 689.838 1462.3C690.205 1461.92 690.653 1461.65 691.127 1461.52L717.797 1454.49L727.33 1427.09C727.502 1426.6 727.803 1426.16 728.193 1425.81C728.583 1425.46 729.045 1425.22 729.521 1425.13C729.997 1425.04 730.466 1425.1 730.868 1425.29C731.27 1425.49 731.587 1425.82 731.778 1426.24L742.243 1449.83L768.985 1446.64C770.938 1446.41 771.916 1449.16 770.448 1450.76L750.329 1472.46L757.322 1497.89C757.445 1498.35 757.428 1498.86 757.273 1499.36C757.118 1499.85 756.832 1500.31 756.452 1500.68C756.071 1501.04 755.613 1501.29 755.136 1501.4C754.659 1501.51 754.185 1501.47 753.773 1501.29L730.853 1491.14L708.484 1510.18C708.083 1510.51 707.616 1510.73 707.141 1510.8C706.665 1510.87 706.203 1510.79 705.813 1510.57C705.423 1510.36 705.121 1510.01 704.947 1509.58C704.773 1509.15 704.734 1508.65 704.835 1508.15L704.849 1508.19Z" fill="white"/>
</g>
<defs>
<clipPath id="clip0_483_539">
<rect width="1500" height="1500" fill="white"/>
</clipPath>
</defs>
      <g clip-path="url(#clip0_497_1194)">
<path d="M379.667 654.812C432.345 471.574 618.472 401.981 699.114 390.653C740.985 382.718 849.655 375.215 949.364 408.675C980 418.956 1049.88 457.388 1091.92 499.818C1144.47 552.856 1272.97 732.052 1185.05 927.725C1097.12 1123.4 758.414 1092.29 612.749 1051.82C464.472 1010.63 314.48 881.563 379.667 654.812Z" fill="#AABBFF"/>
<path d="M449.293 747.204C454.734 531.068 585.306 432.345 649.911 410C432.292 459.565 365.296 655.455 364 747.204C377.99 984.871 584.496 1053.43 681 1058C601.498 1044.46 443.853 963.339 449.293 747.204Z" fill="#001647" fill-opacity="0.2"/>
<path d="M379.667 654.812C432.345 471.574 618.472 401.981 699.114 390.653C740.985 382.718 849.655 375.215 949.364 408.675C980 418.956 1049.88 457.388 1091.92 499.818C1144.47 552.856 1272.97 732.052 1185.05 927.725C1097.12 1123.4 758.414 1092.29 612.749 1051.82C464.472 1010.63 314.48 881.563 379.667 654.812Z" stroke="black" stroke-width="22" stroke-linecap="round"/>
</g>
<defs>
    <clipPath id="prefix__clip0_299_662"><path fill="#fff" d="M0 0h1500v1500H0z"/></clipPath>
</defs>
      <g clip-path="url(#clip0_624_3204)">
<path d="M876.086 925.246H970.499" stroke="black" stroke-width="22" stroke-linecap="round"/>
<path d="M865.708 768.06L844.448 768.047L821.695 768.027L792.828 768" stroke="black" stroke-width="22" stroke-linecap="round"/>
<path d="M850.019 773.927C852.061 777.245 853.087 781.09 852.968 784.985C852.85 788.88 851.593 792.655 849.352 795.844C847.112 799.032 843.986 801.494 840.361 802.925C836.737 804.357 832.772 804.695 828.958 803.897C825.143 803.1 821.646 801.202 818.898 798.439C816.15 795.676 814.273 792.168 813.497 788.349C812.721 784.53 813.081 780.567 814.533 776.951C815.985 773.334 818.464 770.223 821.665 768H844.419C846.675 769.567 848.582 771.585 850.019 773.927Z" fill="black" stroke="black" stroke-width="22" stroke-linecap="round"/>
<path d="M1033.71 768L1004.83 768.027L982.081 768.047L960.828 768.06" stroke="black" stroke-width="22" stroke-linecap="round"/>
<path d="M976.506 773.926C974.456 777.243 973.423 781.087 973.536 784.985C973.648 788.882 974.9 792.661 977.138 795.854C979.376 799.047 982.5 801.513 986.125 802.949C989.75 804.385 993.716 804.726 997.533 803.931C1001.35 803.136 1004.85 801.24 1007.6 798.476C1010.35 795.713 1012.23 792.203 1013.01 788.383C1013.78 784.562 1013.42 780.597 1011.97 776.979C1010.52 773.361 1008.04 770.248 1004.83 768.026H982.079C979.837 769.59 977.94 771.598 976.506 773.926Z" fill="black" stroke="black" stroke-width="22" stroke-linecap="round"/>
</g>
<defs>
<clipPath id="clip0_624_3204">
<rect width="1500" height="1500" fill="white"/>
</clipPath>
</defs>
      <g clip-path="url(#clip0_884_3075)">
<path opacity="0.5" d="M720 750.438C720 722.417 743.895 701.078 770.199 705.609C796.226 710.091 822.774 710.091 848.801 705.609C875.105 701.078 899 722.417 899 750.438V774.93C899 825.227 860.214 866 812.37 866H806.63C758.786 866 720 825.227 720 774.93V750.438Z" fill="#A5F15C"/>
<path opacity="0.5" d="M937 750.438C937 722.417 960.762 701.078 986.919 705.609C1012.8 710.091 1039.2 710.091 1065.08 705.609C1091.24 701.078 1115 722.417 1115 750.438V774.93C1115 825.227 1076.43 866 1028.85 866H1023.15C975.569 866 937 825.227 937 774.93V750.438Z" fill="#A5F15C"/>
<path d="M555 792C555 797.523 559.477 802 565 802C570.523 802 575 797.523 575 792H555ZM720 747L595 747L595 767L720 767L720 747ZM555 787V792H575V787H555ZM595 747C572.909 747 555 764.909 555 787H575C575 775.955 583.954 767 595 767L595 747Z" fill="black"/>
<path d="M956.85 721.662C956.85 721.662 956.298 703.515 996.284 698.54L1068.96 850.236C1068.96 850.236 1054.94 866.613 1025.72 865.696L956.85 721.662Z" fill="white" fill-opacity="0.3"/>
<path d="M740.63 724.24C740.63 724.24 740.078 706.416 780.064 701.53L852.741 850.523C852.741 850.523 838.725 866.607 809.505 865.706L740.63 724.24Z" fill="white" fill-opacity="0.3"/>
<path d="M1009.77 706.801C1009.77 706.801 1006.07 709.846 1019.83 701.031L1084.46 832.685C1084.46 832.685 1088.66 838.122 1077.47 840.432L1009.77 706.801Z" fill="white" fill-opacity="0.3"/>
<path d="M793.546 709.643C793.546 709.643 789.847 712.634 803.615 703.975L868.238 833.283C868.238 833.283 872.442 838.623 861.249 840.892L793.546 709.643Z" fill="white" fill-opacity="0.3"/>
<path d="M937.905 788.269C944.913 829.009 980.328 860 1022.96 860H1028.68C1076.35 860 1115 821.253 1115 773.455V744.18C1115 717.552 1091.19 699.273 1064.98 701.579C1039.05 702.839 1012.6 702.839 986.664 701.579C962.761 699.652 940.855 714.173 937.184 737.31C936.83 739.543 936.645 741.837 936.645 744.18V773.455C936.645 778.506 937.077 783.455 937.905 788.269ZM937.905 788.269L937.119 787.669C926.202 779.335 910.993 779.583 900.355 788.269V788.269M902 751H933.5M772.018 701.579C797.951 702.839 824.403 702.839 850.336 701.579C876.545 699.273 900.355 717.552 900.355 744.18V773.455C900.355 821.253 861.709 860 814.037 860H808.318C760.646 860 722 821.253 722 773.455V744.18C722 717.552 745.809 699.273 772.018 701.579Z" stroke="black" stroke-width="20" stroke-linecap="round"/>
</g>
<defs>
<clipPath id="clip0_884_3075">
<rect width="1500" height="1500" fill="white"/>
</clipPath>
</defs>
      <g clip-path="url(#clip0_708_531)">
<path d="M711.94 381.541L669.138 415.004L754.914 456.956C786.09 456.451 856.04 454.579 886.429 451.127C916.817 447.675 946.703 430.594 957.848 422.485L912.882 387.272L890.772 360.146L852.07 352.844L816.711 388.83L811.119 369.892L779.2 357.196L748.101 362.456L711.94 381.541Z" fill="#AABBFF"/>
<path d="M754.823 451.145C758.386 440.393 766.661 423.631 780.081 411.559M882.17 449.083C878.062 439.675 870.922 425.659 859.411 414.501M670.743 416.037C678.291 403.405 696.028 378.1 722.448 377.672C724.832 377.634 727.122 377.712 729.323 377.895M780.081 411.559C789.433 403.145 801.285 397.009 815.783 396.774C818.147 396.736 820.438 396.825 822.658 397.03M780.081 411.559C771.884 400.903 758.35 380.305 729.323 377.895M953.095 422.563C946.826 410.677 929.573 387.795 908.089 385.052M859.411 414.501C864.186 404.755 879.655 385.169 903.328 384.785C904.936 384.759 906.524 384.852 908.089 385.052M859.411 414.501C850.192 405.565 838.17 398.463 822.658 397.03M729.323 377.895C734.108 368.72 747.587 350.309 768.512 349.97C795.461 349.534 817.557 375.809 822.658 397.03M908.089 385.052C903.334 374.267 889.367 351.713 871.612 352C849.419 352.36 832.274 370.674 822.592 392.964" stroke="black" stroke-width="22" stroke-linecap="round"/>
<path d="M997.957 517.946L972.6 557.808L964.662 577.046L893.586 580.946L861.174 558.543L840.987 516.142L855.588 457.997L886.826 438.019L911.744 394.846L948.019 365.871L972.573 331.457L1005.89 297.407L1027.92 261.23L1073.34 204.845L1076.31 250.738L1045.77 347.813L1037.13 406.374L1007.13 455.754L997.957 517.946Z" fill="#F56CDB"/>
<path d="M905.244 482.859C890.573 526.542 901.882 566.524 909.37 581.055C891.184 575.243 853.071 558.479 846.103 537.922C839.134 517.365 851.146 473.07 858.023 453.492L900.659 408.065L953.382 357.132L1000.6 298.398C1016.65 276.22 1051.4 229.569 1062.04 220.392C1072.67 211.214 1077.78 218.709 1079 223.604C1043.06 251.869 1027.04 300.845 1023.98 320.882L1012.98 316.752C989.875 344.651 979.514 399.041 977.222 422.749L959.342 395.217C934.769 436.331 933.821 494.331 936.419 518.191L905.244 482.859Z" fill="#001647" fill-opacity="0.2"/>
<path d="M892.515 429.579C892.515 429.579 843.236 451.183 842.203 506.578C841.696 524.765 848.262 542.439 860.519 555.884C876.647 573.966 900.141 583.617 924.373 583.108C945.775 582.654 965.55 573.927 979.276 549.847C979.276 549.847 1008.28 514.474 1005.72 453.56C1005.72 453.56 1047.39 405.63 1041.08 350.636C1041.08 350.636 1077.25 291.348 1083.64 209.794C1083.69 208.92 1083.5 208.048 1083.08 207.281C1082.76 206.708 1082.33 206.209 1081.8 205.819C1081.27 205.429 1080.67 205.155 1080.03 205.018C1079.39 204.88 1078.73 204.882 1078.09 205.022C1077.45 205.162 1076.84 205.437 1076.32 205.83C1058.18 220.011 1021.31 258.073 1010.03 292.412C1010.03 292.412 968.636 314 955.632 358.225C955.648 358.181 908.075 377.837 892.515 429.579Z" stroke="black" stroke-width="20" stroke-miterlimit="10"/>
<path d="M892.516 429.582C892.516 429.582 900.707 515.854 979.349 549.795" stroke="black" stroke-width="20" stroke-miterlimit="10"/>
<path d="M955.848 356.821C955.848 356.821 951.691 424.093 1005.64 453.216" stroke="black" stroke-width="20" stroke-miterlimit="10"/>
<path d="M1010.06 292.373C1010.06 292.373 1014.99 332.329 1041.13 350.598" stroke="black" stroke-width="20" stroke-miterlimit="10"/>
</g>
<defs>
<clipPath id="clip0_708_531">
<rect width="1500" height="1500" fill="white"/>
</clipPath>
</defs>
      
    </g>
    </svg>