<svg
      xmlns="http://www.w3.org/2000/svg"
      preserveAspectRatio="xMidYMin meet"
      fill="none"
      viewBox="0 0 1500 1500"
    >
      <g>
      <path fill="url(#prefix__paint0_linear_53_28789)" d="M0 0h1500v1500H0z"/><defs><linearGradient id="prefix__paint0_linear_53_28789" x1="1500" y1="1500" x2="0" y2="0" gradientUnits="userSpaceOnUse">
<stop stop-color="#FFD130"/>
<stop offset="1" stop-color="#FFEEDB"/>
</linearGradient></defs>
      <g clip-path="url(#clip0_483_526)">
<path d="M366.5 1327.5C264.5 1394.3 286.333 1481.33 310 1516.5L1208 1510C1237.2 1434.8 1183.17 1369.33 1152.5 1346C1198.9 1256 1109.83 1182.17 1059.5 1156.5C1089.1 1116.1 1063.83 1061 1047.5 1038.5C819.5 1116.1 602.5 1048.83 522.5 1005.5C452.9 1045.5 475.833 1117.83 496 1149C358.8 1177.8 352.5 1280 366.5 1327.5Z" fill="#A760FF"/>
<path d="M1069.32 1160.2C1064.35 1156.71 1057.49 1157.91 1054 1162.88C1039.23 1183.91 1016.26 1201.27 992.35 1214.66C968.55 1227.99 944.65 1236.92 928.96 1241.44C923.12 1243.12 919.75 1249.21 921.43 1255.05C923.11 1260.89 929.2 1264.26 935.04 1262.58C952.15 1257.66 977.65 1248.11 1003.1 1233.85C1028.44 1219.66 1054.57 1200.33 1072 1175.52C1075.49 1170.55 1074.29 1163.69 1069.32 1160.2Z" fill="#001647" fill-opacity="0.2"/>
<path d="M1164.1 1354.75C1159.24 1351.11 1152.34 1352.1 1148.7 1356.96C1133.03 1377.87 1104.14 1383.83 1083.64 1384.51C1077.57 1384.71 1072.81 1389.8 1073.01 1395.87C1073.21 1401.94 1078.3 1406.7 1084.37 1406.5C1106.4 1405.77 1144.34 1399.48 1166.31 1370.15C1169.95 1365.29 1168.97 1358.39 1164.1 1354.75Z" fill="#001647" fill-opacity="0.2"/>
<path d="M974 1404.68C955.73 1408.06 923.06 1412.42 884.83 1413.9C846.05 1415.41 802.01 1413.94 761.7 1405.72C755.75 1404.51 749.94 1408.35 748.72 1414.3C747.51 1420.25 751.35 1426.06 757.3 1427.28C799.95 1435.98 845.9 1437.43 885.68 1435.89C924.97 1434.36 958.69 1429.89 978 1426.32C983.97 1425.21 987.92 1419.48 986.82 1413.5C985.72 1407.53 979.98 1403.58 974 1404.68Z" fill="#001647" fill-opacity="0.2"/>
<path d="M526 1158.5L571 1186L615.26 1203.5L680 1225L731.5 1232.5L752.18 1235C707.21 1216.67 630.42 1157.5 683 1067.5L509.66 1009L484 1061.5L480 1115L501 1137.5L526 1158.5Z" fill="#001647" fill-opacity="0.2"/>
<path d="M575.64 1215.68C588.5 1221.37 601.86 1226.63 615.26 1231.41C664.47 1248.96 716.66 1260.84 750.81 1262.98C756.87 1263.36 762.1 1258.75 762.48 1252.69C762.86 1246.63 758.25 1241.41 752.19 1241.03C720.76 1239.07 670.68 1227.82 622.65 1210.7C574.19 1193.42 530.41 1171.05 509.66 1148.1C505.59 1143.59 498.63 1143.24 494.12 1147.32C493.29 1148.07 492.61 1148.91 492.06 1149.82L491.49 1149.51L400.99 1186.01L372.99 1242.51L360.99 1305.51L372.66 1327.65C371.89 1327.77 371.12 1327.97 370.37 1328.26L363.99 1321.01L321.49 1356.01L287 1432L300.5 1513H401C381.17 1457.08 423.35 1428.94 465.37 1415.96C483.49 1420.94 504.21 1424.83 527.79 1427.43C533.83 1428.1 539.26 1423.74 539.93 1417.7C540.6 1411.66 536.24 1406.23 530.2 1405.56C520.59 1404.5 511.58 1403.23 503.1 1401.77L493.44 1398.36L525.99 1401.49C506.16 1380.99 471.49 1327.59 491.49 1277.99C506.17 1241.57 544.58 1223.41 575.63 1215.67L575.64 1215.68Z" fill="#001647" fill-opacity="0.2"/>
<path d="M1013.5 1319C1024.83 1354.33 1048.1 1443.9 1050.5 1519.5M667 1361.5C661.166 1392.33 650.3 1467.1 653.5 1519.5M1205 1519.5C1216 1480.17 1221.2 1391.6 1154 1352M1079 1384C1114 1382.83 1181.89 1367 1163.5 1276C1148.04 1199.52 1089.25 1170.37 1058 1157.7M926.999 1240.5C959.802 1231.06 1025.8 1203.54 1058 1157.7M1058 1157.7C1061.62 1152.53 1064.82 1147.13 1067.5 1141.5C1080.32 1114.5 1076.3 1065.5 1047.5 1035.5C1019.19 1047.48 944.091 1070.65 852.5 1076.66M746.499 1240.5C674.499 1236 514.065 1185.63 485.999 1129C457.5 1071.5 493.833 1020 517.999 1002C574.999 1028.17 715.399 1080 820.999 1078C831.68 1077.8 842.194 1077.34 852.5 1076.66M491 1148.5C462.5 1154.17 399.8 1178 377 1228C348.5 1290.5 343 1385 524 1405M311.5 1513.5C285.667 1480.17 259.201 1396.2 360 1327M852.5 1076.66L880.255 1413.39M880.255 1413.39L889 1519.5M880.255 1413.39C919.011 1411.89 952.211 1407.48 971 1404M880.255 1413.39C840.971 1414.92 795.978 1413.46 754.5 1405" stroke="black" stroke-width="22" stroke-linecap="round"/>
</g>
<defs>
<clipPath id="clip0_483_526">
<rect width="1500" height="1500" fill="white"/>
</clipPath>
</defs>
      <g clip-path="url(#clip0_497_1194)">
<path d="M379.667 654.812C432.345 471.574 618.472 401.981 699.114 390.653C740.985 382.718 849.655 375.215 949.364 408.675C980 418.956 1049.88 457.388 1091.92 499.818C1144.47 552.856 1272.97 732.052 1185.05 927.725C1097.12 1123.4 758.414 1092.29 612.749 1051.82C464.472 1010.63 314.48 881.563 379.667 654.812Z" fill="#AABBFF"/>
<path d="M449.293 747.204C454.734 531.068 585.306 432.345 649.911 410C432.292 459.565 365.296 655.455 364 747.204C377.99 984.871 584.496 1053.43 681 1058C601.498 1044.46 443.853 963.339 449.293 747.204Z" fill="#001647" fill-opacity="0.2"/>
<path d="M379.667 654.812C432.345 471.574 618.472 401.981 699.114 390.653C740.985 382.718 849.655 375.215 949.364 408.675C980 418.956 1049.88 457.388 1091.92 499.818C1144.47 552.856 1272.97 732.052 1185.05 927.725C1097.12 1123.4 758.414 1092.29 612.749 1051.82C464.472 1010.63 314.48 881.563 379.667 654.812Z" stroke="black" stroke-width="22" stroke-linecap="round"/>
</g>
<defs>
    <clipPath id="prefix__clip0_299_662"><path fill="#fff" d="M0 0h1500v1500H0z"/></clipPath>
</defs>
      <g clip-path="url(#clip0_624_3522)">
<path d="M822 818C849.062 818 871 796.062 871 769C871 741.938 849.062 720 822 720C794.938 720 773 741.938 773 769C773 796.062 794.938 818 822 818Z" fill="white" stroke="black" stroke-width="20" stroke-miterlimit="10"/>
<path d="M1012 818C1039.06 818 1061 796.062 1061 769C1061 741.938 1039.06 720 1012 720C984.938 720 963 741.938 963 769C963 796.062 984.938 818 1012 818Z" fill="white" stroke="black" stroke-width="20" stroke-miterlimit="10"/>
<path d="M809 770C816.18 770 822 764.18 822 757C822 749.82 816.18 744 809 744C801.82 744 796 749.82 796 757C796 764.18 801.82 770 809 770Z" fill="black"/>
<path d="M1024 770C1031.18 770 1037 764.18 1037 757C1037 749.82 1031.18 744 1024 744C1016.82 744 1011 749.82 1011 757C1011 764.18 1016.82 770 1024 770Z" fill="black"/>
<path d="M988.653 885.957H855.227C854.074 885.957 852.968 886.415 852.153 887.23C851.338 888.045 850.88 889.151 850.88 890.303C850.88 909.026 858.317 926.982 871.556 940.221C884.795 953.46 902.751 960.897 921.474 960.897H922.406C941.129 960.897 959.085 953.46 972.324 940.221C985.562 926.982 993 909.026 993 890.303C993 889.151 992.542 888.045 991.727 887.23C990.912 886.415 989.806 885.957 988.653 885.957Z" fill="white" stroke="black" stroke-width="20" stroke-miterlimit="10"/>
</g>
<defs>
<clipPath id="clip0_624_3522">
<rect width="1500" height="1500" fill="white"/>
</clipPath>
</defs>
      <g clip-path="url(#clip0_911_331)">
<ellipse cx="932" cy="915.5" rx="131" ry="69.5" fill="#AABBFF"/>
<path d="M820.569 923.549C820.28 896.513 841.822 874.289 868.854 873.737L973.808 871.592C1001.86 871.018 1024.91 893.608 1024.9 921.668C1024.89 949.203 1002.65 971.563 975.116 971.72L870.142 972.317C843.014 972.471 820.859 950.677 820.569 923.549Z" fill="#D9D7D7"/>
<path d="M823.858 924.756L1021.53 920.376M875.876 968.561C875.328 946.294 874.452 897.05 870.948 878.214M924.061 878.214C925.886 895.188 929.208 937.022 928.989 968.561M975.532 874.428C976.627 898.505 977.175 951.039 978.27 968.561M869.395 972.015L975.985 971.418C1004.17 971.26 1026.67 947.887 1025.77 919.717V919.717C1024.88 892.298 1002.11 870.692 974.681 871.252L868.111 873.43C841.078 873.983 819.535 896.207 819.824 923.245V923.245C820.114 950.372 842.267 972.167 869.395 972.015Z" stroke="black" stroke-width="20"/>
</g>
<defs>
<clipPath id="clip0_911_331">
<rect width="1500" height="1500" fill="white"/>
</clipPath>
</defs>
      <g clip-path="url(#clip0_499_1441)">
<path d="M376 874C356 831 352 775 353.5 755V739.5L479.5 706.5L646.5 687.5C701.833 680.167 835.3 652.7 926.5 601.5C1017.7 550.3 1130.83 580.167 1176 601.5C1201.2 643.1 1216.5 705.833 1221 732L1264.5 710L1335.5 644L1341 615.5C1327.83 605.667 1301.1 585.7 1299.5 584.5C1297.9 583.3 1248.5 559.333 1224 547.5L1136.5 495L1089 454C1081.5 442.667 1056.4 397.4 1016 307C975.6 216.6 873.5 214 827.5 224C771.167 234.5 635.3 261.6 542.5 286C449.7 310.4 413.5 348.834 407 365L388 489.5L382 584.5L353.5 649L239.5 806.5C247.5 813 267.6 830.8 284 850C300.4 869.2 352.167 874 376 874Z" fill="#A760FF"/>
<path d="M492 583.5C467.6 608.3 438.167 685.167 426.5 718L354 749.5C349 784 364 854 378 876L355.5 878L295.5 856.5L245.5 818V802L347 665L378 597L393.5 482.5L403.5 368.5L443.5 329.5L522.5 299.5C495 389.5 498.833 497.667 506.5 543L579.5 512.5L749 467.5L947.5 440.5L1019 452.5L1018.54 455.235C1017.4 462.096 1011.09 466.826 1004.17 466.186C831.696 450.262 592.254 528.165 492 583.5Z" fill="#001647" fill-opacity="0.2"/>
<path d="M1220 730C1215 693 1193 634 1177.5 604.5L1220 610L1289.5 616L1345.5 619.5L1331.5 653.5L1294 695.5L1253 717.5L1220 730Z" fill="#001647" fill-opacity="0.2"/>
<path d="M452.772 571.28C563.115 511.305 821.499 413.5 1022.05 447.163M1215.08 734.367C1293.13 704.467 1331.11 656.617 1344.38 628.399C1347.53 621.702 1345.42 613.97 1339.66 609.317C1322.28 595.265 1287.7 571.775 1238.64 550.176C1193.41 530.262 1142.48 497.329 1108.33 473.151C1090.34 460.41 1078.37 441.255 1070.66 420.597C1047.56 358.685 1006.85 298.749 975.149 260.245C960.235 242.133 938.188 231.705 914.759 230.46C705.3 219.332 524.534 286.218 436.125 335.612C415.64 347.058 402.082 367.059 398.853 390.302C391.557 442.833 384.121 531.205 379.99 587.396C379.191 598.258 376.802 608.945 371.678 618.556C346.077 666.577 283.741 747.752 245.106 795.488C238.549 803.591 239.171 815.376 247.135 822.1C280.404 850.188 338.468 887.386 385.999 879.581M240.444 809.859C262.015 792.823 333.043 745.637 420.195 720.843C529.136 689.851 641.153 689.404 727.401 672.098C848.465 647.807 916.79 573.215 1047.32 572.025C1177.85 570.835 1187.03 629.968 1339.22 617.077" stroke="black" stroke-width="22" stroke-linecap="round"/>
<path d="M778.287 318.16C778.395 318.004 778.345 317.799 778.177 317.709L725.393 288.599C725.124 288.453 724.793 288.697 724.88 288.978L731.374 309.937C731.431 310.12 731.303 310.313 731.1 310.351L681.368 319.643C681.167 319.681 681.039 319.872 681.093 320.054L688.072 349.642C688.12 349.802 688.29 349.898 688.466 349.866L738.337 340.547C738.511 340.515 738.681 340.609 738.73 340.767L745.281 361.91C745.362 362.174 745.74 362.218 745.903 361.983L778.287 318.16ZM664.589 380.771C664.414 380.804 664.245 380.709 664.196 380.552L657.645 359.408C657.564 359.145 657.186 359.101 657.023 359.335L625.578 403.182C625.47 403.338 625.52 403.543 625.688 403.633L677.525 432.707C677.795 432.852 678.125 432.608 678.038 432.328L671.572 411.459C671.516 411.276 671.643 411.083 671.846 411.045L721.578 401.753C721.78 401.715 721.907 401.524 721.853 401.342L714.852 371.665C714.804 371.506 714.634 371.409 714.458 371.442L664.589 380.771Z" fill="white"/>
</g>
<defs>
<clipPath id="clip0_499_1441">
<rect width="1500" height="1500" fill="white"/>
</clipPath>
</defs>
      
    </g>
    </svg>