<svg
      xmlns="http://www.w3.org/2000/svg"
      preserveAspectRatio="xMidYMin meet"
      fill="none"
      viewBox="0 0 1500 1500"
    >
      <g>
      <path fill="url(#prefix__paint0_linear_53_28788)" d="M0 0h1500v1500H0z"/><defs><linearGradient id="prefix__paint0_linear_53_28788" x1="0" y1="0" x2="1500" y2="1500" gradientUnits="userSpaceOnUse">
<stop stop-color="#DBE4E4"/>
<stop offset="1" stop-color="#A7BDBD"/>
</linearGradient></defs>
      <g clip-path="url(#clip0_481_154)">
<path d="M773 1011.5C543.4 1029.9 398.667 1353.5 355 1513H1138.5C1075.7 1127 868.667 1017.83 773 1011.5Z" fill="#99C4CB"/>
<path d="M749.5 1019.5C536 1134 457.448 1414.63 443.159 1511H353.699C350.414 1508.73 357.049 1471.27 409.87 1339.62C462.691 1207.98 569.086 1113.24 605.384 1082.33L674 1033.5L749.5 1019.5Z" fill="#001647" fill-opacity="0.2"/>
<path d="M758.5 1354.5L741 1377.5C742 1390.5 744.2 1417.1 745 1419.5C746 1422.5 758.5 1441 795 1448C824.2 1453.6 837.833 1437 841 1428C854.667 1433.83 882.2 1445.5 883 1445.5H923C934.333 1440.83 957.5 1422.7 959.5 1387.5C961.5 1352.3 917.667 1327.5 895.5 1319.5C897.833 1304.33 890.8 1273.4 844 1271C797.2 1268.6 787.833 1314 789 1337L758.5 1354.5Z" fill="#AABBFF"/>
<path d="M792 1395L773.5 1382L761.5 1384L760 1404L778.5 1408L792 1395Z" fill="#7985B4"/>
<path d="M914.5 1415.5C917.3 1411.5 907.333 1401.83 902 1397.5C896.833 1399.33 886.5 1403.3 886.5 1404.5C886.5 1406 886 1413 886.5 1415.5C886.9 1417.5 897 1425 902 1428.5C905 1425.83 911.7 1419.5 914.5 1415.5Z" fill="#7985B4"/>
<path d="M353.5 1519.5C365.5 1454.33 414.5 1313.6 483.5 1219C530.101 1155.11 577.468 1101.29 629.141 1059.66C710.278 994.299 826.037 996.323 905.02 1064.27C1000.08 1146.05 1103.44 1290.29 1142.5 1519.5M1013.5 1319C1024.83 1354.33 1048.1 1443.9 1050.5 1519.5M667 1361.5C661.167 1392.33 650.3 1467.1 653.5 1519.5" stroke="black" stroke-width="22" stroke-linecap="round"/>
<path d="M966.98 1387.9V1387.77C965.6 1366.86 958.73 1349.82 946.56 1337.13C936.17 1326.31 921.91 1318.62 904.15 1314.26C899.79 1296.01 889.65 1280.56 876.13 1271.69L876.03 1271.63C852.11 1257.29 824.1 1257.47 802.94 1272.09C783.64 1285.42 774.41 1307.87 777.93 1332.55C753.81 1339.27 735.71 1359.93 732.5 1384.78C729.73 1406.24 738.63 1427.94 756.33 1442.83C768.91 1453.42 784.11 1459.01 799.21 1459.01C805.17 1459.01 811.13 1458.14 816.9 1456.35C828.56 1452.87 838.9 1446.04 846.33 1436.98C849.41 1439.94 852.64 1442.62 855.95 1444.94C878.16 1461.15 906.76 1463.5 930.58 1451.06C953.98 1438.84 967.58 1415.23 966.98 1387.9ZM933.77 1429.67C931.81 1431.38 929.68 1432.91 927.46 1434.27C924.3 1436.23 920.98 1437.85 917.48 1439.04C915.26 1439.81 913.05 1440.49 910.74 1440.91C909.55 1441.17 908.44 1441.34 907.25 1441.51C906.31 1441.68 905.45 1441.76 904.52 1441.85C903.49 1441.93 902.56 1442.02 901.53 1442.02H898.12C897.18 1442.02 896.16 1441.93 895.22 1441.85C893.69 1441.76 892.07 1441.59 890.53 1441.34C888.57 1441 886.69 1440.66 884.73 1440.15C880.81 1439.12 876.97 1437.59 873.31 1435.8C869.72 1434.01 866.31 1431.89 863.16 1429.42C861.79 1428.31 860.43 1427.2 859.15 1426.01C857.87 1424.82 856.68 1423.63 855.57 1422.35C855.4 1422.09 855.14 1421.92 854.97 1421.67C854.97 1421.58 854.88 1421.58 854.88 1421.5C854.88 1421.5 854.88 1421.41 854.8 1421.41L854.71 1421.33C854.54 1421.24 854.46 1421.16 854.37 1420.99C854.37 1420.99 854.37 1420.9 854.29 1420.9C854.03 1420.65 853.86 1420.39 853.61 1420.05C853.52 1419.97 853.43 1419.88 853.35 1419.79C853.123 1419.51 853.067 1419.2 853.18 1418.86C853.18 1418.77 853.26 1418.69 853.26 1418.6C853.35 1418.35 853.43 1418.01 853.61 1417.75C854.63 1414.94 855.4 1412.05 855.99 1409.15C856.25 1408.04 856.42 1406.85 856.5 1405.74C856.68 1404.47 856.85 1403.1 856.93 1401.83C856.93 1401.4 857.02 1400.97 857.02 1400.55C857.02 1400.21 857.02 1399.78 857.1 1399.44C857.19 1398.68 857.19 1397.91 857.1 1397.14V1396.21C857.1 1395.44 857.1 1394.59 857.02 1393.82C857.02 1393.57 857.02 1393.31 856.93 1393.06C856.93 1392.72 856.93 1392.37 856.85 1392.03C856.76 1391.61 856.76 1391.27 856.76 1390.84C856.68 1390.33 856.68 1389.82 856.59 1389.39C856.42 1388.03 856.16 1386.67 855.91 1385.39C855.31 1382.41 854.46 1379.43 853.35 1376.54C852.33 1373.81 851.22 1371.17 849.85 1368.62C849.17 1367.34 848.49 1366.15 847.72 1364.87C847.72 1364.87 847.72 1364.78 847.64 1364.78C847.55 1364.7 847.55 1364.61 847.47 1364.44C847.38 1364.36 847.29 1364.27 847.29 1364.19C846.53 1363 845.76 1361.72 844.82 1360.61C844.65 1360.36 844.57 1360.1 844.74 1359.85C844.91 1359.51 845.08 1359.25 845.25 1358.91C845.33 1358.82 845.42 1358.65 845.42 1358.57C845.59 1358.06 845.93 1357.55 846.19 1357.04L846.27 1356.87C847.47 1354.65 848.83 1352.52 850.36 1350.56C851.9 1348.52 853.69 1346.56 855.57 1344.77C858.64 1341.88 862.05 1339.32 865.72 1337.19C868.27 1335.75 871 1334.47 873.82 1333.45C876.72 1332.43 879.7 1331.57 882.77 1331.06C885.24 1330.64 887.72 1330.38 890.19 1330.3C891.47 1330.21 892.66 1330.21 893.94 1330.3C895.56 1330.38 897.27 1330.47 898.89 1330.64C900.51 1330.81 902.22 1331.06 903.84 1331.4C903.92 1331.4 904.01 1331.4 904.09 1331.49C904.77 1331.49 905.37 1331.57 905.88 1331.74C906.14 1331.74 906.39 1331.83 906.65 1331.91C906.73 1331.91 906.82 1332 906.91 1332C911.42 1333.19 915.77 1334.9 919.87 1337.02C923.02 1338.64 926.01 1340.6 928.74 1342.81C930.7 1344.35 932.49 1345.97 934.2 1347.67C935.99 1349.46 937.69 1351.33 939.23 1353.37C941.02 1355.67 942.72 1358.14 944.17 1360.7C945.62 1363.34 946.99 1365.98 948.01 1368.79C949.2 1371.94 950.14 1375.26 950.82 1378.58C951.08 1379.94 951.34 1381.3 951.51 1382.67C951.68 1384.28 951.85 1385.9 951.93 1387.61C952.02 1388.8 952.02 1389.9 951.93 1391.1V1391.69C951.93 1392.46 951.85 1393.31 951.76 1394.08C951.76 1394.42 951.68 1394.67 951.68 1395.01C951.68 1395.18 951.68 1395.44 951.59 1395.61C951.34 1398.08 950.91 1400.46 950.31 1402.85C949.72 1405.06 949.03 1407.28 948.18 1409.49C947.16 1412.13 945.88 1414.77 944.34 1417.24C942.47 1420.22 940.34 1423.12 937.95 1425.67C936.67 1427.12 935.22 1428.39 933.77 1429.67ZM843.46 1397.23C843.46 1398.16 843.46 1399.02 843.37 1399.95V1400.46C843.37 1400.89 843.29 1401.4 843.29 1401.83C843.29 1402 843.29 1402.25 843.2 1402.42C843.03 1404.55 842.6 1406.6 842.09 1408.64C841.07 1412.9 839.36 1416.9 837.15 1420.65C835.61 1423.29 833.74 1425.67 831.69 1427.88C829.39 1430.35 826.83 1432.57 824.01 1434.44C820.77 1436.65 817.19 1438.36 813.44 1439.64C810.79 1440.57 808.07 1441.17 805.25 1441.59C804.06 1441.76 802.78 1441.85 801.58 1441.93C800.05 1442.02 798.51 1442.02 796.98 1442.02C796.38 1442.02 795.7 1441.93 795.1 1441.93C794.85 1441.93 794.51 1441.85 794.25 1441.85C792.8 1441.76 791.35 1441.51 789.9 1441.25C786.49 1440.66 783.08 1439.64 779.84 1438.27C777.62 1437.34 775.4 1436.23 773.27 1434.95C770.88 1433.59 768.67 1431.97 766.53 1430.18C765.25 1429.08 763.98 1427.97 762.78 1426.69C760.65 1424.56 758.69 1422.18 756.98 1419.71C755.62 1417.67 754.34 1415.62 753.23 1413.41C752.12 1411.11 751.1 1408.72 750.33 1406.34C750.33 1406.25 750.33 1406.17 750.25 1406.08C749.99 1405.4 749.82 1404.81 749.65 1404.13V1403.96C749.14 1401.83 748.71 1399.7 748.37 1397.48C748.03 1394.84 747.94 1392.12 748.03 1389.39C748.11 1387.09 748.45 1384.71 748.88 1382.41C749.39 1379.94 750.07 1377.56 750.93 1375.26C751.78 1372.96 752.89 1370.75 754.08 1368.62C755.45 1366.23 757.15 1364.02 758.94 1361.89C760.22 1360.44 761.5 1359.16 762.95 1357.89C765.08 1356.01 767.39 1354.4 769.77 1352.95C772.16 1351.59 774.64 1350.39 777.19 1349.54C779.41 1348.78 781.63 1348.18 783.93 1347.75C785.21 1347.5 786.57 1347.33 787.85 1347.16C789.64 1346.99 791.44 1346.9 793.23 1346.9C794.59 1346.9 795.96 1346.99 797.23 1347.16C800.34 1347.48 803.56 1347.89 806.58 1348.7C808.87 1349.32 811.72 1350.31 814.46 1351.84C817.96 1353.8 821.54 1355.76 824.61 1358.31C826.14 1359.59 827.68 1360.95 829.04 1362.4C830.83 1364.27 832.54 1366.23 833.99 1368.36C836.38 1371.68 838.34 1375.26 839.96 1379.09C840.9 1381.39 841.67 1383.69 842.18 1386.07C842.52 1387.61 842.86 1389.22 843.12 1390.84C843.2 1391.78 843.29 1392.63 843.37 1393.57V1393.82C843.46 1394.76 843.46 1395.61 843.46 1396.55V1397.23ZM841.15 1340.09C839.62 1341.96 838.17 1343.92 836.89 1345.97C836.46 1346.65 836.04 1347.33 835.61 1348.01C835.44 1348.35 835.27 1348.61 835.1 1348.95C835.1 1349.03 835.01 1349.03 835.01 1349.12C835.01 1349.2 834.93 1349.2 834.93 1349.29C834.84 1349.46 834.76 1349.46 834.67 1349.37C834.33 1349.12 833.99 1348.78 833.65 1348.52C832.54 1347.58 831.43 1346.73 830.24 1345.88C828.19 1344.35 826.06 1342.99 823.84 1341.79C820.69 1340 817.45 1338.56 814.12 1337.28C811.99 1336.51 809.86 1335.83 807.64 1335.32C805.59 1334.81 803.46 1334.38 801.33 1334.13C800.05 1333.96 798.68 1333.79 797.32 1333.7C797.15 1333.7 796.89 1333.7 796.72 1333.62H796.47C796.3 1333.62 796.21 1333.53 796.13 1333.36C796.04 1333.19 796.04 1332.94 795.96 1332.77C795.78 1332.09 795.61 1331.4 795.53 1330.72C795.36 1330.38 795.36 1329.96 795.27 1329.62C795.27 1329.45 795.19 1329.28 795.19 1329.19C794.93 1328.08 794.76 1326.89 794.68 1325.78C794.59 1325.1 794.59 1324.51 794.51 1323.83C794.42 1322.63 794.34 1321.36 794.42 1320.16C794.42 1318.38 794.59 1316.67 794.76 1314.97C795.02 1312.5 795.53 1310.03 796.21 1307.73C797.06 1304.84 798.17 1302.03 799.62 1299.39C800.99 1296.75 802.69 1294.28 804.57 1291.98C807.13 1288.91 810.11 1286.19 813.44 1283.89C817.53 1281.08 822.05 1279.03 826.91 1277.67C829.56 1276.99 832.2 1276.48 834.93 1276.22C836.63 1276.05 838.34 1275.97 840.05 1276.05C841.67 1276.05 843.29 1276.22 844.91 1276.39C846.53 1276.56 848.92 1276.73 850.54 1277.16L850.88 1277.25C853.26 1277.84 855.65 1278.61 857.95 1279.63C861.96 1281.33 865.8 1283.46 869.21 1286.1C871.6 1287.89 873.73 1289.85 875.78 1291.98C877.82 1294.11 879.62 1296.41 881.24 1298.79C883.28 1301.77 884.9 1305.01 886.27 1308.41C887.2 1310.88 888.06 1313.44 888.57 1316.08C888.63 1316.42 888.487 1316.62 888.14 1316.67C887.72 1316.67 887.29 1316.76 886.86 1316.76C886.61 1316.76 886.35 1316.84 886.1 1316.84C884.65 1316.93 883.28 1317.1 881.92 1317.35C879.45 1317.69 876.97 1318.2 874.5 1318.89C871.86 1319.57 869.3 1320.42 866.82 1321.44C862.81 1323.06 858.98 1325.02 855.4 1327.4C852.58 1329.28 849.94 1331.32 847.38 1333.62C845.16 1335.66 843.12 1337.79 841.15 1340.09Z" fill="black"/>
<path d="M920.69 1404.32C919.77 1401.66 918.28 1399.21 916.28 1397.02C914.51 1395.09 912.31 1393.46 909.71 1392.17C906.76 1390.74 903.63 1390.02 900.42 1390.02C899.63 1390.02 898.81 1390.02 898 1390.22C895.59 1390.53 893.36 1391.22 891.42 1392.28C887.31 1394.42 884.31 1397.66 882.49 1401.95C881.27 1405.02 880.8 1408.23 881.08 1411.49C881.35 1414.89 882.46 1418.1 884.37 1421.05C886.45 1424.25 889.19 1426.76 892.51 1428.5C895.68 1430.17 899.09 1431.02 902.63 1431.02C903.26 1431.02 903.97 1431.02 904.62 1430.93C905.5 1430.84 906.51 1430.74 907.49 1430.44C911.1 1429.47 914.07 1427.74 916.59 1425.15C918.26 1423.39 919.6 1421.34 920.58 1418.99C921.25 1417.27 921.71 1415.42 921.89 1413.66C922.1 1411.83 921.96 1410.14 921.8 1408.7C921.61 1407.14 921.22 1405.64 920.69 1404.32ZM896.25 1416.28C895.01 1414.92 894.24 1413.28 894.05 1411.38C893.79 1408.86 894.48 1406.68 896.24 1404.93C897.27 1403.91 898.52 1403.34 899.89 1403.12C902.04 1402.76 903.95 1403.4 905.67 1404.74C907.02 1405.79 908.04 1407.26 908.58 1408.95C909.71 1412.43 908.5 1416.32 905.42 1418.12C904.37 1418.73 903.2 1419.04 902.01 1419.02C899.73 1418.97 897.82 1418.02 896.25 1416.28Z" fill="black"/>
<path d="M790.3 1381.01C788.04 1378.56 785.34 1376.7 782.28 1375.49C780.41 1374.75 778.43 1374.27 776.33 1374.08C774.77 1373.98 773.3 1374.01 771.96 1374.18C769.66 1374.46 767.49 1375.14 765.57 1376.15C762.66 1377.56 760.26 1379.64 758.44 1382.33C755.9 1386.01 754.76 1390.18 755.04 1394.74C755.14 1396.3 755.36 1397.67 755.7 1398.95C756.21 1400.85 757.06 1402.76 758.31 1404.85C759.48 1406.7 760.79 1408.26 762.32 1409.62C763.96 1411.06 765.65 1412.17 767.47 1412.99C770.42 1414.35 773.4 1415.02 776.51 1415.02C777.07 1415.02 777.63 1415 778.2 1414.96C781.01 1414.76 783.63 1413.99 785.95 1412.69C788.93 1411.1 791.35 1408.8 793.17 1405.84C795.04 1402.73 796 1399.27 796 1395.54C796 1393.46 795.71 1391.42 795.14 1389.4C794.1 1386.2 792.48 1383.38 790.3 1381.01ZM774.58 1401.94C772.52 1401.61 770.87 1400.54 769.6 1398.81C768.61 1397.47 768.05 1395.93 768 1394.21C767.95 1392.23 768.55 1390.49 769.83 1389.06C770.74 1388.04 771.92 1387.37 773.21 1387.15C775.91 1386.65 778.13 1387.61 779.99 1389.69C780.98 1390.79 781.56 1392.11 781.88 1393.58C781.98 1394.05 781.99 1394.53 782 1395.01C781.97 1397.39 781.13 1399.36 779.29 1400.74C777.88 1401.8 776.3 1402.21 774.58 1401.94Z" fill="black"/>
</g>
<defs>
<clipPath id="clip0_481_154">
<rect width="1500" height="1500" fill="white"/>
</clipPath>
</defs>
      <g clip-path="url(#clip0_497_1194)">
<path d="M379.667 654.812C432.345 471.574 618.472 401.981 699.114 390.653C740.985 382.718 849.655 375.215 949.364 408.675C980 418.956 1049.88 457.388 1091.92 499.818C1144.47 552.856 1272.97 732.052 1185.05 927.725C1097.12 1123.4 758.414 1092.29 612.749 1051.82C464.472 1010.63 314.48 881.563 379.667 654.812Z" fill="#AABBFF"/>
<path d="M449.293 747.204C454.734 531.068 585.306 432.345 649.911 410C432.292 459.565 365.296 655.455 364 747.204C377.99 984.871 584.496 1053.43 681 1058C601.498 1044.46 443.853 963.339 449.293 747.204Z" fill="#001647" fill-opacity="0.2"/>
<path d="M379.667 654.812C432.345 471.574 618.472 401.981 699.114 390.653C740.985 382.718 849.655 375.215 949.364 408.675C980 418.956 1049.88 457.388 1091.92 499.818C1144.47 552.856 1272.97 732.052 1185.05 927.725C1097.12 1123.4 758.414 1092.29 612.749 1051.82C464.472 1010.63 314.48 881.563 379.667 654.812Z" stroke="black" stroke-width="22" stroke-linecap="round"/>
</g>
<defs>
    <clipPath id="prefix__clip0_299_662"><path fill="#fff" d="M0 0h1500v1500H0z"/></clipPath>
</defs>
      <g clip-path="url(#clip0_624_3522)">
<path d="M822 818C849.062 818 871 796.062 871 769C871 741.938 849.062 720 822 720C794.938 720 773 741.938 773 769C773 796.062 794.938 818 822 818Z" fill="white" stroke="black" stroke-width="20" stroke-miterlimit="10"/>
<path d="M1012 818C1039.06 818 1061 796.062 1061 769C1061 741.938 1039.06 720 1012 720C984.938 720 963 741.938 963 769C963 796.062 984.938 818 1012 818Z" fill="white" stroke="black" stroke-width="20" stroke-miterlimit="10"/>
<path d="M809 770C816.18 770 822 764.18 822 757C822 749.82 816.18 744 809 744C801.82 744 796 749.82 796 757C796 764.18 801.82 770 809 770Z" fill="black"/>
<path d="M1024 770C1031.18 770 1037 764.18 1037 757C1037 749.82 1031.18 744 1024 744C1016.82 744 1011 749.82 1011 757C1011 764.18 1016.82 770 1024 770Z" fill="black"/>
<path d="M988.653 885.957H855.227C854.074 885.957 852.968 886.415 852.153 887.23C851.338 888.045 850.88 889.151 850.88 890.303C850.88 909.026 858.317 926.982 871.556 940.221C884.795 953.46 902.751 960.897 921.474 960.897H922.406C941.129 960.897 959.085 953.46 972.324 940.221C985.562 926.982 993 909.026 993 890.303C993 889.151 992.542 888.045 991.727 887.23C990.912 886.415 989.806 885.957 988.653 885.957Z" fill="white" stroke="black" stroke-width="20" stroke-miterlimit="10"/>
</g>
<defs>
<clipPath id="clip0_624_3522">
<rect width="1500" height="1500" fill="white"/>
</clipPath>
</defs>
      <g clip-path="url(#clip0_911_278)">
<path d="M741 865.42V871.56C741.01 872.669 740.781 873.767 740.33 874.78C739.07 877.64 736.99 877.78 736.99 877.78C735.893 878.033 734.754 878.046 733.651 877.818C732.548 877.59 731.507 877.127 730.6 876.46C727.96 874.35 721.36 856.25 721.36 856.25L708.65 876.46H700L717.8 848.25L712.21 836.66C711.84 835.888 711.265 835.233 710.547 834.767C709.828 834.301 708.996 834.043 708.14 834.02H708C707.225 833.94 706.442 834.054 705.721 834.351C705.001 834.647 704.365 835.118 703.87 835.72C702.98 836.61 702.66 839.5 702.66 839.5L700.88 839.63C700.634 837.881 700.59 836.109 700.75 834.35C700.862 833.001 701.324 831.705 702.09 830.59C702.61 829.783 703.325 829.12 704.169 828.664C705.014 828.208 705.96 827.972 706.92 827.98C708.535 827.979 710.11 828.479 711.43 829.41C712.762 830.35 713.801 831.646 714.43 833.15L719.69 846.2L731.13 828.8H739L723.2 853.31L727.14 862.63C727.14 862.63 730.14 871.63 734.45 871.63C738.76 871.63 739.16 865.41 739.16 865.41L741 865.42Z" fill="black"/>
</g>
<defs>
<clipPath id="clip0_911_278">
<rect width="1500" height="1500" fill="white"/>
</clipPath>
</defs>
      <g clip-path="url(#clip0_708_13)">
<path d="M526.588 452.032C528.924 458.185 532.252 464.16 536.498 469.928C575.426 522.803 691.48 558.196 827.167 553.326C934.075 549.489 1027.03 521.596 1078.8 482.775" stroke="black" stroke-width="22"/>
<path d="M571.42 473.294L538.139 508.93" stroke="black" stroke-width="22" stroke-miterlimit="10" stroke-linecap="round"/>
<path d="M631.776 506.409L611.801 549.693" stroke="black" stroke-width="22" stroke-miterlimit="10" stroke-linecap="round"/>
<path d="M704.266 522.27L698.137 571.787" stroke="black" stroke-width="22" stroke-miterlimit="10" stroke-linecap="round"/>
<path d="M788.906 531.422L789.701 579.229" stroke="black" stroke-width="22" stroke-miterlimit="10" stroke-linecap="round"/>
<path d="M876 525.064L880.79 574.728" stroke="black" stroke-width="22" stroke-miterlimit="10" stroke-linecap="round"/>
<path d="M958.136 510.924L971.371 559.035" stroke="black" stroke-width="22" stroke-miterlimit="10" stroke-linecap="round"/>
<path d="M1026.02 485.618L1053.98 526.941" stroke="black" stroke-width="22" stroke-miterlimit="10" stroke-linecap="round"/>
<path d="M711.94 381.541L669.138 415.004L754.914 456.956C786.09 456.451 856.04 454.579 886.429 451.127C916.817 447.675 946.703 430.594 957.848 422.485L912.882 387.272L890.772 360.146L852.07 352.844L816.711 388.83L811.119 369.892L779.2 357.196L748.101 362.456L711.94 381.541Z" fill="#AABBFF"/>
<path d="M754.823 451.145C758.386 440.393 766.661 423.631 780.081 411.559M882.17 449.083C878.062 439.675 870.922 425.659 859.411 414.501M670.743 416.037C678.291 403.405 696.028 378.1 722.448 377.672C724.832 377.634 727.122 377.712 729.323 377.895M780.081 411.559C789.433 403.145 801.285 397.009 815.783 396.774C818.147 396.736 820.438 396.825 822.658 397.03M780.081 411.559C771.884 400.903 758.35 380.305 729.323 377.895M953.095 422.563C946.826 410.677 929.573 387.795 908.089 385.052M859.411 414.501C864.186 404.755 879.655 385.169 903.328 384.785C904.936 384.759 906.524 384.852 908.089 385.052M859.411 414.501C850.192 405.565 838.17 398.463 822.658 397.03M729.323 377.895C734.108 368.72 747.587 350.309 768.512 349.97C795.461 349.534 817.557 375.809 822.658 397.03M908.089 385.052C903.334 374.267 889.367 351.713 871.612 352C849.419 352.36 832.274 370.674 822.592 392.964" stroke="black" stroke-width="22" stroke-linecap="round"/>
</g>
<defs>
<clipPath id="clip0_708_13">
<rect width="1500" height="1500" fill="white"/>
</clipPath>
</defs>
      
    </g>
    </svg>