<svg
      xmlns="http://www.w3.org/2000/svg"
      preserveAspectRatio="xMidYMin meet"
      fill="none"
      viewBox="0 0 1500 1500"
    >
      <g>
      <path fill="url(#prefix__paint0_linear_53_30459)" d="M0 0h1500v1500H0z"/><defs><linearGradient id="prefix__paint0_linear_53_30459" x1="0" y1="0" x2="1500" y2="1500" gradientUnits="userSpaceOnUse">
<stop stop-color="#FFCB9F"/>
<stop offset="1" stop-color="#FF7F11"/>
</linearGradient></defs>
      <g clip-path="url(#clip0_483_539)">
<path d="M773 1011.5C543.4 1029.9 398.667 1353.5 355 1513H1138.5C1075.7 1127 868.667 1017.83 773 1011.5Z" fill="#53B6F9"/>
<path d="M453.835 1435.59L472.342 1412.37L459.531 1385.55C459.308 1385.07 459.231 1384.54 459.311 1384.01C459.391 1383.49 459.624 1383.01 459.981 1382.62C460.337 1382.23 460.801 1381.95 461.313 1381.82C461.826 1381.7 462.365 1381.73 462.861 1381.91L490.69 1392.33L512.188 1372.14C512.574 1371.78 513.059 1371.54 513.58 1371.46C514.102 1371.37 514.637 1371.44 515.118 1371.66C515.599 1371.88 516.004 1372.24 516.282 1372.69C516.56 1373.14 516.698 1373.66 516.679 1374.19L515.37 1403.59L541.482 1417.75C543.389 1418.78 543.009 1422.06 540.916 1422.65L512.31 1430.55L506.946 1459.49C506.847 1460.01 506.594 1460.49 506.221 1460.87C505.849 1461.25 505.372 1461.5 504.852 1461.61C504.333 1461.71 503.794 1461.66 503.303 1461.46C502.813 1461.26 502.395 1460.91 502.101 1460.47L485.701 1435.96L456.258 1439.85C455.734 1439.91 455.203 1439.82 454.733 1439.58C454.262 1439.34 453.873 1438.97 453.614 1438.51C453.355 1438.05 453.238 1437.53 453.278 1437C453.317 1436.47 453.512 1435.97 453.837 1435.55L453.835 1435.59Z" fill="white"/>
<path d="M594.58 1160.2L613.817 1139.8L603.606 1121.28C603.429 1120.95 603.395 1120.55 603.509 1120.14C603.623 1119.73 603.879 1119.33 604.245 1118.98C604.611 1118.63 605.071 1118.35 605.567 1118.18C606.062 1118.01 606.571 1117.95 607.029 1118.02L632.673 1121.85L654.528 1103.33C654.921 1103 655.398 1102.74 655.899 1102.6C656.4 1102.46 656.902 1102.44 657.342 1102.53C657.783 1102.63 658.141 1102.84 658.372 1103.14C658.603 1103.44 658.697 1103.82 658.641 1104.23L655.271 1126.8L679.016 1133.73C680.75 1134.24 680.152 1136.79 678.124 1137.55L650.416 1147.76L643.233 1170.58C643.101 1170.99 642.827 1171.39 642.446 1171.73C642.065 1172.07 641.594 1172.34 641.093 1172.5C640.593 1172.65 640.085 1172.69 639.635 1172.61C639.185 1172.53 638.812 1172.33 638.565 1172.04L624.782 1155.79L596.57 1163.09C596.069 1163.21 595.572 1163.22 595.143 1163.1C594.714 1162.99 594.372 1162.77 594.16 1162.45C593.947 1162.14 593.874 1161.76 593.95 1161.35C594.026 1160.95 594.247 1160.54 594.585 1160.17L594.58 1160.2Z" fill="white"/>
<path d="M749.5 1019.5C536 1134 457.448 1414.63 443.159 1511H353.699C350.414 1508.73 357.049 1471.27 409.87 1339.62C462.691 1207.98 569.086 1113.24 605.384 1082.33L674 1033.5L749.5 1019.5Z" fill="#001647" fill-opacity="0.2"/>
<path d="M940.224 1185.75L950.468 1165.46L936.764 1140.6C936.523 1140.15 936.383 1139.67 936.363 1139.2C936.342 1138.73 936.441 1138.29 936.647 1137.96C936.853 1137.62 937.157 1137.39 937.521 1137.29C937.884 1137.2 938.291 1137.25 938.69 1137.43L961.085 1148.06L974.032 1130.66C974.265 1130.35 974.591 1130.16 974.967 1130.1C975.344 1130.05 975.754 1130.13 976.147 1130.35C976.54 1130.57 976.898 1130.91 977.175 1131.33C977.452 1131.75 977.636 1132.23 977.703 1132.71L981.259 1159.32L1002.95 1173.27C1004.53 1174.29 1004.75 1177.25 1003.28 1177.69L983.129 1183.65L983.585 1209.67C983.591 1210.14 983.476 1210.56 983.255 1210.89C983.035 1211.21 982.719 1211.43 982.347 1211.5C981.975 1211.57 981.564 1211.5 981.167 1211.3C980.769 1211.09 980.404 1210.76 980.116 1210.35L964.085 1187.43L942.691 1189.71C942.309 1189.75 941.898 1189.64 941.51 1189.4C941.122 1189.17 940.773 1188.81 940.509 1188.38C940.245 1187.96 940.076 1187.47 940.025 1187C939.973 1186.52 940.041 1186.07 940.22 1185.71L940.224 1185.75Z" fill="white"/>
<path d="M353.5 1519.5C365.5 1454.33 414.5 1313.6 483.5 1219C530.101 1155.11 577.468 1101.29 629.141 1059.66C710.278 994.299 826.037 996.323 905.02 1064.27C1000.08 1146.05 1103.44 1290.29 1142.5 1519.5M1013.5 1319C1024.83 1354.33 1048.1 1443.9 1050.5 1519.5M667 1361.5C661.167 1392.33 650.3 1467.1 653.5 1519.5" stroke="black" stroke-width="22" stroke-linecap="round"/>
<path d="M939.372 1459.98L925.446 1433.75L895.742 1434.81C895.215 1434.82 894.695 1434.68 894.248 1434.4C893.801 1434.12 893.448 1433.71 893.232 1433.23C893.017 1432.74 892.949 1432.21 893.038 1431.69C893.127 1431.17 893.367 1430.69 893.73 1430.3L914.378 1408.93L904.433 1381.17C904.256 1380.67 904.231 1380.13 904.361 1379.62C904.491 1379.11 904.77 1378.65 905.163 1378.29C905.556 1377.94 906.044 1377.71 906.567 1377.63C907.09 1377.56 907.624 1377.64 908.101 1377.87L934.546 1390.79L957.936 1372.48C959.646 1371.14 962.504 1372.8 962.21 1374.95L958.052 1404.34L982.458 1420.79C982.896 1421.09 983.234 1421.51 983.431 1422.01C983.628 1422.5 983.674 1423.04 983.564 1423.56C983.453 1424.07 983.19 1424.55 982.81 1424.92C982.429 1425.29 981.947 1425.53 981.425 1425.63L952.407 1430.9L944.242 1459.45C944.091 1459.96 943.793 1460.41 943.386 1460.74C942.98 1461.08 942.483 1461.29 941.958 1461.34C941.434 1461.4 940.905 1461.29 940.438 1461.05C939.971 1460.8 939.588 1460.42 939.336 1459.96L939.372 1459.98Z" fill="white"/>
<path d="M781.868 1306.32L777.304 1276.97L748.893 1268.24C748.39 1268.08 747.945 1267.77 747.615 1267.36C747.285 1266.95 747.085 1266.45 747.039 1265.92C746.994 1265.4 747.105 1264.87 747.36 1264.41C747.614 1263.94 748 1263.57 748.468 1263.32L774.978 1249.9L774.676 1220.41C774.673 1219.88 774.826 1219.36 775.116 1218.92C775.407 1218.48 775.822 1218.14 776.309 1217.93C776.796 1217.72 777.333 1217.67 777.852 1217.77C778.371 1217.87 778.849 1218.12 779.225 1218.49L799.977 1239.36L828.074 1229.73C830.127 1229.03 832.285 1231.53 831.301 1233.47L817.746 1259.87L835.414 1283.41C835.73 1283.83 835.912 1284.34 835.936 1284.87C835.961 1285.4 835.828 1285.93 835.553 1286.38C835.279 1286.83 834.876 1287.2 834.395 1287.42C833.914 1287.64 833.378 1287.72 832.854 1287.64L803.711 1283.11L786.641 1307.41C786.333 1307.84 785.904 1308.17 785.41 1308.35C784.916 1308.54 784.378 1308.57 783.865 1308.45C783.351 1308.33 782.885 1308.06 782.524 1307.68C782.164 1307.29 781.926 1306.81 781.84 1306.29L781.868 1306.32Z" fill="white"/>
<path d="M704.849 1508.19L710.763 1480.06L689.852 1466.16C689.483 1465.91 689.211 1465.54 689.072 1465.09C688.932 1464.64 688.93 1464.13 689.067 1463.64C689.203 1463.14 689.472 1462.67 689.838 1462.3C690.205 1461.92 690.653 1461.65 691.127 1461.52L717.797 1454.49L727.33 1427.09C727.502 1426.6 727.803 1426.16 728.193 1425.81C728.583 1425.46 729.045 1425.22 729.521 1425.13C729.997 1425.04 730.466 1425.1 730.868 1425.29C731.27 1425.49 731.587 1425.82 731.778 1426.24L742.243 1449.83L768.985 1446.64C770.938 1446.41 771.916 1449.16 770.448 1450.76L750.329 1472.46L757.322 1497.89C757.445 1498.35 757.428 1498.86 757.273 1499.36C757.118 1499.85 756.832 1500.31 756.452 1500.68C756.071 1501.04 755.613 1501.29 755.136 1501.4C754.659 1501.51 754.185 1501.47 753.773 1501.29L730.853 1491.14L708.484 1510.18C708.083 1510.51 707.616 1510.73 707.141 1510.8C706.665 1510.87 706.203 1510.79 705.813 1510.57C705.423 1510.36 705.121 1510.01 704.947 1509.58C704.773 1509.15 704.734 1508.65 704.835 1508.15L704.849 1508.19Z" fill="white"/>
</g>
<defs>
<clipPath id="clip0_483_539">
<rect width="1500" height="1500" fill="white"/>
</clipPath>
</defs>
      <g clip-path="url(#clip0_497_1194)">
<path d="M379.667 654.812C432.345 471.574 618.472 401.981 699.114 390.653C740.985 382.718 849.655 375.215 949.364 408.675C980 418.956 1049.88 457.388 1091.92 499.818C1144.47 552.856 1272.97 732.052 1185.05 927.725C1097.12 1123.4 758.414 1092.29 612.749 1051.82C464.472 1010.63 314.48 881.563 379.667 654.812Z" fill="#AABBFF"/>
<path d="M449.293 747.204C454.734 531.068 585.306 432.345 649.911 410C432.292 459.565 365.296 655.455 364 747.204C377.99 984.871 584.496 1053.43 681 1058C601.498 1044.46 443.853 963.339 449.293 747.204Z" fill="#001647" fill-opacity="0.2"/>
<path d="M379.667 654.812C432.345 471.574 618.472 401.981 699.114 390.653C740.985 382.718 849.655 375.215 949.364 408.675C980 418.956 1049.88 457.388 1091.92 499.818C1144.47 552.856 1272.97 732.052 1185.05 927.725C1097.12 1123.4 758.414 1092.29 612.749 1051.82C464.472 1010.63 314.48 881.563 379.667 654.812Z" stroke="black" stroke-width="22" stroke-linecap="round"/>
</g>
<defs>
    <clipPath id="prefix__clip0_299_662"><path fill="#fff" d="M0 0h1500v1500H0z"/></clipPath>
</defs>
      <g clip-path="url(#clip0_624_3503)">
<path d="M820.579 731.479C807.38 731.491 794.726 736.74 785.393 746.073C776.06 755.406 770.811 768.06 770.799 781.259C770.855 783.107 771.629 784.86 772.957 786.148C774.284 787.435 776.06 788.155 777.909 788.155C779.758 788.155 781.534 787.435 782.861 786.148C784.188 784.86 784.962 783.107 785.019 781.259C784.954 776.549 785.826 771.872 787.584 767.502C789.342 763.132 791.951 759.154 795.259 755.8C798.567 752.446 802.509 749.783 806.855 747.966C811.201 746.148 815.865 745.212 820.575 745.212C825.286 745.212 829.95 746.148 834.296 747.966C838.642 749.783 842.584 752.446 845.892 755.8C849.2 759.154 851.809 763.132 853.567 767.502C855.325 771.872 856.197 776.549 856.132 781.259C856.132 786.917 853.885 792.343 849.884 796.344C845.883 800.345 840.457 802.592 834.799 802.592C829.141 802.592 823.715 800.345 819.714 796.344C815.713 792.343 813.465 786.917 813.465 781.259C813.438 780.308 813.599 779.361 813.939 778.472C814.284 777.582 814.806 776.77 815.472 776.086C816.302 775.229 817.335 774.595 818.474 774.243C819.613 773.89 820.823 773.83 821.992 774.067C823.161 774.305 824.251 774.833 825.162 775.603C826.073 776.373 826.776 777.36 827.205 778.472C827.551 779.36 827.714 780.307 827.686 781.259C827.686 783.146 828.435 784.955 829.769 786.289C831.103 787.623 832.912 788.372 834.799 788.372C836.685 788.372 838.495 787.623 839.829 786.289C841.163 784.955 841.912 783.146 841.912 781.259C841.912 775.601 839.665 770.175 835.664 766.174C831.663 762.173 826.237 759.926 820.579 759.926C814.921 759.926 809.495 762.173 805.494 766.174C801.493 770.175 799.245 775.601 799.245 781.259C799.245 790.688 802.991 799.731 809.659 806.399C816.326 813.067 825.369 816.812 834.799 816.812C844.228 816.812 853.271 813.067 859.939 806.399C866.606 799.731 870.352 790.688 870.352 781.259C870.34 768.062 865.092 755.408 855.761 746.075C846.429 736.743 833.776 731.493 820.579 731.479Z" fill="black" stroke="black" stroke-width="5"/>
<path d="M1011.91 731.479C998.714 731.491 986.06 736.74 976.727 746.073C967.394 755.406 962.145 768.06 962.133 781.259C962.189 783.107 962.963 784.86 964.29 786.148C965.618 787.435 967.394 788.155 969.243 788.155C971.092 788.155 972.868 787.435 974.195 786.148C975.522 784.86 976.296 783.107 976.353 781.259C976.288 776.549 977.16 771.872 978.918 767.502C980.676 763.132 983.285 759.154 986.593 755.8C989.901 752.446 993.843 749.783 998.189 747.966C1002.53 746.148 1007.2 745.212 1011.91 745.212C1016.62 745.212 1021.28 746.148 1025.63 747.966C1029.98 749.783 1033.92 752.446 1037.23 755.8C1040.53 759.154 1043.14 763.132 1044.9 767.502C1046.66 771.872 1047.53 776.549 1047.47 781.259C1047.47 786.917 1045.22 792.343 1041.22 796.344C1037.22 800.345 1031.79 802.592 1026.13 802.592C1020.47 802.592 1015.05 800.345 1011.05 796.344C1007.05 792.343 1004.8 786.917 1004.8 781.259C1004.76 780.067 1005.02 778.884 1005.56 777.82C1006.1 776.756 1006.9 775.845 1007.89 775.171C1008.87 774.497 1010.01 774.081 1011.2 773.963C1012.38 773.844 1013.58 774.026 1014.68 774.492C1015.56 774.864 1016.36 775.41 1017.02 776.097C1017.68 776.785 1018.2 777.599 1018.54 778.492C1018.88 779.38 1019.05 780.327 1019.02 781.279C1019.02 783.166 1019.77 784.975 1021.1 786.309C1022.44 787.643 1024.25 788.392 1026.13 788.392C1028.02 788.392 1029.83 787.643 1031.16 786.309C1032.5 784.975 1033.25 783.166 1033.25 781.279C1033.25 775.621 1031 770.195 1027 766.194C1023 762.193 1017.57 759.946 1011.91 759.946C1006.25 759.946 1000.83 762.193 996.828 766.194C992.827 770.195 990.579 775.621 990.579 781.279C990.579 790.708 994.325 799.751 1000.99 806.419C1007.66 813.087 1016.7 816.832 1026.13 816.832C1035.56 816.832 1044.61 813.087 1051.27 806.419C1057.94 799.751 1061.69 790.708 1061.69 781.279C1061.67 768.081 1056.43 755.428 1047.09 746.095C1037.76 736.763 1025.11 731.513 1011.91 731.499V731.479Z" fill="black" stroke="black" stroke-width="5"/>
<path d="M921.5 970C930.895 970 940.078 967.214 947.89 961.995C955.701 956.775 961.789 949.357 965.384 940.677C968.979 931.998 969.92 922.447 968.087 913.233C966.254 904.019 961.731 895.555 955.088 888.912C948.445 882.269 939.981 877.746 930.767 875.913C921.553 874.08 912.002 875.021 903.323 878.616C894.643 882.211 887.225 888.299 882.005 896.11C876.786 903.922 874 913.105 874 922.5C874 928.738 875.229 934.914 877.616 940.677C880.003 946.44 883.502 951.677 887.912 956.088C892.323 960.498 897.56 963.997 903.323 966.384C909.085 968.771 915.262 970 921.5 970Z" fill="white" stroke="black" stroke-width="22" stroke-miterlimit="10" stroke-linecap="round"/>
</g>
<defs>
<clipPath id="clip0_624_3503">
<rect width="1500" height="1500" fill="white"/>
</clipPath>
</defs>
      <g clip-path="url(#clip0_877_2891)">
<path opacity="0.5" d="M720 750.438C720 722.417 743.895 701.078 770.199 705.609C796.226 710.091 822.774 710.091 848.801 705.609C875.105 701.078 899 722.417 899 750.438V774.93C899 825.227 860.214 866 812.37 866H806.63C758.786 866 720 825.227 720 774.93V750.438Z" fill="#FF6247"/>
<path opacity="0.5" d="M937 750.438C937 722.417 960.762 701.078 986.919 705.609C1012.8 710.091 1039.2 710.091 1065.08 705.609C1091.24 701.078 1115 722.417 1115 750.438V774.93C1115 825.227 1076.43 866 1028.85 866H1023.15C975.569 866 937 825.227 937 774.93V750.438Z" fill="#FF6247"/>
<path d="M555 792C555 797.523 559.477 802 565 802C570.523 802 575 797.523 575 792H555ZM720 747L595 747L595 767L720 767L720 747ZM555 787V792H575V787H555ZM595 747C572.909 747 555 764.909 555 787H575C575 775.955 583.954 767 595 767L595 747Z" fill="black"/>
<path d="M956.85 721.662C956.85 721.662 956.298 703.515 996.284 698.54L1068.96 850.236C1068.96 850.236 1054.94 866.613 1025.72 865.696L956.85 721.662Z" fill="white" fill-opacity="0.3"/>
<path d="M740.63 724.24C740.63 724.24 740.078 706.416 780.064 701.53L852.741 850.523C852.741 850.523 838.725 866.607 809.505 865.706L740.63 724.24Z" fill="white" fill-opacity="0.3"/>
<path d="M1009.77 706.801C1009.77 706.801 1006.07 709.846 1019.83 701.031L1084.46 832.685C1084.46 832.685 1088.66 838.122 1077.47 840.432L1009.77 706.801Z" fill="white" fill-opacity="0.3"/>
<path d="M793.546 709.643C793.546 709.643 789.847 712.634 803.615 703.975L868.238 833.283C868.238 833.283 872.442 838.623 861.249 840.892L793.546 709.643Z" fill="white" fill-opacity="0.3"/>
<path d="M937.905 788.269C944.913 829.009 980.328 860 1022.96 860H1028.68C1076.35 860 1115 821.253 1115 773.455V744.18C1115 717.552 1091.19 699.273 1064.98 701.579C1039.05 702.839 1012.6 702.839 986.664 701.579C962.761 699.652 940.855 714.173 937.184 737.31C936.83 739.543 936.645 741.837 936.645 744.18V773.455C936.645 778.506 937.077 783.455 937.905 788.269ZM937.905 788.269L937.119 787.669C926.202 779.335 910.993 779.583 900.355 788.269V788.269M902 751H933.5M772.018 701.579C797.951 702.839 824.403 702.839 850.336 701.579C876.545 699.273 900.355 717.552 900.355 744.18V773.455C900.355 821.253 861.709 860 814.037 860H808.318C760.646 860 722 821.253 722 773.455V744.18C722 717.552 745.809 699.273 772.018 701.579Z" stroke="black" stroke-width="20" stroke-linecap="round"/>
</g>
<defs>
<clipPath id="clip0_877_2891">
<rect width="1500" height="1500" fill="white"/>
</clipPath>
</defs>
      <g clip-path="url(#clip0_797_1838)">
<path d="M778.32 618.992C732.316 652.118 694.23 627.98 679.668 610.456C679.157 609.841 678.159 610.009 677.884 610.761C669.528 633.659 642.971 668.377 597.671 637.802C597.105 637.42 596.305 637.664 596.101 638.316C588.493 662.622 563.234 699.839 518.947 665.637C518.326 665.158 517.378 665.497 517.267 666.274C513.621 691.674 494.316 732.913 443.408 708.441C442.916 708.205 442.306 708.379 442.049 708.86C431.681 728.28 402.873 756.444 366.411 720.409C366.162 720.163 365.804 720.049 365.462 720.128C345.832 724.651 302.407 716.493 310.32 670.989C310.414 670.452 310.08 669.914 309.548 669.792C285.64 664.323 254.684 637.693 284.948 590.845C285.245 590.386 285.146 589.761 284.698 589.447C265.719 576.144 239.77 542.719 281.101 510.198C281.568 509.831 281.652 509.135 281.258 508.691C265.973 491.441 257.362 445.131 303.621 422.916C304.102 422.685 304.331 422.088 304.13 421.593C278.525 358.362 310.831 340.761 353.923 334.65C354.5 334.568 354.887 333.983 354.767 333.412C339.785 262.041 399.108 252.25 433.313 257.799C433.935 257.9 434.485 257.378 434.477 256.747C433.614 190.873 488.629 193.994 517.914 207.007C518.486 207.262 519.149 206.909 519.311 206.303C534.019 151.325 591.46 165.03 615.936 181.277C616.484 181.641 617.229 181.359 617.459 180.742C637.478 127.018 685.224 145.62 707.619 162.333C708.097 162.69 708.783 162.528 709.096 162.019C741.06 110.016 788.168 134.291 806.283 154.678C806.677 155.121 807.373 155.109 807.786 154.684C848.463 112.933 885.946 142.547 900.357 163.546C900.704 164.051 901.43 164.109 901.888 163.702C944.488 125.847 976.412 157.642 987.575 179.166C987.82 179.638 988.404 179.823 988.894 179.614C1034.73 160.09 1050.15 192.591 1052.37 212.628C1052.44 213.306 1053.18 213.711 1053.81 213.451C1099.59 194.592 1115.79 228.48 1118.38 248.933C1118.45 249.513 1119.02 249.901 1119.59 249.798C1170.35 240.711 1177.53 276.49 1174.69 296.774C1174.6 297.409 1175.14 297.963 1175.78 297.935C1222.29 295.882 1223.42 330.149 1217.87 348.801C1217.69 349.419 1218.15 350.052 1218.79 350.113C1265.88 354.579 1260.1 389.775 1250.91 407.714C1250.68 408.168 1250.84 408.73 1251.26 409.021C1293.6 438.395 1274.36 468.139 1258.73 479.96C1258.31 480.273 1258.22 480.859 1258.48 481.306C1281.04 519.674 1258.36 536.792 1244.61 544.854C1244.05 545.185 1243.96 545.975 1244.42 546.449C1277.86 581.608 1253.39 610.387 1232.24 617.268C1231.8 617.41 1231.52 617.843 1231.53 618.302C1233.35 668.841 1174.73 666.767 1160.03 643.385C1159.73 642.906 1159.08 642.756 1158.6 643.047C1113.14 670.393 1078.93 643.457 1066.69 624.601C1066.33 624.046 1065.54 623.996 1065.08 624.475C1029.07 662.135 988.776 640.543 972.247 624.25C971.834 623.842 971.159 623.886 970.769 624.316C938.22 660.212 898.794 639.713 882.265 624.229C881.842 623.832 881.169 623.893 880.789 624.331C847.162 663.14 799.805 637.39 779.595 619.045C779.241 618.723 778.708 618.713 778.32 618.992Z" fill="#4AEEB9"/>
<path d="M778.32 618.992C732.316 652.118 694.23 627.98 679.668 610.456C679.157 609.841 678.159 610.009 677.884 610.761C669.528 633.659 642.971 668.377 597.671 637.802C597.105 637.42 596.305 637.664 596.101 638.316C588.493 662.622 563.234 699.839 518.947 665.637C518.326 665.158 517.378 665.497 517.267 666.274C513.621 691.674 494.316 732.913 443.408 708.441C442.916 708.205 442.306 708.379 442.049 708.86C431.681 728.28 402.873 756.444 366.411 720.409C366.162 720.163 365.804 720.049 365.462 720.128C345.832 724.651 302.407 716.493 310.32 670.989C310.414 670.452 310.08 669.914 309.548 669.792C285.64 664.323 254.684 637.693 284.948 590.845C285.245 590.386 285.146 589.761 284.698 589.447C265.719 576.144 239.77 542.719 281.101 510.198C281.568 509.831 281.652 509.135 281.258 508.691C265.973 491.441 257.362 445.131 303.621 422.916C304.102 422.685 304.331 422.088 304.13 421.593C278.525 358.362 310.831 340.761 353.923 334.65C354.5 334.568 354.887 333.983 354.767 333.412C339.785 262.041 399.108 252.25 433.313 257.799C433.935 257.9 434.485 257.378 434.477 256.747C433.614 190.873 488.629 193.994 517.914 207.007C518.486 207.262 519.149 206.909 519.311 206.303C534.019 151.325 591.46 165.03 615.936 181.277C616.484 181.641 617.229 181.359 617.459 180.742C637.478 127.018 685.224 145.62 707.619 162.333C708.097 162.69 708.783 162.528 709.096 162.019C741.06 110.016 788.168 134.291 806.283 154.678C806.677 155.121 807.373 155.109 807.786 154.684C848.463 112.933 885.946 142.547 900.357 163.546C900.704 164.051 901.43 164.109 901.888 163.702C944.488 125.847 976.412 157.642 987.575 179.166C987.82 179.638 988.404 179.823 988.894 179.614C1034.73 160.09 1050.15 192.591 1052.37 212.628C1052.44 213.306 1053.18 213.711 1053.81 213.451C1099.59 194.592 1115.79 228.48 1118.38 248.933C1118.45 249.513 1119.02 249.901 1119.59 249.798C1170.35 240.711 1177.53 276.49 1174.69 296.774C1174.6 297.409 1175.14 297.963 1175.78 297.935C1222.29 295.882 1223.42 330.149 1217.87 348.801C1217.69 349.419 1218.15 350.052 1218.79 350.113C1265.88 354.579 1260.1 389.775 1250.91 407.714C1250.68 408.168 1250.84 408.73 1251.26 409.021C1293.6 438.395 1274.36 468.139 1258.73 479.96C1258.31 480.273 1258.22 480.859 1258.48 481.306C1281.04 519.674 1258.36 536.792 1244.61 544.854C1244.05 545.185 1243.96 545.975 1244.42 546.449C1277.86 581.608 1253.39 610.387 1232.24 617.268C1231.8 617.41 1231.52 617.843 1231.53 618.302C1233.35 668.841 1174.73 666.767 1160.03 643.385C1159.73 642.906 1159.08 642.756 1158.6 643.047C1113.14 670.393 1078.93 643.457 1066.69 624.601C1066.33 624.046 1065.54 623.996 1065.08 624.475C1029.07 662.135 988.776 640.543 972.247 624.25C971.834 623.842 971.159 623.886 970.769 624.316C938.22 660.212 898.794 639.713 882.265 624.229C881.842 623.832 881.169 623.893 880.789 624.331C847.162 663.14 799.805 637.39 779.595 619.045C779.241 618.723 778.708 618.713 778.32 618.992Z" stroke="black" stroke-width="22" stroke-linecap="round"/>
<path d="M620.986 645.219C614.221 646.292 605.377 646.031 596.827 643.677L586.5 660L566.932 682.993C566.67 683.3 566.25 683.42 565.865 683.297L529.483 671.655C529.179 671.557 528.848 671.611 528.59 671.798L512.5 683.5L473.344 715.717C473.125 715.897 472.84 715.976 472.56 715.934L443.499 711.575C443.185 711.528 442.868 711.632 442.643 711.857L422.254 732.246C422.09 732.41 421.874 732.512 421.643 732.535L391.352 735.466C391.124 735.488 390.896 735.431 390.705 735.305L366.157 719.103C366.053 719.035 365.938 718.987 365.817 718.96L322.49 709.606C322.182 709.539 321.923 709.331 321.792 709.044L306.037 674.581C306.012 674.527 305.983 674.475 305.949 674.427L273.273 627.393C273.1 627.145 273.05 626.831 273.135 626.541L282.871 593.44C282.953 593.161 282.909 592.859 282.751 592.615L261.16 559.248C261.056 559.086 261 558.897 261 558.705V528.473C261 528.174 261.134 527.89 261.366 527.7L280.066 512.356C280.336 512.135 280.47 511.789 280.422 511.444L273.057 458.908C273.021 458.646 273.088 458.382 273.246 458.17L302.261 419.321C302.414 419.115 302.483 418.858 302.452 418.603L296.073 365.603C296.028 365.232 296.193 364.868 296.501 364.658L336.932 337.047C336.977 337.016 337.02 336.981 337.06 336.943L348.81 325.682C348.934 325.563 349.026 325.413 349.076 325.248L359.436 290.713C359.478 290.573 359.551 290.443 359.648 290.334L380.275 267.252C380.421 267.089 380.617 266.978 380.832 266.936L431.689 257.156C432.16 257.065 432.5 256.653 432.5 256.174V240.36C432.5 240.127 432.581 239.902 432.729 239.723L463.2 202.863C463.39 202.633 463.673 202.5 463.971 202.5H516.621C516.865 202.5 517.101 202.411 517.284 202.248L556.133 167.825C556.365 167.62 556.678 167.533 556.981 167.591L614.54 178.413C614.831 178.468 615.132 178.391 615.361 178.202L656.586 144.178C656.844 143.965 657.193 143.895 657.514 143.993L700.071 156.972C710.689 138.773 730.764 134.451 749.613 136.447L764.693 127.48C765.147 127.21 765.732 127.34 766.03 127.775L774.989 140.892C775.559 141.727 774.664 142.818 773.726 142.443C766.631 139.602 758.25 137.361 749.613 136.447L710.38 159.774C710.138 159.918 709.846 159.953 709.577 159.871L700.071 156.972C696.874 162.451 694.534 169.189 693.343 177.391C692.167 185.491 684.959 191.879 676.775 191.729C645.377 191.153 606.18 204.072 610.724 253.904C611.417 261.498 606.443 268.723 598.986 270.318C565.254 277.532 542.435 294.978 558.009 342.104C560.214 348.779 557.262 356.127 551.416 360.031C523.521 378.656 523.528 407.868 531.92 426.637C535.118 433.79 534.243 443.005 528.95 448.782C507.316 472.397 518.942 495.408 533.299 509.37C538.474 514.403 540.031 522.447 536.842 528.923C520.715 561.668 537.504 582.722 556.295 591.666C562.735 594.731 567.121 601.466 567.364 608.594C568.067 629.222 582.006 639.595 596.827 643.677L601.55 636.212C601.81 635.801 602.329 635.636 602.778 635.823L621.148 643.451C622.041 643.822 621.942 645.067 620.986 645.219Z" fill="#001647" fill-opacity="0.2"/>
</g>
<defs>
<clipPath id="clip0_797_1838">
<rect width="1500" height="1500" fill="white"/>
</clipPath>
</defs>
      
    </g>
    </svg>