<svg
      xmlns="http://www.w3.org/2000/svg"
      preserveAspectRatio="xMidYMin meet"
      fill="none"
      viewBox="0 0 1500 1500"
    >
      <g>
      <path fill="url(#prefix__paint0_linear_53_28789)" d="M0 0h1500v1500H0z"/><defs><linearGradient id="prefix__paint0_linear_53_28789" x1="1500" y1="1500" x2="0" y2="0" gradientUnits="userSpaceOnUse">
<stop stop-color="#FFD130"/>
<stop offset="1" stop-color="#FFEEDB"/>
</linearGradient></defs>
      <g clip-path="url(#clip0_481_146)">
<path d="M380.5 1417.5L349.5 1509L1140 1510L1111 1376.5L1038 1230L991.5 1152C965.167 1110.5 892.5 1024.6 812.5 1013C732.5 1001.4 660.167 1039.17 634 1059.5L568.5 1115.5L465 1243.5L380.5 1417.5Z" fill="white"/>
<path d="M409.87 1339.62C462.691 1207.98 569.086 1113.24 605.384 1082.33L632.5 1058L637.5 1059.48C599.917 1079.63 651 1067.5 648.91 1093.5L659.5 1099.5L764.5 1175C714.1 1177.8 656.5 1131.81 634 1108.47C506.332 1241.92 454.501 1434.51 443.159 1511H353.699C350.414 1508.73 357.049 1471.27 409.87 1339.62Z" fill="#001647" fill-opacity="0.2"/>
<path d="M842 1179L826.5 1505H806L819 1213.5L824 1160.5L871.5 1156.5C874.333 1159.5 879.4 1166.7 877 1171.5C874.6 1176.3 852.667 1178.5 842 1179Z" fill="#001647" fill-opacity="0.2"/>
<path d="M804 1171.5L782.5 1505H798.5L817.5 1158L794 1147.5C788.667 1150.5 779.2 1157.3 784 1160.5C788.8 1163.7 799.333 1169.17 804 1171.5Z" fill="#001647" fill-opacity="0.2"/>
<path d="M887.5 1154.5C899.9 1168.5 916.667 1168.33 921 1167.5L899 1147.5L887.5 1154.5Z" fill="#001647" fill-opacity="0.2"/>
<path d="M821.5 1160L798 1507.5H936L875 1145L902.5 1139.5L842.5 1101L792 1145L821.5 1160Z" fill="#53B6F9"/>
<path d="M353.5 1519.5C365.5 1454.33 414.5 1313.6 483.5 1219C529.307 1156.2 575.854 1103.13 626.504 1061.8M1142.5 1519.5C1103.44 1290.29 1000.08 1146.05 905.02 1064.27C826.037 996.323 710.273 994.302 629.137 1059.66C628.258 1060.37 627.38 1061.08 626.504 1061.8M1013.5 1319C1024.83 1354.33 1048.1 1443.9 1050.5 1519.5M667 1361.5C661.167 1392.33 650.3 1467.1 653.5 1519.5M926 1087C934.762 1114.34 929.833 1141.11 925.003 1154.27C924.105 1156.72 921.076 1157.36 919.054 1155.71C913.678 1151.34 905.408 1144.87 896 1137.66M793.42 1142.5C783.296 1151.26 773.753 1159.03 766.905 1164.4C766.012 1165.1 764.867 1165.39 763.753 1165.17C707.225 1153.99 651.021 1094.56 626.504 1061.8M793.42 1142.5C809.829 1128.31 827.763 1111.55 838.219 1098.32C839.228 1097.04 841.056 1096.75 842.381 1097.69C856.424 1107.73 878.238 1124.04 896 1137.66M793.42 1142.5C800.317 1146.99 810.966 1152 823.5 1154.93M896 1137.66C888.793 1144.19 881.197 1148.81 873.5 1151.94M823.5 1154.93L802 1508M823.5 1154.93C838.529 1158.44 856.268 1158.95 873.5 1151.94M873.5 1151.94L932.5 1508" stroke="black" stroke-width="22" stroke-linecap="round"/>
</g>
<defs>
<clipPath id="clip0_481_146">
<rect width="1500" height="1500" fill="white"/>
</clipPath>
</defs>
      <g clip-path="url(#clip0_497_1194)">
<path d="M379.667 654.812C432.345 471.574 618.472 401.981 699.114 390.653C740.985 382.718 849.655 375.215 949.364 408.675C980 418.956 1049.88 457.388 1091.92 499.818C1144.47 552.856 1272.97 732.052 1185.05 927.725C1097.12 1123.4 758.414 1092.29 612.749 1051.82C464.472 1010.63 314.48 881.563 379.667 654.812Z" fill="#AABBFF"/>
<path d="M449.293 747.204C454.734 531.068 585.306 432.345 649.911 410C432.292 459.565 365.296 655.455 364 747.204C377.99 984.871 584.496 1053.43 681 1058C601.498 1044.46 443.853 963.339 449.293 747.204Z" fill="#001647" fill-opacity="0.2"/>
<path d="M379.667 654.812C432.345 471.574 618.472 401.981 699.114 390.653C740.985 382.718 849.655 375.215 949.364 408.675C980 418.956 1049.88 457.388 1091.92 499.818C1144.47 552.856 1272.97 732.052 1185.05 927.725C1097.12 1123.4 758.414 1092.29 612.749 1051.82C464.472 1010.63 314.48 881.563 379.667 654.812Z" stroke="black" stroke-width="22" stroke-linecap="round"/>
</g>
<defs>
    <clipPath id="prefix__clip0_299_662"><path fill="#fff" d="M0 0h1500v1500H0z"/></clipPath>
</defs>
      <g clip-path="url(#clip0_624_3550)">
<path d="M860.753 778.254C855.989 772.147 849.895 767.208 842.935 763.81C835.975 760.413 828.332 758.647 820.587 758.647C812.842 758.647 805.198 760.413 798.238 763.81C791.278 767.208 785.184 772.147 780.42 778.254" stroke="black" stroke-width="22" stroke-miterlimit="10" stroke-linecap="round"/>
<path d="M870.881 910.959C896.594 937.099 946.448 937.099 972.168 910.959" stroke="black" stroke-width="22" stroke-miterlimit="10" stroke-linecap="round"/>
<path d="M1052.5 778.254C1047.74 772.147 1041.64 767.208 1034.68 763.81C1027.72 760.413 1020.08 758.647 1012.33 758.647C1004.59 758.647 996.946 760.413 989.985 763.81C983.025 767.208 976.931 772.147 972.167 778.254" stroke="black" stroke-width="22" stroke-miterlimit="10" stroke-linecap="round"/>
</g>
<defs>
<clipPath id="clip0_624_3550">
<rect width="1500" height="1500" fill="white"/>
</clipPath>
</defs>
      <g clip-path="url(#clip0_840_2513)">
<path d="M691 957.5L701.5 894L714.5 863.5L740 855L901 863.5L1076 851L1103 847.5L1129 859.5L1140 892.5L1130 957.5L1111.5 1013.5L1075.5 1037L980.5 1068L869.5 1084L723 1073L687.5 1060.5V1017L691 957.5Z" fill="#4AEEB9"/>
<path d="M864.5 1078C810.5 1078 763.5 944 783.5 859.5L753 854.5L726.5 856.5L708 870.5L689.5 972.5L680.5 1034L704.5 1066.5L747.5 1078H864.5Z" fill="#001647" fill-opacity="0.2"/>
<path d="M370 697C401.167 729.333 503.36 809.8 700.16 887M379.5 853.5C413.167 883.5 523.917 956.8 687.117 1010M1132.53 876.5C1144.36 872.167 1191.5 848.4 1211.5 828M721 1073.5V1073.5C700.907 1070.71 686.155 1052.49 686.594 1032.21C687.501 990.382 688.367 931.545 704.989 876.761C710.804 857.597 731.009 847.753 750.813 850.733C828.071 862.358 965.043 869.001 1087.71 846.808C1107.13 843.295 1128 855.049 1132.09 874.357C1138.88 906.434 1141.36 954.7 1106.5 1019C995 1094 801 1084.83 721 1073.5Z" stroke="black" stroke-width="22" stroke-linecap="round"/>
</g>
<defs>
<clipPath id="clip0_840_2513">
<rect width="1500" height="1500" fill="white"/>
</clipPath>
</defs>
      <g clip-path="url(#clip0_797_1935)">
<path d="M778.32 618.992C732.316 652.118 694.23 627.98 679.668 610.456C679.157 609.841 678.159 610.009 677.884 610.761C669.528 633.659 642.971 668.377 597.671 637.802C597.105 637.42 596.305 637.664 596.101 638.316C588.493 662.622 563.234 699.839 518.947 665.637C518.326 665.158 517.378 665.497 517.267 666.274C513.621 691.674 494.316 732.913 443.408 708.441C442.916 708.205 442.306 708.379 442.049 708.86C431.681 728.28 402.873 756.444 366.411 720.409C366.162 720.163 365.804 720.049 365.462 720.128C345.832 724.651 302.407 716.493 310.32 670.989C310.414 670.452 310.08 669.914 309.548 669.792C285.64 664.323 254.684 637.693 284.948 590.845C285.245 590.386 285.146 589.761 284.698 589.447C265.719 576.144 239.77 542.719 281.101 510.198C281.568 509.831 281.652 509.135 281.258 508.691C265.973 491.441 257.362 445.131 303.621 422.916C304.102 422.685 304.331 422.088 304.13 421.593C278.525 358.362 310.831 340.761 353.923 334.65C354.5 334.568 354.887 333.983 354.767 333.412C339.785 262.041 399.108 252.25 433.313 257.799C433.935 257.9 434.485 257.378 434.477 256.747C433.614 190.873 488.629 193.994 517.914 207.007C518.486 207.262 519.149 206.909 519.311 206.303C534.019 151.325 591.46 165.03 615.936 181.277C616.484 181.641 617.229 181.359 617.459 180.742C637.478 127.018 685.224 145.62 707.619 162.333C708.097 162.69 708.783 162.528 709.096 162.019C741.06 110.016 788.168 134.291 806.283 154.678C806.677 155.121 807.373 155.109 807.786 154.684C848.463 112.933 885.946 142.547 900.357 163.546C900.704 164.051 901.43 164.109 901.888 163.702C944.488 125.847 976.412 157.642 987.575 179.166C987.82 179.638 988.404 179.823 988.894 179.614C1034.73 160.09 1050.15 192.591 1052.37 212.628C1052.44 213.306 1053.18 213.711 1053.81 213.451C1099.59 194.592 1115.79 228.48 1118.38 248.933C1118.45 249.513 1119.02 249.901 1119.59 249.798C1170.35 240.711 1177.53 276.49 1174.69 296.774C1174.6 297.409 1175.14 297.963 1175.78 297.935C1222.29 295.882 1223.42 330.149 1217.87 348.801C1217.69 349.419 1218.15 350.052 1218.79 350.113C1265.88 354.579 1260.1 389.775 1250.91 407.714C1250.68 408.168 1250.84 408.73 1251.26 409.021C1293.6 438.395 1274.36 468.139 1258.73 479.96C1258.31 480.273 1258.22 480.859 1258.48 481.306C1281.04 519.674 1258.36 536.792 1244.61 544.854C1244.05 545.185 1243.96 545.975 1244.42 546.449C1277.86 581.608 1253.39 610.387 1232.24 617.268C1231.8 617.41 1231.52 617.843 1231.53 618.302C1233.35 668.841 1174.73 666.767 1160.03 643.385C1159.73 642.906 1159.08 642.756 1158.6 643.047C1113.14 670.393 1078.93 643.457 1066.69 624.601C1066.33 624.046 1065.54 623.996 1065.08 624.475C1029.07 662.135 988.776 640.543 972.247 624.25C971.834 623.842 971.159 623.886 970.769 624.316C938.22 660.212 898.794 639.713 882.265 624.229C881.842 623.832 881.169 623.893 880.789 624.331C847.162 663.14 799.805 637.39 779.595 619.045C779.241 618.723 778.708 618.713 778.32 618.992Z" fill="#F56CDB"/>
<path d="M778.32 618.992C732.316 652.118 694.23 627.98 679.668 610.456C679.157 609.841 678.159 610.009 677.884 610.761C669.528 633.659 642.971 668.377 597.671 637.802C597.105 637.42 596.305 637.664 596.101 638.316C588.493 662.622 563.234 699.839 518.947 665.637C518.326 665.158 517.378 665.497 517.267 666.274C513.621 691.674 494.316 732.913 443.408 708.441C442.916 708.205 442.306 708.379 442.049 708.86C431.681 728.28 402.873 756.444 366.411 720.409C366.162 720.163 365.804 720.049 365.462 720.128C345.832 724.651 302.407 716.493 310.32 670.989C310.414 670.452 310.08 669.914 309.548 669.792C285.64 664.323 254.684 637.693 284.948 590.845C285.245 590.386 285.146 589.761 284.698 589.447C265.719 576.144 239.77 542.719 281.101 510.198C281.568 509.831 281.652 509.135 281.258 508.691C265.973 491.441 257.362 445.131 303.621 422.916C304.102 422.685 304.331 422.088 304.13 421.593C278.525 358.362 310.831 340.761 353.923 334.65C354.5 334.568 354.887 333.983 354.767 333.412C339.785 262.041 399.108 252.25 433.313 257.799C433.935 257.9 434.485 257.378 434.477 256.747C433.614 190.873 488.629 193.994 517.914 207.007C518.486 207.262 519.149 206.909 519.311 206.303C534.019 151.325 591.46 165.03 615.936 181.277C616.484 181.641 617.229 181.359 617.459 180.742C637.478 127.018 685.224 145.62 707.619 162.333C708.097 162.69 708.783 162.528 709.096 162.019C741.06 110.016 788.168 134.291 806.283 154.678C806.677 155.121 807.373 155.109 807.786 154.684C848.463 112.933 885.946 142.547 900.357 163.546C900.704 164.051 901.43 164.109 901.888 163.702C944.488 125.847 976.412 157.642 987.575 179.166C987.82 179.638 988.404 179.823 988.894 179.614C1034.73 160.09 1050.15 192.591 1052.37 212.628C1052.44 213.306 1053.18 213.711 1053.81 213.451C1099.59 194.592 1115.79 228.48 1118.38 248.933C1118.45 249.513 1119.02 249.901 1119.59 249.798C1170.35 240.711 1177.53 276.49 1174.69 296.774C1174.6 297.409 1175.14 297.963 1175.78 297.935C1222.29 295.882 1223.42 330.149 1217.87 348.801C1217.69 349.419 1218.15 350.052 1218.79 350.113C1265.88 354.579 1260.1 389.775 1250.91 407.714C1250.68 408.168 1250.84 408.73 1251.26 409.021C1293.6 438.395 1274.36 468.139 1258.73 479.96C1258.31 480.273 1258.22 480.859 1258.48 481.306C1281.04 519.674 1258.36 536.792 1244.61 544.854C1244.05 545.185 1243.96 545.975 1244.42 546.449C1277.86 581.608 1253.39 610.387 1232.24 617.268C1231.8 617.41 1231.52 617.843 1231.53 618.302C1233.35 668.841 1174.73 666.767 1160.03 643.385C1159.73 642.906 1159.08 642.756 1158.6 643.047C1113.14 670.393 1078.93 643.457 1066.69 624.601C1066.33 624.046 1065.54 623.996 1065.08 624.475C1029.07 662.135 988.776 640.543 972.247 624.25C971.834 623.842 971.159 623.886 970.769 624.316C938.22 660.212 898.794 639.713 882.265 624.229C881.842 623.832 881.169 623.893 880.789 624.331C847.162 663.14 799.805 637.39 779.595 619.045C779.241 618.723 778.708 618.713 778.32 618.992Z" stroke="black" stroke-width="22" stroke-linecap="round"/>
<path d="M620.986 645.219C614.221 646.292 605.377 646.031 596.827 643.677L586.5 660L566.932 682.993C566.67 683.3 566.25 683.42 565.865 683.297L529.483 671.655C529.179 671.557 528.848 671.611 528.59 671.798L512.5 683.5L473.344 715.717C473.125 715.897 472.84 715.976 472.56 715.934L443.499 711.575C443.185 711.528 442.868 711.632 442.643 711.857L422.254 732.246C422.09 732.41 421.874 732.512 421.643 732.535L391.352 735.466C391.124 735.488 390.896 735.431 390.705 735.305L366.157 719.103C366.053 719.035 365.938 718.987 365.817 718.96L322.49 709.606C322.182 709.539 321.923 709.331 321.792 709.044L306.037 674.581C306.012 674.527 305.983 674.475 305.949 674.427L273.273 627.393C273.1 627.145 273.05 626.831 273.135 626.541L282.871 593.44C282.953 593.161 282.909 592.859 282.751 592.615L261.16 559.248C261.056 559.086 261 558.897 261 558.705V528.473C261 528.174 261.134 527.89 261.366 527.7L280.066 512.356C280.336 512.135 280.47 511.789 280.422 511.444L273.057 458.908C273.021 458.646 273.088 458.382 273.246 458.17L302.261 419.321C302.414 419.115 302.483 418.858 302.452 418.603L296.073 365.603C296.028 365.232 296.193 364.868 296.501 364.658L336.932 337.047C336.977 337.016 337.02 336.981 337.06 336.943L348.81 325.682C348.934 325.563 349.026 325.413 349.076 325.248L359.436 290.713C359.478 290.573 359.551 290.443 359.648 290.334L380.275 267.252C380.421 267.089 380.617 266.978 380.832 266.936L431.689 257.156C432.16 257.065 432.5 256.653 432.5 256.174V240.36C432.5 240.127 432.581 239.902 432.729 239.723L463.2 202.863C463.39 202.633 463.673 202.5 463.971 202.5H516.621C516.865 202.5 517.101 202.411 517.284 202.248L556.133 167.825C556.365 167.62 556.678 167.533 556.981 167.591L614.54 178.413C614.831 178.468 615.132 178.391 615.361 178.202L656.586 144.178C656.844 143.965 657.193 143.895 657.514 143.993L700.071 156.972C710.689 138.773 730.764 134.451 749.613 136.447L764.693 127.48C765.147 127.21 765.732 127.34 766.03 127.775L774.989 140.892C775.559 141.727 774.664 142.818 773.726 142.443C766.631 139.602 758.25 137.361 749.613 136.447L710.38 159.774C710.138 159.918 709.846 159.953 709.577 159.871L700.071 156.972C696.874 162.451 694.534 169.189 693.343 177.391C692.167 185.491 684.959 191.879 676.775 191.729C645.377 191.153 606.18 204.072 610.724 253.904C611.417 261.498 606.443 268.723 598.986 270.318C565.254 277.532 542.435 294.978 558.009 342.104C560.214 348.779 557.262 356.127 551.416 360.031C523.521 378.656 523.528 407.868 531.92 426.637C535.118 433.79 534.243 443.005 528.95 448.782C507.316 472.397 518.942 495.408 533.299 509.37C538.474 514.403 540.031 522.447 536.842 528.923C520.715 561.668 537.504 582.722 556.295 591.666C562.735 594.731 567.121 601.466 567.364 608.594C568.067 629.222 582.006 639.595 596.827 643.677L601.55 636.212C601.81 635.801 602.329 635.636 602.778 635.823L621.148 643.451C622.041 643.822 621.942 645.067 620.986 645.219Z" fill="#001647" fill-opacity="0.2"/>
</g>
<defs>
<clipPath id="clip0_797_1935">
<rect width="1500" height="1500" fill="white"/>
</clipPath>
</defs>
      
    </g>
    </svg>