<svg
      xmlns="http://www.w3.org/2000/svg"
      preserveAspectRatio="xMidYMin meet"
      fill="none"
      viewBox="0 0 1500 1500"
    >
      <g>
      <path fill="url(#prefix__paint0_linear_53_28789)" d="M0 0h1500v1500H0z"/><defs><linearGradient id="prefix__paint0_linear_53_28789" x1="1500" y1="1500" x2="0" y2="0" gradientUnits="userSpaceOnUse">
<stop stop-color="#FFD130"/>
<stop offset="1" stop-color="#FFEEDB"/>
</linearGradient></defs>
      <g clip-path="url(#clip0_482_324)">
<path d="M407.5 1353.5L353.5 1511H1139L1134.5 1455.5L1054 1252L962.5 1115V1063C940.833 1067.67 875.7 1076.5 788.5 1074.5C701.3 1072.5 610.833 1044.67 576.5 1031L581 1103.5L493.5 1201.5L407.5 1353.5Z" fill="white"/>
<path d="M409.87 1339.62C462.691 1207.98 547.202 1128.91 583.5 1098L575.5 1067.5L591.5 1027.5L634.5 1042L631.597 1111L764 1133L780 1511H754.5L740.5 1158C693.7 1155.2 635.274 1140.17 611.91 1133C500.28 1264.53 453.823 1439.08 443.159 1511H353.699C350.414 1508.73 357.049 1471.27 409.87 1339.62Z" fill="#001647" fill-opacity="0.2"/>
<path d="M353.5 1519.5C365.5 1454.33 414.5 1313.6 483.5 1219C516.929 1173.17 550.751 1132.52 586.275 1097.84M1142.5 1519.5C1110.35 1330.88 1034.67 1199.8 955.894 1113.71M1013.5 1319C1024.83 1354.33 1048.1 1443.9 1050.5 1519.5M667 1361.5C661.167 1392.33 650.3 1467.1 653.5 1519.5M767.5 1135C771 1222.17 780.5 1379.5 783.5 1512.5M586.275 1097.84C583.015 1096.62 579.96 1095.42 577.118 1094.25C576.743 1094.1 576.5 1093.74 576.5 1093.33V1028.5C730.5 1092.9 897.667 1077 962 1061V1112C959.965 1112.58 957.929 1113.16 955.894 1113.71M586.275 1097.84C652.817 1122.64 804.285 1155.24 955.894 1113.71M843.729 1186.27C843.511 1195.1 836.174 1202.09 827.34 1201.87C818.506 1201.65 811.521 1194.32 811.739 1185.48C811.956 1176.65 819.294 1169.66 828.128 1169.88C836.962 1170.1 843.947 1177.44 843.729 1186.27ZM847.831 1263.39C847.613 1272.23 840.275 1279.21 831.441 1279C822.607 1278.78 815.623 1271.44 815.84 1262.61C816.058 1253.77 823.396 1246.79 832.23 1247.01C841.063 1247.22 848.048 1254.56 847.831 1263.39ZM852.833 1340.52C852.616 1349.35 845.278 1356.34 836.444 1356.12C827.61 1355.9 820.625 1348.56 820.843 1339.73C821.061 1330.9 828.399 1323.91 837.232 1324.13C846.066 1324.35 853.051 1331.68 852.833 1340.52ZM856.008 1418.64C855.791 1427.48 848.453 1434.46 839.619 1434.24C830.785 1434.03 823.8 1426.69 824.018 1417.85C824.236 1409.02 831.573 1402.04 840.407 1402.25C849.241 1402.47 856.226 1409.81 856.008 1418.64ZM861.184 1492.79C860.966 1501.63 853.629 1508.61 844.795 1508.39C835.961 1508.18 828.976 1500.84 829.194 1492C829.411 1483.17 836.749 1476.19 845.583 1476.4C854.417 1476.62 861.402 1483.96 861.184 1492.79ZM913.807 1184C913.589 1192.83 906.252 1199.82 897.418 1199.6C888.584 1199.38 881.599 1192.04 881.817 1183.21C882.034 1174.37 889.372 1167.39 898.206 1167.61C907.04 1167.82 914.025 1175.16 913.807 1184ZM917.908 1261.12C917.69 1269.95 910.352 1276.94 901.518 1276.72C892.684 1276.5 885.7 1269.16 885.917 1260.33C886.135 1251.5 893.473 1244.51 902.307 1244.73C911.141 1244.95 918.125 1252.29 917.908 1261.12ZM922.911 1338.24C922.693 1347.08 915.355 1354.06 906.521 1353.84C897.687 1353.63 890.703 1346.29 890.92 1337.45C891.138 1328.62 898.476 1321.64 907.31 1321.85C916.143 1322.07 923.128 1329.41 922.911 1338.24ZM926.086 1416.37C925.869 1425.2 918.531 1432.19 909.697 1431.97C900.863 1431.75 893.878 1424.41 894.096 1415.58C894.314 1406.75 901.651 1399.76 910.485 1399.98C919.319 1400.2 926.304 1407.54 926.086 1416.37ZM931.261 1490.52C931.043 1499.35 923.706 1506.34 914.872 1506.12C906.038 1505.9 899.053 1498.56 899.271 1489.73C899.489 1480.9 906.826 1473.91 915.66 1474.13C924.494 1474.35 931.479 1481.68 931.261 1490.52Z" stroke="black" stroke-width="22" stroke-linecap="round"/>
</g>
<defs>
<clipPath id="clip0_482_324">
<rect width="1500" height="1500" fill="white"/>
</clipPath>
</defs>
      <g clip-path="url(#clip0_497_1194)">
<path d="M379.667 654.812C432.345 471.574 618.472 401.981 699.114 390.653C740.985 382.718 849.655 375.215 949.364 408.675C980 418.956 1049.88 457.388 1091.92 499.818C1144.47 552.856 1272.97 732.052 1185.05 927.725C1097.12 1123.4 758.414 1092.29 612.749 1051.82C464.472 1010.63 314.48 881.563 379.667 654.812Z" fill="#AABBFF"/>
<path d="M449.293 747.204C454.734 531.068 585.306 432.345 649.911 410C432.292 459.565 365.296 655.455 364 747.204C377.99 984.871 584.496 1053.43 681 1058C601.498 1044.46 443.853 963.339 449.293 747.204Z" fill="#001647" fill-opacity="0.2"/>
<path d="M379.667 654.812C432.345 471.574 618.472 401.981 699.114 390.653C740.985 382.718 849.655 375.215 949.364 408.675C980 418.956 1049.88 457.388 1091.92 499.818C1144.47 552.856 1272.97 732.052 1185.05 927.725C1097.12 1123.4 758.414 1092.29 612.749 1051.82C464.472 1010.63 314.48 881.563 379.667 654.812Z" stroke="black" stroke-width="22" stroke-linecap="round"/>
</g>
<defs>
    <clipPath id="prefix__clip0_299_662"><path fill="#fff" d="M0 0h1500v1500H0z"/></clipPath>
</defs>
      <g clip-path="url(#clip0_624_3473)">
<path d="M1010.33 800C1015.74 800 1021.02 798.397 1025.52 795.394C1030.01 792.39 1033.52 788.121 1035.59 783.127C1037.65 778.132 1038.2 772.637 1037.14 767.334C1036.09 762.032 1033.48 757.162 1029.66 753.339C1025.84 749.517 1020.97 746.913 1015.67 745.859C1010.36 744.804 1004.87 745.345 999.873 747.414C994.879 749.483 990.61 752.986 987.606 757.481C984.603 761.976 983 767.261 983 772.667C983 779.916 985.88 786.868 991.006 791.994C996.132 797.12 1003.08 800 1010.33 800Z" fill="black"/>
<path d="M799.421 789.214L858.141 778.547C859.189 778.352 860.151 777.837 860.895 777.073C861.639 776.309 862.128 775.334 862.294 774.28C862.455 773.224 862.285 772.143 861.808 771.187C861.331 770.234 860.569 769.453 859.628 768.954L804.701 739.807" stroke="black" stroke-width="22" stroke-miterlimit="10" stroke-linecap="round"/>
<path d="M870.88 910.959C896.593 937.099 946.447 937.099 972.167 910.959" stroke="black" stroke-width="22" stroke-miterlimit="10" stroke-linecap="round"/>
</g>
<defs>
<clipPath id="clip0_624_3473">
<rect width="1500" height="1500" fill="white"/>
</clipPath>
</defs>
      <g clip-path="url(#clip0_875_2704)">
<path d="M821.441 843.266C839.551 843.267 857.015 836.532 870.435 824.371C883.855 812.209 892.271 795.491 894.047 777.467C895.823 759.444 890.832 741.404 880.044 726.857C869.256 712.31 853.443 702.296 835.681 698.762C817.918 695.228 799.476 698.427 783.942 707.738C768.407 717.048 756.892 731.804 751.634 749.134C746.376 766.465 747.753 785.132 755.496 801.504C763.239 817.876 776.795 830.782 793.527 837.713C802.377 841.378 811.862 843.265 821.441 843.266Z" fill="#3A3A3A"/>
<path d="M757.998 736.336L780.765 706.94L865.384 832.392L825.334 845L757.998 736.336Z" fill="white" fill-opacity="0.7"/>
<rect x="795.559" y="706.672" width="13.3333" height="135.981" transform="rotate(-34 795.559 706.672)" fill="white" fill-opacity="0.7"/>
<path d="M1013.38 839.717C1031.49 839.719 1048.96 832.983 1062.38 820.822C1075.8 808.66 1084.21 791.942 1085.99 773.918C1087.76 755.895 1082.77 737.855 1071.99 723.308C1061.2 708.761 1045.38 698.747 1027.62 695.213C1009.86 691.679 991.417 694.879 975.883 704.189C960.349 713.499 948.833 728.255 943.575 745.585C938.318 762.916 939.694 781.583 947.438 797.955C955.181 814.327 968.737 827.233 985.469 834.164C994.318 837.83 1003.8 839.717 1013.38 839.717Z" fill="#3A3A3A"/>
<path d="M949.935 732.788L972.703 703.392L1057.32 828.844L1017.27 841.451L949.935 732.788Z" fill="white" fill-opacity="0.7"/>
<rect x="987.496" y="703.123" width="13.3333" height="135.981" transform="rotate(-34 987.496 703.123)" fill="white" fill-opacity="0.7"/>
<path d="M1012.38 842.6C1029.26 842.593 1045.62 836.734 1058.66 826.021C1071.7 815.307 1080.63 800.403 1083.91 783.846C1087.2 767.29 1084.64 750.107 1076.68 735.225C1068.71 720.343 1055.84 708.683 1040.24 702.232C1024.64 695.781 1007.29 694.938 991.139 699.847C974.99 704.755 961.042 715.112 951.673 729.152C942.304 743.192 938.093 760.046 939.758 776.843C941.423 793.64 948.861 809.339 960.804 821.267C974.49 834.934 993.043 842.607 1012.38 842.6V842.6Z" stroke="black" stroke-width="20" stroke-miterlimit="10"/>
<path d="M821.441 842.6C839.551 842.601 857.015 835.866 870.435 823.705C883.855 811.543 892.271 794.825 894.047 776.801C895.823 758.778 890.832 740.738 880.044 726.191C869.256 711.644 853.443 701.63 835.681 698.096C817.918 694.562 799.476 697.761 783.942 707.072C768.407 716.382 756.892 731.138 751.634 748.468C746.376 765.799 747.753 784.466 755.496 800.838C763.239 817.21 776.795 830.116 793.527 837.047C802.377 840.712 811.862 842.599 821.441 842.6Z" stroke="black" stroke-width="20" stroke-miterlimit="10"/>
<path d="M582.5 804.5C582.5 810.023 586.977 814.5 592.5 814.5C598.023 814.5 602.5 810.023 602.5 804.5H582.5ZM747.334 760L622.5 760L622.5 780L747.334 780L747.334 760ZM582.5 800V804.5H602.5V800H582.5ZM622.5 760C600.409 760 582.5 777.909 582.5 800H602.5C602.5 788.955 611.454 780 622.5 780L622.5 760Z" fill="black"/>
<path d="M894.387 769.666H939.501" stroke="black" stroke-width="20" stroke-miterlimit="10"/>
</g>
<defs>
<clipPath id="clip0_875_2704">
<rect width="1500" height="1500" fill="white"/>
</clipPath>
</defs>
      <g clip-path="url(#clip0_771_818)">
<path d="M466 531L495 567L539.5 577.5L674.5 602L807.5 605L942 602L1093.5 572C1101.17 570.333 1114.9 558.8 1108.5 526C1102.1 493.2 1077.17 484.333 1065.5 484C1067.17 480.5 1067.2 465.7 1054 434.5C1040.8 403.3 1002.5 403.833 985 408C980.333 397.333 966.3 372.5 947.5 358.5C928.7 344.5 890.667 350 874 354.5C872.333 343.833 860.5 320.9 826.5 314.5C792.5 308.1 760.667 326.167 749 336C742 332 721.7 324.5 696.5 326.5C671.3 328.5 646.333 351.333 637 362.5L630.5 366L610 362.5L576.5 376L552.5 400C542.667 403 522.5 409.7 520.5 412.5C518 416 515.5 422.5 514.5 425.5C513.5 428.5 498.5 466 495 468.5C492.2 470.5 478.167 484.667 471.5 491.5L466 531Z" fill="#F56CDB"/>
<path d="M504.5 567.988C489 560.847 465.1 553.6 467.5 518C468.714 499.991 477.231 487.919 486.769 481.102C495.04 475.19 504.467 461.916 504.414 451.749C504.279 425.542 518.145 395.338 557.5 399.5C599.645 403.957 602 449.334 589 469.5M589 530.5C599.5 535.834 624.361 540.612 631 513.5C638.239 483.935 590.17 454.806 559.5 481.5C532.5 505 527.5 567.806 587.5 588.806M698 463C695.009 479.152 694.457 507.929 707.553 525.841C718.294 540.533 740.808 541.523 754.795 529.878C763.905 522.292 772.497 509.913 776.5 490.5M687 599.765C698.667 597.932 718.3 578.135 728.5 540.135M948.5 542.5C975.5 534.5 1032.8 534.499 1044 582.899M807 552.5C804.895 538.516 809.617 513.038 835 512.683M858.5 605.929C852.5 577.929 887.5 521.5 844 513.5C840.746 512.902 837.751 512.645 835 512.683M955.5 471C919.5 466.5 872 492.501 865.717 534.5M561 397.5C566.333 379.5 587.8 349.901 631 367.501C633.67 368.589 636.167 369.738 638.5 370.941M665.5 434.5C671.598 419.802 673.912 389.202 638.5 370.941M665.5 390.501C680.333 380 716.8 367.1 744 399.5C752.185 409.25 756.243 418.519 757.61 427.001M741.5 469.5C749.423 462.16 760.784 446.706 757.61 427.001M1028 492.501C1035.06 489.273 1054.11 481.289 1066.5 481M1099.5 565.201C1109 556.201 1127 529 1108.5 503C1097.11 486.999 1081.63 480.647 1066.5 481M959 430.501C962.686 423.48 971.195 414.122 984.5 409.695M1066.5 481C1074.83 465.667 1064.9 430.501 1032 415.001C1012.3 405.721 996.463 405.714 984.5 409.695M870.981 362C883.147 353.167 911.46 341.192 942 353.001C979.5 367.501 982.667 396.63 984.5 409.695M757.61 427.001C772.063 424.737 803.372 425.179 822.823 442.501M835 512.683C840.5 500.956 846.9 471.701 828.5 448.501C826.759 446.305 824.856 444.311 822.823 442.501M892 421.001C882.382 432.167 855.081 452.1 822.823 442.501M752.699 342.001C742.699 333.001 715.8 317.701 683 328.501C650.2 339.301 639.667 361.294 638.5 370.941M854.5 386.001C869 373.001 888.7 341.901 851.5 321.501C805 296.001 751.941 330.044 744 360.001C740.333 372.436 732.8 400.044 754 405C776.5 410.26 794.667 389.565 799 379.5M1127 552.5C1094.33 570.667 988.398 611.716 799 605.5C540 597 474 568.5 451 525" stroke="black" stroke-width="22" stroke-linecap="round"/>
<path d="M594 501C609.6 504.6 606.5 519.833 603 527C606.667 528.833 614.5 532.7 616.5 533.5C618.5 534.3 624 524.5 626.5 519.5C626.667 509.167 624.4 486.5 614 478.5C603.6 470.5 573.333 478.833 559.5 484L578 470H609.5C610.3 420.4 648.5 404.667 667.5 403L677 381H725L741 374.5L747.5 337.5L716.5 323L650.5 342.5L636.5 367C630 365.667 616.4 362.8 614 362C611.6 361.2 589 366.334 578 369L565 398H544.5L512.5 428L495 475.5L467 504.5L476 548.5L544.5 581C547.167 580.667 552.4 573.7 552 548.5C551.5 517 574.5 496.5 594 501Z" fill="#001647" fill-opacity="0.2"/>
<path d="M776.5 395.5C759 373 787.5 337.5 817 320.5C812.5 318 795.8 315.5 795 315.5C794.2 315.5 770.667 327.167 759 333L747.5 367L745 395.5C747.667 398 753.3 403.5 754.5 405.5C755.7 407.5 773.333 398.833 776.5 395.5Z" fill="#001647" fill-opacity="0.2"/>
<path d="M896 358C896 376.726 883.737 392.8 874.592 400.557C871.41 403.256 866.882 402.853 863.588 400.291C859.077 396.782 858.158 390.33 861.51 385.701L866 379.5L878.5 363L896 358Z" fill="#001647" fill-opacity="0.2"/>
<path d="M1103 510C1094.36 499.284 1063.06 507.338 1042.35 514.349C1037.38 516.03 1031.92 513.652 1029.92 508.804C1027.99 504.116 1029.99 498.731 1034.51 496.437L1061 483L1084.5 487L1103 510Z" fill="#001647" fill-opacity="0.2"/>
<path d="M1030 576C1019.42 558.933 984.296 560.799 960.861 565.132C954.991 566.217 949.195 562.405 948.264 556.508C947.525 551.827 950.131 547.259 954.536 545.511L976 537L1015.5 548.5L1037.5 573L1030 576Z" fill="#001647" fill-opacity="0.2"/>
<path d="M752 542C755.6 560 738.833 587.833 731.5 599.5C723.333 598.833 706.4 597.4 704 597C701.6 596.6 710 584.833 714.5 579L729.5 548.5L752 542Z" fill="#001647" fill-opacity="0.2"/>
<path d="M735 529C719.357 518.571 719.323 487.372 720.457 466.909C720.715 462.261 717.232 458.24 712.587 457.92C708.955 457.669 705.583 459.783 704.389 463.221C702.192 469.547 699.706 477.617 700 478.5C700.4 479.7 701.833 501 702.5 511.5L723 531L735 529Z" fill="#001647" fill-opacity="0.2"/>
<path d="M863.5 513C878.7 432.2 825.5 404.5 781 404.5L771.5 409.5L762 422.5L811 428.5L840 458.5L843 508.5L863.5 513Z" fill="#001647" fill-opacity="0.2"/>
<path d="M890.708 549.628C889.654 565.029 884.579 588.352 882 601H860C859.833 599 859.9 593.2 861.5 586C863.5 577 863.5 570.5 866 561C868.5 551.5 868 542 869.5 533.5C870.7 526.7 873 521.333 874 519.5L884.5 499.5L915.5 484L948.018 479.69C952.775 479.06 957 482.762 957 487.561C957 491.945 953.427 495.452 949.071 495.952C925.095 498.708 907.201 513.544 897.011 526.405C891.974 532.764 891.262 541.534 890.708 549.628Z" fill="#001647" fill-opacity="0.2"/>
<path d="M1057 445.5C1027.49 420.8 1001.15 429.821 986.029 441.927C980.607 446.268 972.591 447.095 967.392 442.49C962.877 438.491 962.03 431.765 965.412 426.772L970 420L990.5 412H1015.5L1048 428.5L1057 445.5Z" fill="#001647" fill-opacity="0.2"/>
</g>
<defs>
<clipPath id="clip0_771_818">
<rect width="1500" height="1500" fill="white"/>
</clipPath>
</defs>
      
    </g>
    </svg>