<svg
      xmlns="http://www.w3.org/2000/svg"
      preserveAspectRatio="xMidYMin meet"
      fill="none"
      viewBox="0 0 1500 1500"
    >
      <g>
      <path fill="url(#prefix__paint0_linear_53_28788)" d="M0 0h1500v1500H0z"/><defs><linearGradient id="prefix__paint0_linear_53_28788" x1="0" y1="0" x2="1500" y2="1500" gradientUnits="userSpaceOnUse">
<stop stop-color="#DBE4E4"/>
<stop offset="1" stop-color="#A7BDBD"/>
</linearGradient></defs>
      <g clip-path="url(#prefix__clip0_53_28307)"><path d="M460.5 1094.5c-138.4 66.4-174 309.33-174.5 422.5h983.5c-12.5-72.17-53.2-244.1-116-354.5-78.5-138-520-151-693-68z" fill="#A760FF"/><path d="M367 1440c-17.2-1.2-22.167 49.83-22.5 75.5l47.5-4.5c-1.167-23.17-7.8-69.8-25-71zM674 1276c-29.6 1.2-47 22.83-52 33.5l4.5 14 56 10.5c14.833-5 44.8-18.8 46-34 1.5-19-17.5-25.5-54.5-24zM554.5 1131.5c-49.2-6.8-55.167 21.17-52 36-2 6.83 1.9 23.3 33.5 34.5 39.5 14 138 33.5 166.5 31 22.8-2 24.833-33.83 23-49.5-36.5-14.5-121.8-45.2-171-52zM842 1417c-38.8 30.4-22.5 74.67-9.5 93l140.5 3.5c7.167-4 20-20.9 14-56.5-7.5-44.5-96.5-78-145-40zM1114.5 1293c-46.4-6.8-12.67-111.83 10-163.5l49 71.5c-.33 33.5-12.6 98.8-59 92z" fill="#ABF"/><path d="M386 1459l-1 47.5H284c2.833-48.17 12.8-156.6 30-205 17.2-48.4 43.5-97.5 54.5-116 29.667-31.67 93.9-93.8 113.5-89 19.6 4.8 28.5 23.67 30.5 32.5l-16.5 22.5 7.5 21 9 19c-95.2 77.2-124 210.5-126.5 267.5z" fill="#001647" fill-opacity=".2"/><path d="M705.5 1163c27.2 82.4-120.333 42.67-197.5 12.5l23.5 29.5c29.333 8.33 95.4 25.7 125 28.5 37 3.5 71-12 71.5-33 .4-16.8-14.833-32-22.5-37.5zM659.5 1315.5c-19.2.4-34.667-6.5-40-10l6.5 17c6.5 2.33 27.7 7.3 60.5 8.5 32.8 1.2 37.667-26.83 36-41-12.833-6-35.4-15.5-23-5.5 15.5 12.5-16 30.5-40 31zM960.5 1463.5c-4-32.4-41.667-52.83-60-59H920c14.667 5.83 47.3 23.2 60.5 46 13.2 22.8 1.5 49.5-6 60h-22c4.333-2.17 12-14.6 8-47zM1143 1161c16 61.6-21.67 112.67-40 126.5 53.5 10.5 70.33-58.33 68.5-87L1143 1161z" fill="#001647" fill-opacity=".2"/><path d="M289.501 1512.5c-6-101.5 31-323.03 140.5-398 158.5-108.51 616.499-87 706.499 26 64.91 81.5 99.5 222.5 132.5 371M1084.5 1337c12.33 37 29.5 110.3 43.5 175.5m-646.499 0c.333-32.83 7.7-107.6 20.5-157" stroke="#000" stroke-width="20" stroke-linecap="round"/><ellipse cx="675.502" cy="1303.28" rx="53.591" ry="29" transform="rotate(-4.687 675.502 1303.28)" stroke="#000" stroke-width="20"/><path d="M515.271 1188.27c-36.061-24.71-9.368-73.42 39.746-60.07l145.257 41.58c16.768 4.8 32.505 18.71 28.297 35.64-5.969 24.01-33.117 28.75-56 27.53-67.132-3.59-121.239-19.97-157.3-44.68zM393 1490c0 27.06-10.969 49-24.5 49s-24.5-21.94-24.5-49 10.969-49 24.5-49 24.5 21.94 24.5 49zM1173 1198.09c0 35.54-15.89 101.53-57.73 93.09-54.77-11.04-11.86-107.12 7.51-159.18" stroke="#000" stroke-width="20"/><ellipse cx="906" cy="1473" rx="87" ry="71" stroke="#000" stroke-width="20"/></g><defs><clipPath id="prefix__clip0_53_28307"><path fill="#fff" d="M0 0h1500v1500H0z"/></clipPath></defs>
      <g clip-path="url(#clip0_497_1194)">
<path d="M379.667 654.812C432.345 471.574 618.472 401.981 699.114 390.653C740.985 382.718 849.655 375.215 949.364 408.675C980 418.956 1049.88 457.388 1091.92 499.818C1144.47 552.856 1272.97 732.052 1185.05 927.725C1097.12 1123.4 758.414 1092.29 612.749 1051.82C464.472 1010.63 314.48 881.563 379.667 654.812Z" fill="#AABBFF"/>
<path d="M449.293 747.204C454.734 531.068 585.306 432.345 649.911 410C432.292 459.565 365.296 655.455 364 747.204C377.99 984.871 584.496 1053.43 681 1058C601.498 1044.46 443.853 963.339 449.293 747.204Z" fill="#001647" fill-opacity="0.2"/>
<path d="M379.667 654.812C432.345 471.574 618.472 401.981 699.114 390.653C740.985 382.718 849.655 375.215 949.364 408.675C980 418.956 1049.88 457.388 1091.92 499.818C1144.47 552.856 1272.97 732.052 1185.05 927.725C1097.12 1123.4 758.414 1092.29 612.749 1051.82C464.472 1010.63 314.48 881.563 379.667 654.812Z" stroke="black" stroke-width="22" stroke-linecap="round"/>
</g>
<defs>
    <clipPath id="prefix__clip0_299_662"><path fill="#fff" d="M0 0h1500v1500H0z"/></clipPath>
</defs>
      <g clip-path="url(#clip0_624_3437)">
<path d="M874 925.246H968.413" stroke="black" stroke-width="20" stroke-linecap="round"/>
<path d="M822 818C849.062 818 871 796.062 871 769C871 741.938 849.062 720 822 720C794.938 720 773 741.938 773 769C773 796.062 794.938 818 822 818Z" fill="white" stroke="black" stroke-width="20" stroke-miterlimit="10"/>
<path d="M1012 818C1039.06 818 1061 796.062 1061 769C1061 741.938 1039.06 720 1012 720C984.938 720 963 741.938 963 769C963 796.062 984.938 818 1012 818Z" fill="white" stroke="black" stroke-width="20" stroke-miterlimit="10"/>
<path d="M822 767C829.18 767 835 761.18 835 754C835 746.82 829.18 741 822 741C814.82 741 809 746.82 809 754C809 761.18 814.82 767 822 767Z" fill="black"/>
<path d="M1012 767C1019.18 767 1025 761.18 1025 754C1025 746.82 1019.18 741 1012 741C1004.82 741 999 746.82 999 754C999 761.18 1004.82 767 1012 767Z" fill="black"/>
</g>
<defs>
<clipPath id="clip0_624_3437">
<rect width="1500" height="1500" fill="white"/>
</clipPath>
</defs>
      <g clip-path="url(#clip0_911_278)">
<path d="M741 865.42V871.56C741.01 872.669 740.781 873.767 740.33 874.78C739.07 877.64 736.99 877.78 736.99 877.78C735.893 878.033 734.754 878.046 733.651 877.818C732.548 877.59 731.507 877.127 730.6 876.46C727.96 874.35 721.36 856.25 721.36 856.25L708.65 876.46H700L717.8 848.25L712.21 836.66C711.84 835.888 711.265 835.233 710.547 834.767C709.828 834.301 708.996 834.043 708.14 834.02H708C707.225 833.94 706.442 834.054 705.721 834.351C705.001 834.647 704.365 835.118 703.87 835.72C702.98 836.61 702.66 839.5 702.66 839.5L700.88 839.63C700.634 837.881 700.59 836.109 700.75 834.35C700.862 833.001 701.324 831.705 702.09 830.59C702.61 829.783 703.325 829.12 704.169 828.664C705.014 828.208 705.96 827.972 706.92 827.98C708.535 827.979 710.11 828.479 711.43 829.41C712.762 830.35 713.801 831.646 714.43 833.15L719.69 846.2L731.13 828.8H739L723.2 853.31L727.14 862.63C727.14 862.63 730.14 871.63 734.45 871.63C738.76 871.63 739.16 865.41 739.16 865.41L741 865.42Z" fill="black"/>
</g>
<defs>
<clipPath id="clip0_911_278">
<rect width="1500" height="1500" fill="white"/>
</clipPath>
</defs>
      <g clip-path="url(#clip0_708_162)">
<path d="M300.372 667.686L253.609 748.241L454.3 680.321L738.585 628.639C984.683 604.662 1210.53 624.315 1292.69 637.132C1280.65 582.383 1179.61 523.84 1130.59 501.406C1113.68 430.836 1031.42 348.1 992.409 315.548C971.462 295.939 891.936 255.415 741.414 250.145C590.891 244.875 484.992 352.562 450.853 407.063L389.206 540.053L391.612 600.159L300.372 667.686Z" fill="#FFBF44"/>
<path d="M404.788 511.118L379.215 601.746L514.498 559.193L704.36 524.766L854.623 512.616L1130.06 508.135L1104.76 433.647L953.374 421.221L780.012 421.578L582.833 458.009L404.788 511.118Z" fill="#FF6247"/>
<path d="M354.862 795.884C354.862 795.884 350.938 743.246 356.825 717.001L252.005 767.453L261.561 785.693L354.862 795.884Z" fill="#F8C25A"/>
<path d="M1186.18 619.442C1186.18 619.442 1208.44 666.084 1214.92 706.177L1275.33 666.35L1296.3 640.096L1186.18 619.442Z" fill="#CF9B37"/>
<path d="M359.887 716.851C352.213 746.644 356.751 781.024 357.902 794.489L278.053 788.276L243.54 765.647L278.915 699.786L381.672 602.99L407.655 507.185C466.308 334.462 611.08 271.051 676.135 260.936C555.524 348.14 530.412 491.561 532.932 552.371L538.374 561.153C488.016 608.28 453.733 663.777 443.099 686.173L359.887 716.851Z" fill="#001647" fill-opacity="0.2"/>
<path d="M364.028 801.813C354.076 800.496 344.144 799.025 334.23 797.399C306.552 792.824 279.493 787.009 258.929 779.757C255.669 778.61 252.71 776.716 250.281 774.221C247.851 771.727 246.016 768.698 244.915 765.367C243.815 762.037 243.478 758.494 243.932 755.01C244.386 751.527 245.618 748.196 247.533 745.273C268.878 712.643 314.762 650.968 383.157 602.831C383.157 602.831 402.36 310.699 701.675 253.239C1000.99 195.778 1121.72 458.388 1134.58 509.714C1134.58 509.714 1236 540.898 1294.32 623.492C1297.32 627.715 1298.83 632.853 1298.58 638.063C1298.34 643.273 1296.37 648.244 1292.99 652.16C1281.88 664.897 1257.92 683.904 1206.41 704.608" stroke="black" stroke-width="22" stroke-miterlimit="10"/>
<path d="M383.144 602.819C383.144 602.819 625 483.756 1134.57 509.703" stroke="black" stroke-width="22" stroke-miterlimit="10"/>
<path d="M245.071 765.774C245.071 765.774 286.039 722.428 507.075 672.557C706.679 627.495 911.21 609.222 1115.47 618.2C1180.56 621.084 1245.28 626.907 1298.55 637.603" stroke="black" stroke-width="22" stroke-miterlimit="10"/>
<path d="M404.141 511.46C404.141 511.46 721.312 375.084 1101.06 436.771" stroke="black" stroke-width="22" stroke-miterlimit="10"/>
</g>
<defs>
<clipPath id="clip0_708_162">
<rect width="1500" height="1500" fill="white"/>
</clipPath>
</defs>
      
    </g>
    </svg>