<svg
      xmlns="http://www.w3.org/2000/svg"
      preserveAspectRatio="xMidYMin meet"
      fill="none"
      viewBox="0 0 1500 1500"
    >
      <g>
      <path fill="url(#prefix__paint0_linear_53_30462)" d="M0 0h1500v1500H0z"/><defs><linearGradient id="prefix__paint0_linear_53_30462" x1="0" y1="0" x2="1500" y2="1500" gradientUnits="userSpaceOnUse">
<stop stop-color="#FFC4F6"/>
<stop offset="1" stop-color="#FF3DB1"/>
</linearGradient></defs>
      <g clip-path="url(#clip0_483_490)">
<path d="M773 1011.5C543.4 1029.9 398.667 1353.5 355 1513H1138.5C1075.7 1127 868.667 1017.83 773 1011.5Z" fill="#3A3A3A"/>
<path d="M769 1151L789 1174L828 1096.5L879 1169.5L895.5 1162L885 1099L854 1033.5L799 1014L781 1067.5L769 1151Z" fill="white"/>
<path d="M775.5 1314.5L769 1174C770.5 1172 774.5 1168.7 778.5 1171.5C782.5 1174.3 791.5 1174.33 795.5 1174L816.5 1162L808 1273.5V1431.5L857 1479.5L894 1428L876 1306.5L851.5 1162L862.5 1158.5L870.5 1171L886 1174H895.5L912.5 1256.5V1421L906 1507L816.5 1504.5L797.5 1446.5L786 1377.5L775.5 1314.5Z" fill="white"/>
<path d="M749.5 1019.5C536 1134 457.448 1414.63 443.159 1511H353.699C350.414 1508.73 357.049 1471.27 409.87 1339.62C462.691 1207.98 569.086 1113.24 605.384 1082.33L674 1033.5L749.5 1019.5Z" fill="black" fill-opacity="0.2"/>
<path d="M678.896 1219.72L679 1219.5L730.5 1241.5L719.5 1262.5L686.882 1244.68C677.988 1239.82 674.474 1228.83 678.896 1219.72Z" fill="black" fill-opacity="0.2"/>
<path d="M681.576 1320.46L688.5 1313L743 1511H726.5C699.73 1459.32 682.982 1377.71 676.739 1335.82C675.905 1330.22 677.727 1324.6 681.576 1320.46Z" fill="black" fill-opacity="0.2"/>
<path d="M846.5 1163L817 1118.5L826.5 1097L862 1152L846.5 1163Z" fill="black" fill-opacity="0.2"/>
<path d="M785 1345C782.2 1298.6 789.5 1212.67 793.5 1175.5L796.5 1163H810C809 1225.33 807 1351.6 807 1358C807 1364.4 800 1378 796.5 1384L785 1345Z" fill="black" fill-opacity="0.2"/>
<path d="M893.5 1364.5C889.1 1280.9 881 1207 877.5 1180.5L892.5 1168L904.5 1211L910.5 1317L904.5 1393L893.5 1364.5Z" fill="black" fill-opacity="0.2"/>
<path d="M875.5 1165L852.5 1087L873.5 1082.33L892.5 1157L875.5 1165Z" fill="black" fill-opacity="0.2"/>
<path d="M879.5 1511L889 1450C890.869 1438 902.779 1438.33 908.5 1440L899.5 1511H879.5Z" fill="black" fill-opacity="0.2"/>
<path d="M768.498 1017C749.683 1045.07 696.85 1151.63 687.526 1215.84C687.466 1216.24 687.669 1216.63 688.031 1216.84L731.746 1241.13C732.21 1241.38 732.392 1241.96 732.159 1242.44L696.152 1316.43C696.053 1316.63 696.024 1316.86 696.073 1317.08C705.932 1361.02 719.01 1446.25 749.202 1513.1M796.5 1023.5C786.687 1043.22 770.839 1111.23 768.498 1172.05C765.452 1251.21 776.119 1364.72 819.727 1511.42M853.868 1035.5C862.489 1049.62 888.202 1122.63 897.08 1173.23C909.628 1244.75 917.281 1354.82 905.476 1509.42M924.5 1084C931.721 1098.4 954.398 1175.29 962.62 1220.04C962.692 1220.43 962.522 1220.82 962.191 1221.04L939.653 1236.13C939.209 1236.43 939.068 1237 939.343 1237.46C950.523 1256.04 973.65 1296.18 980.791 1314.88C980.843 1315.02 980.862 1315.15 980.852 1315.29C978.17 1351.78 968.492 1441.09 951.08 1508.28M813.981 1165.66C812.009 1218.29 804.412 1385.49 806.233 1433.98C806.24 1434.15 806.285 1434.29 806.375 1434.44C816.072 1449.96 851.746 1473.72 856.882 1477.1C857.26 1477.34 857.724 1477.3 858.055 1476.99C861.76 1473.55 883.178 1453.08 896.927 1426.79C897.026 1426.6 897.065 1426.41 897.031 1426.19C890.239 1383.92 868.036 1241.41 853 1164.5" stroke="black" stroke-width="22" stroke-linecap="round"/>
<path d="M770 1160.89L787.373 1174.98C787.876 1175.39 788.628 1175.22 788.906 1174.63L798.011 1155.46M890 1160.89L878.288 1172.75C877.834 1173.21 877.07 1173.13 876.728 1172.58L865.046 1153.86M798.011 1155.46L826.629 1095.21C826.968 1094.49 827.962 1094.43 828.381 1095.1L865.046 1153.86M798.011 1155.46C800.92 1157.74 805.655 1160.29 811.848 1162.05C821.254 1164.71 834.023 1165.56 848.868 1160.89C854.028 1159.26 859.438 1156.97 865.046 1153.86" stroke="black" stroke-width="22" stroke-linecap="round"/>
<path d="M353.5 1519.5C365.5 1454.33 414.5 1313.6 483.5 1219C530.101 1155.11 577.468 1101.29 629.141 1059.66C710.278 994.299 826.037 996.323 905.02 1064.27C1000.08 1146.05 1103.44 1290.29 1142.5 1519.5M1013.5 1319C1024.83 1354.33 1048.1 1443.9 1050.5 1519.5M667 1361.5C661.167 1392.33 650.3 1467.1 653.5 1519.5" stroke="black" stroke-width="22" stroke-linecap="round"/>
</g>
<defs>
<clipPath id="clip0_483_490">
<rect width="1500" height="1500" fill="white"/>
</clipPath>
</defs>
      <g clip-path="url(#clip0_497_1194)">
<path d="M379.667 654.812C432.345 471.574 618.472 401.981 699.114 390.653C740.985 382.718 849.655 375.215 949.364 408.675C980 418.956 1049.88 457.388 1091.92 499.818C1144.47 552.856 1272.97 732.052 1185.05 927.725C1097.12 1123.4 758.414 1092.29 612.749 1051.82C464.472 1010.63 314.48 881.563 379.667 654.812Z" fill="#AABBFF"/>
<path d="M449.293 747.204C454.734 531.068 585.306 432.345 649.911 410C432.292 459.565 365.296 655.455 364 747.204C377.99 984.871 584.496 1053.43 681 1058C601.498 1044.46 443.853 963.339 449.293 747.204Z" fill="#001647" fill-opacity="0.2"/>
<path d="M379.667 654.812C432.345 471.574 618.472 401.981 699.114 390.653C740.985 382.718 849.655 375.215 949.364 408.675C980 418.956 1049.88 457.388 1091.92 499.818C1144.47 552.856 1272.97 732.052 1185.05 927.725C1097.12 1123.4 758.414 1092.29 612.749 1051.82C464.472 1010.63 314.48 881.563 379.667 654.812Z" stroke="black" stroke-width="22" stroke-linecap="round"/>
</g>
<defs>
    <clipPath id="prefix__clip0_299_662"><path fill="#fff" d="M0 0h1500v1500H0z"/></clipPath>
</defs>
      <g clip-path="url(#clip0_624_2936)">
<path d="M876.088 925.246H970.501" stroke="black" stroke-width="22" stroke-linecap="round"/>
<path d="M864.633 785.967L846.559 774.78L827.213 762.8L802.666 747.607" stroke="black" stroke-width="22" stroke-linecap="round"/>
<path d="M848.206 782.713C848.206 786.612 847.063 790.425 844.918 793.681C842.773 796.937 839.721 799.492 836.139 801.032C832.557 802.571 828.602 803.027 824.764 802.342C820.925 801.657 817.372 799.862 814.544 797.179C811.715 794.495 809.735 791.042 808.848 787.245C807.962 783.448 808.208 779.475 809.556 775.817C810.904 772.158 813.295 768.976 816.434 766.662C819.572 764.348 823.319 763.006 827.213 762.8L846.546 774.8C847.638 777.295 848.203 779.989 848.206 782.713Z" fill="black" stroke="black" stroke-width="22" stroke-linecap="round"/>
<path d="M1024.63 747.607L1000.09 762.8L980.739 774.78L962.666 785.967" stroke="black" stroke-width="22" stroke-linecap="round"/>
<path d="M979.094 782.713C979.094 786.612 980.237 790.425 982.382 793.681C984.527 796.937 987.579 799.492 991.161 801.032C994.743 802.571 998.698 803.027 1002.54 802.342C1006.37 801.657 1009.93 799.862 1012.76 797.179C1015.59 794.495 1017.57 791.042 1018.45 787.245C1019.34 783.448 1019.09 779.475 1017.74 775.817C1016.4 772.158 1014 768.976 1010.87 766.662C1007.73 764.348 1003.98 763.006 1000.09 762.8L980.754 774.8C979.662 777.295 979.097 779.989 979.094 782.713Z" fill="black" stroke="black" stroke-width="22" stroke-linecap="round"/>
</g>
<defs>
<clipPath id="clip0_624_2936">
<rect width="1500" height="1500" fill="white"/>
</clipPath>
</defs>
      <g clip-path="url(#clip0_2507_63)">
<path d="M465.702 816.438C480.86 808.672 506.017 801.608 528.977 822.177C533.144 825.842 538.246 828.431 543.789 829.693C549.333 830.955 555.13 830.848 560.62 829.382C577.275 825.065 601.312 823.004 618.961 838.922C623.315 842.866 628.715 845.635 634.597 846.939C640.479 848.243 646.627 848.034 652.399 846.335C669.555 841.272 694.168 839.009 715.452 857.097C719.883 860.896 725.325 863.492 731.201 864.607C737.076 865.723 743.165 865.316 748.82 863.431C762.912 858.716 784.234 859.512 800.222 872.39C828.365 892.375 848.043 877.733 857.942 868.788C871.772 856.323 893.921 850.386 923.719 862.743C928.011 864.484 911.991 863.591 916.667 863.537C921.342 863.482 925.955 862.503 930.206 860.662C944.415 854.622 967.654 843.804 990.096 857.826C995.145 861.047 1001.04 862.895 1007.13 863.168C1013.23 863.441 1019.29 862.128 1024.64 859.372C1034.51 854.21 1047.89 840.755 1063.77 843.596C1069.43 844.621 1075.27 844.252 1080.74 842.526C1086.21 840.8 1091.12 837.775 1094.99 833.743C1101.9 826.507 1113.11 820.008 1130.46 821.203C1136.43 821.572 1142.39 820.401 1147.71 817.815C1153.02 815.228 1157.49 811.325 1160.63 806.526C1167.76 795.749 1181.5 784.561 1207.55 783.129C1207.55 783.129 1229.44 796.284 1221.41 827.286C1219.56 834.45 1220.39 841.993 1223.78 848.634C1228.07 857.086 1231.34 869.688 1221.88 880.984C1219.07 884.303 1217.01 888.13 1215.83 892.227C1214.65 896.325 1214.38 900.606 1215.03 904.804C1217.37 919.141 1210.09 929.732 1202.94 936.436C1196.53 942.382 1192.88 950.476 1192.78 958.945C1192.64 975.174 1183.45 983.831 1174.71 988.382C1170.7 990.558 1167.21 993.503 1164.47 997.026C1161.74 1000.55 1159.82 1004.57 1158.83 1008.83C1155.33 1022.95 1138.92 1029.71 1131.6 1032.78C1124.28 1035.86 1115.56 1041.1 1108.97 1052.71C1102.39 1064.32 1086.36 1077.38 1073.94 1080.18C1069.52 1081.18 1065.37 1083 1061.71 1085.54C1058.06 1088.08 1054.98 1091.29 1052.67 1094.97C1041.4 1112.69 1020.26 1116.86 1005.2 1117.34C1000.51 1117.44 995.906 1118.49 991.682 1120.41C987.459 1122.33 983.717 1125.07 980.707 1128.46C968.761 1142.24 950.228 1143.81 937.46 1142.95C928.834 1142.41 920.321 1145.07 913.731 1150.35C896.484 1163.89 876.794 1161.03 863.383 1156.3C858.647 1154.62 853.56 1153.99 848.522 1154.47C843.483 1154.96 838.63 1156.53 834.342 1159.08C816.183 1169.89 798.695 1165.99 787.072 1160.66C782.601 1158.66 777.713 1157.62 772.762 1157.63C767.811 1157.64 762.922 1158.69 758.454 1160.7C733.781 1171.63 713.634 1161.25 702.194 1152.09C698.704 1149.31 694.644 1147.24 690.267 1146.01C685.889 1144.77 681.287 1144.4 676.747 1144.91C649.432 1147.99 632.822 1134.53 623.915 1123.46C620.92 1119.72 617.074 1116.66 612.659 1114.5C608.244 1112.34 603.372 1111.14 598.399 1110.99C574.944 1110.28 561.378 1100.62 553.949 1092.25C550.876 1088.77 547.047 1085.94 542.72 1083.96C538.392 1081.97 533.664 1080.89 528.851 1080.76C502.079 1080.08 491.575 1067.57 487.501 1056.82C485.888 1052.44 483.228 1048.47 479.726 1045.22C476.225 1041.96 471.976 1039.51 467.306 1038.05C441.864 1030.28 434.319 1011.5 432.435 997.274C431.827 992.251 429.952 987.44 426.968 983.242C423.983 979.043 419.975 975.58 415.279 973.14C395.013 962.907 392.242 947.513 393.181 937.021C393.779 929.716 391.562 922.456 386.936 916.574C380.535 908.31 374.525 894.994 383.545 879.356C385.957 875.189 387.331 870.559 387.562 865.82C387.793 861.081 386.874 856.356 384.876 852.004C379.713 840.791 376.01 825.969 386.55 817.421C400.856 805.769 421.875 811.236 436.165 817.331C440.825 819.338 445.915 820.302 451.039 820.147C456.163 819.992 461.181 818.723 465.702 816.438Z" fill="#4AEEB9"/>
<path d="M565.801 884.099C551.032 867.741 562.342 843.135 571.001 831.629C565.495 829.957 553.585 826.623 549.992 826.658C545.5 826.701 531.994 823.539 523.458 817.978C514.921 812.417 517.451 816.155 510.447 814.341C503.442 812.527 485.97 812.224 483.973 812.243C481.977 812.263 447.097 818.709 445.6 818.724C444.102 818.738 408.068 808.268 406.567 807.813C405.365 807.448 390.515 817.214 383.24 822.142L383.504 850.822C383.511 851.575 382.995 867.755 382.736 875.751L384.18 924.168L409.529 966.714L433.298 1000.34L465.131 1042.35L492.815 1067.48L524.882 1080.81L589.512 1106.99L630.675 1132.46L669.218 1144.32L719.274 1159.82L761.198 1159.42L799.627 1159.05C791.688 1157.41 783.387 1150.18 778.03 1144.35C775.429 1141.53 771.581 1140.07 767.776 1140.6C727.302 1146.18 706.418 1124.24 698.952 1108.27C697.386 1104.91 694.491 1102.29 690.934 1101.27C666.516 1094.28 656.946 1076.35 654.273 1063.41C653.338 1058.89 650.206 1054.91 645.869 1053.31C623.767 1045.16 618.763 1028.83 619.441 1016.71C619.725 1011.63 617.484 1006.4 613.109 1003.8C589.803 989.959 586.544 971.178 588.801 958.778C589.622 954.265 588.49 949.38 585.204 946.181C567.933 929.37 566.759 911.509 569.796 899.613C571.162 894.262 569.5 888.197 565.801 884.099Z" fill="#001647" fill-opacity="0.2"/>
<path d="M528.978 822.176C506.017 801.608 480.861 808.672 465.702 816.438C461.182 818.722 456.163 819.992 451.04 820.147C445.916 820.302 440.825 819.338 436.165 817.331C421.875 811.236 400.856 805.768 386.55 817.421C376.01 825.969 381.713 840.79 386.877 852.003C388.874 856.355 389.793 861.08 389.562 865.82C389.331 870.559 387.958 875.188 385.545 879.356C376.525 894.993 382.535 908.31 388.936 916.573C393.562 922.456 395.779 929.715 395.181 937.021C394.242 947.513 397.013 962.906 417.279 973.139C421.976 975.579 425.983 979.043 428.968 983.241C431.952 987.439 433.827 992.251 434.435 997.274C436.32 1011.5 441.864 1030.28 467.306 1038.05C471.976 1039.51 476.225 1041.96 479.726 1045.22C483.228 1048.47 485.888 1052.44 487.501 1056.82C491.575 1067.57 502.08 1080.08 528.851 1080.76C533.664 1080.89 538.392 1081.97 542.72 1083.96C547.048 1085.94 550.876 1088.77 553.949 1092.25C561.378 1100.62 574.944 1110.28 598.399 1110.99C603.372 1111.14 608.245 1112.34 612.659 1114.5C617.074 1116.66 620.92 1119.72 623.915 1123.46C632.823 1134.53 649.432 1147.99 676.747 1144.91C681.287 1144.4 685.889 1144.77 690.267 1146.01C694.645 1147.24 698.704 1149.31 702.194 1152.09C713.634 1161.25 733.781 1171.63 758.454 1160.7C762.923 1158.69 767.811 1157.64 772.762 1157.63C777.713 1157.62 782.602 1158.66 787.072 1160.65C798.696 1165.99 816.183 1169.89 834.342 1159.08C838.63 1156.53 843.483 1154.96 848.522 1154.47C853.561 1153.99 858.647 1154.62 863.383 1156.3C876.794 1161.02 896.484 1163.89 913.731 1150.35C920.322 1145.07 928.835 1142.41 937.46 1142.95C950.228 1143.81 968.761 1142.24 980.707 1128.46C983.717 1125.07 987.459 1122.33 991.683 1120.41C995.906 1118.49 1000.51 1117.44 1005.2 1117.34C1020.26 1116.86 1041.4 1112.69 1052.67 1094.97C1054.98 1091.29 1058.06 1088.08 1061.71 1085.54C1065.37 1083 1069.52 1081.18 1073.94 1080.18C1086.36 1077.38 1102.39 1064.32 1108.97 1052.71C1115.56 1041.1 1124.28 1035.86 1131.6 1032.78L1131.8 1032.7C1139.22 1029.59 1155.36 1022.82 1158.83 1008.83C1159.82 1004.57 1161.74 1000.55 1164.48 997.025C1167.21 993.502 1170.7 990.558 1174.71 988.381C1183.45 983.83 1192.64 975.174 1192.78 958.945C1192.88 950.475 1196.53 942.382 1202.94 936.436C1210.09 929.732 1217.37 919.141 1215.03 904.804C1214.38 900.605 1214.65 896.324 1215.83 892.227C1217.01 888.129 1219.07 884.302 1221.88 880.984C1231.34 869.687 1228.07 857.086 1223.78 848.633C1220.39 841.992 1219.56 834.449 1221.41 827.286C1229.44 796.284 1207.55 783.129 1207.55 783.129C1181.5 784.561 1167.76 795.749 1160.63 806.525C1157.49 811.325 1153.02 815.228 1147.71 817.814C1142.39 820.4 1136.43 821.572 1130.46 821.202C1113.11 820.007 1101.9 826.506 1094.99 833.743C1091.12 837.775 1086.21 840.8 1080.74 842.526C1075.28 844.251 1069.43 844.62 1063.77 843.596C1047.89 840.754 1034.51 854.21 1024.65 859.372C1019.29 862.127 1013.23 863.44 1007.13 863.168C1001.04 862.895 995.145 861.047 990.096 857.826C975.888 848.949 959.716 858.434 946.155 868.123C933.956 876.839 919.01 875.415 905.387 869.164C886.22 860.368 868.122 859.612 857.942 868.788C848.043 877.733 828.366 892.375 800.222 872.39C784.234 859.511 762.912 858.716 748.82 863.431C743.166 865.316 737.077 865.722 731.201 864.607C725.325 863.492 719.883 860.896 715.452 857.096C694.168 839.008 669.555 841.271 652.399 846.335C646.627 848.034 640.479 848.242 634.597 846.938C628.715 845.634 623.315 842.866 618.961 838.921C601.313 823.004 577.276 825.064 560.621 829.381C555.13 830.848 549.333 830.955 543.79 829.692C538.246 828.43 533.145 825.841 528.978 822.176Z" stroke="black" stroke-width="22" stroke-miterlimit="10"/>
<path d="M847.684 952.99C796.393 960.533 771.057 930.01 764.065 911.56C763.735 910.688 764.715 909.945 765.529 910.399C794.794 926.75 833.656 903.637 851.184 871.99C854.749 865.552 859.18 860.308 864.102 856.095C892.633 831.676 933.121 867.002 920.263 902.286C911.028 927.625 887.792 947.092 847.684 952.99Z" fill="#4AEEB9"/>
<path d="M999.033 952.99C1050.32 960.533 1075.66 930.01 1082.65 911.56C1082.98 910.688 1082 909.945 1081.19 910.399C1051.92 926.75 1013.06 903.637 995.533 871.99C991.967 865.552 987.536 860.308 982.614 856.095C954.083 831.676 913.595 867.002 926.454 902.286C935.688 927.625 958.924 947.092 999.033 952.99Z" fill="#4AEEB9"/>
<path d="M883 852.5C880.2 911.7 822.5 934.5 794 938.5L769.5 916.5L826.5 903.5L851 878.5L858 857.5L883 852.5Z" fill="#001647" fill-opacity="0.2"/>
<path d="M970 938.5C944.8 914.9 950.833 871.333 957 852.5L940 854.5L924.5 867V897L945 925.5L970 938.5Z" fill="#001647" fill-opacity="0.2"/>
<path fill-rule="evenodd" clip-rule="evenodd" d="M923.129 856.694C920.505 853.024 917.459 849.726 914.113 846.903C898.825 834.009 875.472 829.811 856.267 846.248C850.38 851.286 845.101 857.547 840.878 865.171C833.142 879.14 820.655 891.196 807.203 897.842C793.771 904.478 780.734 905.185 770.211 899.306C765.64 896.752 760.435 897.58 756.925 900.315C753.272 903.161 751.024 908.5 753.096 913.968C761.559 936.297 791.257 970.816 848.601 962.383C884.621 957.086 909.524 941.229 923.129 918.755C936.733 941.229 961.636 957.086 997.656 962.384C1055 970.817 1084.7 936.297 1093.16 913.968C1095.23 908.5 1092.99 903.161 1089.33 900.315C1085.82 897.58 1080.62 896.752 1076.05 899.307C1065.52 905.186 1052.49 904.479 1039.06 897.842C1025.6 891.196 1013.12 879.14 1005.38 865.171C1001.16 857.547 995.878 851.287 989.991 846.248C970.785 829.811 947.433 834.01 932.145 846.904C928.799 849.726 925.753 853.024 923.129 856.694ZM899.929 863.721C891.054 856.236 879.898 854.981 870.572 862.962C866.614 866.35 863.033 870.578 860.124 875.83C850.333 893.508 834.625 908.832 816.948 917.566C807.598 922.186 797.32 925.111 786.94 925.299C798.415 936.011 817.19 944.766 845.401 940.617C882.42 935.173 901.682 917.782 909.245 897.029C913.863 884.357 909.026 871.393 899.929 863.721ZM946.329 863.721C937.232 871.394 932.395 884.358 937.013 897.029C944.576 917.782 963.838 935.174 1000.86 940.618C1029.07 944.766 1047.84 936.011 1059.32 925.299C1048.94 925.111 1038.66 922.186 1029.31 917.566C1011.63 908.832 995.925 893.508 986.134 875.83C983.225 870.578 979.643 866.35 975.686 862.962C966.36 854.981 955.203 856.236 946.329 863.721Z" fill="black"/>
</g>
<defs>
<clipPath id="clip0_2507_63">
<rect width="1500" height="1500" fill="white"/>
</clipPath>
</defs>
      <g clip-path="url(#clip0_708_47)">
<path d="M897.736 617.618L881.079 614.086C881.079 614.086 866.198 610.584 860.384 617.618C854.569 624.652 841.111 606.134 840.193 611.058C839.274 615.983 793.249 617.114 793.249 617.114H752.868C752.868 617.114 707.792 611.654 689.772 617.618C671.751 623.583 639.012 615.842 634.752 617.114C630.492 618.385 581.862 619.445 579.732 621.15C577.602 622.856 570.252 648.711 568.122 650.417C565.992 652.122 563.499 671.226 563.075 682.711C562.651 694.196 552.848 701.805 552.475 709.455C552.101 717.104 532.062 737.631 528.236 750.387C524.409 763.143 519.059 764.607 515.233 772.256C511.407 779.906 495.375 780.814 492.407 784.639C489.439 788.464 477.133 791.996 473.731 796.245C469.593 801.754 467.564 805.947 461.899 809.869C454.64 814.804 452.248 815.551 452.248 815.551C452.248 815.551 418.156 814.471 415.016 815.753C411.876 817.034 366.558 827.409 366.558 827.409L354.595 824.381C354.595 824.381 379.228 837.894 374.968 823.009C370.707 808.123 368.173 826.036 365.226 806.195C362.278 786.355 359.653 780.269 354.979 765.687C350.305 751.104 346.468 735.613 342.683 721.161C338.897 706.709 342.683 691.39 342.683 691.39C342.683 691.39 344.005 664.828 348.043 648.388C352.081 631.949 353.575 624.995 353.999 621.342C354.423 617.689 364.63 590.128 365.478 588.039C366.326 585.95 390.999 520.857 390.999 520.857L420.437 490.238L487.561 425.175C487.561 425.175 603.658 389.854 610.069 386.705C616.479 383.556 630.906 380.105 632.188 379.257C633.47 378.41 674.942 363.907 682.604 360.507C690.266 357.106 701.472 362.283 707.842 360.507C714.213 358.73 750.334 357.065 757.562 356.217C764.791 355.37 784.82 344.733 803.637 346.126C822.455 347.518 852.378 345.742 874.578 348.921C896.777 352.1 938.704 362.151 938.704 362.151L1069.02 429.898L1161.55 513.278L1222 627.932L1216.9 708.445C1193 617 1172.07 598.525 1172.07 598.525C1172.07 598.525 1118.32 617.618 1025.79 611.401C1023.83 610.978 970.06 617.78 967.395 615.6C964.729 613.42 918.937 614.086 918.937 614.086L897.736 617.618Z" fill="#53B6F9"/>
<path d="M445 548.267C445 548.267 492.54 607.041 554.165 553.465C615.791 499.89 579.238 451 579.238 451L549.47 495.244L511.846 524.868L451.261 545.672L445 548.267Z" fill="#FFBF44"/>
<path d="M1040 401.139C1040 401.139 1087.44 365.088 1144.64 422.698C1201.84 480.308 1183.05 513.346 1183.05 513.346L1177.62 528C1177.62 528 1096.93 442.694 1093.26 441.323C1089.59 439.953 1040 401.139 1040 401.139Z" fill="#FFBF44"/>
<path d="M415 549C514.964 549 596 468.187 596 368.5C596 268.813 514.964 188 415 188C315.036 188 234 268.813 234 368.5C234 468.187 315.036 549 415 549Z" fill="#53B6F9"/>
<path d="M1118.11 214.423C1118.11 214.423 1237.35 183.413 1333.33 308.069C1429.3 432.726 1261.74 581.54 1261.74 581.54L1213.76 597L1176.8 539.157C1176.8 539.157 1216.31 505.594 1154.46 434.32C1092.6 363.046 1032.37 401.917 1032.37 401.917L954 367.547C954 367.547 992.035 241.548 1118.11 214.423Z" fill="#53B6F9"/>
<path d="M382.963 196C353.376 233.807 321.435 344.205 406.162 418.812C487.757 490.662 552.594 462.703 580.026 434.192C580.988 416.977 583.944 398.87 591.031 403.254L592.761 388.062L683.035 361.849C702.871 361.177 743.957 361.546 749.605 368.402C755.254 375.258 742.209 380.332 734.98 382.013C652.674 415.888 611.253 475.439 600.83 500.98L585.7 450.066L588.746 423.32C586.494 426.81 583.573 430.505 580.026 434.192C579.71 439.858 579.609 445.427 579.648 450.066L541.32 505.517C545.859 514.087 559.072 530.218 575.614 526.185C592.156 522.152 563.342 546.685 546.868 559.456C534.214 565.141 510.466 573.455 490.471 574.471L501.479 580.124L543.337 570.546C495.538 630.231 489.799 731.858 492.905 775.21C470.042 790.333 417.963 821.386 392.545 824.612C367.127 827.838 356.738 810.161 354.721 800.919L347.156 711.694L354.721 635.575L389.519 551.894H440.728C438.218 549.461 436.658 547.546 435.917 546.349C396.243 555.255 303.582 547.156 250.326 443.513C183.755 313.959 304.288 214.148 382.963 196Z" fill="#001647" fill-opacity="0.2"/>
<path d="M1204 224.23C1109.99 250.846 1072.04 345.886 1064.81 390.078L1079.43 395.119C1095.91 397.136 1124.12 401.975 1105.15 405.201C1086.19 408.427 1080.1 427.718 1079.43 436.959L1039.59 409.738L960.917 367.898C968.818 342.021 999.245 280.285 1057.75 240.361C1116.25 200.436 1179.62 212.971 1204 224.23Z" fill="#001647" fill-opacity="0.2"/>
<path d="M595 386.03C632.39 374.373 647.497 361.12 729.543 361.12C747.775 361.12 743.743 360.71 759.899 356.878C824.369 341.584 944.158 332.988 1084.58 445.709C1251.35 579.581 1230.85 692.837 1207.22 733" stroke="black" stroke-width="22" stroke-miterlimit="10"/>
<path d="M1175.05 614.543C1181.1 613.962 1185.53 608.588 1184.95 602.541C1184.37 596.494 1179 592.063 1172.95 592.644L1175.05 614.543ZM571.098 632.245L560.118 631.595L571.098 632.245ZM376.743 826.963L376.036 815.985L376.022 815.986L376.008 815.987L376.743 826.963ZM359.309 814.04L348.596 816.536L348.598 816.546L359.309 814.04ZM1172.95 592.644C893.968 619.452 602.922 605.25 590.57 605.25V627.25C601.41 627.25 894.673 641.486 1175.05 614.543L1172.95 592.644ZM590.57 605.25C574.091 605.25 561.042 615.966 560.118 631.595L582.079 632.894C582.169 631.37 582.789 630.159 583.856 629.241C584.947 628.303 587.03 627.25 590.57 627.25V605.25ZM560.118 631.595C555.888 703.131 519.577 748.317 479.304 776.263C438.586 804.516 394.182 814.817 376.036 815.985L377.45 837.94C399.315 836.532 447.622 825.024 491.845 794.338C536.513 763.343 577.375 712.459 582.079 632.894L560.118 631.595ZM376.008 815.987C374.652 816.078 373.306 815.684 372.209 814.871L359.109 832.545C364.398 836.465 370.908 838.378 377.478 837.938L376.008 815.987ZM372.209 814.871C371.112 814.057 370.334 812.876 370.02 811.534L348.598 816.546C350.097 822.954 353.82 828.625 359.109 832.545L372.209 814.871ZM370.022 811.544C360.562 770.933 340.975 663.055 398.226 552.042L378.673 541.958C317.789 660.015 338.757 774.297 348.596 816.536L370.022 811.544Z" fill="black"/>
<path d="M1040 406.92C1040 406.92 1077.75 364.311 1148.52 433.85C1215.3 499.446 1177.16 539 1177.16 539" stroke="black" stroke-width="22" stroke-miterlimit="10"/>
<path d="M1213.36 603C1247.34 592.982 1278.06 574.1 1302.37 548.283C1326.68 522.467 1343.72 490.643 1351.74 456.064C1376.8 348.198 1309.88 240.392 1202.25 215.271C1094.63 190.151 987.064 257.23 962 365.106" stroke="black" stroke-width="22" stroke-miterlimit="10"/>
<path d="M415 549C514.964 549 596 468.187 596 368.5C596 268.813 514.964 188 415 188C315.036 188 234 268.813 234 368.5C234 468.187 315.036 549 415 549Z" stroke="black" stroke-width="22" stroke-miterlimit="10"/>
<path d="M440 547.868C440 547.868 481.455 608.65 556.206 551.527C632.92 492.91 577.894 441 577.894 441" stroke="black" stroke-width="22" stroke-miterlimit="10"/>
</g>
<defs>
<clipPath id="clip0_708_47">
<rect width="1500" height="1500" fill="white"/>
</clipPath>
</defs>
      
    </g>
    </svg>