<svg
      xmlns="http://www.w3.org/2000/svg"
      preserveAspectRatio="xMidYMin meet"
      fill="none"
      viewBox="0 0 1500 1500"
    >
      <g>
      <path fill="url(#prefix__paint0_linear_53_30463)" d="M0 0h1500v1500H0z"/><defs><linearGradient id="prefix__paint0_linear_53_30463" x1="1500" y1="1500" x2="0" y2="0" gradientUnits="userSpaceOnUse">
<stop stop-color="#FF5A5A"/>
<stop offset="1" stop-color="#FFBDBD"/>
</linearGradient></defs>
      <g clip-path="url(#clip0_482_324)">
<path d="M407.5 1353.5L353.5 1511H1139L1134.5 1455.5L1054 1252L962.5 1115V1063C940.833 1067.67 875.7 1076.5 788.5 1074.5C701.3 1072.5 610.833 1044.67 576.5 1031L581 1103.5L493.5 1201.5L407.5 1353.5Z" fill="white"/>
<path d="M409.87 1339.62C462.691 1207.98 547.202 1128.91 583.5 1098L575.5 1067.5L591.5 1027.5L634.5 1042L631.597 1111L764 1133L780 1511H754.5L740.5 1158C693.7 1155.2 635.274 1140.17 611.91 1133C500.28 1264.53 453.823 1439.08 443.159 1511H353.699C350.414 1508.73 357.049 1471.27 409.87 1339.62Z" fill="#001647" fill-opacity="0.2"/>
<path d="M353.5 1519.5C365.5 1454.33 414.5 1313.6 483.5 1219C516.929 1173.17 550.751 1132.52 586.275 1097.84M1142.5 1519.5C1110.35 1330.88 1034.67 1199.8 955.894 1113.71M1013.5 1319C1024.83 1354.33 1048.1 1443.9 1050.5 1519.5M667 1361.5C661.167 1392.33 650.3 1467.1 653.5 1519.5M767.5 1135C771 1222.17 780.5 1379.5 783.5 1512.5M586.275 1097.84C583.015 1096.62 579.96 1095.42 577.118 1094.25C576.743 1094.1 576.5 1093.74 576.5 1093.33V1028.5C730.5 1092.9 897.667 1077 962 1061V1112C959.965 1112.58 957.929 1113.16 955.894 1113.71M586.275 1097.84C652.817 1122.64 804.285 1155.24 955.894 1113.71M843.729 1186.27C843.511 1195.1 836.174 1202.09 827.34 1201.87C818.506 1201.65 811.521 1194.32 811.739 1185.48C811.956 1176.65 819.294 1169.66 828.128 1169.88C836.962 1170.1 843.947 1177.44 843.729 1186.27ZM847.831 1263.39C847.613 1272.23 840.275 1279.21 831.441 1279C822.607 1278.78 815.623 1271.44 815.84 1262.61C816.058 1253.77 823.396 1246.79 832.23 1247.01C841.063 1247.22 848.048 1254.56 847.831 1263.39ZM852.833 1340.52C852.616 1349.35 845.278 1356.34 836.444 1356.12C827.61 1355.9 820.625 1348.56 820.843 1339.73C821.061 1330.9 828.399 1323.91 837.232 1324.13C846.066 1324.35 853.051 1331.68 852.833 1340.52ZM856.008 1418.64C855.791 1427.48 848.453 1434.46 839.619 1434.24C830.785 1434.03 823.8 1426.69 824.018 1417.85C824.236 1409.02 831.573 1402.04 840.407 1402.25C849.241 1402.47 856.226 1409.81 856.008 1418.64ZM861.184 1492.79C860.966 1501.63 853.629 1508.61 844.795 1508.39C835.961 1508.18 828.976 1500.84 829.194 1492C829.411 1483.17 836.749 1476.19 845.583 1476.4C854.417 1476.62 861.402 1483.96 861.184 1492.79ZM913.807 1184C913.589 1192.83 906.252 1199.82 897.418 1199.6C888.584 1199.38 881.599 1192.04 881.817 1183.21C882.034 1174.37 889.372 1167.39 898.206 1167.61C907.04 1167.82 914.025 1175.16 913.807 1184ZM917.908 1261.12C917.69 1269.95 910.352 1276.94 901.518 1276.72C892.684 1276.5 885.7 1269.16 885.917 1260.33C886.135 1251.5 893.473 1244.51 902.307 1244.73C911.141 1244.95 918.125 1252.29 917.908 1261.12ZM922.911 1338.24C922.693 1347.08 915.355 1354.06 906.521 1353.84C897.687 1353.63 890.703 1346.29 890.92 1337.45C891.138 1328.62 898.476 1321.64 907.31 1321.85C916.143 1322.07 923.128 1329.41 922.911 1338.24ZM926.086 1416.37C925.869 1425.2 918.531 1432.19 909.697 1431.97C900.863 1431.75 893.878 1424.41 894.096 1415.58C894.314 1406.75 901.651 1399.76 910.485 1399.98C919.319 1400.2 926.304 1407.54 926.086 1416.37ZM931.261 1490.52C931.043 1499.35 923.706 1506.34 914.872 1506.12C906.038 1505.9 899.053 1498.56 899.271 1489.73C899.489 1480.9 906.826 1473.91 915.66 1474.13C924.494 1474.35 931.479 1481.68 931.261 1490.52Z" stroke="black" stroke-width="22" stroke-linecap="round"/>
</g>
<defs>
<clipPath id="clip0_482_324">
<rect width="1500" height="1500" fill="white"/>
</clipPath>
</defs>
      <g clip-path="url(#clip0_497_1194)">
<path d="M379.667 654.812C432.345 471.574 618.472 401.981 699.114 390.653C740.985 382.718 849.655 375.215 949.364 408.675C980 418.956 1049.88 457.388 1091.92 499.818C1144.47 552.856 1272.97 732.052 1185.05 927.725C1097.12 1123.4 758.414 1092.29 612.749 1051.82C464.472 1010.63 314.48 881.563 379.667 654.812Z" fill="#AABBFF"/>
<path d="M449.293 747.204C454.734 531.068 585.306 432.345 649.911 410C432.292 459.565 365.296 655.455 364 747.204C377.99 984.871 584.496 1053.43 681 1058C601.498 1044.46 443.853 963.339 449.293 747.204Z" fill="#001647" fill-opacity="0.2"/>
<path d="M379.667 654.812C432.345 471.574 618.472 401.981 699.114 390.653C740.985 382.718 849.655 375.215 949.364 408.675C980 418.956 1049.88 457.388 1091.92 499.818C1144.47 552.856 1272.97 732.052 1185.05 927.725C1097.12 1123.4 758.414 1092.29 612.749 1051.82C464.472 1010.63 314.48 881.563 379.667 654.812Z" stroke="black" stroke-width="22" stroke-linecap="round"/>
</g>
<defs>
    <clipPath id="prefix__clip0_299_662"><path fill="#fff" d="M0 0h1500v1500H0z"/></clipPath>
</defs>
      <g clip-path="url(#clip0_624_3562)">
<path d="M799.421 789.214L858.141 778.547C859.189 778.352 860.151 777.837 860.895 777.073C861.639 776.309 862.128 775.334 862.294 774.28C862.455 773.224 862.285 772.143 861.808 771.187C861.331 770.234 860.569 769.453 859.628 768.954L804.701 739.807" stroke="black" stroke-width="22" stroke-miterlimit="10" stroke-linecap="round"/>
<path d="M1037.67 789.214L979.001 778.547C977.951 778.355 976.987 777.841 976.243 777.076C975.499 776.312 975.011 775.335 974.847 774.28C974.687 773.227 974.854 772.149 975.327 771.194C975.804 770.237 976.569 769.453 977.514 768.954L1032.44 739.807" stroke="black" stroke-width="22" stroke-miterlimit="10" stroke-linecap="round"/>
<path d="M992 915.801C992 944.083 960.211 967 921 967C881.789 967 850 944.083 850 915.801C850.013 910.144 851.278 904.561 853.703 899.453C858.875 888.383 870.646 884.1 880.667 889.061C892.124 894.775 906.017 898.12 921.008 898.12C935.999 898.12 949.884 894.775 961.349 889.061C971.354 884.068 983.133 888.383 988.313 899.453C990.733 904.562 991.993 910.145 992 915.801Z" fill="white" stroke="black" stroke-width="22" stroke-miterlimit="10"/>
</g>
<defs>
<clipPath id="clip0_624_3562">
<rect width="1500" height="1500" fill="white"/>
</clipPath>
</defs>
      <g clip-path="url(#clip0_911_60)">
<path d="M460.219 805.943C475.82 798.654 501.529 792.379 524.163 813.654C528.273 817.448 533.363 820.195 538.941 821.629C544.519 823.064 550.397 823.138 556.006 821.844C573.016 818.048 597.437 816.739 614.831 833.2C619.122 837.278 624.509 840.214 630.429 841.701C636.349 843.188 642.586 843.172 648.487 841.654C666.028 837.128 691.038 835.634 712.05 854.378C716.422 858.314 721.858 861.079 727.777 862.377C733.697 863.675 739.88 863.459 745.668 861.751C760.092 857.479 781.675 858.939 797.48 872.31C825.383 893.165 845.774 879.144 856.08 870.512C870.479 858.485 893.106 853.242 922.921 866.523C927.217 868.397 911.011 867.005 915.75 867.096C920.49 867.188 925.194 866.353 929.559 864.645C944.143 859.052 968.025 848.964 990.335 863.68C995.352 867.057 1001.27 869.088 1007.43 869.551C1013.6 870.014 1019.78 868.891 1025.3 866.304C1035.45 861.452 1049.43 848.421 1065.43 851.757C1071.13 852.957 1077.07 852.771 1082.66 851.217C1088.26 849.662 1093.33 846.792 1097.37 842.883C1104.59 835.865 1116.15 829.719 1133.7 831.455C1139.73 832.011 1145.81 831.026 1151.28 828.607C1156.75 826.188 1161.4 822.426 1164.73 817.727C1172.28 807.178 1186.55 796.425 1212.99 795.806C1212.99 795.806 1234.77 809.638 1225.67 840.375C1223.58 847.477 1224.19 855.043 1227.42 861.786C1231.51 870.369 1234.43 883.066 1224.5 894.062C1221.55 897.291 1219.34 901.052 1218.02 905.111C1216.7 909.17 1216.3 913.44 1216.82 917.657C1218.75 932.06 1211.05 942.419 1203.6 948.896C1196.92 954.64 1192.97 962.615 1192.61 971.078C1191.97 987.295 1182.39 995.66 1173.39 999.937C1169.26 1001.99 1165.63 1004.82 1162.75 1008.26C1159.87 1011.69 1157.8 1015.65 1156.67 1019.88C1152.69 1033.88 1135.86 1040.13 1128.34 1042.97C1120.83 1045.81 1111.83 1050.78 1104.8 1062.18C1097.77 1073.58 1081.12 1086.14 1068.45 1088.54C1063.95 1089.41 1059.68 1091.1 1055.9 1093.53C1052.12 1095.95 1048.9 1099.06 1046.44 1102.66C1034.48 1120.03 1012.92 1123.54 997.649 1123.54C992.899 1123.5 988.197 1124.4 983.858 1126.19C979.519 1127.97 975.643 1130.6 972.488 1133.89C959.959 1147.29 941.13 1148.29 928.218 1147.03C919.494 1146.22 910.786 1148.61 903.945 1153.68C886.051 1166.67 866.187 1163.2 852.742 1158.06C847.995 1156.23 842.86 1155.45 837.739 1155.77C832.618 1156.09 827.651 1157.52 823.228 1159.93C804.494 1170.17 786.893 1165.72 775.279 1160.03C770.81 1157.89 765.888 1156.71 760.871 1156.56C755.853 1156.41 750.868 1157.31 746.278 1159.18C720.94 1169.33 700.843 1158.33 689.532 1148.82C686.082 1145.93 682.031 1143.74 677.633 1142.37C673.235 1140.99 668.583 1140.48 663.967 1140.85C636.193 1143.07 619.776 1129.1 611.091 1117.75C608.171 1113.92 604.368 1110.74 599.961 1108.45C595.553 1106.16 590.653 1104.81 585.618 1104.5C561.872 1103.05 548.422 1092.98 541.153 1084.38C538.145 1080.8 534.353 1077.85 530.028 1075.74C525.704 1073.62 520.946 1072.39 516.073 1072.11C488.965 1070.6 478.706 1057.76 474.909 1046.89C473.409 1042.47 470.835 1038.41 467.388 1035.05C463.94 1031.69 459.709 1029.1 455.023 1027.5C429.48 1018.94 422.413 999.936 420.942 985.655C420.48 980.616 418.728 975.748 415.833 971.459C412.938 967.169 408.984 963.582 404.299 960.997C384.079 950.136 381.744 934.663 383.019 924.205C383.85 916.922 381.827 909.597 377.32 903.573C371.088 895.114 365.408 881.616 375.03 866.267C377.603 862.177 379.137 857.593 379.517 852.863C379.897 848.133 379.112 843.381 377.221 838.969C372.334 827.6 369.038 812.67 379.982 804.456C394.838 793.255 415.968 799.376 430.262 805.914C434.922 808.066 440.05 809.188 445.247 809.193C450.444 809.198 455.569 808.086 460.219 805.943Z" fill="#4AEEB9"/>
<path d="M559.543 876.665C545.123 859.855 557.331 835.636 566.454 824.413C560.927 822.571 548.96 818.866 545.318 818.788C540.765 818.691 527.176 815.109 518.697 809.285C510.218 803.46 512.667 807.275 505.625 805.243C498.582 803.212 480.886 802.364 478.863 802.32C476.839 802.277 441.295 807.632 439.778 807.6C438.26 807.567 402.068 795.978 400.56 795.475C399.354 795.074 384.005 804.371 376.481 809.07L375.865 837.745C375.849 838.497 374.828 854.653 374.319 862.637L374.292 911.077L398.67 954.394L421.72 988.747L452.684 1031.73L479.964 1057.71L512.049 1072.04L576.734 1100.22L617.663 1126.96L656.354 1140.02L706.601 1157.08L749.096 1157.99L788.05 1158.82C780.022 1156.92 771.799 1149.38 766.552 1143.38C764.045 1140.51 760.276 1138.96 756.49 1139.36C715.191 1143.75 694.664 1121.11 687.589 1104.9C686.111 1101.51 683.291 1098.81 679.766 1097.7C655.194 1089.96 646.026 1071.74 643.706 1058.71C642.893 1054.15 639.87 1050.07 635.563 1048.35C613.408 1039.54 608.801 1023.1 609.835 1011C610.272 1005.89 608.173 1000.55 603.832 997.826C580.686 983.294 577.921 964.469 580.559 952.142C581.528 947.614 580.532 942.638 577.294 939.328C560.382 922.041 559.702 904.215 563.112 892.424C564.66 887.074 563.169 880.893 559.543 876.665Z" fill="#001647" fill-opacity="0.2"/>
<path d="M524.163 813.654C501.529 792.379 475.82 798.654 460.219 805.943C455.569 808.086 450.444 809.198 445.247 809.193C440.05 809.188 434.921 808.066 430.262 805.914C415.968 799.376 394.838 793.255 379.982 804.456C369.038 812.67 372.334 827.6 377.221 838.969C379.112 843.381 379.897 848.133 379.517 852.863C379.137 857.593 377.603 862.177 375.03 866.267C365.408 881.616 371.088 895.114 377.32 903.573C381.827 909.597 383.85 916.922 383.019 924.205C381.744 934.663 384.079 950.136 404.299 960.997C408.984 963.582 412.938 967.169 415.833 971.459C418.728 975.748 420.48 980.616 420.942 985.655C422.413 999.936 429.48 1018.94 455.023 1027.5C459.709 1029.1 463.94 1031.69 467.388 1035.05C470.835 1038.41 473.409 1042.47 474.909 1046.89C478.706 1057.76 488.965 1070.6 516.073 1072.11C520.946 1072.39 525.704 1073.62 530.028 1075.74C534.353 1077.85 538.145 1080.8 541.153 1084.38C548.422 1092.98 561.872 1103.05 585.618 1104.5C590.653 1104.81 595.553 1106.16 599.961 1108.45C604.368 1110.74 608.171 1113.92 611.091 1117.75C619.776 1129.1 636.193 1143.07 663.967 1140.85C668.583 1140.48 673.235 1140.99 677.633 1142.37C682.031 1143.74 686.082 1145.93 689.532 1148.82C700.843 1158.33 720.94 1169.33 746.278 1159.18C750.868 1157.31 755.853 1156.41 760.871 1156.56C765.888 1156.71 770.81 1157.89 775.278 1160.03C786.893 1165.72 804.494 1170.17 823.228 1159.93C827.651 1157.52 832.618 1156.09 837.739 1155.77C842.86 1155.45 847.995 1156.23 852.742 1158.06C866.187 1163.2 886.051 1166.67 903.945 1153.68C910.786 1148.61 919.494 1146.22 928.218 1147.03C941.13 1148.29 959.959 1147.29 972.488 1133.89C975.643 1130.6 979.519 1127.97 983.858 1126.19C988.197 1124.4 992.899 1123.5 997.649 1123.54C1012.92 1123.54 1034.48 1120.03 1046.44 1102.66C1048.9 1099.06 1052.12 1095.95 1055.9 1093.53C1059.68 1091.1 1063.94 1089.41 1068.45 1088.54C1081.12 1086.14 1097.77 1073.58 1104.8 1062.18C1111.83 1050.78 1120.83 1045.81 1128.34 1042.97L1128.55 1042.89C1136.16 1040.01 1152.72 1033.75 1156.67 1019.88C1157.8 1015.65 1159.87 1011.69 1162.75 1008.26C1165.63 1004.82 1169.26 1001.99 1173.39 999.937C1182.39 995.66 1191.97 987.295 1192.61 971.078C1192.97 962.615 1196.92 954.64 1203.6 948.896C1211.05 942.419 1218.75 932.06 1216.82 917.657C1216.3 913.44 1216.7 909.17 1218.02 905.111C1219.34 901.052 1221.55 897.291 1224.5 894.062C1234.43 883.066 1231.51 870.369 1227.42 861.786C1224.19 855.043 1223.58 847.477 1225.67 840.375C1234.77 809.638 1212.99 795.806 1212.99 795.806C1186.55 796.425 1172.28 807.178 1164.73 817.727C1161.4 822.426 1156.75 826.188 1151.28 828.607C1145.81 831.026 1139.73 832.011 1133.7 831.455C1116.15 829.719 1104.59 835.865 1097.37 842.883C1093.33 846.792 1088.26 849.662 1082.66 851.217C1077.07 852.771 1071.13 852.957 1065.43 851.757C1049.43 848.421 1035.45 861.452 1025.3 866.304C1019.78 868.891 1013.6 870.014 1007.43 869.551C1001.27 869.088 995.352 867.057 990.335 863.68C976.056 854.261 959.164 863.539 945.029 872.906C932.675 881.092 917.921 879.217 904.652 872.618C885.317 863.002 866.772 861.581 856.08 870.512C845.774 879.144 825.383 893.165 797.48 872.31C781.675 858.939 760.092 857.479 745.668 861.751C739.88 863.459 733.697 863.675 727.777 862.377C721.858 861.079 716.422 858.314 712.05 854.378C691.038 835.634 666.028 837.128 648.487 841.654C642.585 843.172 636.349 843.188 630.429 841.701C624.509 840.214 619.122 837.278 614.831 833.2C597.437 816.739 573.016 818.048 556.006 821.844C550.397 823.138 544.519 823.064 538.941 821.629C533.363 820.195 528.272 817.448 524.163 813.654Z" stroke="black" stroke-width="22" stroke-miterlimit="10"/>
<path d="M847.684 952.99C796.393 960.533 771.057 930.01 764.065 911.56C763.735 910.688 764.715 909.945 765.529 910.399C794.794 926.75 833.656 903.637 851.184 871.99C854.749 865.552 859.18 860.308 864.102 856.095C892.633 831.676 933.121 867.002 920.263 902.286C911.028 927.625 887.792 947.092 847.684 952.99Z" fill="#4AEEB9"/>
<path d="M999.033 952.99C1050.32 960.533 1075.66 930.01 1082.65 911.56C1082.98 910.688 1082 909.945 1081.19 910.399C1051.92 926.75 1013.06 903.637 995.533 871.99C991.967 865.552 987.536 860.308 982.614 856.095C954.083 831.676 913.595 867.002 926.454 902.286C935.688 927.625 958.924 947.092 999.033 952.99Z" fill="#4AEEB9"/>
<path d="M883 852.5C880.2 911.7 822.5 934.5 794 938.5L769.5 916.5L826.5 903.5L851 878.5L858 857.5L883 852.5Z" fill="#001647" fill-opacity="0.2"/>
<path d="M970 938.5C944.8 914.9 950.833 871.333 957 852.5L940 854.5L924.5 867V897L945 925.5L970 938.5Z" fill="#001647" fill-opacity="0.2"/>
<path fill-rule="evenodd" clip-rule="evenodd" d="M923.129 856.694C920.505 853.024 917.459 849.726 914.113 846.903C898.825 834.009 875.472 829.811 856.267 846.248C850.38 851.286 845.101 857.547 840.878 865.171C833.142 879.14 820.655 891.196 807.203 897.842C793.771 904.478 780.734 905.185 770.211 899.306C765.64 896.752 760.435 897.58 756.925 900.315C753.272 903.161 751.024 908.5 753.096 913.968C761.559 936.297 791.257 970.816 848.601 962.383C884.621 957.086 909.524 941.229 923.129 918.755C936.733 941.229 961.636 957.086 997.656 962.384C1055 970.817 1084.7 936.297 1093.16 913.968C1095.23 908.5 1092.99 903.161 1089.33 900.315C1085.82 897.58 1080.62 896.752 1076.05 899.307C1065.52 905.186 1052.49 904.479 1039.06 897.842C1025.6 891.196 1013.12 879.14 1005.38 865.171C1001.16 857.547 995.878 851.287 989.991 846.248C970.785 829.811 947.433 834.01 932.145 846.904C928.799 849.726 925.753 853.024 923.129 856.694ZM899.929 863.721C891.054 856.236 879.898 854.981 870.572 862.962C866.614 866.35 863.033 870.578 860.124 875.83C850.333 893.508 834.625 908.832 816.948 917.566C807.598 922.186 797.32 925.111 786.94 925.299C798.415 936.011 817.19 944.766 845.401 940.617C882.42 935.173 901.682 917.782 909.245 897.029C913.863 884.357 909.026 871.393 899.929 863.721ZM946.329 863.721C937.232 871.394 932.395 884.358 937.013 897.029C944.576 917.782 963.838 935.174 1000.86 940.618C1029.07 944.766 1047.84 936.011 1059.32 925.299C1048.94 925.111 1038.66 922.186 1029.31 917.566C1011.63 908.832 995.925 893.508 986.134 875.83C983.225 870.578 979.643 866.35 975.686 862.962C966.36 854.981 955.203 856.236 946.329 863.721Z" fill="black"/>
</g>
<defs>
<clipPath id="clip0_911_60">
<rect width="1500" height="1500" fill="white"/>
</clipPath>
</defs>
      <g clip-path="url(#clip0_708_162)">
<path d="M300.372 667.686L253.609 748.241L454.3 680.321L738.585 628.639C984.683 604.662 1210.53 624.315 1292.69 637.132C1280.65 582.383 1179.61 523.84 1130.59 501.406C1113.68 430.836 1031.42 348.1 992.409 315.548C971.462 295.939 891.936 255.415 741.414 250.145C590.891 244.875 484.992 352.562 450.853 407.063L389.206 540.053L391.612 600.159L300.372 667.686Z" fill="#FFBF44"/>
<path d="M404.788 511.118L379.215 601.746L514.498 559.193L704.36 524.766L854.623 512.616L1130.06 508.135L1104.76 433.647L953.374 421.221L780.012 421.578L582.833 458.009L404.788 511.118Z" fill="#FF6247"/>
<path d="M354.862 795.884C354.862 795.884 350.938 743.246 356.825 717.001L252.005 767.453L261.561 785.693L354.862 795.884Z" fill="#F8C25A"/>
<path d="M1186.18 619.442C1186.18 619.442 1208.44 666.084 1214.92 706.177L1275.33 666.35L1296.3 640.096L1186.18 619.442Z" fill="#CF9B37"/>
<path d="M359.887 716.851C352.213 746.644 356.751 781.024 357.902 794.489L278.053 788.276L243.54 765.647L278.915 699.786L381.672 602.99L407.655 507.185C466.308 334.462 611.08 271.051 676.135 260.936C555.524 348.14 530.412 491.561 532.932 552.371L538.374 561.153C488.016 608.28 453.733 663.777 443.099 686.173L359.887 716.851Z" fill="#001647" fill-opacity="0.2"/>
<path d="M364.028 801.813C354.076 800.496 344.144 799.025 334.23 797.399C306.552 792.824 279.493 787.009 258.929 779.757C255.669 778.61 252.71 776.716 250.281 774.221C247.851 771.727 246.016 768.698 244.915 765.367C243.815 762.037 243.478 758.494 243.932 755.01C244.386 751.527 245.618 748.196 247.533 745.273C268.878 712.643 314.762 650.968 383.157 602.831C383.157 602.831 402.36 310.699 701.675 253.239C1000.99 195.778 1121.72 458.388 1134.58 509.714C1134.58 509.714 1236 540.898 1294.32 623.492C1297.32 627.715 1298.83 632.853 1298.58 638.063C1298.34 643.273 1296.37 648.244 1292.99 652.16C1281.88 664.897 1257.92 683.904 1206.41 704.608" stroke="black" stroke-width="22" stroke-miterlimit="10"/>
<path d="M383.144 602.819C383.144 602.819 625 483.756 1134.57 509.703" stroke="black" stroke-width="22" stroke-miterlimit="10"/>
<path d="M245.071 765.774C245.071 765.774 286.039 722.428 507.075 672.557C706.679 627.495 911.21 609.222 1115.47 618.2C1180.56 621.084 1245.28 626.907 1298.55 637.603" stroke="black" stroke-width="22" stroke-miterlimit="10"/>
<path d="M404.141 511.46C404.141 511.46 721.312 375.084 1101.06 436.771" stroke="black" stroke-width="22" stroke-miterlimit="10"/>
</g>
<defs>
<clipPath id="clip0_708_162">
<rect width="1500" height="1500" fill="white"/>
</clipPath>
</defs>
      
    </g>
    </svg>