<svg
      xmlns="http://www.w3.org/2000/svg"
      preserveAspectRatio="xMidYMin meet"
      fill="none"
      viewBox="0 0 1500 1500"
    >
      <g>
      <path fill="url(#prefix__a1)" d="M0 0h1500v1500H0z"/><defs><linearGradient id="prefix__a1" x1="1500" y1="1500" x2="0" y2="0" gradientUnits="userSpaceOnUse">
<stop stop-color="#1555D1"/>
<stop offset="1" stop-color="#70E5FF"/>
</linearGradient></defs>
      <g clip-path="url(#clip0_482_374)">
<path d="M773 1011.5C543.4 1029.9 398.667 1353.5 355 1513H1138.5C1075.7 1127 868.667 1017.83 773 1011.5Z" fill="#53B6F9"/>
<path d="M831 1187.5C733.4 1193.9 672.667 1094.83 654.5 1044.5L690 1026C695.667 1034.33 707.3 1051.7 708.5 1054.5C709.7 1057.3 737.667 1099 751.5 1119.5L827 1143.5L857.5 1119.5L893.5 1054.5L920.5 1081.5L905 1119.5L873.5 1160L831 1187.5Z" fill="white"/>
<path d="M490.5 1417.5L388 1405.5L409 1356L513 1376C558.833 1393.83 651.2 1430 654 1432C656.8 1434 652.833 1463.17 650.5 1477.5L490.5 1417.5Z" fill="white"/>
<path d="M1114.5 1412.5L1041.5 1430L1046 1469.5L1126.5 1451L1114.5 1412.5Z" fill="white"/>
<path d="M749.5 1019.5C536 1134 457.448 1414.63 443.159 1511H353.699C350.414 1508.73 357.049 1471.27 409.87 1339.62C462.691 1207.98 569.086 1113.24 605.384 1082.33L674 1033.5L749.5 1019.5Z" fill="#001647" fill-opacity="0.2"/>
<path d="M390.5 1402.5L355 1509.5H650L654 1474L390.5 1402.5Z" fill="#AABBFF"/>
<path d="M1047 1477V1512.5L1145 1509.5L1130 1456L1047 1477Z" fill="#AABBFF"/>
<path d="M724 1086L696.5 1024L706 1015H757.5L845 1031.5L888 1054L855 1115.5L830.5 1152L775 1135.5L724 1086Z" fill="#AABBFF"/>
<path d="M353.5 1519.5C365.5 1454.33 414.5 1313.6 483.5 1219C530.101 1155.11 577.468 1101.29 629.141 1059.66C710.278 994.299 826.037 996.323 905.02 1064.27C1000.08 1146.05 1103.44 1290.29 1142.5 1519.5M1013.5 1319C1024.83 1354.33 1048.1 1443.9 1050.5 1519.5M667 1361.5C661.167 1392.33 650.3 1467.1 653.5 1519.5M389 1402C453.5 1411.83 596.7 1440.9 653.5 1478.5M408 1358.5C467 1367.33 598.3 1392.9 655.5 1432.5M1047 1474.5L1127.5 1451.5M1042 1429.5L1113.5 1408.5M657.5 1041.5C673.972 1086.42 728.014 1181.47 835.445 1187.97C835.803 1187.99 836.152 1187.92 836.47 1187.75C859.22 1175.83 910.85 1139.66 918 1076.5M696.5 1026C703.647 1059.57 739.404 1130.61 825.294 1146.87C825.745 1146.95 826.204 1146.89 826.604 1146.67C843.993 1136.92 879.07 1104.87 885 1051.5" stroke="black" stroke-width="22" stroke-linecap="round"/>
<path d="M909.773 1322.6C908.394 1322.6 907.427 1321.24 907.884 1319.94L920.176 1284.94C920.73 1283.36 922.857 1283.12 923.752 1284.53L958.88 1339.9C959.251 1340.49 959.897 1340.84 960.589 1340.83L976.811 1340.67C978.374 1340.66 979.316 1338.93 978.486 1337.61L917.606 1240.51C916.716 1239.09 914.58 1239.33 914.025 1240.91L879.595 1338.95C879.135 1340.26 880.115 1341.63 881.501 1341.61L945.945 1340.98C947.513 1340.96 948.454 1339.23 947.615 1337.9L926.611 1304.77C925.716 1303.36 923.587 1303.6 923.034 1305.18L917.404 1321.25C917.123 1322.06 916.367 1322.59 915.518 1322.59L909.773 1322.6Z" fill="white"/>
</g>
<defs>
<clipPath id="clip0_482_374">
<rect width="1500" height="1500" fill="white"/>
</clipPath>
</defs>
      <g clip-path="url(#clip0_497_1194)">
<path d="M379.667 654.812C432.345 471.574 618.472 401.981 699.114 390.653C740.985 382.718 849.655 375.215 949.364 408.675C980 418.956 1049.88 457.388 1091.92 499.818C1144.47 552.856 1272.97 732.052 1185.05 927.725C1097.12 1123.4 758.414 1092.29 612.749 1051.82C464.472 1010.63 314.48 881.563 379.667 654.812Z" fill="#AABBFF"/>
<path d="M449.293 747.204C454.734 531.068 585.306 432.345 649.911 410C432.292 459.565 365.296 655.455 364 747.204C377.99 984.871 584.496 1053.43 681 1058C601.498 1044.46 443.853 963.339 449.293 747.204Z" fill="#001647" fill-opacity="0.2"/>
<path d="M379.667 654.812C432.345 471.574 618.472 401.981 699.114 390.653C740.985 382.718 849.655 375.215 949.364 408.675C980 418.956 1049.88 457.388 1091.92 499.818C1144.47 552.856 1272.97 732.052 1185.05 927.725C1097.12 1123.4 758.414 1092.29 612.749 1051.82C464.472 1010.63 314.48 881.563 379.667 654.812Z" stroke="black" stroke-width="22" stroke-linecap="round"/>
</g>
<defs>
    <clipPath id="prefix__clip0_299_662"><path fill="#fff" d="M0 0h1500v1500H0z"/></clipPath>
</defs>
      <g clip-path="url(#clip0_624_3293)">
<path d="M916.488 918.577L931.325 908.854C933.985 907.112 936.223 904.799 937.876 902.083C939.529 899.367 940.556 896.317 940.882 893.154C941.208 889.991 940.825 886.795 939.761 883.799C938.697 880.803 936.978 878.082 934.73 875.834V875.834C932.657 873.764 930.181 872.142 927.456 871.068C924.731 869.994 921.814 869.491 918.886 869.59C915.959 869.689 913.083 870.388 910.436 871.643C907.79 872.899 905.429 874.684 903.501 876.889L890.301 891.98" stroke="black" stroke-width="22" stroke-miterlimit="10" stroke-linecap="round"/>
<path d="M916.488 918.675L931.325 928.397C933.986 930.137 936.225 932.449 937.879 935.164C939.533 937.88 940.561 940.93 940.887 944.092C941.213 947.255 940.83 950.451 939.764 953.446C938.699 956.442 936.979 959.162 934.73 961.409V961.409C932.66 963.484 930.185 965.11 927.46 966.188C924.734 967.265 921.817 967.77 918.888 967.672C915.959 967.574 913.081 966.874 910.434 965.617C907.787 964.359 905.427 962.57 903.501 960.362L890.301 945.271" stroke="black" stroke-width="22" stroke-miterlimit="10" stroke-linecap="round"/>
<path d="M1012 817C1038.51 817 1060 795.51 1060 769C1060 742.49 1038.51 721 1012 721C985.49 721 964 742.49 964 769C964 795.51 985.49 817 1012 817Z" fill="black" stroke="black" stroke-width="22" stroke-miterlimit="10"/>
<path d="M1025.18 765.61C1035.8 765.61 1044.4 757.009 1044.4 746.398C1044.4 735.788 1035.8 727.186 1025.18 727.186C1014.57 727.186 1005.97 735.788 1005.97 746.398C1005.97 757.009 1014.57 765.61 1025.18 765.61Z" fill="white"/>
<path d="M994.295 774.185C998.822 774.185 1002.49 770.515 1002.49 765.988C1002.49 761.461 998.822 757.791 994.295 757.791C989.768 757.791 986.098 761.461 986.098 765.988C986.098 770.515 989.768 774.185 994.295 774.185Z" fill="white"/>
<path d="M1018.1 800.697C1026.05 800.697 1032.49 794.254 1032.49 786.307C1032.49 778.359 1026.05 771.917 1018.1 771.917C1010.16 771.917 1003.71 778.359 1003.71 786.307C1003.71 794.254 1010.16 800.697 1018.1 800.697Z" fill="white"/>
<path d="M822 817C848.51 817 870 795.51 870 769C870 742.49 848.51 721 822 721C795.49 721 774 742.49 774 769C774 795.51 795.49 817 822 817Z" fill="black" stroke="black" stroke-width="22" stroke-miterlimit="10"/>
<path d="M835.185 765.61C845.795 765.61 854.397 757.009 854.397 746.398C854.397 735.788 845.795 727.186 835.185 727.186C824.574 727.186 815.973 735.788 815.973 746.398C815.973 757.009 824.574 765.61 835.185 765.61Z" fill="white"/>
<path d="M804.295 774.185C808.822 774.185 812.492 770.515 812.492 765.988C812.492 761.461 808.822 757.791 804.295 757.791C799.768 757.791 796.098 761.461 796.098 765.988C796.098 770.515 799.768 774.185 804.295 774.185Z" fill="white"/>
<path d="M828.103 800.697C836.051 800.697 842.493 794.254 842.493 786.307C842.493 778.359 836.051 771.917 828.103 771.917C820.156 771.917 813.713 778.359 813.713 786.307C813.713 794.254 820.156 800.697 828.103 800.697Z" fill="white"/>
</g>
<defs>
<clipPath id="clip0_624_3293">
<rect width="1500" height="1500" fill="white"/>
</clipPath>
</defs>
      <g clip-path="url(#clip0_925_1401)">
<ellipse cx="932" cy="915.5" rx="131" ry="69.5" fill="#AABBFF"/>
<path d="M918 889C941.196 889 960 870.196 960 847C960 823.804 941.196 805 918 805C894.804 805 876 823.804 876 847C876 870.196 894.804 889 918 889Z" fill="#FF6247" stroke="black" stroke-width="20"/>
<path d="M1005 930.356C1005 959.98 966.25 984 918.494 984C870.738 984 832 959.973 832 930.356C832 929.977 832 929.591 832 929.212C832.625 911.226 849.556 899.938 864.2 907.269C879.044 914.691 897.95 919.139 918.469 919.139C938.988 919.139 957.906 914.691 972.75 907.262C987.394 899.938 1004.35 911.226 1004.95 929.212C1004.99 929.591 1005 929.97 1005 930.356Z" fill="white" stroke="black" stroke-width="20"/>
<ellipse cx="931.245" cy="839.196" rx="8.55209" ry="16.8191" transform="rotate(-31.5641 931.245 839.196)" fill="white"/>
</g>
<defs>
<clipPath id="clip0_925_1401">
<rect width="1500" height="1500" fill="white"/>
</clipPath>
</defs>
      <g clip-path="url(#clip0_798_1964)">
<path d="M711.94 381.541L669.138 415.004L754.914 456.956C786.09 456.451 856.04 454.579 886.429 451.127C916.817 447.675 946.703 430.594 957.848 422.485L912.882 387.272L890.772 360.146L852.07 352.844L816.711 388.83L811.119 369.892L779.2 357.196L748.101 362.456L711.94 381.541Z" fill="#AABBFF"/>
<path d="M754.823 451.145C758.386 440.393 766.661 423.631 780.081 411.559M882.17 449.083C878.062 439.675 870.922 425.659 859.411 414.501M670.743 416.037C678.291 403.405 696.028 378.1 722.448 377.672C724.832 377.634 727.122 377.712 729.323 377.895M780.081 411.559C789.433 403.145 801.285 397.009 815.783 396.774C818.147 396.736 820.438 396.825 822.658 397.03M780.081 411.559C771.884 400.903 758.35 380.305 729.323 377.895M953.095 422.563C946.826 410.677 929.573 387.795 908.089 385.052M859.411 414.501C864.186 404.755 879.655 385.169 903.328 384.785C904.936 384.759 906.524 384.852 908.089 385.052M859.411 414.501C850.192 405.565 838.17 398.463 822.658 397.03M729.323 377.895C734.108 368.72 747.587 350.309 768.512 349.97C795.461 349.534 817.557 375.809 822.658 397.03M908.089 385.052C903.334 374.267 889.367 351.713 871.612 352C849.419 352.36 832.274 370.674 822.592 392.964" stroke="black" stroke-width="22" stroke-linecap="round"/>
<path d="M734.247 487.127C733.447 492.759 720.564 594.052 812.718 612.46" stroke="black" stroke-width="21" stroke-linecap="round"/>
<path d="M945.288 493.324C944.488 498.956 931.605 600.249 1023.76 618.657" stroke="black" stroke-width="21" stroke-linecap="round"/>
<path d="M735.561 507.67C736.849 505.281 738.788 503.246 741.189 501.767C818.004 453.586 826.066 335.697 827.014 298.636C827.033 297.871 827.304 297.132 827.79 296.517C828.275 295.902 828.954 295.44 829.734 295.193C830.514 294.946 831.358 294.926 832.155 295.135C832.952 295.344 833.663 295.772 834.194 296.363C912.888 383.77 897.815 466.178 888.628 495.666C886.199 503.464 883.195 511.005 879.833 518.449C869.807 540.653 842.318 588.978 788.15 603.647C751.553 591.291 732.29 544.604 733.84 515.4C733.679 512.724 734.272 510.06 735.561 507.67Z" fill="#FF6247" stroke="black" stroke-width="20" stroke-miterlimit="10"/>
<path d="M833.002 305.604C891.142 432.863 797.767 523.043 743.812 552.226L734.239 506.154L750.853 495.018L785.661 461.816L808.807 412.473L825.13 340.737L833.002 305.604Z" fill="#001647" fill-opacity="0.2"/>
<path d="M946.602 513.867C947.89 511.477 949.829 509.443 952.23 507.963C1029.04 459.783 1037.11 341.893 1038.06 304.832C1038.07 304.068 1038.34 303.329 1038.83 302.713C1039.32 302.098 1039.99 301.636 1040.77 301.389C1041.55 301.142 1042.4 301.122 1043.2 301.331C1043.99 301.54 1044.7 301.968 1045.23 302.559C1123.93 389.966 1108.86 472.375 1099.67 501.862C1097.24 509.661 1094.24 517.201 1090.87 524.645C1080.85 546.849 1053.36 595.174 999.191 609.843C962.594 597.487 943.331 550.801 944.881 521.596C944.72 518.92 945.313 516.256 946.602 513.867Z" fill="#FF6247" stroke="black" stroke-width="20" stroke-miterlimit="10"/>
<path d="M1044.04 311.801C1102.18 439.059 1008.81 529.239 954.853 558.422L945.28 512.35L961.894 501.215L996.702 468.012L1019.85 418.669L1036.17 346.933L1044.04 311.801Z" fill="#001647" fill-opacity="0.2"/>
</g>
<defs>
<clipPath id="clip0_798_1964">
<rect width="1500" height="1500" fill="white"/>
</clipPath>
</defs>
      
    </g>
    </svg>