<svg
      xmlns="http://www.w3.org/2000/svg"
      preserveAspectRatio="xMidYMin meet"
      fill="none"
      viewBox="0 0 1500 1500"
    >
      <g>
      <path fill="url(#prefix__paint0_linear_53_30462)" d="M0 0h1500v1500H0z"/><defs><linearGradient id="prefix__paint0_linear_53_30462" x1="0" y1="0" x2="1500" y2="1500" gradientUnits="userSpaceOnUse">
<stop stop-color="#FFC4F6"/>
<stop offset="1" stop-color="#FF3DB1"/>
</linearGradient></defs>
      <g clip-path="url(#clip0_481_154)">
<path d="M773 1011.5C543.4 1029.9 398.667 1353.5 355 1513H1138.5C1075.7 1127 868.667 1017.83 773 1011.5Z" fill="#99C4CB"/>
<path d="M749.5 1019.5C536 1134 457.448 1414.63 443.159 1511H353.699C350.414 1508.73 357.049 1471.27 409.87 1339.62C462.691 1207.98 569.086 1113.24 605.384 1082.33L674 1033.5L749.5 1019.5Z" fill="#001647" fill-opacity="0.2"/>
<path d="M758.5 1354.5L741 1377.5C742 1390.5 744.2 1417.1 745 1419.5C746 1422.5 758.5 1441 795 1448C824.2 1453.6 837.833 1437 841 1428C854.667 1433.83 882.2 1445.5 883 1445.5H923C934.333 1440.83 957.5 1422.7 959.5 1387.5C961.5 1352.3 917.667 1327.5 895.5 1319.5C897.833 1304.33 890.8 1273.4 844 1271C797.2 1268.6 787.833 1314 789 1337L758.5 1354.5Z" fill="#AABBFF"/>
<path d="M792 1395L773.5 1382L761.5 1384L760 1404L778.5 1408L792 1395Z" fill="#7985B4"/>
<path d="M914.5 1415.5C917.3 1411.5 907.333 1401.83 902 1397.5C896.833 1399.33 886.5 1403.3 886.5 1404.5C886.5 1406 886 1413 886.5 1415.5C886.9 1417.5 897 1425 902 1428.5C905 1425.83 911.7 1419.5 914.5 1415.5Z" fill="#7985B4"/>
<path d="M353.5 1519.5C365.5 1454.33 414.5 1313.6 483.5 1219C530.101 1155.11 577.468 1101.29 629.141 1059.66C710.278 994.299 826.037 996.323 905.02 1064.27C1000.08 1146.05 1103.44 1290.29 1142.5 1519.5M1013.5 1319C1024.83 1354.33 1048.1 1443.9 1050.5 1519.5M667 1361.5C661.167 1392.33 650.3 1467.1 653.5 1519.5" stroke="black" stroke-width="22" stroke-linecap="round"/>
<path d="M966.98 1387.9V1387.77C965.6 1366.86 958.73 1349.82 946.56 1337.13C936.17 1326.31 921.91 1318.62 904.15 1314.26C899.79 1296.01 889.65 1280.56 876.13 1271.69L876.03 1271.63C852.11 1257.29 824.1 1257.47 802.94 1272.09C783.64 1285.42 774.41 1307.87 777.93 1332.55C753.81 1339.27 735.71 1359.93 732.5 1384.78C729.73 1406.24 738.63 1427.94 756.33 1442.83C768.91 1453.42 784.11 1459.01 799.21 1459.01C805.17 1459.01 811.13 1458.14 816.9 1456.35C828.56 1452.87 838.9 1446.04 846.33 1436.98C849.41 1439.94 852.64 1442.62 855.95 1444.94C878.16 1461.15 906.76 1463.5 930.58 1451.06C953.98 1438.84 967.58 1415.23 966.98 1387.9ZM933.77 1429.67C931.81 1431.38 929.68 1432.91 927.46 1434.27C924.3 1436.23 920.98 1437.85 917.48 1439.04C915.26 1439.81 913.05 1440.49 910.74 1440.91C909.55 1441.17 908.44 1441.34 907.25 1441.51C906.31 1441.68 905.45 1441.76 904.52 1441.85C903.49 1441.93 902.56 1442.02 901.53 1442.02H898.12C897.18 1442.02 896.16 1441.93 895.22 1441.85C893.69 1441.76 892.07 1441.59 890.53 1441.34C888.57 1441 886.69 1440.66 884.73 1440.15C880.81 1439.12 876.97 1437.59 873.31 1435.8C869.72 1434.01 866.31 1431.89 863.16 1429.42C861.79 1428.31 860.43 1427.2 859.15 1426.01C857.87 1424.82 856.68 1423.63 855.57 1422.35C855.4 1422.09 855.14 1421.92 854.97 1421.67C854.97 1421.58 854.88 1421.58 854.88 1421.5C854.88 1421.5 854.88 1421.41 854.8 1421.41L854.71 1421.33C854.54 1421.24 854.46 1421.16 854.37 1420.99C854.37 1420.99 854.37 1420.9 854.29 1420.9C854.03 1420.65 853.86 1420.39 853.61 1420.05C853.52 1419.97 853.43 1419.88 853.35 1419.79C853.123 1419.51 853.067 1419.2 853.18 1418.86C853.18 1418.77 853.26 1418.69 853.26 1418.6C853.35 1418.35 853.43 1418.01 853.61 1417.75C854.63 1414.94 855.4 1412.05 855.99 1409.15C856.25 1408.04 856.42 1406.85 856.5 1405.74C856.68 1404.47 856.85 1403.1 856.93 1401.83C856.93 1401.4 857.02 1400.97 857.02 1400.55C857.02 1400.21 857.02 1399.78 857.1 1399.44C857.19 1398.68 857.19 1397.91 857.1 1397.14V1396.21C857.1 1395.44 857.1 1394.59 857.02 1393.82C857.02 1393.57 857.02 1393.31 856.93 1393.06C856.93 1392.72 856.93 1392.37 856.85 1392.03C856.76 1391.61 856.76 1391.27 856.76 1390.84C856.68 1390.33 856.68 1389.82 856.59 1389.39C856.42 1388.03 856.16 1386.67 855.91 1385.39C855.31 1382.41 854.46 1379.43 853.35 1376.54C852.33 1373.81 851.22 1371.17 849.85 1368.62C849.17 1367.34 848.49 1366.15 847.72 1364.87C847.72 1364.87 847.72 1364.78 847.64 1364.78C847.55 1364.7 847.55 1364.61 847.47 1364.44C847.38 1364.36 847.29 1364.27 847.29 1364.19C846.53 1363 845.76 1361.72 844.82 1360.61C844.65 1360.36 844.57 1360.1 844.74 1359.85C844.91 1359.51 845.08 1359.25 845.25 1358.91C845.33 1358.82 845.42 1358.65 845.42 1358.57C845.59 1358.06 845.93 1357.55 846.19 1357.04L846.27 1356.87C847.47 1354.65 848.83 1352.52 850.36 1350.56C851.9 1348.52 853.69 1346.56 855.57 1344.77C858.64 1341.88 862.05 1339.32 865.72 1337.19C868.27 1335.75 871 1334.47 873.82 1333.45C876.72 1332.43 879.7 1331.57 882.77 1331.06C885.24 1330.64 887.72 1330.38 890.19 1330.3C891.47 1330.21 892.66 1330.21 893.94 1330.3C895.56 1330.38 897.27 1330.47 898.89 1330.64C900.51 1330.81 902.22 1331.06 903.84 1331.4C903.92 1331.4 904.01 1331.4 904.09 1331.49C904.77 1331.49 905.37 1331.57 905.88 1331.74C906.14 1331.74 906.39 1331.83 906.65 1331.91C906.73 1331.91 906.82 1332 906.91 1332C911.42 1333.19 915.77 1334.9 919.87 1337.02C923.02 1338.64 926.01 1340.6 928.74 1342.81C930.7 1344.35 932.49 1345.97 934.2 1347.67C935.99 1349.46 937.69 1351.33 939.23 1353.37C941.02 1355.67 942.72 1358.14 944.17 1360.7C945.62 1363.34 946.99 1365.98 948.01 1368.79C949.2 1371.94 950.14 1375.26 950.82 1378.58C951.08 1379.94 951.34 1381.3 951.51 1382.67C951.68 1384.28 951.85 1385.9 951.93 1387.61C952.02 1388.8 952.02 1389.9 951.93 1391.1V1391.69C951.93 1392.46 951.85 1393.31 951.76 1394.08C951.76 1394.42 951.68 1394.67 951.68 1395.01C951.68 1395.18 951.68 1395.44 951.59 1395.61C951.34 1398.08 950.91 1400.46 950.31 1402.85C949.72 1405.06 949.03 1407.28 948.18 1409.49C947.16 1412.13 945.88 1414.77 944.34 1417.24C942.47 1420.22 940.34 1423.12 937.95 1425.67C936.67 1427.12 935.22 1428.39 933.77 1429.67ZM843.46 1397.23C843.46 1398.16 843.46 1399.02 843.37 1399.95V1400.46C843.37 1400.89 843.29 1401.4 843.29 1401.83C843.29 1402 843.29 1402.25 843.2 1402.42C843.03 1404.55 842.6 1406.6 842.09 1408.64C841.07 1412.9 839.36 1416.9 837.15 1420.65C835.61 1423.29 833.74 1425.67 831.69 1427.88C829.39 1430.35 826.83 1432.57 824.01 1434.44C820.77 1436.65 817.19 1438.36 813.44 1439.64C810.79 1440.57 808.07 1441.17 805.25 1441.59C804.06 1441.76 802.78 1441.85 801.58 1441.93C800.05 1442.02 798.51 1442.02 796.98 1442.02C796.38 1442.02 795.7 1441.93 795.1 1441.93C794.85 1441.93 794.51 1441.85 794.25 1441.85C792.8 1441.76 791.35 1441.51 789.9 1441.25C786.49 1440.66 783.08 1439.64 779.84 1438.27C777.62 1437.34 775.4 1436.23 773.27 1434.95C770.88 1433.59 768.67 1431.97 766.53 1430.18C765.25 1429.08 763.98 1427.97 762.78 1426.69C760.65 1424.56 758.69 1422.18 756.98 1419.71C755.62 1417.67 754.34 1415.62 753.23 1413.41C752.12 1411.11 751.1 1408.72 750.33 1406.34C750.33 1406.25 750.33 1406.17 750.25 1406.08C749.99 1405.4 749.82 1404.81 749.65 1404.13V1403.96C749.14 1401.83 748.71 1399.7 748.37 1397.48C748.03 1394.84 747.94 1392.12 748.03 1389.39C748.11 1387.09 748.45 1384.71 748.88 1382.41C749.39 1379.94 750.07 1377.56 750.93 1375.26C751.78 1372.96 752.89 1370.75 754.08 1368.62C755.45 1366.23 757.15 1364.02 758.94 1361.89C760.22 1360.44 761.5 1359.16 762.95 1357.89C765.08 1356.01 767.39 1354.4 769.77 1352.95C772.16 1351.59 774.64 1350.39 777.19 1349.54C779.41 1348.78 781.63 1348.18 783.93 1347.75C785.21 1347.5 786.57 1347.33 787.85 1347.16C789.64 1346.99 791.44 1346.9 793.23 1346.9C794.59 1346.9 795.96 1346.99 797.23 1347.16C800.34 1347.48 803.56 1347.89 806.58 1348.7C808.87 1349.32 811.72 1350.31 814.46 1351.84C817.96 1353.8 821.54 1355.76 824.61 1358.31C826.14 1359.59 827.68 1360.95 829.04 1362.4C830.83 1364.27 832.54 1366.23 833.99 1368.36C836.38 1371.68 838.34 1375.26 839.96 1379.09C840.9 1381.39 841.67 1383.69 842.18 1386.07C842.52 1387.61 842.86 1389.22 843.12 1390.84C843.2 1391.78 843.29 1392.63 843.37 1393.57V1393.82C843.46 1394.76 843.46 1395.61 843.46 1396.55V1397.23ZM841.15 1340.09C839.62 1341.96 838.17 1343.92 836.89 1345.97C836.46 1346.65 836.04 1347.33 835.61 1348.01C835.44 1348.35 835.27 1348.61 835.1 1348.95C835.1 1349.03 835.01 1349.03 835.01 1349.12C835.01 1349.2 834.93 1349.2 834.93 1349.29C834.84 1349.46 834.76 1349.46 834.67 1349.37C834.33 1349.12 833.99 1348.78 833.65 1348.52C832.54 1347.58 831.43 1346.73 830.24 1345.88C828.19 1344.35 826.06 1342.99 823.84 1341.79C820.69 1340 817.45 1338.56 814.12 1337.28C811.99 1336.51 809.86 1335.83 807.64 1335.32C805.59 1334.81 803.46 1334.38 801.33 1334.13C800.05 1333.96 798.68 1333.79 797.32 1333.7C797.15 1333.7 796.89 1333.7 796.72 1333.62H796.47C796.3 1333.62 796.21 1333.53 796.13 1333.36C796.04 1333.19 796.04 1332.94 795.96 1332.77C795.78 1332.09 795.61 1331.4 795.53 1330.72C795.36 1330.38 795.36 1329.96 795.27 1329.62C795.27 1329.45 795.19 1329.28 795.19 1329.19C794.93 1328.08 794.76 1326.89 794.68 1325.78C794.59 1325.1 794.59 1324.51 794.51 1323.83C794.42 1322.63 794.34 1321.36 794.42 1320.16C794.42 1318.38 794.59 1316.67 794.76 1314.97C795.02 1312.5 795.53 1310.03 796.21 1307.73C797.06 1304.84 798.17 1302.03 799.62 1299.39C800.99 1296.75 802.69 1294.28 804.57 1291.98C807.13 1288.91 810.11 1286.19 813.44 1283.89C817.53 1281.08 822.05 1279.03 826.91 1277.67C829.56 1276.99 832.2 1276.48 834.93 1276.22C836.63 1276.05 838.34 1275.97 840.05 1276.05C841.67 1276.05 843.29 1276.22 844.91 1276.39C846.53 1276.56 848.92 1276.73 850.54 1277.16L850.88 1277.25C853.26 1277.84 855.65 1278.61 857.95 1279.63C861.96 1281.33 865.8 1283.46 869.21 1286.1C871.6 1287.89 873.73 1289.85 875.78 1291.98C877.82 1294.11 879.62 1296.41 881.24 1298.79C883.28 1301.77 884.9 1305.01 886.27 1308.41C887.2 1310.88 888.06 1313.44 888.57 1316.08C888.63 1316.42 888.487 1316.62 888.14 1316.67C887.72 1316.67 887.29 1316.76 886.86 1316.76C886.61 1316.76 886.35 1316.84 886.1 1316.84C884.65 1316.93 883.28 1317.1 881.92 1317.35C879.45 1317.69 876.97 1318.2 874.5 1318.89C871.86 1319.57 869.3 1320.42 866.82 1321.44C862.81 1323.06 858.98 1325.02 855.4 1327.4C852.58 1329.28 849.94 1331.32 847.38 1333.62C845.16 1335.66 843.12 1337.79 841.15 1340.09Z" fill="black"/>
<path d="M920.69 1404.32C919.77 1401.66 918.28 1399.21 916.28 1397.02C914.51 1395.09 912.31 1393.46 909.71 1392.17C906.76 1390.74 903.63 1390.02 900.42 1390.02C899.63 1390.02 898.81 1390.02 898 1390.22C895.59 1390.53 893.36 1391.22 891.42 1392.28C887.31 1394.42 884.31 1397.66 882.49 1401.95C881.27 1405.02 880.8 1408.23 881.08 1411.49C881.35 1414.89 882.46 1418.1 884.37 1421.05C886.45 1424.25 889.19 1426.76 892.51 1428.5C895.68 1430.17 899.09 1431.02 902.63 1431.02C903.26 1431.02 903.97 1431.02 904.62 1430.93C905.5 1430.84 906.51 1430.74 907.49 1430.44C911.1 1429.47 914.07 1427.74 916.59 1425.15C918.26 1423.39 919.6 1421.34 920.58 1418.99C921.25 1417.27 921.71 1415.42 921.89 1413.66C922.1 1411.83 921.96 1410.14 921.8 1408.7C921.61 1407.14 921.22 1405.64 920.69 1404.32ZM896.25 1416.28C895.01 1414.92 894.24 1413.28 894.05 1411.38C893.79 1408.86 894.48 1406.68 896.24 1404.93C897.27 1403.91 898.52 1403.34 899.89 1403.12C902.04 1402.76 903.95 1403.4 905.67 1404.74C907.02 1405.79 908.04 1407.26 908.58 1408.95C909.71 1412.43 908.5 1416.32 905.42 1418.12C904.37 1418.73 903.2 1419.04 902.01 1419.02C899.73 1418.97 897.82 1418.02 896.25 1416.28Z" fill="black"/>
<path d="M790.3 1381.01C788.04 1378.56 785.34 1376.7 782.28 1375.49C780.41 1374.75 778.43 1374.27 776.33 1374.08C774.77 1373.98 773.3 1374.01 771.96 1374.18C769.66 1374.46 767.49 1375.14 765.57 1376.15C762.66 1377.56 760.26 1379.64 758.44 1382.33C755.9 1386.01 754.76 1390.18 755.04 1394.74C755.14 1396.3 755.36 1397.67 755.7 1398.95C756.21 1400.85 757.06 1402.76 758.31 1404.85C759.48 1406.7 760.79 1408.26 762.32 1409.62C763.96 1411.06 765.65 1412.17 767.47 1412.99C770.42 1414.35 773.4 1415.02 776.51 1415.02C777.07 1415.02 777.63 1415 778.2 1414.96C781.01 1414.76 783.63 1413.99 785.95 1412.69C788.93 1411.1 791.35 1408.8 793.17 1405.84C795.04 1402.73 796 1399.27 796 1395.54C796 1393.46 795.71 1391.42 795.14 1389.4C794.1 1386.2 792.48 1383.38 790.3 1381.01ZM774.58 1401.94C772.52 1401.61 770.87 1400.54 769.6 1398.81C768.61 1397.47 768.05 1395.93 768 1394.21C767.95 1392.23 768.55 1390.49 769.83 1389.06C770.74 1388.04 771.92 1387.37 773.21 1387.15C775.91 1386.65 778.13 1387.61 779.99 1389.69C780.98 1390.79 781.56 1392.11 781.88 1393.58C781.98 1394.05 781.99 1394.53 782 1395.01C781.97 1397.39 781.13 1399.36 779.29 1400.74C777.88 1401.8 776.3 1402.21 774.58 1401.94Z" fill="black"/>
</g>
<defs>
<clipPath id="clip0_481_154">
<rect width="1500" height="1500" fill="white"/>
</clipPath>
</defs>
      <g clip-path="url(#clip0_497_1194)">
<path d="M379.667 654.812C432.345 471.574 618.472 401.981 699.114 390.653C740.985 382.718 849.655 375.215 949.364 408.675C980 418.956 1049.88 457.388 1091.92 499.818C1144.47 552.856 1272.97 732.052 1185.05 927.725C1097.12 1123.4 758.414 1092.29 612.749 1051.82C464.472 1010.63 314.48 881.563 379.667 654.812Z" fill="#AABBFF"/>
<path d="M449.293 747.204C454.734 531.068 585.306 432.345 649.911 410C432.292 459.565 365.296 655.455 364 747.204C377.99 984.871 584.496 1053.43 681 1058C601.498 1044.46 443.853 963.339 449.293 747.204Z" fill="#001647" fill-opacity="0.2"/>
<path d="M379.667 654.812C432.345 471.574 618.472 401.981 699.114 390.653C740.985 382.718 849.655 375.215 949.364 408.675C980 418.956 1049.88 457.388 1091.92 499.818C1144.47 552.856 1272.97 732.052 1185.05 927.725C1097.12 1123.4 758.414 1092.29 612.749 1051.82C464.472 1010.63 314.48 881.563 379.667 654.812Z" stroke="black" stroke-width="22" stroke-linecap="round"/>
</g>
<defs>
    <clipPath id="prefix__clip0_299_662"><path fill="#fff" d="M0 0h1500v1500H0z"/></clipPath>
</defs>
      <g clip-path="url(#clip0_624_2936)">
<path d="M876.088 925.246H970.501" stroke="black" stroke-width="22" stroke-linecap="round"/>
<path d="M864.633 785.967L846.559 774.78L827.213 762.8L802.666 747.607" stroke="black" stroke-width="22" stroke-linecap="round"/>
<path d="M848.206 782.713C848.206 786.612 847.063 790.425 844.918 793.681C842.773 796.937 839.721 799.492 836.139 801.032C832.557 802.571 828.602 803.027 824.764 802.342C820.925 801.657 817.372 799.862 814.544 797.179C811.715 794.495 809.735 791.042 808.848 787.245C807.962 783.448 808.208 779.475 809.556 775.817C810.904 772.158 813.295 768.976 816.434 766.662C819.572 764.348 823.319 763.006 827.213 762.8L846.546 774.8C847.638 777.295 848.203 779.989 848.206 782.713Z" fill="black" stroke="black" stroke-width="22" stroke-linecap="round"/>
<path d="M1024.63 747.607L1000.09 762.8L980.739 774.78L962.666 785.967" stroke="black" stroke-width="22" stroke-linecap="round"/>
<path d="M979.094 782.713C979.094 786.612 980.237 790.425 982.382 793.681C984.527 796.937 987.579 799.492 991.161 801.032C994.743 802.571 998.698 803.027 1002.54 802.342C1006.37 801.657 1009.93 799.862 1012.76 797.179C1015.59 794.495 1017.57 791.042 1018.45 787.245C1019.34 783.448 1019.09 779.475 1017.74 775.817C1016.4 772.158 1014 768.976 1010.87 766.662C1007.73 764.348 1003.98 763.006 1000.09 762.8L980.754 774.8C979.662 777.295 979.097 779.989 979.094 782.713Z" fill="black" stroke="black" stroke-width="22" stroke-linecap="round"/>
</g>
<defs>
<clipPath id="clip0_624_2936">
<rect width="1500" height="1500" fill="white"/>
</clipPath>
</defs>
      <g clip-path="url(#clip0_884_3075)">
<path opacity="0.5" d="M720 750.438C720 722.417 743.895 701.078 770.199 705.609C796.226 710.091 822.774 710.091 848.801 705.609C875.105 701.078 899 722.417 899 750.438V774.93C899 825.227 860.214 866 812.37 866H806.63C758.786 866 720 825.227 720 774.93V750.438Z" fill="#A5F15C"/>
<path opacity="0.5" d="M937 750.438C937 722.417 960.762 701.078 986.919 705.609C1012.8 710.091 1039.2 710.091 1065.08 705.609C1091.24 701.078 1115 722.417 1115 750.438V774.93C1115 825.227 1076.43 866 1028.85 866H1023.15C975.569 866 937 825.227 937 774.93V750.438Z" fill="#A5F15C"/>
<path d="M555 792C555 797.523 559.477 802 565 802C570.523 802 575 797.523 575 792H555ZM720 747L595 747L595 767L720 767L720 747ZM555 787V792H575V787H555ZM595 747C572.909 747 555 764.909 555 787H575C575 775.955 583.954 767 595 767L595 747Z" fill="black"/>
<path d="M956.85 721.662C956.85 721.662 956.298 703.515 996.284 698.54L1068.96 850.236C1068.96 850.236 1054.94 866.613 1025.72 865.696L956.85 721.662Z" fill="white" fill-opacity="0.3"/>
<path d="M740.63 724.24C740.63 724.24 740.078 706.416 780.064 701.53L852.741 850.523C852.741 850.523 838.725 866.607 809.505 865.706L740.63 724.24Z" fill="white" fill-opacity="0.3"/>
<path d="M1009.77 706.801C1009.77 706.801 1006.07 709.846 1019.83 701.031L1084.46 832.685C1084.46 832.685 1088.66 838.122 1077.47 840.432L1009.77 706.801Z" fill="white" fill-opacity="0.3"/>
<path d="M793.546 709.643C793.546 709.643 789.847 712.634 803.615 703.975L868.238 833.283C868.238 833.283 872.442 838.623 861.249 840.892L793.546 709.643Z" fill="white" fill-opacity="0.3"/>
<path d="M937.905 788.269C944.913 829.009 980.328 860 1022.96 860H1028.68C1076.35 860 1115 821.253 1115 773.455V744.18C1115 717.552 1091.19 699.273 1064.98 701.579C1039.05 702.839 1012.6 702.839 986.664 701.579C962.761 699.652 940.855 714.173 937.184 737.31C936.83 739.543 936.645 741.837 936.645 744.18V773.455C936.645 778.506 937.077 783.455 937.905 788.269ZM937.905 788.269L937.119 787.669C926.202 779.335 910.993 779.583 900.355 788.269V788.269M902 751H933.5M772.018 701.579C797.951 702.839 824.403 702.839 850.336 701.579C876.545 699.273 900.355 717.552 900.355 744.18V773.455C900.355 821.253 861.709 860 814.037 860H808.318C760.646 860 722 821.253 722 773.455V744.18C722 717.552 745.809 699.273 772.018 701.579Z" stroke="black" stroke-width="20" stroke-linecap="round"/>
</g>
<defs>
<clipPath id="clip0_884_3075">
<rect width="1500" height="1500" fill="white"/>
</clipPath>
</defs>
      <g clip-path="url(#clip0_1180_44959)">
<path d="M711.94 381.541L669.138 415.004L754.914 456.956C786.09 456.451 856.04 454.579 886.429 451.127C916.817 447.675 946.703 430.594 957.848 422.485L912.882 387.272L890.772 360.146L852.07 352.844L816.711 388.83L811.119 369.892L779.2 357.196L748.101 362.456L711.94 381.541Z" fill="#AABBFF"/>
<path d="M754.823 451.145C758.386 440.393 766.661 423.631 780.081 411.559M882.17 449.083C878.062 439.675 870.922 425.659 859.411 414.501M670.743 416.037C678.291 403.405 696.028 378.1 722.448 377.672C724.832 377.634 727.122 377.712 729.323 377.895M780.081 411.559C789.433 403.145 801.285 397.009 815.783 396.774C818.147 396.736 820.438 396.825 822.658 397.03M780.081 411.559C771.884 400.903 758.35 380.305 729.323 377.895M953.095 422.563C946.826 410.677 929.573 387.795 908.089 385.052M859.411 414.501C864.186 404.755 879.655 385.169 903.328 384.785C904.936 384.759 906.524 384.852 908.089 385.052M859.411 414.501C850.192 405.565 838.17 398.463 822.658 397.03M729.323 377.895C734.108 368.72 747.587 350.309 768.512 349.97C795.461 349.534 817.557 375.809 822.658 397.03M908.089 385.052C903.334 374.267 889.367 351.713 871.612 352C849.419 352.36 832.274 370.674 822.592 392.964" stroke="black" stroke-width="22" stroke-linecap="round"/>
<path d="M1147.72 536.257C1175.16 568.613 1193.59 631.056 1199.71 659.647C1199.86 660.321 1199.29 660.905 1198.6 660.815L1158.5 655.5L857.083 638.505C857.028 638.502 856.972 638.503 856.917 638.509L525 675L379.741 705.843C379.303 705.936 378.859 705.726 378.638 705.337C373.216 695.769 359.907 687.702 355 729C349 779.5 358.667 822.167 366 844.5L397.708 956.965C397.866 957.524 397.516 958.099 396.947 958.216L361.6 965.48C361.533 965.493 361.466 965.5 361.398 965.5H332.524C332.196 965.5 331.889 965.339 331.702 965.069L318.655 946.224C318.554 946.077 318.415 945.961 318.253 945.886L272.713 924.83C272.294 924.636 272.062 924.182 272.151 923.729L282 873.5L318.462 721.161C318.487 721.054 318.495 720.944 318.485 720.836L313.532 667.346C313.511 667.122 313.567 666.897 313.689 666.709L331.823 638.773C331.938 638.595 332.106 638.459 332.304 638.384L368.112 624.649C368.36 624.554 368.561 624.363 368.668 624.12L387.796 580.961C387.924 580.671 388.183 580.459 388.492 580.39L635 525.5L807.5 510.5H1025.9C1025.97 510.5 1026.03 510.507 1026.1 510.521L1147.17 535.93C1147.38 535.975 1147.58 536.088 1147.72 536.257Z" fill="#3A3A3A"/>
<path d="M548 544.5C520.8 582.5 501.334 653.667 495 684.5L364 706V662.5L380.5 607.5L399.5 580L495 556L548 544.5Z" fill="black" fill-opacity="0.2"/>
<path d="M327.5 708C328.3 709.6 348.5 716.333 358.5 719.5V634.5C358.5 630.167 357.6 621.5 354 621.5C349.5 621.5 335 634 331 638.5C327 643 314.5 670 313.5 672.5C312.5 675 326.5 706 327.5 708Z" fill="black" fill-opacity="0.2"/>
<path d="M288 848L317 724.5L340.5 719.5L358.5 724.5C359.5 734.5 361.5 755.3 361.5 758.5C361.5 762.5 365 796.5 368.5 820.5C372 844.5 373 848 374.5 858.5C376 869 378 877 379.5 895.5C381 914 386.5 921 386.5 926C386.5 931 390.5 949.5 392 953C393.5 956.5 390 964.5 386.5 968.5C383 972.5 370 971.5 355.5 968.5C341 965.5 337 962 329.5 953C322 944 324 944.5 319 944.5C314 944.5 292.5 941 285 941C279 941 274.167 919.667 272.5 909L288 848Z" fill="black" fill-opacity="0.2"/>
<path d="M768.5 518L772 651C844.8 639.4 1007.33 646.167 1078 651L1062 521.5C1023.17 516.5 934.8 506.9 892 508.5C849.2 510.1 791.833 515.5 768.5 518Z" fill="white"/>
<path d="M732.5 518L725.5 652.5L768 646.5V515.5L732.5 518Z" fill="#CCD0DA"/>
<path d="M1062 515.5L1077.5 646.5L1128 644L1106.5 522.5L1062 515.5Z" fill="#CCD0DA"/>
<path d="M888.024 575.221C886.498 573.977 884.549 573.388 882.538 573.536C880.423 573.758 878.31 573.853 876.199 573.796C874.371 573.768 872.544 573.639 870.614 573.508L869.843 573.446C869.302 573.412 868.762 573.353 868.222 573.345C867.398 573.307 866.575 573.269 865.648 573.255C864.721 573.241 863.766 573.379 862.91 573.748C862.055 574.116 861.274 574.689 860.671 575.367C860.043 576.044 859.592 576.877 859.321 577.763C859.05 578.649 858.959 579.588 859.075 580.455C859.277 582.416 860.203 584.21 861.626 585.452C863.048 586.822 864.916 587.613 866.795 587.641L867.387 587.65C867.098 588.078 866.757 588.48 866.365 588.856C865.71 589.558 864.956 590.08 864.074 590.474C863.218 590.868 862.288 591.057 861.515 591.071C860.821 591.01 860.129 590.796 859.516 590.456C858.903 590.116 858.395 589.625 857.967 589.008C856.957 587.62 856.13 586.107 855.536 584.547C854.472 581.631 853.823 578.62 853.561 575.463C852.852 569.578 853.048 565.105 854.201 562.096C854.741 560.476 855.528 559.496 856.461 559.103C857.005 558.908 857.547 558.84 858.113 558.874C858.756 558.909 859.424 559.021 860.014 559.182C860.604 559.344 861.193 559.556 861.756 559.794C862.037 559.925 862.319 560.057 862.6 560.213C863.28 561.241 864.167 562.144 865.161 562.846C866.41 563.73 867.87 564.209 869.364 564.232C870.265 564.271 871.272 564.083 872.127 563.714C872.983 563.346 873.764 562.773 874.367 562.07C874.996 561.342 875.447 560.484 875.693 559.572C875.938 558.66 875.979 557.669 875.813 556.725C875.622 555.731 875.302 554.759 874.826 553.837C874.151 552.504 873.19 551.32 872.122 550.413C870.827 549.224 869.374 548.21 867.892 547.476C864.547 545.569 860.725 544.519 856.94 544.462C855.525 544.364 854.107 544.47 852.738 544.754C851.446 545.015 850.178 545.428 848.933 545.994C847.558 546.634 846.284 547.48 845.161 548.506C844.012 549.531 843.041 550.712 842.196 552.072C840.399 555.148 839.292 558.488 838.904 562.017C838.398 566.562 838.457 571.14 839.111 575.626C840.21 584.671 842.78 591.882 846.797 597.029C848.716 599.55 851.08 601.62 853.89 603.163C856.521 604.602 859.47 605.409 862.404 605.53L862.893 605.537C862.893 605.537 862.945 605.538 862.971 605.538C865.623 605.578 868.206 605.083 870.642 604.077C873.156 603.047 875.393 601.53 877.251 599.625C879.055 597.847 880.477 595.783 881.49 593.484C882.237 591.791 882.676 590.018 882.832 588.214C882.96 588.216 883.089 588.218 883.244 588.195C884.017 588.156 884.791 588.066 885.462 587.974C886.416 587.912 887.373 587.622 888.205 587.151C889.036 586.68 889.741 586.004 890.269 585.199C890.796 584.393 891.144 583.508 891.287 582.544C891.43 581.605 891.367 580.663 891.098 579.743C890.636 577.905 889.528 576.286 888.05 575.247L888.024 575.221Z" fill="black"/>
<path d="M950.068 590.189C949.787 588.104 949.432 585.764 949.03 583.094C948.627 580.449 948.199 577.727 947.747 574.904L946.164 565.923C945.684 563.226 945.174 560.782 944.66 558.668C944.193 556.809 943.8 555.229 943.403 553.904C943.032 552.655 942.582 551.405 942.053 550.23C941.625 549.259 941.066 548.312 940.429 547.414C939.842 546.644 939.149 545.974 938.428 545.43C937.501 544.705 936.442 544.156 935.275 543.86C934.107 543.563 932.936 543.52 931.657 543.703C930.613 543.916 929.59 544.383 928.747 545.004C927.904 545.651 927.189 546.478 926.653 547.485C926.276 548.291 925.925 549.123 925.679 549.881C925.353 550.764 925.053 551.647 924.805 552.557L923.948 555.868C923.449 557.891 922.945 560.218 922.434 563.001C922.065 565.026 921.667 567.252 921.267 569.606C918.753 563.631 916.509 558.776 914.636 555.169C913.55 552.971 912.254 550.845 910.826 548.844C910.392 548.254 909.958 547.715 909.574 547.277C909.139 546.763 908.651 546.299 908.264 546.04C907.263 545.06 905.998 544.331 904.651 543.879C903.77 543.587 902.835 543.42 901.742 543.378C900.648 543.413 899.629 543.651 898.658 544.118C897.714 544.586 896.844 545.258 896.208 546.035C895.704 546.611 895.278 547.264 894.928 547.995C894.525 548.852 894.25 549.786 894.133 550.673C893.906 551.862 893.783 553.103 893.765 554.296C893.718 555.691 893.668 557.263 893.766 559.396C893.861 561.757 894.032 564.196 894.257 566.585C894.503 569.253 894.796 572.226 895.163 575.555C895.372 577.208 895.582 578.86 895.792 580.462L896.213 583.615C896.492 585.802 896.801 587.76 897.061 589.54L897.228 590.558C897.536 592.567 897.892 594.831 898.272 597.247C898.53 599.154 899.519 600.92 900.959 602.109C902.346 603.373 904.158 604.111 906.031 604.19L906.214 604.193L906.344 604.195C907.307 604.209 908.274 603.996 909.139 603.603C910.004 603.21 910.795 602.587 911.379 601.86C911.989 601.108 912.445 600.227 912.668 599.292C912.89 598.356 912.905 597.367 912.709 596.552C912.352 594.313 912.044 592.304 911.785 590.499L910.916 584.243C910.729 582.845 910.542 581.421 910.355 579.972L912.737 586.072C913.69 588.472 914.517 590.641 915.244 592.505C915.971 594.368 916.72 596.46 917.545 598.731C918.095 600.287 919.09 601.622 920.404 602.58C921.717 603.564 923.297 604.146 925.04 604.249C926.679 604.324 928.275 603.816 929.567 602.769C930.78 601.747 931.557 600.338 931.736 598.793L931.739 598.59C931.769 598.337 931.855 597.805 931.945 597.02C932.119 595.855 932.324 594.361 932.639 592.463C932.954 590.565 933.274 588.362 933.65 585.881C933.825 584.615 934.027 583.349 934.229 582.058C934.371 582.999 934.487 583.914 934.63 584.805L935.524 591.136C935.782 592.967 936.038 595.001 936.316 597.264C936.574 599.171 937.537 600.936 938.95 602.175C940.388 603.567 942.277 604.357 944.307 604.388C945.244 604.427 946.262 604.265 947.153 603.898C948.044 603.531 948.86 602.959 949.495 602.259C950.131 601.558 950.613 600.702 950.861 599.793C951.109 598.883 951.149 597.919 951.005 597.105C950.68 594.537 950.402 592.224 950.095 590.139L950.068 590.189Z" fill="black"/>
<path d="M999.115 595.984L998.531 595.314C996.093 592.508 993.705 589.779 991.395 587.076C989.363 584.707 987.384 582.34 985.405 579.921C987.108 576.644 988.736 573.188 990.263 569.603C992.086 565.26 993.601 560.735 994.754 556.255C995.027 555.319 995.119 554.354 995.004 553.387C994.89 552.42 994.568 551.5 994.088 550.731C993.158 549.04 991.653 547.721 989.855 547.008C988.983 546.614 988.055 546.447 987.074 546.407C986.092 546.392 985.133 546.606 984.223 546.999C983.364 547.393 982.606 547.966 982.001 548.668C981.396 549.37 980.944 550.227 980.698 551.138C979.873 554.404 978.842 557.666 977.58 560.823C976.882 562.591 976.131 564.384 975.223 566.352C973.933 564.477 972.696 562.553 971.537 560.63C969.797 557.783 968.163 554.786 966.71 551.765C965.884 549.974 964.459 548.53 962.688 547.715C960.97 546.851 958.983 546.694 957.089 547.25C956.18 547.541 955.319 548.061 954.637 548.737C953.955 549.413 953.452 550.244 953.154 551.154C952.856 552.064 952.738 553.028 952.827 553.995C952.915 554.962 953.186 555.881 953.613 556.649C955.693 560.949 958.032 565.177 960.632 569.231C962.98 572.849 965.458 576.469 968.015 579.964L966.927 581.853C966.37 582.81 965.812 583.793 965.152 584.773C964.091 586.561 963.03 588.4 961.942 590.264C960.88 592.128 959.793 593.967 958.653 595.906C958.201 596.763 957.954 597.674 957.889 598.613C957.822 599.578 957.937 600.52 958.26 601.363C958.853 603.201 960.121 604.796 961.683 605.709C962.91 606.591 964.35 607.07 965.77 607.092C965.874 607.093 965.977 607.095 966.08 607.097C967.191 607.113 968.281 606.825 969.271 606.281C970.339 605.687 971.18 604.785 971.712 603.751C972.695 601.937 973.705 600.123 974.739 598.334C975.8 596.546 976.834 594.783 977.894 593.046L978.159 592.618C979.479 594.188 980.825 595.758 982.145 597.277C984.076 599.492 986.032 601.706 987.886 603.818L988.494 604.589C989.23 605.515 990.2 606.267 991.304 606.766C992.33 607.239 993.412 607.484 994.574 607.502C996.073 607.499 997.579 606.988 998.886 605.992C999.593 605.367 1000.15 604.613 1000.52 603.755C1000.9 602.897 1001.09 601.985 1001.08 601.095C1001.11 599.139 1000.39 597.274 999.091 595.856L999.115 595.984Z" fill="black"/>
<path d="M372.645 625.358C376.358 613.236 382.367 603.057 387.593 595.322C392.323 588.32 399.306 583.162 407.312 580.461C466.016 560.662 586.261 528.756 728.5 515.478M372.645 625.358C365.916 647.324 361.321 675.669 364.611 707.417C364.674 708.02 365.237 708.434 365.826 708.287C443.658 688.859 576.941 663.697 726.025 650M372.645 625.358C355.313 626.809 320.264 638.806 318.731 675.182C318.333 684.636 319.653 692.458 322.085 698.758M364.728 710.495C359.341 720.082 345.978 722.313 335.023 715.33M322.085 698.758C314.93 743.039 288.715 842.381 271.537 906.718C269.425 914.628 272.598 923.02 279.732 927.037C292.431 934.187 310.269 942.779 325.023 945.59M322.085 698.758C325.086 706.531 329.779 711.986 335.023 715.33M365 783.5C367.577 817.854 381.52 893.776 392.447 938.795C395.018 949.386 388.618 960.291 378.124 963.233C370.441 965.388 362.211 967.823 354.416 970.219C342.304 973.942 329.906 965.369 330.048 952.699C330.598 903.832 335.023 815.058 335.023 715.33M1079 646.473C1074.5 612.131 1064.3 538.252 1059.5 517.473M1079 646.473C977.994 637.044 870.366 638.795 768.222 646.473M1079 646.473C1095.87 648.048 1112.56 649.934 1129 652.157M1059.5 517.473C1007.44 511.489 931.453 507.207 825.233 509.745C805.983 510.205 786.951 511.084 768.222 512.315M1059.5 517.473C1078.14 519.616 1093.71 521.977 1106.5 524.321M768.222 646.473C768.222 610.025 768.222 532.167 768.222 512.315M768.222 646.473C754.04 647.539 739.963 648.719 726.025 650M768.222 512.315C754.816 513.196 741.565 514.259 728.5 515.478M728.5 515.478L726.025 650M1106.5 524.321C1123.14 527.371 1135.07 530.392 1142.94 532.868C1143.14 532.931 1143.31 533.054 1143.44 533.223C1175.78 576.892 1198 640.859 1198.97 662.849C1199 663.486 1198.41 663.934 1197.79 663.805C1175.46 659.19 1152.48 655.331 1129 652.157M1106.5 524.321C1112.67 555.486 1125.8 624.683 1129 652.157" stroke="black" stroke-width="22" stroke-linecap="round"/>
</g>
<defs>
<clipPath id="clip0_1180_44959">
<rect width="1500" height="1500" fill="white"/>
</clipPath>
</defs>
      
    </g>
    </svg>