<svg
      xmlns="http://www.w3.org/2000/svg"
      preserveAspectRatio="xMidYMin meet"
      fill="none"
      viewBox="0 0 1500 1500"
    >
      <g>
      <path fill="url(#prefix__paint0_linear_53_28789)" d="M0 0h1500v1500H0z"/><defs><linearGradient id="prefix__paint0_linear_53_28789" x1="1500" y1="1500" x2="0" y2="0" gradientUnits="userSpaceOnUse">
<stop stop-color="#FFD130"/>
<stop offset="1" stop-color="#FFEEDB"/>
</linearGradient></defs>
      <g clip-path="url(#clip0_495_798)">
<path d="M773 1011.5C543.4 1029.9 398.667 1353.5 355 1513H1138.5C1075.7 1127 868.667 1017.83 773 1011.5Z" fill="#FF6247"/>
<path d="M799 1248.5L806 1516L725.5 1511L723.5 1130.5L593.5 1092.5L613 1067.5L690.5 1026L784 1007L799 1248.5Z" fill="white"/>
<path d="M902.5 1330V1511L973 1516L961 1301L943 1140L961 1117.5L865.5 1037L876.5 1111.5L902.5 1330Z" fill="white"/>
<path d="M749.5 1019.5C536 1134 457.448 1414.63 443.159 1511H353.699C350.414 1508.73 357.049 1471.27 409.87 1339.62C462.691 1207.98 569.086 1113.24 605.384 1082.33L674 1033.5L749.5 1019.5Z" fill="#001647" fill-opacity="0.2"/>
<path d="M875 1511C872.6 1367.4 850.167 1109 838 1027.67L865.5 1022.5L896 1309L909.5 1511H875Z" fill="#001647" fill-opacity="0.2"/>
<path d="M800 1291L805.5 1506.5H902.5V1390L886 1181L872 1038L834 1021L785 1010L790.5 1088.5L800 1291Z" fill="#AABBFF"/>
<path d="M353.5 1519.5C365.5 1454.33 414.5 1313.6 483.5 1219C530.101 1155.11 577.468 1101.29 629.141 1059.66C710.278 994.299 826.037 996.323 905.02 1064.27C1000.08 1146.05 1103.44 1290.29 1142.5 1519.5M1013.5 1319C1024.83 1354.33 1048.1 1443.9 1050.5 1519.5M667 1361.5C661.167 1392.33 650.3 1467.1 653.5 1519.5M590.5 1094C608.32 1101.43 669.069 1118.55 723.843 1128.21C724.803 1128.38 725.498 1129.21 725.496 1130.19L724.5 1513M807 1513C806.167 1411.5 798 1113.2 788 1014M872.5 1044.5C885 1133.33 909.1 1383.4 903.5 1513M974.5 1513C974.5 1426.32 958.715 1241.65 941.192 1138.62C941.071 1137.91 941.343 1137.22 941.899 1136.76L960.5 1121.5" stroke="black" stroke-width="22" stroke-linecap="round"/>
<circle cx="765" cy="1390" r="11" fill="black"/>
<circle cx="764" cy="1467" r="11" fill="black"/>
<circle cx="940" cy="1474" r="11" fill="black"/>
<circle cx="764" cy="1310" r="11" fill="black"/>
<circle cx="764" cy="1235" r="11" fill="black"/>
<circle cx="762" cy="1171" r="11" fill="black"/>
<circle cx="757" cy="1109" r="11" fill="black"/>
<circle cx="913" cy="1108" r="11" fill="black"/>
<circle cx="913" cy="1163" r="11" fill="black"/>
<circle cx="922" cy="1228" r="11" fill="black"/>
<circle cx="929" cy="1305" r="11" fill="black"/>
<circle cx="936" cy="1389" r="11" fill="black"/>
<circle cx="682" cy="1087" r="11" fill="black"/>
</g>
<defs>
<clipPath id="clip0_495_798">
<rect width="1500" height="1500" fill="white"/>
</clipPath>
</defs>
      <g clip-path="url(#clip0_497_1194)">
<path d="M379.667 654.812C432.345 471.574 618.472 401.981 699.114 390.653C740.985 382.718 849.655 375.215 949.364 408.675C980 418.956 1049.88 457.388 1091.92 499.818C1144.47 552.856 1272.97 732.052 1185.05 927.725C1097.12 1123.4 758.414 1092.29 612.749 1051.82C464.472 1010.63 314.48 881.563 379.667 654.812Z" fill="#AABBFF"/>
<path d="M449.293 747.204C454.734 531.068 585.306 432.345 649.911 410C432.292 459.565 365.296 655.455 364 747.204C377.99 984.871 584.496 1053.43 681 1058C601.498 1044.46 443.853 963.339 449.293 747.204Z" fill="#001647" fill-opacity="0.2"/>
<path d="M379.667 654.812C432.345 471.574 618.472 401.981 699.114 390.653C740.985 382.718 849.655 375.215 949.364 408.675C980 418.956 1049.88 457.388 1091.92 499.818C1144.47 552.856 1272.97 732.052 1185.05 927.725C1097.12 1123.4 758.414 1092.29 612.749 1051.82C464.472 1010.63 314.48 881.563 379.667 654.812Z" stroke="black" stroke-width="22" stroke-linecap="round"/>
</g>
<defs>
    <clipPath id="prefix__clip0_299_662"><path fill="#fff" d="M0 0h1500v1500H0z"/></clipPath>
</defs>
      <g clip-path="url(#clip0_624_3522)">
<path d="M822 818C849.062 818 871 796.062 871 769C871 741.938 849.062 720 822 720C794.938 720 773 741.938 773 769C773 796.062 794.938 818 822 818Z" fill="white" stroke="black" stroke-width="20" stroke-miterlimit="10"/>
<path d="M1012 818C1039.06 818 1061 796.062 1061 769C1061 741.938 1039.06 720 1012 720C984.938 720 963 741.938 963 769C963 796.062 984.938 818 1012 818Z" fill="white" stroke="black" stroke-width="20" stroke-miterlimit="10"/>
<path d="M809 770C816.18 770 822 764.18 822 757C822 749.82 816.18 744 809 744C801.82 744 796 749.82 796 757C796 764.18 801.82 770 809 770Z" fill="black"/>
<path d="M1024 770C1031.18 770 1037 764.18 1037 757C1037 749.82 1031.18 744 1024 744C1016.82 744 1011 749.82 1011 757C1011 764.18 1016.82 770 1024 770Z" fill="black"/>
<path d="M988.653 885.957H855.227C854.074 885.957 852.968 886.415 852.153 887.23C851.338 888.045 850.88 889.151 850.88 890.303C850.88 909.026 858.317 926.982 871.556 940.221C884.795 953.46 902.751 960.897 921.474 960.897H922.406C941.129 960.897 959.085 953.46 972.324 940.221C985.562 926.982 993 909.026 993 890.303C993 889.151 992.542 888.045 991.727 887.23C990.912 886.415 989.806 885.957 988.653 885.957Z" fill="white" stroke="black" stroke-width="20" stroke-miterlimit="10"/>
</g>
<defs>
<clipPath id="clip0_624_3522">
<rect width="1500" height="1500" fill="white"/>
</clipPath>
</defs>
      <g clip-path="url(#clip0_884_3075)">
<path opacity="0.5" d="M720 750.438C720 722.417 743.895 701.078 770.199 705.609C796.226 710.091 822.774 710.091 848.801 705.609C875.105 701.078 899 722.417 899 750.438V774.93C899 825.227 860.214 866 812.37 866H806.63C758.786 866 720 825.227 720 774.93V750.438Z" fill="#A5F15C"/>
<path opacity="0.5" d="M937 750.438C937 722.417 960.762 701.078 986.919 705.609C1012.8 710.091 1039.2 710.091 1065.08 705.609C1091.24 701.078 1115 722.417 1115 750.438V774.93C1115 825.227 1076.43 866 1028.85 866H1023.15C975.569 866 937 825.227 937 774.93V750.438Z" fill="#A5F15C"/>
<path d="M555 792C555 797.523 559.477 802 565 802C570.523 802 575 797.523 575 792H555ZM720 747L595 747L595 767L720 767L720 747ZM555 787V792H575V787H555ZM595 747C572.909 747 555 764.909 555 787H575C575 775.955 583.954 767 595 767L595 747Z" fill="black"/>
<path d="M956.85 721.662C956.85 721.662 956.298 703.515 996.284 698.54L1068.96 850.236C1068.96 850.236 1054.94 866.613 1025.72 865.696L956.85 721.662Z" fill="white" fill-opacity="0.3"/>
<path d="M740.63 724.24C740.63 724.24 740.078 706.416 780.064 701.53L852.741 850.523C852.741 850.523 838.725 866.607 809.505 865.706L740.63 724.24Z" fill="white" fill-opacity="0.3"/>
<path d="M1009.77 706.801C1009.77 706.801 1006.07 709.846 1019.83 701.031L1084.46 832.685C1084.46 832.685 1088.66 838.122 1077.47 840.432L1009.77 706.801Z" fill="white" fill-opacity="0.3"/>
<path d="M793.546 709.643C793.546 709.643 789.847 712.634 803.615 703.975L868.238 833.283C868.238 833.283 872.442 838.623 861.249 840.892L793.546 709.643Z" fill="white" fill-opacity="0.3"/>
<path d="M937.905 788.269C944.913 829.009 980.328 860 1022.96 860H1028.68C1076.35 860 1115 821.253 1115 773.455V744.18C1115 717.552 1091.19 699.273 1064.98 701.579C1039.05 702.839 1012.6 702.839 986.664 701.579C962.761 699.652 940.855 714.173 937.184 737.31C936.83 739.543 936.645 741.837 936.645 744.18V773.455C936.645 778.506 937.077 783.455 937.905 788.269ZM937.905 788.269L937.119 787.669C926.202 779.335 910.993 779.583 900.355 788.269V788.269M902 751H933.5M772.018 701.579C797.951 702.839 824.403 702.839 850.336 701.579C876.545 699.273 900.355 717.552 900.355 744.18V773.455C900.355 821.253 861.709 860 814.037 860H808.318C760.646 860 722 821.253 722 773.455V744.18C722 717.552 745.809 699.273 772.018 701.579Z" stroke="black" stroke-width="20" stroke-linecap="round"/>
</g>
<defs>
<clipPath id="clip0_884_3075">
<rect width="1500" height="1500" fill="white"/>
</clipPath>
</defs>
      <g clip-path="url(#clip0_708_13)">
<path d="M526.588 452.032C528.924 458.185 532.252 464.16 536.498 469.928C575.426 522.803 691.48 558.196 827.167 553.326C934.075 549.489 1027.03 521.596 1078.8 482.775" stroke="black" stroke-width="22"/>
<path d="M571.42 473.294L538.139 508.93" stroke="black" stroke-width="22" stroke-miterlimit="10" stroke-linecap="round"/>
<path d="M631.776 506.409L611.801 549.693" stroke="black" stroke-width="22" stroke-miterlimit="10" stroke-linecap="round"/>
<path d="M704.266 522.27L698.137 571.787" stroke="black" stroke-width="22" stroke-miterlimit="10" stroke-linecap="round"/>
<path d="M788.906 531.422L789.701 579.229" stroke="black" stroke-width="22" stroke-miterlimit="10" stroke-linecap="round"/>
<path d="M876 525.064L880.79 574.728" stroke="black" stroke-width="22" stroke-miterlimit="10" stroke-linecap="round"/>
<path d="M958.136 510.924L971.371 559.035" stroke="black" stroke-width="22" stroke-miterlimit="10" stroke-linecap="round"/>
<path d="M1026.02 485.618L1053.98 526.941" stroke="black" stroke-width="22" stroke-miterlimit="10" stroke-linecap="round"/>
<path d="M711.94 381.541L669.138 415.004L754.914 456.956C786.09 456.451 856.04 454.579 886.429 451.127C916.817 447.675 946.703 430.594 957.848 422.485L912.882 387.272L890.772 360.146L852.07 352.844L816.711 388.83L811.119 369.892L779.2 357.196L748.101 362.456L711.94 381.541Z" fill="#AABBFF"/>
<path d="M754.823 451.145C758.386 440.393 766.661 423.631 780.081 411.559M882.17 449.083C878.062 439.675 870.922 425.659 859.411 414.501M670.743 416.037C678.291 403.405 696.028 378.1 722.448 377.672C724.832 377.634 727.122 377.712 729.323 377.895M780.081 411.559C789.433 403.145 801.285 397.009 815.783 396.774C818.147 396.736 820.438 396.825 822.658 397.03M780.081 411.559C771.884 400.903 758.35 380.305 729.323 377.895M953.095 422.563C946.826 410.677 929.573 387.795 908.089 385.052M859.411 414.501C864.186 404.755 879.655 385.169 903.328 384.785C904.936 384.759 906.524 384.852 908.089 385.052M859.411 414.501C850.192 405.565 838.17 398.463 822.658 397.03M729.323 377.895C734.108 368.72 747.587 350.309 768.512 349.97C795.461 349.534 817.557 375.809 822.658 397.03M908.089 385.052C903.334 374.267 889.367 351.713 871.612 352C849.419 352.36 832.274 370.674 822.592 392.964" stroke="black" stroke-width="22" stroke-linecap="round"/>
</g>
<defs>
<clipPath id="clip0_708_13">
<rect width="1500" height="1500" fill="white"/>
</clipPath>
</defs>
      
    </g>
    </svg>