<svg
      xmlns="http://www.w3.org/2000/svg"
      preserveAspectRatio="xMidYMin meet"
      fill="none"
      viewBox="0 0 1500 1500"
    >
      <g>
      <path fill="url(#prefix__a1)" d="M0 0h1500v1500H0z"/><defs><linearGradient id="prefix__a1" x1="1500" y1="1500" x2="0" y2="0" gradientUnits="userSpaceOnUse">
<stop stop-color="#1555D1"/>
<stop offset="1" stop-color="#70E5FF"/>
</linearGradient></defs>
      <g clip-path="url(#prefix__clip0_53_28307)"><path d="M460.5 1094.5c-138.4 66.4-174 309.33-174.5 422.5h983.5c-12.5-72.17-53.2-244.1-116-354.5-78.5-138-520-151-693-68z" fill="#A760FF"/><path d="M367 1440c-17.2-1.2-22.167 49.83-22.5 75.5l47.5-4.5c-1.167-23.17-7.8-69.8-25-71zM674 1276c-29.6 1.2-47 22.83-52 33.5l4.5 14 56 10.5c14.833-5 44.8-18.8 46-34 1.5-19-17.5-25.5-54.5-24zM554.5 1131.5c-49.2-6.8-55.167 21.17-52 36-2 6.83 1.9 23.3 33.5 34.5 39.5 14 138 33.5 166.5 31 22.8-2 24.833-33.83 23-49.5-36.5-14.5-121.8-45.2-171-52zM842 1417c-38.8 30.4-22.5 74.67-9.5 93l140.5 3.5c7.167-4 20-20.9 14-56.5-7.5-44.5-96.5-78-145-40zM1114.5 1293c-46.4-6.8-12.67-111.83 10-163.5l49 71.5c-.33 33.5-12.6 98.8-59 92z" fill="#ABF"/><path d="M386 1459l-1 47.5H284c2.833-48.17 12.8-156.6 30-205 17.2-48.4 43.5-97.5 54.5-116 29.667-31.67 93.9-93.8 113.5-89 19.6 4.8 28.5 23.67 30.5 32.5l-16.5 22.5 7.5 21 9 19c-95.2 77.2-124 210.5-126.5 267.5z" fill="#001647" fill-opacity=".2"/><path d="M705.5 1163c27.2 82.4-120.333 42.67-197.5 12.5l23.5 29.5c29.333 8.33 95.4 25.7 125 28.5 37 3.5 71-12 71.5-33 .4-16.8-14.833-32-22.5-37.5zM659.5 1315.5c-19.2.4-34.667-6.5-40-10l6.5 17c6.5 2.33 27.7 7.3 60.5 8.5 32.8 1.2 37.667-26.83 36-41-12.833-6-35.4-15.5-23-5.5 15.5 12.5-16 30.5-40 31zM960.5 1463.5c-4-32.4-41.667-52.83-60-59H920c14.667 5.83 47.3 23.2 60.5 46 13.2 22.8 1.5 49.5-6 60h-22c4.333-2.17 12-14.6 8-47zM1143 1161c16 61.6-21.67 112.67-40 126.5 53.5 10.5 70.33-58.33 68.5-87L1143 1161z" fill="#001647" fill-opacity=".2"/><path d="M289.501 1512.5c-6-101.5 31-323.03 140.5-398 158.5-108.51 616.499-87 706.499 26 64.91 81.5 99.5 222.5 132.5 371M1084.5 1337c12.33 37 29.5 110.3 43.5 175.5m-646.499 0c.333-32.83 7.7-107.6 20.5-157" stroke="#000" stroke-width="20" stroke-linecap="round"/><ellipse cx="675.502" cy="1303.28" rx="53.591" ry="29" transform="rotate(-4.687 675.502 1303.28)" stroke="#000" stroke-width="20"/><path d="M515.271 1188.27c-36.061-24.71-9.368-73.42 39.746-60.07l145.257 41.58c16.768 4.8 32.505 18.71 28.297 35.64-5.969 24.01-33.117 28.75-56 27.53-67.132-3.59-121.239-19.97-157.3-44.68zM393 1490c0 27.06-10.969 49-24.5 49s-24.5-21.94-24.5-49 10.969-49 24.5-49 24.5 21.94 24.5 49zM1173 1198.09c0 35.54-15.89 101.53-57.73 93.09-54.77-11.04-11.86-107.12 7.51-159.18" stroke="#000" stroke-width="20"/><ellipse cx="906" cy="1473" rx="87" ry="71" stroke="#000" stroke-width="20"/></g><defs><clipPath id="prefix__clip0_53_28307"><path fill="#fff" d="M0 0h1500v1500H0z"/></clipPath></defs>
      <g clip-path="url(#clip0_497_1194)">
<path d="M379.667 654.812C432.345 471.574 618.472 401.981 699.114 390.653C740.985 382.718 849.655 375.215 949.364 408.675C980 418.956 1049.88 457.388 1091.92 499.818C1144.47 552.856 1272.97 732.052 1185.05 927.725C1097.12 1123.4 758.414 1092.29 612.749 1051.82C464.472 1010.63 314.48 881.563 379.667 654.812Z" fill="#AABBFF"/>
<path d="M449.293 747.204C454.734 531.068 585.306 432.345 649.911 410C432.292 459.565 365.296 655.455 364 747.204C377.99 984.871 584.496 1053.43 681 1058C601.498 1044.46 443.853 963.339 449.293 747.204Z" fill="#001647" fill-opacity="0.2"/>
<path d="M379.667 654.812C432.345 471.574 618.472 401.981 699.114 390.653C740.985 382.718 849.655 375.215 949.364 408.675C980 418.956 1049.88 457.388 1091.92 499.818C1144.47 552.856 1272.97 732.052 1185.05 927.725C1097.12 1123.4 758.414 1092.29 612.749 1051.82C464.472 1010.63 314.48 881.563 379.667 654.812Z" stroke="black" stroke-width="22" stroke-linecap="round"/>
</g>
<defs>
    <clipPath id="prefix__clip0_299_662"><path fill="#fff" d="M0 0h1500v1500H0z"/></clipPath>
</defs>
      <g clip-path="url(#clip0_624_3293)">
<path d="M916.488 918.577L931.325 908.854C933.985 907.112 936.223 904.799 937.876 902.083C939.529 899.367 940.556 896.317 940.882 893.154C941.208 889.991 940.825 886.795 939.761 883.799C938.697 880.803 936.978 878.082 934.73 875.834V875.834C932.657 873.764 930.181 872.142 927.456 871.068C924.731 869.994 921.814 869.491 918.886 869.59C915.959 869.689 913.083 870.388 910.436 871.643C907.79 872.899 905.429 874.684 903.501 876.889L890.301 891.98" stroke="black" stroke-width="22" stroke-miterlimit="10" stroke-linecap="round"/>
<path d="M916.488 918.675L931.325 928.397C933.986 930.137 936.225 932.449 937.879 935.164C939.533 937.88 940.561 940.93 940.887 944.092C941.213 947.255 940.83 950.451 939.764 953.446C938.699 956.442 936.979 959.162 934.73 961.409V961.409C932.66 963.484 930.185 965.11 927.46 966.188C924.734 967.265 921.817 967.77 918.888 967.672C915.959 967.574 913.081 966.874 910.434 965.617C907.787 964.359 905.427 962.57 903.501 960.362L890.301 945.271" stroke="black" stroke-width="22" stroke-miterlimit="10" stroke-linecap="round"/>
<path d="M1012 817C1038.51 817 1060 795.51 1060 769C1060 742.49 1038.51 721 1012 721C985.49 721 964 742.49 964 769C964 795.51 985.49 817 1012 817Z" fill="black" stroke="black" stroke-width="22" stroke-miterlimit="10"/>
<path d="M1025.18 765.61C1035.8 765.61 1044.4 757.009 1044.4 746.398C1044.4 735.788 1035.8 727.186 1025.18 727.186C1014.57 727.186 1005.97 735.788 1005.97 746.398C1005.97 757.009 1014.57 765.61 1025.18 765.61Z" fill="white"/>
<path d="M994.295 774.185C998.822 774.185 1002.49 770.515 1002.49 765.988C1002.49 761.461 998.822 757.791 994.295 757.791C989.768 757.791 986.098 761.461 986.098 765.988C986.098 770.515 989.768 774.185 994.295 774.185Z" fill="white"/>
<path d="M1018.1 800.697C1026.05 800.697 1032.49 794.254 1032.49 786.307C1032.49 778.359 1026.05 771.917 1018.1 771.917C1010.16 771.917 1003.71 778.359 1003.71 786.307C1003.71 794.254 1010.16 800.697 1018.1 800.697Z" fill="white"/>
<path d="M822 817C848.51 817 870 795.51 870 769C870 742.49 848.51 721 822 721C795.49 721 774 742.49 774 769C774 795.51 795.49 817 822 817Z" fill="black" stroke="black" stroke-width="22" stroke-miterlimit="10"/>
<path d="M835.185 765.61C845.795 765.61 854.397 757.009 854.397 746.398C854.397 735.788 845.795 727.186 835.185 727.186C824.574 727.186 815.973 735.788 815.973 746.398C815.973 757.009 824.574 765.61 835.185 765.61Z" fill="white"/>
<path d="M804.295 774.185C808.822 774.185 812.492 770.515 812.492 765.988C812.492 761.461 808.822 757.791 804.295 757.791C799.768 757.791 796.098 761.461 796.098 765.988C796.098 770.515 799.768 774.185 804.295 774.185Z" fill="white"/>
<path d="M828.103 800.697C836.051 800.697 842.493 794.254 842.493 786.307C842.493 778.359 836.051 771.917 828.103 771.917C820.156 771.917 813.713 778.359 813.713 786.307C813.713 794.254 820.156 800.697 828.103 800.697Z" fill="white"/>
</g>
<defs>
<clipPath id="clip0_624_3293">
<rect width="1500" height="1500" fill="white"/>
</clipPath>
</defs>
      <g clip-path="url(#clip0_838_2238)">
<ellipse cx="932" cy="915.5" rx="131" ry="69.5" fill="#AABBFF"/>
<path d="M993 969L1016.5 1012.5L1037.5 996L1012.5 942L977 913.5L939 917L993 969Z" fill="#3A3A3A"/>
<path d="M1039.5 1003L1011 1013.5L1020 1036.5L1043.5 1028.5L1039.5 1003Z" fill="#FFBF44"/>
<path d="M1111 1190C1050.6 1187.6 1024.17 1090.67 1018.5 1042.5C1016.1 1033.3 1033.83 1025 1043 1022L1052.5 1054L1075 1091L1084.5 1077L1131 1093L1184 1091C1184.83 1125 1171.4 1192.4 1111 1190Z" fill="#9E6740"/>
<path d="M1103 1158C1127 1164.4 1158.5 1149.83 1168 1141.5L1153.5 1174L1122 1192.5L1074 1182L1042.5 1145.5L1015.5 1044.5L1002 999.5L962 936.5L953 917.5C960.333 920.833 980.4 934.2 1002 961C1029 994.5 1035.5 1060.5 1050.5 1101C1065.6 1141.76 1073 1150 1103 1158Z" fill="#001647" fill-opacity="0.2"/>
<path d="M1113.5 1058C1078.7 1060 1090.67 1074.17 1101 1081L1179 1087.5L1189.5 1070C1178.67 1065.17 1148.3 1056 1113.5 1058Z" fill="#5B3827"/>
<path d="M1184 1076C1188.5 1149.5 1158 1190 1110 1188.5C1062 1187 1030 1153 1017.5 1055.5C1005.31 960.383 954.125 927.51 925.593 915.926M1079.5 1089.5C1061 1080.5 1053.8 1050.5 1036.5 992.5C1023.91 950.292 989.218 924.962 969.059 912.307M1080.5 1114.5C1080.17 1104.5 1079.2 1078.7 1084 1065.5M1011.5 1008L1034 996.5M1022 1042L1045.5 1030.5M876 912C898 917 932.891 916.736 969.059 912.307M1014 902.5C1000.47 907.255 984.917 910.365 969.059 912.307M915.5 954C926.667 958 954.1 963.2 974.5 952" stroke="black" stroke-width="20" stroke-linecap="round"/>
<ellipse cx="1134.29" cy="1070.01" rx="50.8114" ry="18.5698" transform="rotate(6.18578 1134.29 1070.01)" stroke="black" stroke-width="21"/>
</g>
<defs>
<clipPath id="clip0_838_2238">
<rect width="1500" height="1500" fill="white"/>
</clipPath>
</defs>
      <g clip-path="url(#clip0_771_645)">
<path d="M863.993 527.644C890.69 533.234 953.2 543.468 977.668 523.094L1014.69 433.323L1073.2 323.725L1125.02 252.017C1125.02 252.017 1152.13 228.431 1038.06 213.369C923.981 198.307 867.998 187.656 867.998 187.656C867.998 187.656 682.771 166.635 549.728 276.66C416.686 386.684 363.177 542.213 363.177 542.213C363.177 542.213 337.135 691.713 357.999 753.5C357.999 753.5 341.001 591 490.792 472.221L501.17 475.384L603.985 437.979L697.981 441.573L810.812 485.642L842.989 516.524C848.813 522.121 856.09 525.973 863.993 527.644Z" fill="#FF6247"/>
<path d="M742.504 200.999C676.904 266.599 661.503 387.666 662.003 439.999L625.003 434.5L571.003 446L499.003 479C383.499 562.5 364.503 699.667 357.503 751.5L343.503 659.5L360.003 560.5L396.003 466.5C421.169 416.5 492.403 304.699 576.003 257.499C659.603 210.299 721.837 200.166 742.504 200.999Z" fill="#001647" fill-opacity="0.2"/>
<path d="M370.001 824.5C370.001 824.5 269.087 563.97 500.28 320.562C709.101 100.723 1055 215.728 1119.97 240.074C1121.19 240.539 1122.28 241.281 1123.16 242.241C1124.03 243.209 1124.65 244.367 1124.99 245.623C1125.32 246.881 1125.35 248.2 1125.07 249.47C1124.79 250.741 1124.21 251.926 1123.38 252.928C1034.34 361.043 992.774 481.265 982.543 514.053C981.611 517.023 980.059 519.76 977.991 522.086C975.922 524.406 973.381 526.257 970.538 527.514C952.612 535.457 910.698 548.623 858.575 529.192C851.513 525.552 848.335 523.515 843.096 518.725C818.258 491.807 652.217 366.136 494.165 482.174" stroke="black" stroke-width="20" stroke-miterlimit="10" stroke-linecap="round"/>
<path d="M847.383 522.595C847.383 522.595 830.394 316.415 907.33 193.397" stroke="black" stroke-width="20" stroke-miterlimit="10" stroke-linecap="round"/>
<path d="M940.167 529.066C940.167 529.066 943.119 444.066 997.197 349.634" stroke="black" stroke-width="20" stroke-miterlimit="10" stroke-linecap="round"/>
<path d="M754.269 459.828C754.269 459.828 740.725 382.776 759.48 315.96" stroke="black" stroke-width="20" stroke-miterlimit="10" stroke-linecap="round"/>
<path d="M595.363 246.497C595.363 246.497 573.599 298.854 593.754 375.109" stroke="black" stroke-width="20" stroke-miterlimit="10" stroke-linecap="round"/>
<path d="M920.072 268.739C920.072 268.739 927.639 235.29 953.389 205.827" stroke="black" stroke-width="20" stroke-miterlimit="10" stroke-linecap="round"/>
<path d="M472.246 499.854C472.246 499.854 460.444 481.715 458.858 444.683" stroke="black" stroke-width="20" stroke-miterlimit="10" stroke-linecap="round"/>
</g>
<defs>
<clipPath id="clip0_771_645">
<rect width="1500" height="1500" fill="white"/>
</clipPath>
</defs>
      
    </g>
    </svg>