<svg
      xmlns="http://www.w3.org/2000/svg"
      preserveAspectRatio="xMidYMin meet"
      fill="none"
      viewBox="0 0 1500 1500"
    >
      <g>
      <path fill="url(#prefix__paint0_linear_53_30459)" d="M0 0h1500v1500H0z"/><defs><linearGradient id="prefix__paint0_linear_53_30459" x1="0" y1="0" x2="1500" y2="1500" gradientUnits="userSpaceOnUse">
<stop stop-color="#FFCB9F"/>
<stop offset="1" stop-color="#FF7F11"/>
</linearGradient></defs>
      <g clip-path="url(#clip0_482_374)">
<path d="M773 1011.5C543.4 1029.9 398.667 1353.5 355 1513H1138.5C1075.7 1127 868.667 1017.83 773 1011.5Z" fill="#53B6F9"/>
<path d="M831 1187.5C733.4 1193.9 672.667 1094.83 654.5 1044.5L690 1026C695.667 1034.33 707.3 1051.7 708.5 1054.5C709.7 1057.3 737.667 1099 751.5 1119.5L827 1143.5L857.5 1119.5L893.5 1054.5L920.5 1081.5L905 1119.5L873.5 1160L831 1187.5Z" fill="white"/>
<path d="M490.5 1417.5L388 1405.5L409 1356L513 1376C558.833 1393.83 651.2 1430 654 1432C656.8 1434 652.833 1463.17 650.5 1477.5L490.5 1417.5Z" fill="white"/>
<path d="M1114.5 1412.5L1041.5 1430L1046 1469.5L1126.5 1451L1114.5 1412.5Z" fill="white"/>
<path d="M749.5 1019.5C536 1134 457.448 1414.63 443.159 1511H353.699C350.414 1508.73 357.049 1471.27 409.87 1339.62C462.691 1207.98 569.086 1113.24 605.384 1082.33L674 1033.5L749.5 1019.5Z" fill="#001647" fill-opacity="0.2"/>
<path d="M390.5 1402.5L355 1509.5H650L654 1474L390.5 1402.5Z" fill="#AABBFF"/>
<path d="M1047 1477V1512.5L1145 1509.5L1130 1456L1047 1477Z" fill="#AABBFF"/>
<path d="M724 1086L696.5 1024L706 1015H757.5L845 1031.5L888 1054L855 1115.5L830.5 1152L775 1135.5L724 1086Z" fill="#AABBFF"/>
<path d="M353.5 1519.5C365.5 1454.33 414.5 1313.6 483.5 1219C530.101 1155.11 577.468 1101.29 629.141 1059.66C710.278 994.299 826.037 996.323 905.02 1064.27C1000.08 1146.05 1103.44 1290.29 1142.5 1519.5M1013.5 1319C1024.83 1354.33 1048.1 1443.9 1050.5 1519.5M667 1361.5C661.167 1392.33 650.3 1467.1 653.5 1519.5M389 1402C453.5 1411.83 596.7 1440.9 653.5 1478.5M408 1358.5C467 1367.33 598.3 1392.9 655.5 1432.5M1047 1474.5L1127.5 1451.5M1042 1429.5L1113.5 1408.5M657.5 1041.5C673.972 1086.42 728.014 1181.47 835.445 1187.97C835.803 1187.99 836.152 1187.92 836.47 1187.75C859.22 1175.83 910.85 1139.66 918 1076.5M696.5 1026C703.647 1059.57 739.404 1130.61 825.294 1146.87C825.745 1146.95 826.204 1146.89 826.604 1146.67C843.993 1136.92 879.07 1104.87 885 1051.5" stroke="black" stroke-width="22" stroke-linecap="round"/>
<path d="M909.773 1322.6C908.394 1322.6 907.427 1321.24 907.884 1319.94L920.176 1284.94C920.73 1283.36 922.857 1283.12 923.752 1284.53L958.88 1339.9C959.251 1340.49 959.897 1340.84 960.589 1340.83L976.811 1340.67C978.374 1340.66 979.316 1338.93 978.486 1337.61L917.606 1240.51C916.716 1239.09 914.58 1239.33 914.025 1240.91L879.595 1338.95C879.135 1340.26 880.115 1341.63 881.501 1341.61L945.945 1340.98C947.513 1340.96 948.454 1339.23 947.615 1337.9L926.611 1304.77C925.716 1303.36 923.587 1303.6 923.034 1305.18L917.404 1321.25C917.123 1322.06 916.367 1322.59 915.518 1322.59L909.773 1322.6Z" fill="white"/>
</g>
<defs>
<clipPath id="clip0_482_374">
<rect width="1500" height="1500" fill="white"/>
</clipPath>
</defs>
      <g clip-path="url(#clip0_497_1194)">
<path d="M379.667 654.812C432.345 471.574 618.472 401.981 699.114 390.653C740.985 382.718 849.655 375.215 949.364 408.675C980 418.956 1049.88 457.388 1091.92 499.818C1144.47 552.856 1272.97 732.052 1185.05 927.725C1097.12 1123.4 758.414 1092.29 612.749 1051.82C464.472 1010.63 314.48 881.563 379.667 654.812Z" fill="#AABBFF"/>
<path d="M449.293 747.204C454.734 531.068 585.306 432.345 649.911 410C432.292 459.565 365.296 655.455 364 747.204C377.99 984.871 584.496 1053.43 681 1058C601.498 1044.46 443.853 963.339 449.293 747.204Z" fill="#001647" fill-opacity="0.2"/>
<path d="M379.667 654.812C432.345 471.574 618.472 401.981 699.114 390.653C740.985 382.718 849.655 375.215 949.364 408.675C980 418.956 1049.88 457.388 1091.92 499.818C1144.47 552.856 1272.97 732.052 1185.05 927.725C1097.12 1123.4 758.414 1092.29 612.749 1051.82C464.472 1010.63 314.48 881.563 379.667 654.812Z" stroke="black" stroke-width="22" stroke-linecap="round"/>
</g>
<defs>
    <clipPath id="prefix__clip0_299_662"><path fill="#fff" d="M0 0h1500v1500H0z"/></clipPath>
</defs>
      <g clip-path="url(#clip0_624_3204)">
<path d="M876.086 925.246H970.499" stroke="black" stroke-width="22" stroke-linecap="round"/>
<path d="M865.708 768.06L844.448 768.047L821.695 768.027L792.828 768" stroke="black" stroke-width="22" stroke-linecap="round"/>
<path d="M850.019 773.927C852.061 777.245 853.087 781.09 852.968 784.985C852.85 788.88 851.593 792.655 849.352 795.844C847.112 799.032 843.986 801.494 840.361 802.925C836.737 804.357 832.772 804.695 828.958 803.897C825.143 803.1 821.646 801.202 818.898 798.439C816.15 795.676 814.273 792.168 813.497 788.349C812.721 784.53 813.081 780.567 814.533 776.951C815.985 773.334 818.464 770.223 821.665 768H844.419C846.675 769.567 848.582 771.585 850.019 773.927Z" fill="black" stroke="black" stroke-width="22" stroke-linecap="round"/>
<path d="M1033.71 768L1004.83 768.027L982.081 768.047L960.828 768.06" stroke="black" stroke-width="22" stroke-linecap="round"/>
<path d="M976.506 773.926C974.456 777.243 973.423 781.087 973.536 784.985C973.648 788.882 974.9 792.661 977.138 795.854C979.376 799.047 982.5 801.513 986.125 802.949C989.75 804.385 993.716 804.726 997.533 803.931C1001.35 803.136 1004.85 801.24 1007.6 798.476C1010.35 795.713 1012.23 792.203 1013.01 788.383C1013.78 784.562 1013.42 780.597 1011.97 776.979C1010.52 773.361 1008.04 770.248 1004.83 768.026H982.079C979.837 769.59 977.94 771.598 976.506 773.926Z" fill="black" stroke="black" stroke-width="22" stroke-linecap="round"/>
</g>
<defs>
<clipPath id="clip0_624_3204">
<rect width="1500" height="1500" fill="white"/>
</clipPath>
</defs>
      <g clip-path="url(#clip0_875_2704)">
<path d="M821.441 843.266C839.551 843.267 857.015 836.532 870.435 824.371C883.855 812.209 892.271 795.491 894.047 777.467C895.823 759.444 890.832 741.404 880.044 726.857C869.256 712.31 853.443 702.296 835.681 698.762C817.918 695.228 799.476 698.427 783.942 707.738C768.407 717.048 756.892 731.804 751.634 749.134C746.376 766.465 747.753 785.132 755.496 801.504C763.239 817.876 776.795 830.782 793.527 837.713C802.377 841.378 811.862 843.265 821.441 843.266Z" fill="#3A3A3A"/>
<path d="M757.998 736.336L780.765 706.94L865.384 832.392L825.334 845L757.998 736.336Z" fill="white" fill-opacity="0.7"/>
<rect x="795.559" y="706.672" width="13.3333" height="135.981" transform="rotate(-34 795.559 706.672)" fill="white" fill-opacity="0.7"/>
<path d="M1013.38 839.717C1031.49 839.719 1048.96 832.983 1062.38 820.822C1075.8 808.66 1084.21 791.942 1085.99 773.918C1087.76 755.895 1082.77 737.855 1071.99 723.308C1061.2 708.761 1045.38 698.747 1027.62 695.213C1009.86 691.679 991.417 694.879 975.883 704.189C960.349 713.499 948.833 728.255 943.575 745.585C938.318 762.916 939.694 781.583 947.438 797.955C955.181 814.327 968.737 827.233 985.469 834.164C994.318 837.83 1003.8 839.717 1013.38 839.717Z" fill="#3A3A3A"/>
<path d="M949.935 732.788L972.703 703.392L1057.32 828.844L1017.27 841.451L949.935 732.788Z" fill="white" fill-opacity="0.7"/>
<rect x="987.496" y="703.123" width="13.3333" height="135.981" transform="rotate(-34 987.496 703.123)" fill="white" fill-opacity="0.7"/>
<path d="M1012.38 842.6C1029.26 842.593 1045.62 836.734 1058.66 826.021C1071.7 815.307 1080.63 800.403 1083.91 783.846C1087.2 767.29 1084.64 750.107 1076.68 735.225C1068.71 720.343 1055.84 708.683 1040.24 702.232C1024.64 695.781 1007.29 694.938 991.139 699.847C974.99 704.755 961.042 715.112 951.673 729.152C942.304 743.192 938.093 760.046 939.758 776.843C941.423 793.64 948.861 809.339 960.804 821.267C974.49 834.934 993.043 842.607 1012.38 842.6V842.6Z" stroke="black" stroke-width="20" stroke-miterlimit="10"/>
<path d="M821.441 842.6C839.551 842.601 857.015 835.866 870.435 823.705C883.855 811.543 892.271 794.825 894.047 776.801C895.823 758.778 890.832 740.738 880.044 726.191C869.256 711.644 853.443 701.63 835.681 698.096C817.918 694.562 799.476 697.761 783.942 707.072C768.407 716.382 756.892 731.138 751.634 748.468C746.376 765.799 747.753 784.466 755.496 800.838C763.239 817.21 776.795 830.116 793.527 837.047C802.377 840.712 811.862 842.599 821.441 842.6Z" stroke="black" stroke-width="20" stroke-miterlimit="10"/>
<path d="M582.5 804.5C582.5 810.023 586.977 814.5 592.5 814.5C598.023 814.5 602.5 810.023 602.5 804.5H582.5ZM747.334 760L622.5 760L622.5 780L747.334 780L747.334 760ZM582.5 800V804.5H602.5V800H582.5ZM622.5 760C600.409 760 582.5 777.909 582.5 800H602.5C602.5 788.955 611.454 780 622.5 780L622.5 760Z" fill="black"/>
<path d="M894.387 769.666H939.501" stroke="black" stroke-width="20" stroke-miterlimit="10"/>
</g>
<defs>
<clipPath id="clip0_875_2704">
<rect width="1500" height="1500" fill="white"/>
</clipPath>
</defs>
      <g clip-path="url(#clip0_1379_1571)">
<path d="M342.258 665.941L358.32 707.415C358.68 708.344 359.67 708.867 360.64 708.64L537.136 667.323L828.203 631.654L1036.98 624.277L1188.55 632.319C1189.56 632.372 1190.45 631.667 1190.62 630.673L1199.65 580.167C1199.71 579.827 1199.68 579.476 1199.56 579.149L1180.09 524.031C1179.88 523.437 1179.95 522.804 1180.29 522.28C1217.27 466.502 1286.64 340.593 1272.44 276.496C1258.31 212.74 1197.52 183.014 1168.01 175.834C1167.43 175.693 1166.97 175.309 1166.67 174.791C1161.62 165.923 1139.96 144.292 1089.03 121.998C1038.73 99.9771 980.139 121.832 953.904 137.21C952.484 138.043 950.536 136.919 950.134 135.323C946.467 120.754 917.303 94.9648 819.98 83.233C714.649 70.5359 649.643 113.807 629.281 138.026C628.736 138.674 627.882 138.905 627.077 138.645C610.365 133.237 565.008 125.702 505.949 135.789C445.773 146.068 410.808 192.418 400.527 214.887C400.349 215.276 400.063 215.584 399.69 215.794L327.884 256.385C327.716 256.479 327.563 256.598 327.429 256.737L284.184 301.563C283.992 301.763 283.843 302 283.748 302.259L261.936 361.343C261.827 361.637 261.65 361.902 261.42 362.116L237.5 384.307C237.267 384.523 237.089 384.791 236.98 385.09L222.824 424.028C222.653 424.497 222.664 425.013 222.855 425.474L243.217 474.832L282.703 544.679C282.795 544.842 282.91 544.992 283.045 545.124L343.133 603.978C343.531 604.367 343.748 604.905 343.733 605.461L342.124 665.165C342.116 665.43 342.162 665.694 342.258 665.941Z" fill="white"/>
<path fill-rule="evenodd" clip-rule="evenodd" d="M1010.54 421.865C1016.57 422.611 1020.85 428.104 1020.1 434.133C1018.83 444.412 1015.39 460.517 1009.1 476.232C1002.93 491.627 993.308 508.489 978.622 518.044C973.5 518.5 966.716 519.915 963.402 514.823C960.089 509.73 961.532 502.916 966.624 499.603C975.56 493.79 983.046 482.103 988.672 468.054C994.168 454.326 997.196 440.095 998.269 431.43C999.015 425.401 1004.51 421.119 1010.54 421.865ZM813.119 424.72C819.1 423.658 824.81 427.647 825.871 433.629C827.596 443.353 829.729 458.864 830.558 474.089C830.973 481.701 831.073 489.442 830.587 496.456C830.116 503.252 829.042 510.296 826.59 515.976C824.183 521.554 817.71 524.124 812.132 521.717C806.554 519.309 803.984 512.836 806.391 507.258C807.354 505.027 808.222 500.953 808.64 494.935C809.042 489.135 808.977 482.367 808.591 475.285C807.82 461.122 805.813 446.511 804.209 437.472C803.148 431.49 807.137 425.781 813.119 424.72ZM1146.5 439.718C1152.11 442.05 1154.76 448.489 1152.43 454.098C1146.73 467.809 1138.33 482.605 1129.05 495.33C1121.71 505.395 1113.28 514.9 1104.64 521.415C1102.57 522.973 1100.49 518.359 1098.41 519.542C1093.13 522.544 1086.41 520.696 1083.41 515.415C1080.41 510.133 1082.26 509.418 1087.54 506.416C1094.23 502.613 1102.77 494.032 1111.28 482.365C1119.6 470.951 1127.12 457.661 1132.12 445.65C1134.45 440.041 1140.89 437.385 1146.5 439.718ZM506.111 487.405C511.616 484.836 518.162 487.216 520.731 492.721C523.594 498.853 530.109 509.541 538.484 518.818C547.235 528.511 555.976 534.392 563.037 535.08C569.083 535.668 573.508 541.047 572.919 547.093C572.331 553.14 566.952 557.565 560.906 556.976C545.217 555.449 531.665 544.095 522.154 533.56C512.268 522.609 504.554 510.076 500.796 502.026C498.226 496.521 500.606 489.975 506.111 487.405Z" fill="#001647" fill-opacity="0.2"/>
<path d="M500.499 563.5C484.899 593.1 484.999 655.833 486.999 683.5L357 712.5L350 687.5L345 612.5L465.5 563.5H500.499Z" fill="#001647" fill-opacity="0.2"/>
<path d="M365.5 338.5C368.33 422.468 460.333 517 500.499 556.5L483 557.5L444 568L352.5 601L318 582.5L262.5 524L238 483L231.5 431.5V393L262.5 370.5L260 338.5L295 286.5L362.5 237L400 205.5C390.667 214.833 362.5 249.5 365.5 338.5Z" fill="#001647" fill-opacity="0.2"/>
<path d="M433 179.5C419.542 191.061 393.481 223.562 390.317 265.473C389.94 270.471 393.421 274.838 398.29 276.03C406.278 277.986 414.057 271.498 415.564 263.412C424.15 217.339 477.709 151.52 566 134.5H498L433 179.5Z" fill="#001647" fill-opacity="0.2"/>
<path d="M841.5 96C734.3 93.6 729.833 176.667 741 218.5C733.667 214.167 718.6 204.3 717 199.5C715.4 194.7 682 168.833 665.5 156.5L633.5 137.5L669 103L764.5 82L841.5 96Z" fill="#001647" fill-opacity="0.2"/>
<path d="M1079.5 128C1021.5 122.8 1016 176.667 1020 205.5L982 164L960.5 140.5L985.5 121L1034.5 109.5L1079.5 128Z" fill="#001647" fill-opacity="0.2"/>
<path d="M1239.5 224.5C1207.9 208.5 1196.33 254.167 1194.5 279L1186 237L1177 181.5L1213 192.5L1239.5 224.5Z" fill="#001647" fill-opacity="0.2"/>
<path d="M1021.19 430.781C1018.84 449.725 1008.25 491.455 984.623 506.824M827.04 433.551C830.369 452.314 835.32 493.796 828.491 509.617M522.764 495.373C529.384 509.557 551.222 541.814 573.971 544.028M381.886 544.594C392.27 555.212 417.877 578.815 433.493 578.436M1154.27 447.874C1143.58 473.595 1122.45 504.046 1104.97 513.979M1160.44 167.939C1219.31 187.532 1295.18 251.1 1271.59 344.998C1246.99 442.896 1202.57 499.528 1182.36 519.157M1184.72 283.135C1193.37 246.855 1190.6 165.451 1110.32 130.074C1030.05 94.6982 973.668 121.555 954.554 137.879M1011.89 200.447C990.917 162.035 916.767 84.9419 787.949 83.87C701.167 83.1479 653.682 111.271 630.399 139.295M732.749 220.432C701.408 177.005 611.17 99.2819 500.946 135.805C415.736 164.039 387.614 223.538 382.208 267.502M391.09 221.725C324.52 241.939 214.806 341.818 286.237 418.971M258.04 370.194C235.617 379.426 202.067 416.702 247.255 491.947C292.444 567.192 332.781 597.29 345.295 603.13M1189.83 633.323C814.192 603.545 480.137 672.056 360.361 708.602C359.489 708.869 358.609 708.492 358.145 707.706C337.973 673.522 341.392 628.392 344.94 609.685C345.068 609.014 345.53 608.479 346.168 608.233C648.597 491.438 1024.14 500.576 1177.28 521.409C1177.94 521.499 1178.48 521.915 1178.76 522.516C1201.24 569.291 1199.19 612.715 1191.82 632.103C1191.51 632.912 1190.7 633.392 1189.83 633.323Z" stroke="black" stroke-width="22" stroke-linecap="round"/>
</g>
<defs>
<clipPath id="clip0_1379_1571">
<rect width="1500" height="1500" fill="white"/>
</clipPath>
</defs>
      
    </g>
    </svg>