<svg
      xmlns="http://www.w3.org/2000/svg"
      preserveAspectRatio="xMidYMin meet"
      fill="none"
      viewBox="0 0 1500 1500"
    >
      <g>
      <path fill="url(#prefix__paint0_linear_53_30460)" d="M0 0h1500v1500H0z"/><defs><linearGradient id="prefix__paint0_linear_53_30460" x1="0" y1="0" x2="1500" y2="1500" gradientUnits="userSpaceOnUse">
<stop stop-color="#F1FFBA"/>
<stop offset="1" stop-color="#65DCBA"/>
</linearGradient></defs>
      <g clip-path="url(#prefix__clip0_53_28307)"><path d="M460.5 1094.5c-138.4 66.4-174 309.33-174.5 422.5h983.5c-12.5-72.17-53.2-244.1-116-354.5-78.5-138-520-151-693-68z" fill="#A760FF"/><path d="M367 1440c-17.2-1.2-22.167 49.83-22.5 75.5l47.5-4.5c-1.167-23.17-7.8-69.8-25-71zM674 1276c-29.6 1.2-47 22.83-52 33.5l4.5 14 56 10.5c14.833-5 44.8-18.8 46-34 1.5-19-17.5-25.5-54.5-24zM554.5 1131.5c-49.2-6.8-55.167 21.17-52 36-2 6.83 1.9 23.3 33.5 34.5 39.5 14 138 33.5 166.5 31 22.8-2 24.833-33.83 23-49.5-36.5-14.5-121.8-45.2-171-52zM842 1417c-38.8 30.4-22.5 74.67-9.5 93l140.5 3.5c7.167-4 20-20.9 14-56.5-7.5-44.5-96.5-78-145-40zM1114.5 1293c-46.4-6.8-12.67-111.83 10-163.5l49 71.5c-.33 33.5-12.6 98.8-59 92z" fill="#ABF"/><path d="M386 1459l-1 47.5H284c2.833-48.17 12.8-156.6 30-205 17.2-48.4 43.5-97.5 54.5-116 29.667-31.67 93.9-93.8 113.5-89 19.6 4.8 28.5 23.67 30.5 32.5l-16.5 22.5 7.5 21 9 19c-95.2 77.2-124 210.5-126.5 267.5z" fill="#001647" fill-opacity=".2"/><path d="M705.5 1163c27.2 82.4-120.333 42.67-197.5 12.5l23.5 29.5c29.333 8.33 95.4 25.7 125 28.5 37 3.5 71-12 71.5-33 .4-16.8-14.833-32-22.5-37.5zM659.5 1315.5c-19.2.4-34.667-6.5-40-10l6.5 17c6.5 2.33 27.7 7.3 60.5 8.5 32.8 1.2 37.667-26.83 36-41-12.833-6-35.4-15.5-23-5.5 15.5 12.5-16 30.5-40 31zM960.5 1463.5c-4-32.4-41.667-52.83-60-59H920c14.667 5.83 47.3 23.2 60.5 46 13.2 22.8 1.5 49.5-6 60h-22c4.333-2.17 12-14.6 8-47zM1143 1161c16 61.6-21.67 112.67-40 126.5 53.5 10.5 70.33-58.33 68.5-87L1143 1161z" fill="#001647" fill-opacity=".2"/><path d="M289.501 1512.5c-6-101.5 31-323.03 140.5-398 158.5-108.51 616.499-87 706.499 26 64.91 81.5 99.5 222.5 132.5 371M1084.5 1337c12.33 37 29.5 110.3 43.5 175.5m-646.499 0c.333-32.83 7.7-107.6 20.5-157" stroke="#000" stroke-width="20" stroke-linecap="round"/><ellipse cx="675.502" cy="1303.28" rx="53.591" ry="29" transform="rotate(-4.687 675.502 1303.28)" stroke="#000" stroke-width="20"/><path d="M515.271 1188.27c-36.061-24.71-9.368-73.42 39.746-60.07l145.257 41.58c16.768 4.8 32.505 18.71 28.297 35.64-5.969 24.01-33.117 28.75-56 27.53-67.132-3.59-121.239-19.97-157.3-44.68zM393 1490c0 27.06-10.969 49-24.5 49s-24.5-21.94-24.5-49 10.969-49 24.5-49 24.5 21.94 24.5 49zM1173 1198.09c0 35.54-15.89 101.53-57.73 93.09-54.77-11.04-11.86-107.12 7.51-159.18" stroke="#000" stroke-width="20"/><ellipse cx="906" cy="1473" rx="87" ry="71" stroke="#000" stroke-width="20"/></g><defs><clipPath id="prefix__clip0_53_28307"><path fill="#fff" d="M0 0h1500v1500H0z"/></clipPath></defs>
      <g clip-path="url(#clip0_497_1194)">
<path d="M379.667 654.812C432.345 471.574 618.472 401.981 699.114 390.653C740.985 382.718 849.655 375.215 949.364 408.675C980 418.956 1049.88 457.388 1091.92 499.818C1144.47 552.856 1272.97 732.052 1185.05 927.725C1097.12 1123.4 758.414 1092.29 612.749 1051.82C464.472 1010.63 314.48 881.563 379.667 654.812Z" fill="#AABBFF"/>
<path d="M449.293 747.204C454.734 531.068 585.306 432.345 649.911 410C432.292 459.565 365.296 655.455 364 747.204C377.99 984.871 584.496 1053.43 681 1058C601.498 1044.46 443.853 963.339 449.293 747.204Z" fill="#001647" fill-opacity="0.2"/>
<path d="M379.667 654.812C432.345 471.574 618.472 401.981 699.114 390.653C740.985 382.718 849.655 375.215 949.364 408.675C980 418.956 1049.88 457.388 1091.92 499.818C1144.47 552.856 1272.97 732.052 1185.05 927.725C1097.12 1123.4 758.414 1092.29 612.749 1051.82C464.472 1010.63 314.48 881.563 379.667 654.812Z" stroke="black" stroke-width="22" stroke-linecap="round"/>
</g>
<defs>
    <clipPath id="prefix__clip0_299_662"><path fill="#fff" d="M0 0h1500v1500H0z"/></clipPath>
</defs>
      <g clip-path="url(#clip0_624_3413)">
<path d="M922.5 969C931.895 969 941.078 966.214 948.89 960.995C956.701 955.775 962.789 948.357 966.384 939.677C969.979 930.998 970.92 921.447 969.087 912.233C967.254 903.019 962.731 894.555 956.088 887.912C949.445 881.269 940.981 876.746 931.767 874.913C922.553 873.08 913.002 874.021 904.323 877.616C895.643 881.211 888.225 887.299 883.005 895.11C877.786 902.922 875 912.105 875 921.5C875 927.738 876.229 933.914 878.616 939.677C881.003 945.44 884.502 950.677 888.912 955.088C893.323 959.498 898.56 962.997 904.323 965.384C910.085 967.771 916.262 969 922.5 969Z" fill="white" stroke="black" stroke-width="22" stroke-miterlimit="10" stroke-linecap="round"/>
<path d="M822 818C849.062 818 871 796.062 871 769C871 741.938 849.062 720 822 720C794.938 720 773 741.938 773 769C773 796.062 794.938 818 822 818Z" fill="white" stroke="black" stroke-width="20" stroke-miterlimit="10"/>
<path d="M1012 818C1039.06 818 1061 796.062 1061 769C1061 741.938 1039.06 720 1012 720C984.938 720 963 741.938 963 769C963 796.062 984.938 818 1012 818Z" fill="white" stroke="black" stroke-width="20" stroke-miterlimit="10"/>
<path d="M822 782C829.18 782 835 776.18 835 769C835 761.82 829.18 756 822 756C814.82 756 809 761.82 809 769C809 776.18 814.82 782 822 782Z" fill="black"/>
<path d="M1012 782C1019.18 782 1025 776.18 1025 769C1025 761.82 1019.18 756 1012 756C1004.82 756 999 761.82 999 769C999 776.18 1004.82 782 1012 782Z" fill="black"/>
</g>
<defs>
<clipPath id="clip0_624_3413">
<rect width="1500" height="1500" fill="white"/>
</clipPath>
</defs>
      <g clip-path="url(#clip0_924_929)">
<path d="M821.441 843.267C839.551 843.268 857.015 836.533 870.435 824.371C883.855 812.21 892.271 795.491 894.047 777.468C895.823 759.444 890.832 741.405 880.044 726.858C869.256 712.311 853.443 702.296 835.681 698.762C817.918 695.228 799.476 698.428 783.942 707.738C768.407 717.049 756.892 731.804 751.634 749.135C746.376 766.466 747.753 785.132 755.496 801.504C763.239 817.876 776.795 830.783 793.527 837.713C802.377 841.379 811.862 843.266 821.441 843.267Z" fill="#3A3A3A"/>
<path d="M582.5 804.5C582.5 810.023 586.977 814.5 592.5 814.5C598.023 814.5 602.5 810.023 602.5 804.5H582.5ZM747.334 760L622.5 760L622.5 780L747.334 780L747.334 760ZM582.5 800V804.5H602.5V800H582.5ZM622.5 760C600.409 760 582.5 777.908 582.5 800H602.5C602.5 788.954 611.454 780 622.5 780L622.5 760Z" fill="black"/>
<path d="M898 770H936" stroke="black" stroke-width="20" stroke-miterlimit="10"/>
<path d="M1014 705.605C988.007 687.573 950.464 699.18 937.571 727.664C923.496 758.76 940.008 802.21 1005.58 846.404C1010.62 849.799 1017.38 849.799 1022.42 846.403C1087.99 802.206 1104.5 758.755 1090.43 727.66C1077.54 699.176 1039.99 687.573 1014 705.605Z" fill="#FF6247" stroke="black" stroke-width="20"/>
<path d="M820 705.605C794.007 687.573 756.464 699.18 743.571 727.664C729.496 758.76 746.008 802.21 811.579 846.404C816.618 849.799 823.383 849.799 828.421 846.403C893.992 802.206 910.504 758.755 896.429 727.66C883.536 699.176 845.992 687.573 820 705.605Z" fill="#FF6247" stroke="black" stroke-width="20"/>
<path d="M944.92 717.728L976.004 699.329L1056.27 818.334L1024.16 841.5L944.92 717.728Z" fill="white"/>
<rect x="990.037" y="699.073" width="12.6482" height="128.993" transform="rotate(-34 990.037 699.073)" fill="white"/>
<path d="M752.92 717.728L784.004 699.329L864.274 818.334L832.157 841.5L752.92 717.728Z" fill="white"/>
<rect x="798.037" y="699.073" width="12.6482" height="128.993" transform="rotate(-34 798.037 699.073)" fill="white"/>
<path d="M1014 705.605C988.007 687.573 950.464 699.18 937.571 727.664C923.496 758.76 940.008 802.21 1005.58 846.404C1010.62 849.799 1017.38 849.799 1022.42 846.403C1087.99 802.206 1104.5 758.755 1090.43 727.66C1077.54 699.176 1039.99 687.573 1014 705.605Z" stroke="black" stroke-width="20"/>
<path d="M820 705.605C794.007 687.573 756.464 699.18 743.571 727.664C729.496 758.76 746.008 802.21 811.579 846.404C816.618 849.799 823.383 849.799 828.421 846.403C893.992 802.206 910.504 758.755 896.429 727.66C883.536 699.176 845.992 687.573 820 705.605Z" stroke="black" stroke-width="20"/>
</g>
<defs>
<clipPath id="clip0_924_929">
<rect width="1500" height="1500" fill="white"/>
</clipPath>
</defs>
      <g clip-path="url(#clip0_797_1838)">
<path d="M778.32 618.992C732.316 652.118 694.23 627.98 679.668 610.456C679.157 609.841 678.159 610.009 677.884 610.761C669.528 633.659 642.971 668.377 597.671 637.802C597.105 637.42 596.305 637.664 596.101 638.316C588.493 662.622 563.234 699.839 518.947 665.637C518.326 665.158 517.378 665.497 517.267 666.274C513.621 691.674 494.316 732.913 443.408 708.441C442.916 708.205 442.306 708.379 442.049 708.86C431.681 728.28 402.873 756.444 366.411 720.409C366.162 720.163 365.804 720.049 365.462 720.128C345.832 724.651 302.407 716.493 310.32 670.989C310.414 670.452 310.08 669.914 309.548 669.792C285.64 664.323 254.684 637.693 284.948 590.845C285.245 590.386 285.146 589.761 284.698 589.447C265.719 576.144 239.77 542.719 281.101 510.198C281.568 509.831 281.652 509.135 281.258 508.691C265.973 491.441 257.362 445.131 303.621 422.916C304.102 422.685 304.331 422.088 304.13 421.593C278.525 358.362 310.831 340.761 353.923 334.65C354.5 334.568 354.887 333.983 354.767 333.412C339.785 262.041 399.108 252.25 433.313 257.799C433.935 257.9 434.485 257.378 434.477 256.747C433.614 190.873 488.629 193.994 517.914 207.007C518.486 207.262 519.149 206.909 519.311 206.303C534.019 151.325 591.46 165.03 615.936 181.277C616.484 181.641 617.229 181.359 617.459 180.742C637.478 127.018 685.224 145.62 707.619 162.333C708.097 162.69 708.783 162.528 709.096 162.019C741.06 110.016 788.168 134.291 806.283 154.678C806.677 155.121 807.373 155.109 807.786 154.684C848.463 112.933 885.946 142.547 900.357 163.546C900.704 164.051 901.43 164.109 901.888 163.702C944.488 125.847 976.412 157.642 987.575 179.166C987.82 179.638 988.404 179.823 988.894 179.614C1034.73 160.09 1050.15 192.591 1052.37 212.628C1052.44 213.306 1053.18 213.711 1053.81 213.451C1099.59 194.592 1115.79 228.48 1118.38 248.933C1118.45 249.513 1119.02 249.901 1119.59 249.798C1170.35 240.711 1177.53 276.49 1174.69 296.774C1174.6 297.409 1175.14 297.963 1175.78 297.935C1222.29 295.882 1223.42 330.149 1217.87 348.801C1217.69 349.419 1218.15 350.052 1218.79 350.113C1265.88 354.579 1260.1 389.775 1250.91 407.714C1250.68 408.168 1250.84 408.73 1251.26 409.021C1293.6 438.395 1274.36 468.139 1258.73 479.96C1258.31 480.273 1258.22 480.859 1258.48 481.306C1281.04 519.674 1258.36 536.792 1244.61 544.854C1244.05 545.185 1243.96 545.975 1244.42 546.449C1277.86 581.608 1253.39 610.387 1232.24 617.268C1231.8 617.41 1231.52 617.843 1231.53 618.302C1233.35 668.841 1174.73 666.767 1160.03 643.385C1159.73 642.906 1159.08 642.756 1158.6 643.047C1113.14 670.393 1078.93 643.457 1066.69 624.601C1066.33 624.046 1065.54 623.996 1065.08 624.475C1029.07 662.135 988.776 640.543 972.247 624.25C971.834 623.842 971.159 623.886 970.769 624.316C938.22 660.212 898.794 639.713 882.265 624.229C881.842 623.832 881.169 623.893 880.789 624.331C847.162 663.14 799.805 637.39 779.595 619.045C779.241 618.723 778.708 618.713 778.32 618.992Z" fill="#4AEEB9"/>
<path d="M778.32 618.992C732.316 652.118 694.23 627.98 679.668 610.456C679.157 609.841 678.159 610.009 677.884 610.761C669.528 633.659 642.971 668.377 597.671 637.802C597.105 637.42 596.305 637.664 596.101 638.316C588.493 662.622 563.234 699.839 518.947 665.637C518.326 665.158 517.378 665.497 517.267 666.274C513.621 691.674 494.316 732.913 443.408 708.441C442.916 708.205 442.306 708.379 442.049 708.86C431.681 728.28 402.873 756.444 366.411 720.409C366.162 720.163 365.804 720.049 365.462 720.128C345.832 724.651 302.407 716.493 310.32 670.989C310.414 670.452 310.08 669.914 309.548 669.792C285.64 664.323 254.684 637.693 284.948 590.845C285.245 590.386 285.146 589.761 284.698 589.447C265.719 576.144 239.77 542.719 281.101 510.198C281.568 509.831 281.652 509.135 281.258 508.691C265.973 491.441 257.362 445.131 303.621 422.916C304.102 422.685 304.331 422.088 304.13 421.593C278.525 358.362 310.831 340.761 353.923 334.65C354.5 334.568 354.887 333.983 354.767 333.412C339.785 262.041 399.108 252.25 433.313 257.799C433.935 257.9 434.485 257.378 434.477 256.747C433.614 190.873 488.629 193.994 517.914 207.007C518.486 207.262 519.149 206.909 519.311 206.303C534.019 151.325 591.46 165.03 615.936 181.277C616.484 181.641 617.229 181.359 617.459 180.742C637.478 127.018 685.224 145.62 707.619 162.333C708.097 162.69 708.783 162.528 709.096 162.019C741.06 110.016 788.168 134.291 806.283 154.678C806.677 155.121 807.373 155.109 807.786 154.684C848.463 112.933 885.946 142.547 900.357 163.546C900.704 164.051 901.43 164.109 901.888 163.702C944.488 125.847 976.412 157.642 987.575 179.166C987.82 179.638 988.404 179.823 988.894 179.614C1034.73 160.09 1050.15 192.591 1052.37 212.628C1052.44 213.306 1053.18 213.711 1053.81 213.451C1099.59 194.592 1115.79 228.48 1118.38 248.933C1118.45 249.513 1119.02 249.901 1119.59 249.798C1170.35 240.711 1177.53 276.49 1174.69 296.774C1174.6 297.409 1175.14 297.963 1175.78 297.935C1222.29 295.882 1223.42 330.149 1217.87 348.801C1217.69 349.419 1218.15 350.052 1218.79 350.113C1265.88 354.579 1260.1 389.775 1250.91 407.714C1250.68 408.168 1250.84 408.73 1251.26 409.021C1293.6 438.395 1274.36 468.139 1258.73 479.96C1258.31 480.273 1258.22 480.859 1258.48 481.306C1281.04 519.674 1258.36 536.792 1244.61 544.854C1244.05 545.185 1243.96 545.975 1244.42 546.449C1277.86 581.608 1253.39 610.387 1232.24 617.268C1231.8 617.41 1231.52 617.843 1231.53 618.302C1233.35 668.841 1174.73 666.767 1160.03 643.385C1159.73 642.906 1159.08 642.756 1158.6 643.047C1113.14 670.393 1078.93 643.457 1066.69 624.601C1066.33 624.046 1065.54 623.996 1065.08 624.475C1029.07 662.135 988.776 640.543 972.247 624.25C971.834 623.842 971.159 623.886 970.769 624.316C938.22 660.212 898.794 639.713 882.265 624.229C881.842 623.832 881.169 623.893 880.789 624.331C847.162 663.14 799.805 637.39 779.595 619.045C779.241 618.723 778.708 618.713 778.32 618.992Z" stroke="black" stroke-width="22" stroke-linecap="round"/>
<path d="M620.986 645.219C614.221 646.292 605.377 646.031 596.827 643.677L586.5 660L566.932 682.993C566.67 683.3 566.25 683.42 565.865 683.297L529.483 671.655C529.179 671.557 528.848 671.611 528.59 671.798L512.5 683.5L473.344 715.717C473.125 715.897 472.84 715.976 472.56 715.934L443.499 711.575C443.185 711.528 442.868 711.632 442.643 711.857L422.254 732.246C422.09 732.41 421.874 732.512 421.643 732.535L391.352 735.466C391.124 735.488 390.896 735.431 390.705 735.305L366.157 719.103C366.053 719.035 365.938 718.987 365.817 718.96L322.49 709.606C322.182 709.539 321.923 709.331 321.792 709.044L306.037 674.581C306.012 674.527 305.983 674.475 305.949 674.427L273.273 627.393C273.1 627.145 273.05 626.831 273.135 626.541L282.871 593.44C282.953 593.161 282.909 592.859 282.751 592.615L261.16 559.248C261.056 559.086 261 558.897 261 558.705V528.473C261 528.174 261.134 527.89 261.366 527.7L280.066 512.356C280.336 512.135 280.47 511.789 280.422 511.444L273.057 458.908C273.021 458.646 273.088 458.382 273.246 458.17L302.261 419.321C302.414 419.115 302.483 418.858 302.452 418.603L296.073 365.603C296.028 365.232 296.193 364.868 296.501 364.658L336.932 337.047C336.977 337.016 337.02 336.981 337.06 336.943L348.81 325.682C348.934 325.563 349.026 325.413 349.076 325.248L359.436 290.713C359.478 290.573 359.551 290.443 359.648 290.334L380.275 267.252C380.421 267.089 380.617 266.978 380.832 266.936L431.689 257.156C432.16 257.065 432.5 256.653 432.5 256.174V240.36C432.5 240.127 432.581 239.902 432.729 239.723L463.2 202.863C463.39 202.633 463.673 202.5 463.971 202.5H516.621C516.865 202.5 517.101 202.411 517.284 202.248L556.133 167.825C556.365 167.62 556.678 167.533 556.981 167.591L614.54 178.413C614.831 178.468 615.132 178.391 615.361 178.202L656.586 144.178C656.844 143.965 657.193 143.895 657.514 143.993L700.071 156.972C710.689 138.773 730.764 134.451 749.613 136.447L764.693 127.48C765.147 127.21 765.732 127.34 766.03 127.775L774.989 140.892C775.559 141.727 774.664 142.818 773.726 142.443C766.631 139.602 758.25 137.361 749.613 136.447L710.38 159.774C710.138 159.918 709.846 159.953 709.577 159.871L700.071 156.972C696.874 162.451 694.534 169.189 693.343 177.391C692.167 185.491 684.959 191.879 676.775 191.729C645.377 191.153 606.18 204.072 610.724 253.904C611.417 261.498 606.443 268.723 598.986 270.318C565.254 277.532 542.435 294.978 558.009 342.104C560.214 348.779 557.262 356.127 551.416 360.031C523.521 378.656 523.528 407.868 531.92 426.637C535.118 433.79 534.243 443.005 528.95 448.782C507.316 472.397 518.942 495.408 533.299 509.37C538.474 514.403 540.031 522.447 536.842 528.923C520.715 561.668 537.504 582.722 556.295 591.666C562.735 594.731 567.121 601.466 567.364 608.594C568.067 629.222 582.006 639.595 596.827 643.677L601.55 636.212C601.81 635.801 602.329 635.636 602.778 635.823L621.148 643.451C622.041 643.822 621.942 645.067 620.986 645.219Z" fill="#001647" fill-opacity="0.2"/>
</g>
<defs>
<clipPath id="clip0_797_1838">
<rect width="1500" height="1500" fill="white"/>
</clipPath>
</defs>
      
    </g>
    </svg>