<svg
      xmlns="http://www.w3.org/2000/svg"
      preserveAspectRatio="xMidYMin meet"
      fill="none"
      viewBox="0 0 1500 1500"
    >
      <g>
      <path fill="url(#prefix__paint0_linear_53_30460)" d="M0 0h1500v1500H0z"/><defs><linearGradient id="prefix__paint0_linear_53_30460" x1="0" y1="0" x2="1500" y2="1500" gradientUnits="userSpaceOnUse">
<stop stop-color="#F1FFBA"/>
<stop offset="1" stop-color="#65DCBA"/>
</linearGradient></defs>
      <g clip-path="url(#clip0_481_188)">
<path d="M822.5 1233.5L646 1049.5L588 1087L661 1162.5C706.5 1217.17 798.2 1327.5 801 1331.5C803.8 1335.5 879.167 1449.83 916.5 1506.5H996L872 1300.5L956.5 1121.5L904 1065.5L822.5 1233.5Z" fill="white"/>
<path d="M416.5 1343L353.5 1506H915.5L833.5 1370.5L593 1094.5L487.5 1206.5L416.5 1343Z" fill="#FF9C07"/>
<path d="M936 1395.5L996.5 1506H1140L1121 1432.5L1096 1349.5L1050.5 1256.5L996.5 1167L959 1125L869.5 1297L936 1395.5Z" fill="#FF9C07"/>
<path d="M416.5 1343L353.5 1506H915.5L833.5 1370.5L593 1094.5L487.5 1206.5L416.5 1343Z" stroke="black"/>
<path d="M936 1395.5L996.5 1506H1140L1121 1432.5L1096 1349.5L1050.5 1256.5L996.5 1167L959 1125L869.5 1297L936 1395.5Z" stroke="black"/>
<path d="M820 1233.5L647.5 1052C665.333 1040.5 715 1016.9 771 1014.5C827 1012.1 880 1045.17 899.5 1062L820 1233.5Z" fill="#AABBFF"/>
<path d="M409.87 1339.62C462.691 1207.98 569.086 1113.24 605.384 1082.33L674 1033.5L749.5 1019.5C699.204 1046.47 656.397 1082.67 620.155 1123.5L641 1146.5L697 1200L769.5 1290.5L871.5 1426.5L914.5 1511H889.5C862.667 1465 786.9 1356.6 730.5 1287C674.1 1217.4 622.589 1160.22 605.384 1140.83C498.462 1271.37 453.613 1440.5 443.159 1511H353.699C350.414 1508.73 357.049 1471.27 409.87 1339.62Z" fill="#001647" fill-opacity="0.2"/>
<path d="M353.5 1519.5C365.5 1454.33 414.5 1313.6 483.5 1219C530.101 1155.11 577.468 1101.29 629.141 1059.66C710.278 994.299 826.037 996.323 905.02 1064.27C1000.08 1146.05 1103.44 1290.29 1142.5 1519.5M1013.5 1319C1024.83 1354.33 1048.1 1443.9 1050.5 1519.5M667 1361.5C661.167 1392.33 650.3 1467.1 653.5 1519.5M592 1093.5C677.5 1177.33 857.5 1384.5 921.5 1516.5M870.895 1302C924.689 1373.66 972.467 1449.01 998.5 1516.5M870.895 1302C892.264 1267.83 939 1185 959 1119M870.895 1302C854.413 1280.04 837.366 1258.43 820.206 1237.5M820.206 1237.5C842.304 1198 890.5 1112.6 898.5 1067M820.206 1237.5C756.694 1160.02 691.644 1091.84 648 1049.77" stroke="black" stroke-width="22" stroke-linecap="round"/>
</g>
<defs>
<clipPath id="clip0_481_188">
<rect width="1500" height="1500" fill="white"/>
</clipPath>
</defs>
      <g clip-path="url(#clip0_497_1194)">
<path d="M379.667 654.812C432.345 471.574 618.472 401.981 699.114 390.653C740.985 382.718 849.655 375.215 949.364 408.675C980 418.956 1049.88 457.388 1091.92 499.818C1144.47 552.856 1272.97 732.052 1185.05 927.725C1097.12 1123.4 758.414 1092.29 612.749 1051.82C464.472 1010.63 314.48 881.563 379.667 654.812Z" fill="#AABBFF"/>
<path d="M449.293 747.204C454.734 531.068 585.306 432.345 649.911 410C432.292 459.565 365.296 655.455 364 747.204C377.99 984.871 584.496 1053.43 681 1058C601.498 1044.46 443.853 963.339 449.293 747.204Z" fill="#001647" fill-opacity="0.2"/>
<path d="M379.667 654.812C432.345 471.574 618.472 401.981 699.114 390.653C740.985 382.718 849.655 375.215 949.364 408.675C980 418.956 1049.88 457.388 1091.92 499.818C1144.47 552.856 1272.97 732.052 1185.05 927.725C1097.12 1123.4 758.414 1092.29 612.749 1051.82C464.472 1010.63 314.48 881.563 379.667 654.812Z" stroke="black" stroke-width="22" stroke-linecap="round"/>
</g>
<defs>
    <clipPath id="prefix__clip0_299_662"><path fill="#fff" d="M0 0h1500v1500H0z"/></clipPath>
</defs>
      <g clip-path="url(#clip0_624_3413)">
<path d="M922.5 969C931.895 969 941.078 966.214 948.89 960.995C956.701 955.775 962.789 948.357 966.384 939.677C969.979 930.998 970.92 921.447 969.087 912.233C967.254 903.019 962.731 894.555 956.088 887.912C949.445 881.269 940.981 876.746 931.767 874.913C922.553 873.08 913.002 874.021 904.323 877.616C895.643 881.211 888.225 887.299 883.005 895.11C877.786 902.922 875 912.105 875 921.5C875 927.738 876.229 933.914 878.616 939.677C881.003 945.44 884.502 950.677 888.912 955.088C893.323 959.498 898.56 962.997 904.323 965.384C910.085 967.771 916.262 969 922.5 969Z" fill="white" stroke="black" stroke-width="22" stroke-miterlimit="10" stroke-linecap="round"/>
<path d="M822 818C849.062 818 871 796.062 871 769C871 741.938 849.062 720 822 720C794.938 720 773 741.938 773 769C773 796.062 794.938 818 822 818Z" fill="white" stroke="black" stroke-width="20" stroke-miterlimit="10"/>
<path d="M1012 818C1039.06 818 1061 796.062 1061 769C1061 741.938 1039.06 720 1012 720C984.938 720 963 741.938 963 769C963 796.062 984.938 818 1012 818Z" fill="white" stroke="black" stroke-width="20" stroke-miterlimit="10"/>
<path d="M822 782C829.18 782 835 776.18 835 769C835 761.82 829.18 756 822 756C814.82 756 809 761.82 809 769C809 776.18 814.82 782 822 782Z" fill="black"/>
<path d="M1012 782C1019.18 782 1025 776.18 1025 769C1025 761.82 1019.18 756 1012 756C1004.82 756 999 761.82 999 769C999 776.18 1004.82 782 1012 782Z" fill="black"/>
</g>
<defs>
<clipPath id="clip0_624_3413">
<rect width="1500" height="1500" fill="white"/>
</clipPath>
</defs>
      <g clip-path="url(#clip0_924_758)">
<path d="M821.495 847C840.486 847.001 858.799 839.939 872.871 827.186C886.943 814.433 895.769 796.902 897.631 778.002C899.493 759.103 894.26 740.186 882.947 724.932C871.635 709.678 855.053 699.176 836.427 695.471C817.801 691.765 798.462 695.12 782.173 704.883C765.883 714.646 753.808 730.119 748.295 748.292C742.781 766.465 744.225 786.039 752.344 803.207C760.464 820.375 774.679 833.909 792.224 841.177C801.504 845.02 811.45 846.999 821.495 847Z" fill="white" fill-opacity="0.5"/>
<path d="M1012.49 852C1031.98 852.001 1050.77 844.477 1065.21 830.891C1079.65 817.304 1088.71 798.627 1090.62 778.493C1092.53 758.358 1087.16 738.205 1075.55 721.954C1063.95 705.702 1046.93 694.515 1027.82 690.567C1008.7 686.619 988.86 690.193 972.145 700.594C955.429 710.995 943.038 727.479 937.381 746.84C931.723 766.201 933.205 787.055 941.536 805.345C949.868 823.635 964.455 838.053 982.459 845.796C991.982 849.891 1002.19 851.999 1012.49 852Z" fill="white" fill-opacity="0.5"/>
<path d="M954.529 715.266C954.529 715.266 954.033 698.956 989.971 694.485L1055.29 830.825C1055.29 830.825 1042.69 845.543 1016.43 844.719L954.529 715.266Z" fill="white" fill-opacity="0.5"/>
<path d="M1002.09 701.909C1002.09 701.909 998.763 704.646 1011.14 696.723L1069.22 815.049C1069.22 815.049 1073 819.935 1062.94 822.012L1002.09 701.909Z" fill="white" fill-opacity="0.5"/>
<path d="M763.529 715.266C763.529 715.266 763.033 698.956 798.971 694.485L864.291 830.825C864.291 830.825 851.694 845.543 825.432 844.719L763.529 715.266Z" fill="white" fill-opacity="0.5"/>
<path d="M811.088 701.909C811.088 701.909 807.763 704.646 820.138 696.723L878.219 815.049C878.219 815.049 881.997 819.935 871.937 822.012L811.088 701.909Z" fill="white" fill-opacity="0.5"/>
<path d="M1012.53 850C1031.16 849.993 1049.2 843.527 1063.59 831.706C1077.99 819.884 1087.84 803.437 1091.46 785.169C1095.09 766.9 1092.26 747.939 1083.48 731.518C1074.69 715.096 1060.48 702.23 1043.27 695.112C1026.06 687.993 1006.91 687.063 989.089 692.479C971.269 697.896 955.878 709.324 945.54 724.816C935.202 740.309 930.556 758.907 932.393 777.441C934.23 795.975 942.437 813.299 955.616 826.46C970.717 841.54 991.189 850.007 1012.53 850V850Z" stroke="black" stroke-width="20" stroke-miterlimit="10"/>
<path d="M821.494 850C841.479 850.001 860.749 842.569 875.557 829.15C890.365 815.73 899.652 797.282 901.612 777.395C903.572 757.507 898.064 737.601 886.16 721.549C874.256 705.497 856.807 694.447 837.207 690.548C817.608 686.648 797.258 690.179 780.117 700.452C762.975 710.725 750.268 727.007 744.467 746.131C738.665 765.254 740.184 785.852 748.729 803.917C757.273 821.983 772.231 836.225 790.694 843.872C800.459 847.917 810.925 849.999 821.494 850Z" stroke="black" stroke-width="20" stroke-miterlimit="10"/>
<path d="M582.499 804.5C582.499 810.023 586.976 814.5 592.499 814.5C598.022 814.5 602.499 810.023 602.499 804.5H582.499ZM622.499 770L622.499 780L622.499 770ZM741.333 760L622.499 760L622.499 780L741.333 780L741.333 760ZM582.499 800V804.5H602.499V800H582.499ZM622.499 760C600.408 760 582.499 777.908 582.499 800H602.499C602.499 788.954 611.453 780 622.499 780L622.499 760Z" fill="black"/>
<path d="M894.386 769.667H939.5" stroke="black" stroke-width="20" stroke-miterlimit="10"/>
</g>
<defs>
<clipPath id="clip0_924_758">
<rect width="1500" height="1500" fill="white"/>
</clipPath>
</defs>
      <g clip-path="url(#clip0_602_2057)">
<path d="M485.677 1069L476 991.814L552.452 973L566 1047.29L485.677 1069Z" fill="#D9D9D9"/>
<path d="M449 673.403L473.817 994L558 970.754L540.482 655L449 673.403Z" fill="#9E6740"/>
<path d="M689.715 313.65C374.516 363.906 350.687 581.458 331 683.196L347.943 689L462.674 664.815L745.386 628.538L968.071 620.798H1187.85L1227.55 620.799C1220.5 601.763 1245.1 604.927 1227.55 585.489C1212.21 568.502 1155.29 529.195 1139.92 509.064C1061.02 359.601 919.607 276.995 689.715 313.65Z" fill="#87C848"/>
<path d="M368.793 546.578L347 611L559.604 563.047L858.896 527.688L1164 538.344L1120.41 476.344C1041.96 470.048 849.114 461.232 705.376 476.344C561.638 491.457 414.478 531.563 368.793 546.578Z" fill="#578926"/>
<path d="M354.805 607.428C476.023 574.142 811.042 510.951 1162.01 534.607M369.332 537.139C486.03 506.785 798.356 445.035 1112.62 468.788M1164.32 534.607C1149.49 523.278 1137.46 508.696 1129.14 491.983C1047.12 326.146 880.881 293.35 720.231 308.202C518.553 326.856 363.721 436.62 349.7 613.269C348.955 623.079 345.867 632.567 340.696 640.933L331.696 655.366C320.498 673.332 336.414 695.934 357.073 691.416L372.823 687.974C651.433 627.078 928.584 618.104 1213.71 624.872C1238.4 625.462 1245.68 597.325 1224.68 580.983L1164.32 534.607Z" stroke="black" stroke-width="22"/>
<path d="M474.799 992.99C461.462 879.626 453.96 744.374 451 677.558C480.474 671.392 511.052 665.894 542.35 661C541.207 760.499 549.767 882.067 558.524 971.177M474.799 992.99C478.105 1021.08 481.709 1047.54 485.603 1070.82C485.705 1071.44 486.331 1071.81 486.918 1071.6C501.057 1066.6 534.737 1055.74 566.107 1048.93C566.614 1048.82 566.952 1048.34 566.888 1047.83C564.513 1028.57 561.565 1002.12 558.524 971.177M474.799 992.99C485.865 988.789 518.103 978.545 558.524 971.177" stroke="black" stroke-width="22"/>
<path d="M702.24 319C559.917 386.786 495.089 582.234 484.586 659.381L360.004 687.948C333.02 701.828 310.946 702.237 366.306 540.272C427.87 360.156 633.405 323.196 702.24 319Z" fill="#001647" fill-opacity="0.2"/>
<path d="M484.607 680.424C485.432 772.726 510.281 990.112 519.973 1058.83L484.101 1069L447.26 680.685L508.339 655.992L488.173 672.845C485.9 674.745 484.581 677.461 484.607 680.424Z" fill="#001647" fill-opacity="0.2"/>
<path d="M1187 656C944.623 649.415 655.21 672.292 547.271 689.884L540 659.381L693.999 635.172L923.288 624.035L1174.88 626.37L1187 656Z" fill="#001647" fill-opacity="0.2"/>
</g>
<defs>
<clipPath id="clip0_602_2057">
<rect width="1500" height="1500" fill="white"/>
</clipPath>
</defs>
      
    </g>
    </svg>