<svg
      xmlns="http://www.w3.org/2000/svg"
      preserveAspectRatio="xMidYMin meet"
      fill="none"
      viewBox="0 0 1500 1500"
    >
      <g>
      <path fill="url(#prefix__paint0_linear_53_28789)" d="M0 0h1500v1500H0z"/><defs><linearGradient id="prefix__paint0_linear_53_28789" x1="1500" y1="1500" x2="0" y2="0" gradientUnits="userSpaceOnUse">
<stop stop-color="#FFD130"/>
<stop offset="1" stop-color="#FFEEDB"/>
</linearGradient></defs>
      <g clip-path="url(#clip0_491_602)">
<path d="M773 1011.5C543.4 1029.9 398.667 1353.5 355 1513H1138.5C1075.7 1127 868.667 1017.83 773 1011.5Z" fill="#4AEEB9"/>
<path d="M409 1362.5L354 1512.5H651.5V1444.5L409 1362.5Z" fill="#AABBFF"/>
<path d="M1039.5 1426.5L1046 1512.5L1142.5 1504L1111 1393L1039.5 1426.5Z" fill="#AABBFF"/>
<path d="M749.5 1019.5C536 1134 457.448 1414.63 443.159 1511H353.699C350.414 1508.73 357.049 1471.27 409.87 1339.62C462.691 1207.98 569.086 1113.24 605.384 1082.33L674 1033.5L749.5 1019.5Z" fill="#001647" fill-opacity="0.2"/>
<path d="M353.5 1519.5C365.5 1454.33 414.5 1313.6 483.5 1219C530.101 1155.11 577.468 1101.29 629.141 1059.66C710.278 994.299 826.037 996.323 905.02 1064.27C1000.08 1146.05 1103.44 1290.29 1142.5 1519.5M1013.5 1319C1024.83 1354.33 1048.1 1443.9 1050.5 1519.5M667 1361.5C661.167 1392.33 650.3 1467.1 653.5 1519.5M408.5 1360.5L651 1446.5M1040.5 1424C1056.33 1421.5 1091.7 1411.6 1106.5 1392" stroke="black" stroke-width="22" stroke-linecap="round"/>
<path d="M867.641 1286.42C866.902 1286.51 866.6 1287.42 867.137 1287.94L889.399 1309.38C889.724 1309.69 889.763 1310.2 889.487 1310.56L845.736 1367.62C845.414 1368.04 844.798 1368.08 844.419 1367.71L798.316 1322.73C797.939 1322.36 797.327 1322.41 797.003 1322.82L732.188 1406.08C731.91 1406.44 731.944 1406.95 732.267 1407.27L756.242 1430.75C756.621 1431.12 757.238 1431.07 757.561 1430.65L800.516 1374.42C800.836 1374 801.447 1373.96 801.828 1374.32L847.917 1418.39C848.295 1418.75 848.9 1418.71 849.223 1418.3L914.727 1334.57C915.038 1334.17 915.618 1334.12 916 1334.45L940.538 1355.72C941.134 1356.24 942.056 1355.77 941.997 1354.98L936.341 1278.82C936.303 1278.32 935.852 1277.94 935.35 1278.01L867.641 1286.42Z" fill="white"/>
</g>
<defs>
<clipPath id="clip0_491_602">
<rect width="1500" height="1500" fill="white"/>
</clipPath>
</defs>
      <g clip-path="url(#clip0_497_1194)">
<path d="M379.667 654.812C432.345 471.574 618.472 401.981 699.114 390.653C740.985 382.718 849.655 375.215 949.364 408.675C980 418.956 1049.88 457.388 1091.92 499.818C1144.47 552.856 1272.97 732.052 1185.05 927.725C1097.12 1123.4 758.414 1092.29 612.749 1051.82C464.472 1010.63 314.48 881.563 379.667 654.812Z" fill="#AABBFF"/>
<path d="M449.293 747.204C454.734 531.068 585.306 432.345 649.911 410C432.292 459.565 365.296 655.455 364 747.204C377.99 984.871 584.496 1053.43 681 1058C601.498 1044.46 443.853 963.339 449.293 747.204Z" fill="#001647" fill-opacity="0.2"/>
<path d="M379.667 654.812C432.345 471.574 618.472 401.981 699.114 390.653C740.985 382.718 849.655 375.215 949.364 408.675C980 418.956 1049.88 457.388 1091.92 499.818C1144.47 552.856 1272.97 732.052 1185.05 927.725C1097.12 1123.4 758.414 1092.29 612.749 1051.82C464.472 1010.63 314.48 881.563 379.667 654.812Z" stroke="black" stroke-width="22" stroke-linecap="round"/>
</g>
<defs>
    <clipPath id="prefix__clip0_299_662"><path fill="#fff" d="M0 0h1500v1500H0z"/></clipPath>
</defs>
      <g clip-path="url(#clip0_624_3324)">
<path d="M792.8 801.54L845.506 748.833" stroke="black" stroke-width="22" stroke-miterlimit="10" stroke-linecap="round"/>
<path d="M792.8 748.833L845.506 801.54" stroke="black" stroke-width="22" stroke-miterlimit="10" stroke-linecap="round"/>
<path d="M984.133 801.54L1036.84 748.833" stroke="black" stroke-width="22" stroke-miterlimit="10" stroke-linecap="round"/>
<path d="M984.133 748.833L1036.84 801.54" stroke="black" stroke-width="22" stroke-miterlimit="10" stroke-linecap="round"/>
<path d="M853.066 922.82C861.226 917.24 873.066 917.24 881.206 922.82L881.5 923.02C885.645 925.854 890.549 927.37 895.57 927.37C900.591 927.37 905.495 925.854 909.64 923.02V923.02C913.785 920.185 918.689 918.669 923.71 918.669C928.731 918.669 933.635 920.185 937.78 923.02L938.506 923.513C942.651 926.347 947.555 927.863 952.576 927.863C957.598 927.863 962.502 926.347 966.646 923.513L967.86 922.686C976.02 917.106 987.86 917.106 996 922.686" stroke="black" stroke-width="22" stroke-miterlimit="10" stroke-linecap="round"/>
</g>
<defs>
<clipPath id="clip0_624_3324">
<rect width="1500" height="1500" fill="white"/>
</clipPath>
</defs>
      <g clip-path="url(#clip0_911_331)">
<ellipse cx="932" cy="915.5" rx="131" ry="69.5" fill="#AABBFF"/>
<path d="M820.569 923.549C820.28 896.513 841.822 874.289 868.854 873.737L973.808 871.592C1001.86 871.018 1024.91 893.608 1024.9 921.668C1024.89 949.203 1002.65 971.563 975.116 971.72L870.142 972.317C843.014 972.471 820.859 950.677 820.569 923.549Z" fill="#D9D7D7"/>
<path d="M823.858 924.756L1021.53 920.376M875.876 968.561C875.328 946.294 874.452 897.05 870.948 878.214M924.061 878.214C925.886 895.188 929.208 937.022 928.989 968.561M975.532 874.428C976.627 898.505 977.175 951.039 978.27 968.561M869.395 972.015L975.985 971.418C1004.17 971.26 1026.67 947.887 1025.77 919.717V919.717C1024.88 892.298 1002.11 870.692 974.681 871.252L868.111 873.43C841.078 873.983 819.535 896.207 819.824 923.245V923.245C820.114 950.372 842.267 972.167 869.395 972.015Z" stroke="black" stroke-width="20"/>
</g>
<defs>
<clipPath id="clip0_911_331">
<rect width="1500" height="1500" fill="white"/>
</clipPath>
</defs>
      <g clip-path="url(#clip0_786_1511)">
<path d="M348 775L369 729L432 708.5L555.5 668.5L699.5 639.5L848 627H1014L1171.5 626L1194 614C1148 466 952.5 317.5 699.5 360.5C497.1 394.9 394.833 548.833 369 621.5C350.167 630 303.6 633.4 262 649C220.4 664.6 192.833 723.333 185 742L214 752L276 760L272 789.5L269.5 844.5L316.5 819.5L348 775Z" fill="#99C4CB"/>
<path d="M740.5 357.5C585.7 413.5 517 606.833 523.5 681L365.5 728L337.5 806.5L276.5 848L267.5 831.5L276.5 757L233 751.5L188.5 742.5L196 721L228.5 675.5L295.5 638.5L371 619.5C458.6 418.7 664.5 358.167 740.5 357.5Z" fill="#001647" fill-opacity="0.2"/>
<path d="M365.499 733C361.229 766.691 346.6 822.9 278.017 846.491C272.108 848.524 266.062 844.256 266.142 838.007C266.414 816.515 271.11 785.909 284.173 755.5M352.69 674C349.439 692.112 348.907 708.667 351.213 722.797C352.132 728.423 358.007 731.46 363.407 729.632C567.243 660.623 776.1 608.066 1183.08 624.375C1190.15 624.658 1195.45 617.788 1192.83 611.211C1146.56 495.051 1004.12 307.96 674.999 368.5C517.477 397.475 410.414 517.784 368.974 619.5M352.69 674C355.747 656.968 361.208 638.561 368.974 619.5M352.69 674C318.787 694.711 297.273 725.007 284.173 755.5M368.974 619.5C275.567 629.083 217.031 666.673 189.87 735.352C187.877 740.391 190.542 746.023 195.709 747.656C215.238 753.828 249.504 761.579 284.173 755.5" stroke="black" stroke-width="22" stroke-linecap="round"/>
</g>
<defs>
<clipPath id="clip0_786_1511">
<rect width="1500" height="1500" fill="white"/>
</clipPath>
</defs>
      
    </g>
    </svg>