<svg
      xmlns="http://www.w3.org/2000/svg"
      preserveAspectRatio="xMidYMin meet"
      fill="none"
      viewBox="0 0 1500 1500"
    >
      <g>
      <path fill="url(#prefix__paint0_linear_53_30459)" d="M0 0h1500v1500H0z"/><defs><linearGradient id="prefix__paint0_linear_53_30459" x1="0" y1="0" x2="1500" y2="1500" gradientUnits="userSpaceOnUse">
<stop stop-color="#FFCB9F"/>
<stop offset="1" stop-color="#FF7F11"/>
</linearGradient></defs>
      <g clip-path="url(#clip0_483_539)">
<path d="M773 1011.5C543.4 1029.9 398.667 1353.5 355 1513H1138.5C1075.7 1127 868.667 1017.83 773 1011.5Z" fill="#53B6F9"/>
<path d="M453.835 1435.59L472.342 1412.37L459.531 1385.55C459.308 1385.07 459.231 1384.54 459.311 1384.01C459.391 1383.49 459.624 1383.01 459.981 1382.62C460.337 1382.23 460.801 1381.95 461.313 1381.82C461.826 1381.7 462.365 1381.73 462.861 1381.91L490.69 1392.33L512.188 1372.14C512.574 1371.78 513.059 1371.54 513.58 1371.46C514.102 1371.37 514.637 1371.44 515.118 1371.66C515.599 1371.88 516.004 1372.24 516.282 1372.69C516.56 1373.14 516.698 1373.66 516.679 1374.19L515.37 1403.59L541.482 1417.75C543.389 1418.78 543.009 1422.06 540.916 1422.65L512.31 1430.55L506.946 1459.49C506.847 1460.01 506.594 1460.49 506.221 1460.87C505.849 1461.25 505.372 1461.5 504.852 1461.61C504.333 1461.71 503.794 1461.66 503.303 1461.46C502.813 1461.26 502.395 1460.91 502.101 1460.47L485.701 1435.96L456.258 1439.85C455.734 1439.91 455.203 1439.82 454.733 1439.58C454.262 1439.34 453.873 1438.97 453.614 1438.51C453.355 1438.05 453.238 1437.53 453.278 1437C453.317 1436.47 453.512 1435.97 453.837 1435.55L453.835 1435.59Z" fill="white"/>
<path d="M594.58 1160.2L613.817 1139.8L603.606 1121.28C603.429 1120.95 603.395 1120.55 603.509 1120.14C603.623 1119.73 603.879 1119.33 604.245 1118.98C604.611 1118.63 605.071 1118.35 605.567 1118.18C606.062 1118.01 606.571 1117.95 607.029 1118.02L632.673 1121.85L654.528 1103.33C654.921 1103 655.398 1102.74 655.899 1102.6C656.4 1102.46 656.902 1102.44 657.342 1102.53C657.783 1102.63 658.141 1102.84 658.372 1103.14C658.603 1103.44 658.697 1103.82 658.641 1104.23L655.271 1126.8L679.016 1133.73C680.75 1134.24 680.152 1136.79 678.124 1137.55L650.416 1147.76L643.233 1170.58C643.101 1170.99 642.827 1171.39 642.446 1171.73C642.065 1172.07 641.594 1172.34 641.093 1172.5C640.593 1172.65 640.085 1172.69 639.635 1172.61C639.185 1172.53 638.812 1172.33 638.565 1172.04L624.782 1155.79L596.57 1163.09C596.069 1163.21 595.572 1163.22 595.143 1163.1C594.714 1162.99 594.372 1162.77 594.16 1162.45C593.947 1162.14 593.874 1161.76 593.95 1161.35C594.026 1160.95 594.247 1160.54 594.585 1160.17L594.58 1160.2Z" fill="white"/>
<path d="M749.5 1019.5C536 1134 457.448 1414.63 443.159 1511H353.699C350.414 1508.73 357.049 1471.27 409.87 1339.62C462.691 1207.98 569.086 1113.24 605.384 1082.33L674 1033.5L749.5 1019.5Z" fill="#001647" fill-opacity="0.2"/>
<path d="M940.224 1185.75L950.468 1165.46L936.764 1140.6C936.523 1140.15 936.383 1139.67 936.363 1139.2C936.342 1138.73 936.441 1138.29 936.647 1137.96C936.853 1137.62 937.157 1137.39 937.521 1137.29C937.884 1137.2 938.291 1137.25 938.69 1137.43L961.085 1148.06L974.032 1130.66C974.265 1130.35 974.591 1130.16 974.967 1130.1C975.344 1130.05 975.754 1130.13 976.147 1130.35C976.54 1130.57 976.898 1130.91 977.175 1131.33C977.452 1131.75 977.636 1132.23 977.703 1132.71L981.259 1159.32L1002.95 1173.27C1004.53 1174.29 1004.75 1177.25 1003.28 1177.69L983.129 1183.65L983.585 1209.67C983.591 1210.14 983.476 1210.56 983.255 1210.89C983.035 1211.21 982.719 1211.43 982.347 1211.5C981.975 1211.57 981.564 1211.5 981.167 1211.3C980.769 1211.09 980.404 1210.76 980.116 1210.35L964.085 1187.43L942.691 1189.71C942.309 1189.75 941.898 1189.64 941.51 1189.4C941.122 1189.17 940.773 1188.81 940.509 1188.38C940.245 1187.96 940.076 1187.47 940.025 1187C939.973 1186.52 940.041 1186.07 940.22 1185.71L940.224 1185.75Z" fill="white"/>
<path d="M353.5 1519.5C365.5 1454.33 414.5 1313.6 483.5 1219C530.101 1155.11 577.468 1101.29 629.141 1059.66C710.278 994.299 826.037 996.323 905.02 1064.27C1000.08 1146.05 1103.44 1290.29 1142.5 1519.5M1013.5 1319C1024.83 1354.33 1048.1 1443.9 1050.5 1519.5M667 1361.5C661.167 1392.33 650.3 1467.1 653.5 1519.5" stroke="black" stroke-width="22" stroke-linecap="round"/>
<path d="M939.372 1459.98L925.446 1433.75L895.742 1434.81C895.215 1434.82 894.695 1434.68 894.248 1434.4C893.801 1434.12 893.448 1433.71 893.232 1433.23C893.017 1432.74 892.949 1432.21 893.038 1431.69C893.127 1431.17 893.367 1430.69 893.73 1430.3L914.378 1408.93L904.433 1381.17C904.256 1380.67 904.231 1380.13 904.361 1379.62C904.491 1379.11 904.77 1378.65 905.163 1378.29C905.556 1377.94 906.044 1377.71 906.567 1377.63C907.09 1377.56 907.624 1377.64 908.101 1377.87L934.546 1390.79L957.936 1372.48C959.646 1371.14 962.504 1372.8 962.21 1374.95L958.052 1404.34L982.458 1420.79C982.896 1421.09 983.234 1421.51 983.431 1422.01C983.628 1422.5 983.674 1423.04 983.564 1423.56C983.453 1424.07 983.19 1424.55 982.81 1424.92C982.429 1425.29 981.947 1425.53 981.425 1425.63L952.407 1430.9L944.242 1459.45C944.091 1459.96 943.793 1460.41 943.386 1460.74C942.98 1461.08 942.483 1461.29 941.958 1461.34C941.434 1461.4 940.905 1461.29 940.438 1461.05C939.971 1460.8 939.588 1460.42 939.336 1459.96L939.372 1459.98Z" fill="white"/>
<path d="M781.868 1306.32L777.304 1276.97L748.893 1268.24C748.39 1268.08 747.945 1267.77 747.615 1267.36C747.285 1266.95 747.085 1266.45 747.039 1265.92C746.994 1265.4 747.105 1264.87 747.36 1264.41C747.614 1263.94 748 1263.57 748.468 1263.32L774.978 1249.9L774.676 1220.41C774.673 1219.88 774.826 1219.36 775.116 1218.92C775.407 1218.48 775.822 1218.14 776.309 1217.93C776.796 1217.72 777.333 1217.67 777.852 1217.77C778.371 1217.87 778.849 1218.12 779.225 1218.49L799.977 1239.36L828.074 1229.73C830.127 1229.03 832.285 1231.53 831.301 1233.47L817.746 1259.87L835.414 1283.41C835.73 1283.83 835.912 1284.34 835.936 1284.87C835.961 1285.4 835.828 1285.93 835.553 1286.38C835.279 1286.83 834.876 1287.2 834.395 1287.42C833.914 1287.64 833.378 1287.72 832.854 1287.64L803.711 1283.11L786.641 1307.41C786.333 1307.84 785.904 1308.17 785.41 1308.35C784.916 1308.54 784.378 1308.57 783.865 1308.45C783.351 1308.33 782.885 1308.06 782.524 1307.68C782.164 1307.29 781.926 1306.81 781.84 1306.29L781.868 1306.32Z" fill="white"/>
<path d="M704.849 1508.19L710.763 1480.06L689.852 1466.16C689.483 1465.91 689.211 1465.54 689.072 1465.09C688.932 1464.64 688.93 1464.13 689.067 1463.64C689.203 1463.14 689.472 1462.67 689.838 1462.3C690.205 1461.92 690.653 1461.65 691.127 1461.52L717.797 1454.49L727.33 1427.09C727.502 1426.6 727.803 1426.16 728.193 1425.81C728.583 1425.46 729.045 1425.22 729.521 1425.13C729.997 1425.04 730.466 1425.1 730.868 1425.29C731.27 1425.49 731.587 1425.82 731.778 1426.24L742.243 1449.83L768.985 1446.64C770.938 1446.41 771.916 1449.16 770.448 1450.76L750.329 1472.46L757.322 1497.89C757.445 1498.35 757.428 1498.86 757.273 1499.36C757.118 1499.85 756.832 1500.31 756.452 1500.68C756.071 1501.04 755.613 1501.29 755.136 1501.4C754.659 1501.51 754.185 1501.47 753.773 1501.29L730.853 1491.14L708.484 1510.18C708.083 1510.51 707.616 1510.73 707.141 1510.8C706.665 1510.87 706.203 1510.79 705.813 1510.57C705.423 1510.36 705.121 1510.01 704.947 1509.58C704.773 1509.15 704.734 1508.65 704.835 1508.15L704.849 1508.19Z" fill="white"/>
</g>
<defs>
<clipPath id="clip0_483_539">
<rect width="1500" height="1500" fill="white"/>
</clipPath>
</defs>
      <g clip-path="url(#clip0_497_1194)">
<path d="M379.667 654.812C432.345 471.574 618.472 401.981 699.114 390.653C740.985 382.718 849.655 375.215 949.364 408.675C980 418.956 1049.88 457.388 1091.92 499.818C1144.47 552.856 1272.97 732.052 1185.05 927.725C1097.12 1123.4 758.414 1092.29 612.749 1051.82C464.472 1010.63 314.48 881.563 379.667 654.812Z" fill="#AABBFF"/>
<path d="M449.293 747.204C454.734 531.068 585.306 432.345 649.911 410C432.292 459.565 365.296 655.455 364 747.204C377.99 984.871 584.496 1053.43 681 1058C601.498 1044.46 443.853 963.339 449.293 747.204Z" fill="#001647" fill-opacity="0.2"/>
<path d="M379.667 654.812C432.345 471.574 618.472 401.981 699.114 390.653C740.985 382.718 849.655 375.215 949.364 408.675C980 418.956 1049.88 457.388 1091.92 499.818C1144.47 552.856 1272.97 732.052 1185.05 927.725C1097.12 1123.4 758.414 1092.29 612.749 1051.82C464.472 1010.63 314.48 881.563 379.667 654.812Z" stroke="black" stroke-width="22" stroke-linecap="round"/>
</g>
<defs>
    <clipPath id="prefix__clip0_299_662"><path fill="#fff" d="M0 0h1500v1500H0z"/></clipPath>
</defs>
      <g clip-path="url(#clip0_624_3562)">
<path d="M799.421 789.214L858.141 778.547C859.189 778.352 860.151 777.837 860.895 777.073C861.639 776.309 862.128 775.334 862.294 774.28C862.455 773.224 862.285 772.143 861.808 771.187C861.331 770.234 860.569 769.453 859.628 768.954L804.701 739.807" stroke="black" stroke-width="22" stroke-miterlimit="10" stroke-linecap="round"/>
<path d="M1037.67 789.214L979.001 778.547C977.951 778.355 976.987 777.841 976.243 777.076C975.499 776.312 975.011 775.335 974.847 774.28C974.687 773.227 974.854 772.149 975.327 771.194C975.804 770.237 976.569 769.453 977.514 768.954L1032.44 739.807" stroke="black" stroke-width="22" stroke-miterlimit="10" stroke-linecap="round"/>
<path d="M992 915.801C992 944.083 960.211 967 921 967C881.789 967 850 944.083 850 915.801C850.013 910.144 851.278 904.561 853.703 899.453C858.875 888.383 870.646 884.1 880.667 889.061C892.124 894.775 906.017 898.12 921.008 898.12C935.999 898.12 949.884 894.775 961.349 889.061C971.354 884.068 983.133 888.383 988.313 899.453C990.733 904.562 991.993 910.145 992 915.801Z" fill="white" stroke="black" stroke-width="22" stroke-miterlimit="10"/>
</g>
<defs>
<clipPath id="clip0_624_3562">
<rect width="1500" height="1500" fill="white"/>
</clipPath>
</defs>
      <g clip-path="url(#clip0_877_2891)">
<path opacity="0.5" d="M720 750.438C720 722.417 743.895 701.078 770.199 705.609C796.226 710.091 822.774 710.091 848.801 705.609C875.105 701.078 899 722.417 899 750.438V774.93C899 825.227 860.214 866 812.37 866H806.63C758.786 866 720 825.227 720 774.93V750.438Z" fill="#FF6247"/>
<path opacity="0.5" d="M937 750.438C937 722.417 960.762 701.078 986.919 705.609C1012.8 710.091 1039.2 710.091 1065.08 705.609C1091.24 701.078 1115 722.417 1115 750.438V774.93C1115 825.227 1076.43 866 1028.85 866H1023.15C975.569 866 937 825.227 937 774.93V750.438Z" fill="#FF6247"/>
<path d="M555 792C555 797.523 559.477 802 565 802C570.523 802 575 797.523 575 792H555ZM720 747L595 747L595 767L720 767L720 747ZM555 787V792H575V787H555ZM595 747C572.909 747 555 764.909 555 787H575C575 775.955 583.954 767 595 767L595 747Z" fill="black"/>
<path d="M956.85 721.662C956.85 721.662 956.298 703.515 996.284 698.54L1068.96 850.236C1068.96 850.236 1054.94 866.613 1025.72 865.696L956.85 721.662Z" fill="white" fill-opacity="0.3"/>
<path d="M740.63 724.24C740.63 724.24 740.078 706.416 780.064 701.53L852.741 850.523C852.741 850.523 838.725 866.607 809.505 865.706L740.63 724.24Z" fill="white" fill-opacity="0.3"/>
<path d="M1009.77 706.801C1009.77 706.801 1006.07 709.846 1019.83 701.031L1084.46 832.685C1084.46 832.685 1088.66 838.122 1077.47 840.432L1009.77 706.801Z" fill="white" fill-opacity="0.3"/>
<path d="M793.546 709.643C793.546 709.643 789.847 712.634 803.615 703.975L868.238 833.283C868.238 833.283 872.442 838.623 861.249 840.892L793.546 709.643Z" fill="white" fill-opacity="0.3"/>
<path d="M937.905 788.269C944.913 829.009 980.328 860 1022.96 860H1028.68C1076.35 860 1115 821.253 1115 773.455V744.18C1115 717.552 1091.19 699.273 1064.98 701.579C1039.05 702.839 1012.6 702.839 986.664 701.579C962.761 699.652 940.855 714.173 937.184 737.31C936.83 739.543 936.645 741.837 936.645 744.18V773.455C936.645 778.506 937.077 783.455 937.905 788.269ZM937.905 788.269L937.119 787.669C926.202 779.335 910.993 779.583 900.355 788.269V788.269M902 751H933.5M772.018 701.579C797.951 702.839 824.403 702.839 850.336 701.579C876.545 699.273 900.355 717.552 900.355 744.18V773.455C900.355 821.253 861.709 860 814.037 860H808.318C760.646 860 722 821.253 722 773.455V744.18C722 717.552 745.809 699.273 772.018 701.579Z" stroke="black" stroke-width="20" stroke-linecap="round"/>
</g>
<defs>
<clipPath id="clip0_877_2891">
<rect width="1500" height="1500" fill="white"/>
</clipPath>
</defs>
      <g clip-path="url(#clip0_791_1765)">
<path d="M299 577C191.4 605 167.834 632.667 169.5 643L261.5 663L497.5 678.5L573 622.5L564 678.5L763.5 675.5L971.5 667.5C1106 655.333 1374.7 622.3 1373.5 587.5C1372.3 552.7 1196 519 1108 506.5C1103.5 497.333 1091.4 468.3 1079 425.5C1066.6 382.7 1052.17 377.333 1046.5 380L1025.5 311.5L991 272L968 207.5L917.5 133.5C887.333 109.167 807.2 57.9001 728 47.5001C629 34.5001 478.5 79.0001 438.5 140.5C406.5 189.7 415.833 219.667 424.5 228.5L474 214.5L552.5 195.5L535.5 245.5L547.5 294L524 316L509 390.5L478.5 405.5L440.5 540C438.167 540.667 406.6 549 299 577Z" fill="#53B6F9"/>
<path d="M482 401L440 541L623.5 517L893 509L1109 505.5L1063.5 394L1040.5 374L838 360.5L636 374L482 401Z" fill="#FFBF44"/>
<path d="M581 528.5C504 568 444.5 604 395.5 670.5H348.5L176 650.5L173 621L303.5 578L442.5 540.5L480 409L504 402.5L515 356.5L538 304.5L590.775 261.565C594.241 258.744 599.322 259.194 602.24 262.578C605.856 266.773 605.832 275.172 602.106 279.269C598.668 283.05 593.707 288.124 586.5 294.5C570.403 308.739 565.23 333.519 563.032 356.5C561.679 370.639 561.452 384.097 560.5 394L596.5 381C576.924 426.477 567.457 471.784 563.619 501C644.746 487.833 865.4 466.2 1099 485L1105 510.5L882.5 501L624.5 524L561.768 519C561.644 520.827 561.556 522.497 561.5 524L581 528.5Z" fill="#001647" fill-opacity="0.2"/>
<path d="M593.314 179.95C565.986 221.93 569.515 252.972 574.5 264.5L548 285.5L541 264.5L548 217.5L576.355 168.832C579.179 163.984 585.435 162.405 590.222 165.33C595.217 168.383 596.508 175.044 593.314 179.95Z" fill="#001647" fill-opacity="0.2"/>
<path d="M429 222.5C420.6 195.3 517.167 174.167 566.5 167L548 194.5L472 211.5C461.167 226.5 437.4 249.7 429 222.5Z" fill="#001647" fill-opacity="0.2"/>
<path d="M620.377 337.183L630.63 305.444L606.546 282.33C606.122 281.915 605.83 281.384 605.707 280.804C605.585 280.224 605.637 279.621 605.857 279.07C606.077 278.519 606.455 278.046 606.944 277.711C607.433 277.375 608.011 277.192 608.604 277.184L641.977 277.116L656.577 247.387C656.84 246.855 657.255 246.413 657.77 246.117C658.285 245.821 658.875 245.685 659.468 245.725C660.06 245.765 660.627 245.98 661.097 246.342C661.567 246.704 661.919 247.198 662.109 247.76L672.376 279.18L705.425 283.718C707.838 284.051 708.739 287.65 706.772 289.099L679.836 308.726L685.659 341.267C685.761 341.854 685.685 342.457 685.442 343.001C685.2 343.545 684.801 344.004 684.296 344.32C683.792 344.636 683.204 344.795 682.609 344.777C682.014 344.758 681.438 344.563 680.954 344.216L654.012 324.948L624.609 340.698C624.083 340.971 623.489 341.082 622.9 341.018C622.311 340.953 621.754 340.716 621.3 340.335C620.846 339.955 620.514 339.448 620.348 338.88C620.181 338.311 620.186 337.706 620.363 337.14L620.377 337.183Z" fill="white"/>
<path d="M1139.12 604.324L1121.68 585.562L1088.53 589.446C1087.95 589.511 1087.35 589.455 1086.83 589.284C1086.31 589.114 1085.89 588.837 1085.61 588.488C1085.34 588.139 1085.23 587.733 1085.29 587.323C1085.35 586.913 1085.59 586.517 1085.96 586.184L1107.54 567.594L1094.44 547.241C1094.2 546.876 1094.14 546.463 1094.25 546.055C1094.36 545.647 1094.64 545.263 1095.05 544.95C1095.46 544.637 1095.99 544.41 1096.57 544.297C1097.15 544.185 1097.76 544.192 1098.31 544.319L1128.8 551.537L1153.66 535.023C1155.47 533.818 1158.79 534.798 1158.61 536.487L1156.05 559.545L1184.51 569.696C1185.03 569.881 1185.43 570.172 1185.69 570.53C1185.95 570.889 1186.04 571.3 1185.95 571.711C1185.86 572.121 1185.6 572.513 1185.2 572.837C1184.8 573.16 1184.28 573.4 1183.7 573.526L1151.63 580.583L1144.53 603.417C1144.39 603.821 1144.09 604.198 1143.66 604.499C1143.23 604.8 1142.69 605.012 1142.11 605.108C1141.52 605.204 1140.92 605.18 1140.39 605.039C1139.85 604.897 1139.39 604.645 1139.08 604.314L1139.12 604.324Z" fill="white"/>
<path d="M380.906 620.312L402.217 602.851L387.173 583.464C386.911 583.118 386.819 582.728 386.908 582.344C386.997 581.959 387.264 581.597 387.675 581.303C388.085 581.009 388.622 580.796 389.216 580.692C389.809 580.588 390.434 580.597 391.012 580.717L423.365 587.731L448.166 572.432C448.612 572.159 449.173 571.973 449.777 571.899C450.382 571.825 451.003 571.865 451.562 572.015C452.122 572.165 452.594 572.418 452.919 572.742C453.245 573.065 453.409 573.445 453.391 573.833L452.072 595.435L482.46 605.228C484.679 605.945 484.26 608.361 481.836 608.841L448.706 615.284L442.681 636.64C442.569 637.024 442.279 637.382 441.849 637.666C441.419 637.951 440.868 638.151 440.266 638.24C439.664 638.329 439.038 638.303 438.468 638.166C437.898 638.028 437.41 637.786 437.066 637.469L417.874 619.856L383.745 623.381C383.138 623.438 382.522 623.381 381.975 623.217C381.427 623.053 380.973 622.788 380.67 622.457C380.366 622.125 380.227 621.742 380.269 621.355C380.312 620.968 380.534 620.595 380.908 620.283L380.906 620.312Z" fill="white"/>
<path d="M688.207 622.41L685.674 598.316L654.74 592.63C654.193 592.526 653.723 592.297 653.391 591.973C653.059 591.649 652.879 591.245 652.874 590.811C652.869 590.377 653.039 589.933 653.363 589.535C653.687 589.137 654.15 588.804 654.694 588.576L685.437 575.987L687.67 551.542C687.712 551.104 687.928 550.666 688.291 550.284C688.653 549.902 689.146 549.593 689.707 549.395C690.269 549.198 690.872 549.122 691.443 549.176C692.013 549.231 692.524 549.413 692.911 549.701L714.243 565.877L746.426 556.347C748.777 555.652 750.967 557.609 749.7 559.272L732.279 581.913L749.937 600.474C750.252 600.81 750.411 601.223 750.392 601.661C750.374 602.099 750.179 602.542 749.833 602.933C749.488 603.325 749.006 603.647 748.451 603.858C747.895 604.07 747.29 604.162 746.713 604.123L714.596 601.964L693.437 623.06C693.055 623.432 692.549 623.726 691.982 623.907C691.414 624.087 690.811 624.145 690.249 624.073C689.686 624.001 689.19 623.802 688.821 623.502C688.453 623.202 688.229 622.814 688.179 622.387L688.207 622.41Z" fill="white"/>
<path d="M888.545 634.543L908.277 616.51L891.631 594.624C891.34 594.234 891.215 593.804 891.27 593.388C891.326 592.972 891.561 592.59 891.945 592.289C892.329 591.988 892.845 591.781 893.428 591.696C894.01 591.611 894.633 591.651 895.219 591.81L928.047 601.025L951.441 585.52C951.861 585.243 952.404 585.068 953 585.016C953.595 584.964 954.218 585.038 954.788 585.229C955.358 585.42 955.85 585.718 956.202 586.087C956.554 586.456 956.75 586.878 956.765 587.301L957.302 610.817L989.409 618.888C991.68 619.777 991.47 622.394 989.097 622.801L955.65 632.322L951.478 655.342C951.399 655.756 951.142 656.133 950.738 656.423C950.334 656.713 949.802 656.904 949.21 656.972C948.618 657.04 947.992 656.982 947.413 656.805C946.833 656.627 946.326 656.339 945.956 655.976L925.33 635.827L891.637 638.03C891.037 638.063 890.418 637.972 889.859 637.766C889.299 637.56 888.824 637.249 888.494 636.873C888.163 636.497 887.991 636.071 888 635.651C888.009 635.231 888.199 634.834 888.545 634.511L888.545 634.543Z" fill="white"/>
<path d="M859.443 237.838L843.54 208.519L810.192 210.007C809.599 210.029 809.013 209.874 808.509 209.562C808.004 209.251 807.603 208.796 807.357 208.257C807.11 207.718 807.029 207.118 807.123 206.532C807.217 205.947 807.483 205.402 807.886 204.968L830.861 180.761L819.412 149.682C819.209 149.125 819.175 148.519 819.316 147.943C819.457 147.366 819.766 146.844 820.203 146.443C820.641 146.042 821.187 145.78 821.774 145.689C822.361 145.599 822.961 145.685 823.499 145.936L853.328 160.179L879.412 139.385C881.319 137.868 884.546 139.699 884.237 142.122L879.863 175.163L907.437 193.397C907.932 193.728 908.317 194.199 908.543 194.75C908.769 195.301 908.826 195.906 908.707 196.489C908.588 197.073 908.298 197.608 907.873 198.026C907.449 198.444 906.911 198.726 906.326 198.837L873.79 205.048L864.907 237.199C864.742 237.768 864.412 238.275 863.959 238.657C863.506 239.039 862.95 239.278 862.361 239.344C861.773 239.41 861.177 239.301 860.651 239.029C860.124 238.758 859.69 238.336 859.403 237.818L859.443 237.838Z" fill="white"/>
<path d="M923.045 372.01L918.852 367.352L891.221 358.589C890.732 358.429 890.301 358.127 889.983 357.722C889.664 357.317 889.473 356.827 889.434 356.314C889.394 355.801 889.507 355.287 889.759 354.838C890.011 354.389 890.391 354.024 890.85 353.791L916.82 340.931L916.785 312.17C916.786 311.655 916.939 311.151 917.227 310.723C917.514 310.295 917.922 309.962 918.398 309.766C918.875 309.57 919.399 309.52 919.905 309.622C920.41 309.724 920.873 309.973 921.237 310.338L941.292 330.873L968.777 321.725C970.785 321.059 972.868 323.517 971.892 325.4L958.441 351.026L975.465 370.139C975.769 370.558 975.942 371.057 975.962 371.573C975.981 372.09 975.847 372.601 975.575 373.041C975.303 373.481 974.907 373.83 974.436 374.044C973.965 374.258 973.442 374.327 972.932 374.242L944.55 373.572L927.691 373.124C927.386 373.538 926.965 373.853 926.482 374.029C925.998 374.205 925.473 374.233 924.974 374.111C924.474 373.989 924.021 373.722 923.673 373.343C923.325 372.964 923.097 372.49 923.018 371.982L923.045 372.01Z" fill="white"/>
<path d="M643.004 157.825L638.026 129.051L606.085 120.363C605.519 120.204 605.02 119.903 604.65 119.497C604.281 119.092 604.058 118.6 604.01 118.085C603.962 117.569 604.09 117.053 604.379 116.6C604.668 116.148 605.104 115.781 605.633 115.544L635.553 102.516L635.375 73.6229C635.374 73.1051 635.549 72.5986 635.879 72.1674C636.208 71.7363 636.677 71.4 637.227 71.201C637.776 71.002 638.381 70.9493 638.965 71.0495C639.549 71.1497 640.085 71.3984 640.506 71.7641L663.758 92.3106L695.446 83.0059C697.761 82.328 700.177 84.7888 699.059 86.6844L683.653 112.485L703.417 135.635C703.77 136.053 703.972 136.554 703.997 137.073C704.022 137.592 703.869 138.106 703.558 138.549C703.246 138.992 702.79 139.344 702.248 139.561C701.706 139.778 701.101 139.85 700.512 139.767L667.724 135.193L648.373 158.925C648.023 159.342 647.538 159.66 646.981 159.839C646.424 160.017 645.818 160.048 645.24 159.928C644.663 159.807 644.139 159.54 643.736 159.161C643.332 158.782 643.067 158.307 642.973 157.797L643.004 157.825Z" fill="white"/>
<path d="M436 543C374 554.066 243.717 583.683 178.202 623.338C164.903 631.387 169.893 648.694 185.249 651.111C260.064 662.889 368.269 672.307 493.317 676.356C496.275 676.452 499.123 675.214 501.168 673.074C516.893 656.617 539.363 641.229 578.399 618.904C580.054 617.957 581.976 619.642 581.244 621.403C574.552 637.511 565.609 659.776 561.108 674.239C560.523 676.119 561.905 677.995 563.873 678.025C818.108 681.863 1124.58 663.282 1361.47 600.115C1379.48 595.312 1380.38 572.051 1362.69 566.179C1299.65 545.263 1202.31 518.91 1111 508.5M436 543L473.39 423.262C476.283 414 483.458 406.642 492.792 403.993C496.136 403.043 499.54 402.121 503 401.226M436 543C539.167 524.667 818.6 492.1 1111 508.5M1111 508.5L1064.92 393.067C1061.59 384.724 1053.63 380.554 1045 378.046V378.046M503 401.226C505.922 386.954 513.269 352.099 522.813 325.373C527.224 313.019 535.946 302.895 546.421 295V295M503 401.226C654.609 361.985 960.5 356 1045 378.046M597.5 256.5L546.421 295M546.421 295C545.392 288.83 543.776 278.355 542.197 266.561C538.797 241.156 544.691 215.595 557.25 193.25V193.25M576.5 159L557.25 193.25M557.25 193.25C532.945 196.722 484.281 207.558 448.059 226.61C435.109 233.421 418.133 227.525 418.855 212.91C420.784 173.832 442.766 117.371 519.5 73.9997C646 2.49975 944 41.5002 992 276.254M978 268C1000.33 278.364 1045 314.884 1045 378.046" stroke="black" stroke-width="22" stroke-linecap="round"/>
</g>
<defs>
<clipPath id="clip0_791_1765">
<rect width="1500" height="1500" fill="white"/>
</clipPath>
</defs>
      
    </g>
    </svg>