<svg
      xmlns="http://www.w3.org/2000/svg"
      preserveAspectRatio="xMidYMin meet"
      fill="none"
      viewBox="0 0 1500 1500"
    >
      <g>
      <path fill="url(#prefix__a1)" d="M0 0h1500v1500H0z"/><defs><linearGradient id="prefix__a1" x1="1500" y1="1500" x2="0" y2="0" gradientUnits="userSpaceOnUse">
<stop stop-color="#1555D1"/>
<stop offset="1" stop-color="#70E5FF"/>
</linearGradient></defs>
      <g clip-path="url(#clip0_491_637)">
<path d="M216 1200.5C231.5 1183.5 291 1148.9 405 1146.5C512.257 1144.24 544.125 1139.15 547.658 1136.47L548 1136C547.99 1136.15 547.88 1136.31 547.658 1136.47L465.5 1250.5L627.5 1261.5C689.833 1263.83 815.9 1268.6 821.5 1269C827.1 1269.4 974.5 1256.83 1047.5 1250.5L1003 1167.5L983.5 1146.5H1058L1180.5 1157L1263 1175.5L1287.5 1191L1299 1220.5V1250.5L1280 1282.5L1267 1297.5L1224 1512H306L258 1297.5L221 1269L216 1200.5Z" fill="#9E6740"/>
<path d="M538 1144L461 1250C404.265 1250 296.238 1229.08 237.86 1216.13L297.5 1238.5L491.5 1256.5L531 1260.5C527.667 1278 523 1318.6 531 1341C623.5 1347 826.1 1357.2 896.5 1350V1359C870.833 1371.5 763.2 1391.1 538 1369.5L558 1506.5H308.5L260 1301.5L224 1272L213.5 1207L222.608 1210.42L213.5 1193.5L260 1170L404 1151L538 1144Z" fill="#001647" fill-opacity="0.2"/>
<path d="M1049.5 1250L984.5 1144H1095L1278.5 1178.5L1295 1199.5L1207.5 1233L1049.5 1250Z" fill="#001647" fill-opacity="0.2"/>
<path d="M754.5 1010.5C640.5 1013.3 508 1174 456 1254C517.833 1254 668.8 1256.2 778 1265C887.2 1273.8 1004.17 1256 1049 1246C995 1161 897 1007 754.5 1010.5Z" fill="#AABBFF"/>
<path d="M465.191 1247C471.745 1236.61 476.52 1228.57 483.5 1219C530.102 1155.11 577.468 1101.29 629.142 1059.66C710.278 994.299 826.063 996.338 905.043 1064.29C954.742 1107.05 1006.7 1166.88 1050.56 1247M1296 1196C1296 1229.69 1045.8 1266 749.5 1266C455.163 1266 216.186 1230.17 213.032 1196.67M1296 1196C1297.74 1210.27 1297.34 1226 1296.19 1240.68C1293.99 1268.76 1273.16 1291.74 1245.55 1297.28C1229.5 1300.5 1211.77 1303.96 1194.5 1307.71M1296 1196C1296 1171.59 1164.61 1150.52 979.5 1140.77M213.032 1196.67C213.011 1196.45 213 1196.22 213 1196M213.032 1196.67C213.021 1196.44 213.01 1196.22 213 1196M213.032 1196.67C213.709 1210.75 215.758 1235.63 219.637 1257.74C223.282 1278.51 239.8 1293.46 260.327 1298.3C286.744 1304.54 321.455 1311.67 363 1318.67M213 1196C213 1170.52 350.375 1148.69 545.5 1139.56M254 1303L313.5 1520.5M1270.5 1287L1221 1520.5M363 1318.67L416 1520.5M363 1318.67C401.252 1325.11 445.298 1331.45 494 1336.86M494 1336.86L528 1520.5M494 1336.86C529.801 1340.85 568.119 1344.34 608.5 1347.02M608.5 1347.02L628.5 1520.5M608.5 1347.02C647.081 1349.58 687.546 1351.4 729.5 1352.2M729.5 1352.2C736.13 1352.32 742.797 1352.43 749.5 1352.5C786.752 1352.92 823.013 1352.23 858 1350.69M729.5 1352.2L737.5 1520.5M858 1350.69L856 1520.5M858 1350.69C899.261 1348.87 938.749 1345.86 976 1342.06M976 1342.06L962.5 1520.5M976 1342.06C1020.65 1337.51 1062.08 1331.83 1099.5 1325.71M1099.5 1325.71L1066 1520.5M1099.5 1325.71C1135.01 1319.91 1166.91 1313.71 1194.5 1307.71M1194.5 1307.71L1151 1520.5M283 1392.5C364.333 1416.33 579.6 1452 790 1452C1000.4 1452 1182.67 1416.33 1247.5 1392.5" stroke="black" stroke-width="22" stroke-linecap="round"/>
</g>
<defs>
<clipPath id="clip0_491_637">
<rect width="1500" height="1500" fill="white"/>
</clipPath>
</defs>
      <g clip-path="url(#clip0_497_1194)">
<path d="M379.667 654.812C432.345 471.574 618.472 401.981 699.114 390.653C740.985 382.718 849.655 375.215 949.364 408.675C980 418.956 1049.88 457.388 1091.92 499.818C1144.47 552.856 1272.97 732.052 1185.05 927.725C1097.12 1123.4 758.414 1092.29 612.749 1051.82C464.472 1010.63 314.48 881.563 379.667 654.812Z" fill="#AABBFF"/>
<path d="M449.293 747.204C454.734 531.068 585.306 432.345 649.911 410C432.292 459.565 365.296 655.455 364 747.204C377.99 984.871 584.496 1053.43 681 1058C601.498 1044.46 443.853 963.339 449.293 747.204Z" fill="#001647" fill-opacity="0.2"/>
<path d="M379.667 654.812C432.345 471.574 618.472 401.981 699.114 390.653C740.985 382.718 849.655 375.215 949.364 408.675C980 418.956 1049.88 457.388 1091.92 499.818C1144.47 552.856 1272.97 732.052 1185.05 927.725C1097.12 1123.4 758.414 1092.29 612.749 1051.82C464.472 1010.63 314.48 881.563 379.667 654.812Z" stroke="black" stroke-width="22" stroke-linecap="round"/>
</g>
<defs>
    <clipPath id="prefix__clip0_299_662"><path fill="#fff" d="M0 0h1500v1500H0z"/></clipPath>
</defs>
      <g clip-path="url(#clip0_624_3550)">
<path d="M860.753 778.254C855.989 772.147 849.895 767.208 842.935 763.81C835.975 760.413 828.332 758.647 820.587 758.647C812.842 758.647 805.198 760.413 798.238 763.81C791.278 767.208 785.184 772.147 780.42 778.254" stroke="black" stroke-width="22" stroke-miterlimit="10" stroke-linecap="round"/>
<path d="M870.881 910.959C896.594 937.099 946.448 937.099 972.168 910.959" stroke="black" stroke-width="22" stroke-miterlimit="10" stroke-linecap="round"/>
<path d="M1052.5 778.254C1047.74 772.147 1041.64 767.208 1034.68 763.81C1027.72 760.413 1020.08 758.647 1012.33 758.647C1004.59 758.647 996.946 760.413 989.985 763.81C983.025 767.208 976.931 772.147 972.167 778.254" stroke="black" stroke-width="22" stroke-miterlimit="10" stroke-linecap="round"/>
</g>
<defs>
<clipPath id="clip0_624_3550">
<rect width="1500" height="1500" fill="white"/>
</clipPath>
</defs>
      <g clip-path="url(#clip0_911_278)">
<path d="M741 865.42V871.56C741.01 872.669 740.781 873.767 740.33 874.78C739.07 877.64 736.99 877.78 736.99 877.78C735.893 878.033 734.754 878.046 733.651 877.818C732.548 877.59 731.507 877.127 730.6 876.46C727.96 874.35 721.36 856.25 721.36 856.25L708.65 876.46H700L717.8 848.25L712.21 836.66C711.84 835.888 711.265 835.233 710.547 834.767C709.828 834.301 708.996 834.043 708.14 834.02H708C707.225 833.94 706.442 834.054 705.721 834.351C705.001 834.647 704.365 835.118 703.87 835.72C702.98 836.61 702.66 839.5 702.66 839.5L700.88 839.63C700.634 837.881 700.59 836.109 700.75 834.35C700.862 833.001 701.324 831.705 702.09 830.59C702.61 829.783 703.325 829.12 704.169 828.664C705.014 828.208 705.96 827.972 706.92 827.98C708.535 827.979 710.11 828.479 711.43 829.41C712.762 830.35 713.801 831.646 714.43 833.15L719.69 846.2L731.13 828.8H739L723.2 853.31L727.14 862.63C727.14 862.63 730.14 871.63 734.45 871.63C738.76 871.63 739.16 865.41 739.16 865.41L741 865.42Z" fill="black"/>
</g>
<defs>
<clipPath id="clip0_911_278">
<rect width="1500" height="1500" fill="white"/>
</clipPath>
</defs>
      <g clip-path="url(#clip0_602_2057)">
<path d="M485.677 1069L476 991.814L552.452 973L566 1047.29L485.677 1069Z" fill="#D9D9D9"/>
<path d="M449 673.403L473.817 994L558 970.754L540.482 655L449 673.403Z" fill="#9E6740"/>
<path d="M689.715 313.65C374.516 363.906 350.687 581.458 331 683.196L347.943 689L462.674 664.815L745.386 628.538L968.071 620.798H1187.85L1227.55 620.799C1220.5 601.763 1245.1 604.927 1227.55 585.489C1212.21 568.502 1155.29 529.195 1139.92 509.064C1061.02 359.601 919.607 276.995 689.715 313.65Z" fill="#87C848"/>
<path d="M368.793 546.578L347 611L559.604 563.047L858.896 527.688L1164 538.344L1120.41 476.344C1041.96 470.048 849.114 461.232 705.376 476.344C561.638 491.457 414.478 531.563 368.793 546.578Z" fill="#578926"/>
<path d="M354.805 607.428C476.023 574.142 811.042 510.951 1162.01 534.607M369.332 537.139C486.03 506.785 798.356 445.035 1112.62 468.788M1164.32 534.607C1149.49 523.278 1137.46 508.696 1129.14 491.983C1047.12 326.146 880.881 293.35 720.231 308.202C518.553 326.856 363.721 436.62 349.7 613.269C348.955 623.079 345.867 632.567 340.696 640.933L331.696 655.366C320.498 673.332 336.414 695.934 357.073 691.416L372.823 687.974C651.433 627.078 928.584 618.104 1213.71 624.872C1238.4 625.462 1245.68 597.325 1224.68 580.983L1164.32 534.607Z" stroke="black" stroke-width="22"/>
<path d="M474.799 992.99C461.462 879.626 453.96 744.374 451 677.558C480.474 671.392 511.052 665.894 542.35 661C541.207 760.499 549.767 882.067 558.524 971.177M474.799 992.99C478.105 1021.08 481.709 1047.54 485.603 1070.82C485.705 1071.44 486.331 1071.81 486.918 1071.6C501.057 1066.6 534.737 1055.74 566.107 1048.93C566.614 1048.82 566.952 1048.34 566.888 1047.83C564.513 1028.57 561.565 1002.12 558.524 971.177M474.799 992.99C485.865 988.789 518.103 978.545 558.524 971.177" stroke="black" stroke-width="22"/>
<path d="M702.24 319C559.917 386.786 495.089 582.234 484.586 659.381L360.004 687.948C333.02 701.828 310.946 702.237 366.306 540.272C427.87 360.156 633.405 323.196 702.24 319Z" fill="#001647" fill-opacity="0.2"/>
<path d="M484.607 680.424C485.432 772.726 510.281 990.112 519.973 1058.83L484.101 1069L447.26 680.685L508.339 655.992L488.173 672.845C485.9 674.745 484.581 677.461 484.607 680.424Z" fill="#001647" fill-opacity="0.2"/>
<path d="M1187 656C944.623 649.415 655.21 672.292 547.271 689.884L540 659.381L693.999 635.172L923.288 624.035L1174.88 626.37L1187 656Z" fill="#001647" fill-opacity="0.2"/>
</g>
<defs>
<clipPath id="clip0_602_2057">
<rect width="1500" height="1500" fill="white"/>
</clipPath>
</defs>
      
    </g>
    </svg>