<svg
      xmlns="http://www.w3.org/2000/svg"
      preserveAspectRatio="xMidYMin meet"
      fill="none"
      viewBox="0 0 1500 1500"
    >
      <g>
      <path fill="url(#prefix__paint0_linear_53_30463)" d="M0 0h1500v1500H0z"/><defs><linearGradient id="prefix__paint0_linear_53_30463" x1="1500" y1="1500" x2="0" y2="0" gradientUnits="userSpaceOnUse">
<stop stop-color="#FF5A5A"/>
<stop offset="1" stop-color="#FFBDBD"/>
</linearGradient></defs>
      <g clip-path="url(#clip0_483_517)">
<path d="M366.5 1327.5C264.5 1394.3 286.333 1481.33 310 1516.5L1208 1510C1237.2 1434.8 1183.17 1369.33 1152.5 1346C1198.9 1256 1109.83 1182.17 1059.5 1156.5C1089.1 1116.1 1063.83 1061 1047.5 1038.5C819.5 1116.1 602.5 1048.83 522.5 1005.5C452.9 1045.5 475.833 1117.83 496 1149C358.8 1177.8 352.5 1280 366.5 1327.5Z" fill="#F8CF47"/>
<path d="M1069.32 1160.2C1064.35 1156.71 1057.49 1157.91 1054 1162.88C1039.23 1183.91 1016.26 1201.27 992.35 1214.66C968.55 1227.99 944.65 1236.92 928.96 1241.44C923.12 1243.12 919.75 1249.21 921.43 1255.05C923.11 1260.89 929.2 1264.26 935.04 1262.58C952.15 1257.66 977.65 1248.11 1003.1 1233.85C1028.44 1219.66 1054.57 1200.33 1072 1175.52C1075.49 1170.55 1074.29 1163.69 1069.32 1160.2Z" fill="#001647" fill-opacity="0.2"/>
<path d="M1164.1 1354.75C1159.24 1351.11 1152.34 1352.1 1148.7 1356.96C1133.03 1377.87 1104.14 1383.83 1083.64 1384.51C1077.57 1384.71 1072.81 1389.8 1073.01 1395.87C1073.21 1401.94 1078.3 1406.7 1084.37 1406.5C1106.4 1405.77 1144.34 1399.48 1166.31 1370.15C1169.95 1365.29 1168.97 1358.39 1164.1 1354.75Z" fill="#001647" fill-opacity="0.2"/>
<path d="M974 1404.68C955.73 1408.06 923.06 1412.42 884.83 1413.9C846.05 1415.41 802.01 1413.94 761.7 1405.72C755.75 1404.51 749.94 1408.35 748.72 1414.3C747.51 1420.25 751.35 1426.06 757.3 1427.28C799.95 1435.98 845.9 1437.43 885.68 1435.89C924.97 1434.36 958.69 1429.89 978 1426.32C983.97 1425.21 987.92 1419.48 986.82 1413.5C985.72 1407.53 979.98 1403.58 974 1404.68Z" fill="#001647" fill-opacity="0.2"/>
<path d="M526 1158.5L571 1186L615.26 1203.5L680 1225L731.5 1232.5L752.18 1235C707.21 1216.67 630.42 1157.5 683 1067.5L509.66 1009L484 1061.5L480 1115L501 1137.5L526 1158.5Z" fill="#001647" fill-opacity="0.2"/>
<path d="M575.64 1215.68C588.5 1221.37 601.86 1226.63 615.26 1231.41C664.47 1248.96 716.66 1260.84 750.81 1262.98C756.87 1263.36 762.1 1258.75 762.48 1252.69C762.86 1246.63 758.25 1241.41 752.19 1241.03C720.76 1239.07 670.68 1227.82 622.65 1210.7C574.19 1193.42 530.41 1171.05 509.66 1148.1C505.59 1143.59 498.63 1143.24 494.12 1147.32C493.29 1148.07 492.61 1148.91 492.06 1149.82L491.49 1149.51L400.99 1186.01L372.99 1242.51L360.99 1305.51L372.66 1327.65C371.89 1327.77 371.12 1327.97 370.37 1328.26L363.99 1321.01L321.49 1356.01L287 1432L300.5 1513H401C381.17 1457.08 423.35 1428.94 465.37 1415.96C483.49 1420.94 504.21 1424.83 527.79 1427.43C533.83 1428.1 539.26 1423.74 539.93 1417.7C540.6 1411.66 536.24 1406.23 530.2 1405.56C520.59 1404.5 511.58 1403.23 503.1 1401.77L493.44 1398.36L525.99 1401.49C506.16 1380.99 471.49 1327.59 491.49 1277.99C506.17 1241.57 544.58 1223.41 575.63 1215.67L575.64 1215.68Z" fill="#001647" fill-opacity="0.2"/>
<path d="M1013.5 1319C1024.83 1354.33 1048.1 1443.9 1050.5 1519.5M667 1361.5C661.166 1392.33 650.3 1467.1 653.5 1519.5M1205 1519.5C1216 1480.17 1221.2 1391.6 1154 1352M1079 1384C1114 1382.83 1181.89 1367 1163.5 1276C1148.04 1199.52 1089.25 1170.37 1058 1157.7M926.999 1240.5C959.802 1231.06 1025.8 1203.54 1058 1157.7M1058 1157.7C1061.62 1152.53 1064.82 1147.13 1067.5 1141.5C1080.32 1114.5 1076.3 1065.5 1047.5 1035.5C1019.19 1047.48 944.091 1070.65 852.5 1076.66M746.499 1240.5C674.499 1236 514.065 1185.63 485.999 1129C457.5 1071.5 493.833 1020 517.999 1002C574.999 1028.17 715.399 1080 820.999 1078C831.68 1077.8 842.194 1077.34 852.5 1076.66M491 1148.5C462.5 1154.17 399.8 1178 377 1228C348.5 1290.5 343 1385 524 1405M311.5 1513.5C285.667 1480.17 259.201 1396.2 360 1327M852.5 1076.66L880.255 1413.39M880.255 1413.39L889 1519.5M880.255 1413.39C919.011 1411.89 952.211 1407.48 971 1404M880.255 1413.39C840.971 1414.92 795.978 1413.46 754.5 1405" stroke="black" stroke-width="22" stroke-linecap="round"/>
</g>
<defs>
<clipPath id="clip0_483_517">
<rect width="1500" height="1500" fill="white"/>
</clipPath>
</defs>
      <g clip-path="url(#clip0_497_1194)">
<path d="M379.667 654.812C432.345 471.574 618.472 401.981 699.114 390.653C740.985 382.718 849.655 375.215 949.364 408.675C980 418.956 1049.88 457.388 1091.92 499.818C1144.47 552.856 1272.97 732.052 1185.05 927.725C1097.12 1123.4 758.414 1092.29 612.749 1051.82C464.472 1010.63 314.48 881.563 379.667 654.812Z" fill="#AABBFF"/>
<path d="M449.293 747.204C454.734 531.068 585.306 432.345 649.911 410C432.292 459.565 365.296 655.455 364 747.204C377.99 984.871 584.496 1053.43 681 1058C601.498 1044.46 443.853 963.339 449.293 747.204Z" fill="#001647" fill-opacity="0.2"/>
<path d="M379.667 654.812C432.345 471.574 618.472 401.981 699.114 390.653C740.985 382.718 849.655 375.215 949.364 408.675C980 418.956 1049.88 457.388 1091.92 499.818C1144.47 552.856 1272.97 732.052 1185.05 927.725C1097.12 1123.4 758.414 1092.29 612.749 1051.82C464.472 1010.63 314.48 881.563 379.667 654.812Z" stroke="black" stroke-width="22" stroke-linecap="round"/>
</g>
<defs>
    <clipPath id="prefix__clip0_299_662"><path fill="#fff" d="M0 0h1500v1500H0z"/></clipPath>
</defs>
      <g clip-path="url(#clip0_624_3503)">
<path d="M820.579 731.479C807.38 731.491 794.726 736.74 785.393 746.073C776.06 755.406 770.811 768.06 770.799 781.259C770.855 783.107 771.629 784.86 772.957 786.148C774.284 787.435 776.06 788.155 777.909 788.155C779.758 788.155 781.534 787.435 782.861 786.148C784.188 784.86 784.962 783.107 785.019 781.259C784.954 776.549 785.826 771.872 787.584 767.502C789.342 763.132 791.951 759.154 795.259 755.8C798.567 752.446 802.509 749.783 806.855 747.966C811.201 746.148 815.865 745.212 820.575 745.212C825.286 745.212 829.95 746.148 834.296 747.966C838.642 749.783 842.584 752.446 845.892 755.8C849.2 759.154 851.809 763.132 853.567 767.502C855.325 771.872 856.197 776.549 856.132 781.259C856.132 786.917 853.885 792.343 849.884 796.344C845.883 800.345 840.457 802.592 834.799 802.592C829.141 802.592 823.715 800.345 819.714 796.344C815.713 792.343 813.465 786.917 813.465 781.259C813.438 780.308 813.599 779.361 813.939 778.472C814.284 777.582 814.806 776.77 815.472 776.086C816.302 775.229 817.335 774.595 818.474 774.243C819.613 773.89 820.823 773.83 821.992 774.067C823.161 774.305 824.251 774.833 825.162 775.603C826.073 776.373 826.776 777.36 827.205 778.472C827.551 779.36 827.714 780.307 827.686 781.259C827.686 783.146 828.435 784.955 829.769 786.289C831.103 787.623 832.912 788.372 834.799 788.372C836.685 788.372 838.495 787.623 839.829 786.289C841.163 784.955 841.912 783.146 841.912 781.259C841.912 775.601 839.665 770.175 835.664 766.174C831.663 762.173 826.237 759.926 820.579 759.926C814.921 759.926 809.495 762.173 805.494 766.174C801.493 770.175 799.245 775.601 799.245 781.259C799.245 790.688 802.991 799.731 809.659 806.399C816.326 813.067 825.369 816.812 834.799 816.812C844.228 816.812 853.271 813.067 859.939 806.399C866.606 799.731 870.352 790.688 870.352 781.259C870.34 768.062 865.092 755.408 855.761 746.075C846.429 736.743 833.776 731.493 820.579 731.479Z" fill="black" stroke="black" stroke-width="5"/>
<path d="M1011.91 731.479C998.714 731.491 986.06 736.74 976.727 746.073C967.394 755.406 962.145 768.06 962.133 781.259C962.189 783.107 962.963 784.86 964.29 786.148C965.618 787.435 967.394 788.155 969.243 788.155C971.092 788.155 972.868 787.435 974.195 786.148C975.522 784.86 976.296 783.107 976.353 781.259C976.288 776.549 977.16 771.872 978.918 767.502C980.676 763.132 983.285 759.154 986.593 755.8C989.901 752.446 993.843 749.783 998.189 747.966C1002.53 746.148 1007.2 745.212 1011.91 745.212C1016.62 745.212 1021.28 746.148 1025.63 747.966C1029.98 749.783 1033.92 752.446 1037.23 755.8C1040.53 759.154 1043.14 763.132 1044.9 767.502C1046.66 771.872 1047.53 776.549 1047.47 781.259C1047.47 786.917 1045.22 792.343 1041.22 796.344C1037.22 800.345 1031.79 802.592 1026.13 802.592C1020.47 802.592 1015.05 800.345 1011.05 796.344C1007.05 792.343 1004.8 786.917 1004.8 781.259C1004.76 780.067 1005.02 778.884 1005.56 777.82C1006.1 776.756 1006.9 775.845 1007.89 775.171C1008.87 774.497 1010.01 774.081 1011.2 773.963C1012.38 773.844 1013.58 774.026 1014.68 774.492C1015.56 774.864 1016.36 775.41 1017.02 776.097C1017.68 776.785 1018.2 777.599 1018.54 778.492C1018.88 779.38 1019.05 780.327 1019.02 781.279C1019.02 783.166 1019.77 784.975 1021.1 786.309C1022.44 787.643 1024.25 788.392 1026.13 788.392C1028.02 788.392 1029.83 787.643 1031.16 786.309C1032.5 784.975 1033.25 783.166 1033.25 781.279C1033.25 775.621 1031 770.195 1027 766.194C1023 762.193 1017.57 759.946 1011.91 759.946C1006.25 759.946 1000.83 762.193 996.828 766.194C992.827 770.195 990.579 775.621 990.579 781.279C990.579 790.708 994.325 799.751 1000.99 806.419C1007.66 813.087 1016.7 816.832 1026.13 816.832C1035.56 816.832 1044.61 813.087 1051.27 806.419C1057.94 799.751 1061.69 790.708 1061.69 781.279C1061.67 768.081 1056.43 755.428 1047.09 746.095C1037.76 736.763 1025.11 731.513 1011.91 731.499V731.479Z" fill="black" stroke="black" stroke-width="5"/>
<path d="M921.5 970C930.895 970 940.078 967.214 947.89 961.995C955.701 956.775 961.789 949.357 965.384 940.677C968.979 931.998 969.92 922.447 968.087 913.233C966.254 904.019 961.731 895.555 955.088 888.912C948.445 882.269 939.981 877.746 930.767 875.913C921.553 874.08 912.002 875.021 903.323 878.616C894.643 882.211 887.225 888.299 882.005 896.11C876.786 903.922 874 913.105 874 922.5C874 928.738 875.229 934.914 877.616 940.677C880.003 946.44 883.502 951.677 887.912 956.088C892.323 960.498 897.56 963.997 903.323 966.384C909.085 968.771 915.262 970 921.5 970Z" fill="white" stroke="black" stroke-width="22" stroke-miterlimit="10" stroke-linecap="round"/>
</g>
<defs>
<clipPath id="clip0_624_3503">
<rect width="1500" height="1500" fill="white"/>
</clipPath>
</defs>
      <g clip-path="url(#clip0_2507_63)">
<path d="M465.702 816.438C480.86 808.672 506.017 801.608 528.977 822.177C533.144 825.842 538.246 828.431 543.789 829.693C549.333 830.955 555.13 830.848 560.62 829.382C577.275 825.065 601.312 823.004 618.961 838.922C623.315 842.866 628.715 845.635 634.597 846.939C640.479 848.243 646.627 848.034 652.399 846.335C669.555 841.272 694.168 839.009 715.452 857.097C719.883 860.896 725.325 863.492 731.201 864.607C737.076 865.723 743.165 865.316 748.82 863.431C762.912 858.716 784.234 859.512 800.222 872.39C828.365 892.375 848.043 877.733 857.942 868.788C871.772 856.323 893.921 850.386 923.719 862.743C928.011 864.484 911.991 863.591 916.667 863.537C921.342 863.482 925.955 862.503 930.206 860.662C944.415 854.622 967.654 843.804 990.096 857.826C995.145 861.047 1001.04 862.895 1007.13 863.168C1013.23 863.441 1019.29 862.128 1024.64 859.372C1034.51 854.21 1047.89 840.755 1063.77 843.596C1069.43 844.621 1075.27 844.252 1080.74 842.526C1086.21 840.8 1091.12 837.775 1094.99 833.743C1101.9 826.507 1113.11 820.008 1130.46 821.203C1136.43 821.572 1142.39 820.401 1147.71 817.815C1153.02 815.228 1157.49 811.325 1160.63 806.526C1167.76 795.749 1181.5 784.561 1207.55 783.129C1207.55 783.129 1229.44 796.284 1221.41 827.286C1219.56 834.45 1220.39 841.993 1223.78 848.634C1228.07 857.086 1231.34 869.688 1221.88 880.984C1219.07 884.303 1217.01 888.13 1215.83 892.227C1214.65 896.325 1214.38 900.606 1215.03 904.804C1217.37 919.141 1210.09 929.732 1202.94 936.436C1196.53 942.382 1192.88 950.476 1192.78 958.945C1192.64 975.174 1183.45 983.831 1174.71 988.382C1170.7 990.558 1167.21 993.503 1164.47 997.026C1161.74 1000.55 1159.82 1004.57 1158.83 1008.83C1155.33 1022.95 1138.92 1029.71 1131.6 1032.78C1124.28 1035.86 1115.56 1041.1 1108.97 1052.71C1102.39 1064.32 1086.36 1077.38 1073.94 1080.18C1069.52 1081.18 1065.37 1083 1061.71 1085.54C1058.06 1088.08 1054.98 1091.29 1052.67 1094.97C1041.4 1112.69 1020.26 1116.86 1005.2 1117.34C1000.51 1117.44 995.906 1118.49 991.682 1120.41C987.459 1122.33 983.717 1125.07 980.707 1128.46C968.761 1142.24 950.228 1143.81 937.46 1142.95C928.834 1142.41 920.321 1145.07 913.731 1150.35C896.484 1163.89 876.794 1161.03 863.383 1156.3C858.647 1154.62 853.56 1153.99 848.522 1154.47C843.483 1154.96 838.63 1156.53 834.342 1159.08C816.183 1169.89 798.695 1165.99 787.072 1160.66C782.601 1158.66 777.713 1157.62 772.762 1157.63C767.811 1157.64 762.922 1158.69 758.454 1160.7C733.781 1171.63 713.634 1161.25 702.194 1152.09C698.704 1149.31 694.644 1147.24 690.267 1146.01C685.889 1144.77 681.287 1144.4 676.747 1144.91C649.432 1147.99 632.822 1134.53 623.915 1123.46C620.92 1119.72 617.074 1116.66 612.659 1114.5C608.244 1112.34 603.372 1111.14 598.399 1110.99C574.944 1110.28 561.378 1100.62 553.949 1092.25C550.876 1088.77 547.047 1085.94 542.72 1083.96C538.392 1081.97 533.664 1080.89 528.851 1080.76C502.079 1080.08 491.575 1067.57 487.501 1056.82C485.888 1052.44 483.228 1048.47 479.726 1045.22C476.225 1041.96 471.976 1039.51 467.306 1038.05C441.864 1030.28 434.319 1011.5 432.435 997.274C431.827 992.251 429.952 987.44 426.968 983.242C423.983 979.043 419.975 975.58 415.279 973.14C395.013 962.907 392.242 947.513 393.181 937.021C393.779 929.716 391.562 922.456 386.936 916.574C380.535 908.31 374.525 894.994 383.545 879.356C385.957 875.189 387.331 870.559 387.562 865.82C387.793 861.081 386.874 856.356 384.876 852.004C379.713 840.791 376.01 825.969 386.55 817.421C400.856 805.769 421.875 811.236 436.165 817.331C440.825 819.338 445.915 820.302 451.039 820.147C456.163 819.992 461.181 818.723 465.702 816.438Z" fill="#4AEEB9"/>
<path d="M565.801 884.099C551.032 867.741 562.342 843.135 571.001 831.629C565.495 829.957 553.585 826.623 549.992 826.658C545.5 826.701 531.994 823.539 523.458 817.978C514.921 812.417 517.451 816.155 510.447 814.341C503.442 812.527 485.97 812.224 483.973 812.243C481.977 812.263 447.097 818.709 445.6 818.724C444.102 818.738 408.068 808.268 406.567 807.813C405.365 807.448 390.515 817.214 383.24 822.142L383.504 850.822C383.511 851.575 382.995 867.755 382.736 875.751L384.18 924.168L409.529 966.714L433.298 1000.34L465.131 1042.35L492.815 1067.48L524.882 1080.81L589.512 1106.99L630.675 1132.46L669.218 1144.32L719.274 1159.82L761.198 1159.42L799.627 1159.05C791.688 1157.41 783.387 1150.18 778.03 1144.35C775.429 1141.53 771.581 1140.07 767.776 1140.6C727.302 1146.18 706.418 1124.24 698.952 1108.27C697.386 1104.91 694.491 1102.29 690.934 1101.27C666.516 1094.28 656.946 1076.35 654.273 1063.41C653.338 1058.89 650.206 1054.91 645.869 1053.31C623.767 1045.16 618.763 1028.83 619.441 1016.71C619.725 1011.63 617.484 1006.4 613.109 1003.8C589.803 989.959 586.544 971.178 588.801 958.778C589.622 954.265 588.49 949.38 585.204 946.181C567.933 929.37 566.759 911.509 569.796 899.613C571.162 894.262 569.5 888.197 565.801 884.099Z" fill="#001647" fill-opacity="0.2"/>
<path d="M528.978 822.176C506.017 801.608 480.861 808.672 465.702 816.438C461.182 818.722 456.163 819.992 451.04 820.147C445.916 820.302 440.825 819.338 436.165 817.331C421.875 811.236 400.856 805.768 386.55 817.421C376.01 825.969 381.713 840.79 386.877 852.003C388.874 856.355 389.793 861.08 389.562 865.82C389.331 870.559 387.958 875.188 385.545 879.356C376.525 894.993 382.535 908.31 388.936 916.573C393.562 922.456 395.779 929.715 395.181 937.021C394.242 947.513 397.013 962.906 417.279 973.139C421.976 975.579 425.983 979.043 428.968 983.241C431.952 987.439 433.827 992.251 434.435 997.274C436.32 1011.5 441.864 1030.28 467.306 1038.05C471.976 1039.51 476.225 1041.96 479.726 1045.22C483.228 1048.47 485.888 1052.44 487.501 1056.82C491.575 1067.57 502.08 1080.08 528.851 1080.76C533.664 1080.89 538.392 1081.97 542.72 1083.96C547.048 1085.94 550.876 1088.77 553.949 1092.25C561.378 1100.62 574.944 1110.28 598.399 1110.99C603.372 1111.14 608.245 1112.34 612.659 1114.5C617.074 1116.66 620.92 1119.72 623.915 1123.46C632.823 1134.53 649.432 1147.99 676.747 1144.91C681.287 1144.4 685.889 1144.77 690.267 1146.01C694.645 1147.24 698.704 1149.31 702.194 1152.09C713.634 1161.25 733.781 1171.63 758.454 1160.7C762.923 1158.69 767.811 1157.64 772.762 1157.63C777.713 1157.62 782.602 1158.66 787.072 1160.65C798.696 1165.99 816.183 1169.89 834.342 1159.08C838.63 1156.53 843.483 1154.96 848.522 1154.47C853.561 1153.99 858.647 1154.62 863.383 1156.3C876.794 1161.02 896.484 1163.89 913.731 1150.35C920.322 1145.07 928.835 1142.41 937.46 1142.95C950.228 1143.81 968.761 1142.24 980.707 1128.46C983.717 1125.07 987.459 1122.33 991.683 1120.41C995.906 1118.49 1000.51 1117.44 1005.2 1117.34C1020.26 1116.86 1041.4 1112.69 1052.67 1094.97C1054.98 1091.29 1058.06 1088.08 1061.71 1085.54C1065.37 1083 1069.52 1081.18 1073.94 1080.18C1086.36 1077.38 1102.39 1064.32 1108.97 1052.71C1115.56 1041.1 1124.28 1035.86 1131.6 1032.78L1131.8 1032.7C1139.22 1029.59 1155.36 1022.82 1158.83 1008.83C1159.82 1004.57 1161.74 1000.55 1164.48 997.025C1167.21 993.502 1170.7 990.558 1174.71 988.381C1183.45 983.83 1192.64 975.174 1192.78 958.945C1192.88 950.475 1196.53 942.382 1202.94 936.436C1210.09 929.732 1217.37 919.141 1215.03 904.804C1214.38 900.605 1214.65 896.324 1215.83 892.227C1217.01 888.129 1219.07 884.302 1221.88 880.984C1231.34 869.687 1228.07 857.086 1223.78 848.633C1220.39 841.992 1219.56 834.449 1221.41 827.286C1229.44 796.284 1207.55 783.129 1207.55 783.129C1181.5 784.561 1167.76 795.749 1160.63 806.525C1157.49 811.325 1153.02 815.228 1147.71 817.814C1142.39 820.4 1136.43 821.572 1130.46 821.202C1113.11 820.007 1101.9 826.506 1094.99 833.743C1091.12 837.775 1086.21 840.8 1080.74 842.526C1075.28 844.251 1069.43 844.62 1063.77 843.596C1047.89 840.754 1034.51 854.21 1024.65 859.372C1019.29 862.127 1013.23 863.44 1007.13 863.168C1001.04 862.895 995.145 861.047 990.096 857.826C975.888 848.949 959.716 858.434 946.155 868.123C933.956 876.839 919.01 875.415 905.387 869.164C886.22 860.368 868.122 859.612 857.942 868.788C848.043 877.733 828.366 892.375 800.222 872.39C784.234 859.511 762.912 858.716 748.82 863.431C743.166 865.316 737.077 865.722 731.201 864.607C725.325 863.492 719.883 860.896 715.452 857.096C694.168 839.008 669.555 841.271 652.399 846.335C646.627 848.034 640.479 848.242 634.597 846.938C628.715 845.634 623.315 842.866 618.961 838.921C601.313 823.004 577.276 825.064 560.621 829.381C555.13 830.848 549.333 830.955 543.79 829.692C538.246 828.43 533.145 825.841 528.978 822.176Z" stroke="black" stroke-width="22" stroke-miterlimit="10"/>
<path d="M847.684 952.99C796.393 960.533 771.057 930.01 764.065 911.56C763.735 910.688 764.715 909.945 765.529 910.399C794.794 926.75 833.656 903.637 851.184 871.99C854.749 865.552 859.18 860.308 864.102 856.095C892.633 831.676 933.121 867.002 920.263 902.286C911.028 927.625 887.792 947.092 847.684 952.99Z" fill="#4AEEB9"/>
<path d="M999.033 952.99C1050.32 960.533 1075.66 930.01 1082.65 911.56C1082.98 910.688 1082 909.945 1081.19 910.399C1051.92 926.75 1013.06 903.637 995.533 871.99C991.967 865.552 987.536 860.308 982.614 856.095C954.083 831.676 913.595 867.002 926.454 902.286C935.688 927.625 958.924 947.092 999.033 952.99Z" fill="#4AEEB9"/>
<path d="M883 852.5C880.2 911.7 822.5 934.5 794 938.5L769.5 916.5L826.5 903.5L851 878.5L858 857.5L883 852.5Z" fill="#001647" fill-opacity="0.2"/>
<path d="M970 938.5C944.8 914.9 950.833 871.333 957 852.5L940 854.5L924.5 867V897L945 925.5L970 938.5Z" fill="#001647" fill-opacity="0.2"/>
<path fill-rule="evenodd" clip-rule="evenodd" d="M923.129 856.694C920.505 853.024 917.459 849.726 914.113 846.903C898.825 834.009 875.472 829.811 856.267 846.248C850.38 851.286 845.101 857.547 840.878 865.171C833.142 879.14 820.655 891.196 807.203 897.842C793.771 904.478 780.734 905.185 770.211 899.306C765.64 896.752 760.435 897.58 756.925 900.315C753.272 903.161 751.024 908.5 753.096 913.968C761.559 936.297 791.257 970.816 848.601 962.383C884.621 957.086 909.524 941.229 923.129 918.755C936.733 941.229 961.636 957.086 997.656 962.384C1055 970.817 1084.7 936.297 1093.16 913.968C1095.23 908.5 1092.99 903.161 1089.33 900.315C1085.82 897.58 1080.62 896.752 1076.05 899.307C1065.52 905.186 1052.49 904.479 1039.06 897.842C1025.6 891.196 1013.12 879.14 1005.38 865.171C1001.16 857.547 995.878 851.287 989.991 846.248C970.785 829.811 947.433 834.01 932.145 846.904C928.799 849.726 925.753 853.024 923.129 856.694ZM899.929 863.721C891.054 856.236 879.898 854.981 870.572 862.962C866.614 866.35 863.033 870.578 860.124 875.83C850.333 893.508 834.625 908.832 816.948 917.566C807.598 922.186 797.32 925.111 786.94 925.299C798.415 936.011 817.19 944.766 845.401 940.617C882.42 935.173 901.682 917.782 909.245 897.029C913.863 884.357 909.026 871.393 899.929 863.721ZM946.329 863.721C937.232 871.394 932.395 884.358 937.013 897.029C944.576 917.782 963.838 935.174 1000.86 940.618C1029.07 944.766 1047.84 936.011 1059.32 925.299C1048.94 925.111 1038.66 922.186 1029.31 917.566C1011.63 908.832 995.925 893.508 986.134 875.83C983.225 870.578 979.643 866.35 975.686 862.962C966.36 854.981 955.203 856.236 946.329 863.721Z" fill="black"/>
</g>
<defs>
<clipPath id="clip0_2507_63">
<rect width="1500" height="1500" fill="white"/>
</clipPath>
</defs>
      <style type="text/css">
	.st0{fill:#AABBFF;}
	.st1{fill:none;stroke:#000000;stroke-width:22;stroke-linecap:round;}
	.st2{fill:#A760FF;}
	.st3{fill:#001647;fill-opacity:0.2;}
	.st4{fill:none;stroke:#000000;stroke-width:22;}
</style>
<path class="st0" d="M711.9,381.5L669.1,415l85.8,42c31.2-0.5,101.1-2.4,131.5-5.8c30.4-3.5,60.3-20.5,71.4-28.6l-45-35.2
	l-22.1-27.1l-38.7-7.3l-35.4,36l-5.6-18.9l-31.9-12.7l-31.1,5.3L711.9,381.5z"/>
<path class="st1" d="M754.8,451.1c3.6-10.8,11.8-27.5,25.3-39.6 M882.2,449.1c-4.1-9.4-11.2-23.4-22.8-34.6 M670.7,416
	c7.5-12.6,25.3-37.9,51.7-38.4c2.4,0,4.7,0,6.9,0.2 M780.1,411.6c9.4-8.4,21.2-14.5,35.7-14.8c2.4,0,4.7,0.1,6.9,0.3 M780.1,411.6
	c-8.2-10.7-21.7-31.3-50.8-33.7 M953.1,422.6c-6.3-11.9-23.5-34.8-45-37.5 M859.4,414.5c4.8-9.7,20.2-29.3,43.9-29.7
	c1.6,0,3.2,0.1,4.8,0.3 M859.4,414.5c-9.2-8.9-21.2-16-36.8-17.5 M729.3,377.9c4.8-9.2,18.3-27.6,39.2-27.9
	c26.9-0.4,49,25.8,54.1,47.1 M908.1,385.1c-4.8-10.8-18.7-33.3-36.5-33.1c-22.2,0.4-39.3,18.7-49,41"/>
<path class="st2" d="M370.4,649.9c-3.5,11-6.3,22.8-8.2,31c-0.2,0.9-0.7,1.7-1.3,2.3c-0.7,0.6-1.5,1-2.4,1.1
	c-0.9,0.1-1.8-0.1-2.6-0.5c-0.8-0.4-1.4-1.1-1.8-1.9c-1.2-2.4-2.2-5-3-7.6c-3-9.8,2.8-22.3,0.4-27.3c-2.4-5.1-0.8-14.6,1.1-22.2
	c1.5-6,2.6-12.2,3.3-18.3c0.2-2-0.5-14.4,0.9-18c1.1-3,6.9-15.4,8.9-19.6c0.4-0.9,1.1-1.6,1.9-2l30.1-19.9c0.2-0.1,3.5-12,3.7-12.1
	l84.5-18.8c0.1-0.1,0.3-0.1,0.4-0.1l97.6-23.3c0.2,0,0.4-0.1,0.5-0.1l95.5-10.7l127.1-17.4c0.2,0,0.3,0,0.5,0l163.3-2.5l0.5,0l0.1,0
	c4.3,0.4,54.5,4.6,67.9,4.9c14,0.3,47,2.7,62.9,4.9c15.8,2.3,23.6,7.6,29.2,11.7c5.6,4,25.9,9.2,32.6,16.8
	c6.7,7.6,23.8,40.3,22.8,41.1c-4.3,3.3,19.8,35.2,22.2,41.4c0.2,0.6,0.3,1.2,0.3,1.8l4,29.9c0,1.1-0.5,2-1.2,2.8l-14.4,15.2
	c-0.5,0.5-1.1,0.9-1.8,1.2c-0.7,0.2-1.4,0.3-2.2,0.1c-0.7-0.1-1.4-0.4-2-0.9c-0.6-0.5-1-1.1-1.3-1.7l-21.6-41.1
	c-2.4-4.6-7-7.6-12.2-8l-18.7-1.4l-114.8,2.4L812,589.5l-0.4,0l-281,34.1l-0.2,0l-116.9,20.5c-0.8,0.1-1.6,0.1-2.3-0.2l-14.1-5.4
	c-0.7-0.3-1.6-0.4-2.3-0.2l-5.8,0.2l-7.4,1.4C376.3,640.9,372,644.7,370.4,649.9z"/>
<path class="st3" d="M604.4,493.6c-29.7,32-45.2,96.8-49.3,125.1c-51.4,7.1-156.6,21.9-166.4,23.8c-9.8,2-21.7,25.5-26.4,37
	l-12.6-31.8l6.8-50.1c3-6.9,3.2-26.6,27.7-50c24.5-23.4,95.5-37,127.9-40.8L604.4,493.6z"/>
<path class="st4" d="M1185.7,645.2l15.8-13.9c16.2-14.2,11.4-37.7,2.7-57.4c-12-27.6-33.9-59.1-49-74.2
	c-15.1-15.1-34.6-25.9-55.9-28c-311.8-30.6-547.8,17.7-670.9,54.3c-52.9,15.8-98.2,85.6-60.4,178.9"/>
<path class="st4" d="M385,650.5c0,0,313-63.3,499.3-62.7c0,0,164.2-4.1,272.7,5.2"/>
<g>
	<path d="M753.8,534.4c-0.7-0.5-1.5-0.9-2.4-1c-0.9-0.2-1.7-0.2-2.6,0c-2,0.4-4.1,0.7-6.1,0.8c-1.7,0.1-3.5,0.2-5.3,0.2
		c-0.7,0-1.5,0-2.3,0.1c-0.7,0-1.5,0.1-2.3,0.1l-0.1,0l-0.1,0c-0.9,0.1-1.7,0.3-2.4,0.7c-0.8,0.4-1.4,0.9-1.9,1.6
		c-0.5,0.6-1,1.4-1.2,2.2c-0.2,0.8-0.3,1.6-0.2,2.4c0.1,0.9,0.3,1.7,0.7,2.5c0.4,0.8,1,1.5,1.6,2c0.7,0.6,1.4,1,2.3,1.3
		c0.8,0.3,1.7,0.3,2.5,0.3c0.3,0,0.6,0,0.8,0c-0.3,0.6-0.7,1.1-1.2,1.5l-0.1,0.1c-1.3,1.5-3.1,2.5-5.1,2.7c-0.6,0-1.3-0.1-1.9-0.4
		c-0.6-0.3-1.1-0.7-1.5-1.3c-1-1.2-1.7-2.6-2.3-4.1c-1-2.7-1.6-5.6-1.9-8.5c-0.6-5.6-0.4-9.9,0.7-12.9l0-0.1c0.2-0.7,0.5-1.4,1-2
		c0.4-0.6,1-1,1.6-1.4c0.5-0.2,1.1-0.4,1.7-0.4c0.6,0,1.3,0,1.9,0.1c0.6,0.1,1.1,0.2,1.7,0.4c0.3,0.1,0.6,0.2,0.8,0.3
		c0.6,0.9,1.5,1.7,2.4,2.3c1.2,0.7,2.5,1,3.9,0.9c0.9-0.1,1.7-0.3,2.4-0.7c0.8-0.4,1.4-0.9,1.9-1.6c0.5-0.7,0.9-1.4,1.2-2.3
		c0.2-0.8,0.3-1.7,0.1-2.6c-0.2-0.9-0.5-1.8-0.9-2.6c-0.6-1.2-1.5-2.3-2.6-3c-1.2-1-2.6-1.8-4-2.4c-1.6-0.8-3.3-1.3-5.1-1.6
		c-1.7-0.3-3.5-0.4-5.2-0.2c-1.3,0-2.6,0.3-3.9,0.7c-1.2,0.4-2.4,0.9-3.5,1.5c-1.3,0.7-2.4,1.6-3.4,2.6c-1.1,1-2,2.2-2.8,3.5
		c-1.7,3-2.7,6.2-3.1,9.6c-0.5,4.3-0.5,8.6,0.1,12.9c1,8.5,3.4,15.1,7.2,19.7c1.8,2.2,4.1,4,6.7,5.2c2.2,1,4.6,1.5,7,1.5
		c0.3,0,0.7,0,1,0l0.4,0l0.1,0c2.5-0.2,4.9-0.9,7.2-2.1c4.5-2.3,8-6.1,10.1-10.8c0.8-1.7,1.2-3.6,1.4-5.5c0.3,0,0.5-0.1,0.8-0.1
		c0.7-0.1,1.4-0.3,2.1-0.4c0.9-0.1,1.7-0.5,2.4-1c0.7-0.5,1.3-1.1,1.8-1.8c0.5-0.7,0.8-1.5,0.9-2.4c0.1-0.9,0.1-1.7-0.1-2.6
		C756.2,536.7,755.2,535.3,753.8,534.4z"/>
	<path d="M812.2,544.3c-0.3-2-0.6-4.2-0.9-6.7c-0.2-1.1-0.3-2.2-0.5-3.3c-0.2-1.4-0.4-2.9-0.7-4.4c-0.4-2.5-0.8-4.9-1.2-7l-0.3-1.5
		c-0.4-2.5-0.9-4.8-1.4-6.8c-0.4-1.8-0.8-3.2-1.2-4.4c-0.3-1.1-0.8-2.3-1.2-3.3c-0.4-0.9-0.9-1.7-1.5-2.5c-0.5-0.7-1.2-1.3-1.9-1.7
		c-0.8-0.6-1.8-1-2.8-1.2c-1-0.2-2.1-0.1-3.1,0.1c-1,0.3-1.9,0.7-2.7,1.4c-0.8,0.7-1.4,1.5-1.9,2.4c-0.4,0.8-0.7,1.6-0.9,2.4
		c-0.3,0.8-0.6,1.7-0.8,2.6c-0.2,0.9-0.5,2-0.8,3.3c-0.5,1.9-1,4.3-1.5,6.9c-0.4,2.4-0.9,5-1.4,7.8c-2.5-5.9-4.7-10.7-6.6-14.2
		c-1-2-2.2-3.9-3.6-5.7c-0.4-0.5-0.8-0.9-1.2-1.4c-0.4-0.4-0.8-0.8-1.3-1.1c-0.9-0.8-2-1.4-3.3-1.7c-0.8-0.2-1.7-0.3-2.5-0.2l-0.1,0
		c-1,0.1-1.9,0.4-2.8,0.9c-0.9,0.5-1.6,1.1-2.2,1.9c-0.4,0.6-0.8,1.2-1.1,1.9c-0.4,0.8-0.6,1.7-0.8,2.5c-0.2,1.1-0.3,2.3-0.4,3.5
		c-0.1,1.4-0.1,3,0,4.8c0.1,2,0.2,4.3,0.4,6.8c0.2,2.6,0.5,5.4,0.8,8.5c0.3,2.6,0.6,5.1,0.9,7.6c0.3,2.5,0.6,4.6,0.9,6.5
		c0.3,1.9,0.6,4,1,6.3c0.1,0.9,0.4,1.7,0.8,2.5c0.4,0.8,1,1.4,1.7,1.9c1.2,1,2.7,1.5,4.2,1.5c0.2,0,0.4,0,0.5,0l0.3,0l0.2-0.1
		c0.7-0.1,1.4-0.4,2.1-0.7c0.8-0.4,1.4-1,1.9-1.7c0.5-0.7,0.9-1.5,1.1-2.3c0.2-0.9,0.2-1.7,0.1-2.5c-0.3-2.1-0.6-4-0.8-5.7l-0.8-5.9
		c-0.3-2.2-0.6-4.5-0.9-6.9l0-0.3c0.2,0.4,0.4,0.9,0.6,1.4l3.6,9.2c0.5,1.3,1,2.6,1.5,3.7c0.7,1.7,1.4,3.7,2.1,5.8
		c0.5,1.4,1.4,2.6,2.7,3.4c1.2,0.8,2.7,1.2,4.1,1.2l0.1,0l0.1,0c1.4-0.1,2.8-0.7,3.9-1.6c1-1,1.7-2.3,1.9-3.7l0-0.2l0,0
		c0-0.2,0.1-0.7,0.2-1.5c0.2-1.1,0.4-2.6,0.7-4.4c0.3-1.8,0.6-4,1-6.4c0.3-1.9,0.6-4,1-6c0.2,1.5,0.4,3,0.6,4.5
		c0.3,2.3,0.5,4.3,0.8,6c0.3,1.7,0.5,3.7,0.7,5.8c0.2,1.8,1.1,3.3,2.4,4.4c0.7,0.6,1.4,1,2.3,1.3c0.8,0.3,1.6,0.3,2.5,0.3l0.1,0
		l0.1,0c0.9,0,1.7-0.3,2.5-0.7c0.8-0.4,1.4-0.9,2-1.6c0.6-0.7,1-1.4,1.2-2.3c0.2-0.8,0.3-1.7,0.2-2.5
		C812.7,548.5,812.5,546.3,812.2,544.3z"/>
	<path d="M848.4,552.2c-0.5-0.7-1.2-1.3-2-1.7c-0.8-0.4-1.6-0.7-2.5-0.8c-1.9-0.3-3.7-1.1-5.1-2.4c-1.6-1.4-2.9-3-4-4.8
		c-1.1-1.9-2.1-3.8-2.8-5.9c-0.6-1.8-1.1-3.7-1.5-5.5c-0.4-2.3-0.6-4.7-0.4-7c0.1-2.2,0.5-4.5,1.2-6.6c0.6-2,1.5-3.9,2.6-5.7
		c1-1.7,2.3-3.2,3.8-4.4c0.7-0.5,1.3-1.2,1.7-2c0.4-0.8,0.6-1.6,0.7-2.5c0.1-1.8-0.5-3.5-1.6-4.8c-0.5-0.7-1.2-1.3-2-1.7
		c-0.8-0.4-1.6-0.7-2.4-0.8c-0.9-0.1-1.7-0.1-2.6,0.2c-0.8,0.2-1.6,0.6-2.3,1.2c-2.5,2.1-4.7,4.5-6.5,7.3c-1.8,2.9-3.2,6-4.2,9.2
		c-1.8,6.2-2.1,12.9-0.9,19.3c0.2,1,0.5,2.2,0.7,3.4c0.4,1.5,0.8,3,1.3,4.4c0.6,1.6,1.2,3.2,2,4.9c0.8,1.8,1.8,3.5,3,5.1
		c4.8,6.9,10.8,10.9,17.9,12c0.2,0,0.5,0.1,0.7,0.1c0.1,0,0.2,0,0.3,0l0.5,0c1.5-0.1,2.9-0.7,4-1.7c1.1-1,1.8-2.4,1.9-3.9
		c0.1-0.9,0-1.7-0.3-2.6C849.3,553.6,848.9,552.8,848.4,552.2z"/>
	<path d="M887.5,542.2c-2.2-2.9-4.3-5.8-6.2-8.5c-1.8-2.4-3.5-4.9-5.1-7.3c1.4-3.2,2.8-6.6,4-10c1.4-3.8,2.6-7.9,3.8-12.2
		c0.2-0.8,0.3-1.7,0.2-2.6c-0.1-0.9-0.4-1.7-0.9-2.4c-0.9-1.5-2.3-2.6-3.9-3.1c-0.8-0.3-1.7-0.4-2.5-0.3c-0.9,0.1-1.7,0.3-2.5,0.7
		c-0.8,0.4-1.4,1-2,1.7c-0.5,0.7-0.9,1.5-1.1,2.3c-0.8,3-1.6,5.6-2.3,7.9c-0.5,1.5-1,3-1.6,4.4c-1-1.6-1.9-3.2-2.8-4.7
		c-1.4-2.4-2.8-4.8-4.1-7.2c-0.4-0.8-1-1.5-1.6-2.1c-0.7-0.6-1.5-1-2.3-1.3c-0.8-0.3-1.7-0.4-2.6-0.3c-0.9,0.1-1.7,0.3-2.4,0.7
		c-0.8,0.4-1.5,0.9-2.1,1.6c-0.6,0.7-1,1.5-1.2,2.3c-0.2,0.8-0.3,1.7-0.2,2.6c0.1,0.9,0.4,1.7,0.8,2.4c3.6,6.8,7.8,13.7,12.2,20.5
		c-1.4,2.8-2.8,5.5-4.3,8c-1.6,2.8-3.2,5.7-4.8,8.6l-0.5,0.9c-0.4,0.8-0.7,1.6-0.8,2.4c-0.1,0.9,0,1.7,0.2,2.5
		c0.2,0.9,0.6,1.6,1.2,2.3c0.5,0.7,1.2,1.3,1.9,1.7c1.1,0.6,2.3,1,3.6,1c0.2,0,0.3,0,0.5,0c1-0.1,2.1-0.4,2.9-1
		c0.9-0.6,1.6-1.4,2.1-2.3l0.4-0.8c1.1-1.9,2.2-3.9,3.3-5.8l0.4-0.7c0.8-1.4,1.6-2.9,2.5-4.4c0.4,0.5,0.7,1,1.1,1.5
		c0.6,0.8,1.1,1.6,1.7,2.4c1,1.5,2.1,2.9,3.2,4.4l1.4,1.9c0.7,1,1.7,1.7,2.8,2.2c1,0.5,2.2,0.7,3.3,0.6c1.2-0.1,2.3-0.5,3.2-1.2
		c0.7-0.5,1.3-1.1,1.7-1.9c0.4-0.7,0.7-1.6,0.8-2.4c0.1-0.9,0.1-1.8-0.1-2.6C888.4,543.7,888,542.9,887.5,542.2z"/>
	<path d="M919.2,528.1c0-1.2-0.1-2.3-0.2-3.5c-0.3-3.3-0.9-6.5-2-9.6c-1-3.1-2.4-6.2-4.1-9c-1.8-3-4-5.8-6.5-8.3
		c-2.4-2.4-5.2-4.4-8.2-6c-0.8-0.4-1.6-0.7-2.5-0.8c-0.9-0.1-1.8,0-2.6,0.2c-0.8,0.2-1.6,0.6-2.3,1.2c-0.7,0.5-1.2,1.2-1.5,2
		c-0.4,0.8-0.6,1.6-0.7,2.5c-0.1,0.9,0.1,1.7,0.3,2.5c0.3,0.9,0.7,1.6,1.3,2.3c0.6,0.7,1.3,1.2,2.1,1.5c1.8,1,3.5,2.3,5,3.8
		c1.6,1.6,3,3.3,4.1,5.2c1.2,2,2.2,4.1,2.9,6.3c0.7,2.2,1.2,4.6,1.4,6.9c0.1,1.9,0.1,3.8,0,5.7c-0.1,2.1-0.5,4.2-1.1,6.2
		c-0.6,1.9-1.5,3.7-2.6,5.3c-1.1,1.4-2.6,2.5-4.3,3c-0.8,0.3-1.6,0.7-2.2,1.2c-0.7,0.6-1.2,1.3-1.5,2c-0.4,0.8-0.6,1.6-0.7,2.5
		c0,0.9,0.1,1.7,0.4,2.5c0.5,1.5,1.5,2.7,2.8,3.5c1.1,0.7,2.4,1,3.7,1c0.2,0,0.3,0,0.5,0l0.6,0l0.1,0c0.3,0,0.6-0.1,0.9-0.2
		c6.7-2.2,11.6-7.1,14.5-14.7c0.7-1.8,1.2-3.6,1.5-5.5c0.3-1.8,0.6-3.5,0.7-5.1C919.2,531.1,919.2,529.6,919.2,528.1z"/>
</g>
      
    </g>
    </svg>