<svg
      xmlns="http://www.w3.org/2000/svg"
      preserveAspectRatio="xMidYMin meet"
      fill="none"
      viewBox="0 0 1500 1500"
    >
      <g>
      <path fill="url(#prefix__paint0_linear_53_28788)" d="M0 0h1500v1500H0z"/><defs><linearGradient id="prefix__paint0_linear_53_28788" x1="0" y1="0" x2="1500" y2="1500" gradientUnits="userSpaceOnUse">
<stop stop-color="#DBE4E4"/>
<stop offset="1" stop-color="#A7BDBD"/>
</linearGradient></defs>
      <g clip-path="url(#clip0_483_439)">
<path d="M773 1011.5C543.4 1029.9 398.667 1353.5 355 1513H1138.5C1075.7 1127 868.667 1017.83 773 1011.5Z" fill="#AABBFF"/>
<path d="M661.5 1284C651.1 1208.4 559.5 1181.83 515 1178C583.5 1088.5 654 1030.5 768.5 1008.5C860.1 990.9 976.333 1131.17 1023 1203.5L1007 1267.5L1011.5 1323.5L1036 1427.5L1054 1508H654V1457C660.833 1430.83 671.9 1359.6 661.5 1284Z" fill="#FF6247"/>
<path d="M691 1281C658 1185.5 577 1152.5 538.5 1150.5L517.5 1174L607.5 1204L647.5 1259L674.5 1331.5L657 1443.5L652 1506.5H685C684.752 1490.12 685.132 1463.27 685.975 1439.63C686.843 1415.25 692.482 1391.39 696.842 1367.39C704.309 1326.28 698.07 1301.46 691 1281Z" fill="white"/>
<path d="M982.5 1303C973.3 1248.2 991.333 1198.5 1001.5 1180.5L1024 1199.5L1011.5 1239.5L1015 1315L1041.5 1437.5L1050 1506.5H1024C1012.5 1395 994 1371.5 982.5 1303Z" fill="white"/>
<path d="M834 1189C756.4 1183.4 696 1082 675.5 1032L711 1023.5L721.5 1044.5L774 1117.5L824 1142.5C856.4 1133.7 870.167 1075.83 873 1048C885.333 1054 910.6 1066.5 913 1068.5C915.4 1070.5 902.667 1102 896 1117.5L868 1164.5L834 1189Z" fill="white"/>
<path d="M749.5 1019.5C536 1134 457.448 1414.63 443.159 1511H353.699C350.414 1508.73 357.049 1471.27 409.87 1339.62C462.691 1207.98 569.086 1113.24 605.384 1082.33L674 1033.5L749.5 1019.5Z" fill="#001647" fill-opacity="0.2"/>
<path d="M818.5 1143.5C778.1 1131.9 731.667 1054 713.5 1016.5L795.5 1019.5L872 1043L854 1126.5L818.5 1143.5Z" fill="#AABBFF"/>
<path d="M353.5 1519.5C365.5 1454.33 414.5 1313.6 483.5 1219C530.101 1155.11 577.468 1101.29 629.141 1059.66C710.278 994.299 826.037 996.323 905.02 1064.27C1000.08 1146.05 1103.44 1290.29 1142.5 1519.5M1050.5 1519.5C1048.1 1443.9 1024.83 1354.33 1013.5 1319C999.5 1268 1009.7 1225.3 1020.5 1204.5M653.5 1519.5C650.3 1467.1 661.167 1392.33 667 1361.5C674 1324.5 668 1288.8 642 1250C609.5 1201.5 554.5 1171 517 1179.5M716.5 1021C729.247 1059.57 769.06 1137.84 826.826 1144.38C827.577 1144.46 828.321 1144.26 828.913 1143.79C845.329 1130.77 875.856 1093.54 873.5 1042.5M682 1039C700.209 1094.08 754.185 1179.21 836.775 1187.88C837.527 1187.96 838.267 1187.76 838.866 1187.3C859.814 1171.19 904.649 1131.93 911.953 1072" stroke="black" stroke-width="22" stroke-linecap="round"/>
<path d="M888.198 1393C886.25 1395.6 883.612 1397.6 880.584 1398.77C877.454 1400.17 874.061 1400.87 870.636 1400.83L867.94 1376.85C873.169 1376.06 878.147 1374.07 882.486 1371.04C887.013 1368.1 890.363 1363.66 891.95 1358.5L915.977 1359.01L932.815 1509.56L901.132 1508.88L888.198 1393Z" fill="white"/>
<path d="M801.438 1500.84C793.883 1493.52 789.375 1483.22 787.915 1469.93L780.467 1402.1C778.917 1387.88 780.995 1377.11 786.704 1369.79C792.412 1362.47 801.771 1358.95 814.781 1359.23C827.865 1359.52 838.086 1363.46 845.446 1371.06C852.806 1378.66 857.266 1389.57 858.827 1403.79L866.275 1471.62C867.744 1485.01 865.482 1495.2 859.491 1502.18C853.5 1509.16 844.195 1512.5 831.575 1512.21C819.066 1511.94 809.021 1508.15 801.438 1500.84ZM833.509 1481.65C834.689 1479.45 835.135 1476.93 834.78 1474.46L826.644 1400.34C826.167 1396.03 825.313 1392.72 824.096 1390.42C822.879 1388.13 820.76 1386.95 817.777 1386.89C814.795 1386.83 813.007 1387.92 812.301 1390.17C811.596 1392.42 811.533 1395.71 812.01 1400.02L820.145 1474.15C820.394 1476.78 821.353 1479.3 822.917 1481.42C823.534 1482.36 824.362 1483.14 825.334 1483.69C826.306 1484.24 827.393 1484.55 828.507 1484.59C829.538 1484.65 830.563 1484.4 831.458 1483.88C832.353 1483.35 833.079 1482.58 833.548 1481.65L833.509 1481.65Z" fill="white"/>
<path d="M903.576 1276.75C902.196 1276.75 901.23 1275.39 901.687 1274.08L909.159 1252.81C909.713 1251.23 911.84 1250.99 912.735 1252.4L935.336 1288.03C935.707 1288.61 936.353 1288.96 937.045 1288.96L946.363 1288.86C947.926 1288.85 948.868 1287.13 948.037 1285.8L908.618 1222.93C907.728 1221.51 905.591 1221.75 905.036 1223.33L882.743 1286.81C882.283 1288.12 883.262 1289.49 884.649 1289.47L925.683 1289.07C927.251 1289.05 928.192 1287.32 927.352 1286L914.651 1265.96C913.756 1264.55 911.626 1264.79 911.074 1266.37L907.908 1275.41C907.628 1276.21 906.872 1276.74 906.023 1276.74L903.576 1276.75Z" fill="white"/>
</g>
<defs>
<clipPath id="clip0_483_439">
<rect width="1500" height="1500" fill="white"/>
</clipPath>
</defs>
      <g clip-path="url(#clip0_497_1194)">
<path d="M379.667 654.812C432.345 471.574 618.472 401.981 699.114 390.653C740.985 382.718 849.655 375.215 949.364 408.675C980 418.956 1049.88 457.388 1091.92 499.818C1144.47 552.856 1272.97 732.052 1185.05 927.725C1097.12 1123.4 758.414 1092.29 612.749 1051.82C464.472 1010.63 314.48 881.563 379.667 654.812Z" fill="#AABBFF"/>
<path d="M449.293 747.204C454.734 531.068 585.306 432.345 649.911 410C432.292 459.565 365.296 655.455 364 747.204C377.99 984.871 584.496 1053.43 681 1058C601.498 1044.46 443.853 963.339 449.293 747.204Z" fill="#001647" fill-opacity="0.2"/>
<path d="M379.667 654.812C432.345 471.574 618.472 401.981 699.114 390.653C740.985 382.718 849.655 375.215 949.364 408.675C980 418.956 1049.88 457.388 1091.92 499.818C1144.47 552.856 1272.97 732.052 1185.05 927.725C1097.12 1123.4 758.414 1092.29 612.749 1051.82C464.472 1010.63 314.48 881.563 379.667 654.812Z" stroke="black" stroke-width="22" stroke-linecap="round"/>
</g>
<defs>
    <clipPath id="prefix__clip0_299_662"><path fill="#fff" d="M0 0h1500v1500H0z"/></clipPath>
</defs>
      <g clip-path="url(#clip0_624_3503)">
<path d="M820.579 731.479C807.38 731.491 794.726 736.74 785.393 746.073C776.06 755.406 770.811 768.06 770.799 781.259C770.855 783.107 771.629 784.86 772.957 786.148C774.284 787.435 776.06 788.155 777.909 788.155C779.758 788.155 781.534 787.435 782.861 786.148C784.188 784.86 784.962 783.107 785.019 781.259C784.954 776.549 785.826 771.872 787.584 767.502C789.342 763.132 791.951 759.154 795.259 755.8C798.567 752.446 802.509 749.783 806.855 747.966C811.201 746.148 815.865 745.212 820.575 745.212C825.286 745.212 829.95 746.148 834.296 747.966C838.642 749.783 842.584 752.446 845.892 755.8C849.2 759.154 851.809 763.132 853.567 767.502C855.325 771.872 856.197 776.549 856.132 781.259C856.132 786.917 853.885 792.343 849.884 796.344C845.883 800.345 840.457 802.592 834.799 802.592C829.141 802.592 823.715 800.345 819.714 796.344C815.713 792.343 813.465 786.917 813.465 781.259C813.438 780.308 813.599 779.361 813.939 778.472C814.284 777.582 814.806 776.77 815.472 776.086C816.302 775.229 817.335 774.595 818.474 774.243C819.613 773.89 820.823 773.83 821.992 774.067C823.161 774.305 824.251 774.833 825.162 775.603C826.073 776.373 826.776 777.36 827.205 778.472C827.551 779.36 827.714 780.307 827.686 781.259C827.686 783.146 828.435 784.955 829.769 786.289C831.103 787.623 832.912 788.372 834.799 788.372C836.685 788.372 838.495 787.623 839.829 786.289C841.163 784.955 841.912 783.146 841.912 781.259C841.912 775.601 839.665 770.175 835.664 766.174C831.663 762.173 826.237 759.926 820.579 759.926C814.921 759.926 809.495 762.173 805.494 766.174C801.493 770.175 799.245 775.601 799.245 781.259C799.245 790.688 802.991 799.731 809.659 806.399C816.326 813.067 825.369 816.812 834.799 816.812C844.228 816.812 853.271 813.067 859.939 806.399C866.606 799.731 870.352 790.688 870.352 781.259C870.34 768.062 865.092 755.408 855.761 746.075C846.429 736.743 833.776 731.493 820.579 731.479Z" fill="black" stroke="black" stroke-width="5"/>
<path d="M1011.91 731.479C998.714 731.491 986.06 736.74 976.727 746.073C967.394 755.406 962.145 768.06 962.133 781.259C962.189 783.107 962.963 784.86 964.29 786.148C965.618 787.435 967.394 788.155 969.243 788.155C971.092 788.155 972.868 787.435 974.195 786.148C975.522 784.86 976.296 783.107 976.353 781.259C976.288 776.549 977.16 771.872 978.918 767.502C980.676 763.132 983.285 759.154 986.593 755.8C989.901 752.446 993.843 749.783 998.189 747.966C1002.53 746.148 1007.2 745.212 1011.91 745.212C1016.62 745.212 1021.28 746.148 1025.63 747.966C1029.98 749.783 1033.92 752.446 1037.23 755.8C1040.53 759.154 1043.14 763.132 1044.9 767.502C1046.66 771.872 1047.53 776.549 1047.47 781.259C1047.47 786.917 1045.22 792.343 1041.22 796.344C1037.22 800.345 1031.79 802.592 1026.13 802.592C1020.47 802.592 1015.05 800.345 1011.05 796.344C1007.05 792.343 1004.8 786.917 1004.8 781.259C1004.76 780.067 1005.02 778.884 1005.56 777.82C1006.1 776.756 1006.9 775.845 1007.89 775.171C1008.87 774.497 1010.01 774.081 1011.2 773.963C1012.38 773.844 1013.58 774.026 1014.68 774.492C1015.56 774.864 1016.36 775.41 1017.02 776.097C1017.68 776.785 1018.2 777.599 1018.54 778.492C1018.88 779.38 1019.05 780.327 1019.02 781.279C1019.02 783.166 1019.77 784.975 1021.1 786.309C1022.44 787.643 1024.25 788.392 1026.13 788.392C1028.02 788.392 1029.83 787.643 1031.16 786.309C1032.5 784.975 1033.25 783.166 1033.25 781.279C1033.25 775.621 1031 770.195 1027 766.194C1023 762.193 1017.57 759.946 1011.91 759.946C1006.25 759.946 1000.83 762.193 996.828 766.194C992.827 770.195 990.579 775.621 990.579 781.279C990.579 790.708 994.325 799.751 1000.99 806.419C1007.66 813.087 1016.7 816.832 1026.13 816.832C1035.56 816.832 1044.61 813.087 1051.27 806.419C1057.94 799.751 1061.69 790.708 1061.69 781.279C1061.67 768.081 1056.43 755.428 1047.09 746.095C1037.76 736.763 1025.11 731.513 1011.91 731.499V731.479Z" fill="black" stroke="black" stroke-width="5"/>
<path d="M921.5 970C930.895 970 940.078 967.214 947.89 961.995C955.701 956.775 961.789 949.357 965.384 940.677C968.979 931.998 969.92 922.447 968.087 913.233C966.254 904.019 961.731 895.555 955.088 888.912C948.445 882.269 939.981 877.746 930.767 875.913C921.553 874.08 912.002 875.021 903.323 878.616C894.643 882.211 887.225 888.299 882.005 896.11C876.786 903.922 874 913.105 874 922.5C874 928.738 875.229 934.914 877.616 940.677C880.003 946.44 883.502 951.677 887.912 956.088C892.323 960.498 897.56 963.997 903.323 966.384C909.085 968.771 915.262 970 921.5 970Z" fill="white" stroke="black" stroke-width="22" stroke-miterlimit="10" stroke-linecap="round"/>
</g>
<defs>
<clipPath id="clip0_624_3503">
<rect width="1500" height="1500" fill="white"/>
</clipPath>
</defs>
      <g clip-path="url(#clip0_875_2769)">
<path d="M1110 707V803.467H1089.72V823.747H1069.45V844H968.001V823.747H947.721V803.467H927.407V732.688H906.127V803.467H885.848V823.747H865.568V844H764.121V823.747H743.814V803.467H723.534V732.688H633.959V750.944H611V707H1110Z" fill="black"/>
<path d="M1009 804H988V824H1009V804Z" fill="white"/>
<path d="M988 783H968V804H988V783Z" fill="white"/>
<path d="M968 763H948V783H968V763Z" fill="white"/>
<path d="M805 804H784V824H805V804Z" fill="white"/>
<path d="M784 783H764V804H784V783Z" fill="white"/>
<path d="M764 763H744V783H764V763Z" fill="white"/>
</g>
<defs>
<clipPath id="clip0_875_2769">
<rect width="1500" height="1500" fill="white"/>
</clipPath>
</defs>
      <g clip-path="url(#clip0_798_1964)">
<path d="M711.94 381.541L669.138 415.004L754.914 456.956C786.09 456.451 856.04 454.579 886.429 451.127C916.817 447.675 946.703 430.594 957.848 422.485L912.882 387.272L890.772 360.146L852.07 352.844L816.711 388.83L811.119 369.892L779.2 357.196L748.101 362.456L711.94 381.541Z" fill="#AABBFF"/>
<path d="M754.823 451.145C758.386 440.393 766.661 423.631 780.081 411.559M882.17 449.083C878.062 439.675 870.922 425.659 859.411 414.501M670.743 416.037C678.291 403.405 696.028 378.1 722.448 377.672C724.832 377.634 727.122 377.712 729.323 377.895M780.081 411.559C789.433 403.145 801.285 397.009 815.783 396.774C818.147 396.736 820.438 396.825 822.658 397.03M780.081 411.559C771.884 400.903 758.35 380.305 729.323 377.895M953.095 422.563C946.826 410.677 929.573 387.795 908.089 385.052M859.411 414.501C864.186 404.755 879.655 385.169 903.328 384.785C904.936 384.759 906.524 384.852 908.089 385.052M859.411 414.501C850.192 405.565 838.17 398.463 822.658 397.03M729.323 377.895C734.108 368.72 747.587 350.309 768.512 349.97C795.461 349.534 817.557 375.809 822.658 397.03M908.089 385.052C903.334 374.267 889.367 351.713 871.612 352C849.419 352.36 832.274 370.674 822.592 392.964" stroke="black" stroke-width="22" stroke-linecap="round"/>
<path d="M734.247 487.127C733.447 492.759 720.564 594.052 812.718 612.46" stroke="black" stroke-width="21" stroke-linecap="round"/>
<path d="M945.288 493.324C944.488 498.956 931.605 600.249 1023.76 618.657" stroke="black" stroke-width="21" stroke-linecap="round"/>
<path d="M735.561 507.67C736.849 505.281 738.788 503.246 741.189 501.767C818.004 453.586 826.066 335.697 827.014 298.636C827.033 297.871 827.304 297.132 827.79 296.517C828.275 295.902 828.954 295.44 829.734 295.193C830.514 294.946 831.358 294.926 832.155 295.135C832.952 295.344 833.663 295.772 834.194 296.363C912.888 383.77 897.815 466.178 888.628 495.666C886.199 503.464 883.195 511.005 879.833 518.449C869.807 540.653 842.318 588.978 788.15 603.647C751.553 591.291 732.29 544.604 733.84 515.4C733.679 512.724 734.272 510.06 735.561 507.67Z" fill="#FF6247" stroke="black" stroke-width="20" stroke-miterlimit="10"/>
<path d="M833.002 305.604C891.142 432.863 797.767 523.043 743.812 552.226L734.239 506.154L750.853 495.018L785.661 461.816L808.807 412.473L825.13 340.737L833.002 305.604Z" fill="#001647" fill-opacity="0.2"/>
<path d="M946.602 513.867C947.89 511.477 949.829 509.443 952.23 507.963C1029.04 459.783 1037.11 341.893 1038.06 304.832C1038.07 304.068 1038.34 303.329 1038.83 302.713C1039.32 302.098 1039.99 301.636 1040.77 301.389C1041.55 301.142 1042.4 301.122 1043.2 301.331C1043.99 301.54 1044.7 301.968 1045.23 302.559C1123.93 389.966 1108.86 472.375 1099.67 501.862C1097.24 509.661 1094.24 517.201 1090.87 524.645C1080.85 546.849 1053.36 595.174 999.191 609.843C962.594 597.487 943.331 550.801 944.881 521.596C944.72 518.92 945.313 516.256 946.602 513.867Z" fill="#FF6247" stroke="black" stroke-width="20" stroke-miterlimit="10"/>
<path d="M1044.04 311.801C1102.18 439.059 1008.81 529.239 954.853 558.422L945.28 512.35L961.894 501.215L996.702 468.012L1019.85 418.669L1036.17 346.933L1044.04 311.801Z" fill="#001647" fill-opacity="0.2"/>
</g>
<defs>
<clipPath id="clip0_798_1964">
<rect width="1500" height="1500" fill="white"/>
</clipPath>
</defs>
      
    </g>
    </svg>