<svg
      xmlns="http://www.w3.org/2000/svg"
      preserveAspectRatio="xMidYMin meet"
      fill="none"
      viewBox="0 0 1500 1500"
    >
      <g>
      <path fill="url(#prefix__paint0_linear_53_28788)" d="M0 0h1500v1500H0z"/><defs><linearGradient id="prefix__paint0_linear_53_28788" x1="0" y1="0" x2="1500" y2="1500" gradientUnits="userSpaceOnUse">
<stop stop-color="#DBE4E4"/>
<stop offset="1" stop-color="#A7BDBD"/>
</linearGradient></defs>
      <g clip-path="url(#clip0_493_759)">
<path d="M773 1011.5C543.4 1029.9 398.667 1353.5 355 1513H1138.5C1075.7 1127 868.667 1017.83 773 1011.5Z" fill="#AABBFF"/>
<path d="M353.699 1511C350.414 1508.73 357.049 1471.27 409.87 1339.62C436.322 1273.7 476.209 1217.03 514 1173L524 1176.5L570.032 1188.5C488.342 1309.97 452.378 1448.83 443.159 1511H353.699Z" fill="#001647" fill-opacity="0.2"/>
<path d="M665.5 1302.5C658.3 1195.7 560.833 1178.67 513 1183.5L587.5 1096L665.5 1040L704 1029.5C714 1075.5 753 1164.5 822 1164.5C877.2 1164.5 900.333 1094.5 905 1059.5L1021 1201.5L1016.5 1236V1287L1028.5 1354L1043.5 1423L1047.5 1509.5H650V1503C658.167 1480.67 672.7 1409.3 665.5 1302.5Z" fill="#3A3A3A"/>
<path d="M523.498 1182C523.498 1182 505.499 1187.8 513.14 1174C541.445 1122.86 587.125 1097.88 605.383 1082.33L673.999 1033.5L749.499 1019.5C673.998 1059.99 615.374 1121.26 570.499 1187.8H570.498L523.498 1182Z" fill="black" fill-opacity="0.2"/>
<path d="M933.223 1272.02L937.932 1261.68L954.916 1287.26L955.318 1292.17L952.556 1258.38C952.5 1257.97 952.361 1257.57 952.148 1257.22C951.935 1256.87 951.653 1256.57 951.324 1256.36L923.078 1239.35C922.758 1239.18 922.407 1239.09 922.052 1239.09C921.696 1239.09 921.346 1239.18 921.025 1239.35C920.943 1239.4 920.864 1239.45 920.789 1239.5L920.701 1239.57L895.946 1256.2L895.849 1256.25C895.719 1256.32 895.596 1256.41 895.482 1256.51C895.254 1256.7 895.065 1256.95 894.928 1257.22C894.79 1257.5 894.707 1257.81 894.683 1258.12C894.677 1258.22 894.677 1258.32 894.683 1258.42L896.932 1285.96L908.934 1262.25C910.433 1259.11 914.167 1258.09 917.712 1258.15L921.877 1258.26L900.858 1301.46L903.892 1303.28L925.062 1258.29L936.011 1258.25L914.997 1304.37L925.824 1310.89L927.117 1311.67C927.647 1311.9 928.235 1311.91 928.773 1311.7L954.632 1294.33L949.695 1297.66L933.223 1272.02ZM938.026 1305.5L926.181 1287.55L931.577 1275.69L947.138 1299.37L938.026 1305.5Z" fill="#2D374B"/>
<path d="M926.181 1287.54L938.026 1305.48L947.138 1299.37L931.573 1275.68L926.181 1287.54Z" fill="#28A0F0"/>
<path d="M955.321 1292.16L954.919 1287.26L937.934 1261.68L933.221 1272.01L949.695 1297.66L954.642 1294.34C954.879 1294.11 955.066 1293.83 955.189 1293.51C955.311 1293.19 955.367 1292.84 955.351 1292.49L955.321 1292.16Z" fill="#28A0F0"/>
<path d="M893.126 1296.79L900.86 1301.46L921.878 1258.26L917.714 1258.14C914.167 1258.09 910.435 1259.1 908.936 1262.24L896.934 1285.96L892.892 1293.86L893.129 1296.8L893.126 1296.79Z" fill="white"/>
<path d="M936.023 1258.26L925.071 1258.3L903.904 1303.29L913.006 1308.77L915.009 1304.38L936.023 1258.26Z" fill="white"/>
<path d="M957.205 1258.19C957.036 1256.92 956.608 1255.7 955.953 1254.63C955.298 1253.57 954.433 1252.67 953.422 1252.02L924.807 1234.8C923.835 1234.27 922.766 1234 921.683 1234C920.599 1234 919.531 1234.27 918.559 1234.8C918.341 1234.93 893.432 1251.68 893.432 1251.68C892.347 1252.27 891.444 1253.21 890.836 1254.36C890.228 1255.52 889.941 1256.85 890.01 1258.18L892.888 1293.86L896.93 1285.95L894.681 1258.42C894.668 1258.06 894.736 1257.69 894.877 1257.36C895.018 1257.03 895.228 1256.73 895.492 1256.51C895.608 1256.41 920.945 1239.41 921.032 1239.36C921.353 1239.19 921.703 1239.11 922.059 1239.11C922.414 1239.11 922.765 1239.19 923.085 1239.36L951.331 1256.37C951.66 1256.59 951.942 1256.88 952.155 1257.23C952.368 1257.58 952.508 1257.98 952.563 1258.4L955.302 1292.5C955.327 1292.84 955.282 1293.18 955.168 1293.5C955.055 1293.83 954.876 1294.11 954.647 1294.35L949.692 1297.66L947.143 1299.38L938.024 1305.51L928.777 1311.71C928.24 1311.92 927.652 1311.91 927.122 1311.68L915.004 1304.38L913.001 1308.77L923.894 1315.34C924.253 1315.55 924.573 1315.74 924.84 1315.9C925.247 1316.13 925.523 1316.3 925.62 1316.35C926.506 1316.76 927.458 1316.97 928.42 1316.97C929.275 1316.98 930.122 1316.8 930.915 1316.45L957.78 1298.41C958.529 1297.71 959.119 1296.83 959.502 1295.83C959.885 1294.84 960.051 1293.75 959.986 1292.68L957.205 1258.19Z" fill="#8BBFDF"/>
<path d="M353.5 1519.5C365.5 1454.33 414.5 1313.6 483.5 1219C530.101 1155.11 577.468 1101.29 629.141 1059.66C710.278 994.299 826.037 996.323 905.02 1064.27C1000.08 1146.05 1103.44 1290.29 1142.5 1519.5M1050.5 1519.5C1048.1 1443.9 1024.83 1354.33 1013.5 1319C999.5 1268 1009.7 1225.3 1020.5 1204.5M653.5 1519.5C650.3 1467.1 661.167 1392.33 667 1361.5C674 1324.5 668 1288.8 642 1250C609.5 1201.5 554.5 1171 517 1179.5M709 1016C709 1064.17 732.1 1164.5 824.5 1164.5C884 1164.5 902.33 1109.22 895.355 1059.5" stroke="black" stroke-width="22" stroke-linecap="round"/>
</g>
<defs>
<clipPath id="clip0_493_759">
<rect width="1500" height="1500" fill="white"/>
</clipPath>
</defs>
      <g clip-path="url(#clip0_497_1194)">
<path d="M379.667 654.812C432.345 471.574 618.472 401.981 699.114 390.653C740.985 382.718 849.655 375.215 949.364 408.675C980 418.956 1049.88 457.388 1091.92 499.818C1144.47 552.856 1272.97 732.052 1185.05 927.725C1097.12 1123.4 758.414 1092.29 612.749 1051.82C464.472 1010.63 314.48 881.563 379.667 654.812Z" fill="#AABBFF"/>
<path d="M449.293 747.204C454.734 531.068 585.306 432.345 649.911 410C432.292 459.565 365.296 655.455 364 747.204C377.99 984.871 584.496 1053.43 681 1058C601.498 1044.46 443.853 963.339 449.293 747.204Z" fill="#001647" fill-opacity="0.2"/>
<path d="M379.667 654.812C432.345 471.574 618.472 401.981 699.114 390.653C740.985 382.718 849.655 375.215 949.364 408.675C980 418.956 1049.88 457.388 1091.92 499.818C1144.47 552.856 1272.97 732.052 1185.05 927.725C1097.12 1123.4 758.414 1092.29 612.749 1051.82C464.472 1010.63 314.48 881.563 379.667 654.812Z" stroke="black" stroke-width="22" stroke-linecap="round"/>
</g>
<defs>
    <clipPath id="prefix__clip0_299_662"><path fill="#fff" d="M0 0h1500v1500H0z"/></clipPath>
</defs>
      <g clip-path="url(#clip0_624_3522)">
<path d="M822 818C849.062 818 871 796.062 871 769C871 741.938 849.062 720 822 720C794.938 720 773 741.938 773 769C773 796.062 794.938 818 822 818Z" fill="white" stroke="black" stroke-width="20" stroke-miterlimit="10"/>
<path d="M1012 818C1039.06 818 1061 796.062 1061 769C1061 741.938 1039.06 720 1012 720C984.938 720 963 741.938 963 769C963 796.062 984.938 818 1012 818Z" fill="white" stroke="black" stroke-width="20" stroke-miterlimit="10"/>
<path d="M809 770C816.18 770 822 764.18 822 757C822 749.82 816.18 744 809 744C801.82 744 796 749.82 796 757C796 764.18 801.82 770 809 770Z" fill="black"/>
<path d="M1024 770C1031.18 770 1037 764.18 1037 757C1037 749.82 1031.18 744 1024 744C1016.82 744 1011 749.82 1011 757C1011 764.18 1016.82 770 1024 770Z" fill="black"/>
<path d="M988.653 885.957H855.227C854.074 885.957 852.968 886.415 852.153 887.23C851.338 888.045 850.88 889.151 850.88 890.303C850.88 909.026 858.317 926.982 871.556 940.221C884.795 953.46 902.751 960.897 921.474 960.897H922.406C941.129 960.897 959.085 953.46 972.324 940.221C985.562 926.982 993 909.026 993 890.303C993 889.151 992.542 888.045 991.727 887.23C990.912 886.415 989.806 885.957 988.653 885.957Z" fill="white" stroke="black" stroke-width="20" stroke-miterlimit="10"/>
</g>
<defs>
<clipPath id="clip0_624_3522">
<rect width="1500" height="1500" fill="white"/>
</clipPath>
</defs>
      <g clip-path="url(#clip0_911_278)">
<path d="M741 865.42V871.56C741.01 872.669 740.781 873.767 740.33 874.78C739.07 877.64 736.99 877.78 736.99 877.78C735.893 878.033 734.754 878.046 733.651 877.818C732.548 877.59 731.507 877.127 730.6 876.46C727.96 874.35 721.36 856.25 721.36 856.25L708.65 876.46H700L717.8 848.25L712.21 836.66C711.84 835.888 711.265 835.233 710.547 834.767C709.828 834.301 708.996 834.043 708.14 834.02H708C707.225 833.94 706.442 834.054 705.721 834.351C705.001 834.647 704.365 835.118 703.87 835.72C702.98 836.61 702.66 839.5 702.66 839.5L700.88 839.63C700.634 837.881 700.59 836.109 700.75 834.35C700.862 833.001 701.324 831.705 702.09 830.59C702.61 829.783 703.325 829.12 704.169 828.664C705.014 828.208 705.96 827.972 706.92 827.98C708.535 827.979 710.11 828.479 711.43 829.41C712.762 830.35 713.801 831.646 714.43 833.15L719.69 846.2L731.13 828.8H739L723.2 853.31L727.14 862.63C727.14 862.63 730.14 871.63 734.45 871.63C738.76 871.63 739.16 865.41 739.16 865.41L741 865.42Z" fill="black"/>
</g>
<defs>
<clipPath id="clip0_911_278">
<rect width="1500" height="1500" fill="white"/>
</clipPath>
</defs>
      <g clip-path="url(#clip0_771_720)">
<path d="M711.94 381.541L669.138 415.004L754.914 456.956C786.09 456.451 856.04 454.579 886.429 451.127C916.817 447.675 946.703 430.594 957.848 422.485L912.882 387.272L890.772 360.146L852.07 352.844L816.711 388.83L811.119 369.892L779.2 357.196L748.101 362.456L711.94 381.541Z" fill="#AABBFF"/>
<path d="M754.823 451.145C758.386 440.393 766.661 423.631 780.081 411.559M882.17 449.083C878.062 439.675 870.922 425.659 859.411 414.501M670.743 416.037C678.291 403.405 696.028 378.1 722.448 377.672C724.832 377.634 727.122 377.712 729.323 377.895M780.081 411.559C789.433 403.145 801.285 397.009 815.783 396.774C818.147 396.736 820.438 396.825 822.658 397.03M780.081 411.559C771.884 400.903 758.35 380.305 729.323 377.895M953.095 422.563C946.826 410.677 929.573 387.795 908.089 385.052M859.411 414.501C864.186 404.755 879.655 385.169 903.328 384.785C904.936 384.759 906.524 384.852 908.089 385.052M859.411 414.501C850.192 405.565 838.17 398.463 822.658 397.03M729.323 377.895C734.108 368.72 747.587 350.309 768.512 349.97C795.461 349.534 817.557 375.809 822.658 397.03M908.089 385.052C903.334 374.267 889.367 351.713 871.612 352C849.419 352.36 832.274 370.674 822.592 392.964" stroke="black" stroke-width="22" stroke-linecap="round"/>
<path d="M1103.59 496.138L1064.83 470.767L918.277 453.082L717.83 462.897L564.043 488.81L473.802 509.162L432.463 530.557C427.326 540.555 410.416 567.861 383.877 597.11C357.337 626.358 364.717 653.231 371.724 663.012L491.329 670.53L751.551 667.073L941.615 655.067L1235.72 646.253L1259.18 641.824L1259.41 620.509L1253.17 620.443L1232.44 612.422C1223.45 609.38 1203.3 602.44 1194.59 599.019C1183.71 594.743 1177.48 593.637 1172.3 590.982C1168.16 588.858 1163.37 583.087 1161.49 580.467L1128.16 534.356L1103.59 496.138Z" fill="#4AEEB9"/>
<path d="M622.052 479.916C558.127 548.416 530.33 633.769 524.422 667.883L371.158 664.173C370.181 658.294 371.858 637.563 386.377 601.677C400.896 565.791 441.864 531.672 460.534 519.098L526.282 493.909L622.052 479.916Z" fill="#001647" fill-opacity="0.2"/>
<path d="M828.432 570.673C985.504 558.495 1101.11 568.755 1155.27 574.168L1171.68 594.539C1141.39 592.316 1056.18 587.815 957.65 587.59C859.123 587.365 701.561 609.708 635.096 620.907C609.008 630.64 558.425 646.912 564.798 634.137C572.764 618.17 664.079 583.415 828.432 570.673Z" fill="#001647" fill-opacity="0.2"/>
<path d="M810.387 524.845C808.671 523.565 806.554 523.021 804.417 523.297C802.301 523.582 800.142 523.739 797.993 523.775C796.143 523.807 794.292 523.739 792.331 523.663L791.561 523.632C791.01 523.609 790.45 523.586 789.88 523.573C789.069 523.562 788.219 523.563 787.33 523.574L787.24 523.575C786.209 523.547 785.162 523.78 784.217 524.221C783.282 524.663 782.44 525.323 781.82 526.1C781.149 526.899 780.68 527.814 780.402 528.818C780.125 529.821 780.077 530.852 780.229 531.81C780.514 533.947 781.578 535.874 783.235 537.254C784.691 538.567 786.52 539.324 788.461 539.431C788.382 539.522 788.303 539.603 788.224 539.684L788.096 539.825C787.514 540.503 786.801 541.051 785.995 541.441C785.22 541.81 784.403 542.03 783.543 542.081C782.942 542.038 782.36 541.865 781.837 541.581C781.283 541.278 780.788 540.844 780.371 540.269C779.325 538.921 778.466 537.432 777.828 535.869C776.662 532.953 775.895 529.882 775.526 526.667C774.614 520.707 774.669 516.156 775.702 513.083C776.346 510.935 777.27 510.414 777.658 510.24C778.126 510.074 778.615 509.998 779.125 510.002C779.745 510.004 780.356 510.087 780.938 510.22C781.519 510.363 782.102 510.556 782.654 510.779C782.896 510.876 783.137 510.993 783.378 511.11C784.131 512.161 785.082 513.08 786.151 513.787C787.532 514.7 789.138 515.171 790.728 515.152C790.728 515.152 790.738 515.152 790.748 515.152C791.788 515.169 792.845 514.936 793.78 514.485C794.725 514.033 795.557 513.363 796.187 512.556C796.847 511.728 797.325 510.752 797.563 509.719C797.8 508.686 797.817 507.596 797.594 506.558C797.351 505.481 796.969 504.436 796.447 503.472C795.68 502.061 794.655 500.833 793.403 499.828C792.038 498.645 790.526 497.653 788.887 496.883C785.344 495.025 781.362 494.064 777.362 494.112C775.892 494.07 774.414 494.228 772.998 494.585C771.642 494.911 770.327 495.397 769.065 496.042C767.634 496.79 766.325 497.736 765.179 498.85C764.013 499.984 762.998 501.276 762.146 502.767C760.386 506.068 759.349 509.621 759.064 513.345C758.711 518.059 758.938 522.807 759.744 527.407C761.168 536.811 764.088 544.256 768.392 549.504C770.473 552.099 773.029 554.199 775.988 555.743C778.775 557.179 781.915 557.952 784.975 557.955L785.505 557.968C788.315 557.934 791.028 557.321 793.604 556.13C798.576 553.78 802.456 549.672 804.535 544.557C805.185 542.899 805.593 541.134 805.742 539.352C806.581 539.272 807.34 539.173 808.048 539.044C809.077 538.932 810.073 538.58 810.946 538.029C811.849 537.458 812.62 536.679 813.149 535.792C813.708 534.885 814.066 533.851 814.193 532.789C814.31 531.748 814.207 530.679 813.885 529.683C813.311 527.71 812.071 525.994 810.386 524.835L810.387 524.845Z" fill="black"/>
<path d="M862.849 542.021C861.182 540.661 859.094 540.017 856.957 540.203C854.998 540.366 853.19 540.498 851.431 540.599C849.412 540.714 847.383 540.798 845.354 540.863C843.634 540.924 841.795 540.956 839.545 540.973C838.635 540.984 837.715 540.975 836.804 540.926C836.731 540.657 836.657 540.388 836.574 540.119L836.522 539.93C836.239 538.883 835.873 537.587 835.522 535.821L835.458 535.522C835.086 533.677 834.661 531.582 834.323 529.296C833.953 526.79 833.569 524.024 833.184 521.089C832.875 518.682 832.595 516.225 832.345 513.778C832.106 511.391 831.891 509.293 831.729 507.465C831.557 505.657 831.45 504.228 831.366 503.139L831.282 501.97C831.27 501.79 831.258 501.651 831.247 501.561L831.246 501.411C831.1 499.302 830.186 497.343 828.668 495.871C827.2 494.329 825.218 493.383 823.116 493.198C822.064 493.101 820.996 493.224 820 493.576C819.004 493.928 818.091 494.499 817.359 495.198C816.588 495.928 815.989 496.845 815.631 497.839C815.273 498.844 815.156 499.925 815.289 500.954C815.301 501.103 815.337 501.613 815.397 502.452L815.445 503.082C815.541 504.471 815.693 506.259 815.89 508.457L816.609 515.839C816.883 518.626 817.248 521.541 817.693 524.446C818.165 527.921 818.664 531.125 819.148 533.949C819.569 536.514 820.12 539.088 820.78 541.55C821.138 543.016 821.534 544.341 821.938 545.516C822.322 546.622 822.775 547.707 823.267 548.741C823.894 550.083 824.719 551.323 825.641 552.352C826.534 553.431 827.605 554.339 828.844 555.034C829.72 555.523 830.664 555.882 831.557 556.071C831.727 556.119 831.978 556.166 832.299 556.222L832.85 556.325C833.271 556.41 833.792 556.474 834.433 556.556L835.294 556.666C836.376 556.803 837.637 556.857 839.237 556.918C840.528 556.962 842.028 556.984 843.698 556.964C844.108 556.959 844.528 556.954 844.968 556.949L846.917 556.875C847.597 556.867 848.337 556.818 849.126 556.758C850.386 556.733 851.705 556.677 853.185 556.599L856.572 556.368L859.96 556.147C860.999 556.075 862.025 555.762 862.919 555.242C863.823 554.721 864.604 553.991 865.164 553.154C865.773 552.277 866.181 551.262 866.358 550.22C866.526 549.187 866.473 548.108 866.191 547.101C865.686 545.087 864.504 543.282 862.849 542.021Z" fill="black"/>
<path d="M913.502 517.086C913.398 515.948 913.214 514.79 912.96 513.653L912.908 513.453C911.732 509.697 909.561 506.303 906.649 503.658C903.737 501.013 900.411 498.903 896.782 497.367C892.751 495.666 888.507 494.527 884.16 493.98C879.433 493.387 874.632 493.345 869.898 493.852C868.888 493.924 867.892 494.226 867.008 494.717C866.104 495.218 865.323 495.938 864.723 496.785C864.113 497.652 863.705 498.657 863.538 499.709C863.37 500.722 863.443 501.781 863.725 502.767C865.435 510.177 867.04 518.048 868.478 526.152C869.916 534.245 871.172 542.19 872.214 549.778C872.43 551.916 873.444 553.854 875.071 555.244C876.608 556.646 878.588 557.492 880.67 557.616L880.88 557.634L881.219 557.6L881.229 557.6C882.209 557.588 883.177 557.366 884.062 556.945C885.006 556.494 885.838 555.824 886.449 555.036C887.099 554.228 887.558 553.313 887.816 552.32C888.074 551.346 888.122 550.356 887.96 549.358C887.779 547.59 887.548 545.862 887.298 544.205C887.146 543.247 887.005 542.289 886.873 541.33C895.139 539.3 901.624 536.342 906.148 532.547C908.02 531.034 909.609 529.244 910.884 527.209C911.894 525.577 912.653 523.807 913.121 521.941C913.522 520.366 913.642 518.745 913.502 517.116L913.502 517.086ZM895.203 519.768C893.787 520.915 892.228 521.894 890.598 522.664C888.519 523.629 886.359 524.425 884.156 525.052C883.222 519.743 882.198 514.485 881.116 509.348C884.468 509.507 887.908 510.325 891.938 511.897C893.435 512.499 894.825 513.322 896.158 514.386C896.794 514.858 897.281 515.502 897.57 516.239C897.592 516.389 897.594 516.549 897.576 516.699C897.548 516.889 897.48 517.07 897.333 517.302C896.805 518.248 896.095 519.067 895.203 519.758L895.203 519.768Z" fill="black"/>
<path d="M1179.65 597.897C1179.65 597.897 1140.53 545.209 1112.68 509.833C1097.06 490.015 1074.55 476.794 1049.62 472.803C961.208 458.582 743.451 428.602 477.49 508.349C456.356 514.699 436.035 530.675 421.417 549.299C403.538 574.256 369.107 612.924 367.061 649.58C366.951 651.739 367.28 653.897 368.029 655.924C368.778 657.952 369.931 659.807 371.419 661.376C372.907 662.946 374.698 664.198 376.684 665.056C378.671 665.915 380.811 666.362 382.975 666.37L566.22 667.582" stroke="black" stroke-width="22" stroke-miterlimit="10"/>
<path d="M1255.58 617.753C1146.59 560.501 599.199 584.58 546.961 658.709C564.514 670.51 558.304 667.744 603.286 668.225C662.543 669.905 723.114 675.104 844.614 661.892C996.702 645.346 1152.12 645.302 1251.25 647.827C1269.18 648.291 1271.58 626.126 1255.58 617.753Z" stroke="black" stroke-width="22" stroke-miterlimit="10"/>
</g>
<defs>
<clipPath id="clip0_771_720">
<rect width="1500" height="1500" fill="white"/>
</clipPath>
</defs>
      
    </g>
    </svg>