<svg
      xmlns="http://www.w3.org/2000/svg"
      preserveAspectRatio="xMidYMin meet"
      fill="none"
      viewBox="0 0 1500 1500"
    >
      <g>
      <path fill="url(#prefix__paint0_linear_53_30459)" d="M0 0h1500v1500H0z"/><defs><linearGradient id="prefix__paint0_linear_53_30459" x1="0" y1="0" x2="1500" y2="1500" gradientUnits="userSpaceOnUse">
<stop stop-color="#FFCB9F"/>
<stop offset="1" stop-color="#FF7F11"/>
</linearGradient></defs>
      <g clip-path="url(#clip0_481_295)">
<path d="M380.5 1417.5L349.5 1509L1140 1510L1111 1376.5L1038 1230L991.5 1152C965.167 1110.5 892.5 1024.6 812.5 1013C732.5 1001.4 660.167 1039.17 634 1059.5L568.5 1115.5L465 1243.5L380.5 1417.5Z" fill="#265CC2"/>
<path d="M409.87 1339.62C462.691 1207.98 569.086 1113.24 605.384 1082.33L632.5 1058L637.5 1059.48C599.917 1079.63 651 1067.5 648.91 1093.5L659.5 1099.5L764.5 1175C714.1 1177.8 656.5 1131.81 634 1108.47C506.332 1241.92 454.501 1434.51 443.159 1511H353.699C350.414 1508.73 357.049 1471.27 409.87 1339.62Z" fill="#001647" fill-opacity="0.2"/>
<path d="M842 1179L826.5 1505H806L819 1213.5L824 1160.5L871.5 1156.5C874.333 1159.5 879.4 1166.7 877 1171.5C874.6 1176.3 852.667 1178.5 842 1179Z" fill="#001647" fill-opacity="0.2"/>
<path d="M804 1171.5L782.5 1505H798.5L817.5 1158L794 1147.5C788.667 1150.5 779.2 1157.3 784 1160.5C788.8 1163.7 799.333 1169.17 804 1171.5Z" fill="#001647" fill-opacity="0.2"/>
<path d="M887.5 1154.5C899.9 1168.5 916.667 1168.33 921 1167.5L899 1147.5L887.5 1154.5Z" fill="#001647" fill-opacity="0.2"/>
<path d="M550 1130.5L486 1207L466 1181.5L522.5 1113.5L550 1130.5Z" fill="#FFBF44"/>
<path d="M1014.5 1126.5L988.5 1145.5L1034 1215.5L1059.5 1197L1014.5 1126.5Z" fill="#FFBF44"/>
<path d="M821.5 1160L798 1507.5H936L875 1145L902.5 1139.5L842.5 1101L792 1145L821.5 1160Z" fill="#3A3A3A"/>
<path d="M353.5 1519.5C365.5 1454.33 414.5 1313.6 483.5 1219C529.307 1156.2 575.854 1103.13 626.504 1061.8M1142.5 1519.5C1103.44 1290.29 1000.08 1146.05 905.02 1064.27C826.037 996.323 710.273 994.302 629.137 1059.66C628.258 1060.37 627.38 1061.08 626.504 1061.8M1013.5 1319C1024.83 1354.33 1048.1 1443.9 1050.5 1519.5M667 1361.5C661.167 1392.33 650.3 1467.1 653.5 1519.5M926 1087C934.762 1114.34 929.833 1141.11 925.003 1154.27C924.105 1156.72 921.076 1157.36 919.054 1155.71C913.678 1151.34 905.408 1144.87 896 1137.66M793.42 1142.5C783.296 1151.26 773.753 1159.03 766.905 1164.4C766.012 1165.1 764.867 1165.39 763.753 1165.17C707.225 1153.99 651.021 1094.56 626.504 1061.8M793.42 1142.5C809.829 1128.31 827.763 1111.55 838.219 1098.32C839.228 1097.04 841.056 1096.75 842.381 1097.69C856.424 1107.73 878.238 1124.04 896 1137.66M793.42 1142.5C800.317 1146.99 810.966 1152 823.5 1154.93M896 1137.66C888.793 1144.19 881.197 1148.81 873.5 1151.94M823.5 1154.93L802 1508M823.5 1154.93C838.529 1158.44 856.268 1158.95 873.5 1151.94M873.5 1151.94L932.5 1508M490.5 1205L465.114 1181.08C464.759 1180.74 464.686 1180.22 464.956 1179.81C476.299 1162.78 502.545 1125.78 528.398 1111.33C528.762 1111.13 529.209 1111.18 529.524 1111.45L551.5 1130.5M985 1137.5L1007.7 1116.72C1008.13 1116.33 1008.79 1116.37 1009.15 1116.83C1022.41 1133.79 1048.09 1165.95 1060.15 1190.77C1060.36 1191.2 1060.22 1191.71 1059.83 1191.99L1034 1211.5" stroke="black" stroke-width="22" stroke-linecap="round"/>
<path d="M948.828 1225.43C949.312 1222.29 953.697 1221.96 954.654 1224.98L960.57 1243.69C960.99 1245.01 962.271 1245.88 963.66 1245.77L979.699 1244.54C982.357 1244.34 983.941 1247.44 982.216 1249.47L968.853 1265.21C968.185 1266 967.969 1267.08 968.28 1268.06L975.083 1289.57C975.995 1292.45 972.547 1294.72 970.259 1292.74L958.271 1282.36C957.01 1281.27 955.1 1281.42 954.02 1282.69L943.759 1294.78C941.801 1297.08 938.046 1295.37 938.507 1292.38L941.944 1270.08C942.101 1269.06 941.723 1268.03 940.943 1267.36L925.332 1253.84C923.316 1252.1 924.408 1248.79 927.066 1248.58L943.104 1247.35C944.494 1247.25 945.627 1246.2 945.839 1244.82L948.828 1225.43Z" fill="#FFBF44"/>
</g>
<defs>
<clipPath id="clip0_481_295">
<rect width="1500" height="1500" fill="white"/>
</clipPath>
</defs>
      <g clip-path="url(#clip0_497_1194)">
<path d="M379.667 654.812C432.345 471.574 618.472 401.981 699.114 390.653C740.985 382.718 849.655 375.215 949.364 408.675C980 418.956 1049.88 457.388 1091.92 499.818C1144.47 552.856 1272.97 732.052 1185.05 927.725C1097.12 1123.4 758.414 1092.29 612.749 1051.82C464.472 1010.63 314.48 881.563 379.667 654.812Z" fill="#AABBFF"/>
<path d="M449.293 747.204C454.734 531.068 585.306 432.345 649.911 410C432.292 459.565 365.296 655.455 364 747.204C377.99 984.871 584.496 1053.43 681 1058C601.498 1044.46 443.853 963.339 449.293 747.204Z" fill="#001647" fill-opacity="0.2"/>
<path d="M379.667 654.812C432.345 471.574 618.472 401.981 699.114 390.653C740.985 382.718 849.655 375.215 949.364 408.675C980 418.956 1049.88 457.388 1091.92 499.818C1144.47 552.856 1272.97 732.052 1185.05 927.725C1097.12 1123.4 758.414 1092.29 612.749 1051.82C464.472 1010.63 314.48 881.563 379.667 654.812Z" stroke="black" stroke-width="22" stroke-linecap="round"/>
</g>
<defs>
    <clipPath id="prefix__clip0_299_662"><path fill="#fff" d="M0 0h1500v1500H0z"/></clipPath>
</defs>
      <g clip-path="url(#clip0_624_2936)">
<path d="M876.088 925.246H970.501" stroke="black" stroke-width="22" stroke-linecap="round"/>
<path d="M864.633 785.967L846.559 774.78L827.213 762.8L802.666 747.607" stroke="black" stroke-width="22" stroke-linecap="round"/>
<path d="M848.206 782.713C848.206 786.612 847.063 790.425 844.918 793.681C842.773 796.937 839.721 799.492 836.139 801.032C832.557 802.571 828.602 803.027 824.764 802.342C820.925 801.657 817.372 799.862 814.544 797.179C811.715 794.495 809.735 791.042 808.848 787.245C807.962 783.448 808.208 779.475 809.556 775.817C810.904 772.158 813.295 768.976 816.434 766.662C819.572 764.348 823.319 763.006 827.213 762.8L846.546 774.8C847.638 777.295 848.203 779.989 848.206 782.713Z" fill="black" stroke="black" stroke-width="22" stroke-linecap="round"/>
<path d="M1024.63 747.607L1000.09 762.8L980.739 774.78L962.666 785.967" stroke="black" stroke-width="22" stroke-linecap="round"/>
<path d="M979.094 782.713C979.094 786.612 980.237 790.425 982.382 793.681C984.527 796.937 987.579 799.492 991.161 801.032C994.743 802.571 998.698 803.027 1002.54 802.342C1006.37 801.657 1009.93 799.862 1012.76 797.179C1015.59 794.495 1017.57 791.042 1018.45 787.245C1019.34 783.448 1019.09 779.475 1017.74 775.817C1016.4 772.158 1014 768.976 1010.87 766.662C1007.73 764.348 1003.98 763.006 1000.09 762.8L980.754 774.8C979.662 777.295 979.097 779.989 979.094 782.713Z" fill="black" stroke="black" stroke-width="22" stroke-linecap="round"/>
</g>
<defs>
<clipPath id="clip0_624_2936">
<rect width="1500" height="1500" fill="white"/>
</clipPath>
</defs>
      <g clip-path="url(#clip0_911_278)">
<path d="M741 865.42V871.56C741.01 872.669 740.781 873.767 740.33 874.78C739.07 877.64 736.99 877.78 736.99 877.78C735.893 878.033 734.754 878.046 733.651 877.818C732.548 877.59 731.507 877.127 730.6 876.46C727.96 874.35 721.36 856.25 721.36 856.25L708.65 876.46H700L717.8 848.25L712.21 836.66C711.84 835.888 711.265 835.233 710.547 834.767C709.828 834.301 708.996 834.043 708.14 834.02H708C707.225 833.94 706.442 834.054 705.721 834.351C705.001 834.647 704.365 835.118 703.87 835.72C702.98 836.61 702.66 839.5 702.66 839.5L700.88 839.63C700.634 837.881 700.59 836.109 700.75 834.35C700.862 833.001 701.324 831.705 702.09 830.59C702.61 829.783 703.325 829.12 704.169 828.664C705.014 828.208 705.96 827.972 706.92 827.98C708.535 827.979 710.11 828.479 711.43 829.41C712.762 830.35 713.801 831.646 714.43 833.15L719.69 846.2L731.13 828.8H739L723.2 853.31L727.14 862.63C727.14 862.63 730.14 871.63 734.45 871.63C738.76 871.63 739.16 865.41 739.16 865.41L741 865.42Z" fill="black"/>
</g>
<defs>
<clipPath id="clip0_911_278">
<rect width="1500" height="1500" fill="white"/>
</clipPath>
</defs>
      <g clip-path="url(#clip0_771_606)">
<path d="M863.993 527.644C890.69 533.234 953.2 543.468 977.668 523.094L1014.69 433.323L1073.2 323.725L1125.02 252.017C1125.02 252.017 1152.13 228.431 1038.06 213.369C923.981 198.307 867.998 187.656 867.998 187.656C867.998 187.656 682.771 166.635 549.728 276.66C416.686 386.684 363.177 542.213 363.177 542.213C363.177 542.213 337.135 691.713 357.999 753.5C357.999 753.5 341.001 591 490.792 472.221L501.17 475.384L603.985 437.979L697.981 441.573L810.812 485.642L842.989 516.524C848.813 522.121 856.09 525.973 863.993 527.644Z" fill="#4AEEB9"/>
<path d="M742.504 200.999C676.904 266.599 661.503 387.666 662.003 439.999L625.003 434.5L571.003 446L499.003 479C383.499 562.5 364.503 699.667 357.503 751.5L343.503 659.5L360.003 560.5L396.003 466.5C421.169 416.5 492.403 304.699 576.003 257.499C659.603 210.299 721.837 200.166 742.504 200.999Z" fill="#001647" fill-opacity="0.2"/>
<path d="M370.001 824.5C370.001 824.5 269.087 563.97 500.28 320.562C709.101 100.723 1055 215.728 1119.97 240.074C1121.19 240.539 1122.28 241.281 1123.16 242.241C1124.03 243.209 1124.65 244.367 1124.99 245.623C1125.32 246.881 1125.35 248.2 1125.07 249.47C1124.79 250.741 1124.21 251.926 1123.38 252.928C1034.34 361.043 992.774 481.265 982.543 514.053C981.611 517.023 980.059 519.76 977.991 522.086C975.922 524.406 973.381 526.257 970.538 527.514C952.612 535.457 910.698 548.623 858.575 529.192C851.513 525.552 848.335 523.515 843.096 518.725C818.258 491.807 652.217 366.136 494.165 482.174" stroke="black" stroke-width="20" stroke-miterlimit="10" stroke-linecap="round"/>
<path d="M847.383 522.595C847.383 522.595 830.394 316.415 907.33 193.397" stroke="black" stroke-width="20" stroke-miterlimit="10" stroke-linecap="round"/>
<path d="M940.167 529.066C940.167 529.066 943.119 444.066 997.197 349.634" stroke="black" stroke-width="20" stroke-miterlimit="10" stroke-linecap="round"/>
<path d="M754.269 459.828C754.269 459.828 740.725 382.776 759.48 315.96" stroke="black" stroke-width="20" stroke-miterlimit="10" stroke-linecap="round"/>
<path d="M595.363 246.497C595.363 246.497 573.599 298.854 593.754 375.109" stroke="black" stroke-width="20" stroke-miterlimit="10" stroke-linecap="round"/>
<path d="M920.072 268.739C920.072 268.739 927.639 235.29 953.389 205.827" stroke="black" stroke-width="20" stroke-miterlimit="10" stroke-linecap="round"/>
<path d="M472.246 499.854C472.246 499.854 460.445 481.715 458.858 444.683" stroke="black" stroke-width="20" stroke-miterlimit="10" stroke-linecap="round"/>
</g>
<defs>
<clipPath id="clip0_771_606">
<rect width="1500" height="1500" fill="white"/>
</clipPath>
</defs>
      
    </g>
    </svg>