<svg
      xmlns="http://www.w3.org/2000/svg"
      preserveAspectRatio="xMidYMin meet"
      fill="none"
      viewBox="0 0 1500 1500"
    >
      <g>
      <path fill="url(#prefix__a1)" d="M0 0h1500v1500H0z"/><defs><linearGradient id="prefix__a1" x1="1500" y1="1500" x2="0" y2="0" gradientUnits="userSpaceOnUse">
<stop stop-color="#1555D1"/>
<stop offset="1" stop-color="#70E5FF"/>
</linearGradient></defs>
      <g clip-path="url(#clip0_483_539)">
<path d="M773 1011.5C543.4 1029.9 398.667 1353.5 355 1513H1138.5C1075.7 1127 868.667 1017.83 773 1011.5Z" fill="#53B6F9"/>
<path d="M453.835 1435.59L472.342 1412.37L459.531 1385.55C459.308 1385.07 459.231 1384.54 459.311 1384.01C459.391 1383.49 459.624 1383.01 459.981 1382.62C460.337 1382.23 460.801 1381.95 461.313 1381.82C461.826 1381.7 462.365 1381.73 462.861 1381.91L490.69 1392.33L512.188 1372.14C512.574 1371.78 513.059 1371.54 513.58 1371.46C514.102 1371.37 514.637 1371.44 515.118 1371.66C515.599 1371.88 516.004 1372.24 516.282 1372.69C516.56 1373.14 516.698 1373.66 516.679 1374.19L515.37 1403.59L541.482 1417.75C543.389 1418.78 543.009 1422.06 540.916 1422.65L512.31 1430.55L506.946 1459.49C506.847 1460.01 506.594 1460.49 506.221 1460.87C505.849 1461.25 505.372 1461.5 504.852 1461.61C504.333 1461.71 503.794 1461.66 503.303 1461.46C502.813 1461.26 502.395 1460.91 502.101 1460.47L485.701 1435.96L456.258 1439.85C455.734 1439.91 455.203 1439.82 454.733 1439.58C454.262 1439.34 453.873 1438.97 453.614 1438.51C453.355 1438.05 453.238 1437.53 453.278 1437C453.317 1436.47 453.512 1435.97 453.837 1435.55L453.835 1435.59Z" fill="white"/>
<path d="M594.58 1160.2L613.817 1139.8L603.606 1121.28C603.429 1120.95 603.395 1120.55 603.509 1120.14C603.623 1119.73 603.879 1119.33 604.245 1118.98C604.611 1118.63 605.071 1118.35 605.567 1118.18C606.062 1118.01 606.571 1117.95 607.029 1118.02L632.673 1121.85L654.528 1103.33C654.921 1103 655.398 1102.74 655.899 1102.6C656.4 1102.46 656.902 1102.44 657.342 1102.53C657.783 1102.63 658.141 1102.84 658.372 1103.14C658.603 1103.44 658.697 1103.82 658.641 1104.23L655.271 1126.8L679.016 1133.73C680.75 1134.24 680.152 1136.79 678.124 1137.55L650.416 1147.76L643.233 1170.58C643.101 1170.99 642.827 1171.39 642.446 1171.73C642.065 1172.07 641.594 1172.34 641.093 1172.5C640.593 1172.65 640.085 1172.69 639.635 1172.61C639.185 1172.53 638.812 1172.33 638.565 1172.04L624.782 1155.79L596.57 1163.09C596.069 1163.21 595.572 1163.22 595.143 1163.1C594.714 1162.99 594.372 1162.77 594.16 1162.45C593.947 1162.14 593.874 1161.76 593.95 1161.35C594.026 1160.95 594.247 1160.54 594.585 1160.17L594.58 1160.2Z" fill="white"/>
<path d="M749.5 1019.5C536 1134 457.448 1414.63 443.159 1511H353.699C350.414 1508.73 357.049 1471.27 409.87 1339.62C462.691 1207.98 569.086 1113.24 605.384 1082.33L674 1033.5L749.5 1019.5Z" fill="#001647" fill-opacity="0.2"/>
<path d="M940.224 1185.75L950.468 1165.46L936.764 1140.6C936.523 1140.15 936.383 1139.67 936.363 1139.2C936.342 1138.73 936.441 1138.29 936.647 1137.96C936.853 1137.62 937.157 1137.39 937.521 1137.29C937.884 1137.2 938.291 1137.25 938.69 1137.43L961.085 1148.06L974.032 1130.66C974.265 1130.35 974.591 1130.16 974.967 1130.1C975.344 1130.05 975.754 1130.13 976.147 1130.35C976.54 1130.57 976.898 1130.91 977.175 1131.33C977.452 1131.75 977.636 1132.23 977.703 1132.71L981.259 1159.32L1002.95 1173.27C1004.53 1174.29 1004.75 1177.25 1003.28 1177.69L983.129 1183.65L983.585 1209.67C983.591 1210.14 983.476 1210.56 983.255 1210.89C983.035 1211.21 982.719 1211.43 982.347 1211.5C981.975 1211.57 981.564 1211.5 981.167 1211.3C980.769 1211.09 980.404 1210.76 980.116 1210.35L964.085 1187.43L942.691 1189.71C942.309 1189.75 941.898 1189.64 941.51 1189.4C941.122 1189.17 940.773 1188.81 940.509 1188.38C940.245 1187.96 940.076 1187.47 940.025 1187C939.973 1186.52 940.041 1186.07 940.22 1185.71L940.224 1185.75Z" fill="white"/>
<path d="M353.5 1519.5C365.5 1454.33 414.5 1313.6 483.5 1219C530.101 1155.11 577.468 1101.29 629.141 1059.66C710.278 994.299 826.037 996.323 905.02 1064.27C1000.08 1146.05 1103.44 1290.29 1142.5 1519.5M1013.5 1319C1024.83 1354.33 1048.1 1443.9 1050.5 1519.5M667 1361.5C661.167 1392.33 650.3 1467.1 653.5 1519.5" stroke="black" stroke-width="22" stroke-linecap="round"/>
<path d="M939.372 1459.98L925.446 1433.75L895.742 1434.81C895.215 1434.82 894.695 1434.68 894.248 1434.4C893.801 1434.12 893.448 1433.71 893.232 1433.23C893.017 1432.74 892.949 1432.21 893.038 1431.69C893.127 1431.17 893.367 1430.69 893.73 1430.3L914.378 1408.93L904.433 1381.17C904.256 1380.67 904.231 1380.13 904.361 1379.62C904.491 1379.11 904.77 1378.65 905.163 1378.29C905.556 1377.94 906.044 1377.71 906.567 1377.63C907.09 1377.56 907.624 1377.64 908.101 1377.87L934.546 1390.79L957.936 1372.48C959.646 1371.14 962.504 1372.8 962.21 1374.95L958.052 1404.34L982.458 1420.79C982.896 1421.09 983.234 1421.51 983.431 1422.01C983.628 1422.5 983.674 1423.04 983.564 1423.56C983.453 1424.07 983.19 1424.55 982.81 1424.92C982.429 1425.29 981.947 1425.53 981.425 1425.63L952.407 1430.9L944.242 1459.45C944.091 1459.96 943.793 1460.41 943.386 1460.74C942.98 1461.08 942.483 1461.29 941.958 1461.34C941.434 1461.4 940.905 1461.29 940.438 1461.05C939.971 1460.8 939.588 1460.42 939.336 1459.96L939.372 1459.98Z" fill="white"/>
<path d="M781.868 1306.32L777.304 1276.97L748.893 1268.24C748.39 1268.08 747.945 1267.77 747.615 1267.36C747.285 1266.95 747.085 1266.45 747.039 1265.92C746.994 1265.4 747.105 1264.87 747.36 1264.41C747.614 1263.94 748 1263.57 748.468 1263.32L774.978 1249.9L774.676 1220.41C774.673 1219.88 774.826 1219.36 775.116 1218.92C775.407 1218.48 775.822 1218.14 776.309 1217.93C776.796 1217.72 777.333 1217.67 777.852 1217.77C778.371 1217.87 778.849 1218.12 779.225 1218.49L799.977 1239.36L828.074 1229.73C830.127 1229.03 832.285 1231.53 831.301 1233.47L817.746 1259.87L835.414 1283.41C835.73 1283.83 835.912 1284.34 835.936 1284.87C835.961 1285.4 835.828 1285.93 835.553 1286.38C835.279 1286.83 834.876 1287.2 834.395 1287.42C833.914 1287.64 833.378 1287.72 832.854 1287.64L803.711 1283.11L786.641 1307.41C786.333 1307.84 785.904 1308.17 785.41 1308.35C784.916 1308.54 784.378 1308.57 783.865 1308.45C783.351 1308.33 782.885 1308.06 782.524 1307.68C782.164 1307.29 781.926 1306.81 781.84 1306.29L781.868 1306.32Z" fill="white"/>
<path d="M704.849 1508.19L710.763 1480.06L689.852 1466.16C689.483 1465.91 689.211 1465.54 689.072 1465.09C688.932 1464.64 688.93 1464.13 689.067 1463.64C689.203 1463.14 689.472 1462.67 689.838 1462.3C690.205 1461.92 690.653 1461.65 691.127 1461.52L717.797 1454.49L727.33 1427.09C727.502 1426.6 727.803 1426.16 728.193 1425.81C728.583 1425.46 729.045 1425.22 729.521 1425.13C729.997 1425.04 730.466 1425.1 730.868 1425.29C731.27 1425.49 731.587 1425.82 731.778 1426.24L742.243 1449.83L768.985 1446.64C770.938 1446.41 771.916 1449.16 770.448 1450.76L750.329 1472.46L757.322 1497.89C757.445 1498.35 757.428 1498.86 757.273 1499.36C757.118 1499.85 756.832 1500.31 756.452 1500.68C756.071 1501.04 755.613 1501.29 755.136 1501.4C754.659 1501.51 754.185 1501.47 753.773 1501.29L730.853 1491.14L708.484 1510.18C708.083 1510.51 707.616 1510.73 707.141 1510.8C706.665 1510.87 706.203 1510.79 705.813 1510.57C705.423 1510.36 705.121 1510.01 704.947 1509.58C704.773 1509.15 704.734 1508.65 704.835 1508.15L704.849 1508.19Z" fill="white"/>
</g>
<defs>
<clipPath id="clip0_483_539">
<rect width="1500" height="1500" fill="white"/>
</clipPath>
</defs>
      <g clip-path="url(#clip0_497_1194)">
<path d="M379.667 654.812C432.345 471.574 618.472 401.981 699.114 390.653C740.985 382.718 849.655 375.215 949.364 408.675C980 418.956 1049.88 457.388 1091.92 499.818C1144.47 552.856 1272.97 732.052 1185.05 927.725C1097.12 1123.4 758.414 1092.29 612.749 1051.82C464.472 1010.63 314.48 881.563 379.667 654.812Z" fill="#AABBFF"/>
<path d="M449.293 747.204C454.734 531.068 585.306 432.345 649.911 410C432.292 459.565 365.296 655.455 364 747.204C377.99 984.871 584.496 1053.43 681 1058C601.498 1044.46 443.853 963.339 449.293 747.204Z" fill="#001647" fill-opacity="0.2"/>
<path d="M379.667 654.812C432.345 471.574 618.472 401.981 699.114 390.653C740.985 382.718 849.655 375.215 949.364 408.675C980 418.956 1049.88 457.388 1091.92 499.818C1144.47 552.856 1272.97 732.052 1185.05 927.725C1097.12 1123.4 758.414 1092.29 612.749 1051.82C464.472 1010.63 314.48 881.563 379.667 654.812Z" stroke="black" stroke-width="22" stroke-linecap="round"/>
</g>
<defs>
    <clipPath id="prefix__clip0_299_662"><path fill="#fff" d="M0 0h1500v1500H0z"/></clipPath>
</defs>
      <g clip-path="url(#clip0_624_3562)">
<path d="M799.421 789.214L858.141 778.547C859.189 778.352 860.151 777.837 860.895 777.073C861.639 776.309 862.128 775.334 862.294 774.28C862.455 773.224 862.285 772.143 861.808 771.187C861.331 770.234 860.569 769.453 859.628 768.954L804.701 739.807" stroke="black" stroke-width="22" stroke-miterlimit="10" stroke-linecap="round"/>
<path d="M1037.67 789.214L979.001 778.547C977.951 778.355 976.987 777.841 976.243 777.076C975.499 776.312 975.011 775.335 974.847 774.28C974.687 773.227 974.854 772.149 975.327 771.194C975.804 770.237 976.569 769.453 977.514 768.954L1032.44 739.807" stroke="black" stroke-width="22" stroke-miterlimit="10" stroke-linecap="round"/>
<path d="M992 915.801C992 944.083 960.211 967 921 967C881.789 967 850 944.083 850 915.801C850.013 910.144 851.278 904.561 853.703 899.453C858.875 888.383 870.646 884.1 880.667 889.061C892.124 894.775 906.017 898.12 921.008 898.12C935.999 898.12 949.884 894.775 961.349 889.061C971.354 884.068 983.133 888.383 988.313 899.453C990.733 904.562 991.993 910.145 992 915.801Z" fill="white" stroke="black" stroke-width="22" stroke-miterlimit="10"/>
</g>
<defs>
<clipPath id="clip0_624_3562">
<rect width="1500" height="1500" fill="white"/>
</clipPath>
</defs>
      <g clip-path="url(#clip0_838_2287)">
<path opacity="0.4" d="M821.549 858C843.021 857.988 863.72 849.99 879.622 835.563C895.524 821.135 905.492 801.309 907.587 779.94C909.682 758.571 903.755 737.187 890.958 719.946C878.16 702.704 859.408 690.839 838.348 686.657C817.288 682.475 795.425 686.275 777.011 697.318C758.597 708.361 744.949 725.859 738.72 746.407C732.491 766.955 734.127 789.085 743.31 808.494C752.493 827.903 768.566 843.202 788.403 851.418C798.912 855.771 810.175 858.008 821.549 858Z" fill="white"/>
<ellipse cx="932" cy="915.5" rx="131" ry="69.5" fill="#AABBFF"/>
<path opacity="0.5" d="M755.001 714.699C755.001 714.699 754.214 696.527 795.319 691L872 841.914C872 841.914 857.773 858.504 827.655 857.988L755.001 714.699Z" fill="white"/>
<path opacity="0.5" d="M808 687.959C808 687.959 809.662 687.651 823.768 678L892 817.977C892 817.977 890.955 827.356 879.411 830L808 687.959Z" fill="white"/>
<path d="M847.684 952.99C796.393 960.533 771.057 930.01 764.065 911.56C763.735 910.688 764.715 909.945 765.529 910.399C794.794 926.75 833.656 903.637 851.184 871.99C854.749 865.552 859.18 860.308 864.102 856.095C892.633 831.676 933.121 867.002 920.263 902.286C911.028 927.625 887.792 947.092 847.684 952.99Z" fill="white"/>
<path d="M999.033 952.99C1050.32 960.533 1075.66 930.01 1082.65 911.56C1082.98 910.688 1082 909.945 1081.19 910.399C1051.92 926.75 1013.06 903.637 995.533 871.99C991.967 865.552 987.536 860.308 982.614 856.095C954.083 831.676 913.595 867.002 926.454 902.286C935.688 927.625 958.924 947.092 999.033 952.99Z" fill="white"/>
<path d="M883 852.5C880.2 911.7 822.5 934.5 794 938.5L769.5 916.5L826.5 903.5L851 878.5L858 857.5L883 852.5Z" fill="#001647" fill-opacity="0.2"/>
<path d="M970 938.5C944.8 914.9 950.833 871.333 957 852.5L940 854.5L924.5 867V897L945 925.5L970 938.5Z" fill="#001647" fill-opacity="0.2"/>
<path d="M696.5 746H737.5L735.5 778H696.5V746Z" fill="#FFBF44"/>
<path fill-rule="evenodd" clip-rule="evenodd" d="M923.128 858.444C920.378 854.373 917.104 850.735 913.467 847.667C898.471 835.019 875.672 830.954 856.916 847.007C851.117 851.97 845.915 858.138 841.752 865.655C833.922 879.792 821.289 891.997 807.644 898.738C794.019 905.47 780.618 906.266 769.722 900.179C765.529 897.836 760.758 898.595 757.539 901.103C754.19 903.712 752.131 908.602 754.03 913.613C762.359 935.589 791.66 969.745 848.455 961.393C885.007 956.018 909.903 939.731 923.128 916.788C936.352 939.732 961.248 956.018 997.801 961.393C1054.6 969.746 1083.9 935.59 1092.23 913.613C1094.12 908.602 1092.07 903.712 1088.72 901.103C1085.5 898.596 1080.73 897.836 1076.53 900.179C1065.64 906.267 1052.24 905.47 1038.61 898.738C1024.97 891.997 1012.33 879.792 1004.5 865.655C1000.34 858.139 995.139 851.971 989.339 847.007C970.583 830.954 947.785 835.019 932.789 847.667C929.152 850.735 925.878 854.373 923.128 858.444ZM900.572 862.955C891.406 855.225 879.695 853.836 869.921 862.202C865.875 865.664 862.216 869.985 859.248 875.345C849.55 892.854 833.989 908.03 816.504 916.669C806.518 921.603 795.503 924.563 784.473 924.29C795.948 935.954 815.484 946.027 845.545 941.606C882.845 936.121 902.468 918.54 910.183 897.371C914.966 884.247 909.941 870.857 900.572 862.955ZM945.683 862.956C936.315 870.857 931.289 884.248 936.072 897.371C943.787 918.541 963.411 936.121 1000.71 941.606C1030.77 946.027 1050.31 935.954 1061.78 924.29C1050.75 924.563 1039.74 921.603 1029.75 916.669C1012.27 908.03 996.705 892.854 987.008 875.345C984.039 869.985 980.38 865.664 976.335 862.202C966.56 853.836 954.849 855.225 945.683 862.956Z" fill="black"/>
<path d="M738 743H710.5C700.835 743 693 750.835 693 760.5V760.5C693 770.165 700.835 778 710.5 778H738M689.5 759L671.456 767.728C636.886 784.449 631.245 831.348 660.863 855.79V855.79C682.911 873.985 686.426 906.444 668.784 928.937L660.5 939.5" stroke="black" stroke-width="20" stroke-linecap="round"/>
<circle cx="822.5" cy="768.5" r="85.5" stroke="black" stroke-width="20"/>
</g>
<defs>
<clipPath id="clip0_838_2287">
<rect width="1500" height="1500" fill="white"/>
</clipPath>
</defs>
      <g clip-path="url(#clip0_602_1931)">
<path d="M718.5 336C430.5 374.4 355.833 571 354.5 664.5L414.5 657L585 641.5L677.5 700.5L746 715.5L795 706.5L864.5 683L951 641.5L1027 629C1040.67 630 1078.8 633.9 1122 641.5C1176 651 1185 710.5 1224.5 677C1256.1 650.2 1196 608.166 1162 590.5C1163 539 1078.5 288 718.5 336Z" fill="#F56CDB"/>
<path d="M790.5 334.999C576.9 453.399 513.5 594.666 508.5 650.499L355.5 670.5C343.167 665.833 342.4 622.399 438 485.999C533.6 349.599 712.834 328.499 790.5 334.999Z" fill="#001647" fill-opacity="0.2"/>
<path d="M918 513C740.4 509.8 610.667 597.833 577.5 639.5L635 613.5L746 568.5L911.5 542.5L1081.5 557L1179.5 596C1166.33 568 1095.6 516.2 918 513Z" fill="#001647" fill-opacity="0.2"/>
<path d="M1168 594.006C1137.5 399.5 919 330 797.5 330C484.905 330 371.892 543.53 353.776 661.318C352.717 668.2 359.115 673.614 365.869 671.92C411.449 660.485 504.576 640.341 587 645M587 645C621.5 612.167 730.5 548 894.5 542C1079.59 535.228 1192.54 594.489 1230.03 642.496C1236.7 651.039 1235.02 662.819 1228.03 671.106V671.106C1218.11 682.881 1200.55 684.175 1188.11 675.098C1145.41 643.936 1080.11 612.042 1002 628C892.783 650.313 790 754 669.5 701.5L587 645Z" stroke="black" stroke-width="22" stroke-linecap="round"/>
<path d="M819.136 403.189L836.895 401.663L847.224 454.606L829.464 456.132L832.902 473.777L821.061 474.795L817.618 457.15L799.859 458.676L789.53 405.734L807.295 404.207L803.852 386.563L815.693 385.545L819.136 403.189ZM884.078 427.515L901.842 425.989L912.161 478.932L894.407 480.458L897.849 498.102L886.008 499.12L882.565 481.475L864.801 483.002L854.478 430.059L872.237 428.533L868.794 410.884L880.635 409.866L884.078 427.515Z" fill="black"/>
</g>
<defs>
<clipPath id="clip0_602_1931">
<rect width="1500" height="1500" fill="white"/>
</clipPath>
</defs>
      
    </g>
    </svg>