<svg
      xmlns="http://www.w3.org/2000/svg"
      preserveAspectRatio="xMidYMin meet"
      fill="none"
      viewBox="0 0 1500 1500"
    >
      <g>
      <path fill="url(#prefix__paint0_linear_53_30461)" d="M0 0h1500v1500H0z"/><defs><linearGradient id="prefix__paint0_linear_53_30461" x1="0" y1="0" x2="1500" y2="1533.5" gradientUnits="userSpaceOnUse">
<stop stop-color="#EEB0FC"/>
<stop offset="1" stop-color="#AF55F5"/>
</linearGradient></defs>
      <g clip-path="url(#clip0_483_418)">
<path d="M773 1011.5C543.4 1029.9 398.667 1353.5 355 1513H1138.5C1075.7 1127 868.667 1017.83 773 1011.5Z" fill="#AABBFF"/>
<path d="M661.5 1284C651.1 1208.4 559.5 1181.83 515 1178C583.5 1088.5 654 1030.5 768.5 1008.5C860.1 990.9 976.333 1131.17 1023 1203.5L1007 1267.5L1011.5 1323.5L1036 1427.5L1054 1508H654V1457C660.833 1430.83 671.9 1359.6 661.5 1284Z" fill="#4AEEB9"/>
<path d="M691 1281C658 1185.5 577 1152.5 538.5 1150.5L517.5 1174L607.5 1204L647.5 1259L674.5 1331.5L657 1443.5L652 1506.5H685C684.752 1490.12 685.132 1463.27 685.975 1439.63C686.843 1415.25 692.482 1391.39 696.842 1367.39C704.309 1326.28 698.07 1301.46 691 1281Z" fill="white"/>
<path d="M982.5 1303C973.3 1248.2 991.333 1198.5 1001.5 1180.5L1024 1199.5L1011.5 1239.5L1015 1315L1041.5 1437.5L1050 1506.5H1024C1012.5 1395 994 1371.5 982.5 1303Z" fill="white"/>
<path d="M834 1189C756.4 1183.4 696 1082 675.5 1032L711 1023.5L721.5 1044.5L774 1117.5L824 1142.5C856.4 1133.7 870.167 1075.83 873 1048C885.333 1054 910.6 1066.5 913 1068.5C915.4 1070.5 902.667 1102 896 1117.5L868 1164.5L834 1189Z" fill="white"/>
<path d="M749.5 1019.5C536 1134 457.448 1414.63 443.159 1511H353.699C350.414 1508.73 357.049 1471.27 409.87 1339.62C462.691 1207.98 569.086 1113.24 605.384 1082.33L674 1033.5L749.5 1019.5Z" fill="#001647" fill-opacity="0.2"/>
<path d="M818.5 1143.5C778.1 1131.9 731.667 1054 713.5 1016.5L795.5 1019.5L872 1043L854 1126.5L818.5 1143.5Z" fill="#AABBFF"/>
<path d="M353.5 1519.5C365.5 1454.33 414.5 1313.6 483.5 1219C530.101 1155.11 577.468 1101.29 629.141 1059.66C710.278 994.299 826.037 996.323 905.02 1064.27C1000.08 1146.05 1103.44 1290.29 1142.5 1519.5M1050.5 1519.5C1048.1 1443.9 1024.83 1354.33 1013.5 1319C999.5 1268 1009.7 1225.3 1020.5 1204.5M653.5 1519.5C650.3 1467.1 661.167 1392.33 667 1361.5C674 1324.5 668 1288.8 642 1250C609.5 1201.5 554.5 1171 517 1179.5" stroke="black" stroke-width="22" stroke-linecap="round"/>
<path d="M716.5 1021C729.247 1059.57 769.06 1137.84 826.825 1144.38C827.577 1144.46 828.321 1144.26 828.913 1143.79C845.329 1130.77 875.856 1093.54 873.5 1042.5" stroke="black" stroke-width="22" stroke-linecap="round"/>
<path d="M682 1039C700.209 1094.08 754.185 1179.21 836.775 1187.88C837.527 1187.96 838.267 1187.76 838.866 1187.3C859.814 1171.19 904.649 1131.93 911.953 1072" stroke="black" stroke-width="22" stroke-linecap="round"/>
<path d="M791.438 1500.84C783.883 1493.52 779.375 1483.22 777.915 1469.93L770.467 1402.1C768.917 1387.88 770.995 1377.11 776.704 1369.79C782.412 1362.47 791.771 1358.95 804.781 1359.23C817.865 1359.52 828.086 1363.46 835.446 1371.06C842.806 1378.66 847.266 1389.57 848.827 1403.79L856.275 1471.62C857.744 1485.01 855.482 1495.2 849.491 1502.18C843.5 1509.16 834.195 1512.5 821.575 1512.21C809.066 1511.94 799.021 1508.15 791.438 1500.84ZM823.509 1481.65C824.689 1479.45 825.135 1476.93 824.78 1474.46L816.644 1400.34C816.167 1396.03 815.313 1392.72 814.096 1390.42C812.879 1388.13 810.76 1386.95 807.777 1386.89C804.795 1386.83 803.007 1387.92 802.301 1390.17C801.596 1392.42 801.533 1395.71 802.01 1400.02L810.145 1474.15C810.394 1476.78 811.353 1479.3 812.917 1481.42C813.534 1482.36 814.362 1483.14 815.334 1483.69C816.306 1484.24 817.393 1484.55 818.507 1484.59C819.538 1484.65 820.563 1484.4 821.458 1483.88C822.353 1483.35 823.079 1482.58 823.548 1481.65L823.509 1481.65Z" fill="white"/>
<path d="M894.056 1507.85C888.625 1505.6 883.819 1502.06 880.051 1497.52C876.289 1492.92 873.98 1487.29 873.421 1481.36L871.643 1465.3L900.181 1465.91L900.507 1468.88C900.843 1472.96 901.75 1476.97 903.202 1480.8C903.687 1482.14 904.578 1483.3 905.752 1484.11C906.925 1484.92 908.321 1485.33 909.741 1485.3C912.979 1485.37 915.153 1484.52 916.282 1482.73C917.411 1480.94 917.779 1478.26 917.379 1474.65L914.049 1444.59C912.906 1447.27 910.895 1449.49 908.343 1450.87C905.29 1452.51 901.849 1453.27 898.397 1453.06C890.316 1452.89 883.877 1451.12 879.08 1447.76C874.282 1444.4 870.677 1439.51 868.264 1433.1C865.825 1426.63 864.026 1418.17 862.867 1407.69C861.09 1391.73 862.733 1379.5 867.796 1371.01C872.86 1362.52 882.304 1358.42 896.127 1358.72C906.276 1358.93 914.489 1360.85 920.766 1364.48C927.079 1368.14 932.056 1373.75 934.967 1380.48C938.169 1387.49 940.386 1396.62 941.618 1407.86L946.098 1448.42C947.812 1463.92 948.236 1476.1 947.371 1484.97C946.506 1493.84 943.395 1500.58 938.039 1505.18C932.672 1509.77 924.045 1511.94 912.157 1511.68C905.936 1511.57 899.792 1510.27 894.056 1507.85ZM910.961 1416.23L908.889 1397.53C908.087 1390.19 905.202 1386.46 900.234 1386.36C897.116 1386.29 895.262 1387.5 894.673 1389.99C894.084 1392.47 894.1 1396.51 894.722 1402.11L896.049 1414.34C896.935 1422.5 899.692 1426.63 904.321 1426.73C909.549 1426.84 911.762 1423.34 910.961 1416.23Z" fill="white"/>
<path d="M903.576 1276.75C902.196 1276.75 901.23 1275.39 901.687 1274.08L909.159 1252.81C909.713 1251.23 911.84 1250.99 912.735 1252.4L935.336 1288.03C935.707 1288.61 936.353 1288.96 937.045 1288.96L946.363 1288.86C947.926 1288.85 948.868 1287.13 948.037 1285.8L908.618 1222.93C907.728 1221.51 905.591 1221.75 905.036 1223.33L882.743 1286.81C882.283 1288.12 883.262 1289.49 884.649 1289.47L925.683 1289.07C927.251 1289.05 928.192 1287.32 927.352 1286L914.651 1265.96C913.756 1264.55 911.626 1264.79 911.074 1266.37L907.908 1275.41C907.628 1276.21 906.872 1276.74 906.023 1276.74L903.576 1276.75Z" fill="white"/>
</g>
<defs>
<clipPath id="clip0_483_418">
<rect width="1500" height="1500" fill="white"/>
</clipPath>
</defs>
      <g clip-path="url(#clip0_497_1194)">
<path d="M379.667 654.812C432.345 471.574 618.472 401.981 699.114 390.653C740.985 382.718 849.655 375.215 949.364 408.675C980 418.956 1049.88 457.388 1091.92 499.818C1144.47 552.856 1272.97 732.052 1185.05 927.725C1097.12 1123.4 758.414 1092.29 612.749 1051.82C464.472 1010.63 314.48 881.563 379.667 654.812Z" fill="#AABBFF"/>
<path d="M449.293 747.204C454.734 531.068 585.306 432.345 649.911 410C432.292 459.565 365.296 655.455 364 747.204C377.99 984.871 584.496 1053.43 681 1058C601.498 1044.46 443.853 963.339 449.293 747.204Z" fill="#001647" fill-opacity="0.2"/>
<path d="M379.667 654.812C432.345 471.574 618.472 401.981 699.114 390.653C740.985 382.718 849.655 375.215 949.364 408.675C980 418.956 1049.88 457.388 1091.92 499.818C1144.47 552.856 1272.97 732.052 1185.05 927.725C1097.12 1123.4 758.414 1092.29 612.749 1051.82C464.472 1010.63 314.48 881.563 379.667 654.812Z" stroke="black" stroke-width="22" stroke-linecap="round"/>
</g>
<defs>
    <clipPath id="prefix__clip0_299_662"><path fill="#fff" d="M0 0h1500v1500H0z"/></clipPath>
</defs>
      <g clip-path="url(#clip0_624_3503)">
<path d="M820.579 731.479C807.38 731.491 794.726 736.74 785.393 746.073C776.06 755.406 770.811 768.06 770.799 781.259C770.855 783.107 771.629 784.86 772.957 786.148C774.284 787.435 776.06 788.155 777.909 788.155C779.758 788.155 781.534 787.435 782.861 786.148C784.188 784.86 784.962 783.107 785.019 781.259C784.954 776.549 785.826 771.872 787.584 767.502C789.342 763.132 791.951 759.154 795.259 755.8C798.567 752.446 802.509 749.783 806.855 747.966C811.201 746.148 815.865 745.212 820.575 745.212C825.286 745.212 829.95 746.148 834.296 747.966C838.642 749.783 842.584 752.446 845.892 755.8C849.2 759.154 851.809 763.132 853.567 767.502C855.325 771.872 856.197 776.549 856.132 781.259C856.132 786.917 853.885 792.343 849.884 796.344C845.883 800.345 840.457 802.592 834.799 802.592C829.141 802.592 823.715 800.345 819.714 796.344C815.713 792.343 813.465 786.917 813.465 781.259C813.438 780.308 813.599 779.361 813.939 778.472C814.284 777.582 814.806 776.77 815.472 776.086C816.302 775.229 817.335 774.595 818.474 774.243C819.613 773.89 820.823 773.83 821.992 774.067C823.161 774.305 824.251 774.833 825.162 775.603C826.073 776.373 826.776 777.36 827.205 778.472C827.551 779.36 827.714 780.307 827.686 781.259C827.686 783.146 828.435 784.955 829.769 786.289C831.103 787.623 832.912 788.372 834.799 788.372C836.685 788.372 838.495 787.623 839.829 786.289C841.163 784.955 841.912 783.146 841.912 781.259C841.912 775.601 839.665 770.175 835.664 766.174C831.663 762.173 826.237 759.926 820.579 759.926C814.921 759.926 809.495 762.173 805.494 766.174C801.493 770.175 799.245 775.601 799.245 781.259C799.245 790.688 802.991 799.731 809.659 806.399C816.326 813.067 825.369 816.812 834.799 816.812C844.228 816.812 853.271 813.067 859.939 806.399C866.606 799.731 870.352 790.688 870.352 781.259C870.34 768.062 865.092 755.408 855.761 746.075C846.429 736.743 833.776 731.493 820.579 731.479Z" fill="black" stroke="black" stroke-width="5"/>
<path d="M1011.91 731.479C998.714 731.491 986.06 736.74 976.727 746.073C967.394 755.406 962.145 768.06 962.133 781.259C962.189 783.107 962.963 784.86 964.29 786.148C965.618 787.435 967.394 788.155 969.243 788.155C971.092 788.155 972.868 787.435 974.195 786.148C975.522 784.86 976.296 783.107 976.353 781.259C976.288 776.549 977.16 771.872 978.918 767.502C980.676 763.132 983.285 759.154 986.593 755.8C989.901 752.446 993.843 749.783 998.189 747.966C1002.53 746.148 1007.2 745.212 1011.91 745.212C1016.62 745.212 1021.28 746.148 1025.63 747.966C1029.98 749.783 1033.92 752.446 1037.23 755.8C1040.53 759.154 1043.14 763.132 1044.9 767.502C1046.66 771.872 1047.53 776.549 1047.47 781.259C1047.47 786.917 1045.22 792.343 1041.22 796.344C1037.22 800.345 1031.79 802.592 1026.13 802.592C1020.47 802.592 1015.05 800.345 1011.05 796.344C1007.05 792.343 1004.8 786.917 1004.8 781.259C1004.76 780.067 1005.02 778.884 1005.56 777.82C1006.1 776.756 1006.9 775.845 1007.89 775.171C1008.87 774.497 1010.01 774.081 1011.2 773.963C1012.38 773.844 1013.58 774.026 1014.68 774.492C1015.56 774.864 1016.36 775.41 1017.02 776.097C1017.68 776.785 1018.2 777.599 1018.54 778.492C1018.88 779.38 1019.05 780.327 1019.02 781.279C1019.02 783.166 1019.77 784.975 1021.1 786.309C1022.44 787.643 1024.25 788.392 1026.13 788.392C1028.02 788.392 1029.83 787.643 1031.16 786.309C1032.5 784.975 1033.25 783.166 1033.25 781.279C1033.25 775.621 1031 770.195 1027 766.194C1023 762.193 1017.57 759.946 1011.91 759.946C1006.25 759.946 1000.83 762.193 996.828 766.194C992.827 770.195 990.579 775.621 990.579 781.279C990.579 790.708 994.325 799.751 1000.99 806.419C1007.66 813.087 1016.7 816.832 1026.13 816.832C1035.56 816.832 1044.61 813.087 1051.27 806.419C1057.94 799.751 1061.69 790.708 1061.69 781.279C1061.67 768.081 1056.43 755.428 1047.09 746.095C1037.76 736.763 1025.11 731.513 1011.91 731.499V731.479Z" fill="black" stroke="black" stroke-width="5"/>
<path d="M921.5 970C930.895 970 940.078 967.214 947.89 961.995C955.701 956.775 961.789 949.357 965.384 940.677C968.979 931.998 969.92 922.447 968.087 913.233C966.254 904.019 961.731 895.555 955.088 888.912C948.445 882.269 939.981 877.746 930.767 875.913C921.553 874.08 912.002 875.021 903.323 878.616C894.643 882.211 887.225 888.299 882.005 896.11C876.786 903.922 874 913.105 874 922.5C874 928.738 875.229 934.914 877.616 940.677C880.003 946.44 883.502 951.677 887.912 956.088C892.323 960.498 897.56 963.997 903.323 966.384C909.085 968.771 915.262 970 921.5 970Z" fill="white" stroke="black" stroke-width="22" stroke-miterlimit="10" stroke-linecap="round"/>
</g>
<defs>
<clipPath id="clip0_624_3503">
<rect width="1500" height="1500" fill="white"/>
</clipPath>
</defs>
      <g clip-path="url(#clip0_911_278)">
<path d="M741 865.42V871.56C741.01 872.669 740.781 873.767 740.33 874.78C739.07 877.64 736.99 877.78 736.99 877.78C735.893 878.033 734.754 878.046 733.651 877.818C732.548 877.59 731.507 877.127 730.6 876.46C727.96 874.35 721.36 856.25 721.36 856.25L708.65 876.46H700L717.8 848.25L712.21 836.66C711.84 835.888 711.265 835.233 710.547 834.767C709.828 834.301 708.996 834.043 708.14 834.02H708C707.225 833.94 706.442 834.054 705.721 834.351C705.001 834.647 704.365 835.118 703.87 835.72C702.98 836.61 702.66 839.5 702.66 839.5L700.88 839.63C700.634 837.881 700.59 836.109 700.75 834.35C700.862 833.001 701.324 831.705 702.09 830.59C702.61 829.783 703.325 829.12 704.169 828.664C705.014 828.208 705.96 827.972 706.92 827.98C708.535 827.979 710.11 828.479 711.43 829.41C712.762 830.35 713.801 831.646 714.43 833.15L719.69 846.2L731.13 828.8H739L723.2 853.31L727.14 862.63C727.14 862.63 730.14 871.63 734.45 871.63C738.76 871.63 739.16 865.41 739.16 865.41L741 865.42Z" fill="black"/>
</g>
<defs>
<clipPath id="clip0_911_278">
<rect width="1500" height="1500" fill="white"/>
</clipPath>
</defs>
      <g clip-path="url(#clip0_708_162)">
<path d="M300.372 667.686L253.609 748.241L454.3 680.321L738.585 628.639C984.683 604.662 1210.53 624.315 1292.69 637.132C1280.65 582.383 1179.61 523.84 1130.59 501.406C1113.68 430.836 1031.42 348.1 992.409 315.548C971.462 295.939 891.936 255.415 741.414 250.145C590.891 244.875 484.992 352.562 450.853 407.063L389.206 540.053L391.612 600.159L300.372 667.686Z" fill="#FFBF44"/>
<path d="M404.788 511.118L379.215 601.746L514.498 559.193L704.36 524.766L854.623 512.616L1130.06 508.135L1104.76 433.647L953.374 421.221L780.012 421.578L582.833 458.009L404.788 511.118Z" fill="#FF6247"/>
<path d="M354.862 795.884C354.862 795.884 350.938 743.246 356.825 717.001L252.005 767.453L261.561 785.693L354.862 795.884Z" fill="#F8C25A"/>
<path d="M1186.18 619.442C1186.18 619.442 1208.44 666.084 1214.92 706.177L1275.33 666.35L1296.3 640.096L1186.18 619.442Z" fill="#CF9B37"/>
<path d="M359.887 716.851C352.213 746.644 356.751 781.024 357.902 794.489L278.053 788.276L243.54 765.647L278.915 699.786L381.672 602.99L407.655 507.185C466.308 334.462 611.08 271.051 676.135 260.936C555.524 348.14 530.412 491.561 532.932 552.371L538.374 561.153C488.016 608.28 453.733 663.777 443.099 686.173L359.887 716.851Z" fill="#001647" fill-opacity="0.2"/>
<path d="M364.028 801.813C354.076 800.496 344.144 799.025 334.23 797.399C306.552 792.824 279.493 787.009 258.929 779.757C255.669 778.61 252.71 776.716 250.281 774.221C247.851 771.727 246.016 768.698 244.915 765.367C243.815 762.037 243.478 758.494 243.932 755.01C244.386 751.527 245.618 748.196 247.533 745.273C268.878 712.643 314.762 650.968 383.157 602.831C383.157 602.831 402.36 310.699 701.675 253.239C1000.99 195.778 1121.72 458.388 1134.58 509.714C1134.58 509.714 1236 540.898 1294.32 623.492C1297.32 627.715 1298.83 632.853 1298.58 638.063C1298.34 643.273 1296.37 648.244 1292.99 652.16C1281.88 664.897 1257.92 683.904 1206.41 704.608" stroke="black" stroke-width="22" stroke-miterlimit="10"/>
<path d="M383.144 602.819C383.144 602.819 625 483.756 1134.57 509.703" stroke="black" stroke-width="22" stroke-miterlimit="10"/>
<path d="M245.071 765.774C245.071 765.774 286.039 722.428 507.075 672.557C706.679 627.495 911.21 609.222 1115.47 618.2C1180.56 621.084 1245.28 626.907 1298.55 637.603" stroke="black" stroke-width="22" stroke-miterlimit="10"/>
<path d="M404.141 511.46C404.141 511.46 721.312 375.084 1101.06 436.771" stroke="black" stroke-width="22" stroke-miterlimit="10"/>
</g>
<defs>
<clipPath id="clip0_708_162">
<rect width="1500" height="1500" fill="white"/>
</clipPath>
</defs>
      
    </g>
    </svg>