<svg
      xmlns="http://www.w3.org/2000/svg"
      preserveAspectRatio="xMidYMin meet"
      fill="none"
      viewBox="0 0 1500 1500"
    >
      <g>
      <path fill="url(#prefix__paint0_linear_53_28788)" d="M0 0h1500v1500H0z"/><defs><linearGradient id="prefix__paint0_linear_53_28788" x1="0" y1="0" x2="1500" y2="1500" gradientUnits="userSpaceOnUse">
<stop stop-color="#DBE4E4"/>
<stop offset="1" stop-color="#A7BDBD"/>
</linearGradient></defs>
      <g clip-path="url(#prefix__clip0_53_28307)"><path d="M460.5 1094.5c-138.4 66.4-174 309.33-174.5 422.5h983.5c-12.5-72.17-53.2-244.1-116-354.5-78.5-138-520-151-693-68z" fill="#A760FF"/><path d="M367 1440c-17.2-1.2-22.167 49.83-22.5 75.5l47.5-4.5c-1.167-23.17-7.8-69.8-25-71zM674 1276c-29.6 1.2-47 22.83-52 33.5l4.5 14 56 10.5c14.833-5 44.8-18.8 46-34 1.5-19-17.5-25.5-54.5-24zM554.5 1131.5c-49.2-6.8-55.167 21.17-52 36-2 6.83 1.9 23.3 33.5 34.5 39.5 14 138 33.5 166.5 31 22.8-2 24.833-33.83 23-49.5-36.5-14.5-121.8-45.2-171-52zM842 1417c-38.8 30.4-22.5 74.67-9.5 93l140.5 3.5c7.167-4 20-20.9 14-56.5-7.5-44.5-96.5-78-145-40zM1114.5 1293c-46.4-6.8-12.67-111.83 10-163.5l49 71.5c-.33 33.5-12.6 98.8-59 92z" fill="#ABF"/><path d="M386 1459l-1 47.5H284c2.833-48.17 12.8-156.6 30-205 17.2-48.4 43.5-97.5 54.5-116 29.667-31.67 93.9-93.8 113.5-89 19.6 4.8 28.5 23.67 30.5 32.5l-16.5 22.5 7.5 21 9 19c-95.2 77.2-124 210.5-126.5 267.5z" fill="#001647" fill-opacity=".2"/><path d="M705.5 1163c27.2 82.4-120.333 42.67-197.5 12.5l23.5 29.5c29.333 8.33 95.4 25.7 125 28.5 37 3.5 71-12 71.5-33 .4-16.8-14.833-32-22.5-37.5zM659.5 1315.5c-19.2.4-34.667-6.5-40-10l6.5 17c6.5 2.33 27.7 7.3 60.5 8.5 32.8 1.2 37.667-26.83 36-41-12.833-6-35.4-15.5-23-5.5 15.5 12.5-16 30.5-40 31zM960.5 1463.5c-4-32.4-41.667-52.83-60-59H920c14.667 5.83 47.3 23.2 60.5 46 13.2 22.8 1.5 49.5-6 60h-22c4.333-2.17 12-14.6 8-47zM1143 1161c16 61.6-21.67 112.67-40 126.5 53.5 10.5 70.33-58.33 68.5-87L1143 1161z" fill="#001647" fill-opacity=".2"/><path d="M289.501 1512.5c-6-101.5 31-323.03 140.5-398 158.5-108.51 616.499-87 706.499 26 64.91 81.5 99.5 222.5 132.5 371M1084.5 1337c12.33 37 29.5 110.3 43.5 175.5m-646.499 0c.333-32.83 7.7-107.6 20.5-157" stroke="#000" stroke-width="20" stroke-linecap="round"/><ellipse cx="675.502" cy="1303.28" rx="53.591" ry="29" transform="rotate(-4.687 675.502 1303.28)" stroke="#000" stroke-width="20"/><path d="M515.271 1188.27c-36.061-24.71-9.368-73.42 39.746-60.07l145.257 41.58c16.768 4.8 32.505 18.71 28.297 35.64-5.969 24.01-33.117 28.75-56 27.53-67.132-3.59-121.239-19.97-157.3-44.68zM393 1490c0 27.06-10.969 49-24.5 49s-24.5-21.94-24.5-49 10.969-49 24.5-49 24.5 21.94 24.5 49zM1173 1198.09c0 35.54-15.89 101.53-57.73 93.09-54.77-11.04-11.86-107.12 7.51-159.18" stroke="#000" stroke-width="20"/><ellipse cx="906" cy="1473" rx="87" ry="71" stroke="#000" stroke-width="20"/></g><defs><clipPath id="prefix__clip0_53_28307"><path fill="#fff" d="M0 0h1500v1500H0z"/></clipPath></defs>
      <g clip-path="url(#clip0_497_1194)">
<path d="M379.667 654.812C432.345 471.574 618.472 401.981 699.114 390.653C740.985 382.718 849.655 375.215 949.364 408.675C980 418.956 1049.88 457.388 1091.92 499.818C1144.47 552.856 1272.97 732.052 1185.05 927.725C1097.12 1123.4 758.414 1092.29 612.749 1051.82C464.472 1010.63 314.48 881.563 379.667 654.812Z" fill="#AABBFF"/>
<path d="M449.293 747.204C454.734 531.068 585.306 432.345 649.911 410C432.292 459.565 365.296 655.455 364 747.204C377.99 984.871 584.496 1053.43 681 1058C601.498 1044.46 443.853 963.339 449.293 747.204Z" fill="#001647" fill-opacity="0.2"/>
<path d="M379.667 654.812C432.345 471.574 618.472 401.981 699.114 390.653C740.985 382.718 849.655 375.215 949.364 408.675C980 418.956 1049.88 457.388 1091.92 499.818C1144.47 552.856 1272.97 732.052 1185.05 927.725C1097.12 1123.4 758.414 1092.29 612.749 1051.82C464.472 1010.63 314.48 881.563 379.667 654.812Z" stroke="black" stroke-width="22" stroke-linecap="round"/>
</g>
<defs>
    <clipPath id="prefix__clip0_299_662"><path fill="#fff" d="M0 0h1500v1500H0z"/></clipPath>
</defs>
      <g clip-path="url(#clip0_624_2936)">
<path d="M876.088 925.246H970.501" stroke="black" stroke-width="22" stroke-linecap="round"/>
<path d="M864.633 785.967L846.559 774.78L827.213 762.8L802.666 747.607" stroke="black" stroke-width="22" stroke-linecap="round"/>
<path d="M848.206 782.713C848.206 786.612 847.063 790.425 844.918 793.681C842.773 796.937 839.721 799.492 836.139 801.032C832.557 802.571 828.602 803.027 824.764 802.342C820.925 801.657 817.372 799.862 814.544 797.179C811.715 794.495 809.735 791.042 808.848 787.245C807.962 783.448 808.208 779.475 809.556 775.817C810.904 772.158 813.295 768.976 816.434 766.662C819.572 764.348 823.319 763.006 827.213 762.8L846.546 774.8C847.638 777.295 848.203 779.989 848.206 782.713Z" fill="black" stroke="black" stroke-width="22" stroke-linecap="round"/>
<path d="M1024.63 747.607L1000.09 762.8L980.739 774.78L962.666 785.967" stroke="black" stroke-width="22" stroke-linecap="round"/>
<path d="M979.094 782.713C979.094 786.612 980.237 790.425 982.382 793.681C984.527 796.937 987.579 799.492 991.161 801.032C994.743 802.571 998.698 803.027 1002.54 802.342C1006.37 801.657 1009.93 799.862 1012.76 797.179C1015.59 794.495 1017.57 791.042 1018.45 787.245C1019.34 783.448 1019.09 779.475 1017.74 775.817C1016.4 772.158 1014 768.976 1010.87 766.662C1007.73 764.348 1003.98 763.006 1000.09 762.8L980.754 774.8C979.662 777.295 979.097 779.989 979.094 782.713Z" fill="black" stroke="black" stroke-width="22" stroke-linecap="round"/>
</g>
<defs>
<clipPath id="clip0_624_2936">
<rect width="1500" height="1500" fill="white"/>
</clipPath>
</defs>
      <g clip-path="url(#clip0_884_3075)">
<path opacity="0.5" d="M720 750.438C720 722.417 743.895 701.078 770.199 705.609C796.226 710.091 822.774 710.091 848.801 705.609C875.105 701.078 899 722.417 899 750.438V774.93C899 825.227 860.214 866 812.37 866H806.63C758.786 866 720 825.227 720 774.93V750.438Z" fill="#A5F15C"/>
<path opacity="0.5" d="M937 750.438C937 722.417 960.762 701.078 986.919 705.609C1012.8 710.091 1039.2 710.091 1065.08 705.609C1091.24 701.078 1115 722.417 1115 750.438V774.93C1115 825.227 1076.43 866 1028.85 866H1023.15C975.569 866 937 825.227 937 774.93V750.438Z" fill="#A5F15C"/>
<path d="M555 792C555 797.523 559.477 802 565 802C570.523 802 575 797.523 575 792H555ZM720 747L595 747L595 767L720 767L720 747ZM555 787V792H575V787H555ZM595 747C572.909 747 555 764.909 555 787H575C575 775.955 583.954 767 595 767L595 747Z" fill="black"/>
<path d="M956.85 721.662C956.85 721.662 956.298 703.515 996.284 698.54L1068.96 850.236C1068.96 850.236 1054.94 866.613 1025.72 865.696L956.85 721.662Z" fill="white" fill-opacity="0.3"/>
<path d="M740.63 724.24C740.63 724.24 740.078 706.416 780.064 701.53L852.741 850.523C852.741 850.523 838.725 866.607 809.505 865.706L740.63 724.24Z" fill="white" fill-opacity="0.3"/>
<path d="M1009.77 706.801C1009.77 706.801 1006.07 709.846 1019.83 701.031L1084.46 832.685C1084.46 832.685 1088.66 838.122 1077.47 840.432L1009.77 706.801Z" fill="white" fill-opacity="0.3"/>
<path d="M793.546 709.643C793.546 709.643 789.847 712.634 803.615 703.975L868.238 833.283C868.238 833.283 872.442 838.623 861.249 840.892L793.546 709.643Z" fill="white" fill-opacity="0.3"/>
<path d="M937.905 788.269C944.913 829.009 980.328 860 1022.96 860H1028.68C1076.35 860 1115 821.253 1115 773.455V744.18C1115 717.552 1091.19 699.273 1064.98 701.579C1039.05 702.839 1012.6 702.839 986.664 701.579C962.761 699.652 940.855 714.173 937.184 737.31C936.83 739.543 936.645 741.837 936.645 744.18V773.455C936.645 778.506 937.077 783.455 937.905 788.269ZM937.905 788.269L937.119 787.669C926.202 779.335 910.993 779.583 900.355 788.269V788.269M902 751H933.5M772.018 701.579C797.951 702.839 824.403 702.839 850.336 701.579C876.545 699.273 900.355 717.552 900.355 744.18V773.455C900.355 821.253 861.709 860 814.037 860H808.318C760.646 860 722 821.253 722 773.455V744.18C722 717.552 745.809 699.273 772.018 701.579Z" stroke="black" stroke-width="20" stroke-linecap="round"/>
</g>
<defs>
<clipPath id="clip0_884_3075">
<rect width="1500" height="1500" fill="white"/>
</clipPath>
</defs>
      <g clip-path="url(#clip0_798_1964)">
<path d="M711.94 381.541L669.138 415.004L754.914 456.956C786.09 456.451 856.04 454.579 886.429 451.127C916.817 447.675 946.703 430.594 957.848 422.485L912.882 387.272L890.772 360.146L852.07 352.844L816.711 388.83L811.119 369.892L779.2 357.196L748.101 362.456L711.94 381.541Z" fill="#AABBFF"/>
<path d="M754.823 451.145C758.386 440.393 766.661 423.631 780.081 411.559M882.17 449.083C878.062 439.675 870.922 425.659 859.411 414.501M670.743 416.037C678.291 403.405 696.028 378.1 722.448 377.672C724.832 377.634 727.122 377.712 729.323 377.895M780.081 411.559C789.433 403.145 801.285 397.009 815.783 396.774C818.147 396.736 820.438 396.825 822.658 397.03M780.081 411.559C771.884 400.903 758.35 380.305 729.323 377.895M953.095 422.563C946.826 410.677 929.573 387.795 908.089 385.052M859.411 414.501C864.186 404.755 879.655 385.169 903.328 384.785C904.936 384.759 906.524 384.852 908.089 385.052M859.411 414.501C850.192 405.565 838.17 398.463 822.658 397.03M729.323 377.895C734.108 368.72 747.587 350.309 768.512 349.97C795.461 349.534 817.557 375.809 822.658 397.03M908.089 385.052C903.334 374.267 889.367 351.713 871.612 352C849.419 352.36 832.274 370.674 822.592 392.964" stroke="black" stroke-width="22" stroke-linecap="round"/>
<path d="M734.247 487.127C733.447 492.759 720.564 594.052 812.718 612.46" stroke="black" stroke-width="21" stroke-linecap="round"/>
<path d="M945.288 493.324C944.488 498.956 931.605 600.249 1023.76 618.657" stroke="black" stroke-width="21" stroke-linecap="round"/>
<path d="M735.561 507.67C736.849 505.281 738.788 503.246 741.189 501.767C818.004 453.586 826.066 335.697 827.014 298.636C827.033 297.871 827.304 297.132 827.79 296.517C828.275 295.902 828.954 295.44 829.734 295.193C830.514 294.946 831.358 294.926 832.155 295.135C832.952 295.344 833.663 295.772 834.194 296.363C912.888 383.77 897.815 466.178 888.628 495.666C886.199 503.464 883.195 511.005 879.833 518.449C869.807 540.653 842.318 588.978 788.15 603.647C751.553 591.291 732.29 544.604 733.84 515.4C733.679 512.724 734.272 510.06 735.561 507.67Z" fill="#FF6247" stroke="black" stroke-width="20" stroke-miterlimit="10"/>
<path d="M833.002 305.604C891.142 432.863 797.767 523.043 743.812 552.226L734.239 506.154L750.853 495.018L785.661 461.816L808.807 412.473L825.13 340.737L833.002 305.604Z" fill="#001647" fill-opacity="0.2"/>
<path d="M946.602 513.867C947.89 511.477 949.829 509.443 952.23 507.963C1029.04 459.783 1037.11 341.893 1038.06 304.832C1038.07 304.068 1038.34 303.329 1038.83 302.713C1039.32 302.098 1039.99 301.636 1040.77 301.389C1041.55 301.142 1042.4 301.122 1043.2 301.331C1043.99 301.54 1044.7 301.968 1045.23 302.559C1123.93 389.966 1108.86 472.375 1099.67 501.862C1097.24 509.661 1094.24 517.201 1090.87 524.645C1080.85 546.849 1053.36 595.174 999.191 609.843C962.594 597.487 943.331 550.801 944.881 521.596C944.72 518.92 945.313 516.256 946.602 513.867Z" fill="#FF6247" stroke="black" stroke-width="20" stroke-miterlimit="10"/>
<path d="M1044.04 311.801C1102.18 439.059 1008.81 529.239 954.853 558.422L945.28 512.35L961.894 501.215L996.702 468.012L1019.85 418.669L1036.17 346.933L1044.04 311.801Z" fill="#001647" fill-opacity="0.2"/>
</g>
<defs>
<clipPath id="clip0_798_1964">
<rect width="1500" height="1500" fill="white"/>
</clipPath>
</defs>
      
    </g>
    </svg>