<svg
      xmlns="http://www.w3.org/2000/svg"
      preserveAspectRatio="xMidYMin meet"
      fill="none"
      viewBox="0 0 1500 1500"
    >
      <g>
      <path fill="url(#prefix__paint0_linear_53_28788)" d="M0 0h1500v1500H0z"/><defs><linearGradient id="prefix__paint0_linear_53_28788" x1="0" y1="0" x2="1500" y2="1500" gradientUnits="userSpaceOnUse">
<stop stop-color="#DBE4E4"/>
<stop offset="1" stop-color="#A7BDBD"/>
</linearGradient></defs>
      <g clip-path="url(#clip0_481_264)">
<path d="M773 1011.5C543.4 1029.9 398.667 1353.5 355 1513H1138.5C1075.7 1127 868.667 1017.83 773 1011.5Z" fill="#FF9C07"/>
<path d="M749.5 1019.5C536 1134 457.448 1414.63 443.159 1511H353.699C350.414 1508.73 357.049 1471.27 409.87 1339.62C462.691 1207.98 569.086 1113.24 605.384 1082.33L674 1033.5L749.5 1019.5Z" fill="#001647" fill-opacity="0.2"/>
<path d="M790.5 1299.5L764 1344L861.5 1424L937.5 1336.5L905.5 1299.5H790.5Z" fill="#53B6F9"/>
<path d="M353.5 1519.5C365.5 1454.33 414.5 1313.6 483.5 1219C530.101 1155.11 577.468 1101.29 629.141 1059.66C710.278 994.299 826.037 996.323 905.02 1064.27C1000.08 1146.05 1103.44 1290.29 1142.5 1519.5M1013.5 1319C1024.83 1354.33 1048.1 1443.9 1050.5 1519.5M667 1361.5C661.167 1392.33 650.3 1467.1 653.5 1519.5" stroke="black" stroke-width="22" stroke-linecap="round"/>
<path d="M945.201 1335.84L910.271 1292.89C909.521 1291.97 908.551 1291.23 907.481 1290.73C906.401 1290.23 905.231 1289.97 904.001 1290L787.021 1293.3C785.841 1293.31 784.671 1293.63 783.641 1294.22C782.621 1294.81 781.751 1295.65 781.121 1296.67L756.011 1338.36C754.181 1341.41 754.891 1345.42 757.691 1347.9L854.321 1433.01C855.771 1434.28 857.641 1434.99 859.511 1434.99C859.671 1434.99 859.831 1434.99 859.991 1434.98C861.901 1434.85 863.631 1434.01 864.871 1432.61L943.751 1342.56C945.381 1340.7 945.861 1338.17 945.201 1335.84ZM922.661 1330.48L893.161 1331.31L905.831 1310.29L922.661 1330.48ZM920.841 1345.46L873.301 1399.71L885.581 1346.45L920.841 1345.46ZM861.431 1306.13L890.941 1305.3L878.271 1326.33L861.431 1306.13ZM869.941 1346.9L856.771 1403.98L832.151 1347.96L869.941 1346.9ZM834.641 1332.95L847.321 1311.93L864.151 1332.12L834.641 1332.95ZM816.321 1348.4L839.101 1400.24L781.361 1349.39L816.321 1348.4ZM802.931 1307.8L832.441 1306.96L819.771 1327.99L802.931 1307.8ZM805.661 1333.77L776.151 1334.6L788.821 1313.56L805.661 1333.77Z" fill="black"/>
</g>
<defs>
<clipPath id="clip0_481_264">
<rect width="1500" height="1500" fill="white"/>
</clipPath>
</defs>
      <g clip-path="url(#clip0_497_1194)">
<path d="M379.667 654.812C432.345 471.574 618.472 401.981 699.114 390.653C740.985 382.718 849.655 375.215 949.364 408.675C980 418.956 1049.88 457.388 1091.92 499.818C1144.47 552.856 1272.97 732.052 1185.05 927.725C1097.12 1123.4 758.414 1092.29 612.749 1051.82C464.472 1010.63 314.48 881.563 379.667 654.812Z" fill="#AABBFF"/>
<path d="M449.293 747.204C454.734 531.068 585.306 432.345 649.911 410C432.292 459.565 365.296 655.455 364 747.204C377.99 984.871 584.496 1053.43 681 1058C601.498 1044.46 443.853 963.339 449.293 747.204Z" fill="#001647" fill-opacity="0.2"/>
<path d="M379.667 654.812C432.345 471.574 618.472 401.981 699.114 390.653C740.985 382.718 849.655 375.215 949.364 408.675C980 418.956 1049.88 457.388 1091.92 499.818C1144.47 552.856 1272.97 732.052 1185.05 927.725C1097.12 1123.4 758.414 1092.29 612.749 1051.82C464.472 1010.63 314.48 881.563 379.667 654.812Z" stroke="black" stroke-width="22" stroke-linecap="round"/>
</g>
<defs>
    <clipPath id="prefix__clip0_299_662"><path fill="#fff" d="M0 0h1500v1500H0z"/></clipPath>
</defs>
      <g clip-path="url(#clip0_624_3413)">
<path d="M922.5 969C931.895 969 941.078 966.214 948.89 960.995C956.701 955.775 962.789 948.357 966.384 939.677C969.979 930.998 970.92 921.447 969.087 912.233C967.254 903.019 962.731 894.555 956.088 887.912C949.445 881.269 940.981 876.746 931.767 874.913C922.553 873.08 913.002 874.021 904.323 877.616C895.643 881.211 888.225 887.299 883.005 895.11C877.786 902.922 875 912.105 875 921.5C875 927.738 876.229 933.914 878.616 939.677C881.003 945.44 884.502 950.677 888.912 955.088C893.323 959.498 898.56 962.997 904.323 965.384C910.085 967.771 916.262 969 922.5 969Z" fill="white" stroke="black" stroke-width="22" stroke-miterlimit="10" stroke-linecap="round"/>
<path d="M822 818C849.062 818 871 796.062 871 769C871 741.938 849.062 720 822 720C794.938 720 773 741.938 773 769C773 796.062 794.938 818 822 818Z" fill="white" stroke="black" stroke-width="20" stroke-miterlimit="10"/>
<path d="M1012 818C1039.06 818 1061 796.062 1061 769C1061 741.938 1039.06 720 1012 720C984.938 720 963 741.938 963 769C963 796.062 984.938 818 1012 818Z" fill="white" stroke="black" stroke-width="20" stroke-miterlimit="10"/>
<path d="M822 782C829.18 782 835 776.18 835 769C835 761.82 829.18 756 822 756C814.82 756 809 761.82 809 769C809 776.18 814.82 782 822 782Z" fill="black"/>
<path d="M1012 782C1019.18 782 1025 776.18 1025 769C1025 761.82 1019.18 756 1012 756C1004.82 756 999 761.82 999 769C999 776.18 1004.82 782 1012 782Z" fill="black"/>
</g>
<defs>
<clipPath id="clip0_624_3413">
<rect width="1500" height="1500" fill="white"/>
</clipPath>
</defs>
      <g clip-path="url(#clip0_925_1401)">
<ellipse cx="932" cy="915.5" rx="131" ry="69.5" fill="#AABBFF"/>
<path d="M918 889C941.196 889 960 870.196 960 847C960 823.804 941.196 805 918 805C894.804 805 876 823.804 876 847C876 870.196 894.804 889 918 889Z" fill="#FF6247" stroke="black" stroke-width="20"/>
<path d="M1005 930.356C1005 959.98 966.25 984 918.494 984C870.738 984 832 959.973 832 930.356C832 929.977 832 929.591 832 929.212C832.625 911.226 849.556 899.938 864.2 907.269C879.044 914.691 897.95 919.139 918.469 919.139C938.988 919.139 957.906 914.691 972.75 907.262C987.394 899.938 1004.35 911.226 1004.95 929.212C1004.99 929.591 1005 929.97 1005 930.356Z" fill="white" stroke="black" stroke-width="20"/>
<ellipse cx="931.245" cy="839.196" rx="8.55209" ry="16.8191" transform="rotate(-31.5641 931.245 839.196)" fill="white"/>
</g>
<defs>
<clipPath id="clip0_925_1401">
<rect width="1500" height="1500" fill="white"/>
</clipPath>
</defs>
      <g clip-path="url(#clip0_499_1441)">
<path d="M376 874C356 831 352 775 353.5 755V739.5L479.5 706.5L646.5 687.5C701.833 680.167 835.3 652.7 926.5 601.5C1017.7 550.3 1130.83 580.167 1176 601.5C1201.2 643.1 1216.5 705.833 1221 732L1264.5 710L1335.5 644L1341 615.5C1327.83 605.667 1301.1 585.7 1299.5 584.5C1297.9 583.3 1248.5 559.333 1224 547.5L1136.5 495L1089 454C1081.5 442.667 1056.4 397.4 1016 307C975.6 216.6 873.5 214 827.5 224C771.167 234.5 635.3 261.6 542.5 286C449.7 310.4 413.5 348.834 407 365L388 489.5L382 584.5L353.5 649L239.5 806.5C247.5 813 267.6 830.8 284 850C300.4 869.2 352.167 874 376 874Z" fill="#A760FF"/>
<path d="M492 583.5C467.6 608.3 438.167 685.167 426.5 718L354 749.5C349 784 364 854 378 876L355.5 878L295.5 856.5L245.5 818V802L347 665L378 597L393.5 482.5L403.5 368.5L443.5 329.5L522.5 299.5C495 389.5 498.833 497.667 506.5 543L579.5 512.5L749 467.5L947.5 440.5L1019 452.5L1018.54 455.235C1017.4 462.096 1011.09 466.826 1004.17 466.186C831.696 450.262 592.254 528.165 492 583.5Z" fill="#001647" fill-opacity="0.2"/>
<path d="M1220 730C1215 693 1193 634 1177.5 604.5L1220 610L1289.5 616L1345.5 619.5L1331.5 653.5L1294 695.5L1253 717.5L1220 730Z" fill="#001647" fill-opacity="0.2"/>
<path d="M452.772 571.28C563.115 511.305 821.499 413.5 1022.05 447.163M1215.08 734.367C1293.13 704.467 1331.11 656.617 1344.38 628.399C1347.53 621.702 1345.42 613.97 1339.66 609.317C1322.28 595.265 1287.7 571.775 1238.64 550.176C1193.41 530.262 1142.48 497.329 1108.33 473.151C1090.34 460.41 1078.37 441.255 1070.66 420.597C1047.56 358.685 1006.85 298.749 975.149 260.245C960.235 242.133 938.188 231.705 914.759 230.46C705.3 219.332 524.534 286.218 436.125 335.612C415.64 347.058 402.082 367.059 398.853 390.302C391.557 442.833 384.121 531.205 379.99 587.396C379.191 598.258 376.802 608.945 371.678 618.556C346.077 666.577 283.741 747.752 245.106 795.488C238.549 803.591 239.171 815.376 247.135 822.1C280.404 850.188 338.468 887.386 385.999 879.581M240.444 809.859C262.015 792.823 333.043 745.637 420.195 720.843C529.136 689.851 641.153 689.404 727.401 672.098C848.465 647.807 916.79 573.215 1047.32 572.025C1177.85 570.835 1187.03 629.968 1339.22 617.077" stroke="black" stroke-width="22" stroke-linecap="round"/>
<path d="M778.287 318.16C778.395 318.004 778.345 317.799 778.177 317.709L725.393 288.599C725.124 288.453 724.793 288.697 724.88 288.978L731.374 309.937C731.431 310.12 731.303 310.313 731.1 310.351L681.368 319.643C681.167 319.681 681.039 319.872 681.093 320.054L688.072 349.642C688.12 349.802 688.29 349.898 688.466 349.866L738.337 340.547C738.511 340.515 738.681 340.609 738.73 340.767L745.281 361.91C745.362 362.174 745.74 362.218 745.903 361.983L778.287 318.16ZM664.589 380.771C664.414 380.804 664.245 380.709 664.196 380.552L657.645 359.408C657.564 359.145 657.186 359.101 657.023 359.335L625.578 403.182C625.47 403.338 625.52 403.543 625.688 403.633L677.525 432.707C677.795 432.852 678.125 432.608 678.038 432.328L671.572 411.459C671.516 411.276 671.643 411.083 671.846 411.045L721.578 401.753C721.78 401.715 721.907 401.524 721.853 401.342L714.852 371.665C714.804 371.506 714.634 371.409 714.458 371.442L664.589 380.771Z" fill="white"/>
</g>
<defs>
<clipPath id="clip0_499_1441">
<rect width="1500" height="1500" fill="white"/>
</clipPath>
</defs>
      
    </g>
    </svg>