<svg
      xmlns="http://www.w3.org/2000/svg"
      preserveAspectRatio="xMidYMin meet"
      fill="none"
      viewBox="0 0 1500 1500"
    >
      <g>
      <path fill="url(#prefix__paint0_linear_53_30461)" d="M0 0h1500v1500H0z"/><defs><linearGradient id="prefix__paint0_linear_53_30461" x1="0" y1="0" x2="1500" y2="1533.5" gradientUnits="userSpaceOnUse">
<stop stop-color="#EEB0FC"/>
<stop offset="1" stop-color="#AF55F5"/>
</linearGradient></defs>
      <g clip-path="url(#clip0_483_526)">
<path d="M366.5 1327.5C264.5 1394.3 286.333 1481.33 310 1516.5L1208 1510C1237.2 1434.8 1183.17 1369.33 1152.5 1346C1198.9 1256 1109.83 1182.17 1059.5 1156.5C1089.1 1116.1 1063.83 1061 1047.5 1038.5C819.5 1116.1 602.5 1048.83 522.5 1005.5C452.9 1045.5 475.833 1117.83 496 1149C358.8 1177.8 352.5 1280 366.5 1327.5Z" fill="#A760FF"/>
<path d="M1069.32 1160.2C1064.35 1156.71 1057.49 1157.91 1054 1162.88C1039.23 1183.91 1016.26 1201.27 992.35 1214.66C968.55 1227.99 944.65 1236.92 928.96 1241.44C923.12 1243.12 919.75 1249.21 921.43 1255.05C923.11 1260.89 929.2 1264.26 935.04 1262.58C952.15 1257.66 977.65 1248.11 1003.1 1233.85C1028.44 1219.66 1054.57 1200.33 1072 1175.52C1075.49 1170.55 1074.29 1163.69 1069.32 1160.2Z" fill="#001647" fill-opacity="0.2"/>
<path d="M1164.1 1354.75C1159.24 1351.11 1152.34 1352.1 1148.7 1356.96C1133.03 1377.87 1104.14 1383.83 1083.64 1384.51C1077.57 1384.71 1072.81 1389.8 1073.01 1395.87C1073.21 1401.94 1078.3 1406.7 1084.37 1406.5C1106.4 1405.77 1144.34 1399.48 1166.31 1370.15C1169.95 1365.29 1168.97 1358.39 1164.1 1354.75Z" fill="#001647" fill-opacity="0.2"/>
<path d="M974 1404.68C955.73 1408.06 923.06 1412.42 884.83 1413.9C846.05 1415.41 802.01 1413.94 761.7 1405.72C755.75 1404.51 749.94 1408.35 748.72 1414.3C747.51 1420.25 751.35 1426.06 757.3 1427.28C799.95 1435.98 845.9 1437.43 885.68 1435.89C924.97 1434.36 958.69 1429.89 978 1426.32C983.97 1425.21 987.92 1419.48 986.82 1413.5C985.72 1407.53 979.98 1403.58 974 1404.68Z" fill="#001647" fill-opacity="0.2"/>
<path d="M526 1158.5L571 1186L615.26 1203.5L680 1225L731.5 1232.5L752.18 1235C707.21 1216.67 630.42 1157.5 683 1067.5L509.66 1009L484 1061.5L480 1115L501 1137.5L526 1158.5Z" fill="#001647" fill-opacity="0.2"/>
<path d="M575.64 1215.68C588.5 1221.37 601.86 1226.63 615.26 1231.41C664.47 1248.96 716.66 1260.84 750.81 1262.98C756.87 1263.36 762.1 1258.75 762.48 1252.69C762.86 1246.63 758.25 1241.41 752.19 1241.03C720.76 1239.07 670.68 1227.82 622.65 1210.7C574.19 1193.42 530.41 1171.05 509.66 1148.1C505.59 1143.59 498.63 1143.24 494.12 1147.32C493.29 1148.07 492.61 1148.91 492.06 1149.82L491.49 1149.51L400.99 1186.01L372.99 1242.51L360.99 1305.51L372.66 1327.65C371.89 1327.77 371.12 1327.97 370.37 1328.26L363.99 1321.01L321.49 1356.01L287 1432L300.5 1513H401C381.17 1457.08 423.35 1428.94 465.37 1415.96C483.49 1420.94 504.21 1424.83 527.79 1427.43C533.83 1428.1 539.26 1423.74 539.93 1417.7C540.6 1411.66 536.24 1406.23 530.2 1405.56C520.59 1404.5 511.58 1403.23 503.1 1401.77L493.44 1398.36L525.99 1401.49C506.16 1380.99 471.49 1327.59 491.49 1277.99C506.17 1241.57 544.58 1223.41 575.63 1215.67L575.64 1215.68Z" fill="#001647" fill-opacity="0.2"/>
<path d="M1013.5 1319C1024.83 1354.33 1048.1 1443.9 1050.5 1519.5M667 1361.5C661.166 1392.33 650.3 1467.1 653.5 1519.5M1205 1519.5C1216 1480.17 1221.2 1391.6 1154 1352M1079 1384C1114 1382.83 1181.89 1367 1163.5 1276C1148.04 1199.52 1089.25 1170.37 1058 1157.7M926.999 1240.5C959.802 1231.06 1025.8 1203.54 1058 1157.7M1058 1157.7C1061.62 1152.53 1064.82 1147.13 1067.5 1141.5C1080.32 1114.5 1076.3 1065.5 1047.5 1035.5C1019.19 1047.48 944.091 1070.65 852.5 1076.66M746.499 1240.5C674.499 1236 514.065 1185.63 485.999 1129C457.5 1071.5 493.833 1020 517.999 1002C574.999 1028.17 715.399 1080 820.999 1078C831.68 1077.8 842.194 1077.34 852.5 1076.66M491 1148.5C462.5 1154.17 399.8 1178 377 1228C348.5 1290.5 343 1385 524 1405M311.5 1513.5C285.667 1480.17 259.201 1396.2 360 1327M852.5 1076.66L880.255 1413.39M880.255 1413.39L889 1519.5M880.255 1413.39C919.011 1411.89 952.211 1407.48 971 1404M880.255 1413.39C840.971 1414.92 795.978 1413.46 754.5 1405" stroke="black" stroke-width="22" stroke-linecap="round"/>
</g>
<defs>
<clipPath id="clip0_483_526">
<rect width="1500" height="1500" fill="white"/>
</clipPath>
</defs>
      <g clip-path="url(#clip0_497_1194)">
<path d="M379.667 654.812C432.345 471.574 618.472 401.981 699.114 390.653C740.985 382.718 849.655 375.215 949.364 408.675C980 418.956 1049.88 457.388 1091.92 499.818C1144.47 552.856 1272.97 732.052 1185.05 927.725C1097.12 1123.4 758.414 1092.29 612.749 1051.82C464.472 1010.63 314.48 881.563 379.667 654.812Z" fill="#AABBFF"/>
<path d="M449.293 747.204C454.734 531.068 585.306 432.345 649.911 410C432.292 459.565 365.296 655.455 364 747.204C377.99 984.871 584.496 1053.43 681 1058C601.498 1044.46 443.853 963.339 449.293 747.204Z" fill="#001647" fill-opacity="0.2"/>
<path d="M379.667 654.812C432.345 471.574 618.472 401.981 699.114 390.653C740.985 382.718 849.655 375.215 949.364 408.675C980 418.956 1049.88 457.388 1091.92 499.818C1144.47 552.856 1272.97 732.052 1185.05 927.725C1097.12 1123.4 758.414 1092.29 612.749 1051.82C464.472 1010.63 314.48 881.563 379.667 654.812Z" stroke="black" stroke-width="22" stroke-linecap="round"/>
</g>
<defs>
    <clipPath id="prefix__clip0_299_662"><path fill="#fff" d="M0 0h1500v1500H0z"/></clipPath>
</defs>
      <g clip-path="url(#clip0_624_3562)">
<path d="M799.421 789.214L858.141 778.547C859.189 778.352 860.151 777.837 860.895 777.073C861.639 776.309 862.128 775.334 862.294 774.28C862.455 773.224 862.285 772.143 861.808 771.187C861.331 770.234 860.569 769.453 859.628 768.954L804.701 739.807" stroke="black" stroke-width="22" stroke-miterlimit="10" stroke-linecap="round"/>
<path d="M1037.67 789.214L979.001 778.547C977.951 778.355 976.987 777.841 976.243 777.076C975.499 776.312 975.011 775.335 974.847 774.28C974.687 773.227 974.854 772.149 975.327 771.194C975.804 770.237 976.569 769.453 977.514 768.954L1032.44 739.807" stroke="black" stroke-width="22" stroke-miterlimit="10" stroke-linecap="round"/>
<path d="M992 915.801C992 944.083 960.211 967 921 967C881.789 967 850 944.083 850 915.801C850.013 910.144 851.278 904.561 853.703 899.453C858.875 888.383 870.646 884.1 880.667 889.061C892.124 894.775 906.017 898.12 921.008 898.12C935.999 898.12 949.884 894.775 961.349 889.061C971.354 884.068 983.133 888.383 988.313 899.453C990.733 904.562 991.993 910.145 992 915.801Z" fill="white" stroke="black" stroke-width="22" stroke-miterlimit="10"/>
</g>
<defs>
<clipPath id="clip0_624_3562">
<rect width="1500" height="1500" fill="white"/>
</clipPath>
</defs>
      <g clip-path="url(#clip0_925_1372)">
<path d="M777.796 860C685.697 848.775 660.871 768.614 659.97 729.937C656.078 723.892 664.834 710.508 669.699 704.571L759.419 694.857L912.917 690L1139.92 698.635L1161 711.587L1157.22 758L1137.22 800.635L1113.44 838.952L1058.85 856.222L1022.64 849.206L962.101 828.159L920.484 813.587L863.192 842.19L777.796 860Z" fill="#53B6F9"/>
<path d="M690.196 699.224L763.942 693.424L860.722 851.244L833.96 864.946L794.601 869.089L690.196 699.224Z" fill="white" fill-opacity="0.9"/>
<path d="M781.871 695.304L801.049 695.304L884.919 828.487L873.319 837.602L781.871 695.304Z" fill="white" fill-opacity="0.9"/>
<path d="M958.357 690.074L1034.53 694.827L1119.67 818.835L1095.84 839.835L1062.61 854.919L958.357 690.074Z" fill="white" fill-opacity="0.9"/>
<path d="M1054 703.114L1068.91 703.114L1136.86 798.404L1127.74 811.662L1054 703.114Z" fill="white" fill-opacity="0.9"/>
<path d="M380.533 812.923C375.5 796.5 374.5 765 374.5 751L651.28 726.616L670.756 799.308L380.533 812.923Z" fill="white"/>
<path d="M1152.8 782.616L1167.95 724.462L1197.05 722.039C1201.5 741 1204.5 770 1204 784.5L1152.8 782.616Z" fill="white"/>
<path d="M501 809C493.8 789.4 494.333 761.833 495.5 750.5L373 754.5C370.2 772.1 377.166 802.167 379.5 815L501 809Z" fill="#001647" fill-opacity="0.2"/>
<path d="M653.87 725.984L365.663 749.005M669.935 798.066L372 811M1152.99 785.259L1210.28 779.417M1165.96 721.569L1206.5 721.569M781.167 861.953C682.013 851.636 657.16 770.149 656.503 719.768C656.395 711.426 662.733 704.694 671.004 703.598C763.882 691.282 967.052 676.004 1150.78 699.286C1158.48 700.261 1164.71 706.141 1164.73 713.901C1164.84 756.804 1137.12 837.115 1065.29 855.363C1017.69 867.452 975.216 843.757 948.769 820.361C936.589 809.587 917.535 808.228 904.418 817.837C856.527 852.92 804.134 862.105 781.167 861.953Z" stroke="black" stroke-width="22" stroke-linecap="round"/>
</g>
<defs>
<clipPath id="clip0_925_1372">
<rect width="1500" height="1500" fill="white"/>
</clipPath>
</defs>
      <style type="text/css">
	.st0{fill:#AABBFF;}
	.st1{fill:none;stroke:#000000;stroke-width:22;stroke-linecap:round;}
	.st2{fill:#F8CF47;}
	.st3{fill:#001647;fill-opacity:0.2;}
	.st4{fill:none;stroke:#000000;stroke-width:22;}
</style>
<path class="st0" d="M711.9,381.5L669.1,415l85.8,42c31.2-0.5,101.1-2.4,131.5-5.8c30.4-3.5,60.3-20.5,71.4-28.6l-45-35.2
	l-22.1-27.1l-38.7-7.3l-35.4,36l-5.6-18.9l-31.9-12.7l-31.1,5.3L711.9,381.5z"/>
<path class="st1" d="M754.8,451.1c3.6-10.8,11.8-27.5,25.3-39.6 M882.2,449.1c-4.1-9.4-11.2-23.4-22.8-34.6 M670.7,416
	c7.5-12.6,25.3-37.9,51.7-38.4c2.4,0,4.7,0,6.9,0.2 M780.1,411.6c9.4-8.4,21.2-14.5,35.7-14.8c2.4,0,4.7,0.1,6.9,0.3 M780.1,411.6
	c-8.2-10.7-21.7-31.3-50.8-33.7 M953.1,422.6c-6.3-11.9-23.5-34.8-45-37.5 M859.4,414.5c4.8-9.7,20.2-29.3,43.9-29.7
	c1.6,0,3.2,0.1,4.8,0.3 M859.4,414.5c-9.2-8.9-21.2-16-36.8-17.5 M729.3,377.9c4.8-9.2,18.3-27.6,39.2-27.9
	c26.9-0.4,49,25.8,54.1,47.1 M908.1,385.1c-4.8-10.8-18.7-33.3-36.5-33.1c-22.2,0.4-39.3,18.7-49,41"/>
<path class="st2" d="M370.4,649.9c-3.5,11-6.3,22.8-8.2,31c-0.2,0.9-0.7,1.7-1.3,2.3c-0.7,0.6-1.5,1-2.4,1.1
	c-0.9,0.1-1.8-0.1-2.6-0.5c-0.8-0.4-1.4-1.1-1.8-1.9c-1.2-2.4-2.2-5-3-7.6c-3-9.8,2.8-22.3,0.4-27.3c-2.4-5.1-0.8-14.6,1.1-22.2
	c1.5-6,2.6-12.2,3.3-18.3c0.2-2-0.5-14.4,0.9-18c1.1-3,6.9-15.4,8.9-19.6c0.4-0.9,1.1-1.6,1.9-2l30.1-19.9c0.2-0.1,3.5-12,3.7-12.1
	l84.5-18.8c0.1-0.1,0.3-0.1,0.4-0.1l97.6-23.3c0.2,0,0.4-0.1,0.5-0.1l95.5-10.7l127.1-17.4c0.2,0,0.3,0,0.5,0l163.3-2.5l0.5,0l0.1,0
	c4.3,0.4,54.5,4.6,67.9,4.9c14,0.3,47,2.7,62.9,4.9c15.8,2.3,23.6,7.6,29.2,11.7c5.6,4,25.9,9.2,32.6,16.8
	c6.7,7.6,23.8,40.3,22.8,41.1c-4.3,3.3,19.8,35.2,22.2,41.4c0.2,0.6,0.3,1.2,0.3,1.8l4,29.9c0,1.1-0.5,2-1.2,2.8l-14.4,15.2
	c-0.5,0.5-1.1,0.9-1.8,1.2c-0.7,0.2-1.4,0.3-2.2,0.1c-0.7-0.1-1.4-0.4-2-0.9c-0.6-0.5-1-1.1-1.3-1.7l-21.6-41.1
	c-2.4-4.6-7-7.6-12.2-8l-18.7-1.4l-114.8,2.4L812,589.5l-0.4,0l-281,34.1l-0.2,0l-116.9,20.5c-0.8,0.1-1.6,0.1-2.3-0.2l-14.1-5.4
	c-0.7-0.3-1.6-0.4-2.3-0.2l-5.8,0.2l-7.4,1.4C376.3,640.9,372,644.7,370.4,649.9z"/>
<path class="st3" d="M604.4,493.6c-29.7,32-45.2,96.8-49.3,125.1c-51.4,7.1-156.6,21.9-166.4,23.8c-9.8,2-21.7,25.5-26.4,37
	l-12.6-31.8l6.8-50.1c3-6.9,3.2-26.6,27.7-50c24.5-23.4,95.5-37,127.9-40.8L604.4,493.6z"/>
<g>
	<path fill="black" d="M683.6,562l-4.7-4.3c-1.1-1-2.2-2.1-3.3-3.1c0.8-2,1.5-4,2.2-6.1c0.9-2.9,1.6-5.9,2.1-8.8c0.2-0.8,0.2-1.6,0-2.3
		c-0.2-0.8-0.5-1.5-1-2.1c-0.9-1.3-2.2-2.1-3.7-2.5c-0.7-0.2-1.5-0.3-2.3-0.2c-0.8,0.1-1.5,0.4-2.2,0.8c-0.7,0.4-1.2,0.9-1.6,1.6
		c-0.4,0.6-0.7,1.3-0.9,2.1c-0.3,2.1-0.8,4.1-1.4,6.1c-0.1,0.5-0.3,1-0.5,1.5c-0.3-0.4-0.7-0.8-1-1.2c-1.2-1.5-2.3-3.1-3.4-4.8
		c-0.8-1.4-2.1-2.4-3.6-2.8c-1.5-0.4-3.1-0.3-4.5,0.4c-0.7,0.3-1.3,0.8-1.8,1.4c-0.5,0.6-0.8,1.3-1,2.1c-0.2,0.8-0.2,1.5,0,2.3
		c0.1,0.8,0.4,1.5,0.8,2.1c1.6,2.5,3.3,4.9,5.2,7.1c1.5,1.8,3,3.6,4.6,5.2c0,0.1,0,0.1-0.1,0.2l-0.2,0.4c-0.3,0.6-0.6,1.2-0.9,1.9
		c-0.3,0.6-0.5,1.2-0.8,1.7c-0.3,0.6-0.6,1.3-0.9,1.9c-0.4,0.8-0.7,1.5-1,2.3c-0.2,0.5-0.4,1-0.7,1.6c-0.3,0.7-0.4,1.5-0.4,2.2
		c0,0.8,0.2,1.5,0.5,2.1c0.6,1.4,1.7,2.5,3.1,3.1c0.8,0.4,1.7,0.6,2.5,0.6c0.3,0,0.6,0,0.8-0.1c1-0.1,1.9-0.5,2.6-1.1
		c0.8-0.6,1.3-1.4,1.7-2.3c0.5-1.3,1-2.4,1.5-3.5c0.3-0.5,0.5-1.1,0.7-1.6c0.1-0.3,0.2-0.5,0.4-0.8c0.4,0.4,0.9,0.8,1.3,1.2l3.8,3.4
		l0.4,0.4c0.7,0.7,1.5,1.2,2.4,1.4c0.9,0.3,1.8,0.3,2.7,0.2c1.2-0.2,2.3-0.7,3.2-1.6l0.1-0.1c0.5-0.6,0.9-1.2,1.1-1.9
		c0.2-0.7,0.3-1.4,0.3-2.2c-0.1-1.5-0.8-3-2-4L683.6,562z"/>
	<path fill="black" d="M718.2,540c-1.5-1-3.2-1.8-4.9-2.3c0.7-1.2,1.3-2.6,1.7-3.9c0.6-2,1-4,0.9-6.1c-0.1-2.6-0.9-5.2-2.2-7.4
		c-1.4-2.2-3.4-3.9-5.8-5c-1.5-0.6-3.1-1-4.8-1.2c-2.4-0.2-4.7,0.1-7,0.9c-4.4,1.6-8.3,4-11.7,7.2c-0.6,0.5-1.2,1.2-1.5,1.9
		c-0.3,0.8-0.5,1.6-0.5,2.4c0,0.9,0.2,1.7,0.5,2.5c0.3,0.8,0.8,1.4,1.4,2c0.6,0.6,1.2,1.1,2,1.5c0.8,0.4,1.6,0.6,2.4,0.6
		c0.8,0.1,1.7,0,2.5-0.3c0.8-0.3,1.5-0.7,2.2-1.3c1.4-1.3,3-2.4,4.6-3.4c1-0.6,2-1,3-1.4c0.5-0.2,1-0.3,1.6-0.3c0.1,0,0.2,0,0.4,0
		c0,0,0,0,0,0.1c0.1,0.2,0.1,0.4,0.1,0.8c0,0.9-0.1,1.7-0.4,2.5c-0.4,1-1,2-1.7,2.9c-0.9,1.1-1.9,2-3,2.8c-1.4,1-2.8,1.8-4.4,2.4
		c-0.7,0.3-1.4,0.7-2,1.3c-0.6,0.6-1,1.2-1.3,1.9c-0.3,0.7-0.5,1.5-0.5,2.3c0,0.8,0.2,1.5,0.5,2.2c0.6,1.5,1.7,2.7,3.1,3.4
		c1.4,0.7,3,1,4.6,0.6c2.2-0.5,4.5-0.8,6.8-0.9c1.4,0,2.7,0.1,4,0.3c2.2,0.5,2.9,1.1,3.1,1.4l0.1,0.1c0.1,0.1,0.1,0.1,0.1,0.2
		c0,0.1,0,0.2,0,0.3c-0.1,0.3-0.3,0.7-0.4,0.9c-1,1.5-2.6,2.5-4.4,2.9l-0.1,0c-1.6,0.5-3.4,0.7-5.1,0.7c-2.1,0-4.1-0.3-6.1-0.7
		c-0.8-0.2-1.7-0.3-2.5-0.1c-0.8,0.1-1.6,0.4-2.3,0.9c-0.7,0.4-1.3,1-1.7,1.7c-0.4,0.7-0.7,1.5-0.9,2.3c-0.1,0.8-0.1,1.6,0.1,2.4
		c0.2,0.8,0.6,1.5,1,2.2c1,1.4,2.4,2.3,4,2.7c2.9,0.7,5.9,1.1,8.8,1.1c0.2,0,0.4,0,0.7,0c1.3,0,2.5-0.1,3.8-0.2l0,0
		c0.8-0.1,1.5-0.2,2.2-0.4c0.7-0.2,1.4-0.3,2.1-0.5c2.3-0.7,4.5-1.7,6.4-3c1.9-1.3,3.5-2.9,4.7-4.7c1.6-2.3,2.4-5.1,2.3-7.9
		c-0.1-2.8-1.1-5.5-2.8-7.7C721,542.2,719.7,541,718.2,540z"/>
	<path fill="black" d="M764.1,532.9c-1.7-7.6-4.6-13.5-8.7-17.7c-2-2.1-4.4-3.6-7.1-4.7c-2.5-1-5.2-1.3-7.9-1c-2.4,0.2-4.8,1-6.9,2.3
		c-2.2,1.3-4,3-5.5,5.1c-1,1.5-1.9,3.1-2.6,4.8c-0.7,1.8-1.2,3.6-1.5,5.5c-0.4,2.1-0.5,4.2-0.3,6.4c0.1,2.2,0.4,4.4,0.9,6.6
		c0.8,3.4,2.1,6.6,3.8,9.6c1.6,2.9,3.7,5.4,6.1,7.6c2.2,2,4.8,3.5,7.6,4.5c2.1,0.8,4.3,1.2,6.5,1.2c0.6,0,1.2,0,1.8-0.1l0,0
		c2.2-0.2,4.3-0.9,6.3-2c1.9-1.1,3.6-2.6,4.9-4.5c0.8-1.1,1.4-2.3,2-3.6c0.7-1.6,1.2-3.3,1.5-5.1c0.4-2.2,0.5-4.4,0.4-6.6
		C765.2,538.4,764.8,535.6,764.1,532.9z M752.3,544.8c-0.1,0.9-0.3,1.8-0.7,2.6c-0.2,0.5-0.5,1-0.8,1.6c-0.3,0.4-0.7,0.8-1.1,1.1
		c-0.4,0.3-1,0.4-1.4,0.5c-0.9,0.1-1.8-0.1-2.6-0.4c-1.1-0.4-2.1-1.1-3-1.9c-1.3-1.2-2.5-2.7-3.4-4.3c-1-1.8-1.8-3.8-2.2-5.9
		c-0.6-2.5-0.8-5.1-0.5-7.7c0.3-2.1,1-4.1,2.2-5.8c0.6-0.7,1.2-1.4,2-1.9c0.5-0.3,1-0.6,1.6-0.7l0.2,0c1.1-0.1,2.4,0.5,3.7,1.7
		c1,1.1,1.9,2.4,2.6,3.8c2.1,4.2,3.2,8.7,3.6,13.4C752.5,542,752.5,543.4,752.3,544.8z"/>
	<path fill="black" d="M828.3,517.6c-1.7-3.1-3.9-5.9-6.7-8.2c-2.5-2-5.2-3.5-8.3-4.5c-3-1-6.2-1.4-9.3-1.1c-3.3,0.2-6.5,1.1-9.5,2.7
		c-2.9,1.5-5.4,3.6-7.4,6.2c-2.1,2.7-3.5,6-4.2,9.4c-0.7,3.9-0.6,7.7,0.3,11.5c0.8,3.8,2.3,7.3,4.3,10.5c1.9,3,4.2,5.6,7,7.7
		c2.6,2,5.6,3.5,8.8,4.5c2.4,0.8,5,1.1,7.5,1.1c0.6,0,1.2,0,1.8-0.1c3-0.2,5.8-1,8.5-2.3c2.6-1.3,4.9-3.2,6.7-5.5
		c0.8-1.1,1.5-2.2,2.1-3.4c0.8-1.5,1.4-3.1,1.8-4.7c0.5-2,0.8-4,0.9-6c0.1-2.5-0.1-5-0.6-7.4C831.3,524.5,830.1,520.9,828.3,517.6z
		 M817.6,541.9c-0.8,1-1.8,1.8-3,2.3c-1.2,0.6-2.4,0.9-3.7,0.9c-1.6,0.1-3.1-0.1-4.6-0.6c-1.6-0.5-3.1-1.3-4.5-2.3
		c-1.5-1.2-2.7-2.6-3.7-4.2c-1.2-1.9-1.9-3.9-2.4-6.2c-0.5-2.1-0.5-4.3-0.2-6.4c0.3-1.8,1-3.5,2.1-4.9c1-1.2,2.2-2.2,3.6-3
		c1.4-0.7,2.9-1.2,4.5-1.3c1.4-0.1,2.8,0.1,4.1,0.5c1.4,0.4,2.8,1.2,3.9,2.1c1.4,1.2,2.5,2.6,3.4,4.2c1.1,2.1,1.9,4.3,2.3,6.7
		C820.4,535,819.8,539.1,817.6,541.9z"/>
	<path fill="black" d="M874.1,525.8c-0.1-1.1-0.3-2.2-0.4-3.3c-0.2-1.3-0.3-2.6-0.5-3.9c-0.3-2.4-0.6-4.6-0.8-6.2c-0.3-2.2-0.6-4.2-1-6.1
		c-0.3-1.7-1.2-3.2-2.5-4.2c-1.4-1.1-3.1-1.6-4.7-1.5c-0.8,0-1.7,0.3-2.4,0.6c-0.8,0.4-1.4,0.9-1.9,1.6c-0.5,0.6-0.9,1.4-1.1,2.2
		c-0.2,0.8-0.2,1.7-0.1,2.5c0,0.1,0.1,0.6,0.3,1.5c0.2,1,0.4,2.3,0.6,3.8c0.2,1.6,0.5,3.4,0.8,5.4l0,0.2c0.3,2,0.6,4.2,0.9,6.4
		c0,0.4,0.1,0.7,0.1,1.1c-0.6-1-1.1-2.1-1.7-3.2c-0.8-1.4-1.5-2.8-2.3-4.2c-1.4-2.5-2.7-4.8-4-6.9c-0.8-1.2-1.4-2.2-2.1-3.1
		l-1.7-2.3c-0.2-0.3-0.6-0.7-1-1.2c-0.5-0.6-1.2-1.1-1.8-1.5c-0.8-0.5-1.6-0.9-2.5-1.2c-1-0.3-2.1-0.4-3.2-0.3
		c-0.8,0.1-1.6,0.4-2.4,0.8c-1.2,0.6-2.2,1.7-2.8,2.9c-0.4,1-0.7,2-0.9,3.1c-0.3,2-0.3,4-0.2,5.9c0.1,1.9,0.3,4.1,0.6,6.4
		c0.3,2.4,0.6,5.2,1.1,8.2c0.3,2.1,0.6,4.2,1,6.2l0.2,1.4c0.4,2.5,0.8,4.6,1.1,6.6l0.1,0.4c0.3,1.8,0.6,3.2,0.8,4.4
		c0.2,0.9,0.3,1.4,0.3,1.6l0,0l0,0.2c0.3,1.6,1.2,3,2.4,4c1.2,1,2.8,1.5,4.3,1.5l0.3,0l0.2,0c0.8-0.1,1.6-0.3,2.3-0.7
		c0.7-0.4,1.4-0.9,1.8-1.6c0.5-0.7,0.9-1.4,1.1-2.3c0.2-0.8,0.2-1.7,0-2.5c-0.4-1.9-0.7-3.7-1-5.3c-0.3-1.6-0.6-3.4-0.9-5.5
		c-0.3-2.1-0.7-4.3-1-6.5c-0.1-0.6-0.2-1.2-0.3-1.7l1,1.8c0.7,1.2,1.3,2.5,2,3.6c0.6,1.2,1.3,2.3,1.9,3.5c1.1,2.1,2.3,4.2,3.5,6.2
		c1,1.7,2.1,3.4,3.3,5.1c0.8,0.9,1.6,1.8,2.5,2.6c1.2,1,2.7,1.7,4.3,1.7c1,0.1,2-0.1,2.9-0.4c0.9-0.3,1.8-0.9,2.5-1.6
		c1.1-1.3,1.8-2.8,2.1-4.5c0.3-2.5,0.4-4.9,0.2-7.4C875.2,536.5,874.8,531.7,874.1,525.8z"/>
	<path fill="black" d="M917.4,542.1c-0.7-0.5-1.4-1-2.2-1.2c-0.8-0.3-1.7-0.3-2.5-0.3c-1.5,0.1-3.2,0.2-5,0.3c-1.5,0.1-3.5,0.2-5.5,0.2
		c-1.8,0.1-3.6,0.1-5.3,0.1c-1,0-2,0-3-0.1c-0.1-0.3-0.2-0.7-0.2-1.1c-0.2-1-0.5-2.3-0.7-3.8c-0.3-1.7-0.5-3.6-0.7-5.7
		c-0.2-2.1-0.4-4.5-0.6-7.1c-0.1-2.1-0.3-4.2-0.3-6.4c-0.1-1.4-0.1-2.6-0.1-3.8l-0.1-1.7c0-0.8,0-1.6-0.1-2.3c0-0.6,0-1.1,0-1.5
		c0-0.9,0-1.4,0-1.4c0-0.8-0.2-1.7-0.5-2.4c-0.3-0.8-0.8-1.5-1.4-2c-1.2-1.3-2.8-2-4.5-2.1c-0.8-0.1-1.7,0-2.5,0.3
		c-0.8,0.3-1.5,0.7-2.1,1.2c-0.6,0.5-1.2,1.2-1.5,2c-0.3,0.8-0.5,1.6-0.4,2.5c0,0.1,0,0.6,0,1.8c0,1.2,0.1,2.7,0.1,4.6
		c0.1,1.9,0.2,4,0.3,6.4c0.1,2.5,0.3,5,0.5,7.4c0.3,3,0.5,5.8,0.8,8.2c0.2,2.2,0.6,4.4,1.1,6.5c0.3,1.3,0.5,2.4,0.8,3.4
		c0.3,0.9,0.6,1.9,1,2.7c0.5,1.1,1.1,2.1,1.9,3c0.7,0.9,1.6,1.6,2.6,2.2c0.7,0.4,1.5,0.7,2.3,0.8l1,0.2c0.4,0.1,0.9,0.1,1.5,0.2
		l0.6,0.1c0.9,0.1,2,0.1,3.4,0.2c0.8,0,1.6,0,2.6,0c0.8,0,1.6,0,2.5,0l1.7-0.1c0.6,0,1.3-0.1,2-0.1c1.3,0,2.5-0.1,3.7-0.1l6.1-0.4
		c0.8-0.1,1.6-0.3,2.3-0.7s1.3-0.9,1.8-1.5c0.5-0.6,0.9-1.4,1.1-2.2c0.2-0.8,0.2-1.7,0.1-2.4C919.5,544.6,918.7,543.1,917.4,542.1z"
		/>
	<path fill="black" d="M947.6,505.4c-0.1-0.8-0.3-1.6-0.7-2.3c-0.8-1.5-2.1-2.7-3.7-3.3c-1.6-0.6-3.4-0.6-5,0.1c-0.8,0.3-1.5,0.8-2,1.4
		c-0.6,0.6-1,1.3-1.3,2.1c-1.3,4-2.4,7.7-3.2,10.9c-0.5,1.9-0.9,3.7-1.4,5.7c-1.4-2.1-2.9-4.2-4.3-6.4c-1.9-2.9-3.6-6-5.1-9.1
		c-0.7-1.6-2-2.8-3.5-3.5c-1.5-0.7-3.3-0.8-4.9-0.3c-0.8,0.3-1.5,0.7-2.2,1.3c-0.6,0.6-1.1,1.3-1.4,2.1c-0.3,0.8-0.4,1.6-0.4,2.5
		c0,0.8,0.3,1.7,0.6,2.4c1.1,2.4,2.4,4.8,4,7.4c1.3,2.2,2.9,4.8,4.7,7.5c1.6,2.3,3.2,4.6,4.8,6.8c1.3,1.9,2.6,3.6,3.8,5.1
		c-0.4,1.3-0.8,2.6-1.2,4c-0.5,1.7-1.2,3.4-1.8,5.3c-0.3,0.8-0.4,1.6-0.4,2.5c0.1,0.8,0.3,1.6,0.6,2.3c0.7,1.6,2,2.8,3.5,3.4
		c0.8,0.4,1.7,0.6,2.5,0.6c0,0,0.1,0,0.2,0c1.2,0,2.3-0.4,3.3-1c1-0.7,1.8-1.7,2.2-2.8c0.9-2.3,1.6-4.5,2.2-6.4
		c0.6-1.9,1.2-3.8,1.7-5.7c0.5-1.9,1-3.6,1.3-5.2c0.3-1.5,0.7-3,1.2-5c0.3-1.3,0.6-2.5,0.9-3.8l0.1-0.5c0.3-1.5,0.7-3,1.1-4.6
		c0.4-1.7,0.9-3.4,1.4-5l0.2-0.6c0.5-1.6,1.1-3.3,1.7-5.1C947.5,507.1,947.6,506.3,947.6,505.4z"/>
</g>
<path class="st4" d="M1185.7,645.2l15.8-13.9c16.2-14.2,11.4-37.7,2.7-57.4c-12-27.6-33.9-59.1-49-74.2
	c-15.1-15.1-34.6-25.9-55.9-28c-311.8-30.6-547.8,17.7-670.9,54.3c-52.9,15.8-98.2,85.6-60.4,178.9"/>
<path class="st4" d="M385,650.5c0,0,313-63.3,499.3-62.7c0,0,164.2-4.1,272.7,5.2"/>

      
    </g>
    </svg>