<svg
      xmlns="http://www.w3.org/2000/svg"
      preserveAspectRatio="xMidYMin meet"
      fill="none"
      viewBox="0 0 1500 1500"
    >
      <g>
      <path fill="url(#prefix__a1)" d="M0 0h1500v1500H0z"/><defs><linearGradient id="prefix__a1" x1="1500" y1="1500" x2="0" y2="0" gradientUnits="userSpaceOnUse">
<stop stop-color="#1555D1"/>
<stop offset="1" stop-color="#70E5FF"/>
</linearGradient></defs>
      <g clip-path="url(#clip0_483_517)">
<path d="M366.5 1327.5C264.5 1394.3 286.333 1481.33 310 1516.5L1208 1510C1237.2 1434.8 1183.17 1369.33 1152.5 1346C1198.9 1256 1109.83 1182.17 1059.5 1156.5C1089.1 1116.1 1063.83 1061 1047.5 1038.5C819.5 1116.1 602.5 1048.83 522.5 1005.5C452.9 1045.5 475.833 1117.83 496 1149C358.8 1177.8 352.5 1280 366.5 1327.5Z" fill="#F8CF47"/>
<path d="M1069.32 1160.2C1064.35 1156.71 1057.49 1157.91 1054 1162.88C1039.23 1183.91 1016.26 1201.27 992.35 1214.66C968.55 1227.99 944.65 1236.92 928.96 1241.44C923.12 1243.12 919.75 1249.21 921.43 1255.05C923.11 1260.89 929.2 1264.26 935.04 1262.58C952.15 1257.66 977.65 1248.11 1003.1 1233.85C1028.44 1219.66 1054.57 1200.33 1072 1175.52C1075.49 1170.55 1074.29 1163.69 1069.32 1160.2Z" fill="#001647" fill-opacity="0.2"/>
<path d="M1164.1 1354.75C1159.24 1351.11 1152.34 1352.1 1148.7 1356.96C1133.03 1377.87 1104.14 1383.83 1083.64 1384.51C1077.57 1384.71 1072.81 1389.8 1073.01 1395.87C1073.21 1401.94 1078.3 1406.7 1084.37 1406.5C1106.4 1405.77 1144.34 1399.48 1166.31 1370.15C1169.95 1365.29 1168.97 1358.39 1164.1 1354.75Z" fill="#001647" fill-opacity="0.2"/>
<path d="M974 1404.68C955.73 1408.06 923.06 1412.42 884.83 1413.9C846.05 1415.41 802.01 1413.94 761.7 1405.72C755.75 1404.51 749.94 1408.35 748.72 1414.3C747.51 1420.25 751.35 1426.06 757.3 1427.28C799.95 1435.98 845.9 1437.43 885.68 1435.89C924.97 1434.36 958.69 1429.89 978 1426.32C983.97 1425.21 987.92 1419.48 986.82 1413.5C985.72 1407.53 979.98 1403.58 974 1404.68Z" fill="#001647" fill-opacity="0.2"/>
<path d="M526 1158.5L571 1186L615.26 1203.5L680 1225L731.5 1232.5L752.18 1235C707.21 1216.67 630.42 1157.5 683 1067.5L509.66 1009L484 1061.5L480 1115L501 1137.5L526 1158.5Z" fill="#001647" fill-opacity="0.2"/>
<path d="M575.64 1215.68C588.5 1221.37 601.86 1226.63 615.26 1231.41C664.47 1248.96 716.66 1260.84 750.81 1262.98C756.87 1263.36 762.1 1258.75 762.48 1252.69C762.86 1246.63 758.25 1241.41 752.19 1241.03C720.76 1239.07 670.68 1227.82 622.65 1210.7C574.19 1193.42 530.41 1171.05 509.66 1148.1C505.59 1143.59 498.63 1143.24 494.12 1147.32C493.29 1148.07 492.61 1148.91 492.06 1149.82L491.49 1149.51L400.99 1186.01L372.99 1242.51L360.99 1305.51L372.66 1327.65C371.89 1327.77 371.12 1327.97 370.37 1328.26L363.99 1321.01L321.49 1356.01L287 1432L300.5 1513H401C381.17 1457.08 423.35 1428.94 465.37 1415.96C483.49 1420.94 504.21 1424.83 527.79 1427.43C533.83 1428.1 539.26 1423.74 539.93 1417.7C540.6 1411.66 536.24 1406.23 530.2 1405.56C520.59 1404.5 511.58 1403.23 503.1 1401.77L493.44 1398.36L525.99 1401.49C506.16 1380.99 471.49 1327.59 491.49 1277.99C506.17 1241.57 544.58 1223.41 575.63 1215.67L575.64 1215.68Z" fill="#001647" fill-opacity="0.2"/>
<path d="M1013.5 1319C1024.83 1354.33 1048.1 1443.9 1050.5 1519.5M667 1361.5C661.166 1392.33 650.3 1467.1 653.5 1519.5M1205 1519.5C1216 1480.17 1221.2 1391.6 1154 1352M1079 1384C1114 1382.83 1181.89 1367 1163.5 1276C1148.04 1199.52 1089.25 1170.37 1058 1157.7M926.999 1240.5C959.802 1231.06 1025.8 1203.54 1058 1157.7M1058 1157.7C1061.62 1152.53 1064.82 1147.13 1067.5 1141.5C1080.32 1114.5 1076.3 1065.5 1047.5 1035.5C1019.19 1047.48 944.091 1070.65 852.5 1076.66M746.499 1240.5C674.499 1236 514.065 1185.63 485.999 1129C457.5 1071.5 493.833 1020 517.999 1002C574.999 1028.17 715.399 1080 820.999 1078C831.68 1077.8 842.194 1077.34 852.5 1076.66M491 1148.5C462.5 1154.17 399.8 1178 377 1228C348.5 1290.5 343 1385 524 1405M311.5 1513.5C285.667 1480.17 259.201 1396.2 360 1327M852.5 1076.66L880.255 1413.39M880.255 1413.39L889 1519.5M880.255 1413.39C919.011 1411.89 952.211 1407.48 971 1404M880.255 1413.39C840.971 1414.92 795.978 1413.46 754.5 1405" stroke="black" stroke-width="22" stroke-linecap="round"/>
</g>
<defs>
<clipPath id="clip0_483_517">
<rect width="1500" height="1500" fill="white"/>
</clipPath>
</defs>
      <g clip-path="url(#clip0_497_1194)">
<path d="M379.667 654.812C432.345 471.574 618.472 401.981 699.114 390.653C740.985 382.718 849.655 375.215 949.364 408.675C980 418.956 1049.88 457.388 1091.92 499.818C1144.47 552.856 1272.97 732.052 1185.05 927.725C1097.12 1123.4 758.414 1092.29 612.749 1051.82C464.472 1010.63 314.48 881.563 379.667 654.812Z" fill="#AABBFF"/>
<path d="M449.293 747.204C454.734 531.068 585.306 432.345 649.911 410C432.292 459.565 365.296 655.455 364 747.204C377.99 984.871 584.496 1053.43 681 1058C601.498 1044.46 443.853 963.339 449.293 747.204Z" fill="#001647" fill-opacity="0.2"/>
<path d="M379.667 654.812C432.345 471.574 618.472 401.981 699.114 390.653C740.985 382.718 849.655 375.215 949.364 408.675C980 418.956 1049.88 457.388 1091.92 499.818C1144.47 552.856 1272.97 732.052 1185.05 927.725C1097.12 1123.4 758.414 1092.29 612.749 1051.82C464.472 1010.63 314.48 881.563 379.667 654.812Z" stroke="black" stroke-width="22" stroke-linecap="round"/>
</g>
<defs>
    <clipPath id="prefix__clip0_299_662"><path fill="#fff" d="M0 0h1500v1500H0z"/></clipPath>
</defs>
      <g clip-path="url(#clip0_624_3522)">
<path d="M822 818C849.062 818 871 796.062 871 769C871 741.938 849.062 720 822 720C794.938 720 773 741.938 773 769C773 796.062 794.938 818 822 818Z" fill="white" stroke="black" stroke-width="20" stroke-miterlimit="10"/>
<path d="M1012 818C1039.06 818 1061 796.062 1061 769C1061 741.938 1039.06 720 1012 720C984.938 720 963 741.938 963 769C963 796.062 984.938 818 1012 818Z" fill="white" stroke="black" stroke-width="20" stroke-miterlimit="10"/>
<path d="M809 770C816.18 770 822 764.18 822 757C822 749.82 816.18 744 809 744C801.82 744 796 749.82 796 757C796 764.18 801.82 770 809 770Z" fill="black"/>
<path d="M1024 770C1031.18 770 1037 764.18 1037 757C1037 749.82 1031.18 744 1024 744C1016.82 744 1011 749.82 1011 757C1011 764.18 1016.82 770 1024 770Z" fill="black"/>
<path d="M988.653 885.957H855.227C854.074 885.957 852.968 886.415 852.153 887.23C851.338 888.045 850.88 889.151 850.88 890.303C850.88 909.026 858.317 926.982 871.556 940.221C884.795 953.46 902.751 960.897 921.474 960.897H922.406C941.129 960.897 959.085 953.46 972.324 940.221C985.562 926.982 993 909.026 993 890.303C993 889.151 992.542 888.045 991.727 887.23C990.912 886.415 989.806 885.957 988.653 885.957Z" fill="white" stroke="black" stroke-width="20" stroke-miterlimit="10"/>
</g>
<defs>
<clipPath id="clip0_624_3522">
<rect width="1500" height="1500" fill="white"/>
</clipPath>
</defs>
      <g clip-path="url(#clip0_911_309)">
<ellipse cx="932" cy="915.5" rx="131" ry="69.5" fill="#AABBFF"/>
<path d="M820.569 923.549C820.28 896.513 841.822 874.289 868.854 873.737L973.808 871.592C1001.86 871.018 1024.91 893.608 1024.9 921.668C1024.89 949.203 1002.65 971.563 975.116 971.72L870.142 972.317C843.014 972.471 820.859 950.677 820.569 923.549Z" fill="#FFD700"/>
<path d="M823.859 924.756L1021.53 920.376M875.877 968.561C875.329 946.294 874.453 897.05 870.949 878.214M924.062 878.214C925.887 895.188 929.209 937.022 928.99 968.561M975.533 874.428C976.628 898.505 977.176 951.039 978.271 968.561M869.396 972.015L975.986 971.418C1004.17 971.26 1026.68 947.887 1025.77 919.717V919.717C1024.88 892.298 1002.11 870.692 974.682 871.252L868.112 873.43C841.079 873.983 819.535 896.207 819.825 923.245V923.245C820.115 950.372 842.268 972.167 869.396 972.015Z" stroke="black" stroke-width="20"/>
</g>
<defs>
<clipPath id="clip0_911_309">
<rect width="1500" height="1500" fill="white"/>
</clipPath>
</defs>
      <g clip-path="url(#clip0_708_104)">
<path d="M897.736 617.618L881.079 614.086C881.079 614.086 866.198 610.584 860.384 617.618C854.569 624.652 841.111 606.134 840.193 611.058C839.274 615.983 793.249 617.114 793.249 617.114H752.868C752.868 617.114 707.792 611.654 689.772 617.618C671.751 623.583 639.012 615.842 634.752 617.114C630.492 618.385 581.862 619.445 579.732 621.15C577.602 622.856 570.252 648.711 568.122 650.417C565.992 652.122 563.499 671.226 563.075 682.711C562.651 694.196 552.848 701.805 552.475 709.455C552.101 717.104 532.062 737.631 528.236 750.387C524.409 763.143 519.059 764.607 515.233 772.256C511.407 779.906 495.375 780.814 492.407 784.639C489.439 788.464 477.133 791.996 473.731 796.245C469.593 801.754 467.564 805.947 461.899 809.869C454.64 814.804 452.248 815.551 452.248 815.551C452.248 815.551 418.156 814.471 415.016 815.753C411.876 817.034 366.558 827.409 366.558 827.409L354.595 824.381C354.595 824.381 379.228 837.894 374.968 823.009C370.707 808.123 368.173 826.036 365.226 806.195C362.278 786.355 359.653 780.269 354.979 765.687C350.305 751.104 346.468 735.613 342.683 721.161C338.897 706.709 342.683 691.39 342.683 691.39C342.683 691.39 344.005 664.828 348.043 648.388C352.081 631.949 353.575 624.995 353.999 621.342C354.423 617.689 364.63 590.128 365.478 588.039C366.326 585.95 390.999 520.857 390.999 520.857L420.437 490.238L487.561 425.175C487.561 425.175 603.658 389.854 610.069 386.705C616.479 383.556 630.906 380.105 632.188 379.257C633.47 378.41 674.942 363.907 682.604 360.507C690.266 357.106 701.472 362.283 707.842 360.507C714.213 358.73 750.334 357.065 757.562 356.217C764.791 355.37 784.82 344.733 803.637 346.126C822.455 347.518 852.378 345.742 874.578 348.921C896.777 352.1 938.704 362.151 938.704 362.151L1069.02 429.898L1161.55 513.278L1222 627.932L1216.9 708.445C1193 617 1172.07 598.525 1172.07 598.525C1172.07 598.525 1118.32 617.618 1025.79 611.401C1023.83 610.978 970.06 617.78 967.395 615.6C964.729 613.42 918.937 614.086 918.937 614.086L897.736 617.618Z" fill="#A760FF"/>
<path d="M445 548.267C445 548.267 492.54 607.041 554.165 553.465C615.791 499.89 579.238 451 579.238 451L549.47 495.244L511.846 524.868L451.261 545.672L445 548.267Z" fill="#FFBF44"/>
<path d="M1040 401.139C1040 401.139 1087.44 365.088 1144.64 422.698C1201.84 480.308 1183.05 513.346 1183.05 513.346L1177.62 528C1177.62 528 1096.93 442.694 1093.26 441.323C1089.59 439.953 1040 401.139 1040 401.139Z" fill="#FFBF44"/>
<path d="M415 549C514.964 549 596 468.187 596 368.5C596 268.813 514.964 188 415 188C315.036 188 234 268.813 234 368.5C234 468.187 315.036 549 415 549Z" fill="#A760FF"/>
<path d="M1118.11 214.423C1118.11 214.423 1237.35 183.413 1333.33 308.069C1429.3 432.726 1261.74 581.54 1261.74 581.54L1213.76 597L1176.8 539.157C1176.8 539.157 1216.31 505.594 1154.46 434.32C1092.6 363.046 1032.37 401.917 1032.37 401.917L954 367.547C954 367.547 992.035 241.548 1118.11 214.423Z" fill="#A760FF"/>
<path d="M382.963 196C353.376 233.807 321.435 344.205 406.162 418.812C487.757 490.662 552.594 462.703 580.026 434.192C580.988 416.977 583.944 398.87 591.031 403.254L592.761 388.062L683.035 361.849C702.871 361.177 743.957 361.546 749.605 368.402C755.254 375.258 742.209 380.332 734.98 382.013C652.674 415.888 611.253 475.439 600.83 500.98L585.7 450.066L588.746 423.32C586.494 426.81 583.573 430.505 580.026 434.192C579.71 439.858 579.609 445.427 579.648 450.066L541.32 505.517C545.859 514.087 559.072 530.218 575.614 526.185C592.156 522.152 563.342 546.685 546.868 559.456C534.214 565.141 510.466 573.455 490.471 574.471L501.479 580.124L543.337 570.546C495.538 630.231 489.799 731.858 492.905 775.21C470.042 790.333 417.963 821.386 392.545 824.612C367.127 827.838 356.738 810.161 354.721 800.919L347.156 711.694L354.721 635.575L389.519 551.894H440.728C438.218 549.461 436.658 547.546 435.917 546.349C396.243 555.255 303.582 547.156 250.326 443.513C183.755 313.959 304.288 214.148 382.963 196Z" fill="#001647" fill-opacity="0.2"/>
<path d="M1204 224.23C1109.99 250.846 1072.04 345.886 1064.81 390.078L1079.43 395.119C1095.91 397.136 1124.12 401.975 1105.15 405.201C1086.19 408.427 1080.1 427.718 1079.43 436.959L1039.59 409.738L960.917 367.898C968.818 342.021 999.245 280.285 1057.75 240.361C1116.25 200.436 1179.62 212.971 1204 224.23Z" fill="#001647" fill-opacity="0.2"/>
<path d="M595 386.03C632.39 374.373 647.497 361.12 729.543 361.12C747.775 361.12 743.743 360.71 759.899 356.878C824.369 341.584 944.158 332.988 1084.58 445.709C1251.35 579.581 1230.85 692.837 1207.22 733" stroke="black" stroke-width="22" stroke-miterlimit="10"/>
<path d="M1175.05 614.543C1181.1 613.962 1185.53 608.588 1184.95 602.541C1184.37 596.494 1179 592.063 1172.95 592.644L1175.05 614.543ZM571.098 632.245L560.118 631.595L571.098 632.245ZM376.743 826.963L376.036 815.985L376.022 815.986L376.008 815.987L376.743 826.963ZM359.309 814.04L348.596 816.536L348.598 816.546L359.309 814.04ZM1172.95 592.644C893.968 619.452 602.922 605.25 590.57 605.25V627.25C601.41 627.25 894.673 641.486 1175.05 614.543L1172.95 592.644ZM590.57 605.25C574.091 605.25 561.042 615.966 560.118 631.595L582.079 632.894C582.169 631.37 582.789 630.159 583.856 629.241C584.947 628.303 587.03 627.25 590.57 627.25V605.25ZM560.118 631.595C555.888 703.131 519.577 748.317 479.304 776.263C438.586 804.516 394.182 814.817 376.036 815.985L377.45 837.94C399.315 836.532 447.622 825.024 491.845 794.338C536.513 763.343 577.375 712.459 582.079 632.894L560.118 631.595ZM376.008 815.987C374.652 816.078 373.306 815.684 372.209 814.871L359.109 832.545C364.398 836.465 370.908 838.378 377.478 837.938L376.008 815.987ZM372.209 814.871C371.112 814.057 370.334 812.876 370.02 811.534L348.598 816.546C350.097 822.954 353.82 828.625 359.109 832.545L372.209 814.871ZM370.022 811.544C360.562 770.933 340.975 663.055 398.226 552.042L378.673 541.958C317.789 660.015 338.757 774.297 348.596 816.536L370.022 811.544Z" fill="black"/>
<path d="M1040 406.92C1040 406.92 1077.75 364.311 1148.52 433.85C1215.3 499.446 1177.16 539 1177.16 539" stroke="black" stroke-width="22" stroke-miterlimit="10"/>
<path d="M1213.36 603C1247.34 592.982 1278.06 574.1 1302.37 548.283C1326.68 522.467 1343.72 490.643 1351.74 456.064C1376.8 348.198 1309.88 240.392 1202.25 215.271C1094.63 190.151 987.064 257.23 962 365.106" stroke="black" stroke-width="22" stroke-miterlimit="10"/>
<path d="M415 549C514.964 549 596 468.187 596 368.5C596 268.813 514.964 188 415 188C315.036 188 234 268.813 234 368.5C234 468.187 315.036 549 415 549Z" stroke="black" stroke-width="22" stroke-miterlimit="10"/>
<path d="M440 547.868C440 547.868 481.455 608.65 556.206 551.527C632.92 492.91 577.894 441 577.894 441" stroke="black" stroke-width="22" stroke-miterlimit="10"/>
</g>
<defs>
<clipPath id="clip0_708_104">
<rect width="1500" height="1500" fill="white"/>
</clipPath>
</defs>
      
    </g>
    </svg>