<svg
      xmlns="http://www.w3.org/2000/svg"
      preserveAspectRatio="xMidYMin meet"
      fill="none"
      viewBox="0 0 1500 1500"
    >
      <g>
      <path fill="url(#prefix__paint0_linear_53_30460)" d="M0 0h1500v1500H0z"/><defs><linearGradient id="prefix__paint0_linear_53_30460" x1="0" y1="0" x2="1500" y2="1500" gradientUnits="userSpaceOnUse">
<stop stop-color="#F1FFBA"/>
<stop offset="1" stop-color="#65DCBA"/>
</linearGradient></defs>
      <g clip-path="url(#clip0_496_924)">
<path d="M412 1344L351 1510.5H1139.5L1072 1282L994 1158.5L934 1099L920 1158.5L842 1099L761 1168.5L702.5 1137.5L626 1061L505 1185.5L412 1344Z" fill="#53B6F9"/>
<path d="M782 1014.5C704.8 1008.9 645.5 1043.17 625.5 1061L676.5 1117L762 1167.5L834.5 1103L924 1156V1081.5C908.833 1061.5 859.2 1020.1 782 1014.5Z" fill="#F56CDB"/>
<path d="M353.5 1519.5C365.5 1454.33 414.5 1313.6 483.5 1219C529.307 1156.2 575.854 1103.13 626.504 1061.8M1142.5 1519.5C1103.44 1290.29 1000.08 1146.05 905.02 1064.27C826.037 996.323 710.273 994.302 629.137 1059.66C628.258 1060.37 627.38 1061.08 626.504 1061.8M1013.5 1319C1024.83 1354.33 1048.1 1443.9 1050.5 1519.5M667 1361.5C661.167 1392.33 650.3 1467.1 653.5 1519.5M926 1087C934.762 1114.34 929.833 1141.11 925.003 1154.27C924.105 1156.72 921.076 1157.36 919.054 1155.71C913.678 1151.34 905.408 1144.87 896 1137.66C878.238 1124.04 856.424 1107.73 842.381 1097.69C841.674 1097.19 840.824 1097.04 840.032 1097.2M840 1096.5C840.01 1096.73 840.021 1096.96 840.032 1097.2M840.032 1097.2C841.872 1137.95 845.216 1220.71 848 1239M840.032 1097.2C839.339 1097.34 838.69 1097.72 838.219 1098.32C827.763 1111.55 809.829 1128.31 793.42 1142.5C783.296 1151.26 773.753 1159.03 766.905 1164.4C766.012 1165.1 764.867 1165.39 763.753 1165.17C707.225 1153.99 651.021 1094.56 626.504 1061.8" stroke="black" stroke-width="22" stroke-linecap="round"/>
<circle cx="807" cy="1234" r="11" fill="black"/>
<circle cx="804" cy="1191" r="11" fill="black"/>
<circle cx="802" cy="1151" r="11" fill="black"/>
<path d="M409.87 1339.62C462.691 1207.98 569.086 1113.24 605.384 1082.33L632.5 1058L637.5 1059.48C599.917 1079.63 651 1067.5 648.91 1093.5L659.5 1099.5L764.5 1175C714.1 1177.8 656.5 1131.81 634 1108.47C506.332 1241.92 454.501 1434.51 443.159 1511H353.699C350.414 1508.73 357.049 1471.27 409.87 1339.62Z" fill="#001647" fill-opacity="0.2"/>
<path d="M898.993 1164.13L846 1122L848.5 1108.47L886.5 1134C902.5 1140.17 933.5 1154.7 929.5 1163.5C927.233 1168.49 922.182 1170.5 917.169 1171.06C910.478 1171.81 904.264 1168.32 898.993 1164.13Z" fill="#001647" fill-opacity="0.2"/>
<path fill-rule="evenodd" clip-rule="evenodd" d="M964.41 1287.05L945.22 1277.82L944.91 1274.73L962.15 1277.18L974.38 1257.54L970.4 1254.77L973.67 1250.15L967.51 1245.86L964.51 1250.73L960.48 1247.91L953.34 1259.35L943.47 1257.8L934.39 1231L928.3 1232.71L931.78 1242.2L928.84 1243.04L925.38 1233.58L919.06 1235.25L926.49 1255.84L910.23 1253.46L898 1273.1L902.05 1275.92L899.05 1280.79L905.21 1285.09L907.95 1279.95L911.63 1282.46L918.99 1270.77L928.38 1272.06L928.98 1277.93L911.64 1286.89L913.93 1309.36H918.43L919.08 1315.77H926.09L925.46 1309.62H929.96L928.71 1297.3L938.33 1292.34L949.21 1297.42L950.45 1309.62H954.95L955.58 1315.77H962.59L961.97 1309.62H966.72L964.41 1287.05ZM915.57 1263.96L909.6 1273.54L906.81 1271.63L913.7 1260.53L927.41 1262.57L927.75 1265.88L915.57 1263.96ZM956.57 1266.68L962.59 1257.03L965.53 1259.08L958.69 1270.12L944.23 1268.06L943.89 1264.75L956.57 1266.68ZM956.8 1303.02L955.8 1293.19L938.31 1284.94L922.29 1293.31L923.29 1303.02H919.8L918.59 1291.15L935.91 1282.19L933.67 1257.61L930.6 1249.24L933.49 1248.41L936.76 1258.66L939.15 1282.05L958.81 1291.02L960.04 1303.02H956.8Z" fill="black"/>
</g>
<defs>
<clipPath id="clip0_496_924">
<rect width="1500" height="1500" fill="white"/>
</clipPath>
</defs>
      <g clip-path="url(#clip0_497_1194)">
<path d="M379.667 654.812C432.345 471.574 618.472 401.981 699.114 390.653C740.985 382.718 849.655 375.215 949.364 408.675C980 418.956 1049.88 457.388 1091.92 499.818C1144.47 552.856 1272.97 732.052 1185.05 927.725C1097.12 1123.4 758.414 1092.29 612.749 1051.82C464.472 1010.63 314.48 881.563 379.667 654.812Z" fill="#AABBFF"/>
<path d="M449.293 747.204C454.734 531.068 585.306 432.345 649.911 410C432.292 459.565 365.296 655.455 364 747.204C377.99 984.871 584.496 1053.43 681 1058C601.498 1044.46 443.853 963.339 449.293 747.204Z" fill="#001647" fill-opacity="0.2"/>
<path d="M379.667 654.812C432.345 471.574 618.472 401.981 699.114 390.653C740.985 382.718 849.655 375.215 949.364 408.675C980 418.956 1049.88 457.388 1091.92 499.818C1144.47 552.856 1272.97 732.052 1185.05 927.725C1097.12 1123.4 758.414 1092.29 612.749 1051.82C464.472 1010.63 314.48 881.563 379.667 654.812Z" stroke="black" stroke-width="22" stroke-linecap="round"/>
</g>
<defs>
    <clipPath id="prefix__clip0_299_662"><path fill="#fff" d="M0 0h1500v1500H0z"/></clipPath>
</defs>
      <g clip-path="url(#clip0_624_3503)">
<path d="M820.579 731.479C807.38 731.491 794.726 736.74 785.393 746.073C776.06 755.406 770.811 768.06 770.799 781.259C770.855 783.107 771.629 784.86 772.957 786.148C774.284 787.435 776.06 788.155 777.909 788.155C779.758 788.155 781.534 787.435 782.861 786.148C784.188 784.86 784.962 783.107 785.019 781.259C784.954 776.549 785.826 771.872 787.584 767.502C789.342 763.132 791.951 759.154 795.259 755.8C798.567 752.446 802.509 749.783 806.855 747.966C811.201 746.148 815.865 745.212 820.575 745.212C825.286 745.212 829.95 746.148 834.296 747.966C838.642 749.783 842.584 752.446 845.892 755.8C849.2 759.154 851.809 763.132 853.567 767.502C855.325 771.872 856.197 776.549 856.132 781.259C856.132 786.917 853.885 792.343 849.884 796.344C845.883 800.345 840.457 802.592 834.799 802.592C829.141 802.592 823.715 800.345 819.714 796.344C815.713 792.343 813.465 786.917 813.465 781.259C813.438 780.308 813.599 779.361 813.939 778.472C814.284 777.582 814.806 776.77 815.472 776.086C816.302 775.229 817.335 774.595 818.474 774.243C819.613 773.89 820.823 773.83 821.992 774.067C823.161 774.305 824.251 774.833 825.162 775.603C826.073 776.373 826.776 777.36 827.205 778.472C827.551 779.36 827.714 780.307 827.686 781.259C827.686 783.146 828.435 784.955 829.769 786.289C831.103 787.623 832.912 788.372 834.799 788.372C836.685 788.372 838.495 787.623 839.829 786.289C841.163 784.955 841.912 783.146 841.912 781.259C841.912 775.601 839.665 770.175 835.664 766.174C831.663 762.173 826.237 759.926 820.579 759.926C814.921 759.926 809.495 762.173 805.494 766.174C801.493 770.175 799.245 775.601 799.245 781.259C799.245 790.688 802.991 799.731 809.659 806.399C816.326 813.067 825.369 816.812 834.799 816.812C844.228 816.812 853.271 813.067 859.939 806.399C866.606 799.731 870.352 790.688 870.352 781.259C870.34 768.062 865.092 755.408 855.761 746.075C846.429 736.743 833.776 731.493 820.579 731.479Z" fill="black" stroke="black" stroke-width="5"/>
<path d="M1011.91 731.479C998.714 731.491 986.06 736.74 976.727 746.073C967.394 755.406 962.145 768.06 962.133 781.259C962.189 783.107 962.963 784.86 964.29 786.148C965.618 787.435 967.394 788.155 969.243 788.155C971.092 788.155 972.868 787.435 974.195 786.148C975.522 784.86 976.296 783.107 976.353 781.259C976.288 776.549 977.16 771.872 978.918 767.502C980.676 763.132 983.285 759.154 986.593 755.8C989.901 752.446 993.843 749.783 998.189 747.966C1002.53 746.148 1007.2 745.212 1011.91 745.212C1016.62 745.212 1021.28 746.148 1025.63 747.966C1029.98 749.783 1033.92 752.446 1037.23 755.8C1040.53 759.154 1043.14 763.132 1044.9 767.502C1046.66 771.872 1047.53 776.549 1047.47 781.259C1047.47 786.917 1045.22 792.343 1041.22 796.344C1037.22 800.345 1031.79 802.592 1026.13 802.592C1020.47 802.592 1015.05 800.345 1011.05 796.344C1007.05 792.343 1004.8 786.917 1004.8 781.259C1004.76 780.067 1005.02 778.884 1005.56 777.82C1006.1 776.756 1006.9 775.845 1007.89 775.171C1008.87 774.497 1010.01 774.081 1011.2 773.963C1012.38 773.844 1013.58 774.026 1014.68 774.492C1015.56 774.864 1016.36 775.41 1017.02 776.097C1017.68 776.785 1018.2 777.599 1018.54 778.492C1018.88 779.38 1019.05 780.327 1019.02 781.279C1019.02 783.166 1019.77 784.975 1021.1 786.309C1022.44 787.643 1024.25 788.392 1026.13 788.392C1028.02 788.392 1029.83 787.643 1031.16 786.309C1032.5 784.975 1033.25 783.166 1033.25 781.279C1033.25 775.621 1031 770.195 1027 766.194C1023 762.193 1017.57 759.946 1011.91 759.946C1006.25 759.946 1000.83 762.193 996.828 766.194C992.827 770.195 990.579 775.621 990.579 781.279C990.579 790.708 994.325 799.751 1000.99 806.419C1007.66 813.087 1016.7 816.832 1026.13 816.832C1035.56 816.832 1044.61 813.087 1051.27 806.419C1057.94 799.751 1061.69 790.708 1061.69 781.279C1061.67 768.081 1056.43 755.428 1047.09 746.095C1037.76 736.763 1025.11 731.513 1011.91 731.499V731.479Z" fill="black" stroke="black" stroke-width="5"/>
<path d="M921.5 970C930.895 970 940.078 967.214 947.89 961.995C955.701 956.775 961.789 949.357 965.384 940.677C968.979 931.998 969.92 922.447 968.087 913.233C966.254 904.019 961.731 895.555 955.088 888.912C948.445 882.269 939.981 877.746 930.767 875.913C921.553 874.08 912.002 875.021 903.323 878.616C894.643 882.211 887.225 888.299 882.005 896.11C876.786 903.922 874 913.105 874 922.5C874 928.738 875.229 934.914 877.616 940.677C880.003 946.44 883.502 951.677 887.912 956.088C892.323 960.498 897.56 963.997 903.323 966.384C909.085 968.771 915.262 970 921.5 970Z" fill="white" stroke="black" stroke-width="22" stroke-miterlimit="10" stroke-linecap="round"/>
</g>
<defs>
<clipPath id="clip0_624_3503">
<rect width="1500" height="1500" fill="white"/>
</clipPath>
</defs>
      <g clip-path="url(#clip0_924_580)">
<path d="M582.499 804.5C582.499 810.023 586.976 814.5 592.499 814.5C598.022 814.5 602.499 810.023 602.499 804.5H582.499ZM747.333 760L622.499 760L622.499 780L747.333 780L747.333 760ZM582.499 800V804.5H602.499V800H582.499ZM622.499 760C600.408 760 582.499 777.908 582.499 800H602.499C602.499 788.954 611.453 780 622.499 780L622.499 760Z" fill="black"/>
<path d="M894.386 769.667H939.5" stroke="black" stroke-width="20" stroke-miterlimit="10"/>
<path d="M989.139 711.37C989.153 711.379 989.168 711.384 989.185 711.384C989.201 711.385 989.217 711.38 989.231 711.372C989.245 711.364 989.256 711.352 989.264 711.338C989.271 711.323 989.275 711.307 989.273 711.291C989.273 708.797 990.302 676.51 1024.25 679.154C1024.25 679.154 1052.73 681.648 1055.38 712.609C1055.38 712.623 1055.39 712.637 1055.4 712.649C1055.4 712.661 1055.41 712.672 1055.43 712.679C1055.44 712.687 1055.45 712.692 1055.47 712.693C1055.48 712.695 1055.5 712.693 1055.51 712.688C1057.55 711.899 1086.02 700.802 1100.84 724.526C1115.66 748.25 1091.4 768.865 1089.77 770.175C1089.76 770.184 1089.75 770.195 1089.74 770.207C1089.74 770.219 1089.73 770.233 1089.73 770.246C1089.73 770.26 1089.74 770.273 1089.74 770.285C1089.75 770.297 1089.76 770.308 1089.77 770.317C1091.29 771.825 1115.74 793.449 1101.63 816.416C1087.53 839.382 1058.56 827.946 1056.54 826.928C1056.53 826.92 1056.51 826.915 1056.5 826.914C1056.48 826.913 1056.47 826.916 1056.45 826.922C1056.44 826.929 1056.43 826.938 1056.42 826.95C1056.41 826.962 1056.4 826.977 1056.4 826.991C1056.01 829.186 1050.02 859.642 1023.17 859.997C996.331 860.352 988.538 830.488 988.031 828.428C988.028 828.415 988.022 828.403 988.013 828.393C988.005 828.382 987.994 828.374 987.982 828.368C987.97 828.362 987.957 828.359 987.944 828.358C987.93 828.358 987.917 828.36 987.905 828.365C986.014 829.225 958.529 841.055 942.611 815.603C926.693 790.15 949.534 772.03 951.156 770.791C951.167 770.783 951.176 770.772 951.183 770.76C951.189 770.747 951.193 770.734 951.193 770.72C951.193 770.706 951.189 770.692 951.183 770.68C951.176 770.667 951.167 770.657 951.156 770.649C949.573 769.228 926.574 747.864 943.893 722.088C960.507 697.495 987.019 710.297 989.139 711.37Z" fill="#53B6F9" stroke="black" stroke-width="20" stroke-miterlimit="10"/>
<path d="M784.139 711.37C784.153 711.379 784.168 711.384 784.185 711.384C784.201 711.385 784.217 711.38 784.231 711.372C784.245 711.364 784.256 711.352 784.264 711.338C784.271 711.323 784.275 711.307 784.273 711.291C784.273 708.797 785.302 676.51 819.251 679.154C819.251 679.154 847.732 681.648 850.383 712.609C850.384 712.623 850.389 712.637 850.397 712.649C850.404 712.661 850.414 712.672 850.427 712.679C850.439 712.687 850.453 712.692 850.467 712.693C850.481 712.695 850.496 712.693 850.509 712.688C852.55 711.899 881.024 700.802 895.843 724.526C910.661 748.25 886.404 768.865 884.766 770.175C884.756 770.184 884.748 770.195 884.743 770.207C884.737 770.219 884.734 770.233 884.734 770.246C884.734 770.26 884.737 770.273 884.743 770.285C884.748 770.297 884.756 770.308 884.766 770.317C886.285 771.825 910.74 793.449 896.634 816.416C882.527 839.382 853.563 827.946 851.538 826.928C851.525 826.92 851.511 826.915 851.496 826.914C851.481 826.913 851.466 826.916 851.453 826.922C851.439 826.929 851.427 826.938 851.419 826.95C851.41 826.962 851.405 826.977 851.403 826.991C851.008 829.186 845.019 859.642 818.175 859.997C791.331 860.352 783.538 830.488 783.031 828.428C783.028 828.415 783.022 828.403 783.013 828.393C783.005 828.382 782.994 828.374 782.982 828.368C782.97 828.362 782.957 828.359 782.944 828.358C782.93 828.358 782.917 828.36 782.905 828.365C781.014 829.225 753.529 841.055 737.611 815.603C721.693 790.15 744.534 772.03 746.156 770.791C746.167 770.783 746.176 770.772 746.183 770.76C746.189 770.747 746.193 770.734 746.193 770.72C746.193 770.706 746.189 770.692 746.183 770.68C746.176 770.667 746.167 770.657 746.156 770.649C744.573 769.228 721.574 747.864 738.893 722.088C755.507 697.495 782.019 710.297 784.139 711.37Z" fill="#53B6F9" stroke="black" stroke-width="20" stroke-miterlimit="10"/>
<path d="M1054 770C1054 788.336 1039.34 803 1021.5 803C1003.66 803 989 788.336 989 770C989 751.664 1003.66 737 1021.5 737C1039.34 737 1054 751.664 1054 770Z" fill="#FFBF44" stroke="black" stroke-width="20"/>
<path d="M849 770C849 788.336 834.339 803 816.5 803C798.661 803 784 788.336 784 770C784 751.664 798.661 737 816.5 737C834.339 737 849 751.664 849 770Z" fill="#FFBF44" stroke="black" stroke-width="20"/>
<path d="M1010.55 731.17C1006.77 701.733 1023.94 686.472 1032.99 685.021C1021.34 681.539 998.775 687.791 993.525 691.352C991.687 694.122 987.618 700.294 986.043 702.826C984.074 705.991 982.893 709.552 981.712 709.948C980.531 710.344 964.78 711.531 963.993 711.531C963.205 711.531 943.517 719.84 943.124 720.631C942.73 721.422 935.249 740.414 935.249 741.206C935.249 741.839 938.924 764.418 940.761 775.628C938.53 780.904 933.673 792.959 932.098 798.973C930.523 804.987 948.242 823.108 957.299 831.417L987.224 833.395L1016.76 859.905C1031.72 860.301 1059.6 859.668 1035.66 853.97C1011.72 848.272 1009.14 821.537 1010.85 811.382C1009.8 809.14 1003.45 804.418 1002.19 803.469C1000.61 802.282 989.193 795.016 988.8 794.225C988.406 793.433 983.287 785.124 982.893 767.319C982.578 753.076 1004.25 738.952 1010.55 731.17Z" fill="#001647" fill-opacity="0.2"/>
<path d="M805.55 731.17C801.77 701.733 818.938 686.472 827.994 685.021C816.339 681.539 793.775 687.791 788.525 691.352C786.687 694.122 782.618 700.294 781.043 702.826C779.074 705.991 777.893 709.552 776.712 709.948C775.531 710.344 759.78 711.531 758.993 711.531C758.205 711.531 738.517 719.84 738.124 720.631C737.73 721.422 730.249 740.414 730.249 741.206C730.249 741.839 733.924 764.418 735.761 775.628C733.53 780.904 728.673 792.959 727.098 798.973C725.523 804.987 743.242 823.108 752.299 831.417L782.224 833.395L811.756 859.905C826.719 860.301 854.597 859.668 830.657 853.97C806.716 848.272 804.144 821.537 805.85 811.382C804.8 809.14 798.447 804.418 797.187 803.469C795.612 802.282 784.193 795.016 783.8 794.225C783.406 793.433 778.287 785.124 777.893 767.319C777.578 753.076 799.25 738.952 805.55 731.17Z" fill="#001647" fill-opacity="0.2"/>
<path d="M989.139 711.37C989.153 711.379 989.168 711.384 989.185 711.384C989.201 711.385 989.217 711.38 989.231 711.372C989.245 711.364 989.256 711.352 989.264 711.338C989.271 711.323 989.275 711.307 989.273 711.291C989.273 708.797 990.302 676.51 1024.25 679.154C1024.25 679.154 1052.73 681.648 1055.38 712.609C1055.38 712.623 1055.39 712.637 1055.4 712.649C1055.4 712.661 1055.41 712.672 1055.43 712.679C1055.44 712.687 1055.45 712.692 1055.47 712.693C1055.48 712.695 1055.5 712.693 1055.51 712.688C1057.55 711.899 1086.02 700.802 1100.84 724.526C1115.66 748.25 1091.4 768.865 1089.77 770.175C1089.76 770.184 1089.75 770.195 1089.74 770.207C1089.74 770.219 1089.73 770.233 1089.73 770.246C1089.73 770.26 1089.74 770.273 1089.74 770.285C1089.75 770.297 1089.76 770.308 1089.77 770.317C1091.29 771.825 1115.74 793.449 1101.63 816.416C1087.53 839.382 1058.56 827.946 1056.54 826.928C1056.53 826.92 1056.51 826.915 1056.5 826.914C1056.48 826.913 1056.47 826.916 1056.45 826.922C1056.44 826.929 1056.43 826.938 1056.42 826.95C1056.41 826.962 1056.4 826.977 1056.4 826.991C1056.01 829.186 1050.02 859.642 1023.17 859.997C996.331 860.352 988.538 830.488 988.031 828.428C988.028 828.415 988.022 828.403 988.013 828.393C988.005 828.382 987.994 828.374 987.982 828.368C987.97 828.362 987.957 828.359 987.944 828.358C987.93 828.358 987.917 828.36 987.905 828.365C986.014 829.225 958.529 841.055 942.611 815.603C926.693 790.15 949.534 772.03 951.156 770.791C951.167 770.783 951.176 770.772 951.183 770.76C951.189 770.747 951.193 770.734 951.193 770.72C951.193 770.706 951.189 770.692 951.183 770.68C951.176 770.667 951.167 770.657 951.156 770.649C949.573 769.228 926.574 747.864 943.893 722.088C960.507 697.495 987.019 710.297 989.139 711.37Z" stroke="black" stroke-width="20" stroke-miterlimit="10"/>
<path d="M784.139 711.37C784.153 711.379 784.168 711.384 784.185 711.384C784.201 711.385 784.217 711.38 784.231 711.372C784.245 711.364 784.256 711.352 784.264 711.338C784.271 711.323 784.275 711.307 784.273 711.291C784.273 708.797 785.302 676.51 819.251 679.154C819.251 679.154 847.732 681.648 850.383 712.609C850.384 712.623 850.389 712.637 850.397 712.649C850.404 712.661 850.414 712.672 850.427 712.679C850.439 712.687 850.453 712.692 850.467 712.693C850.481 712.695 850.496 712.693 850.509 712.688C852.55 711.899 881.024 700.802 895.843 724.526C910.661 748.25 886.404 768.865 884.766 770.175C884.756 770.184 884.748 770.195 884.743 770.207C884.737 770.219 884.734 770.233 884.734 770.246C884.734 770.26 884.737 770.273 884.743 770.285C884.748 770.297 884.756 770.308 884.766 770.317C886.285 771.825 910.74 793.449 896.634 816.416C882.527 839.382 853.563 827.946 851.538 826.928C851.525 826.92 851.511 826.915 851.496 826.914C851.481 826.913 851.466 826.916 851.453 826.922C851.439 826.929 851.427 826.938 851.419 826.95C851.41 826.962 851.405 826.977 851.403 826.991C851.008 829.186 845.019 859.642 818.175 859.997C791.331 860.352 783.538 830.488 783.031 828.428C783.028 828.415 783.022 828.403 783.013 828.393C783.005 828.382 782.994 828.374 782.982 828.368C782.97 828.362 782.957 828.359 782.944 828.358C782.93 828.358 782.917 828.36 782.905 828.365C781.014 829.225 753.529 841.055 737.611 815.603C721.693 790.15 744.534 772.03 746.156 770.791C746.167 770.783 746.176 770.772 746.183 770.76C746.189 770.747 746.193 770.734 746.193 770.72C746.193 770.706 746.189 770.692 746.183 770.68C746.176 770.667 746.167 770.657 746.156 770.649C744.573 769.228 721.574 747.864 738.893 722.088C755.507 697.495 782.019 710.297 784.139 711.37Z" stroke="black" stroke-width="20" stroke-miterlimit="10"/>
</g>
<defs>
<clipPath id="clip0_924_580">
<rect width="1500" height="1500" fill="white"/>
</clipPath>
</defs>
      <g clip-path="url(#clip0_1180_44959)">
<path d="M711.94 381.541L669.138 415.004L754.914 456.956C786.09 456.451 856.04 454.579 886.429 451.127C916.817 447.675 946.703 430.594 957.848 422.485L912.882 387.272L890.772 360.146L852.07 352.844L816.711 388.83L811.119 369.892L779.2 357.196L748.101 362.456L711.94 381.541Z" fill="#AABBFF"/>
<path d="M754.823 451.145C758.386 440.393 766.661 423.631 780.081 411.559M882.17 449.083C878.062 439.675 870.922 425.659 859.411 414.501M670.743 416.037C678.291 403.405 696.028 378.1 722.448 377.672C724.832 377.634 727.122 377.712 729.323 377.895M780.081 411.559C789.433 403.145 801.285 397.009 815.783 396.774C818.147 396.736 820.438 396.825 822.658 397.03M780.081 411.559C771.884 400.903 758.35 380.305 729.323 377.895M953.095 422.563C946.826 410.677 929.573 387.795 908.089 385.052M859.411 414.501C864.186 404.755 879.655 385.169 903.328 384.785C904.936 384.759 906.524 384.852 908.089 385.052M859.411 414.501C850.192 405.565 838.17 398.463 822.658 397.03M729.323 377.895C734.108 368.72 747.587 350.309 768.512 349.97C795.461 349.534 817.557 375.809 822.658 397.03M908.089 385.052C903.334 374.267 889.367 351.713 871.612 352C849.419 352.36 832.274 370.674 822.592 392.964" stroke="black" stroke-width="22" stroke-linecap="round"/>
<path d="M1147.72 536.257C1175.16 568.613 1193.59 631.056 1199.71 659.647C1199.86 660.321 1199.29 660.905 1198.6 660.815L1158.5 655.5L857.083 638.505C857.028 638.502 856.972 638.503 856.917 638.509L525 675L379.741 705.843C379.303 705.936 378.859 705.726 378.638 705.337C373.216 695.769 359.907 687.702 355 729C349 779.5 358.667 822.167 366 844.5L397.708 956.965C397.866 957.524 397.516 958.099 396.947 958.216L361.6 965.48C361.533 965.493 361.466 965.5 361.398 965.5H332.524C332.196 965.5 331.889 965.339 331.702 965.069L318.655 946.224C318.554 946.077 318.415 945.961 318.253 945.886L272.713 924.83C272.294 924.636 272.062 924.182 272.151 923.729L282 873.5L318.462 721.161C318.487 721.054 318.495 720.944 318.485 720.836L313.532 667.346C313.511 667.122 313.567 666.897 313.689 666.709L331.823 638.773C331.938 638.595 332.106 638.459 332.304 638.384L368.112 624.649C368.36 624.554 368.561 624.363 368.668 624.12L387.796 580.961C387.924 580.671 388.183 580.459 388.492 580.39L635 525.5L807.5 510.5H1025.9C1025.97 510.5 1026.03 510.507 1026.1 510.521L1147.17 535.93C1147.38 535.975 1147.58 536.088 1147.72 536.257Z" fill="#3A3A3A"/>
<path d="M548 544.5C520.8 582.5 501.334 653.667 495 684.5L364 706V662.5L380.5 607.5L399.5 580L495 556L548 544.5Z" fill="black" fill-opacity="0.2"/>
<path d="M327.5 708C328.3 709.6 348.5 716.333 358.5 719.5V634.5C358.5 630.167 357.6 621.5 354 621.5C349.5 621.5 335 634 331 638.5C327 643 314.5 670 313.5 672.5C312.5 675 326.5 706 327.5 708Z" fill="black" fill-opacity="0.2"/>
<path d="M288 848L317 724.5L340.5 719.5L358.5 724.5C359.5 734.5 361.5 755.3 361.5 758.5C361.5 762.5 365 796.5 368.5 820.5C372 844.5 373 848 374.5 858.5C376 869 378 877 379.5 895.5C381 914 386.5 921 386.5 926C386.5 931 390.5 949.5 392 953C393.5 956.5 390 964.5 386.5 968.5C383 972.5 370 971.5 355.5 968.5C341 965.5 337 962 329.5 953C322 944 324 944.5 319 944.5C314 944.5 292.5 941 285 941C279 941 274.167 919.667 272.5 909L288 848Z" fill="black" fill-opacity="0.2"/>
<path d="M768.5 518L772 651C844.8 639.4 1007.33 646.167 1078 651L1062 521.5C1023.17 516.5 934.8 506.9 892 508.5C849.2 510.1 791.833 515.5 768.5 518Z" fill="white"/>
<path d="M732.5 518L725.5 652.5L768 646.5V515.5L732.5 518Z" fill="#CCD0DA"/>
<path d="M1062 515.5L1077.5 646.5L1128 644L1106.5 522.5L1062 515.5Z" fill="#CCD0DA"/>
<path d="M888.024 575.221C886.498 573.977 884.549 573.388 882.538 573.536C880.423 573.758 878.31 573.853 876.199 573.796C874.371 573.768 872.544 573.639 870.614 573.508L869.843 573.446C869.302 573.412 868.762 573.353 868.222 573.345C867.398 573.307 866.575 573.269 865.648 573.255C864.721 573.241 863.766 573.379 862.91 573.748C862.055 574.116 861.274 574.689 860.671 575.367C860.043 576.044 859.592 576.877 859.321 577.763C859.05 578.649 858.959 579.588 859.075 580.455C859.277 582.416 860.203 584.21 861.626 585.452C863.048 586.822 864.916 587.613 866.795 587.641L867.387 587.65C867.098 588.078 866.757 588.48 866.365 588.856C865.71 589.558 864.956 590.08 864.074 590.474C863.218 590.868 862.288 591.057 861.515 591.071C860.821 591.01 860.129 590.796 859.516 590.456C858.903 590.116 858.395 589.625 857.967 589.008C856.957 587.62 856.13 586.107 855.536 584.547C854.472 581.631 853.823 578.62 853.561 575.463C852.852 569.578 853.048 565.105 854.201 562.096C854.741 560.476 855.528 559.496 856.461 559.103C857.005 558.908 857.547 558.84 858.113 558.874C858.756 558.909 859.424 559.021 860.014 559.182C860.604 559.344 861.193 559.556 861.756 559.794C862.037 559.925 862.319 560.057 862.6 560.213C863.28 561.241 864.167 562.144 865.161 562.846C866.41 563.73 867.87 564.209 869.364 564.232C870.265 564.271 871.272 564.083 872.127 563.714C872.983 563.346 873.764 562.773 874.367 562.07C874.996 561.342 875.447 560.484 875.693 559.572C875.938 558.66 875.979 557.669 875.813 556.725C875.622 555.731 875.302 554.759 874.826 553.837C874.151 552.504 873.19 551.32 872.122 550.413C870.827 549.224 869.374 548.21 867.892 547.476C864.547 545.569 860.725 544.519 856.94 544.462C855.525 544.364 854.107 544.47 852.738 544.754C851.446 545.015 850.178 545.428 848.933 545.994C847.558 546.634 846.284 547.48 845.161 548.506C844.012 549.531 843.041 550.712 842.196 552.072C840.399 555.148 839.292 558.488 838.904 562.017C838.398 566.562 838.457 571.14 839.111 575.626C840.21 584.671 842.78 591.882 846.797 597.029C848.716 599.55 851.08 601.62 853.89 603.163C856.521 604.602 859.47 605.409 862.404 605.53L862.893 605.537C862.893 605.537 862.945 605.538 862.971 605.538C865.623 605.578 868.206 605.083 870.642 604.077C873.156 603.047 875.393 601.53 877.251 599.625C879.055 597.847 880.477 595.783 881.49 593.484C882.237 591.791 882.676 590.018 882.832 588.214C882.96 588.216 883.089 588.218 883.244 588.195C884.017 588.156 884.791 588.066 885.462 587.974C886.416 587.912 887.373 587.622 888.205 587.151C889.036 586.68 889.741 586.004 890.269 585.199C890.796 584.393 891.144 583.508 891.287 582.544C891.43 581.605 891.367 580.663 891.098 579.743C890.636 577.905 889.528 576.286 888.05 575.247L888.024 575.221Z" fill="black"/>
<path d="M950.068 590.189C949.787 588.104 949.432 585.764 949.03 583.094C948.627 580.449 948.199 577.727 947.747 574.904L946.164 565.923C945.684 563.226 945.174 560.782 944.66 558.668C944.193 556.809 943.8 555.229 943.403 553.904C943.032 552.655 942.582 551.405 942.053 550.23C941.625 549.259 941.066 548.312 940.429 547.414C939.842 546.644 939.149 545.974 938.428 545.43C937.501 544.705 936.442 544.156 935.275 543.86C934.107 543.563 932.936 543.52 931.657 543.703C930.613 543.916 929.59 544.383 928.747 545.004C927.904 545.651 927.189 546.478 926.653 547.485C926.276 548.291 925.925 549.123 925.679 549.881C925.353 550.764 925.053 551.647 924.805 552.557L923.948 555.868C923.449 557.891 922.945 560.218 922.434 563.001C922.065 565.026 921.667 567.252 921.267 569.606C918.753 563.631 916.509 558.776 914.636 555.169C913.55 552.971 912.254 550.845 910.826 548.844C910.392 548.254 909.958 547.715 909.574 547.277C909.139 546.763 908.651 546.299 908.264 546.04C907.263 545.06 905.998 544.331 904.651 543.879C903.77 543.587 902.835 543.42 901.742 543.378C900.648 543.413 899.629 543.651 898.658 544.118C897.714 544.586 896.844 545.258 896.208 546.035C895.704 546.611 895.278 547.264 894.928 547.995C894.525 548.852 894.25 549.786 894.133 550.673C893.906 551.862 893.783 553.103 893.765 554.296C893.718 555.691 893.668 557.263 893.766 559.396C893.861 561.757 894.032 564.196 894.257 566.585C894.503 569.253 894.796 572.226 895.163 575.555C895.372 577.208 895.582 578.86 895.792 580.462L896.213 583.615C896.492 585.802 896.801 587.76 897.061 589.54L897.228 590.558C897.536 592.567 897.892 594.831 898.272 597.247C898.53 599.154 899.519 600.92 900.959 602.109C902.346 603.373 904.158 604.111 906.031 604.19L906.214 604.193L906.344 604.195C907.307 604.209 908.274 603.996 909.139 603.603C910.004 603.21 910.795 602.587 911.379 601.86C911.989 601.108 912.445 600.227 912.668 599.292C912.89 598.356 912.905 597.367 912.709 596.552C912.352 594.313 912.044 592.304 911.785 590.499L910.916 584.243C910.729 582.845 910.542 581.421 910.355 579.972L912.737 586.072C913.69 588.472 914.517 590.641 915.244 592.505C915.971 594.368 916.72 596.46 917.545 598.731C918.095 600.287 919.09 601.622 920.404 602.58C921.717 603.564 923.297 604.146 925.04 604.249C926.679 604.324 928.275 603.816 929.567 602.769C930.78 601.747 931.557 600.338 931.736 598.793L931.739 598.59C931.769 598.337 931.855 597.805 931.945 597.02C932.119 595.855 932.324 594.361 932.639 592.463C932.954 590.565 933.274 588.362 933.65 585.881C933.825 584.615 934.027 583.349 934.229 582.058C934.371 582.999 934.487 583.914 934.63 584.805L935.524 591.136C935.782 592.967 936.038 595.001 936.316 597.264C936.574 599.171 937.537 600.936 938.95 602.175C940.388 603.567 942.277 604.357 944.307 604.388C945.244 604.427 946.262 604.265 947.153 603.898C948.044 603.531 948.86 602.959 949.495 602.259C950.131 601.558 950.613 600.702 950.861 599.793C951.109 598.883 951.149 597.919 951.005 597.105C950.68 594.537 950.402 592.224 950.095 590.139L950.068 590.189Z" fill="black"/>
<path d="M999.115 595.984L998.531 595.314C996.093 592.508 993.705 589.779 991.395 587.076C989.363 584.707 987.384 582.34 985.405 579.921C987.108 576.644 988.736 573.188 990.263 569.603C992.086 565.26 993.601 560.735 994.754 556.255C995.027 555.319 995.119 554.354 995.004 553.387C994.89 552.42 994.568 551.5 994.088 550.731C993.158 549.04 991.653 547.721 989.855 547.008C988.983 546.614 988.055 546.447 987.074 546.407C986.092 546.392 985.133 546.606 984.223 546.999C983.364 547.393 982.606 547.966 982.001 548.668C981.396 549.37 980.944 550.227 980.698 551.138C979.873 554.404 978.842 557.666 977.58 560.823C976.882 562.591 976.131 564.384 975.223 566.352C973.933 564.477 972.696 562.553 971.537 560.63C969.797 557.783 968.163 554.786 966.71 551.765C965.884 549.974 964.459 548.53 962.688 547.715C960.97 546.851 958.983 546.694 957.089 547.25C956.18 547.541 955.319 548.061 954.637 548.737C953.955 549.413 953.452 550.244 953.154 551.154C952.856 552.064 952.738 553.028 952.827 553.995C952.915 554.962 953.186 555.881 953.613 556.649C955.693 560.949 958.032 565.177 960.632 569.231C962.98 572.849 965.458 576.469 968.015 579.964L966.927 581.853C966.37 582.81 965.812 583.793 965.152 584.773C964.091 586.561 963.03 588.4 961.942 590.264C960.88 592.128 959.793 593.967 958.653 595.906C958.201 596.763 957.954 597.674 957.889 598.613C957.822 599.578 957.937 600.52 958.26 601.363C958.853 603.201 960.121 604.796 961.683 605.709C962.91 606.591 964.35 607.07 965.77 607.092C965.874 607.093 965.977 607.095 966.08 607.097C967.191 607.113 968.281 606.825 969.271 606.281C970.339 605.687 971.18 604.785 971.712 603.751C972.695 601.937 973.705 600.123 974.739 598.334C975.8 596.546 976.834 594.783 977.894 593.046L978.159 592.618C979.479 594.188 980.825 595.758 982.145 597.277C984.076 599.492 986.032 601.706 987.886 603.818L988.494 604.589C989.23 605.515 990.2 606.267 991.304 606.766C992.33 607.239 993.412 607.484 994.574 607.502C996.073 607.499 997.579 606.988 998.886 605.992C999.593 605.367 1000.15 604.613 1000.52 603.755C1000.9 602.897 1001.09 601.985 1001.08 601.095C1001.11 599.139 1000.39 597.274 999.091 595.856L999.115 595.984Z" fill="black"/>
<path d="M372.645 625.358C376.358 613.236 382.367 603.057 387.593 595.322C392.323 588.32 399.306 583.162 407.312 580.461C466.016 560.662 586.261 528.756 728.5 515.478M372.645 625.358C365.916 647.324 361.321 675.669 364.611 707.417C364.674 708.02 365.237 708.434 365.826 708.287C443.658 688.859 576.941 663.697 726.025 650M372.645 625.358C355.313 626.809 320.264 638.806 318.731 675.182C318.333 684.636 319.653 692.458 322.085 698.758M364.728 710.495C359.341 720.082 345.978 722.313 335.023 715.33M322.085 698.758C314.93 743.039 288.715 842.381 271.537 906.718C269.425 914.628 272.598 923.02 279.732 927.037C292.431 934.187 310.269 942.779 325.023 945.59M322.085 698.758C325.086 706.531 329.779 711.986 335.023 715.33M365 783.5C367.577 817.854 381.52 893.776 392.447 938.795C395.018 949.386 388.618 960.291 378.124 963.233C370.441 965.388 362.211 967.823 354.416 970.219C342.304 973.942 329.906 965.369 330.048 952.699C330.598 903.832 335.023 815.058 335.023 715.33M1079 646.473C1074.5 612.131 1064.3 538.252 1059.5 517.473M1079 646.473C977.994 637.044 870.366 638.795 768.222 646.473M1079 646.473C1095.87 648.048 1112.56 649.934 1129 652.157M1059.5 517.473C1007.44 511.489 931.453 507.207 825.233 509.745C805.983 510.205 786.951 511.084 768.222 512.315M1059.5 517.473C1078.14 519.616 1093.71 521.977 1106.5 524.321M768.222 646.473C768.222 610.025 768.222 532.167 768.222 512.315M768.222 646.473C754.04 647.539 739.963 648.719 726.025 650M768.222 512.315C754.816 513.196 741.565 514.259 728.5 515.478M728.5 515.478L726.025 650M1106.5 524.321C1123.14 527.371 1135.07 530.392 1142.94 532.868C1143.14 532.931 1143.31 533.054 1143.44 533.223C1175.78 576.892 1198 640.859 1198.97 662.849C1199 663.486 1198.41 663.934 1197.79 663.805C1175.46 659.19 1152.48 655.331 1129 652.157M1106.5 524.321C1112.67 555.486 1125.8 624.683 1129 652.157" stroke="black" stroke-width="22" stroke-linecap="round"/>
</g>
<defs>
<clipPath id="clip0_1180_44959">
<rect width="1500" height="1500" fill="white"/>
</clipPath>
</defs>
      
    </g>
    </svg>