<svg
      xmlns="http://www.w3.org/2000/svg"
      preserveAspectRatio="xMidYMin meet"
      fill="none"
      viewBox="0 0 1500 1500"
    >
      <g>
      <path fill="url(#prefix__paint0_linear_53_30460)" d="M0 0h1500v1500H0z"/><defs><linearGradient id="prefix__paint0_linear_53_30460" x1="0" y1="0" x2="1500" y2="1500" gradientUnits="userSpaceOnUse">
<stop stop-color="#F1FFBA"/>
<stop offset="1" stop-color="#65DCBA"/>
</linearGradient></defs>
      <g clip-path="url(#clip0_491_637)">
<path d="M216 1200.5C231.5 1183.5 291 1148.9 405 1146.5C512.257 1144.24 544.125 1139.15 547.658 1136.47L548 1136C547.99 1136.15 547.88 1136.31 547.658 1136.47L465.5 1250.5L627.5 1261.5C689.833 1263.83 815.9 1268.6 821.5 1269C827.1 1269.4 974.5 1256.83 1047.5 1250.5L1003 1167.5L983.5 1146.5H1058L1180.5 1157L1263 1175.5L1287.5 1191L1299 1220.5V1250.5L1280 1282.5L1267 1297.5L1224 1512H306L258 1297.5L221 1269L216 1200.5Z" fill="#9E6740"/>
<path d="M538 1144L461 1250C404.265 1250 296.238 1229.08 237.86 1216.13L297.5 1238.5L491.5 1256.5L531 1260.5C527.667 1278 523 1318.6 531 1341C623.5 1347 826.1 1357.2 896.5 1350V1359C870.833 1371.5 763.2 1391.1 538 1369.5L558 1506.5H308.5L260 1301.5L224 1272L213.5 1207L222.608 1210.42L213.5 1193.5L260 1170L404 1151L538 1144Z" fill="#001647" fill-opacity="0.2"/>
<path d="M1049.5 1250L984.5 1144H1095L1278.5 1178.5L1295 1199.5L1207.5 1233L1049.5 1250Z" fill="#001647" fill-opacity="0.2"/>
<path d="M754.5 1010.5C640.5 1013.3 508 1174 456 1254C517.833 1254 668.8 1256.2 778 1265C887.2 1273.8 1004.17 1256 1049 1246C995 1161 897 1007 754.5 1010.5Z" fill="#AABBFF"/>
<path d="M465.191 1247C471.745 1236.61 476.52 1228.57 483.5 1219C530.102 1155.11 577.468 1101.29 629.142 1059.66C710.278 994.299 826.063 996.338 905.043 1064.29C954.742 1107.05 1006.7 1166.88 1050.56 1247M1296 1196C1296 1229.69 1045.8 1266 749.5 1266C455.163 1266 216.186 1230.17 213.032 1196.67M1296 1196C1297.74 1210.27 1297.34 1226 1296.19 1240.68C1293.99 1268.76 1273.16 1291.74 1245.55 1297.28C1229.5 1300.5 1211.77 1303.96 1194.5 1307.71M1296 1196C1296 1171.59 1164.61 1150.52 979.5 1140.77M213.032 1196.67C213.011 1196.45 213 1196.22 213 1196M213.032 1196.67C213.021 1196.44 213.01 1196.22 213 1196M213.032 1196.67C213.709 1210.75 215.758 1235.63 219.637 1257.74C223.282 1278.51 239.8 1293.46 260.327 1298.3C286.744 1304.54 321.455 1311.67 363 1318.67M213 1196C213 1170.52 350.375 1148.69 545.5 1139.56M254 1303L313.5 1520.5M1270.5 1287L1221 1520.5M363 1318.67L416 1520.5M363 1318.67C401.252 1325.11 445.298 1331.45 494 1336.86M494 1336.86L528 1520.5M494 1336.86C529.801 1340.85 568.119 1344.34 608.5 1347.02M608.5 1347.02L628.5 1520.5M608.5 1347.02C647.081 1349.58 687.546 1351.4 729.5 1352.2M729.5 1352.2C736.13 1352.32 742.797 1352.43 749.5 1352.5C786.752 1352.92 823.013 1352.23 858 1350.69M729.5 1352.2L737.5 1520.5M858 1350.69L856 1520.5M858 1350.69C899.261 1348.87 938.749 1345.86 976 1342.06M976 1342.06L962.5 1520.5M976 1342.06C1020.65 1337.51 1062.08 1331.83 1099.5 1325.71M1099.5 1325.71L1066 1520.5M1099.5 1325.71C1135.01 1319.91 1166.91 1313.71 1194.5 1307.71M1194.5 1307.71L1151 1520.5M283 1392.5C364.333 1416.33 579.6 1452 790 1452C1000.4 1452 1182.67 1416.33 1247.5 1392.5" stroke="black" stroke-width="22" stroke-linecap="round"/>
</g>
<defs>
<clipPath id="clip0_491_637">
<rect width="1500" height="1500" fill="white"/>
</clipPath>
</defs>
      <g clip-path="url(#clip0_497_1194)">
<path d="M379.667 654.812C432.345 471.574 618.472 401.981 699.114 390.653C740.985 382.718 849.655 375.215 949.364 408.675C980 418.956 1049.88 457.388 1091.92 499.818C1144.47 552.856 1272.97 732.052 1185.05 927.725C1097.12 1123.4 758.414 1092.29 612.749 1051.82C464.472 1010.63 314.48 881.563 379.667 654.812Z" fill="#AABBFF"/>
<path d="M449.293 747.204C454.734 531.068 585.306 432.345 649.911 410C432.292 459.565 365.296 655.455 364 747.204C377.99 984.871 584.496 1053.43 681 1058C601.498 1044.46 443.853 963.339 449.293 747.204Z" fill="#001647" fill-opacity="0.2"/>
<path d="M379.667 654.812C432.345 471.574 618.472 401.981 699.114 390.653C740.985 382.718 849.655 375.215 949.364 408.675C980 418.956 1049.88 457.388 1091.92 499.818C1144.47 552.856 1272.97 732.052 1185.05 927.725C1097.12 1123.4 758.414 1092.29 612.749 1051.82C464.472 1010.63 314.48 881.563 379.667 654.812Z" stroke="black" stroke-width="22" stroke-linecap="round"/>
</g>
<defs>
    <clipPath id="prefix__clip0_299_662"><path fill="#fff" d="M0 0h1500v1500H0z"/></clipPath>
</defs>
      <g clip-path="url(#clip0_624_3473)">
<path d="M1010.33 800C1015.74 800 1021.02 798.397 1025.52 795.394C1030.01 792.39 1033.52 788.121 1035.59 783.127C1037.65 778.132 1038.2 772.637 1037.14 767.334C1036.09 762.032 1033.48 757.162 1029.66 753.339C1025.84 749.517 1020.97 746.913 1015.67 745.859C1010.36 744.804 1004.87 745.345 999.873 747.414C994.879 749.483 990.61 752.986 987.606 757.481C984.603 761.976 983 767.261 983 772.667C983 779.916 985.88 786.868 991.006 791.994C996.132 797.12 1003.08 800 1010.33 800Z" fill="black"/>
<path d="M799.421 789.214L858.141 778.547C859.189 778.352 860.151 777.837 860.895 777.073C861.639 776.309 862.128 775.334 862.294 774.28C862.455 773.224 862.285 772.143 861.808 771.187C861.331 770.234 860.569 769.453 859.628 768.954L804.701 739.807" stroke="black" stroke-width="22" stroke-miterlimit="10" stroke-linecap="round"/>
<path d="M870.88 910.959C896.593 937.099 946.447 937.099 972.167 910.959" stroke="black" stroke-width="22" stroke-miterlimit="10" stroke-linecap="round"/>
</g>
<defs>
<clipPath id="clip0_624_3473">
<rect width="1500" height="1500" fill="white"/>
</clipPath>
</defs>
      <g clip-path="url(#clip0_924_929)">
<path d="M821.441 843.267C839.551 843.268 857.015 836.533 870.435 824.371C883.855 812.21 892.271 795.491 894.047 777.468C895.823 759.444 890.832 741.405 880.044 726.858C869.256 712.311 853.443 702.296 835.681 698.762C817.918 695.228 799.476 698.428 783.942 707.738C768.407 717.049 756.892 731.804 751.634 749.135C746.376 766.466 747.753 785.132 755.496 801.504C763.239 817.876 776.795 830.783 793.527 837.713C802.377 841.379 811.862 843.266 821.441 843.267Z" fill="#3A3A3A"/>
<path d="M582.5 804.5C582.5 810.023 586.977 814.5 592.5 814.5C598.023 814.5 602.5 810.023 602.5 804.5H582.5ZM747.334 760L622.5 760L622.5 780L747.334 780L747.334 760ZM582.5 800V804.5H602.5V800H582.5ZM622.5 760C600.409 760 582.5 777.908 582.5 800H602.5C602.5 788.954 611.454 780 622.5 780L622.5 760Z" fill="black"/>
<path d="M898 770H936" stroke="black" stroke-width="20" stroke-miterlimit="10"/>
<path d="M1014 705.605C988.007 687.573 950.464 699.18 937.571 727.664C923.496 758.76 940.008 802.21 1005.58 846.404C1010.62 849.799 1017.38 849.799 1022.42 846.403C1087.99 802.206 1104.5 758.755 1090.43 727.66C1077.54 699.176 1039.99 687.573 1014 705.605Z" fill="#FF6247" stroke="black" stroke-width="20"/>
<path d="M820 705.605C794.007 687.573 756.464 699.18 743.571 727.664C729.496 758.76 746.008 802.21 811.579 846.404C816.618 849.799 823.383 849.799 828.421 846.403C893.992 802.206 910.504 758.755 896.429 727.66C883.536 699.176 845.992 687.573 820 705.605Z" fill="#FF6247" stroke="black" stroke-width="20"/>
<path d="M944.92 717.728L976.004 699.329L1056.27 818.334L1024.16 841.5L944.92 717.728Z" fill="white"/>
<rect x="990.037" y="699.073" width="12.6482" height="128.993" transform="rotate(-34 990.037 699.073)" fill="white"/>
<path d="M752.92 717.728L784.004 699.329L864.274 818.334L832.157 841.5L752.92 717.728Z" fill="white"/>
<rect x="798.037" y="699.073" width="12.6482" height="128.993" transform="rotate(-34 798.037 699.073)" fill="white"/>
<path d="M1014 705.605C988.007 687.573 950.464 699.18 937.571 727.664C923.496 758.76 940.008 802.21 1005.58 846.404C1010.62 849.799 1017.38 849.799 1022.42 846.403C1087.99 802.206 1104.5 758.755 1090.43 727.66C1077.54 699.176 1039.99 687.573 1014 705.605Z" stroke="black" stroke-width="20"/>
<path d="M820 705.605C794.007 687.573 756.464 699.18 743.571 727.664C729.496 758.76 746.008 802.21 811.579 846.404C816.618 849.799 823.383 849.799 828.421 846.403C893.992 802.206 910.504 758.755 896.429 727.66C883.536 699.176 845.992 687.573 820 705.605Z" stroke="black" stroke-width="20"/>
</g>
<defs>
<clipPath id="clip0_924_929">
<rect width="1500" height="1500" fill="white"/>
</clipPath>
</defs>
      <g clip-path="url(#clip0_786_1571)">
<path d="M348 775L369 729L432 708.5L555.5 668.5L699.5 639.5L848 627H1014L1171.5 626L1194 614C1148 466 952.5 317.5 699.5 360.5C497.1 394.9 394.833 548.833 369 621.5C350.167 630 303.6 633.4 262 649C220.4 664.6 192.833 723.333 185 742L214 752L276 760L272 789.5L269.5 844.5L316.5 819.5L348 775Z" fill="#FF9C07"/>
<path d="M740.5 357.5C585.7 413.5 517 606.833 523.5 681L365.5 728L337.5 806.5L276.5 848L267.5 831.5L276.5 757L233 751.5L188.5 742.5L196 721L228.5 675.5L295.5 638.5L371 619.5C458.6 418.7 664.5 358.167 740.5 357.5Z" fill="#001647" fill-opacity="0.2"/>
<path d="M365.499 733C361.229 766.691 346.6 822.9 278.017 846.491C272.108 848.524 266.062 844.256 266.142 838.007C266.414 816.515 271.11 785.909 284.173 755.5M352.69 674C349.439 692.112 348.907 708.667 351.213 722.797C352.132 728.423 358.007 731.46 363.407 729.632C567.243 660.623 776.1 608.066 1183.08 624.375C1190.15 624.658 1195.45 617.788 1192.83 611.211C1146.56 495.051 1004.12 307.96 674.999 368.5C517.477 397.475 410.414 517.784 368.974 619.5M352.69 674C355.747 656.968 361.208 638.561 368.974 619.5M352.69 674C318.787 694.711 297.273 725.007 284.173 755.5M368.974 619.5C275.567 629.083 217.031 666.673 189.87 735.352C187.877 740.391 190.542 746.023 195.709 747.656C215.238 753.828 249.504 761.579 284.173 755.5" stroke="black" stroke-width="22" stroke-linecap="round"/>
</g>
<defs>
<clipPath id="clip0_786_1571">
<rect width="1500" height="1500" fill="white"/>
</clipPath>
</defs>
      
    </g>
    </svg>