<svg
      xmlns="http://www.w3.org/2000/svg"
      preserveAspectRatio="xMidYMin meet"
      fill="none"
      viewBox="0 0 1500 1500"
    >
      <g>
      <path fill="url(#prefix__a1)" d="M0 0h1500v1500H0z"/><defs><linearGradient id="prefix__a1" x1="1500" y1="1500" x2="0" y2="0" gradientUnits="userSpaceOnUse">
<stop stop-color="#1555D1"/>
<stop offset="1" stop-color="#70E5FF"/>
</linearGradient></defs>
      <g clip-path="url(#clip0_481_242)">
<path d="M773 1011.5C543.4 1029.9 398.667 1353.5 355 1513H1138.5C1075.7 1127 868.667 1017.83 773 1011.5Z" fill="#AABBFF"/>
<path d="M811 1280C687.917 1280 657.695 1108.98 636.494 1056.37L672.5 1036.5C698.546 1079 678 1223.26 817.341 1223.26C897.823 1223.26 890.471 1107.69 893.5 1069L925.078 1078.72C943.048 1128.09 934.084 1280 811 1280Z" fill="#FFBF44"/>
<path d="M409.87 1339.62C462.691 1207.98 569.086 1113.24 605.384 1082.33L674 1033.5L749.5 1019.5C714.349 1038.35 682.856 1061.71 654.706 1088C651.768 1090.74 648.866 1093.52 646 1096.33L666.5 1151.5L711.5 1227.5L794 1281C694.4 1281 640.511 1171.67 626.016 1117C504.162 1250 454.262 1436.12 443.159 1511H353.699C350.414 1508.73 357.049 1471.27 409.87 1339.62Z" fill="#001647" fill-opacity="0.2"/>
<path d="M353.5 1519.5C365.5 1454.33 414.5 1313.6 483.5 1219C530.101 1155.11 577.468 1101.29 629.141 1059.66C710.278 994.299 826.037 996.323 905.02 1064.27C1000.08 1146.05 1103.44 1290.29 1142.5 1519.5M1013.5 1319C1024.83 1354.33 1048.1 1443.9 1050.5 1519.5M667 1361.5C661.167 1392.33 650.3 1467.1 653.5 1519.5" stroke="black" stroke-width="22" stroke-linecap="round"/>
<path d="M641 1053C646.167 1120.96 694.74 1286.58 830 1271C886.247 1264.52 942.787 1201.64 929.5 1083.5" stroke="black" stroke-width="22"/>
<path d="M683 1036.5C686.93 1097.17 723.991 1243.91 826.865 1230C869.644 1224.22 899.605 1159.96 889.5 1054.5" stroke="black" stroke-width="22"/>
</g>
<defs>
<clipPath id="clip0_481_242">
<rect width="1500" height="1500" fill="white"/>
</clipPath>
</defs>
      <g clip-path="url(#clip0_497_1194)">
<path d="M379.667 654.812C432.345 471.574 618.472 401.981 699.114 390.653C740.985 382.718 849.655 375.215 949.364 408.675C980 418.956 1049.88 457.388 1091.92 499.818C1144.47 552.856 1272.97 732.052 1185.05 927.725C1097.12 1123.4 758.414 1092.29 612.749 1051.82C464.472 1010.63 314.48 881.563 379.667 654.812Z" fill="#AABBFF"/>
<path d="M449.293 747.204C454.734 531.068 585.306 432.345 649.911 410C432.292 459.565 365.296 655.455 364 747.204C377.99 984.871 584.496 1053.43 681 1058C601.498 1044.46 443.853 963.339 449.293 747.204Z" fill="#001647" fill-opacity="0.2"/>
<path d="M379.667 654.812C432.345 471.574 618.472 401.981 699.114 390.653C740.985 382.718 849.655 375.215 949.364 408.675C980 418.956 1049.88 457.388 1091.92 499.818C1144.47 552.856 1272.97 732.052 1185.05 927.725C1097.12 1123.4 758.414 1092.29 612.749 1051.82C464.472 1010.63 314.48 881.563 379.667 654.812Z" stroke="black" stroke-width="22" stroke-linecap="round"/>
</g>
<defs>
    <clipPath id="prefix__clip0_299_662"><path fill="#fff" d="M0 0h1500v1500H0z"/></clipPath>
</defs>
      <g clip-path="url(#clip0_624_3562)">
<path d="M799.421 789.214L858.141 778.547C859.189 778.352 860.151 777.837 860.895 777.073C861.639 776.309 862.128 775.334 862.294 774.28C862.455 773.224 862.285 772.143 861.808 771.187C861.331 770.234 860.569 769.453 859.628 768.954L804.701 739.807" stroke="black" stroke-width="22" stroke-miterlimit="10" stroke-linecap="round"/>
<path d="M1037.67 789.214L979.001 778.547C977.951 778.355 976.987 777.841 976.243 777.076C975.499 776.312 975.011 775.335 974.847 774.28C974.687 773.227 974.854 772.149 975.327 771.194C975.804 770.237 976.569 769.453 977.514 768.954L1032.44 739.807" stroke="black" stroke-width="22" stroke-miterlimit="10" stroke-linecap="round"/>
<path d="M992 915.801C992 944.083 960.211 967 921 967C881.789 967 850 944.083 850 915.801C850.013 910.144 851.278 904.561 853.703 899.453C858.875 888.383 870.646 884.1 880.667 889.061C892.124 894.775 906.017 898.12 921.008 898.12C935.999 898.12 949.884 894.775 961.349 889.061C971.354 884.068 983.133 888.383 988.313 899.453C990.733 904.562 991.993 910.145 992 915.801Z" fill="white" stroke="black" stroke-width="22" stroke-miterlimit="10"/>
</g>
<defs>
<clipPath id="clip0_624_3562">
<rect width="1500" height="1500" fill="white"/>
</clipPath>
</defs>
      <g clip-path="url(#clip0_875_2769)">
<path d="M1110 707V803.467H1089.72V823.747H1069.45V844H968.001V823.747H947.721V803.467H927.407V732.688H906.127V803.467H885.848V823.747H865.568V844H764.121V823.747H743.814V803.467H723.534V732.688H633.959V750.944H611V707H1110Z" fill="black"/>
<path d="M1009 804H988V824H1009V804Z" fill="white"/>
<path d="M988 783H968V804H988V783Z" fill="white"/>
<path d="M968 763H948V783H968V763Z" fill="white"/>
<path d="M805 804H784V824H805V804Z" fill="white"/>
<path d="M784 783H764V804H784V783Z" fill="white"/>
<path d="M764 763H744V783H764V763Z" fill="white"/>
</g>
<defs>
<clipPath id="clip0_875_2769">
<rect width="1500" height="1500" fill="white"/>
</clipPath>
</defs>
      <g clip-path="url(#clip0_602_1907)">
<path d="M1224.5 677C1256.1 650.2 1196 608.166 1162 590.5C1162.45 567.232 1145.45 503.24 1093.47 444.5C1213 261 926.5 136.5 881 335.265C844.422 329.83 803.411 328.286 757.5 331.862C744.874 332.845 757.5 238.5 604.5 251.5C511.877 259.37 492 358.5 503 412.879C390.229 489.646 355.407 600.914 354.5 664.5L414.5 657L585 641.5L677.5 700.5L746 715.5L795 706.5L864.5 683L951 641.5L1027 629C1040.67 630 1078.8 633.9 1122 641.5C1176 651 1185 710.5 1224.5 677Z" fill="#9E6740"/>
<path d="M724.875 371.345C725.536 375.495 725.945 379.681 726.101 383.883C726.765 402.18 714.096 417.278 697.249 419.231C696.527 419.331 695.796 419.432 695.074 419.532C670.37 423.064 649.742 437.278 636.41 457.336C626.707 471.978 607.794 475.779 593.114 466.233C570.72 451.687 552.244 427.01 547.858 397.341C539.113 338.187 574.464 297.704 622.323 290.296C670.389 282.86 716.603 319.365 724.875 371.345Z" fill="#E8CE99"/>
<path d="M1063.31 417.843C1060.94 420.626 1058.39 423.247 1055.66 425.688C1043.86 436.281 1025.91 435.162 1014.18 423.644C1013.67 423.152 1013.16 422.66 1012.64 422.168C994.957 405.655 972.646 398.064 951.031 399.2C935.23 400.048 920.976 387.996 918.247 371.754C914.091 347.022 920.287 321.001 937.363 301.316C967.248 266.847 1019.2 264.752 1053.81 296.439C1088.64 328.278 1092.92 382.984 1063.31 417.843Z" fill="#E8CE99"/>
<path d="M918 513C740.4 509.8 610.667 597.833 577.5 639.5L635 613.5L746 568.5L911.5 542.5L1081.5 557L1179.5 596C1166.33 568 1095.6 516.2 918 513Z" fill="#001647" fill-opacity="0.2"/>
<path d="M1168 594.006C1158.42 532.939 1130.32 484.195 1092.5 446.054M587 645C504.576 640.341 411.449 660.485 365.869 671.92C359.115 673.614 352.724 668.147 353.784 661.265C364.358 592.606 407.165 491.449 502.923 419M587 645C621.5 612.167 730.5 548 894.5 542C1079.59 535.228 1192.54 594.489 1230.03 642.496C1236.7 651.039 1235.02 662.819 1228.03 671.106V671.106C1218.11 682.881 1200.55 684.175 1188.11 675.098C1145.41 643.936 1080.11 612.042 1002 628C892.783 650.313 790 754 669.5 701.5L587 645ZM760.5 331.03C772.511 330.35 784.842 330 797.5 330C820.716 330 847.474 332.538 875.786 338" stroke="black" stroke-width="22" stroke-linecap="round"/>
<path d="M631.501 519.5C590.667 514.5 485.698 469.887 498.501 358.5C513.5 228 672.434 223.958 730 283C769 323 783.501 389.5 753.501 443" stroke="black" stroke-width="22" stroke-linecap="round"/>
<path d="M887.42 422.022C874.921 384.041 866.066 299.721 920.694 258.604C990.41 206.13 1074.85 233.374 1109.24 299.084C1137.24 352.557 1112.94 433.516 1060.65 466" stroke="black" stroke-width="22" stroke-linecap="round"/>
<path d="M581 508C528.6 560.4 511.167 623.833 509 649L443 655L357 670V655L377.5 578.5L435 481L502 420L497.5 339.5C520.7 264.3 587.833 251.5 618.5 254.5C591.167 266.833 534.5 300.5 531.5 364C528.291 431.932 544 464.5 628 512L581 508Z" fill="#001647" fill-opacity="0.2"/>
<path d="M1017 242.5C933.4 246.9 898.167 362.667 891 420H878.5C856.5 392 852.667 356.333 853.5 342L861.5 343.5L874 339.5L886 296.5L918 259.5L967.5 232L1017 242.5Z" fill="#001647" fill-opacity="0.2"/>
<path d="M918 513C740.4 509.8 610.667 597.833 577.5 639.5L635 613.5L746 568.5L911.5 542.5L1081.5 557L1179.5 596C1166.33 568 1095.6 516.2 918 513Z" fill="#001647" fill-opacity="0.2"/>
</g>
<defs>
<clipPath id="clip0_602_1907">
<rect width="1500" height="1500" fill="white"/>
</clipPath>
</defs>
      
    </g>
    </svg>