<svg
      xmlns="http://www.w3.org/2000/svg"
      preserveAspectRatio="xMidYMin meet"
      fill="none"
      viewBox="0 0 1500 1500"
    >
      <g>
      <path fill="url(#prefix__paint0_linear_53_28788)" d="M0 0h1500v1500H0z"/><defs><linearGradient id="prefix__paint0_linear_53_28788" x1="0" y1="0" x2="1500" y2="1500" gradientUnits="userSpaceOnUse">
<stop stop-color="#DBE4E4"/>
<stop offset="1" stop-color="#A7BDBD"/>
</linearGradient></defs>
      <g clip-path="url(#clip0_482_374)">
<path d="M773 1011.5C543.4 1029.9 398.667 1353.5 355 1513H1138.5C1075.7 1127 868.667 1017.83 773 1011.5Z" fill="#53B6F9"/>
<path d="M831 1187.5C733.4 1193.9 672.667 1094.83 654.5 1044.5L690 1026C695.667 1034.33 707.3 1051.7 708.5 1054.5C709.7 1057.3 737.667 1099 751.5 1119.5L827 1143.5L857.5 1119.5L893.5 1054.5L920.5 1081.5L905 1119.5L873.5 1160L831 1187.5Z" fill="white"/>
<path d="M490.5 1417.5L388 1405.5L409 1356L513 1376C558.833 1393.83 651.2 1430 654 1432C656.8 1434 652.833 1463.17 650.5 1477.5L490.5 1417.5Z" fill="white"/>
<path d="M1114.5 1412.5L1041.5 1430L1046 1469.5L1126.5 1451L1114.5 1412.5Z" fill="white"/>
<path d="M749.5 1019.5C536 1134 457.448 1414.63 443.159 1511H353.699C350.414 1508.73 357.049 1471.27 409.87 1339.62C462.691 1207.98 569.086 1113.24 605.384 1082.33L674 1033.5L749.5 1019.5Z" fill="#001647" fill-opacity="0.2"/>
<path d="M390.5 1402.5L355 1509.5H650L654 1474L390.5 1402.5Z" fill="#AABBFF"/>
<path d="M1047 1477V1512.5L1145 1509.5L1130 1456L1047 1477Z" fill="#AABBFF"/>
<path d="M724 1086L696.5 1024L706 1015H757.5L845 1031.5L888 1054L855 1115.5L830.5 1152L775 1135.5L724 1086Z" fill="#AABBFF"/>
<path d="M353.5 1519.5C365.5 1454.33 414.5 1313.6 483.5 1219C530.101 1155.11 577.468 1101.29 629.141 1059.66C710.278 994.299 826.037 996.323 905.02 1064.27C1000.08 1146.05 1103.44 1290.29 1142.5 1519.5M1013.5 1319C1024.83 1354.33 1048.1 1443.9 1050.5 1519.5M667 1361.5C661.167 1392.33 650.3 1467.1 653.5 1519.5M389 1402C453.5 1411.83 596.7 1440.9 653.5 1478.5M408 1358.5C467 1367.33 598.3 1392.9 655.5 1432.5M1047 1474.5L1127.5 1451.5M1042 1429.5L1113.5 1408.5M657.5 1041.5C673.972 1086.42 728.014 1181.47 835.445 1187.97C835.803 1187.99 836.152 1187.92 836.47 1187.75C859.22 1175.83 910.85 1139.66 918 1076.5M696.5 1026C703.647 1059.57 739.404 1130.61 825.294 1146.87C825.745 1146.95 826.204 1146.89 826.604 1146.67C843.993 1136.92 879.07 1104.87 885 1051.5" stroke="black" stroke-width="22" stroke-linecap="round"/>
<path d="M909.773 1322.6C908.394 1322.6 907.427 1321.24 907.884 1319.94L920.176 1284.94C920.73 1283.36 922.857 1283.12 923.752 1284.53L958.88 1339.9C959.251 1340.49 959.897 1340.84 960.589 1340.83L976.811 1340.67C978.374 1340.66 979.316 1338.93 978.486 1337.61L917.606 1240.51C916.716 1239.09 914.58 1239.33 914.025 1240.91L879.595 1338.95C879.135 1340.26 880.115 1341.63 881.501 1341.61L945.945 1340.98C947.513 1340.96 948.454 1339.23 947.615 1337.9L926.611 1304.77C925.716 1303.36 923.587 1303.6 923.034 1305.18L917.404 1321.25C917.123 1322.06 916.367 1322.59 915.518 1322.59L909.773 1322.6Z" fill="white"/>
</g>
<defs>
<clipPath id="clip0_482_374">
<rect width="1500" height="1500" fill="white"/>
</clipPath>
</defs>
      <g clip-path="url(#clip0_497_1194)">
<path d="M379.667 654.812C432.345 471.574 618.472 401.981 699.114 390.653C740.985 382.718 849.655 375.215 949.364 408.675C980 418.956 1049.88 457.388 1091.92 499.818C1144.47 552.856 1272.97 732.052 1185.05 927.725C1097.12 1123.4 758.414 1092.29 612.749 1051.82C464.472 1010.63 314.48 881.563 379.667 654.812Z" fill="#AABBFF"/>
<path d="M449.293 747.204C454.734 531.068 585.306 432.345 649.911 410C432.292 459.565 365.296 655.455 364 747.204C377.99 984.871 584.496 1053.43 681 1058C601.498 1044.46 443.853 963.339 449.293 747.204Z" fill="#001647" fill-opacity="0.2"/>
<path d="M379.667 654.812C432.345 471.574 618.472 401.981 699.114 390.653C740.985 382.718 849.655 375.215 949.364 408.675C980 418.956 1049.88 457.388 1091.92 499.818C1144.47 552.856 1272.97 732.052 1185.05 927.725C1097.12 1123.4 758.414 1092.29 612.749 1051.82C464.472 1010.63 314.48 881.563 379.667 654.812Z" stroke="black" stroke-width="22" stroke-linecap="round"/>
</g>
<defs>
    <clipPath id="prefix__clip0_299_662"><path fill="#fff" d="M0 0h1500v1500H0z"/></clipPath>
</defs>
      <g clip-path="url(#clip0_624_3473)">
<path d="M1010.33 800C1015.74 800 1021.02 798.397 1025.52 795.394C1030.01 792.39 1033.52 788.121 1035.59 783.127C1037.65 778.132 1038.2 772.637 1037.14 767.334C1036.09 762.032 1033.48 757.162 1029.66 753.339C1025.84 749.517 1020.97 746.913 1015.67 745.859C1010.36 744.804 1004.87 745.345 999.873 747.414C994.879 749.483 990.61 752.986 987.606 757.481C984.603 761.976 983 767.261 983 772.667C983 779.916 985.88 786.868 991.006 791.994C996.132 797.12 1003.08 800 1010.33 800Z" fill="black"/>
<path d="M799.421 789.214L858.141 778.547C859.189 778.352 860.151 777.837 860.895 777.073C861.639 776.309 862.128 775.334 862.294 774.28C862.455 773.224 862.285 772.143 861.808 771.187C861.331 770.234 860.569 769.453 859.628 768.954L804.701 739.807" stroke="black" stroke-width="22" stroke-miterlimit="10" stroke-linecap="round"/>
<path d="M870.88 910.959C896.593 937.099 946.447 937.099 972.167 910.959" stroke="black" stroke-width="22" stroke-miterlimit="10" stroke-linecap="round"/>
</g>
<defs>
<clipPath id="clip0_624_3473">
<rect width="1500" height="1500" fill="white"/>
</clipPath>
</defs>
      <g clip-path="url(#clip0_875_2704)">
<path d="M821.441 843.266C839.551 843.267 857.015 836.532 870.435 824.371C883.855 812.209 892.271 795.491 894.047 777.467C895.823 759.444 890.832 741.404 880.044 726.857C869.256 712.31 853.443 702.296 835.681 698.762C817.918 695.228 799.476 698.427 783.942 707.738C768.407 717.048 756.892 731.804 751.634 749.134C746.376 766.465 747.753 785.132 755.496 801.504C763.239 817.876 776.795 830.782 793.527 837.713C802.377 841.378 811.862 843.265 821.441 843.266Z" fill="#3A3A3A"/>
<path d="M757.998 736.336L780.765 706.94L865.384 832.392L825.334 845L757.998 736.336Z" fill="white" fill-opacity="0.7"/>
<rect x="795.559" y="706.672" width="13.3333" height="135.981" transform="rotate(-34 795.559 706.672)" fill="white" fill-opacity="0.7"/>
<path d="M1013.38 839.717C1031.49 839.719 1048.96 832.983 1062.38 820.822C1075.8 808.66 1084.21 791.942 1085.99 773.918C1087.76 755.895 1082.77 737.855 1071.99 723.308C1061.2 708.761 1045.38 698.747 1027.62 695.213C1009.86 691.679 991.417 694.879 975.883 704.189C960.349 713.499 948.833 728.255 943.575 745.585C938.318 762.916 939.694 781.583 947.438 797.955C955.181 814.327 968.737 827.233 985.469 834.164C994.318 837.83 1003.8 839.717 1013.38 839.717Z" fill="#3A3A3A"/>
<path d="M949.935 732.788L972.703 703.392L1057.32 828.844L1017.27 841.451L949.935 732.788Z" fill="white" fill-opacity="0.7"/>
<rect x="987.496" y="703.123" width="13.3333" height="135.981" transform="rotate(-34 987.496 703.123)" fill="white" fill-opacity="0.7"/>
<path d="M1012.38 842.6C1029.26 842.593 1045.62 836.734 1058.66 826.021C1071.7 815.307 1080.63 800.403 1083.91 783.846C1087.2 767.29 1084.64 750.107 1076.68 735.225C1068.71 720.343 1055.84 708.683 1040.24 702.232C1024.64 695.781 1007.29 694.938 991.139 699.847C974.99 704.755 961.042 715.112 951.673 729.152C942.304 743.192 938.093 760.046 939.758 776.843C941.423 793.64 948.861 809.339 960.804 821.267C974.49 834.934 993.043 842.607 1012.38 842.6V842.6Z" stroke="black" stroke-width="20" stroke-miterlimit="10"/>
<path d="M821.441 842.6C839.551 842.601 857.015 835.866 870.435 823.705C883.855 811.543 892.271 794.825 894.047 776.801C895.823 758.778 890.832 740.738 880.044 726.191C869.256 711.644 853.443 701.63 835.681 698.096C817.918 694.562 799.476 697.761 783.942 707.072C768.407 716.382 756.892 731.138 751.634 748.468C746.376 765.799 747.753 784.466 755.496 800.838C763.239 817.21 776.795 830.116 793.527 837.047C802.377 840.712 811.862 842.599 821.441 842.6Z" stroke="black" stroke-width="20" stroke-miterlimit="10"/>
<path d="M582.5 804.5C582.5 810.023 586.977 814.5 592.5 814.5C598.023 814.5 602.5 810.023 602.5 804.5H582.5ZM747.334 760L622.5 760L622.5 780L747.334 780L747.334 760ZM582.5 800V804.5H602.5V800H582.5ZM622.5 760C600.409 760 582.5 777.909 582.5 800H602.5C602.5 788.955 611.454 780 622.5 780L622.5 760Z" fill="black"/>
<path d="M894.387 769.666H939.501" stroke="black" stroke-width="20" stroke-miterlimit="10"/>
</g>
<defs>
<clipPath id="clip0_875_2704">
<rect width="1500" height="1500" fill="white"/>
</clipPath>
</defs>
      <g clip-path="url(#clip0_1349_8086)">
<path d="M434.999 322.5C434.999 331 439.499 341.5 434.999 357.5C428.833 365.333 416.4 381.4 416 383C415.6 384.6 411.499 385.667 409.499 386L348 346L343 309L327 271.5C321 267.667 303.6 265.7 282 288.5C260.4 311.3 291 339.667 309 351L378 644.5L599 605.5L854 588.5H1163.5L1168 503.5L1194.5 233.5L1199 210L1215 183.5C1212.5 166.833 1199.2 137.7 1166 154.5C1132.8 171.3 1145.83 198.5 1156.5 210C1155.83 224 1154.4 252.5 1154 254.5C1153.6 256.5 1137.5 301 1129.5 323L1093 345L1064 283.5L1051 188L1066.5 169.5C1073 147.833 1074.7 107.4 1029.5 119C984.299 130.6 1003 169.833 1018 188L1005 233.5L987.5 269.5L952 176L960.5 164L968 137L958 115.5C949.833 105.833 928.599 92.7001 909 117.5C889.4 142.3 908.5 162.5 920.5 169.5L897.5 238L864.5 304C860.333 307.333 843.099 309.4 807.5 291C771.9 272.6 760.333 222.333 759 199.5L767.5 182.5C767 154.5 756.299 105.6 717.5 134C678.7 162.4 707.333 190.834 726.5 201.5L720 271.5L683 322.5L649 294.5C638.166 281.5 616 254.2 614 249C612 243.8 603.166 225.834 599 217.5L595.5 175.5L584.5 161L565.5 154.5L539.5 166.5C537.166 175 532.5 192.8 532.5 196C532.5 199.2 543.166 211.667 548.5 217.5C555.833 222.834 570.5 234.4 570.5 238C570.5 242.5 565.5 250.5 565.5 260C565.5 269.5 566 266 565.5 271.5C565 277 564 281.5 563 288.5C562 295.5 560.5 301.5 559.5 314C558.5 326.5 557.5 326.5 556.5 332C555.5 337.5 553 339.5 548.5 346C544.9 351.2 541 351.5 539.5 351H532.5C527.5 349.834 516.9 347.2 514.5 346C511.5 344.5 504 341.5 501.5 339.5C499 337.5 497 336 494.5 332C492 328 488 322.5 484 314C480 305.5 478.5 301 476.5 294.5C474.5 288 472.5 281.5 468.5 277.5C464.5 273.5 469 272.5 468.5 270C468.1 268 468.333 259.5 468.5 255.5V229.5C468.166 221.667 460.999 206.4 434.999 208C408.999 209.6 407.166 247.333 409.499 266C414.333 267 424.799 269.2 427.999 270C431.999 271 434.999 280 434.999 285V322.5Z" fill="#FFBF44"/>
<path d="M444.069 264C415.069 248.5 428.069 224.167 435.569 213C427.736 213 406.669 219 405.069 241C403.469 263 430.069 269.5 444.069 264Z" fill="#001647" fill-opacity="0.2"/>
<path d="M578.069 215C549.069 199.5 562.069 175.167 569.569 164C561.736 164 540.669 170 539.069 192C537.469 214 564.069 220.5 578.069 215Z" fill="#001647" fill-opacity="0.2"/>
<path d="M743.069 189C714.069 173.5 727.069 149.167 734.569 138C726.736 138 705.669 144 704.069 166C702.469 188 729.069 194.5 743.069 189Z" fill="#001647" fill-opacity="0.2"/>
<path d="M942.069 162C913.069 146.5 926.069 122.167 933.569 111C925.736 111 904.669 117 903.069 139C901.469 161 928.069 167.5 942.069 162Z" fill="#001647" fill-opacity="0.2"/>
<path d="M1043.09 174.907C1015.4 157.18 1030.27 133.942 1038.62 123.397C1030.81 122.783 1009.34 127.112 1006.02 148.919C1002.7 170.726 1028.71 179.292 1043.09 174.907Z" fill="#001647" fill-opacity="0.2"/>
<path d="M1183.37 209.99C1156.88 190.505 1173.23 168.279 1182.25 158.299C1174.49 157.179 1152.78 160.107 1148.06 181.652C1143.33 203.198 1168.73 213.433 1183.37 209.99Z" fill="#001647" fill-opacity="0.2"/>
<path d="M320.069 328C291.069 312.5 304.069 288.167 311.569 277C303.736 277 282.669 283 281.069 305C279.469 327 306.069 333.5 320.069 328Z" fill="#001647" fill-opacity="0.2"/>
<path d="M556.5 355.5C516.1 428.7 528.046 559.333 539.069 615.5L381 642.5L374 625.5L363.5 567.5L309 349L341.5 334.5L391.5 374C404.333 381.167 437 397.4 465 405C493 412.6 537.667 375.167 556.5 355.5Z" fill="#001647" fill-opacity="0.2"/>
<path d="M943.5 423.5C919.5 387.1 931.167 337.333 940 317L931.5 307L910 329.5L905.5 356.5L910 398.5L929.5 430L943.5 423.5Z" fill="#001647" fill-opacity="0.2"/>
<path d="M449.5 281.5C472.3 351.9 475.5 395.333 463 405.5C457.833 401.667 424.3 388.2 421.5 387C418.7 385.8 422.667 378.833 425 375.5C427.833 364 433.5 340.4 433.5 338C433.5 335.6 431.5 302.333 430.5 286L449.5 281.5Z" fill="#001647" fill-opacity="0.2"/>
<path d="M731 337.5C757 318.7 748.167 240 740.5 203L725.5 200.5C724.167 207.667 721.6 222.5 722 224.5C722.4 226.5 720.5 244 719.5 252.5L701.5 294L688.5 317L731 337.5Z" fill="#001647" fill-opacity="0.2"/>
<path d="M1006 296.5C1027.2 296.1 1033.5 229 1034 195.5L1023 185.5L1016.5 198.5L997.5 253C991.5 267.667 984.8 296.9 1006 296.5Z" fill="#001647" fill-opacity="0.2"/>
<path d="M939 307.5C910.6 308.3 903.167 350.167 903 371V393C903 397 919.667 418 928 428L956 434.5L981.5 383.5C979.167 357.833 967.4 306.7 939 307.5Z" fill="#53B6F9"/>
<path d="M364 568.5C502.5 516 796.5 459.5 1168 506.5M364 568.5C364 607.7 374 635.5 381 644C637.4 578.4 1010.17 578 1164.5 586C1172.9 560.4 1170.33 522.333 1168 506.5M364 568.5L307 342M1168 506.5L1195.5 218.5M1157.5 218.5C1155.17 263.5 1137 351.949 1081.5 347C1038.84 343.196 1001.65 297.233 978.003 251C961.927 219.572 952.108 188.02 951.085 169.5M342.5 330C366.5 361.833 432.1 419.9 502.5 397.5C565 377.614 569 281 569 227M593.5 218.5C613.833 261.333 677.6 347 770 347C874 347 908.5 229.667 920 171M428 275C433.667 303.333 439.1 365.3 415.5 386.5M464 267C473.5 296 503.1 360.6 545.5 351M756.5 193.5C762.333 230 789.3 304.3 850.5 309.5M724 197.5C727 227.667 723.6 293.9 686 317.5M1050.5 183C1048.66 219.743 1064.68 313.289 1097 344.515M1018.5 183C1018.98 204.871 1004.43 244.122 988.5 264.837" stroke="black" stroke-width="22" stroke-linecap="round"/>
<path d="M312 340C318.922 340 325.689 337.947 331.445 334.101C337.201 330.256 341.687 324.789 344.336 318.394C346.985 311.999 347.678 304.961 346.327 298.172C344.977 291.383 341.644 285.146 336.749 280.251C331.854 275.356 325.617 272.023 318.828 270.673C312.039 269.322 305.001 270.015 298.606 272.664C292.211 275.313 286.744 279.799 282.899 285.555C279.053 291.311 277 298.078 277 305C277 314.283 280.687 323.185 287.251 329.749C293.815 336.313 302.717 340 312 340V340Z" stroke="black" stroke-width="22" stroke-miterlimit="10"/>
<path d="M438 276C444.922 276 451.689 273.947 457.445 270.101C463.201 266.256 467.687 260.789 470.336 254.394C472.985 247.999 473.678 240.961 472.327 234.172C470.977 227.383 467.644 221.146 462.749 216.251C457.854 211.356 451.617 208.023 444.828 206.673C438.039 205.322 431.001 206.015 424.606 208.664C418.211 211.313 412.744 215.799 408.899 221.555C405.053 227.311 403 234.078 403 241C403 250.283 406.687 259.185 413.251 265.749C419.815 272.313 428.717 276 438 276V276Z" stroke="black" stroke-width="22" stroke-miterlimit="10"/>
<path d="M569 225C575.922 225 582.689 222.947 588.445 219.101C594.201 215.256 598.687 209.789 601.336 203.394C603.985 196.999 604.678 189.961 603.327 183.172C601.977 176.383 598.644 170.146 593.749 165.251C588.854 160.356 582.617 157.023 575.828 155.673C569.039 154.322 562.001 155.015 555.606 157.664C549.211 160.313 543.744 164.799 539.899 170.555C536.053 176.311 534 183.078 534 190C534 199.283 537.687 208.185 544.251 214.749C550.815 221.313 559.717 225 569 225V225Z" stroke="black" stroke-width="22" stroke-miterlimit="10"/>
<path d="M735 199C741.922 199 748.689 196.947 754.445 193.101C760.201 189.256 764.687 183.789 767.336 177.394C769.985 170.999 770.678 163.961 769.327 157.172C767.977 150.383 764.644 144.146 759.749 139.251C754.854 134.356 748.617 131.023 741.828 129.673C735.039 128.322 728.001 129.015 721.606 131.664C715.211 134.313 709.744 138.799 705.899 144.555C702.053 150.311 700 157.078 700 164C700 173.283 703.687 182.185 710.251 188.749C716.815 195.313 725.717 199 735 199V199Z" stroke="black" stroke-width="22" stroke-miterlimit="10"/>
<path d="M934 172C940.922 172 947.689 169.947 953.445 166.101C959.201 162.256 963.687 156.789 966.336 150.394C968.985 143.999 969.678 136.961 968.327 130.172C966.977 123.383 963.644 117.146 958.749 112.251C953.854 107.356 947.617 104.023 940.828 102.673C934.039 101.322 927.001 102.015 920.606 104.664C914.211 107.313 908.744 111.799 904.899 117.555C901.053 123.311 899 130.078 899 137C899 146.283 902.687 155.185 909.251 161.749C915.815 168.313 924.717 172 934 172V172Z" stroke="black" stroke-width="22" stroke-miterlimit="10"/>
<path d="M1036 186C1042.92 186 1049.69 183.947 1055.44 180.101C1061.2 176.256 1065.69 170.789 1068.34 164.394C1070.98 157.999 1071.68 150.961 1070.33 144.172C1068.98 137.383 1065.64 131.146 1060.75 126.251C1055.85 121.356 1049.62 118.023 1042.83 116.673C1036.04 115.322 1029 116.015 1022.61 118.664C1016.21 121.313 1010.74 125.799 1006.9 131.555C1003.05 137.311 1001 144.078 1001 151C1001 160.283 1004.69 169.185 1011.25 175.749C1017.82 182.313 1026.72 186 1036 186V186Z" stroke="black" stroke-width="22" stroke-miterlimit="10"/>
<path d="M1178 218C1184.92 218 1191.69 215.947 1197.44 212.101C1203.2 208.256 1207.69 202.789 1210.34 196.394C1212.98 189.999 1213.68 182.961 1212.33 176.172C1210.98 169.383 1207.64 163.146 1202.75 158.251C1197.85 153.356 1191.62 150.023 1184.83 148.673C1178.04 147.322 1171 148.015 1164.61 150.664C1158.21 153.313 1152.74 157.799 1148.9 163.555C1145.05 169.311 1143 176.078 1143 183C1143 192.283 1146.69 201.185 1153.25 207.749C1159.82 214.313 1168.72 218 1178 218V218Z" stroke="black" stroke-width="22" stroke-miterlimit="10"/>
<path d="M943.759 433.951C964.124 433.429 979.887 404.507 978.945 369.388C978.002 334.27 960.73 306.262 940.352 306.804C919.975 307.346 904.223 336.259 905.167 371.366C906.11 406.474 923.381 434.503 943.759 433.951Z" stroke="black" stroke-width="22" stroke-miterlimit="10"/>
</g>
<defs>
<clipPath id="clip0_1349_8086">
<rect width="1500" height="1500" fill="white"/>
</clipPath>
</defs>
      
    </g>
    </svg>