<svg
      xmlns="http://www.w3.org/2000/svg"
      preserveAspectRatio="xMidYMin meet"
      fill="none"
      viewBox="0 0 1500 1500"
    >
      <g>
      <path fill="url(#prefix__paint0_linear_53_30462)" d="M0 0h1500v1500H0z"/><defs><linearGradient id="prefix__paint0_linear_53_30462" x1="0" y1="0" x2="1500" y2="1500" gradientUnits="userSpaceOnUse">
<stop stop-color="#FFC4F6"/>
<stop offset="1" stop-color="#FF3DB1"/>
</linearGradient></defs>
      <g clip-path="url(#clip0_481_201)">
<path d="M822.5 1233.5L646 1049.5L588 1087L661 1162.5C706.5 1217.17 798.2 1327.5 801 1331.5C803.8 1335.5 879.167 1449.83 916.5 1506.5H996L872 1300.5L956.5 1121.5L904 1065.5L822.5 1233.5Z" fill="white"/>
<path d="M416.5 1343L353.5 1506H915.5L833.5 1370.5L593 1094.5L487.5 1206.5L416.5 1343Z" fill="#99C4CB"/>
<path d="M936 1395.5L996.5 1506H1140L1121 1432.5L1096 1349.5L1050.5 1256.5L996.5 1167L959 1125L869.5 1297L936 1395.5Z" fill="#99C4CB"/>
<path d="M416.5 1343L353.5 1506H915.5L833.5 1370.5L593 1094.5L487.5 1206.5L416.5 1343Z" stroke="black"/>
<path d="M936 1395.5L996.5 1506H1140L1121 1432.5L1096 1349.5L1050.5 1256.5L996.5 1167L959 1125L869.5 1297L936 1395.5Z" stroke="black"/>
<path d="M820 1233.5L647.5 1052C665.333 1040.5 715 1016.9 771 1014.5C827 1012.1 880 1045.17 899.5 1062L820 1233.5Z" fill="#AABBFF"/>
<path d="M409.87 1339.62C462.691 1207.98 569.086 1113.24 605.384 1082.33L674 1033.5L749.5 1019.5C699.204 1046.47 656.397 1082.67 620.155 1123.5L641 1146.5L697 1200L769.5 1290.5L871.5 1426.5L914.5 1511H889.5C862.667 1465 786.9 1356.6 730.5 1287C674.1 1217.4 622.589 1160.22 605.384 1140.83C498.462 1271.37 453.613 1440.5 443.159 1511H353.699C350.414 1508.73 357.049 1471.27 409.87 1339.62Z" fill="#001647" fill-opacity="0.2"/>
<path d="M353.5 1519.5C365.5 1454.33 414.5 1313.6 483.5 1219C530.101 1155.11 577.468 1101.29 629.141 1059.66C710.278 994.299 826.037 996.323 905.02 1064.27C1000.08 1146.05 1103.44 1290.29 1142.5 1519.5M1013.5 1319C1024.83 1354.33 1048.1 1443.9 1050.5 1519.5M667 1361.5C661.167 1392.33 650.3 1467.1 653.5 1519.5M592 1093.5C677.5 1177.33 857.5 1384.5 921.5 1516.5M870.895 1302C924.689 1373.66 972.467 1449.01 998.5 1516.5M870.895 1302C892.264 1267.83 939 1185 959 1119M870.895 1302C854.413 1280.04 837.366 1258.43 820.206 1237.5M820.206 1237.5C842.304 1198 890.5 1112.6 898.5 1067M820.206 1237.5C756.694 1160.02 691.644 1091.84 648 1049.77" stroke="black" stroke-width="22" stroke-linecap="round"/>
</g>
<defs>
<clipPath id="clip0_481_201">
<rect width="1500" height="1500" fill="white"/>
</clipPath>
</defs>
      <g clip-path="url(#clip0_497_1194)">
<path d="M379.667 654.812C432.345 471.574 618.472 401.981 699.114 390.653C740.985 382.718 849.655 375.215 949.364 408.675C980 418.956 1049.88 457.388 1091.92 499.818C1144.47 552.856 1272.97 732.052 1185.05 927.725C1097.12 1123.4 758.414 1092.29 612.749 1051.82C464.472 1010.63 314.48 881.563 379.667 654.812Z" fill="#AABBFF"/>
<path d="M449.293 747.204C454.734 531.068 585.306 432.345 649.911 410C432.292 459.565 365.296 655.455 364 747.204C377.99 984.871 584.496 1053.43 681 1058C601.498 1044.46 443.853 963.339 449.293 747.204Z" fill="#001647" fill-opacity="0.2"/>
<path d="M379.667 654.812C432.345 471.574 618.472 401.981 699.114 390.653C740.985 382.718 849.655 375.215 949.364 408.675C980 418.956 1049.88 457.388 1091.92 499.818C1144.47 552.856 1272.97 732.052 1185.05 927.725C1097.12 1123.4 758.414 1092.29 612.749 1051.82C464.472 1010.63 314.48 881.563 379.667 654.812Z" stroke="black" stroke-width="22" stroke-linecap="round"/>
</g>
<defs>
    <clipPath id="prefix__clip0_299_662"><path fill="#fff" d="M0 0h1500v1500H0z"/></clipPath>
</defs>
      <g clip-path="url(#clip0_624_3550)">
<path d="M860.753 778.254C855.989 772.147 849.895 767.208 842.935 763.81C835.975 760.413 828.332 758.647 820.587 758.647C812.842 758.647 805.198 760.413 798.238 763.81C791.278 767.208 785.184 772.147 780.42 778.254" stroke="black" stroke-width="22" stroke-miterlimit="10" stroke-linecap="round"/>
<path d="M870.881 910.959C896.594 937.099 946.448 937.099 972.168 910.959" stroke="black" stroke-width="22" stroke-miterlimit="10" stroke-linecap="round"/>
<path d="M1052.5 778.254C1047.74 772.147 1041.64 767.208 1034.68 763.81C1027.72 760.413 1020.08 758.647 1012.33 758.647C1004.59 758.647 996.946 760.413 989.985 763.81C983.025 767.208 976.931 772.147 972.167 778.254" stroke="black" stroke-width="22" stroke-miterlimit="10" stroke-linecap="round"/>
</g>
<defs>
<clipPath id="clip0_624_3550">
<rect width="1500" height="1500" fill="white"/>
</clipPath>
</defs>
      <g clip-path="url(#clip0_925_1145)">
<path d="M1185.05 927.725C1097.12 1123.4 758.414 1092.29 612.749 1051.82C504.292 1021.69 394.918 944.548 369.504 816.551C369.315 815.6 370.389 814.872 371.115 815.515C434.364 871.473 683.76 932.969 904.561 837.979C919.236 831.666 936.246 834.058 950.385 841.496C1012.61 874.234 1135.31 886.116 1210.95 828.952C1211.66 828.418 1212.67 828.985 1212.56 829.865C1208.69 861.649 1200 894.449 1185.05 927.725Z" fill="#3A3A3A" stroke="black" stroke-width="22" stroke-linecap="round"/>
<path d="M703 1070C616.2 1020 547 924 542 873L518 870.5L427.5 847.5L371.5 823C415.5 1007.4 610.833 1064.5 703 1070Z" fill="black" fill-opacity="0.2"/>
</g>
<defs>
<clipPath id="clip0_925_1145">
<rect width="1500" height="1500" fill="white"/>
</clipPath>
</defs>
      <g clip-path="url(#clip0_771_606)">
<path d="M863.993 527.644C890.69 533.234 953.2 543.468 977.668 523.094L1014.69 433.323L1073.2 323.725L1125.02 252.017C1125.02 252.017 1152.13 228.431 1038.06 213.369C923.981 198.307 867.998 187.656 867.998 187.656C867.998 187.656 682.771 166.635 549.728 276.66C416.686 386.684 363.177 542.213 363.177 542.213C363.177 542.213 337.135 691.713 357.999 753.5C357.999 753.5 341.001 591 490.792 472.221L501.17 475.384L603.985 437.979L697.981 441.573L810.812 485.642L842.989 516.524C848.813 522.121 856.09 525.973 863.993 527.644Z" fill="#4AEEB9"/>
<path d="M742.504 200.999C676.904 266.599 661.503 387.666 662.003 439.999L625.003 434.5L571.003 446L499.003 479C383.499 562.5 364.503 699.667 357.503 751.5L343.503 659.5L360.003 560.5L396.003 466.5C421.169 416.5 492.403 304.699 576.003 257.499C659.603 210.299 721.837 200.166 742.504 200.999Z" fill="#001647" fill-opacity="0.2"/>
<path d="M370.001 824.5C370.001 824.5 269.087 563.97 500.28 320.562C709.101 100.723 1055 215.728 1119.97 240.074C1121.19 240.539 1122.28 241.281 1123.16 242.241C1124.03 243.209 1124.65 244.367 1124.99 245.623C1125.32 246.881 1125.35 248.2 1125.07 249.47C1124.79 250.741 1124.21 251.926 1123.38 252.928C1034.34 361.043 992.774 481.265 982.543 514.053C981.611 517.023 980.059 519.76 977.991 522.086C975.922 524.406 973.381 526.257 970.538 527.514C952.612 535.457 910.698 548.623 858.575 529.192C851.513 525.552 848.335 523.515 843.096 518.725C818.258 491.807 652.217 366.136 494.165 482.174" stroke="black" stroke-width="20" stroke-miterlimit="10" stroke-linecap="round"/>
<path d="M847.383 522.595C847.383 522.595 830.394 316.415 907.33 193.397" stroke="black" stroke-width="20" stroke-miterlimit="10" stroke-linecap="round"/>
<path d="M940.167 529.066C940.167 529.066 943.119 444.066 997.197 349.634" stroke="black" stroke-width="20" stroke-miterlimit="10" stroke-linecap="round"/>
<path d="M754.269 459.828C754.269 459.828 740.725 382.776 759.48 315.96" stroke="black" stroke-width="20" stroke-miterlimit="10" stroke-linecap="round"/>
<path d="M595.363 246.497C595.363 246.497 573.599 298.854 593.754 375.109" stroke="black" stroke-width="20" stroke-miterlimit="10" stroke-linecap="round"/>
<path d="M920.072 268.739C920.072 268.739 927.639 235.29 953.389 205.827" stroke="black" stroke-width="20" stroke-miterlimit="10" stroke-linecap="round"/>
<path d="M472.246 499.854C472.246 499.854 460.445 481.715 458.858 444.683" stroke="black" stroke-width="20" stroke-miterlimit="10" stroke-linecap="round"/>
</g>
<defs>
<clipPath id="clip0_771_606">
<rect width="1500" height="1500" fill="white"/>
</clipPath>
</defs>
      
    </g>
    </svg>