<svg
      xmlns="http://www.w3.org/2000/svg"
      preserveAspectRatio="xMidYMin meet"
      fill="none"
      viewBox="0 0 1500 1500"
    >
      <g>
      <path fill="url(#prefix__paint0_linear_53_28789)" d="M0 0h1500v1500H0z"/><defs><linearGradient id="prefix__paint0_linear_53_28789" x1="1500" y1="1500" x2="0" y2="0" gradientUnits="userSpaceOnUse">
<stop stop-color="#FFD130"/>
<stop offset="1" stop-color="#FFEEDB"/>
</linearGradient></defs>
      <g clip-path="url(#clip0_482_374)">
<path d="M773 1011.5C543.4 1029.9 398.667 1353.5 355 1513H1138.5C1075.7 1127 868.667 1017.83 773 1011.5Z" fill="#53B6F9"/>
<path d="M831 1187.5C733.4 1193.9 672.667 1094.83 654.5 1044.5L690 1026C695.667 1034.33 707.3 1051.7 708.5 1054.5C709.7 1057.3 737.667 1099 751.5 1119.5L827 1143.5L857.5 1119.5L893.5 1054.5L920.5 1081.5L905 1119.5L873.5 1160L831 1187.5Z" fill="white"/>
<path d="M490.5 1417.5L388 1405.5L409 1356L513 1376C558.833 1393.83 651.2 1430 654 1432C656.8 1434 652.833 1463.17 650.5 1477.5L490.5 1417.5Z" fill="white"/>
<path d="M1114.5 1412.5L1041.5 1430L1046 1469.5L1126.5 1451L1114.5 1412.5Z" fill="white"/>
<path d="M749.5 1019.5C536 1134 457.448 1414.63 443.159 1511H353.699C350.414 1508.73 357.049 1471.27 409.87 1339.62C462.691 1207.98 569.086 1113.24 605.384 1082.33L674 1033.5L749.5 1019.5Z" fill="#001647" fill-opacity="0.2"/>
<path d="M390.5 1402.5L355 1509.5H650L654 1474L390.5 1402.5Z" fill="#AABBFF"/>
<path d="M1047 1477V1512.5L1145 1509.5L1130 1456L1047 1477Z" fill="#AABBFF"/>
<path d="M724 1086L696.5 1024L706 1015H757.5L845 1031.5L888 1054L855 1115.5L830.5 1152L775 1135.5L724 1086Z" fill="#AABBFF"/>
<path d="M353.5 1519.5C365.5 1454.33 414.5 1313.6 483.5 1219C530.101 1155.11 577.468 1101.29 629.141 1059.66C710.278 994.299 826.037 996.323 905.02 1064.27C1000.08 1146.05 1103.44 1290.29 1142.5 1519.5M1013.5 1319C1024.83 1354.33 1048.1 1443.9 1050.5 1519.5M667 1361.5C661.167 1392.33 650.3 1467.1 653.5 1519.5M389 1402C453.5 1411.83 596.7 1440.9 653.5 1478.5M408 1358.5C467 1367.33 598.3 1392.9 655.5 1432.5M1047 1474.5L1127.5 1451.5M1042 1429.5L1113.5 1408.5M657.5 1041.5C673.972 1086.42 728.014 1181.47 835.445 1187.97C835.803 1187.99 836.152 1187.92 836.47 1187.75C859.22 1175.83 910.85 1139.66 918 1076.5M696.5 1026C703.647 1059.57 739.404 1130.61 825.294 1146.87C825.745 1146.95 826.204 1146.89 826.604 1146.67C843.993 1136.92 879.07 1104.87 885 1051.5" stroke="black" stroke-width="22" stroke-linecap="round"/>
<path d="M909.773 1322.6C908.394 1322.6 907.427 1321.24 907.884 1319.94L920.176 1284.94C920.73 1283.36 922.857 1283.12 923.752 1284.53L958.88 1339.9C959.251 1340.49 959.897 1340.84 960.589 1340.83L976.811 1340.67C978.374 1340.66 979.316 1338.93 978.486 1337.61L917.606 1240.51C916.716 1239.09 914.58 1239.33 914.025 1240.91L879.595 1338.95C879.135 1340.26 880.115 1341.63 881.501 1341.61L945.945 1340.98C947.513 1340.96 948.454 1339.23 947.615 1337.9L926.611 1304.77C925.716 1303.36 923.587 1303.6 923.034 1305.18L917.404 1321.25C917.123 1322.06 916.367 1322.59 915.518 1322.59L909.773 1322.6Z" fill="white"/>
</g>
<defs>
<clipPath id="clip0_482_374">
<rect width="1500" height="1500" fill="white"/>
</clipPath>
</defs>
      <g clip-path="url(#clip0_497_1194)">
<path d="M379.667 654.812C432.345 471.574 618.472 401.981 699.114 390.653C740.985 382.718 849.655 375.215 949.364 408.675C980 418.956 1049.88 457.388 1091.92 499.818C1144.47 552.856 1272.97 732.052 1185.05 927.725C1097.12 1123.4 758.414 1092.29 612.749 1051.82C464.472 1010.63 314.48 881.563 379.667 654.812Z" fill="#AABBFF"/>
<path d="M449.293 747.204C454.734 531.068 585.306 432.345 649.911 410C432.292 459.565 365.296 655.455 364 747.204C377.99 984.871 584.496 1053.43 681 1058C601.498 1044.46 443.853 963.339 449.293 747.204Z" fill="#001647" fill-opacity="0.2"/>
<path d="M379.667 654.812C432.345 471.574 618.472 401.981 699.114 390.653C740.985 382.718 849.655 375.215 949.364 408.675C980 418.956 1049.88 457.388 1091.92 499.818C1144.47 552.856 1272.97 732.052 1185.05 927.725C1097.12 1123.4 758.414 1092.29 612.749 1051.82C464.472 1010.63 314.48 881.563 379.667 654.812Z" stroke="black" stroke-width="22" stroke-linecap="round"/>
</g>
<defs>
    <clipPath id="prefix__clip0_299_662"><path fill="#fff" d="M0 0h1500v1500H0z"/></clipPath>
</defs>
      <g clip-path="url(#clip0_624_3293)">
<path d="M916.488 918.577L931.325 908.854C933.985 907.112 936.223 904.799 937.876 902.083C939.529 899.367 940.556 896.317 940.882 893.154C941.208 889.991 940.825 886.795 939.761 883.799C938.697 880.803 936.978 878.082 934.73 875.834V875.834C932.657 873.764 930.181 872.142 927.456 871.068C924.731 869.994 921.814 869.491 918.886 869.59C915.959 869.689 913.083 870.388 910.436 871.643C907.79 872.899 905.429 874.684 903.501 876.889L890.301 891.98" stroke="black" stroke-width="22" stroke-miterlimit="10" stroke-linecap="round"/>
<path d="M916.488 918.675L931.325 928.397C933.986 930.137 936.225 932.449 937.879 935.164C939.533 937.88 940.561 940.93 940.887 944.092C941.213 947.255 940.83 950.451 939.764 953.446C938.699 956.442 936.979 959.162 934.73 961.409V961.409C932.66 963.484 930.185 965.11 927.46 966.188C924.734 967.265 921.817 967.77 918.888 967.672C915.959 967.574 913.081 966.874 910.434 965.617C907.787 964.359 905.427 962.57 903.501 960.362L890.301 945.271" stroke="black" stroke-width="22" stroke-miterlimit="10" stroke-linecap="round"/>
<path d="M1012 817C1038.51 817 1060 795.51 1060 769C1060 742.49 1038.51 721 1012 721C985.49 721 964 742.49 964 769C964 795.51 985.49 817 1012 817Z" fill="black" stroke="black" stroke-width="22" stroke-miterlimit="10"/>
<path d="M1025.18 765.61C1035.8 765.61 1044.4 757.009 1044.4 746.398C1044.4 735.788 1035.8 727.186 1025.18 727.186C1014.57 727.186 1005.97 735.788 1005.97 746.398C1005.97 757.009 1014.57 765.61 1025.18 765.61Z" fill="white"/>
<path d="M994.295 774.185C998.822 774.185 1002.49 770.515 1002.49 765.988C1002.49 761.461 998.822 757.791 994.295 757.791C989.768 757.791 986.098 761.461 986.098 765.988C986.098 770.515 989.768 774.185 994.295 774.185Z" fill="white"/>
<path d="M1018.1 800.697C1026.05 800.697 1032.49 794.254 1032.49 786.307C1032.49 778.359 1026.05 771.917 1018.1 771.917C1010.16 771.917 1003.71 778.359 1003.71 786.307C1003.71 794.254 1010.16 800.697 1018.1 800.697Z" fill="white"/>
<path d="M822 817C848.51 817 870 795.51 870 769C870 742.49 848.51 721 822 721C795.49 721 774 742.49 774 769C774 795.51 795.49 817 822 817Z" fill="black" stroke="black" stroke-width="22" stroke-miterlimit="10"/>
<path d="M835.185 765.61C845.795 765.61 854.397 757.009 854.397 746.398C854.397 735.788 845.795 727.186 835.185 727.186C824.574 727.186 815.973 735.788 815.973 746.398C815.973 757.009 824.574 765.61 835.185 765.61Z" fill="white"/>
<path d="M804.295 774.185C808.822 774.185 812.492 770.515 812.492 765.988C812.492 761.461 808.822 757.791 804.295 757.791C799.768 757.791 796.098 761.461 796.098 765.988C796.098 770.515 799.768 774.185 804.295 774.185Z" fill="white"/>
<path d="M828.103 800.697C836.051 800.697 842.493 794.254 842.493 786.307C842.493 778.359 836.051 771.917 828.103 771.917C820.156 771.917 813.713 778.359 813.713 786.307C813.713 794.254 820.156 800.697 828.103 800.697Z" fill="white"/>
</g>
<defs>
<clipPath id="clip0_624_3293">
<rect width="1500" height="1500" fill="white"/>
</clipPath>
</defs>
      <g clip-path="url(#clip0_911_278)">
<path d="M741 865.42V871.56C741.01 872.669 740.781 873.767 740.33 874.78C739.07 877.64 736.99 877.78 736.99 877.78C735.893 878.033 734.754 878.046 733.651 877.818C732.548 877.59 731.507 877.127 730.6 876.46C727.96 874.35 721.36 856.25 721.36 856.25L708.65 876.46H700L717.8 848.25L712.21 836.66C711.84 835.888 711.265 835.233 710.547 834.767C709.828 834.301 708.996 834.043 708.14 834.02H708C707.225 833.94 706.442 834.054 705.721 834.351C705.001 834.647 704.365 835.118 703.87 835.72C702.98 836.61 702.66 839.5 702.66 839.5L700.88 839.63C700.634 837.881 700.59 836.109 700.75 834.35C700.862 833.001 701.324 831.705 702.09 830.59C702.61 829.783 703.325 829.12 704.169 828.664C705.014 828.208 705.96 827.972 706.92 827.98C708.535 827.979 710.11 828.479 711.43 829.41C712.762 830.35 713.801 831.646 714.43 833.15L719.69 846.2L731.13 828.8H739L723.2 853.31L727.14 862.63C727.14 862.63 730.14 871.63 734.45 871.63C738.76 871.63 739.16 865.41 739.16 865.41L741 865.42Z" fill="black"/>
</g>
<defs>
<clipPath id="clip0_911_278">
<rect width="1500" height="1500" fill="white"/>
</clipPath>
</defs>
      <g clip-path="url(#clip0_602_2010)">
<path d="M576.5 421V536.5L684.5 543V489V444V403C684.5 381.5 683.5 382 681 370C678.5 358 676 358 674 355C672 352 669 355 662.5 355C656 355 651.5 336 650.5 333C649.7 330.6 648.167 299.333 647.5 284H617L611 346L585 355L576.5 421Z" fill="#4AEEB9"/>
<path d="M722 171V455L724 480H758.5V518.5H793.5V473.5H823V374V171H722Z" fill="#4AEEB9"/>
<path d="M863.5 173.5V549.5L970.5 539.5V173.5H863.5Z" fill="#FF6247"/>
<path d="M1070.5 495.5C1042.5 468.7 993.833 440.667 973 430.5L970.5 444L971.5 535.5L1038 526L1070.5 495.5Z" fill="#7985B4"/>
<path d="M858.5 400C853.7 398.4 839.833 397.333 834.5 397L829 470.5L796 479L789.5 506L772.5 523.5L755 506L747.5 479L720.5 470.5L715.5 399L688.5 403.5L685.5 547H863.5L858.5 400Z" fill="#7985B4"/>
<path d="M522.5 519L575.5 530.5V444C545.1 458 514 481 502 492.5L522.5 519Z" fill="#7985B4"/>
<path d="M971.089 535.31V186.21C971.087 181.912 969.378 177.79 966.339 174.751C963.299 171.712 959.178 170.003 954.879 170H879.089C875.881 170 872.745 170.95 870.076 172.729C867.406 174.509 865.323 177.039 864.089 180C863.278 181.97 862.86 184.08 862.859 186.21V552.31" stroke="black" stroke-width="20" stroke-miterlimit="10"/>
<path d="M736.25 478.5H752.37C752.845 478.499 753.316 478.591 753.756 478.772C754.196 478.952 754.595 479.218 754.932 479.553C755.27 479.888 755.537 480.287 755.72 480.725C755.904 481.164 755.999 481.635 756 482.11V504.75C756.002 509.05 757.713 513.173 760.754 516.213C763.796 519.252 767.92 520.96 772.22 520.96H776.11C778.241 520.963 780.351 520.545 782.321 519.732C784.29 518.919 786.08 517.725 787.589 516.22C789.097 514.715 790.293 512.927 791.11 510.959C791.927 508.991 792.348 506.881 792.35 504.75V482.15C792.35 481.19 792.731 480.269 793.41 479.59C794.089 478.911 795.01 478.53 795.97 478.53H812.11C814.239 478.531 816.347 478.113 818.315 477.299C820.282 476.485 822.069 475.291 823.575 473.785C825.08 472.28 826.274 470.492 827.089 468.525C827.903 466.558 828.321 464.449 828.32 462.32V186.21C828.321 184.081 827.903 181.972 827.089 180.005C826.274 178.038 825.08 176.25 823.575 174.745C822.069 173.239 820.282 172.045 818.315 171.231C816.347 170.417 814.239 169.999 812.11 170H736.25C731.96 170.016 727.851 171.73 724.823 174.768C721.794 177.806 720.092 181.92 720.09 186.21V462.29C720.092 466.58 721.794 470.694 724.823 473.732C727.851 476.77 731.96 478.484 736.25 478.5V478.5Z" stroke="black" stroke-width="20" stroke-miterlimit="10"/>
<path d="M577.22 534.34V367.58C577.222 363.282 578.931 359.16 581.97 356.121C585.01 353.081 589.131 351.373 593.43 351.37H606.59C607.55 351.37 608.471 350.989 609.149 350.31C609.828 349.631 610.21 348.71 610.21 347.75V297.47C610.21 293.17 611.917 289.046 614.957 286.004C617.997 282.963 622.12 281.253 626.42 281.25H635.34C639.637 281.258 643.757 282.965 646.8 286C648.309 287.504 649.505 289.292 650.32 291.261C651.135 293.229 651.553 295.339 651.55 297.47V347.76C651.55 348.72 651.931 349.641 652.61 350.32C653.289 350.999 654.21 351.38 655.17 351.38H669.25C673.547 351.385 677.667 353.095 680.706 356.134C683.745 359.172 685.454 363.292 685.46 367.59V546.76" stroke="black" stroke-width="20" stroke-miterlimit="10"/>
<path d="M632.5 369.396V284.61L618.5 280.11L610 347.11L577 350.61L580 535.5L682.5 540.11V520.11C651.5 520.11 632.5 517.5 612 514.61V381.825C612 378.625 614.511 375.988 617.708 375.832L626.792 375.389C629.989 375.233 632.5 372.596 632.5 369.396Z" fill="#001647" fill-opacity="0.2"/>
<path d="M776 460.61V517.11H756.5V477.61H724V173.61H756.5V448.61C756.5 451.924 759.186 454.61 762.5 454.61H770C773.314 454.61 776 457.297 776 460.61Z" fill="#001647" fill-opacity="0.2"/>
<path d="M900.5 517.61V173.61H866L862 546.11L970 536.61V510.61C947.5 515.5 927.5 514.5 900.5 517.61Z" fill="#001647" fill-opacity="0.2"/>
<path d="M509 472C445 524 631.18 552 782.127 552C933.073 552 1128.5 526.5 1062 473.5" stroke="black" stroke-width="21" stroke-miterlimit="10"/>
</g>
<defs>
<clipPath id="clip0_602_2010">
<rect width="1500" height="1500" fill="white"/>
</clipPath>
</defs>
      
    </g>
    </svg>