<svg
      xmlns="http://www.w3.org/2000/svg"
      preserveAspectRatio="xMidYMin meet"
      fill="none"
      viewBox="0 0 1500 1500"
    >
      <g>
      <path fill="url(#prefix__paint0_linear_53_30461)" d="M0 0h1500v1500H0z"/><defs><linearGradient id="prefix__paint0_linear_53_30461" x1="0" y1="0" x2="1500" y2="1533.5" gradientUnits="userSpaceOnUse">
<stop stop-color="#EEB0FC"/>
<stop offset="1" stop-color="#AF55F5"/>
</linearGradient></defs>
      <g clip-path="url(#clip0_491_610)">
<path d="M773 1011.5C543.4 1029.9 398.667 1353.5 355 1513H1138.5C1075.7 1127 868.667 1017.83 773 1011.5Z" fill="#A760FF"/>
<path d="M409 1362.5L354 1512.5H651.5V1444.5L409 1362.5Z" fill="#AABBFF"/>
<path d="M1039.5 1426.5L1046 1512.5L1142.5 1504L1111 1393L1039.5 1426.5Z" fill="#AABBFF"/>
<path d="M749.5 1019.5C536 1134 457.448 1414.63 443.159 1511H353.699C350.414 1508.73 357.049 1471.27 409.87 1339.62C462.691 1207.98 569.086 1113.24 605.384 1082.33L674 1033.5L749.5 1019.5Z" fill="#001647" fill-opacity="0.2"/>
<path d="M353.5 1519.5C365.5 1454.33 414.5 1313.6 483.5 1219C530.101 1155.11 577.468 1101.29 629.141 1059.66C710.278 994.299 826.037 996.323 905.02 1064.27C1000.08 1146.05 1103.44 1290.29 1142.5 1519.5M1013.5 1319C1024.83 1354.33 1048.1 1443.9 1050.5 1519.5M667 1361.5C661.167 1392.33 650.3 1467.1 653.5 1519.5M408.5 1360.5L651 1446.5M1040.5 1424C1056.33 1421.5 1091.7 1411.6 1106.5 1392" stroke="black" stroke-width="22" stroke-linecap="round"/>
<path d="M960.646 1323.36C960.84 1323.15 960.824 1322.82 960.61 1322.64L900.183 1269.84C899.84 1269.54 899.308 1269.82 899.357 1270.27L903.003 1304.06C903.034 1304.36 902.803 1304.61 902.505 1304.61H829.712C829.417 1304.61 829.186 1304.87 829.214 1305.16L832.641 1340.76C832.665 1341.02 832.881 1341.21 833.138 1341.21H906.136C906.391 1341.21 906.606 1341.41 906.633 1341.66L910.311 1375.74C910.357 1376.17 910.88 1376.35 911.173 1376.03L960.646 1323.36ZM792.988 1378.81C792.733 1378.81 792.519 1378.62 792.491 1378.37L788.813 1344.28C788.767 1343.86 788.244 1343.68 787.952 1343.99L738.356 1396.8C738.162 1397.01 738.179 1397.33 738.393 1397.52L798.935 1450.16C799.278 1450.46 799.809 1450.18 799.76 1449.73L796.13 1416.09C796.098 1415.79 796.33 1415.54 796.627 1415.54H869.421C869.716 1415.54 869.947 1415.28 869.918 1414.99L866.484 1379.25C866.459 1378.99 866.244 1378.8 865.986 1378.8L792.988 1378.81Z" fill="white"/>
</g>
<defs>
<clipPath id="clip0_491_610">
<rect width="1500" height="1500" fill="white"/>
</clipPath>
</defs>
      <g clip-path="url(#clip0_497_1194)">
<path d="M379.667 654.812C432.345 471.574 618.472 401.981 699.114 390.653C740.985 382.718 849.655 375.215 949.364 408.675C980 418.956 1049.88 457.388 1091.92 499.818C1144.47 552.856 1272.97 732.052 1185.05 927.725C1097.12 1123.4 758.414 1092.29 612.749 1051.82C464.472 1010.63 314.48 881.563 379.667 654.812Z" fill="#AABBFF"/>
<path d="M449.293 747.204C454.734 531.068 585.306 432.345 649.911 410C432.292 459.565 365.296 655.455 364 747.204C377.99 984.871 584.496 1053.43 681 1058C601.498 1044.46 443.853 963.339 449.293 747.204Z" fill="#001647" fill-opacity="0.2"/>
<path d="M379.667 654.812C432.345 471.574 618.472 401.981 699.114 390.653C740.985 382.718 849.655 375.215 949.364 408.675C980 418.956 1049.88 457.388 1091.92 499.818C1144.47 552.856 1272.97 732.052 1185.05 927.725C1097.12 1123.4 758.414 1092.29 612.749 1051.82C464.472 1010.63 314.48 881.563 379.667 654.812Z" stroke="black" stroke-width="22" stroke-linecap="round"/>
</g>
<defs>
    <clipPath id="prefix__clip0_299_662"><path fill="#fff" d="M0 0h1500v1500H0z"/></clipPath>
</defs>
      <g clip-path="url(#clip0_624_2936)">
<path d="M876.088 925.246H970.501" stroke="black" stroke-width="22" stroke-linecap="round"/>
<path d="M864.633 785.967L846.559 774.78L827.213 762.8L802.666 747.607" stroke="black" stroke-width="22" stroke-linecap="round"/>
<path d="M848.206 782.713C848.206 786.612 847.063 790.425 844.918 793.681C842.773 796.937 839.721 799.492 836.139 801.032C832.557 802.571 828.602 803.027 824.764 802.342C820.925 801.657 817.372 799.862 814.544 797.179C811.715 794.495 809.735 791.042 808.848 787.245C807.962 783.448 808.208 779.475 809.556 775.817C810.904 772.158 813.295 768.976 816.434 766.662C819.572 764.348 823.319 763.006 827.213 762.8L846.546 774.8C847.638 777.295 848.203 779.989 848.206 782.713Z" fill="black" stroke="black" stroke-width="22" stroke-linecap="round"/>
<path d="M1024.63 747.607L1000.09 762.8L980.739 774.78L962.666 785.967" stroke="black" stroke-width="22" stroke-linecap="round"/>
<path d="M979.094 782.713C979.094 786.612 980.237 790.425 982.382 793.681C984.527 796.937 987.579 799.492 991.161 801.032C994.743 802.571 998.698 803.027 1002.54 802.342C1006.37 801.657 1009.93 799.862 1012.76 797.179C1015.59 794.495 1017.57 791.042 1018.45 787.245C1019.34 783.448 1019.09 779.475 1017.74 775.817C1016.4 772.158 1014 768.976 1010.87 766.662C1007.73 764.348 1003.98 763.006 1000.09 762.8L980.754 774.8C979.662 777.295 979.097 779.989 979.094 782.713Z" fill="black" stroke="black" stroke-width="22" stroke-linecap="round"/>
</g>
<defs>
<clipPath id="clip0_624_2936">
<rect width="1500" height="1500" fill="white"/>
</clipPath>
</defs>
      <g clip-path="url(#clip0_838_2422)">
<ellipse cx="932" cy="915.5" rx="131" ry="69.5" fill="#AABBFF"/>
<path d="M916.488 918.577L931.325 908.855C933.985 907.113 936.223 904.799 937.876 902.083C939.529 899.367 940.556 896.317 940.882 893.154C941.208 889.992 940.825 886.796 939.761 883.8C938.697 880.804 936.978 878.082 934.73 875.834V875.834C932.657 873.765 930.181 872.142 927.456 871.068C924.731 869.994 921.814 869.491 918.886 869.59C915.959 869.689 913.083 870.388 910.436 871.644C907.79 872.899 905.429 874.685 903.501 876.89L890.301 891.98" stroke="black" stroke-width="22" stroke-miterlimit="10" stroke-linecap="round"/>
<path d="M916.488 918.675L931.325 928.397C933.986 930.137 936.225 932.449 937.879 935.165C939.533 937.88 940.561 940.93 940.887 944.093C941.213 947.255 940.83 950.451 939.764 953.447C938.699 956.442 936.979 959.163 934.73 961.41V961.41C932.66 963.484 930.185 965.111 927.46 966.188C924.734 967.265 921.817 967.771 918.888 967.672C915.959 967.574 913.081 966.875 910.434 965.617C907.787 964.359 905.427 962.571 903.501 960.362L890.301 945.271" stroke="black" stroke-width="22" stroke-miterlimit="10" stroke-linecap="round"/>
<path d="M1107.22 751.006C1069.86 751.344 1033.86 765.04 1005.72 789.618C977.582 814.195 959.169 848.032 953.812 885.006C953.15 889.572 951.309 893.887 948.472 897.526C945.635 901.164 941.899 904.001 937.632 905.756L926.952 912.626C926.14 913.148 925.456 913.846 924.95 914.668C924.445 915.49 924.131 916.416 924.032 917.376C923.935 918.339 924.058 919.312 924.391 920.221C924.723 921.13 925.257 921.952 925.952 922.626C943.132 939.066 957.522 954.256 967.952 975.626C983.451 1007.57 1009.35 1033.29 1041.4 1048.56C1073.45 1063.83 1109.74 1067.75 1144.31 1059.67C1178.88 1051.59 1209.68 1031.99 1231.64 1004.1C1253.6 976.203 1265.42 941.667 1265.15 906.166C1264.45 820.126 1193.36 750.246 1107.22 751.006Z" fill="#F56CDB" fill-opacity="0.9" stroke="black" stroke-width="20" stroke-miterlimit="10"/>
<path d="M1215.48 846.919C1231.5 877.007 1232.08 908.004 1216.78 916.154C1201.48 924.303 1203.79 891.763 1187.77 861.675C1171.74 831.587 1143.45 815.346 1158.75 807.196C1174.06 799.047 1199.45 816.831 1215.48 846.919Z" fill="white"/>
<circle cx="1216.95" cy="946.006" r="13" fill="white"/>
</g>
<defs>
<clipPath id="clip0_838_2422">
<rect width="1500" height="1500" fill="white"/>
</clipPath>
</defs>
      <g clip-path="url(#clip0_786_1335)">
<path d="M711.94 381.541L669.138 415.004L754.914 456.956C786.09 456.451 856.04 454.579 886.429 451.127C916.817 447.675 946.703 430.594 957.848 422.485L912.882 387.272L890.772 360.146L852.07 352.844L816.711 388.83L811.119 369.892L779.2 357.196L748.101 362.456L711.94 381.541Z" fill="#AABBFF"/>
<path d="M754.823 451.145C758.386 440.393 766.661 423.631 780.081 411.559M882.17 449.083C878.062 439.675 870.922 425.659 859.411 414.501M670.743 416.037C678.291 403.405 696.028 378.1 722.448 377.672C724.832 377.634 727.122 377.712 729.323 377.895M780.081 411.559C789.433 403.145 801.285 397.009 815.783 396.774C818.147 396.736 820.438 396.825 822.658 397.03M780.081 411.559C771.884 400.903 758.35 380.305 729.323 377.895M953.095 422.563C946.826 410.677 929.573 387.795 908.089 385.052M859.411 414.501C864.186 404.755 879.655 385.169 903.328 384.785C904.936 384.759 906.524 384.852 908.089 385.052M859.411 414.501C850.192 405.565 838.17 398.463 822.658 397.03M729.323 377.895C734.108 368.72 747.587 350.309 768.512 349.97C795.461 349.534 817.557 375.809 822.658 397.03M908.089 385.052C903.334 374.267 889.367 351.713 871.612 352C849.419 352.36 832.274 370.674 822.592 392.964" stroke="black" stroke-width="22" stroke-linecap="round"/>
<path d="M578.342 529.026L580.903 574.676L573.558 641.424L541.958 690.124L571.134 698.373L600.225 661.577L613.863 564.569L601.322 530.004L578.342 529.026Z" fill="#AABBFF"/>
<path d="M1139.83 540.333C1139.83 540.333 1184 600 1203.86 668.503L1271.13 595.241C1271.13 595.241 1319.3 524.486 1316.49 455.043C1313.68 385.601 1306.56 371.446 1306.56 371.446C1306.56 371.446 1285.74 366.946 1271.38 405.791C1257.03 444.635 1188.69 511.68 1188.69 511.68L1139.83 540.333Z" fill="white"/>
<path d="M577.575 617.574C572.014 654.171 552.526 680.899 543.477 689.689L457.683 659.514C438.151 644.169 392.443 604.99 365.863 571.028C339.284 537.067 325.561 467.554 322.022 437.042C322.274 411.53 324.944 354.292 333.609 329.438C342.273 304.584 357.767 337.973 364.431 357.774L406.445 440.636L498.074 510.096L574.218 531.854C577.654 545.179 583.137 580.977 577.575 617.574Z" fill="white"/>
<path d="M466.093 567.787C428.919 538.18 403.201 462.017 394.989 427.637L355.218 327.355L344.026 319.872L319.632 410.917L323.564 483.149L374.176 587.396L469.802 657.026L574.26 695.503C582.646 690.522 600.53 675.602 604.977 655.774C610.536 630.988 523.21 613.279 466.093 567.787Z" fill="#001647" fill-opacity="0.2"/>
<path d="M1162.65 588.921L1136.68 544.786L1162.77 531.383L1207.41 493.748L1249.13 442.475L1279.26 381.202L1298.54 375.016C1277.26 498.723 1187.69 582.561 1179.43 590.812C1176.39 593.856 1173.74 595.177 1171.58 595.583C1167.57 596.337 1164.72 592.44 1162.65 588.921Z" fill="#001647" fill-opacity="0.2"/>
<path d="M563.938 527.191C528.276 526.494 408.125 510.55 360.58 331.185C356.991 317.681 337.781 317.754 334.391 331.312C311.881 421.356 296.754 610.964 536.115 686.572C538.423 687.301 540.889 687.37 543.234 686.773C545.579 686.177 547.712 684.937 549.391 683.194C563.277 668.771 594.614 625.064 576.443 537.472C575.828 534.597 574.257 532.015 571.986 530.148C569.715 528.281 566.878 527.239 563.938 527.191V527.191Z" stroke="black" stroke-width="22" stroke-miterlimit="10"/>
<path d="M1129.71 540.325C1178.22 525.244 1241.52 485.03 1281.71 381.645C1287.94 365.606 1311.52 368.492 1313.74 385.551C1323.7 462.274 1324.4 593.506 1200.33 668.438" stroke="black" stroke-width="22" stroke-miterlimit="10"/>
<path d="M536.114 686.573L561.679 693.356C568.785 695.24 576.686 693.505 581.478 687.923C589.198 678.913 591.232 676.968 599.72 656.981" stroke="black" stroke-width="22" stroke-miterlimit="10" stroke-linecap="round"/>
<path d="M563.938 527.193L584.689 528.077C596.568 528.582 604.191 532.91 607.588 549.5C613.886 580.256 611.001 600.061 611.001 600.061" stroke="black" stroke-width="22" stroke-miterlimit="10" stroke-linecap="round"/>
</g>
<defs>
<clipPath id="clip0_786_1335">
<rect width="1500" height="1500" fill="white"/>
</clipPath>
</defs>
      
    </g>
    </svg>