<svg
      xmlns="http://www.w3.org/2000/svg"
      preserveAspectRatio="xMidYMin meet"
      fill="none"
      viewBox="0 0 1500 1500"
    >
      <g>
      <path fill="url(#prefix__paint0_linear_53_28789)" d="M0 0h1500v1500H0z"/><defs><linearGradient id="prefix__paint0_linear_53_28789" x1="1500" y1="1500" x2="0" y2="0" gradientUnits="userSpaceOnUse">
<stop stop-color="#FFD130"/>
<stop offset="1" stop-color="#FFEEDB"/>
</linearGradient></defs>
      <g clip-path="url(#clip0_481_264)">
<path d="M773 1011.5C543.4 1029.9 398.667 1353.5 355 1513H1138.5C1075.7 1127 868.667 1017.83 773 1011.5Z" fill="#FF9C07"/>
<path d="M749.5 1019.5C536 1134 457.448 1414.63 443.159 1511H353.699C350.414 1508.73 357.049 1471.27 409.87 1339.62C462.691 1207.98 569.086 1113.24 605.384 1082.33L674 1033.5L749.5 1019.5Z" fill="#001647" fill-opacity="0.2"/>
<path d="M790.5 1299.5L764 1344L861.5 1424L937.5 1336.5L905.5 1299.5H790.5Z" fill="#53B6F9"/>
<path d="M353.5 1519.5C365.5 1454.33 414.5 1313.6 483.5 1219C530.101 1155.11 577.468 1101.29 629.141 1059.66C710.278 994.299 826.037 996.323 905.02 1064.27C1000.08 1146.05 1103.44 1290.29 1142.5 1519.5M1013.5 1319C1024.83 1354.33 1048.1 1443.9 1050.5 1519.5M667 1361.5C661.167 1392.33 650.3 1467.1 653.5 1519.5" stroke="black" stroke-width="22" stroke-linecap="round"/>
<path d="M945.201 1335.84L910.271 1292.89C909.521 1291.97 908.551 1291.23 907.481 1290.73C906.401 1290.23 905.231 1289.97 904.001 1290L787.021 1293.3C785.841 1293.31 784.671 1293.63 783.641 1294.22C782.621 1294.81 781.751 1295.65 781.121 1296.67L756.011 1338.36C754.181 1341.41 754.891 1345.42 757.691 1347.9L854.321 1433.01C855.771 1434.28 857.641 1434.99 859.511 1434.99C859.671 1434.99 859.831 1434.99 859.991 1434.98C861.901 1434.85 863.631 1434.01 864.871 1432.61L943.751 1342.56C945.381 1340.7 945.861 1338.17 945.201 1335.84ZM922.661 1330.48L893.161 1331.31L905.831 1310.29L922.661 1330.48ZM920.841 1345.46L873.301 1399.71L885.581 1346.45L920.841 1345.46ZM861.431 1306.13L890.941 1305.3L878.271 1326.33L861.431 1306.13ZM869.941 1346.9L856.771 1403.98L832.151 1347.96L869.941 1346.9ZM834.641 1332.95L847.321 1311.93L864.151 1332.12L834.641 1332.95ZM816.321 1348.4L839.101 1400.24L781.361 1349.39L816.321 1348.4ZM802.931 1307.8L832.441 1306.96L819.771 1327.99L802.931 1307.8ZM805.661 1333.77L776.151 1334.6L788.821 1313.56L805.661 1333.77Z" fill="black"/>
</g>
<defs>
<clipPath id="clip0_481_264">
<rect width="1500" height="1500" fill="white"/>
</clipPath>
</defs>
      <g clip-path="url(#clip0_497_1194)">
<path d="M379.667 654.812C432.345 471.574 618.472 401.981 699.114 390.653C740.985 382.718 849.655 375.215 949.364 408.675C980 418.956 1049.88 457.388 1091.92 499.818C1144.47 552.856 1272.97 732.052 1185.05 927.725C1097.12 1123.4 758.414 1092.29 612.749 1051.82C464.472 1010.63 314.48 881.563 379.667 654.812Z" fill="#AABBFF"/>
<path d="M449.293 747.204C454.734 531.068 585.306 432.345 649.911 410C432.292 459.565 365.296 655.455 364 747.204C377.99 984.871 584.496 1053.43 681 1058C601.498 1044.46 443.853 963.339 449.293 747.204Z" fill="#001647" fill-opacity="0.2"/>
<path d="M379.667 654.812C432.345 471.574 618.472 401.981 699.114 390.653C740.985 382.718 849.655 375.215 949.364 408.675C980 418.956 1049.88 457.388 1091.92 499.818C1144.47 552.856 1272.97 732.052 1185.05 927.725C1097.12 1123.4 758.414 1092.29 612.749 1051.82C464.472 1010.63 314.48 881.563 379.667 654.812Z" stroke="black" stroke-width="22" stroke-linecap="round"/>
</g>
<defs>
    <clipPath id="prefix__clip0_299_662"><path fill="#fff" d="M0 0h1500v1500H0z"/></clipPath>
</defs>
      <g clip-path="url(#clip0_624_3293)">
<path d="M916.488 918.577L931.325 908.854C933.985 907.112 936.223 904.799 937.876 902.083C939.529 899.367 940.556 896.317 940.882 893.154C941.208 889.991 940.825 886.795 939.761 883.799C938.697 880.803 936.978 878.082 934.73 875.834V875.834C932.657 873.764 930.181 872.142 927.456 871.068C924.731 869.994 921.814 869.491 918.886 869.59C915.959 869.689 913.083 870.388 910.436 871.643C907.79 872.899 905.429 874.684 903.501 876.889L890.301 891.98" stroke="black" stroke-width="22" stroke-miterlimit="10" stroke-linecap="round"/>
<path d="M916.488 918.675L931.325 928.397C933.986 930.137 936.225 932.449 937.879 935.164C939.533 937.88 940.561 940.93 940.887 944.092C941.213 947.255 940.83 950.451 939.764 953.446C938.699 956.442 936.979 959.162 934.73 961.409V961.409C932.66 963.484 930.185 965.11 927.46 966.188C924.734 967.265 921.817 967.77 918.888 967.672C915.959 967.574 913.081 966.874 910.434 965.617C907.787 964.359 905.427 962.57 903.501 960.362L890.301 945.271" stroke="black" stroke-width="22" stroke-miterlimit="10" stroke-linecap="round"/>
<path d="M1012 817C1038.51 817 1060 795.51 1060 769C1060 742.49 1038.51 721 1012 721C985.49 721 964 742.49 964 769C964 795.51 985.49 817 1012 817Z" fill="black" stroke="black" stroke-width="22" stroke-miterlimit="10"/>
<path d="M1025.18 765.61C1035.8 765.61 1044.4 757.009 1044.4 746.398C1044.4 735.788 1035.8 727.186 1025.18 727.186C1014.57 727.186 1005.97 735.788 1005.97 746.398C1005.97 757.009 1014.57 765.61 1025.18 765.61Z" fill="white"/>
<path d="M994.295 774.185C998.822 774.185 1002.49 770.515 1002.49 765.988C1002.49 761.461 998.822 757.791 994.295 757.791C989.768 757.791 986.098 761.461 986.098 765.988C986.098 770.515 989.768 774.185 994.295 774.185Z" fill="white"/>
<path d="M1018.1 800.697C1026.05 800.697 1032.49 794.254 1032.49 786.307C1032.49 778.359 1026.05 771.917 1018.1 771.917C1010.16 771.917 1003.71 778.359 1003.71 786.307C1003.71 794.254 1010.16 800.697 1018.1 800.697Z" fill="white"/>
<path d="M822 817C848.51 817 870 795.51 870 769C870 742.49 848.51 721 822 721C795.49 721 774 742.49 774 769C774 795.51 795.49 817 822 817Z" fill="black" stroke="black" stroke-width="22" stroke-miterlimit="10"/>
<path d="M835.185 765.61C845.795 765.61 854.397 757.009 854.397 746.398C854.397 735.788 845.795 727.186 835.185 727.186C824.574 727.186 815.973 735.788 815.973 746.398C815.973 757.009 824.574 765.61 835.185 765.61Z" fill="white"/>
<path d="M804.295 774.185C808.822 774.185 812.492 770.515 812.492 765.988C812.492 761.461 808.822 757.791 804.295 757.791C799.768 757.791 796.098 761.461 796.098 765.988C796.098 770.515 799.768 774.185 804.295 774.185Z" fill="white"/>
<path d="M828.103 800.697C836.051 800.697 842.493 794.254 842.493 786.307C842.493 778.359 836.051 771.917 828.103 771.917C820.156 771.917 813.713 778.359 813.713 786.307C813.713 794.254 820.156 800.697 828.103 800.697Z" fill="white"/>
</g>
<defs>
<clipPath id="clip0_624_3293">
<rect width="1500" height="1500" fill="white"/>
</clipPath>
</defs>
      <g clip-path="url(#clip0_838_2287)">
<path opacity="0.4" d="M821.549 858C843.021 857.988 863.72 849.99 879.622 835.563C895.524 821.135 905.492 801.309 907.587 779.94C909.682 758.571 903.755 737.187 890.958 719.946C878.16 702.704 859.408 690.839 838.348 686.657C817.288 682.475 795.425 686.275 777.011 697.318C758.597 708.361 744.949 725.859 738.72 746.407C732.491 766.955 734.127 789.085 743.31 808.494C752.493 827.903 768.566 843.202 788.403 851.418C798.912 855.771 810.175 858.008 821.549 858Z" fill="white"/>
<ellipse cx="932" cy="915.5" rx="131" ry="69.5" fill="#AABBFF"/>
<path opacity="0.5" d="M755.001 714.699C755.001 714.699 754.214 696.527 795.319 691L872 841.914C872 841.914 857.773 858.504 827.655 857.988L755.001 714.699Z" fill="white"/>
<path opacity="0.5" d="M808 687.959C808 687.959 809.662 687.651 823.768 678L892 817.977C892 817.977 890.955 827.356 879.411 830L808 687.959Z" fill="white"/>
<path d="M847.684 952.99C796.393 960.533 771.057 930.01 764.065 911.56C763.735 910.688 764.715 909.945 765.529 910.399C794.794 926.75 833.656 903.637 851.184 871.99C854.749 865.552 859.18 860.308 864.102 856.095C892.633 831.676 933.121 867.002 920.263 902.286C911.028 927.625 887.792 947.092 847.684 952.99Z" fill="white"/>
<path d="M999.033 952.99C1050.32 960.533 1075.66 930.01 1082.65 911.56C1082.98 910.688 1082 909.945 1081.19 910.399C1051.92 926.75 1013.06 903.637 995.533 871.99C991.967 865.552 987.536 860.308 982.614 856.095C954.083 831.676 913.595 867.002 926.454 902.286C935.688 927.625 958.924 947.092 999.033 952.99Z" fill="white"/>
<path d="M883 852.5C880.2 911.7 822.5 934.5 794 938.5L769.5 916.5L826.5 903.5L851 878.5L858 857.5L883 852.5Z" fill="#001647" fill-opacity="0.2"/>
<path d="M970 938.5C944.8 914.9 950.833 871.333 957 852.5L940 854.5L924.5 867V897L945 925.5L970 938.5Z" fill="#001647" fill-opacity="0.2"/>
<path d="M696.5 746H737.5L735.5 778H696.5V746Z" fill="#FFBF44"/>
<path fill-rule="evenodd" clip-rule="evenodd" d="M923.128 858.444C920.378 854.373 917.104 850.735 913.467 847.667C898.471 835.019 875.672 830.954 856.916 847.007C851.117 851.97 845.915 858.138 841.752 865.655C833.922 879.792 821.289 891.997 807.644 898.738C794.019 905.47 780.618 906.266 769.722 900.179C765.529 897.836 760.758 898.595 757.539 901.103C754.19 903.712 752.131 908.602 754.03 913.613C762.359 935.589 791.66 969.745 848.455 961.393C885.007 956.018 909.903 939.731 923.128 916.788C936.352 939.732 961.248 956.018 997.801 961.393C1054.6 969.746 1083.9 935.59 1092.23 913.613C1094.12 908.602 1092.07 903.712 1088.72 901.103C1085.5 898.596 1080.73 897.836 1076.53 900.179C1065.64 906.267 1052.24 905.47 1038.61 898.738C1024.97 891.997 1012.33 879.792 1004.5 865.655C1000.34 858.139 995.139 851.971 989.339 847.007C970.583 830.954 947.785 835.019 932.789 847.667C929.152 850.735 925.878 854.373 923.128 858.444ZM900.572 862.955C891.406 855.225 879.695 853.836 869.921 862.202C865.875 865.664 862.216 869.985 859.248 875.345C849.55 892.854 833.989 908.03 816.504 916.669C806.518 921.603 795.503 924.563 784.473 924.29C795.948 935.954 815.484 946.027 845.545 941.606C882.845 936.121 902.468 918.54 910.183 897.371C914.966 884.247 909.941 870.857 900.572 862.955ZM945.683 862.956C936.315 870.857 931.289 884.248 936.072 897.371C943.787 918.541 963.411 936.121 1000.71 941.606C1030.77 946.027 1050.31 935.954 1061.78 924.29C1050.75 924.563 1039.74 921.603 1029.75 916.669C1012.27 908.03 996.705 892.854 987.008 875.345C984.039 869.985 980.38 865.664 976.335 862.202C966.56 853.836 954.849 855.225 945.683 862.956Z" fill="black"/>
<path d="M738 743H710.5C700.835 743 693 750.835 693 760.5V760.5C693 770.165 700.835 778 710.5 778H738M689.5 759L671.456 767.728C636.886 784.449 631.245 831.348 660.863 855.79V855.79C682.911 873.985 686.426 906.444 668.784 928.937L660.5 939.5" stroke="black" stroke-width="20" stroke-linecap="round"/>
<circle cx="822.5" cy="768.5" r="85.5" stroke="black" stroke-width="20"/>
</g>
<defs>
<clipPath id="clip0_838_2287">
<rect width="1500" height="1500" fill="white"/>
</clipPath>
</defs>
      <g clip-path="url(#clip0_499_1447)">
<path d="M376 874C356 831 352 775 353.5 755V739.5L479.5 706.5L646.5 687.5C701.833 680.167 835.3 652.7 926.5 601.5C1017.7 550.3 1130.83 580.167 1176 601.5C1201.2 643.1 1216.5 705.833 1221 732L1264.5 710L1335.5 644L1341 615.5C1327.83 605.667 1301.1 585.7 1299.5 584.5C1297.9 583.3 1248.5 559.333 1224 547.5L1136.5 495L1089 454C1081.5 442.667 1056.4 397.4 1016 307C975.6 216.6 873.5 214 827.5 224C771.167 234.5 635.3 261.6 542.5 286C449.7 310.4 413.5 348.834 407 365L388 489.5L382 584.5L353.5 649L239.5 806.5C247.5 813 267.6 830.8 284 850C300.4 869.2 352.167 874 376 874Z" fill="#3A3A3A"/>
<path d="M492 583.5C467.6 608.3 438.167 685.167 426.5 718L354 749.5C349 784 364 854 378 876L355.5 878L295.5 856.5L245.5 818V802L347 665L378 597L393.5 482.5L403.5 368.5L443.5 329.5L522.5 299.5C495 389.5 498.833 497.667 506.5 543L579.5 512.5L749 467.5L947.5 440.5L1019 452.5L1018.54 455.235C1017.4 462.096 1011.09 466.826 1004.17 466.186C831.696 450.262 592.254 528.165 492 583.5Z" fill="black" fill-opacity="0.2"/>
<path d="M1220 730C1215 693 1193 634 1177.5 604.5L1220 610L1289.5 616L1345.5 619.5L1331.5 653.5L1294 695.5L1253 717.5L1220 730Z" fill="black" fill-opacity="0.2"/>
<path d="M765.107 381.136L770.241 393.61C771.175 395.779 771.611 398.129 771.516 400.489C771.238 406.936 766.948 408.277 766.948 408.277C764.757 409.369 762.355 409.974 759.907 410.051C757.32 410.139 754.741 409.73 752.309 408.845C744.955 405.899 715.835 372.493 715.835 372.493L705.815 419.988L687.493 424.384L701.606 358.064L680.071 337.367C678.631 335.98 676.882 334.952 674.968 334.368C673.117 333.789 671.148 333.688 669.246 334.074L668.95 334.147C667.299 334.356 665.73 334.987 664.395 335.981C663.132 336.93 662.169 338.221 661.62 339.701C660.479 341.96 662.218 347.992 662.218 347.992L658.556 349.16C656.599 345.795 655.025 342.221 653.866 338.506C652.98 335.817 652.878 332.932 653.57 330.186C653.991 328.292 654.962 326.564 656.363 325.219C657.829 323.831 659.646 322.868 661.618 322.433C665.038 321.612 668.792 321.825 672.366 323.045C675.971 324.277 679.224 326.359 681.85 329.115L703.905 352.943L713.587 311.797L730.265 307.797L717.275 365.594L733.417 382.518C733.417 382.518 747.299 399.269 756.428 397.079C765.558 394.889 761.198 382.056 761.198 382.056L765.107 381.136Z" fill="white"/>
<path d="M452.773 571.28C563.116 511.305 821.5 413.5 1022.05 447.163M1215.09 734.367C1293.13 704.467 1331.11 656.617 1344.38 628.399C1347.53 621.702 1345.42 613.97 1339.66 609.317C1322.28 595.265 1287.7 571.775 1238.64 550.176C1193.41 530.262 1142.48 497.329 1108.33 473.151C1090.34 460.41 1078.37 441.255 1070.66 420.597C1047.56 358.685 1006.86 298.749 975.15 260.245C960.236 242.133 938.189 231.705 914.76 230.46C705.301 219.332 524.535 286.218 436.126 335.612C415.641 347.058 402.083 367.059 398.854 390.302C391.558 442.833 384.122 531.205 379.99 587.396C379.192 598.258 376.803 608.945 371.679 618.556C346.078 666.577 283.742 747.752 245.107 795.488C238.55 803.591 239.172 815.376 247.136 822.1C280.405 850.188 338.469 887.386 386 879.581M240.445 809.859C262.016 792.823 333.044 745.637 420.196 720.843C529.137 689.851 641.153 689.404 727.402 672.098C848.466 647.807 916.791 573.215 1047.32 572.025C1177.85 570.835 1187.03 629.968 1339.22 617.077" stroke="black" stroke-width="22" stroke-linecap="round"/>
</g>
<defs>
<clipPath id="clip0_499_1447">
<rect width="1500" height="1500" fill="white"/>
</clipPath>
</defs>
      
    </g>
    </svg>