<svg
      xmlns="http://www.w3.org/2000/svg"
      preserveAspectRatio="xMidYMin meet"
      fill="none"
      viewBox="0 0 1500 1500"
    >
      <g>
      <path fill="url(#prefix__a1)" d="M0 0h1500v1500H0z"/><defs><linearGradient id="prefix__a1" x1="1500" y1="1500" x2="0" y2="0" gradientUnits="userSpaceOnUse">
<stop stop-color="#1555D1"/>
<stop offset="1" stop-color="#70E5FF"/>
</linearGradient></defs>
      <g clip-path="url(#clip0_494_770)">
<path d="M773 1011.5C543.4 1029.9 398.667 1353.5 355 1513H1138.5C1075.7 1127 868.667 1017.83 773 1011.5Z" fill="#AABBFF"/>
<path d="M665.5 1302.5C658.3 1195.7 560.833 1178.67 513 1183.5L587.5 1096L665.5 1040L704 1029.5C714 1075.5 753 1164.5 822 1164.5C877.2 1164.5 900.333 1094.5 905 1059.5L1021 1201.5L1016.5 1236V1287L1028.5 1354L1043.5 1423L1047.5 1509.5H650V1503C658.167 1480.67 672.7 1409.3 665.5 1302.5Z" fill="white"/>
<path d="M749.5 1019.5C536 1134 457.448 1414.63 443.159 1511H353.699C350.414 1508.73 357.049 1471.27 409.87 1339.62C462.691 1207.98 569.086 1113.24 605.384 1082.33L674 1033.5L749.5 1019.5Z" fill="#001647" fill-opacity="0.2"/>
<path d="M353.5 1519.5C365.5 1454.33 414.5 1313.6 483.5 1219C530.101 1155.11 577.468 1101.29 629.141 1059.66C710.278 994.299 826.037 996.323 905.02 1064.27C1000.08 1146.05 1103.44 1290.29 1142.5 1519.5M1050.5 1519.5C1048.1 1443.9 1024.83 1354.33 1013.5 1319C999.5 1268 1009.7 1225.3 1020.5 1204.5M653.5 1519.5C650.3 1467.1 661.167 1392.33 667 1361.5C674 1324.5 668 1288.8 642 1250C609.5 1201.5 554.5 1171 517 1179.5M709 1016C709 1064.17 732.1 1164.5 824.5 1164.5C884 1164.5 902.33 1109.22 895.355 1059.5" stroke="black" stroke-width="22" stroke-linecap="round"/>
<path d="M933.223 1272.02L937.932 1261.68L954.916 1287.26L955.318 1292.17L952.556 1258.38C952.5 1257.97 952.361 1257.57 952.148 1257.22C951.935 1256.87 951.653 1256.57 951.324 1256.36L923.078 1239.35C922.758 1239.18 922.407 1239.09 922.052 1239.09C921.696 1239.09 921.346 1239.18 921.025 1239.35C920.943 1239.4 920.864 1239.45 920.789 1239.5L920.701 1239.57L895.946 1256.2L895.849 1256.25C895.719 1256.32 895.596 1256.41 895.482 1256.51C895.254 1256.7 895.065 1256.95 894.928 1257.22C894.79 1257.5 894.707 1257.81 894.683 1258.12C894.677 1258.22 894.677 1258.32 894.683 1258.42L896.932 1285.96L908.934 1262.25C910.433 1259.11 914.167 1258.09 917.712 1258.15L921.877 1258.26L900.858 1301.46L903.892 1303.28L925.062 1258.29L936.011 1258.25L914.997 1304.37L925.824 1310.89L927.117 1311.67C927.647 1311.9 928.235 1311.91 928.773 1311.7L954.632 1294.33L949.695 1297.66L933.223 1272.02ZM938.026 1305.5L926.181 1287.55L931.577 1275.69L947.138 1299.37L938.026 1305.5Z" fill="#2D374B"/>
<path d="M926.181 1287.54L938.026 1305.48L947.138 1299.37L931.573 1275.68L926.181 1287.54Z" fill="#28A0F0"/>
<path d="M955.32 1292.16L954.918 1287.26L937.934 1261.68L933.221 1272.01L949.694 1297.66L954.642 1294.34C954.879 1294.11 955.065 1293.83 955.188 1293.51C955.311 1293.19 955.367 1292.84 955.351 1292.49L955.32 1292.16Z" fill="#28A0F0"/>
<path d="M893.127 1296.79L900.86 1301.46L921.879 1258.26L917.714 1258.14C914.167 1258.09 910.435 1259.1 908.936 1262.24L896.934 1285.96L892.893 1293.86L893.129 1296.8L893.127 1296.79Z" fill="white"/>
<path d="M936.023 1258.26L925.072 1258.3L903.904 1303.29L913.006 1308.77L915.009 1304.38L936.023 1258.26Z" fill="white"/>
<path d="M957.205 1258.19C957.036 1256.92 956.608 1255.7 955.953 1254.63C955.298 1253.57 954.433 1252.67 953.422 1252.02L924.807 1234.8C923.835 1234.27 922.766 1234 921.683 1234C920.599 1234 919.531 1234.27 918.559 1234.8C918.341 1234.93 893.432 1251.68 893.432 1251.68C892.347 1252.27 891.444 1253.21 890.836 1254.36C890.228 1255.52 889.941 1256.85 890.01 1258.18L892.888 1293.86L896.93 1285.95L894.681 1258.42C894.668 1258.06 894.736 1257.69 894.877 1257.36C895.018 1257.03 895.228 1256.73 895.492 1256.51C895.608 1256.41 920.945 1239.41 921.032 1239.36C921.353 1239.19 921.703 1239.11 922.059 1239.11C922.414 1239.11 922.765 1239.19 923.085 1239.36L951.331 1256.37C951.66 1256.59 951.942 1256.88 952.155 1257.23C952.368 1257.58 952.508 1257.98 952.563 1258.4L955.302 1292.5C955.327 1292.84 955.282 1293.18 955.168 1293.5C955.055 1293.83 954.876 1294.11 954.647 1294.35L949.692 1297.66L947.143 1299.38L938.024 1305.51L928.777 1311.71C928.24 1311.92 927.652 1311.91 927.122 1311.68L915.004 1304.38L913.001 1308.77L923.894 1315.34C924.253 1315.55 924.573 1315.74 924.84 1315.9C925.247 1316.13 925.523 1316.3 925.62 1316.35C926.506 1316.76 927.458 1316.97 928.42 1316.97C929.275 1316.98 930.122 1316.8 930.915 1316.45L957.78 1298.41C958.529 1297.71 959.119 1296.83 959.502 1295.83C959.885 1294.84 960.051 1293.75 959.986 1292.68L957.205 1258.19Z" fill="#8BBFDF"/>
</g>
<defs>
<clipPath id="clip0_494_770">
<rect width="1500" height="1500" fill="white"/>
</clipPath>
</defs>
      <g clip-path="url(#clip0_497_1194)">
<path d="M379.667 654.812C432.345 471.574 618.472 401.981 699.114 390.653C740.985 382.718 849.655 375.215 949.364 408.675C980 418.956 1049.88 457.388 1091.92 499.818C1144.47 552.856 1272.97 732.052 1185.05 927.725C1097.12 1123.4 758.414 1092.29 612.749 1051.82C464.472 1010.63 314.48 881.563 379.667 654.812Z" fill="#AABBFF"/>
<path d="M449.293 747.204C454.734 531.068 585.306 432.345 649.911 410C432.292 459.565 365.296 655.455 364 747.204C377.99 984.871 584.496 1053.43 681 1058C601.498 1044.46 443.853 963.339 449.293 747.204Z" fill="#001647" fill-opacity="0.2"/>
<path d="M379.667 654.812C432.345 471.574 618.472 401.981 699.114 390.653C740.985 382.718 849.655 375.215 949.364 408.675C980 418.956 1049.88 457.388 1091.92 499.818C1144.47 552.856 1272.97 732.052 1185.05 927.725C1097.12 1123.4 758.414 1092.29 612.749 1051.82C464.472 1010.63 314.48 881.563 379.667 654.812Z" stroke="black" stroke-width="22" stroke-linecap="round"/>
</g>
<defs>
    <clipPath id="prefix__clip0_299_662"><path fill="#fff" d="M0 0h1500v1500H0z"/></clipPath>
</defs>
      <g clip-path="url(#clip0_624_3437)">
<path d="M874 925.246H968.413" stroke="black" stroke-width="20" stroke-linecap="round"/>
<path d="M822 818C849.062 818 871 796.062 871 769C871 741.938 849.062 720 822 720C794.938 720 773 741.938 773 769C773 796.062 794.938 818 822 818Z" fill="white" stroke="black" stroke-width="20" stroke-miterlimit="10"/>
<path d="M1012 818C1039.06 818 1061 796.062 1061 769C1061 741.938 1039.06 720 1012 720C984.938 720 963 741.938 963 769C963 796.062 984.938 818 1012 818Z" fill="white" stroke="black" stroke-width="20" stroke-miterlimit="10"/>
<path d="M822 767C829.18 767 835 761.18 835 754C835 746.82 829.18 741 822 741C814.82 741 809 746.82 809 754C809 761.18 814.82 767 822 767Z" fill="black"/>
<path d="M1012 767C1019.18 767 1025 761.18 1025 754C1025 746.82 1019.18 741 1012 741C1004.82 741 999 746.82 999 754C999 761.18 1004.82 767 1012 767Z" fill="black"/>
</g>
<defs>
<clipPath id="clip0_624_3437">
<rect width="1500" height="1500" fill="white"/>
</clipPath>
</defs>
      <g clip-path="url(#clip0_925_1401)">
<ellipse cx="932" cy="915.5" rx="131" ry="69.5" fill="#AABBFF"/>
<path d="M918 889C941.196 889 960 870.196 960 847C960 823.804 941.196 805 918 805C894.804 805 876 823.804 876 847C876 870.196 894.804 889 918 889Z" fill="#FF6247" stroke="black" stroke-width="20"/>
<path d="M1005 930.356C1005 959.98 966.25 984 918.494 984C870.738 984 832 959.973 832 930.356C832 929.977 832 929.591 832 929.212C832.625 911.226 849.556 899.938 864.2 907.269C879.044 914.691 897.95 919.139 918.469 919.139C938.988 919.139 957.906 914.691 972.75 907.262C987.394 899.938 1004.35 911.226 1004.95 929.212C1004.99 929.591 1005 929.97 1005 930.356Z" fill="white" stroke="black" stroke-width="20"/>
<ellipse cx="931.245" cy="839.196" rx="8.55209" ry="16.8191" transform="rotate(-31.5641 931.245 839.196)" fill="white"/>
</g>
<defs>
<clipPath id="clip0_925_1401">
<rect width="1500" height="1500" fill="white"/>
</clipPath>
</defs>
      <g clip-path="url(#clip0_786_1362)">
<path d="M711.94 381.541L669.138 415.004L754.914 456.956C786.09 456.451 856.04 454.579 886.429 451.127C916.817 447.675 946.703 430.594 957.848 422.485L912.882 387.272L890.772 360.146L852.07 352.844L816.711 388.83L811.119 369.892L779.2 357.196L748.101 362.456L711.94 381.541Z" fill="#AABBFF"/>
<path d="M754.823 451.145C758.386 440.393 766.661 423.631 780.081 411.559M882.17 449.083C878.062 439.675 870.922 425.659 859.411 414.501M670.743 416.037C678.291 403.405 696.028 378.1 722.448 377.672C724.832 377.634 727.122 377.712 729.323 377.895M780.081 411.559C789.433 403.145 801.285 397.009 815.783 396.774C818.147 396.736 820.438 396.825 822.658 397.03M780.081 411.559C771.884 400.903 758.35 380.305 729.323 377.895M953.095 422.563C946.826 410.677 929.573 387.795 908.089 385.052M859.411 414.501C864.186 404.755 879.655 385.169 903.328 384.785C904.936 384.759 906.524 384.852 908.089 385.052M859.411 414.501C850.192 405.565 838.17 398.463 822.658 397.03M729.323 377.895C734.108 368.72 747.587 350.309 768.512 349.97C795.461 349.534 817.557 375.809 822.658 397.03M908.089 385.052C903.334 374.267 889.367 351.713 871.612 352C849.419 352.36 832.274 370.674 822.592 392.964" stroke="black" stroke-width="22" stroke-linecap="round"/>
<path d="M608.491 564.745L416.38 556.98L362.812 529.743C362.812 529.743 272.363 496.123 253.198 563.225C234.033 630.327 294.892 621.442 294.892 621.442C294.892 621.442 234.693 674.211 270.378 706.733C306.063 739.255 343.827 713.758 343.827 713.758L416.58 661.471L498.131 638.01L615.409 626.272L608.491 564.745Z" fill="white"/>
<path d="M1313.95 616.67C1343.53 624.964 1353.97 603.922 1355.5 592.365L1365.24 602.265L1358.04 623.522L1325.76 653.906L1280.89 634.981L1240.1 609.249L1176.5 604L1167.5 587.5C1192.71 585.773 1215.27 583.908 1246.09 586.675C1284.61 590.133 1276.98 606.303 1313.95 616.67Z" fill="#001647" fill-opacity="0.2"/>
<path d="M376.041 543.941L451.5 564C445.667 578.482 433.8 616.452 433 652.473L423.636 652.473L373.93 690.257C360.188 706.18 322.679 735.212 282.572 723.957C242.466 712.703 264.742 652.888 280.893 624.388L256.504 600.586C252.576 593.245 251.141 570.202 276.83 536.763C302.518 503.324 353.674 527.616 376.041 543.941Z" fill="#001647" fill-opacity="0.2"/>
<path d="M1147.68 552.365C1135.98 538.355 1219.43 538.929 1219.43 538.929C1219.43 538.929 1254.66 534.738 1267.43 502.145C1280.19 469.553 1317.73 465.798 1317.73 465.798C1317.73 465.798 1365.46 483.33 1352.18 522.962C1338.9 562.593 1363.22 579.179 1363.22 579.179C1363.22 579.179 1376.45 653.536 1308.8 647.658C1254.5 641.001 1240.52 605.909 1240.52 605.909L1180.71 610.518C1180.71 610.518 1160.41 571.117 1147.68 552.365Z" fill="white"/>
<path d="M611.835 564.803L427.763 560.735C406.985 560.413 387.112 552.175 372.2 537.702C356.523 522.276 329.415 507.111 289.65 523.161C289.65 523.161 205.1 571.269 285.459 626.853" stroke="black" stroke-width="22" stroke-miterlimit="10" stroke-linecap="round"/>
<path d="M318.465 579.12C318.465 579.12 317.24 603.8 280.903 634.768C258.494 653.851 252.41 686.156 271.707 708.306C282.308 720.434 299.031 727.853 325.438 721.163C341.011 717.065 354.922 708.217 365.235 695.849C383.056 674.844 439.333 633.819 609.357 626.064" stroke="black" stroke-width="22" stroke-miterlimit="10" stroke-linecap="round"/>
<path d="M1138.98 548.869L1228.83 537.633C1236.45 536.441 1243.65 533.332 1249.75 528.597C1255.85 523.862 1260.64 517.656 1263.69 510.561C1273.66 487.565 1285.19 462.11 1322.31 466.158C1357.24 469.953 1362.46 494.653 1354.02 518.318C1349.17 531.539 1342.05 543.814 1332.99 554.595C1327.1 561.734 1321.25 568.811 1319.85 577.526" stroke="black" stroke-width="22" stroke-miterlimit="10" stroke-linecap="round"/>
<path d="M1175 610.751L1231.5 610.75C1237.54 610.698 1243.53 611.84 1249.13 614.111C1254.73 616.382 1259.83 619.737 1264.12 623.984C1279.21 638.777 1307.01 658.318 1337.22 641.261C1382.38 615.771 1365.61 562.554 1341.07 546.161" stroke="black" stroke-width="22" stroke-miterlimit="10" stroke-linecap="round"/>
<path d="M600.396 536.211C619.215 578.661 618.881 598.206 612.064 645.818L609.583 655.148" stroke="black" stroke-width="22" stroke-miterlimit="10" stroke-linecap="round"/>
</g>
<defs>
<clipPath id="clip0_786_1362">
<rect width="1500" height="1500" fill="white"/>
</clipPath>
</defs>
      
    </g>
    </svg>