<svg width="1500" height="1500" viewBox="0 0 1500 1500" fill="none" xmlns="http://www.w3.org/2000/svg">
<g clip-path="url(#clip0_949_2373)">
<path d="M773 1011.5C543.4 1029.9 398.667 1353.5 355 1513H1138.5C1075.7 1127 868.667 1017.83 773 1011.5Z" fill="#53B6F9"/>
<path d="M800 1291L805.5 1506.5H902.5V1390L886 1181L872 1038L834 1021L785 1010L790.5 1088.5L800 1291Z" fill="#AABBFF"/>
<path d="M749.5 1019.5C536 1134 457.448 1414.63 443.159 1511H353.699C350.414 1508.73 357.049 1471.27 409.87 1339.62C462.691 1207.98 569.086 1113.24 605.384 1082.33L674 1033.5L749.5 1019.5Z" fill="#001647" fill-opacity="0.2"/>
<path d="M875 1511C872.6 1367.4 850.167 1109 838 1027.67L865.5 1022.5L896 1309L909.5 1511H875Z" fill="#001647" fill-opacity="0.2"/>
<path d="M718 1242C697.6 1218 663.167 1149.67 648.5 1120H682L723 1198L718 1242Z" fill="#001647" fill-opacity="0.2"/>
<path d="M799 1248.5L806 1516L725.5 1511L723.5 1130.5L593.5 1092.5L613 1067.5L690.5 1026L784 1007L799 1248.5Z" fill="white"/>
<path d="M902.5 1330V1511L973 1516L961 1301L943 1140L961 1117.5L865.5 1037L876.5 1111.5L902.5 1330Z" fill="white"/>
<path d="M353.5 1519.5C365.5 1454.33 414.5 1313.6 483.5 1219C530.101 1155.11 577.468 1101.29 629.141 1059.66C710.278 994.299 826.037 996.323 905.02 1064.27C1000.08 1146.05 1103.44 1290.29 1142.5 1519.5M1013.5 1319C1024.83 1354.33 1048.1 1443.9 1050.5 1519.5M667 1361.5C661.167 1392.33 650.3 1467.1 653.5 1519.5M590.5 1094C608.32 1101.43 669.069 1118.55 723.843 1128.21C724.803 1128.38 725.498 1129.21 725.496 1130.19L724.5 1513M807 1513C806.167 1411.5 798 1113.2 788 1014M872.5 1044.5C885 1133.33 909.1 1383.4 903.5 1513M974.5 1513C974.5 1426.32 958.715 1241.65 941.192 1138.62C941.071 1137.91 941.343 1137.22 941.899 1136.76L960.5 1121.5" stroke="black" stroke-width="22" stroke-linecap="round"/>
<circle cx="765" cy="1390" r="11" fill="black"/>
<circle cx="764" cy="1467" r="11" fill="black"/>
<circle cx="940" cy="1474" r="11" fill="black"/>
<circle cx="764" cy="1310" r="11" fill="black"/>
<circle cx="764" cy="1235" r="11" fill="black"/>
<circle cx="762" cy="1171" r="11" fill="black"/>
<circle cx="757" cy="1109" r="11" fill="black"/>
<circle cx="913" cy="1108" r="11" fill="black"/>
<circle cx="913" cy="1163" r="11" fill="black"/>
<circle cx="922" cy="1228" r="11" fill="black"/>
<circle cx="929" cy="1305" r="11" fill="black"/>
<circle cx="936" cy="1389" r="11" fill="black"/>
<circle cx="682" cy="1087" r="11" fill="black"/>
<path d="M828.502 1280.02L860.782 1271.89L865.092 1260.61L835.602 1255.08L778.062 1187.13L707.5 1030.5L697.234 1034.13C682.456 1039.36 668.293 1046.19 655 1054.5L692.472 1154.76L744.972 1226.69L807.012 1284.02L828.502 1280.02Z" fill="#FF6247"/>
<path d="M852.95 1256.94C852.95 1256.94 767.5 1193.5 702 1019" stroke="black" stroke-width="20" stroke-miterlimit="10"/>
<path d="M650 1048.5C650 1048.5 719 1230.5 803.012 1286.02" stroke="black" stroke-width="20" stroke-miterlimit="10"/>
<path d="M869 1245.5L851 1272.5L865.5 1267.5L908 1289L959.5 1132L920 1090L869 1245.5Z" fill="#FF6247"/>
<path d="M852.949 1256.94C852.949 1256.94 908.5 1191.5 913 1072.5" stroke="black" stroke-width="20" stroke-miterlimit="10"/>
<path d="M900.91 1291.7C900.91 1291.7 957 1215.5 957 1112" stroke="black" stroke-width="20" stroke-miterlimit="10"/>
<path d="M852.949 1390.08C886.953 1390.08 914.519 1362.52 914.519 1328.51C914.519 1294.51 886.953 1266.94 852.949 1266.94C818.945 1266.94 791.379 1294.51 791.379 1328.51C791.379 1362.52 818.945 1390.08 852.949 1390.08Z" fill="#FFD700" stroke="black" stroke-width="20" stroke-miterlimit="10"/>
<path d="M868.899 1351.61L853.566 1343.44L839.499 1353.71C839.247 1353.89 838.949 1353.99 838.64 1354C838.332 1354.01 838.028 1353.93 837.766 1353.76C837.504 1353.6 837.296 1353.36 837.169 1353.08C837.041 1352.8 837 1352.48 837.05 1352.18L840.056 1335.02L826.135 1324.8C825.886 1324.61 825.698 1324.36 825.593 1324.07C825.488 1323.78 825.472 1323.46 825.546 1323.16C825.62 1322.86 825.781 1322.59 826.009 1322.38C826.238 1322.17 826.523 1322.03 826.828 1321.99L843.881 1319.56L849.216 1302.99C849.333 1302.71 849.524 1302.48 849.766 1302.3C850.009 1302.13 850.295 1302.03 850.593 1302C850.89 1301.98 851.188 1302.04 851.453 1302.18C851.718 1302.32 851.941 1302.52 852.097 1302.78L859.724 1318.45H876.943C877.253 1318.45 877.556 1318.54 877.812 1318.72C878.069 1318.89 878.268 1319.14 878.385 1319.42C878.502 1319.71 878.53 1320.03 878.468 1320.33C878.405 1320.64 878.253 1320.91 878.032 1321.13L865.695 1333.23L871.098 1349.78C871.191 1350.08 871.195 1350.39 871.109 1350.69C871.023 1350.99 870.851 1351.25 870.615 1351.45C870.378 1351.65 870.088 1351.78 869.781 1351.81C869.474 1351.85 869.163 1351.79 868.889 1351.65L868.899 1351.61Z" fill="black"/>
</g>
<defs>
<clipPath id="clip0_949_2373">
<rect width="1500" height="1500" fill="white"/>
</clipPath>
</defs>
</svg>
